G04 #@! TF.GenerationSoftware,KiCad,Pcbnew,(5.1.2-1)-1*
G04 #@! TF.CreationDate,2020-08-22T16:28:59-05:00*
G04 #@! TF.ProjectId,Core64 CB v0.4,436f7265-3634-4204-9342-2076302e342e,0.3*
G04 #@! TF.SameCoordinates,Original*
G04 #@! TF.FileFunction,Legend,Top*
G04 #@! TF.FilePolarity,Positive*
%FSLAX46Y46*%
G04 Gerber Fmt 4.6, Leading zero omitted, Abs format (unit mm)*
G04 Created by KiCad (PCBNEW (5.1.2-1)-1) date 2020-08-22 16:28:59*
%MOMM*%
%LPD*%
G04 APERTURE LIST*
%ADD10C,0.160000*%
%ADD11C,0.250000*%
%ADD12C,0.150000*%
%ADD13C,0.010000*%
%ADD14C,0.152400*%
G04 APERTURE END LIST*
D10*
X18510238Y-37302380D02*
X18605476Y-37302380D01*
X18700714Y-37350000D01*
X18748333Y-37397619D01*
X18795952Y-37492857D01*
X18843571Y-37683333D01*
X18843571Y-37921428D01*
X18795952Y-38111904D01*
X18748333Y-38207142D01*
X18700714Y-38254761D01*
X18605476Y-38302380D01*
X18510238Y-38302380D01*
X18415000Y-38254761D01*
X18367380Y-38207142D01*
X18319761Y-38111904D01*
X18272142Y-37921428D01*
X18272142Y-37683333D01*
X18319761Y-37492857D01*
X18367380Y-37397619D01*
X18415000Y-37350000D01*
X18510238Y-37302380D01*
X19176904Y-38302380D02*
X19700714Y-37635714D01*
X19176904Y-37635714D02*
X19700714Y-38302380D01*
X19986428Y-37302380D02*
X20605476Y-37302380D01*
X20272142Y-37683333D01*
X20415000Y-37683333D01*
X20510238Y-37730952D01*
X20557857Y-37778571D01*
X20605476Y-37873809D01*
X20605476Y-38111904D01*
X20557857Y-38207142D01*
X20510238Y-38254761D01*
X20415000Y-38302380D01*
X20129285Y-38302380D01*
X20034047Y-38254761D01*
X19986428Y-38207142D01*
X20938809Y-37302380D02*
X21557857Y-37302380D01*
X21224523Y-37683333D01*
X21367380Y-37683333D01*
X21462619Y-37730952D01*
X21510238Y-37778571D01*
X21557857Y-37873809D01*
X21557857Y-38111904D01*
X21510238Y-38207142D01*
X21462619Y-38254761D01*
X21367380Y-38302380D01*
X21081666Y-38302380D01*
X20986428Y-38254761D01*
X20938809Y-38207142D01*
X5310238Y-37302380D02*
X5405476Y-37302380D01*
X5500714Y-37350000D01*
X5548333Y-37397619D01*
X5595952Y-37492857D01*
X5643571Y-37683333D01*
X5643571Y-37921428D01*
X5595952Y-38111904D01*
X5548333Y-38207142D01*
X5500714Y-38254761D01*
X5405476Y-38302380D01*
X5310238Y-38302380D01*
X5214999Y-38254761D01*
X5167380Y-38207142D01*
X5119761Y-38111904D01*
X5072142Y-37921428D01*
X5072142Y-37683333D01*
X5119761Y-37492857D01*
X5167380Y-37397619D01*
X5214999Y-37350000D01*
X5310238Y-37302380D01*
X5976904Y-38302380D02*
X6500714Y-37635714D01*
X5976904Y-37635714D02*
X6500714Y-38302380D01*
X6786428Y-37302380D02*
X7405476Y-37302380D01*
X7072142Y-37683333D01*
X7214999Y-37683333D01*
X7310238Y-37730952D01*
X7357857Y-37778571D01*
X7405476Y-37873809D01*
X7405476Y-38111904D01*
X7357857Y-38207142D01*
X7310238Y-38254761D01*
X7214999Y-38302380D01*
X6929285Y-38302380D01*
X6834047Y-38254761D01*
X6786428Y-38207142D01*
X7786428Y-37397619D02*
X7834047Y-37350000D01*
X7929285Y-37302380D01*
X8167380Y-37302380D01*
X8262619Y-37350000D01*
X8310238Y-37397619D01*
X8357857Y-37492857D01*
X8357857Y-37588095D01*
X8310238Y-37730952D01*
X7738809Y-38302380D01*
X8357857Y-38302380D01*
X-8189761Y-37302380D02*
X-8094523Y-37302380D01*
X-7999285Y-37350000D01*
X-7951666Y-37397619D01*
X-7904047Y-37492857D01*
X-7856428Y-37683333D01*
X-7856428Y-37921428D01*
X-7904047Y-38111904D01*
X-7951666Y-38207142D01*
X-7999285Y-38254761D01*
X-8094523Y-38302380D01*
X-8189761Y-38302380D01*
X-8285000Y-38254761D01*
X-8332619Y-38207142D01*
X-8380238Y-38111904D01*
X-8427857Y-37921428D01*
X-8427857Y-37683333D01*
X-8380238Y-37492857D01*
X-8332619Y-37397619D01*
X-8285000Y-37350000D01*
X-8189761Y-37302380D01*
X-7523095Y-38302380D02*
X-6999285Y-37635714D01*
X-7523095Y-37635714D02*
X-6999285Y-38302380D01*
X-6713571Y-37302380D02*
X-6094523Y-37302380D01*
X-6427857Y-37683333D01*
X-6285000Y-37683333D01*
X-6189761Y-37730952D01*
X-6142142Y-37778571D01*
X-6094523Y-37873809D01*
X-6094523Y-38111904D01*
X-6142142Y-38207142D01*
X-6189761Y-38254761D01*
X-6285000Y-38302380D01*
X-6570714Y-38302380D01*
X-6665952Y-38254761D01*
X-6713571Y-38207142D01*
X-5142142Y-38302380D02*
X-5713571Y-38302380D01*
X-5427857Y-38302380D02*
X-5427857Y-37302380D01*
X-5523095Y-37445238D01*
X-5618333Y-37540476D01*
X-5713571Y-37588095D01*
X-21589761Y-37302380D02*
X-21494523Y-37302380D01*
X-21399285Y-37350000D01*
X-21351666Y-37397619D01*
X-21304047Y-37492857D01*
X-21256428Y-37683333D01*
X-21256428Y-37921428D01*
X-21304047Y-38111904D01*
X-21351666Y-38207142D01*
X-21399285Y-38254761D01*
X-21494523Y-38302380D01*
X-21589761Y-38302380D01*
X-21685000Y-38254761D01*
X-21732619Y-38207142D01*
X-21780238Y-38111904D01*
X-21827857Y-37921428D01*
X-21827857Y-37683333D01*
X-21780238Y-37492857D01*
X-21732619Y-37397619D01*
X-21685000Y-37350000D01*
X-21589761Y-37302380D01*
X-20923095Y-38302380D02*
X-20399285Y-37635714D01*
X-20923095Y-37635714D02*
X-20399285Y-38302380D01*
X-20113571Y-37302380D02*
X-19494523Y-37302380D01*
X-19827857Y-37683333D01*
X-19685000Y-37683333D01*
X-19589761Y-37730952D01*
X-19542142Y-37778571D01*
X-19494523Y-37873809D01*
X-19494523Y-38111904D01*
X-19542142Y-38207142D01*
X-19589761Y-38254761D01*
X-19685000Y-38302380D01*
X-19970714Y-38302380D01*
X-20065952Y-38254761D01*
X-20113571Y-38207142D01*
X-18875476Y-37302380D02*
X-18780238Y-37302380D01*
X-18685000Y-37350000D01*
X-18637380Y-37397619D01*
X-18589761Y-37492857D01*
X-18542142Y-37683333D01*
X-18542142Y-37921428D01*
X-18589761Y-38111904D01*
X-18637380Y-38207142D01*
X-18685000Y-38254761D01*
X-18780238Y-38302380D01*
X-18875476Y-38302380D01*
X-18970714Y-38254761D01*
X-19018333Y-38207142D01*
X-19065952Y-38111904D01*
X-19113571Y-37921428D01*
X-19113571Y-37683333D01*
X-19065952Y-37492857D01*
X-19018333Y-37397619D01*
X-18970714Y-37350000D01*
X-18875476Y-37302380D01*
X-38941380Y18862619D02*
X-38941380Y18110238D01*
X-39208047Y19690238D02*
X-38941380Y18862619D01*
X-38674714Y19690238D01*
X-38027095Y18110238D02*
X-38408047Y18110238D01*
X-38408047Y19690238D01*
X-37608047Y19690238D02*
X-37531857Y19690238D01*
X-37455666Y19615000D01*
X-37417571Y19539761D01*
X-37379476Y19389285D01*
X-37341380Y19088333D01*
X-37341380Y18712142D01*
X-37379476Y18411190D01*
X-37417571Y18260714D01*
X-37455666Y18185476D01*
X-37531857Y18110238D01*
X-37608047Y18110238D01*
X-37684238Y18185476D01*
X-37722333Y18260714D01*
X-37760428Y18411190D01*
X-37798523Y18712142D01*
X-37798523Y19088333D01*
X-37760428Y19389285D01*
X-37722333Y19539761D01*
X-37684238Y19615000D01*
X-37608047Y19690238D01*
X-38941380Y16332619D02*
X-38941380Y15580238D01*
X-39208047Y17160238D02*
X-38941380Y16332619D01*
X-38674714Y17160238D01*
X-38027095Y15580238D02*
X-38408047Y15580238D01*
X-38408047Y17160238D01*
X-37341380Y15580238D02*
X-37798523Y15580238D01*
X-37569952Y15580238D02*
X-37569952Y17160238D01*
X-37646142Y16934523D01*
X-37722333Y16784047D01*
X-37798523Y16708809D01*
X-38941380Y13802619D02*
X-38941380Y13050238D01*
X-39208047Y14630238D02*
X-38941380Y13802619D01*
X-38674714Y14630238D01*
X-38027095Y13050238D02*
X-38408047Y13050238D01*
X-38408047Y14630238D01*
X-37798523Y14479761D02*
X-37760428Y14555000D01*
X-37684238Y14630238D01*
X-37493761Y14630238D01*
X-37417571Y14555000D01*
X-37379476Y14479761D01*
X-37341380Y14329285D01*
X-37341380Y14178809D01*
X-37379476Y13953095D01*
X-37836619Y13050238D01*
X-37341380Y13050238D01*
X-38941380Y11272619D02*
X-38941380Y10520238D01*
X-39208047Y12100238D02*
X-38941380Y11272619D01*
X-38674714Y12100238D01*
X-38027095Y10520238D02*
X-38408047Y10520238D01*
X-38408047Y12100238D01*
X-37836619Y12100238D02*
X-37341380Y12100238D01*
X-37608047Y11498333D01*
X-37493761Y11498333D01*
X-37417571Y11423095D01*
X-37379476Y11347857D01*
X-37341380Y11197380D01*
X-37341380Y10821190D01*
X-37379476Y10670714D01*
X-37417571Y10595476D01*
X-37493761Y10520238D01*
X-37722333Y10520238D01*
X-37798523Y10595476D01*
X-37836619Y10670714D01*
X-40084238Y8742619D02*
X-40084238Y7990238D01*
X-40350904Y9570238D02*
X-40084238Y8742619D01*
X-39817571Y9570238D01*
X-39169952Y7990238D02*
X-39550904Y7990238D01*
X-39550904Y9570238D01*
X-38560428Y9043571D02*
X-38560428Y7990238D01*
X-38750904Y9645476D02*
X-38941380Y8516904D01*
X-38446142Y8516904D01*
X-38103285Y8065476D02*
X-38103285Y7990238D01*
X-38141380Y7839761D01*
X-38179476Y7764523D01*
X-37417571Y9570238D02*
X-37569952Y9570238D01*
X-37646142Y9495000D01*
X-37684238Y9419761D01*
X-37760428Y9194047D01*
X-37798523Y8893095D01*
X-37798523Y8291190D01*
X-37760428Y8140714D01*
X-37722333Y8065476D01*
X-37646142Y7990238D01*
X-37493761Y7990238D01*
X-37417571Y8065476D01*
X-37379476Y8140714D01*
X-37341380Y8291190D01*
X-37341380Y8667380D01*
X-37379476Y8817857D01*
X-37417571Y8893095D01*
X-37493761Y8968333D01*
X-37646142Y8968333D01*
X-37722333Y8893095D01*
X-37760428Y8817857D01*
X-37798523Y8667380D01*
X-40084238Y6212619D02*
X-40084238Y5460238D01*
X-40350904Y7040238D02*
X-40084238Y6212619D01*
X-39817571Y7040238D01*
X-39169952Y5460238D02*
X-39550904Y5460238D01*
X-39550904Y7040238D01*
X-38522333Y7040238D02*
X-38903285Y7040238D01*
X-38941380Y6287857D01*
X-38903285Y6363095D01*
X-38827095Y6438333D01*
X-38636619Y6438333D01*
X-38560428Y6363095D01*
X-38522333Y6287857D01*
X-38484238Y6137380D01*
X-38484238Y5761190D01*
X-38522333Y5610714D01*
X-38560428Y5535476D01*
X-38636619Y5460238D01*
X-38827095Y5460238D01*
X-38903285Y5535476D01*
X-38941380Y5610714D01*
X-38103285Y5535476D02*
X-38103285Y5460238D01*
X-38141380Y5309761D01*
X-38179476Y5234523D01*
X-37836619Y7040238D02*
X-37303285Y7040238D01*
X-37646142Y5460238D01*
X-40122333Y3005476D02*
X-40008047Y2930238D01*
X-39817571Y2930238D01*
X-39741380Y3005476D01*
X-39703285Y3080714D01*
X-39665190Y3231190D01*
X-39665190Y3381666D01*
X-39703285Y3532142D01*
X-39741380Y3607380D01*
X-39817571Y3682619D01*
X-39969952Y3757857D01*
X-40046142Y3833095D01*
X-40084238Y3908333D01*
X-40122333Y4058809D01*
X-40122333Y4209285D01*
X-40084238Y4359761D01*
X-40046142Y4435000D01*
X-39969952Y4510238D01*
X-39779476Y4510238D01*
X-39665190Y4435000D01*
X-39322333Y3757857D02*
X-39055666Y3757857D01*
X-38941380Y2930238D02*
X-39322333Y2930238D01*
X-39322333Y4510238D01*
X-38941380Y4510238D01*
X-38598523Y2930238D02*
X-38598523Y4510238D01*
X-38141380Y2930238D01*
X-38141380Y4510238D01*
X-37341380Y2930238D02*
X-37798523Y2930238D01*
X-37569952Y2930238D02*
X-37569952Y4510238D01*
X-37646142Y4284523D01*
X-37722333Y4134047D01*
X-37798523Y4058809D01*
X-40122333Y475476D02*
X-40008047Y400238D01*
X-39817571Y400238D01*
X-39741380Y475476D01*
X-39703285Y550714D01*
X-39665190Y701190D01*
X-39665190Y851666D01*
X-39703285Y1002142D01*
X-39741380Y1077380D01*
X-39817571Y1152619D01*
X-39969952Y1227857D01*
X-40046142Y1303095D01*
X-40084238Y1378333D01*
X-40122333Y1528809D01*
X-40122333Y1679285D01*
X-40084238Y1829761D01*
X-40046142Y1905000D01*
X-39969952Y1980238D01*
X-39779476Y1980238D01*
X-39665190Y1905000D01*
X-39322333Y1227857D02*
X-39055666Y1227857D01*
X-38941380Y400238D02*
X-39322333Y400238D01*
X-39322333Y1980238D01*
X-38941380Y1980238D01*
X-38598523Y400238D02*
X-38598523Y1980238D01*
X-38141380Y400238D01*
X-38141380Y1980238D01*
X-37798523Y1829761D02*
X-37760428Y1905000D01*
X-37684238Y1980238D01*
X-37493761Y1980238D01*
X-37417571Y1905000D01*
X-37379476Y1829761D01*
X-37341380Y1679285D01*
X-37341380Y1528809D01*
X-37379476Y1303095D01*
X-37836619Y400238D01*
X-37341380Y400238D01*
X-39246142Y-2054523D02*
X-39131857Y-2129761D01*
X-38941380Y-2129761D01*
X-38865190Y-2054523D01*
X-38827095Y-1979285D01*
X-38789000Y-1828809D01*
X-38789000Y-1678333D01*
X-38827095Y-1527857D01*
X-38865190Y-1452619D01*
X-38941380Y-1377380D01*
X-39093761Y-1302142D01*
X-39169952Y-1226904D01*
X-39208047Y-1151666D01*
X-39246142Y-1001190D01*
X-39246142Y-850714D01*
X-39208047Y-700238D01*
X-39169952Y-625000D01*
X-39093761Y-549761D01*
X-38903285Y-549761D01*
X-38789000Y-625000D01*
X-37989000Y-1979285D02*
X-38027095Y-2054523D01*
X-38141380Y-2129761D01*
X-38217571Y-2129761D01*
X-38331857Y-2054523D01*
X-38408047Y-1904047D01*
X-38446142Y-1753571D01*
X-38484238Y-1452619D01*
X-38484238Y-1226904D01*
X-38446142Y-925952D01*
X-38408047Y-775476D01*
X-38331857Y-625000D01*
X-38217571Y-549761D01*
X-38141380Y-549761D01*
X-38027095Y-625000D01*
X-37989000Y-700238D01*
X-37265190Y-2129761D02*
X-37646142Y-2129761D01*
X-37646142Y-549761D01*
X-39284238Y-4584523D02*
X-39169952Y-4659761D01*
X-38979476Y-4659761D01*
X-38903285Y-4584523D01*
X-38865190Y-4509285D01*
X-38827095Y-4358809D01*
X-38827095Y-4208333D01*
X-38865190Y-4057857D01*
X-38903285Y-3982619D01*
X-38979476Y-3907380D01*
X-39131857Y-3832142D01*
X-39208047Y-3756904D01*
X-39246142Y-3681666D01*
X-39284238Y-3531190D01*
X-39284238Y-3380714D01*
X-39246142Y-3230238D01*
X-39208047Y-3155000D01*
X-39131857Y-3079761D01*
X-38941380Y-3079761D01*
X-38827095Y-3155000D01*
X-38484238Y-4659761D02*
X-38484238Y-3079761D01*
X-38293761Y-3079761D01*
X-38179476Y-3155000D01*
X-38103285Y-3305476D01*
X-38065190Y-3455952D01*
X-38027095Y-3756904D01*
X-38027095Y-3982619D01*
X-38065190Y-4283571D01*
X-38103285Y-4434047D01*
X-38179476Y-4584523D01*
X-38293761Y-4659761D01*
X-38484238Y-4659761D01*
X-37722333Y-4208333D02*
X-37341380Y-4208333D01*
X-37798523Y-4659761D02*
X-37531857Y-3079761D01*
X-37265190Y-4659761D01*
X-39284238Y-5609761D02*
X-38789000Y-5609761D01*
X-39055666Y-6211666D01*
X-38941380Y-6211666D01*
X-38865190Y-6286904D01*
X-38827095Y-6362142D01*
X-38789000Y-6512619D01*
X-38789000Y-6888809D01*
X-38827095Y-7039285D01*
X-38865190Y-7114523D01*
X-38941380Y-7189761D01*
X-39169952Y-7189761D01*
X-39246142Y-7114523D01*
X-39284238Y-7039285D01*
X-38560428Y-5609761D02*
X-38293761Y-7189761D01*
X-38027095Y-5609761D01*
X-37836619Y-5609761D02*
X-37341380Y-5609761D01*
X-37608047Y-6211666D01*
X-37493761Y-6211666D01*
X-37417571Y-6286904D01*
X-37379476Y-6362142D01*
X-37341380Y-6512619D01*
X-37341380Y-6888809D01*
X-37379476Y-7039285D01*
X-37417571Y-7114523D01*
X-37493761Y-7189761D01*
X-37722333Y-7189761D01*
X-37798523Y-7114523D01*
X-37836619Y-7039285D01*
X-39817571Y-8215000D02*
X-39893761Y-8139761D01*
X-40008047Y-8139761D01*
X-40122333Y-8215000D01*
X-40198523Y-8365476D01*
X-40236619Y-8515952D01*
X-40274714Y-8816904D01*
X-40274714Y-9042619D01*
X-40236619Y-9343571D01*
X-40198523Y-9494047D01*
X-40122333Y-9644523D01*
X-40008047Y-9719761D01*
X-39931857Y-9719761D01*
X-39817571Y-9644523D01*
X-39779476Y-9569285D01*
X-39779476Y-9042619D01*
X-39931857Y-9042619D01*
X-39436619Y-9719761D02*
X-39436619Y-8139761D01*
X-38979476Y-9719761D01*
X-38979476Y-8139761D01*
X-38598523Y-9719761D02*
X-38598523Y-8139761D01*
X-38408047Y-8139761D01*
X-38293761Y-8215000D01*
X-38217571Y-8365476D01*
X-38179476Y-8515952D01*
X-38141380Y-8816904D01*
X-38141380Y-9042619D01*
X-38179476Y-9343571D01*
X-38217571Y-9494047D01*
X-38293761Y-9644523D01*
X-38408047Y-9719761D01*
X-38598523Y-9719761D01*
X-37798523Y-9719761D02*
X-37798523Y-8139761D01*
X-37608047Y-8139761D01*
X-37493761Y-8215000D01*
X-37417571Y-8365476D01*
X-37379476Y-8515952D01*
X-37341380Y-8816904D01*
X-37341380Y-9042619D01*
X-37379476Y-9343571D01*
X-37417571Y-9494047D01*
X-37493761Y-9644523D01*
X-37608047Y-9719761D01*
X-37798523Y-9719761D01*
X-38560428Y-12249761D02*
X-38560428Y-10669761D01*
X-38255666Y-10669761D01*
X-38179476Y-10745000D01*
X-38141380Y-10820238D01*
X-38103285Y-10970714D01*
X-38103285Y-11196428D01*
X-38141380Y-11346904D01*
X-38179476Y-11422142D01*
X-38255666Y-11497380D01*
X-38560428Y-11497380D01*
X-37646142Y-11346904D02*
X-37722333Y-11271666D01*
X-37760428Y-11196428D01*
X-37798523Y-11045952D01*
X-37798523Y-10970714D01*
X-37760428Y-10820238D01*
X-37722333Y-10745000D01*
X-37646142Y-10669761D01*
X-37493761Y-10669761D01*
X-37417571Y-10745000D01*
X-37379476Y-10820238D01*
X-37341380Y-10970714D01*
X-37341380Y-11045952D01*
X-37379476Y-11196428D01*
X-37417571Y-11271666D01*
X-37493761Y-11346904D01*
X-37646142Y-11346904D01*
X-37722333Y-11422142D01*
X-37760428Y-11497380D01*
X-37798523Y-11647857D01*
X-37798523Y-11948809D01*
X-37760428Y-12099285D01*
X-37722333Y-12174523D01*
X-37646142Y-12249761D01*
X-37493761Y-12249761D01*
X-37417571Y-12174523D01*
X-37379476Y-12099285D01*
X-37341380Y-11948809D01*
X-37341380Y-11647857D01*
X-37379476Y-11497380D01*
X-37417571Y-11422142D01*
X-37493761Y-11346904D01*
X-38560428Y-14779761D02*
X-38560428Y-13199761D01*
X-38255666Y-13199761D01*
X-38179476Y-13275000D01*
X-38141380Y-13350238D01*
X-38103285Y-13500714D01*
X-38103285Y-13726428D01*
X-38141380Y-13876904D01*
X-38179476Y-13952142D01*
X-38255666Y-14027380D01*
X-38560428Y-14027380D01*
X-37836619Y-13199761D02*
X-37303285Y-13199761D01*
X-37646142Y-14779761D01*
X-38560428Y-17309761D02*
X-38560428Y-15729761D01*
X-38255666Y-15729761D01*
X-38179476Y-15805000D01*
X-38141380Y-15880238D01*
X-38103285Y-16030714D01*
X-38103285Y-16256428D01*
X-38141380Y-16406904D01*
X-38179476Y-16482142D01*
X-38255666Y-16557380D01*
X-38560428Y-16557380D01*
X-37417571Y-15729761D02*
X-37569952Y-15729761D01*
X-37646142Y-15805000D01*
X-37684238Y-15880238D01*
X-37760428Y-16105952D01*
X-37798523Y-16406904D01*
X-37798523Y-17008809D01*
X-37760428Y-17159285D01*
X-37722333Y-17234523D01*
X-37646142Y-17309761D01*
X-37493761Y-17309761D01*
X-37417571Y-17234523D01*
X-37379476Y-17159285D01*
X-37341380Y-17008809D01*
X-37341380Y-16632619D01*
X-37379476Y-16482142D01*
X-37417571Y-16406904D01*
X-37493761Y-16331666D01*
X-37646142Y-16331666D01*
X-37722333Y-16406904D01*
X-37760428Y-16482142D01*
X-37798523Y-16632619D01*
X-38560428Y-19839761D02*
X-38560428Y-18259761D01*
X-38255666Y-18259761D01*
X-38179476Y-18335000D01*
X-38141380Y-18410238D01*
X-38103285Y-18560714D01*
X-38103285Y-18786428D01*
X-38141380Y-18936904D01*
X-38179476Y-19012142D01*
X-38255666Y-19087380D01*
X-38560428Y-19087380D01*
X-37379476Y-18259761D02*
X-37760428Y-18259761D01*
X-37798523Y-19012142D01*
X-37760428Y-18936904D01*
X-37684238Y-18861666D01*
X-37493761Y-18861666D01*
X-37417571Y-18936904D01*
X-37379476Y-19012142D01*
X-37341380Y-19162619D01*
X-37341380Y-19538809D01*
X-37379476Y-19689285D01*
X-37417571Y-19764523D01*
X-37493761Y-19839761D01*
X-37684238Y-19839761D01*
X-37760428Y-19764523D01*
X-37798523Y-19689285D01*
X-36104047Y36773333D02*
X-35627857Y36773333D01*
X-36199285Y36487619D02*
X-35865952Y37487619D01*
X-35532619Y36487619D01*
X-34723095Y36487619D02*
X-35199285Y36487619D01*
X-35199285Y37487619D01*
X-34437380Y36535238D02*
X-34294523Y36487619D01*
X-34056428Y36487619D01*
X-33961190Y36535238D01*
X-33913571Y36582857D01*
X-33865952Y36678095D01*
X-33865952Y36773333D01*
X-33913571Y36868571D01*
X-33961190Y36916190D01*
X-34056428Y36963809D01*
X-34246904Y37011428D01*
X-34342142Y37059047D01*
X-34389761Y37106666D01*
X-34437380Y37201904D01*
X-34437380Y37297142D01*
X-34389761Y37392380D01*
X-34342142Y37440000D01*
X-34246904Y37487619D01*
X-34008809Y37487619D01*
X-33865952Y37440000D01*
X-36389761Y32507619D02*
X-36294523Y32507619D01*
X-36199285Y32460000D01*
X-36151666Y32412380D01*
X-36104047Y32317142D01*
X-36056428Y32126666D01*
X-36056428Y31888571D01*
X-36104047Y31698095D01*
X-36151666Y31602857D01*
X-36199285Y31555238D01*
X-36294523Y31507619D01*
X-36389761Y31507619D01*
X-36485000Y31555238D01*
X-36532619Y31602857D01*
X-36580238Y31698095D01*
X-36627857Y31888571D01*
X-36627857Y32126666D01*
X-36580238Y32317142D01*
X-36532619Y32412380D01*
X-36485000Y32460000D01*
X-36389761Y32507619D01*
X-35723095Y31507619D02*
X-35199285Y32174285D01*
X-35723095Y32174285D02*
X-35199285Y31507619D01*
X-34865952Y32412380D02*
X-34818333Y32460000D01*
X-34723095Y32507619D01*
X-34485000Y32507619D01*
X-34389761Y32460000D01*
X-34342142Y32412380D01*
X-34294523Y32317142D01*
X-34294523Y32221904D01*
X-34342142Y32079047D01*
X-34913571Y31507619D01*
X-34294523Y31507619D01*
X-33818333Y31507619D02*
X-33627857Y31507619D01*
X-33532619Y31555238D01*
X-33485000Y31602857D01*
X-33389761Y31745714D01*
X-33342142Y31936190D01*
X-33342142Y32317142D01*
X-33389761Y32412380D01*
X-33437380Y32460000D01*
X-33532619Y32507619D01*
X-33723095Y32507619D01*
X-33818333Y32460000D01*
X-33865952Y32412380D01*
X-33913571Y32317142D01*
X-33913571Y32079047D01*
X-33865952Y31983809D01*
X-33818333Y31936190D01*
X-33723095Y31888571D01*
X-33532619Y31888571D01*
X-33437380Y31936190D01*
X-33389761Y31983809D01*
X-33342142Y32079047D01*
D11*
X32057857Y26451190D02*
X31867380Y26451190D01*
X31772142Y26375000D01*
X31724523Y26298809D01*
X31629285Y26070238D01*
X31581666Y25765476D01*
X31581666Y25155952D01*
X31629285Y25003571D01*
X31676904Y24927380D01*
X31772142Y24851190D01*
X31962619Y24851190D01*
X32057857Y24927380D01*
X32105476Y25003571D01*
X32153095Y25155952D01*
X32153095Y25536904D01*
X32105476Y25689285D01*
X32057857Y25765476D01*
X31962619Y25841666D01*
X31772142Y25841666D01*
X31676904Y25765476D01*
X31629285Y25689285D01*
X31581666Y25536904D01*
X32486428Y26451190D02*
X33105476Y26451190D01*
X32772142Y25841666D01*
X32915000Y25841666D01*
X33010238Y25765476D01*
X33057857Y25689285D01*
X33105476Y25536904D01*
X33105476Y25155952D01*
X33057857Y25003571D01*
X33010238Y24927380D01*
X32915000Y24851190D01*
X32629285Y24851190D01*
X32534047Y24927380D01*
X32486428Y25003571D01*
X33534047Y25460714D02*
X34295952Y25460714D01*
X35248333Y26451190D02*
X34772142Y26451190D01*
X34724523Y25689285D01*
X34772142Y25765476D01*
X34867380Y25841666D01*
X35105476Y25841666D01*
X35200714Y25765476D01*
X35248333Y25689285D01*
X35295952Y25536904D01*
X35295952Y25155952D01*
X35248333Y25003571D01*
X35200714Y24927380D01*
X35105476Y24851190D01*
X34867380Y24851190D01*
X34772142Y24927380D01*
X34724523Y25003571D01*
X36153095Y26451190D02*
X35962619Y26451190D01*
X35867380Y26375000D01*
X35819761Y26298809D01*
X35724523Y26070238D01*
X35676904Y25765476D01*
X35676904Y25155952D01*
X35724523Y25003571D01*
X35772142Y24927380D01*
X35867380Y24851190D01*
X36057857Y24851190D01*
X36153095Y24927380D01*
X36200714Y25003571D01*
X36248333Y25155952D01*
X36248333Y25536904D01*
X36200714Y25689285D01*
X36153095Y25765476D01*
X36057857Y25841666D01*
X35867380Y25841666D01*
X35772142Y25765476D01*
X35724523Y25689285D01*
X35676904Y25536904D01*
X32295952Y23267857D02*
X31534047Y22810714D01*
X32295952Y22353571D01*
X32772142Y22810714D02*
X33534047Y22810714D01*
X34010238Y22201190D02*
X34010238Y23801190D01*
X34010238Y23191666D02*
X34105476Y23267857D01*
X34295952Y23267857D01*
X34391190Y23191666D01*
X34438809Y23115476D01*
X34486428Y22963095D01*
X34486428Y22505952D01*
X34438809Y22353571D01*
X34391190Y22277380D01*
X34295952Y22201190D01*
X34105476Y22201190D01*
X34010238Y22277380D01*
X34915000Y22201190D02*
X34915000Y23267857D01*
X34915000Y23801190D02*
X34867380Y23725000D01*
X34915000Y23648809D01*
X34962619Y23725000D01*
X34915000Y23801190D01*
X34915000Y23648809D01*
X35248333Y23267857D02*
X35629285Y23267857D01*
X35391190Y23801190D02*
X35391190Y22429761D01*
X35438809Y22277380D01*
X35534047Y22201190D01*
X35629285Y22201190D01*
X35915000Y22277380D02*
X36010238Y22201190D01*
X36200714Y22201190D01*
X36295952Y22277380D01*
X36343571Y22429761D01*
X36343571Y22505952D01*
X36295952Y22658333D01*
X36200714Y22734523D01*
X36057857Y22734523D01*
X35962619Y22810714D01*
X35915000Y22963095D01*
X35915000Y23039285D01*
X35962619Y23191666D01*
X36057857Y23267857D01*
X36200714Y23267857D01*
X36295952Y23191666D01*
X31695952Y-22282142D02*
X30934047Y-22739285D01*
X31695952Y-23196428D01*
X32172142Y-22739285D02*
X32934047Y-22739285D01*
X33410238Y-23348809D02*
X33410238Y-21748809D01*
X33410238Y-22358333D02*
X33505476Y-22282142D01*
X33695952Y-22282142D01*
X33791190Y-22358333D01*
X33838809Y-22434523D01*
X33886428Y-22586904D01*
X33886428Y-23044047D01*
X33838809Y-23196428D01*
X33791190Y-23272619D01*
X33695952Y-23348809D01*
X33505476Y-23348809D01*
X33410238Y-23272619D01*
X34315000Y-23348809D02*
X34315000Y-22282142D01*
X34315000Y-21748809D02*
X34267380Y-21825000D01*
X34315000Y-21901190D01*
X34362619Y-21825000D01*
X34315000Y-21748809D01*
X34315000Y-21901190D01*
X34648333Y-22282142D02*
X35029285Y-22282142D01*
X34791190Y-21748809D02*
X34791190Y-23120238D01*
X34838809Y-23272619D01*
X34934047Y-23348809D01*
X35029285Y-23348809D01*
X35315000Y-23272619D02*
X35410238Y-23348809D01*
X35600714Y-23348809D01*
X35695952Y-23272619D01*
X35743571Y-23120238D01*
X35743571Y-23044047D01*
X35695952Y-22891666D01*
X35600714Y-22815476D01*
X35457857Y-22815476D01*
X35362619Y-22739285D01*
X35315000Y-22586904D01*
X35315000Y-22510714D01*
X35362619Y-22358333D01*
X35457857Y-22282142D01*
X35600714Y-22282142D01*
X35695952Y-22358333D01*
X33029285Y-24398809D02*
X33695952Y-24398809D01*
X33267380Y-25998809D01*
X34076904Y-25389285D02*
X34838809Y-25389285D01*
X35505476Y-24398809D02*
X35600714Y-24398809D01*
X35695952Y-24475000D01*
X35743571Y-24551190D01*
X35791190Y-24703571D01*
X35838809Y-25008333D01*
X35838809Y-25389285D01*
X35791190Y-25694047D01*
X35743571Y-25846428D01*
X35695952Y-25922619D01*
X35600714Y-25998809D01*
X35505476Y-25998809D01*
X35410238Y-25922619D01*
X35362619Y-25846428D01*
X35315000Y-25694047D01*
X35267380Y-25389285D01*
X35267380Y-25008333D01*
X35315000Y-24703571D01*
X35362619Y-24551190D01*
X35410238Y-24475000D01*
X35505476Y-24398809D01*
X-37484404Y-23448809D02*
X-37484404Y-21848809D01*
X-37103452Y-21848809D01*
X-37008214Y-21925000D01*
X-36960595Y-22001190D01*
X-36912976Y-22153571D01*
X-36912976Y-22382142D01*
X-36960595Y-22534523D01*
X-37008214Y-22610714D01*
X-37103452Y-22686904D01*
X-37484404Y-22686904D01*
X-36484404Y-23448809D02*
X-36484404Y-22382142D01*
X-36484404Y-21848809D02*
X-36532023Y-21925000D01*
X-36484404Y-22001190D01*
X-36436785Y-21925000D01*
X-36484404Y-21848809D01*
X-36484404Y-22001190D01*
X-36103452Y-23448809D02*
X-35579642Y-22382142D01*
X-36103452Y-22382142D02*
X-35579642Y-23448809D01*
X-34817738Y-23372619D02*
X-34912976Y-23448809D01*
X-35103452Y-23448809D01*
X-35198690Y-23372619D01*
X-35246309Y-23220238D01*
X-35246309Y-22610714D01*
X-35198690Y-22458333D01*
X-35103452Y-22382142D01*
X-34912976Y-22382142D01*
X-34817738Y-22458333D01*
X-34770119Y-22610714D01*
X-34770119Y-22763095D01*
X-35246309Y-22915476D01*
X-34198690Y-23448809D02*
X-34293928Y-23372619D01*
X-34341547Y-23220238D01*
X-34341547Y-21848809D01*
X-33865357Y-23372619D02*
X-33770119Y-23448809D01*
X-33579642Y-23448809D01*
X-33484404Y-23372619D01*
X-33436785Y-23220238D01*
X-33436785Y-23144047D01*
X-33484404Y-22991666D01*
X-33579642Y-22915476D01*
X-33722500Y-22915476D01*
X-33817738Y-22839285D01*
X-33865357Y-22686904D01*
X-33865357Y-22610714D01*
X-33817738Y-22458333D01*
X-33722500Y-22382142D01*
X-33579642Y-22382142D01*
X-33484404Y-22458333D01*
X-33008214Y-22839285D02*
X-32246309Y-22839285D01*
X-31770119Y-22382142D02*
X-31008214Y-22839285D01*
X-31770119Y-23296428D01*
X-37008214Y-24498809D02*
X-37484404Y-24498809D01*
X-37532023Y-25260714D01*
X-37484404Y-25184523D01*
X-37389166Y-25108333D01*
X-37151071Y-25108333D01*
X-37055833Y-25184523D01*
X-37008214Y-25260714D01*
X-36960595Y-25413095D01*
X-36960595Y-25794047D01*
X-37008214Y-25946428D01*
X-37055833Y-26022619D01*
X-37151071Y-26098809D01*
X-37389166Y-26098809D01*
X-37484404Y-26022619D01*
X-37532023Y-25946428D01*
X-36103452Y-24498809D02*
X-36293928Y-24498809D01*
X-36389166Y-24575000D01*
X-36436785Y-24651190D01*
X-36532023Y-24879761D01*
X-36579642Y-25184523D01*
X-36579642Y-25794047D01*
X-36532023Y-25946428D01*
X-36484404Y-26022619D01*
X-36389166Y-26098809D01*
X-36198690Y-26098809D01*
X-36103452Y-26022619D01*
X-36055833Y-25946428D01*
X-36008214Y-25794047D01*
X-36008214Y-25413095D01*
X-36055833Y-25260714D01*
X-36103452Y-25184523D01*
X-36198690Y-25108333D01*
X-36389166Y-25108333D01*
X-36484404Y-25184523D01*
X-36532023Y-25260714D01*
X-36579642Y-25413095D01*
X-35579642Y-25489285D02*
X-34817738Y-25489285D01*
X-33912976Y-24498809D02*
X-34103452Y-24498809D01*
X-34198690Y-24575000D01*
X-34246309Y-24651190D01*
X-34341547Y-24879761D01*
X-34389166Y-25184523D01*
X-34389166Y-25794047D01*
X-34341547Y-25946428D01*
X-34293928Y-26022619D01*
X-34198690Y-26098809D01*
X-34008214Y-26098809D01*
X-33912976Y-26022619D01*
X-33865357Y-25946428D01*
X-33817738Y-25794047D01*
X-33817738Y-25413095D01*
X-33865357Y-25260714D01*
X-33912976Y-25184523D01*
X-34008214Y-25108333D01*
X-34198690Y-25108333D01*
X-34293928Y-25184523D01*
X-34341547Y-25260714D01*
X-34389166Y-25413095D01*
X-33484404Y-24498809D02*
X-32865357Y-24498809D01*
X-33198690Y-25108333D01*
X-33055833Y-25108333D01*
X-32960595Y-25184523D01*
X-32912976Y-25260714D01*
X-32865357Y-25413095D01*
X-32865357Y-25794047D01*
X-32912976Y-25946428D01*
X-32960595Y-26022619D01*
X-33055833Y-26098809D01*
X-33341547Y-26098809D01*
X-33436785Y-26022619D01*
X-33484404Y-25946428D01*
X-37493928Y26451190D02*
X-37398690Y26451190D01*
X-37303452Y26375000D01*
X-37255833Y26298809D01*
X-37208214Y26146428D01*
X-37160595Y25841666D01*
X-37160595Y25460714D01*
X-37208214Y25155952D01*
X-37255833Y25003571D01*
X-37303452Y24927380D01*
X-37398690Y24851190D01*
X-37493928Y24851190D01*
X-37589166Y24927380D01*
X-37636785Y25003571D01*
X-37684404Y25155952D01*
X-37732023Y25460714D01*
X-37732023Y25841666D01*
X-37684404Y26146428D01*
X-37636785Y26298809D01*
X-37589166Y26375000D01*
X-37493928Y26451190D01*
X-36732023Y25460714D02*
X-35970119Y25460714D01*
X-35589166Y26451190D02*
X-34922500Y26451190D01*
X-35351071Y24851190D01*
X-37684404Y22201190D02*
X-37684404Y23801190D01*
X-37303452Y23801190D01*
X-37208214Y23725000D01*
X-37160595Y23648809D01*
X-37112976Y23496428D01*
X-37112976Y23267857D01*
X-37160595Y23115476D01*
X-37208214Y23039285D01*
X-37303452Y22963095D01*
X-37684404Y22963095D01*
X-36684404Y22201190D02*
X-36684404Y23267857D01*
X-36684404Y23801190D02*
X-36732023Y23725000D01*
X-36684404Y23648809D01*
X-36636785Y23725000D01*
X-36684404Y23801190D01*
X-36684404Y23648809D01*
X-36303452Y22201190D02*
X-35779642Y23267857D01*
X-36303452Y23267857D02*
X-35779642Y22201190D01*
X-35017738Y22277380D02*
X-35112976Y22201190D01*
X-35303452Y22201190D01*
X-35398690Y22277380D01*
X-35446309Y22429761D01*
X-35446309Y23039285D01*
X-35398690Y23191666D01*
X-35303452Y23267857D01*
X-35112976Y23267857D01*
X-35017738Y23191666D01*
X-34970119Y23039285D01*
X-34970119Y22886904D01*
X-35446309Y22734523D01*
X-34398690Y22201190D02*
X-34493928Y22277380D01*
X-34541547Y22429761D01*
X-34541547Y23801190D01*
X-34065357Y22277380D02*
X-33970119Y22201190D01*
X-33779642Y22201190D01*
X-33684404Y22277380D01*
X-33636785Y22429761D01*
X-33636785Y22505952D01*
X-33684404Y22658333D01*
X-33779642Y22734523D01*
X-33922500Y22734523D01*
X-34017738Y22810714D01*
X-34065357Y22963095D01*
X-34065357Y23039285D01*
X-34017738Y23191666D01*
X-33922500Y23267857D01*
X-33779642Y23267857D01*
X-33684404Y23191666D01*
X-33208214Y22810714D02*
X-32446309Y22810714D01*
X-31970119Y23267857D02*
X-31208214Y22810714D01*
X-31970119Y22353571D01*
D10*
X37033285Y19790238D02*
X37566619Y18210238D01*
X37566619Y19790238D02*
X37033285Y18210238D01*
X37757095Y19790238D02*
X38214238Y19790238D01*
X37985666Y18210238D02*
X37985666Y19790238D01*
X38404714Y19790238D02*
X38899952Y19790238D01*
X38633285Y19188333D01*
X38747571Y19188333D01*
X38823761Y19113095D01*
X38861857Y19037857D01*
X38899952Y18887380D01*
X38899952Y18511190D01*
X38861857Y18360714D01*
X38823761Y18285476D01*
X38747571Y18210238D01*
X38519000Y18210238D01*
X38442809Y18285476D01*
X38404714Y18360714D01*
X39280904Y18285476D02*
X39280904Y18210238D01*
X39242809Y18059761D01*
X39204714Y17984523D01*
X39547571Y19790238D02*
X40080904Y19790238D01*
X39738047Y18210238D01*
X37033285Y17260238D02*
X37566619Y15680238D01*
X37566619Y17260238D02*
X37033285Y15680238D01*
X37757095Y17260238D02*
X38214238Y17260238D01*
X37985666Y15680238D02*
X37985666Y17260238D01*
X38442809Y17109761D02*
X38480904Y17185000D01*
X38557095Y17260238D01*
X38747571Y17260238D01*
X38823761Y17185000D01*
X38861857Y17109761D01*
X38899952Y16959285D01*
X38899952Y16808809D01*
X38861857Y16583095D01*
X38404714Y15680238D01*
X38899952Y15680238D01*
X39280904Y15755476D02*
X39280904Y15680238D01*
X39242809Y15529761D01*
X39204714Y15454523D01*
X39966619Y17260238D02*
X39814238Y17260238D01*
X39738047Y17185000D01*
X39699952Y17109761D01*
X39623761Y16884047D01*
X39585666Y16583095D01*
X39585666Y15981190D01*
X39623761Y15830714D01*
X39661857Y15755476D01*
X39738047Y15680238D01*
X39890428Y15680238D01*
X39966619Y15755476D01*
X40004714Y15830714D01*
X40042809Y15981190D01*
X40042809Y16357380D01*
X40004714Y16507857D01*
X39966619Y16583095D01*
X39890428Y16658333D01*
X39738047Y16658333D01*
X39661857Y16583095D01*
X39623761Y16507857D01*
X39585666Y16357380D01*
X37033285Y14730238D02*
X37566619Y13150238D01*
X37566619Y14730238D02*
X37033285Y13150238D01*
X37757095Y14730238D02*
X38214238Y14730238D01*
X37985666Y13150238D02*
X37985666Y14730238D01*
X38899952Y13150238D02*
X38442809Y13150238D01*
X38671380Y13150238D02*
X38671380Y14730238D01*
X38595190Y14504523D01*
X38519000Y14354047D01*
X38442809Y14278809D01*
X39280904Y13225476D02*
X39280904Y13150238D01*
X39242809Y12999761D01*
X39204714Y12924523D01*
X40004714Y14730238D02*
X39623761Y14730238D01*
X39585666Y13977857D01*
X39623761Y14053095D01*
X39699952Y14128333D01*
X39890428Y14128333D01*
X39966619Y14053095D01*
X40004714Y13977857D01*
X40042809Y13827380D01*
X40042809Y13451190D01*
X40004714Y13300714D01*
X39966619Y13225476D01*
X39890428Y13150238D01*
X39699952Y13150238D01*
X39623761Y13225476D01*
X39585666Y13300714D01*
X37033285Y12200238D02*
X37566619Y10620238D01*
X37566619Y12200238D02*
X37033285Y10620238D01*
X37757095Y12200238D02*
X38214238Y12200238D01*
X37985666Y10620238D02*
X37985666Y12200238D01*
X38633285Y12200238D02*
X38709476Y12200238D01*
X38785666Y12125000D01*
X38823761Y12049761D01*
X38861857Y11899285D01*
X38899952Y11598333D01*
X38899952Y11222142D01*
X38861857Y10921190D01*
X38823761Y10770714D01*
X38785666Y10695476D01*
X38709476Y10620238D01*
X38633285Y10620238D01*
X38557095Y10695476D01*
X38519000Y10770714D01*
X38480904Y10921190D01*
X38442809Y11222142D01*
X38442809Y11598333D01*
X38480904Y11899285D01*
X38519000Y12049761D01*
X38557095Y12125000D01*
X38633285Y12200238D01*
X39280904Y10695476D02*
X39280904Y10620238D01*
X39242809Y10469761D01*
X39204714Y10394523D01*
X39966619Y11673571D02*
X39966619Y10620238D01*
X39776142Y12275476D02*
X39585666Y11146904D01*
X40080904Y11146904D01*
X37033285Y9670238D02*
X37566619Y8090238D01*
X37566619Y9670238D02*
X37033285Y8090238D01*
X38138047Y8917857D02*
X38252333Y8842619D01*
X38290428Y8767380D01*
X38328523Y8616904D01*
X38328523Y8391190D01*
X38290428Y8240714D01*
X38252333Y8165476D01*
X38176142Y8090238D01*
X37871380Y8090238D01*
X37871380Y9670238D01*
X38138047Y9670238D01*
X38214238Y9595000D01*
X38252333Y9519761D01*
X38290428Y9369285D01*
X38290428Y9218809D01*
X38252333Y9068333D01*
X38214238Y8993095D01*
X38138047Y8917857D01*
X37871380Y8917857D01*
X38823761Y9670238D02*
X38899952Y9670238D01*
X38976142Y9595000D01*
X39014238Y9519761D01*
X39052333Y9369285D01*
X39090428Y9068333D01*
X39090428Y8692142D01*
X39052333Y8391190D01*
X39014238Y8240714D01*
X38976142Y8165476D01*
X38899952Y8090238D01*
X38823761Y8090238D01*
X38747571Y8165476D01*
X38709476Y8240714D01*
X38671380Y8391190D01*
X38633285Y8692142D01*
X38633285Y9068333D01*
X38671380Y9369285D01*
X38709476Y9519761D01*
X38747571Y9595000D01*
X38823761Y9670238D01*
X37033285Y7140238D02*
X37566619Y5560238D01*
X37566619Y7140238D02*
X37033285Y5560238D01*
X38138047Y6387857D02*
X38252333Y6312619D01*
X38290428Y6237380D01*
X38328523Y6086904D01*
X38328523Y5861190D01*
X38290428Y5710714D01*
X38252333Y5635476D01*
X38176142Y5560238D01*
X37871380Y5560238D01*
X37871380Y7140238D01*
X38138047Y7140238D01*
X38214238Y7065000D01*
X38252333Y6989761D01*
X38290428Y6839285D01*
X38290428Y6688809D01*
X38252333Y6538333D01*
X38214238Y6463095D01*
X38138047Y6387857D01*
X37871380Y6387857D01*
X39090428Y5560238D02*
X38633285Y5560238D01*
X38861857Y5560238D02*
X38861857Y7140238D01*
X38785666Y6914523D01*
X38709476Y6764047D01*
X38633285Y6688809D01*
X37033285Y4610238D02*
X37566619Y3030238D01*
X37566619Y4610238D02*
X37033285Y3030238D01*
X38138047Y3857857D02*
X38252333Y3782619D01*
X38290428Y3707380D01*
X38328523Y3556904D01*
X38328523Y3331190D01*
X38290428Y3180714D01*
X38252333Y3105476D01*
X38176142Y3030238D01*
X37871380Y3030238D01*
X37871380Y4610238D01*
X38138047Y4610238D01*
X38214238Y4535000D01*
X38252333Y4459761D01*
X38290428Y4309285D01*
X38290428Y4158809D01*
X38252333Y4008333D01*
X38214238Y3933095D01*
X38138047Y3857857D01*
X37871380Y3857857D01*
X38633285Y4459761D02*
X38671380Y4535000D01*
X38747571Y4610238D01*
X38938047Y4610238D01*
X39014238Y4535000D01*
X39052333Y4459761D01*
X39090428Y4309285D01*
X39090428Y4158809D01*
X39052333Y3933095D01*
X38595190Y3030238D01*
X39090428Y3030238D01*
X37033285Y2080238D02*
X37566619Y500238D01*
X37566619Y2080238D02*
X37033285Y500238D01*
X38138047Y1327857D02*
X38252333Y1252619D01*
X38290428Y1177380D01*
X38328523Y1026904D01*
X38328523Y801190D01*
X38290428Y650714D01*
X38252333Y575476D01*
X38176142Y500238D01*
X37871380Y500238D01*
X37871380Y2080238D01*
X38138047Y2080238D01*
X38214238Y2005000D01*
X38252333Y1929761D01*
X38290428Y1779285D01*
X38290428Y1628809D01*
X38252333Y1478333D01*
X38214238Y1403095D01*
X38138047Y1327857D01*
X37871380Y1327857D01*
X38595190Y2080238D02*
X39090428Y2080238D01*
X38823761Y1478333D01*
X38938047Y1478333D01*
X39014238Y1403095D01*
X39052333Y1327857D01*
X39090428Y1177380D01*
X39090428Y801190D01*
X39052333Y650714D01*
X39014238Y575476D01*
X38938047Y500238D01*
X38709476Y500238D01*
X38633285Y575476D01*
X38595190Y650714D01*
X37033285Y-449761D02*
X37566619Y-2029761D01*
X37566619Y-449761D02*
X37033285Y-2029761D01*
X38138047Y-1202142D02*
X38252333Y-1277380D01*
X38290428Y-1352619D01*
X38328523Y-1503095D01*
X38328523Y-1728809D01*
X38290428Y-1879285D01*
X38252333Y-1954523D01*
X38176142Y-2029761D01*
X37871380Y-2029761D01*
X37871380Y-449761D01*
X38138047Y-449761D01*
X38214238Y-525000D01*
X38252333Y-600238D01*
X38290428Y-750714D01*
X38290428Y-901190D01*
X38252333Y-1051666D01*
X38214238Y-1126904D01*
X38138047Y-1202142D01*
X37871380Y-1202142D01*
X39014238Y-976428D02*
X39014238Y-2029761D01*
X38823761Y-374523D02*
X38633285Y-1503095D01*
X39128523Y-1503095D01*
X37033285Y-2979761D02*
X37566619Y-4559761D01*
X37566619Y-2979761D02*
X37033285Y-4559761D01*
X38138047Y-3732142D02*
X38252333Y-3807380D01*
X38290428Y-3882619D01*
X38328523Y-4033095D01*
X38328523Y-4258809D01*
X38290428Y-4409285D01*
X38252333Y-4484523D01*
X38176142Y-4559761D01*
X37871380Y-4559761D01*
X37871380Y-2979761D01*
X38138047Y-2979761D01*
X38214238Y-3055000D01*
X38252333Y-3130238D01*
X38290428Y-3280714D01*
X38290428Y-3431190D01*
X38252333Y-3581666D01*
X38214238Y-3656904D01*
X38138047Y-3732142D01*
X37871380Y-3732142D01*
X39052333Y-2979761D02*
X38671380Y-2979761D01*
X38633285Y-3732142D01*
X38671380Y-3656904D01*
X38747571Y-3581666D01*
X38938047Y-3581666D01*
X39014238Y-3656904D01*
X39052333Y-3732142D01*
X39090428Y-3882619D01*
X39090428Y-4258809D01*
X39052333Y-4409285D01*
X39014238Y-4484523D01*
X38938047Y-4559761D01*
X38747571Y-4559761D01*
X38671380Y-4484523D01*
X38633285Y-4409285D01*
X37033285Y-5509761D02*
X37566619Y-7089761D01*
X37566619Y-5509761D02*
X37033285Y-7089761D01*
X38138047Y-6262142D02*
X38252333Y-6337380D01*
X38290428Y-6412619D01*
X38328523Y-6563095D01*
X38328523Y-6788809D01*
X38290428Y-6939285D01*
X38252333Y-7014523D01*
X38176142Y-7089761D01*
X37871380Y-7089761D01*
X37871380Y-5509761D01*
X38138047Y-5509761D01*
X38214238Y-5585000D01*
X38252333Y-5660238D01*
X38290428Y-5810714D01*
X38290428Y-5961190D01*
X38252333Y-6111666D01*
X38214238Y-6186904D01*
X38138047Y-6262142D01*
X37871380Y-6262142D01*
X39014238Y-5509761D02*
X38861857Y-5509761D01*
X38785666Y-5585000D01*
X38747571Y-5660238D01*
X38671380Y-5885952D01*
X38633285Y-6186904D01*
X38633285Y-6788809D01*
X38671380Y-6939285D01*
X38709476Y-7014523D01*
X38785666Y-7089761D01*
X38938047Y-7089761D01*
X39014238Y-7014523D01*
X39052333Y-6939285D01*
X39090428Y-6788809D01*
X39090428Y-6412619D01*
X39052333Y-6262142D01*
X39014238Y-6186904D01*
X38938047Y-6111666D01*
X38785666Y-6111666D01*
X38709476Y-6186904D01*
X38671380Y-6262142D01*
X38633285Y-6412619D01*
X37033285Y-8039761D02*
X37566619Y-9619761D01*
X37566619Y-8039761D02*
X37033285Y-9619761D01*
X38138047Y-8792142D02*
X38252333Y-8867380D01*
X38290428Y-8942619D01*
X38328523Y-9093095D01*
X38328523Y-9318809D01*
X38290428Y-9469285D01*
X38252333Y-9544523D01*
X38176142Y-9619761D01*
X37871380Y-9619761D01*
X37871380Y-8039761D01*
X38138047Y-8039761D01*
X38214238Y-8115000D01*
X38252333Y-8190238D01*
X38290428Y-8340714D01*
X38290428Y-8491190D01*
X38252333Y-8641666D01*
X38214238Y-8716904D01*
X38138047Y-8792142D01*
X37871380Y-8792142D01*
X38595190Y-8039761D02*
X39128523Y-8039761D01*
X38785666Y-9619761D01*
X37109476Y-12149761D02*
X37109476Y-10569761D01*
X37414238Y-10569761D01*
X37490428Y-10645000D01*
X37528523Y-10720238D01*
X37566619Y-10870714D01*
X37566619Y-11096428D01*
X37528523Y-11246904D01*
X37490428Y-11322142D01*
X37414238Y-11397380D01*
X37109476Y-11397380D01*
X38328523Y-12149761D02*
X37871380Y-12149761D01*
X38099952Y-12149761D02*
X38099952Y-10569761D01*
X38023761Y-10795476D01*
X37947571Y-10945952D01*
X37871380Y-11021190D01*
X39242809Y-10494523D02*
X38557095Y-12525952D01*
X39509476Y-12149761D02*
X39509476Y-10569761D01*
X40042809Y-10569761D02*
X40195190Y-10569761D01*
X40271380Y-10645000D01*
X40347571Y-10795476D01*
X40385666Y-11096428D01*
X40385666Y-11623095D01*
X40347571Y-11924047D01*
X40271380Y-12074523D01*
X40195190Y-12149761D01*
X40042809Y-12149761D01*
X39966619Y-12074523D01*
X39890428Y-11924047D01*
X39852333Y-11623095D01*
X39852333Y-11096428D01*
X39890428Y-10795476D01*
X39966619Y-10645000D01*
X40042809Y-10569761D01*
X41147571Y-12149761D02*
X40690428Y-12149761D01*
X40919000Y-12149761D02*
X40919000Y-10569761D01*
X40842809Y-10795476D01*
X40766619Y-10945952D01*
X40690428Y-11021190D01*
X37109476Y-14679761D02*
X37109476Y-13099761D01*
X37414238Y-13099761D01*
X37490428Y-13175000D01*
X37528523Y-13250238D01*
X37566619Y-13400714D01*
X37566619Y-13626428D01*
X37528523Y-13776904D01*
X37490428Y-13852142D01*
X37414238Y-13927380D01*
X37109476Y-13927380D01*
X37871380Y-13250238D02*
X37909476Y-13175000D01*
X37985666Y-13099761D01*
X38176142Y-13099761D01*
X38252333Y-13175000D01*
X38290428Y-13250238D01*
X38328523Y-13400714D01*
X38328523Y-13551190D01*
X38290428Y-13776904D01*
X37833285Y-14679761D01*
X38328523Y-14679761D01*
X39242809Y-13024523D02*
X38557095Y-15055952D01*
X39509476Y-14679761D02*
X39509476Y-13099761D01*
X40042809Y-13099761D02*
X40195190Y-13099761D01*
X40271380Y-13175000D01*
X40347571Y-13325476D01*
X40385666Y-13626428D01*
X40385666Y-14153095D01*
X40347571Y-14454047D01*
X40271380Y-14604523D01*
X40195190Y-14679761D01*
X40042809Y-14679761D01*
X39966619Y-14604523D01*
X39890428Y-14454047D01*
X39852333Y-14153095D01*
X39852333Y-13626428D01*
X39890428Y-13325476D01*
X39966619Y-13175000D01*
X40042809Y-13099761D01*
X40690428Y-13250238D02*
X40728523Y-13175000D01*
X40804714Y-13099761D01*
X40995190Y-13099761D01*
X41071380Y-13175000D01*
X41109476Y-13250238D01*
X41147571Y-13400714D01*
X41147571Y-13551190D01*
X41109476Y-13776904D01*
X40652333Y-14679761D01*
X41147571Y-14679761D01*
X37109476Y-17209761D02*
X37109476Y-15629761D01*
X37414238Y-15629761D01*
X37490428Y-15705000D01*
X37528523Y-15780238D01*
X37566619Y-15930714D01*
X37566619Y-16156428D01*
X37528523Y-16306904D01*
X37490428Y-16382142D01*
X37414238Y-16457380D01*
X37109476Y-16457380D01*
X37833285Y-15629761D02*
X38328523Y-15629761D01*
X38061857Y-16231666D01*
X38176142Y-16231666D01*
X38252333Y-16306904D01*
X38290428Y-16382142D01*
X38328523Y-16532619D01*
X38328523Y-16908809D01*
X38290428Y-17059285D01*
X38252333Y-17134523D01*
X38176142Y-17209761D01*
X37947571Y-17209761D01*
X37871380Y-17134523D01*
X37833285Y-17059285D01*
X37109476Y-19739761D02*
X37109476Y-18159761D01*
X37414238Y-18159761D01*
X37490428Y-18235000D01*
X37528523Y-18310238D01*
X37566619Y-18460714D01*
X37566619Y-18686428D01*
X37528523Y-18836904D01*
X37490428Y-18912142D01*
X37414238Y-18987380D01*
X37109476Y-18987380D01*
X38252333Y-18686428D02*
X38252333Y-19739761D01*
X38061857Y-18084523D02*
X37871380Y-19213095D01*
X38366619Y-19213095D01*
D12*
X25665000Y36650000D02*
G75*
G03X25665000Y36650000I-500000J0D01*
G01*
X30705000Y37580000D02*
X30706000Y38214000D01*
X35024000Y38214000D02*
X35024000Y37580000D01*
X30706000Y38214000D02*
X35024000Y38214000D01*
X26134000Y30467000D02*
X26134000Y37579000D01*
X39469000Y30467000D02*
X26134000Y30467000D01*
X39469000Y37579000D02*
X39469000Y30467000D01*
X26261000Y37579000D02*
X39469000Y37579000D01*
D13*
G36*
X-4976792Y-35158509D02*
G01*
X-6661226Y-35155046D01*
X-6950674Y-35154290D01*
X-7226101Y-35153259D01*
X-7483133Y-35151989D01*
X-7717399Y-35150516D01*
X-7924524Y-35148877D01*
X-8100134Y-35147108D01*
X-8239857Y-35145246D01*
X-8339319Y-35143326D01*
X-8394146Y-35141386D01*
X-8402826Y-35140571D01*
X-8432929Y-35130085D01*
X-8455339Y-35107621D01*
X-8470906Y-35066881D01*
X-8480478Y-35001570D01*
X-8484904Y-34905392D01*
X-8485034Y-34772049D01*
X-8481717Y-34595245D01*
X-8480901Y-34561607D01*
X-8474971Y-34379107D01*
X-8467193Y-34243305D01*
X-8457184Y-34150068D01*
X-8444565Y-34095263D01*
X-8436487Y-34080142D01*
X-8425884Y-34072144D01*
X-8405943Y-34065264D01*
X-8373093Y-34059420D01*
X-8323762Y-34054530D01*
X-8254379Y-34050510D01*
X-8161371Y-34047279D01*
X-8041167Y-34044753D01*
X-7890196Y-34042851D01*
X-7704886Y-34041489D01*
X-7481664Y-34040586D01*
X-7216961Y-34040059D01*
X-6907203Y-34039824D01*
X-6689895Y-34039790D01*
X-4976792Y-34039790D01*
X-4976792Y-35158509D01*
X-4976792Y-35158509D01*
G37*
X-4976792Y-35158509D02*
X-6661226Y-35155046D01*
X-6950674Y-35154290D01*
X-7226101Y-35153259D01*
X-7483133Y-35151989D01*
X-7717399Y-35150516D01*
X-7924524Y-35148877D01*
X-8100134Y-35147108D01*
X-8239857Y-35145246D01*
X-8339319Y-35143326D01*
X-8394146Y-35141386D01*
X-8402826Y-35140571D01*
X-8432929Y-35130085D01*
X-8455339Y-35107621D01*
X-8470906Y-35066881D01*
X-8480478Y-35001570D01*
X-8484904Y-34905392D01*
X-8485034Y-34772049D01*
X-8481717Y-34595245D01*
X-8480901Y-34561607D01*
X-8474971Y-34379107D01*
X-8467193Y-34243305D01*
X-8457184Y-34150068D01*
X-8444565Y-34095263D01*
X-8436487Y-34080142D01*
X-8425884Y-34072144D01*
X-8405943Y-34065264D01*
X-8373093Y-34059420D01*
X-8323762Y-34054530D01*
X-8254379Y-34050510D01*
X-8161371Y-34047279D01*
X-8041167Y-34044753D01*
X-7890196Y-34042851D01*
X-7704886Y-34041489D01*
X-7481664Y-34040586D01*
X-7216961Y-34040059D01*
X-6907203Y-34039824D01*
X-6689895Y-34039790D01*
X-4976792Y-34039790D01*
X-4976792Y-35158509D01*
G36*
X7162761Y-33397798D02*
G01*
X7167666Y-33584937D01*
X7172377Y-33754680D01*
X7176698Y-33900629D01*
X7180428Y-34016387D01*
X7183369Y-34095554D01*
X7185323Y-34131733D01*
X7185608Y-34133297D01*
X7211080Y-34134925D01*
X7281391Y-34137451D01*
X7390541Y-34140712D01*
X7532529Y-34144542D01*
X7701357Y-34148777D01*
X7891022Y-34153252D01*
X8018736Y-34156126D01*
X8847637Y-34174438D01*
X8864509Y-34435409D01*
X8872501Y-34611953D01*
X8870060Y-34743373D01*
X8856486Y-34834458D01*
X8831080Y-34889995D01*
X8794536Y-34914412D01*
X8756317Y-34918029D01*
X8673905Y-34921342D01*
X8553955Y-34924232D01*
X8403123Y-34926583D01*
X8228068Y-34928279D01*
X8035444Y-34929201D01*
X7945681Y-34929333D01*
X7151136Y-34929680D01*
X7151136Y-35651191D01*
X7150569Y-35876192D01*
X7148747Y-36054667D01*
X7145484Y-36190934D01*
X7140599Y-36289306D01*
X7133907Y-36354100D01*
X7125225Y-36389630D01*
X7119354Y-36398410D01*
X7075012Y-36413814D01*
X6990541Y-36426031D01*
X6876603Y-36434362D01*
X6743858Y-36438104D01*
X6602969Y-36436557D01*
X6562290Y-36435027D01*
X6457017Y-36425890D01*
X6397090Y-36409096D01*
X6378982Y-36391129D01*
X6374679Y-36356924D01*
X6369603Y-36278845D01*
X6364055Y-36163860D01*
X6358337Y-36018934D01*
X6352747Y-35851034D01*
X6347588Y-35667126D01*
X6347377Y-35658844D01*
X6329753Y-34962991D01*
X5757457Y-34946335D01*
X5573727Y-34941301D01*
X5390425Y-34936839D01*
X5219421Y-34933198D01*
X5072581Y-34930626D01*
X4961775Y-34929370D01*
X4941372Y-34929291D01*
X4832379Y-34927066D01*
X4741072Y-34921415D01*
X4680481Y-34913330D01*
X4665055Y-34908260D01*
X4651431Y-34885592D01*
X4642702Y-34834033D01*
X4638449Y-34747387D01*
X4638251Y-34619456D01*
X4639629Y-34533624D01*
X4646732Y-34179630D01*
X5473058Y-34158857D01*
X5673594Y-34153120D01*
X5858062Y-34146509D01*
X6020257Y-34139352D01*
X6153970Y-34131974D01*
X6252997Y-34124703D01*
X6311128Y-34117864D01*
X6323812Y-34114089D01*
X6330862Y-34082769D01*
X6337800Y-34006557D01*
X6344344Y-33891409D01*
X6350211Y-33743284D01*
X6355119Y-33568140D01*
X6358691Y-33378456D01*
X6369142Y-32666817D01*
X7144141Y-32666817D01*
X7162761Y-33397798D01*
X7162761Y-33397798D01*
G37*
X7162761Y-33397798D02*
X7167666Y-33584937D01*
X7172377Y-33754680D01*
X7176698Y-33900629D01*
X7180428Y-34016387D01*
X7183369Y-34095554D01*
X7185323Y-34131733D01*
X7185608Y-34133297D01*
X7211080Y-34134925D01*
X7281391Y-34137451D01*
X7390541Y-34140712D01*
X7532529Y-34144542D01*
X7701357Y-34148777D01*
X7891022Y-34153252D01*
X8018736Y-34156126D01*
X8847637Y-34174438D01*
X8864509Y-34435409D01*
X8872501Y-34611953D01*
X8870060Y-34743373D01*
X8856486Y-34834458D01*
X8831080Y-34889995D01*
X8794536Y-34914412D01*
X8756317Y-34918029D01*
X8673905Y-34921342D01*
X8553955Y-34924232D01*
X8403123Y-34926583D01*
X8228068Y-34928279D01*
X8035444Y-34929201D01*
X7945681Y-34929333D01*
X7151136Y-34929680D01*
X7151136Y-35651191D01*
X7150569Y-35876192D01*
X7148747Y-36054667D01*
X7145484Y-36190934D01*
X7140599Y-36289306D01*
X7133907Y-36354100D01*
X7125225Y-36389630D01*
X7119354Y-36398410D01*
X7075012Y-36413814D01*
X6990541Y-36426031D01*
X6876603Y-36434362D01*
X6743858Y-36438104D01*
X6602969Y-36436557D01*
X6562290Y-36435027D01*
X6457017Y-36425890D01*
X6397090Y-36409096D01*
X6378982Y-36391129D01*
X6374679Y-36356924D01*
X6369603Y-36278845D01*
X6364055Y-36163860D01*
X6358337Y-36018934D01*
X6352747Y-35851034D01*
X6347588Y-35667126D01*
X6347377Y-35658844D01*
X6329753Y-34962991D01*
X5757457Y-34946335D01*
X5573727Y-34941301D01*
X5390425Y-34936839D01*
X5219421Y-34933198D01*
X5072581Y-34930626D01*
X4961775Y-34929370D01*
X4941372Y-34929291D01*
X4832379Y-34927066D01*
X4741072Y-34921415D01*
X4680481Y-34913330D01*
X4665055Y-34908260D01*
X4651431Y-34885592D01*
X4642702Y-34834033D01*
X4638449Y-34747387D01*
X4638251Y-34619456D01*
X4639629Y-34533624D01*
X4646732Y-34179630D01*
X5473058Y-34158857D01*
X5673594Y-34153120D01*
X5858062Y-34146509D01*
X6020257Y-34139352D01*
X6153970Y-34131974D01*
X6252997Y-34124703D01*
X6311128Y-34117864D01*
X6323812Y-34114089D01*
X6330862Y-34082769D01*
X6337800Y-34006557D01*
X6344344Y-33891409D01*
X6350211Y-33743284D01*
X6355119Y-33568140D01*
X6358691Y-33378456D01*
X6369142Y-32666817D01*
X7144141Y-32666817D01*
X7162761Y-33397798D01*
G36*
X-22552117Y-32570837D02*
G01*
X-22323579Y-32573632D01*
X-22110113Y-32577008D01*
X-21917243Y-32580819D01*
X-21750491Y-32584923D01*
X-21615383Y-32589176D01*
X-21517439Y-32593434D01*
X-21462184Y-32597554D01*
X-21452467Y-32599431D01*
X-21434618Y-32625335D01*
X-21397892Y-32692968D01*
X-21344458Y-32797770D01*
X-21276486Y-32935177D01*
X-21196145Y-33100629D01*
X-21105605Y-33289563D01*
X-21007034Y-33497419D01*
X-20902603Y-33719635D01*
X-20794480Y-33951648D01*
X-20684836Y-34188897D01*
X-20575838Y-34426821D01*
X-20469658Y-34660858D01*
X-20425926Y-34758004D01*
X-20366483Y-34890602D01*
X-20321837Y-34981665D01*
X-20286204Y-35030559D01*
X-20253799Y-35036655D01*
X-20218840Y-34999320D01*
X-20175542Y-34917923D01*
X-20118121Y-34791832D01*
X-20086397Y-34720931D01*
X-20015879Y-34564812D01*
X-19935259Y-34387858D01*
X-19847120Y-34195605D01*
X-19754044Y-33993588D01*
X-19658614Y-33787346D01*
X-19563414Y-33582412D01*
X-19471025Y-33384325D01*
X-19384031Y-33198620D01*
X-19305014Y-33030833D01*
X-19236557Y-32886501D01*
X-19181242Y-32771160D01*
X-19141654Y-32690346D01*
X-19120373Y-32649595D01*
X-19119229Y-32647748D01*
X-19082054Y-32590541D01*
X-16926742Y-32590541D01*
X-16926742Y-34508081D01*
X-16926942Y-34816564D01*
X-16927522Y-35110735D01*
X-16928449Y-35386564D01*
X-16929692Y-35640022D01*
X-16931220Y-35867078D01*
X-16932999Y-36063703D01*
X-16934999Y-36225866D01*
X-16937188Y-36349537D01*
X-16939535Y-36430687D01*
X-16942006Y-36465285D01*
X-16942175Y-36465839D01*
X-16952718Y-36479061D01*
X-16976975Y-36489080D01*
X-17021119Y-36496321D01*
X-17091319Y-36501213D01*
X-17193749Y-36504181D01*
X-17334578Y-36505653D01*
X-17519980Y-36506056D01*
X-18089399Y-36506056D01*
X-18105693Y-36387181D01*
X-18108526Y-36339042D01*
X-18110557Y-36245347D01*
X-18111789Y-36111386D01*
X-18112225Y-35942449D01*
X-18111865Y-35743824D01*
X-18110714Y-35520800D01*
X-18108773Y-35278668D01*
X-18106045Y-35022715D01*
X-18105035Y-34940951D01*
X-18101321Y-34647486D01*
X-18098377Y-34400754D01*
X-18096310Y-34196644D01*
X-18095223Y-34031041D01*
X-18095223Y-33899832D01*
X-18096415Y-33798906D01*
X-18098905Y-33724149D01*
X-18102797Y-33671448D01*
X-18108197Y-33636691D01*
X-18115211Y-33615763D01*
X-18123943Y-33604553D01*
X-18134500Y-33598948D01*
X-18139466Y-33597288D01*
X-18161583Y-33590638D01*
X-18182166Y-33587500D01*
X-18202911Y-33590763D01*
X-18225513Y-33603316D01*
X-18251668Y-33628048D01*
X-18283069Y-33667847D01*
X-18321413Y-33725604D01*
X-18368393Y-33804208D01*
X-18425707Y-33906547D01*
X-18495048Y-34035510D01*
X-18578112Y-34193987D01*
X-18676594Y-34384867D01*
X-18792188Y-34611039D01*
X-18926591Y-34875391D01*
X-19081497Y-35180815D01*
X-19163627Y-35342843D01*
X-19753234Y-36506056D01*
X-20779368Y-36506056D01*
X-21004155Y-36054755D01*
X-21106741Y-35849656D01*
X-21216913Y-35630935D01*
X-21332283Y-35403210D01*
X-21450462Y-35171097D01*
X-21569065Y-34939215D01*
X-21685703Y-34712181D01*
X-21797989Y-34494611D01*
X-21903536Y-34291123D01*
X-21999956Y-34106334D01*
X-22084862Y-33944862D01*
X-22155866Y-33811324D01*
X-22210581Y-33710337D01*
X-22246620Y-33646518D01*
X-22260233Y-33625508D01*
X-22312956Y-33592418D01*
X-22353667Y-33587370D01*
X-22373895Y-33593160D01*
X-22388633Y-33608955D01*
X-22399227Y-33642447D01*
X-22407023Y-33701325D01*
X-22413366Y-33793280D01*
X-22419602Y-33926003D01*
X-22421707Y-33976227D01*
X-22425278Y-34087132D01*
X-22428731Y-34240861D01*
X-22431963Y-34429387D01*
X-22434868Y-34644682D01*
X-22437340Y-34878720D01*
X-22439275Y-35123473D01*
X-22440567Y-35370914D01*
X-22440776Y-35431832D01*
X-22444059Y-36506056D01*
X-23613629Y-36506056D01*
X-23613629Y-32559700D01*
X-22552117Y-32570837D01*
X-22552117Y-32570837D01*
G37*
X-22552117Y-32570837D02*
X-22323579Y-32573632D01*
X-22110113Y-32577008D01*
X-21917243Y-32580819D01*
X-21750491Y-32584923D01*
X-21615383Y-32589176D01*
X-21517439Y-32593434D01*
X-21462184Y-32597554D01*
X-21452467Y-32599431D01*
X-21434618Y-32625335D01*
X-21397892Y-32692968D01*
X-21344458Y-32797770D01*
X-21276486Y-32935177D01*
X-21196145Y-33100629D01*
X-21105605Y-33289563D01*
X-21007034Y-33497419D01*
X-20902603Y-33719635D01*
X-20794480Y-33951648D01*
X-20684836Y-34188897D01*
X-20575838Y-34426821D01*
X-20469658Y-34660858D01*
X-20425926Y-34758004D01*
X-20366483Y-34890602D01*
X-20321837Y-34981665D01*
X-20286204Y-35030559D01*
X-20253799Y-35036655D01*
X-20218840Y-34999320D01*
X-20175542Y-34917923D01*
X-20118121Y-34791832D01*
X-20086397Y-34720931D01*
X-20015879Y-34564812D01*
X-19935259Y-34387858D01*
X-19847120Y-34195605D01*
X-19754044Y-33993588D01*
X-19658614Y-33787346D01*
X-19563414Y-33582412D01*
X-19471025Y-33384325D01*
X-19384031Y-33198620D01*
X-19305014Y-33030833D01*
X-19236557Y-32886501D01*
X-19181242Y-32771160D01*
X-19141654Y-32690346D01*
X-19120373Y-32649595D01*
X-19119229Y-32647748D01*
X-19082054Y-32590541D01*
X-16926742Y-32590541D01*
X-16926742Y-34508081D01*
X-16926942Y-34816564D01*
X-16927522Y-35110735D01*
X-16928449Y-35386564D01*
X-16929692Y-35640022D01*
X-16931220Y-35867078D01*
X-16932999Y-36063703D01*
X-16934999Y-36225866D01*
X-16937188Y-36349537D01*
X-16939535Y-36430687D01*
X-16942006Y-36465285D01*
X-16942175Y-36465839D01*
X-16952718Y-36479061D01*
X-16976975Y-36489080D01*
X-17021119Y-36496321D01*
X-17091319Y-36501213D01*
X-17193749Y-36504181D01*
X-17334578Y-36505653D01*
X-17519980Y-36506056D01*
X-18089399Y-36506056D01*
X-18105693Y-36387181D01*
X-18108526Y-36339042D01*
X-18110557Y-36245347D01*
X-18111789Y-36111386D01*
X-18112225Y-35942449D01*
X-18111865Y-35743824D01*
X-18110714Y-35520800D01*
X-18108773Y-35278668D01*
X-18106045Y-35022715D01*
X-18105035Y-34940951D01*
X-18101321Y-34647486D01*
X-18098377Y-34400754D01*
X-18096310Y-34196644D01*
X-18095223Y-34031041D01*
X-18095223Y-33899832D01*
X-18096415Y-33798906D01*
X-18098905Y-33724149D01*
X-18102797Y-33671448D01*
X-18108197Y-33636691D01*
X-18115211Y-33615763D01*
X-18123943Y-33604553D01*
X-18134500Y-33598948D01*
X-18139466Y-33597288D01*
X-18161583Y-33590638D01*
X-18182166Y-33587500D01*
X-18202911Y-33590763D01*
X-18225513Y-33603316D01*
X-18251668Y-33628048D01*
X-18283069Y-33667847D01*
X-18321413Y-33725604D01*
X-18368393Y-33804208D01*
X-18425707Y-33906547D01*
X-18495048Y-34035510D01*
X-18578112Y-34193987D01*
X-18676594Y-34384867D01*
X-18792188Y-34611039D01*
X-18926591Y-34875391D01*
X-19081497Y-35180815D01*
X-19163627Y-35342843D01*
X-19753234Y-36506056D01*
X-20779368Y-36506056D01*
X-21004155Y-36054755D01*
X-21106741Y-35849656D01*
X-21216913Y-35630935D01*
X-21332283Y-35403210D01*
X-21450462Y-35171097D01*
X-21569065Y-34939215D01*
X-21685703Y-34712181D01*
X-21797989Y-34494611D01*
X-21903536Y-34291123D01*
X-21999956Y-34106334D01*
X-22084862Y-33944862D01*
X-22155866Y-33811324D01*
X-22210581Y-33710337D01*
X-22246620Y-33646518D01*
X-22260233Y-33625508D01*
X-22312956Y-33592418D01*
X-22353667Y-33587370D01*
X-22373895Y-33593160D01*
X-22388633Y-33608955D01*
X-22399227Y-33642447D01*
X-22407023Y-33701325D01*
X-22413366Y-33793280D01*
X-22419602Y-33926003D01*
X-22421707Y-33976227D01*
X-22425278Y-34087132D01*
X-22428731Y-34240861D01*
X-22431963Y-34429387D01*
X-22434868Y-34644682D01*
X-22437340Y-34878720D01*
X-22439275Y-35123473D01*
X-22440567Y-35370914D01*
X-22440776Y-35431832D01*
X-22444059Y-36506056D01*
X-23613629Y-36506056D01*
X-23613629Y-32559700D01*
X-22552117Y-32570837D01*
G36*
X20334060Y-32552462D02*
G01*
X20580267Y-32552762D01*
X20785273Y-32553482D01*
X20953902Y-32554803D01*
X21090980Y-32556907D01*
X21201332Y-32559974D01*
X21289782Y-32564186D01*
X21361155Y-32569722D01*
X21420276Y-32576764D01*
X21471970Y-32585493D01*
X21521061Y-32596090D01*
X21572375Y-32608735D01*
X21577189Y-32609960D01*
X21774790Y-32666535D01*
X21929634Y-32726719D01*
X22049794Y-32795596D01*
X22143342Y-32878250D01*
X22218352Y-32979767D01*
X22247939Y-33032441D01*
X22276212Y-33090900D01*
X22295887Y-33146689D01*
X22308915Y-33211559D01*
X22317246Y-33297261D01*
X22322831Y-33415546D01*
X22325460Y-33499500D01*
X22335104Y-33836387D01*
X21217766Y-33836387D01*
X21170087Y-33705360D01*
X21147763Y-33644623D01*
X21125956Y-33595242D01*
X21099466Y-33555991D01*
X21063090Y-33525639D01*
X21011627Y-33502960D01*
X20939874Y-33486724D01*
X20842630Y-33475703D01*
X20714692Y-33468669D01*
X20550859Y-33464393D01*
X20345929Y-33461647D01*
X20129105Y-33459537D01*
X19861049Y-33457567D01*
X19638998Y-33457605D01*
X19458130Y-33460121D01*
X19313621Y-33465585D01*
X19200651Y-33474467D01*
X19114394Y-33487237D01*
X19050031Y-33504366D01*
X19002737Y-33526322D01*
X18967690Y-33553577D01*
X18949045Y-33574545D01*
X18910072Y-33657044D01*
X18897734Y-33757393D01*
X18912479Y-33853729D01*
X18942177Y-33910939D01*
X18963621Y-33931637D01*
X18994652Y-33949476D01*
X19039637Y-33964929D01*
X19102941Y-33978466D01*
X19188932Y-33990558D01*
X19301975Y-34001678D01*
X19446438Y-34012296D01*
X19626685Y-34022883D01*
X19847085Y-34033912D01*
X20112002Y-34045852D01*
X20245230Y-34051577D01*
X20575082Y-34066152D01*
X20858667Y-34080117D01*
X21100557Y-34094053D01*
X21305322Y-34108541D01*
X21477531Y-34124161D01*
X21621757Y-34141495D01*
X21742570Y-34161122D01*
X21844540Y-34183623D01*
X21932238Y-34209580D01*
X22010234Y-34239573D01*
X22083099Y-34274182D01*
X22110135Y-34288525D01*
X22218209Y-34359012D01*
X22303636Y-34443952D01*
X22368913Y-34549653D01*
X22416533Y-34682425D01*
X22448994Y-34848576D01*
X22468789Y-35054416D01*
X22476087Y-35213758D01*
X22478600Y-35450957D01*
X22468741Y-35647192D01*
X22445048Y-35811167D01*
X22406057Y-35951586D01*
X22350306Y-36077153D01*
X22322850Y-36125393D01*
X22247526Y-36231090D01*
X22158224Y-36316748D01*
X22048666Y-36384923D01*
X21912572Y-36438172D01*
X21743663Y-36479051D01*
X21535662Y-36510118D01*
X21328475Y-36530311D01*
X21218882Y-36536770D01*
X21067918Y-36542135D01*
X20883128Y-36546410D01*
X20672054Y-36549599D01*
X20442241Y-36551709D01*
X20201232Y-36552743D01*
X19956571Y-36552707D01*
X19715801Y-36551604D01*
X19486465Y-36549441D01*
X19276109Y-36546222D01*
X19092274Y-36541951D01*
X18942505Y-36536634D01*
X18834345Y-36530275D01*
X18816612Y-36528710D01*
X18551952Y-36495518D01*
X18332663Y-36450686D01*
X18154279Y-36392684D01*
X18012335Y-36319985D01*
X17902366Y-36231060D01*
X17881617Y-36208711D01*
X17811640Y-36118882D01*
X17760319Y-36024886D01*
X17724554Y-35916150D01*
X17701247Y-35782099D01*
X17687298Y-35612162D01*
X17683712Y-35533534D01*
X17671250Y-35209360D01*
X18218823Y-35209360D01*
X18382482Y-35210031D01*
X18530291Y-35211910D01*
X18654204Y-35214790D01*
X18746172Y-35218466D01*
X18798149Y-35222733D01*
X18805394Y-35224324D01*
X18834269Y-35258440D01*
X18856845Y-35327256D01*
X18861256Y-35351750D01*
X18873854Y-35419827D01*
X18892349Y-35476620D01*
X18921111Y-35523148D01*
X18964509Y-35560435D01*
X19026914Y-35589502D01*
X19112695Y-35611370D01*
X19226222Y-35627061D01*
X19371866Y-35637598D01*
X19553995Y-35644001D01*
X19776979Y-35647293D01*
X20045189Y-35648495D01*
X20130816Y-35648598D01*
X20403021Y-35648317D01*
X20628824Y-35646281D01*
X20812668Y-35641381D01*
X20959000Y-35632510D01*
X21072261Y-35618558D01*
X21156898Y-35598416D01*
X21217354Y-35570976D01*
X21258074Y-35535130D01*
X21283502Y-35489769D01*
X21298083Y-35433783D01*
X21306260Y-35366066D01*
X21307182Y-35355162D01*
X21302390Y-35234579D01*
X21262214Y-35148082D01*
X21182290Y-35089857D01*
X21085134Y-35059368D01*
X21030739Y-35052052D01*
X20932244Y-35043300D01*
X20796367Y-35033531D01*
X20629825Y-35023167D01*
X20439334Y-35012628D01*
X20231614Y-35002335D01*
X20036562Y-34993675D01*
X19687164Y-34978507D01*
X19385120Y-34964230D01*
X19126946Y-34950588D01*
X18909157Y-34937326D01*
X18728269Y-34924186D01*
X18580797Y-34910914D01*
X18463259Y-34897252D01*
X18372169Y-34882945D01*
X18304044Y-34867735D01*
X18297034Y-34865777D01*
X18118293Y-34792774D01*
X17972473Y-34685054D01*
X17859013Y-34541473D01*
X17777355Y-34360887D01*
X17726937Y-34142153D01*
X17707199Y-33884128D01*
X17711796Y-33671121D01*
X17736762Y-33410816D01*
X17782264Y-33194053D01*
X17851678Y-33016506D01*
X17948376Y-32873851D01*
X18075733Y-32761762D01*
X18237124Y-32675914D01*
X18435922Y-32611981D01*
X18558859Y-32585266D01*
X18617726Y-32577115D01*
X18703307Y-32570267D01*
X18818945Y-32564650D01*
X18967979Y-32560189D01*
X19153752Y-32556809D01*
X19379604Y-32554438D01*
X19648877Y-32553000D01*
X19964911Y-32552422D01*
X20041827Y-32552403D01*
X20334060Y-32552462D01*
X20334060Y-32552462D01*
G37*
X20334060Y-32552462D02*
X20580267Y-32552762D01*
X20785273Y-32553482D01*
X20953902Y-32554803D01*
X21090980Y-32556907D01*
X21201332Y-32559974D01*
X21289782Y-32564186D01*
X21361155Y-32569722D01*
X21420276Y-32576764D01*
X21471970Y-32585493D01*
X21521061Y-32596090D01*
X21572375Y-32608735D01*
X21577189Y-32609960D01*
X21774790Y-32666535D01*
X21929634Y-32726719D01*
X22049794Y-32795596D01*
X22143342Y-32878250D01*
X22218352Y-32979767D01*
X22247939Y-33032441D01*
X22276212Y-33090900D01*
X22295887Y-33146689D01*
X22308915Y-33211559D01*
X22317246Y-33297261D01*
X22322831Y-33415546D01*
X22325460Y-33499500D01*
X22335104Y-33836387D01*
X21217766Y-33836387D01*
X21170087Y-33705360D01*
X21147763Y-33644623D01*
X21125956Y-33595242D01*
X21099466Y-33555991D01*
X21063090Y-33525639D01*
X21011627Y-33502960D01*
X20939874Y-33486724D01*
X20842630Y-33475703D01*
X20714692Y-33468669D01*
X20550859Y-33464393D01*
X20345929Y-33461647D01*
X20129105Y-33459537D01*
X19861049Y-33457567D01*
X19638998Y-33457605D01*
X19458130Y-33460121D01*
X19313621Y-33465585D01*
X19200651Y-33474467D01*
X19114394Y-33487237D01*
X19050031Y-33504366D01*
X19002737Y-33526322D01*
X18967690Y-33553577D01*
X18949045Y-33574545D01*
X18910072Y-33657044D01*
X18897734Y-33757393D01*
X18912479Y-33853729D01*
X18942177Y-33910939D01*
X18963621Y-33931637D01*
X18994652Y-33949476D01*
X19039637Y-33964929D01*
X19102941Y-33978466D01*
X19188932Y-33990558D01*
X19301975Y-34001678D01*
X19446438Y-34012296D01*
X19626685Y-34022883D01*
X19847085Y-34033912D01*
X20112002Y-34045852D01*
X20245230Y-34051577D01*
X20575082Y-34066152D01*
X20858667Y-34080117D01*
X21100557Y-34094053D01*
X21305322Y-34108541D01*
X21477531Y-34124161D01*
X21621757Y-34141495D01*
X21742570Y-34161122D01*
X21844540Y-34183623D01*
X21932238Y-34209580D01*
X22010234Y-34239573D01*
X22083099Y-34274182D01*
X22110135Y-34288525D01*
X22218209Y-34359012D01*
X22303636Y-34443952D01*
X22368913Y-34549653D01*
X22416533Y-34682425D01*
X22448994Y-34848576D01*
X22468789Y-35054416D01*
X22476087Y-35213758D01*
X22478600Y-35450957D01*
X22468741Y-35647192D01*
X22445048Y-35811167D01*
X22406057Y-35951586D01*
X22350306Y-36077153D01*
X22322850Y-36125393D01*
X22247526Y-36231090D01*
X22158224Y-36316748D01*
X22048666Y-36384923D01*
X21912572Y-36438172D01*
X21743663Y-36479051D01*
X21535662Y-36510118D01*
X21328475Y-36530311D01*
X21218882Y-36536770D01*
X21067918Y-36542135D01*
X20883128Y-36546410D01*
X20672054Y-36549599D01*
X20442241Y-36551709D01*
X20201232Y-36552743D01*
X19956571Y-36552707D01*
X19715801Y-36551604D01*
X19486465Y-36549441D01*
X19276109Y-36546222D01*
X19092274Y-36541951D01*
X18942505Y-36536634D01*
X18834345Y-36530275D01*
X18816612Y-36528710D01*
X18551952Y-36495518D01*
X18332663Y-36450686D01*
X18154279Y-36392684D01*
X18012335Y-36319985D01*
X17902366Y-36231060D01*
X17881617Y-36208711D01*
X17811640Y-36118882D01*
X17760319Y-36024886D01*
X17724554Y-35916150D01*
X17701247Y-35782099D01*
X17687298Y-35612162D01*
X17683712Y-35533534D01*
X17671250Y-35209360D01*
X18218823Y-35209360D01*
X18382482Y-35210031D01*
X18530291Y-35211910D01*
X18654204Y-35214790D01*
X18746172Y-35218466D01*
X18798149Y-35222733D01*
X18805394Y-35224324D01*
X18834269Y-35258440D01*
X18856845Y-35327256D01*
X18861256Y-35351750D01*
X18873854Y-35419827D01*
X18892349Y-35476620D01*
X18921111Y-35523148D01*
X18964509Y-35560435D01*
X19026914Y-35589502D01*
X19112695Y-35611370D01*
X19226222Y-35627061D01*
X19371866Y-35637598D01*
X19553995Y-35644001D01*
X19776979Y-35647293D01*
X20045189Y-35648495D01*
X20130816Y-35648598D01*
X20403021Y-35648317D01*
X20628824Y-35646281D01*
X20812668Y-35641381D01*
X20959000Y-35632510D01*
X21072261Y-35618558D01*
X21156898Y-35598416D01*
X21217354Y-35570976D01*
X21258074Y-35535130D01*
X21283502Y-35489769D01*
X21298083Y-35433783D01*
X21306260Y-35366066D01*
X21307182Y-35355162D01*
X21302390Y-35234579D01*
X21262214Y-35148082D01*
X21182290Y-35089857D01*
X21085134Y-35059368D01*
X21030739Y-35052052D01*
X20932244Y-35043300D01*
X20796367Y-35033531D01*
X20629825Y-35023167D01*
X20439334Y-35012628D01*
X20231614Y-35002335D01*
X20036562Y-34993675D01*
X19687164Y-34978507D01*
X19385120Y-34964230D01*
X19126946Y-34950588D01*
X18909157Y-34937326D01*
X18728269Y-34924186D01*
X18580797Y-34910914D01*
X18463259Y-34897252D01*
X18372169Y-34882945D01*
X18304044Y-34867735D01*
X18297034Y-34865777D01*
X18118293Y-34792774D01*
X17972473Y-34685054D01*
X17859013Y-34541473D01*
X17777355Y-34360887D01*
X17726937Y-34142153D01*
X17707199Y-33884128D01*
X17711796Y-33671121D01*
X17736762Y-33410816D01*
X17782264Y-33194053D01*
X17851678Y-33016506D01*
X17948376Y-32873851D01*
X18075733Y-32761762D01*
X18237124Y-32675914D01*
X18435922Y-32611981D01*
X18558859Y-32585266D01*
X18617726Y-32577115D01*
X18703307Y-32570267D01*
X18818945Y-32564650D01*
X18967979Y-32560189D01*
X19153752Y-32556809D01*
X19379604Y-32554438D01*
X19648877Y-32553000D01*
X19964911Y-32552422D01*
X20041827Y-32552403D01*
X20334060Y-32552462D01*
G36*
X-6025121Y36781908D02*
G01*
X-5781150Y36758555D01*
X-5576062Y36718792D01*
X-5404833Y36661236D01*
X-5262437Y36584506D01*
X-5143851Y36487220D01*
X-5119658Y36462055D01*
X-5031812Y36351251D01*
X-4962021Y36225803D01*
X-4908296Y36078710D01*
X-4868649Y35902970D01*
X-4841091Y35691582D01*
X-4823632Y35437544D01*
X-4822682Y35416750D01*
X-4806636Y35054800D01*
X-5445034Y35054800D01*
X-6083433Y35054801D01*
X-6097021Y35124650D01*
X-6129362Y35277260D01*
X-6161562Y35389161D01*
X-6199230Y35470120D01*
X-6247978Y35529902D01*
X-6313416Y35578273D01*
X-6377821Y35613442D01*
X-6440458Y35642164D01*
X-6500526Y35660706D01*
X-6571807Y35671223D01*
X-6668083Y35675872D01*
X-6782900Y35676822D01*
X-7012097Y35663911D01*
X-7201378Y35623766D01*
X-7354921Y35554377D01*
X-7476907Y35453729D01*
X-7571518Y35319812D01*
X-7587118Y35289683D01*
X-7601511Y35259568D01*
X-7613404Y35229805D01*
X-7623073Y35195407D01*
X-7630795Y35151384D01*
X-7636848Y35092748D01*
X-7641507Y35014511D01*
X-7645051Y34911685D01*
X-7647757Y34779280D01*
X-7649901Y34612308D01*
X-7651760Y34405782D01*
X-7653612Y34154712D01*
X-7654114Y34083250D01*
X-7661727Y32997400D01*
X-9030800Y32997400D01*
X-9030800Y36705800D01*
X-7710000Y36705800D01*
X-7710000Y36088325D01*
X-7609838Y36243296D01*
X-7497919Y36399287D01*
X-7380425Y36524588D01*
X-7250713Y36621998D01*
X-7102145Y36694318D01*
X-6928080Y36744349D01*
X-6721877Y36774892D01*
X-6476897Y36788746D01*
X-6313000Y36790232D01*
X-6025121Y36781908D01*
X-6025121Y36781908D01*
G37*
X-6025121Y36781908D02*
X-5781150Y36758555D01*
X-5576062Y36718792D01*
X-5404833Y36661236D01*
X-5262437Y36584506D01*
X-5143851Y36487220D01*
X-5119658Y36462055D01*
X-5031812Y36351251D01*
X-4962021Y36225803D01*
X-4908296Y36078710D01*
X-4868649Y35902970D01*
X-4841091Y35691582D01*
X-4823632Y35437544D01*
X-4822682Y35416750D01*
X-4806636Y35054800D01*
X-5445034Y35054800D01*
X-6083433Y35054801D01*
X-6097021Y35124650D01*
X-6129362Y35277260D01*
X-6161562Y35389161D01*
X-6199230Y35470120D01*
X-6247978Y35529902D01*
X-6313416Y35578273D01*
X-6377821Y35613442D01*
X-6440458Y35642164D01*
X-6500526Y35660706D01*
X-6571807Y35671223D01*
X-6668083Y35675872D01*
X-6782900Y35676822D01*
X-7012097Y35663911D01*
X-7201378Y35623766D01*
X-7354921Y35554377D01*
X-7476907Y35453729D01*
X-7571518Y35319812D01*
X-7587118Y35289683D01*
X-7601511Y35259568D01*
X-7613404Y35229805D01*
X-7623073Y35195407D01*
X-7630795Y35151384D01*
X-7636848Y35092748D01*
X-7641507Y35014511D01*
X-7645051Y34911685D01*
X-7647757Y34779280D01*
X-7649901Y34612308D01*
X-7651760Y34405782D01*
X-7653612Y34154712D01*
X-7654114Y34083250D01*
X-7661727Y32997400D01*
X-9030800Y32997400D01*
X-9030800Y36705800D01*
X-7710000Y36705800D01*
X-7710000Y36088325D01*
X-7609838Y36243296D01*
X-7497919Y36399287D01*
X-7380425Y36524588D01*
X-7250713Y36621998D01*
X-7102145Y36694318D01*
X-6928080Y36744349D01*
X-6721877Y36774892D01*
X-6476897Y36788746D01*
X-6313000Y36790232D01*
X-6025121Y36781908D01*
G36*
X-1385765Y36696539D02*
G01*
X-1082187Y36682057D01*
X-818095Y36657969D01*
X-589914Y36623642D01*
X-394067Y36578437D01*
X-226979Y36521721D01*
X-85075Y36452858D01*
X35223Y36371211D01*
X113457Y36301164D01*
X191779Y36212941D01*
X257808Y36115117D01*
X312859Y36002360D01*
X358246Y35869337D01*
X395283Y35710718D01*
X425284Y35521171D01*
X449564Y35295364D01*
X469436Y35027965D01*
X481730Y34807150D01*
X497260Y34496000D01*
X-3038150Y34496000D01*
X-3022879Y34362650D01*
X-2990841Y34188987D01*
X-2935453Y34055502D01*
X-2850433Y33955218D01*
X-2729498Y33881156D01*
X-2566367Y33826339D01*
X-2532702Y33818133D01*
X-2453842Y33802164D01*
X-2367228Y33790216D01*
X-2264297Y33781777D01*
X-2136486Y33776337D01*
X-1975231Y33773385D01*
X-1771971Y33772409D01*
X-1766400Y33772406D01*
X-1580105Y33772579D01*
X-1437240Y33773720D01*
X-1330437Y33776421D01*
X-1252327Y33781275D01*
X-1195542Y33788874D01*
X-1152714Y33799810D01*
X-1116473Y33814678D01*
X-1093300Y33826548D01*
X-991630Y33891705D01*
X-925787Y33964724D01*
X-881496Y34061834D01*
X-878642Y34070550D01*
X-848061Y34165800D01*
X494200Y34165800D01*
X493696Y34108650D01*
X483806Y33980541D01*
X459185Y33833580D01*
X424469Y33689857D01*
X384291Y33571465D01*
X377958Y33556989D01*
X300887Y33419540D01*
X201399Y33299641D01*
X76643Y33196473D01*
X-76236Y33109219D01*
X-260087Y33037063D01*
X-477764Y32979186D01*
X-732119Y32934772D01*
X-1026004Y32903003D01*
X-1362270Y32883062D01*
X-1743771Y32874132D01*
X-2006428Y32873779D01*
X-2188337Y32875710D01*
X-2366357Y32879202D01*
X-2529725Y32883923D01*
X-2667679Y32889543D01*
X-2769458Y32895731D01*
X-2795100Y32898027D01*
X-3122638Y32944002D01*
X-3407934Y33010104D01*
X-3649147Y33095835D01*
X-3788906Y33166168D01*
X-3898206Y33245726D01*
X-4013319Y33355660D01*
X-4119414Y33479930D01*
X-4201663Y33602494D01*
X-4214583Y33626644D01*
X-4254870Y33717439D01*
X-4298471Y33833167D01*
X-4336256Y33949506D01*
X-4337783Y33954744D01*
X-4355782Y34020363D01*
X-4369587Y34082513D01*
X-4379745Y34149141D01*
X-4386799Y34228197D01*
X-4391296Y34327630D01*
X-4393779Y34455391D01*
X-4394794Y34619427D01*
X-4394912Y34788100D01*
X-4394086Y35003584D01*
X-4391585Y35175877D01*
X-4387985Y35283400D01*
X-3056451Y35283400D01*
X-846347Y35283400D01*
X-864051Y35377773D01*
X-912633Y35527576D01*
X-996190Y35640950D01*
X-1116361Y35719797D01*
X-1178790Y35743276D01*
X-1242959Y35755135D01*
X-1348339Y35765369D01*
X-1485364Y35773804D01*
X-1644464Y35780267D01*
X-1816072Y35784587D01*
X-1990621Y35786588D01*
X-2158542Y35786100D01*
X-2310269Y35782948D01*
X-2436232Y35776959D01*
X-2526865Y35767961D01*
X-2528676Y35767684D01*
X-2709460Y35725888D01*
X-2847600Y35661403D01*
X-2947446Y35570836D01*
X-3013347Y35450793D01*
X-3036612Y35371361D01*
X-3056451Y35283400D01*
X-4387985Y35283400D01*
X-4387008Y35312572D01*
X-4379952Y35421262D01*
X-4370015Y35509539D01*
X-4356795Y35584998D01*
X-4351446Y35609238D01*
X-4276811Y35858096D01*
X-4176015Y36065764D01*
X-4045355Y36236621D01*
X-3881128Y36375043D01*
X-3679629Y36485408D01*
X-3574436Y36527584D01*
X-3451476Y36569401D01*
X-3330131Y36603648D01*
X-3203307Y36631166D01*
X-3063910Y36652794D01*
X-2904846Y36669374D01*
X-2719019Y36681747D01*
X-2499337Y36690751D01*
X-2238704Y36697229D01*
X-2125682Y36699232D01*
X-1732405Y36702052D01*
X-1385765Y36696539D01*
X-1385765Y36696539D01*
G37*
X-1385765Y36696539D02*
X-1082187Y36682057D01*
X-818095Y36657969D01*
X-589914Y36623642D01*
X-394067Y36578437D01*
X-226979Y36521721D01*
X-85075Y36452858D01*
X35223Y36371211D01*
X113457Y36301164D01*
X191779Y36212941D01*
X257808Y36115117D01*
X312859Y36002360D01*
X358246Y35869337D01*
X395283Y35710718D01*
X425284Y35521171D01*
X449564Y35295364D01*
X469436Y35027965D01*
X481730Y34807150D01*
X497260Y34496000D01*
X-3038150Y34496000D01*
X-3022879Y34362650D01*
X-2990841Y34188987D01*
X-2935453Y34055502D01*
X-2850433Y33955218D01*
X-2729498Y33881156D01*
X-2566367Y33826339D01*
X-2532702Y33818133D01*
X-2453842Y33802164D01*
X-2367228Y33790216D01*
X-2264297Y33781777D01*
X-2136486Y33776337D01*
X-1975231Y33773385D01*
X-1771971Y33772409D01*
X-1766400Y33772406D01*
X-1580105Y33772579D01*
X-1437240Y33773720D01*
X-1330437Y33776421D01*
X-1252327Y33781275D01*
X-1195542Y33788874D01*
X-1152714Y33799810D01*
X-1116473Y33814678D01*
X-1093300Y33826548D01*
X-991630Y33891705D01*
X-925787Y33964724D01*
X-881496Y34061834D01*
X-878642Y34070550D01*
X-848061Y34165800D01*
X494200Y34165800D01*
X493696Y34108650D01*
X483806Y33980541D01*
X459185Y33833580D01*
X424469Y33689857D01*
X384291Y33571465D01*
X377958Y33556989D01*
X300887Y33419540D01*
X201399Y33299641D01*
X76643Y33196473D01*
X-76236Y33109219D01*
X-260087Y33037063D01*
X-477764Y32979186D01*
X-732119Y32934772D01*
X-1026004Y32903003D01*
X-1362270Y32883062D01*
X-1743771Y32874132D01*
X-2006428Y32873779D01*
X-2188337Y32875710D01*
X-2366357Y32879202D01*
X-2529725Y32883923D01*
X-2667679Y32889543D01*
X-2769458Y32895731D01*
X-2795100Y32898027D01*
X-3122638Y32944002D01*
X-3407934Y33010104D01*
X-3649147Y33095835D01*
X-3788906Y33166168D01*
X-3898206Y33245726D01*
X-4013319Y33355660D01*
X-4119414Y33479930D01*
X-4201663Y33602494D01*
X-4214583Y33626644D01*
X-4254870Y33717439D01*
X-4298471Y33833167D01*
X-4336256Y33949506D01*
X-4337783Y33954744D01*
X-4355782Y34020363D01*
X-4369587Y34082513D01*
X-4379745Y34149141D01*
X-4386799Y34228197D01*
X-4391296Y34327630D01*
X-4393779Y34455391D01*
X-4394794Y34619427D01*
X-4394912Y34788100D01*
X-4394086Y35003584D01*
X-4391585Y35175877D01*
X-4387985Y35283400D01*
X-3056451Y35283400D01*
X-846347Y35283400D01*
X-864051Y35377773D01*
X-912633Y35527576D01*
X-996190Y35640950D01*
X-1116361Y35719797D01*
X-1178790Y35743276D01*
X-1242959Y35755135D01*
X-1348339Y35765369D01*
X-1485364Y35773804D01*
X-1644464Y35780267D01*
X-1816072Y35784587D01*
X-1990621Y35786588D01*
X-2158542Y35786100D01*
X-2310269Y35782948D01*
X-2436232Y35776959D01*
X-2526865Y35767961D01*
X-2528676Y35767684D01*
X-2709460Y35725888D01*
X-2847600Y35661403D01*
X-2947446Y35570836D01*
X-3013347Y35450793D01*
X-3036612Y35371361D01*
X-3056451Y35283400D01*
X-4387985Y35283400D01*
X-4387008Y35312572D01*
X-4379952Y35421262D01*
X-4370015Y35509539D01*
X-4356795Y35584998D01*
X-4351446Y35609238D01*
X-4276811Y35858096D01*
X-4176015Y36065764D01*
X-4045355Y36236621D01*
X-3881128Y36375043D01*
X-3679629Y36485408D01*
X-3574436Y36527584D01*
X-3451476Y36569401D01*
X-3330131Y36603648D01*
X-3203307Y36631166D01*
X-3063910Y36652794D01*
X-2904846Y36669374D01*
X-2719019Y36681747D01*
X-2499337Y36690751D01*
X-2238704Y36697229D01*
X-2125682Y36699232D01*
X-1732405Y36702052D01*
X-1385765Y36696539D01*
G36*
X-12262891Y36724940D02*
G01*
X-12033917Y36722020D01*
X-11812990Y36717652D01*
X-11607876Y36711922D01*
X-11426338Y36704917D01*
X-11276143Y36696721D01*
X-11165054Y36687422D01*
X-11126300Y36682338D01*
X-10841175Y36626678D01*
X-10601110Y36556694D01*
X-10401547Y36468952D01*
X-10237928Y36360016D01*
X-10105695Y36226452D01*
X-10000289Y36064826D01*
X-9917152Y35871702D01*
X-9876425Y35740600D01*
X-9860098Y35651744D01*
X-9846954Y35521062D01*
X-9836997Y35357429D01*
X-9830230Y35169720D01*
X-9826654Y34966808D01*
X-9826272Y34757570D01*
X-9829088Y34550878D01*
X-9835102Y34355609D01*
X-9844318Y34180636D01*
X-9856738Y34034834D01*
X-9872364Y33927078D01*
X-9875915Y33910701D01*
X-9948485Y33672521D01*
X-10046974Y33474498D01*
X-10175543Y33312515D01*
X-10338356Y33182458D01*
X-10539574Y33080211D01*
X-10783358Y33001660D01*
X-10799332Y32997635D01*
X-10931614Y32968054D01*
X-11080167Y32939737D01*
X-11202500Y32920328D01*
X-11273590Y32913957D01*
X-11387511Y32907714D01*
X-11536297Y32901739D01*
X-11711980Y32896172D01*
X-11906592Y32891155D01*
X-12112165Y32886827D01*
X-12320733Y32883329D01*
X-12524327Y32880801D01*
X-12714979Y32879384D01*
X-12884721Y32879217D01*
X-13025587Y32880442D01*
X-13129609Y32883199D01*
X-13171000Y32885645D01*
X-13248538Y32892962D01*
X-13357511Y32904250D01*
X-13478909Y32917516D01*
X-13526600Y32922920D01*
X-13834989Y32970956D01*
X-14099206Y33040406D01*
X-14322010Y33133234D01*
X-14506160Y33251404D01*
X-14654413Y33396882D01*
X-14769529Y33571631D01*
X-14854265Y33777617D01*
X-14885602Y33890847D01*
X-14913653Y34045716D01*
X-14934728Y34239700D01*
X-14948826Y34461653D01*
X-14955944Y34700432D01*
X-14956014Y34825836D01*
X-13602072Y34825836D01*
X-13595605Y34645213D01*
X-13575166Y34475428D01*
X-13540559Y34328470D01*
X-13511335Y34252883D01*
X-13434518Y34149560D01*
X-13313470Y34067620D01*
X-13150772Y34008717D01*
X-13117739Y34000795D01*
X-13023116Y33986536D01*
X-12890980Y33976224D01*
X-12730674Y33969709D01*
X-12551542Y33966839D01*
X-12362927Y33967465D01*
X-12174173Y33971435D01*
X-11994624Y33978600D01*
X-11833624Y33988808D01*
X-11700515Y34001908D01*
X-11604643Y34017751D01*
X-11576402Y34025643D01*
X-11437689Y34098187D01*
X-11325522Y34205217D01*
X-11250095Y34336257D01*
X-11237490Y34373911D01*
X-11222698Y34455789D01*
X-11212499Y34573016D01*
X-11206870Y34712535D01*
X-11205792Y34861292D01*
X-11209241Y35006232D01*
X-11217197Y35134299D01*
X-11229639Y35232439D01*
X-11238967Y35270700D01*
X-11302484Y35409903D01*
X-11388587Y35508637D01*
X-11484371Y35566510D01*
X-11581781Y35596676D01*
X-11720865Y35621772D01*
X-11892714Y35641367D01*
X-12088414Y35655032D01*
X-12299053Y35662336D01*
X-12515720Y35662849D01*
X-12729502Y35656140D01*
X-12931487Y35641778D01*
X-12967800Y35638149D01*
X-13164025Y35606763D01*
X-13315969Y35557697D01*
X-13427561Y35489295D01*
X-13492180Y35416903D01*
X-13539623Y35312830D01*
X-13573884Y35171635D01*
X-13594767Y35005307D01*
X-13602072Y34825836D01*
X-14956014Y34825836D01*
X-14956081Y34944891D01*
X-14949233Y35183888D01*
X-14935399Y35406276D01*
X-14914575Y35600912D01*
X-14886761Y35756651D01*
X-14885986Y35759911D01*
X-14822839Y35962195D01*
X-14735363Y36135821D01*
X-14620225Y36282872D01*
X-14474093Y36405431D01*
X-14293637Y36505581D01*
X-14075526Y36585405D01*
X-13816427Y36646986D01*
X-13513009Y36692407D01*
X-13370892Y36707228D01*
X-13256698Y36714805D01*
X-13103961Y36720417D01*
X-12920448Y36724150D01*
X-12713921Y36726091D01*
X-12492148Y36726326D01*
X-12262891Y36724940D01*
X-12262891Y36724940D01*
G37*
X-12262891Y36724940D02*
X-12033917Y36722020D01*
X-11812990Y36717652D01*
X-11607876Y36711922D01*
X-11426338Y36704917D01*
X-11276143Y36696721D01*
X-11165054Y36687422D01*
X-11126300Y36682338D01*
X-10841175Y36626678D01*
X-10601110Y36556694D01*
X-10401547Y36468952D01*
X-10237928Y36360016D01*
X-10105695Y36226452D01*
X-10000289Y36064826D01*
X-9917152Y35871702D01*
X-9876425Y35740600D01*
X-9860098Y35651744D01*
X-9846954Y35521062D01*
X-9836997Y35357429D01*
X-9830230Y35169720D01*
X-9826654Y34966808D01*
X-9826272Y34757570D01*
X-9829088Y34550878D01*
X-9835102Y34355609D01*
X-9844318Y34180636D01*
X-9856738Y34034834D01*
X-9872364Y33927078D01*
X-9875915Y33910701D01*
X-9948485Y33672521D01*
X-10046974Y33474498D01*
X-10175543Y33312515D01*
X-10338356Y33182458D01*
X-10539574Y33080211D01*
X-10783358Y33001660D01*
X-10799332Y32997635D01*
X-10931614Y32968054D01*
X-11080167Y32939737D01*
X-11202500Y32920328D01*
X-11273590Y32913957D01*
X-11387511Y32907714D01*
X-11536297Y32901739D01*
X-11711980Y32896172D01*
X-11906592Y32891155D01*
X-12112165Y32886827D01*
X-12320733Y32883329D01*
X-12524327Y32880801D01*
X-12714979Y32879384D01*
X-12884721Y32879217D01*
X-13025587Y32880442D01*
X-13129609Y32883199D01*
X-13171000Y32885645D01*
X-13248538Y32892962D01*
X-13357511Y32904250D01*
X-13478909Y32917516D01*
X-13526600Y32922920D01*
X-13834989Y32970956D01*
X-14099206Y33040406D01*
X-14322010Y33133234D01*
X-14506160Y33251404D01*
X-14654413Y33396882D01*
X-14769529Y33571631D01*
X-14854265Y33777617D01*
X-14885602Y33890847D01*
X-14913653Y34045716D01*
X-14934728Y34239700D01*
X-14948826Y34461653D01*
X-14955944Y34700432D01*
X-14956014Y34825836D01*
X-13602072Y34825836D01*
X-13595605Y34645213D01*
X-13575166Y34475428D01*
X-13540559Y34328470D01*
X-13511335Y34252883D01*
X-13434518Y34149560D01*
X-13313470Y34067620D01*
X-13150772Y34008717D01*
X-13117739Y34000795D01*
X-13023116Y33986536D01*
X-12890980Y33976224D01*
X-12730674Y33969709D01*
X-12551542Y33966839D01*
X-12362927Y33967465D01*
X-12174173Y33971435D01*
X-11994624Y33978600D01*
X-11833624Y33988808D01*
X-11700515Y34001908D01*
X-11604643Y34017751D01*
X-11576402Y34025643D01*
X-11437689Y34098187D01*
X-11325522Y34205217D01*
X-11250095Y34336257D01*
X-11237490Y34373911D01*
X-11222698Y34455789D01*
X-11212499Y34573016D01*
X-11206870Y34712535D01*
X-11205792Y34861292D01*
X-11209241Y35006232D01*
X-11217197Y35134299D01*
X-11229639Y35232439D01*
X-11238967Y35270700D01*
X-11302484Y35409903D01*
X-11388587Y35508637D01*
X-11484371Y35566510D01*
X-11581781Y35596676D01*
X-11720865Y35621772D01*
X-11892714Y35641367D01*
X-12088414Y35655032D01*
X-12299053Y35662336D01*
X-12515720Y35662849D01*
X-12729502Y35656140D01*
X-12931487Y35641778D01*
X-12967800Y35638149D01*
X-13164025Y35606763D01*
X-13315969Y35557697D01*
X-13427561Y35489295D01*
X-13492180Y35416903D01*
X-13539623Y35312830D01*
X-13573884Y35171635D01*
X-13594767Y35005307D01*
X-13602072Y34825836D01*
X-14956014Y34825836D01*
X-14956081Y34944891D01*
X-14949233Y35183888D01*
X-14935399Y35406276D01*
X-14914575Y35600912D01*
X-14886761Y35756651D01*
X-14885986Y35759911D01*
X-14822839Y35962195D01*
X-14735363Y36135821D01*
X-14620225Y36282872D01*
X-14474093Y36405431D01*
X-14293637Y36505581D01*
X-14075526Y36585405D01*
X-13816427Y36646986D01*
X-13513009Y36692407D01*
X-13370892Y36707228D01*
X-13256698Y36714805D01*
X-13103961Y36720417D01*
X-12920448Y36724150D01*
X-12713921Y36726091D01*
X-12492148Y36726326D01*
X-12262891Y36724940D01*
G36*
X19290200Y34038800D02*
G01*
X20560200Y34038800D01*
X20560200Y32286200D01*
X19290200Y32286200D01*
X19290200Y30813000D01*
X16293000Y30813000D01*
X16293000Y32286200D01*
X10926116Y32286200D01*
X10939489Y33358423D01*
X10947975Y34038800D01*
X13800340Y34038800D01*
X16293000Y34038800D01*
X16293000Y36565898D01*
X15097564Y35372199D01*
X14892012Y35166665D01*
X14696121Y34970246D01*
X14513018Y34786113D01*
X14345832Y34617440D01*
X14197693Y34467397D01*
X14071728Y34339157D01*
X13971067Y34235892D01*
X13898839Y34160773D01*
X13858172Y34116973D01*
X13851234Y34108650D01*
X13800340Y34038800D01*
X10947975Y34038800D01*
X10952863Y34430646D01*
X15197615Y38661600D01*
X19290200Y38661600D01*
X19290200Y34038800D01*
X19290200Y34038800D01*
G37*
X19290200Y34038800D02*
X20560200Y34038800D01*
X20560200Y32286200D01*
X19290200Y32286200D01*
X19290200Y30813000D01*
X16293000Y30813000D01*
X16293000Y32286200D01*
X10926116Y32286200D01*
X10939489Y33358423D01*
X10947975Y34038800D01*
X13800340Y34038800D01*
X16293000Y34038800D01*
X16293000Y36565898D01*
X15097564Y35372199D01*
X14892012Y35166665D01*
X14696121Y34970246D01*
X14513018Y34786113D01*
X14345832Y34617440D01*
X14197693Y34467397D01*
X14071728Y34339157D01*
X13971067Y34235892D01*
X13898839Y34160773D01*
X13858172Y34116973D01*
X13851234Y34108650D01*
X13800340Y34038800D01*
X10947975Y34038800D01*
X10952863Y34430646D01*
X15197615Y38661600D01*
X19290200Y38661600D01*
X19290200Y34038800D01*
G36*
X5394230Y38735556D02*
G01*
X5669187Y38733527D01*
X5943151Y38730367D01*
X6210071Y38726137D01*
X6463897Y38720895D01*
X6698579Y38714702D01*
X6908068Y38707620D01*
X7086311Y38699706D01*
X7227261Y38691022D01*
X7324866Y38681628D01*
X7340651Y38679357D01*
X7745452Y38604143D01*
X8103803Y38513700D01*
X8418063Y38406883D01*
X8690589Y38282550D01*
X8923739Y38139558D01*
X9119872Y37976763D01*
X9281345Y37793022D01*
X9338360Y37710933D01*
X9407161Y37595424D01*
X9459615Y37482639D01*
X9498096Y37362499D01*
X9524978Y37224923D01*
X9542635Y37059834D01*
X9553442Y36857153D01*
X9555679Y36788350D01*
X9568398Y36350200D01*
X6571327Y36350200D01*
X6559687Y36551259D01*
X6544523Y36692577D01*
X6514627Y36794144D01*
X6464812Y36866104D01*
X6389895Y36918600D01*
X6365974Y36930172D01*
X6335493Y36941621D01*
X6296160Y36950840D01*
X6242571Y36958061D01*
X6169323Y36963518D01*
X6071011Y36967444D01*
X5942231Y36970071D01*
X5777578Y36971632D01*
X5571649Y36972361D01*
X5383700Y36972500D01*
X5120568Y36972198D01*
X4903296Y36970706D01*
X4726944Y36967144D01*
X4586573Y36960633D01*
X4477245Y36950294D01*
X4394018Y36935248D01*
X4331955Y36914615D01*
X4286116Y36887517D01*
X4251561Y36853074D01*
X4223351Y36810408D01*
X4197920Y36761435D01*
X4179702Y36721934D01*
X4165561Y36682021D01*
X4154859Y36634627D01*
X4146961Y36572686D01*
X4141229Y36489130D01*
X4137029Y36376891D01*
X4133723Y36228904D01*
X4130676Y36038099D01*
X4130268Y36009928D01*
X4127802Y35810903D01*
X4126983Y35657472D01*
X4128024Y35544446D01*
X4131138Y35466639D01*
X4136536Y35418864D01*
X4144432Y35395935D01*
X4155037Y35392663D01*
X4155530Y35392872D01*
X4312123Y35461425D01*
X4452075Y35518846D01*
X4581949Y35566181D01*
X4708307Y35604478D01*
X4837712Y35634786D01*
X4976725Y35658151D01*
X5131908Y35675621D01*
X5309825Y35688244D01*
X5517037Y35697067D01*
X5760107Y35703138D01*
X6045597Y35707504D01*
X6133000Y35708552D01*
X6502810Y35711275D01*
X6827507Y35709984D01*
X7112658Y35704133D01*
X7363830Y35693173D01*
X7586590Y35676556D01*
X7786507Y35653736D01*
X7969148Y35624165D01*
X8140080Y35587294D01*
X8304872Y35542577D01*
X8469091Y35489466D01*
X8511193Y35474639D01*
X8811990Y35346109D01*
X9070705Y35189810D01*
X9288855Y35004051D01*
X9467953Y34787138D01*
X9609515Y34537380D01*
X9715056Y34253083D01*
X9758211Y34081793D01*
X9772576Y34006051D01*
X9783581Y33924033D01*
X9791604Y33828066D01*
X9797024Y33710477D01*
X9800216Y33563594D01*
X9801559Y33379745D01*
X9801555Y33200600D01*
X9800796Y32993231D01*
X9799165Y32829009D01*
X9796164Y32700285D01*
X9791293Y32599407D01*
X9784052Y32518724D01*
X9773942Y32450587D01*
X9760464Y32387344D01*
X9744480Y32326255D01*
X9647070Y32056330D01*
X9511080Y31814998D01*
X9334389Y31599760D01*
X9114877Y31408116D01*
X8850425Y31237565D01*
X8796158Y31207994D01*
X8530816Y31084350D01*
X8235426Y30980056D01*
X7906453Y30894356D01*
X7540364Y30826496D01*
X7133624Y30775718D01*
X6682700Y30741269D01*
X6590200Y30736432D01*
X6362964Y30727742D01*
X6096998Y30721523D01*
X5804311Y30717765D01*
X5496913Y30716460D01*
X5186812Y30717598D01*
X4886018Y30721170D01*
X4606541Y30727168D01*
X4360390Y30735583D01*
X4304200Y30738124D01*
X3825427Y30774246D01*
X3390836Y30834664D01*
X2999911Y30919531D01*
X2652138Y31028997D01*
X2347004Y31163213D01*
X2083993Y31322332D01*
X1942567Y31432943D01*
X1749828Y31630712D01*
X1578835Y31870219D01*
X1432436Y32146045D01*
X1313478Y32452773D01*
X1224809Y32784987D01*
X1220250Y32806900D01*
X1200276Y32909684D01*
X1183317Y33010623D01*
X1169180Y33114596D01*
X1157670Y33226477D01*
X1156781Y33238700D01*
X4139100Y33238700D01*
X4140047Y33074090D01*
X4145612Y32935873D01*
X4159881Y32821723D01*
X4186938Y32729310D01*
X4230868Y32656304D01*
X4295758Y32600378D01*
X4385692Y32559203D01*
X4504755Y32530448D01*
X4657033Y32511787D01*
X4846611Y32500889D01*
X5077574Y32495426D01*
X5354007Y32493070D01*
X5447866Y32492614D01*
X5644501Y32492739D01*
X5836208Y32494755D01*
X6013599Y32498422D01*
X6167290Y32503496D01*
X6287894Y32509738D01*
X6359602Y32516055D01*
X6502494Y32537647D01*
X6611171Y32566385D01*
X6690496Y32609008D01*
X6745330Y32672252D01*
X6780535Y32762858D01*
X6800973Y32887562D01*
X6811505Y33053102D01*
X6814402Y33146384D01*
X6817765Y33336247D01*
X6816166Y33483103D01*
X6808404Y33594605D01*
X6793280Y33678407D01*
X6769591Y33742162D01*
X6736138Y33793525D01*
X6708036Y33824444D01*
X6664989Y33861231D01*
X6612955Y33891582D01*
X6547002Y33916075D01*
X6462195Y33935290D01*
X6353600Y33949806D01*
X6216284Y33960204D01*
X6045312Y33967062D01*
X5835752Y33970961D01*
X5582668Y33972479D01*
X5447200Y33972535D01*
X5156201Y33971879D01*
X4911916Y33968933D01*
X4710256Y33961406D01*
X4547136Y33947005D01*
X4418468Y33923436D01*
X4320166Y33888407D01*
X4248142Y33839625D01*
X4198309Y33774797D01*
X4166581Y33691631D01*
X4148870Y33587835D01*
X4141090Y33461114D01*
X4139153Y33309177D01*
X4139100Y33238700D01*
X1156781Y33238700D01*
X1148594Y33351144D01*
X1141756Y33493472D01*
X1136962Y33658338D01*
X1134019Y33850619D01*
X1132732Y34075190D01*
X1132907Y34336929D01*
X1134350Y34640711D01*
X1136269Y34915100D01*
X1138722Y35222657D01*
X1141106Y35484089D01*
X1143601Y35704071D01*
X1146389Y35887280D01*
X1149652Y36038390D01*
X1153570Y36162075D01*
X1158325Y36263012D01*
X1164099Y36345874D01*
X1171072Y36415338D01*
X1179427Y36476078D01*
X1189344Y36532770D01*
X1201006Y36590088D01*
X1201306Y36591500D01*
X1291598Y36945246D01*
X1404972Y37261221D01*
X1543766Y37541231D01*
X1710319Y37787080D01*
X1906970Y38000574D01*
X2136056Y38183517D01*
X2399917Y38337714D01*
X2700890Y38464971D01*
X3041314Y38567091D01*
X3423528Y38645881D01*
X3849869Y38703145D01*
X3949912Y38713042D01*
X4062422Y38720613D01*
X4216290Y38726632D01*
X4405464Y38731160D01*
X4623896Y38734256D01*
X4865534Y38735981D01*
X5124328Y38736394D01*
X5394230Y38735556D01*
X5394230Y38735556D01*
G37*
X5394230Y38735556D02*
X5669187Y38733527D01*
X5943151Y38730367D01*
X6210071Y38726137D01*
X6463897Y38720895D01*
X6698579Y38714702D01*
X6908068Y38707620D01*
X7086311Y38699706D01*
X7227261Y38691022D01*
X7324866Y38681628D01*
X7340651Y38679357D01*
X7745452Y38604143D01*
X8103803Y38513700D01*
X8418063Y38406883D01*
X8690589Y38282550D01*
X8923739Y38139558D01*
X9119872Y37976763D01*
X9281345Y37793022D01*
X9338360Y37710933D01*
X9407161Y37595424D01*
X9459615Y37482639D01*
X9498096Y37362499D01*
X9524978Y37224923D01*
X9542635Y37059834D01*
X9553442Y36857153D01*
X9555679Y36788350D01*
X9568398Y36350200D01*
X6571327Y36350200D01*
X6559687Y36551259D01*
X6544523Y36692577D01*
X6514627Y36794144D01*
X6464812Y36866104D01*
X6389895Y36918600D01*
X6365974Y36930172D01*
X6335493Y36941621D01*
X6296160Y36950840D01*
X6242571Y36958061D01*
X6169323Y36963518D01*
X6071011Y36967444D01*
X5942231Y36970071D01*
X5777578Y36971632D01*
X5571649Y36972361D01*
X5383700Y36972500D01*
X5120568Y36972198D01*
X4903296Y36970706D01*
X4726944Y36967144D01*
X4586573Y36960633D01*
X4477245Y36950294D01*
X4394018Y36935248D01*
X4331955Y36914615D01*
X4286116Y36887517D01*
X4251561Y36853074D01*
X4223351Y36810408D01*
X4197920Y36761435D01*
X4179702Y36721934D01*
X4165561Y36682021D01*
X4154859Y36634627D01*
X4146961Y36572686D01*
X4141229Y36489130D01*
X4137029Y36376891D01*
X4133723Y36228904D01*
X4130676Y36038099D01*
X4130268Y36009928D01*
X4127802Y35810903D01*
X4126983Y35657472D01*
X4128024Y35544446D01*
X4131138Y35466639D01*
X4136536Y35418864D01*
X4144432Y35395935D01*
X4155037Y35392663D01*
X4155530Y35392872D01*
X4312123Y35461425D01*
X4452075Y35518846D01*
X4581949Y35566181D01*
X4708307Y35604478D01*
X4837712Y35634786D01*
X4976725Y35658151D01*
X5131908Y35675621D01*
X5309825Y35688244D01*
X5517037Y35697067D01*
X5760107Y35703138D01*
X6045597Y35707504D01*
X6133000Y35708552D01*
X6502810Y35711275D01*
X6827507Y35709984D01*
X7112658Y35704133D01*
X7363830Y35693173D01*
X7586590Y35676556D01*
X7786507Y35653736D01*
X7969148Y35624165D01*
X8140080Y35587294D01*
X8304872Y35542577D01*
X8469091Y35489466D01*
X8511193Y35474639D01*
X8811990Y35346109D01*
X9070705Y35189810D01*
X9288855Y35004051D01*
X9467953Y34787138D01*
X9609515Y34537380D01*
X9715056Y34253083D01*
X9758211Y34081793D01*
X9772576Y34006051D01*
X9783581Y33924033D01*
X9791604Y33828066D01*
X9797024Y33710477D01*
X9800216Y33563594D01*
X9801559Y33379745D01*
X9801555Y33200600D01*
X9800796Y32993231D01*
X9799165Y32829009D01*
X9796164Y32700285D01*
X9791293Y32599407D01*
X9784052Y32518724D01*
X9773942Y32450587D01*
X9760464Y32387344D01*
X9744480Y32326255D01*
X9647070Y32056330D01*
X9511080Y31814998D01*
X9334389Y31599760D01*
X9114877Y31408116D01*
X8850425Y31237565D01*
X8796158Y31207994D01*
X8530816Y31084350D01*
X8235426Y30980056D01*
X7906453Y30894356D01*
X7540364Y30826496D01*
X7133624Y30775718D01*
X6682700Y30741269D01*
X6590200Y30736432D01*
X6362964Y30727742D01*
X6096998Y30721523D01*
X5804311Y30717765D01*
X5496913Y30716460D01*
X5186812Y30717598D01*
X4886018Y30721170D01*
X4606541Y30727168D01*
X4360390Y30735583D01*
X4304200Y30738124D01*
X3825427Y30774246D01*
X3390836Y30834664D01*
X2999911Y30919531D01*
X2652138Y31028997D01*
X2347004Y31163213D01*
X2083993Y31322332D01*
X1942567Y31432943D01*
X1749828Y31630712D01*
X1578835Y31870219D01*
X1432436Y32146045D01*
X1313478Y32452773D01*
X1224809Y32784987D01*
X1220250Y32806900D01*
X1200276Y32909684D01*
X1183317Y33010623D01*
X1169180Y33114596D01*
X1157670Y33226477D01*
X1156781Y33238700D01*
X4139100Y33238700D01*
X4140047Y33074090D01*
X4145612Y32935873D01*
X4159881Y32821723D01*
X4186938Y32729310D01*
X4230868Y32656304D01*
X4295758Y32600378D01*
X4385692Y32559203D01*
X4504755Y32530448D01*
X4657033Y32511787D01*
X4846611Y32500889D01*
X5077574Y32495426D01*
X5354007Y32493070D01*
X5447866Y32492614D01*
X5644501Y32492739D01*
X5836208Y32494755D01*
X6013599Y32498422D01*
X6167290Y32503496D01*
X6287894Y32509738D01*
X6359602Y32516055D01*
X6502494Y32537647D01*
X6611171Y32566385D01*
X6690496Y32609008D01*
X6745330Y32672252D01*
X6780535Y32762858D01*
X6800973Y32887562D01*
X6811505Y33053102D01*
X6814402Y33146384D01*
X6817765Y33336247D01*
X6816166Y33483103D01*
X6808404Y33594605D01*
X6793280Y33678407D01*
X6769591Y33742162D01*
X6736138Y33793525D01*
X6708036Y33824444D01*
X6664989Y33861231D01*
X6612955Y33891582D01*
X6547002Y33916075D01*
X6462195Y33935290D01*
X6353600Y33949806D01*
X6216284Y33960204D01*
X6045312Y33967062D01*
X5835752Y33970961D01*
X5582668Y33972479D01*
X5447200Y33972535D01*
X5156201Y33971879D01*
X4911916Y33968933D01*
X4710256Y33961406D01*
X4547136Y33947005D01*
X4418468Y33923436D01*
X4320166Y33888407D01*
X4248142Y33839625D01*
X4198309Y33774797D01*
X4166581Y33691631D01*
X4148870Y33587835D01*
X4141090Y33461114D01*
X4139153Y33309177D01*
X4139100Y33238700D01*
X1156781Y33238700D01*
X1148594Y33351144D01*
X1141756Y33493472D01*
X1136962Y33658338D01*
X1134019Y33850619D01*
X1132732Y34075190D01*
X1132907Y34336929D01*
X1134350Y34640711D01*
X1136269Y34915100D01*
X1138722Y35222657D01*
X1141106Y35484089D01*
X1143601Y35704071D01*
X1146389Y35887280D01*
X1149652Y36038390D01*
X1153570Y36162075D01*
X1158325Y36263012D01*
X1164099Y36345874D01*
X1171072Y36415338D01*
X1179427Y36476078D01*
X1189344Y36532770D01*
X1201006Y36590088D01*
X1201306Y36591500D01*
X1291598Y36945246D01*
X1404972Y37261221D01*
X1543766Y37541231D01*
X1710319Y37787080D01*
X1906970Y38000574D01*
X2136056Y38183517D01*
X2399917Y38337714D01*
X2700890Y38464971D01*
X3041314Y38567091D01*
X3423528Y38645881D01*
X3849869Y38703145D01*
X3949912Y38713042D01*
X4062422Y38720613D01*
X4216290Y38726632D01*
X4405464Y38731160D01*
X4623896Y38734256D01*
X4865534Y38735981D01*
X5124328Y38736394D01*
X5394230Y38735556D01*
G36*
X-16047556Y39216542D02*
G01*
X-15776850Y39203023D01*
X-15521641Y39178211D01*
X-15297370Y39142614D01*
X-15253800Y39133405D01*
X-15139326Y39107978D01*
X-15044787Y39087173D01*
X-14980131Y39073166D01*
X-14955350Y39068132D01*
X-14954050Y39043544D01*
X-14952840Y38973193D01*
X-14951746Y38862118D01*
X-14950798Y38715355D01*
X-14950022Y38537942D01*
X-14949446Y38334917D01*
X-14949097Y38111316D01*
X-14949000Y37910184D01*
X-14949404Y37673559D01*
X-14950559Y37453609D01*
X-14952383Y37255315D01*
X-14954793Y37083656D01*
X-14957707Y36943613D01*
X-14961042Y36840167D01*
X-14964716Y36778297D01*
X-14968050Y36762120D01*
X-15218926Y36883996D01*
X-15441183Y36976472D01*
X-15645354Y37042524D01*
X-15841968Y37085124D01*
X-16041558Y37107247D01*
X-16207897Y37112200D01*
X-16535090Y37093261D01*
X-16836415Y37035015D01*
X-17120637Y36935318D01*
X-17307751Y36843228D01*
X-17589493Y36660740D01*
X-17837199Y36444305D01*
X-18049335Y36198645D01*
X-18224365Y35928485D01*
X-18360756Y35638550D01*
X-18456972Y35333564D01*
X-18511481Y35018251D01*
X-18522746Y34697335D01*
X-18489233Y34375541D01*
X-18409409Y34057594D01*
X-18300539Y33786620D01*
X-18132880Y33491766D01*
X-17924845Y33219704D01*
X-17683943Y32979474D01*
X-17525711Y32853624D01*
X-17411375Y32780668D01*
X-17265411Y32701834D01*
X-17105024Y32625254D01*
X-16947417Y32559058D01*
X-16809793Y32511378D01*
X-16789477Y32505660D01*
X-16477410Y32446373D01*
X-16155388Y32431421D01*
X-15833204Y32459818D01*
X-15520651Y32530577D01*
X-15227523Y32642711D01*
X-15175561Y32668241D01*
X-15097128Y32706401D01*
X-15026644Y32737743D01*
X-15011635Y32743729D01*
X-14949000Y32767543D01*
X-14949000Y30411216D01*
X-15285550Y30327867D01*
X-15407336Y30298467D01*
X-15508806Y30276733D01*
X-15601949Y30261368D01*
X-15698750Y30251075D01*
X-15811198Y30244557D01*
X-15951278Y30240516D01*
X-16117400Y30237837D01*
X-16371562Y30237254D01*
X-16580404Y30243164D01*
X-16749020Y30255775D01*
X-16840604Y30267850D01*
X-17319755Y30368774D01*
X-17775201Y30513974D01*
X-18210448Y30704826D01*
X-18629001Y30942709D01*
X-18735897Y31012684D01*
X-19114760Y31297114D01*
X-19456009Y31613669D01*
X-19758551Y31959166D01*
X-20021294Y32330422D01*
X-20243148Y32724255D01*
X-20423020Y33137481D01*
X-20559820Y33566917D01*
X-20652455Y34009381D01*
X-20699834Y34461690D01*
X-20700866Y34920661D01*
X-20654458Y35383110D01*
X-20559521Y35845855D01*
X-20483342Y36108318D01*
X-20420516Y36278885D01*
X-20334999Y36476273D01*
X-20234010Y36686242D01*
X-20124769Y36894554D01*
X-20014496Y37086969D01*
X-19910409Y37249247D01*
X-19890634Y37277300D01*
X-19582999Y37663803D01*
X-19244711Y38011191D01*
X-18877964Y38318113D01*
X-18484951Y38583215D01*
X-18067863Y38805146D01*
X-17628895Y38982553D01*
X-17170239Y39114084D01*
X-16798216Y39184259D01*
X-16573681Y39207669D01*
X-16318314Y39218260D01*
X-16047556Y39216542D01*
X-16047556Y39216542D01*
G37*
X-16047556Y39216542D02*
X-15776850Y39203023D01*
X-15521641Y39178211D01*
X-15297370Y39142614D01*
X-15253800Y39133405D01*
X-15139326Y39107978D01*
X-15044787Y39087173D01*
X-14980131Y39073166D01*
X-14955350Y39068132D01*
X-14954050Y39043544D01*
X-14952840Y38973193D01*
X-14951746Y38862118D01*
X-14950798Y38715355D01*
X-14950022Y38537942D01*
X-14949446Y38334917D01*
X-14949097Y38111316D01*
X-14949000Y37910184D01*
X-14949404Y37673559D01*
X-14950559Y37453609D01*
X-14952383Y37255315D01*
X-14954793Y37083656D01*
X-14957707Y36943613D01*
X-14961042Y36840167D01*
X-14964716Y36778297D01*
X-14968050Y36762120D01*
X-15218926Y36883996D01*
X-15441183Y36976472D01*
X-15645354Y37042524D01*
X-15841968Y37085124D01*
X-16041558Y37107247D01*
X-16207897Y37112200D01*
X-16535090Y37093261D01*
X-16836415Y37035015D01*
X-17120637Y36935318D01*
X-17307751Y36843228D01*
X-17589493Y36660740D01*
X-17837199Y36444305D01*
X-18049335Y36198645D01*
X-18224365Y35928485D01*
X-18360756Y35638550D01*
X-18456972Y35333564D01*
X-18511481Y35018251D01*
X-18522746Y34697335D01*
X-18489233Y34375541D01*
X-18409409Y34057594D01*
X-18300539Y33786620D01*
X-18132880Y33491766D01*
X-17924845Y33219704D01*
X-17683943Y32979474D01*
X-17525711Y32853624D01*
X-17411375Y32780668D01*
X-17265411Y32701834D01*
X-17105024Y32625254D01*
X-16947417Y32559058D01*
X-16809793Y32511378D01*
X-16789477Y32505660D01*
X-16477410Y32446373D01*
X-16155388Y32431421D01*
X-15833204Y32459818D01*
X-15520651Y32530577D01*
X-15227523Y32642711D01*
X-15175561Y32668241D01*
X-15097128Y32706401D01*
X-15026644Y32737743D01*
X-15011635Y32743729D01*
X-14949000Y32767543D01*
X-14949000Y30411216D01*
X-15285550Y30327867D01*
X-15407336Y30298467D01*
X-15508806Y30276733D01*
X-15601949Y30261368D01*
X-15698750Y30251075D01*
X-15811198Y30244557D01*
X-15951278Y30240516D01*
X-16117400Y30237837D01*
X-16371562Y30237254D01*
X-16580404Y30243164D01*
X-16749020Y30255775D01*
X-16840604Y30267850D01*
X-17319755Y30368774D01*
X-17775201Y30513974D01*
X-18210448Y30704826D01*
X-18629001Y30942709D01*
X-18735897Y31012684D01*
X-19114760Y31297114D01*
X-19456009Y31613669D01*
X-19758551Y31959166D01*
X-20021294Y32330422D01*
X-20243148Y32724255D01*
X-20423020Y33137481D01*
X-20559820Y33566917D01*
X-20652455Y34009381D01*
X-20699834Y34461690D01*
X-20700866Y34920661D01*
X-20654458Y35383110D01*
X-20559521Y35845855D01*
X-20483342Y36108318D01*
X-20420516Y36278885D01*
X-20334999Y36476273D01*
X-20234010Y36686242D01*
X-20124769Y36894554D01*
X-20014496Y37086969D01*
X-19910409Y37249247D01*
X-19890634Y37277300D01*
X-19582999Y37663803D01*
X-19244711Y38011191D01*
X-18877964Y38318113D01*
X-18484951Y38583215D01*
X-18067863Y38805146D01*
X-17628895Y38982553D01*
X-17170239Y39114084D01*
X-16798216Y39184259D01*
X-16573681Y39207669D01*
X-16318314Y39218260D01*
X-16047556Y39216542D01*
D14*
X-36628700Y35100000D02*
G75*
G03X-36628700Y35100000I-76200J0D01*
G01*
D12*
X39705476Y34597619D02*
X40372142Y33597619D01*
X40372142Y34597619D02*
X39705476Y33597619D01*
X41276904Y33597619D02*
X40705476Y33597619D01*
X40991190Y33597619D02*
X40991190Y34597619D01*
X40895952Y34454761D01*
X40800714Y34359523D01*
X40705476Y34311904D01*
X31726904Y38745238D02*
X31869761Y38697619D01*
X32107857Y38697619D01*
X32203095Y38745238D01*
X32250714Y38792857D01*
X32298333Y38888095D01*
X32298333Y38983333D01*
X32250714Y39078571D01*
X32203095Y39126190D01*
X32107857Y39173809D01*
X31917380Y39221428D01*
X31822142Y39269047D01*
X31774523Y39316666D01*
X31726904Y39411904D01*
X31726904Y39507142D01*
X31774523Y39602380D01*
X31822142Y39650000D01*
X31917380Y39697619D01*
X32155476Y39697619D01*
X32298333Y39650000D01*
X32679285Y38983333D02*
X33155476Y38983333D01*
X32584047Y38697619D02*
X32917380Y39697619D01*
X33250714Y38697619D01*
X33774523Y39697619D02*
X33965000Y39697619D01*
X34060238Y39650000D01*
X34155476Y39554761D01*
X34203095Y39364285D01*
X34203095Y39030952D01*
X34155476Y38840476D01*
X34060238Y38745238D01*
X33965000Y38697619D01*
X33774523Y38697619D01*
X33679285Y38745238D01*
X33584047Y38840476D01*
X33536428Y39030952D01*
X33536428Y39364285D01*
X33584047Y39554761D01*
X33679285Y39650000D01*
X33774523Y39697619D01*
X29436428Y30160714D02*
X29900714Y30160714D01*
X29650714Y29875000D01*
X29757857Y29875000D01*
X29829285Y29839285D01*
X29865000Y29803571D01*
X29900714Y29732142D01*
X29900714Y29553571D01*
X29865000Y29482142D01*
X29829285Y29446428D01*
X29757857Y29410714D01*
X29543571Y29410714D01*
X29472142Y29446428D01*
X29436428Y29482142D01*
X30115000Y30160714D02*
X30365000Y29410714D01*
X30615000Y30160714D01*
X30793571Y30160714D02*
X31257857Y30160714D01*
X31007857Y29875000D01*
X31115000Y29875000D01*
X31186428Y29839285D01*
X31222142Y29803571D01*
X31257857Y29732142D01*
X31257857Y29553571D01*
X31222142Y29482142D01*
X31186428Y29446428D01*
X31115000Y29410714D01*
X30900714Y29410714D01*
X30829285Y29446428D01*
X30793571Y29482142D01*
X29018571Y29025000D02*
X28947142Y29060714D01*
X28840000Y29060714D01*
X28732857Y29025000D01*
X28661428Y28953571D01*
X28625714Y28882142D01*
X28590000Y28739285D01*
X28590000Y28632142D01*
X28625714Y28489285D01*
X28661428Y28417857D01*
X28732857Y28346428D01*
X28840000Y28310714D01*
X28911428Y28310714D01*
X29018571Y28346428D01*
X29054285Y28382142D01*
X29054285Y28632142D01*
X28911428Y28632142D01*
X29375714Y28310714D02*
X29375714Y29060714D01*
X29804285Y28310714D01*
X29804285Y29060714D01*
X30161428Y28310714D02*
X30161428Y29060714D01*
X30340000Y29060714D01*
X30447142Y29025000D01*
X30518571Y28953571D01*
X30554285Y28882142D01*
X30590000Y28739285D01*
X30590000Y28632142D01*
X30554285Y28489285D01*
X30518571Y28417857D01*
X30447142Y28346428D01*
X30340000Y28310714D01*
X30161428Y28310714D01*
X30911428Y28310714D02*
X30911428Y29060714D01*
X31090000Y29060714D01*
X31197142Y29025000D01*
X31268571Y28953571D01*
X31304285Y28882142D01*
X31340000Y28739285D01*
X31340000Y28632142D01*
X31304285Y28489285D01*
X31268571Y28417857D01*
X31197142Y28346428D01*
X31090000Y28310714D01*
X30911428Y28310714D01*
X31954285Y29446428D02*
X32061428Y29410714D01*
X32240000Y29410714D01*
X32311428Y29446428D01*
X32347142Y29482142D01*
X32382857Y29553571D01*
X32382857Y29625000D01*
X32347142Y29696428D01*
X32311428Y29732142D01*
X32240000Y29767857D01*
X32097142Y29803571D01*
X32025714Y29839285D01*
X31990000Y29875000D01*
X31954285Y29946428D01*
X31954285Y30017857D01*
X31990000Y30089285D01*
X32025714Y30125000D01*
X32097142Y30160714D01*
X32275714Y30160714D01*
X32382857Y30125000D01*
X32704285Y29410714D02*
X32704285Y30160714D01*
X32882857Y30160714D01*
X32990000Y30125000D01*
X33061428Y30053571D01*
X33097142Y29982142D01*
X33132857Y29839285D01*
X33132857Y29732142D01*
X33097142Y29589285D01*
X33061428Y29517857D01*
X32990000Y29446428D01*
X32882857Y29410714D01*
X32704285Y29410714D01*
X33418571Y29625000D02*
X33775714Y29625000D01*
X33347142Y29410714D02*
X33597142Y30160714D01*
X33847142Y29410714D01*
X31972142Y28319428D02*
X32079285Y28283714D01*
X32257857Y28283714D01*
X32329285Y28319428D01*
X32365000Y28355142D01*
X32400714Y28426571D01*
X32400714Y28498000D01*
X32365000Y28569428D01*
X32329285Y28605142D01*
X32257857Y28640857D01*
X32115000Y28676571D01*
X32043571Y28712285D01*
X32007857Y28748000D01*
X31972142Y28819428D01*
X31972142Y28890857D01*
X32007857Y28962285D01*
X32043571Y28998000D01*
X32115000Y29033714D01*
X32293571Y29033714D01*
X32400714Y28998000D01*
X33150714Y28355142D02*
X33115000Y28319428D01*
X33007857Y28283714D01*
X32936428Y28283714D01*
X32829285Y28319428D01*
X32757857Y28390857D01*
X32722142Y28462285D01*
X32686428Y28605142D01*
X32686428Y28712285D01*
X32722142Y28855142D01*
X32757857Y28926571D01*
X32829285Y28998000D01*
X32936428Y29033714D01*
X33007857Y29033714D01*
X33115000Y28998000D01*
X33150714Y28962285D01*
X33829285Y28283714D02*
X33472142Y28283714D01*
X33472142Y29033714D01*
X34944857Y28998000D02*
X34873428Y29033714D01*
X34766285Y29033714D01*
X34659142Y28998000D01*
X34587714Y28926571D01*
X34552000Y28855142D01*
X34516285Y28712285D01*
X34516285Y28605142D01*
X34552000Y28462285D01*
X34587714Y28390857D01*
X34659142Y28319428D01*
X34766285Y28283714D01*
X34837714Y28283714D01*
X34944857Y28319428D01*
X34980571Y28355142D01*
X34980571Y28605142D01*
X34837714Y28605142D01*
X35302000Y28283714D02*
X35302000Y29033714D01*
X35587714Y29033714D01*
X35659142Y28998000D01*
X35694857Y28962285D01*
X35730571Y28890857D01*
X35730571Y28783714D01*
X35694857Y28712285D01*
X35659142Y28676571D01*
X35587714Y28640857D01*
X35302000Y28640857D01*
X36052000Y28283714D02*
X36052000Y29033714D01*
X36552000Y29033714D02*
X36694857Y29033714D01*
X36766285Y28998000D01*
X36837714Y28926571D01*
X36873428Y28783714D01*
X36873428Y28533714D01*
X36837714Y28390857D01*
X36766285Y28319428D01*
X36694857Y28283714D01*
X36552000Y28283714D01*
X36480571Y28319428D01*
X36409142Y28390857D01*
X36373428Y28533714D01*
X36373428Y28783714D01*
X36409142Y28926571D01*
X36480571Y28998000D01*
X36552000Y29033714D01*
X37159142Y28962285D02*
X37194857Y28998000D01*
X37266285Y29033714D01*
X37444857Y29033714D01*
X37516285Y28998000D01*
X37552000Y28962285D01*
X37587714Y28890857D01*
X37587714Y28819428D01*
X37552000Y28712285D01*
X37123428Y28283714D01*
X37587714Y28283714D01*
X34944857Y30056000D02*
X34873428Y30091714D01*
X34766285Y30091714D01*
X34659142Y30056000D01*
X34587714Y29984571D01*
X34552000Y29913142D01*
X34516285Y29770285D01*
X34516285Y29663142D01*
X34552000Y29520285D01*
X34587714Y29448857D01*
X34659142Y29377428D01*
X34766285Y29341714D01*
X34837714Y29341714D01*
X34944857Y29377428D01*
X34980571Y29413142D01*
X34980571Y29663142D01*
X34837714Y29663142D01*
X35302000Y29341714D02*
X35302000Y30091714D01*
X35587714Y30091714D01*
X35659142Y30056000D01*
X35694857Y30020285D01*
X35730571Y29948857D01*
X35730571Y29841714D01*
X35694857Y29770285D01*
X35659142Y29734571D01*
X35587714Y29698857D01*
X35302000Y29698857D01*
X36052000Y29341714D02*
X36052000Y30091714D01*
X36552000Y30091714D02*
X36694857Y30091714D01*
X36766285Y30056000D01*
X36837714Y29984571D01*
X36873428Y29841714D01*
X36873428Y29591714D01*
X36837714Y29448857D01*
X36766285Y29377428D01*
X36694857Y29341714D01*
X36552000Y29341714D01*
X36480571Y29377428D01*
X36409142Y29448857D01*
X36373428Y29591714D01*
X36373428Y29841714D01*
X36409142Y29984571D01*
X36480571Y30056000D01*
X36552000Y30091714D01*
X37587714Y29341714D02*
X37159142Y29341714D01*
X37373428Y29341714D02*
X37373428Y30091714D01*
X37302000Y29984571D01*
X37230571Y29913142D01*
X37159142Y29877428D01*
X-38746904Y35597619D02*
X-38746904Y34788095D01*
X-38699285Y34692857D01*
X-38651666Y34645238D01*
X-38556428Y34597619D01*
X-38365952Y34597619D01*
X-38270714Y34645238D01*
X-38223095Y34692857D01*
X-38175476Y34788095D01*
X-38175476Y35597619D01*
X-37223095Y35597619D02*
X-37699285Y35597619D01*
X-37746904Y35121428D01*
X-37699285Y35169047D01*
X-37604047Y35216666D01*
X-37365952Y35216666D01*
X-37270714Y35169047D01*
X-37223095Y35121428D01*
X-37175476Y35026190D01*
X-37175476Y34788095D01*
X-37223095Y34692857D01*
X-37270714Y34645238D01*
X-37365952Y34597619D01*
X-37604047Y34597619D01*
X-37699285Y34645238D01*
X-37746904Y34692857D01*
X-30465952Y-21026190D02*
X-30465952Y-21502380D01*
X-30799285Y-20502380D02*
X-30465952Y-21026190D01*
X-30132619Y-20502380D01*
X-29323095Y-21502380D02*
X-29799285Y-21502380D01*
X-29799285Y-20502380D01*
X-29085000Y-20502380D02*
X-28418333Y-20502380D01*
X-28846904Y-21502380D01*
X-30465952Y-14626190D02*
X-30465952Y-15102380D01*
X-30799285Y-14102380D02*
X-30465952Y-14626190D01*
X-30132619Y-14102380D01*
X-29323095Y-15102380D02*
X-29799285Y-15102380D01*
X-29799285Y-14102380D01*
X-28561190Y-14102380D02*
X-28751666Y-14102380D01*
X-28846904Y-14150000D01*
X-28894523Y-14197619D01*
X-28989761Y-14340476D01*
X-29037380Y-14530952D01*
X-29037380Y-14911904D01*
X-28989761Y-15007142D01*
X-28942142Y-15054761D01*
X-28846904Y-15102380D01*
X-28656428Y-15102380D01*
X-28561190Y-15054761D01*
X-28513571Y-15007142D01*
X-28465952Y-14911904D01*
X-28465952Y-14673809D01*
X-28513571Y-14578571D01*
X-28561190Y-14530952D01*
X-28656428Y-14483333D01*
X-28846904Y-14483333D01*
X-28942142Y-14530952D01*
X-28989761Y-14578571D01*
X-29037380Y-14673809D01*
X-30515952Y24423809D02*
X-30515952Y23947619D01*
X-30849285Y24947619D02*
X-30515952Y24423809D01*
X-30182619Y24947619D01*
X-29373095Y23947619D02*
X-29849285Y23947619D01*
X-29849285Y24947619D01*
X-28849285Y24947619D02*
X-28754047Y24947619D01*
X-28658809Y24900000D01*
X-28611190Y24852380D01*
X-28563571Y24757142D01*
X-28515952Y24566666D01*
X-28515952Y24328571D01*
X-28563571Y24138095D01*
X-28611190Y24042857D01*
X-28658809Y23995238D01*
X-28754047Y23947619D01*
X-28849285Y23947619D01*
X-28944523Y23995238D01*
X-28992142Y24042857D01*
X-29039761Y24138095D01*
X-29087380Y24328571D01*
X-29087380Y24566666D01*
X-29039761Y24757142D01*
X-28992142Y24852380D01*
X-28944523Y24900000D01*
X-28849285Y24947619D01*
X-30465952Y-1626190D02*
X-30465952Y-2102380D01*
X-30799285Y-1102380D02*
X-30465952Y-1626190D01*
X-30132619Y-1102380D01*
X-29323095Y-2102380D02*
X-29799285Y-2102380D01*
X-29799285Y-1102380D01*
X-28561190Y-1435714D02*
X-28561190Y-2102380D01*
X-28799285Y-1054761D02*
X-29037380Y-1769047D01*
X-28418333Y-1769047D01*
X-30465952Y11373809D02*
X-30465952Y10897619D01*
X-30799285Y11897619D02*
X-30465952Y11373809D01*
X-30132619Y11897619D01*
X-29323095Y10897619D02*
X-29799285Y10897619D01*
X-29799285Y11897619D01*
X-29037380Y11802380D02*
X-28989761Y11850000D01*
X-28894523Y11897619D01*
X-28656428Y11897619D01*
X-28561190Y11850000D01*
X-28513571Y11802380D01*
X-28465952Y11707142D01*
X-28465952Y11611904D01*
X-28513571Y11469047D01*
X-29085000Y10897619D01*
X-28465952Y10897619D01*
X-30515952Y17923809D02*
X-30515952Y17447619D01*
X-30849285Y18447619D02*
X-30515952Y17923809D01*
X-30182619Y18447619D01*
X-29373095Y17447619D02*
X-29849285Y17447619D01*
X-29849285Y18447619D01*
X-28515952Y17447619D02*
X-29087380Y17447619D01*
X-28801666Y17447619D02*
X-28801666Y18447619D01*
X-28896904Y18304761D01*
X-28992142Y18209523D01*
X-29087380Y18161904D01*
X-30465952Y4973809D02*
X-30465952Y4497619D01*
X-30799285Y5497619D02*
X-30465952Y4973809D01*
X-30132619Y5497619D01*
X-29323095Y4497619D02*
X-29799285Y4497619D01*
X-29799285Y5497619D01*
X-29085000Y5497619D02*
X-28465952Y5497619D01*
X-28799285Y5116666D01*
X-28656428Y5116666D01*
X-28561190Y5069047D01*
X-28513571Y5021428D01*
X-28465952Y4926190D01*
X-28465952Y4688095D01*
X-28513571Y4592857D01*
X-28561190Y4545238D01*
X-28656428Y4497619D01*
X-28942142Y4497619D01*
X-29037380Y4545238D01*
X-29085000Y4592857D01*
X-30465952Y-8226190D02*
X-30465952Y-8702380D01*
X-30799285Y-7702380D02*
X-30465952Y-8226190D01*
X-30132619Y-7702380D01*
X-29323095Y-8702380D02*
X-29799285Y-8702380D01*
X-29799285Y-7702380D01*
X-28513571Y-7702380D02*
X-28989761Y-7702380D01*
X-29037380Y-8178571D01*
X-28989761Y-8130952D01*
X-28894523Y-8083333D01*
X-28656428Y-8083333D01*
X-28561190Y-8130952D01*
X-28513571Y-8178571D01*
X-28465952Y-8273809D01*
X-28465952Y-8511904D01*
X-28513571Y-8607142D01*
X-28561190Y-8654761D01*
X-28656428Y-8702380D01*
X-28894523Y-8702380D01*
X-28989761Y-8654761D01*
X-29037380Y-8607142D01*
X-27094523Y-28302380D02*
X-26427857Y-29302380D01*
X-26427857Y-28302380D02*
X-27094523Y-29302380D01*
X-25713571Y-28778571D02*
X-25570714Y-28826190D01*
X-25523095Y-28873809D01*
X-25475476Y-28969047D01*
X-25475476Y-29111904D01*
X-25523095Y-29207142D01*
X-25570714Y-29254761D01*
X-25665952Y-29302380D01*
X-26046904Y-29302380D01*
X-26046904Y-28302380D01*
X-25713571Y-28302380D01*
X-25618333Y-28350000D01*
X-25570714Y-28397619D01*
X-25523095Y-28492857D01*
X-25523095Y-28588095D01*
X-25570714Y-28683333D01*
X-25618333Y-28730952D01*
X-25713571Y-28778571D01*
X-26046904Y-28778571D01*
X-24856428Y-28302380D02*
X-24761190Y-28302380D01*
X-24665952Y-28350000D01*
X-24618333Y-28397619D01*
X-24570714Y-28492857D01*
X-24523095Y-28683333D01*
X-24523095Y-28921428D01*
X-24570714Y-29111904D01*
X-24618333Y-29207142D01*
X-24665952Y-29254761D01*
X-24761190Y-29302380D01*
X-24856428Y-29302380D01*
X-24951666Y-29254761D01*
X-24999285Y-29207142D01*
X-25046904Y-29111904D01*
X-25094523Y-28921428D01*
X-25094523Y-28683333D01*
X-25046904Y-28492857D01*
X-24999285Y-28397619D01*
X-24951666Y-28350000D01*
X-24856428Y-28302380D01*
X13105476Y-28302380D02*
X13772142Y-29302380D01*
X13772142Y-28302380D02*
X13105476Y-29302380D01*
X14486428Y-28778571D02*
X14629285Y-28826190D01*
X14676904Y-28873809D01*
X14724523Y-28969047D01*
X14724523Y-29111904D01*
X14676904Y-29207142D01*
X14629285Y-29254761D01*
X14534047Y-29302380D01*
X14153095Y-29302380D01*
X14153095Y-28302380D01*
X14486428Y-28302380D01*
X14581666Y-28350000D01*
X14629285Y-28397619D01*
X14676904Y-28492857D01*
X14676904Y-28588095D01*
X14629285Y-28683333D01*
X14581666Y-28730952D01*
X14486428Y-28778571D01*
X14153095Y-28778571D01*
X15581666Y-28302380D02*
X15391190Y-28302380D01*
X15295952Y-28350000D01*
X15248333Y-28397619D01*
X15153095Y-28540476D01*
X15105476Y-28730952D01*
X15105476Y-29111904D01*
X15153095Y-29207142D01*
X15200714Y-29254761D01*
X15295952Y-29302380D01*
X15486428Y-29302380D01*
X15581666Y-29254761D01*
X15629285Y-29207142D01*
X15676904Y-29111904D01*
X15676904Y-28873809D01*
X15629285Y-28778571D01*
X15581666Y-28730952D01*
X15486428Y-28683333D01*
X15295952Y-28683333D01*
X15200714Y-28730952D01*
X15153095Y-28778571D01*
X15105476Y-28873809D01*
X6305476Y-28302380D02*
X6972142Y-29302380D01*
X6972142Y-28302380D02*
X6305476Y-29302380D01*
X7686428Y-28778571D02*
X7829285Y-28826190D01*
X7876904Y-28873809D01*
X7924523Y-28969047D01*
X7924523Y-29111904D01*
X7876904Y-29207142D01*
X7829285Y-29254761D01*
X7734047Y-29302380D01*
X7353095Y-29302380D01*
X7353095Y-28302380D01*
X7686428Y-28302380D01*
X7781666Y-28350000D01*
X7829285Y-28397619D01*
X7876904Y-28492857D01*
X7876904Y-28588095D01*
X7829285Y-28683333D01*
X7781666Y-28730952D01*
X7686428Y-28778571D01*
X7353095Y-28778571D01*
X8829285Y-28302380D02*
X8353095Y-28302380D01*
X8305476Y-28778571D01*
X8353095Y-28730952D01*
X8448333Y-28683333D01*
X8686428Y-28683333D01*
X8781666Y-28730952D01*
X8829285Y-28778571D01*
X8876904Y-28873809D01*
X8876904Y-29111904D01*
X8829285Y-29207142D01*
X8781666Y-29254761D01*
X8686428Y-29302380D01*
X8448333Y-29302380D01*
X8353095Y-29254761D01*
X8305476Y-29207142D01*
X19705476Y-28302380D02*
X20372142Y-29302380D01*
X20372142Y-28302380D02*
X19705476Y-29302380D01*
X21086428Y-28778571D02*
X21229285Y-28826190D01*
X21276904Y-28873809D01*
X21324523Y-28969047D01*
X21324523Y-29111904D01*
X21276904Y-29207142D01*
X21229285Y-29254761D01*
X21134047Y-29302380D01*
X20753095Y-29302380D01*
X20753095Y-28302380D01*
X21086428Y-28302380D01*
X21181666Y-28350000D01*
X21229285Y-28397619D01*
X21276904Y-28492857D01*
X21276904Y-28588095D01*
X21229285Y-28683333D01*
X21181666Y-28730952D01*
X21086428Y-28778571D01*
X20753095Y-28778571D01*
X21657857Y-28302380D02*
X22324523Y-28302380D01*
X21895952Y-29302380D01*
X-7094523Y-28302380D02*
X-6427857Y-29302380D01*
X-6427857Y-28302380D02*
X-7094523Y-29302380D01*
X-5713571Y-28778571D02*
X-5570714Y-28826190D01*
X-5523095Y-28873809D01*
X-5475476Y-28969047D01*
X-5475476Y-29111904D01*
X-5523095Y-29207142D01*
X-5570714Y-29254761D01*
X-5665952Y-29302380D01*
X-6046904Y-29302380D01*
X-6046904Y-28302380D01*
X-5713571Y-28302380D01*
X-5618333Y-28350000D01*
X-5570714Y-28397619D01*
X-5523095Y-28492857D01*
X-5523095Y-28588095D01*
X-5570714Y-28683333D01*
X-5618333Y-28730952D01*
X-5713571Y-28778571D01*
X-6046904Y-28778571D01*
X-5142142Y-28302380D02*
X-4523095Y-28302380D01*
X-4856428Y-28683333D01*
X-4713571Y-28683333D01*
X-4618333Y-28730952D01*
X-4570714Y-28778571D01*
X-4523095Y-28873809D01*
X-4523095Y-29111904D01*
X-4570714Y-29207142D01*
X-4618333Y-29254761D01*
X-4713571Y-29302380D01*
X-4999285Y-29302380D01*
X-5094523Y-29254761D01*
X-5142142Y-29207142D01*
X-294523Y-28302380D02*
X372142Y-29302380D01*
X372142Y-28302380D02*
X-294523Y-29302380D01*
X1086428Y-28778571D02*
X1229285Y-28826190D01*
X1276904Y-28873809D01*
X1324523Y-28969047D01*
X1324523Y-29111904D01*
X1276904Y-29207142D01*
X1229285Y-29254761D01*
X1134047Y-29302380D01*
X753095Y-29302380D01*
X753095Y-28302380D01*
X1086428Y-28302380D01*
X1181666Y-28350000D01*
X1229285Y-28397619D01*
X1276904Y-28492857D01*
X1276904Y-28588095D01*
X1229285Y-28683333D01*
X1181666Y-28730952D01*
X1086428Y-28778571D01*
X753095Y-28778571D01*
X2181666Y-28635714D02*
X2181666Y-29302380D01*
X1943571Y-28254761D02*
X1705476Y-28969047D01*
X2324523Y-28969047D01*
X-20294523Y-28302380D02*
X-19627857Y-29302380D01*
X-19627857Y-28302380D02*
X-20294523Y-29302380D01*
X-18913571Y-28778571D02*
X-18770714Y-28826190D01*
X-18723095Y-28873809D01*
X-18675476Y-28969047D01*
X-18675476Y-29111904D01*
X-18723095Y-29207142D01*
X-18770714Y-29254761D01*
X-18865952Y-29302380D01*
X-19246904Y-29302380D01*
X-19246904Y-28302380D01*
X-18913571Y-28302380D01*
X-18818333Y-28350000D01*
X-18770714Y-28397619D01*
X-18723095Y-28492857D01*
X-18723095Y-28588095D01*
X-18770714Y-28683333D01*
X-18818333Y-28730952D01*
X-18913571Y-28778571D01*
X-19246904Y-28778571D01*
X-17723095Y-29302380D02*
X-18294523Y-29302380D01*
X-18008809Y-29302380D02*
X-18008809Y-28302380D01*
X-18104047Y-28445238D01*
X-18199285Y-28540476D01*
X-18294523Y-28588095D01*
X-13694523Y-28302380D02*
X-13027857Y-29302380D01*
X-13027857Y-28302380D02*
X-13694523Y-29302380D01*
X-12313571Y-28778571D02*
X-12170714Y-28826190D01*
X-12123095Y-28873809D01*
X-12075476Y-28969047D01*
X-12075476Y-29111904D01*
X-12123095Y-29207142D01*
X-12170714Y-29254761D01*
X-12265952Y-29302380D01*
X-12646904Y-29302380D01*
X-12646904Y-28302380D01*
X-12313571Y-28302380D01*
X-12218333Y-28350000D01*
X-12170714Y-28397619D01*
X-12123095Y-28492857D01*
X-12123095Y-28588095D01*
X-12170714Y-28683333D01*
X-12218333Y-28730952D01*
X-12313571Y-28778571D01*
X-12646904Y-28778571D01*
X-11694523Y-28397619D02*
X-11646904Y-28350000D01*
X-11551666Y-28302380D01*
X-11313571Y-28302380D01*
X-11218333Y-28350000D01*
X-11170714Y-28397619D01*
X-11123095Y-28492857D01*
X-11123095Y-28588095D01*
X-11170714Y-28730952D01*
X-11742142Y-29302380D01*
X-11123095Y-29302380D01*
X-26975476Y29297619D02*
X-26308809Y28297619D01*
X-26308809Y29297619D02*
X-26975476Y28297619D01*
X-26070714Y29297619D02*
X-25499285Y29297619D01*
X-25785000Y28297619D02*
X-25785000Y29297619D01*
X-24975476Y29297619D02*
X-24880238Y29297619D01*
X-24785000Y29250000D01*
X-24737380Y29202380D01*
X-24689761Y29107142D01*
X-24642142Y28916666D01*
X-24642142Y28678571D01*
X-24689761Y28488095D01*
X-24737380Y28392857D01*
X-24785000Y28345238D01*
X-24880238Y28297619D01*
X-24975476Y28297619D01*
X-25070714Y28345238D01*
X-25118333Y28392857D01*
X-25165952Y28488095D01*
X-25213571Y28678571D01*
X-25213571Y28916666D01*
X-25165952Y29107142D01*
X-25118333Y29202380D01*
X-25070714Y29250000D01*
X-24975476Y29297619D01*
X-20175476Y29297619D02*
X-19508809Y28297619D01*
X-19508809Y29297619D02*
X-20175476Y28297619D01*
X-19270714Y29297619D02*
X-18699285Y29297619D01*
X-18985000Y28297619D02*
X-18985000Y29297619D01*
X-17842142Y28297619D02*
X-18413571Y28297619D01*
X-18127857Y28297619D02*
X-18127857Y29297619D01*
X-18223095Y29154761D01*
X-18318333Y29059523D01*
X-18413571Y29011904D01*
X-13775476Y29297619D02*
X-13108809Y28297619D01*
X-13108809Y29297619D02*
X-13775476Y28297619D01*
X-12870714Y29297619D02*
X-12299285Y29297619D01*
X-12585000Y28297619D02*
X-12585000Y29297619D01*
X-12013571Y29202380D02*
X-11965952Y29250000D01*
X-11870714Y29297619D01*
X-11632619Y29297619D01*
X-11537380Y29250000D01*
X-11489761Y29202380D01*
X-11442142Y29107142D01*
X-11442142Y29011904D01*
X-11489761Y28869047D01*
X-12061190Y28297619D01*
X-11442142Y28297619D01*
X-6775476Y29297619D02*
X-6108809Y28297619D01*
X-6108809Y29297619D02*
X-6775476Y28297619D01*
X-5870714Y29297619D02*
X-5299285Y29297619D01*
X-5585000Y28297619D02*
X-5585000Y29297619D01*
X-5061190Y29297619D02*
X-4442142Y29297619D01*
X-4775476Y28916666D01*
X-4632619Y28916666D01*
X-4537380Y28869047D01*
X-4489761Y28821428D01*
X-4442142Y28726190D01*
X-4442142Y28488095D01*
X-4489761Y28392857D01*
X-4537380Y28345238D01*
X-4632619Y28297619D01*
X-4918333Y28297619D01*
X-5013571Y28345238D01*
X-5061190Y28392857D01*
X-175476Y29297619D02*
X491190Y28297619D01*
X491190Y29297619D02*
X-175476Y28297619D01*
X729285Y29297619D02*
X1300714Y29297619D01*
X1015000Y28297619D02*
X1015000Y29297619D01*
X2062619Y28964285D02*
X2062619Y28297619D01*
X1824523Y29345238D02*
X1586428Y28630952D01*
X2205476Y28630952D01*
X6424523Y29297619D02*
X7091190Y28297619D01*
X7091190Y29297619D02*
X6424523Y28297619D01*
X7329285Y29297619D02*
X7900714Y29297619D01*
X7615000Y28297619D02*
X7615000Y29297619D01*
X8710238Y29297619D02*
X8234047Y29297619D01*
X8186428Y28821428D01*
X8234047Y28869047D01*
X8329285Y28916666D01*
X8567380Y28916666D01*
X8662619Y28869047D01*
X8710238Y28821428D01*
X8757857Y28726190D01*
X8757857Y28488095D01*
X8710238Y28392857D01*
X8662619Y28345238D01*
X8567380Y28297619D01*
X8329285Y28297619D01*
X8234047Y28345238D01*
X8186428Y28392857D01*
X13224523Y29297619D02*
X13891190Y28297619D01*
X13891190Y29297619D02*
X13224523Y28297619D01*
X14129285Y29297619D02*
X14700714Y29297619D01*
X14415000Y28297619D02*
X14415000Y29297619D01*
X15462619Y29297619D02*
X15272142Y29297619D01*
X15176904Y29250000D01*
X15129285Y29202380D01*
X15034047Y29059523D01*
X14986428Y28869047D01*
X14986428Y28488095D01*
X15034047Y28392857D01*
X15081666Y28345238D01*
X15176904Y28297619D01*
X15367380Y28297619D01*
X15462619Y28345238D01*
X15510238Y28392857D01*
X15557857Y28488095D01*
X15557857Y28726190D01*
X15510238Y28821428D01*
X15462619Y28869047D01*
X15367380Y28916666D01*
X15176904Y28916666D01*
X15081666Y28869047D01*
X15034047Y28821428D01*
X14986428Y28726190D01*
X20024523Y29297619D02*
X20691190Y28297619D01*
X20691190Y29297619D02*
X20024523Y28297619D01*
X20929285Y29297619D02*
X21500714Y29297619D01*
X21215000Y28297619D02*
X21215000Y29297619D01*
X21738809Y29297619D02*
X22405476Y29297619D01*
X21976904Y28297619D01*
X28638809Y24373809D02*
X28638809Y23897619D01*
X28305476Y24897619D02*
X28638809Y24373809D01*
X28972142Y24897619D01*
X29876904Y23897619D02*
X29543571Y24373809D01*
X29305476Y23897619D02*
X29305476Y24897619D01*
X29686428Y24897619D01*
X29781666Y24850000D01*
X29829285Y24802380D01*
X29876904Y24707142D01*
X29876904Y24564285D01*
X29829285Y24469047D01*
X29781666Y24421428D01*
X29686428Y24373809D01*
X29305476Y24373809D01*
X30495952Y24897619D02*
X30591190Y24897619D01*
X30686428Y24850000D01*
X30734047Y24802380D01*
X30781666Y24707142D01*
X30829285Y24516666D01*
X30829285Y24278571D01*
X30781666Y24088095D01*
X30734047Y23992857D01*
X30686428Y23945238D01*
X30591190Y23897619D01*
X30495952Y23897619D01*
X30400714Y23945238D01*
X30353095Y23992857D01*
X30305476Y24088095D01*
X30257857Y24278571D01*
X30257857Y24516666D01*
X30305476Y24707142D01*
X30353095Y24802380D01*
X30400714Y24850000D01*
X30495952Y24897619D01*
X28638809Y17973809D02*
X28638809Y17497619D01*
X28305476Y18497619D02*
X28638809Y17973809D01*
X28972142Y18497619D01*
X29876904Y17497619D02*
X29543571Y17973809D01*
X29305476Y17497619D02*
X29305476Y18497619D01*
X29686428Y18497619D01*
X29781666Y18450000D01*
X29829285Y18402380D01*
X29876904Y18307142D01*
X29876904Y18164285D01*
X29829285Y18069047D01*
X29781666Y18021428D01*
X29686428Y17973809D01*
X29305476Y17973809D01*
X30829285Y17497619D02*
X30257857Y17497619D01*
X30543571Y17497619D02*
X30543571Y18497619D01*
X30448333Y18354761D01*
X30353095Y18259523D01*
X30257857Y18211904D01*
X28638809Y11373809D02*
X28638809Y10897619D01*
X28305476Y11897619D02*
X28638809Y11373809D01*
X28972142Y11897619D01*
X29876904Y10897619D02*
X29543571Y11373809D01*
X29305476Y10897619D02*
X29305476Y11897619D01*
X29686428Y11897619D01*
X29781666Y11850000D01*
X29829285Y11802380D01*
X29876904Y11707142D01*
X29876904Y11564285D01*
X29829285Y11469047D01*
X29781666Y11421428D01*
X29686428Y11373809D01*
X29305476Y11373809D01*
X30257857Y11802380D02*
X30305476Y11850000D01*
X30400714Y11897619D01*
X30638809Y11897619D01*
X30734047Y11850000D01*
X30781666Y11802380D01*
X30829285Y11707142D01*
X30829285Y11611904D01*
X30781666Y11469047D01*
X30210238Y10897619D01*
X30829285Y10897619D01*
X28638809Y4773809D02*
X28638809Y4297619D01*
X28305476Y5297619D02*
X28638809Y4773809D01*
X28972142Y5297619D01*
X29876904Y4297619D02*
X29543571Y4773809D01*
X29305476Y4297619D02*
X29305476Y5297619D01*
X29686428Y5297619D01*
X29781666Y5250000D01*
X29829285Y5202380D01*
X29876904Y5107142D01*
X29876904Y4964285D01*
X29829285Y4869047D01*
X29781666Y4821428D01*
X29686428Y4773809D01*
X29305476Y4773809D01*
X30210238Y5297619D02*
X30829285Y5297619D01*
X30495952Y4916666D01*
X30638809Y4916666D01*
X30734047Y4869047D01*
X30781666Y4821428D01*
X30829285Y4726190D01*
X30829285Y4488095D01*
X30781666Y4392857D01*
X30734047Y4345238D01*
X30638809Y4297619D01*
X30353095Y4297619D01*
X30257857Y4345238D01*
X30210238Y4392857D01*
X28638809Y-1626190D02*
X28638809Y-2102380D01*
X28305476Y-1102380D02*
X28638809Y-1626190D01*
X28972142Y-1102380D01*
X29876904Y-2102380D02*
X29543571Y-1626190D01*
X29305476Y-2102380D02*
X29305476Y-1102380D01*
X29686428Y-1102380D01*
X29781666Y-1150000D01*
X29829285Y-1197619D01*
X29876904Y-1292857D01*
X29876904Y-1435714D01*
X29829285Y-1530952D01*
X29781666Y-1578571D01*
X29686428Y-1626190D01*
X29305476Y-1626190D01*
X30734047Y-1435714D02*
X30734047Y-2102380D01*
X30495952Y-1054761D02*
X30257857Y-1769047D01*
X30876904Y-1769047D01*
X28638809Y-8226190D02*
X28638809Y-8702380D01*
X28305476Y-7702380D02*
X28638809Y-8226190D01*
X28972142Y-7702380D01*
X29876904Y-8702380D02*
X29543571Y-8226190D01*
X29305476Y-8702380D02*
X29305476Y-7702380D01*
X29686428Y-7702380D01*
X29781666Y-7750000D01*
X29829285Y-7797619D01*
X29876904Y-7892857D01*
X29876904Y-8035714D01*
X29829285Y-8130952D01*
X29781666Y-8178571D01*
X29686428Y-8226190D01*
X29305476Y-8226190D01*
X30781666Y-7702380D02*
X30305476Y-7702380D01*
X30257857Y-8178571D01*
X30305476Y-8130952D01*
X30400714Y-8083333D01*
X30638809Y-8083333D01*
X30734047Y-8130952D01*
X30781666Y-8178571D01*
X30829285Y-8273809D01*
X30829285Y-8511904D01*
X30781666Y-8607142D01*
X30734047Y-8654761D01*
X30638809Y-8702380D01*
X30400714Y-8702380D01*
X30305476Y-8654761D01*
X30257857Y-8607142D01*
X-32271904Y-29179761D02*
X-32129047Y-29227380D01*
X-31890952Y-29227380D01*
X-31795714Y-29179761D01*
X-31748095Y-29132142D01*
X-31700476Y-29036904D01*
X-31700476Y-28941666D01*
X-31748095Y-28846428D01*
X-31795714Y-28798809D01*
X-31890952Y-28751190D01*
X-32081428Y-28703571D01*
X-32176666Y-28655952D01*
X-32224285Y-28608333D01*
X-32271904Y-28513095D01*
X-32271904Y-28417857D01*
X-32224285Y-28322619D01*
X-32176666Y-28275000D01*
X-32081428Y-28227380D01*
X-31843333Y-28227380D01*
X-31700476Y-28275000D01*
X-31319523Y-28322619D02*
X-31271904Y-28275000D01*
X-31176666Y-28227380D01*
X-30938571Y-28227380D01*
X-30843333Y-28275000D01*
X-30795714Y-28322619D01*
X-30748095Y-28417857D01*
X-30748095Y-28513095D01*
X-30795714Y-28655952D01*
X-31367142Y-29227380D01*
X-30748095Y-29227380D01*
X-32171904Y-13404761D02*
X-32029047Y-13452380D01*
X-31790952Y-13452380D01*
X-31695714Y-13404761D01*
X-31648095Y-13357142D01*
X-31600476Y-13261904D01*
X-31600476Y-13166666D01*
X-31648095Y-13071428D01*
X-31695714Y-13023809D01*
X-31790952Y-12976190D01*
X-31981428Y-12928571D01*
X-32076666Y-12880952D01*
X-32124285Y-12833333D01*
X-32171904Y-12738095D01*
X-32171904Y-12642857D01*
X-32124285Y-12547619D01*
X-32076666Y-12500000D01*
X-31981428Y-12452380D01*
X-31743333Y-12452380D01*
X-31600476Y-12500000D01*
X-30648095Y-13452380D02*
X-31219523Y-13452380D01*
X-30933809Y-13452380D02*
X-30933809Y-12452380D01*
X-31029047Y-12595238D01*
X-31124285Y-12690476D01*
X-31219523Y-12738095D01*
X28638809Y-14426190D02*
X28638809Y-14902380D01*
X28305476Y-13902380D02*
X28638809Y-14426190D01*
X28972142Y-13902380D01*
X29876904Y-14902380D02*
X29543571Y-14426190D01*
X29305476Y-14902380D02*
X29305476Y-13902380D01*
X29686428Y-13902380D01*
X29781666Y-13950000D01*
X29829285Y-13997619D01*
X29876904Y-14092857D01*
X29876904Y-14235714D01*
X29829285Y-14330952D01*
X29781666Y-14378571D01*
X29686428Y-14426190D01*
X29305476Y-14426190D01*
X30734047Y-13902380D02*
X30543571Y-13902380D01*
X30448333Y-13950000D01*
X30400714Y-13997619D01*
X30305476Y-14140476D01*
X30257857Y-14330952D01*
X30257857Y-14711904D01*
X30305476Y-14807142D01*
X30353095Y-14854761D01*
X30448333Y-14902380D01*
X30638809Y-14902380D01*
X30734047Y-14854761D01*
X30781666Y-14807142D01*
X30829285Y-14711904D01*
X30829285Y-14473809D01*
X30781666Y-14378571D01*
X30734047Y-14330952D01*
X30638809Y-14283333D01*
X30448333Y-14283333D01*
X30353095Y-14330952D01*
X30305476Y-14378571D01*
X30257857Y-14473809D01*
X28638809Y-21026190D02*
X28638809Y-21502380D01*
X28305476Y-20502380D02*
X28638809Y-21026190D01*
X28972142Y-20502380D01*
X29876904Y-21502380D02*
X29543571Y-21026190D01*
X29305476Y-21502380D02*
X29305476Y-20502380D01*
X29686428Y-20502380D01*
X29781666Y-20550000D01*
X29829285Y-20597619D01*
X29876904Y-20692857D01*
X29876904Y-20835714D01*
X29829285Y-20930952D01*
X29781666Y-20978571D01*
X29686428Y-21026190D01*
X29305476Y-21026190D01*
X30210238Y-20502380D02*
X30876904Y-20502380D01*
X30448333Y-21502380D01*
M02*
