G04 #@! TF.GenerationSoftware,KiCad,Pcbnew,(5.1.2-1)-1*
G04 #@! TF.CreationDate,2020-08-22T16:28:59-05:00*
G04 #@! TF.ProjectId,Core64 CB v0.4,436f7265-3634-4204-9342-2076302e342e,0.3*
G04 #@! TF.SameCoordinates,Original*
G04 #@! TF.FileFunction,Legend,Bot*
G04 #@! TF.FilePolarity,Positive*
%FSLAX46Y46*%
G04 Gerber Fmt 4.6, Leading zero omitted, Abs format (unit mm)*
G04 Created by KiCad (PCBNEW (5.1.2-1)-1) date 2020-08-22 16:28:59*
%MOMM*%
%LPD*%
G04 APERTURE LIST*
%ADD10C,0.160000*%
%ADD11C,0.500000*%
%ADD12C,0.150000*%
%ADD13C,0.120000*%
%ADD14C,0.152400*%
G04 APERTURE END LIST*
D10*
X32009476Y-12199761D02*
X32009476Y-10619761D01*
X31476142Y-10619761D02*
X31323761Y-10619761D01*
X31247571Y-10695000D01*
X31171380Y-10845476D01*
X31133285Y-11146428D01*
X31133285Y-11673095D01*
X31171380Y-11974047D01*
X31247571Y-12124523D01*
X31323761Y-12199761D01*
X31476142Y-12199761D01*
X31552333Y-12124523D01*
X31628523Y-11974047D01*
X31666619Y-11673095D01*
X31666619Y-11146428D01*
X31628523Y-10845476D01*
X31552333Y-10695000D01*
X31476142Y-10619761D01*
X30371380Y-12199761D02*
X30828523Y-12199761D01*
X30599952Y-12199761D02*
X30599952Y-10619761D01*
X30676142Y-10845476D01*
X30752333Y-10995952D01*
X30828523Y-11071190D01*
X32009476Y-14729761D02*
X32009476Y-13149761D01*
X31476142Y-13149761D02*
X31323761Y-13149761D01*
X31247571Y-13225000D01*
X31171380Y-13375476D01*
X31133285Y-13676428D01*
X31133285Y-14203095D01*
X31171380Y-14504047D01*
X31247571Y-14654523D01*
X31323761Y-14729761D01*
X31476142Y-14729761D01*
X31552333Y-14654523D01*
X31628523Y-14504047D01*
X31666619Y-14203095D01*
X31666619Y-13676428D01*
X31628523Y-13375476D01*
X31552333Y-13225000D01*
X31476142Y-13149761D01*
X30828523Y-13300238D02*
X30790428Y-13225000D01*
X30714238Y-13149761D01*
X30523761Y-13149761D01*
X30447571Y-13225000D01*
X30409476Y-13300238D01*
X30371380Y-13450714D01*
X30371380Y-13601190D01*
X30409476Y-13826904D01*
X30866619Y-14729761D01*
X30371380Y-14729761D01*
X-22730238Y-34027380D02*
X-22825476Y-34027380D01*
X-22920714Y-34075000D01*
X-22968333Y-34122619D01*
X-23015952Y-34217857D01*
X-23063571Y-34408333D01*
X-23063571Y-34646428D01*
X-23015952Y-34836904D01*
X-22968333Y-34932142D01*
X-22920714Y-34979761D01*
X-22825476Y-35027380D01*
X-22730238Y-35027380D01*
X-22635000Y-34979761D01*
X-22587380Y-34932142D01*
X-22539761Y-34836904D01*
X-22492142Y-34646428D01*
X-22492142Y-34408333D01*
X-22539761Y-34217857D01*
X-22587380Y-34122619D01*
X-22635000Y-34075000D01*
X-22730238Y-34027380D01*
X-23396904Y-35027380D02*
X-23920714Y-34360714D01*
X-23396904Y-34360714D02*
X-23920714Y-35027380D01*
X-24206428Y-34027380D02*
X-24825476Y-34027380D01*
X-24492142Y-34408333D01*
X-24635000Y-34408333D01*
X-24730238Y-34455952D01*
X-24777857Y-34503571D01*
X-24825476Y-34598809D01*
X-24825476Y-34836904D01*
X-24777857Y-34932142D01*
X-24730238Y-34979761D01*
X-24635000Y-35027380D01*
X-24349285Y-35027380D01*
X-24254047Y-34979761D01*
X-24206428Y-34932142D01*
X-25444523Y-34027380D02*
X-25539761Y-34027380D01*
X-25635000Y-34075000D01*
X-25682619Y-34122619D01*
X-25730238Y-34217857D01*
X-25777857Y-34408333D01*
X-25777857Y-34646428D01*
X-25730238Y-34836904D01*
X-25682619Y-34932142D01*
X-25635000Y-34979761D01*
X-25539761Y-35027380D01*
X-25444523Y-35027380D01*
X-25349285Y-34979761D01*
X-25301666Y-34932142D01*
X-25254047Y-34836904D01*
X-25206428Y-34646428D01*
X-25206428Y-34408333D01*
X-25254047Y-34217857D01*
X-25301666Y-34122619D01*
X-25349285Y-34075000D01*
X-25444523Y-34027380D01*
X-9330238Y-34027380D02*
X-9425476Y-34027380D01*
X-9520714Y-34075000D01*
X-9568333Y-34122619D01*
X-9615952Y-34217857D01*
X-9663571Y-34408333D01*
X-9663571Y-34646428D01*
X-9615952Y-34836904D01*
X-9568333Y-34932142D01*
X-9520714Y-34979761D01*
X-9425476Y-35027380D01*
X-9330238Y-35027380D01*
X-9235000Y-34979761D01*
X-9187380Y-34932142D01*
X-9139761Y-34836904D01*
X-9092142Y-34646428D01*
X-9092142Y-34408333D01*
X-9139761Y-34217857D01*
X-9187380Y-34122619D01*
X-9235000Y-34075000D01*
X-9330238Y-34027380D01*
X-9996904Y-35027380D02*
X-10520714Y-34360714D01*
X-9996904Y-34360714D02*
X-10520714Y-35027380D01*
X-10806428Y-34027380D02*
X-11425476Y-34027380D01*
X-11092142Y-34408333D01*
X-11235000Y-34408333D01*
X-11330238Y-34455952D01*
X-11377857Y-34503571D01*
X-11425476Y-34598809D01*
X-11425476Y-34836904D01*
X-11377857Y-34932142D01*
X-11330238Y-34979761D01*
X-11235000Y-35027380D01*
X-10949285Y-35027380D01*
X-10854047Y-34979761D01*
X-10806428Y-34932142D01*
X-12377857Y-35027380D02*
X-11806428Y-35027380D01*
X-12092142Y-35027380D02*
X-12092142Y-34027380D01*
X-11996904Y-34170238D01*
X-11901666Y-34265476D01*
X-11806428Y-34313095D01*
X4169761Y-34027380D02*
X4074523Y-34027380D01*
X3979285Y-34075000D01*
X3931666Y-34122619D01*
X3884047Y-34217857D01*
X3836428Y-34408333D01*
X3836428Y-34646428D01*
X3884047Y-34836904D01*
X3931666Y-34932142D01*
X3979285Y-34979761D01*
X4074523Y-35027380D01*
X4169761Y-35027380D01*
X4265000Y-34979761D01*
X4312619Y-34932142D01*
X4360238Y-34836904D01*
X4407857Y-34646428D01*
X4407857Y-34408333D01*
X4360238Y-34217857D01*
X4312619Y-34122619D01*
X4265000Y-34075000D01*
X4169761Y-34027380D01*
X3503095Y-35027380D02*
X2979285Y-34360714D01*
X3503095Y-34360714D02*
X2979285Y-35027380D01*
X2693571Y-34027380D02*
X2074523Y-34027380D01*
X2407857Y-34408333D01*
X2265000Y-34408333D01*
X2169761Y-34455952D01*
X2122142Y-34503571D01*
X2074523Y-34598809D01*
X2074523Y-34836904D01*
X2122142Y-34932142D01*
X2169761Y-34979761D01*
X2265000Y-35027380D01*
X2550714Y-35027380D01*
X2645952Y-34979761D01*
X2693571Y-34932142D01*
X1693571Y-34122619D02*
X1645952Y-34075000D01*
X1550714Y-34027380D01*
X1312619Y-34027380D01*
X1217380Y-34075000D01*
X1169761Y-34122619D01*
X1122142Y-34217857D01*
X1122142Y-34313095D01*
X1169761Y-34455952D01*
X1741190Y-35027380D01*
X1122142Y-35027380D01*
X17369761Y-34027380D02*
X17274523Y-34027380D01*
X17179285Y-34075000D01*
X17131666Y-34122619D01*
X17084047Y-34217857D01*
X17036428Y-34408333D01*
X17036428Y-34646428D01*
X17084047Y-34836904D01*
X17131666Y-34932142D01*
X17179285Y-34979761D01*
X17274523Y-35027380D01*
X17369761Y-35027380D01*
X17465000Y-34979761D01*
X17512619Y-34932142D01*
X17560238Y-34836904D01*
X17607857Y-34646428D01*
X17607857Y-34408333D01*
X17560238Y-34217857D01*
X17512619Y-34122619D01*
X17465000Y-34075000D01*
X17369761Y-34027380D01*
X16703095Y-35027380D02*
X16179285Y-34360714D01*
X16703095Y-34360714D02*
X16179285Y-35027380D01*
X15893571Y-34027380D02*
X15274523Y-34027380D01*
X15607857Y-34408333D01*
X15465000Y-34408333D01*
X15369761Y-34455952D01*
X15322142Y-34503571D01*
X15274523Y-34598809D01*
X15274523Y-34836904D01*
X15322142Y-34932142D01*
X15369761Y-34979761D01*
X15465000Y-35027380D01*
X15750714Y-35027380D01*
X15845952Y-34979761D01*
X15893571Y-34932142D01*
X14941190Y-34027380D02*
X14322142Y-34027380D01*
X14655476Y-34408333D01*
X14512619Y-34408333D01*
X14417380Y-34455952D01*
X14369761Y-34503571D01*
X14322142Y-34598809D01*
X14322142Y-34836904D01*
X14369761Y-34932142D01*
X14417380Y-34979761D01*
X14512619Y-35027380D01*
X14798333Y-35027380D01*
X14893571Y-34979761D01*
X14941190Y-34932142D01*
X-39131857Y18862619D02*
X-39131857Y18110238D01*
X-38865190Y19690238D02*
X-39131857Y18862619D01*
X-39398523Y19690238D01*
X-40046142Y18110238D02*
X-39665190Y18110238D01*
X-39665190Y19690238D01*
X-40465190Y19690238D02*
X-40541380Y19690238D01*
X-40617571Y19615000D01*
X-40655666Y19539761D01*
X-40693761Y19389285D01*
X-40731857Y19088333D01*
X-40731857Y18712142D01*
X-40693761Y18411190D01*
X-40655666Y18260714D01*
X-40617571Y18185476D01*
X-40541380Y18110238D01*
X-40465190Y18110238D01*
X-40389000Y18185476D01*
X-40350904Y18260714D01*
X-40312809Y18411190D01*
X-40274714Y18712142D01*
X-40274714Y19088333D01*
X-40312809Y19389285D01*
X-40350904Y19539761D01*
X-40389000Y19615000D01*
X-40465190Y19690238D01*
X-39131857Y16332619D02*
X-39131857Y15580238D01*
X-38865190Y17160238D02*
X-39131857Y16332619D01*
X-39398523Y17160238D01*
X-40046142Y15580238D02*
X-39665190Y15580238D01*
X-39665190Y17160238D01*
X-40731857Y15580238D02*
X-40274714Y15580238D01*
X-40503285Y15580238D02*
X-40503285Y17160238D01*
X-40427095Y16934523D01*
X-40350904Y16784047D01*
X-40274714Y16708809D01*
X-39131857Y13802619D02*
X-39131857Y13050238D01*
X-38865190Y14630238D02*
X-39131857Y13802619D01*
X-39398523Y14630238D01*
X-40046142Y13050238D02*
X-39665190Y13050238D01*
X-39665190Y14630238D01*
X-40274714Y14479761D02*
X-40312809Y14555000D01*
X-40389000Y14630238D01*
X-40579476Y14630238D01*
X-40655666Y14555000D01*
X-40693761Y14479761D01*
X-40731857Y14329285D01*
X-40731857Y14178809D01*
X-40693761Y13953095D01*
X-40236619Y13050238D01*
X-40731857Y13050238D01*
X-39131857Y11272619D02*
X-39131857Y10520238D01*
X-38865190Y12100238D02*
X-39131857Y11272619D01*
X-39398523Y12100238D01*
X-40046142Y10520238D02*
X-39665190Y10520238D01*
X-39665190Y12100238D01*
X-40236619Y12100238D02*
X-40731857Y12100238D01*
X-40465190Y11498333D01*
X-40579476Y11498333D01*
X-40655666Y11423095D01*
X-40693761Y11347857D01*
X-40731857Y11197380D01*
X-40731857Y10821190D01*
X-40693761Y10670714D01*
X-40655666Y10595476D01*
X-40579476Y10520238D01*
X-40350904Y10520238D01*
X-40274714Y10595476D01*
X-40236619Y10670714D01*
X-39131857Y8742619D02*
X-39131857Y7990238D01*
X-38865190Y9570238D02*
X-39131857Y8742619D01*
X-39398523Y9570238D01*
X-40046142Y7990238D02*
X-39665190Y7990238D01*
X-39665190Y9570238D01*
X-40655666Y9043571D02*
X-40655666Y7990238D01*
X-40465190Y9645476D02*
X-40274714Y8516904D01*
X-40769952Y8516904D01*
X-41112809Y8065476D02*
X-41112809Y7990238D01*
X-41074714Y7839761D01*
X-41036619Y7764523D01*
X-41798523Y9570238D02*
X-41646142Y9570238D01*
X-41569952Y9495000D01*
X-41531857Y9419761D01*
X-41455666Y9194047D01*
X-41417571Y8893095D01*
X-41417571Y8291190D01*
X-41455666Y8140714D01*
X-41493761Y8065476D01*
X-41569952Y7990238D01*
X-41722333Y7990238D01*
X-41798523Y8065476D01*
X-41836619Y8140714D01*
X-41874714Y8291190D01*
X-41874714Y8667380D01*
X-41836619Y8817857D01*
X-41798523Y8893095D01*
X-41722333Y8968333D01*
X-41569952Y8968333D01*
X-41493761Y8893095D01*
X-41455666Y8817857D01*
X-41417571Y8667380D01*
X-39131857Y6212619D02*
X-39131857Y5460238D01*
X-38865190Y7040238D02*
X-39131857Y6212619D01*
X-39398523Y7040238D01*
X-40046142Y5460238D02*
X-39665190Y5460238D01*
X-39665190Y7040238D01*
X-40693761Y7040238D02*
X-40312809Y7040238D01*
X-40274714Y6287857D01*
X-40312809Y6363095D01*
X-40389000Y6438333D01*
X-40579476Y6438333D01*
X-40655666Y6363095D01*
X-40693761Y6287857D01*
X-40731857Y6137380D01*
X-40731857Y5761190D01*
X-40693761Y5610714D01*
X-40655666Y5535476D01*
X-40579476Y5460238D01*
X-40389000Y5460238D01*
X-40312809Y5535476D01*
X-40274714Y5610714D01*
X-41112809Y5535476D02*
X-41112809Y5460238D01*
X-41074714Y5309761D01*
X-41036619Y5234523D01*
X-41379476Y7040238D02*
X-41912809Y7040238D01*
X-41569952Y5460238D01*
X-38941380Y3005476D02*
X-39055666Y2930238D01*
X-39246142Y2930238D01*
X-39322333Y3005476D01*
X-39360428Y3080714D01*
X-39398523Y3231190D01*
X-39398523Y3381666D01*
X-39360428Y3532142D01*
X-39322333Y3607380D01*
X-39246142Y3682619D01*
X-39093761Y3757857D01*
X-39017571Y3833095D01*
X-38979476Y3908333D01*
X-38941380Y4058809D01*
X-38941380Y4209285D01*
X-38979476Y4359761D01*
X-39017571Y4435000D01*
X-39093761Y4510238D01*
X-39284238Y4510238D01*
X-39398523Y4435000D01*
X-39741380Y3757857D02*
X-40008047Y3757857D01*
X-40122333Y2930238D02*
X-39741380Y2930238D01*
X-39741380Y4510238D01*
X-40122333Y4510238D01*
X-40465190Y2930238D02*
X-40465190Y4510238D01*
X-40922333Y2930238D01*
X-40922333Y4510238D01*
X-41722333Y2930238D02*
X-41265190Y2930238D01*
X-41493761Y2930238D02*
X-41493761Y4510238D01*
X-41417571Y4284523D01*
X-41341380Y4134047D01*
X-41265190Y4058809D01*
X-38941380Y475476D02*
X-39055666Y400238D01*
X-39246142Y400238D01*
X-39322333Y475476D01*
X-39360428Y550714D01*
X-39398523Y701190D01*
X-39398523Y851666D01*
X-39360428Y1002142D01*
X-39322333Y1077380D01*
X-39246142Y1152619D01*
X-39093761Y1227857D01*
X-39017571Y1303095D01*
X-38979476Y1378333D01*
X-38941380Y1528809D01*
X-38941380Y1679285D01*
X-38979476Y1829761D01*
X-39017571Y1905000D01*
X-39093761Y1980238D01*
X-39284238Y1980238D01*
X-39398523Y1905000D01*
X-39741380Y1227857D02*
X-40008047Y1227857D01*
X-40122333Y400238D02*
X-39741380Y400238D01*
X-39741380Y1980238D01*
X-40122333Y1980238D01*
X-40465190Y400238D02*
X-40465190Y1980238D01*
X-40922333Y400238D01*
X-40922333Y1980238D01*
X-41265190Y1829761D02*
X-41303285Y1905000D01*
X-41379476Y1980238D01*
X-41569952Y1980238D01*
X-41646142Y1905000D01*
X-41684238Y1829761D01*
X-41722333Y1679285D01*
X-41722333Y1528809D01*
X-41684238Y1303095D01*
X-41227095Y400238D01*
X-41722333Y400238D01*
X-38941380Y-2054523D02*
X-39055666Y-2129761D01*
X-39246142Y-2129761D01*
X-39322333Y-2054523D01*
X-39360428Y-1979285D01*
X-39398523Y-1828809D01*
X-39398523Y-1678333D01*
X-39360428Y-1527857D01*
X-39322333Y-1452619D01*
X-39246142Y-1377380D01*
X-39093761Y-1302142D01*
X-39017571Y-1226904D01*
X-38979476Y-1151666D01*
X-38941380Y-1001190D01*
X-38941380Y-850714D01*
X-38979476Y-700238D01*
X-39017571Y-625000D01*
X-39093761Y-549761D01*
X-39284238Y-549761D01*
X-39398523Y-625000D01*
X-40198523Y-1979285D02*
X-40160428Y-2054523D01*
X-40046142Y-2129761D01*
X-39969952Y-2129761D01*
X-39855666Y-2054523D01*
X-39779476Y-1904047D01*
X-39741380Y-1753571D01*
X-39703285Y-1452619D01*
X-39703285Y-1226904D01*
X-39741380Y-925952D01*
X-39779476Y-775476D01*
X-39855666Y-625000D01*
X-39969952Y-549761D01*
X-40046142Y-549761D01*
X-40160428Y-625000D01*
X-40198523Y-700238D01*
X-40922333Y-2129761D02*
X-40541380Y-2129761D01*
X-40541380Y-549761D01*
X-38941380Y-4584523D02*
X-39055666Y-4659761D01*
X-39246142Y-4659761D01*
X-39322333Y-4584523D01*
X-39360428Y-4509285D01*
X-39398523Y-4358809D01*
X-39398523Y-4208333D01*
X-39360428Y-4057857D01*
X-39322333Y-3982619D01*
X-39246142Y-3907380D01*
X-39093761Y-3832142D01*
X-39017571Y-3756904D01*
X-38979476Y-3681666D01*
X-38941380Y-3531190D01*
X-38941380Y-3380714D01*
X-38979476Y-3230238D01*
X-39017571Y-3155000D01*
X-39093761Y-3079761D01*
X-39284238Y-3079761D01*
X-39398523Y-3155000D01*
X-39741380Y-4659761D02*
X-39741380Y-3079761D01*
X-39931857Y-3079761D01*
X-40046142Y-3155000D01*
X-40122333Y-3305476D01*
X-40160428Y-3455952D01*
X-40198523Y-3756904D01*
X-40198523Y-3982619D01*
X-40160428Y-4283571D01*
X-40122333Y-4434047D01*
X-40046142Y-4584523D01*
X-39931857Y-4659761D01*
X-39741380Y-4659761D01*
X-40503285Y-4208333D02*
X-40884238Y-4208333D01*
X-40427095Y-4659761D02*
X-40693761Y-3079761D01*
X-40960428Y-4659761D01*
X-38903285Y-5609761D02*
X-39398523Y-5609761D01*
X-39131857Y-6211666D01*
X-39246142Y-6211666D01*
X-39322333Y-6286904D01*
X-39360428Y-6362142D01*
X-39398523Y-6512619D01*
X-39398523Y-6888809D01*
X-39360428Y-7039285D01*
X-39322333Y-7114523D01*
X-39246142Y-7189761D01*
X-39017571Y-7189761D01*
X-38941380Y-7114523D01*
X-38903285Y-7039285D01*
X-39627095Y-5609761D02*
X-39893761Y-7189761D01*
X-40160428Y-5609761D01*
X-40350904Y-5609761D02*
X-40846142Y-5609761D01*
X-40579476Y-6211666D01*
X-40693761Y-6211666D01*
X-40769952Y-6286904D01*
X-40808047Y-6362142D01*
X-40846142Y-6512619D01*
X-40846142Y-6888809D01*
X-40808047Y-7039285D01*
X-40769952Y-7114523D01*
X-40693761Y-7189761D01*
X-40465190Y-7189761D01*
X-40389000Y-7114523D01*
X-40350904Y-7039285D01*
X-39398523Y-8215000D02*
X-39322333Y-8139761D01*
X-39208047Y-8139761D01*
X-39093761Y-8215000D01*
X-39017571Y-8365476D01*
X-38979476Y-8515952D01*
X-38941380Y-8816904D01*
X-38941380Y-9042619D01*
X-38979476Y-9343571D01*
X-39017571Y-9494047D01*
X-39093761Y-9644523D01*
X-39208047Y-9719761D01*
X-39284238Y-9719761D01*
X-39398523Y-9644523D01*
X-39436619Y-9569285D01*
X-39436619Y-9042619D01*
X-39284238Y-9042619D01*
X-39779476Y-9719761D02*
X-39779476Y-8139761D01*
X-40236619Y-9719761D01*
X-40236619Y-8139761D01*
X-40617571Y-9719761D02*
X-40617571Y-8139761D01*
X-40808047Y-8139761D01*
X-40922333Y-8215000D01*
X-40998523Y-8365476D01*
X-41036619Y-8515952D01*
X-41074714Y-8816904D01*
X-41074714Y-9042619D01*
X-41036619Y-9343571D01*
X-40998523Y-9494047D01*
X-40922333Y-9644523D01*
X-40808047Y-9719761D01*
X-40617571Y-9719761D01*
X-41417571Y-9719761D02*
X-41417571Y-8139761D01*
X-41608047Y-8139761D01*
X-41722333Y-8215000D01*
X-41798523Y-8365476D01*
X-41836619Y-8515952D01*
X-41874714Y-8816904D01*
X-41874714Y-9042619D01*
X-41836619Y-9343571D01*
X-41798523Y-9494047D01*
X-41722333Y-9644523D01*
X-41608047Y-9719761D01*
X-41417571Y-9719761D01*
X-38979476Y-12249761D02*
X-38979476Y-10669761D01*
X-39284238Y-10669761D01*
X-39360428Y-10745000D01*
X-39398523Y-10820238D01*
X-39436619Y-10970714D01*
X-39436619Y-11196428D01*
X-39398523Y-11346904D01*
X-39360428Y-11422142D01*
X-39284238Y-11497380D01*
X-38979476Y-11497380D01*
X-39893761Y-11346904D02*
X-39817571Y-11271666D01*
X-39779476Y-11196428D01*
X-39741380Y-11045952D01*
X-39741380Y-10970714D01*
X-39779476Y-10820238D01*
X-39817571Y-10745000D01*
X-39893761Y-10669761D01*
X-40046142Y-10669761D01*
X-40122333Y-10745000D01*
X-40160428Y-10820238D01*
X-40198523Y-10970714D01*
X-40198523Y-11045952D01*
X-40160428Y-11196428D01*
X-40122333Y-11271666D01*
X-40046142Y-11346904D01*
X-39893761Y-11346904D01*
X-39817571Y-11422142D01*
X-39779476Y-11497380D01*
X-39741380Y-11647857D01*
X-39741380Y-11948809D01*
X-39779476Y-12099285D01*
X-39817571Y-12174523D01*
X-39893761Y-12249761D01*
X-40046142Y-12249761D01*
X-40122333Y-12174523D01*
X-40160428Y-12099285D01*
X-40198523Y-11948809D01*
X-40198523Y-11647857D01*
X-40160428Y-11497380D01*
X-40122333Y-11422142D01*
X-40046142Y-11346904D01*
X-38979476Y-14779761D02*
X-38979476Y-13199761D01*
X-39284238Y-13199761D01*
X-39360428Y-13275000D01*
X-39398523Y-13350238D01*
X-39436619Y-13500714D01*
X-39436619Y-13726428D01*
X-39398523Y-13876904D01*
X-39360428Y-13952142D01*
X-39284238Y-14027380D01*
X-38979476Y-14027380D01*
X-39703285Y-13199761D02*
X-40236619Y-13199761D01*
X-39893761Y-14779761D01*
X-38979476Y-17309761D02*
X-38979476Y-15729761D01*
X-39284238Y-15729761D01*
X-39360428Y-15805000D01*
X-39398523Y-15880238D01*
X-39436619Y-16030714D01*
X-39436619Y-16256428D01*
X-39398523Y-16406904D01*
X-39360428Y-16482142D01*
X-39284238Y-16557380D01*
X-38979476Y-16557380D01*
X-40122333Y-15729761D02*
X-39969952Y-15729761D01*
X-39893761Y-15805000D01*
X-39855666Y-15880238D01*
X-39779476Y-16105952D01*
X-39741380Y-16406904D01*
X-39741380Y-17008809D01*
X-39779476Y-17159285D01*
X-39817571Y-17234523D01*
X-39893761Y-17309761D01*
X-40046142Y-17309761D01*
X-40122333Y-17234523D01*
X-40160428Y-17159285D01*
X-40198523Y-17008809D01*
X-40198523Y-16632619D01*
X-40160428Y-16482142D01*
X-40122333Y-16406904D01*
X-40046142Y-16331666D01*
X-39893761Y-16331666D01*
X-39817571Y-16406904D01*
X-39779476Y-16482142D01*
X-39741380Y-16632619D01*
X-38979476Y-19839761D02*
X-38979476Y-18259761D01*
X-39284238Y-18259761D01*
X-39360428Y-18335000D01*
X-39398523Y-18410238D01*
X-39436619Y-18560714D01*
X-39436619Y-18786428D01*
X-39398523Y-18936904D01*
X-39360428Y-19012142D01*
X-39284238Y-19087380D01*
X-38979476Y-19087380D01*
X-40160428Y-18259761D02*
X-39779476Y-18259761D01*
X-39741380Y-19012142D01*
X-39779476Y-18936904D01*
X-39855666Y-18861666D01*
X-40046142Y-18861666D01*
X-40122333Y-18936904D01*
X-40160428Y-19012142D01*
X-40198523Y-19162619D01*
X-40198523Y-19538809D01*
X-40160428Y-19689285D01*
X-40122333Y-19764523D01*
X-40046142Y-19839761D01*
X-39855666Y-19839761D01*
X-39779476Y-19764523D01*
X-39741380Y-19689285D01*
X41980904Y19790238D02*
X41447571Y18210238D01*
X41447571Y19790238D02*
X41980904Y18210238D01*
X41257095Y19790238D02*
X40799952Y19790238D01*
X41028523Y18210238D02*
X41028523Y19790238D01*
X40609476Y19790238D02*
X40114238Y19790238D01*
X40380904Y19188333D01*
X40266619Y19188333D01*
X40190428Y19113095D01*
X40152333Y19037857D01*
X40114238Y18887380D01*
X40114238Y18511190D01*
X40152333Y18360714D01*
X40190428Y18285476D01*
X40266619Y18210238D01*
X40495190Y18210238D01*
X40571380Y18285476D01*
X40609476Y18360714D01*
X39733285Y18285476D02*
X39733285Y18210238D01*
X39771380Y18059761D01*
X39809476Y17984523D01*
X39466619Y19790238D02*
X38933285Y19790238D01*
X39276142Y18210238D01*
X41980904Y17260238D02*
X41447571Y15680238D01*
X41447571Y17260238D02*
X41980904Y15680238D01*
X41257095Y17260238D02*
X40799952Y17260238D01*
X41028523Y15680238D02*
X41028523Y17260238D01*
X40571380Y17109761D02*
X40533285Y17185000D01*
X40457095Y17260238D01*
X40266619Y17260238D01*
X40190428Y17185000D01*
X40152333Y17109761D01*
X40114238Y16959285D01*
X40114238Y16808809D01*
X40152333Y16583095D01*
X40609476Y15680238D01*
X40114238Y15680238D01*
X39733285Y15755476D02*
X39733285Y15680238D01*
X39771380Y15529761D01*
X39809476Y15454523D01*
X39047571Y17260238D02*
X39199952Y17260238D01*
X39276142Y17185000D01*
X39314238Y17109761D01*
X39390428Y16884047D01*
X39428523Y16583095D01*
X39428523Y15981190D01*
X39390428Y15830714D01*
X39352333Y15755476D01*
X39276142Y15680238D01*
X39123761Y15680238D01*
X39047571Y15755476D01*
X39009476Y15830714D01*
X38971380Y15981190D01*
X38971380Y16357380D01*
X39009476Y16507857D01*
X39047571Y16583095D01*
X39123761Y16658333D01*
X39276142Y16658333D01*
X39352333Y16583095D01*
X39390428Y16507857D01*
X39428523Y16357380D01*
X41980904Y14730238D02*
X41447571Y13150238D01*
X41447571Y14730238D02*
X41980904Y13150238D01*
X41257095Y14730238D02*
X40799952Y14730238D01*
X41028523Y13150238D02*
X41028523Y14730238D01*
X40114238Y13150238D02*
X40571380Y13150238D01*
X40342809Y13150238D02*
X40342809Y14730238D01*
X40419000Y14504523D01*
X40495190Y14354047D01*
X40571380Y14278809D01*
X39733285Y13225476D02*
X39733285Y13150238D01*
X39771380Y12999761D01*
X39809476Y12924523D01*
X39009476Y14730238D02*
X39390428Y14730238D01*
X39428523Y13977857D01*
X39390428Y14053095D01*
X39314238Y14128333D01*
X39123761Y14128333D01*
X39047571Y14053095D01*
X39009476Y13977857D01*
X38971380Y13827380D01*
X38971380Y13451190D01*
X39009476Y13300714D01*
X39047571Y13225476D01*
X39123761Y13150238D01*
X39314238Y13150238D01*
X39390428Y13225476D01*
X39428523Y13300714D01*
X41980904Y12200238D02*
X41447571Y10620238D01*
X41447571Y12200238D02*
X41980904Y10620238D01*
X41257095Y12200238D02*
X40799952Y12200238D01*
X41028523Y10620238D02*
X41028523Y12200238D01*
X40380904Y12200238D02*
X40304714Y12200238D01*
X40228523Y12125000D01*
X40190428Y12049761D01*
X40152333Y11899285D01*
X40114238Y11598333D01*
X40114238Y11222142D01*
X40152333Y10921190D01*
X40190428Y10770714D01*
X40228523Y10695476D01*
X40304714Y10620238D01*
X40380904Y10620238D01*
X40457095Y10695476D01*
X40495190Y10770714D01*
X40533285Y10921190D01*
X40571380Y11222142D01*
X40571380Y11598333D01*
X40533285Y11899285D01*
X40495190Y12049761D01*
X40457095Y12125000D01*
X40380904Y12200238D01*
X39733285Y10695476D02*
X39733285Y10620238D01*
X39771380Y10469761D01*
X39809476Y10394523D01*
X39047571Y11673571D02*
X39047571Y10620238D01*
X39238047Y12275476D02*
X39428523Y11146904D01*
X38933285Y11146904D01*
X41028523Y9670238D02*
X40495190Y8090238D01*
X40495190Y9670238D02*
X41028523Y8090238D01*
X39923761Y8917857D02*
X39809476Y8842619D01*
X39771380Y8767380D01*
X39733285Y8616904D01*
X39733285Y8391190D01*
X39771380Y8240714D01*
X39809476Y8165476D01*
X39885666Y8090238D01*
X40190428Y8090238D01*
X40190428Y9670238D01*
X39923761Y9670238D01*
X39847571Y9595000D01*
X39809476Y9519761D01*
X39771380Y9369285D01*
X39771380Y9218809D01*
X39809476Y9068333D01*
X39847571Y8993095D01*
X39923761Y8917857D01*
X40190428Y8917857D01*
X39238047Y9670238D02*
X39161857Y9670238D01*
X39085666Y9595000D01*
X39047571Y9519761D01*
X39009476Y9369285D01*
X38971380Y9068333D01*
X38971380Y8692142D01*
X39009476Y8391190D01*
X39047571Y8240714D01*
X39085666Y8165476D01*
X39161857Y8090238D01*
X39238047Y8090238D01*
X39314238Y8165476D01*
X39352333Y8240714D01*
X39390428Y8391190D01*
X39428523Y8692142D01*
X39428523Y9068333D01*
X39390428Y9369285D01*
X39352333Y9519761D01*
X39314238Y9595000D01*
X39238047Y9670238D01*
X41028523Y7140238D02*
X40495190Y5560238D01*
X40495190Y7140238D02*
X41028523Y5560238D01*
X39923761Y6387857D02*
X39809476Y6312619D01*
X39771380Y6237380D01*
X39733285Y6086904D01*
X39733285Y5861190D01*
X39771380Y5710714D01*
X39809476Y5635476D01*
X39885666Y5560238D01*
X40190428Y5560238D01*
X40190428Y7140238D01*
X39923761Y7140238D01*
X39847571Y7065000D01*
X39809476Y6989761D01*
X39771380Y6839285D01*
X39771380Y6688809D01*
X39809476Y6538333D01*
X39847571Y6463095D01*
X39923761Y6387857D01*
X40190428Y6387857D01*
X38971380Y5560238D02*
X39428523Y5560238D01*
X39199952Y5560238D02*
X39199952Y7140238D01*
X39276142Y6914523D01*
X39352333Y6764047D01*
X39428523Y6688809D01*
X41028523Y4610238D02*
X40495190Y3030238D01*
X40495190Y4610238D02*
X41028523Y3030238D01*
X39923761Y3857857D02*
X39809476Y3782619D01*
X39771380Y3707380D01*
X39733285Y3556904D01*
X39733285Y3331190D01*
X39771380Y3180714D01*
X39809476Y3105476D01*
X39885666Y3030238D01*
X40190428Y3030238D01*
X40190428Y4610238D01*
X39923761Y4610238D01*
X39847571Y4535000D01*
X39809476Y4459761D01*
X39771380Y4309285D01*
X39771380Y4158809D01*
X39809476Y4008333D01*
X39847571Y3933095D01*
X39923761Y3857857D01*
X40190428Y3857857D01*
X39428523Y4459761D02*
X39390428Y4535000D01*
X39314238Y4610238D01*
X39123761Y4610238D01*
X39047571Y4535000D01*
X39009476Y4459761D01*
X38971380Y4309285D01*
X38971380Y4158809D01*
X39009476Y3933095D01*
X39466619Y3030238D01*
X38971380Y3030238D01*
X41028523Y2080238D02*
X40495190Y500238D01*
X40495190Y2080238D02*
X41028523Y500238D01*
X39923761Y1327857D02*
X39809476Y1252619D01*
X39771380Y1177380D01*
X39733285Y1026904D01*
X39733285Y801190D01*
X39771380Y650714D01*
X39809476Y575476D01*
X39885666Y500238D01*
X40190428Y500238D01*
X40190428Y2080238D01*
X39923761Y2080238D01*
X39847571Y2005000D01*
X39809476Y1929761D01*
X39771380Y1779285D01*
X39771380Y1628809D01*
X39809476Y1478333D01*
X39847571Y1403095D01*
X39923761Y1327857D01*
X40190428Y1327857D01*
X39466619Y2080238D02*
X38971380Y2080238D01*
X39238047Y1478333D01*
X39123761Y1478333D01*
X39047571Y1403095D01*
X39009476Y1327857D01*
X38971380Y1177380D01*
X38971380Y801190D01*
X39009476Y650714D01*
X39047571Y575476D01*
X39123761Y500238D01*
X39352333Y500238D01*
X39428523Y575476D01*
X39466619Y650714D01*
X41028523Y-449761D02*
X40495190Y-2029761D01*
X40495190Y-449761D02*
X41028523Y-2029761D01*
X39923761Y-1202142D02*
X39809476Y-1277380D01*
X39771380Y-1352619D01*
X39733285Y-1503095D01*
X39733285Y-1728809D01*
X39771380Y-1879285D01*
X39809476Y-1954523D01*
X39885666Y-2029761D01*
X40190428Y-2029761D01*
X40190428Y-449761D01*
X39923761Y-449761D01*
X39847571Y-525000D01*
X39809476Y-600238D01*
X39771380Y-750714D01*
X39771380Y-901190D01*
X39809476Y-1051666D01*
X39847571Y-1126904D01*
X39923761Y-1202142D01*
X40190428Y-1202142D01*
X39047571Y-976428D02*
X39047571Y-2029761D01*
X39238047Y-374523D02*
X39428523Y-1503095D01*
X38933285Y-1503095D01*
X41028523Y-2979761D02*
X40495190Y-4559761D01*
X40495190Y-2979761D02*
X41028523Y-4559761D01*
X39923761Y-3732142D02*
X39809476Y-3807380D01*
X39771380Y-3882619D01*
X39733285Y-4033095D01*
X39733285Y-4258809D01*
X39771380Y-4409285D01*
X39809476Y-4484523D01*
X39885666Y-4559761D01*
X40190428Y-4559761D01*
X40190428Y-2979761D01*
X39923761Y-2979761D01*
X39847571Y-3055000D01*
X39809476Y-3130238D01*
X39771380Y-3280714D01*
X39771380Y-3431190D01*
X39809476Y-3581666D01*
X39847571Y-3656904D01*
X39923761Y-3732142D01*
X40190428Y-3732142D01*
X39009476Y-2979761D02*
X39390428Y-2979761D01*
X39428523Y-3732142D01*
X39390428Y-3656904D01*
X39314238Y-3581666D01*
X39123761Y-3581666D01*
X39047571Y-3656904D01*
X39009476Y-3732142D01*
X38971380Y-3882619D01*
X38971380Y-4258809D01*
X39009476Y-4409285D01*
X39047571Y-4484523D01*
X39123761Y-4559761D01*
X39314238Y-4559761D01*
X39390428Y-4484523D01*
X39428523Y-4409285D01*
X41028523Y-5509761D02*
X40495190Y-7089761D01*
X40495190Y-5509761D02*
X41028523Y-7089761D01*
X39923761Y-6262142D02*
X39809476Y-6337380D01*
X39771380Y-6412619D01*
X39733285Y-6563095D01*
X39733285Y-6788809D01*
X39771380Y-6939285D01*
X39809476Y-7014523D01*
X39885666Y-7089761D01*
X40190428Y-7089761D01*
X40190428Y-5509761D01*
X39923761Y-5509761D01*
X39847571Y-5585000D01*
X39809476Y-5660238D01*
X39771380Y-5810714D01*
X39771380Y-5961190D01*
X39809476Y-6111666D01*
X39847571Y-6186904D01*
X39923761Y-6262142D01*
X40190428Y-6262142D01*
X39047571Y-5509761D02*
X39199952Y-5509761D01*
X39276142Y-5585000D01*
X39314238Y-5660238D01*
X39390428Y-5885952D01*
X39428523Y-6186904D01*
X39428523Y-6788809D01*
X39390428Y-6939285D01*
X39352333Y-7014523D01*
X39276142Y-7089761D01*
X39123761Y-7089761D01*
X39047571Y-7014523D01*
X39009476Y-6939285D01*
X38971380Y-6788809D01*
X38971380Y-6412619D01*
X39009476Y-6262142D01*
X39047571Y-6186904D01*
X39123761Y-6111666D01*
X39276142Y-6111666D01*
X39352333Y-6186904D01*
X39390428Y-6262142D01*
X39428523Y-6412619D01*
X41028523Y-8039761D02*
X40495190Y-9619761D01*
X40495190Y-8039761D02*
X41028523Y-9619761D01*
X39923761Y-8792142D02*
X39809476Y-8867380D01*
X39771380Y-8942619D01*
X39733285Y-9093095D01*
X39733285Y-9318809D01*
X39771380Y-9469285D01*
X39809476Y-9544523D01*
X39885666Y-9619761D01*
X40190428Y-9619761D01*
X40190428Y-8039761D01*
X39923761Y-8039761D01*
X39847571Y-8115000D01*
X39809476Y-8190238D01*
X39771380Y-8340714D01*
X39771380Y-8491190D01*
X39809476Y-8641666D01*
X39847571Y-8716904D01*
X39923761Y-8792142D01*
X40190428Y-8792142D01*
X39466619Y-8039761D02*
X38933285Y-8039761D01*
X39276142Y-9619761D01*
X40190428Y-12149761D02*
X40190428Y-10569761D01*
X39885666Y-10569761D01*
X39809476Y-10645000D01*
X39771380Y-10720238D01*
X39733285Y-10870714D01*
X39733285Y-11096428D01*
X39771380Y-11246904D01*
X39809476Y-11322142D01*
X39885666Y-11397380D01*
X40190428Y-11397380D01*
X38971380Y-12149761D02*
X39428523Y-12149761D01*
X39199952Y-12149761D02*
X39199952Y-10569761D01*
X39276142Y-10795476D01*
X39352333Y-10945952D01*
X39428523Y-11021190D01*
X40190428Y-14679761D02*
X40190428Y-13099761D01*
X39885666Y-13099761D01*
X39809476Y-13175000D01*
X39771380Y-13250238D01*
X39733285Y-13400714D01*
X39733285Y-13626428D01*
X39771380Y-13776904D01*
X39809476Y-13852142D01*
X39885666Y-13927380D01*
X40190428Y-13927380D01*
X39428523Y-13250238D02*
X39390428Y-13175000D01*
X39314238Y-13099761D01*
X39123761Y-13099761D01*
X39047571Y-13175000D01*
X39009476Y-13250238D01*
X38971380Y-13400714D01*
X38971380Y-13551190D01*
X39009476Y-13776904D01*
X39466619Y-14679761D01*
X38971380Y-14679761D01*
X40190428Y-17209761D02*
X40190428Y-15629761D01*
X39885666Y-15629761D01*
X39809476Y-15705000D01*
X39771380Y-15780238D01*
X39733285Y-15930714D01*
X39733285Y-16156428D01*
X39771380Y-16306904D01*
X39809476Y-16382142D01*
X39885666Y-16457380D01*
X40190428Y-16457380D01*
X39466619Y-15629761D02*
X38971380Y-15629761D01*
X39238047Y-16231666D01*
X39123761Y-16231666D01*
X39047571Y-16306904D01*
X39009476Y-16382142D01*
X38971380Y-16532619D01*
X38971380Y-16908809D01*
X39009476Y-17059285D01*
X39047571Y-17134523D01*
X39123761Y-17209761D01*
X39352333Y-17209761D01*
X39428523Y-17134523D01*
X39466619Y-17059285D01*
X40190428Y-19739761D02*
X40190428Y-18159761D01*
X39885666Y-18159761D01*
X39809476Y-18235000D01*
X39771380Y-18310238D01*
X39733285Y-18460714D01*
X39733285Y-18686428D01*
X39771380Y-18836904D01*
X39809476Y-18912142D01*
X39885666Y-18987380D01*
X40190428Y-18987380D01*
X39047571Y-18686428D02*
X39047571Y-19739761D01*
X39238047Y-18084523D02*
X39428523Y-19213095D01*
X38933285Y-19213095D01*
D11*
X30815000Y-40750000D02*
X30981666Y-40916666D01*
X31481666Y-41083333D01*
X31815000Y-41083333D01*
X32315000Y-40916666D01*
X32648333Y-40583333D01*
X32815000Y-40250000D01*
X32981666Y-39583333D01*
X32981666Y-39083333D01*
X32815000Y-38416666D01*
X32648333Y-38083333D01*
X32315000Y-37750000D01*
X31815000Y-37583333D01*
X31481666Y-37583333D01*
X30981666Y-37750000D01*
X30815000Y-37916666D01*
X28815000Y-41083333D02*
X29148333Y-40916666D01*
X29315000Y-40750000D01*
X29481666Y-40416666D01*
X29481666Y-39416666D01*
X29315000Y-39083333D01*
X29148333Y-38916666D01*
X28815000Y-38750000D01*
X28315000Y-38750000D01*
X27981666Y-38916666D01*
X27815000Y-39083333D01*
X27648333Y-39416666D01*
X27648333Y-40416666D01*
X27815000Y-40750000D01*
X27981666Y-40916666D01*
X28315000Y-41083333D01*
X28815000Y-41083333D01*
X26148333Y-41083333D02*
X26148333Y-38750000D01*
X26148333Y-39416666D02*
X25981666Y-39083333D01*
X25815000Y-38916666D01*
X25481666Y-38750000D01*
X25148333Y-38750000D01*
X22648333Y-40916666D02*
X22981666Y-41083333D01*
X23648333Y-41083333D01*
X23981666Y-40916666D01*
X24148333Y-40583333D01*
X24148333Y-39250000D01*
X23981666Y-38916666D01*
X23648333Y-38750000D01*
X22981666Y-38750000D01*
X22648333Y-38916666D01*
X22481666Y-39250000D01*
X22481666Y-39583333D01*
X24148333Y-39916666D01*
X19481666Y-37583333D02*
X20148333Y-37583333D01*
X20481666Y-37750000D01*
X20648333Y-37916666D01*
X20981666Y-38416666D01*
X21148333Y-39083333D01*
X21148333Y-40416666D01*
X20981666Y-40750000D01*
X20815000Y-40916666D01*
X20481666Y-41083333D01*
X19815000Y-41083333D01*
X19481666Y-40916666D01*
X19315000Y-40750000D01*
X19148333Y-40416666D01*
X19148333Y-39583333D01*
X19315000Y-39250000D01*
X19481666Y-39083333D01*
X19815000Y-38916666D01*
X20481666Y-38916666D01*
X20815000Y-39083333D01*
X20981666Y-39250000D01*
X21148333Y-39583333D01*
X16148333Y-38750000D02*
X16148333Y-41083333D01*
X16981666Y-37416666D02*
X17815000Y-39916666D01*
X15648333Y-39916666D01*
X14315000Y-40750000D02*
X14148333Y-40916666D01*
X14315000Y-41083333D01*
X14481666Y-40916666D01*
X14315000Y-40750000D01*
X14315000Y-41083333D01*
X12648333Y-41083333D02*
X12648333Y-37583333D01*
X11481666Y-40083333D01*
X10315000Y-37583333D01*
X10315000Y-41083333D01*
X7148333Y-41083333D02*
X7148333Y-39250000D01*
X7315000Y-38916666D01*
X7648333Y-38750000D01*
X8315000Y-38750000D01*
X8648333Y-38916666D01*
X7148333Y-40916666D02*
X7481666Y-41083333D01*
X8315000Y-41083333D01*
X8648333Y-40916666D01*
X8815000Y-40583333D01*
X8815000Y-40250000D01*
X8648333Y-39916666D01*
X8315000Y-39750000D01*
X7481666Y-39750000D01*
X7148333Y-39583333D01*
X3981666Y-40916666D02*
X4315000Y-41083333D01*
X4981666Y-41083333D01*
X5315000Y-40916666D01*
X5481666Y-40750000D01*
X5648333Y-40416666D01*
X5648333Y-39416666D01*
X5481666Y-39083333D01*
X5315000Y-38916666D01*
X4981666Y-38750000D01*
X4315000Y-38750000D01*
X3981666Y-38916666D01*
X2481666Y-41083333D02*
X2481666Y-37583333D01*
X981666Y-41083333D02*
X981666Y-39250000D01*
X1148333Y-38916666D01*
X1481666Y-38750000D01*
X1981666Y-38750000D01*
X2315000Y-38916666D01*
X2481666Y-39083333D01*
X-684999Y-41083333D02*
X-684999Y-38750000D01*
X-684999Y-37583333D02*
X-518333Y-37750000D01*
X-684999Y-37916666D01*
X-851666Y-37750000D01*
X-684999Y-37583333D01*
X-684999Y-37916666D01*
X-2351666Y-38750000D02*
X-2351666Y-41083333D01*
X-2351666Y-39083333D02*
X-2518333Y-38916666D01*
X-2851666Y-38750000D01*
X-3351666Y-38750000D01*
X-3684999Y-38916666D01*
X-3851666Y-39250000D01*
X-3851666Y-41083333D01*
X-6851666Y-40916666D02*
X-6518333Y-41083333D01*
X-5851666Y-41083333D01*
X-5518333Y-40916666D01*
X-5351666Y-40583333D01*
X-5351666Y-39250000D01*
X-5518333Y-38916666D01*
X-5851666Y-38750000D01*
X-6518333Y-38750000D01*
X-6851666Y-38916666D01*
X-7018333Y-39250000D01*
X-7018333Y-39583333D01*
X-5351666Y-39916666D01*
X-8518333Y-41083333D02*
X-8518333Y-37583333D01*
X-11684999Y-41083333D02*
X-11684999Y-37583333D01*
X-11684999Y-40916666D02*
X-11351666Y-41083333D01*
X-10684999Y-41083333D01*
X-10351666Y-40916666D01*
X-10184999Y-40750000D01*
X-10018333Y-40416666D01*
X-10018333Y-39416666D01*
X-10184999Y-39083333D01*
X-10351666Y-38916666D01*
X-10684999Y-38750000D01*
X-11351666Y-38750000D01*
X-11684999Y-38916666D01*
X-14684999Y-40916666D02*
X-14351666Y-41083333D01*
X-13684999Y-41083333D01*
X-13351666Y-40916666D01*
X-13184999Y-40583333D01*
X-13184999Y-39250000D01*
X-13351666Y-38916666D01*
X-13684999Y-38750000D01*
X-14351666Y-38750000D01*
X-14684999Y-38916666D01*
X-14851666Y-39250000D01*
X-14851666Y-39583333D01*
X-13184999Y-39916666D01*
X-17851666Y-41083333D02*
X-17851666Y-39250000D01*
X-17684999Y-38916666D01*
X-17351666Y-38750000D01*
X-16684999Y-38750000D01*
X-16351666Y-38916666D01*
X-17851666Y-40916666D02*
X-17518333Y-41083333D01*
X-16684999Y-41083333D01*
X-16351666Y-40916666D01*
X-16184999Y-40583333D01*
X-16184999Y-40250000D01*
X-16351666Y-39916666D01*
X-16684999Y-39750000D01*
X-17518333Y-39750000D01*
X-17851666Y-39583333D01*
X-19351666Y-40916666D02*
X-19684999Y-41083333D01*
X-20351666Y-41083333D01*
X-20684999Y-40916666D01*
X-20851666Y-40583333D01*
X-20851666Y-40416666D01*
X-20684999Y-40083333D01*
X-20351666Y-39916666D01*
X-19851666Y-39916666D01*
X-19518333Y-39750000D01*
X-19351666Y-39416666D01*
X-19351666Y-39250000D01*
X-19518333Y-38916666D01*
X-19851666Y-38750000D01*
X-20351666Y-38750000D01*
X-20684999Y-38916666D01*
X-22351666Y-40750000D02*
X-22518333Y-40916666D01*
X-22351666Y-41083333D01*
X-22184999Y-40916666D01*
X-22351666Y-40750000D01*
X-22351666Y-41083333D01*
X-25518333Y-40916666D02*
X-25184999Y-41083333D01*
X-24518333Y-41083333D01*
X-24184999Y-40916666D01*
X-24018333Y-40750000D01*
X-23851666Y-40416666D01*
X-23851666Y-39416666D01*
X-24018333Y-39083333D01*
X-24184999Y-38916666D01*
X-24518333Y-38750000D01*
X-25184999Y-38750000D01*
X-25518333Y-38916666D01*
X-27518333Y-41083333D02*
X-27184999Y-40916666D01*
X-27018333Y-40750000D01*
X-26851666Y-40416666D01*
X-26851666Y-39416666D01*
X-27018333Y-39083333D01*
X-27184999Y-38916666D01*
X-27518333Y-38750000D01*
X-28018333Y-38750000D01*
X-28351666Y-38916666D01*
X-28518333Y-39083333D01*
X-28684999Y-39416666D01*
X-28684999Y-40416666D01*
X-28518333Y-40750000D01*
X-28351666Y-40916666D01*
X-28018333Y-41083333D01*
X-27518333Y-41083333D01*
X-30184999Y-41083333D02*
X-30184999Y-38750000D01*
X-30184999Y-39083333D02*
X-30351666Y-38916666D01*
X-30684999Y-38750000D01*
X-31184999Y-38750000D01*
X-31518333Y-38916666D01*
X-31684999Y-39250000D01*
X-31684999Y-41083333D01*
X-31684999Y-39250000D02*
X-31851666Y-38916666D01*
X-32184999Y-38750000D01*
X-32684999Y-38750000D01*
X-33018333Y-38916666D01*
X-33184999Y-39250000D01*
X-33184999Y-41083333D01*
D12*
X20100714Y40992857D02*
X20148333Y40945238D01*
X20291190Y40897619D01*
X20386428Y40897619D01*
X20529285Y40945238D01*
X20624523Y41040476D01*
X20672142Y41135714D01*
X20719761Y41326190D01*
X20719761Y41469047D01*
X20672142Y41659523D01*
X20624523Y41754761D01*
X20529285Y41850000D01*
X20386428Y41897619D01*
X20291190Y41897619D01*
X20148333Y41850000D01*
X20100714Y41802380D01*
X19481666Y41897619D02*
X19291190Y41897619D01*
X19195952Y41850000D01*
X19100714Y41754761D01*
X19053095Y41564285D01*
X19053095Y41230952D01*
X19100714Y41040476D01*
X19195952Y40945238D01*
X19291190Y40897619D01*
X19481666Y40897619D01*
X19576904Y40945238D01*
X19672142Y41040476D01*
X19719761Y41230952D01*
X19719761Y41564285D01*
X19672142Y41754761D01*
X19576904Y41850000D01*
X19481666Y41897619D01*
X18053095Y40897619D02*
X18386428Y41373809D01*
X18624523Y40897619D02*
X18624523Y41897619D01*
X18243571Y41897619D01*
X18148333Y41850000D01*
X18100714Y41802380D01*
X18053095Y41707142D01*
X18053095Y41564285D01*
X18100714Y41469047D01*
X18148333Y41421428D01*
X18243571Y41373809D01*
X18624523Y41373809D01*
X17624523Y41421428D02*
X17291190Y41421428D01*
X17148333Y40897619D02*
X17624523Y40897619D01*
X17624523Y41897619D01*
X17148333Y41897619D01*
X15624523Y41421428D02*
X15481666Y41373809D01*
X15434047Y41326190D01*
X15386428Y41230952D01*
X15386428Y41088095D01*
X15434047Y40992857D01*
X15481666Y40945238D01*
X15576904Y40897619D01*
X15957857Y40897619D01*
X15957857Y41897619D01*
X15624523Y41897619D01*
X15529285Y41850000D01*
X15481666Y41802380D01*
X15434047Y41707142D01*
X15434047Y41611904D01*
X15481666Y41516666D01*
X15529285Y41469047D01*
X15624523Y41421428D01*
X15957857Y41421428D01*
X14767380Y41897619D02*
X14576904Y41897619D01*
X14481666Y41850000D01*
X14386428Y41754761D01*
X14338809Y41564285D01*
X14338809Y41230952D01*
X14386428Y41040476D01*
X14481666Y40945238D01*
X14576904Y40897619D01*
X14767380Y40897619D01*
X14862619Y40945238D01*
X14957857Y41040476D01*
X15005476Y41230952D01*
X15005476Y41564285D01*
X14957857Y41754761D01*
X14862619Y41850000D01*
X14767380Y41897619D01*
X13957857Y41183333D02*
X13481666Y41183333D01*
X14053095Y40897619D02*
X13719761Y41897619D01*
X13386428Y40897619D01*
X12481666Y40897619D02*
X12815000Y41373809D01*
X13053095Y40897619D02*
X13053095Y41897619D01*
X12672142Y41897619D01*
X12576904Y41850000D01*
X12529285Y41802380D01*
X12481666Y41707142D01*
X12481666Y41564285D01*
X12529285Y41469047D01*
X12576904Y41421428D01*
X12672142Y41373809D01*
X13053095Y41373809D01*
X12053095Y40897619D02*
X12053095Y41897619D01*
X11815000Y41897619D01*
X11672142Y41850000D01*
X11576904Y41754761D01*
X11529285Y41659523D01*
X11481666Y41469047D01*
X11481666Y41326190D01*
X11529285Y41135714D01*
X11576904Y41040476D01*
X11672142Y40945238D01*
X11815000Y40897619D01*
X12053095Y40897619D01*
X8910238Y41897619D02*
X8576904Y40897619D01*
X8243571Y41897619D01*
X7719761Y41897619D02*
X7624523Y41897619D01*
X7529285Y41850000D01*
X7481666Y41802380D01*
X7434047Y41707142D01*
X7386428Y41516666D01*
X7386428Y41278571D01*
X7434047Y41088095D01*
X7481666Y40992857D01*
X7529285Y40945238D01*
X7624523Y40897619D01*
X7719761Y40897619D01*
X7815000Y40945238D01*
X7862619Y40992857D01*
X7910238Y41088095D01*
X7957857Y41278571D01*
X7957857Y41516666D01*
X7910238Y41707142D01*
X7862619Y41802380D01*
X7815000Y41850000D01*
X7719761Y41897619D01*
X6957857Y40992857D02*
X6910238Y40945238D01*
X6957857Y40897619D01*
X7005476Y40945238D01*
X6957857Y40992857D01*
X6957857Y40897619D01*
X6053095Y41564285D02*
X6053095Y40897619D01*
X6291190Y41945238D02*
X6529285Y41230952D01*
X5910238Y41230952D01*
X3291190Y41802380D02*
X3243571Y41850000D01*
X3148333Y41897619D01*
X2910238Y41897619D01*
X2815000Y41850000D01*
X2767380Y41802380D01*
X2719761Y41707142D01*
X2719761Y41611904D01*
X2767380Y41469047D01*
X3338809Y40897619D01*
X2719761Y40897619D01*
X2100714Y41897619D02*
X2005476Y41897619D01*
X1910238Y41850000D01*
X1862619Y41802380D01*
X1815000Y41707142D01*
X1767380Y41516666D01*
X1767380Y41278571D01*
X1815000Y41088095D01*
X1862619Y40992857D01*
X1910238Y40945238D01*
X2005476Y40897619D01*
X2100714Y40897619D01*
X2195952Y40945238D01*
X2243571Y40992857D01*
X2291190Y41088095D01*
X2338809Y41278571D01*
X2338809Y41516666D01*
X2291190Y41707142D01*
X2243571Y41802380D01*
X2195952Y41850000D01*
X2100714Y41897619D01*
X1386428Y41802380D02*
X1338809Y41850000D01*
X1243571Y41897619D01*
X1005476Y41897619D01*
X910238Y41850000D01*
X862619Y41802380D01*
X815000Y41707142D01*
X815000Y41611904D01*
X862619Y41469047D01*
X1434047Y40897619D01*
X815000Y40897619D01*
X195952Y41897619D02*
X100714Y41897619D01*
X5476Y41850000D01*
X-42142Y41802380D01*
X-89761Y41707142D01*
X-137380Y41516666D01*
X-137380Y41278571D01*
X-89761Y41088095D01*
X-42142Y40992857D01*
X5476Y40945238D01*
X100714Y40897619D01*
X195952Y40897619D01*
X291190Y40945238D01*
X338809Y40992857D01*
X386428Y41088095D01*
X434047Y41278571D01*
X434047Y41516666D01*
X386428Y41707142D01*
X338809Y41802380D01*
X291190Y41850000D01*
X195952Y41897619D01*
X-565952Y41278571D02*
X-1327857Y41278571D01*
X-1994523Y41897619D02*
X-2089761Y41897619D01*
X-2184999Y41850000D01*
X-2232619Y41802380D01*
X-2280238Y41707142D01*
X-2327857Y41516666D01*
X-2327857Y41278571D01*
X-2280238Y41088095D01*
X-2232619Y40992857D01*
X-2184999Y40945238D01*
X-2089761Y40897619D01*
X-1994523Y40897619D01*
X-1899285Y40945238D01*
X-1851666Y40992857D01*
X-1804047Y41088095D01*
X-1756428Y41278571D01*
X-1756428Y41516666D01*
X-1804047Y41707142D01*
X-1851666Y41802380D01*
X-1899285Y41850000D01*
X-1994523Y41897619D01*
X-2899285Y41469047D02*
X-2804047Y41516666D01*
X-2756428Y41564285D01*
X-2708809Y41659523D01*
X-2708809Y41707142D01*
X-2756428Y41802380D01*
X-2804047Y41850000D01*
X-2899285Y41897619D01*
X-3089761Y41897619D01*
X-3184999Y41850000D01*
X-3232619Y41802380D01*
X-3280238Y41707142D01*
X-3280238Y41659523D01*
X-3232619Y41564285D01*
X-3184999Y41516666D01*
X-3089761Y41469047D01*
X-2899285Y41469047D01*
X-2804047Y41421428D01*
X-2756428Y41373809D01*
X-2708809Y41278571D01*
X-2708809Y41088095D01*
X-2756428Y40992857D01*
X-2804047Y40945238D01*
X-2899285Y40897619D01*
X-3089761Y40897619D01*
X-3184999Y40945238D01*
X-3232619Y40992857D01*
X-3280238Y41088095D01*
X-3280238Y41278571D01*
X-3232619Y41373809D01*
X-3184999Y41421428D01*
X-3089761Y41469047D01*
X-3708809Y41278571D02*
X-4470714Y41278571D01*
X-4899285Y41802380D02*
X-4946904Y41850000D01*
X-5042142Y41897619D01*
X-5280238Y41897619D01*
X-5375476Y41850000D01*
X-5423095Y41802380D01*
X-5470714Y41707142D01*
X-5470714Y41611904D01*
X-5423095Y41469047D01*
X-4851666Y40897619D01*
X-5470714Y40897619D01*
X-5851666Y41802380D02*
X-5899285Y41850000D01*
X-5994523Y41897619D01*
X-6232619Y41897619D01*
X-6327857Y41850000D01*
X-6375476Y41802380D01*
X-6423095Y41707142D01*
X-6423095Y41611904D01*
X-6375476Y41469047D01*
X-5804047Y40897619D01*
X-6423095Y40897619D01*
X-9089761Y41183333D02*
X-9565952Y41183333D01*
X-8994523Y40897619D02*
X-9327857Y41897619D01*
X-9661190Y40897619D01*
X-9994523Y40897619D02*
X-9994523Y41897619D01*
X-10565952Y40897619D01*
X-10565952Y41897619D01*
X-11042142Y40897619D02*
X-11042142Y41897619D01*
X-11280238Y41897619D01*
X-11423095Y41850000D01*
X-11518333Y41754761D01*
X-11565952Y41659523D01*
X-11613571Y41469047D01*
X-11613571Y41326190D01*
X-11565952Y41135714D01*
X-11518333Y41040476D01*
X-11423095Y40945238D01*
X-11280238Y40897619D01*
X-11042142Y40897619D01*
X-12232619Y41373809D02*
X-12232619Y40897619D01*
X-11899285Y41897619D02*
X-12232619Y41373809D01*
X-12565952Y41897619D01*
X-14184999Y41850000D02*
X-14089761Y41897619D01*
X-13946904Y41897619D01*
X-13804047Y41850000D01*
X-13708809Y41754761D01*
X-13661190Y41659523D01*
X-13613571Y41469047D01*
X-13613571Y41326190D01*
X-13661190Y41135714D01*
X-13708809Y41040476D01*
X-13804047Y40945238D01*
X-13946904Y40897619D01*
X-14042142Y40897619D01*
X-14184999Y40945238D01*
X-14232619Y40992857D01*
X-14232619Y41326190D01*
X-14042142Y41326190D01*
X-14661190Y41421428D02*
X-14994523Y41421428D01*
X-15137380Y40897619D02*
X-14661190Y40897619D01*
X-14661190Y41897619D01*
X-15137380Y41897619D01*
X-15565952Y40897619D02*
X-15565952Y41897619D01*
X-15946904Y41897619D01*
X-16042142Y41850000D01*
X-16089761Y41802380D01*
X-16137380Y41707142D01*
X-16137380Y41564285D01*
X-16089761Y41469047D01*
X-16042142Y41421428D01*
X-15946904Y41373809D01*
X-15565952Y41373809D01*
X-16565952Y40897619D02*
X-16565952Y41897619D01*
X-16946904Y41897619D01*
X-17042142Y41850000D01*
X-17089761Y41802380D01*
X-17137380Y41707142D01*
X-17137380Y41564285D01*
X-17089761Y41469047D01*
X-17042142Y41421428D01*
X-16946904Y41373809D01*
X-16565952Y41373809D01*
X-17565952Y41421428D02*
X-17899285Y41421428D01*
X-18042142Y40897619D02*
X-17565952Y40897619D01*
X-17565952Y41897619D01*
X-18042142Y41897619D01*
X-19042142Y40897619D02*
X-18708809Y41373809D01*
X-18470714Y40897619D02*
X-18470714Y41897619D01*
X-18851666Y41897619D01*
X-18946904Y41850000D01*
X-18994523Y41802380D01*
X-19042142Y41707142D01*
X-19042142Y41564285D01*
X-18994523Y41469047D01*
X-18946904Y41421428D01*
X-18851666Y41373809D01*
X-18470714Y41373809D01*
X-19327857Y41897619D02*
X-19899285Y41897619D01*
X-19613571Y40897619D02*
X-19613571Y41897619D01*
D11*
X11043571Y36286904D02*
X11043571Y39686904D01*
X9472142Y38553571D02*
X9472142Y36286904D01*
X9472142Y38229761D02*
X9315000Y38391666D01*
X9000714Y38553571D01*
X8529285Y38553571D01*
X8215000Y38391666D01*
X8057857Y38067857D01*
X8057857Y36286904D01*
X6957857Y38553571D02*
X5700714Y38553571D01*
X6486428Y39686904D02*
X6486428Y36772619D01*
X6329285Y36448809D01*
X6014999Y36286904D01*
X5700714Y36286904D01*
X3343571Y36448809D02*
X3657857Y36286904D01*
X4286428Y36286904D01*
X4600714Y36448809D01*
X4757857Y36772619D01*
X4757857Y38067857D01*
X4600714Y38391666D01*
X4286428Y38553571D01*
X3657857Y38553571D01*
X3343571Y38391666D01*
X3186428Y38067857D01*
X3186428Y37744047D01*
X4757857Y37420238D01*
X1772142Y36286904D02*
X1772142Y38553571D01*
X1772142Y37905952D02*
X1614999Y38229761D01*
X1457857Y38391666D01*
X1143571Y38553571D01*
X829285Y38553571D01*
X-1685000Y36286904D02*
X-1685000Y38067857D01*
X-1527857Y38391666D01*
X-1213571Y38553571D01*
X-585000Y38553571D01*
X-270714Y38391666D01*
X-1685000Y36448809D02*
X-1370714Y36286904D01*
X-585000Y36286904D01*
X-270714Y36448809D01*
X-113571Y36772619D01*
X-113571Y37096428D01*
X-270714Y37420238D01*
X-585000Y37582142D01*
X-1370714Y37582142D01*
X-1685000Y37744047D01*
X-4670714Y36448809D02*
X-4356428Y36286904D01*
X-3727857Y36286904D01*
X-3413571Y36448809D01*
X-3256428Y36610714D01*
X-3099285Y36934523D01*
X-3099285Y37905952D01*
X-3256428Y38229761D01*
X-3413571Y38391666D01*
X-3727857Y38553571D01*
X-4356428Y38553571D01*
X-4670714Y38391666D01*
X-5613571Y38553571D02*
X-6870714Y38553571D01*
X-6085000Y39686904D02*
X-6085000Y36772619D01*
X-6242142Y36448809D01*
X-6556428Y36286904D01*
X-6870714Y36286904D01*
X-7970714Y36286904D02*
X-7970714Y38553571D01*
X-7970714Y39686904D02*
X-7813571Y39525000D01*
X-7970714Y39363095D01*
X-8127857Y39525000D01*
X-7970714Y39686904D01*
X-7970714Y39363095D01*
X-9227857Y38553571D02*
X-10013571Y36286904D01*
X-10799285Y38553571D01*
X-13313571Y36448809D02*
X-12999285Y36286904D01*
X-12370714Y36286904D01*
X-12056428Y36448809D01*
X-11899285Y36772619D01*
X-11899285Y38067857D01*
X-12056428Y38391666D01*
X-12370714Y38553571D01*
X-12999285Y38553571D01*
X-13313571Y38391666D01*
X-13470714Y38067857D01*
X-13470714Y37744047D01*
X-11899285Y37420238D01*
X12300714Y31010714D02*
X12457857Y30848809D01*
X12929285Y30686904D01*
X13243571Y30686904D01*
X13714999Y30848809D01*
X14029285Y31172619D01*
X14186428Y31496428D01*
X14343571Y32144047D01*
X14343571Y32629761D01*
X14186428Y33277380D01*
X14029285Y33601190D01*
X13714999Y33925000D01*
X13243571Y34086904D01*
X12929285Y34086904D01*
X12457857Y33925000D01*
X12300714Y33763095D01*
X10414999Y30686904D02*
X10729285Y30848809D01*
X10886428Y31010714D01*
X11043571Y31334523D01*
X11043571Y32305952D01*
X10886428Y32629761D01*
X10729285Y32791666D01*
X10414999Y32953571D01*
X9943571Y32953571D01*
X9629285Y32791666D01*
X9472142Y32629761D01*
X9314999Y32305952D01*
X9314999Y31334523D01*
X9472142Y31010714D01*
X9629285Y30848809D01*
X9943571Y30686904D01*
X10414999Y30686904D01*
X7900714Y30686904D02*
X7900714Y32953571D01*
X7900714Y32305952D02*
X7743571Y32629761D01*
X7586428Y32791666D01*
X7272142Y32953571D01*
X6957857Y32953571D01*
X4600714Y30848809D02*
X4914999Y30686904D01*
X5543571Y30686904D01*
X5857857Y30848809D01*
X6014999Y31172619D01*
X6014999Y32467857D01*
X5857857Y32791666D01*
X5543571Y32953571D01*
X4914999Y32953571D01*
X4600714Y32791666D01*
X4443571Y32467857D01*
X4443571Y32144047D01*
X6014999Y31820238D01*
X514999Y30686904D02*
X514999Y34086904D01*
X-585000Y31658333D01*
X-1685000Y34086904D01*
X-1685000Y30686904D01*
X-4513571Y30848809D02*
X-4199285Y30686904D01*
X-3570714Y30686904D01*
X-3256428Y30848809D01*
X-3099285Y31172619D01*
X-3099285Y32467857D01*
X-3256428Y32791666D01*
X-3570714Y32953571D01*
X-4199285Y32953571D01*
X-4513571Y32791666D01*
X-4670714Y32467857D01*
X-4670714Y32144047D01*
X-3099285Y31820238D01*
X-6085000Y30686904D02*
X-6085000Y32953571D01*
X-6085000Y32629761D02*
X-6242142Y32791666D01*
X-6556428Y32953571D01*
X-7027857Y32953571D01*
X-7342142Y32791666D01*
X-7499285Y32467857D01*
X-7499285Y30686904D01*
X-7499285Y32467857D02*
X-7656428Y32791666D01*
X-7970714Y32953571D01*
X-8442142Y32953571D01*
X-8756428Y32791666D01*
X-8913571Y32467857D01*
X-8913571Y30686904D01*
X-10956428Y30686904D02*
X-10642142Y30848809D01*
X-10485000Y31010714D01*
X-10327857Y31334523D01*
X-10327857Y32305952D01*
X-10485000Y32629761D01*
X-10642142Y32791666D01*
X-10956428Y32953571D01*
X-11427857Y32953571D01*
X-11742142Y32791666D01*
X-11899285Y32629761D01*
X-12056428Y32305952D01*
X-12056428Y31334523D01*
X-11899285Y31010714D01*
X-11742142Y30848809D01*
X-11427857Y30686904D01*
X-10956428Y30686904D01*
X-13470714Y30686904D02*
X-13470714Y32953571D01*
X-13470714Y32305952D02*
X-13627857Y32629761D01*
X-13785000Y32791666D01*
X-14099285Y32953571D01*
X-14413571Y32953571D01*
X-15199285Y32953571D02*
X-15985000Y30686904D01*
X-16770714Y32953571D02*
X-15985000Y30686904D01*
X-15670714Y29877380D01*
X-15513571Y29715476D01*
X-15199285Y29553571D01*
D13*
X-34230000Y-14730000D02*
X-34230000Y-18290000D01*
X-34230000Y-9650000D02*
X-34230000Y-13210000D01*
X-34230000Y-4570000D02*
X-34230000Y-8130000D01*
X-34230000Y510000D02*
X-34230000Y-3050000D01*
X-34230000Y5590000D02*
X-34230000Y2030000D01*
X-34230000Y10670000D02*
X-34230000Y7110000D01*
X-34230000Y15750000D02*
X-34230000Y12190000D01*
X-34230000Y-19810000D02*
X-34230000Y-20380000D01*
X-36890000Y20380000D02*
X-36890000Y19810000D01*
X-36890000Y19810000D02*
X-38410000Y19810000D01*
X-34230000Y20380000D02*
X-34230000Y17270000D01*
X-36890000Y-17270000D02*
X-36890000Y-20380000D01*
X-36890000Y-12190000D02*
X-36890000Y-15750000D01*
X-36890000Y-7110000D02*
X-36890000Y-10670000D01*
X-36890000Y-2030000D02*
X-36890000Y-5590000D01*
X-36890000Y3050000D02*
X-36890000Y-510000D01*
X-36890000Y8130000D02*
X-36890000Y4570000D01*
X-36890000Y13210000D02*
X-36890000Y9650000D01*
X-36890000Y18290000D02*
X-36890000Y14730000D01*
X-34230000Y-20380000D02*
X-36890000Y-20380000D01*
X-34230000Y20380000D02*
X-36890000Y20380000D01*
X36890000Y-14730000D02*
X36890000Y-18290000D01*
X36890000Y-9650000D02*
X36890000Y-13210000D01*
X36890000Y-4570000D02*
X36890000Y-8130000D01*
X36890000Y510000D02*
X36890000Y-3050000D01*
X36890000Y5590000D02*
X36890000Y2030000D01*
X36890000Y10670000D02*
X36890000Y7110000D01*
X36890000Y15750000D02*
X36890000Y12190000D01*
X36890000Y-19810000D02*
X36890000Y-20380000D01*
X34230000Y20380000D02*
X34230000Y19810000D01*
X34230000Y19810000D02*
X32710000Y19810000D01*
X36890000Y20380000D02*
X36890000Y17270000D01*
X34230000Y-17270000D02*
X34230000Y-20380000D01*
X34230000Y-12190000D02*
X34230000Y-15750000D01*
X34230000Y-7110000D02*
X34230000Y-10670000D01*
X34230000Y-2030000D02*
X34230000Y-5590000D01*
X34230000Y3050000D02*
X34230000Y-510000D01*
X34230000Y8130000D02*
X34230000Y4570000D01*
X34230000Y13210000D02*
X34230000Y9650000D01*
X34230000Y18290000D02*
X34230000Y14730000D01*
X36890000Y-20380000D02*
X34230000Y-20380000D01*
X36890000Y20380000D02*
X34230000Y20380000D01*
X-19285000Y-36260000D02*
X-21735000Y-36260000D01*
X-21085000Y-33040000D02*
X-19285000Y-33040000D01*
X-5785000Y-36260000D02*
X-8235000Y-36260000D01*
X-7585000Y-33040000D02*
X-5785000Y-33040000D01*
X7615000Y-36260000D02*
X5165000Y-36260000D01*
X5815000Y-33040000D02*
X7615000Y-33040000D01*
X21015000Y-36260000D02*
X18565000Y-36260000D01*
X19215000Y-33040000D02*
X21015000Y-33040000D01*
X-15743578Y-32640000D02*
X-15226422Y-32640000D01*
X-15743578Y-34060000D02*
X-15226422Y-34060000D01*
X-2243578Y-32640000D02*
X-1726422Y-32640000D01*
X-2243578Y-34060000D02*
X-1726422Y-34060000D01*
X11256422Y-32640000D02*
X11773578Y-32640000D01*
X11256422Y-34060000D02*
X11773578Y-34060000D01*
X24656422Y-32640000D02*
X25173578Y-32640000D01*
X24656422Y-34060000D02*
X25173578Y-34060000D01*
X-38395000Y32708578D02*
X-38395000Y32191422D01*
X-36975000Y32708578D02*
X-36975000Y32191422D01*
X37715000Y-34950000D02*
X37715000Y-36950000D01*
X40515000Y-34950000D02*
X37715000Y-34950000D01*
X40515000Y-36950000D02*
X40515000Y-34950000D01*
X37715000Y-36950000D02*
X40515000Y-36950000D01*
X37715000Y-32650000D02*
X40515000Y-32650000D01*
X40515000Y-32650000D02*
X40515000Y-30650000D01*
X40515000Y-30650000D02*
X37715000Y-30650000D01*
X37715000Y-30650000D02*
X37715000Y-32650000D01*
D14*
X-22552700Y32752100D02*
X-22552700Y37247900D01*
X-17447300Y37247900D02*
X-17447300Y32752100D01*
X-20459499Y39165600D02*
X-20840499Y39165600D01*
X-20840499Y39165600D02*
X-20840499Y38911600D01*
X-20840499Y38911600D02*
X-20459499Y38911600D01*
X-20459499Y38911600D02*
X-20459499Y39165600D01*
X-17447300Y34695200D02*
G75*
G02X-17447300Y35304800I0J304800D01*
G01*
D13*
X-16595000Y37108578D02*
X-16595000Y36591422D01*
X-15175000Y37108578D02*
X-15175000Y36591422D01*
X15005000Y32891422D02*
X15005000Y33408578D01*
X16425000Y32891422D02*
X16425000Y33408578D01*
X37715000Y-26350000D02*
X37715000Y-28350000D01*
X40515000Y-26350000D02*
X37715000Y-26350000D01*
X40515000Y-28350000D02*
X40515000Y-26350000D01*
X37715000Y-28350000D02*
X40515000Y-28350000D01*
X37715000Y-24050000D02*
X40515000Y-24050000D01*
X40515000Y-24050000D02*
X40515000Y-22050000D01*
X40515000Y-22050000D02*
X37715000Y-22050000D01*
X37715000Y-22050000D02*
X37715000Y-24050000D01*
X-37715000Y-24050000D02*
X-37715000Y-22050000D01*
X-40515000Y-24050000D02*
X-37715000Y-24050000D01*
X-40515000Y-22050000D02*
X-40515000Y-24050000D01*
X-37715000Y-22050000D02*
X-40515000Y-22050000D01*
X-37715000Y-26350000D02*
X-40515000Y-26350000D01*
X-40515000Y-26350000D02*
X-40515000Y-28350000D01*
X-40515000Y-28350000D02*
X-37715000Y-28350000D01*
X-37715000Y-28350000D02*
X-37715000Y-26350000D01*
X-37715000Y-32650000D02*
X-37715000Y-30650000D01*
X-40515000Y-32650000D02*
X-37715000Y-32650000D01*
X-40515000Y-30650000D02*
X-40515000Y-32650000D01*
X-37715000Y-30650000D02*
X-40515000Y-30650000D01*
X-37715000Y-34950000D02*
X-40515000Y-34950000D01*
X-40515000Y-34950000D02*
X-40515000Y-36950000D01*
X-40515000Y-36950000D02*
X-37715000Y-36950000D01*
X-37715000Y-36950000D02*
X-37715000Y-34950000D01*
D14*
X22552700Y37247900D02*
X22552700Y32752100D01*
X17447300Y32752100D02*
X17447300Y37247900D01*
X20459499Y30834400D02*
X20840499Y30834400D01*
X20840499Y30834400D02*
X20840499Y31088400D01*
X20840499Y31088400D02*
X20459499Y31088400D01*
X20459499Y31088400D02*
X20459499Y30834400D01*
X17447300Y35304800D02*
G75*
G02X17447300Y34695200I0J-304800D01*
G01*
D13*
X-31900000Y27500000D02*
X-31900000Y25500000D01*
X-29100000Y27500000D02*
X-31900000Y27500000D01*
X-29100000Y25500000D02*
X-29100000Y27500000D01*
X-31900000Y25500000D02*
X-29100000Y25500000D01*
X-31900000Y29050000D02*
X-29100000Y29050000D01*
X-29100000Y29050000D02*
X-29100000Y31050000D01*
X-29100000Y31050000D02*
X-31900000Y31050000D01*
X-31900000Y31050000D02*
X-31900000Y29050000D01*
X-31885000Y32650000D02*
X-29085000Y32650000D01*
X-29085000Y32650000D02*
X-29085000Y34650000D01*
X-29085000Y34650000D02*
X-31885000Y34650000D01*
X-31885000Y34650000D02*
X-31885000Y32650000D01*
X-31885000Y38250000D02*
X-31885000Y36250000D01*
X-29085000Y38250000D02*
X-31885000Y38250000D01*
X-29085000Y36250000D02*
X-29085000Y38250000D01*
X-31885000Y36250000D02*
X-29085000Y36250000D01*
X27615000Y40250000D02*
X24815000Y40250000D01*
X24815000Y40250000D02*
X24815000Y38250000D01*
X24815000Y38250000D02*
X27615000Y38250000D01*
X27615000Y38250000D02*
X27615000Y40250000D01*
X27615000Y34750000D02*
X27615000Y36750000D01*
X24815000Y34750000D02*
X27615000Y34750000D01*
X24815000Y36750000D02*
X24815000Y34750000D01*
X27615000Y36750000D02*
X24815000Y36750000D01*
X27615000Y33250000D02*
X24815000Y33250000D01*
X24815000Y33250000D02*
X24815000Y31250000D01*
X24815000Y31250000D02*
X27615000Y31250000D01*
X27615000Y31250000D02*
X27615000Y33250000D01*
X27615000Y27750000D02*
X27615000Y29750000D01*
X24815000Y27750000D02*
X27615000Y27750000D01*
X24815000Y29750000D02*
X24815000Y27750000D01*
X27615000Y29750000D02*
X24815000Y29750000D01*
D12*
X37172142Y37319000D02*
X37243571Y37354714D01*
X37350714Y37354714D01*
X37457857Y37319000D01*
X37529285Y37247571D01*
X37565000Y37176142D01*
X37600714Y37033285D01*
X37600714Y36926142D01*
X37565000Y36783285D01*
X37529285Y36711857D01*
X37457857Y36640428D01*
X37350714Y36604714D01*
X37279285Y36604714D01*
X37172142Y36640428D01*
X37136428Y36676142D01*
X37136428Y36926142D01*
X37279285Y36926142D01*
X36815000Y36604714D02*
X36815000Y37354714D01*
X36529285Y37354714D01*
X36457857Y37319000D01*
X36422142Y37283285D01*
X36386428Y37211857D01*
X36386428Y37104714D01*
X36422142Y37033285D01*
X36457857Y36997571D01*
X36529285Y36961857D01*
X36815000Y36961857D01*
X36065000Y36604714D02*
X36065000Y37354714D01*
X35565000Y37354714D02*
X35422142Y37354714D01*
X35350714Y37319000D01*
X35279285Y37247571D01*
X35243571Y37104714D01*
X35243571Y36854714D01*
X35279285Y36711857D01*
X35350714Y36640428D01*
X35422142Y36604714D01*
X35565000Y36604714D01*
X35636428Y36640428D01*
X35707857Y36711857D01*
X35743571Y36854714D01*
X35743571Y37104714D01*
X35707857Y37247571D01*
X35636428Y37319000D01*
X35565000Y37354714D01*
X34529285Y36604714D02*
X34957857Y36604714D01*
X34743571Y36604714D02*
X34743571Y37354714D01*
X34815000Y37247571D01*
X34886428Y37176142D01*
X34957857Y37140428D01*
X37172142Y31477000D02*
X37243571Y31512714D01*
X37350714Y31512714D01*
X37457857Y31477000D01*
X37529285Y31405571D01*
X37565000Y31334142D01*
X37600714Y31191285D01*
X37600714Y31084142D01*
X37565000Y30941285D01*
X37529285Y30869857D01*
X37457857Y30798428D01*
X37350714Y30762714D01*
X37279285Y30762714D01*
X37172142Y30798428D01*
X37136428Y30834142D01*
X37136428Y31084142D01*
X37279285Y31084142D01*
X36815000Y30762714D02*
X36815000Y31512714D01*
X36529285Y31512714D01*
X36457857Y31477000D01*
X36422142Y31441285D01*
X36386428Y31369857D01*
X36386428Y31262714D01*
X36422142Y31191285D01*
X36457857Y31155571D01*
X36529285Y31119857D01*
X36815000Y31119857D01*
X36065000Y30762714D02*
X36065000Y31512714D01*
X35565000Y31512714D02*
X35422142Y31512714D01*
X35350714Y31477000D01*
X35279285Y31405571D01*
X35243571Y31262714D01*
X35243571Y31012714D01*
X35279285Y30869857D01*
X35350714Y30798428D01*
X35422142Y30762714D01*
X35565000Y30762714D01*
X35636428Y30798428D01*
X35707857Y30869857D01*
X35743571Y31012714D01*
X35743571Y31262714D01*
X35707857Y31405571D01*
X35636428Y31477000D01*
X35565000Y31512714D01*
X34957857Y31441285D02*
X34922142Y31477000D01*
X34850714Y31512714D01*
X34672142Y31512714D01*
X34600714Y31477000D01*
X34565000Y31441285D01*
X34529285Y31369857D01*
X34529285Y31298428D01*
X34565000Y31191285D01*
X34993571Y30762714D01*
X34529285Y30762714D01*
X33757857Y30798428D02*
X33650714Y30762714D01*
X33472142Y30762714D01*
X33400714Y30798428D01*
X33365000Y30834142D01*
X33329285Y30905571D01*
X33329285Y30977000D01*
X33365000Y31048428D01*
X33400714Y31084142D01*
X33472142Y31119857D01*
X33615000Y31155571D01*
X33686428Y31191285D01*
X33722142Y31227000D01*
X33757857Y31298428D01*
X33757857Y31369857D01*
X33722142Y31441285D01*
X33686428Y31477000D01*
X33615000Y31512714D01*
X33436428Y31512714D01*
X33329285Y31477000D01*
X32579285Y30834142D02*
X32615000Y30798428D01*
X32722142Y30762714D01*
X32793571Y30762714D01*
X32900714Y30798428D01*
X32972142Y30869857D01*
X33007857Y30941285D01*
X33043571Y31084142D01*
X33043571Y31191285D01*
X33007857Y31334142D01*
X32972142Y31405571D01*
X32900714Y31477000D01*
X32793571Y31512714D01*
X32722142Y31512714D01*
X32615000Y31477000D01*
X32579285Y31441285D01*
X31900714Y30762714D02*
X32257857Y30762714D01*
X32257857Y31512714D01*
X33775714Y36640428D02*
X33668571Y36604714D01*
X33490000Y36604714D01*
X33418571Y36640428D01*
X33382857Y36676142D01*
X33347142Y36747571D01*
X33347142Y36819000D01*
X33382857Y36890428D01*
X33418571Y36926142D01*
X33490000Y36961857D01*
X33632857Y36997571D01*
X33704285Y37033285D01*
X33740000Y37069000D01*
X33775714Y37140428D01*
X33775714Y37211857D01*
X33740000Y37283285D01*
X33704285Y37319000D01*
X33632857Y37354714D01*
X33454285Y37354714D01*
X33347142Y37319000D01*
X33025714Y36604714D02*
X33025714Y37354714D01*
X32847142Y37354714D01*
X32740000Y37319000D01*
X32668571Y37247571D01*
X32632857Y37176142D01*
X32597142Y37033285D01*
X32597142Y36926142D01*
X32632857Y36783285D01*
X32668571Y36711857D01*
X32740000Y36640428D01*
X32847142Y36604714D01*
X33025714Y36604714D01*
X32311428Y36819000D02*
X31954285Y36819000D01*
X32382857Y36604714D02*
X32132857Y37354714D01*
X31882857Y36604714D01*
X30811428Y31477000D02*
X30882857Y31512714D01*
X30990000Y31512714D01*
X31097142Y31477000D01*
X31168571Y31405571D01*
X31204285Y31334142D01*
X31240000Y31191285D01*
X31240000Y31084142D01*
X31204285Y30941285D01*
X31168571Y30869857D01*
X31097142Y30798428D01*
X30990000Y30762714D01*
X30918571Y30762714D01*
X30811428Y30798428D01*
X30775714Y30834142D01*
X30775714Y31084142D01*
X30918571Y31084142D01*
X30454285Y30762714D02*
X30454285Y31512714D01*
X30025714Y30762714D01*
X30025714Y31512714D01*
X29668571Y30762714D02*
X29668571Y31512714D01*
X29490000Y31512714D01*
X29382857Y31477000D01*
X29311428Y31405571D01*
X29275714Y31334142D01*
X29240000Y31191285D01*
X29240000Y31084142D01*
X29275714Y30941285D01*
X29311428Y30869857D01*
X29382857Y30798428D01*
X29490000Y30762714D01*
X29668571Y30762714D01*
X28918571Y30762714D02*
X28918571Y31512714D01*
X28740000Y31512714D01*
X28632857Y31477000D01*
X28561428Y31405571D01*
X28525714Y31334142D01*
X28490000Y31191285D01*
X28490000Y31084142D01*
X28525714Y30941285D01*
X28561428Y30869857D01*
X28632857Y30798428D01*
X28740000Y30762714D01*
X28918571Y30762714D01*
X31253571Y37354714D02*
X30789285Y37354714D01*
X31039285Y37069000D01*
X30932142Y37069000D01*
X30860714Y37033285D01*
X30825000Y36997571D01*
X30789285Y36926142D01*
X30789285Y36747571D01*
X30825000Y36676142D01*
X30860714Y36640428D01*
X30932142Y36604714D01*
X31146428Y36604714D01*
X31217857Y36640428D01*
X31253571Y36676142D01*
X30575000Y37354714D02*
X30325000Y36604714D01*
X30075000Y37354714D01*
X29896428Y37354714D02*
X29432142Y37354714D01*
X29682142Y37069000D01*
X29575000Y37069000D01*
X29503571Y37033285D01*
X29467857Y36997571D01*
X29432142Y36926142D01*
X29432142Y36747571D01*
X29467857Y36676142D01*
X29503571Y36640428D01*
X29575000Y36604714D01*
X29789285Y36604714D01*
X29860714Y36640428D01*
X29896428Y36676142D01*
X-35226666Y21927619D02*
X-35226666Y21213333D01*
X-35179047Y21070476D01*
X-35083809Y20975238D01*
X-34940952Y20927619D01*
X-34845714Y20927619D01*
X-36226666Y20927619D02*
X-35655238Y20927619D01*
X-35940952Y20927619D02*
X-35940952Y21927619D01*
X-35845714Y21784761D01*
X-35750476Y21689523D01*
X-35655238Y21641904D01*
X35893333Y21927619D02*
X35893333Y21213333D01*
X35940952Y21070476D01*
X36036190Y20975238D01*
X36179047Y20927619D01*
X36274285Y20927619D01*
X35464761Y21832380D02*
X35417142Y21880000D01*
X35321904Y21927619D01*
X35083809Y21927619D01*
X34988571Y21880000D01*
X34940952Y21832380D01*
X34893333Y21737142D01*
X34893333Y21641904D01*
X34940952Y21499047D01*
X35512380Y20927619D01*
X34893333Y20927619D01*
X-19423095Y-31102380D02*
X-19423095Y-31911904D01*
X-19470714Y-32007142D01*
X-19518333Y-32054761D01*
X-19613571Y-32102380D01*
X-19804047Y-32102380D01*
X-19899285Y-32054761D01*
X-19946904Y-32007142D01*
X-19994523Y-31911904D01*
X-19994523Y-31102380D01*
X-20994523Y-32102380D02*
X-20423095Y-32102380D01*
X-20708809Y-32102380D02*
X-20708809Y-31102380D01*
X-20613571Y-31245238D01*
X-20518333Y-31340476D01*
X-20423095Y-31388095D01*
X-5923095Y-31102380D02*
X-5923095Y-31911904D01*
X-5970714Y-32007142D01*
X-6018333Y-32054761D01*
X-6113571Y-32102380D01*
X-6304047Y-32102380D01*
X-6399285Y-32054761D01*
X-6446904Y-32007142D01*
X-6494523Y-31911904D01*
X-6494523Y-31102380D01*
X-6923095Y-31197619D02*
X-6970714Y-31150000D01*
X-7065952Y-31102380D01*
X-7304047Y-31102380D01*
X-7399285Y-31150000D01*
X-7446904Y-31197619D01*
X-7494523Y-31292857D01*
X-7494523Y-31388095D01*
X-7446904Y-31530952D01*
X-6875476Y-32102380D01*
X-7494523Y-32102380D01*
X7376904Y-31102380D02*
X7376904Y-31911904D01*
X7329285Y-32007142D01*
X7281666Y-32054761D01*
X7186428Y-32102380D01*
X6995952Y-32102380D01*
X6900714Y-32054761D01*
X6853095Y-32007142D01*
X6805476Y-31911904D01*
X6805476Y-31102380D01*
X6424523Y-31102380D02*
X5805476Y-31102380D01*
X6138809Y-31483333D01*
X5995952Y-31483333D01*
X5900714Y-31530952D01*
X5853095Y-31578571D01*
X5805476Y-31673809D01*
X5805476Y-31911904D01*
X5853095Y-32007142D01*
X5900714Y-32054761D01*
X5995952Y-32102380D01*
X6281666Y-32102380D01*
X6376904Y-32054761D01*
X6424523Y-32007142D01*
X20876904Y-31102380D02*
X20876904Y-31911904D01*
X20829285Y-32007142D01*
X20781666Y-32054761D01*
X20686428Y-32102380D01*
X20495952Y-32102380D01*
X20400714Y-32054761D01*
X20353095Y-32007142D01*
X20305476Y-31911904D01*
X20305476Y-31102380D01*
X19400714Y-31435714D02*
X19400714Y-32102380D01*
X19638809Y-31054761D02*
X19876904Y-31769047D01*
X19257857Y-31769047D01*
X-15318333Y-32007142D02*
X-15270714Y-32054761D01*
X-15127857Y-32102380D01*
X-15032619Y-32102380D01*
X-14889761Y-32054761D01*
X-14794523Y-31959523D01*
X-14746904Y-31864285D01*
X-14699285Y-31673809D01*
X-14699285Y-31530952D01*
X-14746904Y-31340476D01*
X-14794523Y-31245238D01*
X-14889761Y-31150000D01*
X-15032619Y-31102380D01*
X-15127857Y-31102380D01*
X-15270714Y-31150000D01*
X-15318333Y-31197619D01*
X-16270714Y-32102380D02*
X-15699285Y-32102380D01*
X-15985000Y-32102380D02*
X-15985000Y-31102380D01*
X-15889761Y-31245238D01*
X-15794523Y-31340476D01*
X-15699285Y-31388095D01*
X-1818333Y-32007142D02*
X-1770714Y-32054761D01*
X-1627857Y-32102380D01*
X-1532619Y-32102380D01*
X-1389761Y-32054761D01*
X-1294523Y-31959523D01*
X-1246904Y-31864285D01*
X-1199285Y-31673809D01*
X-1199285Y-31530952D01*
X-1246904Y-31340476D01*
X-1294523Y-31245238D01*
X-1389761Y-31150000D01*
X-1532619Y-31102380D01*
X-1627857Y-31102380D01*
X-1770714Y-31150000D01*
X-1818333Y-31197619D01*
X-2199285Y-31197619D02*
X-2246904Y-31150000D01*
X-2342142Y-31102380D01*
X-2580238Y-31102380D01*
X-2675476Y-31150000D01*
X-2723095Y-31197619D01*
X-2770714Y-31292857D01*
X-2770714Y-31388095D01*
X-2723095Y-31530952D01*
X-2151666Y-32102380D01*
X-2770714Y-32102380D01*
X11581666Y-32007142D02*
X11629285Y-32054761D01*
X11772142Y-32102380D01*
X11867380Y-32102380D01*
X12010238Y-32054761D01*
X12105476Y-31959523D01*
X12153095Y-31864285D01*
X12200714Y-31673809D01*
X12200714Y-31530952D01*
X12153095Y-31340476D01*
X12105476Y-31245238D01*
X12010238Y-31150000D01*
X11867380Y-31102380D01*
X11772142Y-31102380D01*
X11629285Y-31150000D01*
X11581666Y-31197619D01*
X11248333Y-31102380D02*
X10629285Y-31102380D01*
X10962619Y-31483333D01*
X10819761Y-31483333D01*
X10724523Y-31530952D01*
X10676904Y-31578571D01*
X10629285Y-31673809D01*
X10629285Y-31911904D01*
X10676904Y-32007142D01*
X10724523Y-32054761D01*
X10819761Y-32102380D01*
X11105476Y-32102380D01*
X11200714Y-32054761D01*
X11248333Y-32007142D01*
X25081666Y-32007142D02*
X25129285Y-32054761D01*
X25272142Y-32102380D01*
X25367380Y-32102380D01*
X25510238Y-32054761D01*
X25605476Y-31959523D01*
X25653095Y-31864285D01*
X25700714Y-31673809D01*
X25700714Y-31530952D01*
X25653095Y-31340476D01*
X25605476Y-31245238D01*
X25510238Y-31150000D01*
X25367380Y-31102380D01*
X25272142Y-31102380D01*
X25129285Y-31150000D01*
X25081666Y-31197619D01*
X24224523Y-31435714D02*
X24224523Y-32102380D01*
X24462619Y-31054761D02*
X24700714Y-31769047D01*
X24081666Y-31769047D01*
X-37618333Y29492857D02*
X-37570714Y29445238D01*
X-37427857Y29397619D01*
X-37332619Y29397619D01*
X-37189761Y29445238D01*
X-37094523Y29540476D01*
X-37046904Y29635714D01*
X-36999285Y29826190D01*
X-36999285Y29969047D01*
X-37046904Y30159523D01*
X-37094523Y30254761D01*
X-37189761Y30350000D01*
X-37332619Y30397619D01*
X-37427857Y30397619D01*
X-37570714Y30350000D01*
X-37618333Y30302380D01*
X-38523095Y30397619D02*
X-38046904Y30397619D01*
X-37999285Y29921428D01*
X-38046904Y29969047D01*
X-38142142Y30016666D01*
X-38380238Y30016666D01*
X-38475476Y29969047D01*
X-38523095Y29921428D01*
X-38570714Y29826190D01*
X-38570714Y29588095D01*
X-38523095Y29492857D01*
X-38475476Y29445238D01*
X-38380238Y29397619D01*
X-38142142Y29397619D01*
X-38046904Y29445238D01*
X-37999285Y29492857D01*
X36848333Y-35502380D02*
X36848333Y-36216666D01*
X36895952Y-36359523D01*
X36991190Y-36454761D01*
X37134047Y-36502380D01*
X37229285Y-36502380D01*
X36372142Y-36502380D02*
X36372142Y-35502380D01*
X35991190Y-35502380D01*
X35895952Y-35550000D01*
X35848333Y-35597619D01*
X35800714Y-35692857D01*
X35800714Y-35835714D01*
X35848333Y-35930952D01*
X35895952Y-35978571D01*
X35991190Y-36026190D01*
X36372142Y-36026190D01*
X35324523Y-36502380D02*
X35134047Y-36502380D01*
X35038809Y-36454761D01*
X34991190Y-36407142D01*
X34895952Y-36264285D01*
X34848333Y-36073809D01*
X34848333Y-35692857D01*
X34895952Y-35597619D01*
X34943571Y-35550000D01*
X35038809Y-35502380D01*
X35229285Y-35502380D01*
X35324523Y-35550000D01*
X35372142Y-35597619D01*
X35419761Y-35692857D01*
X35419761Y-35930952D01*
X35372142Y-36026190D01*
X35324523Y-36073809D01*
X35229285Y-36121428D01*
X35038809Y-36121428D01*
X34943571Y-36073809D01*
X34895952Y-36026190D01*
X34848333Y-35930952D01*
X36848332Y-31202380D02*
X36848332Y-31916666D01*
X36895951Y-32059523D01*
X36991189Y-32154761D01*
X37134047Y-32202380D01*
X37229285Y-32202380D01*
X36372142Y-32202380D02*
X36372142Y-31202380D01*
X35991189Y-31202380D01*
X35895951Y-31250000D01*
X35848332Y-31297619D01*
X35800713Y-31392857D01*
X35800713Y-31535714D01*
X35848332Y-31630952D01*
X35895951Y-31678571D01*
X35991189Y-31726190D01*
X36372142Y-31726190D01*
X34848332Y-32202380D02*
X35419761Y-32202380D01*
X35134047Y-32202380D02*
X35134047Y-31202380D01*
X35229285Y-31345238D01*
X35324523Y-31440476D01*
X35419761Y-31488095D01*
X34229285Y-31202380D02*
X34134047Y-31202380D01*
X34038809Y-31250000D01*
X33991189Y-31297619D01*
X33943570Y-31392857D01*
X33895951Y-31583333D01*
X33895951Y-31821428D01*
X33943570Y-32011904D01*
X33991189Y-32107142D01*
X34038809Y-32154761D01*
X34134047Y-32202380D01*
X34229285Y-32202380D01*
X34324523Y-32154761D01*
X34372142Y-32107142D01*
X34419761Y-32011904D01*
X34467380Y-31821428D01*
X34467380Y-31583333D01*
X34419761Y-31392857D01*
X34372142Y-31297619D01*
X34324523Y-31250000D01*
X34229285Y-31202380D01*
X-23423095Y32597619D02*
X-23423095Y31788095D01*
X-23470714Y31692857D01*
X-23518333Y31645238D01*
X-23613571Y31597619D01*
X-23804047Y31597619D01*
X-23899285Y31645238D01*
X-23946904Y31692857D01*
X-23994523Y31788095D01*
X-23994523Y32597619D01*
X-24899285Y32597619D02*
X-24708809Y32597619D01*
X-24613571Y32550000D01*
X-24565952Y32502380D01*
X-24470714Y32359523D01*
X-24423095Y32169047D01*
X-24423095Y31788095D01*
X-24470714Y31692857D01*
X-24518333Y31645238D01*
X-24613571Y31597619D01*
X-24804047Y31597619D01*
X-24899285Y31645238D01*
X-24946904Y31692857D01*
X-24994523Y31788095D01*
X-24994523Y32026190D01*
X-24946904Y32121428D01*
X-24899285Y32169047D01*
X-24804047Y32216666D01*
X-24613571Y32216666D01*
X-24518333Y32169047D01*
X-24470714Y32121428D01*
X-24423095Y32026190D01*
X-18207619Y30125000D02*
X-17969523Y30125000D01*
X-18064761Y30363095D02*
X-17969523Y30125000D01*
X-18064761Y29886904D01*
X-17779047Y30267857D02*
X-17969523Y30125000D01*
X-17779047Y29982142D01*
X-18207619Y30150000D02*
X-17969523Y30150000D01*
X-18064761Y30388095D02*
X-17969523Y30150000D01*
X-18064761Y29911904D01*
X-17779047Y30292857D02*
X-17969523Y30150000D01*
X-17779047Y30007142D01*
X-15718333Y38592857D02*
X-15670714Y38545238D01*
X-15527857Y38497619D01*
X-15432619Y38497619D01*
X-15289761Y38545238D01*
X-15194523Y38640476D01*
X-15146904Y38735714D01*
X-15099285Y38926190D01*
X-15099285Y39069047D01*
X-15146904Y39259523D01*
X-15194523Y39354761D01*
X-15289761Y39450000D01*
X-15432619Y39497619D01*
X-15527857Y39497619D01*
X-15670714Y39450000D01*
X-15718333Y39402380D01*
X-16575476Y39497619D02*
X-16385000Y39497619D01*
X-16289761Y39450000D01*
X-16242142Y39402380D01*
X-16146904Y39259523D01*
X-16099285Y39069047D01*
X-16099285Y38688095D01*
X-16146904Y38592857D01*
X-16194523Y38545238D01*
X-16289761Y38497619D01*
X-16480238Y38497619D01*
X-16575476Y38545238D01*
X-16623095Y38592857D01*
X-16670714Y38688095D01*
X-16670714Y38926190D01*
X-16623095Y39021428D01*
X-16575476Y39069047D01*
X-16480238Y39116666D01*
X-16289761Y39116666D01*
X-16194523Y39069047D01*
X-16146904Y39021428D01*
X-16099285Y38926190D01*
X15881666Y30592857D02*
X15929285Y30545238D01*
X16072142Y30497619D01*
X16167380Y30497619D01*
X16310238Y30545238D01*
X16405476Y30640476D01*
X16453095Y30735714D01*
X16500714Y30926190D01*
X16500714Y31069047D01*
X16453095Y31259523D01*
X16405476Y31354761D01*
X16310238Y31450000D01*
X16167380Y31497619D01*
X16072142Y31497619D01*
X15929285Y31450000D01*
X15881666Y31402380D01*
X15548333Y31497619D02*
X14881666Y31497619D01*
X15310238Y30497619D01*
X36848332Y-26902380D02*
X36848332Y-27616666D01*
X36895951Y-27759523D01*
X36991189Y-27854761D01*
X37134047Y-27902380D01*
X37229285Y-27902380D01*
X36372142Y-27902380D02*
X36372142Y-26902380D01*
X35991189Y-26902380D01*
X35895951Y-26950000D01*
X35848332Y-26997619D01*
X35800713Y-27092857D01*
X35800713Y-27235714D01*
X35848332Y-27330952D01*
X35895951Y-27378571D01*
X35991189Y-27426190D01*
X36372142Y-27426190D01*
X34848332Y-27902380D02*
X35419761Y-27902380D01*
X35134047Y-27902380D02*
X35134047Y-26902380D01*
X35229285Y-27045238D01*
X35324523Y-27140476D01*
X35419761Y-27188095D01*
X33895951Y-27902380D02*
X34467380Y-27902380D01*
X34181666Y-27902380D02*
X34181666Y-26902380D01*
X34276904Y-27045238D01*
X34372142Y-27140476D01*
X34467380Y-27188095D01*
X36848332Y-22602380D02*
X36848332Y-23316666D01*
X36895951Y-23459523D01*
X36991189Y-23554761D01*
X37134047Y-23602380D01*
X37229285Y-23602380D01*
X36372142Y-23602380D02*
X36372142Y-22602380D01*
X35991189Y-22602380D01*
X35895951Y-22650000D01*
X35848332Y-22697619D01*
X35800713Y-22792857D01*
X35800713Y-22935714D01*
X35848332Y-23030952D01*
X35895951Y-23078571D01*
X35991189Y-23126190D01*
X36372142Y-23126190D01*
X34848332Y-23602380D02*
X35419761Y-23602380D01*
X35134047Y-23602380D02*
X35134047Y-22602380D01*
X35229285Y-22745238D01*
X35324523Y-22840476D01*
X35419761Y-22888095D01*
X34467380Y-22697619D02*
X34419761Y-22650000D01*
X34324523Y-22602380D01*
X34086428Y-22602380D01*
X33991189Y-22650000D01*
X33943570Y-22697619D01*
X33895951Y-22792857D01*
X33895951Y-22888095D01*
X33943570Y-23030952D01*
X34514999Y-23602380D01*
X33895951Y-23602380D01*
X-34305476Y-22402380D02*
X-34305476Y-23116666D01*
X-34257857Y-23259523D01*
X-34162619Y-23354761D01*
X-34019761Y-23402380D01*
X-33924523Y-23402380D01*
X-34781666Y-23402380D02*
X-34781666Y-22402380D01*
X-35162619Y-22402380D01*
X-35257857Y-22450000D01*
X-35305476Y-22497619D01*
X-35353095Y-22592857D01*
X-35353095Y-22735714D01*
X-35305476Y-22830952D01*
X-35257857Y-22878571D01*
X-35162619Y-22926190D01*
X-34781666Y-22926190D01*
X-36305476Y-23402380D02*
X-35734047Y-23402380D01*
X-36019761Y-23402380D02*
X-36019761Y-22402380D01*
X-35924523Y-22545238D01*
X-35829285Y-22640476D01*
X-35734047Y-22688095D01*
X-36638809Y-22402380D02*
X-37257857Y-22402380D01*
X-36924523Y-22783333D01*
X-37067380Y-22783333D01*
X-37162619Y-22830952D01*
X-37210238Y-22878571D01*
X-37257857Y-22973809D01*
X-37257857Y-23211904D01*
X-37210238Y-23307142D01*
X-37162619Y-23354761D01*
X-37067380Y-23402380D01*
X-36781666Y-23402380D01*
X-36686428Y-23354761D01*
X-36638809Y-23307142D01*
X-34305476Y-26702380D02*
X-34305476Y-27416666D01*
X-34257857Y-27559523D01*
X-34162619Y-27654761D01*
X-34019761Y-27702380D01*
X-33924523Y-27702380D01*
X-34781666Y-27702380D02*
X-34781666Y-26702380D01*
X-35162619Y-26702380D01*
X-35257857Y-26750000D01*
X-35305476Y-26797619D01*
X-35353095Y-26892857D01*
X-35353095Y-27035714D01*
X-35305476Y-27130952D01*
X-35257857Y-27178571D01*
X-35162619Y-27226190D01*
X-34781666Y-27226190D01*
X-36305476Y-27702380D02*
X-35734047Y-27702380D01*
X-36019761Y-27702380D02*
X-36019761Y-26702380D01*
X-35924523Y-26845238D01*
X-35829285Y-26940476D01*
X-35734047Y-26988095D01*
X-37162619Y-27035714D02*
X-37162619Y-27702380D01*
X-36924523Y-26654761D02*
X-36686428Y-27369047D01*
X-37305476Y-27369047D01*
X-34305476Y-31002380D02*
X-34305476Y-31716666D01*
X-34257857Y-31859523D01*
X-34162619Y-31954761D01*
X-34019761Y-32002380D01*
X-33924523Y-32002380D01*
X-34781666Y-32002380D02*
X-34781666Y-31002380D01*
X-35162619Y-31002380D01*
X-35257857Y-31050000D01*
X-35305476Y-31097619D01*
X-35353095Y-31192857D01*
X-35353095Y-31335714D01*
X-35305476Y-31430952D01*
X-35257857Y-31478571D01*
X-35162619Y-31526190D01*
X-34781666Y-31526190D01*
X-36305476Y-32002380D02*
X-35734047Y-32002380D01*
X-36019761Y-32002380D02*
X-36019761Y-31002380D01*
X-35924523Y-31145238D01*
X-35829285Y-31240476D01*
X-35734047Y-31288095D01*
X-37210238Y-31002380D02*
X-36734047Y-31002380D01*
X-36686428Y-31478571D01*
X-36734047Y-31430952D01*
X-36829285Y-31383333D01*
X-37067380Y-31383333D01*
X-37162619Y-31430952D01*
X-37210238Y-31478571D01*
X-37257857Y-31573809D01*
X-37257857Y-31811904D01*
X-37210238Y-31907142D01*
X-37162619Y-31954761D01*
X-37067380Y-32002380D01*
X-36829285Y-32002380D01*
X-36734047Y-31954761D01*
X-36686428Y-31907142D01*
X-34305476Y-35302380D02*
X-34305476Y-36016666D01*
X-34257857Y-36159523D01*
X-34162619Y-36254761D01*
X-34019761Y-36302380D01*
X-33924523Y-36302380D01*
X-34781666Y-36302380D02*
X-34781666Y-35302380D01*
X-35162619Y-35302380D01*
X-35257857Y-35350000D01*
X-35305476Y-35397619D01*
X-35353095Y-35492857D01*
X-35353095Y-35635714D01*
X-35305476Y-35730952D01*
X-35257857Y-35778571D01*
X-35162619Y-35826190D01*
X-34781666Y-35826190D01*
X-36305476Y-36302380D02*
X-35734047Y-36302380D01*
X-36019761Y-36302380D02*
X-36019761Y-35302380D01*
X-35924523Y-35445238D01*
X-35829285Y-35540476D01*
X-35734047Y-35588095D01*
X-37162619Y-35302380D02*
X-36972142Y-35302380D01*
X-36876904Y-35350000D01*
X-36829285Y-35397619D01*
X-36734047Y-35540476D01*
X-36686428Y-35730952D01*
X-36686428Y-36111904D01*
X-36734047Y-36207142D01*
X-36781666Y-36254761D01*
X-36876904Y-36302380D01*
X-37067380Y-36302380D01*
X-37162619Y-36254761D01*
X-37210238Y-36207142D01*
X-37257857Y-36111904D01*
X-37257857Y-35873809D01*
X-37210238Y-35778571D01*
X-37162619Y-35730952D01*
X-37067380Y-35683333D01*
X-36876904Y-35683333D01*
X-36781666Y-35730952D01*
X-36734047Y-35778571D01*
X-36686428Y-35873809D01*
X16576904Y37197619D02*
X16576904Y36388095D01*
X16529285Y36292857D01*
X16481666Y36245238D01*
X16386428Y36197619D01*
X16195952Y36197619D01*
X16100714Y36245238D01*
X16053095Y36292857D01*
X16005476Y36388095D01*
X16005476Y37197619D01*
X15624523Y37197619D02*
X14957857Y37197619D01*
X15386428Y36197619D01*
X17792380Y39525000D02*
X18030476Y39525000D01*
X17935238Y39763095D02*
X18030476Y39525000D01*
X17935238Y39286904D01*
X18220952Y39667857D02*
X18030476Y39525000D01*
X18220952Y39382142D01*
X17792380Y39525000D02*
X18030476Y39525000D01*
X17935238Y39763095D02*
X18030476Y39525000D01*
X17935238Y39286904D01*
X18220952Y39667857D02*
X18030476Y39525000D01*
X18220952Y39382142D01*
X-29666666Y25247619D02*
X-29666666Y24533333D01*
X-29619047Y24390476D01*
X-29523809Y24295238D01*
X-29380952Y24247619D01*
X-29285714Y24247619D01*
X-30142857Y24247619D02*
X-30142857Y25247619D01*
X-30523809Y25247619D01*
X-30619047Y25200000D01*
X-30666666Y25152380D01*
X-30714285Y25057142D01*
X-30714285Y24914285D01*
X-30666666Y24819047D01*
X-30619047Y24771428D01*
X-30523809Y24723809D01*
X-30142857Y24723809D01*
X-31666666Y24247619D02*
X-31095238Y24247619D01*
X-31380952Y24247619D02*
X-31380952Y25247619D01*
X-31285714Y25104761D01*
X-31190476Y25009523D01*
X-31095238Y24961904D01*
X-29666666Y28797619D02*
X-29666666Y28083333D01*
X-29619047Y27940476D01*
X-29523809Y27845238D01*
X-29380952Y27797619D01*
X-29285714Y27797619D01*
X-30142857Y27797619D02*
X-30142857Y28797619D01*
X-30523809Y28797619D01*
X-30619047Y28750000D01*
X-30666666Y28702380D01*
X-30714285Y28607142D01*
X-30714285Y28464285D01*
X-30666666Y28369047D01*
X-30619047Y28321428D01*
X-30523809Y28273809D01*
X-30142857Y28273809D01*
X-31095238Y28702380D02*
X-31142857Y28750000D01*
X-31238095Y28797619D01*
X-31476190Y28797619D01*
X-31571428Y28750000D01*
X-31619047Y28702380D01*
X-31666666Y28607142D01*
X-31666666Y28511904D01*
X-31619047Y28369047D01*
X-31047619Y27797619D01*
X-31666666Y27797619D01*
X-29651666Y32397619D02*
X-29651666Y31683333D01*
X-29604047Y31540476D01*
X-29508809Y31445238D01*
X-29365952Y31397619D01*
X-29270714Y31397619D01*
X-30127857Y31397619D02*
X-30127857Y32397619D01*
X-30508809Y32397619D01*
X-30604047Y32350000D01*
X-30651666Y32302380D01*
X-30699285Y32207142D01*
X-30699285Y32064285D01*
X-30651666Y31969047D01*
X-30604047Y31921428D01*
X-30508809Y31873809D01*
X-30127857Y31873809D01*
X-31032619Y32397619D02*
X-31651666Y32397619D01*
X-31318333Y32016666D01*
X-31461190Y32016666D01*
X-31556428Y31969047D01*
X-31604047Y31921428D01*
X-31651666Y31826190D01*
X-31651666Y31588095D01*
X-31604047Y31492857D01*
X-31556428Y31445238D01*
X-31461190Y31397619D01*
X-31175476Y31397619D01*
X-31080238Y31445238D01*
X-31032619Y31492857D01*
X-29651666Y35997619D02*
X-29651666Y35283333D01*
X-29604047Y35140476D01*
X-29508809Y35045238D01*
X-29365952Y34997619D01*
X-29270714Y34997619D01*
X-30127857Y34997619D02*
X-30127857Y35997619D01*
X-30508809Y35997619D01*
X-30604047Y35950000D01*
X-30651666Y35902380D01*
X-30699285Y35807142D01*
X-30699285Y35664285D01*
X-30651666Y35569047D01*
X-30604047Y35521428D01*
X-30508809Y35473809D01*
X-30127857Y35473809D01*
X-31556428Y35664285D02*
X-31556428Y34997619D01*
X-31318333Y36045238D02*
X-31080238Y35330952D01*
X-31699285Y35330952D01*
X27048333Y41597619D02*
X27048333Y40883333D01*
X27095952Y40740476D01*
X27191190Y40645238D01*
X27334047Y40597619D01*
X27429285Y40597619D01*
X26572142Y40597619D02*
X26572142Y41597619D01*
X26191190Y41597619D01*
X26095952Y41550000D01*
X26048333Y41502380D01*
X26000714Y41407142D01*
X26000714Y41264285D01*
X26048333Y41169047D01*
X26095952Y41121428D01*
X26191190Y41073809D01*
X26572142Y41073809D01*
X25095952Y41597619D02*
X25572142Y41597619D01*
X25619761Y41121428D01*
X25572142Y41169047D01*
X25476904Y41216666D01*
X25238809Y41216666D01*
X25143571Y41169047D01*
X25095952Y41121428D01*
X25048333Y41026190D01*
X25048333Y40788095D01*
X25095952Y40692857D01*
X25143571Y40645238D01*
X25238809Y40597619D01*
X25476904Y40597619D01*
X25572142Y40645238D01*
X25619761Y40692857D01*
X27048333Y38097619D02*
X27048333Y37383333D01*
X27095952Y37240476D01*
X27191190Y37145238D01*
X27334047Y37097619D01*
X27429285Y37097619D01*
X26572142Y37097619D02*
X26572142Y38097619D01*
X26191190Y38097619D01*
X26095952Y38050000D01*
X26048333Y38002380D01*
X26000714Y37907142D01*
X26000714Y37764285D01*
X26048333Y37669047D01*
X26095952Y37621428D01*
X26191190Y37573809D01*
X26572142Y37573809D01*
X25143571Y38097619D02*
X25334047Y38097619D01*
X25429285Y38050000D01*
X25476904Y38002380D01*
X25572142Y37859523D01*
X25619761Y37669047D01*
X25619761Y37288095D01*
X25572142Y37192857D01*
X25524523Y37145238D01*
X25429285Y37097619D01*
X25238809Y37097619D01*
X25143571Y37145238D01*
X25095952Y37192857D01*
X25048333Y37288095D01*
X25048333Y37526190D01*
X25095952Y37621428D01*
X25143571Y37669047D01*
X25238809Y37716666D01*
X25429285Y37716666D01*
X25524523Y37669047D01*
X25572142Y37621428D01*
X25619761Y37526190D01*
X27048333Y34597619D02*
X27048333Y33883333D01*
X27095952Y33740476D01*
X27191190Y33645238D01*
X27334047Y33597619D01*
X27429285Y33597619D01*
X26572142Y33597619D02*
X26572142Y34597619D01*
X26191190Y34597619D01*
X26095952Y34550000D01*
X26048333Y34502380D01*
X26000714Y34407142D01*
X26000714Y34264285D01*
X26048333Y34169047D01*
X26095952Y34121428D01*
X26191190Y34073809D01*
X26572142Y34073809D01*
X25667380Y34597619D02*
X25000714Y34597619D01*
X25429285Y33597619D01*
X27048333Y31097619D02*
X27048333Y30383333D01*
X27095952Y30240476D01*
X27191190Y30145238D01*
X27334047Y30097619D01*
X27429285Y30097619D01*
X26572142Y30097619D02*
X26572142Y31097619D01*
X26191190Y31097619D01*
X26095952Y31050000D01*
X26048333Y31002380D01*
X26000714Y30907142D01*
X26000714Y30764285D01*
X26048333Y30669047D01*
X26095952Y30621428D01*
X26191190Y30573809D01*
X26572142Y30573809D01*
X25429285Y30669047D02*
X25524523Y30716666D01*
X25572142Y30764285D01*
X25619761Y30859523D01*
X25619761Y30907142D01*
X25572142Y31002380D01*
X25524523Y31050000D01*
X25429285Y31097619D01*
X25238809Y31097619D01*
X25143571Y31050000D01*
X25095952Y31002380D01*
X25048333Y30907142D01*
X25048333Y30859523D01*
X25095952Y30764285D01*
X25143571Y30716666D01*
X25238809Y30669047D01*
X25429285Y30669047D01*
X25524523Y30621428D01*
X25572142Y30573809D01*
X25619761Y30478571D01*
X25619761Y30288095D01*
X25572142Y30192857D01*
X25524523Y30145238D01*
X25429285Y30097619D01*
X25238809Y30097619D01*
X25143571Y30145238D01*
X25095952Y30192857D01*
X25048333Y30288095D01*
X25048333Y30478571D01*
X25095952Y30573809D01*
X25143571Y30621428D01*
X25238809Y30669047D01*
M02*
