M48
; DRILL file {KiCad (5.1.2-1)-1} date Saturday, August 22, 2020 at 04:29:14 PM
; FORMAT={-:-/ absolute / inch / decimal}
; #@! TF.CreationDate,2020-08-22T16:29:14-05:00
; #@! TF.GenerationSoftware,Kicad,Pcbnew,(5.1.2-1)-1
; #@! TF.FileFunction,Plated,1,2,PTH
FMAT,2
INCH
T1C0.0138
T2C0.0157
T3C0.0276
T4C0.0394
T5C0.0400
%
G90
G05
T1
X-1.6411Y1.2776
X-1.6411Y-0.3524
X-1.6018Y0.9744
X-1.5703Y0.498
X-1.4994Y0.0174
X-1.4049Y1.435
X-1.401Y1.2815
X-1.3616Y-1.3642
X-1.3301Y-1.3996
X-1.2868Y-1.3287
X-1.2632Y1.6161
X-1.2396Y1.5886
X-1.1884Y-0.2461
X-1.1726Y1.4154
X-1.1687Y1.2697
X-1.1687Y1.128
X-1.1673Y0.9679
X-1.1673Y0.9679
X-1.1175Y1.5531
X-1.0821Y1.5886
X-1.0821Y1.4665
X-1.0821Y1.3799
X-1.0821Y1.3248
X-1.0801Y1.5276
X-1.0781Y1.2776
X-1.0781Y1.2224
X-1.0781Y1.1398
X-1.0781Y1.0886
X-0.9364Y-1.2264
X-0.8656Y1.4311
X-0.838Y1.3917
X-0.8144Y1.5531
X-0.7868Y1.5886
X-0.7868Y1.3209
X-0.7593Y1.3524
X-0.7494Y1.5906
X-0.7362Y1.1831
X-0.7081Y1.5925
X-0.7081Y1.2146
X-0.7002Y-1.2264
X-0.7002Y-1.313
X-0.6648Y1.6122
X-0.6648Y1.5335
X-0.6254Y1.6476
X-0.5742Y1.6122
X-0.1648Y-1.2264
X-0.1648Y-1.313
X0.3628Y-1.2264
X0.3628Y-1.313
X0.5557Y1.6476
X0.6187Y1.6122
X0.6581Y1.5335
X0.7093Y1.3957
X0.7368Y1.4311
X0.7368Y1.3209
X0.7407Y1.1319
X0.788Y1.3642
X0.8156Y1.2106
X0.8549Y1.2106
X0.8549Y1.1319
X0.8628Y1.6161
X0.8904Y-1.2264
X0.8904Y-1.3169
X0.9061Y1.6004
X0.91Y1.2657
X0.914Y1.561
X0.9573Y1.5453
X0.9573Y1.4075
X1.037Y1.2106
X1.103Y1.4075
X1.103Y1.1161
X1.1384Y1.5453
X1.5518Y1.0807
X1.5793Y1.3932
X1.6463Y1.0807
T2
X1.225Y-0.3496
X1.2663Y-0.248
X1.3037Y-0.1516
X1.6148Y1.2972
T3
X-1.1673Y0.8957
X-1.1673Y0.6398
X-1.1673Y0.3839
X-1.1673Y0.1309
X-1.1673Y-0.128
X-1.1673Y-0.3839
X-1.1673Y-0.5118
X-1.1673Y-0.6398
X-1.1673Y-0.8957
X-1.1673Y-1.1319
X-0.9232Y1.1319
X-0.9232Y-1.1319
X-0.6594Y1.1319
X-0.6594Y-1.1319
X-0.3957Y1.1319
X-0.3957Y-1.1319
X-0.1319Y1.1319
X-0.1319Y-1.1319
X0.1319Y1.1319
X0.1319Y-1.1319
X0.3957Y1.1319
X0.3957Y-1.1319
X0.6594Y1.1319
X0.6594Y-1.1319
X0.9232Y1.1319
X0.9232Y-1.1319
X1.1673Y0.8957
X1.1673Y0.6398
X1.1673Y0.3839
X1.1673Y0.128
X1.1673Y-0.128
X1.1673Y-0.3839
X1.1673Y-0.6398
X1.1673Y-0.8957
T4
X1.4Y0.75
X1.4Y0.65
X1.4Y0.55
X1.4Y0.45
X1.4Y0.35
X1.4Y0.25
X1.4Y0.15
X1.4Y0.05
X1.4Y-0.05
X1.4Y-0.15
X1.4Y-0.25
X1.4Y-0.35
X1.4Y-0.45
X1.4Y-0.55
X1.4Y-0.65
X1.4Y-0.75
X-1.4Y0.75
X-1.4Y0.65
X-1.4Y0.55
X-1.4Y0.45
X-1.4Y0.35
X-1.4Y0.25
X-1.4Y0.15
X-1.4Y0.05
X-1.4Y-0.05
X-1.4Y-0.15
X-1.4Y-0.25
X-1.4Y-0.35
X-1.4Y-0.45
X-1.4Y-0.55
X-1.4Y-0.65
X-1.4Y-0.75
T5
X1.1963Y1.3937
X1.1963Y1.2937
X1.2963Y1.3937
X1.2963Y1.2937
X1.3963Y1.3937
X1.3963Y1.2937
T0
M30
