G04 #@! TF.GenerationSoftware,KiCad,Pcbnew,(5.1.2-1)-1*
G04 #@! TF.CreationDate,2020-08-22T16:28:59-05:00*
G04 #@! TF.ProjectId,Core64 CB v0.4,436f7265-3634-4204-9342-2076302e342e,0.3*
G04 #@! TF.SameCoordinates,Original*
G04 #@! TF.FileFunction,Copper,L2,Bot*
G04 #@! TF.FilePolarity,Positive*
%FSLAX46Y46*%
G04 Gerber Fmt 4.6, Leading zero omitted, Abs format (unit mm)*
G04 Created by KiCad (PCBNEW (5.1.2-1)-1) date 2020-08-22 16:28:59*
%MOMM*%
%LPD*%
G04 APERTURE LIST*
%ADD10C,1.727200*%
%ADD11R,1.727200X1.727200*%
%ADD12O,1.727200X1.727200*%
%ADD13C,1.700000*%
%ADD14R,2.000000X1.000000*%
%ADD15R,1.500000X1.500000*%
%ADD16C,1.500000*%
%ADD17R,1.060000X0.650000*%
%ADD18C,0.100000*%
%ADD19C,0.975000*%
%ADD20R,1.000000X1.500000*%
%ADD21R,0.355600X1.676400*%
%ADD22C,0.635000*%
%ADD23C,0.650000*%
%ADD24C,0.635000*%
%ADD25C,0.600000*%
%ADD26C,0.400000*%
%ADD27C,0.300000*%
%ADD28C,0.500000*%
G04 APERTURE END LIST*
D10*
X30385000Y32860000D03*
D11*
X30385000Y35400000D03*
D12*
X32925000Y32860000D03*
X32925000Y35400000D03*
D10*
X35465000Y32860000D03*
X35465000Y35400000D03*
D13*
X-35560000Y-16510000D03*
X-35560000Y-1270000D03*
X-35560000Y11430000D03*
X-35560000Y19050000D03*
X-35560000Y16510000D03*
X-35560000Y8890000D03*
X-35560000Y6350000D03*
X-35560000Y1270000D03*
X-35560000Y3810000D03*
X-35560000Y13970000D03*
X-35560000Y-6350000D03*
X-35560000Y-11430000D03*
X-35560000Y-8890000D03*
X-35560000Y-19050000D03*
X-35560000Y-13970000D03*
X-35560000Y-3810000D03*
D14*
X-37560000Y-16510000D03*
X-37560000Y-11430000D03*
X-37560000Y-6350000D03*
X-37560000Y-1270000D03*
X-37560000Y3810000D03*
X-37560000Y8890000D03*
X-37560000Y13970000D03*
X-37560000Y19050000D03*
X-33560000Y-19050000D03*
X-33560000Y-13970000D03*
X-33560000Y-8890000D03*
X-33560000Y-3810000D03*
X-33560000Y1270000D03*
X-33560000Y6350000D03*
X-33560000Y11430000D03*
X-33560000Y16510000D03*
D13*
X35560000Y-16510000D03*
X35560000Y-1270000D03*
X35560000Y11430000D03*
X35560000Y19050000D03*
X35560000Y16510000D03*
X35560000Y8890000D03*
X35560000Y6350000D03*
X35560000Y1270000D03*
X35560000Y3810000D03*
X35560000Y13970000D03*
X35560000Y-6350000D03*
X35560000Y-11430000D03*
X35560000Y-8890000D03*
X35560000Y-19050000D03*
X35560000Y-13970000D03*
X35560000Y-3810000D03*
D14*
X33560000Y-16510000D03*
X33560000Y-11430000D03*
X33560000Y-6350000D03*
X33560000Y-1270000D03*
X33560000Y3810000D03*
X33560000Y8890000D03*
X33560000Y13970000D03*
X33560000Y19050000D03*
X37560000Y-19050000D03*
X37560000Y-13970000D03*
X37560000Y-8890000D03*
X37560000Y-3810000D03*
X37560000Y1270000D03*
X37560000Y6350000D03*
X37560000Y11430000D03*
X37560000Y16510000D03*
D15*
X-29650000Y-28750000D03*
X-29650000Y-13000000D03*
D16*
X29650000Y16250000D03*
X29650000Y9750000D03*
X29650000Y3250000D03*
X29650000Y-3250000D03*
X29650000Y-9750000D03*
X29650000Y-16250000D03*
X29650000Y-22750000D03*
X23450000Y-28750000D03*
X16750000Y-28750000D03*
X10050000Y-28750000D03*
X3350000Y-28750000D03*
X-3350000Y-28750000D03*
X-10050000Y-28750000D03*
X-16750000Y-28750000D03*
X-23450000Y-28750000D03*
X-29650000Y-22750000D03*
X-29650000Y-16250000D03*
X29650000Y22750000D03*
X23450000Y28750000D03*
X16750000Y28750000D03*
X10050000Y28750000D03*
X3350000Y28750000D03*
X-3350000Y28750000D03*
X-10050000Y28750000D03*
X-16750000Y28750000D03*
X-23450000Y28750000D03*
X-29650000Y22750000D03*
X-29650000Y16250000D03*
X-29650000Y9750000D03*
X-29650000Y3325000D03*
X-29650000Y-3250000D03*
X-29650000Y-9750000D03*
D17*
X-19085000Y-35600000D03*
X-19085000Y-33700000D03*
X-21285000Y-33700000D03*
X-21285000Y-34650000D03*
X-21285000Y-35600000D03*
X-5585000Y-35600000D03*
X-5585000Y-33700000D03*
X-7785000Y-33700000D03*
X-7785000Y-34650000D03*
X-7785000Y-35600000D03*
X7815000Y-35600000D03*
X7815000Y-33700000D03*
X5615000Y-33700000D03*
X5615000Y-34650000D03*
X5615000Y-35600000D03*
X21215000Y-35600000D03*
X21215000Y-33700000D03*
X19015000Y-33700000D03*
X19015000Y-34650000D03*
X19015000Y-35600000D03*
D18*
G36*
X-14279858Y-32651174D02*
G01*
X-14256197Y-32654684D01*
X-14232993Y-32660496D01*
X-14210471Y-32668554D01*
X-14188847Y-32678782D01*
X-14168330Y-32691079D01*
X-14149117Y-32705329D01*
X-14131393Y-32721393D01*
X-14115329Y-32739117D01*
X-14101079Y-32758330D01*
X-14088782Y-32778847D01*
X-14078554Y-32800471D01*
X-14070496Y-32822993D01*
X-14064684Y-32846197D01*
X-14061174Y-32869858D01*
X-14060000Y-32893750D01*
X-14060000Y-33806250D01*
X-14061174Y-33830142D01*
X-14064684Y-33853803D01*
X-14070496Y-33877007D01*
X-14078554Y-33899529D01*
X-14088782Y-33921153D01*
X-14101079Y-33941670D01*
X-14115329Y-33960883D01*
X-14131393Y-33978607D01*
X-14149117Y-33994671D01*
X-14168330Y-34008921D01*
X-14188847Y-34021218D01*
X-14210471Y-34031446D01*
X-14232993Y-34039504D01*
X-14256197Y-34045316D01*
X-14279858Y-34048826D01*
X-14303750Y-34050000D01*
X-14791250Y-34050000D01*
X-14815142Y-34048826D01*
X-14838803Y-34045316D01*
X-14862007Y-34039504D01*
X-14884529Y-34031446D01*
X-14906153Y-34021218D01*
X-14926670Y-34008921D01*
X-14945883Y-33994671D01*
X-14963607Y-33978607D01*
X-14979671Y-33960883D01*
X-14993921Y-33941670D01*
X-15006218Y-33921153D01*
X-15016446Y-33899529D01*
X-15024504Y-33877007D01*
X-15030316Y-33853803D01*
X-15033826Y-33830142D01*
X-15035000Y-33806250D01*
X-15035000Y-32893750D01*
X-15033826Y-32869858D01*
X-15030316Y-32846197D01*
X-15024504Y-32822993D01*
X-15016446Y-32800471D01*
X-15006218Y-32778847D01*
X-14993921Y-32758330D01*
X-14979671Y-32739117D01*
X-14963607Y-32721393D01*
X-14945883Y-32705329D01*
X-14926670Y-32691079D01*
X-14906153Y-32678782D01*
X-14884529Y-32668554D01*
X-14862007Y-32660496D01*
X-14838803Y-32654684D01*
X-14815142Y-32651174D01*
X-14791250Y-32650000D01*
X-14303750Y-32650000D01*
X-14279858Y-32651174D01*
X-14279858Y-32651174D01*
G37*
D19*
X-14547500Y-33350000D03*
D18*
G36*
X-16154858Y-32651174D02*
G01*
X-16131197Y-32654684D01*
X-16107993Y-32660496D01*
X-16085471Y-32668554D01*
X-16063847Y-32678782D01*
X-16043330Y-32691079D01*
X-16024117Y-32705329D01*
X-16006393Y-32721393D01*
X-15990329Y-32739117D01*
X-15976079Y-32758330D01*
X-15963782Y-32778847D01*
X-15953554Y-32800471D01*
X-15945496Y-32822993D01*
X-15939684Y-32846197D01*
X-15936174Y-32869858D01*
X-15935000Y-32893750D01*
X-15935000Y-33806250D01*
X-15936174Y-33830142D01*
X-15939684Y-33853803D01*
X-15945496Y-33877007D01*
X-15953554Y-33899529D01*
X-15963782Y-33921153D01*
X-15976079Y-33941670D01*
X-15990329Y-33960883D01*
X-16006393Y-33978607D01*
X-16024117Y-33994671D01*
X-16043330Y-34008921D01*
X-16063847Y-34021218D01*
X-16085471Y-34031446D01*
X-16107993Y-34039504D01*
X-16131197Y-34045316D01*
X-16154858Y-34048826D01*
X-16178750Y-34050000D01*
X-16666250Y-34050000D01*
X-16690142Y-34048826D01*
X-16713803Y-34045316D01*
X-16737007Y-34039504D01*
X-16759529Y-34031446D01*
X-16781153Y-34021218D01*
X-16801670Y-34008921D01*
X-16820883Y-33994671D01*
X-16838607Y-33978607D01*
X-16854671Y-33960883D01*
X-16868921Y-33941670D01*
X-16881218Y-33921153D01*
X-16891446Y-33899529D01*
X-16899504Y-33877007D01*
X-16905316Y-33853803D01*
X-16908826Y-33830142D01*
X-16910000Y-33806250D01*
X-16910000Y-32893750D01*
X-16908826Y-32869858D01*
X-16905316Y-32846197D01*
X-16899504Y-32822993D01*
X-16891446Y-32800471D01*
X-16881218Y-32778847D01*
X-16868921Y-32758330D01*
X-16854671Y-32739117D01*
X-16838607Y-32721393D01*
X-16820883Y-32705329D01*
X-16801670Y-32691079D01*
X-16781153Y-32678782D01*
X-16759529Y-32668554D01*
X-16737007Y-32660496D01*
X-16713803Y-32654684D01*
X-16690142Y-32651174D01*
X-16666250Y-32650000D01*
X-16178750Y-32650000D01*
X-16154858Y-32651174D01*
X-16154858Y-32651174D01*
G37*
D19*
X-16422500Y-33350000D03*
D18*
G36*
X-779858Y-32651174D02*
G01*
X-756197Y-32654684D01*
X-732993Y-32660496D01*
X-710471Y-32668554D01*
X-688847Y-32678782D01*
X-668330Y-32691079D01*
X-649117Y-32705329D01*
X-631393Y-32721393D01*
X-615329Y-32739117D01*
X-601079Y-32758330D01*
X-588782Y-32778847D01*
X-578554Y-32800471D01*
X-570496Y-32822993D01*
X-564684Y-32846197D01*
X-561174Y-32869858D01*
X-560000Y-32893750D01*
X-560000Y-33806250D01*
X-561174Y-33830142D01*
X-564684Y-33853803D01*
X-570496Y-33877007D01*
X-578554Y-33899529D01*
X-588782Y-33921153D01*
X-601079Y-33941670D01*
X-615329Y-33960883D01*
X-631393Y-33978607D01*
X-649117Y-33994671D01*
X-668330Y-34008921D01*
X-688847Y-34021218D01*
X-710471Y-34031446D01*
X-732993Y-34039504D01*
X-756197Y-34045316D01*
X-779858Y-34048826D01*
X-803750Y-34050000D01*
X-1291250Y-34050000D01*
X-1315142Y-34048826D01*
X-1338803Y-34045316D01*
X-1362007Y-34039504D01*
X-1384529Y-34031446D01*
X-1406153Y-34021218D01*
X-1426670Y-34008921D01*
X-1445883Y-33994671D01*
X-1463607Y-33978607D01*
X-1479671Y-33960883D01*
X-1493921Y-33941670D01*
X-1506218Y-33921153D01*
X-1516446Y-33899529D01*
X-1524504Y-33877007D01*
X-1530316Y-33853803D01*
X-1533826Y-33830142D01*
X-1535000Y-33806250D01*
X-1535000Y-32893750D01*
X-1533826Y-32869858D01*
X-1530316Y-32846197D01*
X-1524504Y-32822993D01*
X-1516446Y-32800471D01*
X-1506218Y-32778847D01*
X-1493921Y-32758330D01*
X-1479671Y-32739117D01*
X-1463607Y-32721393D01*
X-1445883Y-32705329D01*
X-1426670Y-32691079D01*
X-1406153Y-32678782D01*
X-1384529Y-32668554D01*
X-1362007Y-32660496D01*
X-1338803Y-32654684D01*
X-1315142Y-32651174D01*
X-1291250Y-32650000D01*
X-803750Y-32650000D01*
X-779858Y-32651174D01*
X-779858Y-32651174D01*
G37*
D19*
X-1047500Y-33350000D03*
D18*
G36*
X-2654858Y-32651174D02*
G01*
X-2631197Y-32654684D01*
X-2607993Y-32660496D01*
X-2585471Y-32668554D01*
X-2563847Y-32678782D01*
X-2543330Y-32691079D01*
X-2524117Y-32705329D01*
X-2506393Y-32721393D01*
X-2490329Y-32739117D01*
X-2476079Y-32758330D01*
X-2463782Y-32778847D01*
X-2453554Y-32800471D01*
X-2445496Y-32822993D01*
X-2439684Y-32846197D01*
X-2436174Y-32869858D01*
X-2435000Y-32893750D01*
X-2435000Y-33806250D01*
X-2436174Y-33830142D01*
X-2439684Y-33853803D01*
X-2445496Y-33877007D01*
X-2453554Y-33899529D01*
X-2463782Y-33921153D01*
X-2476079Y-33941670D01*
X-2490329Y-33960883D01*
X-2506393Y-33978607D01*
X-2524117Y-33994671D01*
X-2543330Y-34008921D01*
X-2563847Y-34021218D01*
X-2585471Y-34031446D01*
X-2607993Y-34039504D01*
X-2631197Y-34045316D01*
X-2654858Y-34048826D01*
X-2678750Y-34050000D01*
X-3166250Y-34050000D01*
X-3190142Y-34048826D01*
X-3213803Y-34045316D01*
X-3237007Y-34039504D01*
X-3259529Y-34031446D01*
X-3281153Y-34021218D01*
X-3301670Y-34008921D01*
X-3320883Y-33994671D01*
X-3338607Y-33978607D01*
X-3354671Y-33960883D01*
X-3368921Y-33941670D01*
X-3381218Y-33921153D01*
X-3391446Y-33899529D01*
X-3399504Y-33877007D01*
X-3405316Y-33853803D01*
X-3408826Y-33830142D01*
X-3410000Y-33806250D01*
X-3410000Y-32893750D01*
X-3408826Y-32869858D01*
X-3405316Y-32846197D01*
X-3399504Y-32822993D01*
X-3391446Y-32800471D01*
X-3381218Y-32778847D01*
X-3368921Y-32758330D01*
X-3354671Y-32739117D01*
X-3338607Y-32721393D01*
X-3320883Y-32705329D01*
X-3301670Y-32691079D01*
X-3281153Y-32678782D01*
X-3259529Y-32668554D01*
X-3237007Y-32660496D01*
X-3213803Y-32654684D01*
X-3190142Y-32651174D01*
X-3166250Y-32650000D01*
X-2678750Y-32650000D01*
X-2654858Y-32651174D01*
X-2654858Y-32651174D01*
G37*
D19*
X-2922500Y-33350000D03*
D18*
G36*
X12720142Y-32651174D02*
G01*
X12743803Y-32654684D01*
X12767007Y-32660496D01*
X12789529Y-32668554D01*
X12811153Y-32678782D01*
X12831670Y-32691079D01*
X12850883Y-32705329D01*
X12868607Y-32721393D01*
X12884671Y-32739117D01*
X12898921Y-32758330D01*
X12911218Y-32778847D01*
X12921446Y-32800471D01*
X12929504Y-32822993D01*
X12935316Y-32846197D01*
X12938826Y-32869858D01*
X12940000Y-32893750D01*
X12940000Y-33806250D01*
X12938826Y-33830142D01*
X12935316Y-33853803D01*
X12929504Y-33877007D01*
X12921446Y-33899529D01*
X12911218Y-33921153D01*
X12898921Y-33941670D01*
X12884671Y-33960883D01*
X12868607Y-33978607D01*
X12850883Y-33994671D01*
X12831670Y-34008921D01*
X12811153Y-34021218D01*
X12789529Y-34031446D01*
X12767007Y-34039504D01*
X12743803Y-34045316D01*
X12720142Y-34048826D01*
X12696250Y-34050000D01*
X12208750Y-34050000D01*
X12184858Y-34048826D01*
X12161197Y-34045316D01*
X12137993Y-34039504D01*
X12115471Y-34031446D01*
X12093847Y-34021218D01*
X12073330Y-34008921D01*
X12054117Y-33994671D01*
X12036393Y-33978607D01*
X12020329Y-33960883D01*
X12006079Y-33941670D01*
X11993782Y-33921153D01*
X11983554Y-33899529D01*
X11975496Y-33877007D01*
X11969684Y-33853803D01*
X11966174Y-33830142D01*
X11965000Y-33806250D01*
X11965000Y-32893750D01*
X11966174Y-32869858D01*
X11969684Y-32846197D01*
X11975496Y-32822993D01*
X11983554Y-32800471D01*
X11993782Y-32778847D01*
X12006079Y-32758330D01*
X12020329Y-32739117D01*
X12036393Y-32721393D01*
X12054117Y-32705329D01*
X12073330Y-32691079D01*
X12093847Y-32678782D01*
X12115471Y-32668554D01*
X12137993Y-32660496D01*
X12161197Y-32654684D01*
X12184858Y-32651174D01*
X12208750Y-32650000D01*
X12696250Y-32650000D01*
X12720142Y-32651174D01*
X12720142Y-32651174D01*
G37*
D19*
X12452500Y-33350000D03*
D18*
G36*
X10845142Y-32651174D02*
G01*
X10868803Y-32654684D01*
X10892007Y-32660496D01*
X10914529Y-32668554D01*
X10936153Y-32678782D01*
X10956670Y-32691079D01*
X10975883Y-32705329D01*
X10993607Y-32721393D01*
X11009671Y-32739117D01*
X11023921Y-32758330D01*
X11036218Y-32778847D01*
X11046446Y-32800471D01*
X11054504Y-32822993D01*
X11060316Y-32846197D01*
X11063826Y-32869858D01*
X11065000Y-32893750D01*
X11065000Y-33806250D01*
X11063826Y-33830142D01*
X11060316Y-33853803D01*
X11054504Y-33877007D01*
X11046446Y-33899529D01*
X11036218Y-33921153D01*
X11023921Y-33941670D01*
X11009671Y-33960883D01*
X10993607Y-33978607D01*
X10975883Y-33994671D01*
X10956670Y-34008921D01*
X10936153Y-34021218D01*
X10914529Y-34031446D01*
X10892007Y-34039504D01*
X10868803Y-34045316D01*
X10845142Y-34048826D01*
X10821250Y-34050000D01*
X10333750Y-34050000D01*
X10309858Y-34048826D01*
X10286197Y-34045316D01*
X10262993Y-34039504D01*
X10240471Y-34031446D01*
X10218847Y-34021218D01*
X10198330Y-34008921D01*
X10179117Y-33994671D01*
X10161393Y-33978607D01*
X10145329Y-33960883D01*
X10131079Y-33941670D01*
X10118782Y-33921153D01*
X10108554Y-33899529D01*
X10100496Y-33877007D01*
X10094684Y-33853803D01*
X10091174Y-33830142D01*
X10090000Y-33806250D01*
X10090000Y-32893750D01*
X10091174Y-32869858D01*
X10094684Y-32846197D01*
X10100496Y-32822993D01*
X10108554Y-32800471D01*
X10118782Y-32778847D01*
X10131079Y-32758330D01*
X10145329Y-32739117D01*
X10161393Y-32721393D01*
X10179117Y-32705329D01*
X10198330Y-32691079D01*
X10218847Y-32678782D01*
X10240471Y-32668554D01*
X10262993Y-32660496D01*
X10286197Y-32654684D01*
X10309858Y-32651174D01*
X10333750Y-32650000D01*
X10821250Y-32650000D01*
X10845142Y-32651174D01*
X10845142Y-32651174D01*
G37*
D19*
X10577500Y-33350000D03*
D18*
G36*
X26120142Y-32651174D02*
G01*
X26143803Y-32654684D01*
X26167007Y-32660496D01*
X26189529Y-32668554D01*
X26211153Y-32678782D01*
X26231670Y-32691079D01*
X26250883Y-32705329D01*
X26268607Y-32721393D01*
X26284671Y-32739117D01*
X26298921Y-32758330D01*
X26311218Y-32778847D01*
X26321446Y-32800471D01*
X26329504Y-32822993D01*
X26335316Y-32846197D01*
X26338826Y-32869858D01*
X26340000Y-32893750D01*
X26340000Y-33806250D01*
X26338826Y-33830142D01*
X26335316Y-33853803D01*
X26329504Y-33877007D01*
X26321446Y-33899529D01*
X26311218Y-33921153D01*
X26298921Y-33941670D01*
X26284671Y-33960883D01*
X26268607Y-33978607D01*
X26250883Y-33994671D01*
X26231670Y-34008921D01*
X26211153Y-34021218D01*
X26189529Y-34031446D01*
X26167007Y-34039504D01*
X26143803Y-34045316D01*
X26120142Y-34048826D01*
X26096250Y-34050000D01*
X25608750Y-34050000D01*
X25584858Y-34048826D01*
X25561197Y-34045316D01*
X25537993Y-34039504D01*
X25515471Y-34031446D01*
X25493847Y-34021218D01*
X25473330Y-34008921D01*
X25454117Y-33994671D01*
X25436393Y-33978607D01*
X25420329Y-33960883D01*
X25406079Y-33941670D01*
X25393782Y-33921153D01*
X25383554Y-33899529D01*
X25375496Y-33877007D01*
X25369684Y-33853803D01*
X25366174Y-33830142D01*
X25365000Y-33806250D01*
X25365000Y-32893750D01*
X25366174Y-32869858D01*
X25369684Y-32846197D01*
X25375496Y-32822993D01*
X25383554Y-32800471D01*
X25393782Y-32778847D01*
X25406079Y-32758330D01*
X25420329Y-32739117D01*
X25436393Y-32721393D01*
X25454117Y-32705329D01*
X25473330Y-32691079D01*
X25493847Y-32678782D01*
X25515471Y-32668554D01*
X25537993Y-32660496D01*
X25561197Y-32654684D01*
X25584858Y-32651174D01*
X25608750Y-32650000D01*
X26096250Y-32650000D01*
X26120142Y-32651174D01*
X26120142Y-32651174D01*
G37*
D19*
X25852500Y-33350000D03*
D18*
G36*
X24245142Y-32651174D02*
G01*
X24268803Y-32654684D01*
X24292007Y-32660496D01*
X24314529Y-32668554D01*
X24336153Y-32678782D01*
X24356670Y-32691079D01*
X24375883Y-32705329D01*
X24393607Y-32721393D01*
X24409671Y-32739117D01*
X24423921Y-32758330D01*
X24436218Y-32778847D01*
X24446446Y-32800471D01*
X24454504Y-32822993D01*
X24460316Y-32846197D01*
X24463826Y-32869858D01*
X24465000Y-32893750D01*
X24465000Y-33806250D01*
X24463826Y-33830142D01*
X24460316Y-33853803D01*
X24454504Y-33877007D01*
X24446446Y-33899529D01*
X24436218Y-33921153D01*
X24423921Y-33941670D01*
X24409671Y-33960883D01*
X24393607Y-33978607D01*
X24375883Y-33994671D01*
X24356670Y-34008921D01*
X24336153Y-34021218D01*
X24314529Y-34031446D01*
X24292007Y-34039504D01*
X24268803Y-34045316D01*
X24245142Y-34048826D01*
X24221250Y-34050000D01*
X23733750Y-34050000D01*
X23709858Y-34048826D01*
X23686197Y-34045316D01*
X23662993Y-34039504D01*
X23640471Y-34031446D01*
X23618847Y-34021218D01*
X23598330Y-34008921D01*
X23579117Y-33994671D01*
X23561393Y-33978607D01*
X23545329Y-33960883D01*
X23531079Y-33941670D01*
X23518782Y-33921153D01*
X23508554Y-33899529D01*
X23500496Y-33877007D01*
X23494684Y-33853803D01*
X23491174Y-33830142D01*
X23490000Y-33806250D01*
X23490000Y-32893750D01*
X23491174Y-32869858D01*
X23494684Y-32846197D01*
X23500496Y-32822993D01*
X23508554Y-32800471D01*
X23518782Y-32778847D01*
X23531079Y-32758330D01*
X23545329Y-32739117D01*
X23561393Y-32721393D01*
X23579117Y-32705329D01*
X23598330Y-32691079D01*
X23618847Y-32678782D01*
X23640471Y-32668554D01*
X23662993Y-32660496D01*
X23686197Y-32654684D01*
X23709858Y-32651174D01*
X23733750Y-32650000D01*
X24221250Y-32650000D01*
X24245142Y-32651174D01*
X24245142Y-32651174D01*
G37*
D19*
X23977500Y-33350000D03*
D18*
G36*
X-37204858Y33873826D02*
G01*
X-37181197Y33870316D01*
X-37157993Y33864504D01*
X-37135471Y33856446D01*
X-37113847Y33846218D01*
X-37093330Y33833921D01*
X-37074117Y33819671D01*
X-37056393Y33803607D01*
X-37040329Y33785883D01*
X-37026079Y33766670D01*
X-37013782Y33746153D01*
X-37003554Y33724529D01*
X-36995496Y33702007D01*
X-36989684Y33678803D01*
X-36986174Y33655142D01*
X-36985000Y33631250D01*
X-36985000Y33143750D01*
X-36986174Y33119858D01*
X-36989684Y33096197D01*
X-36995496Y33072993D01*
X-37003554Y33050471D01*
X-37013782Y33028847D01*
X-37026079Y33008330D01*
X-37040329Y32989117D01*
X-37056393Y32971393D01*
X-37074117Y32955329D01*
X-37093330Y32941079D01*
X-37113847Y32928782D01*
X-37135471Y32918554D01*
X-37157993Y32910496D01*
X-37181197Y32904684D01*
X-37204858Y32901174D01*
X-37228750Y32900000D01*
X-38141250Y32900000D01*
X-38165142Y32901174D01*
X-38188803Y32904684D01*
X-38212007Y32910496D01*
X-38234529Y32918554D01*
X-38256153Y32928782D01*
X-38276670Y32941079D01*
X-38295883Y32955329D01*
X-38313607Y32971393D01*
X-38329671Y32989117D01*
X-38343921Y33008330D01*
X-38356218Y33028847D01*
X-38366446Y33050471D01*
X-38374504Y33072993D01*
X-38380316Y33096197D01*
X-38383826Y33119858D01*
X-38385000Y33143750D01*
X-38385000Y33631250D01*
X-38383826Y33655142D01*
X-38380316Y33678803D01*
X-38374504Y33702007D01*
X-38366446Y33724529D01*
X-38356218Y33746153D01*
X-38343921Y33766670D01*
X-38329671Y33785883D01*
X-38313607Y33803607D01*
X-38295883Y33819671D01*
X-38276670Y33833921D01*
X-38256153Y33846218D01*
X-38234529Y33856446D01*
X-38212007Y33864504D01*
X-38188803Y33870316D01*
X-38165142Y33873826D01*
X-38141250Y33875000D01*
X-37228750Y33875000D01*
X-37204858Y33873826D01*
X-37204858Y33873826D01*
G37*
D19*
X-37685000Y33387500D03*
D18*
G36*
X-37204858Y31998826D02*
G01*
X-37181197Y31995316D01*
X-37157993Y31989504D01*
X-37135471Y31981446D01*
X-37113847Y31971218D01*
X-37093330Y31958921D01*
X-37074117Y31944671D01*
X-37056393Y31928607D01*
X-37040329Y31910883D01*
X-37026079Y31891670D01*
X-37013782Y31871153D01*
X-37003554Y31849529D01*
X-36995496Y31827007D01*
X-36989684Y31803803D01*
X-36986174Y31780142D01*
X-36985000Y31756250D01*
X-36985000Y31268750D01*
X-36986174Y31244858D01*
X-36989684Y31221197D01*
X-36995496Y31197993D01*
X-37003554Y31175471D01*
X-37013782Y31153847D01*
X-37026079Y31133330D01*
X-37040329Y31114117D01*
X-37056393Y31096393D01*
X-37074117Y31080329D01*
X-37093330Y31066079D01*
X-37113847Y31053782D01*
X-37135471Y31043554D01*
X-37157993Y31035496D01*
X-37181197Y31029684D01*
X-37204858Y31026174D01*
X-37228750Y31025000D01*
X-38141250Y31025000D01*
X-38165142Y31026174D01*
X-38188803Y31029684D01*
X-38212007Y31035496D01*
X-38234529Y31043554D01*
X-38256153Y31053782D01*
X-38276670Y31066079D01*
X-38295883Y31080329D01*
X-38313607Y31096393D01*
X-38329671Y31114117D01*
X-38343921Y31133330D01*
X-38356218Y31153847D01*
X-38366446Y31175471D01*
X-38374504Y31197993D01*
X-38380316Y31221197D01*
X-38383826Y31244858D01*
X-38385000Y31268750D01*
X-38385000Y31756250D01*
X-38383826Y31780142D01*
X-38380316Y31803803D01*
X-38374504Y31827007D01*
X-38366446Y31849529D01*
X-38356218Y31871153D01*
X-38343921Y31891670D01*
X-38329671Y31910883D01*
X-38313607Y31928607D01*
X-38295883Y31944671D01*
X-38276670Y31958921D01*
X-38256153Y31971218D01*
X-38234529Y31981446D01*
X-38212007Y31989504D01*
X-38188803Y31995316D01*
X-38165142Y31998826D01*
X-38141250Y32000000D01*
X-37228750Y32000000D01*
X-37204858Y31998826D01*
X-37204858Y31998826D01*
G37*
D19*
X-37685000Y31512500D03*
D20*
X39765000Y-35950000D03*
X38465000Y-35950000D03*
X38465000Y-31650000D03*
X39765000Y-31650000D03*
D21*
X-18049999Y32180600D03*
X-18700000Y32180600D03*
X-19350001Y32180600D03*
X-20000000Y32180600D03*
X-20649999Y32180600D03*
X-21300000Y32180600D03*
X-21949999Y32180600D03*
X-21950001Y37819400D03*
X-21300000Y37819400D03*
X-20650001Y37819400D03*
X-20000000Y37819400D03*
X-19350001Y37819400D03*
X-18700000Y37819400D03*
X-18050001Y37819400D03*
D18*
G36*
X-15404858Y38273826D02*
G01*
X-15381197Y38270316D01*
X-15357993Y38264504D01*
X-15335471Y38256446D01*
X-15313847Y38246218D01*
X-15293330Y38233921D01*
X-15274117Y38219671D01*
X-15256393Y38203607D01*
X-15240329Y38185883D01*
X-15226079Y38166670D01*
X-15213782Y38146153D01*
X-15203554Y38124529D01*
X-15195496Y38102007D01*
X-15189684Y38078803D01*
X-15186174Y38055142D01*
X-15185000Y38031250D01*
X-15185000Y37543750D01*
X-15186174Y37519858D01*
X-15189684Y37496197D01*
X-15195496Y37472993D01*
X-15203554Y37450471D01*
X-15213782Y37428847D01*
X-15226079Y37408330D01*
X-15240329Y37389117D01*
X-15256393Y37371393D01*
X-15274117Y37355329D01*
X-15293330Y37341079D01*
X-15313847Y37328782D01*
X-15335471Y37318554D01*
X-15357993Y37310496D01*
X-15381197Y37304684D01*
X-15404858Y37301174D01*
X-15428750Y37300000D01*
X-16341250Y37300000D01*
X-16365142Y37301174D01*
X-16388803Y37304684D01*
X-16412007Y37310496D01*
X-16434529Y37318554D01*
X-16456153Y37328782D01*
X-16476670Y37341079D01*
X-16495883Y37355329D01*
X-16513607Y37371393D01*
X-16529671Y37389117D01*
X-16543921Y37408330D01*
X-16556218Y37428847D01*
X-16566446Y37450471D01*
X-16574504Y37472993D01*
X-16580316Y37496197D01*
X-16583826Y37519858D01*
X-16585000Y37543750D01*
X-16585000Y38031250D01*
X-16583826Y38055142D01*
X-16580316Y38078803D01*
X-16574504Y38102007D01*
X-16566446Y38124529D01*
X-16556218Y38146153D01*
X-16543921Y38166670D01*
X-16529671Y38185883D01*
X-16513607Y38203607D01*
X-16495883Y38219671D01*
X-16476670Y38233921D01*
X-16456153Y38246218D01*
X-16434529Y38256446D01*
X-16412007Y38264504D01*
X-16388803Y38270316D01*
X-16365142Y38273826D01*
X-16341250Y38275000D01*
X-15428750Y38275000D01*
X-15404858Y38273826D01*
X-15404858Y38273826D01*
G37*
D19*
X-15885000Y37787500D03*
D18*
G36*
X-15404858Y36398826D02*
G01*
X-15381197Y36395316D01*
X-15357993Y36389504D01*
X-15335471Y36381446D01*
X-15313847Y36371218D01*
X-15293330Y36358921D01*
X-15274117Y36344671D01*
X-15256393Y36328607D01*
X-15240329Y36310883D01*
X-15226079Y36291670D01*
X-15213782Y36271153D01*
X-15203554Y36249529D01*
X-15195496Y36227007D01*
X-15189684Y36203803D01*
X-15186174Y36180142D01*
X-15185000Y36156250D01*
X-15185000Y35668750D01*
X-15186174Y35644858D01*
X-15189684Y35621197D01*
X-15195496Y35597993D01*
X-15203554Y35575471D01*
X-15213782Y35553847D01*
X-15226079Y35533330D01*
X-15240329Y35514117D01*
X-15256393Y35496393D01*
X-15274117Y35480329D01*
X-15293330Y35466079D01*
X-15313847Y35453782D01*
X-15335471Y35443554D01*
X-15357993Y35435496D01*
X-15381197Y35429684D01*
X-15404858Y35426174D01*
X-15428750Y35425000D01*
X-16341250Y35425000D01*
X-16365142Y35426174D01*
X-16388803Y35429684D01*
X-16412007Y35435496D01*
X-16434529Y35443554D01*
X-16456153Y35453782D01*
X-16476670Y35466079D01*
X-16495883Y35480329D01*
X-16513607Y35496393D01*
X-16529671Y35514117D01*
X-16543921Y35533330D01*
X-16556218Y35553847D01*
X-16566446Y35575471D01*
X-16574504Y35597993D01*
X-16580316Y35621197D01*
X-16583826Y35644858D01*
X-16585000Y35668750D01*
X-16585000Y36156250D01*
X-16583826Y36180142D01*
X-16580316Y36203803D01*
X-16574504Y36227007D01*
X-16566446Y36249529D01*
X-16556218Y36271153D01*
X-16543921Y36291670D01*
X-16529671Y36310883D01*
X-16513607Y36328607D01*
X-16495883Y36344671D01*
X-16476670Y36358921D01*
X-16456153Y36371218D01*
X-16434529Y36381446D01*
X-16412007Y36389504D01*
X-16388803Y36395316D01*
X-16365142Y36398826D01*
X-16341250Y36400000D01*
X-15428750Y36400000D01*
X-15404858Y36398826D01*
X-15404858Y36398826D01*
G37*
D19*
X-15885000Y35912500D03*
D18*
G36*
X16195142Y34573826D02*
G01*
X16218803Y34570316D01*
X16242007Y34564504D01*
X16264529Y34556446D01*
X16286153Y34546218D01*
X16306670Y34533921D01*
X16325883Y34519671D01*
X16343607Y34503607D01*
X16359671Y34485883D01*
X16373921Y34466670D01*
X16386218Y34446153D01*
X16396446Y34424529D01*
X16404504Y34402007D01*
X16410316Y34378803D01*
X16413826Y34355142D01*
X16415000Y34331250D01*
X16415000Y33843750D01*
X16413826Y33819858D01*
X16410316Y33796197D01*
X16404504Y33772993D01*
X16396446Y33750471D01*
X16386218Y33728847D01*
X16373921Y33708330D01*
X16359671Y33689117D01*
X16343607Y33671393D01*
X16325883Y33655329D01*
X16306670Y33641079D01*
X16286153Y33628782D01*
X16264529Y33618554D01*
X16242007Y33610496D01*
X16218803Y33604684D01*
X16195142Y33601174D01*
X16171250Y33600000D01*
X15258750Y33600000D01*
X15234858Y33601174D01*
X15211197Y33604684D01*
X15187993Y33610496D01*
X15165471Y33618554D01*
X15143847Y33628782D01*
X15123330Y33641079D01*
X15104117Y33655329D01*
X15086393Y33671393D01*
X15070329Y33689117D01*
X15056079Y33708330D01*
X15043782Y33728847D01*
X15033554Y33750471D01*
X15025496Y33772993D01*
X15019684Y33796197D01*
X15016174Y33819858D01*
X15015000Y33843750D01*
X15015000Y34331250D01*
X15016174Y34355142D01*
X15019684Y34378803D01*
X15025496Y34402007D01*
X15033554Y34424529D01*
X15043782Y34446153D01*
X15056079Y34466670D01*
X15070329Y34485883D01*
X15086393Y34503607D01*
X15104117Y34519671D01*
X15123330Y34533921D01*
X15143847Y34546218D01*
X15165471Y34556446D01*
X15187993Y34564504D01*
X15211197Y34570316D01*
X15234858Y34573826D01*
X15258750Y34575000D01*
X16171250Y34575000D01*
X16195142Y34573826D01*
X16195142Y34573826D01*
G37*
D19*
X15715000Y34087500D03*
D18*
G36*
X16195142Y32698826D02*
G01*
X16218803Y32695316D01*
X16242007Y32689504D01*
X16264529Y32681446D01*
X16286153Y32671218D01*
X16306670Y32658921D01*
X16325883Y32644671D01*
X16343607Y32628607D01*
X16359671Y32610883D01*
X16373921Y32591670D01*
X16386218Y32571153D01*
X16396446Y32549529D01*
X16404504Y32527007D01*
X16410316Y32503803D01*
X16413826Y32480142D01*
X16415000Y32456250D01*
X16415000Y31968750D01*
X16413826Y31944858D01*
X16410316Y31921197D01*
X16404504Y31897993D01*
X16396446Y31875471D01*
X16386218Y31853847D01*
X16373921Y31833330D01*
X16359671Y31814117D01*
X16343607Y31796393D01*
X16325883Y31780329D01*
X16306670Y31766079D01*
X16286153Y31753782D01*
X16264529Y31743554D01*
X16242007Y31735496D01*
X16218803Y31729684D01*
X16195142Y31726174D01*
X16171250Y31725000D01*
X15258750Y31725000D01*
X15234858Y31726174D01*
X15211197Y31729684D01*
X15187993Y31735496D01*
X15165471Y31743554D01*
X15143847Y31753782D01*
X15123330Y31766079D01*
X15104117Y31780329D01*
X15086393Y31796393D01*
X15070329Y31814117D01*
X15056079Y31833330D01*
X15043782Y31853847D01*
X15033554Y31875471D01*
X15025496Y31897993D01*
X15019684Y31921197D01*
X15016174Y31944858D01*
X15015000Y31968750D01*
X15015000Y32456250D01*
X15016174Y32480142D01*
X15019684Y32503803D01*
X15025496Y32527007D01*
X15033554Y32549529D01*
X15043782Y32571153D01*
X15056079Y32591670D01*
X15070329Y32610883D01*
X15086393Y32628607D01*
X15104117Y32644671D01*
X15123330Y32658921D01*
X15143847Y32671218D01*
X15165471Y32681446D01*
X15187993Y32689504D01*
X15211197Y32695316D01*
X15234858Y32698826D01*
X15258750Y32700000D01*
X16171250Y32700000D01*
X16195142Y32698826D01*
X16195142Y32698826D01*
G37*
D19*
X15715000Y32212500D03*
D20*
X39765000Y-27350000D03*
X38465000Y-27350000D03*
X38465000Y-23050000D03*
X39765000Y-23050000D03*
X-39765000Y-23050000D03*
X-38465000Y-23050000D03*
X-38465000Y-27350000D03*
X-39765000Y-27350000D03*
X-39765000Y-31650000D03*
X-38465000Y-31650000D03*
X-38465000Y-35950000D03*
X-39765000Y-35950000D03*
D21*
X18049999Y37819400D03*
X18700000Y37819400D03*
X19350001Y37819400D03*
X20000000Y37819400D03*
X20649999Y37819400D03*
X21300000Y37819400D03*
X21949999Y37819400D03*
X21950001Y32180600D03*
X21300000Y32180600D03*
X20650001Y32180600D03*
X20000000Y32180600D03*
X19350001Y32180600D03*
X18700000Y32180600D03*
X18050001Y32180600D03*
D20*
X-29850000Y26500000D03*
X-31150000Y26500000D03*
X-31150000Y30050000D03*
X-29850000Y30050000D03*
X-31135000Y33650000D03*
X-29835000Y33650000D03*
X-29835000Y37250000D03*
X-31135000Y37250000D03*
X26865000Y39250000D03*
X25565000Y39250000D03*
X25565000Y35750000D03*
X26865000Y35750000D03*
X26865000Y32250000D03*
X25565000Y32250000D03*
X25565000Y28750000D03*
X26865000Y28750000D03*
D22*
X31114992Y-8880609D03*
X32165000Y-6300008D03*
X33114930Y-3850000D03*
D23*
X20715000Y30750000D03*
X21715000Y28750000D03*
X21715000Y30750000D03*
X18815000Y28750000D03*
X24315000Y35750000D03*
X20015000Y34650000D03*
X24315000Y39250000D03*
X18715000Y36350000D03*
X-29785000Y35950000D03*
X-20685000Y39450000D03*
X-27485000Y37250000D03*
X-29685000Y32250000D03*
X-21285000Y35350000D03*
X-27485000Y33650000D03*
X-29685000Y28650000D03*
X-19985000Y33550000D03*
X-27385000Y31050000D03*
X-29650000Y24585000D03*
X-29650000Y24585000D03*
X-18700000Y30050000D03*
X-27385000Y27650000D03*
X-41685000Y-8950000D03*
X-41685000Y32450000D03*
X-34585000Y-34650000D03*
X-16885000Y40950000D03*
X21915000Y41050000D03*
X15715000Y40950000D03*
X-14585000Y40950000D03*
X-35585000Y32550000D03*
X-30185000Y-6250000D03*
X-17785000Y-33350000D03*
X-4185000Y-33350000D03*
X9215000Y-33350000D03*
X22615000Y-33450000D03*
X22615000Y-31150000D03*
X9215000Y-31150000D03*
X-4185000Y-31150000D03*
X-17785000Y-31150000D03*
X-23785000Y-31150000D03*
X14115000Y41850000D03*
X-15885000Y41850000D03*
X-28385000Y39450000D03*
X-35685000Y36450000D03*
X-33785000Y-35550000D03*
X-27485000Y40350000D03*
X-19035000Y40400000D03*
X23215000Y39650000D03*
X-31485000Y40350000D03*
X-38085000Y443010D03*
X-32685000Y-33750000D03*
X23015000Y40650000D03*
X-17985000Y40450000D03*
X-32085000Y41050000D03*
X-19985000Y40350000D03*
X-27435000Y38800000D03*
X-39885000Y12650000D03*
X-40685000Y24750000D03*
X-17985000Y30850000D03*
X-27385000Y28950000D03*
X-19285000Y34350000D03*
X-27385000Y32450000D03*
X-21985000Y36350000D03*
X-27485000Y35050000D03*
X23115000Y32150000D03*
X26340000Y30750000D03*
X28915000Y39250000D03*
X18015000Y35450000D03*
X28015000Y28350000D03*
X28015000Y35750000D03*
X18715000Y33550000D03*
X39415000Y27450000D03*
X41815000Y27450000D03*
X-16885000Y38950000D03*
X16715000Y38950000D03*
D22*
X41015000Y32950000D03*
D23*
X40115000Y35386842D03*
D24*
X33345000Y-8890000D02*
X35560000Y-8890000D01*
X37215000Y-8890000D02*
X35560000Y-8890000D01*
X35560000Y-8890000D02*
X31124383Y-8890000D01*
X31124383Y-8890000D02*
X31114992Y-8880609D01*
D25*
X33905000Y-1270000D02*
X35560000Y-1270000D01*
X32214992Y-6350000D02*
X32165000Y-6300008D01*
X35560000Y-6350000D02*
X32214992Y-6350000D01*
X35560000Y-3810000D02*
X37215000Y-3810000D01*
X35560000Y-3810000D02*
X33154930Y-3810000D01*
X33154930Y-3810000D02*
X33114930Y-3850000D01*
X33905000Y8890000D02*
X35560000Y8890000D01*
X35610000Y6400000D02*
X35560000Y6350000D01*
X35560000Y6350000D02*
X37215000Y6350000D01*
X33905000Y3810000D02*
X35560000Y3810000D01*
X35560000Y1270000D02*
X37215000Y1270000D01*
X25565000Y28750000D02*
X23450000Y28750000D01*
D26*
X20650001Y30814999D02*
X20715000Y30750000D01*
X20650001Y32180600D02*
X20650001Y30814999D01*
D25*
X-10050000Y28565000D02*
X-10050000Y28750000D01*
X-8935000Y27450000D02*
X-10050000Y28565000D01*
X15450000Y27450000D02*
X-8935000Y27450000D01*
X16750000Y28750000D02*
X15450000Y27450000D01*
D26*
X21315000Y31250000D02*
X21315000Y32150000D01*
X21715000Y30850000D02*
X21315000Y31250000D01*
D25*
X25565000Y31200000D02*
X25565000Y32250000D01*
X25115000Y30750000D02*
X25565000Y31200000D01*
X21715000Y30750000D02*
X25115000Y30750000D01*
X21715000Y28750000D02*
X18815000Y28750000D01*
X25565000Y35750000D02*
X24315000Y35750000D01*
D26*
X20015000Y34650000D02*
X20015000Y37804400D01*
D25*
X-12285000Y30050000D02*
X8750000Y30050000D01*
X8750000Y30050000D02*
X10050000Y28750000D01*
X-13585000Y28750000D02*
X-12285000Y30050000D01*
X-16750000Y28750000D02*
X-13585000Y28750000D01*
X-23450000Y28835000D02*
X-23450000Y28750000D01*
X25615000Y39250000D02*
X24315000Y39250000D01*
X24315000Y39250000D02*
X24315000Y39250000D01*
D26*
X18715000Y36350000D02*
X18715000Y37804400D01*
D25*
X-35560000Y6350000D02*
X-33905000Y6350000D01*
X-32585000Y6350000D02*
X-35560000Y6350000D01*
X-31185000Y-3850000D02*
X-31185000Y4950000D01*
X-29385000Y-9485000D02*
X-29385000Y-5650000D01*
X-29385000Y-5650000D02*
X-31185000Y-3850000D01*
X-29650000Y-9750000D02*
X-29385000Y-9485000D01*
X-31185000Y4950000D02*
X-32585000Y6350000D01*
X-29685000Y-22715000D02*
X-29650000Y-22750000D01*
X-29685000Y-18150000D02*
X-29685000Y-22715000D01*
X-30985000Y-16850000D02*
X-29685000Y-18150000D01*
X-30985000Y-11085000D02*
X-30985000Y-16850000D01*
X-29650000Y-9750000D02*
X-30985000Y-11085000D01*
X-35560000Y8890000D02*
X-37215000Y8890000D01*
X-28900001Y-15500001D02*
X-29650000Y-16250000D01*
X-28385000Y-14985000D02*
X-28900001Y-15500001D01*
X-28385000Y-4515000D02*
X-28385000Y-14985000D01*
X-29650000Y-3250000D02*
X-28385000Y-4515000D01*
X-29785000Y35950000D02*
X-29785000Y37100000D01*
X-29785000Y37100000D02*
X-29835000Y37150000D01*
X-27885000Y37250000D02*
X-29835000Y37250000D01*
X-27485000Y37250000D02*
X-27885000Y37250000D01*
D26*
X-20685000Y39450000D02*
X-20685000Y37850000D01*
D25*
X-29685000Y33500000D02*
X-29835000Y33650000D01*
X-29685000Y32250000D02*
X-29685000Y33500000D01*
D26*
X-21285000Y36350000D02*
X-21285000Y37850000D01*
X-21285000Y35350000D02*
X-21285000Y36350000D01*
D25*
X-27485000Y33650000D02*
X-29835000Y33650000D01*
X-29685000Y29750000D02*
X-29985000Y30050000D01*
X-29685000Y28650000D02*
X-29685000Y29750000D01*
D26*
X-19985000Y33550000D02*
X-19985000Y32195600D01*
D25*
X-28385000Y30050000D02*
X-29850000Y30050000D01*
X-27385000Y31050000D02*
X-28385000Y30050000D01*
X-29650000Y26300000D02*
X-29850000Y26500000D01*
X-29650000Y24585000D02*
X-29650000Y26300000D01*
D26*
X-18685000Y32450000D02*
X-18700000Y30050000D01*
D25*
X-28535000Y26500000D02*
X-29850000Y26500000D01*
X-27385000Y27650000D02*
X-28535000Y26500000D01*
D27*
X-35560000Y3810000D02*
X-37215000Y3810000D01*
X-33905000Y1270000D02*
X-35560000Y1270000D01*
D25*
X-33905000Y-8890000D02*
X-35560000Y-8890000D01*
X-14547500Y-33350000D02*
X-14547500Y-34512500D01*
X-14547500Y-34512500D02*
X-14685000Y-34650000D01*
X-14685000Y-34650000D02*
X-7785000Y-34650000D01*
X-21285000Y-34650000D02*
X-14685000Y-34650000D01*
X-1047500Y-34487500D02*
X-885000Y-34650000D01*
X-1047500Y-33350000D02*
X-1047500Y-34487500D01*
X-885000Y-34650000D02*
X5615000Y-34650000D01*
X-7785000Y-34650000D02*
X-885000Y-34650000D01*
X12452500Y-33350000D02*
X12452500Y-34612500D01*
X12452500Y-34612500D02*
X12415000Y-34650000D01*
X12415000Y-34650000D02*
X5615000Y-34650000D01*
X19015000Y-34650000D02*
X12415000Y-34650000D01*
X25852500Y-34412500D02*
X25852500Y-33450000D01*
X25615000Y-34650000D02*
X25852500Y-34412500D01*
X19015000Y-34650000D02*
X25615000Y-34650000D01*
X-35620000Y-8950000D02*
X-41685000Y-8950000D01*
X-35560000Y-8890000D02*
X-35620000Y-8950000D01*
X-21285000Y-34650000D02*
X-34585000Y-34650000D01*
X32215000Y31050000D02*
X30405000Y32860000D01*
X36415000Y31050000D02*
X32215000Y31050000D01*
X37215000Y37350000D02*
X37215000Y31850000D01*
X30405000Y32860000D02*
X30385000Y32860000D01*
X37215000Y31850000D02*
X36415000Y31050000D01*
X32715000Y41850000D02*
X37215000Y37350000D01*
X22015000Y41050000D02*
X22815000Y41850000D01*
X21915000Y41050000D02*
X21915000Y41050000D01*
X22815000Y41850000D02*
X32715000Y41850000D01*
X21915000Y41050000D02*
X22015000Y41050000D01*
X-17785000Y41850000D02*
X-16885000Y40950000D01*
X-32485000Y41850000D02*
X-17785000Y41850000D01*
X-41685000Y32450000D02*
X-32485000Y41850000D01*
D26*
X21915000Y41050000D02*
X21915000Y37854399D01*
X15715000Y34087500D02*
X15715000Y40950000D01*
X-14822500Y35912500D02*
X-15885000Y35912500D01*
X-14585000Y36150000D02*
X-14822500Y35912500D01*
X-14585000Y40950000D02*
X-14585000Y36150000D01*
X-21985000Y30050000D02*
X-21985000Y32145599D01*
X-21085000Y29150000D02*
X-21985000Y30050000D01*
X-18285000Y29150000D02*
X-21085000Y29150000D01*
X-15885000Y31550000D02*
X-18285000Y29150000D01*
X-15885000Y35912500D02*
X-15885000Y31550000D01*
D25*
X-39685000Y31450000D02*
X-37685000Y31450000D01*
X-40685000Y31450000D02*
X-39685000Y31450000D01*
X-41685000Y32450000D02*
X-40685000Y31450000D01*
X-37685000Y31512500D02*
X-36622500Y31512500D01*
X-36622500Y31512500D02*
X-35585000Y32550000D01*
X-35585000Y32550000D02*
X-35585000Y32550000D01*
X29650000Y-5515000D02*
X29650000Y-8689340D01*
X29650000Y16250000D02*
X31115000Y14785000D01*
X31115000Y14785000D02*
X31115000Y-4050000D01*
X31115000Y-4050000D02*
X29650000Y-5515000D01*
X29650000Y-8689340D02*
X29650000Y-9750000D01*
X28900001Y-22000001D02*
X29650000Y-22750000D01*
X28315000Y1915000D02*
X28315000Y-21415000D01*
X28315000Y-21415000D02*
X28900001Y-22000001D01*
X29650000Y3250000D02*
X28315000Y1915000D01*
X-37215000Y-6350000D02*
X-35560000Y-6350000D01*
X-30226706Y-6291706D02*
X-30185000Y-6250000D01*
X-35501706Y-6291706D02*
X-30226706Y-6291706D01*
X-35560000Y-6350000D02*
X-35501706Y-6291706D01*
X30185000Y35600000D02*
X30385000Y35400000D01*
X-17785000Y-33350000D02*
X-16422500Y-33350000D01*
X-18735000Y-33350000D02*
X-19085000Y-33700000D01*
X-17785000Y-33350000D02*
X-18735000Y-33350000D01*
X-4535000Y-33700000D02*
X-4185000Y-33350000D01*
X-5585000Y-33700000D02*
X-4535000Y-33700000D01*
X-4185000Y-33350000D02*
X-2922500Y-33350000D01*
X8865000Y-33700000D02*
X9215000Y-33350000D01*
X7815000Y-33700000D02*
X8865000Y-33700000D01*
X9215000Y-33350000D02*
X10577500Y-33350000D01*
X22365000Y-33700000D02*
X22615000Y-33450000D01*
X21215000Y-33700000D02*
X22365000Y-33700000D01*
X23977500Y-33450000D02*
X22615000Y-33450000D01*
X9215000Y-31150000D02*
X22215000Y-31150000D01*
X22215000Y-31150000D02*
X22615000Y-31150000D01*
X-4185000Y-31150000D02*
X9215000Y-31150000D01*
X-17785000Y-31150000D02*
X-4185000Y-31150000D01*
X-23785000Y-31150000D02*
X-17785000Y-31150000D01*
X18018101Y32212500D02*
X18050001Y32180600D01*
D26*
X15715000Y32212500D02*
X18018101Y32212500D01*
X15715000Y32212500D02*
X14652500Y32212500D01*
X14652500Y32212500D02*
X14115000Y32750000D01*
X14115000Y32750000D02*
X14115000Y41850000D01*
X-15885000Y37787500D02*
X-15885000Y41850000D01*
D25*
X-37685000Y33387500D02*
X-37685000Y34450000D01*
X-37685000Y34450000D02*
X-35685000Y36450000D01*
X-35585000Y36550000D02*
X-32685000Y39450000D01*
X-32685000Y39450000D02*
X-28385000Y39450000D01*
X-35685000Y36450000D02*
X-35585000Y36550000D01*
D26*
X-18085000Y37787500D02*
X-15885000Y37787500D01*
D25*
X-33905000Y-3810000D02*
X-35560000Y-3810000D01*
D27*
X-7785000Y-35650000D02*
X-7785000Y-35600000D01*
X-8585000Y-36450000D02*
X-7785000Y-35650000D01*
X-20230000Y-36450000D02*
X-8585000Y-36450000D01*
X-21080000Y-35600000D02*
X-20230000Y-36450000D01*
X-21285000Y-35600000D02*
X-21080000Y-35600000D01*
X5665000Y-35600000D02*
X5615000Y-35600000D01*
X18175000Y-36450000D02*
X6515000Y-36450000D01*
X19015000Y-35610000D02*
X18175000Y-36450000D01*
X6515000Y-36450000D02*
X5665000Y-35600000D01*
X19015000Y-35600000D02*
X19015000Y-35610000D01*
X-6985000Y-36450000D02*
X-7785000Y-35650000D01*
X4715000Y-36450000D02*
X-6985000Y-36450000D01*
X5565000Y-35600000D02*
X4715000Y-36450000D01*
X5615000Y-35600000D02*
X5565000Y-35600000D01*
X19015000Y-35600000D02*
X19015000Y-35650000D01*
X-21335000Y-35550000D02*
X-21285000Y-35600000D01*
X-33785000Y-35550000D02*
X-21335000Y-35550000D01*
X-27485000Y40350000D02*
X-27485000Y40350000D01*
X23215000Y39650000D02*
X23215000Y39650000D01*
X32925000Y38240000D02*
X32925000Y35400000D01*
X30715000Y40450000D02*
X32925000Y38240000D01*
X24015000Y40450000D02*
X30715000Y40450000D01*
X23215000Y39650000D02*
X24015000Y40450000D01*
X-31485000Y40350000D02*
X-27485000Y40350000D01*
X-35560000Y-1270000D02*
X-37215000Y-1270000D01*
X19015000Y-33700000D02*
X19015000Y-33650000D01*
X-7785000Y-32950000D02*
X-7785000Y-33700000D01*
X4715000Y-32150000D02*
X-6985000Y-32150000D01*
X-6985000Y-32150000D02*
X-7785000Y-32950000D01*
X5615000Y-33050000D02*
X4715000Y-32150000D01*
X5615000Y-33700000D02*
X5615000Y-33050000D01*
X-21285000Y-33050000D02*
X-21285000Y-33700000D01*
X-20385000Y-32150000D02*
X-21285000Y-33050000D01*
X-8585000Y-32150000D02*
X-20385000Y-32150000D01*
X-7785000Y-32950000D02*
X-8585000Y-32150000D01*
X5615000Y-32950000D02*
X5615000Y-33700000D01*
X6415000Y-32150000D02*
X5615000Y-32950000D01*
X18115000Y-32150000D02*
X6415000Y-32150000D01*
X19015000Y-33050000D02*
X18115000Y-32150000D01*
X19015000Y-33650000D02*
X19015000Y-33050000D01*
X-37215000Y-420000D02*
X-37215000Y-1270000D01*
X-37881505Y246505D02*
X-37215000Y-420000D01*
X-38085000Y443010D02*
X-37881505Y246505D01*
X-21335000Y-33750000D02*
X-21285000Y-33700000D01*
X-32685000Y-33750000D02*
X-21335000Y-33750000D01*
X34215000Y34150000D02*
X32925000Y32860000D01*
X34215000Y38350000D02*
X34215000Y34150000D01*
X23015000Y40650000D02*
X23415000Y41050000D01*
X31565000Y41000000D02*
X34215000Y38350000D01*
X31515000Y41050000D02*
X31565000Y41000000D01*
X23415000Y41050000D02*
X31515000Y41050000D01*
X-18685000Y41150000D02*
X-17985000Y40450000D01*
X-31985000Y41150000D02*
X-18685000Y41150000D01*
X-32085000Y41050000D02*
X-31985000Y41150000D01*
D25*
X-35560000Y11430000D02*
X-33905000Y11430000D01*
X-31135000Y38300000D02*
X-31135000Y37250000D01*
X-30785000Y38650000D02*
X-31135000Y38300000D01*
X-27585000Y38650000D02*
X-30785000Y38650000D01*
X-27435000Y38800000D02*
X-27585000Y38650000D01*
D26*
X-19985000Y40350000D02*
X-19985000Y37750000D01*
D25*
X-38665000Y11430000D02*
X-39885000Y12650000D01*
X-35560000Y11430000D02*
X-38665000Y11430000D01*
X-31085000Y35950000D02*
X-31085000Y37050000D01*
X-32385000Y34650000D02*
X-31085000Y35950000D01*
X-32385000Y33050000D02*
X-32385000Y34650000D01*
X-40685000Y24750000D02*
X-32385000Y33050000D01*
X-37215000Y19050000D02*
X-35560000Y19050000D01*
X-33085000Y26550000D02*
X-31185000Y26550000D01*
X-37215000Y22420000D02*
X-33085000Y26550000D01*
X-37215000Y19050000D02*
X-37215000Y22420000D01*
D26*
X-17985000Y30850000D02*
X-17985000Y32250000D01*
D25*
X-31150000Y27585000D02*
X-31150000Y26500000D01*
X-30885000Y27850000D02*
X-31150000Y27585000D01*
X-28485000Y27850000D02*
X-30885000Y27850000D01*
X-27385000Y28950000D02*
X-28485000Y27850000D01*
X-33905000Y16510000D02*
X-35560000Y16510000D01*
D26*
X-19285000Y34350000D02*
X-19285000Y32150000D01*
D25*
X-27385000Y32450000D02*
X-28385000Y31450000D01*
X-31150000Y31185000D02*
X-31150000Y30050000D01*
X-30885000Y31450000D02*
X-31150000Y31185000D01*
X-28385000Y31450000D02*
X-30885000Y31450000D01*
X-31485000Y30050000D02*
X-31185000Y30050000D01*
X-39185000Y22350000D02*
X-31485000Y30050000D01*
X-39185000Y17550000D02*
X-39185000Y22350000D01*
X-38145000Y16510000D02*
X-39185000Y17550000D01*
X-35560000Y16510000D02*
X-38145000Y16510000D01*
D26*
X-21985000Y36350000D02*
X-21985000Y37784401D01*
D25*
X-31135000Y34600000D02*
X-31135000Y33650000D01*
X-30685000Y35050000D02*
X-31135000Y34600000D01*
X-27485000Y35050000D02*
X-30685000Y35050000D01*
X-31185000Y32350000D02*
X-31185000Y33650000D01*
X-38505000Y13970000D02*
X-40110000Y15575000D01*
X-40110000Y23425000D02*
X-31185000Y32350000D01*
X-40110000Y15575000D02*
X-40110000Y23425000D01*
X-35560000Y13970000D02*
X-38505000Y13970000D01*
X35560000Y16510000D02*
X37215000Y16510000D01*
D26*
X23115000Y32150000D02*
X21980601Y32150000D01*
D25*
X26815000Y31475000D02*
X26815000Y32150000D01*
X26815000Y31225000D02*
X26815000Y31475000D01*
X26340000Y30750000D02*
X26815000Y31225000D01*
X35560000Y11430000D02*
X37215000Y11430000D01*
X26815000Y39250000D02*
X28915000Y39250000D01*
D26*
X18015000Y35450000D02*
X18015000Y37784401D01*
D25*
X33905000Y19050000D02*
X35560000Y19050000D01*
D26*
X20015000Y30050000D02*
X20015000Y32165600D01*
X20115000Y29950000D02*
X20015000Y30050000D01*
D28*
X26815000Y29950000D02*
X20115000Y29950000D01*
X26815000Y28750000D02*
X26815000Y29950000D01*
X26865000Y28750000D02*
X26815000Y28750000D01*
D25*
X27615000Y28750000D02*
X26865000Y28750000D01*
X28015000Y28350000D02*
X27615000Y28750000D01*
X33905000Y13970000D02*
X35560000Y13970000D01*
X26815000Y35750000D02*
X28015000Y35750000D01*
D26*
X19415000Y35700000D02*
X19415000Y38050000D01*
X18715000Y35000000D02*
X19415000Y35700000D01*
X18715000Y33550000D02*
X18715000Y35000000D01*
X39765000Y-35950000D02*
X39765000Y-31650000D01*
X39765000Y-31650000D02*
X39765000Y-27350000D01*
X39765000Y-27350000D02*
X39765000Y-23050000D01*
X-39185000Y-37650000D02*
X-39765000Y-37070000D01*
X39365000Y-37650000D02*
X-39185000Y-37650000D01*
X-39765000Y-37070000D02*
X-39765000Y-35950000D01*
X39765000Y-37250000D02*
X39365000Y-37650000D01*
X39765000Y-35950000D02*
X39765000Y-37250000D01*
X-39765000Y-35950000D02*
X-39765000Y-31650000D01*
X-39765000Y-31650000D02*
X-39765000Y-27350000D01*
X-39765000Y-27350000D02*
X-39765000Y-23050000D01*
D27*
X19350001Y32180600D02*
X18700000Y32180600D01*
X20649999Y37819400D02*
X21300000Y37819400D01*
X-18700000Y37819400D02*
X-19350001Y37819400D01*
X-19350001Y37819400D02*
X-19350001Y36384999D01*
X-20649999Y35085001D02*
X-20649999Y32180600D01*
X-19350001Y36384999D02*
X-20649999Y35085001D01*
X-20649999Y32180600D02*
X-21300000Y32180600D01*
X20649999Y34384999D02*
X20649999Y37819400D01*
X19350001Y33085001D02*
X20649999Y34384999D01*
X19350001Y32180600D02*
X19350001Y33085001D01*
D26*
X40815000Y-23050000D02*
X39765000Y-23050000D01*
X41815000Y-22050000D02*
X40815000Y-23050000D01*
X41815000Y27450000D02*
X41815000Y-22050000D01*
D27*
X20615000Y38950000D02*
X20615000Y37854399D01*
X20615000Y37854399D02*
X20649999Y37819400D01*
X-18685000Y38950000D02*
X-16885000Y38950000D01*
X-18685000Y37819400D02*
X-18685000Y38950000D01*
X16715000Y38950000D02*
X20615000Y38950000D01*
D26*
X18715000Y31150000D02*
X18715000Y32150000D01*
X18015000Y28150000D02*
X18015000Y30450000D01*
X18015000Y30450000D02*
X18715000Y31150000D01*
X18715000Y27450000D02*
X18015000Y28150000D01*
X39415000Y27450000D02*
X18715000Y27450000D01*
D27*
X-37485000Y-27350000D02*
X-38485000Y-27350000D01*
X-32185000Y-22050000D02*
X-37485000Y-27350000D01*
X-32185000Y-18350000D02*
X-32185000Y-22050000D01*
X-34025000Y-16510000D02*
X-32185000Y-18350000D01*
X-35560000Y-16510000D02*
X-34025000Y-16510000D01*
D25*
X-35560000Y-16510000D02*
X-37560000Y-16510000D01*
D27*
X-35560000Y-11430000D02*
X-37215000Y-11430000D01*
X-30985000Y-29450000D02*
X-37485000Y-35950000D01*
X-30985000Y-17850000D02*
X-30985000Y-29450000D01*
X-37485000Y-35950000D02*
X-38465000Y-35950000D01*
X-35560000Y-11430000D02*
X-33405000Y-11430000D01*
X-31885000Y-16950000D02*
X-30985000Y-17850000D01*
X-31885000Y-12950000D02*
X-31885000Y-16950000D01*
X-33405000Y-11430000D02*
X-31885000Y-12950000D01*
D25*
X-35560000Y-11430000D02*
X-37560000Y-11430000D01*
D27*
X-35560000Y-21600000D02*
X-35560000Y-19050000D01*
X-37010000Y-23050000D02*
X-35560000Y-21600000D01*
X-38585000Y-23050000D02*
X-37010000Y-23050000D01*
D25*
X-35560000Y-19050000D02*
X-33560000Y-19050000D01*
D27*
X-37485000Y-31650000D02*
X-38585000Y-31650000D01*
X-31585000Y-18050000D02*
X-31585000Y-25750000D01*
X-31585000Y-25750000D02*
X-37485000Y-31650000D01*
X-33535000Y-16100000D02*
X-31585000Y-18050000D01*
X-33535000Y-13970000D02*
X-33535000Y-16100000D01*
D25*
X-34590000Y-13970000D02*
X-35560000Y-13970000D01*
D27*
X-34590000Y-13970000D02*
X-33535000Y-13970000D01*
D25*
X-33560000Y-13970000D02*
X-35560000Y-13970000D01*
D27*
X35560000Y-13970000D02*
X37215000Y-13970000D01*
X35580000Y-13950000D02*
X35560000Y-13970000D01*
X38915000Y-13950000D02*
X35580000Y-13950000D01*
X41015000Y-11850000D02*
X38915000Y-13950000D01*
X41015000Y32950000D02*
X41015000Y-11850000D01*
X32995000Y-13970000D02*
X35560000Y-13970000D01*
X32015000Y-14950000D02*
X32995000Y-13970000D01*
X32015000Y-26050000D02*
X32015000Y-14950000D01*
X37615000Y-31650000D02*
X32015000Y-26050000D01*
X38515000Y-31650000D02*
X37615000Y-31650000D01*
D25*
X35560000Y-13970000D02*
X37560000Y-13970000D01*
D27*
X35560000Y-19050000D02*
X37215000Y-19050000D01*
X37615000Y-23050000D02*
X38415000Y-23050000D01*
X37215000Y-22650000D02*
X37615000Y-23050000D01*
X37215000Y-19050000D02*
X37215000Y-22650000D01*
D25*
X35560000Y-19050000D02*
X37560000Y-19050000D01*
D27*
X35560000Y-11430000D02*
X33905000Y-11430000D01*
X37565000Y-35950000D02*
X38415000Y-35950000D01*
X31115000Y-29500000D02*
X37565000Y-35950000D01*
X32235000Y-11430000D02*
X31115000Y-12550000D01*
X31115000Y-12550000D02*
X31115000Y-29500000D01*
X33905000Y-11430000D02*
X32235000Y-11430000D01*
X40115000Y35386842D02*
X40115000Y35386842D01*
X40113769Y33851231D02*
X40115000Y35386842D01*
X40115000Y33850000D02*
X40113769Y33851231D01*
X40115000Y-9050000D02*
X40115000Y33850000D01*
X37735000Y-11430000D02*
X40115000Y-9050000D01*
X35560000Y-11430000D02*
X37735000Y-11430000D01*
D25*
X35560000Y-11430000D02*
X33560000Y-11430000D01*
D27*
X33905000Y-16510000D02*
X35560000Y-16510000D01*
X37615000Y-27350000D02*
X38465000Y-27350000D01*
X33905000Y-23640000D02*
X37615000Y-27350000D01*
X33905000Y-16510000D02*
X33905000Y-23640000D01*
D25*
X35560000Y-16510000D02*
X33560000Y-16510000D01*
M02*
