G04 #@! TF.GenerationSoftware,KiCad,Pcbnew,(5.1.2-1)-1*
G04 #@! TF.CreationDate,2020-08-22T16:28:59-05:00*
G04 #@! TF.ProjectId,Core64 CB v0.4,436f7265-3634-4204-9342-2076302e342e,0.3*
G04 #@! TF.SameCoordinates,Original*
G04 #@! TF.FileFunction,Copper,L1,Top*
G04 #@! TF.FilePolarity,Positive*
%FSLAX46Y46*%
G04 Gerber Fmt 4.6, Leading zero omitted, Abs format (unit mm)*
G04 Created by KiCad (PCBNEW (5.1.2-1)-1) date 2020-08-22 16:28:59*
%MOMM*%
%LPD*%
G04 APERTURE LIST*
%ADD10C,1.727200*%
%ADD11R,1.727200X1.727200*%
%ADD12O,1.727200X1.727200*%
%ADD13C,1.700000*%
%ADD14R,0.812800X0.660400*%
%ADD15R,1.500000X1.500000*%
%ADD16C,1.500000*%
%ADD17C,0.635000*%
%ADD18C,0.650000*%
%ADD19C,0.635000*%
%ADD20C,0.600000*%
%ADD21C,0.300000*%
%ADD22C,0.400000*%
G04 APERTURE END LIST*
D10*
X30385000Y32860000D03*
D11*
X30385000Y35400000D03*
D12*
X32925000Y32860000D03*
X32925000Y35400000D03*
D10*
X35465000Y32860000D03*
X35465000Y35400000D03*
D13*
X-35560000Y-16510000D03*
X-35560000Y-1270000D03*
X-35560000Y11430000D03*
X-35560000Y19050000D03*
X-35560000Y16510000D03*
X-35560000Y8890000D03*
X-35560000Y6350000D03*
X-35560000Y1270000D03*
X-35560000Y3810000D03*
X-35560000Y13970000D03*
X-35560000Y-6350000D03*
X-35560000Y-11430000D03*
X-35560000Y-8890000D03*
X-35560000Y-19050000D03*
X-35560000Y-13970000D03*
X-35560000Y-3810000D03*
X35560000Y-16510000D03*
X35560000Y-1270000D03*
X35560000Y11430000D03*
X35560000Y19050000D03*
X35560000Y16510000D03*
X35560000Y8890000D03*
X35560000Y6350000D03*
X35560000Y1270000D03*
X35560000Y3810000D03*
X35560000Y13970000D03*
X35560000Y-6350000D03*
X35560000Y-11430000D03*
X35560000Y-8890000D03*
X35560000Y-19050000D03*
X35560000Y-13970000D03*
X35560000Y-3810000D03*
D14*
X-35596900Y35099999D03*
X-35596900Y33900001D03*
X-34403100Y33900001D03*
X-34403100Y35099999D03*
D15*
X-29650000Y-28750000D03*
X-29650000Y-13000000D03*
D16*
X29650000Y16250000D03*
X29650000Y9750000D03*
X29650000Y3250000D03*
X29650000Y-3250000D03*
X29650000Y-9750000D03*
X29650000Y-16250000D03*
X29650000Y-22750000D03*
X23450000Y-28750000D03*
X16750000Y-28750000D03*
X10050000Y-28750000D03*
X3350000Y-28750000D03*
X-3350000Y-28750000D03*
X-10050000Y-28750000D03*
X-16750000Y-28750000D03*
X-23450000Y-28750000D03*
X-29650000Y-22750000D03*
X-29650000Y-16250000D03*
X29650000Y22750000D03*
X23450000Y28750000D03*
X16750000Y28750000D03*
X10050000Y28750000D03*
X3350000Y28750000D03*
X-3350000Y28750000D03*
X-10050000Y28750000D03*
X-16750000Y28750000D03*
X-23450000Y28750000D03*
X-29650000Y22750000D03*
X-29650000Y16250000D03*
X-29650000Y9750000D03*
X-29650000Y3325000D03*
X-29650000Y-3250000D03*
X-29650000Y-9750000D03*
D17*
X31114992Y-8880609D03*
X32165000Y-6300008D03*
X33114930Y-3850000D03*
D18*
X20715000Y30750000D03*
X21715000Y28750000D03*
X21715000Y30750000D03*
X18815000Y28750000D03*
X24315000Y35750000D03*
X20015000Y34650000D03*
X24315000Y39250000D03*
X18715000Y36350000D03*
X-29785000Y35950000D03*
X-20685000Y39450000D03*
X-27485000Y37250000D03*
X-29685000Y32250000D03*
X-21285000Y35350000D03*
X-27485000Y33650000D03*
X-29685000Y28650000D03*
X-19985000Y33550000D03*
X-27385000Y31050000D03*
X-29650000Y24585000D03*
X-29650000Y24585000D03*
X-18700000Y30050000D03*
X-27385000Y27650000D03*
X-41685000Y-8950000D03*
X-41685000Y32450000D03*
X-34585000Y-34650000D03*
X-16885000Y40950000D03*
X21915000Y41050000D03*
X15715000Y40950000D03*
X-14585000Y40950000D03*
X-35585000Y32550000D03*
X-30185000Y-6250000D03*
X-17785000Y-33350000D03*
X-4185000Y-33350000D03*
X9215000Y-33350000D03*
X22615000Y-33450000D03*
X22615000Y-31150000D03*
X9215000Y-31150000D03*
X-4185000Y-31150000D03*
X-17785000Y-31150000D03*
X-23785000Y-31150000D03*
X14115000Y41850000D03*
X-15885000Y41850000D03*
X-28385000Y39450000D03*
X-35685000Y36450000D03*
X-33785000Y-35550000D03*
X-27485000Y40350000D03*
X-19035000Y40400000D03*
X23215000Y39650000D03*
X-31485000Y40350000D03*
X-38085000Y443010D03*
X-32685000Y-33750000D03*
X23015000Y40650000D03*
X-17985000Y40450000D03*
X-32085000Y41050000D03*
X-19985000Y40350000D03*
X-27435000Y38800000D03*
X-39885000Y12650000D03*
X-40685000Y24750000D03*
X-17985000Y30850000D03*
X-27385000Y28950000D03*
X-19285000Y34350000D03*
X-27385000Y32450000D03*
X-21985000Y36350000D03*
X-27485000Y35050000D03*
X23115000Y32150000D03*
X26340000Y30750000D03*
X28915000Y39250000D03*
X18015000Y35450000D03*
X28015000Y28350000D03*
X28015000Y35750000D03*
X18715000Y33550000D03*
X39415000Y27450000D03*
X41815000Y27450000D03*
X-16885000Y38950000D03*
X16715000Y38950000D03*
D17*
X41015000Y32950000D03*
D18*
X40115000Y35386842D03*
D19*
X31114992Y-9329621D02*
X31114992Y-8880609D01*
X28015000Y-28750000D02*
X31114992Y-25650008D01*
X31114992Y-25650008D02*
X31114992Y-9329621D01*
X23450000Y-28750000D02*
X28015000Y-28750000D01*
D20*
X10150000Y-35550000D02*
X3350000Y-28750000D01*
X25644556Y-35550000D02*
X10150000Y-35550000D01*
X34056308Y-27138248D02*
X25644556Y-35550000D01*
X34056308Y-2608692D02*
X34056308Y-27138248D01*
X35560000Y-1270000D02*
X34056308Y-2608692D01*
X17040490Y-29040490D02*
X17040490Y-29040490D01*
X17040490Y-29040490D02*
X17040490Y-29040490D01*
X17040490Y-29040490D02*
X17040490Y-29040490D01*
X17040490Y-29040490D02*
X17040490Y-29040490D01*
X17040490Y-29040490D02*
X17040490Y-29040490D01*
X17040490Y-29040490D02*
X17040490Y-29040490D01*
X17040490Y-29040490D02*
X17040490Y-29040490D01*
X17040490Y-29040490D02*
X17040490Y-29040490D01*
X17040490Y-29040490D02*
X17040490Y-29040490D01*
X17040490Y-29040490D02*
X17040490Y-29040490D01*
X17040490Y-29040490D02*
X17040490Y-29040490D01*
X17040490Y-29040490D02*
X17040490Y-29040490D01*
X17040490Y-29040490D02*
X17040490Y-29040490D01*
X17040490Y-29040490D02*
X17040490Y-29040490D01*
X17040490Y-29040490D02*
X17040490Y-29040490D01*
X16750000Y-28750000D02*
X17040490Y-29040490D01*
X32165000Y-6749020D02*
X32165000Y-6300008D01*
X32165000Y-26000000D02*
X32165000Y-6749020D01*
X28115000Y-30050000D02*
X32165000Y-26000000D01*
X18050000Y-30050000D02*
X28115000Y-30050000D01*
X16750000Y-28750000D02*
X18050000Y-30050000D01*
X33114930Y-26571396D02*
X33114930Y-4299012D01*
X25236326Y-34450000D02*
X33114930Y-26571396D01*
X33114930Y-4299012D02*
X33114930Y-3850000D01*
X15750000Y-34450000D02*
X25236326Y-34450000D01*
X10050000Y-28750000D02*
X15750000Y-34450000D01*
X38575000Y8890000D02*
X35560000Y8890000D01*
X40115000Y7350000D02*
X38575000Y8890000D01*
X40115000Y-27450000D02*
X40115000Y7350000D01*
X27715000Y-39850000D02*
X40115000Y-27450000D01*
X-12350000Y-39850000D02*
X27715000Y-39850000D01*
X-23450000Y-28750000D02*
X-12350000Y-39850000D01*
X-6750000Y-38750000D02*
X-16750000Y-28750000D01*
X27315000Y-38750000D02*
X-6750000Y-38750000D01*
X39115000Y-26950000D02*
X27315000Y-38750000D01*
X39115000Y5050000D02*
X39115000Y-26950000D01*
X37815000Y6350000D02*
X39115000Y5050000D01*
X35560000Y6350000D02*
X37815000Y6350000D01*
X35670000Y3700000D02*
X35560000Y3810000D01*
X37165000Y3700000D02*
X35670000Y3700000D01*
X38115000Y2750000D02*
X37165000Y3700000D01*
X38115000Y-26239168D02*
X38115000Y2750000D01*
X26704168Y-37650000D02*
X38115000Y-26239168D01*
X-1150000Y-37650000D02*
X26704168Y-37650000D01*
X-10050000Y-28750000D02*
X-1150000Y-37650000D01*
X4450000Y-36550000D02*
X-3350000Y-28750000D01*
X35560000Y1270000D02*
X35590000Y1300000D01*
X35590000Y1300000D02*
X35965000Y1300000D01*
X37215000Y-25589056D02*
X26254056Y-36550000D01*
X37215000Y50000D02*
X37215000Y-25589056D01*
X26254056Y-36550000D02*
X4450000Y-36550000D01*
X35965000Y1300000D02*
X37215000Y50000D01*
X-3274198Y28750000D02*
X-3350000Y28750000D01*
X-1974198Y27450000D02*
X-3274198Y28750000D01*
X20815000Y27450000D02*
X-1974198Y27450000D01*
X20715000Y27550000D02*
X20815000Y27450000D01*
X20715000Y30750000D02*
X20715000Y27550000D01*
X22150000Y27450000D02*
X20815000Y27450000D01*
X23450000Y28750000D02*
X22150000Y27450000D01*
X21715000Y28750000D02*
X21715000Y28750000D01*
X21715000Y30750000D02*
X21715000Y28750000D01*
X18815000Y28750000D02*
X16750000Y28750000D01*
X12600000Y31300000D02*
X10050000Y28750000D01*
X15950000Y34650000D02*
X12600000Y31300000D01*
X23215000Y34650000D02*
X15950000Y34650000D01*
X24315000Y35750000D02*
X23215000Y34650000D01*
X-23450000Y28750000D02*
X-23450000Y28785000D01*
X22515000Y36350000D02*
X18715000Y36350000D01*
X24315000Y38150000D02*
X22515000Y36350000D01*
X24315000Y39250000D02*
X24315000Y38150000D01*
X18715000Y36350000D02*
X18715000Y36350000D01*
X4650000Y30050000D02*
X3350000Y28750000D01*
X14915000Y36350000D02*
X8615000Y30050000D01*
X8615000Y30050000D02*
X4650000Y30050000D01*
X18715000Y36350000D02*
X14915000Y36350000D01*
X-22050000Y27350000D02*
X-23450000Y28750000D01*
X-14985000Y27350000D02*
X-22050000Y27350000D01*
X-12285000Y30050000D02*
X-14985000Y27350000D01*
X2050000Y30050000D02*
X-12285000Y30050000D01*
X3350000Y28750000D02*
X2050000Y30050000D01*
X-35125000Y8890000D02*
X-35560000Y8890000D01*
X-31185000Y4950000D02*
X-35125000Y8890000D01*
X-31185000Y1950000D02*
X-31185000Y4950000D01*
X-29650000Y415000D02*
X-31185000Y1950000D01*
X-29650000Y-3250000D02*
X-29650000Y415000D01*
X-27485000Y37250000D02*
X-25285000Y39450000D01*
X-25285000Y39450000D02*
X-20685000Y39450000D01*
X-29720239Y3395239D02*
X-29650000Y3325000D01*
X-29720239Y6285239D02*
X-29720239Y3395239D01*
X-29785000Y35950000D02*
X-29785000Y34350000D01*
X-29785000Y34350000D02*
X-33985000Y30150000D01*
X-33985000Y10550000D02*
X-29720239Y6285239D01*
X-33985000Y30150000D02*
X-33985000Y10550000D01*
X-21285000Y35350000D02*
X-21285000Y35350000D01*
X-25785000Y35350000D02*
X-21285000Y35350000D01*
X-27485000Y33650000D02*
X-25785000Y35350000D01*
X-29650000Y12715000D02*
X-29650000Y9750000D01*
X-32985000Y16050000D02*
X-29650000Y12715000D01*
X-32985000Y28900000D02*
X-32985000Y16050000D01*
X-29685000Y32200000D02*
X-32985000Y28900000D01*
X-29685000Y32250000D02*
X-29685000Y32200000D01*
X-29650000Y16250000D02*
X-29801582Y16401582D01*
X-24885000Y33550000D02*
X-19985000Y33550000D01*
X-27385000Y31050000D02*
X-24885000Y33550000D01*
X-31785000Y21450000D02*
X-29650000Y19315000D01*
X-31785000Y26550000D02*
X-31785000Y21450000D01*
X-29650000Y19315000D02*
X-29650000Y16250000D01*
X-29685000Y28650000D02*
X-31785000Y26550000D01*
X-29650000Y22750000D02*
X-29650000Y24585000D01*
X-29650000Y24585000D02*
X-29650000Y24585000D01*
X-29650000Y24585000D02*
X-29650000Y24585000D01*
X-24985000Y30050000D02*
X-18700000Y30050000D01*
X-27385000Y27650000D02*
X-24985000Y30050000D01*
D21*
X-30844501Y-10323361D02*
X-29650000Y-11517862D01*
X-30844501Y-8910207D02*
X-30844501Y-10323361D01*
X-30884999Y212629D02*
X-30884999Y-8869709D01*
X-30884999Y-8869709D02*
X-30844501Y-8910207D01*
X-29650000Y-11517862D02*
X-29650000Y-11922370D01*
X-35560000Y3810000D02*
X-34482370Y3810000D01*
X-29650000Y-11922370D02*
X-29650000Y-13000000D01*
X-34482370Y3810000D02*
X-30884999Y212629D01*
X-34482370Y1270000D02*
X-35560000Y1270000D01*
X-33905000Y1270000D02*
X-35560000Y1270000D01*
X-31647010Y-987990D02*
X-33905000Y1270000D01*
X-30960987Y-12518603D02*
X-31647010Y-11832580D01*
X-30960987Y-23574013D02*
X-30960987Y-12518603D01*
X-31647010Y-11832580D02*
X-31647010Y-987990D01*
X-29650000Y-24885000D02*
X-30960987Y-23574013D01*
X-29650000Y-28750000D02*
X-29650000Y-24885000D01*
D20*
X-34585000Y-34650000D02*
X-38385000Y-34650000D01*
X-41685000Y-31350000D02*
X-41685000Y32450000D01*
X-38385000Y-34650000D02*
X-41685000Y-31350000D01*
X21815000Y40950000D02*
X21915000Y41050000D01*
X-16885000Y40950000D02*
X21815000Y40950000D01*
X-35585000Y33888101D02*
X-35596900Y33900001D01*
X-35585000Y32550000D02*
X-35585000Y33888101D01*
X31115000Y21285000D02*
X31115000Y-1785000D01*
X29650000Y22750000D02*
X31115000Y21285000D01*
X31115000Y-1785000D02*
X29650000Y-3250000D01*
X28300000Y-14977186D02*
X29572814Y-16250000D01*
X28300000Y8400000D02*
X28300000Y-14977186D01*
X29572814Y-16250000D02*
X29650000Y-16250000D01*
X29650000Y9750000D02*
X28300000Y8400000D01*
X-28585000Y-6250000D02*
X-28385000Y-6450000D01*
X-30185000Y-6250000D02*
X-28585000Y-6250000D01*
X22615000Y-33450000D02*
X22615000Y-31150000D01*
X9215000Y-31150000D02*
X9215000Y-33350000D01*
X-4185000Y-31150000D02*
X-4185000Y-33350000D01*
X-17785000Y-33350000D02*
X-17785000Y-31150000D01*
X-28385000Y-26571368D02*
X-28385000Y-6450000D01*
X-23806368Y-31150000D02*
X-28385000Y-26571368D01*
X-23785000Y-31150000D02*
X-23806368Y-31150000D01*
X-27685000Y41850000D02*
X-28385000Y41150000D01*
X28615000Y41850000D02*
X-27685000Y41850000D01*
X30385000Y40080000D02*
X28615000Y41850000D01*
X30385000Y35400000D02*
X30385000Y40080000D01*
X-28385000Y41150000D02*
X-28385000Y37250000D01*
X-28385000Y37250000D02*
X-28385000Y-6450000D01*
X-35685000Y35188099D02*
X-35596900Y35099999D01*
X-35685000Y36450000D02*
X-35685000Y35188099D01*
D21*
X-34925000Y-3810000D02*
X-35560000Y-3810000D01*
X-33785000Y-4950000D02*
X-34925000Y-3810000D01*
X-33785000Y-35550000D02*
X-33785000Y-4950000D01*
X-18285000Y39650000D02*
X23215000Y39650000D01*
X-19035000Y40400000D02*
X-18285000Y39650000D01*
X-26685000Y41150000D02*
X-27485000Y40350000D01*
X-19785000Y41150000D02*
X-26685000Y41150000D01*
X-19035000Y40400000D02*
X-19785000Y41150000D01*
X-31585000Y40350000D02*
X-33285000Y38650000D01*
X-31485000Y40350000D02*
X-31585000Y40350000D01*
X-33285000Y38650000D02*
X-33285000Y33850000D01*
X-34353099Y33850000D02*
X-34403100Y33900001D01*
X-33285000Y33850000D02*
X-34353099Y33850000D01*
X-37385000Y29150000D02*
X-37385000Y-1985000D01*
X-33285000Y33250000D02*
X-37385000Y29150000D01*
X-37385000Y-1985000D02*
X-35560000Y-3810000D01*
X-33285000Y33850000D02*
X-33285000Y33250000D01*
X-34465000Y-1270000D02*
X-35560000Y-1270000D01*
X-32685000Y-3050000D02*
X-34465000Y-1270000D01*
X-32685000Y-33750000D02*
X-32685000Y-3050000D01*
X22515000Y40150000D02*
X23015000Y40650000D01*
X-17685000Y40150000D02*
X22515000Y40150000D01*
X-17985000Y40450000D02*
X-17685000Y40150000D01*
X-38085000Y28550000D02*
X-38085000Y443010D01*
X-38085000Y35150000D02*
X-38085000Y28550000D01*
X-34403100Y38731900D02*
X-38085000Y35150000D01*
X-32085000Y41050000D02*
X-34403100Y38731900D01*
X-34403100Y36450000D02*
X-34403100Y35099999D01*
X-35550582Y37615582D02*
X-34403100Y36450000D01*
D20*
X-35325000Y11430000D02*
X-35560000Y11430000D01*
X-27435000Y38800000D02*
X-25885000Y40350000D01*
X-25885000Y40350000D02*
X-19985000Y40350000D01*
X-40685000Y13450000D02*
X-39885000Y12650000D01*
X-40685000Y24750000D02*
X-40685000Y13450000D01*
X-27385000Y28950000D02*
X-25485000Y30850000D01*
X-25485000Y30850000D02*
X-17985000Y30850000D01*
X-35451582Y16401582D02*
X-35560000Y16510000D01*
X-25485000Y34350000D02*
X-19285000Y34350000D01*
X-27385000Y32450000D02*
X-25485000Y34350000D01*
X-26185000Y36350000D02*
X-21985000Y36350000D01*
X-27485000Y35050000D02*
X-26185000Y36350000D01*
X23115000Y32150000D02*
X23115000Y32150000D01*
X23115000Y30750000D02*
X23115000Y32150000D01*
X26340000Y30750000D02*
X23115000Y30750000D01*
X36637630Y16510000D02*
X35560000Y16510000D01*
X37065000Y16937370D02*
X36637630Y16510000D01*
X37065000Y20800000D02*
X37065000Y16937370D01*
X27115000Y30750000D02*
X37065000Y20800000D01*
X26340000Y30750000D02*
X27115000Y30750000D01*
X38145000Y11430000D02*
X35235000Y11430000D01*
X39165000Y12450000D02*
X38145000Y11430000D01*
X39165000Y21500000D02*
X39165000Y12450000D01*
X28915000Y31750000D02*
X39165000Y21500000D01*
X28915000Y39250000D02*
X28915000Y37350000D01*
X28915000Y37350000D02*
X28915000Y31750000D01*
X18915000Y35450000D02*
X18015000Y35450000D01*
X22915000Y35450000D02*
X18915000Y35450000D01*
X24815000Y37350000D02*
X22915000Y35450000D01*
X28915000Y37350000D02*
X24815000Y37350000D01*
X18015000Y35450000D02*
X18015000Y35450000D01*
X35565000Y19055000D02*
X35560000Y19050000D01*
X35565000Y20800000D02*
X35565000Y19055000D01*
X28015000Y28350000D02*
X35565000Y20800000D01*
X28015000Y34550000D02*
X28015000Y34550000D01*
X35580000Y13950000D02*
X35560000Y13970000D01*
X37165000Y13950000D02*
X35580000Y13950000D01*
X38065000Y14850000D02*
X37165000Y13950000D01*
X38065000Y21200000D02*
X38065000Y14850000D01*
X28015000Y31250000D02*
X38065000Y21200000D01*
X28015000Y35750000D02*
X28015000Y33950000D01*
X28015000Y33950000D02*
X28015000Y31250000D01*
X20215000Y33550000D02*
X28015000Y33550000D01*
X18715000Y33550000D02*
X20215000Y33550000D01*
D22*
X41815000Y27450000D02*
X39415000Y27450000D01*
D21*
X-16885000Y38950000D02*
X16715000Y38950000D01*
X35555000Y32950000D02*
X35465000Y32860000D01*
X41015000Y32950000D02*
X35555000Y32950000D01*
X40115000Y35386842D02*
X35465000Y35400000D01*
M02*
