  0
SECTION
  2
HEADER
  9
$ACADVER
  1
AC1014
  9
$ACADMAINTVER
 70
     9
  9
$DWGCODEPAGE
  3
ANSI_1252
  9
$INSBASE
 10
0.0
 20
0.0
 30
0.0
  9
$EXTMIN
 10
0.038
 20
0.019
 30
0.0
  9
$EXTMAX
 10
11.0
 20
8.481
 30
0.0
  9
$LIMMIN
 10
0.0
 20
0.0
  9
$LIMMAX
 10
12.0
 20
9.0
  9
$ORTHOMODE
 70
     0
  9
$REGENMODE
 70
     1
  9
$FILLMODE
 70
     1
  9
$QTEXTMODE
 70
     0
  9
$MIRRTEXT
 70
     1
  9
$DRAGMODE
 70
     2
  9
$LTSCALE
 40
0.5
  9
$OSMODE
 70
    23
  9
$ATTMODE
 70
     1
  9
$TEXTSIZE
 40
0.12
  9
$TRACEWID
 40
0.05
  9
$TEXTSTYLE
  7
ONSHAPE-STANDARD
  9
$CLAYER
  8
0
  9
$CELTYPE
  6
BYLAYER
  9
$CECOLOR
 62
   256
  9
$CELTSCALE
 40
1.0
  9
$DELOBJ
 70
     1
  9
$DISPSILH
 70
     0
  9
$DIMSCALE
 40
1.0
  9
$DIMASZ
 40
0.18
  9
$DIMEXO
 40
0.0625
  9
$DIMDLI
 40
0.38
  9
$DIMRND
 40
0.0
  9
$DIMDLE
 40
0.0
  9
$DIMEXE
 40
0.08
  9
$DIMTP
 40
0.0
  9
$DIMTM
 40
0.0
  9
$DIMTXT
 40
0.12
  9
$DIMCEN
 40
0.09
  9
$DIMTSZ
 40
0.0
  9
$DIMTOL
 70
     0
  9
$DIMLIM
 70
     0
  9
$DIMTIH
 70
     1
  9
$DIMTOH
 70
     1
  9
$DIMSE1
 70
     0
  9
$DIMSE2
 70
     0
  9
$DIMTAD
 70
     0
  9
$DIMZIN
 70
    11
  9
$DIMBLK
  1

  9
$DIMASO
 70
     1
  9
$DIMSHO
 70
     1
  9
$DIMPOST
  1

  9
$DIMAPOST
  1

  9
$DIMALT
 70
     0
  9
$DIMALTD
 70
     3
  9
$DIMALTF
 40
0.0393700787401575
  9
$DIMLFAC
 40
25.4
  9
$DIMTOFL
 70
     0
  9
$DIMTVP
 40
0.0
  9
$DIMTIX
 70
     0
  9
$DIMSOXD
 70
     0
  9
$DIMSAH
 70
     0
  9
$DIMBLK1
  1

  9
$DIMBLK2
  1

  9
$DIMSTYLE
  2
ONSHAPE-STANDARD
  9
$DIMCLRD
 70
     7
  9
$DIMCLRE
 70
     7
  9
$DIMCLRT
 70
     7
  9
$DIMTFAC
 40
1.0
  9
$DIMGAP
 40
0.09
  9
$DIMJUST
 70
     0
  9
$DIMSD1
 70
     0
  9
$DIMSD2
 70
     0
  9
$DIMTOLJ
 70
     1
  9
$DIMTZIN
 70
    11
  9
$DIMALTZ
 70
    11
  9
$DIMALTTZ
 70
     0
  9
$DIMFIT
 70
     3
  9
$DIMUPT
 70
     1
  9
$DIMUNIT
 70
     2
  9
$DIMDEC
 70
     2
  9
$DIMTDEC
 70
     2
  9
$DIMALTU
 70
     2
  9
$DIMALTTD
 70
     3
  9
$DIMTXSTY
  7
ONSHAPE-STANDARD-DIMENSION
  9
$DIMAUNIT
 70
     0
  9
$LUNITS
 70
     2
  9
$LUPREC
 70
     4
  9
$SKETCHINC
 40
0.1
  9
$FILLETRAD
 40
0.5
  9
$AUNITS
 70
     0
  9
$AUPREC
 70
     0
  9
$MENU
  1
.
  9
$ELEVATION
 40
0.0
  9
$PELEVATION
 40
0.0
  9
$THICKNESS
 40
0.0
  9
$LIMCHECK
 70
     0
  9
$CHAMFERA
 40
0.0
  9
$CHAMFERB
 40
0.0
  9
$CHAMFERC
 40
0.0
  9
$CHAMFERD
 40
0.0
  9
$SKPOLY
 70
     0
  9
$TDCREATE
 40
2460944.649909051
  9
$TDUPDATE
 40
2460944.649910266
  9
$TDINDWG
 40
0.0
  9
$TDUSRTIMER
 40
0.0
  9
$USRTIMER
 70
     1
  9
$ANGBASE
 50
0.0
  9
$ANGDIR
 70
     0
  9
$PDMODE
 70
    33
  9
$PDSIZE
 40
0.0393700787401575
  9
$PLINEWID
 40
0.0
  9
$COORDS
 70
     1
  9
$SPLFRAME
 70
     0
  9
$SPLINETYPE
 70
     6
  9
$SPLINESEGS
 70
     8
  9
$ATTDIA
 70
     0
  9
$ATTREQ
 70
     1
  9
$HANDLING
 70
     1
  9
$HANDSEED
  5
47A
  9
$SURFTAB1
 70
     6
  9
$SURFTAB2
 70
     6
  9
$SURFTYPE
 70
     6
  9
$SURFU
 70
     6
  9
$SURFV
 70
     6
  9
$UCSNAME
  2

  9
$UCSORG
 10
0.0
 20
0.0
 30
0.0
  9
$UCSXDIR
 10
1.0
 20
0.0
 30
0.0
  9
$UCSYDIR
 10
0.0
 20
1.0
 30
0.0
  9
$PUCSNAME
  2

  9
$PUCSORG
 10
0.0
 20
0.0
 30
0.0
  9
$PUCSXDIR
 10
1.0
 20
0.0
 30
0.0
  9
$PUCSYDIR
 10
0.0
 20
1.0
 30
0.0
  9
$USERI1
 70
     0
  9
$USERI2
 70
     0
  9
$USERI3
 70
     0
  9
$USERI4
 70
     0
  9
$USERI5
 70
     0
  9
$USERR1
 40
0.0
  9
$USERR2
 40
0.0
  9
$USERR3
 40
0.0
  9
$USERR4
 40
0.0
  9
$USERR5
 40
0.0
  9
$WORLDVIEW
 70
     1
  9
$SHADEDGE
 70
     3
  9
$SHADEDIF
 70
    70
  9
$TILEMODE
 70
     1
  9
$MAXACTVP
 70
    64
  9
$PINSBASE
 10
0.0
 20
0.0
 30
0.0
  9
$PLIMCHECK
 70
     0
  9
$PEXTMIN
 10
1.000000000000000E+20
 20
1.000000000000000E+20
 30
1.000000000000000E+20
  9
$PEXTMAX
 10
-1.000000000000000E+20
 20
-1.000000000000000E+20
 30
-1.000000000000000E+20
  9
$PLIMMIN
 10
0.0
 20
0.0
  9
$PLIMMAX
 10
12.0
 20
9.0
  9
$UNITMODE
 70
     0
  9
$VISRETAIN
 70
     1
  9
$PLINEGEN
 70
     0
  9
$PSLTSCALE
 70
     1
  9
$TREEDEPTH
 70
  3020
  9
$PICKSTYLE
 70
     1
  9
$CMLSTYLE
  2
STANDARD
  9
$CMLJUST
 70
     0
  9
$CMLSCALE
 40
1.0
  9
$PROXYGRAPHICS
 70
     1
  9
$MEASUREMENT
 70
     0
  0
ENDSEC
  0
SECTION
  2
CLASSES
  0
CLASS
  1
ACDBDICTIONARYWDFLT
  2
AcDbDictionaryWithDefault
  3
ObjectDBX Classes
 90
        0
280
     0
281
     0
  0
CLASS
  1
VISUALSTYLE
  2
AcDbVisualStyle
  3
ObjectDBX Classes
 90
     4095
280
     0
281
     0
  0
CLASS
  1
MATERIAL
  2
AcDbMaterial
  3
ObjectDBX Classes
 90
     1153
280
     0
281
     0
  0
CLASS
  1
SCALE
  2
AcDbScale
  3
ObjectDBX Classes
 90
     1153
280
     0
281
     0
  0
CLASS
  1
TABLESTYLE
  2
AcDbTableStyle
  3
ObjectDBX Classes
 90
     4095
280
     0
281
     0
  0
CLASS
  1
MLEADERSTYLE
  2
AcDbMLeaderStyle
  3
ACDB_MLEADERSTYLE_CLASS
 90
     4095
280
     0
281
     0
  0
CLASS
  1
SUN
  2
AcDbSun
  3
SCENEOE
 90
     1153
280
     0
281
     0
  0
CLASS
  1
DICTIONARYVAR
  2
AcDbDictionaryVar
  3
ObjectDBX Classes
 90
        0
280
     0
281
     0
  0
CLASS
  1
FIELD
  2
AcDbField
  3
ObjectDBX Classes
 90
     1152
280
     0
281
     0
  0
CLASS
  1
FIELDLIST
  2
AcDbFieldList
  3
ObjectDBX Classes
 90
     1152
280
     0
281
     0
  0
CLASS
  1
DIMASSOC
  2
AcDbDimAssoc
  3
"AcDbDimAssoc|Product Desc:     AcDim ARX App For Dimension|Company:          Autodesk, Inc.|WEB Address:      www.autodesk.com"
 90
        0
280
     0
281
     0
  0
CLASS
  1
BREAKDATA
  2
AcDbBreakData
  3
ObjectDBX Classes
 90
     1024
280
     0
281
     0
  0
CLASS
  1
XRECORD
  2
AcDbXrecord
  3
ObjectDBX Classes
 90
        0
280
     0
281
     0
  0
CLASS
  1
LWPOLYLINE
  2
AcDbPolyline
  3
ObjectDBX Classes
 90
        0
280
     0
281
     1
  0
CLASS
  1
HATCH
  2
AcDbHatch
  3
ObjectDBX Classes
 90
        0
280
     0
281
     1
  0
CLASS
  1
ACDBPLACEHOLDER
  2
AcDbPlaceHolder
  3
ObjectDBX Classes
 90
        0
280
     0
281
     0
  0
CLASS
  1
LAYOUT
  2
AcDbLayout
  3
ObjectDBX Classes
 90
        0
280
     0
281
     0
  0
ENDSEC
  0
SECTION
  2
TABLES
  0
TABLE
  2
VPORT
  5
8
102
{ACAD_XDICTIONARY
360
46F
102
}
330
0
100
AcDbSymbolTable
 70
     1
  0
VPORT
  5
29
330
8
100
AcDbSymbolTableRecord
100
AcDbViewportTableRecord
  2
*ACTIVE
 70
     0
 10
0.0
 20
0.0
 11
1.0
 21
1.0
 12
5.519
 22
4.389959809264305
 13
0.0
 23
0.0
 14
0.5
 24
0.5
 15
0.5
 25
0.5
 16
0.0
 26
0.0
 36
1.0
 17
0.0
 27
0.0
 37
0.0
 40
8.916758010899182
 41
1.253957995308708
 42
50.0
 43
0.0
 44
0.0
 50
0.0
 51
0.0
 71
     0
 72
   100
 73
     1
 74
     3
 75
     0
 76
     0
 77
     0
 78
     0
  0
ENDTAB
  0
TABLE
  2
LTYPE
  5
5
330
0
100
AcDbSymbolTable
 70
     2
  0
LTYPE
  5
14
330
5
100
AcDbSymbolTableRecord
100
AcDbLinetypeTableRecord
  2
BYBLOCK
 70
     0
  3

 72
    65
 73
     0
 40
0.0
  0
LTYPE
  5
15
330
5
100
AcDbSymbolTableRecord
100
AcDbLinetypeTableRecord
  2
BYLAYER
 70
     0
  3

 72
    65
 73
     0
 40
0.0
  0
LTYPE
  5
16
330
5
100
AcDbSymbolTableRecord
100
AcDbLinetypeTableRecord
  2
CONTINUOUS
 70
     0
  3
Solid line
 72
    65
 73
     0
 40
0.0
  0
LTYPE
  5
16E
330
5
100
AcDbSymbolTableRecord
100
AcDbLinetypeTableRecord
  2
CENTER
 70
     0
  3
Center line ____ _ ____ _ ____ _
 72
    65
 73
     4
 40
0.7199999999999999
 49
0.45
 74
     0
 49
-0.09
 74
     0
 49
0.09
 74
     0
 49
-0.09
 74
     0
  0
ENDTAB
  0
TABLE
  2
LAYER
  5
2
330
0
100
AcDbSymbolTable
 70
     8
  0
LAYER
  5
10
330
2
100
AcDbSymbolTableRecord
100
AcDbLayerTableRecord
  2
0
 70
     0
 62
     7
  6
CONTINUOUS
  0
LAYER
  5
70
330
2
100
AcDbSymbolTableRecord
100
AcDbLayerTableRecord
  2
DEFPOINTS
 70
     0
 62
     7
  6
CONTINUOUS
  0
LAYER
  5
74
330
2
100
AcDbSymbolTableRecord
100
AcDbLayerTableRecord
  2
VISIBLE
 70
     0
 62
     7
  6
CONTINUOUS
  0
LAYER
  5
C2
330
2
100
AcDbSymbolTableRecord
100
AcDbLayerTableRecord
  2
BORDER_FRAME
 70
     0
 62
     7
  6
CONTINUOUS
  0
LAYER
  5
C8
330
2
100
AcDbSymbolTableRecord
100
AcDbLayerTableRecord
  2
BORDER_ZONES
 70
     0
 62
     7
  6
CONTINUOUS
  0
LAYER
  5
D6
330
2
100
AcDbSymbolTableRecord
100
AcDbLayerTableRecord
  2
TITLE_BLOCK
 70
     0
 62
     7
  6
CONTINUOUS
  0
LAYER
  5
16D
330
2
100
AcDbSymbolTableRecord
100
AcDbLayerTableRecord
  2
CENTERMARKS
 70
     0
 62
     7
  6
CONTINUOUS
  0
LAYER
  5
3A7
330
2
100
AcDbSymbolTableRecord
100
AcDbLayerTableRecord
  2
ANNOTATION_TEXT
 70
     0
 62
     7
  6
CONTINUOUS
  0
ENDTAB
  0
TABLE
  2
STYLE
  5
3
330
0
100
AcDbSymbolTable
 70
    36
  0
STYLE
  5
11
330
3
100
AcDbSymbolTableRecord
100
AcDbTextStyleTableRecord
  2
STANDARD
 70
     0
 40
0.0
 41
1.0
 50
0.0
 71
     0
 42
0.12
  3
txt
  4

  0
STYLE
  5
71
330
3
100
AcDbSymbolTableRecord
100
AcDbTextStyleTableRecord
  2
ONSHAPE-STANDARD
 70
     0
 40
0.0
 41
1.0
 50
0.0
 71
     0
 42
0.12
  3
NotoSans-Regular.ttf
  4

1001
ACAD
1000
Noto Sans
1071
        0
  0
STYLE
  5
73
330
3
100
AcDbSymbolTableRecord
100
AcDbTextStyleTableRecord
  2
ONSHAPE-STANDARD-DIMENSION
 70
     0
 40
0.0
 41
1.0
 50
0.0
 71
     0
 42
0.12
  3

  4

1001
ACAD
1000
Noto Sans
1071
        0
  0
STYLE
  5
109
330
3
100
AcDbSymbolTableRecord
100
AcDbTextStyleTableRecord
  2
ONSHAPE-STANDARD-FIELDS
 70
     0
 40
0.0
 41
1.0
 50
0.0
 71
     0
 42
0.12
  3

  4

1001
ACAD
1000
Noto Sans
1071
        0
  0
STYLE
  5
3AA
330
3
100
AcDbSymbolTableRecord
100
AcDbTextStyleTableRecord
  2
ONSHAPE-STANDARD-VIEW-LABE
 70
     0
 40
0.12
 41
1.0
 50
0.0
 71
     0
 42
0.12
  3
NotoSans-Regular.ttf
  4

1001
ACAD
1000
Noto Sans
1071
        0
  0
STYLE
  5
3F8
330
3
100
AcDbSymbolTableRecord
100
AcDbTextStyleTableRecord
  2
ONSHAPE-STANDARD-BOLD
 70
     0
 40
0.0
 41
1.0
 50
0.0
 71
     0
 42
0.12
  3
NotoSans-Bold.ttf
  4

1001
ACAD
1000
Noto Sans
1071
 33554432
  0
STYLE
  5
3FA
330
3
100
AcDbSymbolTableRecord
100
AcDbTextStyleTableRecord
  2
ONSHAPE-STANDARD-TCFIELDS
 70
     0
 40
0.0
 41
1.0
 50
0.0
 71
     0
 42
0.12
  3
NotoSansTC-Regular.otf
  4

1001
ACAD
1000
Noto Sans TC
1071
        0
  0
STYLE
  5
3FB
330
3
100
AcDbSymbolTableRecord
100
AcDbTextStyleTableRecord
  2
ONSHAPE-STANDARD-SCFIELDS
 70
     0
 40
0.0
 41
1.0
 50
0.0
 71
     0
 42
0.12
  3
NotoSansSC-Regular.otf
  4

1001
ACAD
1000
Noto Sans SC
1071
        0
  0
STYLE
  5
3FC
330
3
100
AcDbSymbolTableRecord
100
AcDbTextStyleTableRecord
  2
ONSHAPE-STANDARD-KOREANFIE
 70
     0
 40
0.0
 41
1.0
 50
0.0
 71
     0
 42
0.12
  3
NotoSansKR-Regular.otf
  4

1001
ACAD
1000
Noto Sans KR
1071
        0
  0
STYLE
  5
3FD
330
3
100
AcDbSymbolTableRecord
100
AcDbTextStyleTableRecord
  2
ONSHAPE-STANDARD-JAPANESEF
 70
     0
 40
0.0
 41
1.0
 50
0.0
 71
     0
 42
0.12
  3
NotoSansJP-Regular.otf
  4

1001
ACAD
1000
Noto Sans JP
1071
        0
  0
STYLE
  5
3FE
330
3
100
AcDbSymbolTableRecord
100
AcDbTextStyleTableRecord
  2
TTFSTYLE
 70
     0
 40
0.0
 41
1.0
 50
0.0
 71
     0
 42
0.12
  3

  4

1001
ACAD
1000
Verdana
1071
       34
  0
STYLE
  5
3FF
330
3
100
AcDbSymbolTableRecord
100
AcDbTextStyleTableRecord
  2
ONSHAPE-STANDARD-GTOLERANC
 70
     0
 40
0.0
 41
1.0
 50
0.0
 71
     0
 42
0.12
  3

  4

1001
ACAD
1000
Noto Sans
1071
        0
  0
STYLE
  5
400
330
3
100
AcDbSymbolTableRecord
100
AcDbTextStyleTableRecord
  2
ONSHAPE-STANDARD-TABLE-DAT
 70
     0
 40
0.0
 41
1.0
 50
0.0
 71
     0
 42
0.12
  3
NotoSans-Regular.ttf
  4

1001
ACAD
1000
Noto Sans
1071
        0
  0
STYLE
  5
401
330
3
100
AcDbSymbolTableRecord
100
AcDbTextStyleTableRecord
  2
ONSHAPE-STANDARD-TABLE-TIT
 70
     0
 40
0.0
 41
1.0
 50
0.0
 71
     0
 42
0.12
  3
NotoSans-Bold.ttf
  4

1001
ACAD
1000
Noto Sans
1071
 33554432
  0
STYLE
  5
402
330
3
100
AcDbSymbolTableRecord
100
AcDbTextStyleTableRecord
  2
ONSHAPE-STANDARD-TABLE-HEA
 70
     0
 40
0.0
 41
1.0
 50
0.0
 71
     0
 42
0.12
  3
NotoSans-Bold.ttf
  4

1001
ACAD
1000
Noto Sans
1071
 33554432
  0
STYLE
  5
403
330
3
100
AcDbSymbolTableRecord
100
AcDbTextStyleTableRecord
  2
ONSHAPE-STANDARD-BOMTABLE-
 70
     0
 40
0.0
 41
1.0
 50
0.0
 71
     0
 42
0.12
  3
NotoSans-Regular.ttf
  4

1001
ACAD
1000
Noto Sans
1071
        0
  0
STYLE
  5
404
330
3
100
AcDbSymbolTableRecord
100
AcDbTextStyleTableRecord
  2
ONSHAPE-STANDARD-BOMTABLE0
 70
     0
 40
0.0
 41
1.0
 50
0.0
 71
     0
 42
0.12
  3
NotoSans-Bold.ttf
  4

1001
ACAD
1000
Noto Sans
1071
 33554432
  0
STYLE
  5
405
330
3
100
AcDbSymbolTableRecord
100
AcDbTextStyleTableRecord
  2
ONSHAPE-STANDARD-BOMTABLE1
 70
     0
 40
0.0
 41
1.0
 50
0.0
 71
     0
 42
0.12
  3
NotoSans-Bold.ttf
  4

1001
ACAD
1000
Noto Sans
1071
 33554432
  0
STYLE
  5
406
330
3
100
AcDbSymbolTableRecord
100
AcDbTextStyleTableRecord
  2
ONSHAPE-STANDARD-NOTESTYLE
 70
     0
 40
0.12
 41
1.0
 50
0.0
 71
     0
 42
0.12
  3
NotoSans-Regular.ttf
  4

1001
ACAD
1000
Noto Sans
1071
        0
  0
STYLE
  5
407
330
3
100
AcDbSymbolTableRecord
100
AcDbTextStyleTableRecord
  2
ONSHAPE-STANDARD-DATUM-DIM
 70
     0
 40
0.12
 41
1.0
 50
0.0
 71
     0
 42
0.12
  3

  4

1001
ACAD
1000
Noto Sans
1071
        0
  0
STYLE
  5
409
330
3
100
AcDbSymbolTableRecord
100
AcDbTextStyleTableRecord
  2
ONSHAPE-DETAIL-VIEW-LEADER
 70
     0
 40
0.12
 41
1.0
 50
0.0
 71
     0
 42
0.12
  3
NotoSans-Regular.ttf
  4

1001
ACAD
1000
Noto Sans
1071
        0
  0
STYLE
  5
40A
330
3
100
AcDbSymbolTableRecord
100
AcDbTextStyleTableRecord
  2
ONSHAPE-STANDARD-HOLE-CALL
 70
     0
 40
0.12
 41
1.0
 50
0.0
 71
     0
 42
0.12
  3
NotoSans-Regular.ttf
  4

1001
ACAD
1000
Noto Sans
1071
        0
  0
STYLE
  5
40B
330
3
100
AcDbSymbolTableRecord
100
AcDbTextStyleTableRecord
  2
ONSHAPE-STANDARD-HOLETABLE
 70
     0
 40
0.0
 41
1.0
 50
0.0
 71
     0
 42
0.12
  3
NotoSans-Regular.ttf
  4

1001
ACAD
1000
Noto Sans
1071
        0
  0
STYLE
  5
40C
330
3
100
AcDbSymbolTableRecord
100
AcDbTextStyleTableRecord
  2
ONSHAPE-STANDARD-HOLETABL0
 70
     0
 40
0.0
 41
1.0
 50
0.0
 71
     0
 42
0.12
  3
NotoSans-Bold.ttf
  4

1001
ACAD
1000
Noto Sans
1071
 33554432
  0
STYLE
  5
40D
330
3
100
AcDbSymbolTableRecord
100
AcDbTextStyleTableRecord
  2
ONSHAPE-STANDARD-HOLETABL1
 70
     0
 40
0.0
 41
1.0
 50
0.0
 71
     0
 42
0.12
  3
NotoSans-Bold.ttf
  4

1001
ACAD
1000
Noto Sans
1071
 33554432
  0
STYLE
  5
40E
330
3
100
AcDbSymbolTableRecord
100
AcDbTextStyleTableRecord
  2
ONSHAPE-STANDARD-HOLE-TAG
 70
     0
 40
0.12
 41
1.0
 50
0.0
 71
     0
 42
0.12
  3
NotoSans-Regular.ttf
  4

1001
ACAD
1000
Noto Sans
1071
        0
  0
STYLE
  5
40F
330
3
100
AcDbSymbolTableRecord
100
AcDbTextStyleTableRecord
  2
ONSHAPE-STANDARD-REVISIONT
 70
     0
 40
0.0
 41
1.0
 50
0.0
 71
     0
 42
0.12
  3
NotoSans-Regular.ttf
  4

1001
ACAD
1000
Noto Sans
1071
        0
  0
STYLE
  5
410
330
3
100
AcDbSymbolTableRecord
100
AcDbTextStyleTableRecord
  2
ONSHAPE-STANDARD-REVISION0
 70
     0
 40
0.0
 41
1.0
 50
0.0
 71
     0
 42
0.12
  3
NotoSans-Bold.ttf
  4

1001
ACAD
1000
Noto Sans
1071
 33554432
  0
STYLE
  5
411
330
3
100
AcDbSymbolTableRecord
100
AcDbTextStyleTableRecord
  2
ONSHAPE-STANDARD-REVISION1
 70
     0
 40
0.0
 41
1.0
 50
0.0
 71
     0
 42
0.12
  3
NotoSans-Bold.ttf
  4

1001
ACAD
1000
Noto Sans
1071
 33554432
  0
STYLE
  5
412
330
3
100
AcDbSymbolTableRecord
100
AcDbTextStyleTableRecord
  2
ONSHAPE-STANDARD-REVISION-
 70
     0
 40
0.12
 41
1.0
 50
0.0
 71
     0
 42
0.12
  3
NotoSans-Regular.ttf
  4

1001
ACAD
1000
Noto Sans
1071
        0
  0
STYLE
  5
413
330
3
100
AcDbSymbolTableRecord
100
AcDbTextStyleTableRecord
  2
ONSHAPE-STANDARD-CUTLISTTA
 70
     0
 40
0.0
 41
1.0
 50
0.0
 71
     0
 42
0.12
  3
NotoSans-Regular.ttf
  4

1001
ACAD
1000
Noto Sans
1071
        0
  0
STYLE
  5
414
330
3
100
AcDbSymbolTableRecord
100
AcDbTextStyleTableRecord
  2
ONSHAPE-STANDARD-CUTLISTT0
 70
     0
 40
0.0
 41
1.0
 50
0.0
 71
     0
 42
0.12
  3
NotoSans-Bold.ttf
  4

1001
ACAD
1000
Noto Sans
1071
 33554432
  0
STYLE
  5
415
330
3
100
AcDbSymbolTableRecord
100
AcDbTextStyleTableRecord
  2
ONSHAPE-STANDARD-CUTLISTT1
 70
     0
 40
0.0
 41
1.0
 50
0.0
 71
     0
 42
0.12
  3
NotoSans-Bold.ttf
  4

1001
ACAD
1000
Noto Sans
1071
 33554432
  0
STYLE
  5
416
330
3
100
AcDbSymbolTableRecord
100
AcDbTextStyleTableRecord
  2
ONSHAPE-STANDARD-CUSTOMTAB
 70
     0
 40
0.0
 41
1.0
 50
0.0
 71
     0
 42
0.12
  3
NotoSans-Regular.ttf
  4

1001
ACAD
1000
Noto Sans
1071
        0
  0
STYLE
  5
417
330
3
100
AcDbSymbolTableRecord
100
AcDbTextStyleTableRecord
  2
ONSHAPE-STANDARD-CUSTOMTA0
 70
     0
 40
0.0
 41
1.0
 50
0.0
 71
     0
 42
0.12
  3
NotoSans-Bold.ttf
  4

1001
ACAD
1000
Noto Sans
1071
 33554432
  0
STYLE
  5
418
330
3
100
AcDbSymbolTableRecord
100
AcDbTextStyleTableRecord
  2
ONSHAPE-STANDARD-CUSTOMTA1
 70
     0
 40
0.0
 41
1.0
 50
0.0
 71
     0
 42
0.12
  3
NotoSans-Bold.ttf
  4

1001
ACAD
1000
Noto Sans
1071
 33554432
  0
ENDTAB
  0
TABLE
  2
VIEW
  5
6
330
0
100
AcDbSymbolTable
 70
     0
  0
ENDTAB
  0
TABLE
  2
UCS
  5
7
330
0
100
AcDbSymbolTable
 70
     0
  0
ENDTAB
  0
TABLE
  2
APPID
  5
9
330
0
100
AcDbSymbolTable
 70
     8
  0
APPID
  5
12
330
9
100
AcDbSymbolTableRecord
100
AcDbRegAppTableRecord
  2
ACAD
 70
     0
  0
APPID
  5
16C
330
9
100
AcDbSymbolTableRecord
100
AcDbRegAppTableRecord
  2
ONSHAPE_NOTES_ANNOTATION_D
 70
     0
  0
APPID
  5
3C4
330
9
100
AcDbSymbolTableRecord
100
AcDbRegAppTableRecord
  2
ACAD_DIMASSOC_CALC_DIMLFAC
 70
     0
  0
APPID
  5
3C5
330
9
100
AcDbSymbolTableRecord
100
AcDbRegAppTableRecord
  2
ACAD_DIMASSOC_DIMLFAC
 70
     0
  0
APPID
  5
3C6
330
9
100
AcDbSymbolTableRecord
100
AcDbRegAppTableRecord
  2
ACAD_DIMASSOC_OVERRIDDEN_D
 70
     0
  0
APPID
  5
3B9
330
9
100
AcDbSymbolTableRecord
100
AcDbRegAppTableRecord
  2
INDEX
 70
     0
  0
APPID
  5
3EA
330
9
100
AcDbSymbolTableRecord
100
AcDbRegAppTableRecord
  2
ACAD_DSTYLE_DIMRADIAL_EXTE
 70
     0
  0
APPID
  5
479
330
9
100
AcDbSymbolTableRecord
100
AcDbRegAppTableRecord
  2
ACAD_MLEADERVER
 70
     0
  0
ENDTAB
  0
TABLE
  2
DIMSTYLE
  5
A
330
0
100
AcDbSymbolTable
 70
    21
  0
DIMSTYLE
105
27
330
A
100
AcDbSymbolTableRecord
100
AcDbDimStyleTableRecord
  2
STANDARD
 70
     0
  3

  4

  5

  6

  7

 40
1.0
 41
0.18
 42
0.0625
 43
0.38
 44
0.18
 45
0.0
 46
0.0
 47
0.0
 48
0.0
140
0.18
141
0.09
142
0.0
143
25.4
144
1.0
145
0.0
146
1.0
147
0.09
 71
     0
 72
     0
 73
     1
 74
     1
 75
     0
 76
     0
 77
     0
 78
     0
170
     0
171
     2
172
     0
173
     0
174
     0
175
     0
176
     0
177
     0
178
     0
270
     2
271
     4
272
     4
273
     2
274
     2
340
11
275
     0
280
     0
281
     0
282
     0
283
     1
284
     0
285
     0
286
     0
287
     3
288
     0
  0
DIMSTYLE
105
72
330
A
100
AcDbSymbolTableRecord
100
AcDbDimStyleTableRecord
  2
ONSHAPE-STANDARD
 70
     0
  3

  4

  5

  6

  7

 40
1.0
 41
0.18
 42
0.0625
 43
0.38
 44
0.08
 45
0.0
 46
0.0
 47
0.0
 48
0.0
140
0.12
141
0.09
142
0.0
143
0.0393700787401575
144
25.4
145
0.0
146
1.0
147
0.09
 71
     0
 72
     0
 73
     1
 74
     1
 75
     0
 76
     0
 77
     0
 78
    11
170
     0
171
     3
172
     0
173
     0
174
     0
175
     0
176
     7
177
     7
178
     7
179
     1
270
     2
271
     2
272
     2
273
     2
274
     3
340
73
275
     0
280
     0
281
     0
282
     0
283
     1
284
    11
285
    11
286
     0
287
     3
288
     1
  0
DIMSTYLE
105
3B4
102
{ACAD_REACTORS
330
3AB
330
3C7
102
}
330
A
100
AcDbSymbolTableRecord
100
AcDbDimStyleTableRecord
  2
ONSHAPE-STANDARD$0
 70
     0
  3

  4

  5

  6

  7

 40
1.0
 41
0.18
 42
0.0625
 43
0.38
 44
0.08
 45
0.0
 46
0.0
 47
0.0
 48
0.0
140
0.12
141
0.09
142
0.0
143
0.0393700787401575
144
25.4
145
0.0
146
1.0
147
0.09
 71
     0
 72
     0
 73
     1
 74
     1
 75
     0
 76
     0
 77
     0
 78
    11
170
     0
171
     3
172
     0
173
     0
174
     0
175
     0
176
     7
177
     7
178
     7
179
     1
270
     2
271
     2
272
     2
273
     2
274
     3
340
73
275
     0
280
     0
281
     0
282
     0
283
     1
284
    11
285
    11
286
     0
287
     3
288
     1
  0
DIMSTYLE
105
3E0
102
{ACAD_REACTORS
330
3DB
102
}
330
A
100
AcDbSymbolTableRecord
100
AcDbDimStyleTableRecord
  2
ONSHAPE-STANDARD$3
 70
     0
  3

  4

  5

  6

  7

 40
1.0
 41
0.18
 42
0.0625
 43
0.38
 44
0.08
 45
0.0
 46
0.0
 47
0.0
 48
0.0
140
0.12
141
0.0
142
0.0
143
0.0393700787401575
144
25.4
145
0.0
146
1.0
147
0.09
 71
     0
 72
     0
 73
     1
 74
     1
 75
     0
 76
     0
 77
     0
 78
    11
170
     0
171
     3
172
     0
173
     0
174
     0
175
     0
176
     7
177
     7
178
     7
179
     1
270
     2
271
     2
272
     2
273
     2
274
     3
340
73
275
     0
280
     0
281
     0
282
     0
283
     1
284
    11
285
    11
286
     0
287
     3
288
     1
  0
DIMSTYLE
105
41B
330
A
100
AcDbSymbolTableRecord
100
AcDbDimStyleTableRecord
  2
ANSI
 70
     0
  3

  4
mm
  5

  6

  7

 40
1.0
 41
0.12
 42
0.05
 43
0.5
 44
0.1
 45
0.0
 46
0.0
 47
0.1
 48
0.1
140
0.12
141
0.0
142
0.0
143
0.0393700787401575
144
25.4
145
0.0
146
0.71
147
0.06
 71
     0
 72
     0
 73
     1
 74
     1
 75
     0
 76
     0
 77
     0
 78
    11
170
     0
171
     3
172
     0
173
     0
174
     0
175
     0
176
     7
177
     7
178
     7
270
     2
271
     2
272
     3
273
     2
274
     3
340
11
275
     0
280
     0
281
     0
282
     0
283
     1
284
    11
285
    11
286
     0
287
     3
288
     1
  0
DIMSTYLE
105
41C
330
A
100
AcDbSymbolTableRecord
100
AcDbDimStyleTableRecord
  2
ANSI$3
 70
     0
  3

  4
mm
  5

  6

  7

 40
1.0
 41
0.12
 42
0.05
 43
0.5
 44
0.1
 45
0.0
 46
0.0
 47
0.1
 48
0.1
140
0.12
141
0.0
142
0.0
143
0.0393700787401575
144
25.4
145
0.0
146
0.71
147
0.06
 71
     0
 72
     0
 73
     1
 74
     1
 75
     0
 76
     0
 77
     0
 78
    11
170
     0
171
     3
172
     0
173
     0
174
     0
175
     0
176
     7
177
     7
178
     7
270
     2
271
     2
272
     3
273
     2
274
     3
340
11
275
     0
280
     0
281
     0
282
     0
283
     1
284
    11
285
    11
286
     0
288
     1
  0
DIMSTYLE
105
41D
330
A
100
AcDbSymbolTableRecord
100
AcDbDimStyleTableRecord
  2
ANSI$4
 70
     0
  3

  4
mm
  5

  6

  7

 40
1.0
 41
0.12
 42
0.05
 43
0.5
 44
0.1
 45
0.0
 46
0.0
 47
0.1
 48
0.1
140
0.12
141
0.0
142
0.0
143
0.0393700787401575
144
25.4
145
0.0
146
0.71
147
0.06
 71
     0
 72
     0
 73
     1
 74
     1
 75
     0
 76
     0
 77
     0
 78
    11
170
     0
171
     3
172
     0
173
     0
174
     0
175
     0
176
     7
177
     7
178
     7
270
     2
271
     2
272
     3
273
     2
274
     3
340
11
275
     0
280
     0
281
     0
282
     0
283
     1
284
    11
285
    11
286
     0
287
     3
288
     1
  0
DIMSTYLE
105
41E
330
A
100
AcDbSymbolTableRecord
100
AcDbDimStyleTableRecord
  2
ANSI$7
 70
     0
  3

  4
mm
  5

  6

  7

 40
1.0
 41
0.12
 42
0.05
 43
0.5
 44
0.1
 45
0.0
 46
0.0
 47
0.1
 48
0.1
140
0.12
141
0.0
142
0.0
143
0.0393700787401575
144
25.4
145
0.0
146
0.71
147
0.06
 71
     0
 72
     0
 73
     1
 74
     1
 75
     0
 76
     0
 77
     0
 78
    11
170
     0
171
     3
172
     0
173
     0
174
     0
175
     0
176
     7
177
     7
178
     7
270
     2
271
     2
272
     3
273
     2
274
     3
340
11
275
     0
280
     0
281
     0
282
     0
283
     1
284
    11
285
    11
286
     0
287
     3
288
     1
  0
DIMSTYLE
105
41F
330
A
100
AcDbSymbolTableRecord
100
AcDbDimStyleTableRecord
  2
ANSI$SF
 70
     0
  3

  4
mm
  5

  6

  7

 40
1.0
 41
0.12
 42
0.05
 43
0.5
 44
0.1
 45
0.0
 46
0.0
 47
0.1
 48
0.1
140
0.12
141
0.0
142
0.0
143
0.0393700787401575
144
25.4
145
0.0
146
0.71
147
0.06
 71
     0
 72
     0
 73
     1
 74
     1
 75
     1
 76
     1
 77
     0
 78
    11
170
     0
171
     3
172
     0
173
     0
174
     0
175
     0
176
     7
177
     7
178
     7
270
     2
271
     2
272
     3
273
     2
274
     3
340
11
275
     0
280
     0
281
     0
282
     0
283
     1
284
    11
285
    11
286
     0
287
     3
288
     1
  0
DIMSTYLE
105
420
330
A
100
AcDbSymbolTableRecord
100
AcDbDimStyleTableRecord
  2
ANSI$SH
 70
     0
  3

  4
mm
  5

  6

  7

 40
1.0
 41
0.12
 42
0.05
 43
0.5
 44
0.1
 45
0.0
 46
0.0
 47
0.1
 48
0.1
140
0.12
141
0.0
142
0.0
143
0.0393700787401575
144
25.4
145
0.0
146
0.71
147
0.06
 71
     0
 72
     0
 73
     1
 74
     1
 75
     1
 76
     1
 77
     0
 78
    11
170
     0
171
     3
172
     0
173
     1
174
     0
175
     0
176
     7
177
     7
178
     7
270
     2
271
     2
272
     3
273
     2
274
     3
340
11
275
     0
280
     0
281
     0
282
     0
283
     1
284
    11
285
    11
286
     0
287
     3
288
     1
  0
DIMSTYLE
105
422
330
A
100
AcDbSymbolTableRecord
100
AcDbDimStyleTableRecord
  2
ONSHAPE-STANDARD$2
 70
     0
  3

  4

  5

  6

  7

 40
1.0
 41
0.18
 42
0.0625
 43
0.38
 44
0.08
 45
0.0
 46
0.0
 47
0.0
 48
0.0
140
0.12
141
0.09
142
0.0
143
0.0393700787401575
144
25.4
145
0.0
146
1.0
147
0.09
 71
     0
 72
     0
 73
     1
 74
     1
 75
     0
 76
     0
 77
     0
 78
    11
170
     0
171
     3
172
     0
173
     0
174
     0
175
     0
176
     7
177
     7
178
     7
179
     1
270
     2
271
     2
272
     2
273
     2
274
     3
340
73
275
     0
280
     0
281
     0
282
     0
283
     1
284
    11
285
    11
286
     0
287
     3
288
     1
  0
DIMSTYLE
105
423
330
A
100
AcDbSymbolTableRecord
100
AcDbDimStyleTableRecord
  2
ONSHAPE-STANDARD$4
 70
     0
  3

  4

  5

  6

  7

 40
1.0
 41
0.18
 42
0.0625
 43
0.38
 44
0.08
 45
0.0
 46
0.0
 47
0.0
 48
0.0
140
0.12
141
0.0
142
0.0
143
0.0393700787401575
144
25.4
145
0.0
146
1.0
147
0.09
 71
     0
 72
     0
 73
     1
 74
     1
 75
     0
 76
     0
 77
     0
 78
    11
170
     0
171
     3
172
     0
173
     0
174
     0
175
     0
176
     7
177
     7
178
     7
179
     1
270
     2
271
     2
272
     2
273
     2
274
     3
340
73
275
     0
280
     0
281
     0
282
     0
283
     1
284
    11
285
    11
286
     0
287
     3
288
     1
  0
DIMSTYLE
105
424
330
A
100
AcDbSymbolTableRecord
100
AcDbDimStyleTableRecord
  2
ONSHAPE-STANDARD$6
 70
     0
  3

  4

  5

  6

  7

 40
1.0
 41
0.02
 42
0.0625
 43
0.38
 44
0.08
 45
0.0
 46
0.0
 47
0.0
 48
0.0
140
0.12
141
0.09
142
0.0
143
0.0393700787401575
144
25.4
145
0.0
146
1.0
147
0.09
 71
     0
 72
     0
 73
     1
 74
     1
 75
     0
 76
     0
 77
     0
 78
    11
170
     0
171
     3
172
     0
173
     0
174
     0
175
     0
176
     7
177
     7
178
     7
179
     1
270
     2
271
     2
272
     2
273
     2
274
     3
340
73
275
     0
280
     0
281
     0
282
     0
283
     1
284
    11
285
    11
286
     0
287
     3
288
     1
  0
DIMSTYLE
105
425
330
A
100
AcDbSymbolTableRecord
100
AcDbDimStyleTableRecord
  2
ONSHAPE-STANDARD$7
 70
     0
  3

  4

  5

  6

  7

 40
1.0
 41
0.18
 42
0.0625
 43
0.38
 44
0.08
 45
0.0
 46
0.0
 47
0.0
 48
0.0
140
0.12
141
0.09
142
0.0
143
0.0393700787401575
144
25.4
145
0.0
146
1.0
147
0.09
 71
     0
 72
     0
 73
     1
 74
     1
 75
     0
 76
     0
 77
     0
 78
    11
170
     0
171
     3
172
     0
173
     0
174
     0
175
     0
176
     7
177
     7
178
     7
179
     1
270
     2
271
     2
272
     2
273
     2
274
     3
340
73
275
     0
280
     0
281
     0
282
     0
283
     1
284
    11
285
    11
286
     0
287
     3
288
     1
  0
DIMSTYLE
105
426
330
A
100
AcDbSymbolTableRecord
100
AcDbDimStyleTableRecord
  2
ONSHAPE-STANDARD-GTOLERANC
 70
     0
  3

  4

  5

  6

  7

 40
1.0
 41
0.18
 42
0.0625
 43
0.38
 44
0.08
 45
0.0
 46
0.0
 47
0.0
 48
0.0
140
0.12
141
0.09
142
0.0
143
0.0393700787401575
144
25.4
145
0.0
146
1.0
147
0.09
 71
     0
 72
     0
 73
     1
 74
     1
 75
     0
 76
     0
 77
     0
 78
    11
170
     0
171
     3
172
     0
173
     0
174
     0
175
     0
176
     7
177
     7
178
     7
179
     1
270
     2
271
     2
272
     2
273
     2
274
     3
340
3FF
275
     0
280
     0
281
     0
282
     0
283
     1
284
    11
285
    11
286
     0
287
     3
288
     1
  0
DIMSTYLE
105
428
330
A
100
AcDbSymbolTableRecord
100
AcDbDimStyleTableRecord
  2
ONSHAPE-ORDINATESTYLE
 70
     0
  3

  4

  5

  6

  7

 40
1.0
 41
0.02
 42
0.0625
 43
0.38
 44
0.08
 45
0.0
 46
0.0
 47
0.0
 48
0.0
140
0.12
141
0.09
142
0.0
143
0.0393700787401575
144
25.4
145
0.0
146
1.0
147
0.09
 71
     0
 72
     0
 73
     1
 74
     1
 75
     0
 76
     0
 77
     0
 78
    11
170
     0
171
     3
172
     0
173
     0
174
     0
175
     0
176
     7
177
     7
178
     7
179
     1
270
     2
271
     2
272
     2
273
     2
274
     3
340
73
275
     0
280
     0
281
     0
282
     0
283
     1
284
    11
285
    11
286
     0
287
     3
288
     1
  0
DIMSTYLE
105
429
330
A
100
AcDbSymbolTableRecord
100
AcDbDimStyleTableRecord
  2
ONSHAPE-CHAMFERDIMSTYLE
 70
     0
  3

  4

  5

  6

  7

 40
1.0
 41
0.18
 42
0.0625
 43
0.38
 44
0.08
 45
0.0
 46
0.0
 47
0.0
 48
0.0
140
0.12
141
0.09
142
0.0
143
0.0393700787401575
144
25.4
145
0.0
146
1.0
147
0.09
 71
     0
 72
     0
 73
     1
 74
     1
 75
     0
 76
     0
 77
     0
 78
    11
170
     0
171
     3
172
     0
173
     0
174
     0
175
     0
176
     7
177
     7
178
     7
179
     1
270
     2
271
     2
272
     2
273
     2
274
     3
340
73
275
     0
280
     0
281
     0
282
     0
283
     1
284
    11
285
    11
286
     0
287
     3
288
     1
  0
DIMSTYLE
105
42A
330
A
100
AcDbSymbolTableRecord
100
AcDbDimStyleTableRecord
  2
ONSHAPE-SKETCHDRIVENDIMSTY
 70
     0
  3

  4

  5

  6

  7

 40
1.0
 41
0.18
 42
0.0625
 43
0.38
 44
0.08
 45
0.0
 46
0.0
 47
0.0
 48
0.0
140
0.12
141
0.09
142
0.0
143
0.0393700787401575
144
25.4
145
0.0
146
1.0
147
0.09
 71
     0
 72
     0
 73
     1
 74
     1
 75
     0
 76
     0
 77
     0
 78
    11
170
     0
171
     3
172
     0
173
     0
174
     0
175
     0
176
   251
177
   251
178
   251
179
     1
270
     2
271
     2
272
     2
273
     2
274
     3
340
73
275
     0
280
     0
281
     0
282
     0
283
     1
284
    11
285
    11
286
     0
287
     3
288
     1
  0
DIMSTYLE
105
42B
330
A
100
AcDbSymbolTableRecord
100
AcDbDimStyleTableRecord
  2
ONSHAPE-SKETCHDRIVENDIMST0
 70
     0
  3

  4

  5

  6

  7

 40
1.0
 41
0.18
 42
0.0625
 43
0.38
 44
0.08
 45
0.0
 46
0.0
 47
0.0
 48
0.0
140
0.12
141
0.09
142
0.0
143
0.0393700787401575
144
25.4
145
0.0
146
1.0
147
0.09
 71
     0
 72
     0
 73
     1
 74
     1
 75
     0
 76
     0
 77
     0
 78
    11
170
     0
171
     3
172
     0
173
     0
174
     0
175
     0
176
   251
177
   251
178
   251
179
     1
270
     2
271
     2
272
     2
273
     2
274
     3
340
73
275
     0
280
     0
281
     0
282
     0
283
     1
284
    11
285
    11
286
     0
287
     3
288
     1
  0
DIMSTYLE
105
42C
330
A
100
AcDbSymbolTableRecord
100
AcDbDimStyleTableRecord
  2
ONSHAPE-SKETCHDRIVENDIMST1
 70
     0
  3

  4

  5

  6

  7

 40
1.0
 41
0.18
 42
0.0625
 43
0.38
 44
0.08
 45
0.0
 46
0.0
 47
0.0
 48
0.0
140
0.12
141
0.0
142
0.0
143
0.0393700787401575
144
25.4
145
0.0
146
1.0
147
0.09
 71
     0
 72
     0
 73
     1
 74
     1
 75
     0
 76
     0
 77
     0
 78
    11
170
     0
171
     3
172
     0
173
     0
174
     0
175
     0
176
   251
177
   251
178
   251
179
     1
270
     2
271
     2
272
     2
273
     2
274
     3
340
73
275
     0
280
     0
281
     0
282
     0
283
     1
284
    11
285
    11
286
     0
287
     3
288
     1
  0
DIMSTYLE
105
42D
330
A
100
AcDbSymbolTableRecord
100
AcDbDimStyleTableRecord
  2
ONSHAPE-SKETCHDRIVENDIMST2
 70
     0
  3

  4

  5

  6

  7

 40
1.0
 41
0.18
 42
0.0625
 43
0.38
 44
0.08
 45
0.0
 46
0.0
 47
0.0
 48
0.0
140
0.12
141
0.0
142
0.0
143
0.0393700787401575
144
25.4
145
0.0
146
1.0
147
0.09
 71
     0
 72
     0
 73
     1
 74
     1
 75
     0
 76
     0
 77
     0
 78
    11
170
     0
171
     3
172
     0
173
     0
174
     0
175
     0
176
   251
177
   251
178
   251
179
     1
270
     2
271
     2
272
     2
273
     2
274
     3
340
73
275
     0
280
     0
281
     0
282
     0
283
     1
284
    11
285
    11
286
     0
287
     3
288
     1
  0
ENDTAB
  0
TABLE
  2
BLOCK_RECORD
  5
1
330
0
100
AcDbSymbolTable
 70
     3
  0
BLOCK_RECORD
  5
1F
330
1
100
AcDbSymbolTableRecord
100
AcDbBlockTableRecord
  2
*MODEL_SPACE
  0
BLOCK_RECORD
  5
1B
330
1
100
AcDbSymbolTableRecord
100
AcDbBlockTableRecord
  2
*PAPER_SPACE
  0
BLOCK_RECORD
  5
3B6
330
1
100
AcDbSymbolTableRecord
100
AcDbBlockTableRecord
  2
*D1
  0
BLOCK_RECORD
  5
3CD
330
1
100
AcDbSymbolTableRecord
100
AcDbBlockTableRecord
  2
*D2
  0
BLOCK_RECORD
  5
3E1
330
1
100
AcDbSymbolTableRecord
100
AcDbBlockTableRecord
  2
*D3
  0
ENDTAB
  0
ENDSEC
  0
SECTION
  2
BLOCKS
  0
BLOCK
  5
20
330
1F
100
AcDbEntity
  8
0
100
AcDbBlockBegin
  2
*MODEL_SPACE
 70
     0
 10
0.0
 20
0.0
 30
0.0
  3
*MODEL_SPACE
  1

  0
ENDBLK
  5
21
330
1F
100
AcDbEntity
  8
0
100
AcDbBlockEnd
  0
BLOCK
  5
1C
330
1B
100
AcDbEntity
 67
     1
  8
0
100
AcDbBlockBegin
  2
*PAPER_SPACE
 70
     0
 10
0.0
 20
0.0
 30
0.0
  3
*PAPER_SPACE
  1

  0
ENDBLK
  5
1D
330
1B
100
AcDbEntity
 67
     1
  8
0
100
AcDbBlockEnd
  0
BLOCK
  5
3B7
330
3B6
100
AcDbEntity
  8
0
100
AcDbBlockBegin
  2
*D1
 70
     1
 10
0.0
 20
0.0
 30
0.0
  3
*D1
  1

  0
LINE
  5
3B8
330
3B6
100
AcDbEntity
  8
ANNOTATION_TEXT
 62
     7
100
AcDbLine
 10
4.026582063131322
 20
6.481440484097323
 30
0.0
 11
2.870787074813501
 21
6.481440484097323
 31
0.0
1001
INDEX
1070
     0
  0
LINE
  5
3BA
330
3B6
100
AcDbEntity
  8
ANNOTATION_TEXT
 62
     7
100
AcDbLine
 10
4.026428840268991
 20
3.134983791183937
 30
0.0
 11
2.870787074813501
 21
3.134983791183937
 31
0.0
1001
INDEX
1070
     1
  0
LINE
  5
3BB
330
3B6
100
AcDbEntity
  8
ANNOTATION_TEXT
 62
     7
100
AcDbLine
 10
2.950787074813501
 20
6.301440484097323
 30
0.0
 11
2.950787074813501
 21
4.959642655351801
 31
0.0
1001
INDEX
1070
     3
  0
LINE
  5
3BC
330
3B6
100
AcDbEntity
  8
ANNOTATION_TEXT
 62
     7
100
AcDbLine
 10
2.950787074813501
 20
3.314983791183937
 30
0.0
 11
2.950787074813501
 21
4.656781619929458
 31
0.0
1001
INDEX
1070
     3
  0
SOLID
  5
3BD
330
3B6
100
AcDbEntity
  8
ANNOTATION_TEXT
 62
     7
100
AcDbTrace
 10
2.980787074813501
 20
6.301440484097323
 30
0.0
 11
2.920787074813501
 21
6.301440484097323
 31
0.0
 12
2.950787074813501
 22
6.481440484097323
 32
0.0
 13
2.950787074813501
 23
6.481440484097323
 33
0.0
  0
SOLID
  5
3BE
330
3B6
100
AcDbEntity
  8
ANNOTATION_TEXT
 62
     7
100
AcDbTrace
 10
2.920787074813501
 20
3.314983791183937
 30
0.0
 11
2.980787074813501
 21
3.314983791183937
 31
0.0
 12
2.950787074813501
 22
3.134983791183937
 32
0.0
 13
2.950787074813501
 23
3.134983791183937
 33
0.0
  0
MTEXT
  5
3BF
330
3B6
100
AcDbEntity
  8
ANNOTATION_TEXT
 62
     7
100
AcDbMText
 10
2.950787074813501
 20
4.80821213764063
 30
0.0
 40
0.12
 41
0.0
 71
     5
 72
     1
  1
\A1;85
  7
ONSHAPE-STANDARD-DIMENSION
  0
POINT
  5
3C0
330
3B6
100
AcDbEntity
  8
DEFPOINTS
 62
     0
100
AcDbPoint
 10
4.089082063131322
 20
6.481440484097323
 30
0.0
  0
POINT
  5
3C1
330
3B6
100
AcDbEntity
  8
DEFPOINTS
 62
     0
100
AcDbPoint
 10
4.088928840268991
 20
3.134983791183937
 30
0.0
  0
POINT
  5
3C2
330
3B6
100
AcDbEntity
  8
DEFPOINTS
 62
     0
100
AcDbPoint
 10
2.950787074813501
 20
3.134983791183937
 30
0.0
  0
ENDBLK
  5
3C3
330
3B6
100
AcDbEntity
  8
0
100
AcDbBlockEnd
  0
BLOCK
  5
3CE
330
3CD
100
AcDbEntity
  8
0
100
AcDbBlockBegin
  2
*D2
 70
     1
 10
0.0
 20
0.0
 30
0.0
  3
*D2
  1

  0
LINE
  5
3CF
330
3CD
100
AcDbEntity
  8
ANNOTATION_TEXT
 62
     7
100
AcDbLine
 10
3.695381275729747
 20
6.150392919558456
 30
0.0
 11
3.695381275729747
 21
6.418940484097323
 31
0.0
1001
INDEX
1070
     0
  0
LINE
  5
3D0
330
3CD
100
AcDbEntity
  8
ANNOTATION_TEXT
 62
     7
100
AcDbLine
 10
3.695381275729747
 20
6.543940484097323
 30
0.0
 11
3.695381275729747
 21
6.947773119030119
 31
0.0
1001
INDEX
1070
     0
  0
LINE
  5
3D1
330
3CD
100
AcDbEntity
  8
ANNOTATION_TEXT
 62
     7
100
AcDbLine
 10
7.041837968643133
 20
6.150239696695748
 30
0.0
 11
7.041837968643133
 21
6.947773119030119
 31
0.0
1001
INDEX
1070
     1
  0
LINE
  5
3D2
330
3CD
100
AcDbEntity
  8
ANNOTATION_TEXT
 62
     7
100
AcDbLine
 10
3.875381275729747
 20
6.867773119030119
 30
0.0
 11
5.192124608562462
 21
6.867773119030119
 31
0.0
1001
INDEX
1070
     3
  0
LINE
  5
3D3
330
3CD
100
AcDbEntity
  8
ANNOTATION_TEXT
 62
     7
100
AcDbLine
 10
6.861837968643133
 20
6.867773119030119
 30
0.0
 11
5.545094635810418
 21
6.867773119030119
 31
0.0
1001
INDEX
1070
     3
  0
SOLID
  5
3D4
330
3CD
100
AcDbEntity
  8
ANNOTATION_TEXT
 62
     7
100
AcDbTrace
 10
3.875381275729747
 20
6.897773119030119
 30
0.0
 11
3.875381275729747
 21
6.837773119030119
 31
0.0
 12
3.695381275729747
 22
6.867773119030119
 32
0.0
 13
3.695381275729747
 23
6.867773119030119
 33
0.0
  0
SOLID
  5
3D5
330
3CD
100
AcDbEntity
  8
ANNOTATION_TEXT
 62
     7
100
AcDbTrace
 10
6.861837968643133
 20
6.837773119030119
 30
0.0
 11
6.861837968643133
 21
6.897773119030119
 31
0.0
 12
7.041837968643133
 22
6.867773119030119
 32
0.0
 13
7.041837968643133
 23
6.867773119030119
 33
0.0
  0
MTEXT
  5
3D6
330
3CD
100
AcDbEntity
  8
ANNOTATION_TEXT
 62
     7
100
AcDbMText
 10
5.36860962218644
 20
6.867773119030119
 30
0.0
 40
0.12
 41
0.0
 71
     5
 72
     1
  1
\A1;85
  7
ONSHAPE-STANDARD-DIMENSION
  0
POINT
  5
3D7
330
3CD
100
AcDbEntity
  8
DEFPOINTS
 62
     0
100
AcDbPoint
 10
3.695381275729747
 20
6.087892919558456
 30
0.0
  0
POINT
  5
3D8
330
3CD
100
AcDbEntity
  8
DEFPOINTS
 62
     0
100
AcDbPoint
 10
7.041837968643133
 20
6.087739696695748
 30
0.0
  0
POINT
  5
3D9
330
3CD
100
AcDbEntity
  8
DEFPOINTS
 62
     0
100
AcDbPoint
 10
7.041837968643133
 20
6.867773119030119
 30
0.0
  0
ENDBLK
  5
3DA
330
3CD
100
AcDbEntity
  8
0
100
AcDbBlockEnd
  0
BLOCK
  5
3E2
330
3E1
100
AcDbEntity
  8
0
100
AcDbBlockBegin
  2
*D3
 70
     1
 10
0.0
 20
0.0
 30
0.0
  3
*D3
  1

  0
LINE
  5
3E3
330
3E1
100
AcDbEntity
  8
ANNOTATION_TEXT
 62
     7
100
AcDbLine
 10
7.436964787833467
 20
6.665809867397551
 30
0.0
 11
7.256964787833467
 21
6.665809867397551
 31
0.0
1001
INDEX
1070
     3
  0
LINE
  5
3E4
330
3E1
100
AcDbEntity
  8
ANNOTATION_TEXT
 62
     7
100
AcDbLine
 10
7.256964787833467
 20
6.665809867397551
 30
0.0
 11
7.087744640972703
 21
6.509469543946205
 31
0.0
1001
INDEX
1070
     3
  0
MTEXT
  5
3E5
330
3E1
100
AcDbEntity
  8
ANNOTATION_TEXT
 62
     7
100
AcDbMText
 10
7.700220918623657
 20
6.665809867397551
 30
0.0
 40
0.12
 41
0.0
 71
     5
 72
     1
  1
\A1;%%c2.3
  7
ONSHAPE-STANDARD-DIMENSION
  0
SOLID
  5
3E6
330
3E1
100
AcDbEntity
  8
ANNOTATION_TEXT
 62
     7
100
AcDbTrace
 10
6.997969993007087
 20
6.467371633927894
 30
0.0
 11
7.03868607539074
 21
6.423301228491506
 31
0.0
 12
6.886116817889751
 22
6.323188184058741
 32
0.0
 13
6.886116817889751
 23
6.323188184058741
 33
0.0
  0
POINT
  5
3E7
330
3E1
100
AcDbEntity
  8
DEFPOINTS
 62
     0
100
AcDbPoint
 10
6.886116817889751
 20
6.323188184058741
 30
0.0
  0
POINT
  5
3E8
330
3E1
100
AcDbEntity
  8
DEFPOINTS
 62
     0
100
AcDbPoint
 10
6.819606363491004
 20
6.261740028230393
 30
0.0
  0
ENDBLK
  5
3E9
330
3E1
100
AcDbEntity
  8
0
100
AcDbBlockEnd
  0
ENDSEC
  0
SECTION
  2
ENTITIES
  0
LINE
  5
76
330
1F
100
AcDbEntity
  8
VISIBLE
100
AcDbLine
 10
7.041740842658881
 20
6.100109184884724
 30
0.0
 11
7.041837968643133
 21
6.087739696695748
 31
0.0
  0
LINE
  5
77
330
1F
100
AcDbEntity
  8
VISIBLE
100
AcDbLine
 10
7.041837968643133
 20
6.087739696695748
 30
0.0
 11
7.041837968643133
 21
3.528684578585511
 31
0.0
  0
ARC
  5
78
330
1F
100
AcDbEntity
  8
VISIBLE
100
AcDbCircle
 10
6.648212391646755
 20
3.528514487838661
 30
0.0
 40
0.3936256137455906
100
AcDbArc
 50
271.7898347653725
 51
0.0247582522368663
  0
LINE
  5
79
330
1F
100
AcDbEntity
  8
VISIBLE
100
AcDbLine
 10
6.660506669430535
 20
3.135080917168189
 30
0.0
 11
6.648137181241559
 21
3.134983791183937
 31
0.0
  0
LINE
  5
7A
330
1F
100
AcDbEntity
  8
VISIBLE
100
AcDbLine
 10
6.648137181241559
 20
3.134983791183937
 30
0.0
 11
4.088928840268991
 21
3.134983791183937
 31
0.0
  0
ARC
  5
7B
330
1F
100
AcDbEntity
  8
VISIBLE
100
AcDbCircle
 10
4.088909662805204
 20
3.528609144699303
 30
0.0
 40
0.3936256137455906
100
AcDbArc
 50
181.7916797596068
 51
270.0027914552367
  0
LINE
  5
7C
330
1F
100
AcDbEntity
  8
VISIBLE
100
AcDbLine
 10
3.69547653178221
 20
3.516302198215056
 30
0.0
 11
3.695381275729747
 21
3.528684578585511
 31
0.0
  0
LINE
  5
7D
330
1F
100
AcDbEntity
  8
VISIBLE
100
AcDbLine
 10
3.695381275729747
 20
3.528684578585511
 30
0.0
 11
3.695381275729747
 21
6.087892919558456
 31
0.0
  0
ARC
  5
7E
330
1F
100
AcDbEntity
  8
VISIBLE
100
AcDbCircle
 10
4.08900662924458
 20
6.087912097022291
 30
0.0
 40
0.3936256137455906
100
AcDbArc
 50
91.79167976196447
 51
180.0027914552434
  0
LINE
  5
7F
330
1F
100
AcDbEntity
  8
VISIBLE
100
AcDbLine
 10
4.076699682744145
 20
6.48134522804473
 30
0.0
 11
4.089082063131322
 21
6.481440484097323
 31
0.0
  0
LINE
  5
80
330
1F
100
AcDbEntity
  8
VISIBLE
100
AcDbLine
 10
4.089082063131322
 20
6.481440484097323
 30
0.0
 11
6.648137181241559
 21
6.481440484097323
 31
0.0
  0
ARC
  5
81
330
1F
100
AcDbEntity
  8
VISIBLE
100
AcDbCircle
 10
6.648307271988606
 20
6.087814907100944
 30
0.0
 40
0.3936256137455906
100
AcDbArc
 50
1.789834765373379
 51
90.02475825226557
  0
CIRCLE
  5
82
330
1F
100
AcDbEntity
  8
VISIBLE
100
AcDbCircle
 10
3.884357653682503
 20
3.323960169136693
 30
0.0
 40
0.0452755905511811
  0
CIRCLE
  5
83
330
1F
100
AcDbEntity
  8
VISIBLE
100
AcDbCircle
 10
3.96860962218644
 20
3.85821213764063
 30
0.0
 40
0.0196850393700787
  0
CIRCLE
  5
84
330
1F
100
AcDbEntity
  8
VISIBLE
100
AcDbCircle
 10
3.96860962218644
 20
3.95821213764063
 30
0.0
 40
0.0196850393700787
  0
CIRCLE
  5
85
330
1F
100
AcDbEntity
  8
VISIBLE
100
AcDbCircle
 10
5.21860962218644
 20
3.233408988034331
 30
0.0
 40
0.0196850393700787
  0
CIRCLE
  5
86
330
1F
100
AcDbEntity
  8
VISIBLE
100
AcDbCircle
 10
5.318609622186441
 20
3.233408988034331
 30
0.0
 40
0.0196850393700787
  0
CIRCLE
  5
87
330
1F
100
AcDbEntity
  8
VISIBLE
100
AcDbCircle
 10
4.876483637934472
 20
3.646794814805984
 30
0.0
 40
0.0196850393700787
  0
CIRCLE
  5
88
330
1F
100
AcDbEntity
  8
VISIBLE
100
AcDbCircle
 10
3.96860962218644
 20
4.05821213764063
 30
0.0
 40
0.0196850393700787
  0
CIRCLE
  5
89
330
1F
100
AcDbEntity
  8
VISIBLE
100
AcDbCircle
 10
3.96860962218644
 20
4.158212137640629
 30
0.0
 40
0.0196850393700787
  0
CIRCLE
  5
8A
330
1F
100
AcDbEntity
  8
VISIBLE
100
AcDbCircle
 10
3.96860962218644
 20
4.25821213764063
 30
0.0
 40
0.0196850393700787
  0
CIRCLE
  5
8B
330
1F
100
AcDbEntity
  8
VISIBLE
100
AcDbCircle
 10
3.96860962218644
 20
4.35821213764063
 30
0.0
 40
0.0196850393700787
  0
CIRCLE
  5
8C
330
1F
100
AcDbEntity
  8
VISIBLE
100
AcDbCircle
 10
3.96860962218644
 20
4.45821213764063
 30
0.0
 40
0.0196850393700787
  0
CIRCLE
  5
8D
330
1F
100
AcDbEntity
  8
VISIBLE
100
AcDbCircle
 10
3.96860962218644
 20
4.55821213764063
 30
0.0
 40
0.0196850393700787
  0
CIRCLE
  5
8E
330
1F
100
AcDbEntity
  8
VISIBLE
100
AcDbCircle
 10
3.96860962218644
 20
4.658212137640629
 30
0.0
 40
0.0196850393700787
  0
CIRCLE
  5
8F
330
1F
100
AcDbEntity
  8
VISIBLE
100
AcDbCircle
 10
3.96860962218644
 20
4.75821213764063
 30
0.0
 40
0.0196850393700787
  0
CIRCLE
  5
90
330
1F
100
AcDbEntity
  8
VISIBLE
100
AcDbCircle
 10
5.41860962218644
 20
3.233408988034331
 30
0.0
 40
0.0196850393700787
  0
CIRCLE
  5
91
330
1F
100
AcDbEntity
  8
VISIBLE
100
AcDbCircle
 10
5.518609622186441
 20
3.233408988034331
 30
0.0
 40
0.0196850393700787
  0
CIRCLE
  5
92
330
1F
100
AcDbEntity
  8
VISIBLE
100
AcDbCircle
 10
5.860735606438409
 20
3.646794814805984
 30
0.0
 40
0.0196850393700787
  0
CIRCLE
  5
93
330
1F
100
AcDbEntity
  8
VISIBLE
100
AcDbCircle
 10
6.852861590690377
 20
3.323960169136693
 30
0.0
 40
0.0452755905511811
  0
CIRCLE
  5
94
330
1F
100
AcDbEntity
  8
VISIBLE
100
AcDbCircle
 10
6.768609622186441
 20
3.85821213764063
 30
0.0
 40
0.0196850393700787
  0
CIRCLE
  5
95
330
1F
100
AcDbEntity
  8
VISIBLE
100
AcDbCircle
 10
6.768609622186441
 20
3.95821213764063
 30
0.0
 40
0.0196850393700787
  0
CIRCLE
  5
96
330
1F
100
AcDbEntity
  8
VISIBLE
100
AcDbCircle
 10
6.768609622186441
 20
4.05821213764063
 30
0.0
 40
0.0196850393700787
  0
CIRCLE
  5
97
330
1F
100
AcDbEntity
  8
VISIBLE
100
AcDbCircle
 10
6.768609622186441
 20
4.158212137640629
 30
0.0
 40
0.0196850393700787
  0
CIRCLE
  5
98
330
1F
100
AcDbEntity
  8
VISIBLE
100
AcDbCircle
 10
6.768609622186441
 20
4.25821213764063
 30
0.0
 40
0.0196850393700787
  0
CIRCLE
  5
99
330
1F
100
AcDbEntity
  8
VISIBLE
100
AcDbCircle
 10
6.768609622186441
 20
4.35821213764063
 30
0.0
 40
0.0196850393700787
  0
CIRCLE
  5
9A
330
1F
100
AcDbEntity
  8
VISIBLE
100
AcDbCircle
 10
6.768609622186441
 20
4.45821213764063
 30
0.0
 40
0.0196850393700787
  0
CIRCLE
  5
9B
330
1F
100
AcDbEntity
  8
VISIBLE
100
AcDbCircle
 10
6.768609622186441
 20
4.55821213764063
 30
0.0
 40
0.0196850393700787
  0
CIRCLE
  5
9C
330
1F
100
AcDbEntity
  8
VISIBLE
100
AcDbCircle
 10
6.768609622186441
 20
4.658212137640629
 30
0.0
 40
0.0196850393700787
  0
CIRCLE
  5
9D
330
1F
100
AcDbEntity
  8
VISIBLE
100
AcDbCircle
 10
6.768609622186441
 20
4.75821213764063
 30
0.0
 40
0.0196850393700787
  0
CIRCLE
  5
9E
330
1F
100
AcDbEntity
  8
VISIBLE
100
AcDbCircle
 10
3.96860962218644
 20
4.85821213764063
 30
0.0
 40
0.0196850393700787
  0
CIRCLE
  5
9F
330
1F
100
AcDbEntity
  8
VISIBLE
100
AcDbCircle
 10
3.96860962218644
 20
4.95821213764063
 30
0.0
 40
0.0196850393700787
  0
CIRCLE
  5
A0
330
1F
100
AcDbEntity
  8
VISIBLE
100
AcDbCircle
 10
3.96860962218644
 20
5.05821213764063
 30
0.0
 40
0.0196850393700787
  0
CIRCLE
  5
A1
330
1F
100
AcDbEntity
  8
VISIBLE
100
AcDbCircle
 10
3.96860962218644
 20
5.158212137640629
 30
0.0
 40
0.0196850393700787
  0
CIRCLE
  5
A2
330
1F
100
AcDbEntity
  8
VISIBLE
100
AcDbCircle
 10
3.96860962218644
 20
5.25821213764063
 30
0.0
 40
0.0196850393700787
  0
CIRCLE
  5
A3
330
1F
100
AcDbEntity
  8
VISIBLE
100
AcDbCircle
 10
3.96860962218644
 20
5.35821213764063
 30
0.0
 40
0.0196850393700787
  0
CIRCLE
  5
A4
330
1F
100
AcDbEntity
  8
VISIBLE
100
AcDbCircle
 10
3.96860962218644
 20
5.45821213764063
 30
0.0
 40
0.0196850393700787
  0
CIRCLE
  5
A5
330
1F
100
AcDbEntity
  8
VISIBLE
100
AcDbCircle
 10
3.96860962218644
 20
5.55821213764063
 30
0.0
 40
0.0196850393700787
  0
CIRCLE
  5
A6
330
1F
100
AcDbEntity
  8
VISIBLE
100
AcDbCircle
 10
3.96860962218644
 20
5.65821213764063
 30
0.0
 40
0.0196850393700787
  0
CIRCLE
  5
A7
330
1F
100
AcDbEntity
  8
VISIBLE
100
AcDbCircle
 10
3.96860962218644
 20
5.75821213764063
 30
0.0
 40
0.0196850393700787
  0
CIRCLE
  5
A8
330
1F
100
AcDbEntity
  8
VISIBLE
100
AcDbCircle
 10
4.132979700926597
 20
5.766873554963464
 30
0.0
 40
0.015
  0
CIRCLE
  5
A9
330
1F
100
AcDbEntity
  8
VISIBLE
100
AcDbCircle
 10
4.132979700926597
 20
5.866873554963465
 30
0.0
 40
0.015
  0
CIRCLE
  5
AA
330
1F
100
AcDbEntity
  8
VISIBLE
100
AcDbCircle
 10
4.132979700926597
 20
5.966873554963464
 30
0.0
 40
0.015
  0
CIRCLE
  5
AB
330
1F
100
AcDbEntity
  8
VISIBLE
100
AcDbCircle
 10
4.232782850532897
 20
5.764905051026457
 30
0.0
 40
0.0354330708661417
  0
CIRCLE
  5
AC
330
1F
100
AcDbEntity
  8
VISIBLE
100
AcDbCircle
 10
4.232782850532897
 20
5.867267255750866
 30
0.0
 40
0.0354330708661417
  0
CIRCLE
  5
AD
330
1F
100
AcDbEntity
  8
VISIBLE
100
AcDbCircle
 10
4.132979700926597
 20
6.066873554963465
 30
0.0
 40
0.015
  0
CIRCLE
  5
AE
330
1F
100
AcDbEntity
  8
VISIBLE
100
AcDbCircle
 10
4.132979700926597
 20
6.166873554963464
 30
0.0
 40
0.015
  0
CIRCLE
  5
AF
330
1F
100
AcDbEntity
  8
VISIBLE
100
AcDbCircle
 10
3.884357653682503
 20
6.292464106144567
 30
0.0
 40
0.0452755905511811
  0
CIRCLE
  5
B0
330
1F
100
AcDbEntity
  8
VISIBLE
100
AcDbCircle
 10
4.876483637934472
 20
5.969629460475275
 30
0.0
 40
0.0196850393700787
  0
CIRCLE
  5
B1
330
1F
100
AcDbEntity
  8
VISIBLE
100
AcDbCircle
 10
5.218215921399039
 20
6.383015287246929
 30
0.0
 40
0.0196850393700787
  0
CIRCLE
  5
B2
330
1F
100
AcDbEntity
  8
VISIBLE
100
AcDbCircle
 10
5.318215921399038
 20
6.383015287246929
 30
0.0
 40
0.0196850393700787
  0
CIRCLE
  5
B3
330
1F
100
AcDbEntity
  8
VISIBLE
100
AcDbCircle
 10
6.768609622186441
 20
4.85821213764063
 30
0.0
 40
0.0196850393700787
  0
CIRCLE
  5
B4
330
1F
100
AcDbEntity
  8
VISIBLE
100
AcDbCircle
 10
6.768609622186441
 20
4.95821213764063
 30
0.0
 40
0.0196850393700787
  0
CIRCLE
  5
B5
330
1F
100
AcDbEntity
  8
VISIBLE
100
AcDbCircle
 10
6.768609622186441
 20
5.05821213764063
 30
0.0
 40
0.0196850393700787
  0
CIRCLE
  5
B6
330
1F
100
AcDbEntity
  8
VISIBLE
100
AcDbCircle
 10
6.768609622186441
 20
5.158212137640629
 30
0.0
 40
0.0196850393700787
  0
CIRCLE
  5
B7
330
1F
100
AcDbEntity
  8
VISIBLE
100
AcDbCircle
 10
6.768609622186441
 20
5.25821213764063
 30
0.0
 40
0.0196850393700787
  0
CIRCLE
  5
B8
330
1F
100
AcDbEntity
  8
VISIBLE
100
AcDbCircle
 10
6.768609622186441
 20
5.35821213764063
 30
0.0
 40
0.0196850393700787
  0
CIRCLE
  5
B9
330
1F
100
AcDbEntity
  8
VISIBLE
100
AcDbCircle
 10
6.768609622186441
 20
5.45821213764063
 30
0.0
 40
0.0196850393700787
  0
CIRCLE
  5
BA
330
1F
100
AcDbEntity
  8
VISIBLE
100
AcDbCircle
 10
6.768609622186441
 20
5.55821213764063
 30
0.0
 40
0.0196850393700787
  0
CIRCLE
  5
BB
330
1F
100
AcDbEntity
  8
VISIBLE
100
AcDbCircle
 10
5.860735606438409
 20
5.969629460475275
 30
0.0
 40
0.0196850393700787
  0
CIRCLE
  5
BC
330
1F
100
AcDbEntity
  8
VISIBLE
100
AcDbCircle
 10
5.418215921399039
 20
6.383015287246929
 30
0.0
 40
0.0196850393700787
  0
CIRCLE
  5
BD
330
1F
100
AcDbEntity
  8
VISIBLE
100
AcDbCircle
 10
5.518215921399038
 20
6.383015287246929
 30
0.0
 40
0.0196850393700787
  0
CIRCLE
  5
BE
330
1F
100
AcDbEntity
  8
VISIBLE
100
AcDbCircle
 10
6.768609622186441
 20
5.65821213764063
 30
0.0
 40
0.0196850393700787
  0
CIRCLE
  5
BF
330
1F
100
AcDbEntity
  8
VISIBLE
100
AcDbCircle
 10
6.768609622186441
 20
5.75821213764063
 30
0.0
 40
0.0196850393700787
  0
CIRCLE
  5
C0
330
1F
100
AcDbEntity
  8
VISIBLE
100
AcDbCircle
 10
6.852861590690377
 20
6.292464106144567
 30
0.0
 40
0.0452755905511811
  0
LINE
  5
C1
330
1F
100
AcDbEntity
  8
BORDER_FRAME
100
AcDbLine
 10
0.399
 20
0.38
 30
0.0
 11
0.399
 21
8.12
 31
0.0
  0
LINE
  5
C4
330
1F
100
AcDbEntity
  8
BORDER_FRAME
100
AcDbLine
 10
0.399
 20
8.12
 30
0.0
 11
10.639
 21
8.12
 31
0.0
  0
LINE
  5
C5
330
1F
100
AcDbEntity
  8
BORDER_FRAME
100
AcDbLine
 10
10.639
 20
8.12
 30
0.0
 11
10.639
 21
0.38
 31
0.0
  0
LINE
  5
C6
330
1F
100
AcDbEntity
  8
BORDER_FRAME
100
AcDbLine
 10
10.639
 20
0.38
 30
0.0
 11
0.399
 21
0.38
 31
0.0
  0
LINE
  5
C7
330
1F
100
AcDbEntity
  8
BORDER_ZONES
100
AcDbLine
 10
5.519
 20
0.38
 30
0.0
 11
5.519
 21
0.019
 31
0.0
  0
LINE
  5
C9
330
1F
100
AcDbEntity
  8
BORDER_ZONES
100
AcDbLine
 10
5.519
 20
8.12
 30
0.0
 11
5.519
 21
8.481
 31
0.0
  0
MTEXT
  5
CA
330
1F
100
AcDbEntity
  8
BORDER_ZONES
100
AcDbMText
 10
2.769
 20
0.19
 30
0.0
 40
0.18
 41
0.0
 71
     5
 72
     1
  1
2
  7
ONSHAPE-STANDARD
  0
MTEXT
  5
CC
330
1F
100
AcDbEntity
  8
BORDER_ZONES
100
AcDbMText
 10
2.769
 20
8.309999999999999
 30
0.0
 40
0.18
 41
0.0
 71
     5
 72
     1
  1
2
  7
ONSHAPE-STANDARD
  0
MTEXT
  5
CD
330
1F
100
AcDbEntity
  8
BORDER_ZONES
100
AcDbMText
 10
8.269
 20
0.19
 30
0.0
 40
0.18
 41
0.0
 71
     5
 72
     1
  1
1
  7
ONSHAPE-STANDARD
  0
MTEXT
  5
CE
330
1F
100
AcDbEntity
  8
BORDER_ZONES
100
AcDbMText
 10
8.269
 20
8.309999999999999
 30
0.0
 40
0.18
 41
0.0
 71
     5
 72
     1
  1
1
  7
ONSHAPE-STANDARD
  0
LINE
  5
CF
330
1F
100
AcDbEntity
  8
BORDER_ZONES
100
AcDbLine
 10
0.399
 20
4.25
 30
0.0
 11
0.038
 21
4.25
 31
0.0
  0
LINE
  5
D0
330
1F
100
AcDbEntity
  8
BORDER_ZONES
100
AcDbLine
 10
10.639
 20
4.25
 30
0.0
 11
11.0
 21
4.25
 31
0.0
  0
MTEXT
  5
D1
330
1F
100
AcDbEntity
  8
BORDER_ZONES
100
AcDbMText
 10
0.209
 20
2.125
 30
0.0
 40
0.18
 41
0.0
 71
     5
 72
     1
  1
A
  7
ONSHAPE-STANDARD
  0
MTEXT
  5
D2
330
1F
100
AcDbEntity
  8
BORDER_ZONES
100
AcDbMText
 10
10.829
 20
2.125
 30
0.0
 40
0.18
 41
0.0
 71
     5
 72
     1
  1
A
  7
ONSHAPE-STANDARD
  0
MTEXT
  5
D3
330
1F
100
AcDbEntity
  8
BORDER_ZONES
100
AcDbMText
 10
0.209
 20
6.375
 30
0.0
 40
0.18
 41
0.0
 71
     5
 72
     1
  1
B
  7
ONSHAPE-STANDARD
  0
MTEXT
  5
D4
330
1F
100
AcDbEntity
  8
BORDER_ZONES
100
AcDbMText
 10
10.829
 20
6.375
 30
0.0
 40
0.18
 41
0.0
 71
     5
 72
     1
  1
B
  7
ONSHAPE-STANDARD
  0
LINE
  5
D5
330
1F
100
AcDbEntity
  8
TITLE_BLOCK
100
AcDbLine
 10
4.563999999999999
 20
0.38
 30
0.0
 11
4.563999999999999
 21
1.88
 31
0.0
  0
LINE
  5
D7
330
1F
100
AcDbEntity
  8
TITLE_BLOCK
100
AcDbLine
 10
4.563999999999999
 20
0.38
 30
0.0
 11
5.763999999999999
 21
0.38
 31
0.0
  0
LINE
  5
D8
330
1F
100
AcDbEntity
  8
TITLE_BLOCK
100
AcDbLine
 10
4.563999999999999
 20
0.6799999999999999
 30
0.0
 11
5.763999999999999
 21
0.6799999999999999
 31
0.0
  0
LINE
  5
D9
330
1F
100
AcDbEntity
  8
TITLE_BLOCK
100
AcDbLine
 10
4.563999999999999
 20
0.8
 30
0.0
 11
5.763999999999999
 21
0.8
 31
0.0
  0
LINE
  5
DA
330
1F
100
AcDbEntity
  8
TITLE_BLOCK
100
AcDbLine
 10
4.563999999999999
 20
1.004
 30
0.0
 11
5.763999999999999
 21
1.004
 31
0.0
  0
LINE
  5
DB
330
1F
100
AcDbEntity
  8
TITLE_BLOCK
100
AcDbLine
 10
4.563999999999999
 20
1.178
 30
0.0
 11
5.763999999999999
 21
1.178
 31
0.0
  0
LINE
  5
DC
330
1F
100
AcDbEntity
  8
TITLE_BLOCK
100
AcDbLine
 10
4.563999999999999
 20
1.88
 30
0.0
 11
5.763999999999999
 21
1.88
 31
0.0
  0
MTEXT
  5
DD
330
1F
100
AcDbEntity
  8
TITLE_BLOCK
100
AcDbMText
 10
4.590399999999999
 20
1.8368
 30
0.0
 40
0.048
 41
1.176
 71
     1
 72
     1
  1
UNLESS OTHERWISE SPECIFIED, DIMENSIONS ARE IN MILLIMETERS
  7
ONSHAPE-STANDARD
  0
MTEXT
  5
DE
330
1F
100
AcDbEntity
  8
TITLE_BLOCK
100
AcDbMText
 10
5.18776
 20
1.66112
 30
0.0
 40
0.0432
 41
0.5879999999999996
 71
     1
 72
     1
  1
^JANGULAR =  ^J
  7
ONSHAPE-STANDARD
  0
MTEXT
  5
DF
330
1F
100
AcDbEntity
  8
TITLE_BLOCK
100
AcDbMText
 10
4.590399999999999
 20
1.3688
 30
0.0
 40
0.048
 41
0.5880000000000005
 71
     1
 72
     1
  1
SURFACE FINISH
  7
ONSHAPE-STANDARD
  0
LINE
  5
E0
330
1F
100
AcDbEntity
  8
TITLE_BLOCK
100
AcDbLine
 10
5.104
 20
1.298
 30
0.0
 11
5.134
 21
1.246038475772934
 31
0.0
  0
LINE
  5
E1
330
1F
100
AcDbEntity
  8
TITLE_BLOCK
100
AcDbLine
 10
5.134
 20
1.246038475772934
 30
0.0
 11
5.197
 21
1.355157676649773
 31
0.0
  0
LINE
  5
E2
330
1F
100
AcDbEntity
  8
TITLE_BLOCK
100
AcDbLine
 10
5.197
 20
1.355157676649773
 30
0.0
 11
5.263
 21
1.355157676649773
 31
0.0
  0
MTEXT
  5
E3
330
1F
100
AcDbEntity
  8
TITLE_BLOCK
100
AcDbMText
 10
5.164
 20
1.12184
 30
0.0
 40
0.0624
 41
1.176
 71
     2
 72
     1
  1
DO NOT SCALE DRAWING
  7
ONSHAPE-STANDARD
  0
MTEXT
  5
E4
330
1F
100
AcDbEntity
  8
TITLE_BLOCK
100
AcDbMText
 10
5.164
 20
0.9608
 30
0.0
 40
0.048
 41
1.176
 71
     2
 72
     1
  1
BREAK ALL SHARP EDGES AND REMOVE BURRS
  7
ONSHAPE-STANDARD
  0
CIRCLE
  5
E5
330
1F
100
AcDbEntity
  8
TITLE_BLOCK
100
AcDbCircle
 10
5.029
 20
0.5287999999999999
 30
0.0
 40
0.054
  0
CIRCLE
  5
E6
330
1F
100
AcDbEntity
  8
TITLE_BLOCK
100
AcDbCircle
 10
5.029
 20
0.5287999999999999
 30
0.0
 40
0.108
  0
LINE
  5
E7
330
1F
100
AcDbEntity
  8
TITLE_BLOCK
100
AcDbLine
 10
5.056
 20
0.5287999999999999
 30
0.0
 11
5.002
 21
0.5287999999999999
 31
0.0
  0
LINE
  5
E8
330
1F
100
AcDbEntity
  8
TITLE_BLOCK
100
AcDbLine
 10
5.029
 20
0.5558
 30
0.0
 11
5.029
 21
0.5017999999999999
 31
0.0
  0
LINE
  5
E9
330
1F
100
AcDbEntity
  8
TITLE_BLOCK
100
AcDbLine
 10
5.083
 20
0.5287999999999999
 30
0.0
 11
5.164
 21
0.5287999999999999
 31
0.0
  0
LINE
  5
EA
330
1F
100
AcDbEntity
  8
TITLE_BLOCK
100
AcDbLine
 10
5.029
 20
0.5828
 30
0.0
 11
5.029
 21
0.6638
 31
0.0
  0
LINE
  5
EB
330
1F
100
AcDbEntity
  8
TITLE_BLOCK
100
AcDbLine
 10
4.975
 20
0.5287999999999999
 30
0.0
 11
4.894
 21
0.5287999999999999
 31
0.0
  0
LINE
  5
EC
330
1F
100
AcDbEntity
  8
TITLE_BLOCK
100
AcDbLine
 10
5.029
 20
0.4747999999999999
 30
0.0
 11
5.029
 21
0.3937999999999999
 31
0.0
  0
LINE
  5
ED
330
1F
100
AcDbEntity
  8
TITLE_BLOCK
100
AcDbLine
 10
5.406999999999999
 20
0.4208
 30
0.0
 11
5.406999999999999
 21
0.6367999999999999
 31
0.0
  0
LINE
  5
EE
330
1F
100
AcDbEntity
  8
TITLE_BLOCK
100
AcDbLine
 10
5.406999999999999
 20
0.6367999999999999
 30
0.0
 11
5.191
 21
0.5828
 31
0.0
  0
LINE
  5
EF
330
1F
100
AcDbEntity
  8
TITLE_BLOCK
100
AcDbLine
 10
5.191
 20
0.5828
 30
0.0
 11
5.191
 21
0.4747999999999999
 31
0.0
  0
LINE
  5
F0
330
1F
100
AcDbEntity
  8
TITLE_BLOCK
100
AcDbLine
 10
5.191
 20
0.4747999999999999
 30
0.0
 11
5.406999999999999
 21
0.4208
 31
0.0
  0
LINE
  5
F1
330
1F
100
AcDbEntity
  8
TITLE_BLOCK
100
AcDbLine
 10
5.326
 20
0.5287999999999999
 30
0.0
 11
5.4205
 21
0.5287999999999999
 31
0.0
  0
LINE
  5
F2
330
1F
100
AcDbEntity
  8
TITLE_BLOCK
100
AcDbLine
 10
5.309799999999999
 20
0.5287999999999999
 30
0.0
 11
5.2882
 21
0.5287999999999999
 31
0.0
  0
LINE
  5
F3
330
1F
100
AcDbEntity
  8
TITLE_BLOCK
100
AcDbLine
 10
5.271999999999999
 20
0.5287999999999999
 30
0.0
 11
5.177499999999999
 21
0.5287999999999999
 31
0.0
  0
MTEXT
  5
F4
330
1F
100
AcDbEntity
  8
TITLE_BLOCK
100
AcDbMText
 10
5.164
 20
0.7568
 30
0.0
 40
0.048
 41
1.176
 71
     2
 72
     1
  1
THIRD ANGLE PROJECTION
  7
ONSHAPE-STANDARD
  0
LINE
  5
F5
330
1F
100
AcDbEntity
  8
TITLE_BLOCK
100
AcDbLine
 10
5.763999999999999
 20
0.38
 30
0.0
 11
5.763999999999999
 21
1.88
 31
0.0
  0
LINE
  5
F6
330
1F
100
AcDbEntity
  8
TITLE_BLOCK
100
AcDbLine
 10
6.364
 20
0.8
 30
0.0
 11
6.364
 21
1.88
 31
0.0
  0
LINE
  5
F7
330
1F
100
AcDbEntity
  8
TITLE_BLOCK
100
AcDbLine
 10
7.113999999999999
 20
0.8
 30
0.0
 11
7.113999999999999
 21
1.88
 31
0.0
  0
LINE
  5
F8
330
1F
100
AcDbEntity
  8
TITLE_BLOCK
100
AcDbLine
 10
6.664
 20
0.38
 30
0.0
 11
6.664
 21
0.8
 31
0.0
  0
LINE
  5
F9
330
1F
100
AcDbEntity
  8
TITLE_BLOCK
100
AcDbLine
 10
5.763999999999999
 20
1.88
 30
0.0
 11
7.564
 21
1.88
 31
0.0
  0
LINE
  5
FA
330
1F
100
AcDbEntity
  8
TITLE_BLOCK
100
AcDbLine
 10
5.763999999999999
 20
1.7
 30
0.0
 11
7.564
 21
1.7
 31
0.0
  0
LINE
  5
FB
330
1F
100
AcDbEntity
  8
TITLE_BLOCK
100
AcDbLine
 10
5.763999999999999
 20
1.52
 30
0.0
 11
7.564
 21
1.52
 31
0.0
  0
LINE
  5
FC
330
1F
100
AcDbEntity
  8
TITLE_BLOCK
100
AcDbLine
 10
5.763999999999999
 20
1.34
 30
0.0
 11
7.564
 21
1.34
 31
0.0
  0
LINE
  5
FD
330
1F
100
AcDbEntity
  8
TITLE_BLOCK
100
AcDbLine
 10
5.763999999999999
 20
1.16
 30
0.0
 11
7.564
 21
1.16
 31
0.0
  0
LINE
  5
FE
330
1F
100
AcDbEntity
  8
TITLE_BLOCK
100
AcDbLine
 10
5.763999999999999
 20
0.98
 30
0.0
 11
7.564
 21
0.98
 31
0.0
  0
LINE
  5
FF
330
1F
100
AcDbEntity
  8
TITLE_BLOCK
100
AcDbLine
 10
5.763999999999999
 20
0.8
 30
0.0
 11
7.564
 21
0.8
 31
0.0
  0
MTEXT
  5
100
330
1F
100
AcDbEntity
  8
TITLE_BLOCK
100
AcDbMText
 10
6.3904
 20
1.8368
 30
0.0
 40
0.048
 41
0.7349999999999991
 71
     1
 72
     1
  1
NAME
  7
ONSHAPE-STANDARD
  0
MTEXT
  5
101
330
1F
100
AcDbEntity
  8
TITLE_BLOCK
100
AcDbMText
 10
7.339
 20
1.8368
 30
0.0
 40
0.048
 41
0.4410000000000011
 71
     2
 72
     1
  1
DATE
  7
ONSHAPE-STANDARD
  0
MTEXT
  5
102
330
1F
100
AcDbEntity
  8
TITLE_BLOCK
100
AcDbMText
 10
5.790399999999999
 20
1.6568
 30
0.0
 40
0.048
 41
0.5880000000000005
 71
     1
 72
     1
  1
DRAWN
  7
ONSHAPE-STANDARD
  0
MTEXT
  5
103
102
{ACAD_XDICTIONARY
360
104
102
}
330
1F
100
AcDbEntity
  8
TITLE_BLOCK
100
AcDbMText
 10
6.738999999999999
 20
1.61
 30
0.0
 40
0.04032
 41
0.7499999999999991
 71
     5
 72
     1
  1
ANDREW GEPPERT
  7
ONSHAPE-STANDARD-FIELDS
1001
ACAD
1000
ACAD_MTEXT_DEFINED_HEIGHT_BEGIN
1070
    46
1040
0.1800000000000002
1000
ACAD_MTEXT_DEFINED_HEIGHT_END
  0
MTEXT
  5
10A
102
{ACAD_XDICTIONARY
360
10B
102
}
330
1F
100
AcDbEntity
  8
TITLE_BLOCK
100
AcDbMText
 10
7.339
 20
1.61
 30
0.0
 40
0.04032
 41
0.4500000000000011
 71
     5
 72
     1
  1
09/25/2025
  7
ONSHAPE-STANDARD-FIELDS
1001
ACAD
1000
ACAD_MTEXT_DEFINED_HEIGHT_BEGIN
1070
    46
1040
0.1800000000000002
1000
ACAD_MTEXT_DEFINED_HEIGHT_END
  0
MTEXT
  5
110
330
1F
100
AcDbEntity
  8
TITLE_BLOCK
100
AcDbMText
 10
5.790399999999999
 20
1.4768
 30
0.0
 40
0.048
 41
0.5880000000000005
 71
     1
 72
     1
  1
CHECKED
  7
ONSHAPE-STANDARD
  0
MTEXT
  5
111
330
1F
100
AcDbEntity
  8
TITLE_BLOCK
100
AcDbMText
 10
6.738999999999999
 20
1.43
 30
0.0
 40
0.04032
 41
0.7499999999999991
 71
     5
 72
     1
  1
 
  7
ONSHAPE-STANDARD-FIELDS
1001
ACAD
1000
ACAD_MTEXT_DEFINED_HEIGHT_BEGIN
1070
    46
1040
0.1800000000000002
1000
ACAD_MTEXT_DEFINED_HEIGHT_END
  0
MTEXT
  5
112
330
1F
100
AcDbEntity
  8
TITLE_BLOCK
100
AcDbMText
 10
7.339
 20
1.43
 30
0.0
 40
0.04032
 41
0.4500000000000011
 71
     5
 72
     1
  1
 
  7
ONSHAPE-STANDARD-FIELDS
1001
ACAD
1000
ACAD_MTEXT_DEFINED_HEIGHT_BEGIN
1070
    46
1040
0.1800000000000002
1000
ACAD_MTEXT_DEFINED_HEIGHT_END
  0
MTEXT
  5
113
330
1F
100
AcDbEntity
  8
TITLE_BLOCK
100
AcDbMText
 10
5.790399999999999
 20
1.2968
 30
0.0
 40
0.048
 41
0.5880000000000005
 71
     1
 72
     1
  1
APPROVED
  7
ONSHAPE-STANDARD
  0
MTEXT
  5
114
102
{ACAD_XDICTIONARY
360
115
102
}
330
1F
100
AcDbEntity
  8
TITLE_BLOCK
100
AcDbMText
 10
6.738999999999999
 20
1.25
 30
0.0
 40
0.04032
 41
0.7499999999999991
 71
     5
 72
     1
  1
----
  7
ONSHAPE-STANDARD-FIELDS
1001
ACAD
1000
ACAD_MTEXT_DEFINED_HEIGHT_BEGIN
1070
    46
1040
0.1799999999999997
1000
ACAD_MTEXT_DEFINED_HEIGHT_END
  0
MTEXT
  5
11A
102
{ACAD_XDICTIONARY
360
11B
102
}
330
1F
100
AcDbEntity
  8
TITLE_BLOCK
100
AcDbMText
 10
7.339
 20
1.25
 30
0.0
 40
0.04032
 41
0.4500000000000011
 71
     5
 72
     1
  1
----
  7
ONSHAPE-STANDARD-FIELDS
1001
ACAD
1000
ACAD_MTEXT_DEFINED_HEIGHT_BEGIN
1070
    46
1040
0.1799999999999997
1000
ACAD_MTEXT_DEFINED_HEIGHT_END
  0
MTEXT
  5
120
330
1F
100
AcDbEntity
  8
TITLE_BLOCK
100
AcDbMText
 10
6.064
 20
1.07
 30
0.0
 40
0.072
 41
0.6000000000000005
 71
     5
 72
     1
  1
 
  7
ONSHAPE-STANDARD-FIELDS
1001
ACAD
1000
ACAD_MTEXT_DEFINED_HEIGHT_BEGIN
1070
    46
1040
0.1800000000000002
1000
ACAD_MTEXT_DEFINED_HEIGHT_END
  0
MTEXT
  5
121
330
1F
100
AcDbEntity
  8
TITLE_BLOCK
100
AcDbMText
 10
6.738999999999999
 20
1.07
 30
0.0
 40
0.04032
 41
0.7499999999999991
 71
     5
 72
     1
  1
 
  7
ONSHAPE-STANDARD-FIELDS
1001
ACAD
1000
ACAD_MTEXT_DEFINED_HEIGHT_BEGIN
1070
    46
1040
0.1800000000000002
1000
ACAD_MTEXT_DEFINED_HEIGHT_END
  0
MTEXT
  5
122
330
1F
100
AcDbEntity
  8
TITLE_BLOCK
100
AcDbMText
 10
7.339
 20
1.07
 30
0.0
 40
0.04032
 41
0.4500000000000011
 71
     5
 72
     1
  1
 
  7
ONSHAPE-STANDARD-FIELDS
1001
ACAD
1000
ACAD_MTEXT_DEFINED_HEIGHT_BEGIN
1070
    46
1040
0.1800000000000002
1000
ACAD_MTEXT_DEFINED_HEIGHT_END
  0
MTEXT
  5
123
330
1F
100
AcDbEntity
  8
TITLE_BLOCK
100
AcDbMText
 10
6.064
 20
0.89
 30
0.0
 40
0.072
 41
0.6000000000000005
 71
     5
 72
     1
  1
 
  7
ONSHAPE-STANDARD-FIELDS
1001
ACAD
1000
ACAD_MTEXT_DEFINED_HEIGHT_BEGIN
1070
    46
1040
0.1799999999999999
1000
ACAD_MTEXT_DEFINED_HEIGHT_END
  0
MTEXT
  5
124
330
1F
100
AcDbEntity
  8
TITLE_BLOCK
100
AcDbMText
 10
6.738999999999999
 20
0.89
 30
0.0
 40
0.04032
 41
0.7499999999999991
 71
     5
 72
     1
  1
 
  7
ONSHAPE-STANDARD-FIELDS
1001
ACAD
1000
ACAD_MTEXT_DEFINED_HEIGHT_BEGIN
1070
    46
1040
0.1799999999999999
1000
ACAD_MTEXT_DEFINED_HEIGHT_END
  0
MTEXT
  5
125
330
1F
100
AcDbEntity
  8
TITLE_BLOCK
100
AcDbMText
 10
7.339
 20
0.89
 30
0.0
 40
0.04032
 41
0.4500000000000011
 71
     5
 72
     1
  1
 
  7
ONSHAPE-STANDARD-FIELDS
1001
ACAD
1000
ACAD_MTEXT_DEFINED_HEIGHT_BEGIN
1070
    46
1040
0.1799999999999999
1000
ACAD_MTEXT_DEFINED_HEIGHT_END
  0
MTEXT
  5
126
330
1F
100
AcDbEntity
  8
TITLE_BLOCK
100
AcDbMText
 10
5.790399999999999
 20
0.7568
 30
0.0
 40
0.048
 41
0.8820000000000003
 71
     1
 72
     1
  1
MATERIAL
  7
ONSHAPE-STANDARD
  0
MTEXT
  5
127
330
1F
100
AcDbEntity
  8
TITLE_BLOCK
100
AcDbMText
 10
6.214
 20
0.5900000000000001
 30
0.0
 40
0.072
 41
0.9000000000000004
 71
     5
 72
     1
  1
 
  7
ONSHAPE-STANDARD-FIELDS
1001
ACAD
1000
ACAD_MTEXT_DEFINED_HEIGHT_BEGIN
1070
    46
1040
0.42
1000
ACAD_MTEXT_DEFINED_HEIGHT_END
  0
MTEXT
  5
128
330
1F
100
AcDbEntity
  8
TITLE_BLOCK
100
AcDbMText
 10
6.690399999999999
 20
0.7568
 30
0.0
 40
0.048
 41
0.8820000000000003
 71
     1
 72
     1
  1
FINISH
  7
ONSHAPE-STANDARD
  0
MTEXT
  5
129
330
1F
100
AcDbEntity
  8
TITLE_BLOCK
100
AcDbMText
 10
7.114
 20
0.5900000000000001
 30
0.0
 40
0.072
 41
0.9000000000000004
 71
     5
 72
     1
  1
 
  7
ONSHAPE-STANDARD-FIELDS
1001
ACAD
1000
ACAD_MTEXT_DEFINED_HEIGHT_BEGIN
1070
    46
1040
0.42
1000
ACAD_MTEXT_DEFINED_HEIGHT_END
  0
LINE
  5
12A
330
1F
100
AcDbEntity
  8
TITLE_BLOCK
100
AcDbLine
 10
7.564
 20
0.38
 30
0.0
 11
7.564
 21
1.88
 31
0.0
  0
LINE
  5
12B
330
1F
100
AcDbEntity
  8
TITLE_BLOCK
100
AcDbLine
 10
7.939
 20
0.575
 30
0.0
 11
7.939
 21
0.875
 31
0.0
  0
LINE
  5
12C
330
1F
100
AcDbEntity
  8
TITLE_BLOCK
100
AcDbLine
 10
8.223999999999998
 20
0.38
 30
0.0
 11
8.223999999999998
 21
0.575
 31
0.0
  0
LINE
  5
12D
330
1F
100
AcDbEntity
  8
TITLE_BLOCK
100
AcDbLine
 10
9.588999999999999
 20
0.38
 30
0.0
 11
9.588999999999999
 21
0.575
 31
0.0
  0
LINE
  5
12E
330
1F
100
AcDbEntity
  8
TITLE_BLOCK
100
AcDbLine
 10
10.339
 20
0.575
 30
0.0
 11
10.339
 21
0.875
 31
0.0
  0
LINE
  5
12F
330
1F
100
AcDbEntity
  8
TITLE_BLOCK
100
AcDbLine
 10
7.564
 20
0.575
 30
0.0
 11
10.639
 21
0.575
 31
0.0
  0
LINE
  5
130
330
1F
100
AcDbEntity
  8
TITLE_BLOCK
100
AcDbLine
 10
7.564
 20
0.875
 30
0.0
 11
10.639
 21
0.875
 31
0.0
  0
LINE
  5
131
330
1F
100
AcDbEntity
  8
TITLE_BLOCK
100
AcDbLine
 10
7.564
 20
1.505
 30
0.0
 11
10.639
 21
1.505
 31
0.0
  0
LINE
  5
132
330
1F
100
AcDbEntity
  8
TITLE_BLOCK
100
AcDbLine
 10
7.564
 20
1.88
 30
0.0
 11
10.639
 21
1.88
 31
0.0
  0
MTEXT
  5
133
330
1F
100
AcDbEntity
  8
TITLE_BLOCK
100
AcDbMText
 10
7.5904
 20
1.4618
 30
0.0
 40
0.048
 41
0.3675
 71
     1
 72
     1
  1
TITLE
  7
ONSHAPE-STANDARD
  0
MTEXT
  5
134
102
{ACAD_XDICTIONARY
360
135
102
}
330
1F
100
AcDbEntity
  8
TITLE_BLOCK
100
AcDbMText
 10
9.1015
 20
1.385
 30
0.0
 40
0.1152
 41
2.774999999999999
 71
     5
 72
     1
  1
----
  7
ONSHAPE-STANDARD-FIELDS
1001
ACAD
1000
ACAD_MTEXT_DEFINED_HEIGHT_BEGIN
1070
    46
1040
0.189
1000
ACAD_MTEXT_DEFINED_HEIGHT_END
  0
MTEXT
  5
13A
102
{ACAD_XDICTIONARY
360
13B
102
}
330
1F
100
AcDbEntity
  8
TITLE_BLOCK
100
AcDbMText
 10
9.1015
 20
1.196
 30
0.0
 40
0.1152
 41
2.774999999999999
 71
     5
 72
     1
  1
----
  7
ONSHAPE-STANDARD-FIELDS
1001
ACAD
1000
ACAD_MTEXT_DEFINED_HEIGHT_BEGIN
1070
    46
1040
0.189
1000
ACAD_MTEXT_DEFINED_HEIGHT_END
  0
MTEXT
  5
140
102
{ACAD_XDICTIONARY
360
141
102
}
330
1F
100
AcDbEntity
  8
TITLE_BLOCK
100
AcDbMText
 10
9.1015
 20
1.007
 30
0.0
 40
0.1152
 41
2.774999999999999
 71
     5
 72
     1
  1
----
  7
ONSHAPE-STANDARD-FIELDS
1001
ACAD
1000
ACAD_MTEXT_DEFINED_HEIGHT_BEGIN
1070
    46
1040
0.189
1000
ACAD_MTEXT_DEFINED_HEIGHT_END
  0
MTEXT
  5
146
330
1F
100
AcDbEntity
  8
TITLE_BLOCK
100
AcDbMText
 10
7.58512
 20
0.84044
 30
0.0
 40
0.0384
 41
0.3675
 71
     1
 72
     1
  1
SIZE
  7
ONSHAPE-STANDARD
  0
MTEXT
  5
147
102
{ACAD_XDICTIONARY
360
148
102
}
330
1F
100
AcDbEntity
  8
TITLE_BLOCK
100
AcDbMText
 10
7.7515
 20
0.725
 30
0.0
 40
0.144
 41
0.375
 71
     5
 72
     1
  1
A
  7
ONSHAPE-STANDARD-FIELDS
1001
ACAD
1000
ACAD_MTEXT_DEFINED_HEIGHT_BEGIN
1070
    46
1040
0.3
1000
ACAD_MTEXT_DEFINED_HEIGHT_END
  0
MTEXT
  5
14D
330
1F
100
AcDbEntity
  8
TITLE_BLOCK
100
AcDbMText
 10
7.96012
 20
0.84044
 30
0.0
 40
0.0384
 41
2.351999999999999
 71
     1
 72
     1
  1
DWG NO.
  7
ONSHAPE-STANDARD
  0
MTEXT
  5
14E
102
{ACAD_XDICTIONARY
360
14F
102
}
330
1F
100
AcDbEntity
  8
TITLE_BLOCK
100
AcDbMText
 10
9.139
 20
0.725
 30
0.0
 40
0.144
 41
2.399999999999999
 71
     5
 72
     1
  1
----
  7
ONSHAPE-STANDARD-FIELDS
1001
ACAD
1000
ACAD_MTEXT_DEFINED_HEIGHT_BEGIN
1070
    46
1040
0.3
1000
ACAD_MTEXT_DEFINED_HEIGHT_END
  0
MTEXT
  5
154
330
1F
100
AcDbEntity
  8
TITLE_BLOCK
100
AcDbMText
 10
10.36012
 20
0.84044
 30
0.0
 40
0.0384
 41
0.2940000000000007
 71
     1
 72
     1
  1
REV.
  7
ONSHAPE-STANDARD
  0
MTEXT
  5
155
102
{ACAD_XDICTIONARY
360
156
102
}
330
1F
100
AcDbEntity
  8
TITLE_BLOCK
100
AcDbMText
 10
10.504
 20
0.725
 30
0.0
 40
0.144
 41
0.2700000000000014
 71
     5
 72
     1
  1
-
  7
ONSHAPE-STANDARD-FIELDS
1001
ACAD
1000
ACAD_MTEXT_DEFINED_HEIGHT_BEGIN
1070
    46
1040
0.3
1000
ACAD_MTEXT_DEFINED_HEIGHT_END
  0
MTEXT
  5
15B
330
1F
100
AcDbEntity
  8
TITLE_BLOCK
100
AcDbMText
 10
7.58512
 20
0.5404399999999999
 30
0.0
 40
0.0384
 41
0.6467999999999984
 71
     1
 72
     1
  1
SCALE
  7
ONSHAPE-STANDARD
  0
MTEXT
  5
15C
102
{ACAD_XDICTIONARY
360
15D
102
}
330
1F
100
AcDbEntity
  8
TITLE_BLOCK
100
AcDbMText
 10
7.923999999999999
 20
0.4775
 30
0.0
 40
0.0864
 41
0.5999999999999988
 71
     5
 72
     1
  1
1:1
  7
ONSHAPE-STANDARD-FIELDS
1001
ACAD
1000
ACAD_MTEXT_DEFINED_HEIGHT_BEGIN
1070
    46
1040
0.195
1000
ACAD_MTEXT_DEFINED_HEIGHT_END
  0
MTEXT
  5
162
330
1F
100
AcDbEntity
  8
TITLE_BLOCK
100
AcDbMText
 10
8.245119999999998
 20
0.5404399999999999
 30
0.0
 40
0.0384
 41
1.3377
 71
     1
 72
     1
  1
WEIGHT
  7
ONSHAPE-STANDARD
  0
MTEXT
  5
163
330
1F
100
AcDbEntity
  8
TITLE_BLOCK
100
AcDbMText
 10
8.9065
 20
0.4775
 30
0.0
 40
0.0864
 41
1.365
 71
     5
 72
     1
  1
 
  7
ONSHAPE-STANDARD-FIELDS
1001
ACAD
1000
ACAD_MTEXT_DEFINED_HEIGHT_BEGIN
1070
    46
1040
0.195
1000
ACAD_MTEXT_DEFINED_HEIGHT_END
  0
MTEXT
  5
164
330
1F
100
AcDbEntity
  8
TITLE_BLOCK
100
AcDbMText
 10
9.610119999999998
 20
0.5404399999999999
 30
0.0
 40
0.0384
 41
1.029000000000001
 71
     1
 72
     1
  1
SHEET
  7
ONSHAPE-STANDARD
  0
MTEXT
  5
165
102
{ACAD_XDICTIONARY
360
166
102
}
330
1F
100
AcDbEntity
  8
TITLE_BLOCK
100
AcDbMText
 10
10.144
 20
0.4775
 30
0.0
 40
0.0864
 41
0.9900000000000002
 71
     5
 72
     1
  1
1 of 1
  7
ONSHAPE-STANDARD-FIELDS
1001
ACAD
1000
ACAD_MTEXT_DEFINED_HEIGHT_BEGIN
1070
    46
1040
0.195
1000
ACAD_MTEXT_DEFINED_HEIGHT_END
  0
LINE
  5
170
330
1F
100
AcDbEntity
  8
CENTERMARKS
  6
CONTINUOUS
100
AcDbLine
 10
3.86851119698959
 20
3.323960169136693
 30
0.0
 11
3.900204110375417
 21
3.323960169136693
 31
0.0
  0
LINE
  5
171
330
1F
100
AcDbEntity
  8
CENTERMARKS
  6
CONTINUOUS
100
AcDbLine
 10
3.884357653682503
 20
3.308113712443779
 30
0.0
 11
3.884357653682503
 21
3.339806625829606
 31
0.0
  0
LINE
  5
172
330
1F
100
AcDbEntity
  8
CENTERMARKS
  6
CENTER
100
AcDbLine
 10
3.852664740296676
 20
3.323960169136693
 30
0.0
 11
3.807389149745495
 21
3.323960169136693
 31
0.0
  0
LINE
  5
173
330
1F
100
AcDbEntity
  8
CENTERMARKS
  6
CENTER
100
AcDbLine
 10
3.91605056706833
 20
3.323960169136693
 30
0.0
 11
3.961326157619511
 21
3.323960169136693
 31
0.0
  0
LINE
  5
174
330
1F
100
AcDbEntity
  8
CENTERMARKS
  6
CENTER
100
AcDbLine
 10
3.884357653682503
 20
3.35565308252252
 30
0.0
 11
3.884357653682503
 21
3.400928673073701
 31
0.0
  0
LINE
  5
175
330
1F
100
AcDbEntity
  8
CENTERMARKS
  6
CENTER
100
AcDbLine
 10
3.884357653682503
 20
3.292267255750866
 30
0.0
 11
3.884357653682503
 21
3.246991665199685
 31
0.0
  0
LINE
  5
179
330
1F
100
AcDbEntity
  8
CENTERMARKS
  6
CONTINUOUS
100
AcDbLine
 10
3.961719858406912
 20
3.85821213764063
 30
0.0
 11
3.975499385965968
 21
3.85821213764063
 31
0.0
  0
LINE
  5
17A
330
1F
100
AcDbEntity
  8
CENTERMARKS
  6
CONTINUOUS
100
AcDbLine
 10
3.96860962218644
 20
3.851322373861102
 30
0.0
 11
3.96860962218644
 21
3.865101901420157
 31
0.0
  0
LINE
  5
17B
330
1F
100
AcDbEntity
  8
CENTERMARKS
  6
CENTER
100
AcDbLine
 10
3.954830094627384
 20
3.85821213764063
 30
0.0
 11
3.935145055257306
 21
3.85821213764063
 31
0.0
  0
LINE
  5
17C
330
1F
100
AcDbEntity
  8
CENTERMARKS
  6
CENTER
100
AcDbLine
 10
3.982389149745496
 20
3.85821213764063
 30
0.0
 11
4.002074189115574
 21
3.85821213764063
 31
0.0
  0
LINE
  5
17D
330
1F
100
AcDbEntity
  8
CENTERMARKS
  6
CENTER
100
AcDbLine
 10
3.96860962218644
 20
3.871991665199685
 30
0.0
 11
3.96860962218644
 21
3.891676704569764
 31
0.0
  0
LINE
  5
17E
330
1F
100
AcDbEntity
  8
CENTERMARKS
  6
CENTER
100
AcDbLine
 10
3.96860962218644
 20
3.844432610081574
 30
0.0
 11
3.96860962218644
 21
3.824747570711495
 31
0.0
  0
LINE
  5
182
330
1F
100
AcDbEntity
  8
CENTERMARKS
  6
CONTINUOUS
100
AcDbLine
 10
3.961719858406912
 20
3.95821213764063
 30
0.0
 11
3.975499385965968
 21
3.95821213764063
 31
0.0
  0
LINE
  5
183
330
1F
100
AcDbEntity
  8
CENTERMARKS
  6
CONTINUOUS
100
AcDbLine
 10
3.96860962218644
 20
3.951322373861102
 30
0.0
 11
3.96860962218644
 21
3.965101901420158
 31
0.0
  0
LINE
  5
184
330
1F
100
AcDbEntity
  8
CENTERMARKS
  6
CENTER
100
AcDbLine
 10
3.954830094627384
 20
3.95821213764063
 30
0.0
 11
3.935145055257306
 21
3.958212137640631
 31
0.0
  0
LINE
  5
185
330
1F
100
AcDbEntity
  8
CENTERMARKS
  6
CENTER
100
AcDbLine
 10
3.982389149745496
 20
3.95821213764063
 30
0.0
 11
4.002074189115574
 21
3.95821213764063
 31
0.0
  0
LINE
  5
186
330
1F
100
AcDbEntity
  8
CENTERMARKS
  6
CENTER
100
AcDbLine
 10
3.96860962218644
 20
3.971991665199686
 30
0.0
 11
3.96860962218644
 21
3.991676704569764
 31
0.0
  0
LINE
  5
187
330
1F
100
AcDbEntity
  8
CENTERMARKS
  6
CENTER
100
AcDbLine
 10
3.96860962218644
 20
3.944432610081575
 30
0.0
 11
3.96860962218644
 21
3.924747570711496
 31
0.0
  0
LINE
  5
18B
330
1F
100
AcDbEntity
  8
CENTERMARKS
  6
CONTINUOUS
100
AcDbLine
 10
5.211719858406912
 20
3.233408988034331
 30
0.0
 11
5.225499385965968
 21
3.233408988034331
 31
0.0
  0
LINE
  5
18C
330
1F
100
AcDbEntity
  8
CENTERMARKS
  6
CONTINUOUS
100
AcDbLine
 10
5.21860962218644
 20
3.226519224254803
 30
0.0
 11
5.21860962218644
 21
3.240298751813858
 31
0.0
  0
LINE
  5
18D
330
1F
100
AcDbEntity
  8
CENTERMARKS
  6
CENTER
100
AcDbLine
 10
5.204830094627384
 20
3.233408988034331
 30
0.0
 11
5.185145055257306
 21
3.233408988034331
 31
0.0
  0
LINE
  5
18E
330
1F
100
AcDbEntity
  8
CENTERMARKS
  6
CENTER
100
AcDbLine
 10
5.232389149745496
 20
3.233408988034331
 30
0.0
 11
5.252074189115574
 21
3.233408988034331
 31
0.0
  0
LINE
  5
18F
330
1F
100
AcDbEntity
  8
CENTERMARKS
  6
CENTER
100
AcDbLine
 10
5.21860962218644
 20
3.247188515593386
 30
0.0
 11
5.21860962218644
 21
3.266873554963465
 31
0.0
  0
LINE
  5
190
330
1F
100
AcDbEntity
  8
CENTERMARKS
  6
CENTER
100
AcDbLine
 10
5.21860962218644
 20
3.219629460475275
 30
0.0
 11
5.21860962218644
 21
3.199944421105196
 31
0.0
  0
LINE
  5
194
330
1F
100
AcDbEntity
  8
CENTERMARKS
  6
CONTINUOUS
100
AcDbLine
 10
5.311719858406913
 20
3.233408988034331
 30
0.0
 11
5.325499385965968
 21
3.233408988034331
 31
0.0
  0
LINE
  5
195
330
1F
100
AcDbEntity
  8
CENTERMARKS
  6
CONTINUOUS
100
AcDbLine
 10
5.318609622186441
 20
3.226519224254803
 30
0.0
 11
5.318609622186441
 21
3.240298751813858
 31
0.0
  0
LINE
  5
196
330
1F
100
AcDbEntity
  8
CENTERMARKS
  6
CENTER
100
AcDbLine
 10
5.304830094627385
 20
3.233408988034331
 30
0.0
 11
5.285145055257306
 21
3.233408988034331
 31
0.0
  0
LINE
  5
197
330
1F
100
AcDbEntity
  8
CENTERMARKS
  6
CENTER
100
AcDbLine
 10
5.332389149745496
 20
3.233408988034331
 30
0.0
 11
5.352074189115575
 21
3.233408988034331
 31
0.0
  0
LINE
  5
198
330
1F
100
AcDbEntity
  8
CENTERMARKS
  6
CENTER
100
AcDbLine
 10
5.318609622186441
 20
3.247188515593386
 30
0.0
 11
5.318609622186441
 21
3.266873554963465
 31
0.0
  0
LINE
  5
199
330
1F
100
AcDbEntity
  8
CENTERMARKS
  6
CENTER
100
AcDbLine
 10
5.318609622186441
 20
3.219629460475275
 30
0.0
 11
5.318609622186441
 21
3.199944421105196
 31
0.0
  0
LINE
  5
19D
330
1F
100
AcDbEntity
  8
CENTERMARKS
  6
CONTINUOUS
100
AcDbLine
 10
4.869593874154944
 20
3.646794814805984
 30
0.0
 11
4.883373401714
 21
3.646794814805984
 31
0.0
  0
LINE
  5
19E
330
1F
100
AcDbEntity
  8
CENTERMARKS
  6
CONTINUOUS
100
AcDbLine
 10
4.876483637934472
 20
3.639905051026457
 30
0.0
 11
4.876483637934472
 21
3.653684578585512
 31
0.0
  0
LINE
  5
19F
330
1F
100
AcDbEntity
  8
CENTERMARKS
  6
CENTER
100
AcDbLine
 10
4.862704110375416
 20
3.646794814805984
 30
0.0
 11
4.843019071005338
 21
3.646794814805984
 31
0.0
  0
LINE
  5
1A0
330
1F
100
AcDbEntity
  8
CENTERMARKS
  6
CENTER
100
AcDbLine
 10
4.890263165493527
 20
3.646794814805984
 30
0.0
 11
4.909948204863606
 21
3.646794814805984
 31
0.0
  0
LINE
  5
1A1
330
1F
100
AcDbEntity
  8
CENTERMARKS
  6
CENTER
100
AcDbLine
 10
4.876483637934472
 20
3.66057434236504
 30
0.0
 11
4.876483637934472
 21
3.680259381735119
 31
0.0
  0
LINE
  5
1A2
330
1F
100
AcDbEntity
  8
CENTERMARKS
  6
CENTER
100
AcDbLine
 10
4.876483637934472
 20
3.633015287246929
 30
0.0
 11
4.876483637934472
 21
3.61333024787685
 31
0.0
  0
LINE
  5
1A6
330
1F
100
AcDbEntity
  8
CENTERMARKS
  6
CONTINUOUS
100
AcDbLine
 10
3.961719858406912
 20
4.05821213764063
 30
0.0
 11
3.975499385965968
 21
4.05821213764063
 31
0.0
  0
LINE
  5
1A7
330
1F
100
AcDbEntity
  8
CENTERMARKS
  6
CONTINUOUS
100
AcDbLine
 10
3.96860962218644
 20
4.051322373861102
 30
0.0
 11
3.96860962218644
 21
4.065101901420157
 31
0.0
  0
LINE
  5
1A8
330
1F
100
AcDbEntity
  8
CENTERMARKS
  6
CENTER
100
AcDbLine
 10
3.954830094627384
 20
4.05821213764063
 30
0.0
 11
3.935145055257306
 21
4.05821213764063
 31
0.0
  0
LINE
  5
1A9
330
1F
100
AcDbEntity
  8
CENTERMARKS
  6
CENTER
100
AcDbLine
 10
3.982389149745496
 20
4.05821213764063
 30
0.0
 11
4.002074189115574
 21
4.05821213764063
 31
0.0
  0
LINE
  5
1AA
330
1F
100
AcDbEntity
  8
CENTERMARKS
  6
CENTER
100
AcDbLine
 10
3.96860962218644
 20
4.071991665199685
 30
0.0
 11
3.96860962218644
 21
4.091676704569764
 31
0.0
  0
LINE
  5
1AB
330
1F
100
AcDbEntity
  8
CENTERMARKS
  6
CENTER
100
AcDbLine
 10
3.96860962218644
 20
4.044432610081574
 30
0.0
 11
3.96860962218644
 21
4.024747570711495
 31
0.0
  0
LINE
  5
1AF
330
1F
100
AcDbEntity
  8
CENTERMARKS
  6
CONTINUOUS
100
AcDbLine
 10
3.961719858406912
 20
4.158212137640629
 30
0.0
 11
3.975499385965968
 21
4.158212137640629
 31
0.0
  0
LINE
  5
1B0
330
1F
100
AcDbEntity
  8
CENTERMARKS
  6
CONTINUOUS
100
AcDbLine
 10
3.96860962218644
 20
4.151322373861102
 30
0.0
 11
3.96860962218644
 21
4.165101901420157
 31
0.0
  0
LINE
  5
1B1
330
1F
100
AcDbEntity
  8
CENTERMARKS
  6
CENTER
100
AcDbLine
 10
3.954830094627384
 20
4.158212137640629
 30
0.0
 11
3.935145055257306
 21
4.158212137640629
 31
0.0
  0
LINE
  5
1B2
330
1F
100
AcDbEntity
  8
CENTERMARKS
  6
CENTER
100
AcDbLine
 10
3.982389149745496
 20
4.158212137640629
 30
0.0
 11
4.002074189115574
 21
4.158212137640629
 31
0.0
  0
LINE
  5
1B3
330
1F
100
AcDbEntity
  8
CENTERMARKS
  6
CENTER
100
AcDbLine
 10
3.96860962218644
 20
4.171991665199685
 30
0.0
 11
3.96860962218644
 21
4.191676704569764
 31
0.0
  0
LINE
  5
1B4
330
1F
100
AcDbEntity
  8
CENTERMARKS
  6
CENTER
100
AcDbLine
 10
3.96860962218644
 20
4.144432610081574
 30
0.0
 11
3.96860962218644
 21
4.124747570711495
 31
0.0
  0
LINE
  5
1B8
330
1F
100
AcDbEntity
  8
CENTERMARKS
  6
CONTINUOUS
100
AcDbLine
 10
3.961719858406912
 20
4.25821213764063
 30
0.0
 11
3.975499385965968
 21
4.25821213764063
 31
0.0
  0
LINE
  5
1B9
330
1F
100
AcDbEntity
  8
CENTERMARKS
  6
CONTINUOUS
100
AcDbLine
 10
3.96860962218644
 20
4.251322373861102
 30
0.0
 11
3.96860962218644
 21
4.265101901420158
 31
0.0
  0
LINE
  5
1BA
330
1F
100
AcDbEntity
  8
CENTERMARKS
  6
CENTER
100
AcDbLine
 10
3.954830094627384
 20
4.25821213764063
 30
0.0
 11
3.935145055257306
 21
4.25821213764063
 31
0.0
  0
LINE
  5
1BB
330
1F
100
AcDbEntity
  8
CENTERMARKS
  6
CENTER
100
AcDbLine
 10
3.982389149745496
 20
4.25821213764063
 30
0.0
 11
4.002074189115574
 21
4.25821213764063
 31
0.0
  0
LINE
  5
1BC
330
1F
100
AcDbEntity
  8
CENTERMARKS
  6
CENTER
100
AcDbLine
 10
3.96860962218644
 20
4.271991665199685
 30
0.0
 11
3.96860962218644
 21
4.291676704569764
 31
0.0
  0
LINE
  5
1BD
330
1F
100
AcDbEntity
  8
CENTERMARKS
  6
CENTER
100
AcDbLine
 10
3.96860962218644
 20
4.244432610081574
 30
0.0
 11
3.96860962218644
 21
4.224747570711496
 31
0.0
  0
LINE
  5
1C1
330
1F
100
AcDbEntity
  8
CENTERMARKS
  6
CONTINUOUS
100
AcDbLine
 10
3.961719858406912
 20
4.35821213764063
 30
0.0
 11
3.975499385965968
 21
4.35821213764063
 31
0.0
  0
LINE
  5
1C2
330
1F
100
AcDbEntity
  8
CENTERMARKS
  6
CONTINUOUS
100
AcDbLine
 10
3.96860962218644
 20
4.351322373861102
 30
0.0
 11
3.96860962218644
 21
4.365101901420157
 31
0.0
  0
LINE
  5
1C3
330
1F
100
AcDbEntity
  8
CENTERMARKS
  6
CENTER
100
AcDbLine
 10
3.954830094627384
 20
4.35821213764063
 30
0.0
 11
3.935145055257306
 21
4.35821213764063
 31
0.0
  0
LINE
  5
1C4
330
1F
100
AcDbEntity
  8
CENTERMARKS
  6
CENTER
100
AcDbLine
 10
3.982389149745496
 20
4.35821213764063
 30
0.0
 11
4.002074189115574
 21
4.35821213764063
 31
0.0
  0
LINE
  5
1C5
330
1F
100
AcDbEntity
  8
CENTERMARKS
  6
CENTER
100
AcDbLine
 10
3.96860962218644
 20
4.371991665199685
 30
0.0
 11
3.96860962218644
 21
4.391676704569764
 31
0.0
  0
LINE
  5
1C6
330
1F
100
AcDbEntity
  8
CENTERMARKS
  6
CENTER
100
AcDbLine
 10
3.96860962218644
 20
4.344432610081574
 30
0.0
 11
3.96860962218644
 21
4.324747570711495
 31
0.0
  0
LINE
  5
1CA
330
1F
100
AcDbEntity
  8
CENTERMARKS
  6
CONTINUOUS
100
AcDbLine
 10
3.961719858406912
 20
4.45821213764063
 30
0.0
 11
3.975499385965968
 21
4.45821213764063
 31
0.0
  0
LINE
  5
1CB
330
1F
100
AcDbEntity
  8
CENTERMARKS
  6
CONTINUOUS
100
AcDbLine
 10
3.96860962218644
 20
4.451322373861102
 30
0.0
 11
3.96860962218644
 21
4.465101901420158
 31
0.0
  0
LINE
  5
1CC
330
1F
100
AcDbEntity
  8
CENTERMARKS
  6
CENTER
100
AcDbLine
 10
3.954830094627384
 20
4.45821213764063
 30
0.0
 11
3.935145055257306
 21
4.45821213764063
 31
0.0
  0
LINE
  5
1CD
330
1F
100
AcDbEntity
  8
CENTERMARKS
  6
CENTER
100
AcDbLine
 10
3.982389149745496
 20
4.45821213764063
 30
0.0
 11
4.002074189115574
 21
4.45821213764063
 31
0.0
  0
LINE
  5
1CE
330
1F
100
AcDbEntity
  8
CENTERMARKS
  6
CENTER
100
AcDbLine
 10
3.96860962218644
 20
4.471991665199686
 30
0.0
 11
3.96860962218644
 21
4.491676704569764
 31
0.0
  0
LINE
  5
1CF
330
1F
100
AcDbEntity
  8
CENTERMARKS
  6
CENTER
100
AcDbLine
 10
3.96860962218644
 20
4.444432610081575
 30
0.0
 11
3.96860962218644
 21
4.424747570711496
 31
0.0
  0
LINE
  5
1D3
330
1F
100
AcDbEntity
  8
CENTERMARKS
  6
CONTINUOUS
100
AcDbLine
 10
3.961719858406912
 20
4.55821213764063
 30
0.0
 11
3.975499385965968
 21
4.55821213764063
 31
0.0
  0
LINE
  5
1D4
330
1F
100
AcDbEntity
  8
CENTERMARKS
  6
CONTINUOUS
100
AcDbLine
 10
3.96860962218644
 20
4.551322373861102
 30
0.0
 11
3.96860962218644
 21
4.565101901420157
 31
0.0
  0
LINE
  5
1D5
330
1F
100
AcDbEntity
  8
CENTERMARKS
  6
CENTER
100
AcDbLine
 10
3.954830094627384
 20
4.55821213764063
 30
0.0
 11
3.935145055257306
 21
4.55821213764063
 31
0.0
  0
LINE
  5
1D6
330
1F
100
AcDbEntity
  8
CENTERMARKS
  6
CENTER
100
AcDbLine
 10
3.982389149745496
 20
4.55821213764063
 30
0.0
 11
4.002074189115574
 21
4.55821213764063
 31
0.0
  0
LINE
  5
1D7
330
1F
100
AcDbEntity
  8
CENTERMARKS
  6
CENTER
100
AcDbLine
 10
3.96860962218644
 20
4.571991665199685
 30
0.0
 11
3.96860962218644
 21
4.591676704569764
 31
0.0
  0
LINE
  5
1D8
330
1F
100
AcDbEntity
  8
CENTERMARKS
  6
CENTER
100
AcDbLine
 10
3.96860962218644
 20
4.544432610081574
 30
0.0
 11
3.96860962218644
 21
4.524747570711495
 31
0.0
  0
LINE
  5
1DC
330
1F
100
AcDbEntity
  8
CENTERMARKS
  6
CONTINUOUS
100
AcDbLine
 10
3.961719858406912
 20
4.658212137640629
 30
0.0
 11
3.975499385965968
 21
4.658212137640629
 31
0.0
  0
LINE
  5
1DD
330
1F
100
AcDbEntity
  8
CENTERMARKS
  6
CONTINUOUS
100
AcDbLine
 10
3.96860962218644
 20
4.651322373861102
 30
0.0
 11
3.96860962218644
 21
4.665101901420157
 31
0.0
  0
LINE
  5
1DE
330
1F
100
AcDbEntity
  8
CENTERMARKS
  6
CENTER
100
AcDbLine
 10
3.954830094627384
 20
4.658212137640629
 30
0.0
 11
3.935145055257306
 21
4.658212137640629
 31
0.0
  0
LINE
  5
1DF
330
1F
100
AcDbEntity
  8
CENTERMARKS
  6
CENTER
100
AcDbLine
 10
3.982389149745496
 20
4.658212137640629
 30
0.0
 11
4.002074189115574
 21
4.658212137640629
 31
0.0
  0
LINE
  5
1E0
330
1F
100
AcDbEntity
  8
CENTERMARKS
  6
CENTER
100
AcDbLine
 10
3.96860962218644
 20
4.671991665199685
 30
0.0
 11
3.96860962218644
 21
4.691676704569764
 31
0.0
  0
LINE
  5
1E1
330
1F
100
AcDbEntity
  8
CENTERMARKS
  6
CENTER
100
AcDbLine
 10
3.96860962218644
 20
4.644432610081574
 30
0.0
 11
3.96860962218644
 21
4.624747570711495
 31
0.0
  0
LINE
  5
1E5
330
1F
100
AcDbEntity
  8
CENTERMARKS
  6
CONTINUOUS
100
AcDbLine
 10
3.961719858406912
 20
4.75821213764063
 30
0.0
 11
3.975499385965968
 21
4.75821213764063
 31
0.0
  0
LINE
  5
1E6
330
1F
100
AcDbEntity
  8
CENTERMARKS
  6
CONTINUOUS
100
AcDbLine
 10
3.96860962218644
 20
4.751322373861102
 30
0.0
 11
3.96860962218644
 21
4.765101901420158
 31
0.0
  0
LINE
  5
1E7
330
1F
100
AcDbEntity
  8
CENTERMARKS
  6
CENTER
100
AcDbLine
 10
3.954830094627384
 20
4.75821213764063
 30
0.0
 11
3.935145055257306
 21
4.75821213764063
 31
0.0
  0
LINE
  5
1E8
330
1F
100
AcDbEntity
  8
CENTERMARKS
  6
CENTER
100
AcDbLine
 10
3.982389149745496
 20
4.75821213764063
 30
0.0
 11
4.002074189115574
 21
4.75821213764063
 31
0.0
  0
LINE
  5
1E9
330
1F
100
AcDbEntity
  8
CENTERMARKS
  6
CENTER
100
AcDbLine
 10
3.96860962218644
 20
4.771991665199685
 30
0.0
 11
3.96860962218644
 21
4.791676704569764
 31
0.0
  0
LINE
  5
1EA
330
1F
100
AcDbEntity
  8
CENTERMARKS
  6
CENTER
100
AcDbLine
 10
3.96860962218644
 20
4.744432610081574
 30
0.0
 11
3.96860962218644
 21
4.724747570711496
 31
0.0
  0
LINE
  5
1EE
330
1F
100
AcDbEntity
  8
CENTERMARKS
  6
CONTINUOUS
100
AcDbLine
 10
5.411719858406912
 20
3.233408988034331
 30
0.0
 11
5.425499385965968
 21
3.233408988034331
 31
0.0
  0
LINE
  5
1EF
330
1F
100
AcDbEntity
  8
CENTERMARKS
  6
CONTINUOUS
100
AcDbLine
 10
5.41860962218644
 20
3.226519224254803
 30
0.0
 11
5.41860962218644
 21
3.240298751813858
 31
0.0
  0
LINE
  5
1F0
330
1F
100
AcDbEntity
  8
CENTERMARKS
  6
CENTER
100
AcDbLine
 10
5.404830094627385
 20
3.233408988034331
 30
0.0
 11
5.385145055257306
 21
3.233408988034331
 31
0.0
  0
LINE
  5
1F1
330
1F
100
AcDbEntity
  8
CENTERMARKS
  6
CENTER
100
AcDbLine
 10
5.432389149745496
 20
3.233408988034331
 30
0.0
 11
5.452074189115574
 21
3.233408988034331
 31
0.0
  0
LINE
  5
1F2
330
1F
100
AcDbEntity
  8
CENTERMARKS
  6
CENTER
100
AcDbLine
 10
5.41860962218644
 20
3.247188515593386
 30
0.0
 11
5.41860962218644
 21
3.266873554963465
 31
0.0
  0
LINE
  5
1F3
330
1F
100
AcDbEntity
  8
CENTERMARKS
  6
CENTER
100
AcDbLine
 10
5.41860962218644
 20
3.219629460475275
 30
0.0
 11
5.41860962218644
 21
3.199944421105196
 31
0.0
  0
LINE
  5
1F7
330
1F
100
AcDbEntity
  8
CENTERMARKS
  6
CONTINUOUS
100
AcDbLine
 10
5.511719858406913
 20
3.233408988034331
 30
0.0
 11
5.525499385965968
 21
3.233408988034331
 31
0.0
  0
LINE
  5
1F8
330
1F
100
AcDbEntity
  8
CENTERMARKS
  6
CONTINUOUS
100
AcDbLine
 10
5.518609622186441
 20
3.226519224254803
 30
0.0
 11
5.518609622186441
 21
3.240298751813858
 31
0.0
  0
LINE
  5
1F9
330
1F
100
AcDbEntity
  8
CENTERMARKS
  6
CENTER
100
AcDbLine
 10
5.504830094627385
 20
3.233408988034331
 30
0.0
 11
5.485145055257306
 21
3.233408988034331
 31
0.0
  0
LINE
  5
1FA
330
1F
100
AcDbEntity
  8
CENTERMARKS
  6
CENTER
100
AcDbLine
 10
5.532389149745496
 20
3.233408988034331
 30
0.0
 11
5.552074189115575
 21
3.233408988034331
 31
0.0
  0
LINE
  5
1FB
330
1F
100
AcDbEntity
  8
CENTERMARKS
  6
CENTER
100
AcDbLine
 10
5.518609622186441
 20
3.247188515593386
 30
0.0
 11
5.518609622186441
 21
3.266873554963465
 31
0.0
  0
LINE
  5
1FC
330
1F
100
AcDbEntity
  8
CENTERMARKS
  6
CENTER
100
AcDbLine
 10
5.518609622186441
 20
3.219629460475275
 30
0.0
 11
5.518609622186441
 21
3.199944421105196
 31
0.0
  0
LINE
  5
200
330
1F
100
AcDbEntity
  8
CENTERMARKS
  6
CONTINUOUS
100
AcDbLine
 10
5.853845842658881
 20
3.646794814805984
 30
0.0
 11
5.867625370217937
 21
3.646794814805984
 31
0.0
  0
LINE
  5
201
330
1F
100
AcDbEntity
  8
CENTERMARKS
  6
CONTINUOUS
100
AcDbLine
 10
5.860735606438409
 20
3.639905051026457
 30
0.0
 11
5.860735606438409
 21
3.653684578585512
 31
0.0
  0
LINE
  5
202
330
1F
100
AcDbEntity
  8
CENTERMARKS
  6
CENTER
100
AcDbLine
 10
5.846956078879353
 20
3.646794814805984
 30
0.0
 11
5.827271039509275
 21
3.646794814805984
 31
0.0
  0
LINE
  5
203
330
1F
100
AcDbEntity
  8
CENTERMARKS
  6
CENTER
100
AcDbLine
 10
5.874515133997464
 20
3.646794814805984
 30
0.0
 11
5.894200173367543
 21
3.646794814805984
 31
0.0
  0
LINE
  5
204
330
1F
100
AcDbEntity
  8
CENTERMARKS
  6
CENTER
100
AcDbLine
 10
5.860735606438409
 20
3.66057434236504
 30
0.0
 11
5.860735606438409
 21
3.680259381735119
 31
0.0
  0
LINE
  5
205
330
1F
100
AcDbEntity
  8
CENTERMARKS
  6
CENTER
100
AcDbLine
 10
5.860735606438409
 20
3.633015287246929
 30
0.0
 11
5.860735606438409
 21
3.61333024787685
 31
0.0
  0
LINE
  5
209
330
1F
100
AcDbEntity
  8
CENTERMARKS
  6
CONTINUOUS
100
AcDbLine
 10
6.837015133997464
 20
3.323960169136693
 30
0.0
 11
6.868708047383291
 21
3.323960169136693
 31
0.0
  0
LINE
  5
20A
330
1F
100
AcDbEntity
  8
CENTERMARKS
  6
CONTINUOUS
100
AcDbLine
 10
6.852861590690377
 20
3.308113712443779
 30
0.0
 11
6.852861590690377
 21
3.339806625829606
 31
0.0
  0
LINE
  5
20B
330
1F
100
AcDbEntity
  8
CENTERMARKS
  6
CENTER
100
AcDbLine
 10
6.82116867730455
 20
3.323960169136693
 30
0.0
 11
6.775893086753369
 21
3.323960169136693
 31
0.0
  0
LINE
  5
20C
330
1F
100
AcDbEntity
  8
CENTERMARKS
  6
CENTER
100
AcDbLine
 10
6.884554504076204
 20
3.323960169136693
 30
0.0
 11
6.929830094627386
 21
3.323960169136693
 31
0.0
  0
LINE
  5
20D
330
1F
100
AcDbEntity
  8
CENTERMARKS
  6
CENTER
100
AcDbLine
 10
6.852861590690377
 20
3.35565308252252
 30
0.0
 11
6.852861590690377
 21
3.400928673073701
 31
0.0
  0
LINE
  5
20E
330
1F
100
AcDbEntity
  8
CENTERMARKS
  6
CENTER
100
AcDbLine
 10
6.852861590690377
 20
3.292267255750866
 30
0.0
 11
6.852861590690377
 21
3.246991665199685
 31
0.0
  0
LINE
  5
212
330
1F
100
AcDbEntity
  8
CENTERMARKS
  6
CONTINUOUS
100
AcDbLine
 10
6.761719858406913
 20
3.85821213764063
 30
0.0
 11
6.775499385965968
 21
3.85821213764063
 31
0.0
  0
LINE
  5
213
330
1F
100
AcDbEntity
  8
CENTERMARKS
  6
CONTINUOUS
100
AcDbLine
 10
6.768609622186441
 20
3.851322373861102
 30
0.0
 11
6.768609622186441
 21
3.865101901420157
 31
0.0
  0
LINE
  5
214
330
1F
100
AcDbEntity
  8
CENTERMARKS
  6
CENTER
100
AcDbLine
 10
6.754830094627385
 20
3.85821213764063
 30
0.0
 11
6.735145055257306
 21
3.85821213764063
 31
0.0
  0
LINE
  5
215
330
1F
100
AcDbEntity
  8
CENTERMARKS
  6
CENTER
100
AcDbLine
 10
6.782389149745496
 20
3.85821213764063
 30
0.0
 11
6.802074189115575
 21
3.85821213764063
 31
0.0
  0
LINE
  5
216
330
1F
100
AcDbEntity
  8
CENTERMARKS
  6
CENTER
100
AcDbLine
 10
6.768609622186441
 20
3.871991665199685
 30
0.0
 11
6.768609622186441
 21
3.891676704569764
 31
0.0
  0
LINE
  5
217
330
1F
100
AcDbEntity
  8
CENTERMARKS
  6
CENTER
100
AcDbLine
 10
6.768609622186441
 20
3.844432610081574
 30
0.0
 11
6.768609622186441
 21
3.824747570711495
 31
0.0
  0
LINE
  5
21B
330
1F
100
AcDbEntity
  8
CENTERMARKS
  6
CONTINUOUS
100
AcDbLine
 10
6.761719858406913
 20
3.95821213764063
 30
0.0
 11
6.775499385965968
 21
3.95821213764063
 31
0.0
  0
LINE
  5
21C
330
1F
100
AcDbEntity
  8
CENTERMARKS
  6
CONTINUOUS
100
AcDbLine
 10
6.768609622186441
 20
3.951322373861102
 30
0.0
 11
6.768609622186441
 21
3.965101901420158
 31
0.0
  0
LINE
  5
21D
330
1F
100
AcDbEntity
  8
CENTERMARKS
  6
CENTER
100
AcDbLine
 10
6.754830094627385
 20
3.95821213764063
 30
0.0
 11
6.735145055257306
 21
3.958212137640631
 31
0.0
  0
LINE
  5
21E
330
1F
100
AcDbEntity
  8
CENTERMARKS
  6
CENTER
100
AcDbLine
 10
6.782389149745496
 20
3.95821213764063
 30
0.0
 11
6.802074189115575
 21
3.95821213764063
 31
0.0
  0
LINE
  5
21F
330
1F
100
AcDbEntity
  8
CENTERMARKS
  6
CENTER
100
AcDbLine
 10
6.768609622186441
 20
3.971991665199686
 30
0.0
 11
6.768609622186441
 21
3.991676704569764
 31
0.0
  0
LINE
  5
220
330
1F
100
AcDbEntity
  8
CENTERMARKS
  6
CENTER
100
AcDbLine
 10
6.768609622186441
 20
3.944432610081575
 30
0.0
 11
6.768609622186441
 21
3.924747570711496
 31
0.0
  0
LINE
  5
224
330
1F
100
AcDbEntity
  8
CENTERMARKS
  6
CONTINUOUS
100
AcDbLine
 10
6.761719858406913
 20
4.05821213764063
 30
0.0
 11
6.775499385965968
 21
4.05821213764063
 31
0.0
  0
LINE
  5
225
330
1F
100
AcDbEntity
  8
CENTERMARKS
  6
CONTINUOUS
100
AcDbLine
 10
6.768609622186441
 20
4.051322373861102
 30
0.0
 11
6.768609622186441
 21
4.065101901420157
 31
0.0
  0
LINE
  5
226
330
1F
100
AcDbEntity
  8
CENTERMARKS
  6
CENTER
100
AcDbLine
 10
6.754830094627385
 20
4.05821213764063
 30
0.0
 11
6.735145055257306
 21
4.05821213764063
 31
0.0
  0
LINE
  5
227
330
1F
100
AcDbEntity
  8
CENTERMARKS
  6
CENTER
100
AcDbLine
 10
6.782389149745496
 20
4.05821213764063
 30
0.0
 11
6.802074189115575
 21
4.05821213764063
 31
0.0
  0
LINE
  5
228
330
1F
100
AcDbEntity
  8
CENTERMARKS
  6
CENTER
100
AcDbLine
 10
6.768609622186441
 20
4.071991665199685
 30
0.0
 11
6.768609622186441
 21
4.091676704569764
 31
0.0
  0
LINE
  5
229
330
1F
100
AcDbEntity
  8
CENTERMARKS
  6
CENTER
100
AcDbLine
 10
6.768609622186441
 20
4.044432610081574
 30
0.0
 11
6.768609622186441
 21
4.024747570711495
 31
0.0
  0
LINE
  5
22D
330
1F
100
AcDbEntity
  8
CENTERMARKS
  6
CONTINUOUS
100
AcDbLine
 10
6.761719858406913
 20
4.158212137640629
 30
0.0
 11
6.775499385965968
 21
4.158212137640629
 31
0.0
  0
LINE
  5
22E
330
1F
100
AcDbEntity
  8
CENTERMARKS
  6
CONTINUOUS
100
AcDbLine
 10
6.768609622186441
 20
4.151322373861102
 30
0.0
 11
6.768609622186441
 21
4.165101901420157
 31
0.0
  0
LINE
  5
22F
330
1F
100
AcDbEntity
  8
CENTERMARKS
  6
CENTER
100
AcDbLine
 10
6.754830094627385
 20
4.158212137640629
 30
0.0
 11
6.735145055257306
 21
4.158212137640629
 31
0.0
  0
LINE
  5
230
330
1F
100
AcDbEntity
  8
CENTERMARKS
  6
CENTER
100
AcDbLine
 10
6.782389149745496
 20
4.158212137640629
 30
0.0
 11
6.802074189115575
 21
4.158212137640629
 31
0.0
  0
LINE
  5
231
330
1F
100
AcDbEntity
  8
CENTERMARKS
  6
CENTER
100
AcDbLine
 10
6.768609622186441
 20
4.171991665199685
 30
0.0
 11
6.768609622186441
 21
4.191676704569764
 31
0.0
  0
LINE
  5
232
330
1F
100
AcDbEntity
  8
CENTERMARKS
  6
CENTER
100
AcDbLine
 10
6.768609622186441
 20
4.144432610081574
 30
0.0
 11
6.768609622186441
 21
4.124747570711495
 31
0.0
  0
LINE
  5
236
330
1F
100
AcDbEntity
  8
CENTERMARKS
  6
CONTINUOUS
100
AcDbLine
 10
6.761719858406913
 20
4.25821213764063
 30
0.0
 11
6.775499385965968
 21
4.25821213764063
 31
0.0
  0
LINE
  5
237
330
1F
100
AcDbEntity
  8
CENTERMARKS
  6
CONTINUOUS
100
AcDbLine
 10
6.768609622186441
 20
4.251322373861102
 30
0.0
 11
6.768609622186441
 21
4.265101901420158
 31
0.0
  0
LINE
  5
238
330
1F
100
AcDbEntity
  8
CENTERMARKS
  6
CENTER
100
AcDbLine
 10
6.754830094627385
 20
4.25821213764063
 30
0.0
 11
6.735145055257306
 21
4.25821213764063
 31
0.0
  0
LINE
  5
239
330
1F
100
AcDbEntity
  8
CENTERMARKS
  6
CENTER
100
AcDbLine
 10
6.782389149745496
 20
4.25821213764063
 30
0.0
 11
6.802074189115575
 21
4.25821213764063
 31
0.0
  0
LINE
  5
23A
330
1F
100
AcDbEntity
  8
CENTERMARKS
  6
CENTER
100
AcDbLine
 10
6.768609622186441
 20
4.271991665199685
 30
0.0
 11
6.768609622186441
 21
4.291676704569764
 31
0.0
  0
LINE
  5
23B
330
1F
100
AcDbEntity
  8
CENTERMARKS
  6
CENTER
100
AcDbLine
 10
6.768609622186441
 20
4.244432610081574
 30
0.0
 11
6.768609622186441
 21
4.224747570711496
 31
0.0
  0
LINE
  5
23F
330
1F
100
AcDbEntity
  8
CENTERMARKS
  6
CONTINUOUS
100
AcDbLine
 10
6.761719858406913
 20
4.35821213764063
 30
0.0
 11
6.775499385965968
 21
4.35821213764063
 31
0.0
  0
LINE
  5
240
330
1F
100
AcDbEntity
  8
CENTERMARKS
  6
CONTINUOUS
100
AcDbLine
 10
6.768609622186441
 20
4.351322373861102
 30
0.0
 11
6.768609622186441
 21
4.365101901420157
 31
0.0
  0
LINE
  5
241
330
1F
100
AcDbEntity
  8
CENTERMARKS
  6
CENTER
100
AcDbLine
 10
6.754830094627385
 20
4.35821213764063
 30
0.0
 11
6.735145055257306
 21
4.35821213764063
 31
0.0
  0
LINE
  5
242
330
1F
100
AcDbEntity
  8
CENTERMARKS
  6
CENTER
100
AcDbLine
 10
6.782389149745496
 20
4.35821213764063
 30
0.0
 11
6.802074189115575
 21
4.35821213764063
 31
0.0
  0
LINE
  5
243
330
1F
100
AcDbEntity
  8
CENTERMARKS
  6
CENTER
100
AcDbLine
 10
6.768609622186441
 20
4.371991665199685
 30
0.0
 11
6.768609622186441
 21
4.391676704569764
 31
0.0
  0
LINE
  5
244
330
1F
100
AcDbEntity
  8
CENTERMARKS
  6
CENTER
100
AcDbLine
 10
6.768609622186441
 20
4.344432610081574
 30
0.0
 11
6.768609622186441
 21
4.324747570711495
 31
0.0
  0
LINE
  5
248
330
1F
100
AcDbEntity
  8
CENTERMARKS
  6
CONTINUOUS
100
AcDbLine
 10
6.761719858406913
 20
4.45821213764063
 30
0.0
 11
6.775499385965968
 21
4.45821213764063
 31
0.0
  0
LINE
  5
249
330
1F
100
AcDbEntity
  8
CENTERMARKS
  6
CONTINUOUS
100
AcDbLine
 10
6.768609622186441
 20
4.451322373861102
 30
0.0
 11
6.768609622186441
 21
4.465101901420158
 31
0.0
  0
LINE
  5
24A
330
1F
100
AcDbEntity
  8
CENTERMARKS
  6
CENTER
100
AcDbLine
 10
6.754830094627385
 20
4.45821213764063
 30
0.0
 11
6.735145055257306
 21
4.45821213764063
 31
0.0
  0
LINE
  5
24B
330
1F
100
AcDbEntity
  8
CENTERMARKS
  6
CENTER
100
AcDbLine
 10
6.782389149745496
 20
4.45821213764063
 30
0.0
 11
6.802074189115575
 21
4.45821213764063
 31
0.0
  0
LINE
  5
24C
330
1F
100
AcDbEntity
  8
CENTERMARKS
  6
CENTER
100
AcDbLine
 10
6.768609622186441
 20
4.471991665199686
 30
0.0
 11
6.768609622186441
 21
4.491676704569764
 31
0.0
  0
LINE
  5
24D
330
1F
100
AcDbEntity
  8
CENTERMARKS
  6
CENTER
100
AcDbLine
 10
6.768609622186441
 20
4.444432610081575
 30
0.0
 11
6.768609622186441
 21
4.424747570711496
 31
0.0
  0
LINE
  5
251
330
1F
100
AcDbEntity
  8
CENTERMARKS
  6
CONTINUOUS
100
AcDbLine
 10
6.761719858406913
 20
4.55821213764063
 30
0.0
 11
6.775499385965968
 21
4.55821213764063
 31
0.0
  0
LINE
  5
252
330
1F
100
AcDbEntity
  8
CENTERMARKS
  6
CONTINUOUS
100
AcDbLine
 10
6.768609622186441
 20
4.551322373861102
 30
0.0
 11
6.768609622186441
 21
4.565101901420157
 31
0.0
  0
LINE
  5
253
330
1F
100
AcDbEntity
  8
CENTERMARKS
  6
CENTER
100
AcDbLine
 10
6.754830094627385
 20
4.55821213764063
 30
0.0
 11
6.735145055257306
 21
4.55821213764063
 31
0.0
  0
LINE
  5
254
330
1F
100
AcDbEntity
  8
CENTERMARKS
  6
CENTER
100
AcDbLine
 10
6.782389149745496
 20
4.55821213764063
 30
0.0
 11
6.802074189115575
 21
4.55821213764063
 31
0.0
  0
LINE
  5
255
330
1F
100
AcDbEntity
  8
CENTERMARKS
  6
CENTER
100
AcDbLine
 10
6.768609622186441
 20
4.571991665199685
 30
0.0
 11
6.768609622186441
 21
4.591676704569764
 31
0.0
  0
LINE
  5
256
330
1F
100
AcDbEntity
  8
CENTERMARKS
  6
CENTER
100
AcDbLine
 10
6.768609622186441
 20
4.544432610081574
 30
0.0
 11
6.768609622186441
 21
4.524747570711495
 31
0.0
  0
LINE
  5
25A
330
1F
100
AcDbEntity
  8
CENTERMARKS
  6
CONTINUOUS
100
AcDbLine
 10
6.761719858406913
 20
4.658212137640629
 30
0.0
 11
6.775499385965968
 21
4.658212137640629
 31
0.0
  0
LINE
  5
25B
330
1F
100
AcDbEntity
  8
CENTERMARKS
  6
CONTINUOUS
100
AcDbLine
 10
6.768609622186441
 20
4.651322373861102
 30
0.0
 11
6.768609622186441
 21
4.665101901420157
 31
0.0
  0
LINE
  5
25C
330
1F
100
AcDbEntity
  8
CENTERMARKS
  6
CENTER
100
AcDbLine
 10
6.754830094627385
 20
4.658212137640629
 30
0.0
 11
6.735145055257306
 21
4.658212137640629
 31
0.0
  0
LINE
  5
25D
330
1F
100
AcDbEntity
  8
CENTERMARKS
  6
CENTER
100
AcDbLine
 10
6.782389149745496
 20
4.658212137640629
 30
0.0
 11
6.802074189115575
 21
4.658212137640629
 31
0.0
  0
LINE
  5
25E
330
1F
100
AcDbEntity
  8
CENTERMARKS
  6
CENTER
100
AcDbLine
 10
6.768609622186441
 20
4.671991665199685
 30
0.0
 11
6.768609622186441
 21
4.691676704569764
 31
0.0
  0
LINE
  5
25F
330
1F
100
AcDbEntity
  8
CENTERMARKS
  6
CENTER
100
AcDbLine
 10
6.768609622186441
 20
4.644432610081574
 30
0.0
 11
6.768609622186441
 21
4.624747570711495
 31
0.0
  0
LINE
  5
263
330
1F
100
AcDbEntity
  8
CENTERMARKS
  6
CONTINUOUS
100
AcDbLine
 10
6.761719858406913
 20
4.75821213764063
 30
0.0
 11
6.775499385965968
 21
4.75821213764063
 31
0.0
  0
LINE
  5
264
330
1F
100
AcDbEntity
  8
CENTERMARKS
  6
CONTINUOUS
100
AcDbLine
 10
6.768609622186441
 20
4.751322373861102
 30
0.0
 11
6.768609622186441
 21
4.765101901420158
 31
0.0
  0
LINE
  5
265
330
1F
100
AcDbEntity
  8
CENTERMARKS
  6
CENTER
100
AcDbLine
 10
6.754830094627385
 20
4.75821213764063
 30
0.0
 11
6.735145055257306
 21
4.75821213764063
 31
0.0
  0
LINE
  5
266
330
1F
100
AcDbEntity
  8
CENTERMARKS
  6
CENTER
100
AcDbLine
 10
6.782389149745496
 20
4.75821213764063
 30
0.0
 11
6.802074189115575
 21
4.75821213764063
 31
0.0
  0
LINE
  5
267
330
1F
100
AcDbEntity
  8
CENTERMARKS
  6
CENTER
100
AcDbLine
 10
6.768609622186441
 20
4.771991665199685
 30
0.0
 11
6.768609622186441
 21
4.791676704569764
 31
0.0
  0
LINE
  5
268
330
1F
100
AcDbEntity
  8
CENTERMARKS
  6
CENTER
100
AcDbLine
 10
6.768609622186441
 20
4.744432610081574
 30
0.0
 11
6.768609622186441
 21
4.724747570711496
 31
0.0
  0
LINE
  5
26C
330
1F
100
AcDbEntity
  8
CENTERMARKS
  6
CONTINUOUS
100
AcDbLine
 10
3.961719858406912
 20
4.85821213764063
 30
0.0
 11
3.975499385965968
 21
4.85821213764063
 31
0.0
  0
LINE
  5
26D
330
1F
100
AcDbEntity
  8
CENTERMARKS
  6
CONTINUOUS
100
AcDbLine
 10
3.96860962218644
 20
4.851322373861102
 30
0.0
 11
3.96860962218644
 21
4.865101901420157
 31
0.0
  0
LINE
  5
26E
330
1F
100
AcDbEntity
  8
CENTERMARKS
  6
CENTER
100
AcDbLine
 10
3.954830094627384
 20
4.85821213764063
 30
0.0
 11
3.935145055257306
 21
4.85821213764063
 31
0.0
  0
LINE
  5
26F
330
1F
100
AcDbEntity
  8
CENTERMARKS
  6
CENTER
100
AcDbLine
 10
3.982389149745496
 20
4.85821213764063
 30
0.0
 11
4.002074189115574
 21
4.85821213764063
 31
0.0
  0
LINE
  5
270
330
1F
100
AcDbEntity
  8
CENTERMARKS
  6
CENTER
100
AcDbLine
 10
3.96860962218644
 20
4.871991665199685
 30
0.0
 11
3.96860962218644
 21
4.891676704569764
 31
0.0
  0
LINE
  5
271
330
1F
100
AcDbEntity
  8
CENTERMARKS
  6
CENTER
100
AcDbLine
 10
3.96860962218644
 20
4.844432610081574
 30
0.0
 11
3.96860962218644
 21
4.824747570711495
 31
0.0
  0
LINE
  5
275
330
1F
100
AcDbEntity
  8
CENTERMARKS
  6
CONTINUOUS
100
AcDbLine
 10
3.961719858406912
 20
4.95821213764063
 30
0.0
 11
3.975499385965968
 21
4.95821213764063
 31
0.0
  0
LINE
  5
276
330
1F
100
AcDbEntity
  8
CENTERMARKS
  6
CONTINUOUS
100
AcDbLine
 10
3.96860962218644
 20
4.951322373861102
 30
0.0
 11
3.96860962218644
 21
4.965101901420158
 31
0.0
  0
LINE
  5
277
330
1F
100
AcDbEntity
  8
CENTERMARKS
  6
CENTER
100
AcDbLine
 10
3.954830094627384
 20
4.95821213764063
 30
0.0
 11
3.935145055257306
 21
4.95821213764063
 31
0.0
  0
LINE
  5
278
330
1F
100
AcDbEntity
  8
CENTERMARKS
  6
CENTER
100
AcDbLine
 10
3.982389149745496
 20
4.95821213764063
 30
0.0
 11
4.002074189115574
 21
4.95821213764063
 31
0.0
  0
LINE
  5
279
330
1F
100
AcDbEntity
  8
CENTERMARKS
  6
CENTER
100
AcDbLine
 10
3.96860962218644
 20
4.971991665199686
 30
0.0
 11
3.96860962218644
 21
4.991676704569764
 31
0.0
  0
LINE
  5
27A
330
1F
100
AcDbEntity
  8
CENTERMARKS
  6
CENTER
100
AcDbLine
 10
3.96860962218644
 20
4.944432610081575
 30
0.0
 11
3.96860962218644
 21
4.924747570711496
 31
0.0
  0
LINE
  5
27E
330
1F
100
AcDbEntity
  8
CENTERMARKS
  6
CONTINUOUS
100
AcDbLine
 10
3.961719858406912
 20
5.05821213764063
 30
0.0
 11
3.975499385965968
 21
5.05821213764063
 31
0.0
  0
LINE
  5
27F
330
1F
100
AcDbEntity
  8
CENTERMARKS
  6
CONTINUOUS
100
AcDbLine
 10
3.96860962218644
 20
5.051322373861102
 30
0.0
 11
3.96860962218644
 21
5.065101901420157
 31
0.0
  0
LINE
  5
280
330
1F
100
AcDbEntity
  8
CENTERMARKS
  6
CENTER
100
AcDbLine
 10
3.954830094627384
 20
5.05821213764063
 30
0.0
 11
3.935145055257306
 21
5.05821213764063
 31
0.0
  0
LINE
  5
281
330
1F
100
AcDbEntity
  8
CENTERMARKS
  6
CENTER
100
AcDbLine
 10
3.982389149745496
 20
5.05821213764063
 30
0.0
 11
4.002074189115574
 21
5.05821213764063
 31
0.0
  0
LINE
  5
282
330
1F
100
AcDbEntity
  8
CENTERMARKS
  6
CENTER
100
AcDbLine
 10
3.96860962218644
 20
5.071991665199685
 30
0.0
 11
3.96860962218644
 21
5.091676704569764
 31
0.0
  0
LINE
  5
283
330
1F
100
AcDbEntity
  8
CENTERMARKS
  6
CENTER
100
AcDbLine
 10
3.96860962218644
 20
5.044432610081574
 30
0.0
 11
3.96860962218644
 21
5.024747570711495
 31
0.0
  0
LINE
  5
287
330
1F
100
AcDbEntity
  8
CENTERMARKS
  6
CONTINUOUS
100
AcDbLine
 10
3.961719858406912
 20
5.158212137640629
 30
0.0
 11
3.975499385965968
 21
5.158212137640629
 31
0.0
  0
LINE
  5
288
330
1F
100
AcDbEntity
  8
CENTERMARKS
  6
CONTINUOUS
100
AcDbLine
 10
3.96860962218644
 20
5.151322373861102
 30
0.0
 11
3.96860962218644
 21
5.165101901420157
 31
0.0
  0
LINE
  5
289
330
1F
100
AcDbEntity
  8
CENTERMARKS
  6
CENTER
100
AcDbLine
 10
3.954830094627384
 20
5.158212137640629
 30
0.0
 11
3.935145055257306
 21
5.158212137640629
 31
0.0
  0
LINE
  5
28A
330
1F
100
AcDbEntity
  8
CENTERMARKS
  6
CENTER
100
AcDbLine
 10
3.982389149745496
 20
5.158212137640629
 30
0.0
 11
4.002074189115574
 21
5.158212137640629
 31
0.0
  0
LINE
  5
28B
330
1F
100
AcDbEntity
  8
CENTERMARKS
  6
CENTER
100
AcDbLine
 10
3.96860962218644
 20
5.171991665199685
 30
0.0
 11
3.96860962218644
 21
5.191676704569764
 31
0.0
  0
LINE
  5
28C
330
1F
100
AcDbEntity
  8
CENTERMARKS
  6
CENTER
100
AcDbLine
 10
3.96860962218644
 20
5.144432610081574
 30
0.0
 11
3.96860962218644
 21
5.124747570711495
 31
0.0
  0
LINE
  5
290
330
1F
100
AcDbEntity
  8
CENTERMARKS
  6
CONTINUOUS
100
AcDbLine
 10
3.961719858406912
 20
5.25821213764063
 30
0.0
 11
3.975499385965968
 21
5.25821213764063
 31
0.0
  0
LINE
  5
291
330
1F
100
AcDbEntity
  8
CENTERMARKS
  6
CONTINUOUS
100
AcDbLine
 10
3.96860962218644
 20
5.251322373861102
 30
0.0
 11
3.96860962218644
 21
5.265101901420158
 31
0.0
  0
LINE
  5
292
330
1F
100
AcDbEntity
  8
CENTERMARKS
  6
CENTER
100
AcDbLine
 10
3.954830094627384
 20
5.25821213764063
 30
0.0
 11
3.935145055257306
 21
5.25821213764063
 31
0.0
  0
LINE
  5
293
330
1F
100
AcDbEntity
  8
CENTERMARKS
  6
CENTER
100
AcDbLine
 10
3.982389149745496
 20
5.25821213764063
 30
0.0
 11
4.002074189115574
 21
5.25821213764063
 31
0.0
  0
LINE
  5
294
330
1F
100
AcDbEntity
  8
CENTERMARKS
  6
CENTER
100
AcDbLine
 10
3.96860962218644
 20
5.271991665199685
 30
0.0
 11
3.96860962218644
 21
5.291676704569764
 31
0.0
  0
LINE
  5
295
330
1F
100
AcDbEntity
  8
CENTERMARKS
  6
CENTER
100
AcDbLine
 10
3.96860962218644
 20
5.244432610081574
 30
0.0
 11
3.96860962218644
 21
5.224747570711496
 31
0.0
  0
LINE
  5
299
330
1F
100
AcDbEntity
  8
CENTERMARKS
  6
CONTINUOUS
100
AcDbLine
 10
3.961719858406912
 20
5.35821213764063
 30
0.0
 11
3.975499385965968
 21
5.35821213764063
 31
0.0
  0
LINE
  5
29A
330
1F
100
AcDbEntity
  8
CENTERMARKS
  6
CONTINUOUS
100
AcDbLine
 10
3.96860962218644
 20
5.351322373861103
 30
0.0
 11
3.96860962218644
 21
5.365101901420158
 31
0.0
  0
LINE
  5
29B
330
1F
100
AcDbEntity
  8
CENTERMARKS
  6
CENTER
100
AcDbLine
 10
3.954830094627384
 20
5.35821213764063
 30
0.0
 11
3.935145055257306
 21
5.358212137640631
 31
0.0
  0
LINE
  5
29C
330
1F
100
AcDbEntity
  8
CENTERMARKS
  6
CENTER
100
AcDbLine
 10
3.982389149745496
 20
5.35821213764063
 30
0.0
 11
4.002074189115574
 21
5.35821213764063
 31
0.0
  0
LINE
  5
29D
330
1F
100
AcDbEntity
  8
CENTERMARKS
  6
CENTER
100
AcDbLine
 10
3.96860962218644
 20
5.371991665199686
 30
0.0
 11
3.96860962218644
 21
5.391676704569765
 31
0.0
  0
LINE
  5
29E
330
1F
100
AcDbEntity
  8
CENTERMARKS
  6
CENTER
100
AcDbLine
 10
3.96860962218644
 20
5.344432610081575
 30
0.0
 11
3.96860962218644
 21
5.324747570711496
 31
0.0
  0
LINE
  5
2A2
330
1F
100
AcDbEntity
  8
CENTERMARKS
  6
CONTINUOUS
100
AcDbLine
 10
3.961719858406912
 20
5.45821213764063
 30
0.0
 11
3.975499385965968
 21
5.45821213764063
 31
0.0
  0
LINE
  5
2A3
330
1F
100
AcDbEntity
  8
CENTERMARKS
  6
CONTINUOUS
100
AcDbLine
 10
3.96860962218644
 20
5.451322373861102
 30
0.0
 11
3.96860962218644
 21
5.465101901420158
 31
0.0
  0
LINE
  5
2A4
330
1F
100
AcDbEntity
  8
CENTERMARKS
  6
CENTER
100
AcDbLine
 10
3.954830094627384
 20
5.45821213764063
 30
0.0
 11
3.935145055257306
 21
5.45821213764063
 31
0.0
  0
LINE
  5
2A5
330
1F
100
AcDbEntity
  8
CENTERMARKS
  6
CENTER
100
AcDbLine
 10
3.982389149745496
 20
5.45821213764063
 30
0.0
 11
4.002074189115574
 21
5.45821213764063
 31
0.0
  0
LINE
  5
2A6
330
1F
100
AcDbEntity
  8
CENTERMARKS
  6
CENTER
100
AcDbLine
 10
3.96860962218644
 20
5.471991665199686
 30
0.0
 11
3.96860962218644
 21
5.491676704569764
 31
0.0
  0
LINE
  5
2A7
330
1F
100
AcDbEntity
  8
CENTERMARKS
  6
CENTER
100
AcDbLine
 10
3.96860962218644
 20
5.444432610081575
 30
0.0
 11
3.96860962218644
 21
5.424747570711496
 31
0.0
  0
LINE
  5
2AB
330
1F
100
AcDbEntity
  8
CENTERMARKS
  6
CONTINUOUS
100
AcDbLine
 10
3.961719858406912
 20
5.55821213764063
 30
0.0
 11
3.975499385965968
 21
5.55821213764063
 31
0.0
  0
LINE
  5
2AC
330
1F
100
AcDbEntity
  8
CENTERMARKS
  6
CONTINUOUS
100
AcDbLine
 10
3.96860962218644
 20
5.551322373861102
 30
0.0
 11
3.96860962218644
 21
5.565101901420157
 31
0.0
  0
LINE
  5
2AD
330
1F
100
AcDbEntity
  8
CENTERMARKS
  6
CENTER
100
AcDbLine
 10
3.954830094627384
 20
5.55821213764063
 30
0.0
 11
3.935145055257306
 21
5.55821213764063
 31
0.0
  0
LINE
  5
2AE
330
1F
100
AcDbEntity
  8
CENTERMARKS
  6
CENTER
100
AcDbLine
 10
3.982389149745496
 20
5.55821213764063
 30
0.0
 11
4.002074189115574
 21
5.55821213764063
 31
0.0
  0
LINE
  5
2AF
330
1F
100
AcDbEntity
  8
CENTERMARKS
  6
CENTER
100
AcDbLine
 10
3.96860962218644
 20
5.571991665199685
 30
0.0
 11
3.96860962218644
 21
5.591676704569764
 31
0.0
  0
LINE
  5
2B0
330
1F
100
AcDbEntity
  8
CENTERMARKS
  6
CENTER
100
AcDbLine
 10
3.96860962218644
 20
5.544432610081574
 30
0.0
 11
3.96860962218644
 21
5.524747570711495
 31
0.0
  0
LINE
  5
2B4
330
1F
100
AcDbEntity
  8
CENTERMARKS
  6
CONTINUOUS
100
AcDbLine
 10
3.961719858406912
 20
5.658212137640629
 30
0.0
 11
3.975499385965968
 21
5.658212137640629
 31
0.0
  0
LINE
  5
2B5
330
1F
100
AcDbEntity
  8
CENTERMARKS
  6
CONTINUOUS
100
AcDbLine
 10
3.96860962218644
 20
5.651322373861102
 30
0.0
 11
3.96860962218644
 21
5.665101901420157
 31
0.0
  0
LINE
  5
2B6
330
1F
100
AcDbEntity
  8
CENTERMARKS
  6
CENTER
100
AcDbLine
 10
3.954830094627384
 20
5.658212137640629
 30
0.0
 11
3.935145055257306
 21
5.658212137640628
 31
0.0
  0
LINE
  5
2B7
330
1F
100
AcDbEntity
  8
CENTERMARKS
  6
CENTER
100
AcDbLine
 10
3.982389149745496
 20
5.658212137640629
 30
0.0
 11
4.002074189115574
 21
5.65821213764063
 31
0.0
  0
LINE
  5
2B8
330
1F
100
AcDbEntity
  8
CENTERMARKS
  6
CENTER
100
AcDbLine
 10
3.96860962218644
 20
5.671991665199685
 30
0.0
 11
3.96860962218644
 21
5.691676704569764
 31
0.0
  0
LINE
  5
2B9
330
1F
100
AcDbEntity
  8
CENTERMARKS
  6
CENTER
100
AcDbLine
 10
3.96860962218644
 20
5.644432610081574
 30
0.0
 11
3.96860962218644
 21
5.624747570711495
 31
0.0
  0
LINE
  5
2BD
330
1F
100
AcDbEntity
  8
CENTERMARKS
  6
CONTINUOUS
100
AcDbLine
 10
3.961719858406912
 20
5.758212137640629
 30
0.0
 11
3.975499385965968
 21
5.758212137640629
 31
0.0
  0
LINE
  5
2BE
330
1F
100
AcDbEntity
  8
CENTERMARKS
  6
CONTINUOUS
100
AcDbLine
 10
3.96860962218644
 20
5.751322373861101
 30
0.0
 11
3.96860962218644
 21
5.765101901420157
 31
0.0
  0
LINE
  5
2BF
330
1F
100
AcDbEntity
  8
CENTERMARKS
  6
CENTER
100
AcDbLine
 10
3.954830094627384
 20
5.758212137640629
 30
0.0
 11
3.935145055257306
 21
5.758212137640628
 31
0.0
  0
LINE
  5
2C0
330
1F
100
AcDbEntity
  8
CENTERMARKS
  6
CENTER
100
AcDbLine
 10
3.982389149745496
 20
5.758212137640629
 30
0.0
 11
4.002074189115574
 21
5.75821213764063
 31
0.0
  0
LINE
  5
2C1
330
1F
100
AcDbEntity
  8
CENTERMARKS
  6
CENTER
100
AcDbLine
 10
3.96860962218644
 20
5.771991665199685
 30
0.0
 11
3.96860962218644
 21
5.791676704569763
 31
0.0
  0
LINE
  5
2C2
330
1F
100
AcDbEntity
  8
CENTERMARKS
  6
CENTER
100
AcDbLine
 10
3.96860962218644
 20
5.744432610081573
 30
0.0
 11
3.96860962218644
 21
5.724747570711495
 31
0.0
  0
LINE
  5
2C6
330
1F
100
AcDbEntity
  8
CENTERMARKS
  6
CONTINUOUS
100
AcDbLine
 10
4.127729700926597
 20
5.766873554963465
 30
0.0
 11
4.138229700926598
 21
5.766873554963465
 31
0.0
  0
LINE
  5
2C7
330
1F
100
AcDbEntity
  8
CENTERMARKS
  6
CONTINUOUS
100
AcDbLine
 10
4.132979700926597
 20
5.761623554963465
 30
0.0
 11
4.132979700926597
 21
5.772123554963465
 31
0.0
  0
LINE
  5
2C8
330
1F
100
AcDbEntity
  8
CENTERMARKS
  6
CENTER
100
AcDbLine
 10
4.122479700926597
 20
5.766873554963465
 30
0.0
 11
4.107479700926597
 21
5.766873554963466
 31
0.0
  0
LINE
  5
2C9
330
1F
100
AcDbEntity
  8
CENTERMARKS
  6
CENTER
100
AcDbLine
 10
4.143479700926598
 20
5.766873554963465
 30
0.0
 11
4.158479700926597
 21
5.766873554963464
 31
0.0
  0
LINE
  5
2CA
330
1F
100
AcDbEntity
  8
CENTERMARKS
  6
CENTER
100
AcDbLine
 10
4.132979700926597
 20
5.777373554963465
 30
0.0
 11
4.132979700926597
 21
5.792373554963465
 31
0.0
  0
LINE
  5
2CB
330
1F
100
AcDbEntity
  8
CENTERMARKS
  6
CENTER
100
AcDbLine
 10
4.132979700926597
 20
5.756373554963464
 30
0.0
 11
4.132979700926597
 21
5.741373554963465
 31
0.0
  0
LINE
  5
2CF
330
1F
100
AcDbEntity
  8
CENTERMARKS
  6
CONTINUOUS
100
AcDbLine
 10
4.127729700926597
 20
5.866873554963465
 30
0.0
 11
4.138229700926598
 21
5.866873554963465
 31
0.0
  0
LINE
  5
2D0
330
1F
100
AcDbEntity
  8
CENTERMARKS
  6
CONTINUOUS
100
AcDbLine
 10
4.132979700926597
 20
5.861623554963464
 30
0.0
 11
4.132979700926597
 21
5.872123554963465
 31
0.0
  0
LINE
  5
2D1
330
1F
100
AcDbEntity
  8
CENTERMARKS
  6
CENTER
100
AcDbLine
 10
4.122479700926597
 20
5.866873554963465
 30
0.0
 11
4.107479700926597
 21
5.866873554963465
 31
0.0
  0
LINE
  5
2D2
330
1F
100
AcDbEntity
  8
CENTERMARKS
  6
CENTER
100
AcDbLine
 10
4.143479700926598
 20
5.866873554963465
 30
0.0
 11
4.158479700926597
 21
5.866873554963465
 31
0.0
  0
LINE
  5
2D3
330
1F
100
AcDbEntity
  8
CENTERMARKS
  6
CENTER
100
AcDbLine
 10
4.132979700926597
 20
5.877373554963465
 30
0.0
 11
4.132979700926597
 21
5.892373554963465
 31
0.0
  0
LINE
  5
2D4
330
1F
100
AcDbEntity
  8
CENTERMARKS
  6
CENTER
100
AcDbLine
 10
4.132979700926597
 20
5.856373554963464
 30
0.0
 11
4.132979700926597
 21
5.841373554963464
 31
0.0
  0
LINE
  5
2D8
330
1F
100
AcDbEntity
  8
CENTERMARKS
  6
CONTINUOUS
100
AcDbLine
 10
4.127729700926597
 20
5.966873554963464
 30
0.0
 11
4.138229700926598
 21
5.966873554963464
 31
0.0
  0
LINE
  5
2D9
330
1F
100
AcDbEntity
  8
CENTERMARKS
  6
CONTINUOUS
100
AcDbLine
 10
4.132979700926597
 20
5.961623554963464
 30
0.0
 11
4.132979700926597
 21
5.972123554963464
 31
0.0
  0
LINE
  5
2DA
330
1F
100
AcDbEntity
  8
CENTERMARKS
  6
CENTER
100
AcDbLine
 10
4.122479700926597
 20
5.966873554963464
 30
0.0
 11
4.107479700926597
 21
5.966873554963464
 31
0.0
  0
LINE
  5
2DB
330
1F
100
AcDbEntity
  8
CENTERMARKS
  6
CENTER
100
AcDbLine
 10
4.143479700926598
 20
5.966873554963464
 30
0.0
 11
4.158479700926597
 21
5.966873554963464
 31
0.0
  0
LINE
  5
2DC
330
1F
100
AcDbEntity
  8
CENTERMARKS
  6
CENTER
100
AcDbLine
 10
4.132979700926597
 20
5.977373554963465
 30
0.0
 11
4.132979700926597
 21
5.992373554963464
 31
0.0
  0
LINE
  5
2DD
330
1F
100
AcDbEntity
  8
CENTERMARKS
  6
CENTER
100
AcDbLine
 10
4.132979700926597
 20
5.956373554963464
 30
0.0
 11
4.132979700926597
 21
5.941373554963464
 31
0.0
  0
LINE
  5
2E1
330
1F
100
AcDbEntity
  8
CENTERMARKS
  6
CONTINUOUS
100
AcDbLine
 10
4.220381275729747
 20
5.764905051026456
 30
0.0
 11
4.245184425336046
 21
5.764905051026456
 31
0.0
  0
LINE
  5
2E2
330
1F
100
AcDbEntity
  8
CENTERMARKS
  6
CONTINUOUS
100
AcDbLine
 10
4.232782850532897
 20
5.752503476223306
 30
0.0
 11
4.232782850532897
 21
5.777306625829605
 31
0.0
  0
LINE
  5
2E3
330
1F
100
AcDbEntity
  8
CENTERMARKS
  6
CENTER
100
AcDbLine
 10
4.207979700926598
 20
5.764905051026456
 30
0.0
 11
4.172546630060456
 21
5.764905051026455
 31
0.0
  0
LINE
  5
2E4
330
1F
100
AcDbEntity
  8
CENTERMARKS
  6
CENTER
100
AcDbLine
 10
4.257586000139196
 20
5.764905051026456
 30
0.0
 11
4.293019071005338
 21
5.764905051026457
 31
0.0
  0
LINE
  5
2E5
330
1F
100
AcDbEntity
  8
CENTERMARKS
  6
CENTER
100
AcDbLine
 10
4.232782850532897
 20
5.789708200632755
 30
0.0
 11
4.232782850532897
 21
5.825141271498897
 31
0.0
  0
LINE
  5
2E6
330
1F
100
AcDbEntity
  8
CENTERMARKS
  6
CENTER
100
AcDbLine
 10
4.232782850532897
 20
5.740101901420156
 30
0.0
 11
4.232782850532897
 21
5.704668830554015
 31
0.0
  0
LINE
  5
2EA
330
1F
100
AcDbEntity
  8
CENTERMARKS
  6
CONTINUOUS
100
AcDbLine
 10
4.220381275729747
 20
5.867267255750867
 30
0.0
 11
4.245184425336046
 21
5.867267255750867
 31
0.0
  0
LINE
  5
2EB
330
1F
100
AcDbEntity
  8
CENTERMARKS
  6
CONTINUOUS
100
AcDbLine
 10
4.232782850532897
 20
5.854865680947717
 30
0.0
 11
4.232782850532897
 21
5.879668830554016
 31
0.0
  0
LINE
  5
2EC
330
1F
100
AcDbEntity
  8
CENTERMARKS
  6
CENTER
100
AcDbLine
 10
4.207979700926598
 20
5.867267255750867
 30
0.0
 11
4.172546630060456
 21
5.867267255750868
 31
0.0
  0
LINE
  5
2ED
330
1F
100
AcDbEntity
  8
CENTERMARKS
  6
CENTER
100
AcDbLine
 10
4.257586000139196
 20
5.867267255750867
 30
0.0
 11
4.293019071005338
 21
5.867267255750866
 31
0.0
  0
LINE
  5
2EE
330
1F
100
AcDbEntity
  8
CENTERMARKS
  6
CENTER
100
AcDbLine
 10
4.232782850532897
 20
5.892070405357166
 30
0.0
 11
4.232782850532897
 21
5.927503476223308
 31
0.0
  0
LINE
  5
2EF
330
1F
100
AcDbEntity
  8
CENTERMARKS
  6
CENTER
100
AcDbLine
 10
4.232782850532897
 20
5.842464106144567
 30
0.0
 11
4.232782850532897
 21
5.807031035278426
 31
0.0
  0
LINE
  5
2F3
330
1F
100
AcDbEntity
  8
CENTERMARKS
  6
CONTINUOUS
100
AcDbLine
 10
4.127729700926597
 20
6.066873554963464
 30
0.0
 11
4.138229700926598
 21
6.066873554963464
 31
0.0
  0
LINE
  5
2F4
330
1F
100
AcDbEntity
  8
CENTERMARKS
  6
CONTINUOUS
100
AcDbLine
 10
4.132979700926597
 20
6.061623554963464
 30
0.0
 11
4.132979700926597
 21
6.072123554963464
 31
0.0
  0
LINE
  5
2F5
330
1F
100
AcDbEntity
  8
CENTERMARKS
  6
CENTER
100
AcDbLine
 10
4.122479700926597
 20
6.066873554963464
 30
0.0
 11
4.107479700926597
 21
6.066873554963463
 31
0.0
  0
LINE
  5
2F6
330
1F
100
AcDbEntity
  8
CENTERMARKS
  6
CENTER
100
AcDbLine
 10
4.143479700926598
 20
6.066873554963464
 30
0.0
 11
4.158479700926597
 21
6.066873554963465
 31
0.0
  0
LINE
  5
2F7
330
1F
100
AcDbEntity
  8
CENTERMARKS
  6
CENTER
100
AcDbLine
 10
4.132979700926597
 20
6.077373554963464
 30
0.0
 11
4.132979700926597
 21
6.092373554963464
 31
0.0
  0
LINE
  5
2F8
330
1F
100
AcDbEntity
  8
CENTERMARKS
  6
CENTER
100
AcDbLine
 10
4.132979700926597
 20
6.056373554963463
 30
0.0
 11
4.132979700926597
 21
6.041373554963464
 31
0.0
  0
LINE
  5
2FC
330
1F
100
AcDbEntity
  8
CENTERMARKS
  6
CONTINUOUS
100
AcDbLine
 10
4.127729700926597
 20
6.166873554963465
 30
0.0
 11
4.138229700926598
 21
6.166873554963465
 31
0.0
  0
LINE
  5
2FD
330
1F
100
AcDbEntity
  8
CENTERMARKS
  6
CONTINUOUS
100
AcDbLine
 10
4.132979700926597
 20
6.161623554963465
 30
0.0
 11
4.132979700926597
 21
6.172123554963465
 31
0.0
  0
LINE
  5
2FE
330
1F
100
AcDbEntity
  8
CENTERMARKS
  6
CENTER
100
AcDbLine
 10
4.122479700926597
 20
6.166873554963465
 30
0.0
 11
4.107479700926597
 21
6.166873554963466
 31
0.0
  0
LINE
  5
2FF
330
1F
100
AcDbEntity
  8
CENTERMARKS
  6
CENTER
100
AcDbLine
 10
4.143479700926598
 20
6.166873554963465
 30
0.0
 11
4.158479700926597
 21
6.166873554963464
 31
0.0
  0
LINE
  5
300
330
1F
100
AcDbEntity
  8
CENTERMARKS
  6
CENTER
100
AcDbLine
 10
4.132979700926597
 20
6.177373554963466
 30
0.0
 11
4.132979700926597
 21
6.192373554963465
 31
0.0
  0
LINE
  5
301
330
1F
100
AcDbEntity
  8
CENTERMARKS
  6
CENTER
100
AcDbLine
 10
4.132979700926597
 20
6.156373554963465
 30
0.0
 11
4.132979700926597
 21
6.141373554963465
 31
0.0
  0
LINE
  5
305
330
1F
100
AcDbEntity
  8
CENTERMARKS
  6
CONTINUOUS
100
AcDbLine
 10
3.86851119698959
 20
6.292464106144567
 30
0.0
 11
3.900204110375417
 21
6.292464106144567
 31
0.0
  0
LINE
  5
306
330
1F
100
AcDbEntity
  8
CENTERMARKS
  6
CONTINUOUS
100
AcDbLine
 10
3.884357653682503
 20
6.276617649451653
 30
0.0
 11
3.884357653682503
 21
6.30831056283748
 31
0.0
  0
LINE
  5
307
330
1F
100
AcDbEntity
  8
CENTERMARKS
  6
CENTER
100
AcDbLine
 10
3.852664740296676
 20
6.292464106144567
 30
0.0
 11
3.807389149745495
 21
6.292464106144567
 31
0.0
  0
LINE
  5
308
330
1F
100
AcDbEntity
  8
CENTERMARKS
  6
CENTER
100
AcDbLine
 10
3.91605056706833
 20
6.292464106144567
 30
0.0
 11
3.961326157619511
 21
6.292464106144567
 31
0.0
  0
LINE
  5
309
330
1F
100
AcDbEntity
  8
CENTERMARKS
  6
CENTER
100
AcDbLine
 10
3.884357653682503
 20
6.324157019530394
 30
0.0
 11
3.884357653682503
 21
6.369432610081575
 31
0.0
  0
LINE
  5
30A
330
1F
100
AcDbEntity
  8
CENTERMARKS
  6
CENTER
100
AcDbLine
 10
3.884357653682503
 20
6.26077119275874
 30
0.0
 11
3.884357653682503
 21
6.215495602207558
 31
0.0
  0
LINE
  5
30E
330
1F
100
AcDbEntity
  8
CENTERMARKS
  6
CONTINUOUS
100
AcDbLine
 10
4.869593874154944
 20
5.969629460475276
 30
0.0
 11
4.883373401714
 21
5.969629460475276
 31
0.0
  0
LINE
  5
30F
330
1F
100
AcDbEntity
  8
CENTERMARKS
  6
CONTINUOUS
100
AcDbLine
 10
4.876483637934472
 20
5.962739696695748
 30
0.0
 11
4.876483637934472
 21
5.976519224254804
 31
0.0
  0
LINE
  5
310
330
1F
100
AcDbEntity
  8
CENTERMARKS
  6
CENTER
100
AcDbLine
 10
4.862704110375416
 20
5.969629460475276
 30
0.0
 11
4.843019071005338
 21
5.969629460475277
 31
0.0
  0
LINE
  5
311
330
1F
100
AcDbEntity
  8
CENTERMARKS
  6
CENTER
100
AcDbLine
 10
4.890263165493527
 20
5.969629460475276
 30
0.0
 11
4.909948204863606
 21
5.969629460475275
 31
0.0
  0
LINE
  5
312
330
1F
100
AcDbEntity
  8
CENTERMARKS
  6
CENTER
100
AcDbLine
 10
4.876483637934472
 20
5.983408988034332
 30
0.0
 11
4.876483637934472
 21
6.00309402740441
 31
0.0
  0
LINE
  5
313
330
1F
100
AcDbEntity
  8
CENTERMARKS
  6
CENTER
100
AcDbLine
 10
4.876483637934472
 20
5.95584993291622
 30
0.0
 11
4.876483637934472
 21
5.936164893546142
 31
0.0
  0
LINE
  5
317
330
1F
100
AcDbEntity
  8
CENTERMARKS
  6
CONTINUOUS
100
AcDbLine
 10
5.211326157619511
 20
6.38301528724693
 30
0.0
 11
5.225105685178566
 21
6.38301528724693
 31
0.0
  0
LINE
  5
318
330
1F
100
AcDbEntity
  8
CENTERMARKS
  6
CONTINUOUS
100
AcDbLine
 10
5.218215921399039
 20
6.376125523467402
 30
0.0
 11
5.218215921399039
 21
6.389905051026457
 31
0.0
  0
LINE
  5
319
330
1F
100
AcDbEntity
  8
CENTERMARKS
  6
CENTER
100
AcDbLine
 10
5.204436393839983
 20
6.38301528724693
 30
0.0
 11
5.184751354469904
 21
6.383015287246931
 31
0.0
  0
LINE
  5
31A
330
1F
100
AcDbEntity
  8
CENTERMARKS
  6
CENTER
100
AcDbLine
 10
5.231995448958094
 20
6.38301528724693
 30
0.0
 11
5.251680488328173
 21
6.383015287246929
 31
0.0
  0
LINE
  5
31B
330
1F
100
AcDbEntity
  8
CENTERMARKS
  6
CENTER
100
AcDbLine
 10
5.218215921399039
 20
6.396794814805985
 30
0.0
 11
5.218215921399039
 21
6.416479854176064
 31
0.0
  0
LINE
  5
31C
330
1F
100
AcDbEntity
  8
CENTERMARKS
  6
CENTER
100
AcDbLine
 10
5.218215921399039
 20
6.369235759687874
 30
0.0
 11
5.218215921399039
 21
6.349550720317795
 31
0.0
  0
LINE
  5
320
330
1F
100
AcDbEntity
  8
CENTERMARKS
  6
CONTINUOUS
100
AcDbLine
 10
5.311326157619511
 20
6.38301528724693
 30
0.0
 11
5.325105685178566
 21
6.38301528724693
 31
0.0
  0
LINE
  5
321
330
1F
100
AcDbEntity
  8
CENTERMARKS
  6
CONTINUOUS
100
AcDbLine
 10
5.318215921399038
 20
6.376125523467402
 30
0.0
 11
5.318215921399038
 21
6.389905051026457
 31
0.0
  0
LINE
  5
322
330
1F
100
AcDbEntity
  8
CENTERMARKS
  6
CENTER
100
AcDbLine
 10
5.304436393839983
 20
6.38301528724693
 30
0.0
 11
5.284751354469904
 21
6.383015287246931
 31
0.0
  0
LINE
  5
323
330
1F
100
AcDbEntity
  8
CENTERMARKS
  6
CENTER
100
AcDbLine
 10
5.331995448958094
 20
6.38301528724693
 30
0.0
 11
5.351680488328173
 21
6.383015287246929
 31
0.0
  0
LINE
  5
324
330
1F
100
AcDbEntity
  8
CENTERMARKS
  6
CENTER
100
AcDbLine
 10
5.318215921399038
 20
6.396794814805985
 30
0.0
 11
5.318215921399038
 21
6.416479854176064
 31
0.0
  0
LINE
  5
325
330
1F
100
AcDbEntity
  8
CENTERMARKS
  6
CENTER
100
AcDbLine
 10
5.318215921399038
 20
6.369235759687874
 30
0.0
 11
5.318215921399038
 21
6.349550720317795
 31
0.0
  0
LINE
  5
329
330
1F
100
AcDbEntity
  8
CENTERMARKS
  6
CONTINUOUS
100
AcDbLine
 10
6.761719858406913
 20
4.85821213764063
 30
0.0
 11
6.775499385965968
 21
4.85821213764063
 31
0.0
  0
LINE
  5
32A
330
1F
100
AcDbEntity
  8
CENTERMARKS
  6
CONTINUOUS
100
AcDbLine
 10
6.768609622186441
 20
4.851322373861102
 30
0.0
 11
6.768609622186441
 21
4.865101901420157
 31
0.0
  0
LINE
  5
32B
330
1F
100
AcDbEntity
  8
CENTERMARKS
  6
CENTER
100
AcDbLine
 10
6.754830094627385
 20
4.85821213764063
 30
0.0
 11
6.735145055257306
 21
4.85821213764063
 31
0.0
  0
LINE
  5
32C
330
1F
100
AcDbEntity
  8
CENTERMARKS
  6
CENTER
100
AcDbLine
 10
6.782389149745496
 20
4.85821213764063
 30
0.0
 11
6.802074189115575
 21
4.85821213764063
 31
0.0
  0
LINE
  5
32D
330
1F
100
AcDbEntity
  8
CENTERMARKS
  6
CENTER
100
AcDbLine
 10
6.768609622186441
 20
4.871991665199685
 30
0.0
 11
6.768609622186441
 21
4.891676704569764
 31
0.0
  0
LINE
  5
32E
330
1F
100
AcDbEntity
  8
CENTERMARKS
  6
CENTER
100
AcDbLine
 10
6.768609622186441
 20
4.844432610081574
 30
0.0
 11
6.768609622186441
 21
4.824747570711495
 31
0.0
  0
LINE
  5
332
330
1F
100
AcDbEntity
  8
CENTERMARKS
  6
CONTINUOUS
100
AcDbLine
 10
6.761719858406913
 20
4.95821213764063
 30
0.0
 11
6.775499385965968
 21
4.95821213764063
 31
0.0
  0
LINE
  5
333
330
1F
100
AcDbEntity
  8
CENTERMARKS
  6
CONTINUOUS
100
AcDbLine
 10
6.768609622186441
 20
4.951322373861102
 30
0.0
 11
6.768609622186441
 21
4.965101901420158
 31
0.0
  0
LINE
  5
334
330
1F
100
AcDbEntity
  8
CENTERMARKS
  6
CENTER
100
AcDbLine
 10
6.754830094627385
 20
4.95821213764063
 30
0.0
 11
6.735145055257306
 21
4.95821213764063
 31
0.0
  0
LINE
  5
335
330
1F
100
AcDbEntity
  8
CENTERMARKS
  6
CENTER
100
AcDbLine
 10
6.782389149745496
 20
4.95821213764063
 30
0.0
 11
6.802074189115575
 21
4.95821213764063
 31
0.0
  0
LINE
  5
336
330
1F
100
AcDbEntity
  8
CENTERMARKS
  6
CENTER
100
AcDbLine
 10
6.768609622186441
 20
4.971991665199686
 30
0.0
 11
6.768609622186441
 21
4.991676704569764
 31
0.0
  0
LINE
  5
337
330
1F
100
AcDbEntity
  8
CENTERMARKS
  6
CENTER
100
AcDbLine
 10
6.768609622186441
 20
4.944432610081575
 30
0.0
 11
6.768609622186441
 21
4.924747570711496
 31
0.0
  0
LINE
  5
33B
330
1F
100
AcDbEntity
  8
CENTERMARKS
  6
CONTINUOUS
100
AcDbLine
 10
6.761719858406913
 20
5.05821213764063
 30
0.0
 11
6.775499385965968
 21
5.05821213764063
 31
0.0
  0
LINE
  5
33C
330
1F
100
AcDbEntity
  8
CENTERMARKS
  6
CONTINUOUS
100
AcDbLine
 10
6.768609622186441
 20
5.051322373861102
 30
0.0
 11
6.768609622186441
 21
5.065101901420157
 31
0.0
  0
LINE
  5
33D
330
1F
100
AcDbEntity
  8
CENTERMARKS
  6
CENTER
100
AcDbLine
 10
6.754830094627385
 20
5.05821213764063
 30
0.0
 11
6.735145055257306
 21
5.05821213764063
 31
0.0
  0
LINE
  5
33E
330
1F
100
AcDbEntity
  8
CENTERMARKS
  6
CENTER
100
AcDbLine
 10
6.782389149745496
 20
5.05821213764063
 30
0.0
 11
6.802074189115575
 21
5.05821213764063
 31
0.0
  0
LINE
  5
33F
330
1F
100
AcDbEntity
  8
CENTERMARKS
  6
CENTER
100
AcDbLine
 10
6.768609622186441
 20
5.071991665199685
 30
0.0
 11
6.768609622186441
 21
5.091676704569764
 31
0.0
  0
LINE
  5
340
330
1F
100
AcDbEntity
  8
CENTERMARKS
  6
CENTER
100
AcDbLine
 10
6.768609622186441
 20
5.044432610081574
 30
0.0
 11
6.768609622186441
 21
5.024747570711495
 31
0.0
  0
LINE
  5
344
330
1F
100
AcDbEntity
  8
CENTERMARKS
  6
CONTINUOUS
100
AcDbLine
 10
6.761719858406913
 20
5.158212137640629
 30
0.0
 11
6.775499385965968
 21
5.158212137640629
 31
0.0
  0
LINE
  5
345
330
1F
100
AcDbEntity
  8
CENTERMARKS
  6
CONTINUOUS
100
AcDbLine
 10
6.768609622186441
 20
5.151322373861102
 30
0.0
 11
6.768609622186441
 21
5.165101901420157
 31
0.0
  0
LINE
  5
346
330
1F
100
AcDbEntity
  8
CENTERMARKS
  6
CENTER
100
AcDbLine
 10
6.754830094627385
 20
5.158212137640629
 30
0.0
 11
6.735145055257306
 21
5.158212137640629
 31
0.0
  0
LINE
  5
347
330
1F
100
AcDbEntity
  8
CENTERMARKS
  6
CENTER
100
AcDbLine
 10
6.782389149745496
 20
5.158212137640629
 30
0.0
 11
6.802074189115575
 21
5.158212137640629
 31
0.0
  0
LINE
  5
348
330
1F
100
AcDbEntity
  8
CENTERMARKS
  6
CENTER
100
AcDbLine
 10
6.768609622186441
 20
5.171991665199685
 30
0.0
 11
6.768609622186441
 21
5.191676704569764
 31
0.0
  0
LINE
  5
349
330
1F
100
AcDbEntity
  8
CENTERMARKS
  6
CENTER
100
AcDbLine
 10
6.768609622186441
 20
5.144432610081574
 30
0.0
 11
6.768609622186441
 21
5.124747570711495
 31
0.0
  0
LINE
  5
34D
330
1F
100
AcDbEntity
  8
CENTERMARKS
  6
CONTINUOUS
100
AcDbLine
 10
6.761719858406913
 20
5.25821213764063
 30
0.0
 11
6.775499385965968
 21
5.25821213764063
 31
0.0
  0
LINE
  5
34E
330
1F
100
AcDbEntity
  8
CENTERMARKS
  6
CONTINUOUS
100
AcDbLine
 10
6.768609622186441
 20
5.251322373861102
 30
0.0
 11
6.768609622186441
 21
5.265101901420158
 31
0.0
  0
LINE
  5
34F
330
1F
100
AcDbEntity
  8
CENTERMARKS
  6
CENTER
100
AcDbLine
 10
6.754830094627385
 20
5.25821213764063
 30
0.0
 11
6.735145055257306
 21
5.25821213764063
 31
0.0
  0
LINE
  5
350
330
1F
100
AcDbEntity
  8
CENTERMARKS
  6
CENTER
100
AcDbLine
 10
6.782389149745496
 20
5.25821213764063
 30
0.0
 11
6.802074189115575
 21
5.25821213764063
 31
0.0
  0
LINE
  5
351
330
1F
100
AcDbEntity
  8
CENTERMARKS
  6
CENTER
100
AcDbLine
 10
6.768609622186441
 20
5.271991665199685
 30
0.0
 11
6.768609622186441
 21
5.291676704569764
 31
0.0
  0
LINE
  5
352
330
1F
100
AcDbEntity
  8
CENTERMARKS
  6
CENTER
100
AcDbLine
 10
6.768609622186441
 20
5.244432610081574
 30
0.0
 11
6.768609622186441
 21
5.224747570711496
 31
0.0
  0
LINE
  5
356
330
1F
100
AcDbEntity
  8
CENTERMARKS
  6
CONTINUOUS
100
AcDbLine
 10
6.761719858406913
 20
5.35821213764063
 30
0.0
 11
6.775499385965968
 21
5.35821213764063
 31
0.0
  0
LINE
  5
357
330
1F
100
AcDbEntity
  8
CENTERMARKS
  6
CONTINUOUS
100
AcDbLine
 10
6.768609622186441
 20
5.351322373861103
 30
0.0
 11
6.768609622186441
 21
5.365101901420158
 31
0.0
  0
LINE
  5
358
330
1F
100
AcDbEntity
  8
CENTERMARKS
  6
CENTER
100
AcDbLine
 10
6.754830094627385
 20
5.35821213764063
 30
0.0
 11
6.735145055257306
 21
5.358212137640631
 31
0.0
  0
LINE
  5
359
330
1F
100
AcDbEntity
  8
CENTERMARKS
  6
CENTER
100
AcDbLine
 10
6.782389149745496
 20
5.35821213764063
 30
0.0
 11
6.802074189115575
 21
5.35821213764063
 31
0.0
  0
LINE
  5
35A
330
1F
100
AcDbEntity
  8
CENTERMARKS
  6
CENTER
100
AcDbLine
 10
6.768609622186441
 20
5.371991665199686
 30
0.0
 11
6.768609622186441
 21
5.391676704569765
 31
0.0
  0
LINE
  5
35B
330
1F
100
AcDbEntity
  8
CENTERMARKS
  6
CENTER
100
AcDbLine
 10
6.768609622186441
 20
5.344432610081575
 30
0.0
 11
6.768609622186441
 21
5.324747570711496
 31
0.0
  0
LINE
  5
35F
330
1F
100
AcDbEntity
  8
CENTERMARKS
  6
CONTINUOUS
100
AcDbLine
 10
6.761719858406913
 20
5.45821213764063
 30
0.0
 11
6.775499385965968
 21
5.45821213764063
 31
0.0
  0
LINE
  5
360
330
1F
100
AcDbEntity
  8
CENTERMARKS
  6
CONTINUOUS
100
AcDbLine
 10
6.768609622186441
 20
5.451322373861102
 30
0.0
 11
6.768609622186441
 21
5.465101901420158
 31
0.0
  0
LINE
  5
361
330
1F
100
AcDbEntity
  8
CENTERMARKS
  6
CENTER
100
AcDbLine
 10
6.754830094627385
 20
5.45821213764063
 30
0.0
 11
6.735145055257306
 21
5.45821213764063
 31
0.0
  0
LINE
  5
362
330
1F
100
AcDbEntity
  8
CENTERMARKS
  6
CENTER
100
AcDbLine
 10
6.782389149745496
 20
5.45821213764063
 30
0.0
 11
6.802074189115575
 21
5.45821213764063
 31
0.0
  0
LINE
  5
363
330
1F
100
AcDbEntity
  8
CENTERMARKS
  6
CENTER
100
AcDbLine
 10
6.768609622186441
 20
5.471991665199686
 30
0.0
 11
6.768609622186441
 21
5.491676704569764
 31
0.0
  0
LINE
  5
364
330
1F
100
AcDbEntity
  8
CENTERMARKS
  6
CENTER
100
AcDbLine
 10
6.768609622186441
 20
5.444432610081575
 30
0.0
 11
6.768609622186441
 21
5.424747570711496
 31
0.0
  0
LINE
  5
368
330
1F
100
AcDbEntity
  8
CENTERMARKS
  6
CONTINUOUS
100
AcDbLine
 10
6.761719858406913
 20
5.55821213764063
 30
0.0
 11
6.775499385965968
 21
5.55821213764063
 31
0.0
  0
LINE
  5
369
330
1F
100
AcDbEntity
  8
CENTERMARKS
  6
CONTINUOUS
100
AcDbLine
 10
6.768609622186441
 20
5.551322373861102
 30
0.0
 11
6.768609622186441
 21
5.565101901420157
 31
0.0
  0
LINE
  5
36A
330
1F
100
AcDbEntity
  8
CENTERMARKS
  6
CENTER
100
AcDbLine
 10
6.754830094627385
 20
5.55821213764063
 30
0.0
 11
6.735145055257306
 21
5.55821213764063
 31
0.0
  0
LINE
  5
36B
330
1F
100
AcDbEntity
  8
CENTERMARKS
  6
CENTER
100
AcDbLine
 10
6.782389149745496
 20
5.55821213764063
 30
0.0
 11
6.802074189115575
 21
5.55821213764063
 31
0.0
  0
LINE
  5
36C
330
1F
100
AcDbEntity
  8
CENTERMARKS
  6
CENTER
100
AcDbLine
 10
6.768609622186441
 20
5.571991665199685
 30
0.0
 11
6.768609622186441
 21
5.591676704569764
 31
0.0
  0
LINE
  5
36D
330
1F
100
AcDbEntity
  8
CENTERMARKS
  6
CENTER
100
AcDbLine
 10
6.768609622186441
 20
5.544432610081574
 30
0.0
 11
6.768609622186441
 21
5.524747570711495
 31
0.0
  0
LINE
  5
371
330
1F
100
AcDbEntity
  8
CENTERMARKS
  6
CONTINUOUS
100
AcDbLine
 10
5.853845842658881
 20
5.969629460475276
 30
0.0
 11
5.867625370217937
 21
5.969629460475276
 31
0.0
  0
LINE
  5
372
330
1F
100
AcDbEntity
  8
CENTERMARKS
  6
CONTINUOUS
100
AcDbLine
 10
5.860735606438409
 20
5.962739696695748
 30
0.0
 11
5.860735606438409
 21
5.976519224254804
 31
0.0
  0
LINE
  5
373
330
1F
100
AcDbEntity
  8
CENTERMARKS
  6
CENTER
100
AcDbLine
 10
5.846956078879353
 20
5.969629460475276
 30
0.0
 11
5.827271039509275
 21
5.969629460475277
 31
0.0
  0
LINE
  5
374
330
1F
100
AcDbEntity
  8
CENTERMARKS
  6
CENTER
100
AcDbLine
 10
5.874515133997464
 20
5.969629460475276
 30
0.0
 11
5.894200173367543
 21
5.969629460475275
 31
0.0
  0
LINE
  5
375
330
1F
100
AcDbEntity
  8
CENTERMARKS
  6
CENTER
100
AcDbLine
 10
5.860735606438409
 20
5.983408988034332
 30
0.0
 11
5.860735606438409
 21
6.00309402740441
 31
0.0
  0
LINE
  5
376
330
1F
100
AcDbEntity
  8
CENTERMARKS
  6
CENTER
100
AcDbLine
 10
5.860735606438409
 20
5.95584993291622
 30
0.0
 11
5.860735606438409
 21
5.936164893546142
 31
0.0
  0
LINE
  5
37A
330
1F
100
AcDbEntity
  8
CENTERMARKS
  6
CONTINUOUS
100
AcDbLine
 10
5.411326157619511
 20
6.38301528724693
 30
0.0
 11
5.425105685178567
 21
6.38301528724693
 31
0.0
  0
LINE
  5
37B
330
1F
100
AcDbEntity
  8
CENTERMARKS
  6
CONTINUOUS
100
AcDbLine
 10
5.418215921399039
 20
6.376125523467402
 30
0.0
 11
5.418215921399039
 21
6.389905051026457
 31
0.0
  0
LINE
  5
37C
330
1F
100
AcDbEntity
  8
CENTERMARKS
  6
CENTER
100
AcDbLine
 10
5.404436393839983
 20
6.38301528724693
 30
0.0
 11
5.384751354469905
 21
6.383015287246931
 31
0.0
  0
LINE
  5
37D
330
1F
100
AcDbEntity
  8
CENTERMARKS
  6
CENTER
100
AcDbLine
 10
5.431995448958094
 20
6.38301528724693
 30
0.0
 11
5.451680488328173
 21
6.383015287246929
 31
0.0
  0
LINE
  5
37E
330
1F
100
AcDbEntity
  8
CENTERMARKS
  6
CENTER
100
AcDbLine
 10
5.418215921399039
 20
6.396794814805985
 30
0.0
 11
5.418215921399039
 21
6.416479854176064
 31
0.0
  0
LINE
  5
37F
330
1F
100
AcDbEntity
  8
CENTERMARKS
  6
CENTER
100
AcDbLine
 10
5.418215921399039
 20
6.369235759687874
 30
0.0
 11
5.418215921399039
 21
6.349550720317795
 31
0.0
  0
LINE
  5
383
330
1F
100
AcDbEntity
  8
CENTERMARKS
  6
CONTINUOUS
100
AcDbLine
 10
5.511326157619511
 20
6.38301528724693
 30
0.0
 11
5.525105685178566
 21
6.38301528724693
 31
0.0
  0
LINE
  5
384
330
1F
100
AcDbEntity
  8
CENTERMARKS
  6
CONTINUOUS
100
AcDbLine
 10
5.518215921399038
 20
6.376125523467402
 30
0.0
 11
5.518215921399038
 21
6.389905051026457
 31
0.0
  0
LINE
  5
385
330
1F
100
AcDbEntity
  8
CENTERMARKS
  6
CENTER
100
AcDbLine
 10
5.504436393839983
 20
6.38301528724693
 30
0.0
 11
5.484751354469904
 21
6.383015287246931
 31
0.0
  0
LINE
  5
386
330
1F
100
AcDbEntity
  8
CENTERMARKS
  6
CENTER
100
AcDbLine
 10
5.531995448958094
 20
6.38301528724693
 30
0.0
 11
5.551680488328173
 21
6.383015287246929
 31
0.0
  0
LINE
  5
387
330
1F
100
AcDbEntity
  8
CENTERMARKS
  6
CENTER
100
AcDbLine
 10
5.518215921399038
 20
6.396794814805985
 30
0.0
 11
5.518215921399038
 21
6.416479854176064
 31
0.0
  0
LINE
  5
388
330
1F
100
AcDbEntity
  8
CENTERMARKS
  6
CENTER
100
AcDbLine
 10
5.518215921399038
 20
6.369235759687874
 30
0.0
 11
5.518215921399038
 21
6.349550720317795
 31
0.0
  0
LINE
  5
38C
330
1F
100
AcDbEntity
  8
CENTERMARKS
  6
CONTINUOUS
100
AcDbLine
 10
6.761719858406913
 20
5.658212137640629
 30
0.0
 11
6.775499385965968
 21
5.658212137640629
 31
0.0
  0
LINE
  5
38D
330
1F
100
AcDbEntity
  8
CENTERMARKS
  6
CONTINUOUS
100
AcDbLine
 10
6.768609622186441
 20
5.651322373861102
 30
0.0
 11
6.768609622186441
 21
5.665101901420157
 31
0.0
  0
LINE
  5
38E
330
1F
100
AcDbEntity
  8
CENTERMARKS
  6
CENTER
100
AcDbLine
 10
6.754830094627385
 20
5.658212137640629
 30
0.0
 11
6.735145055257306
 21
5.658212137640628
 31
0.0
  0
LINE
  5
38F
330
1F
100
AcDbEntity
  8
CENTERMARKS
  6
CENTER
100
AcDbLine
 10
6.782389149745496
 20
5.658212137640629
 30
0.0
 11
6.802074189115575
 21
5.65821213764063
 31
0.0
  0
LINE
  5
390
330
1F
100
AcDbEntity
  8
CENTERMARKS
  6
CENTER
100
AcDbLine
 10
6.768609622186441
 20
5.671991665199685
 30
0.0
 11
6.768609622186441
 21
5.691676704569764
 31
0.0
  0
LINE
  5
391
330
1F
100
AcDbEntity
  8
CENTERMARKS
  6
CENTER
100
AcDbLine
 10
6.768609622186441
 20
5.644432610081574
 30
0.0
 11
6.768609622186441
 21
5.624747570711495
 31
0.0
  0
LINE
  5
395
330
1F
100
AcDbEntity
  8
CENTERMARKS
  6
CONTINUOUS
100
AcDbLine
 10
6.761719858406913
 20
5.758212137640629
 30
0.0
 11
6.775499385965968
 21
5.758212137640629
 31
0.0
  0
LINE
  5
396
330
1F
100
AcDbEntity
  8
CENTERMARKS
  6
CONTINUOUS
100
AcDbLine
 10
6.768609622186441
 20
5.751322373861101
 30
0.0
 11
6.768609622186441
 21
5.765101901420157
 31
0.0
  0
LINE
  5
397
330
1F
100
AcDbEntity
  8
CENTERMARKS
  6
CENTER
100
AcDbLine
 10
6.754830094627385
 20
5.758212137640629
 30
0.0
 11
6.735145055257306
 21
5.758212137640628
 31
0.0
  0
LINE
  5
398
330
1F
100
AcDbEntity
  8
CENTERMARKS
  6
CENTER
100
AcDbLine
 10
6.782389149745496
 20
5.758212137640629
 30
0.0
 11
6.802074189115575
 21
5.75821213764063
 31
0.0
  0
LINE
  5
399
330
1F
100
AcDbEntity
  8
CENTERMARKS
  6
CENTER
100
AcDbLine
 10
6.768609622186441
 20
5.771991665199685
 30
0.0
 11
6.768609622186441
 21
5.791676704569763
 31
0.0
  0
LINE
  5
39A
330
1F
100
AcDbEntity
  8
CENTERMARKS
  6
CENTER
100
AcDbLine
 10
6.768609622186441
 20
5.744432610081573
 30
0.0
 11
6.768609622186441
 21
5.724747570711495
 31
0.0
  0
LINE
  5
39E
330
1F
100
AcDbEntity
  8
CENTERMARKS
  6
CONTINUOUS
100
AcDbLine
 10
6.837015133997464
 20
6.292464106144567
 30
0.0
 11
6.868708047383291
 21
6.292464106144567
 31
0.0
  0
LINE
  5
39F
330
1F
100
AcDbEntity
  8
CENTERMARKS
  6
CONTINUOUS
100
AcDbLine
 10
6.852861590690377
 20
6.276617649451653
 30
0.0
 11
6.852861590690377
 21
6.30831056283748
 31
0.0
  0
LINE
  5
3A0
330
1F
100
AcDbEntity
  8
CENTERMARKS
  6
CENTER
100
AcDbLine
 10
6.82116867730455
 20
6.292464106144567
 30
0.0
 11
6.775893086753369
 21
6.292464106144567
 31
0.0
  0
LINE
  5
3A1
330
1F
100
AcDbEntity
  8
CENTERMARKS
  6
CENTER
100
AcDbLine
 10
6.884554504076204
 20
6.292464106144567
 30
0.0
 11
6.929830094627386
 21
6.292464106144567
 31
0.0
  0
LINE
  5
3A2
330
1F
100
AcDbEntity
  8
CENTERMARKS
  6
CENTER
100
AcDbLine
 10
6.852861590690377
 20
6.324157019530394
 30
0.0
 11
6.852861590690377
 21
6.369432610081575
 31
0.0
  0
LINE
  5
3A3
330
1F
100
AcDbEntity
  8
CENTERMARKS
  6
CENTER
100
AcDbLine
 10
6.852861590690377
 20
6.26077119275874
 30
0.0
 11
6.852861590690377
 21
6.215495602207558
 31
0.0
  0
MTEXT
  5
3A4
102
{ACAD_XDICTIONARY
360
3A5
102
}
330
1F
100
AcDbEntity
  8
ANNOTATION_TEXT
 62
     7
 60
     1
100
AcDbMText
 10
5.368609510445668
 20
2.907660681459045
 30
0.0
 40
0.12
 41
0.0
 71
     2
 72
     1
  1

  7
ONSHAPE-STANDARD-VIEW-LABE
1001
ACAD
1000
ACAD_MTEXT_DEFINED_HEIGHT_BEGIN
1070
    46
1040
0.12
1000
ACAD_MTEXT_DEFINED_HEIGHT_END
  0
DIMENSION
  5
3AB
102
{ACAD_REACTORS
330
3CC
102
}
102
{ACAD_XDICTIONARY
360
3AC
102
}
330
1F
100
AcDbEntity
  8
ANNOTATION_TEXT
100
AcDbDimension
  2
*D1
 10
2.950787074813501
 20
3.134983791183937
 30
0.0
 11
2.950787074813501
 21
4.80821213764063
 31
0.0
 70
   160
  3
ONSHAPE-STANDARD$0
100
AcDbAlignedDimension
 13
4.089082063131322
 23
6.481440484097323
 33
0.0314960629921268
 14
4.088928840268991
 24
3.134983791183937
 34
0.0314960629921259
 50
90.0
100
AcDbRotatedDimension
1001
ACAD
1000
DSTYLE
1002
{
1070
     4
1000
[]
1070
   144
1040
25.4
1070
     3
1000

1070
   288
1070
     1
1002
}
1001
ACAD_DIMASSOC_CALC_DIMLFAC
1040
-1.0
1001
ACAD_DIMASSOC_DIMLFAC
1040
-25.4
1001
ACAD_DIMASSOC_OVERRIDDEN_D
1040
0.0
  0
DIMENSION
  5
3C7
102
{ACAD_REACTORS
330
3DF
102
}
102
{ACAD_XDICTIONARY
360
3C8
102
}
330
1F
100
AcDbEntity
  8
ANNOTATION_TEXT
100
AcDbDimension
  2
*D2
 10
7.041837968643133
 20
6.867773119030119
 30
0.0
 11
5.36860962218644
 21
6.867773119030119
 31
0.0
 70
   160
  3
ONSHAPE-STANDARD$0
100
AcDbAlignedDimension
 13
3.695381275729747
 23
6.087892919558456
 33
0.0314960629921267
 14
7.041837968643133
 24
6.087739696695748
 34
0.0314960629921267
100
AcDbRotatedDimension
1001
ACAD
1000
DSTYLE
1002
{
1070
     4
1000
[]
1070
   144
1040
25.4
1070
     3
1000

1070
   288
1070
     1
1002
}
1001
ACAD_DIMASSOC_CALC_DIMLFAC
1040
-1.0
1001
ACAD_DIMASSOC_DIMLFAC
1040
-25.4
1001
ACAD_DIMASSOC_OVERRIDDEN_D
1040
0.0
  0
DIMENSION
  5
3DB
102
{ACAD_REACTORS
102
}
102
{ACAD_XDICTIONARY
360
3DC
102
}
330
1F
100
AcDbEntity
  8
ANNOTATION_TEXT
100
AcDbDimension
  2
*D3
 10
6.819606363491004
 20
6.261740028230393
 30
0.0314960629921267
 11
7.700220918623657
 21
6.665809867397551
 31
0.0
 70
   163
  3
ONSHAPE-STANDARD$3
100
AcDbDiametricDimension
 15
6.886116817889751
 25
6.323188184058741
 35
0.0314960629921267
 40
0.0
1001
ACAD
1000
DSTYLE
1002
{
1070
   287
1070
     3
1070
     4
1000
[]
1070
   144
1040
25.4
1070
   289
1070
     3
1070
   279
1070
     0
1070
   172
1070
     0
1070
     3
1000
%%c<>
1002
}
1001
ACAD_DSTYLE_DIMRADIAL_EXTE
1070
   387
1070
     1
1070
   388
1040
0.0
1070
   390
1040
6.283185307179586
1001
ACAD_DIMASSOC_CALC_DIMLFAC
1040
-1.0
1001
ACAD_DIMASSOC_DIMLFAC
1040
-25.4
1001
ACAD_DIMASSOC_OVERRIDDEN_D
1040
0.0
  0
ENDSEC
  0
SECTION
  2
OBJECTS
  0
DICTIONARY
  5
C
330
0
100
AcDbDictionary
  3
ACAD_FIELDLIST
350
16B
  3
ACAD_GROUP
350
D
  3
ACAD_LAYOUT
350
1A
  3
ACAD_MATERIAL
350
43
  3
ACAD_MLEADERSTYLE
350
6B
  3
ACAD_MLINESTYLE
350
17
  3
ACAD_PLOTSETTINGS
350
19
  3
ACAD_SCALELIST
350
47
  3
ACAD_VISUALSTYLE
350
2A
  3
ACDBHEADERROUNDTRIPXREC
350
448
  3
ACDBVARIABLEDICTIONARY
350
6E
  3
ONSHAPE_DATA
350
3EB
  0
DICTIONARY
  5
46F
330
8
100
AcDbDictionary
280
     1
  3
ACAD_XREC_ROUNDTRIP
360
470
  0
DICTIONARY
  5
104
330
103
100
AcDbDictionary
280
     1
  0
DICTIONARY
  5
10B
330
10A
100
AcDbDictionary
280
     1
  0
DICTIONARY
  5
115
330
114
100
AcDbDictionary
280
     1
  0
DICTIONARY
  5
11B
330
11A
100
AcDbDictionary
280
     1
  0
DICTIONARY
  5
135
330
134
100
AcDbDictionary
280
     1
  0
DICTIONARY
  5
13B
330
13A
100
AcDbDictionary
280
     1
  0
DICTIONARY
  5
141
330
140
100
AcDbDictionary
280
     1
  0
DICTIONARY
  5
148
330
147
100
AcDbDictionary
280
     1
  0
DICTIONARY
  5
14F
330
14E
100
AcDbDictionary
280
     1
  0
DICTIONARY
  5
156
330
155
100
AcDbDictionary
280
     1
  0
DICTIONARY
  5
15D
330
15C
100
AcDbDictionary
280
     1
  0
DICTIONARY
  5
166
330
165
100
AcDbDictionary
280
     1
  0
DICTIONARY
  5
3A5
330
3A4
100
AcDbDictionary
280
     1
  3
ONSHAPE_VIEW_ID
360
3A6
  0
DICTIONARY
  5
3AC
330
3AB
100
AcDbDictionary
280
     1
  3
ACAD_BREAKDATA
360
3B0
  3
OS_DIM_DISPLAY_FLAG_DATA
360
3AD
  0
DICTIONARY
  5
3C8
330
3C7
100
AcDbDictionary
280
     1
  3
ACAD_BREAKDATA
360
3CC
  3
OS_DIM_DISPLAY_FLAG_DATA
360
3C9
  0
DICTIONARY
  5
3DC
330
3DB
100
AcDbDictionary
280
     1
  3
ACAD_BREAKDATA
360
3DF
  3
OS_DIM_DISPLAY_FLAG_DATA
360
3DD
  0
ACAD_PROXY_OBJECT
  5
16B
102
{ACAD_REACTORS
330
C
102
}
330
C
100
AcDbProxyObject
 90
      499
 91
      509
 93
       11
310
4600
330
107
330
108
330
10E
330
10F
330
118
330
119
330
11E
330
11F
330
138
330
139
330
13E
330
13F
330
144
330
145
330
14B
330
14C
330
152
330
153
330
159
330
15A
330
160
330
161
330
169
330
16A
 94
        0
  0
DICTIONARY
  5
D
102
{ACAD_REACTORS
330
C
102
}
330
C
100
AcDbDictionary
  0
DICTIONARY
  5
1A
102
{ACAD_REACTORS
330
C
102
}
330
C
100
AcDbDictionary
  0
DICTIONARY
  5
43
102
{ACAD_REACTORS
330
C
102
}
330
C
100
AcDbDictionary
  3
BYBLOCK
350
45
  3
BYLAYER
350
44
  3
GLOBAL
350
46
  0
DICTIONARY
  5
6B
102
{ACAD_REACTORS
330
C
102
}
330
C
100
AcDbDictionary
  3
STANDARD
350
6C
  0
DICTIONARY
  5
17
102
{ACAD_REACTORS
330
C
102
}
330
C
100
AcDbDictionary
  3
STANDARD
350
18
  0
DICTIONARY
  5
19
102
{ACAD_REACTORS
330
C
102
}
330
C
100
AcDbDictionary
  0
DICTIONARY
  5
47
102
{ACAD_REACTORS
330
C
102
}
330
C
100
AcDbDictionary
  3
A0
350
48
  3
A1
350
49
  3
A2
350
4A
  3
A3
350
4B
  3
A4
350
4C
  3
A5
350
4D
  3
A6
350
4E
  3
A7
350
4F
  3
A8
350
50
  3
A9
350
51
  3
B0
350
52
  3
B1
350
53
  3
B2
350
54
  3
B3
350
55
  3
B4
350
56
  3
B5
350
57
  3
B6
350
58
  3
B7
350
59
  3
B8
350
5A
  3
B9
350
5B
  3
C0
350
5C
  3
C1
350
5D
  3
C2
350
5E
  3
C3
350
5F
  3
C4
350
60
  3
C5
350
61
  3
C6
350
62
  3
C7
350
63
  3
C8
350
64
  3
C9
350
65
  3
D0
350
66
  3
D1
350
67
  3
D2
350
68
  0
DICTIONARY
  5
2A
102
{ACAD_REACTORS
330
C
102
}
330
C
100
AcDbDictionary
  3
2DWIREFRAME
350
2F
  3
BASIC
350
32
  3
BRIGHTEN
350
36
  3
COLORCHANGE
350
3A
  3
CONCEPTUAL
350
34
  3
DIM
350
35
  3
EDGECOLOROFF
350
3D
  3
FACEPATTERN
350
39
  3
FLAT
350
2B
  3
FLATWITHEDGES
350
2C
  3
GOURAUD
350
2D
  3
GOURAUDWITHEDGES
350
2E
  3
HIDDEN
350
31
  3
JITTEROFF
350
3B
  3
LINEPATTERN
350
38
  3
OVERHANGOFF
350
3C
  3
REALISTIC
350
33
  3
SHADED
350
42
  3
SHADED_WITH_EDGES
350
41
  3
SHADES_OF_GRAY
350
3E
  3
SKETCHY
350
3F
  3
THICKEN
350
37
  3
WIREFRAME
350
30
  3
X-RAY
350
40
  0
DICTIONARY
  5
448
102
{ACAD_REACTORS
330
C
102
}
330
C
100
AcDbDictionary
  3
CEPSNID
350
452
  3
CEPSNTYPE
350
451
  3
DIMSTYLEDATA
350
468
  3
FINGERPRINTGUID
350
453
  3
HYPERLINKBASE
350
44B
  3
INSUNITS
350
450
  3
LAYOUTDICT
350
44D
  3
LWETCUNION
350
44F
  3
PLOTSETDICT
350
44E
  3
PSVPSCALE
350
455
  3
PUCSBASE
350
458
  3
PUCSORGBACK
350
45E
  3
PUCSORGBOTTOM
350
45A
  3
PUCSORGFRONT
350
45D
  3
PUCSORGLEFT
350
45B
  3
PUCSORGRIGHT
350
45C
  3
PUCSORGTOP
350
459
  3
PUCSORTHOREF
350
456
  3
PUCSORTHOVIEW
350
457
  3
STYLESHEET
350
44C
  3
TSTACKALIGN
350
449
  3
TSTACKSIZE
350
44A
  3
UCSBASE
350
461
  3
UCSORGBACK
350
467
  3
UCSORGBOTTOM
350
463
  3
UCSORGFRONT
350
466
  3
UCSORGLEFT
350
464
  3
UCSORGRIGHT
350
465
  3
UCSORGTOP
350
462
  3
UCSORTHOREF
350
45F
  3
UCSORTHOVIEW
350
460
  3
VERSIONGUID
350
454
  0
DICTIONARY
  5
6E
102
{ACAD_REACTORS
330
C
102
}
330
C
100
AcDbDictionary
  3
CANNOSCALE
350
471
  3
CMLEADERSTYLE
350
46A
  3
CTABLESTYLE
350
469
  3
DIMASSOC
350
46D
  3
HIDETEXT
350
46E
  3
MSLTSCALE
350
472
  3
OLEFRAME
350
6F
  0
DICTIONARY
  5
3EB
102
{ACAD_REACTORS
330
C
102
}
330
C
100
AcDbDictionary
280
     1
  3
DIM_UNITS
360
3EC
  3
ONSHAPE_ANG_TOL_PRECISION
360
3EF
  3
ONSHAPE_BREAK_DIMENSION_DEFAULT
360
3F5
  3
ONSHAPE_DIMENSION_TEXT_HOR
360
3F4
  3
ONSHAPE_FITCLASS_TOL_PRECISION
360
3F0
  3
ONSHAPE_JOGDIMENSION_LOCK_
360
3F2
  3
ONSHAPE_SHOWDIMENSIONSLINE
360
3F3
  3
ONSHAPE_UNDERLINEOVERRIDEN
360
3F1
  3
ONSHAPE_VSHARP_EXTENSION
360
3EE
  3
ONSHAPE_WELD_STANDARD
360
3ED
  0
XRECORD
  5
470
102
{ACAD_REACTORS
330
46F
102
}
330
46F
100
AcDbXrecord
102
VTR_0.000_0.000_1.000_1.000_VISUALSTYLE
340
2F
102
VTR_0.000_0.000_1.000_1.000_GRIDDISPLAY
 70
     3
102
VTR_0.000_0.000_1.000_1.000_GRIDMAJOR
 70
     5
102
VTR_0.000_0.000_1.000_1.000_DEFAULTLIGHTING
280
     1
102
VTR_0.000_0.000_1.000_1.000_DEFAULTLIGHTINGTYPE
 70
     1
102
VTR_0.000_0.000_1.000_1.000_BRIGHTNESS
141
0.0
102
VTR_0.000_0.000_1.000_1.000_CONTRAST
142
0.0
  0
XRECORD
  5
3A6
102
{ACAD_REACTORS
330
3A5
102
}
330
3A5
100
AcDbXrecord
330
0
  0
BREAKDATA
  5
3B0
102
{ACAD_REACTORS
330
3AC
102
}
330
3AC
100
AcDbBreakData
 70
     0
330
3AB
 90
        0
  0
XRECORD
  5
3AD
102
{ACAD_REACTORS
330
3AC
102
}
330
3AC
100
AcDbXrecord
 90
        1
 90
        0
  0
BREAKDATA
  5
3CC
102
{ACAD_REACTORS
330
3C8
102
}
330
3C8
100
AcDbBreakData
 70
     0
330
3C7
 90
        1
100
AcDbBreakPointRef
 71
     0
 72
     0
 91
       -1
 10
0.0
 20
0.0
 30
0.0
 11
0.0
 21
0.0
 31
0.0
331
3AB
 73
     5
 92
        0
  0
XRECORD
  5
3C9
102
{ACAD_REACTORS
330
3C8
102
}
330
3C8
100
AcDbXrecord
 90
        1
 90
        0
  0
BREAKDATA
  5
3DF
102
{ACAD_REACTORS
330
3DC
102
}
330
3DC
100
AcDbBreakData
 70
     0
330
3DB
 90
        1
100
AcDbBreakPointRef
 71
     0
 72
     0
 91
       -1
 10
0.0
 20
0.0
 30
0.0
 11
0.0
 21
0.0
 31
0.0
331
3C7
 73
     5
 92
        0
  0
XRECORD
  5
3DD
102
{ACAD_REACTORS
330
3DC
102
}
330
3DC
100
AcDbXrecord
 90
        1
 90
        0
  0
MATERIAL
  5
45
102
{ACAD_REACTORS
330
43
102
}
102
{ACAD_XDICTIONARY
360
475
102
}
330
43
100
AcDbMaterial
  1
BYBLOCK
  0
MATERIAL
  5
44
102
{ACAD_REACTORS
330
43
102
}
102
{ACAD_XDICTIONARY
360
473
102
}
330
43
100
AcDbMaterial
  1
BYLAYER
  0
MATERIAL
  5
46
102
{ACAD_REACTORS
330
43
102
}
102
{ACAD_XDICTIONARY
360
477
102
}
330
43
100
AcDbMaterial
  1
GLOBAL
  0
ACAD_PROXY_OBJECT
  5
6C
102
{ACAD_REACTORS
330
6B
102
}
330
6B
100
AcDbProxyObject
 90
      499
 91
      505
 93
      610
310
40901902A4063FBFFFFFE056BD1B81E855B9FC0AD7A3703D0AD73F4214DD185B99185C9900AD7A3703D0AC73F90140501A02B5E8DC0F42B1CFC02B5E8DC0F42B1CFE5764000000000000300FC0
340
14
340
0
340
11
340
0
 94
        0
1001
ACAD_MLEADERVER
1070
     2
  0
MLINESTYLE
  5
18
102
{ACAD_REACTORS
330
17
102
}
330
17
100
AcDbMlineStyle
  2
Standard
 70
     0
  3

 62
   256
 51
90.0
 52
90.0
 71
     2
 49
0.5
 62
   256
  6
BYLAYER
 49
-0.5
 62
   256
  6
BYLAYER
  0
ACAD_PROXY_OBJECT
  5
48
102
{ACAD_REACTORS
330
47
102
}
330
47
100
AcDbProxyObject
 90
      499
 91
      503
 93
       41
310
903313A31580
  0
ACAD_PROXY_OBJECT
  5
49
102
{ACAD_REACTORS
330
47
102
}
330
47
100
AcDbProxyObject
 90
      499
 91
      503
 93
      105
310
903313A324000000000000004000
  0
ACAD_PROXY_OBJECT
  5
4A
102
{ACAD_REACTORS
330
47
102
}
330
47
100
AcDbProxyObject
 90
      499
 91
      503
 93
      105
310
903313A344000000000000104000
  0
ACAD_PROXY_OBJECT
  5
4B
102
{ACAD_REACTORS
330
47
102
}
330
47
100
AcDbProxyObject
 90
      499
 91
      503
 93
      105
310
903313A354000000000000144000
  0
ACAD_PROXY_OBJECT
  5
4C
102
{ACAD_REACTORS
330
47
102
}
330
47
100
AcDbProxyObject
 90
      499
 91
      503
 93
      105
310
903313A384000000000000204000
  0
ACAD_PROXY_OBJECT
  5
4D
102
{ACAD_REACTORS
330
47
102
}
330
47
100
AcDbProxyObject
 90
      499
 91
      503
 93
      113
310
904313A31304000000000000244000
  0
ACAD_PROXY_OBJECT
  5
4E
102
{ACAD_REACTORS
330
47
102
}
330
47
100
AcDbProxyObject
 90
      499
 91
      503
 93
      113
310
904313A31364000000000000304000
  0
ACAD_PROXY_OBJECT
  5
4F
102
{ACAD_REACTORS
330
47
102
}
330
47
100
AcDbProxyObject
 90
      499
 91
      503
 93
      113
310
904313A32304000000000000344000
  0
ACAD_PROXY_OBJECT
  5
50
102
{ACAD_REACTORS
330
47
102
}
330
47
100
AcDbProxyObject
 90
      499
 91
      503
 93
      113
310
904313A333040000000000003E4000
  0
ACAD_PROXY_OBJECT
  5
51
102
{ACAD_REACTORS
330
47
102
}
330
47
100
AcDbProxyObject
 90
      499
 91
      503
 93
      113
310
904313A34304000000000000444000
  0
ACAD_PROXY_OBJECT
  5
52
102
{ACAD_REACTORS
330
47
102
}
330
47
100
AcDbProxyObject
 90
      499
 91
      503
 93
      113
310
904313A35304000000000000494000
  0
ACAD_PROXY_OBJECT
  5
53
102
{ACAD_REACTORS
330
47
102
}
330
47
100
AcDbProxyObject
 90
      499
 91
      503
 93
      121
310
905313A3130304000000000000594000
  0
ACAD_PROXY_OBJECT
  5
54
102
{ACAD_REACTORS
330
47
102
}
330
47
100
AcDbProxyObject
 90
      499
 91
      503
 93
      105
310
903323A310000000000000010100
  0
ACAD_PROXY_OBJECT
  5
55
102
{ACAD_REACTORS
330
47
102
}
330
47
100
AcDbProxyObject
 90
      499
 91
      503
 93
      105
310
903343A310000000000000410100
  0
ACAD_PROXY_OBJECT
  5
56
102
{ACAD_REACTORS
330
47
102
}
330
47
100
AcDbProxyObject
 90
      499
 91
      503
 93
      105
310
903383A310000000000000810100
  0
ACAD_PROXY_OBJECT
  5
57
102
{ACAD_REACTORS
330
47
102
}
330
47
100
AcDbProxyObject
 90
      499
 91
      503
 93
      113
310
90431303A310000000000000910100
  0
ACAD_PROXY_OBJECT
  5
58
102
{ACAD_REACTORS
330
47
102
}
330
47
100
AcDbProxyObject
 90
      499
 91
      503
 93
      121
310
9053130303A310000000000001650100
  0
ACAD_PROXY_OBJECT
  5
59
102
{ACAD_REACTORS
330
47
102
}
330
47
100
AcDbProxyObject
 90
      499
 91
      503
 93
      257
310
90E312F31323822203D2031272D3022000000000000200FC000000000000284000
  0
ACAD_PROXY_OBJECT
  5
5A
102
{ACAD_REACTORS
330
47
102
}
330
47
100
AcDbProxyObject
 90
      499
 91
      503
 93
      249
310
90D312F363422203D2031272D3022000000000000240FC000000000000284000
  0
ACAD_PROXY_OBJECT
  5
5B
102
{ACAD_REACTORS
330
47
102
}
330
47
100
AcDbProxyObject
 90
      499
 91
      503
 93
      249
310
90D312F333222203D2031272D3022000000000000280FC000000000000284000
  0
ACAD_PROXY_OBJECT
  5
5C
102
{ACAD_REACTORS
330
47
102
}
330
47
100
AcDbProxyObject
 90
      499
 91
      503
 93
      249
310
90D312F313622203D2031272D30220000000000002C0FC000000000000284000
  0
ACAD_PROXY_OBJECT
  5
5D
102
{ACAD_REACTORS
330
47
102
}
330
47
100
AcDbProxyObject
 90
      499
 91
      503
 93
      249
310
90D332F333222203D2031272D30220000000000002E0FC000000000000284000
  0
ACAD_PROXY_OBJECT
  5
5E
102
{ACAD_REACTORS
330
47
102
}
330
47
100
AcDbProxyObject
 90
      499
 91
      503
 93
      241
310
90C312F3822203D2031272D3022000000000000300FC000000000000284000
  0
ACAD_PROXY_OBJECT
  5
5F
102
{ACAD_REACTORS
330
47
102
}
330
47
100
AcDbProxyObject
 90
      499
 91
      503
 93
      249
310
90D332F313622203D2031272D3022000000000000320FC000000000000284000
  0
ACAD_PROXY_OBJECT
  5
60
102
{ACAD_REACTORS
330
47
102
}
330
47
100
AcDbProxyObject
 90
      499
 91
      503
 93
      241
310
90C312F3422203D2031272D3022000000000000340FC000000000000284000
  0
ACAD_PROXY_OBJECT
  5
61
102
{ACAD_REACTORS
330
47
102
}
330
47
100
AcDbProxyObject
 90
      499
 91
      503
 93
      241
310
90C332F3822203D2031272D3022000000000000360FC000000000000284000
  0
ACAD_PROXY_OBJECT
  5
62
102
{ACAD_REACTORS
330
47
102
}
330
47
100
AcDbProxyObject
 90
      499
 91
      503
 93
      241
310
90C312F3222203D2031272D3022000000000000380FC000000000000284000
  0
ACAD_PROXY_OBJECT
  5
63
102
{ACAD_REACTORS
330
47
102
}
330
47
100
AcDbProxyObject
 90
      499
 91
      503
 93
      241
310
90C332F3422203D2031272D30220000000000003A0FC000000000000284000
  0
ACAD_PROXY_OBJECT
  5
64
102
{ACAD_REACTORS
330
47
102
}
330
47
100
AcDbProxyObject
 90
      499
 91
      503
 93
      161
310
90A3122203D2031272D30224000000000000284000
  0
ACAD_PROXY_OBJECT
  5
65
102
{ACAD_REACTORS
330
47
102
}
330
47
100
AcDbProxyObject
 90
      499
 91
      503
 93
      257
310
90E312D312F3222203D2031272D30220000000000003E0FC000000000000284000
  0
ACAD_PROXY_OBJECT
  5
66
102
{ACAD_REACTORS
330
47
102
}
330
47
100
AcDbProxyObject
 90
      499
 91
      503
 93
      225
310
90A3322203D2031272D302200000000000002100000000000000284000
  0
ACAD_PROXY_OBJECT
  5
67
102
{ACAD_REACTORS
330
47
102
}
330
47
100
AcDbProxyObject
 90
      499
 91
      503
 93
      225
310
90A3622203D2031272D302200000000000006100000000000000284000
  0
ACAD_PROXY_OBJECT
  5
68
102
{ACAD_REACTORS
330
47
102
}
330
47
100
AcDbProxyObject
 90
      499
 91
      503
 93
      249
310
90D31272D3022203D2031272D30220000000000000A100000000000000284000
  0
ACAD_PROXY_OBJECT
  5
2F
102
{ACAD_REACTORS
330
2A
102
}
330
2A
100
AcDbProxyObject
 90
      499
 91
      501
 93
      436
310
42CC9915DA5C99599C985B595049028333333333333E33F0000000000000F90107901411070040501600405405064090741402480A0340
1001
ACAD
1000
AcDbSavedByObjectVersion
1070
     0
  0
ACAD_PROXY_OBJECT
  5
32
102
{ACAD_REACTORS
330
2A
102
}
330
2A
100
AcDbProxyObject
 90
      499
 91
      501
 93
      388
310
4150985CDA58D07406404333333333333E33F0000000000000F90107A41107004050150841D405064090741402480A0350
1001
ACAD
1000
AcDbSavedByObjectVersion
1070
     0
  0
ACAD_PROXY_OBJECT
  5
36
102
{ACAD_REACTORS
330
2A
102
}
330
2A
100
AcDbProxyObject
 90
      499
 91
      501
 93
      428
310
42109C9A59DA1D195B90C409028333333333333E33F0000000000000F9010790141107004050150841D405064090741402480A029950
1001
ACAD
1000
AcDbSavedByObjectVersion
1070
     0
  0
ACAD_PROXY_OBJECT
  5
3A
102
{ACAD_REACTORS
330
2A
102
}
330
2A
100
AcDbProxyObject
 90
      499
 91
      501
 93
      452
310
42D0DBDB1BDC90DA185B99D95104090240C333333333333E33F0000000000000F90108901411070040501508421405064090741402480A0350
1001
ACAD
1000
AcDbSavedByObjectVersion
1070
     0
  0
ACAD_PROXY_OBJECT
  5
34
102
{ACAD_REACTORS
330
2A
102
}
330
2A
100
AcDbProxyObject
 90
      499
 91
      501
 93
      500
310
4290DBDB98D95C1D1D585B10940D028333333333333E33F0000000000000F90107902409070040501000000000018199010841D405064090740C02480A0340
1001
ACAD
1000
AcDbSavedByObjectVersion
1070
     0
  0
ACAD_PROXY_OBJECT
  5
35
102
{ACAD_REACTORS
330
2A
102
}
330
2A
100
AcDbProxyObject
 90
      499
 91
      501
 93
      412
310
40D11A5B50B409028333333333333E33F0000000000000F9010790141107004050150841D405064090741402480A02677FFFFFD0
1001
ACAD
1000
AcDbSavedByObjectVersion
1070
     0
  0
ACAD_PROXY_OBJECT
  5
3D
102
{ACAD_REACTORS
330
2A
102
}
330
2A
100
AcDbProxyObject
 90
      499
 91
      501
 93
      452
310
43115919D950DBDB1BDC93D999916409028333333333333E33F0000000000000F9010790141107004050150841D405064090741402480A0350
1001
ACAD
1000
AcDbSavedByObjectVersion
1070
     0
  0
ACAD_PROXY_OBJECT
  5
39
102
{ACAD_REACTORS
330
2A
102
}
330
2A
100
AcDbProxyObject
 90
      499
 91
      501
 93
      444
310
42D19858D95C185D1D195C9B90F409028333333333333E33F0000000000000F9010790141107004050150841D405064090741402480A0350
1001
ACAD
1000
AcDbSavedByObjectVersion
1070
     0
  0
ACAD_PROXY_OBJECT
  5
2B
102
{ACAD_REACTORS
330
2A
102
}
330
2A
100
AcDbProxyObject
 90
      499
 91
      501
 93
      380
310
41119B185D240901404333333333333E33F0000000000000F9010740A907004050150841D405064090741402480A1B50
1001
ACAD
1000
AcDbSavedByObjectVersion
1070
     0
  0
ACAD_PROXY_OBJECT
  5
2C
102
{ACAD_REACTORS
330
2A
102
}
330
2A
100
AcDbProxyObject
 90
      499
 91
      501
 93
      468
310
43519B185D15DA5D1A115919D95CD0140901404333333333333E33F0000000000000F90107409019070040501600405405064090741402480A1B50
1001
ACAD
1000
AcDbSavedByObjectVersion
1070
     0
  0
ACAD_PROXY_OBJECT
  5
2D
102
{ACAD_REACTORS
330
2A
102
}
330
2A
100
AcDbProxyObject
 90
      499
 91
      501
 93
      404
310
41D1DBDD5C985D5910240902404333333333333E33F0000000000000F9010740A9070040501641D405064090741402480A1B50
1001
ACAD
1000
AcDbSavedByObjectVersion
1070
     0
  0
ACAD_PROXY_OBJECT
  5
2E
102
{ACAD_REACTORS
330
2A
102
}
330
2A
100
AcDbProxyObject
 90
      499
 91
      501
 93
      492
310
4411DBDD5C985D5915DA5D1A115919D95CD0340902404333333333333E33F0000000000000F90107409019070040501600405405064090741402480A1B50
1001
ACAD
1000
AcDbSavedByObjectVersion
1070
     0
  0
ACAD_PROXY_OBJECT
  5
31
102
{ACAD_REACTORS
330
2A
102
}
330
2A
100
AcDbProxyObject
 90
      499
 91
      501
 93
      476
310
41921A5919195B90640502408333333333333E33F0000000000000F901079024090700405020000000000001110200405405064090740C02480A0340
1001
ACAD
1000
AcDbSavedByObjectVersion
1070
     0
  0
ACAD_PROXY_OBJECT
  5
3B
102
{ACAD_REACTORS
330
2A
102
}
330
2A
100
AcDbProxyObject
 90
      499
 91
      501
 93
      428
310
42529A5D1D195C93D999914409028333333333333E33F0000000000000F9010790141107004050150A41D405064090741402480A0350
1001
ACAD
1000
AcDbSavedByObjectVersion
1070
     0
  0
ACAD_PROXY_OBJECT
  5
38
102
{ACAD_REACTORS
330
2A
102
}
330
2A
100
AcDbProxyObject
 90
      499
 91
      501
 93
      444
310
42D31A5B995C185D1D195C9B90E409028333333333333E33F0000000000000F9010790141107004050750841D405064090741402483A0350
1001
ACAD
1000
AcDbSavedByObjectVersion
1070
     0
  0
ACAD_PROXY_OBJECT
  5
3C
102
{ACAD_REACTORS
330
2A
102
}
330
2A
100
AcDbProxyObject
 90
      499
 91
      501
 93
      444
310
42D3DD995C9A185B99D3D999915409028333333333333E33F0000000000000F9010790141107004050150941D405064090741402480A0350
1001
ACAD
1000
AcDbSavedByObjectVersion
1070
     0
  0
ACAD_PROXY_OBJECT
  5
33
102
{ACAD_REACTORS
330
2A
102
}
330
2A
100
AcDbProxyObject
 90
      499
 91
      501
 93
      428
310
425499585B1A5CDD1A58D08409038333333333333E33F0000000000000F9010740A907004050150800405405064090740C02480A1B40
1001
ACAD
1000
AcDbSavedByObjectVersion
1070
     0
  0
ACAD_PROXY_OBJECT
  5
42
102
{ACAD_REACTORS
330
2A
102
}
330
2A
100
AcDbProxyObject
 90
      499
 91
      501
 93
      420
310
4194DA1859195911B40902404333333333333E33F0000000000000F9010740A41107004050150800405405064090840C02480A0B40
1001
ACAD
1000
AcDbSavedByObjectVersion
1070
     0
  0
ACAD_PROXY_OBJECT
  5
41
102
{ACAD_REACTORS
330
2A
102
}
330
2A
100
AcDbProxyObject
 90
      499
 91
      501
 93
      516
310
4454DA18591959081DDA5D1A08195919D95CD1A40902404333333333333E33F0000000000000F901074090142907004050250800405405064090740C02480A0B40
1001
ACAD
1000
AcDbSavedByObjectVersion
1070
     0
  0
ACAD_PROXY_OBJECT
  5
3E
102
{ACAD_REACTORS
330
2A
102
}
330
2A
100
AcDbProxyObject
 90
      499
 91
      501
 93
      532
310
4394DA1859195CC81BD98811DC985E5174090240C333333333333E33F0000000000000F901079024090741D01000000000000111010841D405064090740C02480A0340
1001
ACAD
1000
AcDbSavedByObjectVersion
1070
     0
  0
ACAD_PROXY_OBJECT
  5
3F
102
{ACAD_REACTORS
330
2A
102
}
330
2A
100
AcDbProxyObject
 90
      499
 91
      501
 93
      476
310
41D4DAD95D18DA1E51840502408333333333333E33F0000000000000F901079024090741D01000000000000111010B41D405064090741802480A0340
1001
ACAD
1000
AcDbSavedByObjectVersion
1070
     0
  0
ACAD_PROXY_OBJECT
  5
37
102
{ACAD_REACTORS
330
2A
102
}
330
2A
100
AcDbProxyObject
 90
      499
 91
      501
 93
      412
310
41D51A1A58DAD95B90D409028333333333333E33F0000000000000F9010790141107004050150C41D405064090741402480A0350
1001
ACAD
1000
AcDbSavedByObjectVersion
1070
     0
  0
ACAD_PROXY_OBJECT
  5
30
102
{ACAD_REACTORS
330
2A
102
}
330
2A
100
AcDbProxyObject
 90
      499
 91
      501
 93
      420
310
4255DA5C99599C985B595059028333333333333E33F0000000000000F90107901411070040501600405405064090740C02480A0340
1001
ACAD
1000
AcDbSavedByObjectVersion
1070
     0
  0
ACAD_PROXY_OBJECT
  5
40
102
{ACAD_REACTORS
330
2A
102
}
330
2A
100
AcDbProxyObject
 90
      499
 91
      501
 93
      404
310
41560B54985E51940902404000000000000E03F0000000000000F9010740501907004050150841D405064090740C02480A1B40
1001
ACAD
1000
AcDbSavedByObjectVersion
1070
     0
  0
XRECORD
  5
452
102
{ACAD_REACTORS
330
448
102
}
330
448
100
AcDbXrecord
340
0
  0
XRECORD
  5
451
102
{ACAD_REACTORS
330
448
102
}
330
448
100
AcDbXrecord
 90
        0
  0
XRECORD
  5
468
102
{ACAD_REACTORS
330
448
102
}
330
448
100
AcDbXrecord
1000
DSTYLE
1002
{
1070
   179
 70
     1
1070
   171
 70
     3
1070
   143
 40
0.0393700787401575
1070
   274
 70
     3
1070
   285
 70
    11
1070
   176
 70
     7
1070
   177
 70
     7
1070
   178
 70
     7
1070
   271
 70
     2
1070
    44
 40
0.08
1070
   144
 40
25.4
1070
   371
 70
    13
1070
   372
 70
    13
1070
   272
 70
     2
1070
   340
340
73
1070
   140
 40
0.12
1070
   284
 70
    11
1070
   288
 70
     1
1070
    78
 70
    11
1070
    90
 70
     1
1002
}
  0
XRECORD
  5
453
102
{ACAD_REACTORS
330
448
102
}
330
448
100
AcDbXrecord
  1
{73777978-6261-7476-b576-7435e57566f5}
  0
XRECORD
  5
44B
102
{ACAD_REACTORS
330
448
102
}
330
448
100
AcDbXrecord
  1

  0
XRECORD
  5
450
102
{ACAD_REACTORS
330
448
102
}
330
448
100
AcDbXrecord
 90
        0
  0
XRECORD
  5
44D
102
{ACAD_REACTORS
330
448
102
}
330
448
100
AcDbXrecord
340
1A
  0
XRECORD
  5
44F
102
{ACAD_REACTORS
330
448
102
}
330
448
100
AcDbXrecord
 90
    10269
  0
XRECORD
  5
44E
102
{ACAD_REACTORS
330
448
102
}
330
448
100
AcDbXrecord
340
19
  0
XRECORD
  5
455
102
{ACAD_REACTORS
330
448
102
}
330
448
100
AcDbXrecord
 40
0.0
  0
XRECORD
  5
458
102
{ACAD_REACTORS
330
448
102
}
330
448
100
AcDbXrecord
340
0
  0
XRECORD
  5
45E
102
{ACAD_REACTORS
330
448
102
}
330
448
100
AcDbXrecord
 10
0.0
 20
0.0
 30
0.0
  0
XRECORD
  5
45A
102
{ACAD_REACTORS
330
448
102
}
330
448
100
AcDbXrecord
 10
0.0
 20
0.0
 30
0.0
  0
XRECORD
  5
45D
102
{ACAD_REACTORS
330
448
102
}
330
448
100
AcDbXrecord
 10
0.0
 20
0.0
 30
0.0
  0
XRECORD
  5
45B
102
{ACAD_REACTORS
330
448
102
}
330
448
100
AcDbXrecord
 10
0.0
 20
0.0
 30
0.0
  0
XRECORD
  5
45C
102
{ACAD_REACTORS
330
448
102
}
330
448
100
AcDbXrecord
 10
0.0
 20
0.0
 30
0.0
  0
XRECORD
  5
459
102
{ACAD_REACTORS
330
448
102
}
330
448
100
AcDbXrecord
 10
0.0
 20
0.0
 30
0.0
  0
XRECORD
  5
456
102
{ACAD_REACTORS
330
448
102
}
330
448
100
AcDbXrecord
340
0
  0
XRECORD
  5
457
102
{ACAD_REACTORS
330
448
102
}
330
448
100
AcDbXrecord
 70
     0
  0
XRECORD
  5
44C
102
{ACAD_REACTORS
330
448
102
}
330
448
100
AcDbXrecord
  1

  0
XRECORD
  5
449
102
{ACAD_REACTORS
330
448
102
}
330
448
100
AcDbXrecord
 90
        1
  0
XRECORD
  5
44A
102
{ACAD_REACTORS
330
448
102
}
330
448
100
AcDbXrecord
 90
       70
  0
XRECORD
  5
461
102
{ACAD_REACTORS
330
448
102
}
330
448
100
AcDbXrecord
340
0
  0
XRECORD
  5
467
102
{ACAD_REACTORS
330
448
102
}
330
448
100
AcDbXrecord
 10
0.0
 20
0.0
 30
0.0
  0
XRECORD
  5
463
102
{ACAD_REACTORS
330
448
102
}
330
448
100
AcDbXrecord
 10
0.0
 20
0.0
 30
0.0
  0
XRECORD
  5
466
102
{ACAD_REACTORS
330
448
102
}
330
448
100
AcDbXrecord
 10
0.0
 20
0.0
 30
0.0
  0
XRECORD
  5
464
102
{ACAD_REACTORS
330
448
102
}
330
448
100
AcDbXrecord
 10
0.0
 20
0.0
 30
0.0
  0
XRECORD
  5
465
102
{ACAD_REACTORS
330
448
102
}
330
448
100
AcDbXrecord
 10
0.0
 20
0.0
 30
0.0
  0
XRECORD
  5
462
102
{ACAD_REACTORS
330
448
102
}
330
448
100
AcDbXrecord
 10
0.0
 20
0.0
 30
0.0
  0
XRECORD
  5
45F
102
{ACAD_REACTORS
330
448
102
}
330
448
100
AcDbXrecord
340
0
  0
XRECORD
  5
460
102
{ACAD_REACTORS
330
448
102
}
330
448
100
AcDbXrecord
 70
     0
  0
XRECORD
  5
454
102
{ACAD_REACTORS
330
448
102
}
330
448
100
AcDbXrecord
  1
{FAEB1C32-E019-11D5-929B-00C0DF256EC4}
  0
DICTIONARYVAR
  5
471
102
{ACAD_REACTORS
330
6E
102
}
330
6E
100
DictionaryVariables
280
     0
  1
1:1
  0
DICTIONARYVAR
  5
46A
102
{ACAD_REACTORS
330
6E
102
}
330
6E
100
DictionaryVariables
280
     0
  1
Standard
  0
DICTIONARYVAR
  5
469
102
{ACAD_REACTORS
330
6E
102
}
330
6E
100
DictionaryVariables
280
     0
  1
Onshape-Standard
  0
DICTIONARYVAR
  5
46D
102
{ACAD_REACTORS
330
6E
102
}
330
6E
100
DictionaryVariables
280
     0
  1
2
  0
DICTIONARYVAR
  5
46E
102
{ACAD_REACTORS
330
6E
102
}
330
6E
100
DictionaryVariables
280
     0
  1
1
  0
DICTIONARYVAR
  5
472
102
{ACAD_REACTORS
330
6E
102
}
330
6E
100
DictionaryVariables
280
     0
  1
1
  0
DICTIONARYVAR
  5
6F
102
{ACAD_REACTORS
330
6E
102
}
330
6E
100
DictionaryVariables
280
     0
  1
0
  0
XRECORD
  5
3EC
102
{ACAD_REACTORS
330
3EB
102
}
330
3EB
100
AcDbXrecord
 70
     0
  0
XRECORD
  5
3EF
102
{ACAD_REACTORS
330
3EB
102
}
330
3EB
100
AcDbXrecord
 90
        0
  0
ACAD_PROXY_OBJECT
  5
3F5
102
{ACAD_REACTORS
330
3EB
102
}
330
3EB
100
AcDbProxyObject
 90
      499
 91
      512
 93
       34
310
40C8804040
  0
XRECORD
  5
3F4
102
{ACAD_REACTORS
330
3EB
102
}
330
3EB
100
AcDbXrecord
 90
        5
  0
XRECORD
  5
3F0
102
{ACAD_REACTORS
330
3EB
102
}
330
3EB
100
AcDbXrecord
 90
        4
  0
XRECORD
  5
3F2
102
{ACAD_REACTORS
330
3EB
102
}
330
3EB
100
AcDbXrecord
 90
        0
  0
ACAD_PROXY_OBJECT
  5
3F3
102
{ACAD_REACTORS
330
3EB
102
}
330
3EB
100
AcDbProxyObject
 90
      499
 91
      512
 93
       34
310
40C8804000
  0
ACAD_PROXY_OBJECT
  5
3F1
102
{ACAD_REACTORS
330
3EB
102
}
330
3EB
100
AcDbProxyObject
 90
      499
 91
      512
 93
       34
310
40C8804040
  0
XRECORD
  5
3EE
102
{ACAD_REACTORS
330
3EB
102
}
330
3EB
100
AcDbXrecord
 90
        0
  0
XRECORD
  5
3ED
102
{ACAD_REACTORS
330
3EB
102
}
330
3EB
100
AcDbXrecord
 90
        0
  0
DICTIONARY
  5
475
330
45
100
AcDbDictionary
280
     1
  3
ACAD_XREC_ROUNDTRIP
360
476
  0
DICTIONARY
  5
473
330
44
100
AcDbDictionary
280
     1
  3
ACAD_XREC_ROUNDTRIP
360
474
  0
DICTIONARY
  5
477
330
46
100
AcDbDictionary
280
     1
  3
ACAD_XREC_ROUNDTRIP
360
478
  0
XRECORD
  5
476
102
{ACAD_REACTORS
330
475
102
}
330
475
100
AcDbXrecord
102
MATERIAL
148
0.0
149
0.0
149
0.0
 93
        0
 94
      127
282
     0
 72
     1
 77
     1
171
     1
175
     1
179
     1
273
     0
  0
XRECORD
  5
474
102
{ACAD_REACTORS
330
473
102
}
330
473
100
AcDbXrecord
102
MATERIAL
148
0.0
149
0.0
149
0.0
 93
        0
 94
      127
282
     0
 72
     1
 77
     1
171
     1
175
     1
179
     1
273
     0
  0
XRECORD
  5
478
102
{ACAD_REACTORS
330
477
102
}
330
477
100
AcDbXrecord
102
MATERIAL
148
0.0
149
0.0
149
0.0
 93
        0
 94
      127
282
     0
 72
     1
 77
     1
171
     1
175
     1
179
     1
273
     0
  0
ENDSEC
  0
EOF
