G04 #@! TF.GenerationSoftware,KiCad,Pcbnew,(5.1.2-1)-1*
G04 #@! TF.CreationDate,2019-08-09T18:15:57-05:00*
G04 #@! TF.ProjectId,Interactive Core Memory Badge v0.1,496e7465-7261-4637-9469-766520436f72,0.1*
G04 #@! TF.SameCoordinates,Original*
G04 #@! TF.FileFunction,Legend,Bot*
G04 #@! TF.FilePolarity,Positive*
%FSLAX46Y46*%
G04 Gerber Fmt 4.6, Leading zero omitted, Abs format (unit mm)*
G04 Created by KiCad (PCBNEW (5.1.2-1)-1) date 2019-08-09 18:15:57*
%MOMM*%
%LPD*%
G04 APERTURE LIST*
%ADD10C,0.381000*%
%ADD11C,1.524000*%
%ADD12C,0.635000*%
G04 APERTURE END LIST*
D10*
X110716785Y-191361785D02*
X110353928Y-192631785D01*
X109991071Y-191724642D01*
X109628214Y-192631785D01*
X109265357Y-191361785D01*
X108721071Y-191361785D02*
X108358214Y-192631785D01*
X107995357Y-191724642D01*
X107632500Y-192631785D01*
X107269642Y-191361785D01*
X106725357Y-191361785D02*
X106362500Y-192631785D01*
X105999642Y-191724642D01*
X105636785Y-192631785D01*
X105273928Y-191361785D01*
X104548214Y-192450357D02*
X104457500Y-192541071D01*
X104548214Y-192631785D01*
X104638928Y-192541071D01*
X104548214Y-192450357D01*
X104548214Y-192631785D01*
X103641071Y-192631785D02*
X103641071Y-190726785D01*
X103006071Y-192087500D01*
X102371071Y-190726785D01*
X102371071Y-192631785D01*
X100647500Y-192631785D02*
X100647500Y-191633928D01*
X100738214Y-191452500D01*
X100919642Y-191361785D01*
X101282500Y-191361785D01*
X101463928Y-191452500D01*
X100647500Y-192541071D02*
X100828928Y-192631785D01*
X101282500Y-192631785D01*
X101463928Y-192541071D01*
X101554642Y-192359642D01*
X101554642Y-192178214D01*
X101463928Y-191996785D01*
X101282500Y-191906071D01*
X100828928Y-191906071D01*
X100647500Y-191815357D01*
X98923928Y-192541071D02*
X99105357Y-192631785D01*
X99468214Y-192631785D01*
X99649642Y-192541071D01*
X99740357Y-192450357D01*
X99831071Y-192268928D01*
X99831071Y-191724642D01*
X99740357Y-191543214D01*
X99649642Y-191452500D01*
X99468214Y-191361785D01*
X99105357Y-191361785D01*
X98923928Y-191452500D01*
X98107500Y-192631785D02*
X98107500Y-190726785D01*
X97291071Y-192631785D02*
X97291071Y-191633928D01*
X97381785Y-191452500D01*
X97563214Y-191361785D01*
X97835357Y-191361785D01*
X98016785Y-191452500D01*
X98107500Y-191543214D01*
X96383928Y-192631785D02*
X96383928Y-191361785D01*
X96383928Y-190726785D02*
X96474642Y-190817500D01*
X96383928Y-190908214D01*
X96293214Y-190817500D01*
X96383928Y-190726785D01*
X96383928Y-190908214D01*
X95476785Y-191361785D02*
X95476785Y-192631785D01*
X95476785Y-191543214D02*
X95386071Y-191452500D01*
X95204642Y-191361785D01*
X94932500Y-191361785D01*
X94751071Y-191452500D01*
X94660357Y-191633928D01*
X94660357Y-192631785D01*
X93027500Y-192541071D02*
X93208928Y-192631785D01*
X93571785Y-192631785D01*
X93753214Y-192541071D01*
X93843928Y-192359642D01*
X93843928Y-191633928D01*
X93753214Y-191452500D01*
X93571785Y-191361785D01*
X93208928Y-191361785D01*
X93027500Y-191452500D01*
X92936785Y-191633928D01*
X92936785Y-191815357D01*
X93843928Y-191996785D01*
X92120357Y-192631785D02*
X92120357Y-190726785D01*
X90396785Y-192631785D02*
X90396785Y-190726785D01*
X90396785Y-192541071D02*
X90578214Y-192631785D01*
X90941071Y-192631785D01*
X91122500Y-192541071D01*
X91213214Y-192450357D01*
X91303928Y-192268928D01*
X91303928Y-191724642D01*
X91213214Y-191543214D01*
X91122500Y-191452500D01*
X90941071Y-191361785D01*
X90578214Y-191361785D01*
X90396785Y-191452500D01*
X88763928Y-192541071D02*
X88945357Y-192631785D01*
X89308214Y-192631785D01*
X89489642Y-192541071D01*
X89580357Y-192359642D01*
X89580357Y-191633928D01*
X89489642Y-191452500D01*
X89308214Y-191361785D01*
X88945357Y-191361785D01*
X88763928Y-191452500D01*
X88673214Y-191633928D01*
X88673214Y-191815357D01*
X89580357Y-191996785D01*
X87040357Y-192631785D02*
X87040357Y-191633928D01*
X87131071Y-191452500D01*
X87312500Y-191361785D01*
X87675357Y-191361785D01*
X87856785Y-191452500D01*
X87040357Y-192541071D02*
X87221785Y-192631785D01*
X87675357Y-192631785D01*
X87856785Y-192541071D01*
X87947500Y-192359642D01*
X87947500Y-192178214D01*
X87856785Y-191996785D01*
X87675357Y-191906071D01*
X87221785Y-191906071D01*
X87040357Y-191815357D01*
X86223928Y-192541071D02*
X86042500Y-192631785D01*
X85679642Y-192631785D01*
X85498214Y-192541071D01*
X85407500Y-192359642D01*
X85407500Y-192268928D01*
X85498214Y-192087500D01*
X85679642Y-191996785D01*
X85951785Y-191996785D01*
X86133214Y-191906071D01*
X86223928Y-191724642D01*
X86223928Y-191633928D01*
X86133214Y-191452500D01*
X85951785Y-191361785D01*
X85679642Y-191361785D01*
X85498214Y-191452500D01*
X84591071Y-192450357D02*
X84500357Y-192541071D01*
X84591071Y-192631785D01*
X84681785Y-192541071D01*
X84591071Y-192450357D01*
X84591071Y-192631785D01*
X82867500Y-192541071D02*
X83048928Y-192631785D01*
X83411785Y-192631785D01*
X83593214Y-192541071D01*
X83683928Y-192450357D01*
X83774642Y-192268928D01*
X83774642Y-191724642D01*
X83683928Y-191543214D01*
X83593214Y-191452500D01*
X83411785Y-191361785D01*
X83048928Y-191361785D01*
X82867500Y-191452500D01*
X81778928Y-192631785D02*
X81960357Y-192541071D01*
X82051071Y-192450357D01*
X82141785Y-192268928D01*
X82141785Y-191724642D01*
X82051071Y-191543214D01*
X81960357Y-191452500D01*
X81778928Y-191361785D01*
X81506785Y-191361785D01*
X81325357Y-191452500D01*
X81234642Y-191543214D01*
X81143928Y-191724642D01*
X81143928Y-192268928D01*
X81234642Y-192450357D01*
X81325357Y-192541071D01*
X81506785Y-192631785D01*
X81778928Y-192631785D01*
X80327500Y-192631785D02*
X80327500Y-191361785D01*
X80327500Y-191543214D02*
X80236785Y-191452500D01*
X80055357Y-191361785D01*
X79783214Y-191361785D01*
X79601785Y-191452500D01*
X79511071Y-191633928D01*
X79511071Y-192631785D01*
X79511071Y-191633928D02*
X79420357Y-191452500D01*
X79238928Y-191361785D01*
X78966785Y-191361785D01*
X78785357Y-191452500D01*
X78694642Y-191633928D01*
X78694642Y-192631785D01*
X124641428Y-32988250D02*
X123734285Y-32988250D01*
X124822857Y-33532535D02*
X124187857Y-31627535D01*
X123552857Y-33532535D01*
X122917857Y-32262535D02*
X122917857Y-33532535D01*
X122917857Y-32443964D02*
X122827142Y-32353250D01*
X122645714Y-32262535D01*
X122373571Y-32262535D01*
X122192142Y-32353250D01*
X122101428Y-32534678D01*
X122101428Y-33532535D01*
X120377857Y-33532535D02*
X120377857Y-31627535D01*
X120377857Y-33441821D02*
X120559285Y-33532535D01*
X120922142Y-33532535D01*
X121103571Y-33441821D01*
X121194285Y-33351107D01*
X121285000Y-33169678D01*
X121285000Y-32625392D01*
X121194285Y-32443964D01*
X121103571Y-32353250D01*
X120922142Y-32262535D01*
X120559285Y-32262535D01*
X120377857Y-32353250D01*
X119652142Y-32262535D02*
X119198571Y-33532535D01*
X118745000Y-32262535D02*
X119198571Y-33532535D01*
X119380000Y-33986107D01*
X119470714Y-34076821D01*
X119652142Y-34167535D01*
X115570000Y-31718250D02*
X115751428Y-31627535D01*
X116023571Y-31627535D01*
X116295714Y-31718250D01*
X116477142Y-31899678D01*
X116567857Y-32081107D01*
X116658571Y-32443964D01*
X116658571Y-32716107D01*
X116567857Y-33078964D01*
X116477142Y-33260392D01*
X116295714Y-33441821D01*
X116023571Y-33532535D01*
X115842142Y-33532535D01*
X115570000Y-33441821D01*
X115479285Y-33351107D01*
X115479285Y-32716107D01*
X115842142Y-32716107D01*
X113937142Y-33441821D02*
X114118571Y-33532535D01*
X114481428Y-33532535D01*
X114662857Y-33441821D01*
X114753571Y-33260392D01*
X114753571Y-32534678D01*
X114662857Y-32353250D01*
X114481428Y-32262535D01*
X114118571Y-32262535D01*
X113937142Y-32353250D01*
X113846428Y-32534678D01*
X113846428Y-32716107D01*
X114753571Y-32897535D01*
X113030000Y-32262535D02*
X113030000Y-34167535D01*
X113030000Y-32353250D02*
X112848571Y-32262535D01*
X112485714Y-32262535D01*
X112304285Y-32353250D01*
X112213571Y-32443964D01*
X112122857Y-32625392D01*
X112122857Y-33169678D01*
X112213571Y-33351107D01*
X112304285Y-33441821D01*
X112485714Y-33532535D01*
X112848571Y-33532535D01*
X113030000Y-33441821D01*
X111306428Y-32262535D02*
X111306428Y-34167535D01*
X111306428Y-32353250D02*
X111125000Y-32262535D01*
X110762142Y-32262535D01*
X110580714Y-32353250D01*
X110490000Y-32443964D01*
X110399285Y-32625392D01*
X110399285Y-33169678D01*
X110490000Y-33351107D01*
X110580714Y-33441821D01*
X110762142Y-33532535D01*
X111125000Y-33532535D01*
X111306428Y-33441821D01*
X108857142Y-33441821D02*
X109038571Y-33532535D01*
X109401428Y-33532535D01*
X109582857Y-33441821D01*
X109673571Y-33260392D01*
X109673571Y-32534678D01*
X109582857Y-32353250D01*
X109401428Y-32262535D01*
X109038571Y-32262535D01*
X108857142Y-32353250D01*
X108766428Y-32534678D01*
X108766428Y-32716107D01*
X109673571Y-32897535D01*
X107950000Y-33532535D02*
X107950000Y-32262535D01*
X107950000Y-32625392D02*
X107859285Y-32443964D01*
X107768571Y-32353250D01*
X107587142Y-32262535D01*
X107405714Y-32262535D01*
X107042857Y-32262535D02*
X106317142Y-32262535D01*
X106770714Y-31627535D02*
X106770714Y-33260392D01*
X106680000Y-33441821D01*
X106498571Y-33532535D01*
X106317142Y-33532535D01*
X118835714Y-35047464D02*
X118745000Y-34956750D01*
X118563571Y-34866035D01*
X118110000Y-34866035D01*
X117928571Y-34956750D01*
X117837857Y-35047464D01*
X117747142Y-35228892D01*
X117747142Y-35410321D01*
X117837857Y-35682464D01*
X118926428Y-36771035D01*
X117747142Y-36771035D01*
X116567857Y-34866035D02*
X116386428Y-34866035D01*
X116205000Y-34956750D01*
X116114285Y-35047464D01*
X116023571Y-35228892D01*
X115932857Y-35591750D01*
X115932857Y-36045321D01*
X116023571Y-36408178D01*
X116114285Y-36589607D01*
X116205000Y-36680321D01*
X116386428Y-36771035D01*
X116567857Y-36771035D01*
X116749285Y-36680321D01*
X116840000Y-36589607D01*
X116930714Y-36408178D01*
X117021428Y-36045321D01*
X117021428Y-35591750D01*
X116930714Y-35228892D01*
X116840000Y-35047464D01*
X116749285Y-34956750D01*
X116567857Y-34866035D01*
X114118571Y-36771035D02*
X115207142Y-36771035D01*
X114662857Y-36771035D02*
X114662857Y-34866035D01*
X114844285Y-35138178D01*
X115025714Y-35319607D01*
X115207142Y-35410321D01*
X113211428Y-36771035D02*
X112848571Y-36771035D01*
X112667142Y-36680321D01*
X112576428Y-36589607D01*
X112395000Y-36317464D01*
X112304285Y-35954607D01*
X112304285Y-35228892D01*
X112395000Y-35047464D01*
X112485714Y-34956750D01*
X112667142Y-34866035D01*
X113030000Y-34866035D01*
X113211428Y-34956750D01*
X113302142Y-35047464D01*
X113392857Y-35228892D01*
X113392857Y-35682464D01*
X113302142Y-35863892D01*
X113211428Y-35954607D01*
X113030000Y-36045321D01*
X112667142Y-36045321D01*
X112485714Y-35954607D01*
X112395000Y-35863892D01*
X112304285Y-35682464D01*
D11*
X116205000Y-126365000D02*
X116628333Y-126788333D01*
X117898333Y-127211666D01*
X118745000Y-127211666D01*
X120015000Y-126788333D01*
X120861666Y-125941666D01*
X121285000Y-125095000D01*
X121708333Y-123401666D01*
X121708333Y-122131666D01*
X121285000Y-120438333D01*
X120861666Y-119591666D01*
X120015000Y-118745000D01*
X118745000Y-118321666D01*
X117898333Y-118321666D01*
X116628333Y-118745000D01*
X116205000Y-119168333D01*
X110701666Y-118321666D02*
X109008333Y-118321666D01*
X108161666Y-118745000D01*
X107315000Y-119591666D01*
X106891666Y-121285000D01*
X106891666Y-124248333D01*
X107315000Y-125941666D01*
X108161666Y-126788333D01*
X109008333Y-127211666D01*
X110701666Y-127211666D01*
X111548333Y-126788333D01*
X112395000Y-125941666D01*
X112818333Y-124248333D01*
X112818333Y-121285000D01*
X112395000Y-119591666D01*
X111548333Y-118745000D01*
X110701666Y-118321666D01*
X98001666Y-127211666D02*
X100965000Y-122978333D01*
X103081666Y-127211666D02*
X103081666Y-118321666D01*
X99695000Y-118321666D01*
X98848333Y-118745000D01*
X98425000Y-119168333D01*
X98001666Y-120015000D01*
X98001666Y-121285000D01*
X98425000Y-122131666D01*
X98848333Y-122555000D01*
X99695000Y-122978333D01*
X103081666Y-122978333D01*
X94191666Y-122555000D02*
X91228333Y-122555000D01*
X89958333Y-127211666D02*
X94191666Y-127211666D01*
X94191666Y-118321666D01*
X89958333Y-118321666D01*
X75565000Y-118321666D02*
X77258333Y-118321666D01*
X78105000Y-118745000D01*
X78528333Y-119168333D01*
X79375000Y-120438333D01*
X79798333Y-122131666D01*
X79798333Y-125518333D01*
X79375000Y-126365000D01*
X78951666Y-126788333D01*
X78105000Y-127211666D01*
X76411666Y-127211666D01*
X75565000Y-126788333D01*
X75141666Y-126365000D01*
X74718333Y-125518333D01*
X74718333Y-123401666D01*
X75141666Y-122555000D01*
X75565000Y-122131666D01*
X76411666Y-121708333D01*
X78105000Y-121708333D01*
X78951666Y-122131666D01*
X79375000Y-122555000D01*
X79798333Y-123401666D01*
X67098333Y-121285000D02*
X67098333Y-127211666D01*
X69215000Y-117898333D02*
X71331666Y-124248333D01*
X65828333Y-124248333D01*
D12*
X122403809Y-135421309D02*
X122403809Y-132246309D01*
X120891904Y-133304642D02*
X120891904Y-135421309D01*
X120891904Y-133607023D02*
X120740714Y-133455833D01*
X120438333Y-133304642D01*
X119984761Y-133304642D01*
X119682380Y-133455833D01*
X119531190Y-133758214D01*
X119531190Y-135421309D01*
X118472857Y-133304642D02*
X117263333Y-133304642D01*
X118019285Y-132246309D02*
X118019285Y-134967738D01*
X117868095Y-135270119D01*
X117565714Y-135421309D01*
X117263333Y-135421309D01*
X114995476Y-135270119D02*
X115297857Y-135421309D01*
X115902619Y-135421309D01*
X116205000Y-135270119D01*
X116356190Y-134967738D01*
X116356190Y-133758214D01*
X116205000Y-133455833D01*
X115902619Y-133304642D01*
X115297857Y-133304642D01*
X114995476Y-133455833D01*
X114844285Y-133758214D01*
X114844285Y-134060595D01*
X116356190Y-134362976D01*
X113483571Y-135421309D02*
X113483571Y-133304642D01*
X113483571Y-133909404D02*
X113332380Y-133607023D01*
X113181190Y-133455833D01*
X112878809Y-133304642D01*
X112576428Y-133304642D01*
X110157380Y-135421309D02*
X110157380Y-133758214D01*
X110308571Y-133455833D01*
X110610952Y-133304642D01*
X111215714Y-133304642D01*
X111518095Y-133455833D01*
X110157380Y-135270119D02*
X110459761Y-135421309D01*
X111215714Y-135421309D01*
X111518095Y-135270119D01*
X111669285Y-134967738D01*
X111669285Y-134665357D01*
X111518095Y-134362976D01*
X111215714Y-134211785D01*
X110459761Y-134211785D01*
X110157380Y-134060595D01*
X107284761Y-135270119D02*
X107587142Y-135421309D01*
X108191904Y-135421309D01*
X108494285Y-135270119D01*
X108645476Y-135118928D01*
X108796666Y-134816547D01*
X108796666Y-133909404D01*
X108645476Y-133607023D01*
X108494285Y-133455833D01*
X108191904Y-133304642D01*
X107587142Y-133304642D01*
X107284761Y-133455833D01*
X106377619Y-133304642D02*
X105168095Y-133304642D01*
X105924047Y-132246309D02*
X105924047Y-134967738D01*
X105772857Y-135270119D01*
X105470476Y-135421309D01*
X105168095Y-135421309D01*
X104109761Y-135421309D02*
X104109761Y-133304642D01*
X104109761Y-132246309D02*
X104260952Y-132397500D01*
X104109761Y-132548690D01*
X103958571Y-132397500D01*
X104109761Y-132246309D01*
X104109761Y-132548690D01*
X102900238Y-133304642D02*
X102144285Y-135421309D01*
X101388333Y-133304642D01*
X98969285Y-135270119D02*
X99271666Y-135421309D01*
X99876428Y-135421309D01*
X100178809Y-135270119D01*
X100330000Y-134967738D01*
X100330000Y-133758214D01*
X100178809Y-133455833D01*
X99876428Y-133304642D01*
X99271666Y-133304642D01*
X98969285Y-133455833D01*
X98818095Y-133758214D01*
X98818095Y-134060595D01*
X100330000Y-134362976D01*
X93224047Y-135118928D02*
X93375238Y-135270119D01*
X93828809Y-135421309D01*
X94131190Y-135421309D01*
X94584761Y-135270119D01*
X94887142Y-134967738D01*
X95038333Y-134665357D01*
X95189523Y-134060595D01*
X95189523Y-133607023D01*
X95038333Y-133002261D01*
X94887142Y-132699880D01*
X94584761Y-132397500D01*
X94131190Y-132246309D01*
X93828809Y-132246309D01*
X93375238Y-132397500D01*
X93224047Y-132548690D01*
X91409761Y-135421309D02*
X91712142Y-135270119D01*
X91863333Y-135118928D01*
X92014523Y-134816547D01*
X92014523Y-133909404D01*
X91863333Y-133607023D01*
X91712142Y-133455833D01*
X91409761Y-133304642D01*
X90956190Y-133304642D01*
X90653809Y-133455833D01*
X90502619Y-133607023D01*
X90351428Y-133909404D01*
X90351428Y-134816547D01*
X90502619Y-135118928D01*
X90653809Y-135270119D01*
X90956190Y-135421309D01*
X91409761Y-135421309D01*
X88990714Y-135421309D02*
X88990714Y-133304642D01*
X88990714Y-133909404D02*
X88839523Y-133607023D01*
X88688333Y-133455833D01*
X88385952Y-133304642D01*
X88083571Y-133304642D01*
X85815714Y-135270119D02*
X86118095Y-135421309D01*
X86722857Y-135421309D01*
X87025238Y-135270119D01*
X87176428Y-134967738D01*
X87176428Y-133758214D01*
X87025238Y-133455833D01*
X86722857Y-133304642D01*
X86118095Y-133304642D01*
X85815714Y-133455833D01*
X85664523Y-133758214D01*
X85664523Y-134060595D01*
X87176428Y-134362976D01*
X81884761Y-135421309D02*
X81884761Y-132246309D01*
X80826428Y-134514166D01*
X79768095Y-132246309D01*
X79768095Y-135421309D01*
X77046666Y-135270119D02*
X77349047Y-135421309D01*
X77953809Y-135421309D01*
X78256190Y-135270119D01*
X78407380Y-134967738D01*
X78407380Y-133758214D01*
X78256190Y-133455833D01*
X77953809Y-133304642D01*
X77349047Y-133304642D01*
X77046666Y-133455833D01*
X76895476Y-133758214D01*
X76895476Y-134060595D01*
X78407380Y-134362976D01*
X75534761Y-135421309D02*
X75534761Y-133304642D01*
X75534761Y-133607023D02*
X75383571Y-133455833D01*
X75081190Y-133304642D01*
X74627619Y-133304642D01*
X74325238Y-133455833D01*
X74174047Y-133758214D01*
X74174047Y-135421309D01*
X74174047Y-133758214D02*
X74022857Y-133455833D01*
X73720476Y-133304642D01*
X73266904Y-133304642D01*
X72964523Y-133455833D01*
X72813333Y-133758214D01*
X72813333Y-135421309D01*
X70847857Y-135421309D02*
X71150238Y-135270119D01*
X71301428Y-135118928D01*
X71452619Y-134816547D01*
X71452619Y-133909404D01*
X71301428Y-133607023D01*
X71150238Y-133455833D01*
X70847857Y-133304642D01*
X70394285Y-133304642D01*
X70091904Y-133455833D01*
X69940714Y-133607023D01*
X69789523Y-133909404D01*
X69789523Y-134816547D01*
X69940714Y-135118928D01*
X70091904Y-135270119D01*
X70394285Y-135421309D01*
X70847857Y-135421309D01*
X68428809Y-135421309D02*
X68428809Y-133304642D01*
X68428809Y-133909404D02*
X68277619Y-133607023D01*
X68126428Y-133455833D01*
X67824047Y-133304642D01*
X67521666Y-133304642D01*
X66765714Y-133304642D02*
X66009761Y-135421309D01*
X65253809Y-133304642D02*
X66009761Y-135421309D01*
X66312142Y-136177261D01*
X66463333Y-136328452D01*
X66765714Y-136479642D01*
M02*
