M48
; DRILL file {KiCad (5.1.2-1)-1} date Friday, August 09, 2019 at 06:18:10 PM
; FORMAT={-:-/ absolute / inch / decimal}
; #@! TF.CreationDate,2019-08-09T18:18:10-05:00
; #@! TF.GenerationSoftware,Kicad,Pcbnew,(5.1.2-1)-1
; #@! TF.FileFunction,Plated,1,2,PTH
FMAT,2
INCH
T1C0.0157
T2C0.0197
T3C0.0276
T4C0.0300
T5C0.0394
T6C0.0402
T7C0.0433
%
G90
G05
T1
X2.225Y-1.875
X2.225Y-5.25
X2.275Y-2.15
X2.275Y-5.0
X2.325Y-2.4
X2.325Y-4.75
X2.375Y-2.675
X2.375Y-4.425
X2.425Y-1.6
X2.475Y-4.125
X2.5Y-4.35
X2.5Y-4.6665
X2.575Y-1.3
X2.575Y-4.825
X2.6Y-4.125
X2.6Y-4.575
X2.625Y-5.9
X2.675Y-4.35
X2.8Y-4.55
X2.8Y-4.8
X2.8Y-4.975
X2.8Y-5.325
X2.8Y-5.325
X2.8Y-5.975
X2.85Y-5.925
X2.85Y-6.925
X2.875Y-5.175
X2.925Y-5.875
X2.975Y-5.275
X3.025Y-7.025
X3.075Y-5.375
X3.075Y-5.975
X3.125Y-4.85
X3.125Y-6.75
X3.15Y-4.8
X3.15Y-6.7
X3.175Y-4.9
X3.175Y-6.55
X3.2Y-4.825
X3.2Y-6.5
X3.225Y-4.325
X3.275Y-4.875
X3.275Y-6.425
X3.3Y-4.925
X3.3Y-6.225
X3.325Y-5.05
X3.325Y-6.025
X3.35Y-5.225
X3.35Y-6.075
X3.4Y-5.825
X3.4Y-5.925
X3.475Y-5.675
X3.525Y-6.575
X3.5699Y-6.625
X3.575Y-7.525
X3.6Y-6.925
X3.6Y-7.575
X3.625Y-5.925
X3.65Y-7.125
X3.67Y-5.825
X3.675Y-4.3
X3.675Y-5.675
X3.725Y-5.875
X3.775Y-5.375
X3.875Y-5.875
X3.925Y-5.6
X3.975Y-5.325
X3.975Y-5.925
X4.15Y-5.275
X4.15Y-5.6
X4.275Y-5.875
X4.275Y-5.875
X4.325Y-5.175
X4.325Y-5.4
X4.375Y-4.4
X4.375Y-7.125
X4.425Y-6.925
X4.475Y-5.925
X4.475Y-6.175
X4.475Y-6.375
X4.475Y-6.575
X4.475Y-6.8
X4.475Y-7.0
X4.475Y-7.2
X4.525Y-5.55
X4.525Y-5.875
X4.65Y-4.45
X4.65Y-7.2
X4.7Y-7.0
X4.75Y-6.025
X4.75Y-6.27
X4.75Y-6.475
X4.75Y-6.695
X4.75Y-6.9
X4.75Y-7.075
X4.75Y-7.278
X4.75Y-7.5465
X4.755Y-4.825
X4.755Y-5.475
X4.7881Y-5.3869
X4.7881Y-5.45
X5.0Y-6.05
X5.0Y-6.8
X5.05Y-6.05
X5.05Y-6.6
X5.1Y-6.05
X5.1Y-6.4
X5.15Y-6.05
T2
X3.725Y-7.025
X3.725Y-7.175
T3
X2.555Y-2.015
X2.555Y-2.275
X2.555Y-2.535
X2.555Y-2.795
X2.555Y-3.055
X2.555Y-3.315
X2.555Y-3.575
X2.555Y-3.835
X2.815Y-1.625
X2.815Y-4.225
X3.075Y-1.625
X3.075Y-4.225
X3.335Y-1.625
X3.335Y-4.225
X3.595Y-1.625
X3.595Y-4.225
X3.855Y-1.625
X3.855Y-4.225
X4.115Y-1.625
X4.115Y-4.225
X4.375Y-1.625
X4.375Y-4.225
X4.635Y-1.625
X4.635Y-4.225
X4.895Y-2.015
X4.895Y-2.275
X4.895Y-2.535
X4.895Y-2.795
X4.895Y-3.055
X4.895Y-3.315
X4.895Y-3.575
X4.895Y-3.835
T4
X4.895Y-3.445
X4.895Y-4.095
X2.325Y-6.775
X2.325Y-6.875
X2.325Y-6.975
X2.325Y-7.075
T5
X2.925Y-7.475
X2.5Y-5.475
X2.925Y-6.4
X2.5Y-5.975
X2.7Y-6.4
X4.875Y-4.4
X3.5Y-4.55
X4.875Y-4.925
X4.875Y-4.675
X4.15Y-5.125
X4.45Y-7.475
X3.5Y-5.125
X2.9Y-1.4
X3.825Y-5.125
X4.75Y-7.475
X2.5Y-5.725
X4.225Y-7.475
X2.7Y-7.475
X2.775Y-5.475
T6
X2.975Y-4.55
X3.075Y-4.55
X3.175Y-4.55
X3.575Y-5.45
X3.675Y-5.45
X3.775Y-5.45
X3.875Y-5.45
T7
X3.425Y-6.125
X3.425Y-6.225
X3.425Y-6.325
X3.425Y-6.425
X3.425Y-6.525
X3.425Y-6.625
X3.425Y-6.725
X3.425Y-6.825
X3.425Y-6.925
X3.425Y-7.025
X3.425Y-7.125
X3.425Y-7.225
X3.425Y-7.325
X3.425Y-7.425
X3.525Y-6.125
X3.525Y-6.925
X3.525Y-7.025
X3.525Y-7.125
X3.525Y-7.325
X3.625Y-6.125
X3.625Y-6.225
X3.625Y-6.325
X3.625Y-6.425
X3.625Y-6.525
X3.625Y-6.625
X3.625Y-6.725
X3.625Y-6.825
X3.725Y-6.125
X3.725Y-6.225
X3.725Y-6.325
X3.725Y-6.425
X3.725Y-6.525
X3.725Y-6.625
X3.725Y-6.725
X3.725Y-6.825
X3.825Y-6.125
X3.925Y-6.125
X4.025Y-6.125
X4.025Y-6.225
X4.025Y-6.325
X4.025Y-6.425
X4.025Y-6.525
X4.025Y-6.625
X4.025Y-6.725
X4.025Y-6.825
X4.025Y-6.925
X4.025Y-7.025
X4.025Y-7.125
X4.025Y-7.225
X4.025Y-7.325
X4.025Y-7.425
T0
M30
