G04 #@! TF.GenerationSoftware,KiCad,Pcbnew,(5.1.2-1)-1*
G04 #@! TF.CreationDate,2019-08-09T18:15:57-05:00*
G04 #@! TF.ProjectId,Interactive Core Memory Badge v0.1,496e7465-7261-4637-9469-766520436f72,0.1*
G04 #@! TF.SameCoordinates,Original*
G04 #@! TF.FileFunction,Profile,NP*
%FSLAX46Y46*%
G04 Gerber Fmt 4.6, Leading zero omitted, Abs format (unit mm)*
G04 Created by KiCad (PCBNEW (5.1.2-1)-1) date 2019-08-09 18:15:57*
%MOMM*%
%LPD*%
G04 APERTURE LIST*
%ADD10C,0.050000*%
G04 APERTURE END LIST*
D10*
X130175000Y-28575000D02*
G75*
G02X135255000Y-33655000I0J-5080000D01*
G01*
X135255000Y-188595000D02*
G75*
G02X130175000Y-193675000I-5080000J0D01*
G01*
X53975000Y-33655000D02*
G75*
G02X59055000Y-28575000I5080000J0D01*
G01*
X131762500Y-33655000D02*
G75*
G03X131762500Y-33655000I-1587500J0D01*
G01*
X131762500Y-188595000D02*
G75*
G03X131762500Y-188595000I-1587500J0D01*
G01*
X60642500Y-188595000D02*
G75*
G03X60642500Y-188595000I-1587500J0D01*
G01*
X60642500Y-33655000D02*
G75*
G03X60642500Y-33655000I-1587500J0D01*
G01*
X71583437Y-147955000D02*
G75*
G03X71583437Y-147955000I-1606437J0D01*
G01*
X120859437Y-103251000D02*
G75*
G03X120859437Y-103251000I-1606437J0D01*
G01*
X135255000Y-33655000D02*
X135255000Y-188595000D01*
X120859437Y-147955000D02*
G75*
G03X120859437Y-147955000I-1606437J0D01*
G01*
X71583437Y-103251000D02*
G75*
G03X71583437Y-103251000I-1606437J0D01*
G01*
X71583437Y-45339000D02*
G75*
G03X71583437Y-45339000I-1606437J0D01*
G01*
X120859437Y-45339000D02*
G75*
G03X120859437Y-45339000I-1606437J0D01*
G01*
X89535000Y-38735000D02*
X99695000Y-38735000D01*
X89535000Y-33655000D02*
X99695000Y-33655000D01*
X99695000Y-33655000D02*
G75*
G02X99695000Y-38735000I0J-2540000D01*
G01*
X89535000Y-38735000D02*
G75*
G02X89535000Y-33655000I0J2540000D01*
G01*
X67945000Y-51435000D02*
X67945000Y-97155000D01*
X117475000Y-47625000D02*
X71755000Y-47625000D01*
X121285000Y-97155000D02*
X121285000Y-51435000D01*
X71755000Y-100965000D02*
X117475000Y-100965000D01*
X71755000Y-100965000D02*
G75*
G02X67945000Y-97155000I0J3810000D01*
G01*
X121285000Y-97155000D02*
G75*
G02X117475000Y-100965000I-3810000J0D01*
G01*
X117475000Y-47625000D02*
G75*
G02X121285000Y-51435000I0J-3810000D01*
G01*
X67945000Y-51435000D02*
G75*
G02X71755000Y-47625000I3810000J0D01*
G01*
X53975000Y-188595000D02*
X53975000Y-33655000D01*
X59055000Y-193675000D02*
X130175000Y-193675000D01*
X59055000Y-193675000D02*
G75*
G02X53975000Y-188595000I0J5080000D01*
G01*
X59055000Y-28575000D02*
X130175000Y-28575000D01*
M02*
