G04 #@! TF.GenerationSoftware,KiCad,Pcbnew,(5.1.2-1)-1*
G04 #@! TF.CreationDate,2020-11-19T22:06:58-06:00*
G04 #@! TF.ProjectId,Core64 LB v0.4,436f7265-3634-4204-9c42-2076302e342e,0.3*
G04 #@! TF.SameCoordinates,Original*
G04 #@! TF.FileFunction,Soldermask,Bot*
G04 #@! TF.FilePolarity,Negative*
%FSLAX46Y46*%
G04 Gerber Fmt 4.6, Leading zero omitted, Abs format (unit mm)*
G04 Created by KiCad (PCBNEW (5.1.2-1)-1) date 2020-11-19 22:06:58*
%MOMM*%
%LPD*%
G04 APERTURE LIST*
%ADD10C,0.100000*%
G04 APERTURE END LIST*
D10*
G36*
X-21133222Y-123410547D02*
G01*
X-20966776Y-123479491D01*
X-20816978Y-123579583D01*
X-20689583Y-123706978D01*
X-20589491Y-123856776D01*
X-20520547Y-124023222D01*
X-20485400Y-124199918D01*
X-20485400Y-124380082D01*
X-20520547Y-124556778D01*
X-20589491Y-124723224D01*
X-20689583Y-124873022D01*
X-20816978Y-125000417D01*
X-20966776Y-125100509D01*
X-21133222Y-125169453D01*
X-21309918Y-125204600D01*
X-21490082Y-125204600D01*
X-21666778Y-125169453D01*
X-21833224Y-125100509D01*
X-21983022Y-125000417D01*
X-22110417Y-124873022D01*
X-22210509Y-124723224D01*
X-22279453Y-124556778D01*
X-22314600Y-124380082D01*
X-22314600Y-124199918D01*
X-22279453Y-124023222D01*
X-22210509Y-123856776D01*
X-22110417Y-123706978D01*
X-21983022Y-123579583D01*
X-21833224Y-123479491D01*
X-21666778Y-123410547D01*
X-21490082Y-123375400D01*
X-21309918Y-123375400D01*
X-21133222Y-123410547D01*
X-21133222Y-123410547D01*
G37*
G36*
X-23760706Y-123388633D02*
G01*
X-23588305Y-123440931D01*
X-23429417Y-123525858D01*
X-23290151Y-123640151D01*
X-23175858Y-123779417D01*
X-23090931Y-123938305D01*
X-23038633Y-124110706D01*
X-23020975Y-124290000D01*
X-23038633Y-124469294D01*
X-23090931Y-124641695D01*
X-23175858Y-124800583D01*
X-23290151Y-124939849D01*
X-23429417Y-125054142D01*
X-23588305Y-125139069D01*
X-23760706Y-125191367D01*
X-23895069Y-125204600D01*
X-23984931Y-125204600D01*
X-24119294Y-125191367D01*
X-24291695Y-125139069D01*
X-24450583Y-125054142D01*
X-24589849Y-124939849D01*
X-24704142Y-124800583D01*
X-24789069Y-124641695D01*
X-24841367Y-124469294D01*
X-24859025Y-124290000D01*
X-24841367Y-124110706D01*
X-24789069Y-123938305D01*
X-24704142Y-123779417D01*
X-24589849Y-123640151D01*
X-24450583Y-123525858D01*
X-24291695Y-123440931D01*
X-24119294Y-123388633D01*
X-23984931Y-123375400D01*
X-23895069Y-123375400D01*
X-23760706Y-123388633D01*
X-23760706Y-123388633D01*
G37*
G36*
X-26213222Y-123410547D02*
G01*
X-26046776Y-123479491D01*
X-25896978Y-123579583D01*
X-25769583Y-123706978D01*
X-25669491Y-123856776D01*
X-25600547Y-124023222D01*
X-25565400Y-124199918D01*
X-25565400Y-124380082D01*
X-25600547Y-124556778D01*
X-25669491Y-124723224D01*
X-25769583Y-124873022D01*
X-25896978Y-125000417D01*
X-26046776Y-125100509D01*
X-26213222Y-125169453D01*
X-26389918Y-125204600D01*
X-26570082Y-125204600D01*
X-26746778Y-125169453D01*
X-26913224Y-125100509D01*
X-27063022Y-125000417D01*
X-27190417Y-124873022D01*
X-27290509Y-124723224D01*
X-27359453Y-124556778D01*
X-27394600Y-124380082D01*
X-27394600Y-124199918D01*
X-27359453Y-124023222D01*
X-27290509Y-123856776D01*
X-27190417Y-123706978D01*
X-27063022Y-123579583D01*
X-26913224Y-123479491D01*
X-26746778Y-123410547D01*
X-26570082Y-123375400D01*
X-26389918Y-123375400D01*
X-26213222Y-123410547D01*
X-26213222Y-123410547D01*
G37*
G36*
X37134239Y-118311467D02*
G01*
X37448282Y-118373934D01*
X38039926Y-118619001D01*
X38572392Y-118974784D01*
X39025216Y-119427608D01*
X39380999Y-119960074D01*
X39626066Y-120551718D01*
X39682494Y-120835400D01*
X39751000Y-121179803D01*
X39751000Y-121820197D01*
X39711897Y-122016779D01*
X39626066Y-122448282D01*
X39380999Y-123039926D01*
X39113055Y-123440932D01*
X39056309Y-123525859D01*
X39025216Y-123572392D01*
X38572392Y-124025216D01*
X38039926Y-124380999D01*
X37448282Y-124626066D01*
X37134239Y-124688533D01*
X36820197Y-124751000D01*
X36179803Y-124751000D01*
X35865761Y-124688533D01*
X35551718Y-124626066D01*
X34960074Y-124380999D01*
X34427608Y-124025216D01*
X33974784Y-123572392D01*
X33943692Y-123525859D01*
X33886945Y-123440932D01*
X33619001Y-123039926D01*
X33373934Y-122448282D01*
X33288103Y-122016779D01*
X33249000Y-121820197D01*
X33249000Y-121179803D01*
X33317506Y-120835400D01*
X33373934Y-120551718D01*
X33619001Y-119960074D01*
X33974784Y-119427608D01*
X34427608Y-118974784D01*
X34960074Y-118619001D01*
X35551718Y-118373934D01*
X35865761Y-118311467D01*
X36179803Y-118249000D01*
X36820197Y-118249000D01*
X37134239Y-118311467D01*
X37134239Y-118311467D01*
G37*
G36*
X-35865761Y-118311467D02*
G01*
X-35551718Y-118373934D01*
X-34960074Y-118619001D01*
X-34427608Y-118974784D01*
X-33974784Y-119427608D01*
X-33619001Y-119960074D01*
X-33373934Y-120551718D01*
X-33317506Y-120835400D01*
X-33249000Y-121179803D01*
X-33249000Y-121820197D01*
X-33288103Y-122016779D01*
X-33373934Y-122448282D01*
X-33619001Y-123039926D01*
X-33886945Y-123440932D01*
X-33943691Y-123525859D01*
X-33974784Y-123572392D01*
X-34427608Y-124025216D01*
X-34960074Y-124380999D01*
X-35551718Y-124626066D01*
X-35865761Y-124688533D01*
X-36179803Y-124751000D01*
X-36820197Y-124751000D01*
X-37134239Y-124688533D01*
X-37448282Y-124626066D01*
X-38039926Y-124380999D01*
X-38572392Y-124025216D01*
X-39025216Y-123572392D01*
X-39056308Y-123525859D01*
X-39113055Y-123440932D01*
X-39380999Y-123039926D01*
X-39626066Y-122448282D01*
X-39711897Y-122016779D01*
X-39751000Y-121820197D01*
X-39751000Y-121179803D01*
X-39682494Y-120835400D01*
X-39626066Y-120551718D01*
X-39380999Y-119960074D01*
X-39025216Y-119427608D01*
X-38572392Y-118974784D01*
X-38039926Y-118619001D01*
X-37448282Y-118373934D01*
X-37134239Y-118311467D01*
X-36820197Y-118249000D01*
X-36179803Y-118249000D01*
X-35865761Y-118311467D01*
X-35865761Y-118311467D01*
G37*
G36*
X-23760706Y-120848633D02*
G01*
X-23588305Y-120900931D01*
X-23429417Y-120985858D01*
X-23290151Y-121100151D01*
X-23175858Y-121239417D01*
X-23090931Y-121398305D01*
X-23038633Y-121570706D01*
X-23020975Y-121750000D01*
X-23038633Y-121929294D01*
X-23090931Y-122101695D01*
X-23175858Y-122260583D01*
X-23290151Y-122399849D01*
X-23429417Y-122514142D01*
X-23588305Y-122599069D01*
X-23760706Y-122651367D01*
X-23895069Y-122664600D01*
X-23984931Y-122664600D01*
X-24119294Y-122651367D01*
X-24291695Y-122599069D01*
X-24450583Y-122514142D01*
X-24589849Y-122399849D01*
X-24704142Y-122260583D01*
X-24789069Y-122101695D01*
X-24841367Y-121929294D01*
X-24859025Y-121750000D01*
X-24841367Y-121570706D01*
X-24789069Y-121398305D01*
X-24704142Y-121239417D01*
X-24589849Y-121100151D01*
X-24450583Y-120985858D01*
X-24291695Y-120900931D01*
X-24119294Y-120848633D01*
X-23984931Y-120835400D01*
X-23895069Y-120835400D01*
X-23760706Y-120848633D01*
X-23760706Y-120848633D01*
G37*
G36*
X-21133222Y-120870547D02*
G01*
X-20966776Y-120939491D01*
X-20816978Y-121039583D01*
X-20689583Y-121166978D01*
X-20589491Y-121316776D01*
X-20520547Y-121483222D01*
X-20485400Y-121659918D01*
X-20485400Y-121840082D01*
X-20520547Y-122016778D01*
X-20589491Y-122183224D01*
X-20689583Y-122333022D01*
X-20816978Y-122460417D01*
X-20966776Y-122560509D01*
X-21133222Y-122629453D01*
X-21309918Y-122664600D01*
X-21490082Y-122664600D01*
X-21666778Y-122629453D01*
X-21833224Y-122560509D01*
X-21983022Y-122460417D01*
X-22110417Y-122333022D01*
X-22210509Y-122183224D01*
X-22279453Y-122016778D01*
X-22314600Y-121840082D01*
X-22314600Y-121659918D01*
X-22279453Y-121483222D01*
X-22210509Y-121316776D01*
X-22110417Y-121166978D01*
X-21983022Y-121039583D01*
X-21833224Y-120939491D01*
X-21666778Y-120870547D01*
X-21490082Y-120835400D01*
X-21309918Y-120835400D01*
X-21133222Y-120870547D01*
X-21133222Y-120870547D01*
G37*
G36*
X-25565400Y-122664600D02*
G01*
X-27394600Y-122664600D01*
X-27394600Y-120835400D01*
X-25565400Y-120835400D01*
X-25565400Y-122664600D01*
X-25565400Y-122664600D01*
G37*
G36*
X-10428885Y-119452630D02*
G01*
X-10333373Y-119462037D01*
X-10163534Y-119513557D01*
X-10007009Y-119597222D01*
X-9971271Y-119626552D01*
X-9869814Y-119709814D01*
X-9786552Y-119811271D01*
X-9757222Y-119847009D01*
X-9673557Y-120003534D01*
X-9622037Y-120173373D01*
X-9604641Y-120350000D01*
X-9622037Y-120526627D01*
X-9673557Y-120696466D01*
X-9757222Y-120852991D01*
X-9771630Y-120870547D01*
X-9869814Y-120990186D01*
X-9962600Y-121066332D01*
X-10007009Y-121102778D01*
X-10007011Y-121102779D01*
X-10151111Y-121179803D01*
X-10163534Y-121186443D01*
X-10333373Y-121237963D01*
X-10399557Y-121244481D01*
X-10465740Y-121251000D01*
X-10554260Y-121251000D01*
X-10620443Y-121244481D01*
X-10686627Y-121237963D01*
X-10856466Y-121186443D01*
X-10868888Y-121179803D01*
X-11012989Y-121102779D01*
X-11012991Y-121102778D01*
X-11057400Y-121066332D01*
X-11150186Y-120990186D01*
X-11248370Y-120870547D01*
X-11262778Y-120852991D01*
X-11346443Y-120696466D01*
X-11397963Y-120526627D01*
X-11415359Y-120350000D01*
X-11397963Y-120173373D01*
X-11346443Y-120003534D01*
X-11262778Y-119847009D01*
X-11233448Y-119811271D01*
X-11150186Y-119709814D01*
X-11048729Y-119626552D01*
X-11012991Y-119597222D01*
X-10856466Y-119513557D01*
X-10686627Y-119462037D01*
X-10591115Y-119452630D01*
X-10554260Y-119449000D01*
X-10465740Y-119449000D01*
X-10428885Y-119452630D01*
X-10428885Y-119452630D01*
G37*
G36*
X-12149000Y-121251000D02*
G01*
X-13951000Y-121251000D01*
X-13951000Y-119449000D01*
X-12149000Y-119449000D01*
X-12149000Y-121251000D01*
X-12149000Y-121251000D01*
G37*
G36*
X27891000Y-118491000D02*
G01*
X26089000Y-118491000D01*
X26089000Y-116689000D01*
X27891000Y-116689000D01*
X27891000Y-118491000D01*
X27891000Y-118491000D01*
G37*
G36*
X-739000Y-116011000D02*
G01*
X-2441000Y-116011000D01*
X-2441000Y-114309000D01*
X-739000Y-114309000D01*
X-739000Y-116011000D01*
X-739000Y-116011000D01*
G37*
G36*
X24058228Y-111801703D02*
G01*
X24213100Y-111865853D01*
X24352481Y-111958985D01*
X24471015Y-112077519D01*
X24564147Y-112216900D01*
X24628297Y-112371772D01*
X24661000Y-112536184D01*
X24661000Y-112703816D01*
X24628297Y-112868228D01*
X24564147Y-113023100D01*
X24471015Y-113162481D01*
X24352481Y-113281015D01*
X24213100Y-113374147D01*
X24058228Y-113438297D01*
X23893816Y-113471000D01*
X23726184Y-113471000D01*
X23561772Y-113438297D01*
X23406900Y-113374147D01*
X23267519Y-113281015D01*
X23148985Y-113162481D01*
X23055853Y-113023100D01*
X22991703Y-112868228D01*
X22959000Y-112703816D01*
X22959000Y-112536184D01*
X22991703Y-112371772D01*
X23055853Y-112216900D01*
X23148985Y-112077519D01*
X23267519Y-111958985D01*
X23406900Y-111865853D01*
X23561772Y-111801703D01*
X23726184Y-111769000D01*
X23893816Y-111769000D01*
X24058228Y-111801703D01*
X24058228Y-111801703D01*
G37*
G36*
X26598228Y-111801703D02*
G01*
X26753100Y-111865853D01*
X26892481Y-111958985D01*
X27011015Y-112077519D01*
X27104147Y-112216900D01*
X27168297Y-112371772D01*
X27201000Y-112536184D01*
X27201000Y-112703816D01*
X27168297Y-112868228D01*
X27104147Y-113023100D01*
X27011015Y-113162481D01*
X26892481Y-113281015D01*
X26753100Y-113374147D01*
X26598228Y-113438297D01*
X26433816Y-113471000D01*
X26266184Y-113471000D01*
X26101772Y-113438297D01*
X25946900Y-113374147D01*
X25807519Y-113281015D01*
X25688985Y-113162481D01*
X25595853Y-113023100D01*
X25531703Y-112868228D01*
X25499000Y-112703816D01*
X25499000Y-112536184D01*
X25531703Y-112371772D01*
X25595853Y-112216900D01*
X25688985Y-112077519D01*
X25807519Y-111958985D01*
X25946900Y-111865853D01*
X26101772Y-111801703D01*
X26266184Y-111769000D01*
X26433816Y-111769000D01*
X26598228Y-111801703D01*
X26598228Y-111801703D01*
G37*
G36*
X29138228Y-111801703D02*
G01*
X29293100Y-111865853D01*
X29432481Y-111958985D01*
X29551015Y-112077519D01*
X29644147Y-112216900D01*
X29708297Y-112371772D01*
X29741000Y-112536184D01*
X29741000Y-112703816D01*
X29708297Y-112868228D01*
X29644147Y-113023100D01*
X29551015Y-113162481D01*
X29432481Y-113281015D01*
X29293100Y-113374147D01*
X29138228Y-113438297D01*
X28973816Y-113471000D01*
X28806184Y-113471000D01*
X28641772Y-113438297D01*
X28486900Y-113374147D01*
X28347519Y-113281015D01*
X28228985Y-113162481D01*
X28135853Y-113023100D01*
X28071703Y-112868228D01*
X28039000Y-112703816D01*
X28039000Y-112536184D01*
X28071703Y-112371772D01*
X28135853Y-112216900D01*
X28228985Y-112077519D01*
X28347519Y-111958985D01*
X28486900Y-111865853D01*
X28641772Y-111801703D01*
X28806184Y-111769000D01*
X28973816Y-111769000D01*
X29138228Y-111801703D01*
X29138228Y-111801703D01*
G37*
G36*
X31678228Y-111801703D02*
G01*
X31833100Y-111865853D01*
X31972481Y-111958985D01*
X32091015Y-112077519D01*
X32184147Y-112216900D01*
X32248297Y-112371772D01*
X32281000Y-112536184D01*
X32281000Y-112703816D01*
X32248297Y-112868228D01*
X32184147Y-113023100D01*
X32091015Y-113162481D01*
X31972481Y-113281015D01*
X31833100Y-113374147D01*
X31678228Y-113438297D01*
X31513816Y-113471000D01*
X31346184Y-113471000D01*
X31181772Y-113438297D01*
X31026900Y-113374147D01*
X30887519Y-113281015D01*
X30768985Y-113162481D01*
X30675853Y-113023100D01*
X30611703Y-112868228D01*
X30579000Y-112703816D01*
X30579000Y-112536184D01*
X30611703Y-112371772D01*
X30675853Y-112216900D01*
X30768985Y-112077519D01*
X30887519Y-111958985D01*
X31026900Y-111865853D01*
X31181772Y-111801703D01*
X31346184Y-111769000D01*
X31513816Y-111769000D01*
X31678228Y-111801703D01*
X31678228Y-111801703D01*
G37*
G36*
X34218228Y-111801703D02*
G01*
X34373100Y-111865853D01*
X34512481Y-111958985D01*
X34631015Y-112077519D01*
X34724147Y-112216900D01*
X34788297Y-112371772D01*
X34821000Y-112536184D01*
X34821000Y-112703816D01*
X34788297Y-112868228D01*
X34724147Y-113023100D01*
X34631015Y-113162481D01*
X34512481Y-113281015D01*
X34373100Y-113374147D01*
X34218228Y-113438297D01*
X34053816Y-113471000D01*
X33886184Y-113471000D01*
X33721772Y-113438297D01*
X33566900Y-113374147D01*
X33427519Y-113281015D01*
X33308985Y-113162481D01*
X33215853Y-113023100D01*
X33151703Y-112868228D01*
X33119000Y-112703816D01*
X33119000Y-112536184D01*
X33151703Y-112371772D01*
X33215853Y-112216900D01*
X33308985Y-112077519D01*
X33427519Y-111958985D01*
X33566900Y-111865853D01*
X33721772Y-111801703D01*
X33886184Y-111769000D01*
X34053816Y-111769000D01*
X34218228Y-111801703D01*
X34218228Y-111801703D01*
G37*
G36*
X36758228Y-111801703D02*
G01*
X36913100Y-111865853D01*
X37052481Y-111958985D01*
X37171015Y-112077519D01*
X37264147Y-112216900D01*
X37328297Y-112371772D01*
X37361000Y-112536184D01*
X37361000Y-112703816D01*
X37328297Y-112868228D01*
X37264147Y-113023100D01*
X37171015Y-113162481D01*
X37052481Y-113281015D01*
X36913100Y-113374147D01*
X36758228Y-113438297D01*
X36593816Y-113471000D01*
X36426184Y-113471000D01*
X36261772Y-113438297D01*
X36106900Y-113374147D01*
X35967519Y-113281015D01*
X35848985Y-113162481D01*
X35755853Y-113023100D01*
X35691703Y-112868228D01*
X35659000Y-112703816D01*
X35659000Y-112536184D01*
X35691703Y-112371772D01*
X35755853Y-112216900D01*
X35848985Y-112077519D01*
X35967519Y-111958985D01*
X36106900Y-111865853D01*
X36261772Y-111801703D01*
X36426184Y-111769000D01*
X36593816Y-111769000D01*
X36758228Y-111801703D01*
X36758228Y-111801703D01*
G37*
G36*
X6278228Y-111801703D02*
G01*
X6433100Y-111865853D01*
X6572481Y-111958985D01*
X6691015Y-112077519D01*
X6784147Y-112216900D01*
X6848297Y-112371772D01*
X6881000Y-112536184D01*
X6881000Y-112703816D01*
X6848297Y-112868228D01*
X6784147Y-113023100D01*
X6691015Y-113162481D01*
X6572481Y-113281015D01*
X6433100Y-113374147D01*
X6278228Y-113438297D01*
X6113816Y-113471000D01*
X5946184Y-113471000D01*
X5781772Y-113438297D01*
X5626900Y-113374147D01*
X5487519Y-113281015D01*
X5368985Y-113162481D01*
X5275853Y-113023100D01*
X5211703Y-112868228D01*
X5179000Y-112703816D01*
X5179000Y-112536184D01*
X5211703Y-112371772D01*
X5275853Y-112216900D01*
X5368985Y-112077519D01*
X5487519Y-111958985D01*
X5626900Y-111865853D01*
X5781772Y-111801703D01*
X5946184Y-111769000D01*
X6113816Y-111769000D01*
X6278228Y-111801703D01*
X6278228Y-111801703D01*
G37*
G36*
X21518228Y-111801703D02*
G01*
X21673100Y-111865853D01*
X21812481Y-111958985D01*
X21931015Y-112077519D01*
X22024147Y-112216900D01*
X22088297Y-112371772D01*
X22121000Y-112536184D01*
X22121000Y-112703816D01*
X22088297Y-112868228D01*
X22024147Y-113023100D01*
X21931015Y-113162481D01*
X21812481Y-113281015D01*
X21673100Y-113374147D01*
X21518228Y-113438297D01*
X21353816Y-113471000D01*
X21186184Y-113471000D01*
X21021772Y-113438297D01*
X20866900Y-113374147D01*
X20727519Y-113281015D01*
X20608985Y-113162481D01*
X20515853Y-113023100D01*
X20451703Y-112868228D01*
X20419000Y-112703816D01*
X20419000Y-112536184D01*
X20451703Y-112371772D01*
X20515853Y-112216900D01*
X20608985Y-112077519D01*
X20727519Y-111958985D01*
X20866900Y-111865853D01*
X21021772Y-111801703D01*
X21186184Y-111769000D01*
X21353816Y-111769000D01*
X21518228Y-111801703D01*
X21518228Y-111801703D01*
G37*
G36*
X18978228Y-111801703D02*
G01*
X19133100Y-111865853D01*
X19272481Y-111958985D01*
X19391015Y-112077519D01*
X19484147Y-112216900D01*
X19548297Y-112371772D01*
X19581000Y-112536184D01*
X19581000Y-112703816D01*
X19548297Y-112868228D01*
X19484147Y-113023100D01*
X19391015Y-113162481D01*
X19272481Y-113281015D01*
X19133100Y-113374147D01*
X18978228Y-113438297D01*
X18813816Y-113471000D01*
X18646184Y-113471000D01*
X18481772Y-113438297D01*
X18326900Y-113374147D01*
X18187519Y-113281015D01*
X18068985Y-113162481D01*
X17975853Y-113023100D01*
X17911703Y-112868228D01*
X17879000Y-112703816D01*
X17879000Y-112536184D01*
X17911703Y-112371772D01*
X17975853Y-112216900D01*
X18068985Y-112077519D01*
X18187519Y-111958985D01*
X18326900Y-111865853D01*
X18481772Y-111801703D01*
X18646184Y-111769000D01*
X18813816Y-111769000D01*
X18978228Y-111801703D01*
X18978228Y-111801703D01*
G37*
G36*
X3738228Y-111801703D02*
G01*
X3893100Y-111865853D01*
X4032481Y-111958985D01*
X4151015Y-112077519D01*
X4244147Y-112216900D01*
X4308297Y-112371772D01*
X4341000Y-112536184D01*
X4341000Y-112703816D01*
X4308297Y-112868228D01*
X4244147Y-113023100D01*
X4151015Y-113162481D01*
X4032481Y-113281015D01*
X3893100Y-113374147D01*
X3738228Y-113438297D01*
X3573816Y-113471000D01*
X3406184Y-113471000D01*
X3241772Y-113438297D01*
X3086900Y-113374147D01*
X2947519Y-113281015D01*
X2828985Y-113162481D01*
X2735853Y-113023100D01*
X2671703Y-112868228D01*
X2639000Y-112703816D01*
X2639000Y-112536184D01*
X2671703Y-112371772D01*
X2735853Y-112216900D01*
X2828985Y-112077519D01*
X2947519Y-111958985D01*
X3086900Y-111865853D01*
X3241772Y-111801703D01*
X3406184Y-111769000D01*
X3573816Y-111769000D01*
X3738228Y-111801703D01*
X3738228Y-111801703D01*
G37*
G36*
X-1341772Y-111801703D02*
G01*
X-1186900Y-111865853D01*
X-1047519Y-111958985D01*
X-928985Y-112077519D01*
X-835853Y-112216900D01*
X-771703Y-112371772D01*
X-739000Y-112536184D01*
X-739000Y-112703816D01*
X-771703Y-112868228D01*
X-835853Y-113023100D01*
X-928985Y-113162481D01*
X-1047519Y-113281015D01*
X-1186900Y-113374147D01*
X-1341772Y-113438297D01*
X-1506184Y-113471000D01*
X-1673816Y-113471000D01*
X-1838228Y-113438297D01*
X-1993100Y-113374147D01*
X-2132481Y-113281015D01*
X-2251015Y-113162481D01*
X-2344147Y-113023100D01*
X-2408297Y-112868228D01*
X-2441000Y-112703816D01*
X-2441000Y-112536184D01*
X-2408297Y-112371772D01*
X-2344147Y-112216900D01*
X-2251015Y-112077519D01*
X-2132481Y-111958985D01*
X-1993100Y-111865853D01*
X-1838228Y-111801703D01*
X-1673816Y-111769000D01*
X-1506184Y-111769000D01*
X-1341772Y-111801703D01*
X-1341772Y-111801703D01*
G37*
G36*
X16438228Y-111801703D02*
G01*
X16593100Y-111865853D01*
X16732481Y-111958985D01*
X16851015Y-112077519D01*
X16944147Y-112216900D01*
X17008297Y-112371772D01*
X17041000Y-112536184D01*
X17041000Y-112703816D01*
X17008297Y-112868228D01*
X16944147Y-113023100D01*
X16851015Y-113162481D01*
X16732481Y-113281015D01*
X16593100Y-113374147D01*
X16438228Y-113438297D01*
X16273816Y-113471000D01*
X16106184Y-113471000D01*
X15941772Y-113438297D01*
X15786900Y-113374147D01*
X15647519Y-113281015D01*
X15528985Y-113162481D01*
X15435853Y-113023100D01*
X15371703Y-112868228D01*
X15339000Y-112703816D01*
X15339000Y-112536184D01*
X15371703Y-112371772D01*
X15435853Y-112216900D01*
X15528985Y-112077519D01*
X15647519Y-111958985D01*
X15786900Y-111865853D01*
X15941772Y-111801703D01*
X16106184Y-111769000D01*
X16273816Y-111769000D01*
X16438228Y-111801703D01*
X16438228Y-111801703D01*
G37*
G36*
X13898228Y-111801703D02*
G01*
X14053100Y-111865853D01*
X14192481Y-111958985D01*
X14311015Y-112077519D01*
X14404147Y-112216900D01*
X14468297Y-112371772D01*
X14501000Y-112536184D01*
X14501000Y-112703816D01*
X14468297Y-112868228D01*
X14404147Y-113023100D01*
X14311015Y-113162481D01*
X14192481Y-113281015D01*
X14053100Y-113374147D01*
X13898228Y-113438297D01*
X13733816Y-113471000D01*
X13566184Y-113471000D01*
X13401772Y-113438297D01*
X13246900Y-113374147D01*
X13107519Y-113281015D01*
X12988985Y-113162481D01*
X12895853Y-113023100D01*
X12831703Y-112868228D01*
X12799000Y-112703816D01*
X12799000Y-112536184D01*
X12831703Y-112371772D01*
X12895853Y-112216900D01*
X12988985Y-112077519D01*
X13107519Y-111958985D01*
X13246900Y-111865853D01*
X13401772Y-111801703D01*
X13566184Y-111769000D01*
X13733816Y-111769000D01*
X13898228Y-111801703D01*
X13898228Y-111801703D01*
G37*
G36*
X11358228Y-111801703D02*
G01*
X11513100Y-111865853D01*
X11652481Y-111958985D01*
X11771015Y-112077519D01*
X11864147Y-112216900D01*
X11928297Y-112371772D01*
X11961000Y-112536184D01*
X11961000Y-112703816D01*
X11928297Y-112868228D01*
X11864147Y-113023100D01*
X11771015Y-113162481D01*
X11652481Y-113281015D01*
X11513100Y-113374147D01*
X11358228Y-113438297D01*
X11193816Y-113471000D01*
X11026184Y-113471000D01*
X10861772Y-113438297D01*
X10706900Y-113374147D01*
X10567519Y-113281015D01*
X10448985Y-113162481D01*
X10355853Y-113023100D01*
X10291703Y-112868228D01*
X10259000Y-112703816D01*
X10259000Y-112536184D01*
X10291703Y-112371772D01*
X10355853Y-112216900D01*
X10448985Y-112077519D01*
X10567519Y-111958985D01*
X10706900Y-111865853D01*
X10861772Y-111801703D01*
X11026184Y-111769000D01*
X11193816Y-111769000D01*
X11358228Y-111801703D01*
X11358228Y-111801703D01*
G37*
G36*
X8818228Y-111801703D02*
G01*
X8973100Y-111865853D01*
X9112481Y-111958985D01*
X9231015Y-112077519D01*
X9324147Y-112216900D01*
X9388297Y-112371772D01*
X9421000Y-112536184D01*
X9421000Y-112703816D01*
X9388297Y-112868228D01*
X9324147Y-113023100D01*
X9231015Y-113162481D01*
X9112481Y-113281015D01*
X8973100Y-113374147D01*
X8818228Y-113438297D01*
X8653816Y-113471000D01*
X8486184Y-113471000D01*
X8321772Y-113438297D01*
X8166900Y-113374147D01*
X8027519Y-113281015D01*
X7908985Y-113162481D01*
X7815853Y-113023100D01*
X7751703Y-112868228D01*
X7719000Y-112703816D01*
X7719000Y-112536184D01*
X7751703Y-112371772D01*
X7815853Y-112216900D01*
X7908985Y-112077519D01*
X8027519Y-111958985D01*
X8166900Y-111865853D01*
X8321772Y-111801703D01*
X8486184Y-111769000D01*
X8653816Y-111769000D01*
X8818228Y-111801703D01*
X8818228Y-111801703D01*
G37*
G36*
X-34084000Y-111351000D02*
G01*
X-35886000Y-111351000D01*
X-35886000Y-109549000D01*
X-34084000Y-109549000D01*
X-34084000Y-111351000D01*
X-34084000Y-111351000D01*
G37*
G36*
X-17094558Y-109555518D02*
G01*
X-17028373Y-109562037D01*
X-16858534Y-109613557D01*
X-16702009Y-109697222D01*
X-16666271Y-109726552D01*
X-16564814Y-109809814D01*
X-16481552Y-109911271D01*
X-16452222Y-109947009D01*
X-16368557Y-110103534D01*
X-16317037Y-110273373D01*
X-16299641Y-110450000D01*
X-16317037Y-110626627D01*
X-16368557Y-110796466D01*
X-16452222Y-110952991D01*
X-16481552Y-110988729D01*
X-16564814Y-111090186D01*
X-16666271Y-111173448D01*
X-16702009Y-111202778D01*
X-16858534Y-111286443D01*
X-17028373Y-111337963D01*
X-17094558Y-111344482D01*
X-17160740Y-111351000D01*
X-17249260Y-111351000D01*
X-17315442Y-111344482D01*
X-17381627Y-111337963D01*
X-17551466Y-111286443D01*
X-17707991Y-111202778D01*
X-17743729Y-111173448D01*
X-17845186Y-111090186D01*
X-17928448Y-110988729D01*
X-17957778Y-110952991D01*
X-18041443Y-110796466D01*
X-18092963Y-110626627D01*
X-18110359Y-110450000D01*
X-18092963Y-110273373D01*
X-18041443Y-110103534D01*
X-17957778Y-109947009D01*
X-17928448Y-109911271D01*
X-17845186Y-109809814D01*
X-17743729Y-109726552D01*
X-17707991Y-109697222D01*
X-17551466Y-109613557D01*
X-17381627Y-109562037D01*
X-17315442Y-109555518D01*
X-17249260Y-109549000D01*
X-17160740Y-109549000D01*
X-17094558Y-109555518D01*
X-17094558Y-109555518D01*
G37*
G36*
X-19634558Y-109555518D02*
G01*
X-19568373Y-109562037D01*
X-19398534Y-109613557D01*
X-19242009Y-109697222D01*
X-19206271Y-109726552D01*
X-19104814Y-109809814D01*
X-19021552Y-109911271D01*
X-18992222Y-109947009D01*
X-18908557Y-110103534D01*
X-18857037Y-110273373D01*
X-18839641Y-110450000D01*
X-18857037Y-110626627D01*
X-18908557Y-110796466D01*
X-18992222Y-110952991D01*
X-19021552Y-110988729D01*
X-19104814Y-111090186D01*
X-19206271Y-111173448D01*
X-19242009Y-111202778D01*
X-19398534Y-111286443D01*
X-19568373Y-111337963D01*
X-19634558Y-111344482D01*
X-19700740Y-111351000D01*
X-19789260Y-111351000D01*
X-19855442Y-111344482D01*
X-19921627Y-111337963D01*
X-20091466Y-111286443D01*
X-20247991Y-111202778D01*
X-20283729Y-111173448D01*
X-20385186Y-111090186D01*
X-20468448Y-110988729D01*
X-20497778Y-110952991D01*
X-20581443Y-110796466D01*
X-20632963Y-110626627D01*
X-20650359Y-110450000D01*
X-20632963Y-110273373D01*
X-20581443Y-110103534D01*
X-20497778Y-109947009D01*
X-20468448Y-109911271D01*
X-20385186Y-109809814D01*
X-20283729Y-109726552D01*
X-20247991Y-109697222D01*
X-20091466Y-109613557D01*
X-19921627Y-109562037D01*
X-19855442Y-109555518D01*
X-19789260Y-109549000D01*
X-19700740Y-109549000D01*
X-19634558Y-109555518D01*
X-19634558Y-109555518D01*
G37*
G36*
X-22174558Y-109555518D02*
G01*
X-22108373Y-109562037D01*
X-21938534Y-109613557D01*
X-21782009Y-109697222D01*
X-21746271Y-109726552D01*
X-21644814Y-109809814D01*
X-21561552Y-109911271D01*
X-21532222Y-109947009D01*
X-21448557Y-110103534D01*
X-21397037Y-110273373D01*
X-21379641Y-110450000D01*
X-21397037Y-110626627D01*
X-21448557Y-110796466D01*
X-21532222Y-110952991D01*
X-21561552Y-110988729D01*
X-21644814Y-111090186D01*
X-21746271Y-111173448D01*
X-21782009Y-111202778D01*
X-21938534Y-111286443D01*
X-22108373Y-111337963D01*
X-22174558Y-111344482D01*
X-22240740Y-111351000D01*
X-22329260Y-111351000D01*
X-22395442Y-111344482D01*
X-22461627Y-111337963D01*
X-22631466Y-111286443D01*
X-22787991Y-111202778D01*
X-22823729Y-111173448D01*
X-22925186Y-111090186D01*
X-23008448Y-110988729D01*
X-23037778Y-110952991D01*
X-23121443Y-110796466D01*
X-23172963Y-110626627D01*
X-23190359Y-110450000D01*
X-23172963Y-110273373D01*
X-23121443Y-110103534D01*
X-23037778Y-109947009D01*
X-23008448Y-109911271D01*
X-22925186Y-109809814D01*
X-22823729Y-109726552D01*
X-22787991Y-109697222D01*
X-22631466Y-109613557D01*
X-22461627Y-109562037D01*
X-22395442Y-109555518D01*
X-22329260Y-109549000D01*
X-22240740Y-109549000D01*
X-22174558Y-109555518D01*
X-22174558Y-109555518D01*
G37*
G36*
X-24714558Y-109555518D02*
G01*
X-24648373Y-109562037D01*
X-24478534Y-109613557D01*
X-24322009Y-109697222D01*
X-24286271Y-109726552D01*
X-24184814Y-109809814D01*
X-24101552Y-109911271D01*
X-24072222Y-109947009D01*
X-23988557Y-110103534D01*
X-23937037Y-110273373D01*
X-23919641Y-110450000D01*
X-23937037Y-110626627D01*
X-23988557Y-110796466D01*
X-24072222Y-110952991D01*
X-24101552Y-110988729D01*
X-24184814Y-111090186D01*
X-24286271Y-111173448D01*
X-24322009Y-111202778D01*
X-24478534Y-111286443D01*
X-24648373Y-111337963D01*
X-24714558Y-111344482D01*
X-24780740Y-111351000D01*
X-24869260Y-111351000D01*
X-24935442Y-111344482D01*
X-25001627Y-111337963D01*
X-25171466Y-111286443D01*
X-25327991Y-111202778D01*
X-25363729Y-111173448D01*
X-25465186Y-111090186D01*
X-25548448Y-110988729D01*
X-25577778Y-110952991D01*
X-25661443Y-110796466D01*
X-25712963Y-110626627D01*
X-25730359Y-110450000D01*
X-25712963Y-110273373D01*
X-25661443Y-110103534D01*
X-25577778Y-109947009D01*
X-25548448Y-109911271D01*
X-25465186Y-109809814D01*
X-25363729Y-109726552D01*
X-25327991Y-109697222D01*
X-25171466Y-109613557D01*
X-25001627Y-109562037D01*
X-24935442Y-109555518D01*
X-24869260Y-109549000D01*
X-24780740Y-109549000D01*
X-24714558Y-109555518D01*
X-24714558Y-109555518D01*
G37*
G36*
X-27254558Y-109555518D02*
G01*
X-27188373Y-109562037D01*
X-27018534Y-109613557D01*
X-26862009Y-109697222D01*
X-26826271Y-109726552D01*
X-26724814Y-109809814D01*
X-26641552Y-109911271D01*
X-26612222Y-109947009D01*
X-26528557Y-110103534D01*
X-26477037Y-110273373D01*
X-26459641Y-110450000D01*
X-26477037Y-110626627D01*
X-26528557Y-110796466D01*
X-26612222Y-110952991D01*
X-26641552Y-110988729D01*
X-26724814Y-111090186D01*
X-26826271Y-111173448D01*
X-26862009Y-111202778D01*
X-27018534Y-111286443D01*
X-27188373Y-111337963D01*
X-27254558Y-111344482D01*
X-27320740Y-111351000D01*
X-27409260Y-111351000D01*
X-27475442Y-111344482D01*
X-27541627Y-111337963D01*
X-27711466Y-111286443D01*
X-27867991Y-111202778D01*
X-27903729Y-111173448D01*
X-28005186Y-111090186D01*
X-28088448Y-110988729D01*
X-28117778Y-110952991D01*
X-28201443Y-110796466D01*
X-28252963Y-110626627D01*
X-28270359Y-110450000D01*
X-28252963Y-110273373D01*
X-28201443Y-110103534D01*
X-28117778Y-109947009D01*
X-28088448Y-109911271D01*
X-28005186Y-109809814D01*
X-27903729Y-109726552D01*
X-27867991Y-109697222D01*
X-27711466Y-109613557D01*
X-27541627Y-109562037D01*
X-27475442Y-109555518D01*
X-27409260Y-109549000D01*
X-27320740Y-109549000D01*
X-27254558Y-109555518D01*
X-27254558Y-109555518D01*
G37*
G36*
X-29794558Y-109555518D02*
G01*
X-29728373Y-109562037D01*
X-29558534Y-109613557D01*
X-29402009Y-109697222D01*
X-29366271Y-109726552D01*
X-29264814Y-109809814D01*
X-29181552Y-109911271D01*
X-29152222Y-109947009D01*
X-29068557Y-110103534D01*
X-29017037Y-110273373D01*
X-28999641Y-110450000D01*
X-29017037Y-110626627D01*
X-29068557Y-110796466D01*
X-29152222Y-110952991D01*
X-29181552Y-110988729D01*
X-29264814Y-111090186D01*
X-29366271Y-111173448D01*
X-29402009Y-111202778D01*
X-29558534Y-111286443D01*
X-29728373Y-111337963D01*
X-29794558Y-111344482D01*
X-29860740Y-111351000D01*
X-29949260Y-111351000D01*
X-30015442Y-111344482D01*
X-30081627Y-111337963D01*
X-30251466Y-111286443D01*
X-30407991Y-111202778D01*
X-30443729Y-111173448D01*
X-30545186Y-111090186D01*
X-30628448Y-110988729D01*
X-30657778Y-110952991D01*
X-30741443Y-110796466D01*
X-30792963Y-110626627D01*
X-30810359Y-110450000D01*
X-30792963Y-110273373D01*
X-30741443Y-110103534D01*
X-30657778Y-109947009D01*
X-30628448Y-109911271D01*
X-30545186Y-109809814D01*
X-30443729Y-109726552D01*
X-30407991Y-109697222D01*
X-30251466Y-109613557D01*
X-30081627Y-109562037D01*
X-30015442Y-109555518D01*
X-29949260Y-109549000D01*
X-29860740Y-109549000D01*
X-29794558Y-109555518D01*
X-29794558Y-109555518D01*
G37*
G36*
X-32334558Y-109555518D02*
G01*
X-32268373Y-109562037D01*
X-32098534Y-109613557D01*
X-31942009Y-109697222D01*
X-31906271Y-109726552D01*
X-31804814Y-109809814D01*
X-31721552Y-109911271D01*
X-31692222Y-109947009D01*
X-31608557Y-110103534D01*
X-31557037Y-110273373D01*
X-31539641Y-110450000D01*
X-31557037Y-110626627D01*
X-31608557Y-110796466D01*
X-31692222Y-110952991D01*
X-31721552Y-110988729D01*
X-31804814Y-111090186D01*
X-31906271Y-111173448D01*
X-31942009Y-111202778D01*
X-32098534Y-111286443D01*
X-32268373Y-111337963D01*
X-32334558Y-111344482D01*
X-32400740Y-111351000D01*
X-32489260Y-111351000D01*
X-32555442Y-111344482D01*
X-32621627Y-111337963D01*
X-32791466Y-111286443D01*
X-32947991Y-111202778D01*
X-32983729Y-111173448D01*
X-33085186Y-111090186D01*
X-33168448Y-110988729D01*
X-33197778Y-110952991D01*
X-33281443Y-110796466D01*
X-33332963Y-110626627D01*
X-33350359Y-110450000D01*
X-33332963Y-110273373D01*
X-33281443Y-110103534D01*
X-33197778Y-109947009D01*
X-33168448Y-109911271D01*
X-33085186Y-109809814D01*
X-32983729Y-109726552D01*
X-32947991Y-109697222D01*
X-32791466Y-109613557D01*
X-32621627Y-109562037D01*
X-32555442Y-109555518D01*
X-32489260Y-109549000D01*
X-32400740Y-109549000D01*
X-32334558Y-109555518D01*
X-32334558Y-109555518D01*
G37*
G36*
X3738228Y-109261703D02*
G01*
X3893100Y-109325853D01*
X4032481Y-109418985D01*
X4151015Y-109537519D01*
X4244147Y-109676900D01*
X4308297Y-109831772D01*
X4341000Y-109996184D01*
X4341000Y-110163816D01*
X4308297Y-110328228D01*
X4244147Y-110483100D01*
X4151015Y-110622481D01*
X4032481Y-110741015D01*
X3893100Y-110834147D01*
X3738228Y-110898297D01*
X3573816Y-110931000D01*
X3406184Y-110931000D01*
X3241772Y-110898297D01*
X3086900Y-110834147D01*
X2947519Y-110741015D01*
X2828985Y-110622481D01*
X2735853Y-110483100D01*
X2671703Y-110328228D01*
X2639000Y-110163816D01*
X2639000Y-109996184D01*
X2671703Y-109831772D01*
X2735853Y-109676900D01*
X2828985Y-109537519D01*
X2947519Y-109418985D01*
X3086900Y-109325853D01*
X3241772Y-109261703D01*
X3406184Y-109229000D01*
X3573816Y-109229000D01*
X3738228Y-109261703D01*
X3738228Y-109261703D01*
G37*
G36*
X-1341772Y-109261703D02*
G01*
X-1186900Y-109325853D01*
X-1047519Y-109418985D01*
X-928985Y-109537519D01*
X-835853Y-109676900D01*
X-771703Y-109831772D01*
X-739000Y-109996184D01*
X-739000Y-110163816D01*
X-771703Y-110328228D01*
X-835853Y-110483100D01*
X-928985Y-110622481D01*
X-1047519Y-110741015D01*
X-1186900Y-110834147D01*
X-1341772Y-110898297D01*
X-1506184Y-110931000D01*
X-1673816Y-110931000D01*
X-1838228Y-110898297D01*
X-1993100Y-110834147D01*
X-2132481Y-110741015D01*
X-2251015Y-110622481D01*
X-2344147Y-110483100D01*
X-2408297Y-110328228D01*
X-2441000Y-110163816D01*
X-2441000Y-109996184D01*
X-2408297Y-109831772D01*
X-2344147Y-109676900D01*
X-2251015Y-109537519D01*
X-2132481Y-109418985D01*
X-1993100Y-109325853D01*
X-1838228Y-109261703D01*
X-1673816Y-109229000D01*
X-1506184Y-109229000D01*
X-1341772Y-109261703D01*
X-1341772Y-109261703D01*
G37*
G36*
X34218228Y-109261703D02*
G01*
X34373100Y-109325853D01*
X34512481Y-109418985D01*
X34631015Y-109537519D01*
X34724147Y-109676900D01*
X34788297Y-109831772D01*
X34821000Y-109996184D01*
X34821000Y-110163816D01*
X34788297Y-110328228D01*
X34724147Y-110483100D01*
X34631015Y-110622481D01*
X34512481Y-110741015D01*
X34373100Y-110834147D01*
X34218228Y-110898297D01*
X34053816Y-110931000D01*
X33886184Y-110931000D01*
X33721772Y-110898297D01*
X33566900Y-110834147D01*
X33427519Y-110741015D01*
X33308985Y-110622481D01*
X33215853Y-110483100D01*
X33151703Y-110328228D01*
X33119000Y-110163816D01*
X33119000Y-109996184D01*
X33151703Y-109831772D01*
X33215853Y-109676900D01*
X33308985Y-109537519D01*
X33427519Y-109418985D01*
X33566900Y-109325853D01*
X33721772Y-109261703D01*
X33886184Y-109229000D01*
X34053816Y-109229000D01*
X34218228Y-109261703D01*
X34218228Y-109261703D01*
G37*
G36*
X29138228Y-109261703D02*
G01*
X29293100Y-109325853D01*
X29432481Y-109418985D01*
X29551015Y-109537519D01*
X29644147Y-109676900D01*
X29708297Y-109831772D01*
X29741000Y-109996184D01*
X29741000Y-110163816D01*
X29708297Y-110328228D01*
X29644147Y-110483100D01*
X29551015Y-110622481D01*
X29432481Y-110741015D01*
X29293100Y-110834147D01*
X29138228Y-110898297D01*
X28973816Y-110931000D01*
X28806184Y-110931000D01*
X28641772Y-110898297D01*
X28486900Y-110834147D01*
X28347519Y-110741015D01*
X28228985Y-110622481D01*
X28135853Y-110483100D01*
X28071703Y-110328228D01*
X28039000Y-110163816D01*
X28039000Y-109996184D01*
X28071703Y-109831772D01*
X28135853Y-109676900D01*
X28228985Y-109537519D01*
X28347519Y-109418985D01*
X28486900Y-109325853D01*
X28641772Y-109261703D01*
X28806184Y-109229000D01*
X28973816Y-109229000D01*
X29138228Y-109261703D01*
X29138228Y-109261703D01*
G37*
G36*
X26598228Y-109261703D02*
G01*
X26753100Y-109325853D01*
X26892481Y-109418985D01*
X27011015Y-109537519D01*
X27104147Y-109676900D01*
X27168297Y-109831772D01*
X27201000Y-109996184D01*
X27201000Y-110163816D01*
X27168297Y-110328228D01*
X27104147Y-110483100D01*
X27011015Y-110622481D01*
X26892481Y-110741015D01*
X26753100Y-110834147D01*
X26598228Y-110898297D01*
X26433816Y-110931000D01*
X26266184Y-110931000D01*
X26101772Y-110898297D01*
X25946900Y-110834147D01*
X25807519Y-110741015D01*
X25688985Y-110622481D01*
X25595853Y-110483100D01*
X25531703Y-110328228D01*
X25499000Y-110163816D01*
X25499000Y-109996184D01*
X25531703Y-109831772D01*
X25595853Y-109676900D01*
X25688985Y-109537519D01*
X25807519Y-109418985D01*
X25946900Y-109325853D01*
X26101772Y-109261703D01*
X26266184Y-109229000D01*
X26433816Y-109229000D01*
X26598228Y-109261703D01*
X26598228Y-109261703D01*
G37*
G36*
X24058228Y-109261703D02*
G01*
X24213100Y-109325853D01*
X24352481Y-109418985D01*
X24471015Y-109537519D01*
X24564147Y-109676900D01*
X24628297Y-109831772D01*
X24661000Y-109996184D01*
X24661000Y-110163816D01*
X24628297Y-110328228D01*
X24564147Y-110483100D01*
X24471015Y-110622481D01*
X24352481Y-110741015D01*
X24213100Y-110834147D01*
X24058228Y-110898297D01*
X23893816Y-110931000D01*
X23726184Y-110931000D01*
X23561772Y-110898297D01*
X23406900Y-110834147D01*
X23267519Y-110741015D01*
X23148985Y-110622481D01*
X23055853Y-110483100D01*
X22991703Y-110328228D01*
X22959000Y-110163816D01*
X22959000Y-109996184D01*
X22991703Y-109831772D01*
X23055853Y-109676900D01*
X23148985Y-109537519D01*
X23267519Y-109418985D01*
X23406900Y-109325853D01*
X23561772Y-109261703D01*
X23726184Y-109229000D01*
X23893816Y-109229000D01*
X24058228Y-109261703D01*
X24058228Y-109261703D01*
G37*
G36*
X21518228Y-106721703D02*
G01*
X21673100Y-106785853D01*
X21812481Y-106878985D01*
X21931015Y-106997519D01*
X22024147Y-107136900D01*
X22088297Y-107291772D01*
X22121000Y-107456184D01*
X22121000Y-107623816D01*
X22088297Y-107788228D01*
X22024147Y-107943100D01*
X21931015Y-108082481D01*
X21812481Y-108201015D01*
X21673100Y-108294147D01*
X21518228Y-108358297D01*
X21353816Y-108391000D01*
X21186184Y-108391000D01*
X21021772Y-108358297D01*
X20866900Y-108294147D01*
X20727519Y-108201015D01*
X20608985Y-108082481D01*
X20515853Y-107943100D01*
X20451703Y-107788228D01*
X20419000Y-107623816D01*
X20419000Y-107456184D01*
X20451703Y-107291772D01*
X20515853Y-107136900D01*
X20608985Y-106997519D01*
X20727519Y-106878985D01*
X20866900Y-106785853D01*
X21021772Y-106721703D01*
X21186184Y-106689000D01*
X21353816Y-106689000D01*
X21518228Y-106721703D01*
X21518228Y-106721703D01*
G37*
G36*
X18978228Y-106721703D02*
G01*
X19133100Y-106785853D01*
X19272481Y-106878985D01*
X19391015Y-106997519D01*
X19484147Y-107136900D01*
X19548297Y-107291772D01*
X19581000Y-107456184D01*
X19581000Y-107623816D01*
X19548297Y-107788228D01*
X19484147Y-107943100D01*
X19391015Y-108082481D01*
X19272481Y-108201015D01*
X19133100Y-108294147D01*
X18978228Y-108358297D01*
X18813816Y-108391000D01*
X18646184Y-108391000D01*
X18481772Y-108358297D01*
X18326900Y-108294147D01*
X18187519Y-108201015D01*
X18068985Y-108082481D01*
X17975853Y-107943100D01*
X17911703Y-107788228D01*
X17879000Y-107623816D01*
X17879000Y-107456184D01*
X17911703Y-107291772D01*
X17975853Y-107136900D01*
X18068985Y-106997519D01*
X18187519Y-106878985D01*
X18326900Y-106785853D01*
X18481772Y-106721703D01*
X18646184Y-106689000D01*
X18813816Y-106689000D01*
X18978228Y-106721703D01*
X18978228Y-106721703D01*
G37*
G36*
X-1341772Y-106721703D02*
G01*
X-1186900Y-106785853D01*
X-1047519Y-106878985D01*
X-928985Y-106997519D01*
X-835853Y-107136900D01*
X-771703Y-107291772D01*
X-739000Y-107456184D01*
X-739000Y-107623816D01*
X-771703Y-107788228D01*
X-835853Y-107943100D01*
X-928985Y-108082481D01*
X-1047519Y-108201015D01*
X-1186900Y-108294147D01*
X-1341772Y-108358297D01*
X-1506184Y-108391000D01*
X-1673816Y-108391000D01*
X-1838228Y-108358297D01*
X-1993100Y-108294147D01*
X-2132481Y-108201015D01*
X-2251015Y-108082481D01*
X-2344147Y-107943100D01*
X-2408297Y-107788228D01*
X-2441000Y-107623816D01*
X-2441000Y-107456184D01*
X-2408297Y-107291772D01*
X-2344147Y-107136900D01*
X-2251015Y-106997519D01*
X-2132481Y-106878985D01*
X-1993100Y-106785853D01*
X-1838228Y-106721703D01*
X-1673816Y-106689000D01*
X-1506184Y-106689000D01*
X-1341772Y-106721703D01*
X-1341772Y-106721703D01*
G37*
G36*
X16438228Y-106721703D02*
G01*
X16593100Y-106785853D01*
X16732481Y-106878985D01*
X16851015Y-106997519D01*
X16944147Y-107136900D01*
X17008297Y-107291772D01*
X17041000Y-107456184D01*
X17041000Y-107623816D01*
X17008297Y-107788228D01*
X16944147Y-107943100D01*
X16851015Y-108082481D01*
X16732481Y-108201015D01*
X16593100Y-108294147D01*
X16438228Y-108358297D01*
X16273816Y-108391000D01*
X16106184Y-108391000D01*
X15941772Y-108358297D01*
X15786900Y-108294147D01*
X15647519Y-108201015D01*
X15528985Y-108082481D01*
X15435853Y-107943100D01*
X15371703Y-107788228D01*
X15339000Y-107623816D01*
X15339000Y-107456184D01*
X15371703Y-107291772D01*
X15435853Y-107136900D01*
X15528985Y-106997519D01*
X15647519Y-106878985D01*
X15786900Y-106785853D01*
X15941772Y-106721703D01*
X16106184Y-106689000D01*
X16273816Y-106689000D01*
X16438228Y-106721703D01*
X16438228Y-106721703D01*
G37*
G36*
X13898228Y-106721703D02*
G01*
X14053100Y-106785853D01*
X14192481Y-106878985D01*
X14311015Y-106997519D01*
X14404147Y-107136900D01*
X14468297Y-107291772D01*
X14501000Y-107456184D01*
X14501000Y-107623816D01*
X14468297Y-107788228D01*
X14404147Y-107943100D01*
X14311015Y-108082481D01*
X14192481Y-108201015D01*
X14053100Y-108294147D01*
X13898228Y-108358297D01*
X13733816Y-108391000D01*
X13566184Y-108391000D01*
X13401772Y-108358297D01*
X13246900Y-108294147D01*
X13107519Y-108201015D01*
X12988985Y-108082481D01*
X12895853Y-107943100D01*
X12831703Y-107788228D01*
X12799000Y-107623816D01*
X12799000Y-107456184D01*
X12831703Y-107291772D01*
X12895853Y-107136900D01*
X12988985Y-106997519D01*
X13107519Y-106878985D01*
X13246900Y-106785853D01*
X13401772Y-106721703D01*
X13566184Y-106689000D01*
X13733816Y-106689000D01*
X13898228Y-106721703D01*
X13898228Y-106721703D01*
G37*
G36*
X11358228Y-106721703D02*
G01*
X11513100Y-106785853D01*
X11652481Y-106878985D01*
X11771015Y-106997519D01*
X11864147Y-107136900D01*
X11928297Y-107291772D01*
X11961000Y-107456184D01*
X11961000Y-107623816D01*
X11928297Y-107788228D01*
X11864147Y-107943100D01*
X11771015Y-108082481D01*
X11652481Y-108201015D01*
X11513100Y-108294147D01*
X11358228Y-108358297D01*
X11193816Y-108391000D01*
X11026184Y-108391000D01*
X10861772Y-108358297D01*
X10706900Y-108294147D01*
X10567519Y-108201015D01*
X10448985Y-108082481D01*
X10355853Y-107943100D01*
X10291703Y-107788228D01*
X10259000Y-107623816D01*
X10259000Y-107456184D01*
X10291703Y-107291772D01*
X10355853Y-107136900D01*
X10448985Y-106997519D01*
X10567519Y-106878985D01*
X10706900Y-106785853D01*
X10861772Y-106721703D01*
X11026184Y-106689000D01*
X11193816Y-106689000D01*
X11358228Y-106721703D01*
X11358228Y-106721703D01*
G37*
G36*
X3738228Y-106721703D02*
G01*
X3893100Y-106785853D01*
X4032481Y-106878985D01*
X4151015Y-106997519D01*
X4244147Y-107136900D01*
X4308297Y-107291772D01*
X4341000Y-107456184D01*
X4341000Y-107623816D01*
X4308297Y-107788228D01*
X4244147Y-107943100D01*
X4151015Y-108082481D01*
X4032481Y-108201015D01*
X3893100Y-108294147D01*
X3738228Y-108358297D01*
X3573816Y-108391000D01*
X3406184Y-108391000D01*
X3241772Y-108358297D01*
X3086900Y-108294147D01*
X2947519Y-108201015D01*
X2828985Y-108082481D01*
X2735853Y-107943100D01*
X2671703Y-107788228D01*
X2639000Y-107623816D01*
X2639000Y-107456184D01*
X2671703Y-107291772D01*
X2735853Y-107136900D01*
X2828985Y-106997519D01*
X2947519Y-106878985D01*
X3086900Y-106785853D01*
X3241772Y-106721703D01*
X3406184Y-106689000D01*
X3573816Y-106689000D01*
X3738228Y-106721703D01*
X3738228Y-106721703D01*
G37*
G36*
X8818228Y-106721703D02*
G01*
X8973100Y-106785853D01*
X9112481Y-106878985D01*
X9231015Y-106997519D01*
X9324147Y-107136900D01*
X9388297Y-107291772D01*
X9421000Y-107456184D01*
X9421000Y-107623816D01*
X9388297Y-107788228D01*
X9324147Y-107943100D01*
X9231015Y-108082481D01*
X9112481Y-108201015D01*
X8973100Y-108294147D01*
X8818228Y-108358297D01*
X8653816Y-108391000D01*
X8486184Y-108391000D01*
X8321772Y-108358297D01*
X8166900Y-108294147D01*
X8027519Y-108201015D01*
X7908985Y-108082481D01*
X7815853Y-107943100D01*
X7751703Y-107788228D01*
X7719000Y-107623816D01*
X7719000Y-107456184D01*
X7751703Y-107291772D01*
X7815853Y-107136900D01*
X7908985Y-106997519D01*
X8027519Y-106878985D01*
X8166900Y-106785853D01*
X8321772Y-106721703D01*
X8486184Y-106689000D01*
X8653816Y-106689000D01*
X8818228Y-106721703D01*
X8818228Y-106721703D01*
G37*
G36*
X6278228Y-106721703D02*
G01*
X6433100Y-106785853D01*
X6572481Y-106878985D01*
X6691015Y-106997519D01*
X6784147Y-107136900D01*
X6848297Y-107291772D01*
X6881000Y-107456184D01*
X6881000Y-107623816D01*
X6848297Y-107788228D01*
X6784147Y-107943100D01*
X6691015Y-108082481D01*
X6572481Y-108201015D01*
X6433100Y-108294147D01*
X6278228Y-108358297D01*
X6113816Y-108391000D01*
X5946184Y-108391000D01*
X5781772Y-108358297D01*
X5626900Y-108294147D01*
X5487519Y-108201015D01*
X5368985Y-108082481D01*
X5275853Y-107943100D01*
X5211703Y-107788228D01*
X5179000Y-107623816D01*
X5179000Y-107456184D01*
X5211703Y-107291772D01*
X5275853Y-107136900D01*
X5368985Y-106997519D01*
X5487519Y-106878985D01*
X5626900Y-106785853D01*
X5781772Y-106721703D01*
X5946184Y-106689000D01*
X6113816Y-106689000D01*
X6278228Y-106721703D01*
X6278228Y-106721703D01*
G37*
G36*
X13898228Y-104181703D02*
G01*
X14053100Y-104245853D01*
X14192481Y-104338985D01*
X14311015Y-104457519D01*
X14404147Y-104596900D01*
X14468297Y-104751772D01*
X14501000Y-104916184D01*
X14501000Y-105083816D01*
X14468297Y-105248228D01*
X14404147Y-105403100D01*
X14311015Y-105542481D01*
X14192481Y-105661015D01*
X14053100Y-105754147D01*
X13898228Y-105818297D01*
X13733816Y-105851000D01*
X13566184Y-105851000D01*
X13401772Y-105818297D01*
X13246900Y-105754147D01*
X13107519Y-105661015D01*
X12988985Y-105542481D01*
X12895853Y-105403100D01*
X12831703Y-105248228D01*
X12799000Y-105083816D01*
X12799000Y-104916184D01*
X12831703Y-104751772D01*
X12895853Y-104596900D01*
X12988985Y-104457519D01*
X13107519Y-104338985D01*
X13246900Y-104245853D01*
X13401772Y-104181703D01*
X13566184Y-104149000D01*
X13733816Y-104149000D01*
X13898228Y-104181703D01*
X13898228Y-104181703D01*
G37*
G36*
X8818228Y-104181703D02*
G01*
X8973100Y-104245853D01*
X9112481Y-104338985D01*
X9231015Y-104457519D01*
X9324147Y-104596900D01*
X9388297Y-104751772D01*
X9421000Y-104916184D01*
X9421000Y-105083816D01*
X9388297Y-105248228D01*
X9324147Y-105403100D01*
X9231015Y-105542481D01*
X9112481Y-105661015D01*
X8973100Y-105754147D01*
X8818228Y-105818297D01*
X8653816Y-105851000D01*
X8486184Y-105851000D01*
X8321772Y-105818297D01*
X8166900Y-105754147D01*
X8027519Y-105661015D01*
X7908985Y-105542481D01*
X7815853Y-105403100D01*
X7751703Y-105248228D01*
X7719000Y-105083816D01*
X7719000Y-104916184D01*
X7751703Y-104751772D01*
X7815853Y-104596900D01*
X7908985Y-104457519D01*
X8027519Y-104338985D01*
X8166900Y-104245853D01*
X8321772Y-104181703D01*
X8486184Y-104149000D01*
X8653816Y-104149000D01*
X8818228Y-104181703D01*
X8818228Y-104181703D01*
G37*
G36*
X-1341772Y-104181703D02*
G01*
X-1186900Y-104245853D01*
X-1047519Y-104338985D01*
X-928985Y-104457519D01*
X-835853Y-104596900D01*
X-771703Y-104751772D01*
X-739000Y-104916184D01*
X-739000Y-105083816D01*
X-771703Y-105248228D01*
X-835853Y-105403100D01*
X-928985Y-105542481D01*
X-1047519Y-105661015D01*
X-1186900Y-105754147D01*
X-1341772Y-105818297D01*
X-1506184Y-105851000D01*
X-1673816Y-105851000D01*
X-1838228Y-105818297D01*
X-1993100Y-105754147D01*
X-2132481Y-105661015D01*
X-2251015Y-105542481D01*
X-2344147Y-105403100D01*
X-2408297Y-105248228D01*
X-2441000Y-105083816D01*
X-2441000Y-104916184D01*
X-2408297Y-104751772D01*
X-2344147Y-104596900D01*
X-2251015Y-104457519D01*
X-2132481Y-104338985D01*
X-1993100Y-104245853D01*
X-1838228Y-104181703D01*
X-1673816Y-104149000D01*
X-1506184Y-104149000D01*
X-1341772Y-104181703D01*
X-1341772Y-104181703D01*
G37*
G36*
X3738228Y-104181703D02*
G01*
X3893100Y-104245853D01*
X4032481Y-104338985D01*
X4151015Y-104457519D01*
X4244147Y-104596900D01*
X4308297Y-104751772D01*
X4341000Y-104916184D01*
X4341000Y-105083816D01*
X4308297Y-105248228D01*
X4244147Y-105403100D01*
X4151015Y-105542481D01*
X4032481Y-105661015D01*
X3893100Y-105754147D01*
X3738228Y-105818297D01*
X3573816Y-105851000D01*
X3406184Y-105851000D01*
X3241772Y-105818297D01*
X3086900Y-105754147D01*
X2947519Y-105661015D01*
X2828985Y-105542481D01*
X2735853Y-105403100D01*
X2671703Y-105248228D01*
X2639000Y-105083816D01*
X2639000Y-104916184D01*
X2671703Y-104751772D01*
X2735853Y-104596900D01*
X2828985Y-104457519D01*
X2947519Y-104338985D01*
X3086900Y-104245853D01*
X3241772Y-104181703D01*
X3406184Y-104149000D01*
X3573816Y-104149000D01*
X3738228Y-104181703D01*
X3738228Y-104181703D01*
G37*
G36*
X21518228Y-104181703D02*
G01*
X21673100Y-104245853D01*
X21812481Y-104338985D01*
X21931015Y-104457519D01*
X22024147Y-104596900D01*
X22088297Y-104751772D01*
X22121000Y-104916184D01*
X22121000Y-105083816D01*
X22088297Y-105248228D01*
X22024147Y-105403100D01*
X21931015Y-105542481D01*
X21812481Y-105661015D01*
X21673100Y-105754147D01*
X21518228Y-105818297D01*
X21353816Y-105851000D01*
X21186184Y-105851000D01*
X21021772Y-105818297D01*
X20866900Y-105754147D01*
X20727519Y-105661015D01*
X20608985Y-105542481D01*
X20515853Y-105403100D01*
X20451703Y-105248228D01*
X20419000Y-105083816D01*
X20419000Y-104916184D01*
X20451703Y-104751772D01*
X20515853Y-104596900D01*
X20608985Y-104457519D01*
X20727519Y-104338985D01*
X20866900Y-104245853D01*
X21021772Y-104181703D01*
X21186184Y-104149000D01*
X21353816Y-104149000D01*
X21518228Y-104181703D01*
X21518228Y-104181703D01*
G37*
G36*
X18978228Y-104181703D02*
G01*
X19133100Y-104245853D01*
X19272481Y-104338985D01*
X19391015Y-104457519D01*
X19484147Y-104596900D01*
X19548297Y-104751772D01*
X19581000Y-104916184D01*
X19581000Y-105083816D01*
X19548297Y-105248228D01*
X19484147Y-105403100D01*
X19391015Y-105542481D01*
X19272481Y-105661015D01*
X19133100Y-105754147D01*
X18978228Y-105818297D01*
X18813816Y-105851000D01*
X18646184Y-105851000D01*
X18481772Y-105818297D01*
X18326900Y-105754147D01*
X18187519Y-105661015D01*
X18068985Y-105542481D01*
X17975853Y-105403100D01*
X17911703Y-105248228D01*
X17879000Y-105083816D01*
X17879000Y-104916184D01*
X17911703Y-104751772D01*
X17975853Y-104596900D01*
X18068985Y-104457519D01*
X18187519Y-104338985D01*
X18326900Y-104245853D01*
X18481772Y-104181703D01*
X18646184Y-104149000D01*
X18813816Y-104149000D01*
X18978228Y-104181703D01*
X18978228Y-104181703D01*
G37*
G36*
X16438228Y-104181703D02*
G01*
X16593100Y-104245853D01*
X16732481Y-104338985D01*
X16851015Y-104457519D01*
X16944147Y-104596900D01*
X17008297Y-104751772D01*
X17041000Y-104916184D01*
X17041000Y-105083816D01*
X17008297Y-105248228D01*
X16944147Y-105403100D01*
X16851015Y-105542481D01*
X16732481Y-105661015D01*
X16593100Y-105754147D01*
X16438228Y-105818297D01*
X16273816Y-105851000D01*
X16106184Y-105851000D01*
X15941772Y-105818297D01*
X15786900Y-105754147D01*
X15647519Y-105661015D01*
X15528985Y-105542481D01*
X15435853Y-105403100D01*
X15371703Y-105248228D01*
X15339000Y-105083816D01*
X15339000Y-104916184D01*
X15371703Y-104751772D01*
X15435853Y-104596900D01*
X15528985Y-104457519D01*
X15647519Y-104338985D01*
X15786900Y-104245853D01*
X15941772Y-104181703D01*
X16106184Y-104149000D01*
X16273816Y-104149000D01*
X16438228Y-104181703D01*
X16438228Y-104181703D01*
G37*
G36*
X11358228Y-104181703D02*
G01*
X11513100Y-104245853D01*
X11652481Y-104338985D01*
X11771015Y-104457519D01*
X11864147Y-104596900D01*
X11928297Y-104751772D01*
X11961000Y-104916184D01*
X11961000Y-105083816D01*
X11928297Y-105248228D01*
X11864147Y-105403100D01*
X11771015Y-105542481D01*
X11652481Y-105661015D01*
X11513100Y-105754147D01*
X11358228Y-105818297D01*
X11193816Y-105851000D01*
X11026184Y-105851000D01*
X10861772Y-105818297D01*
X10706900Y-105754147D01*
X10567519Y-105661015D01*
X10448985Y-105542481D01*
X10355853Y-105403100D01*
X10291703Y-105248228D01*
X10259000Y-105083816D01*
X10259000Y-104916184D01*
X10291703Y-104751772D01*
X10355853Y-104596900D01*
X10448985Y-104457519D01*
X10567519Y-104338985D01*
X10706900Y-104245853D01*
X10861772Y-104181703D01*
X11026184Y-104149000D01*
X11193816Y-104149000D01*
X11358228Y-104181703D01*
X11358228Y-104181703D01*
G37*
G36*
X6278228Y-104181703D02*
G01*
X6433100Y-104245853D01*
X6572481Y-104338985D01*
X6691015Y-104457519D01*
X6784147Y-104596900D01*
X6848297Y-104751772D01*
X6881000Y-104916184D01*
X6881000Y-105083816D01*
X6848297Y-105248228D01*
X6784147Y-105403100D01*
X6691015Y-105542481D01*
X6572481Y-105661015D01*
X6433100Y-105754147D01*
X6278228Y-105818297D01*
X6113816Y-105851000D01*
X5946184Y-105851000D01*
X5781772Y-105818297D01*
X5626900Y-105754147D01*
X5487519Y-105661015D01*
X5368985Y-105542481D01*
X5275853Y-105403100D01*
X5211703Y-105248228D01*
X5179000Y-105083816D01*
X5179000Y-104916184D01*
X5211703Y-104751772D01*
X5275853Y-104596900D01*
X5368985Y-104457519D01*
X5487519Y-104338985D01*
X5626900Y-104245853D01*
X5781772Y-104181703D01*
X5946184Y-104149000D01*
X6113816Y-104149000D01*
X6278228Y-104181703D01*
X6278228Y-104181703D01*
G37*
G36*
X-1341772Y-101641703D02*
G01*
X-1186900Y-101705853D01*
X-1047519Y-101798985D01*
X-928985Y-101917519D01*
X-835853Y-102056900D01*
X-771703Y-102211772D01*
X-739000Y-102376184D01*
X-739000Y-102543816D01*
X-771703Y-102708228D01*
X-835853Y-102863100D01*
X-928985Y-103002481D01*
X-1047519Y-103121015D01*
X-1186900Y-103214147D01*
X-1341772Y-103278297D01*
X-1506184Y-103311000D01*
X-1673816Y-103311000D01*
X-1838228Y-103278297D01*
X-1993100Y-103214147D01*
X-2132481Y-103121015D01*
X-2251015Y-103002481D01*
X-2344147Y-102863100D01*
X-2408297Y-102708228D01*
X-2441000Y-102543816D01*
X-2441000Y-102376184D01*
X-2408297Y-102211772D01*
X-2344147Y-102056900D01*
X-2251015Y-101917519D01*
X-2132481Y-101798985D01*
X-1993100Y-101705853D01*
X-1838228Y-101641703D01*
X-1673816Y-101609000D01*
X-1506184Y-101609000D01*
X-1341772Y-101641703D01*
X-1341772Y-101641703D01*
G37*
G36*
X3738228Y-101641703D02*
G01*
X3893100Y-101705853D01*
X4032481Y-101798985D01*
X4151015Y-101917519D01*
X4244147Y-102056900D01*
X4308297Y-102211772D01*
X4341000Y-102376184D01*
X4341000Y-102543816D01*
X4308297Y-102708228D01*
X4244147Y-102863100D01*
X4151015Y-103002481D01*
X4032481Y-103121015D01*
X3893100Y-103214147D01*
X3738228Y-103278297D01*
X3573816Y-103311000D01*
X3406184Y-103311000D01*
X3241772Y-103278297D01*
X3086900Y-103214147D01*
X2947519Y-103121015D01*
X2828985Y-103002481D01*
X2735853Y-102863100D01*
X2671703Y-102708228D01*
X2639000Y-102543816D01*
X2639000Y-102376184D01*
X2671703Y-102211772D01*
X2735853Y-102056900D01*
X2828985Y-101917519D01*
X2947519Y-101798985D01*
X3086900Y-101705853D01*
X3241772Y-101641703D01*
X3406184Y-101609000D01*
X3573816Y-101609000D01*
X3738228Y-101641703D01*
X3738228Y-101641703D01*
G37*
G36*
X-1341772Y-99101703D02*
G01*
X-1186900Y-99165853D01*
X-1047519Y-99258985D01*
X-928985Y-99377519D01*
X-835853Y-99516900D01*
X-771703Y-99671772D01*
X-739000Y-99836184D01*
X-739000Y-100003816D01*
X-771703Y-100168228D01*
X-835853Y-100323100D01*
X-928985Y-100462481D01*
X-1047519Y-100581015D01*
X-1186900Y-100674147D01*
X-1341772Y-100738297D01*
X-1506184Y-100771000D01*
X-1673816Y-100771000D01*
X-1838228Y-100738297D01*
X-1993100Y-100674147D01*
X-2132481Y-100581015D01*
X-2251015Y-100462481D01*
X-2344147Y-100323100D01*
X-2408297Y-100168228D01*
X-2441000Y-100003816D01*
X-2441000Y-99836184D01*
X-2408297Y-99671772D01*
X-2344147Y-99516900D01*
X-2251015Y-99377519D01*
X-2132481Y-99258985D01*
X-1993100Y-99165853D01*
X-1838228Y-99101703D01*
X-1673816Y-99069000D01*
X-1506184Y-99069000D01*
X-1341772Y-99101703D01*
X-1341772Y-99101703D01*
G37*
G36*
X3738228Y-99101703D02*
G01*
X3893100Y-99165853D01*
X4032481Y-99258985D01*
X4151015Y-99377519D01*
X4244147Y-99516900D01*
X4308297Y-99671772D01*
X4341000Y-99836184D01*
X4341000Y-100003816D01*
X4308297Y-100168228D01*
X4244147Y-100323100D01*
X4151015Y-100462481D01*
X4032481Y-100581015D01*
X3893100Y-100674147D01*
X3738228Y-100738297D01*
X3573816Y-100771000D01*
X3406184Y-100771000D01*
X3241772Y-100738297D01*
X3086900Y-100674147D01*
X2947519Y-100581015D01*
X2828985Y-100462481D01*
X2735853Y-100323100D01*
X2671703Y-100168228D01*
X2639000Y-100003816D01*
X2639000Y-99836184D01*
X2671703Y-99671772D01*
X2735853Y-99516900D01*
X2828985Y-99377519D01*
X2947519Y-99258985D01*
X3086900Y-99165853D01*
X3241772Y-99101703D01*
X3406184Y-99069000D01*
X3573816Y-99069000D01*
X3738228Y-99101703D01*
X3738228Y-99101703D01*
G37*
G36*
X13898228Y-96561703D02*
G01*
X14053100Y-96625853D01*
X14192481Y-96718985D01*
X14311015Y-96837519D01*
X14404147Y-96976900D01*
X14468297Y-97131772D01*
X14501000Y-97296184D01*
X14501000Y-97463816D01*
X14468297Y-97628228D01*
X14404147Y-97783100D01*
X14311015Y-97922481D01*
X14192481Y-98041015D01*
X14053100Y-98134147D01*
X13898228Y-98198297D01*
X13733816Y-98231000D01*
X13566184Y-98231000D01*
X13401772Y-98198297D01*
X13246900Y-98134147D01*
X13107519Y-98041015D01*
X12988985Y-97922481D01*
X12895853Y-97783100D01*
X12831703Y-97628228D01*
X12799000Y-97463816D01*
X12799000Y-97296184D01*
X12831703Y-97131772D01*
X12895853Y-96976900D01*
X12988985Y-96837519D01*
X13107519Y-96718985D01*
X13246900Y-96625853D01*
X13401772Y-96561703D01*
X13566184Y-96529000D01*
X13733816Y-96529000D01*
X13898228Y-96561703D01*
X13898228Y-96561703D01*
G37*
G36*
X11358228Y-96561703D02*
G01*
X11513100Y-96625853D01*
X11652481Y-96718985D01*
X11771015Y-96837519D01*
X11864147Y-96976900D01*
X11928297Y-97131772D01*
X11961000Y-97296184D01*
X11961000Y-97463816D01*
X11928297Y-97628228D01*
X11864147Y-97783100D01*
X11771015Y-97922481D01*
X11652481Y-98041015D01*
X11513100Y-98134147D01*
X11358228Y-98198297D01*
X11193816Y-98231000D01*
X11026184Y-98231000D01*
X10861772Y-98198297D01*
X10706900Y-98134147D01*
X10567519Y-98041015D01*
X10448985Y-97922481D01*
X10355853Y-97783100D01*
X10291703Y-97628228D01*
X10259000Y-97463816D01*
X10259000Y-97296184D01*
X10291703Y-97131772D01*
X10355853Y-96976900D01*
X10448985Y-96837519D01*
X10567519Y-96718985D01*
X10706900Y-96625853D01*
X10861772Y-96561703D01*
X11026184Y-96529000D01*
X11193816Y-96529000D01*
X11358228Y-96561703D01*
X11358228Y-96561703D01*
G37*
G36*
X34218228Y-96561703D02*
G01*
X34373100Y-96625853D01*
X34512481Y-96718985D01*
X34631015Y-96837519D01*
X34724147Y-96976900D01*
X34788297Y-97131772D01*
X34821000Y-97296184D01*
X34821000Y-97463816D01*
X34788297Y-97628228D01*
X34724147Y-97783100D01*
X34631015Y-97922481D01*
X34512481Y-98041015D01*
X34373100Y-98134147D01*
X34218228Y-98198297D01*
X34053816Y-98231000D01*
X33886184Y-98231000D01*
X33721772Y-98198297D01*
X33566900Y-98134147D01*
X33427519Y-98041015D01*
X33308985Y-97922481D01*
X33215853Y-97783100D01*
X33151703Y-97628228D01*
X33119000Y-97463816D01*
X33119000Y-97296184D01*
X33151703Y-97131772D01*
X33215853Y-96976900D01*
X33308985Y-96837519D01*
X33427519Y-96718985D01*
X33566900Y-96625853D01*
X33721772Y-96561703D01*
X33886184Y-96529000D01*
X34053816Y-96529000D01*
X34218228Y-96561703D01*
X34218228Y-96561703D01*
G37*
G36*
X31678228Y-96561703D02*
G01*
X31833100Y-96625853D01*
X31972481Y-96718985D01*
X32091015Y-96837519D01*
X32184147Y-96976900D01*
X32248297Y-97131772D01*
X32281000Y-97296184D01*
X32281000Y-97463816D01*
X32248297Y-97628228D01*
X32184147Y-97783100D01*
X32091015Y-97922481D01*
X31972481Y-98041015D01*
X31833100Y-98134147D01*
X31678228Y-98198297D01*
X31513816Y-98231000D01*
X31346184Y-98231000D01*
X31181772Y-98198297D01*
X31026900Y-98134147D01*
X30887519Y-98041015D01*
X30768985Y-97922481D01*
X30675853Y-97783100D01*
X30611703Y-97628228D01*
X30579000Y-97463816D01*
X30579000Y-97296184D01*
X30611703Y-97131772D01*
X30675853Y-96976900D01*
X30768985Y-96837519D01*
X30887519Y-96718985D01*
X31026900Y-96625853D01*
X31181772Y-96561703D01*
X31346184Y-96529000D01*
X31513816Y-96529000D01*
X31678228Y-96561703D01*
X31678228Y-96561703D01*
G37*
G36*
X3738228Y-96561703D02*
G01*
X3893100Y-96625853D01*
X4032481Y-96718985D01*
X4151015Y-96837519D01*
X4244147Y-96976900D01*
X4308297Y-97131772D01*
X4341000Y-97296184D01*
X4341000Y-97463816D01*
X4308297Y-97628228D01*
X4244147Y-97783100D01*
X4151015Y-97922481D01*
X4032481Y-98041015D01*
X3893100Y-98134147D01*
X3738228Y-98198297D01*
X3573816Y-98231000D01*
X3406184Y-98231000D01*
X3241772Y-98198297D01*
X3086900Y-98134147D01*
X2947519Y-98041015D01*
X2828985Y-97922481D01*
X2735853Y-97783100D01*
X2671703Y-97628228D01*
X2639000Y-97463816D01*
X2639000Y-97296184D01*
X2671703Y-97131772D01*
X2735853Y-96976900D01*
X2828985Y-96837519D01*
X2947519Y-96718985D01*
X3086900Y-96625853D01*
X3241772Y-96561703D01*
X3406184Y-96529000D01*
X3573816Y-96529000D01*
X3738228Y-96561703D01*
X3738228Y-96561703D01*
G37*
G36*
X16438228Y-96561703D02*
G01*
X16593100Y-96625853D01*
X16732481Y-96718985D01*
X16851015Y-96837519D01*
X16944147Y-96976900D01*
X17008297Y-97131772D01*
X17041000Y-97296184D01*
X17041000Y-97463816D01*
X17008297Y-97628228D01*
X16944147Y-97783100D01*
X16851015Y-97922481D01*
X16732481Y-98041015D01*
X16593100Y-98134147D01*
X16438228Y-98198297D01*
X16273816Y-98231000D01*
X16106184Y-98231000D01*
X15941772Y-98198297D01*
X15786900Y-98134147D01*
X15647519Y-98041015D01*
X15528985Y-97922481D01*
X15435853Y-97783100D01*
X15371703Y-97628228D01*
X15339000Y-97463816D01*
X15339000Y-97296184D01*
X15371703Y-97131772D01*
X15435853Y-96976900D01*
X15528985Y-96837519D01*
X15647519Y-96718985D01*
X15786900Y-96625853D01*
X15941772Y-96561703D01*
X16106184Y-96529000D01*
X16273816Y-96529000D01*
X16438228Y-96561703D01*
X16438228Y-96561703D01*
G37*
G36*
X18978228Y-96561703D02*
G01*
X19133100Y-96625853D01*
X19272481Y-96718985D01*
X19391015Y-96837519D01*
X19484147Y-96976900D01*
X19548297Y-97131772D01*
X19581000Y-97296184D01*
X19581000Y-97463816D01*
X19548297Y-97628228D01*
X19484147Y-97783100D01*
X19391015Y-97922481D01*
X19272481Y-98041015D01*
X19133100Y-98134147D01*
X18978228Y-98198297D01*
X18813816Y-98231000D01*
X18646184Y-98231000D01*
X18481772Y-98198297D01*
X18326900Y-98134147D01*
X18187519Y-98041015D01*
X18068985Y-97922481D01*
X17975853Y-97783100D01*
X17911703Y-97628228D01*
X17879000Y-97463816D01*
X17879000Y-97296184D01*
X17911703Y-97131772D01*
X17975853Y-96976900D01*
X18068985Y-96837519D01*
X18187519Y-96718985D01*
X18326900Y-96625853D01*
X18481772Y-96561703D01*
X18646184Y-96529000D01*
X18813816Y-96529000D01*
X18978228Y-96561703D01*
X18978228Y-96561703D01*
G37*
G36*
X21518228Y-96561703D02*
G01*
X21673100Y-96625853D01*
X21812481Y-96718985D01*
X21931015Y-96837519D01*
X22024147Y-96976900D01*
X22088297Y-97131772D01*
X22121000Y-97296184D01*
X22121000Y-97463816D01*
X22088297Y-97628228D01*
X22024147Y-97783100D01*
X21931015Y-97922481D01*
X21812481Y-98041015D01*
X21673100Y-98134147D01*
X21518228Y-98198297D01*
X21353816Y-98231000D01*
X21186184Y-98231000D01*
X21021772Y-98198297D01*
X20866900Y-98134147D01*
X20727519Y-98041015D01*
X20608985Y-97922481D01*
X20515853Y-97783100D01*
X20451703Y-97628228D01*
X20419000Y-97463816D01*
X20419000Y-97296184D01*
X20451703Y-97131772D01*
X20515853Y-96976900D01*
X20608985Y-96837519D01*
X20727519Y-96718985D01*
X20866900Y-96625853D01*
X21021772Y-96561703D01*
X21186184Y-96529000D01*
X21353816Y-96529000D01*
X21518228Y-96561703D01*
X21518228Y-96561703D01*
G37*
G36*
X24058228Y-96561703D02*
G01*
X24213100Y-96625853D01*
X24352481Y-96718985D01*
X24471015Y-96837519D01*
X24564147Y-96976900D01*
X24628297Y-97131772D01*
X24661000Y-97296184D01*
X24661000Y-97463816D01*
X24628297Y-97628228D01*
X24564147Y-97783100D01*
X24471015Y-97922481D01*
X24352481Y-98041015D01*
X24213100Y-98134147D01*
X24058228Y-98198297D01*
X23893816Y-98231000D01*
X23726184Y-98231000D01*
X23561772Y-98198297D01*
X23406900Y-98134147D01*
X23267519Y-98041015D01*
X23148985Y-97922481D01*
X23055853Y-97783100D01*
X22991703Y-97628228D01*
X22959000Y-97463816D01*
X22959000Y-97296184D01*
X22991703Y-97131772D01*
X23055853Y-96976900D01*
X23148985Y-96837519D01*
X23267519Y-96718985D01*
X23406900Y-96625853D01*
X23561772Y-96561703D01*
X23726184Y-96529000D01*
X23893816Y-96529000D01*
X24058228Y-96561703D01*
X24058228Y-96561703D01*
G37*
G36*
X37361000Y-98231000D02*
G01*
X35659000Y-98231000D01*
X35659000Y-96529000D01*
X37361000Y-96529000D01*
X37361000Y-98231000D01*
X37361000Y-98231000D01*
G37*
G36*
X29138228Y-96561703D02*
G01*
X29293100Y-96625853D01*
X29432481Y-96718985D01*
X29551015Y-96837519D01*
X29644147Y-96976900D01*
X29708297Y-97131772D01*
X29741000Y-97296184D01*
X29741000Y-97463816D01*
X29708297Y-97628228D01*
X29644147Y-97783100D01*
X29551015Y-97922481D01*
X29432481Y-98041015D01*
X29293100Y-98134147D01*
X29138228Y-98198297D01*
X28973816Y-98231000D01*
X28806184Y-98231000D01*
X28641772Y-98198297D01*
X28486900Y-98134147D01*
X28347519Y-98041015D01*
X28228985Y-97922481D01*
X28135853Y-97783100D01*
X28071703Y-97628228D01*
X28039000Y-97463816D01*
X28039000Y-97296184D01*
X28071703Y-97131772D01*
X28135853Y-96976900D01*
X28228985Y-96837519D01*
X28347519Y-96718985D01*
X28486900Y-96625853D01*
X28641772Y-96561703D01*
X28806184Y-96529000D01*
X28973816Y-96529000D01*
X29138228Y-96561703D01*
X29138228Y-96561703D01*
G37*
G36*
X26598228Y-96561703D02*
G01*
X26753100Y-96625853D01*
X26892481Y-96718985D01*
X27011015Y-96837519D01*
X27104147Y-96976900D01*
X27168297Y-97131772D01*
X27201000Y-97296184D01*
X27201000Y-97463816D01*
X27168297Y-97628228D01*
X27104147Y-97783100D01*
X27011015Y-97922481D01*
X26892481Y-98041015D01*
X26753100Y-98134147D01*
X26598228Y-98198297D01*
X26433816Y-98231000D01*
X26266184Y-98231000D01*
X26101772Y-98198297D01*
X25946900Y-98134147D01*
X25807519Y-98041015D01*
X25688985Y-97922481D01*
X25595853Y-97783100D01*
X25531703Y-97628228D01*
X25499000Y-97463816D01*
X25499000Y-97296184D01*
X25531703Y-97131772D01*
X25595853Y-96976900D01*
X25688985Y-96837519D01*
X25807519Y-96718985D01*
X25946900Y-96625853D01*
X26101772Y-96561703D01*
X26266184Y-96529000D01*
X26433816Y-96529000D01*
X26598228Y-96561703D01*
X26598228Y-96561703D01*
G37*
G36*
X8818228Y-96561703D02*
G01*
X8973100Y-96625853D01*
X9112481Y-96718985D01*
X9231015Y-96837519D01*
X9324147Y-96976900D01*
X9388297Y-97131772D01*
X9421000Y-97296184D01*
X9421000Y-97463816D01*
X9388297Y-97628228D01*
X9324147Y-97783100D01*
X9231015Y-97922481D01*
X9112481Y-98041015D01*
X8973100Y-98134147D01*
X8818228Y-98198297D01*
X8653816Y-98231000D01*
X8486184Y-98231000D01*
X8321772Y-98198297D01*
X8166900Y-98134147D01*
X8027519Y-98041015D01*
X7908985Y-97922481D01*
X7815853Y-97783100D01*
X7751703Y-97628228D01*
X7719000Y-97463816D01*
X7719000Y-97296184D01*
X7751703Y-97131772D01*
X7815853Y-96976900D01*
X7908985Y-96837519D01*
X8027519Y-96718985D01*
X8166900Y-96625853D01*
X8321772Y-96561703D01*
X8486184Y-96529000D01*
X8653816Y-96529000D01*
X8818228Y-96561703D01*
X8818228Y-96561703D01*
G37*
G36*
X6278228Y-96561703D02*
G01*
X6433100Y-96625853D01*
X6572481Y-96718985D01*
X6691015Y-96837519D01*
X6784147Y-96976900D01*
X6848297Y-97131772D01*
X6881000Y-97296184D01*
X6881000Y-97463816D01*
X6848297Y-97628228D01*
X6784147Y-97783100D01*
X6691015Y-97922481D01*
X6572481Y-98041015D01*
X6433100Y-98134147D01*
X6278228Y-98198297D01*
X6113816Y-98231000D01*
X5946184Y-98231000D01*
X5781772Y-98198297D01*
X5626900Y-98134147D01*
X5487519Y-98041015D01*
X5368985Y-97922481D01*
X5275853Y-97783100D01*
X5211703Y-97628228D01*
X5179000Y-97463816D01*
X5179000Y-97296184D01*
X5211703Y-97131772D01*
X5275853Y-96976900D01*
X5368985Y-96837519D01*
X5487519Y-96718985D01*
X5626900Y-96625853D01*
X5781772Y-96561703D01*
X5946184Y-96529000D01*
X6113816Y-96529000D01*
X6278228Y-96561703D01*
X6278228Y-96561703D01*
G37*
G36*
X-1341772Y-96561703D02*
G01*
X-1186900Y-96625853D01*
X-1047519Y-96718985D01*
X-928985Y-96837519D01*
X-835853Y-96976900D01*
X-771703Y-97131772D01*
X-739000Y-97296184D01*
X-739000Y-97463816D01*
X-771703Y-97628228D01*
X-835853Y-97783100D01*
X-928985Y-97922481D01*
X-1047519Y-98041015D01*
X-1186900Y-98134147D01*
X-1341772Y-98198297D01*
X-1506184Y-98231000D01*
X-1673816Y-98231000D01*
X-1838228Y-98198297D01*
X-1993100Y-98134147D01*
X-2132481Y-98041015D01*
X-2251015Y-97922481D01*
X-2344147Y-97783100D01*
X-2408297Y-97628228D01*
X-2441000Y-97463816D01*
X-2441000Y-97296184D01*
X-2408297Y-97131772D01*
X-2344147Y-96976900D01*
X-2251015Y-96837519D01*
X-2132481Y-96718985D01*
X-1993100Y-96625853D01*
X-1838228Y-96561703D01*
X-1673816Y-96529000D01*
X-1506184Y-96529000D01*
X-1341772Y-96561703D01*
X-1341772Y-96561703D01*
G37*
G36*
X-1341772Y-94021703D02*
G01*
X-1186900Y-94085853D01*
X-1047519Y-94178985D01*
X-928985Y-94297519D01*
X-835853Y-94436900D01*
X-771703Y-94591772D01*
X-739000Y-94756184D01*
X-739000Y-94923816D01*
X-771703Y-95088228D01*
X-835853Y-95243100D01*
X-928985Y-95382481D01*
X-1047519Y-95501015D01*
X-1186900Y-95594147D01*
X-1341772Y-95658297D01*
X-1506184Y-95691000D01*
X-1673816Y-95691000D01*
X-1838228Y-95658297D01*
X-1993100Y-95594147D01*
X-2132481Y-95501015D01*
X-2251015Y-95382481D01*
X-2344147Y-95243100D01*
X-2408297Y-95088228D01*
X-2441000Y-94923816D01*
X-2441000Y-94756184D01*
X-2408297Y-94591772D01*
X-2344147Y-94436900D01*
X-2251015Y-94297519D01*
X-2132481Y-94178985D01*
X-1993100Y-94085853D01*
X-1838228Y-94021703D01*
X-1673816Y-93989000D01*
X-1506184Y-93989000D01*
X-1341772Y-94021703D01*
X-1341772Y-94021703D01*
G37*
G36*
X-26779000Y-93391000D02*
G01*
X-28581000Y-93391000D01*
X-28581000Y-91589000D01*
X-26779000Y-91589000D01*
X-26779000Y-93391000D01*
X-26779000Y-93391000D01*
G37*
G36*
X-9789557Y-91595519D02*
G01*
X-9723373Y-91602037D01*
X-9553534Y-91653557D01*
X-9397009Y-91737222D01*
X-9361271Y-91766552D01*
X-9259814Y-91849814D01*
X-9176552Y-91951271D01*
X-9147222Y-91987009D01*
X-9063557Y-92143534D01*
X-9012037Y-92313373D01*
X-8994641Y-92490000D01*
X-9012037Y-92666627D01*
X-9063557Y-92836466D01*
X-9147222Y-92992991D01*
X-9176552Y-93028729D01*
X-9259814Y-93130186D01*
X-9361271Y-93213448D01*
X-9397009Y-93242778D01*
X-9553534Y-93326443D01*
X-9723373Y-93377963D01*
X-9789558Y-93384482D01*
X-9855740Y-93391000D01*
X-9944260Y-93391000D01*
X-10010442Y-93384482D01*
X-10076627Y-93377963D01*
X-10246466Y-93326443D01*
X-10402991Y-93242778D01*
X-10438729Y-93213448D01*
X-10540186Y-93130186D01*
X-10623448Y-93028729D01*
X-10652778Y-92992991D01*
X-10736443Y-92836466D01*
X-10787963Y-92666627D01*
X-10805359Y-92490000D01*
X-10787963Y-92313373D01*
X-10736443Y-92143534D01*
X-10652778Y-91987009D01*
X-10623448Y-91951271D01*
X-10540186Y-91849814D01*
X-10438729Y-91766552D01*
X-10402991Y-91737222D01*
X-10246466Y-91653557D01*
X-10076627Y-91602037D01*
X-10010443Y-91595519D01*
X-9944260Y-91589000D01*
X-9855740Y-91589000D01*
X-9789557Y-91595519D01*
X-9789557Y-91595519D01*
G37*
G36*
X-12329557Y-91595519D02*
G01*
X-12263373Y-91602037D01*
X-12093534Y-91653557D01*
X-11937009Y-91737222D01*
X-11901271Y-91766552D01*
X-11799814Y-91849814D01*
X-11716552Y-91951271D01*
X-11687222Y-91987009D01*
X-11603557Y-92143534D01*
X-11552037Y-92313373D01*
X-11534641Y-92490000D01*
X-11552037Y-92666627D01*
X-11603557Y-92836466D01*
X-11687222Y-92992991D01*
X-11716552Y-93028729D01*
X-11799814Y-93130186D01*
X-11901271Y-93213448D01*
X-11937009Y-93242778D01*
X-12093534Y-93326443D01*
X-12263373Y-93377963D01*
X-12329558Y-93384482D01*
X-12395740Y-93391000D01*
X-12484260Y-93391000D01*
X-12550442Y-93384482D01*
X-12616627Y-93377963D01*
X-12786466Y-93326443D01*
X-12942991Y-93242778D01*
X-12978729Y-93213448D01*
X-13080186Y-93130186D01*
X-13163448Y-93028729D01*
X-13192778Y-92992991D01*
X-13276443Y-92836466D01*
X-13327963Y-92666627D01*
X-13345359Y-92490000D01*
X-13327963Y-92313373D01*
X-13276443Y-92143534D01*
X-13192778Y-91987009D01*
X-13163448Y-91951271D01*
X-13080186Y-91849814D01*
X-12978729Y-91766552D01*
X-12942991Y-91737222D01*
X-12786466Y-91653557D01*
X-12616627Y-91602037D01*
X-12550443Y-91595519D01*
X-12484260Y-91589000D01*
X-12395740Y-91589000D01*
X-12329557Y-91595519D01*
X-12329557Y-91595519D01*
G37*
G36*
X-14869557Y-91595519D02*
G01*
X-14803373Y-91602037D01*
X-14633534Y-91653557D01*
X-14477009Y-91737222D01*
X-14441271Y-91766552D01*
X-14339814Y-91849814D01*
X-14256552Y-91951271D01*
X-14227222Y-91987009D01*
X-14143557Y-92143534D01*
X-14092037Y-92313373D01*
X-14074641Y-92490000D01*
X-14092037Y-92666627D01*
X-14143557Y-92836466D01*
X-14227222Y-92992991D01*
X-14256552Y-93028729D01*
X-14339814Y-93130186D01*
X-14441271Y-93213448D01*
X-14477009Y-93242778D01*
X-14633534Y-93326443D01*
X-14803373Y-93377963D01*
X-14869558Y-93384482D01*
X-14935740Y-93391000D01*
X-15024260Y-93391000D01*
X-15090442Y-93384482D01*
X-15156627Y-93377963D01*
X-15326466Y-93326443D01*
X-15482991Y-93242778D01*
X-15518729Y-93213448D01*
X-15620186Y-93130186D01*
X-15703448Y-93028729D01*
X-15732778Y-92992991D01*
X-15816443Y-92836466D01*
X-15867963Y-92666627D01*
X-15885359Y-92490000D01*
X-15867963Y-92313373D01*
X-15816443Y-92143534D01*
X-15732778Y-91987009D01*
X-15703448Y-91951271D01*
X-15620186Y-91849814D01*
X-15518729Y-91766552D01*
X-15482991Y-91737222D01*
X-15326466Y-91653557D01*
X-15156627Y-91602037D01*
X-15090443Y-91595519D01*
X-15024260Y-91589000D01*
X-14935740Y-91589000D01*
X-14869557Y-91595519D01*
X-14869557Y-91595519D01*
G37*
G36*
X-17409557Y-91595519D02*
G01*
X-17343373Y-91602037D01*
X-17173534Y-91653557D01*
X-17017009Y-91737222D01*
X-16981271Y-91766552D01*
X-16879814Y-91849814D01*
X-16796552Y-91951271D01*
X-16767222Y-91987009D01*
X-16683557Y-92143534D01*
X-16632037Y-92313373D01*
X-16614641Y-92490000D01*
X-16632037Y-92666627D01*
X-16683557Y-92836466D01*
X-16767222Y-92992991D01*
X-16796552Y-93028729D01*
X-16879814Y-93130186D01*
X-16981271Y-93213448D01*
X-17017009Y-93242778D01*
X-17173534Y-93326443D01*
X-17343373Y-93377963D01*
X-17409558Y-93384482D01*
X-17475740Y-93391000D01*
X-17564260Y-93391000D01*
X-17630442Y-93384482D01*
X-17696627Y-93377963D01*
X-17866466Y-93326443D01*
X-18022991Y-93242778D01*
X-18058729Y-93213448D01*
X-18160186Y-93130186D01*
X-18243448Y-93028729D01*
X-18272778Y-92992991D01*
X-18356443Y-92836466D01*
X-18407963Y-92666627D01*
X-18425359Y-92490000D01*
X-18407963Y-92313373D01*
X-18356443Y-92143534D01*
X-18272778Y-91987009D01*
X-18243448Y-91951271D01*
X-18160186Y-91849814D01*
X-18058729Y-91766552D01*
X-18022991Y-91737222D01*
X-17866466Y-91653557D01*
X-17696627Y-91602037D01*
X-17630443Y-91595519D01*
X-17564260Y-91589000D01*
X-17475740Y-91589000D01*
X-17409557Y-91595519D01*
X-17409557Y-91595519D01*
G37*
G36*
X-19949557Y-91595519D02*
G01*
X-19883373Y-91602037D01*
X-19713534Y-91653557D01*
X-19557009Y-91737222D01*
X-19521271Y-91766552D01*
X-19419814Y-91849814D01*
X-19336552Y-91951271D01*
X-19307222Y-91987009D01*
X-19223557Y-92143534D01*
X-19172037Y-92313373D01*
X-19154641Y-92490000D01*
X-19172037Y-92666627D01*
X-19223557Y-92836466D01*
X-19307222Y-92992991D01*
X-19336552Y-93028729D01*
X-19419814Y-93130186D01*
X-19521271Y-93213448D01*
X-19557009Y-93242778D01*
X-19713534Y-93326443D01*
X-19883373Y-93377963D01*
X-19949558Y-93384482D01*
X-20015740Y-93391000D01*
X-20104260Y-93391000D01*
X-20170442Y-93384482D01*
X-20236627Y-93377963D01*
X-20406466Y-93326443D01*
X-20562991Y-93242778D01*
X-20598729Y-93213448D01*
X-20700186Y-93130186D01*
X-20783448Y-93028729D01*
X-20812778Y-92992991D01*
X-20896443Y-92836466D01*
X-20947963Y-92666627D01*
X-20965359Y-92490000D01*
X-20947963Y-92313373D01*
X-20896443Y-92143534D01*
X-20812778Y-91987009D01*
X-20783448Y-91951271D01*
X-20700186Y-91849814D01*
X-20598729Y-91766552D01*
X-20562991Y-91737222D01*
X-20406466Y-91653557D01*
X-20236627Y-91602037D01*
X-20170443Y-91595519D01*
X-20104260Y-91589000D01*
X-20015740Y-91589000D01*
X-19949557Y-91595519D01*
X-19949557Y-91595519D01*
G37*
G36*
X-22489557Y-91595519D02*
G01*
X-22423373Y-91602037D01*
X-22253534Y-91653557D01*
X-22097009Y-91737222D01*
X-22061271Y-91766552D01*
X-21959814Y-91849814D01*
X-21876552Y-91951271D01*
X-21847222Y-91987009D01*
X-21763557Y-92143534D01*
X-21712037Y-92313373D01*
X-21694641Y-92490000D01*
X-21712037Y-92666627D01*
X-21763557Y-92836466D01*
X-21847222Y-92992991D01*
X-21876552Y-93028729D01*
X-21959814Y-93130186D01*
X-22061271Y-93213448D01*
X-22097009Y-93242778D01*
X-22253534Y-93326443D01*
X-22423373Y-93377963D01*
X-22489558Y-93384482D01*
X-22555740Y-93391000D01*
X-22644260Y-93391000D01*
X-22710442Y-93384482D01*
X-22776627Y-93377963D01*
X-22946466Y-93326443D01*
X-23102991Y-93242778D01*
X-23138729Y-93213448D01*
X-23240186Y-93130186D01*
X-23323448Y-93028729D01*
X-23352778Y-92992991D01*
X-23436443Y-92836466D01*
X-23487963Y-92666627D01*
X-23505359Y-92490000D01*
X-23487963Y-92313373D01*
X-23436443Y-92143534D01*
X-23352778Y-91987009D01*
X-23323448Y-91951271D01*
X-23240186Y-91849814D01*
X-23138729Y-91766552D01*
X-23102991Y-91737222D01*
X-22946466Y-91653557D01*
X-22776627Y-91602037D01*
X-22710443Y-91595519D01*
X-22644260Y-91589000D01*
X-22555740Y-91589000D01*
X-22489557Y-91595519D01*
X-22489557Y-91595519D01*
G37*
G36*
X-25029557Y-91595519D02*
G01*
X-24963373Y-91602037D01*
X-24793534Y-91653557D01*
X-24637009Y-91737222D01*
X-24601271Y-91766552D01*
X-24499814Y-91849814D01*
X-24416552Y-91951271D01*
X-24387222Y-91987009D01*
X-24303557Y-92143534D01*
X-24252037Y-92313373D01*
X-24234641Y-92490000D01*
X-24252037Y-92666627D01*
X-24303557Y-92836466D01*
X-24387222Y-92992991D01*
X-24416552Y-93028729D01*
X-24499814Y-93130186D01*
X-24601271Y-93213448D01*
X-24637009Y-93242778D01*
X-24793534Y-93326443D01*
X-24963373Y-93377963D01*
X-25029558Y-93384482D01*
X-25095740Y-93391000D01*
X-25184260Y-93391000D01*
X-25250442Y-93384482D01*
X-25316627Y-93377963D01*
X-25486466Y-93326443D01*
X-25642991Y-93242778D01*
X-25678729Y-93213448D01*
X-25780186Y-93130186D01*
X-25863448Y-93028729D01*
X-25892778Y-92992991D01*
X-25976443Y-92836466D01*
X-26027963Y-92666627D01*
X-26045359Y-92490000D01*
X-26027963Y-92313373D01*
X-25976443Y-92143534D01*
X-25892778Y-91987009D01*
X-25863448Y-91951271D01*
X-25780186Y-91849814D01*
X-25678729Y-91766552D01*
X-25642991Y-91737222D01*
X-25486466Y-91653557D01*
X-25316627Y-91602037D01*
X-25250443Y-91595519D01*
X-25184260Y-91589000D01*
X-25095740Y-91589000D01*
X-25029557Y-91595519D01*
X-25029557Y-91595519D01*
G37*
G36*
X2831000Y-87756000D02*
G01*
X-2831000Y-87756000D01*
X-2831000Y-85054000D01*
X2831000Y-85054000D01*
X2831000Y-87756000D01*
X2831000Y-87756000D01*
G37*
G36*
X-38599000Y-86401000D02*
G01*
X-40401000Y-86401000D01*
X-40401000Y-84599000D01*
X-38599000Y-84599000D01*
X-38599000Y-86401000D01*
X-38599000Y-86401000D01*
G37*
G36*
X-39389557Y-82065519D02*
G01*
X-39323373Y-82072037D01*
X-39153534Y-82123557D01*
X-38997009Y-82207222D01*
X-38961271Y-82236552D01*
X-38859814Y-82319814D01*
X-38776552Y-82421271D01*
X-38747222Y-82457009D01*
X-38663557Y-82613534D01*
X-38612037Y-82783373D01*
X-38594641Y-82960000D01*
X-38612037Y-83136627D01*
X-38663557Y-83306466D01*
X-38747222Y-83462991D01*
X-38776552Y-83498729D01*
X-38859814Y-83600186D01*
X-38961271Y-83683448D01*
X-38997009Y-83712778D01*
X-39153534Y-83796443D01*
X-39323373Y-83847963D01*
X-39389558Y-83854482D01*
X-39455740Y-83861000D01*
X-39544260Y-83861000D01*
X-39610442Y-83854482D01*
X-39676627Y-83847963D01*
X-39846466Y-83796443D01*
X-40002991Y-83712778D01*
X-40038729Y-83683448D01*
X-40140186Y-83600186D01*
X-40223448Y-83498729D01*
X-40252778Y-83462991D01*
X-40336443Y-83306466D01*
X-40387963Y-83136627D01*
X-40405359Y-82960000D01*
X-40387963Y-82783373D01*
X-40336443Y-82613534D01*
X-40252778Y-82457009D01*
X-40223448Y-82421271D01*
X-40140186Y-82319814D01*
X-40038729Y-82236552D01*
X-40002991Y-82207222D01*
X-39846466Y-82123557D01*
X-39676627Y-82072037D01*
X-39610443Y-82065519D01*
X-39544260Y-82059000D01*
X-39455740Y-82059000D01*
X-39389557Y-82065519D01*
X-39389557Y-82065519D01*
G37*
G36*
X-39389558Y-79525518D02*
G01*
X-39323373Y-79532037D01*
X-39153534Y-79583557D01*
X-38997009Y-79667222D01*
X-38961271Y-79696552D01*
X-38859814Y-79779814D01*
X-38776552Y-79881271D01*
X-38747222Y-79917009D01*
X-38663557Y-80073534D01*
X-38612037Y-80243373D01*
X-38594641Y-80420000D01*
X-38612037Y-80596627D01*
X-38663557Y-80766466D01*
X-38747222Y-80922991D01*
X-38776552Y-80958729D01*
X-38859814Y-81060186D01*
X-38961271Y-81143448D01*
X-38997009Y-81172778D01*
X-39153534Y-81256443D01*
X-39323373Y-81307963D01*
X-39389557Y-81314481D01*
X-39455740Y-81321000D01*
X-39544260Y-81321000D01*
X-39610443Y-81314481D01*
X-39676627Y-81307963D01*
X-39846466Y-81256443D01*
X-40002991Y-81172778D01*
X-40038729Y-81143448D01*
X-40140186Y-81060186D01*
X-40223448Y-80958729D01*
X-40252778Y-80922991D01*
X-40336443Y-80766466D01*
X-40387963Y-80596627D01*
X-40405359Y-80420000D01*
X-40387963Y-80243373D01*
X-40336443Y-80073534D01*
X-40252778Y-79917009D01*
X-40223448Y-79881271D01*
X-40140186Y-79779814D01*
X-40038729Y-79696552D01*
X-40002991Y-79667222D01*
X-39846466Y-79583557D01*
X-39676627Y-79532037D01*
X-39610442Y-79525518D01*
X-39544260Y-79519000D01*
X-39455740Y-79519000D01*
X-39389558Y-79525518D01*
X-39389558Y-79525518D01*
G37*
G36*
X-39389558Y-76985518D02*
G01*
X-39323373Y-76992037D01*
X-39153534Y-77043557D01*
X-38997009Y-77127222D01*
X-38961271Y-77156552D01*
X-38859814Y-77239814D01*
X-38776552Y-77341271D01*
X-38747222Y-77377009D01*
X-38663557Y-77533534D01*
X-38612037Y-77703373D01*
X-38594641Y-77880000D01*
X-38612037Y-78056627D01*
X-38663557Y-78226466D01*
X-38747222Y-78382991D01*
X-38776552Y-78418729D01*
X-38859814Y-78520186D01*
X-38961271Y-78603448D01*
X-38997009Y-78632778D01*
X-39153534Y-78716443D01*
X-39323373Y-78767963D01*
X-39389558Y-78774482D01*
X-39455740Y-78781000D01*
X-39544260Y-78781000D01*
X-39610442Y-78774482D01*
X-39676627Y-78767963D01*
X-39846466Y-78716443D01*
X-40002991Y-78632778D01*
X-40038729Y-78603448D01*
X-40140186Y-78520186D01*
X-40223448Y-78418729D01*
X-40252778Y-78382991D01*
X-40336443Y-78226466D01*
X-40387963Y-78056627D01*
X-40405359Y-77880000D01*
X-40387963Y-77703373D01*
X-40336443Y-77533534D01*
X-40252778Y-77377009D01*
X-40223448Y-77341271D01*
X-40140186Y-77239814D01*
X-40038729Y-77156552D01*
X-40002991Y-77127222D01*
X-39846466Y-77043557D01*
X-39676627Y-76992037D01*
X-39610442Y-76985518D01*
X-39544260Y-76979000D01*
X-39455740Y-76979000D01*
X-39389558Y-76985518D01*
X-39389558Y-76985518D01*
G37*
G36*
X2831000Y-78551000D02*
G01*
X-2831000Y-78551000D01*
X-2831000Y-70449000D01*
X2831000Y-70449000D01*
X2831000Y-78551000D01*
X2831000Y-78551000D01*
G37*
G36*
X-24149557Y-76505519D02*
G01*
X-24083373Y-76512037D01*
X-23913534Y-76563557D01*
X-23757009Y-76647222D01*
X-23721271Y-76676552D01*
X-23619814Y-76759814D01*
X-23536552Y-76861271D01*
X-23507222Y-76897009D01*
X-23423557Y-77053534D01*
X-23372037Y-77223373D01*
X-23354641Y-77400000D01*
X-23372037Y-77576627D01*
X-23423557Y-77746466D01*
X-23507222Y-77902991D01*
X-23536552Y-77938729D01*
X-23619814Y-78040186D01*
X-23721271Y-78123448D01*
X-23757009Y-78152778D01*
X-23913534Y-78236443D01*
X-24083373Y-78287963D01*
X-24149558Y-78294482D01*
X-24215740Y-78301000D01*
X-24304260Y-78301000D01*
X-24370442Y-78294482D01*
X-24436627Y-78287963D01*
X-24606466Y-78236443D01*
X-24762991Y-78152778D01*
X-24798729Y-78123448D01*
X-24900186Y-78040186D01*
X-24983448Y-77938729D01*
X-25012778Y-77902991D01*
X-25096443Y-77746466D01*
X-25147963Y-77576627D01*
X-25165359Y-77400000D01*
X-25147963Y-77223373D01*
X-25096443Y-77053534D01*
X-25012778Y-76897009D01*
X-24983448Y-76861271D01*
X-24900186Y-76759814D01*
X-24798729Y-76676552D01*
X-24762991Y-76647222D01*
X-24606466Y-76563557D01*
X-24436627Y-76512037D01*
X-24370443Y-76505519D01*
X-24304260Y-76499000D01*
X-24215740Y-76499000D01*
X-24149557Y-76505519D01*
X-24149557Y-76505519D01*
G37*
G36*
X-25899000Y-78301000D02*
G01*
X-27701000Y-78301000D01*
X-27701000Y-76499000D01*
X-25899000Y-76499000D01*
X-25899000Y-78301000D01*
X-25899000Y-78301000D01*
G37*
G36*
X-39389558Y-74445518D02*
G01*
X-39323373Y-74452037D01*
X-39153534Y-74503557D01*
X-38997009Y-74587222D01*
X-38961271Y-74616552D01*
X-38859814Y-74699814D01*
X-38776552Y-74801271D01*
X-38747222Y-74837009D01*
X-38663557Y-74993534D01*
X-38612037Y-75163373D01*
X-38594641Y-75340000D01*
X-38612037Y-75516627D01*
X-38663557Y-75686466D01*
X-38747222Y-75842991D01*
X-38776552Y-75878729D01*
X-38859814Y-75980186D01*
X-38961271Y-76063448D01*
X-38997009Y-76092778D01*
X-39153534Y-76176443D01*
X-39323373Y-76227963D01*
X-39389557Y-76234481D01*
X-39455740Y-76241000D01*
X-39544260Y-76241000D01*
X-39610443Y-76234481D01*
X-39676627Y-76227963D01*
X-39846466Y-76176443D01*
X-40002991Y-76092778D01*
X-40038729Y-76063448D01*
X-40140186Y-75980186D01*
X-40223448Y-75878729D01*
X-40252778Y-75842991D01*
X-40336443Y-75686466D01*
X-40387963Y-75516627D01*
X-40405359Y-75340000D01*
X-40387963Y-75163373D01*
X-40336443Y-74993534D01*
X-40252778Y-74837009D01*
X-40223448Y-74801271D01*
X-40140186Y-74699814D01*
X-40038729Y-74616552D01*
X-40002991Y-74587222D01*
X-39846466Y-74503557D01*
X-39676627Y-74452037D01*
X-39610442Y-74445518D01*
X-39544260Y-74439000D01*
X-39455740Y-74439000D01*
X-39389558Y-74445518D01*
X-39389558Y-74445518D01*
G37*
G36*
X-39389557Y-71905519D02*
G01*
X-39323373Y-71912037D01*
X-39153534Y-71963557D01*
X-38997009Y-72047222D01*
X-38961271Y-72076552D01*
X-38859814Y-72159814D01*
X-38776552Y-72261271D01*
X-38747222Y-72297009D01*
X-38663557Y-72453534D01*
X-38612037Y-72623373D01*
X-38594641Y-72800000D01*
X-38612037Y-72976627D01*
X-38663557Y-73146466D01*
X-38747222Y-73302991D01*
X-38776552Y-73338729D01*
X-38859814Y-73440186D01*
X-38961271Y-73523448D01*
X-38997009Y-73552778D01*
X-39153534Y-73636443D01*
X-39323373Y-73687963D01*
X-39389558Y-73694482D01*
X-39455740Y-73701000D01*
X-39544260Y-73701000D01*
X-39610442Y-73694482D01*
X-39676627Y-73687963D01*
X-39846466Y-73636443D01*
X-40002991Y-73552778D01*
X-40038729Y-73523448D01*
X-40140186Y-73440186D01*
X-40223448Y-73338729D01*
X-40252778Y-73302991D01*
X-40336443Y-73146466D01*
X-40387963Y-72976627D01*
X-40405359Y-72800000D01*
X-40387963Y-72623373D01*
X-40336443Y-72453534D01*
X-40252778Y-72297009D01*
X-40223448Y-72261271D01*
X-40140186Y-72159814D01*
X-40038729Y-72076552D01*
X-40002991Y-72047222D01*
X-39846466Y-71963557D01*
X-39676627Y-71912037D01*
X-39610443Y-71905519D01*
X-39544260Y-71899000D01*
X-39455740Y-71899000D01*
X-39389557Y-71905519D01*
X-39389557Y-71905519D01*
G37*
G36*
X-39389557Y-69365519D02*
G01*
X-39323373Y-69372037D01*
X-39153534Y-69423557D01*
X-38997009Y-69507222D01*
X-38961271Y-69536552D01*
X-38859814Y-69619814D01*
X-38776552Y-69721271D01*
X-38747222Y-69757009D01*
X-38663557Y-69913534D01*
X-38612037Y-70083373D01*
X-38594641Y-70260000D01*
X-38612037Y-70436627D01*
X-38663557Y-70606466D01*
X-38747222Y-70762991D01*
X-38776552Y-70798729D01*
X-38859814Y-70900186D01*
X-38961271Y-70983448D01*
X-38997009Y-71012778D01*
X-39153534Y-71096443D01*
X-39323373Y-71147963D01*
X-39389557Y-71154481D01*
X-39455740Y-71161000D01*
X-39544260Y-71161000D01*
X-39610443Y-71154481D01*
X-39676627Y-71147963D01*
X-39846466Y-71096443D01*
X-40002991Y-71012778D01*
X-40038729Y-70983448D01*
X-40140186Y-70900186D01*
X-40223448Y-70798729D01*
X-40252778Y-70762991D01*
X-40336443Y-70606466D01*
X-40387963Y-70436627D01*
X-40405359Y-70260000D01*
X-40387963Y-70083373D01*
X-40336443Y-69913534D01*
X-40252778Y-69757009D01*
X-40223448Y-69721271D01*
X-40140186Y-69619814D01*
X-40038729Y-69536552D01*
X-40002991Y-69507222D01*
X-39846466Y-69423557D01*
X-39676627Y-69372037D01*
X-39610443Y-69365519D01*
X-39544260Y-69359000D01*
X-39455740Y-69359000D01*
X-39389557Y-69365519D01*
X-39389557Y-69365519D01*
G37*
G36*
X-39389558Y-66825518D02*
G01*
X-39323373Y-66832037D01*
X-39153534Y-66883557D01*
X-38997009Y-66967222D01*
X-38961271Y-66996552D01*
X-38859814Y-67079814D01*
X-38776552Y-67181271D01*
X-38747222Y-67217009D01*
X-38663557Y-67373534D01*
X-38612037Y-67543373D01*
X-38594641Y-67720000D01*
X-38612037Y-67896627D01*
X-38663557Y-68066466D01*
X-38747222Y-68222991D01*
X-38776552Y-68258729D01*
X-38859814Y-68360186D01*
X-38961271Y-68443448D01*
X-38997009Y-68472778D01*
X-39153534Y-68556443D01*
X-39323373Y-68607963D01*
X-39389558Y-68614482D01*
X-39455740Y-68621000D01*
X-39544260Y-68621000D01*
X-39610442Y-68614482D01*
X-39676627Y-68607963D01*
X-39846466Y-68556443D01*
X-40002991Y-68472778D01*
X-40038729Y-68443448D01*
X-40140186Y-68360186D01*
X-40223448Y-68258729D01*
X-40252778Y-68222991D01*
X-40336443Y-68066466D01*
X-40387963Y-67896627D01*
X-40405359Y-67720000D01*
X-40387963Y-67543373D01*
X-40336443Y-67373534D01*
X-40252778Y-67217009D01*
X-40223448Y-67181271D01*
X-40140186Y-67079814D01*
X-40038729Y-66996552D01*
X-40002991Y-66967222D01*
X-39846466Y-66883557D01*
X-39676627Y-66832037D01*
X-39610442Y-66825518D01*
X-39544260Y-66819000D01*
X-39455740Y-66819000D01*
X-39389558Y-66825518D01*
X-39389558Y-66825518D01*
G37*
G36*
X-38599000Y-66081000D02*
G01*
X-40401000Y-66081000D01*
X-40401000Y-64279000D01*
X-38599000Y-64279000D01*
X-38599000Y-66081000D01*
X-38599000Y-66081000D01*
G37*
G36*
X2831000Y-63946000D02*
G01*
X-2831000Y-63946000D01*
X-2831000Y-61244000D01*
X2831000Y-61244000D01*
X2831000Y-63946000D01*
X2831000Y-63946000D01*
G37*
G36*
X-39389558Y-61745518D02*
G01*
X-39323373Y-61752037D01*
X-39153534Y-61803557D01*
X-38997009Y-61887222D01*
X-38961271Y-61916552D01*
X-38859814Y-61999814D01*
X-38776552Y-62101271D01*
X-38747222Y-62137009D01*
X-38663557Y-62293534D01*
X-38612037Y-62463373D01*
X-38594641Y-62640000D01*
X-38612037Y-62816627D01*
X-38663557Y-62986466D01*
X-38747222Y-63142991D01*
X-38776552Y-63178729D01*
X-38859814Y-63280186D01*
X-38961271Y-63363448D01*
X-38997009Y-63392778D01*
X-39153534Y-63476443D01*
X-39323373Y-63527963D01*
X-39389557Y-63534481D01*
X-39455740Y-63541000D01*
X-39544260Y-63541000D01*
X-39610443Y-63534481D01*
X-39676627Y-63527963D01*
X-39846466Y-63476443D01*
X-40002991Y-63392778D01*
X-40038729Y-63363448D01*
X-40140186Y-63280186D01*
X-40223448Y-63178729D01*
X-40252778Y-63142991D01*
X-40336443Y-62986466D01*
X-40387963Y-62816627D01*
X-40405359Y-62640000D01*
X-40387963Y-62463373D01*
X-40336443Y-62293534D01*
X-40252778Y-62137009D01*
X-40223448Y-62101271D01*
X-40140186Y-61999814D01*
X-40038729Y-61916552D01*
X-40002991Y-61887222D01*
X-39846466Y-61803557D01*
X-39676627Y-61752037D01*
X-39610442Y-61745518D01*
X-39544260Y-61739000D01*
X-39455740Y-61739000D01*
X-39389558Y-61745518D01*
X-39389558Y-61745518D01*
G37*
G36*
X-39389557Y-59205519D02*
G01*
X-39323373Y-59212037D01*
X-39153534Y-59263557D01*
X-38997009Y-59347222D01*
X-38961271Y-59376552D01*
X-38859814Y-59459814D01*
X-38776552Y-59561271D01*
X-38747222Y-59597009D01*
X-38663557Y-59753534D01*
X-38612037Y-59923373D01*
X-38594641Y-60100000D01*
X-38612037Y-60276627D01*
X-38663557Y-60446466D01*
X-38747222Y-60602991D01*
X-38776552Y-60638729D01*
X-38859814Y-60740186D01*
X-38961271Y-60823448D01*
X-38997009Y-60852778D01*
X-39153534Y-60936443D01*
X-39323373Y-60987963D01*
X-39389557Y-60994481D01*
X-39455740Y-61001000D01*
X-39544260Y-61001000D01*
X-39610443Y-60994481D01*
X-39676627Y-60987963D01*
X-39846466Y-60936443D01*
X-40002991Y-60852778D01*
X-40038729Y-60823448D01*
X-40140186Y-60740186D01*
X-40223448Y-60638729D01*
X-40252778Y-60602991D01*
X-40336443Y-60446466D01*
X-40387963Y-60276627D01*
X-40405359Y-60100000D01*
X-40387963Y-59923373D01*
X-40336443Y-59753534D01*
X-40252778Y-59597009D01*
X-40223448Y-59561271D01*
X-40140186Y-59459814D01*
X-40038729Y-59376552D01*
X-40002991Y-59347222D01*
X-39846466Y-59263557D01*
X-39676627Y-59212037D01*
X-39610443Y-59205519D01*
X-39544260Y-59199000D01*
X-39455740Y-59199000D01*
X-39389557Y-59205519D01*
X-39389557Y-59205519D01*
G37*
G36*
X-29849000Y-60351000D02*
G01*
X-31651000Y-60351000D01*
X-31651000Y-58549000D01*
X-29849000Y-58549000D01*
X-29849000Y-60351000D01*
X-29849000Y-60351000D01*
G37*
G36*
X-39389558Y-56665518D02*
G01*
X-39323373Y-56672037D01*
X-39153534Y-56723557D01*
X-38997009Y-56807222D01*
X-38961271Y-56836552D01*
X-38859814Y-56919814D01*
X-38776552Y-57021271D01*
X-38747222Y-57057009D01*
X-38663557Y-57213534D01*
X-38612037Y-57383373D01*
X-38594641Y-57560000D01*
X-38612037Y-57736627D01*
X-38663557Y-57906466D01*
X-38747222Y-58062991D01*
X-38776552Y-58098729D01*
X-38859814Y-58200186D01*
X-38961271Y-58283448D01*
X-38997009Y-58312778D01*
X-39153534Y-58396443D01*
X-39323373Y-58447963D01*
X-39389558Y-58454482D01*
X-39455740Y-58461000D01*
X-39544260Y-58461000D01*
X-39610442Y-58454482D01*
X-39676627Y-58447963D01*
X-39846466Y-58396443D01*
X-40002991Y-58312778D01*
X-40038729Y-58283448D01*
X-40140186Y-58200186D01*
X-40223448Y-58098729D01*
X-40252778Y-58062991D01*
X-40336443Y-57906466D01*
X-40387963Y-57736627D01*
X-40405359Y-57560000D01*
X-40387963Y-57383373D01*
X-40336443Y-57213534D01*
X-40252778Y-57057009D01*
X-40223448Y-57021271D01*
X-40140186Y-56919814D01*
X-40038729Y-56836552D01*
X-40002991Y-56807222D01*
X-39846466Y-56723557D01*
X-39676627Y-56672037D01*
X-39610442Y-56665518D01*
X-39544260Y-56659000D01*
X-39455740Y-56659000D01*
X-39389558Y-56665518D01*
X-39389558Y-56665518D01*
G37*
G36*
X-30639557Y-56015519D02*
G01*
X-30573373Y-56022037D01*
X-30403534Y-56073557D01*
X-30247009Y-56157222D01*
X-30211271Y-56186552D01*
X-30109814Y-56269814D01*
X-30026552Y-56371271D01*
X-29997222Y-56407009D01*
X-29913557Y-56563534D01*
X-29862037Y-56733373D01*
X-29844641Y-56910000D01*
X-29862037Y-57086627D01*
X-29913557Y-57256466D01*
X-29997222Y-57412991D01*
X-30026552Y-57448729D01*
X-30109814Y-57550186D01*
X-30211271Y-57633448D01*
X-30247009Y-57662778D01*
X-30403534Y-57746443D01*
X-30573373Y-57797963D01*
X-30639557Y-57804481D01*
X-30705740Y-57811000D01*
X-30794260Y-57811000D01*
X-30860443Y-57804481D01*
X-30926627Y-57797963D01*
X-31096466Y-57746443D01*
X-31252991Y-57662778D01*
X-31288729Y-57633448D01*
X-31390186Y-57550186D01*
X-31473448Y-57448729D01*
X-31502778Y-57412991D01*
X-31586443Y-57256466D01*
X-31637963Y-57086627D01*
X-31655359Y-56910000D01*
X-31637963Y-56733373D01*
X-31586443Y-56563534D01*
X-31502778Y-56407009D01*
X-31473448Y-56371271D01*
X-31390186Y-56269814D01*
X-31288729Y-56186552D01*
X-31252991Y-56157222D01*
X-31096466Y-56073557D01*
X-30926627Y-56022037D01*
X-30860443Y-56015519D01*
X-30794260Y-56009000D01*
X-30705740Y-56009000D01*
X-30639557Y-56015519D01*
X-30639557Y-56015519D01*
G37*
G36*
X1383512Y-55103927D02*
G01*
X1532812Y-55133624D01*
X1696784Y-55201544D01*
X1844354Y-55300147D01*
X1969853Y-55425646D01*
X2068456Y-55573216D01*
X2136376Y-55737188D01*
X2166073Y-55886488D01*
X2170345Y-55907963D01*
X2171000Y-55911259D01*
X2171000Y-56088741D01*
X2136376Y-56262812D01*
X2068456Y-56426784D01*
X1969853Y-56574354D01*
X1844354Y-56699853D01*
X1696784Y-56798456D01*
X1532812Y-56866376D01*
X1383512Y-56896073D01*
X1358742Y-56901000D01*
X1181258Y-56901000D01*
X1156488Y-56896073D01*
X1007188Y-56866376D01*
X843216Y-56798456D01*
X695646Y-56699853D01*
X570147Y-56574354D01*
X471544Y-56426784D01*
X403624Y-56262812D01*
X369000Y-56088741D01*
X369000Y-55911259D01*
X369656Y-55907963D01*
X373927Y-55886488D01*
X403624Y-55737188D01*
X471544Y-55573216D01*
X570147Y-55425646D01*
X695646Y-55300147D01*
X843216Y-55201544D01*
X1007188Y-55133624D01*
X1156488Y-55103927D01*
X1181258Y-55099000D01*
X1358742Y-55099000D01*
X1383512Y-55103927D01*
X1383512Y-55103927D01*
G37*
G36*
X-1156488Y-55103927D02*
G01*
X-1007188Y-55133624D01*
X-843216Y-55201544D01*
X-695646Y-55300147D01*
X-570147Y-55425646D01*
X-471544Y-55573216D01*
X-403624Y-55737188D01*
X-373927Y-55886488D01*
X-369655Y-55907963D01*
X-369000Y-55911259D01*
X-369000Y-56088741D01*
X-403624Y-56262812D01*
X-471544Y-56426784D01*
X-570147Y-56574354D01*
X-695646Y-56699853D01*
X-843216Y-56798456D01*
X-1007188Y-56866376D01*
X-1156488Y-56896073D01*
X-1181258Y-56901000D01*
X-1358742Y-56901000D01*
X-1383512Y-56896073D01*
X-1532812Y-56866376D01*
X-1696784Y-56798456D01*
X-1844354Y-56699853D01*
X-1969853Y-56574354D01*
X-2068456Y-56426784D01*
X-2136376Y-56262812D01*
X-2171000Y-56088741D01*
X-2171000Y-55911259D01*
X-2170344Y-55907963D01*
X-2166073Y-55886488D01*
X-2136376Y-55737188D01*
X-2068456Y-55573216D01*
X-1969853Y-55425646D01*
X-1844354Y-55300147D01*
X-1696784Y-55201544D01*
X-1532812Y-55133624D01*
X-1383512Y-55103927D01*
X-1358742Y-55099000D01*
X-1181258Y-55099000D01*
X-1156488Y-55103927D01*
X-1156488Y-55103927D01*
G37*
G36*
X3923512Y-55103927D02*
G01*
X4072812Y-55133624D01*
X4236784Y-55201544D01*
X4384354Y-55300147D01*
X4509853Y-55425646D01*
X4608456Y-55573216D01*
X4676376Y-55737188D01*
X4706073Y-55886488D01*
X4710345Y-55907963D01*
X4711000Y-55911259D01*
X4711000Y-56088741D01*
X4676376Y-56262812D01*
X4608456Y-56426784D01*
X4509853Y-56574354D01*
X4384354Y-56699853D01*
X4236784Y-56798456D01*
X4072812Y-56866376D01*
X3923512Y-56896073D01*
X3898742Y-56901000D01*
X3721258Y-56901000D01*
X3696488Y-56896073D01*
X3547188Y-56866376D01*
X3383216Y-56798456D01*
X3235646Y-56699853D01*
X3110147Y-56574354D01*
X3011544Y-56426784D01*
X2943624Y-56262812D01*
X2909000Y-56088741D01*
X2909000Y-55911259D01*
X2909656Y-55907963D01*
X2913927Y-55886488D01*
X2943624Y-55737188D01*
X3011544Y-55573216D01*
X3110147Y-55425646D01*
X3235646Y-55300147D01*
X3383216Y-55201544D01*
X3547188Y-55133624D01*
X3696488Y-55103927D01*
X3721258Y-55099000D01*
X3898742Y-55099000D01*
X3923512Y-55103927D01*
X3923512Y-55103927D01*
G37*
G36*
X-3696488Y-55103927D02*
G01*
X-3547188Y-55133624D01*
X-3383216Y-55201544D01*
X-3235646Y-55300147D01*
X-3110147Y-55425646D01*
X-3011544Y-55573216D01*
X-2943624Y-55737188D01*
X-2913927Y-55886488D01*
X-2909655Y-55907963D01*
X-2909000Y-55911259D01*
X-2909000Y-56088741D01*
X-2943624Y-56262812D01*
X-3011544Y-56426784D01*
X-3110147Y-56574354D01*
X-3235646Y-56699853D01*
X-3383216Y-56798456D01*
X-3547188Y-56866376D01*
X-3696488Y-56896073D01*
X-3721258Y-56901000D01*
X-3898742Y-56901000D01*
X-3923512Y-56896073D01*
X-4072812Y-56866376D01*
X-4236784Y-56798456D01*
X-4384354Y-56699853D01*
X-4509853Y-56574354D01*
X-4608456Y-56426784D01*
X-4676376Y-56262812D01*
X-4711000Y-56088741D01*
X-4711000Y-55911259D01*
X-4710344Y-55907963D01*
X-4706073Y-55886488D01*
X-4676376Y-55737188D01*
X-4608456Y-55573216D01*
X-4509853Y-55425646D01*
X-4384354Y-55300147D01*
X-4236784Y-55201544D01*
X-4072812Y-55133624D01*
X-3923512Y-55103927D01*
X-3898742Y-55099000D01*
X-3721258Y-55099000D01*
X-3696488Y-55103927D01*
X-3696488Y-55103927D01*
G37*
G36*
X-39389557Y-54125519D02*
G01*
X-39323373Y-54132037D01*
X-39153534Y-54183557D01*
X-38997009Y-54267222D01*
X-38961271Y-54296552D01*
X-38859814Y-54379814D01*
X-38776552Y-54481271D01*
X-38747222Y-54517009D01*
X-38663557Y-54673534D01*
X-38612037Y-54843373D01*
X-38594641Y-55020000D01*
X-38612037Y-55196627D01*
X-38663557Y-55366466D01*
X-38747222Y-55522991D01*
X-38776552Y-55558729D01*
X-38859814Y-55660186D01*
X-38953643Y-55737188D01*
X-38997009Y-55772778D01*
X-39153534Y-55856443D01*
X-39323373Y-55907963D01*
X-39389557Y-55914481D01*
X-39455740Y-55921000D01*
X-39544260Y-55921000D01*
X-39610443Y-55914481D01*
X-39676627Y-55907963D01*
X-39846466Y-55856443D01*
X-40002991Y-55772778D01*
X-40046357Y-55737188D01*
X-40140186Y-55660186D01*
X-40223448Y-55558729D01*
X-40252778Y-55522991D01*
X-40336443Y-55366466D01*
X-40387963Y-55196627D01*
X-40405359Y-55020000D01*
X-40387963Y-54843373D01*
X-40336443Y-54673534D01*
X-40252778Y-54517009D01*
X-40223448Y-54481271D01*
X-40140186Y-54379814D01*
X-40038729Y-54296552D01*
X-40002991Y-54267222D01*
X-39846466Y-54183557D01*
X-39676627Y-54132037D01*
X-39610443Y-54125519D01*
X-39544260Y-54119000D01*
X-39455740Y-54119000D01*
X-39389557Y-54125519D01*
X-39389557Y-54125519D01*
G37*
G36*
X-39389558Y-51585518D02*
G01*
X-39323373Y-51592037D01*
X-39153534Y-51643557D01*
X-38997009Y-51727222D01*
X-38965869Y-51752778D01*
X-38859814Y-51839814D01*
X-38809601Y-51901000D01*
X-38747222Y-51977009D01*
X-38663557Y-52133534D01*
X-38612037Y-52303373D01*
X-38594641Y-52480000D01*
X-38612037Y-52656627D01*
X-38663557Y-52826466D01*
X-38747222Y-52982991D01*
X-38776552Y-53018729D01*
X-38859814Y-53120186D01*
X-38961271Y-53203448D01*
X-38997009Y-53232778D01*
X-39153534Y-53316443D01*
X-39323373Y-53367963D01*
X-39389557Y-53374481D01*
X-39455740Y-53381000D01*
X-39544260Y-53381000D01*
X-39610443Y-53374481D01*
X-39676627Y-53367963D01*
X-39846466Y-53316443D01*
X-40002991Y-53232778D01*
X-40038729Y-53203448D01*
X-40140186Y-53120186D01*
X-40223448Y-53018729D01*
X-40252778Y-52982991D01*
X-40336443Y-52826466D01*
X-40387963Y-52656627D01*
X-40405359Y-52480000D01*
X-40387963Y-52303373D01*
X-40336443Y-52133534D01*
X-40252778Y-51977009D01*
X-40190399Y-51901000D01*
X-40140186Y-51839814D01*
X-40034131Y-51752778D01*
X-40002991Y-51727222D01*
X-39846466Y-51643557D01*
X-39676627Y-51592037D01*
X-39610442Y-51585518D01*
X-39544260Y-51579000D01*
X-39455740Y-51579000D01*
X-39389558Y-51585518D01*
X-39389558Y-51585518D01*
G37*
G36*
X-10049558Y-50105518D02*
G01*
X-9983373Y-50112037D01*
X-9813534Y-50163557D01*
X-9657009Y-50247222D01*
X-9621271Y-50276552D01*
X-9519814Y-50359814D01*
X-9436552Y-50461271D01*
X-9407222Y-50497009D01*
X-9323557Y-50653534D01*
X-9272037Y-50823373D01*
X-9254641Y-51000000D01*
X-9272037Y-51176627D01*
X-9323557Y-51346466D01*
X-9407222Y-51502991D01*
X-9436552Y-51538729D01*
X-9519814Y-51640186D01*
X-9621271Y-51723448D01*
X-9657009Y-51752778D01*
X-9813534Y-51836443D01*
X-9983373Y-51887963D01*
X-10049557Y-51894481D01*
X-10115740Y-51901000D01*
X-10204260Y-51901000D01*
X-10270443Y-51894481D01*
X-10336627Y-51887963D01*
X-10506466Y-51836443D01*
X-10662991Y-51752778D01*
X-10698729Y-51723448D01*
X-10800186Y-51640186D01*
X-10883448Y-51538729D01*
X-10912778Y-51502991D01*
X-10996443Y-51346466D01*
X-11047963Y-51176627D01*
X-11065359Y-51000000D01*
X-11047963Y-50823373D01*
X-10996443Y-50653534D01*
X-10912778Y-50497009D01*
X-10883448Y-50461271D01*
X-10800186Y-50359814D01*
X-10698729Y-50276552D01*
X-10662991Y-50247222D01*
X-10506466Y-50163557D01*
X-10336627Y-50112037D01*
X-10270442Y-50105518D01*
X-10204260Y-50099000D01*
X-10115740Y-50099000D01*
X-10049558Y-50105518D01*
X-10049558Y-50105518D01*
G37*
G36*
X-7509558Y-50105518D02*
G01*
X-7443373Y-50112037D01*
X-7273534Y-50163557D01*
X-7117009Y-50247222D01*
X-7081271Y-50276552D01*
X-6979814Y-50359814D01*
X-6896552Y-50461271D01*
X-6867222Y-50497009D01*
X-6783557Y-50653534D01*
X-6732037Y-50823373D01*
X-6714641Y-51000000D01*
X-6732037Y-51176627D01*
X-6783557Y-51346466D01*
X-6867222Y-51502991D01*
X-6896552Y-51538729D01*
X-6979814Y-51640186D01*
X-7081271Y-51723448D01*
X-7117009Y-51752778D01*
X-7273534Y-51836443D01*
X-7443373Y-51887963D01*
X-7509557Y-51894481D01*
X-7575740Y-51901000D01*
X-7664260Y-51901000D01*
X-7730443Y-51894481D01*
X-7796627Y-51887963D01*
X-7966466Y-51836443D01*
X-8122991Y-51752778D01*
X-8158729Y-51723448D01*
X-8260186Y-51640186D01*
X-8343448Y-51538729D01*
X-8372778Y-51502991D01*
X-8456443Y-51346466D01*
X-8507963Y-51176627D01*
X-8525359Y-51000000D01*
X-8507963Y-50823373D01*
X-8456443Y-50653534D01*
X-8372778Y-50497009D01*
X-8343448Y-50461271D01*
X-8260186Y-50359814D01*
X-8158729Y-50276552D01*
X-8122991Y-50247222D01*
X-7966466Y-50163557D01*
X-7796627Y-50112037D01*
X-7730442Y-50105518D01*
X-7664260Y-50099000D01*
X-7575740Y-50099000D01*
X-7509558Y-50105518D01*
X-7509558Y-50105518D01*
G37*
G36*
X-4969558Y-50105518D02*
G01*
X-4903373Y-50112037D01*
X-4733534Y-50163557D01*
X-4577009Y-50247222D01*
X-4541271Y-50276552D01*
X-4439814Y-50359814D01*
X-4356552Y-50461271D01*
X-4327222Y-50497009D01*
X-4243557Y-50653534D01*
X-4192037Y-50823373D01*
X-4174641Y-51000000D01*
X-4192037Y-51176627D01*
X-4243557Y-51346466D01*
X-4327222Y-51502991D01*
X-4356552Y-51538729D01*
X-4439814Y-51640186D01*
X-4541271Y-51723448D01*
X-4577009Y-51752778D01*
X-4733534Y-51836443D01*
X-4903373Y-51887963D01*
X-4969557Y-51894481D01*
X-5035740Y-51901000D01*
X-5124260Y-51901000D01*
X-5190443Y-51894481D01*
X-5256627Y-51887963D01*
X-5426466Y-51836443D01*
X-5582991Y-51752778D01*
X-5618729Y-51723448D01*
X-5720186Y-51640186D01*
X-5803448Y-51538729D01*
X-5832778Y-51502991D01*
X-5916443Y-51346466D01*
X-5967963Y-51176627D01*
X-5985359Y-51000000D01*
X-5967963Y-50823373D01*
X-5916443Y-50653534D01*
X-5832778Y-50497009D01*
X-5803448Y-50461271D01*
X-5720186Y-50359814D01*
X-5618729Y-50276552D01*
X-5582991Y-50247222D01*
X-5426466Y-50163557D01*
X-5256627Y-50112037D01*
X-5190442Y-50105518D01*
X-5124260Y-50099000D01*
X-5035740Y-50099000D01*
X-4969558Y-50105518D01*
X-4969558Y-50105518D01*
G37*
G36*
X-2429558Y-50105518D02*
G01*
X-2363373Y-50112037D01*
X-2193534Y-50163557D01*
X-2037009Y-50247222D01*
X-2001271Y-50276552D01*
X-1899814Y-50359814D01*
X-1816552Y-50461271D01*
X-1787222Y-50497009D01*
X-1703557Y-50653534D01*
X-1652037Y-50823373D01*
X-1634641Y-51000000D01*
X-1652037Y-51176627D01*
X-1703557Y-51346466D01*
X-1787222Y-51502991D01*
X-1816552Y-51538729D01*
X-1899814Y-51640186D01*
X-2001271Y-51723448D01*
X-2037009Y-51752778D01*
X-2193534Y-51836443D01*
X-2363373Y-51887963D01*
X-2429557Y-51894481D01*
X-2495740Y-51901000D01*
X-2584260Y-51901000D01*
X-2650443Y-51894481D01*
X-2716627Y-51887963D01*
X-2886466Y-51836443D01*
X-3042991Y-51752778D01*
X-3078729Y-51723448D01*
X-3180186Y-51640186D01*
X-3263448Y-51538729D01*
X-3292778Y-51502991D01*
X-3376443Y-51346466D01*
X-3427963Y-51176627D01*
X-3445359Y-51000000D01*
X-3427963Y-50823373D01*
X-3376443Y-50653534D01*
X-3292778Y-50497009D01*
X-3263448Y-50461271D01*
X-3180186Y-50359814D01*
X-3078729Y-50276552D01*
X-3042991Y-50247222D01*
X-2886466Y-50163557D01*
X-2716627Y-50112037D01*
X-2650442Y-50105518D01*
X-2584260Y-50099000D01*
X-2495740Y-50099000D01*
X-2429558Y-50105518D01*
X-2429558Y-50105518D01*
G37*
G36*
X110442Y-50105518D02*
G01*
X176627Y-50112037D01*
X346466Y-50163557D01*
X502991Y-50247222D01*
X538729Y-50276552D01*
X640186Y-50359814D01*
X723448Y-50461271D01*
X752778Y-50497009D01*
X836443Y-50653534D01*
X887963Y-50823373D01*
X905359Y-51000000D01*
X887963Y-51176627D01*
X836443Y-51346466D01*
X752778Y-51502991D01*
X723448Y-51538729D01*
X640186Y-51640186D01*
X538729Y-51723448D01*
X502991Y-51752778D01*
X346466Y-51836443D01*
X176627Y-51887963D01*
X110443Y-51894481D01*
X44260Y-51901000D01*
X-44260Y-51901000D01*
X-110443Y-51894481D01*
X-176627Y-51887963D01*
X-346466Y-51836443D01*
X-502991Y-51752778D01*
X-538729Y-51723448D01*
X-640186Y-51640186D01*
X-723448Y-51538729D01*
X-752778Y-51502991D01*
X-836443Y-51346466D01*
X-887963Y-51176627D01*
X-905359Y-51000000D01*
X-887963Y-50823373D01*
X-836443Y-50653534D01*
X-752778Y-50497009D01*
X-723448Y-50461271D01*
X-640186Y-50359814D01*
X-538729Y-50276552D01*
X-502991Y-50247222D01*
X-346466Y-50163557D01*
X-176627Y-50112037D01*
X-110442Y-50105518D01*
X-44260Y-50099000D01*
X44260Y-50099000D01*
X110442Y-50105518D01*
X110442Y-50105518D01*
G37*
G36*
X2650442Y-50105518D02*
G01*
X2716627Y-50112037D01*
X2886466Y-50163557D01*
X3042991Y-50247222D01*
X3078729Y-50276552D01*
X3180186Y-50359814D01*
X3263448Y-50461271D01*
X3292778Y-50497009D01*
X3376443Y-50653534D01*
X3427963Y-50823373D01*
X3445359Y-51000000D01*
X3427963Y-51176627D01*
X3376443Y-51346466D01*
X3292778Y-51502991D01*
X3263448Y-51538729D01*
X3180186Y-51640186D01*
X3078729Y-51723448D01*
X3042991Y-51752778D01*
X2886466Y-51836443D01*
X2716627Y-51887963D01*
X2650443Y-51894481D01*
X2584260Y-51901000D01*
X2495740Y-51901000D01*
X2429557Y-51894481D01*
X2363373Y-51887963D01*
X2193534Y-51836443D01*
X2037009Y-51752778D01*
X2001271Y-51723448D01*
X1899814Y-51640186D01*
X1816552Y-51538729D01*
X1787222Y-51502991D01*
X1703557Y-51346466D01*
X1652037Y-51176627D01*
X1634641Y-51000000D01*
X1652037Y-50823373D01*
X1703557Y-50653534D01*
X1787222Y-50497009D01*
X1816552Y-50461271D01*
X1899814Y-50359814D01*
X2001271Y-50276552D01*
X2037009Y-50247222D01*
X2193534Y-50163557D01*
X2363373Y-50112037D01*
X2429558Y-50105518D01*
X2495740Y-50099000D01*
X2584260Y-50099000D01*
X2650442Y-50105518D01*
X2650442Y-50105518D01*
G37*
G36*
X5190442Y-50105518D02*
G01*
X5256627Y-50112037D01*
X5426466Y-50163557D01*
X5582991Y-50247222D01*
X5618729Y-50276552D01*
X5720186Y-50359814D01*
X5803448Y-50461271D01*
X5832778Y-50497009D01*
X5916443Y-50653534D01*
X5967963Y-50823373D01*
X5985359Y-51000000D01*
X5967963Y-51176627D01*
X5916443Y-51346466D01*
X5832778Y-51502991D01*
X5803448Y-51538729D01*
X5720186Y-51640186D01*
X5618729Y-51723448D01*
X5582991Y-51752778D01*
X5426466Y-51836443D01*
X5256627Y-51887963D01*
X5190443Y-51894481D01*
X5124260Y-51901000D01*
X5035740Y-51901000D01*
X4969557Y-51894481D01*
X4903373Y-51887963D01*
X4733534Y-51836443D01*
X4577009Y-51752778D01*
X4541271Y-51723448D01*
X4439814Y-51640186D01*
X4356552Y-51538729D01*
X4327222Y-51502991D01*
X4243557Y-51346466D01*
X4192037Y-51176627D01*
X4174641Y-51000000D01*
X4192037Y-50823373D01*
X4243557Y-50653534D01*
X4327222Y-50497009D01*
X4356552Y-50461271D01*
X4439814Y-50359814D01*
X4541271Y-50276552D01*
X4577009Y-50247222D01*
X4733534Y-50163557D01*
X4903373Y-50112037D01*
X4969558Y-50105518D01*
X5035740Y-50099000D01*
X5124260Y-50099000D01*
X5190442Y-50105518D01*
X5190442Y-50105518D01*
G37*
G36*
X7730442Y-50105518D02*
G01*
X7796627Y-50112037D01*
X7966466Y-50163557D01*
X8122991Y-50247222D01*
X8158729Y-50276552D01*
X8260186Y-50359814D01*
X8343448Y-50461271D01*
X8372778Y-50497009D01*
X8456443Y-50653534D01*
X8507963Y-50823373D01*
X8525359Y-51000000D01*
X8507963Y-51176627D01*
X8456443Y-51346466D01*
X8372778Y-51502991D01*
X8343448Y-51538729D01*
X8260186Y-51640186D01*
X8158729Y-51723448D01*
X8122991Y-51752778D01*
X7966466Y-51836443D01*
X7796627Y-51887963D01*
X7730443Y-51894481D01*
X7664260Y-51901000D01*
X7575740Y-51901000D01*
X7509557Y-51894481D01*
X7443373Y-51887963D01*
X7273534Y-51836443D01*
X7117009Y-51752778D01*
X7081271Y-51723448D01*
X6979814Y-51640186D01*
X6896552Y-51538729D01*
X6867222Y-51502991D01*
X6783557Y-51346466D01*
X6732037Y-51176627D01*
X6714641Y-51000000D01*
X6732037Y-50823373D01*
X6783557Y-50653534D01*
X6867222Y-50497009D01*
X6896552Y-50461271D01*
X6979814Y-50359814D01*
X7081271Y-50276552D01*
X7117009Y-50247222D01*
X7273534Y-50163557D01*
X7443373Y-50112037D01*
X7509558Y-50105518D01*
X7575740Y-50099000D01*
X7664260Y-50099000D01*
X7730442Y-50105518D01*
X7730442Y-50105518D01*
G37*
G36*
X10270442Y-50105518D02*
G01*
X10336627Y-50112037D01*
X10506466Y-50163557D01*
X10662991Y-50247222D01*
X10698729Y-50276552D01*
X10800186Y-50359814D01*
X10883448Y-50461271D01*
X10912778Y-50497009D01*
X10996443Y-50653534D01*
X11047963Y-50823373D01*
X11065359Y-51000000D01*
X11047963Y-51176627D01*
X10996443Y-51346466D01*
X10912778Y-51502991D01*
X10883448Y-51538729D01*
X10800186Y-51640186D01*
X10698729Y-51723448D01*
X10662991Y-51752778D01*
X10506466Y-51836443D01*
X10336627Y-51887963D01*
X10270443Y-51894481D01*
X10204260Y-51901000D01*
X10115740Y-51901000D01*
X10049557Y-51894481D01*
X9983373Y-51887963D01*
X9813534Y-51836443D01*
X9657009Y-51752778D01*
X9621271Y-51723448D01*
X9519814Y-51640186D01*
X9436552Y-51538729D01*
X9407222Y-51502991D01*
X9323557Y-51346466D01*
X9272037Y-51176627D01*
X9254641Y-51000000D01*
X9272037Y-50823373D01*
X9323557Y-50653534D01*
X9407222Y-50497009D01*
X9436552Y-50461271D01*
X9519814Y-50359814D01*
X9621271Y-50276552D01*
X9657009Y-50247222D01*
X9813534Y-50163557D01*
X9983373Y-50112037D01*
X10049558Y-50105518D01*
X10115740Y-50099000D01*
X10204260Y-50099000D01*
X10270442Y-50105518D01*
X10270442Y-50105518D01*
G37*
G36*
X12810442Y-50105518D02*
G01*
X12876627Y-50112037D01*
X13046466Y-50163557D01*
X13202991Y-50247222D01*
X13238729Y-50276552D01*
X13340186Y-50359814D01*
X13423448Y-50461271D01*
X13452778Y-50497009D01*
X13536443Y-50653534D01*
X13587963Y-50823373D01*
X13605359Y-51000000D01*
X13587963Y-51176627D01*
X13536443Y-51346466D01*
X13452778Y-51502991D01*
X13423448Y-51538729D01*
X13340186Y-51640186D01*
X13238729Y-51723448D01*
X13202991Y-51752778D01*
X13046466Y-51836443D01*
X12876627Y-51887963D01*
X12810443Y-51894481D01*
X12744260Y-51901000D01*
X12655740Y-51901000D01*
X12589557Y-51894481D01*
X12523373Y-51887963D01*
X12353534Y-51836443D01*
X12197009Y-51752778D01*
X12161271Y-51723448D01*
X12059814Y-51640186D01*
X11976552Y-51538729D01*
X11947222Y-51502991D01*
X11863557Y-51346466D01*
X11812037Y-51176627D01*
X11794641Y-51000000D01*
X11812037Y-50823373D01*
X11863557Y-50653534D01*
X11947222Y-50497009D01*
X11976552Y-50461271D01*
X12059814Y-50359814D01*
X12161271Y-50276552D01*
X12197009Y-50247222D01*
X12353534Y-50163557D01*
X12523373Y-50112037D01*
X12589558Y-50105518D01*
X12655740Y-50099000D01*
X12744260Y-50099000D01*
X12810442Y-50105518D01*
X12810442Y-50105518D01*
G37*
G36*
X-11799000Y-51901000D02*
G01*
X-13601000Y-51901000D01*
X-13601000Y-50099000D01*
X-11799000Y-50099000D01*
X-11799000Y-51901000D01*
X-11799000Y-51901000D01*
G37*
G36*
X-39389558Y-49045518D02*
G01*
X-39323373Y-49052037D01*
X-39153534Y-49103557D01*
X-38997009Y-49187222D01*
X-38961271Y-49216552D01*
X-38859814Y-49299814D01*
X-38776552Y-49401271D01*
X-38747222Y-49437009D01*
X-38663557Y-49593534D01*
X-38612037Y-49763373D01*
X-38594641Y-49940000D01*
X-38612037Y-50116627D01*
X-38663557Y-50286466D01*
X-38747222Y-50442991D01*
X-38776552Y-50478729D01*
X-38859814Y-50580186D01*
X-38949188Y-50653532D01*
X-38997009Y-50692778D01*
X-39153534Y-50776443D01*
X-39323373Y-50827963D01*
X-39389557Y-50834481D01*
X-39455740Y-50841000D01*
X-39544260Y-50841000D01*
X-39610442Y-50834482D01*
X-39676627Y-50827963D01*
X-39846466Y-50776443D01*
X-40002991Y-50692778D01*
X-40050812Y-50653532D01*
X-40140186Y-50580186D01*
X-40223448Y-50478729D01*
X-40252778Y-50442991D01*
X-40336443Y-50286466D01*
X-40387963Y-50116627D01*
X-40405359Y-49940000D01*
X-40387963Y-49763373D01*
X-40336443Y-49593534D01*
X-40252778Y-49437009D01*
X-40223448Y-49401271D01*
X-40140186Y-49299814D01*
X-40038729Y-49216552D01*
X-40002991Y-49187222D01*
X-39846466Y-49103557D01*
X-39676627Y-49052037D01*
X-39610442Y-49045518D01*
X-39544260Y-49039000D01*
X-39455740Y-49039000D01*
X-39389558Y-49045518D01*
X-39389558Y-49045518D01*
G37*
G36*
X-39389557Y-46505519D02*
G01*
X-39323373Y-46512037D01*
X-39153534Y-46563557D01*
X-38997009Y-46647222D01*
X-38961271Y-46676552D01*
X-38859814Y-46759814D01*
X-38776552Y-46861271D01*
X-38747222Y-46897009D01*
X-38663557Y-47053534D01*
X-38612037Y-47223373D01*
X-38594641Y-47400000D01*
X-38612037Y-47576627D01*
X-38663557Y-47746466D01*
X-38747222Y-47902991D01*
X-38776552Y-47938729D01*
X-38859814Y-48040186D01*
X-38961271Y-48123448D01*
X-38997009Y-48152778D01*
X-39153534Y-48236443D01*
X-39323373Y-48287963D01*
X-39389558Y-48294482D01*
X-39455740Y-48301000D01*
X-39544260Y-48301000D01*
X-39610442Y-48294482D01*
X-39676627Y-48287963D01*
X-39846466Y-48236443D01*
X-40002991Y-48152778D01*
X-40038729Y-48123448D01*
X-40140186Y-48040186D01*
X-40223448Y-47938729D01*
X-40252778Y-47902991D01*
X-40336443Y-47746466D01*
X-40387963Y-47576627D01*
X-40405359Y-47400000D01*
X-40387963Y-47223373D01*
X-40336443Y-47053534D01*
X-40252778Y-46897009D01*
X-40223448Y-46861271D01*
X-40140186Y-46759814D01*
X-40038729Y-46676552D01*
X-40002991Y-46647222D01*
X-39846466Y-46563557D01*
X-39676627Y-46512037D01*
X-39610443Y-46505519D01*
X-39544260Y-46499000D01*
X-39455740Y-46499000D01*
X-39389557Y-46505519D01*
X-39389557Y-46505519D01*
G37*
G36*
X-27951224Y-43028681D02*
G01*
X-27562042Y-43189885D01*
X-27562041Y-43189886D01*
X-27211786Y-43423919D01*
X-26913919Y-43721786D01*
X-26913918Y-43721788D01*
X-26679885Y-44072042D01*
X-26518681Y-44461224D01*
X-26436500Y-44874375D01*
X-26436500Y-45295625D01*
X-26518681Y-45708776D01*
X-26679885Y-46097958D01*
X-26679886Y-46097959D01*
X-26913919Y-46448214D01*
X-27211786Y-46746081D01*
X-27388104Y-46863893D01*
X-27562042Y-46980115D01*
X-27951224Y-47141319D01*
X-28364375Y-47223500D01*
X-28785625Y-47223500D01*
X-29198776Y-47141319D01*
X-29587958Y-46980115D01*
X-29761896Y-46863893D01*
X-29938214Y-46746081D01*
X-30236081Y-46448214D01*
X-30470114Y-46097959D01*
X-30470115Y-46097958D01*
X-30631319Y-45708776D01*
X-30713500Y-45295625D01*
X-30713500Y-44874375D01*
X-30631319Y-44461224D01*
X-30470115Y-44072042D01*
X-30236082Y-43721788D01*
X-30236081Y-43721786D01*
X-29938214Y-43423919D01*
X-29587959Y-43189886D01*
X-29587958Y-43189885D01*
X-29198776Y-43028681D01*
X-28785625Y-42946500D01*
X-28364375Y-42946500D01*
X-27951224Y-43028681D01*
X-27951224Y-43028681D01*
G37*
G36*
X29198776Y-43028681D02*
G01*
X29587958Y-43189885D01*
X29587959Y-43189886D01*
X29938214Y-43423919D01*
X30236081Y-43721786D01*
X30236082Y-43721788D01*
X30470115Y-44072042D01*
X30631319Y-44461224D01*
X30713500Y-44874375D01*
X30713500Y-45295625D01*
X30631319Y-45708776D01*
X30470115Y-46097958D01*
X30470114Y-46097959D01*
X30236081Y-46448214D01*
X29938214Y-46746081D01*
X29761896Y-46863893D01*
X29587958Y-46980115D01*
X29198776Y-47141319D01*
X28785625Y-47223500D01*
X28364375Y-47223500D01*
X27951224Y-47141319D01*
X27562042Y-46980115D01*
X27388104Y-46863893D01*
X27211786Y-46746081D01*
X26913919Y-46448214D01*
X26679886Y-46097959D01*
X26679885Y-46097958D01*
X26518681Y-45708776D01*
X26436500Y-45295625D01*
X26436500Y-44874375D01*
X26518681Y-44461224D01*
X26679885Y-44072042D01*
X26913918Y-43721788D01*
X26913919Y-43721786D01*
X27211786Y-43423919D01*
X27562041Y-43189886D01*
X27562042Y-43189885D01*
X27951224Y-43028681D01*
X28364375Y-42946500D01*
X28785625Y-42946500D01*
X29198776Y-43028681D01*
X29198776Y-43028681D01*
G37*
G36*
X24778254Y-36312818D02*
G01*
X25151511Y-36467426D01*
X25151513Y-36467427D01*
X25235242Y-36523373D01*
X25487436Y-36691884D01*
X25773116Y-36977564D01*
X25997574Y-37313489D01*
X26152182Y-37686746D01*
X26231000Y-38082993D01*
X26231000Y-38487007D01*
X26152182Y-38883254D01*
X26076172Y-39066758D01*
X25997573Y-39256513D01*
X25773116Y-39592436D01*
X25487436Y-39878116D01*
X25151513Y-40102573D01*
X25151512Y-40102574D01*
X25151511Y-40102574D01*
X24778254Y-40257182D01*
X24382007Y-40336000D01*
X23977993Y-40336000D01*
X23581746Y-40257182D01*
X23208489Y-40102574D01*
X23208488Y-40102574D01*
X23208487Y-40102573D01*
X22872564Y-39878116D01*
X22586884Y-39592436D01*
X22362427Y-39256513D01*
X22283828Y-39066758D01*
X22207818Y-38883254D01*
X22129000Y-38487007D01*
X22129000Y-38082993D01*
X22207818Y-37686746D01*
X22362426Y-37313489D01*
X22586884Y-36977564D01*
X22872564Y-36691884D01*
X23124758Y-36523373D01*
X23208487Y-36467427D01*
X23208489Y-36467426D01*
X23581746Y-36312818D01*
X23977993Y-36234000D01*
X24382007Y-36234000D01*
X24778254Y-36312818D01*
X24778254Y-36312818D01*
G37*
G36*
X40018254Y-36312818D02*
G01*
X40391511Y-36467426D01*
X40391513Y-36467427D01*
X40475242Y-36523373D01*
X40727436Y-36691884D01*
X41013116Y-36977564D01*
X41237574Y-37313489D01*
X41392182Y-37686746D01*
X41471000Y-38082993D01*
X41471000Y-38487007D01*
X41392182Y-38883254D01*
X41316172Y-39066758D01*
X41237573Y-39256513D01*
X41013116Y-39592436D01*
X40727436Y-39878116D01*
X40391513Y-40102573D01*
X40391512Y-40102574D01*
X40391511Y-40102574D01*
X40018254Y-40257182D01*
X39622007Y-40336000D01*
X39217993Y-40336000D01*
X38821746Y-40257182D01*
X38448489Y-40102574D01*
X38448488Y-40102574D01*
X38448487Y-40102573D01*
X38112564Y-39878116D01*
X37826884Y-39592436D01*
X37602427Y-39256513D01*
X37523828Y-39066758D01*
X37447818Y-38883254D01*
X37369000Y-38487007D01*
X37369000Y-38082993D01*
X37447818Y-37686746D01*
X37602426Y-37313489D01*
X37826884Y-36977564D01*
X38112564Y-36691884D01*
X38364758Y-36523373D01*
X38448487Y-36467427D01*
X38448489Y-36467426D01*
X38821746Y-36312818D01*
X39217993Y-36234000D01*
X39622007Y-36234000D01*
X40018254Y-36312818D01*
X40018254Y-36312818D01*
G37*
G36*
X28227142Y-37503242D02*
G01*
X28375101Y-37564529D01*
X28508255Y-37653499D01*
X28621501Y-37766745D01*
X28710471Y-37899899D01*
X28771758Y-38047858D01*
X28803000Y-38204925D01*
X28803000Y-38365075D01*
X28771758Y-38522142D01*
X28710471Y-38670101D01*
X28621501Y-38803255D01*
X28508255Y-38916501D01*
X28375101Y-39005471D01*
X28227142Y-39066758D01*
X28070075Y-39098000D01*
X27909925Y-39098000D01*
X27752858Y-39066758D01*
X27604899Y-39005471D01*
X27471745Y-38916501D01*
X27358499Y-38803255D01*
X27269529Y-38670101D01*
X27208242Y-38522142D01*
X27177000Y-38365075D01*
X27177000Y-38204925D01*
X27208242Y-38047858D01*
X27269529Y-37899899D01*
X27358499Y-37766745D01*
X27471745Y-37653499D01*
X27604899Y-37564529D01*
X27752858Y-37503242D01*
X27909925Y-37472000D01*
X28070075Y-37472000D01*
X28227142Y-37503242D01*
X28227142Y-37503242D01*
G37*
G36*
X30767142Y-37503242D02*
G01*
X30915101Y-37564529D01*
X31048255Y-37653499D01*
X31161501Y-37766745D01*
X31250471Y-37899899D01*
X31311758Y-38047858D01*
X31343000Y-38204925D01*
X31343000Y-38365075D01*
X31311758Y-38522142D01*
X31250471Y-38670101D01*
X31161501Y-38803255D01*
X31048255Y-38916501D01*
X30915101Y-39005471D01*
X30767142Y-39066758D01*
X30610075Y-39098000D01*
X30449925Y-39098000D01*
X30292858Y-39066758D01*
X30144899Y-39005471D01*
X30011745Y-38916501D01*
X29898499Y-38803255D01*
X29809529Y-38670101D01*
X29748242Y-38522142D01*
X29717000Y-38365075D01*
X29717000Y-38204925D01*
X29748242Y-38047858D01*
X29809529Y-37899899D01*
X29898499Y-37766745D01*
X30011745Y-37653499D01*
X30144899Y-37564529D01*
X30292858Y-37503242D01*
X30449925Y-37472000D01*
X30610075Y-37472000D01*
X30767142Y-37503242D01*
X30767142Y-37503242D01*
G37*
G36*
X33307142Y-37503242D02*
G01*
X33455101Y-37564529D01*
X33588255Y-37653499D01*
X33701501Y-37766745D01*
X33790471Y-37899899D01*
X33851758Y-38047858D01*
X33883000Y-38204925D01*
X33883000Y-38365075D01*
X33851758Y-38522142D01*
X33790471Y-38670101D01*
X33701501Y-38803255D01*
X33588255Y-38916501D01*
X33455101Y-39005471D01*
X33307142Y-39066758D01*
X33150075Y-39098000D01*
X32989925Y-39098000D01*
X32832858Y-39066758D01*
X32684899Y-39005471D01*
X32551745Y-38916501D01*
X32438499Y-38803255D01*
X32349529Y-38670101D01*
X32288242Y-38522142D01*
X32257000Y-38365075D01*
X32257000Y-38204925D01*
X32288242Y-38047858D01*
X32349529Y-37899899D01*
X32438499Y-37766745D01*
X32551745Y-37653499D01*
X32684899Y-37564529D01*
X32832858Y-37503242D01*
X32989925Y-37472000D01*
X33150075Y-37472000D01*
X33307142Y-37503242D01*
X33307142Y-37503242D01*
G37*
G36*
X35847142Y-37503242D02*
G01*
X35995101Y-37564529D01*
X36128255Y-37653499D01*
X36241501Y-37766745D01*
X36330471Y-37899899D01*
X36391758Y-38047858D01*
X36423000Y-38204925D01*
X36423000Y-38365075D01*
X36391758Y-38522142D01*
X36330471Y-38670101D01*
X36241501Y-38803255D01*
X36128255Y-38916501D01*
X35995101Y-39005471D01*
X35847142Y-39066758D01*
X35690075Y-39098000D01*
X35529925Y-39098000D01*
X35372858Y-39066758D01*
X35224899Y-39005471D01*
X35091745Y-38916501D01*
X34978499Y-38803255D01*
X34889529Y-38670101D01*
X34828242Y-38522142D01*
X34797000Y-38365075D01*
X34797000Y-38204925D01*
X34828242Y-38047858D01*
X34889529Y-37899899D01*
X34978499Y-37766745D01*
X35091745Y-37653499D01*
X35224899Y-37564529D01*
X35372858Y-37503242D01*
X35529925Y-37472000D01*
X35690075Y-37472000D01*
X35847142Y-37503242D01*
X35847142Y-37503242D01*
G37*
G36*
X-37587260Y-38058626D02*
G01*
X-37538864Y-38068253D01*
X-37503279Y-38082993D01*
X-37447689Y-38106019D01*
X-37447688Y-38106020D01*
X-37365631Y-38160848D01*
X-37295848Y-38230631D01*
X-37295847Y-38230633D01*
X-37241019Y-38312689D01*
X-37203253Y-38403865D01*
X-37184000Y-38500655D01*
X-37184000Y-38599345D01*
X-37203253Y-38696135D01*
X-37241019Y-38787311D01*
X-37251674Y-38803257D01*
X-37295848Y-38869369D01*
X-37365631Y-38939152D01*
X-37406938Y-38966752D01*
X-37447689Y-38993981D01*
X-37475429Y-39005471D01*
X-37538864Y-39031747D01*
X-37587260Y-39041374D01*
X-37635655Y-39051000D01*
X-37734345Y-39051000D01*
X-37782740Y-39041374D01*
X-37831136Y-39031747D01*
X-37894571Y-39005471D01*
X-37922311Y-38993981D01*
X-37963062Y-38966752D01*
X-38004369Y-38939152D01*
X-38074152Y-38869369D01*
X-38118326Y-38803257D01*
X-38128981Y-38787311D01*
X-38166747Y-38696135D01*
X-38186000Y-38599345D01*
X-38186000Y-38500655D01*
X-38166747Y-38403865D01*
X-38128981Y-38312689D01*
X-38074153Y-38230633D01*
X-38074152Y-38230631D01*
X-38004369Y-38160848D01*
X-37922312Y-38106020D01*
X-37922311Y-38106019D01*
X-37866721Y-38082993D01*
X-37831136Y-38068253D01*
X-37782740Y-38058626D01*
X-37734345Y-38049000D01*
X-37635655Y-38049000D01*
X-37587260Y-38058626D01*
X-37587260Y-38058626D01*
G37*
G36*
X7751000Y-37601000D02*
G01*
X5949000Y-37601000D01*
X5949000Y-35799000D01*
X7751000Y-35799000D01*
X7751000Y-37601000D01*
X7751000Y-37601000D01*
G37*
G36*
X9500442Y-35805518D02*
G01*
X9566627Y-35812037D01*
X9736466Y-35863557D01*
X9892991Y-35947222D01*
X9928729Y-35976552D01*
X10030186Y-36059814D01*
X10113448Y-36161271D01*
X10142778Y-36197009D01*
X10226443Y-36353534D01*
X10277963Y-36523373D01*
X10295359Y-36700000D01*
X10277963Y-36876627D01*
X10226443Y-37046466D01*
X10142778Y-37202991D01*
X10113448Y-37238729D01*
X10030186Y-37340186D01*
X9928729Y-37423448D01*
X9892991Y-37452778D01*
X9736466Y-37536443D01*
X9566627Y-37587963D01*
X9500442Y-37594482D01*
X9434260Y-37601000D01*
X9345740Y-37601000D01*
X9279558Y-37594482D01*
X9213373Y-37587963D01*
X9043534Y-37536443D01*
X8887009Y-37452778D01*
X8851271Y-37423448D01*
X8749814Y-37340186D01*
X8666552Y-37238729D01*
X8637222Y-37202991D01*
X8553557Y-37046466D01*
X8502037Y-36876627D01*
X8484641Y-36700000D01*
X8502037Y-36523373D01*
X8553557Y-36353534D01*
X8637222Y-36197009D01*
X8666552Y-36161271D01*
X8749814Y-36059814D01*
X8851271Y-35976552D01*
X8887009Y-35947222D01*
X9043534Y-35863557D01*
X9213373Y-35812037D01*
X9279558Y-35805518D01*
X9345740Y-35799000D01*
X9434260Y-35799000D01*
X9500442Y-35805518D01*
X9500442Y-35805518D01*
G37*
G36*
X-37587260Y-31258626D02*
G01*
X-37538864Y-31268253D01*
X-37501098Y-31283896D01*
X-37447689Y-31306019D01*
X-37447688Y-31306020D01*
X-37365631Y-31360848D01*
X-37295848Y-31430631D01*
X-37295847Y-31430633D01*
X-37241019Y-31512689D01*
X-37203253Y-31603865D01*
X-37184000Y-31700655D01*
X-37184000Y-31799345D01*
X-37203253Y-31896135D01*
X-37241019Y-31987311D01*
X-37241020Y-31987312D01*
X-37295848Y-32069369D01*
X-37365631Y-32139152D01*
X-37406938Y-32166752D01*
X-37447689Y-32193981D01*
X-37501098Y-32216104D01*
X-37538864Y-32231747D01*
X-37587260Y-32241373D01*
X-37635655Y-32251000D01*
X-37734345Y-32251000D01*
X-37782740Y-32241373D01*
X-37831136Y-32231747D01*
X-37868902Y-32216104D01*
X-37922311Y-32193981D01*
X-37963062Y-32166752D01*
X-38004369Y-32139152D01*
X-38074152Y-32069369D01*
X-38128980Y-31987312D01*
X-38128981Y-31987311D01*
X-38166747Y-31896135D01*
X-38186000Y-31799345D01*
X-38186000Y-31700655D01*
X-38166747Y-31603865D01*
X-38128981Y-31512689D01*
X-38074153Y-31430633D01*
X-38074152Y-31430631D01*
X-38004369Y-31360848D01*
X-37922312Y-31306020D01*
X-37922311Y-31306019D01*
X-37868902Y-31283896D01*
X-37831136Y-31268253D01*
X-37782740Y-31258626D01*
X-37734345Y-31249000D01*
X-37635655Y-31249000D01*
X-37587260Y-31258626D01*
X-37587260Y-31258626D01*
G37*
G36*
X25069085Y-27123975D02*
G01*
X25424143Y-27271045D01*
X25424145Y-27271046D01*
X25743690Y-27484559D01*
X26015441Y-27756310D01*
X26228954Y-28075855D01*
X26228955Y-28075857D01*
X26376025Y-28430915D01*
X26451000Y-28807842D01*
X26451000Y-29192158D01*
X26376025Y-29569085D01*
X26306935Y-29735882D01*
X26228954Y-29924145D01*
X26015441Y-30243690D01*
X25743690Y-30515441D01*
X25424145Y-30728954D01*
X25424144Y-30728955D01*
X25424143Y-30728955D01*
X25069085Y-30876025D01*
X24692158Y-30951000D01*
X24307842Y-30951000D01*
X23930915Y-30876025D01*
X23575857Y-30728955D01*
X23575856Y-30728955D01*
X23575855Y-30728954D01*
X23256310Y-30515441D01*
X22984559Y-30243690D01*
X22771046Y-29924145D01*
X22693065Y-29735882D01*
X22623975Y-29569085D01*
X22549000Y-29192158D01*
X22549000Y-28807842D01*
X22623975Y-28430915D01*
X22771045Y-28075857D01*
X22771046Y-28075855D01*
X22984559Y-27756310D01*
X23256310Y-27484559D01*
X23575855Y-27271046D01*
X23575857Y-27271045D01*
X23930915Y-27123975D01*
X24307842Y-27049000D01*
X24692158Y-27049000D01*
X25069085Y-27123975D01*
X25069085Y-27123975D01*
G37*
G36*
X-23930915Y-27123975D02*
G01*
X-23575857Y-27271045D01*
X-23575855Y-27271046D01*
X-23256310Y-27484559D01*
X-22984559Y-27756310D01*
X-22771046Y-28075855D01*
X-22771045Y-28075857D01*
X-22623975Y-28430915D01*
X-22549000Y-28807842D01*
X-22549000Y-29192158D01*
X-22623975Y-29569085D01*
X-22693065Y-29735882D01*
X-22771046Y-29924145D01*
X-22984559Y-30243690D01*
X-23256310Y-30515441D01*
X-23575855Y-30728954D01*
X-23575856Y-30728955D01*
X-23575857Y-30728955D01*
X-23930915Y-30876025D01*
X-24307842Y-30951000D01*
X-24692158Y-30951000D01*
X-25069085Y-30876025D01*
X-25424143Y-30728955D01*
X-25424144Y-30728955D01*
X-25424145Y-30728954D01*
X-25743690Y-30515441D01*
X-26015441Y-30243690D01*
X-26228954Y-29924145D01*
X-26306935Y-29735882D01*
X-26376025Y-29569085D01*
X-26451000Y-29192158D01*
X-26451000Y-28807842D01*
X-26376025Y-28430915D01*
X-26228955Y-28075857D01*
X-26228954Y-28075855D01*
X-26015441Y-27756310D01*
X-25743690Y-27484559D01*
X-25424145Y-27271046D01*
X-25424143Y-27271045D01*
X-25069085Y-27123975D01*
X-24692158Y-27049000D01*
X-24307842Y-27049000D01*
X-23930915Y-27123975D01*
X-23930915Y-27123975D01*
G37*
G36*
X-1610110Y-29174017D02*
G01*
X-1566316Y-29192157D01*
X-1491636Y-29223091D01*
X-1385012Y-29294335D01*
X-1294335Y-29385012D01*
X-1223091Y-29491636D01*
X-1174017Y-29610110D01*
X-1149000Y-29735882D01*
X-1149000Y-29864118D01*
X-1174017Y-29989890D01*
X-1223091Y-30108364D01*
X-1294335Y-30214988D01*
X-1385012Y-30305665D01*
X-1491636Y-30376909D01*
X-1491637Y-30376910D01*
X-1491638Y-30376910D01*
X-1610110Y-30425983D01*
X-1735881Y-30451000D01*
X-1864119Y-30451000D01*
X-1989890Y-30425983D01*
X-2108362Y-30376910D01*
X-2108363Y-30376910D01*
X-2108364Y-30376909D01*
X-2214988Y-30305665D01*
X-2305665Y-30214988D01*
X-2376909Y-30108364D01*
X-2425983Y-29989890D01*
X-2451000Y-29864118D01*
X-2451000Y-29735882D01*
X-2425983Y-29610110D01*
X-2376909Y-29491636D01*
X-2305665Y-29385012D01*
X-2214988Y-29294335D01*
X-2108364Y-29223091D01*
X-2033683Y-29192157D01*
X-1989890Y-29174017D01*
X-1864119Y-29149000D01*
X-1735881Y-29149000D01*
X-1610110Y-29174017D01*
X-1610110Y-29174017D01*
G37*
G36*
X-3695527Y-27625938D02*
G01*
X-3567951Y-27678782D01*
X-3453141Y-27755495D01*
X-3355495Y-27853141D01*
X-3278782Y-27967951D01*
X-3225938Y-28095527D01*
X-3199000Y-28230956D01*
X-3199000Y-28369044D01*
X-3225938Y-28504473D01*
X-3278782Y-28632049D01*
X-3355495Y-28746859D01*
X-3453141Y-28844505D01*
X-3567951Y-28921218D01*
X-3695527Y-28974062D01*
X-3830956Y-29001000D01*
X-3969044Y-29001000D01*
X-4104473Y-28974062D01*
X-4232049Y-28921218D01*
X-4346859Y-28844505D01*
X-4444505Y-28746859D01*
X-4521218Y-28632049D01*
X-4574062Y-28504473D01*
X-4601000Y-28369044D01*
X-4601000Y-28230956D01*
X-4574062Y-28095527D01*
X-4521218Y-27967951D01*
X-4444505Y-27853141D01*
X-4346859Y-27755495D01*
X-4232049Y-27678782D01*
X-4104473Y-27625938D01*
X-3969044Y-27599000D01*
X-3830956Y-27599000D01*
X-3695527Y-27625938D01*
X-3695527Y-27625938D01*
G37*
G36*
X-3695527Y-25625938D02*
G01*
X-3567951Y-25678782D01*
X-3453141Y-25755495D01*
X-3355495Y-25853141D01*
X-3278782Y-25967951D01*
X-3225938Y-26095527D01*
X-3199000Y-26230956D01*
X-3199000Y-26369044D01*
X-3225938Y-26504473D01*
X-3278782Y-26632049D01*
X-3355495Y-26746859D01*
X-3453141Y-26844505D01*
X-3567951Y-26921218D01*
X-3695527Y-26974062D01*
X-3830956Y-27001000D01*
X-3969044Y-27001000D01*
X-4104473Y-26974062D01*
X-4232049Y-26921218D01*
X-4346859Y-26844505D01*
X-4444505Y-26746859D01*
X-4521218Y-26632049D01*
X-4574062Y-26504473D01*
X-4601000Y-26369044D01*
X-4601000Y-26230956D01*
X-4574062Y-26095527D01*
X-4521218Y-25967951D01*
X-4444505Y-25853141D01*
X-4346859Y-25755495D01*
X-4232049Y-25678782D01*
X-4104473Y-25625938D01*
X-3969044Y-25599000D01*
X-3830956Y-25599000D01*
X-3695527Y-25625938D01*
X-3695527Y-25625938D01*
G37*
G36*
X16751000Y-26891000D02*
G01*
X14949000Y-26891000D01*
X14949000Y-25089000D01*
X16751000Y-25089000D01*
X16751000Y-26891000D01*
X16751000Y-26891000D01*
G37*
G36*
X40018254Y-22342818D02*
G01*
X40391511Y-22497426D01*
X40391513Y-22497427D01*
X40727436Y-22721884D01*
X41013116Y-23007564D01*
X41190726Y-23273375D01*
X41237574Y-23343489D01*
X41392182Y-23716746D01*
X41471000Y-24112993D01*
X41471000Y-24517007D01*
X41392182Y-24913254D01*
X41237574Y-25286511D01*
X41237573Y-25286513D01*
X41013116Y-25622436D01*
X40727436Y-25908116D01*
X40391513Y-26132573D01*
X40391512Y-26132574D01*
X40391511Y-26132574D01*
X40018254Y-26287182D01*
X39622007Y-26366000D01*
X39217993Y-26366000D01*
X38821746Y-26287182D01*
X38448489Y-26132574D01*
X38448488Y-26132574D01*
X38448487Y-26132573D01*
X38112564Y-25908116D01*
X37826884Y-25622436D01*
X37602427Y-25286513D01*
X37602426Y-25286511D01*
X37447818Y-24913254D01*
X37369000Y-24517007D01*
X37369000Y-24112993D01*
X37447818Y-23716746D01*
X37602426Y-23343489D01*
X37649275Y-23273375D01*
X37826884Y-23007564D01*
X38112564Y-22721884D01*
X38448487Y-22497427D01*
X38448489Y-22497426D01*
X38821746Y-22342818D01*
X39217993Y-22264000D01*
X39622007Y-22264000D01*
X40018254Y-22342818D01*
X40018254Y-22342818D01*
G37*
G36*
X24778254Y-22342818D02*
G01*
X25151511Y-22497426D01*
X25151513Y-22497427D01*
X25487436Y-22721884D01*
X25773116Y-23007564D01*
X25950726Y-23273375D01*
X25997574Y-23343489D01*
X26152182Y-23716746D01*
X26231000Y-24112993D01*
X26231000Y-24517007D01*
X26152182Y-24913254D01*
X25997574Y-25286511D01*
X25997573Y-25286513D01*
X25773116Y-25622436D01*
X25487436Y-25908116D01*
X25151513Y-26132573D01*
X25151512Y-26132574D01*
X25151511Y-26132574D01*
X24778254Y-26287182D01*
X24382007Y-26366000D01*
X23977993Y-26366000D01*
X23581746Y-26287182D01*
X23208489Y-26132574D01*
X23208488Y-26132574D01*
X23208487Y-26132573D01*
X22872564Y-25908116D01*
X22586884Y-25622436D01*
X22362427Y-25286513D01*
X22362426Y-25286511D01*
X22207818Y-24913254D01*
X22129000Y-24517007D01*
X22129000Y-24112993D01*
X22207818Y-23716746D01*
X22362426Y-23343489D01*
X22409275Y-23273375D01*
X22586884Y-23007564D01*
X22872564Y-22721884D01*
X23208487Y-22497427D01*
X23208489Y-22497426D01*
X23581746Y-22342818D01*
X23977993Y-22264000D01*
X24382007Y-22264000D01*
X24778254Y-22342818D01*
X24778254Y-22342818D01*
G37*
G36*
X-13279704Y-25618261D02*
G01*
X-13235845Y-25636428D01*
X-13196372Y-25662803D01*
X-13162803Y-25696372D01*
X-13136428Y-25735845D01*
X-13118261Y-25779704D01*
X-13109000Y-25826262D01*
X-13109000Y-25873738D01*
X-13118261Y-25920296D01*
X-13136428Y-25964155D01*
X-13162803Y-26003628D01*
X-13196372Y-26037197D01*
X-13235845Y-26063572D01*
X-13279704Y-26081739D01*
X-13326262Y-26091000D01*
X-13373738Y-26091000D01*
X-13420296Y-26081739D01*
X-13464155Y-26063572D01*
X-13503628Y-26037197D01*
X-13537197Y-26003628D01*
X-13563572Y-25964155D01*
X-13581739Y-25920296D01*
X-13591000Y-25873738D01*
X-13591000Y-25826262D01*
X-13581739Y-25779704D01*
X-13563572Y-25735845D01*
X-13537197Y-25696372D01*
X-13503628Y-25662803D01*
X-13464155Y-25636428D01*
X-13420296Y-25618261D01*
X-13373738Y-25609000D01*
X-13326262Y-25609000D01*
X-13279704Y-25618261D01*
X-13279704Y-25618261D01*
G37*
G36*
X-14779704Y-25618261D02*
G01*
X-14735845Y-25636428D01*
X-14696372Y-25662803D01*
X-14662803Y-25696372D01*
X-14636428Y-25735845D01*
X-14618261Y-25779704D01*
X-14609000Y-25826262D01*
X-14609000Y-25873738D01*
X-14618261Y-25920296D01*
X-14636428Y-25964155D01*
X-14662803Y-26003628D01*
X-14696372Y-26037197D01*
X-14735845Y-26063572D01*
X-14779704Y-26081739D01*
X-14826262Y-26091000D01*
X-14873738Y-26091000D01*
X-14920296Y-26081739D01*
X-14964155Y-26063572D01*
X-15003628Y-26037197D01*
X-15037197Y-26003628D01*
X-15063572Y-25964155D01*
X-15081739Y-25920296D01*
X-15091000Y-25873738D01*
X-15091000Y-25826262D01*
X-15081739Y-25779704D01*
X-15063572Y-25735845D01*
X-15037197Y-25696372D01*
X-15003628Y-25662803D01*
X-14964155Y-25636428D01*
X-14920296Y-25618261D01*
X-14873738Y-25609000D01*
X-14826262Y-25609000D01*
X-14779704Y-25618261D01*
X-14779704Y-25618261D01*
G37*
G36*
X-16279704Y-25618261D02*
G01*
X-16235845Y-25636428D01*
X-16196372Y-25662803D01*
X-16162803Y-25696372D01*
X-16136428Y-25735845D01*
X-16118261Y-25779704D01*
X-16109000Y-25826262D01*
X-16109000Y-25873738D01*
X-16118261Y-25920296D01*
X-16136428Y-25964155D01*
X-16162803Y-26003628D01*
X-16196372Y-26037197D01*
X-16235845Y-26063572D01*
X-16279704Y-26081739D01*
X-16326262Y-26091000D01*
X-16373738Y-26091000D01*
X-16420296Y-26081739D01*
X-16464155Y-26063572D01*
X-16503628Y-26037197D01*
X-16537197Y-26003628D01*
X-16563572Y-25964155D01*
X-16581739Y-25920296D01*
X-16591000Y-25873738D01*
X-16591000Y-25826262D01*
X-16581739Y-25779704D01*
X-16563572Y-25735845D01*
X-16537197Y-25696372D01*
X-16503628Y-25662803D01*
X-16464155Y-25636428D01*
X-16420296Y-25618261D01*
X-16373738Y-25609000D01*
X-16326262Y-25609000D01*
X-16279704Y-25618261D01*
X-16279704Y-25618261D01*
G37*
G36*
X-3695527Y-23625938D02*
G01*
X-3567951Y-23678782D01*
X-3453141Y-23755495D01*
X-3355495Y-23853141D01*
X-3278782Y-23967951D01*
X-3225938Y-24095527D01*
X-3199000Y-24230956D01*
X-3199000Y-24369044D01*
X-3225938Y-24504473D01*
X-3278782Y-24632049D01*
X-3355495Y-24746859D01*
X-3453141Y-24844505D01*
X-3567951Y-24921218D01*
X-3695527Y-24974062D01*
X-3830956Y-25001000D01*
X-3969044Y-25001000D01*
X-4104473Y-24974062D01*
X-4232049Y-24921218D01*
X-4346859Y-24844505D01*
X-4444505Y-24746859D01*
X-4521218Y-24632049D01*
X-4574062Y-24504473D01*
X-4601000Y-24369044D01*
X-4601000Y-24230956D01*
X-4574062Y-24095527D01*
X-4521218Y-23967951D01*
X-4444505Y-23853141D01*
X-4346859Y-23755495D01*
X-4232049Y-23678782D01*
X-4104473Y-23625938D01*
X-3969044Y-23599000D01*
X-3830956Y-23599000D01*
X-3695527Y-23625938D01*
X-3695527Y-23625938D01*
G37*
G36*
X-14779704Y-24118261D02*
G01*
X-14735845Y-24136428D01*
X-14696372Y-24162803D01*
X-14662803Y-24196372D01*
X-14636428Y-24235845D01*
X-14618261Y-24279704D01*
X-14609000Y-24326262D01*
X-14609000Y-24373738D01*
X-14618261Y-24420296D01*
X-14636428Y-24464155D01*
X-14662803Y-24503628D01*
X-14696372Y-24537197D01*
X-14735845Y-24563572D01*
X-14779704Y-24581739D01*
X-14826262Y-24591000D01*
X-14873738Y-24591000D01*
X-14920296Y-24581739D01*
X-14964155Y-24563572D01*
X-15003628Y-24537197D01*
X-15037197Y-24503628D01*
X-15063572Y-24464155D01*
X-15081739Y-24420296D01*
X-15091000Y-24373738D01*
X-15091000Y-24326262D01*
X-15081739Y-24279704D01*
X-15063572Y-24235845D01*
X-15037197Y-24196372D01*
X-15003628Y-24162803D01*
X-14964155Y-24136428D01*
X-14920296Y-24118261D01*
X-14873738Y-24109000D01*
X-14826262Y-24109000D01*
X-14779704Y-24118261D01*
X-14779704Y-24118261D01*
G37*
G36*
X-16279704Y-24118261D02*
G01*
X-16235845Y-24136428D01*
X-16196372Y-24162803D01*
X-16162803Y-24196372D01*
X-16136428Y-24235845D01*
X-16118261Y-24279704D01*
X-16109000Y-24326262D01*
X-16109000Y-24373738D01*
X-16118261Y-24420296D01*
X-16136428Y-24464155D01*
X-16162803Y-24503628D01*
X-16196372Y-24537197D01*
X-16235845Y-24563572D01*
X-16279704Y-24581739D01*
X-16326262Y-24591000D01*
X-16373738Y-24591000D01*
X-16420296Y-24581739D01*
X-16464155Y-24563572D01*
X-16503628Y-24537197D01*
X-16537197Y-24503628D01*
X-16563572Y-24464155D01*
X-16581739Y-24420296D01*
X-16591000Y-24373738D01*
X-16591000Y-24326262D01*
X-16581739Y-24279704D01*
X-16563572Y-24235845D01*
X-16537197Y-24196372D01*
X-16503628Y-24162803D01*
X-16464155Y-24136428D01*
X-16420296Y-24118261D01*
X-16373738Y-24109000D01*
X-16326262Y-24109000D01*
X-16279704Y-24118261D01*
X-16279704Y-24118261D01*
G37*
G36*
X-13279704Y-24118261D02*
G01*
X-13235845Y-24136428D01*
X-13196372Y-24162803D01*
X-13162803Y-24196372D01*
X-13136428Y-24235845D01*
X-13118261Y-24279704D01*
X-13109000Y-24326262D01*
X-13109000Y-24373738D01*
X-13118261Y-24420296D01*
X-13136428Y-24464155D01*
X-13162803Y-24503628D01*
X-13196372Y-24537197D01*
X-13235845Y-24563572D01*
X-13279704Y-24581739D01*
X-13326262Y-24591000D01*
X-13373738Y-24591000D01*
X-13420296Y-24581739D01*
X-13464155Y-24563572D01*
X-13503628Y-24537197D01*
X-13537197Y-24503628D01*
X-13563572Y-24464155D01*
X-13581739Y-24420296D01*
X-13591000Y-24373738D01*
X-13591000Y-24326262D01*
X-13581739Y-24279704D01*
X-13563572Y-24235845D01*
X-13537197Y-24196372D01*
X-13503628Y-24162803D01*
X-13464155Y-24136428D01*
X-13420296Y-24118261D01*
X-13373738Y-24109000D01*
X-13326262Y-24109000D01*
X-13279704Y-24118261D01*
X-13279704Y-24118261D01*
G37*
G36*
X15960442Y-22555518D02*
G01*
X16026627Y-22562037D01*
X16196466Y-22613557D01*
X16352991Y-22697222D01*
X16388729Y-22726552D01*
X16490186Y-22809814D01*
X16573448Y-22911271D01*
X16602778Y-22947009D01*
X16686443Y-23103534D01*
X16737963Y-23273373D01*
X16755359Y-23450000D01*
X16737963Y-23626627D01*
X16686443Y-23796466D01*
X16602778Y-23952991D01*
X16573448Y-23988729D01*
X16490186Y-24090186D01*
X16388729Y-24173448D01*
X16352991Y-24202778D01*
X16196466Y-24286443D01*
X16026627Y-24337963D01*
X15960443Y-24344481D01*
X15894260Y-24351000D01*
X15805740Y-24351000D01*
X15739557Y-24344481D01*
X15673373Y-24337963D01*
X15503534Y-24286443D01*
X15347009Y-24202778D01*
X15311271Y-24173448D01*
X15209814Y-24090186D01*
X15126552Y-23988729D01*
X15097222Y-23952991D01*
X15013557Y-23796466D01*
X14962037Y-23626627D01*
X14944641Y-23450000D01*
X14962037Y-23273373D01*
X15013557Y-23103534D01*
X15097222Y-22947009D01*
X15126552Y-22911271D01*
X15209814Y-22809814D01*
X15311271Y-22726552D01*
X15347009Y-22697222D01*
X15503534Y-22613557D01*
X15673373Y-22562037D01*
X15739558Y-22555518D01*
X15805740Y-22549000D01*
X15894260Y-22549000D01*
X15960442Y-22555518D01*
X15960442Y-22555518D01*
G37*
G36*
X-1610110Y-22174017D02*
G01*
X-1491636Y-22223091D01*
X-1385012Y-22294335D01*
X-1294335Y-22385012D01*
X-1223090Y-22491638D01*
X-1174017Y-22610110D01*
X-1149000Y-22735881D01*
X-1149000Y-22864119D01*
X-1174017Y-22989890D01*
X-1221089Y-23103532D01*
X-1223091Y-23108364D01*
X-1294335Y-23214988D01*
X-1385012Y-23305665D01*
X-1491636Y-23376909D01*
X-1491637Y-23376910D01*
X-1491638Y-23376910D01*
X-1610110Y-23425983D01*
X-1735881Y-23451000D01*
X-1864119Y-23451000D01*
X-1989890Y-23425983D01*
X-2108362Y-23376910D01*
X-2108363Y-23376910D01*
X-2108364Y-23376909D01*
X-2214988Y-23305665D01*
X-2305665Y-23214988D01*
X-2376909Y-23108364D01*
X-2378910Y-23103532D01*
X-2425983Y-22989890D01*
X-2451000Y-22864119D01*
X-2451000Y-22735881D01*
X-2425983Y-22610110D01*
X-2376910Y-22491638D01*
X-2305665Y-22385012D01*
X-2214988Y-22294335D01*
X-2108364Y-22223091D01*
X-1989890Y-22174017D01*
X-1864119Y-22149000D01*
X-1735881Y-22149000D01*
X-1610110Y-22174017D01*
X-1610110Y-22174017D01*
G37*
G36*
X35673512Y-18153927D02*
G01*
X35822812Y-18183624D01*
X35986784Y-18251544D01*
X36134354Y-18350147D01*
X36259853Y-18475646D01*
X36358456Y-18623216D01*
X36426376Y-18787188D01*
X36461000Y-18961259D01*
X36461000Y-19138741D01*
X36426376Y-19312812D01*
X36358456Y-19476784D01*
X36259853Y-19624354D01*
X36134354Y-19749853D01*
X35986784Y-19848456D01*
X35822812Y-19916376D01*
X35673512Y-19946073D01*
X35648742Y-19951000D01*
X35471258Y-19951000D01*
X35446488Y-19946073D01*
X35297188Y-19916376D01*
X35133216Y-19848456D01*
X34985646Y-19749853D01*
X34860147Y-19624354D01*
X34761544Y-19476784D01*
X34693624Y-19312812D01*
X34659000Y-19138741D01*
X34659000Y-18961259D01*
X34693624Y-18787188D01*
X34761544Y-18623216D01*
X34860147Y-18475646D01*
X34985646Y-18350147D01*
X35133216Y-18251544D01*
X35297188Y-18183624D01*
X35446488Y-18153927D01*
X35471258Y-18149000D01*
X35648742Y-18149000D01*
X35673512Y-18153927D01*
X35673512Y-18153927D01*
G37*
G36*
X-35446488Y-18153927D02*
G01*
X-35297188Y-18183624D01*
X-35133216Y-18251544D01*
X-34985646Y-18350147D01*
X-34860147Y-18475646D01*
X-34761544Y-18623216D01*
X-34693624Y-18787188D01*
X-34659000Y-18961259D01*
X-34659000Y-19138741D01*
X-34693624Y-19312812D01*
X-34761544Y-19476784D01*
X-34860147Y-19624354D01*
X-34985646Y-19749853D01*
X-35133216Y-19848456D01*
X-35297188Y-19916376D01*
X-35446488Y-19946073D01*
X-35471258Y-19951000D01*
X-35648742Y-19951000D01*
X-35673512Y-19946073D01*
X-35822812Y-19916376D01*
X-35986784Y-19848456D01*
X-36134354Y-19749853D01*
X-36259853Y-19624354D01*
X-36358456Y-19476784D01*
X-36426376Y-19312812D01*
X-36461000Y-19138741D01*
X-36461000Y-18961259D01*
X-36426376Y-18787188D01*
X-36358456Y-18623216D01*
X-36259853Y-18475646D01*
X-36134354Y-18350147D01*
X-35986784Y-18251544D01*
X-35822812Y-18183624D01*
X-35673512Y-18153927D01*
X-35648742Y-18149000D01*
X-35471258Y-18149000D01*
X-35446488Y-18153927D01*
X-35446488Y-18153927D01*
G37*
G36*
X35673512Y-15613927D02*
G01*
X35822812Y-15643624D01*
X35986784Y-15711544D01*
X36134354Y-15810147D01*
X36259853Y-15935646D01*
X36358456Y-16083216D01*
X36426376Y-16247188D01*
X36461000Y-16421259D01*
X36461000Y-16598741D01*
X36426376Y-16772812D01*
X36358456Y-16936784D01*
X36259853Y-17084354D01*
X36134354Y-17209853D01*
X35986784Y-17308456D01*
X35822812Y-17376376D01*
X35673512Y-17406073D01*
X35648742Y-17411000D01*
X35471258Y-17411000D01*
X35446488Y-17406073D01*
X35297188Y-17376376D01*
X35133216Y-17308456D01*
X34985646Y-17209853D01*
X34860147Y-17084354D01*
X34761544Y-16936784D01*
X34693624Y-16772812D01*
X34659000Y-16598741D01*
X34659000Y-16421259D01*
X34693624Y-16247188D01*
X34761544Y-16083216D01*
X34860147Y-15935646D01*
X34985646Y-15810147D01*
X35133216Y-15711544D01*
X35297188Y-15643624D01*
X35446488Y-15613927D01*
X35471258Y-15609000D01*
X35648742Y-15609000D01*
X35673512Y-15613927D01*
X35673512Y-15613927D01*
G37*
G36*
X-35446488Y-15613927D02*
G01*
X-35297188Y-15643624D01*
X-35133216Y-15711544D01*
X-34985646Y-15810147D01*
X-34860147Y-15935646D01*
X-34761544Y-16083216D01*
X-34693624Y-16247188D01*
X-34659000Y-16421259D01*
X-34659000Y-16598741D01*
X-34693624Y-16772812D01*
X-34761544Y-16936784D01*
X-34860147Y-17084354D01*
X-34985646Y-17209853D01*
X-35133216Y-17308456D01*
X-35297188Y-17376376D01*
X-35446488Y-17406073D01*
X-35471258Y-17411000D01*
X-35648742Y-17411000D01*
X-35673512Y-17406073D01*
X-35822812Y-17376376D01*
X-35986784Y-17308456D01*
X-36134354Y-17209853D01*
X-36259853Y-17084354D01*
X-36358456Y-16936784D01*
X-36426376Y-16772812D01*
X-36461000Y-16598741D01*
X-36461000Y-16421259D01*
X-36426376Y-16247188D01*
X-36358456Y-16083216D01*
X-36259853Y-15935646D01*
X-36134354Y-15810147D01*
X-35986784Y-15711544D01*
X-35822812Y-15643624D01*
X-35673512Y-15613927D01*
X-35648742Y-15609000D01*
X-35471258Y-15609000D01*
X-35446488Y-15613927D01*
X-35446488Y-15613927D01*
G37*
G36*
X-35446488Y-13073927D02*
G01*
X-35297188Y-13103624D01*
X-35133216Y-13171544D01*
X-34985646Y-13270147D01*
X-34860147Y-13395646D01*
X-34761544Y-13543216D01*
X-34693624Y-13707188D01*
X-34659000Y-13881259D01*
X-34659000Y-14058741D01*
X-34693624Y-14232812D01*
X-34761544Y-14396784D01*
X-34860147Y-14544354D01*
X-34985646Y-14669853D01*
X-35133216Y-14768456D01*
X-35297188Y-14836376D01*
X-35446488Y-14866073D01*
X-35471258Y-14871000D01*
X-35648742Y-14871000D01*
X-35673512Y-14866073D01*
X-35822812Y-14836376D01*
X-35986784Y-14768456D01*
X-36134354Y-14669853D01*
X-36259853Y-14544354D01*
X-36358456Y-14396784D01*
X-36426376Y-14232812D01*
X-36461000Y-14058741D01*
X-36461000Y-13881259D01*
X-36426376Y-13707188D01*
X-36358456Y-13543216D01*
X-36259853Y-13395646D01*
X-36134354Y-13270147D01*
X-35986784Y-13171544D01*
X-35822812Y-13103624D01*
X-35673512Y-13073927D01*
X-35648742Y-13069000D01*
X-35471258Y-13069000D01*
X-35446488Y-13073927D01*
X-35446488Y-13073927D01*
G37*
G36*
X35673512Y-13073927D02*
G01*
X35822812Y-13103624D01*
X35986784Y-13171544D01*
X36134354Y-13270147D01*
X36259853Y-13395646D01*
X36358456Y-13543216D01*
X36426376Y-13707188D01*
X36461000Y-13881259D01*
X36461000Y-14058741D01*
X36426376Y-14232812D01*
X36358456Y-14396784D01*
X36259853Y-14544354D01*
X36134354Y-14669853D01*
X35986784Y-14768456D01*
X35822812Y-14836376D01*
X35673512Y-14866073D01*
X35648742Y-14871000D01*
X35471258Y-14871000D01*
X35446488Y-14866073D01*
X35297188Y-14836376D01*
X35133216Y-14768456D01*
X34985646Y-14669853D01*
X34860147Y-14544354D01*
X34761544Y-14396784D01*
X34693624Y-14232812D01*
X34659000Y-14058741D01*
X34659000Y-13881259D01*
X34693624Y-13707188D01*
X34761544Y-13543216D01*
X34860147Y-13395646D01*
X34985646Y-13270147D01*
X35133216Y-13171544D01*
X35297188Y-13103624D01*
X35446488Y-13073927D01*
X35471258Y-13069000D01*
X35648742Y-13069000D01*
X35673512Y-13073927D01*
X35673512Y-13073927D01*
G37*
G36*
X-35446488Y-10533927D02*
G01*
X-35297188Y-10563624D01*
X-35133216Y-10631544D01*
X-34985646Y-10730147D01*
X-34860147Y-10855646D01*
X-34761544Y-11003216D01*
X-34693624Y-11167188D01*
X-34659000Y-11341259D01*
X-34659000Y-11518741D01*
X-34693624Y-11692812D01*
X-34761544Y-11856784D01*
X-34860147Y-12004354D01*
X-34985646Y-12129853D01*
X-35133216Y-12228456D01*
X-35297188Y-12296376D01*
X-35446488Y-12326073D01*
X-35471258Y-12331000D01*
X-35648742Y-12331000D01*
X-35673512Y-12326073D01*
X-35822812Y-12296376D01*
X-35986784Y-12228456D01*
X-36134354Y-12129853D01*
X-36259853Y-12004354D01*
X-36358456Y-11856784D01*
X-36426376Y-11692812D01*
X-36461000Y-11518741D01*
X-36461000Y-11341259D01*
X-36426376Y-11167188D01*
X-36358456Y-11003216D01*
X-36259853Y-10855646D01*
X-36134354Y-10730147D01*
X-35986784Y-10631544D01*
X-35822812Y-10563624D01*
X-35673512Y-10533927D01*
X-35648742Y-10529000D01*
X-35471258Y-10529000D01*
X-35446488Y-10533927D01*
X-35446488Y-10533927D01*
G37*
G36*
X35673512Y-10533927D02*
G01*
X35822812Y-10563624D01*
X35986784Y-10631544D01*
X36134354Y-10730147D01*
X36259853Y-10855646D01*
X36358456Y-11003216D01*
X36426376Y-11167188D01*
X36461000Y-11341259D01*
X36461000Y-11518741D01*
X36426376Y-11692812D01*
X36358456Y-11856784D01*
X36259853Y-12004354D01*
X36134354Y-12129853D01*
X35986784Y-12228456D01*
X35822812Y-12296376D01*
X35673512Y-12326073D01*
X35648742Y-12331000D01*
X35471258Y-12331000D01*
X35446488Y-12326073D01*
X35297188Y-12296376D01*
X35133216Y-12228456D01*
X34985646Y-12129853D01*
X34860147Y-12004354D01*
X34761544Y-11856784D01*
X34693624Y-11692812D01*
X34659000Y-11518741D01*
X34659000Y-11341259D01*
X34693624Y-11167188D01*
X34761544Y-11003216D01*
X34860147Y-10855646D01*
X34985646Y-10730147D01*
X35133216Y-10631544D01*
X35297188Y-10563624D01*
X35446488Y-10533927D01*
X35471258Y-10529000D01*
X35648742Y-10529000D01*
X35673512Y-10533927D01*
X35673512Y-10533927D01*
G37*
G36*
X35673512Y-7993927D02*
G01*
X35822812Y-8023624D01*
X35986784Y-8091544D01*
X36134354Y-8190147D01*
X36259853Y-8315646D01*
X36358456Y-8463216D01*
X36426376Y-8627188D01*
X36461000Y-8801259D01*
X36461000Y-8978741D01*
X36426376Y-9152812D01*
X36358456Y-9316784D01*
X36259853Y-9464354D01*
X36134354Y-9589853D01*
X35986784Y-9688456D01*
X35822812Y-9756376D01*
X35673512Y-9786073D01*
X35648742Y-9791000D01*
X35471258Y-9791000D01*
X35446488Y-9786073D01*
X35297188Y-9756376D01*
X35133216Y-9688456D01*
X34985646Y-9589853D01*
X34860147Y-9464354D01*
X34761544Y-9316784D01*
X34693624Y-9152812D01*
X34659000Y-8978741D01*
X34659000Y-8801259D01*
X34693624Y-8627188D01*
X34761544Y-8463216D01*
X34860147Y-8315646D01*
X34985646Y-8190147D01*
X35133216Y-8091544D01*
X35297188Y-8023624D01*
X35446488Y-7993927D01*
X35471258Y-7989000D01*
X35648742Y-7989000D01*
X35673512Y-7993927D01*
X35673512Y-7993927D01*
G37*
G36*
X-35446488Y-7993927D02*
G01*
X-35297188Y-8023624D01*
X-35133216Y-8091544D01*
X-34985646Y-8190147D01*
X-34860147Y-8315646D01*
X-34761544Y-8463216D01*
X-34693624Y-8627188D01*
X-34659000Y-8801259D01*
X-34659000Y-8978741D01*
X-34693624Y-9152812D01*
X-34761544Y-9316784D01*
X-34860147Y-9464354D01*
X-34985646Y-9589853D01*
X-35133216Y-9688456D01*
X-35297188Y-9756376D01*
X-35446488Y-9786073D01*
X-35471258Y-9791000D01*
X-35648742Y-9791000D01*
X-35673512Y-9786073D01*
X-35822812Y-9756376D01*
X-35986784Y-9688456D01*
X-36134354Y-9589853D01*
X-36259853Y-9464354D01*
X-36358456Y-9316784D01*
X-36426376Y-9152812D01*
X-36461000Y-8978741D01*
X-36461000Y-8801259D01*
X-36426376Y-8627188D01*
X-36358456Y-8463216D01*
X-36259853Y-8315646D01*
X-36134354Y-8190147D01*
X-35986784Y-8091544D01*
X-35822812Y-8023624D01*
X-35673512Y-7993927D01*
X-35648742Y-7989000D01*
X-35471258Y-7989000D01*
X-35446488Y-7993927D01*
X-35446488Y-7993927D01*
G37*
G36*
X35673512Y-5453927D02*
G01*
X35822812Y-5483624D01*
X35986784Y-5551544D01*
X36134354Y-5650147D01*
X36259853Y-5775646D01*
X36358456Y-5923216D01*
X36426376Y-6087188D01*
X36461000Y-6261259D01*
X36461000Y-6438741D01*
X36426376Y-6612812D01*
X36358456Y-6776784D01*
X36259853Y-6924354D01*
X36134354Y-7049853D01*
X35986784Y-7148456D01*
X35822812Y-7216376D01*
X35673512Y-7246073D01*
X35648742Y-7251000D01*
X35471258Y-7251000D01*
X35446488Y-7246073D01*
X35297188Y-7216376D01*
X35133216Y-7148456D01*
X34985646Y-7049853D01*
X34860147Y-6924354D01*
X34761544Y-6776784D01*
X34693624Y-6612812D01*
X34659000Y-6438741D01*
X34659000Y-6261259D01*
X34693624Y-6087188D01*
X34761544Y-5923216D01*
X34860147Y-5775646D01*
X34985646Y-5650147D01*
X35133216Y-5551544D01*
X35297188Y-5483624D01*
X35446488Y-5453927D01*
X35471258Y-5449000D01*
X35648742Y-5449000D01*
X35673512Y-5453927D01*
X35673512Y-5453927D01*
G37*
G36*
X-35446488Y-5453927D02*
G01*
X-35297188Y-5483624D01*
X-35133216Y-5551544D01*
X-34985646Y-5650147D01*
X-34860147Y-5775646D01*
X-34761544Y-5923216D01*
X-34693624Y-6087188D01*
X-34659000Y-6261259D01*
X-34659000Y-6438741D01*
X-34693624Y-6612812D01*
X-34761544Y-6776784D01*
X-34860147Y-6924354D01*
X-34985646Y-7049853D01*
X-35133216Y-7148456D01*
X-35297188Y-7216376D01*
X-35446488Y-7246073D01*
X-35471258Y-7251000D01*
X-35648742Y-7251000D01*
X-35673512Y-7246073D01*
X-35822812Y-7216376D01*
X-35986784Y-7148456D01*
X-36134354Y-7049853D01*
X-36259853Y-6924354D01*
X-36358456Y-6776784D01*
X-36426376Y-6612812D01*
X-36461000Y-6438741D01*
X-36461000Y-6261259D01*
X-36426376Y-6087188D01*
X-36358456Y-5923216D01*
X-36259853Y-5775646D01*
X-36134354Y-5650147D01*
X-35986784Y-5551544D01*
X-35822812Y-5483624D01*
X-35673512Y-5453927D01*
X-35648742Y-5449000D01*
X-35471258Y-5449000D01*
X-35446488Y-5453927D01*
X-35446488Y-5453927D01*
G37*
G36*
X-35446488Y-2913927D02*
G01*
X-35297188Y-2943624D01*
X-35133216Y-3011544D01*
X-34985646Y-3110147D01*
X-34860147Y-3235646D01*
X-34761544Y-3383216D01*
X-34693624Y-3547188D01*
X-34659000Y-3721259D01*
X-34659000Y-3898741D01*
X-34693624Y-4072812D01*
X-34761544Y-4236784D01*
X-34860147Y-4384354D01*
X-34985646Y-4509853D01*
X-35133216Y-4608456D01*
X-35297188Y-4676376D01*
X-35446488Y-4706073D01*
X-35471258Y-4711000D01*
X-35648742Y-4711000D01*
X-35673512Y-4706073D01*
X-35822812Y-4676376D01*
X-35986784Y-4608456D01*
X-36134354Y-4509853D01*
X-36259853Y-4384354D01*
X-36358456Y-4236784D01*
X-36426376Y-4072812D01*
X-36461000Y-3898741D01*
X-36461000Y-3721259D01*
X-36426376Y-3547188D01*
X-36358456Y-3383216D01*
X-36259853Y-3235646D01*
X-36134354Y-3110147D01*
X-35986784Y-3011544D01*
X-35822812Y-2943624D01*
X-35673512Y-2913927D01*
X-35648742Y-2909000D01*
X-35471258Y-2909000D01*
X-35446488Y-2913927D01*
X-35446488Y-2913927D01*
G37*
G36*
X35673512Y-2913927D02*
G01*
X35822812Y-2943624D01*
X35986784Y-3011544D01*
X36134354Y-3110147D01*
X36259853Y-3235646D01*
X36358456Y-3383216D01*
X36426376Y-3547188D01*
X36461000Y-3721259D01*
X36461000Y-3898741D01*
X36426376Y-4072812D01*
X36358456Y-4236784D01*
X36259853Y-4384354D01*
X36134354Y-4509853D01*
X35986784Y-4608456D01*
X35822812Y-4676376D01*
X35673512Y-4706073D01*
X35648742Y-4711000D01*
X35471258Y-4711000D01*
X35446488Y-4706073D01*
X35297188Y-4676376D01*
X35133216Y-4608456D01*
X34985646Y-4509853D01*
X34860147Y-4384354D01*
X34761544Y-4236784D01*
X34693624Y-4072812D01*
X34659000Y-3898741D01*
X34659000Y-3721259D01*
X34693624Y-3547188D01*
X34761544Y-3383216D01*
X34860147Y-3235646D01*
X34985646Y-3110147D01*
X35133216Y-3011544D01*
X35297188Y-2943624D01*
X35446488Y-2913927D01*
X35471258Y-2909000D01*
X35648742Y-2909000D01*
X35673512Y-2913927D01*
X35673512Y-2913927D01*
G37*
G36*
X-35446488Y-373927D02*
G01*
X-35297188Y-403624D01*
X-35133216Y-471544D01*
X-34985646Y-570147D01*
X-34860147Y-695646D01*
X-34761544Y-843216D01*
X-34693624Y-1007188D01*
X-34659000Y-1181259D01*
X-34659000Y-1358741D01*
X-34693624Y-1532812D01*
X-34761544Y-1696784D01*
X-34860147Y-1844354D01*
X-34985646Y-1969853D01*
X-35133216Y-2068456D01*
X-35297188Y-2136376D01*
X-35446488Y-2166073D01*
X-35471258Y-2171000D01*
X-35648742Y-2171000D01*
X-35673512Y-2166073D01*
X-35822812Y-2136376D01*
X-35986784Y-2068456D01*
X-36134354Y-1969853D01*
X-36259853Y-1844354D01*
X-36358456Y-1696784D01*
X-36426376Y-1532812D01*
X-36461000Y-1358741D01*
X-36461000Y-1181259D01*
X-36426376Y-1007188D01*
X-36358456Y-843216D01*
X-36259853Y-695646D01*
X-36134354Y-570147D01*
X-35986784Y-471544D01*
X-35822812Y-403624D01*
X-35673512Y-373927D01*
X-35648742Y-369000D01*
X-35471258Y-369000D01*
X-35446488Y-373927D01*
X-35446488Y-373927D01*
G37*
G36*
X35673512Y-373927D02*
G01*
X35822812Y-403624D01*
X35986784Y-471544D01*
X36134354Y-570147D01*
X36259853Y-695646D01*
X36358456Y-843216D01*
X36426376Y-1007188D01*
X36461000Y-1181259D01*
X36461000Y-1358741D01*
X36426376Y-1532812D01*
X36358456Y-1696784D01*
X36259853Y-1844354D01*
X36134354Y-1969853D01*
X35986784Y-2068456D01*
X35822812Y-2136376D01*
X35673512Y-2166073D01*
X35648742Y-2171000D01*
X35471258Y-2171000D01*
X35446488Y-2166073D01*
X35297188Y-2136376D01*
X35133216Y-2068456D01*
X34985646Y-1969853D01*
X34860147Y-1844354D01*
X34761544Y-1696784D01*
X34693624Y-1532812D01*
X34659000Y-1358741D01*
X34659000Y-1181259D01*
X34693624Y-1007188D01*
X34761544Y-843216D01*
X34860147Y-695646D01*
X34985646Y-570147D01*
X35133216Y-471544D01*
X35297188Y-403624D01*
X35446488Y-373927D01*
X35471258Y-369000D01*
X35648742Y-369000D01*
X35673512Y-373927D01*
X35673512Y-373927D01*
G37*
G36*
X-35446488Y2166073D02*
G01*
X-35297188Y2136376D01*
X-35133216Y2068456D01*
X-34985646Y1969853D01*
X-34860147Y1844354D01*
X-34761544Y1696784D01*
X-34693624Y1532812D01*
X-34659000Y1358741D01*
X-34659000Y1181259D01*
X-34693624Y1007188D01*
X-34761544Y843216D01*
X-34860147Y695646D01*
X-34985646Y570147D01*
X-35133216Y471544D01*
X-35297188Y403624D01*
X-35446488Y373927D01*
X-35471258Y369000D01*
X-35648742Y369000D01*
X-35673512Y373927D01*
X-35822812Y403624D01*
X-35986784Y471544D01*
X-36134354Y570147D01*
X-36259853Y695646D01*
X-36358456Y843216D01*
X-36426376Y1007188D01*
X-36461000Y1181259D01*
X-36461000Y1358741D01*
X-36426376Y1532812D01*
X-36358456Y1696784D01*
X-36259853Y1844354D01*
X-36134354Y1969853D01*
X-35986784Y2068456D01*
X-35822812Y2136376D01*
X-35673512Y2166073D01*
X-35648742Y2171000D01*
X-35471258Y2171000D01*
X-35446488Y2166073D01*
X-35446488Y2166073D01*
G37*
G36*
X35673512Y2166073D02*
G01*
X35822812Y2136376D01*
X35986784Y2068456D01*
X36134354Y1969853D01*
X36259853Y1844354D01*
X36358456Y1696784D01*
X36426376Y1532812D01*
X36461000Y1358741D01*
X36461000Y1181259D01*
X36426376Y1007188D01*
X36358456Y843216D01*
X36259853Y695646D01*
X36134354Y570147D01*
X35986784Y471544D01*
X35822812Y403624D01*
X35673512Y373927D01*
X35648742Y369000D01*
X35471258Y369000D01*
X35446488Y373927D01*
X35297188Y403624D01*
X35133216Y471544D01*
X34985646Y570147D01*
X34860147Y695646D01*
X34761544Y843216D01*
X34693624Y1007188D01*
X34659000Y1181259D01*
X34659000Y1358741D01*
X34693624Y1532812D01*
X34761544Y1696784D01*
X34860147Y1844354D01*
X34985646Y1969853D01*
X35133216Y2068456D01*
X35297188Y2136376D01*
X35446488Y2166073D01*
X35471258Y2171000D01*
X35648742Y2171000D01*
X35673512Y2166073D01*
X35673512Y2166073D01*
G37*
G36*
X-35446488Y4706073D02*
G01*
X-35297188Y4676376D01*
X-35133216Y4608456D01*
X-34985646Y4509853D01*
X-34860147Y4384354D01*
X-34761544Y4236784D01*
X-34693624Y4072812D01*
X-34659000Y3898741D01*
X-34659000Y3721259D01*
X-34693624Y3547188D01*
X-34761544Y3383216D01*
X-34860147Y3235646D01*
X-34985646Y3110147D01*
X-35133216Y3011544D01*
X-35297188Y2943624D01*
X-35446488Y2913927D01*
X-35471258Y2909000D01*
X-35648742Y2909000D01*
X-35673512Y2913927D01*
X-35822812Y2943624D01*
X-35986784Y3011544D01*
X-36134354Y3110147D01*
X-36259853Y3235646D01*
X-36358456Y3383216D01*
X-36426376Y3547188D01*
X-36461000Y3721259D01*
X-36461000Y3898741D01*
X-36426376Y4072812D01*
X-36358456Y4236784D01*
X-36259853Y4384354D01*
X-36134354Y4509853D01*
X-35986784Y4608456D01*
X-35822812Y4676376D01*
X-35673512Y4706073D01*
X-35648742Y4711000D01*
X-35471258Y4711000D01*
X-35446488Y4706073D01*
X-35446488Y4706073D01*
G37*
G36*
X35673512Y4706073D02*
G01*
X35822812Y4676376D01*
X35986784Y4608456D01*
X36134354Y4509853D01*
X36259853Y4384354D01*
X36358456Y4236784D01*
X36426376Y4072812D01*
X36461000Y3898741D01*
X36461000Y3721259D01*
X36426376Y3547188D01*
X36358456Y3383216D01*
X36259853Y3235646D01*
X36134354Y3110147D01*
X35986784Y3011544D01*
X35822812Y2943624D01*
X35673512Y2913927D01*
X35648742Y2909000D01*
X35471258Y2909000D01*
X35446488Y2913927D01*
X35297188Y2943624D01*
X35133216Y3011544D01*
X34985646Y3110147D01*
X34860147Y3235646D01*
X34761544Y3383216D01*
X34693624Y3547188D01*
X34659000Y3721259D01*
X34659000Y3898741D01*
X34693624Y4072812D01*
X34761544Y4236784D01*
X34860147Y4384354D01*
X34985646Y4509853D01*
X35133216Y4608456D01*
X35297188Y4676376D01*
X35446488Y4706073D01*
X35471258Y4711000D01*
X35648742Y4711000D01*
X35673512Y4706073D01*
X35673512Y4706073D01*
G37*
G36*
X-35446488Y7246073D02*
G01*
X-35297188Y7216376D01*
X-35133216Y7148456D01*
X-34985646Y7049853D01*
X-34860147Y6924354D01*
X-34761544Y6776784D01*
X-34693624Y6612812D01*
X-34659000Y6438741D01*
X-34659000Y6261259D01*
X-34693624Y6087188D01*
X-34761544Y5923216D01*
X-34860147Y5775646D01*
X-34985646Y5650147D01*
X-35133216Y5551544D01*
X-35297188Y5483624D01*
X-35446488Y5453927D01*
X-35471258Y5449000D01*
X-35648742Y5449000D01*
X-35673512Y5453927D01*
X-35822812Y5483624D01*
X-35986784Y5551544D01*
X-36134354Y5650147D01*
X-36259853Y5775646D01*
X-36358456Y5923216D01*
X-36426376Y6087188D01*
X-36461000Y6261259D01*
X-36461000Y6438741D01*
X-36426376Y6612812D01*
X-36358456Y6776784D01*
X-36259853Y6924354D01*
X-36134354Y7049853D01*
X-35986784Y7148456D01*
X-35822812Y7216376D01*
X-35673512Y7246073D01*
X-35648742Y7251000D01*
X-35471258Y7251000D01*
X-35446488Y7246073D01*
X-35446488Y7246073D01*
G37*
G36*
X35673512Y7246073D02*
G01*
X35822812Y7216376D01*
X35986784Y7148456D01*
X36134354Y7049853D01*
X36259853Y6924354D01*
X36358456Y6776784D01*
X36426376Y6612812D01*
X36461000Y6438741D01*
X36461000Y6261259D01*
X36426376Y6087188D01*
X36358456Y5923216D01*
X36259853Y5775646D01*
X36134354Y5650147D01*
X35986784Y5551544D01*
X35822812Y5483624D01*
X35673512Y5453927D01*
X35648742Y5449000D01*
X35471258Y5449000D01*
X35446488Y5453927D01*
X35297188Y5483624D01*
X35133216Y5551544D01*
X34985646Y5650147D01*
X34860147Y5775646D01*
X34761544Y5923216D01*
X34693624Y6087188D01*
X34659000Y6261259D01*
X34659000Y6438741D01*
X34693624Y6612812D01*
X34761544Y6776784D01*
X34860147Y6924354D01*
X34985646Y7049853D01*
X35133216Y7148456D01*
X35297188Y7216376D01*
X35446488Y7246073D01*
X35471258Y7251000D01*
X35648742Y7251000D01*
X35673512Y7246073D01*
X35673512Y7246073D01*
G37*
G36*
X-35446488Y9786073D02*
G01*
X-35297188Y9756376D01*
X-35133216Y9688456D01*
X-34985646Y9589853D01*
X-34860147Y9464354D01*
X-34761544Y9316784D01*
X-34693624Y9152812D01*
X-34659000Y8978741D01*
X-34659000Y8801259D01*
X-34693624Y8627188D01*
X-34761544Y8463216D01*
X-34860147Y8315646D01*
X-34985646Y8190147D01*
X-35133216Y8091544D01*
X-35297188Y8023624D01*
X-35446488Y7993927D01*
X-35471258Y7989000D01*
X-35648742Y7989000D01*
X-35673512Y7993927D01*
X-35822812Y8023624D01*
X-35986784Y8091544D01*
X-36134354Y8190147D01*
X-36259853Y8315646D01*
X-36358456Y8463216D01*
X-36426376Y8627188D01*
X-36461000Y8801259D01*
X-36461000Y8978741D01*
X-36426376Y9152812D01*
X-36358456Y9316784D01*
X-36259853Y9464354D01*
X-36134354Y9589853D01*
X-35986784Y9688456D01*
X-35822812Y9756376D01*
X-35673512Y9786073D01*
X-35648742Y9791000D01*
X-35471258Y9791000D01*
X-35446488Y9786073D01*
X-35446488Y9786073D01*
G37*
G36*
X35673512Y9786073D02*
G01*
X35822812Y9756376D01*
X35986784Y9688456D01*
X36134354Y9589853D01*
X36259853Y9464354D01*
X36358456Y9316784D01*
X36426376Y9152812D01*
X36461000Y8978741D01*
X36461000Y8801259D01*
X36426376Y8627188D01*
X36358456Y8463216D01*
X36259853Y8315646D01*
X36134354Y8190147D01*
X35986784Y8091544D01*
X35822812Y8023624D01*
X35673512Y7993927D01*
X35648742Y7989000D01*
X35471258Y7989000D01*
X35446488Y7993927D01*
X35297188Y8023624D01*
X35133216Y8091544D01*
X34985646Y8190147D01*
X34860147Y8315646D01*
X34761544Y8463216D01*
X34693624Y8627188D01*
X34659000Y8801259D01*
X34659000Y8978741D01*
X34693624Y9152812D01*
X34761544Y9316784D01*
X34860147Y9464354D01*
X34985646Y9589853D01*
X35133216Y9688456D01*
X35297188Y9756376D01*
X35446488Y9786073D01*
X35471258Y9791000D01*
X35648742Y9791000D01*
X35673512Y9786073D01*
X35673512Y9786073D01*
G37*
G36*
X26357364Y10664611D02*
G01*
X26548633Y10585385D01*
X26548635Y10585384D01*
X26720773Y10470365D01*
X26867165Y10323973D01*
X26982185Y10151833D01*
X27061411Y9960564D01*
X27101800Y9757516D01*
X27101800Y9550484D01*
X27061411Y9347436D01*
X26982185Y9156167D01*
X26982184Y9156165D01*
X26867165Y8984027D01*
X26720773Y8837635D01*
X26548635Y8722616D01*
X26548634Y8722615D01*
X26548633Y8722615D01*
X26357364Y8643389D01*
X26154316Y8603000D01*
X25947284Y8603000D01*
X25744236Y8643389D01*
X25552967Y8722615D01*
X25552966Y8722615D01*
X25552965Y8722616D01*
X25380827Y8837635D01*
X25234435Y8984027D01*
X25119416Y9156165D01*
X25119415Y9156167D01*
X25040189Y9347436D01*
X24999800Y9550484D01*
X24999800Y9757516D01*
X25040189Y9960564D01*
X25119415Y10151833D01*
X25234435Y10323973D01*
X25380827Y10470365D01*
X25552965Y10585384D01*
X25552967Y10585385D01*
X25744236Y10664611D01*
X25947284Y10705000D01*
X26154316Y10705000D01*
X26357364Y10664611D01*
X26357364Y10664611D01*
G37*
G36*
X23817364Y10664611D02*
G01*
X24008633Y10585385D01*
X24008635Y10585384D01*
X24180773Y10470365D01*
X24327165Y10323973D01*
X24442185Y10151833D01*
X24521411Y9960564D01*
X24561800Y9757516D01*
X24561800Y9550484D01*
X24521411Y9347436D01*
X24442185Y9156167D01*
X24442184Y9156165D01*
X24327165Y8984027D01*
X24180773Y8837635D01*
X24008635Y8722616D01*
X24008634Y8722615D01*
X24008633Y8722615D01*
X23817364Y8643389D01*
X23614316Y8603000D01*
X23407284Y8603000D01*
X23204236Y8643389D01*
X23012967Y8722615D01*
X23012966Y8722615D01*
X23012965Y8722616D01*
X22840827Y8837635D01*
X22694435Y8984027D01*
X22579416Y9156165D01*
X22579415Y9156167D01*
X22500189Y9347436D01*
X22459800Y9550484D01*
X22459800Y9757516D01*
X22500189Y9960564D01*
X22579415Y10151833D01*
X22694435Y10323973D01*
X22840827Y10470365D01*
X23012965Y10585384D01*
X23012967Y10585385D01*
X23204236Y10664611D01*
X23407284Y10705000D01*
X23614316Y10705000D01*
X23817364Y10664611D01*
X23817364Y10664611D01*
G37*
G36*
X35673512Y12326073D02*
G01*
X35822812Y12296376D01*
X35986784Y12228456D01*
X36134354Y12129853D01*
X36259853Y12004354D01*
X36358456Y11856784D01*
X36426376Y11692812D01*
X36461000Y11518741D01*
X36461000Y11341259D01*
X36426376Y11167188D01*
X36358456Y11003216D01*
X36259853Y10855646D01*
X36134354Y10730147D01*
X35986784Y10631544D01*
X35822812Y10563624D01*
X35673512Y10533927D01*
X35648742Y10529000D01*
X35471258Y10529000D01*
X35446488Y10533927D01*
X35297188Y10563624D01*
X35133216Y10631544D01*
X34985646Y10730147D01*
X34860147Y10855646D01*
X34761544Y11003216D01*
X34693624Y11167188D01*
X34659000Y11341259D01*
X34659000Y11518741D01*
X34693624Y11692812D01*
X34761544Y11856784D01*
X34860147Y12004354D01*
X34985646Y12129853D01*
X35133216Y12228456D01*
X35297188Y12296376D01*
X35446488Y12326073D01*
X35471258Y12331000D01*
X35648742Y12331000D01*
X35673512Y12326073D01*
X35673512Y12326073D01*
G37*
G36*
X-35446488Y12326073D02*
G01*
X-35297188Y12296376D01*
X-35133216Y12228456D01*
X-34985646Y12129853D01*
X-34860147Y12004354D01*
X-34761544Y11856784D01*
X-34693624Y11692812D01*
X-34659000Y11518741D01*
X-34659000Y11341259D01*
X-34693624Y11167188D01*
X-34761544Y11003216D01*
X-34860147Y10855646D01*
X-34985646Y10730147D01*
X-35133216Y10631544D01*
X-35297188Y10563624D01*
X-35446488Y10533927D01*
X-35471258Y10529000D01*
X-35648742Y10529000D01*
X-35673512Y10533927D01*
X-35822812Y10563624D01*
X-35986784Y10631544D01*
X-36134354Y10730147D01*
X-36259853Y10855646D01*
X-36358456Y11003216D01*
X-36426376Y11167188D01*
X-36461000Y11341259D01*
X-36461000Y11518741D01*
X-36426376Y11692812D01*
X-36358456Y11856784D01*
X-36259853Y12004354D01*
X-36134354Y12129853D01*
X-35986784Y12228456D01*
X-35822812Y12296376D01*
X-35673512Y12326073D01*
X-35648742Y12331000D01*
X-35471258Y12331000D01*
X-35446488Y12326073D01*
X-35446488Y12326073D01*
G37*
G36*
X26357364Y13204611D02*
G01*
X26548633Y13125385D01*
X26548635Y13125384D01*
X26720773Y13010365D01*
X26867165Y12863973D01*
X26982185Y12691833D01*
X27061411Y12500564D01*
X27101800Y12297516D01*
X27101800Y12090484D01*
X27061411Y11887436D01*
X26982185Y11696167D01*
X26982184Y11696165D01*
X26867165Y11524027D01*
X26720773Y11377635D01*
X26548635Y11262616D01*
X26548634Y11262615D01*
X26548633Y11262615D01*
X26357364Y11183389D01*
X26154316Y11143000D01*
X25947284Y11143000D01*
X25744236Y11183389D01*
X25552967Y11262615D01*
X25552966Y11262615D01*
X25552965Y11262616D01*
X25380827Y11377635D01*
X25234435Y11524027D01*
X25119416Y11696165D01*
X25119415Y11696167D01*
X25040189Y11887436D01*
X24999800Y12090484D01*
X24999800Y12297516D01*
X25040189Y12500564D01*
X25119415Y12691833D01*
X25234435Y12863973D01*
X25380827Y13010365D01*
X25552965Y13125384D01*
X25552967Y13125385D01*
X25744236Y13204611D01*
X25947284Y13245000D01*
X26154316Y13245000D01*
X26357364Y13204611D01*
X26357364Y13204611D01*
G37*
G36*
X23817364Y13204611D02*
G01*
X24008633Y13125385D01*
X24008635Y13125384D01*
X24180773Y13010365D01*
X24327165Y12863973D01*
X24442185Y12691833D01*
X24521411Y12500564D01*
X24561800Y12297516D01*
X24561800Y12090484D01*
X24521411Y11887436D01*
X24442185Y11696167D01*
X24442184Y11696165D01*
X24327165Y11524027D01*
X24180773Y11377635D01*
X24008635Y11262616D01*
X24008634Y11262615D01*
X24008633Y11262615D01*
X23817364Y11183389D01*
X23614316Y11143000D01*
X23407284Y11143000D01*
X23204236Y11183389D01*
X23012967Y11262615D01*
X23012966Y11262615D01*
X23012965Y11262616D01*
X22840827Y11377635D01*
X22694435Y11524027D01*
X22579416Y11696165D01*
X22579415Y11696167D01*
X22500189Y11887436D01*
X22459800Y12090484D01*
X22459800Y12297516D01*
X22500189Y12500564D01*
X22579415Y12691833D01*
X22694435Y12863973D01*
X22840827Y13010365D01*
X23012965Y13125384D01*
X23012967Y13125385D01*
X23204236Y13204611D01*
X23407284Y13245000D01*
X23614316Y13245000D01*
X23817364Y13204611D01*
X23817364Y13204611D01*
G37*
G36*
X-35446488Y14866073D02*
G01*
X-35297188Y14836376D01*
X-35133216Y14768456D01*
X-34985646Y14669853D01*
X-34860147Y14544354D01*
X-34761544Y14396784D01*
X-34693624Y14232812D01*
X-34659000Y14058741D01*
X-34659000Y13881259D01*
X-34693624Y13707188D01*
X-34761544Y13543216D01*
X-34860147Y13395646D01*
X-34985646Y13270147D01*
X-35133216Y13171544D01*
X-35297188Y13103624D01*
X-35446488Y13073927D01*
X-35471258Y13069000D01*
X-35648742Y13069000D01*
X-35673512Y13073927D01*
X-35822812Y13103624D01*
X-35986784Y13171544D01*
X-36134354Y13270147D01*
X-36259853Y13395646D01*
X-36358456Y13543216D01*
X-36426376Y13707188D01*
X-36461000Y13881259D01*
X-36461000Y14058741D01*
X-36426376Y14232812D01*
X-36358456Y14396784D01*
X-36259853Y14544354D01*
X-36134354Y14669853D01*
X-35986784Y14768456D01*
X-35822812Y14836376D01*
X-35673512Y14866073D01*
X-35648742Y14871000D01*
X-35471258Y14871000D01*
X-35446488Y14866073D01*
X-35446488Y14866073D01*
G37*
G36*
X35673512Y14866073D02*
G01*
X35822812Y14836376D01*
X35986784Y14768456D01*
X36134354Y14669853D01*
X36259853Y14544354D01*
X36358456Y14396784D01*
X36426376Y14232812D01*
X36461000Y14058741D01*
X36461000Y13881259D01*
X36426376Y13707188D01*
X36358456Y13543216D01*
X36259853Y13395646D01*
X36134354Y13270147D01*
X35986784Y13171544D01*
X35822812Y13103624D01*
X35673512Y13073927D01*
X35648742Y13069000D01*
X35471258Y13069000D01*
X35446488Y13073927D01*
X35297188Y13103624D01*
X35133216Y13171544D01*
X34985646Y13270147D01*
X34860147Y13395646D01*
X34761544Y13543216D01*
X34693624Y13707188D01*
X34659000Y13881259D01*
X34659000Y14058741D01*
X34693624Y14232812D01*
X34761544Y14396784D01*
X34860147Y14544354D01*
X34985646Y14669853D01*
X35133216Y14768456D01*
X35297188Y14836376D01*
X35446488Y14866073D01*
X35471258Y14871000D01*
X35648742Y14871000D01*
X35673512Y14866073D01*
X35673512Y14866073D01*
G37*
G36*
X23817364Y15744611D02*
G01*
X24008633Y15665385D01*
X24008635Y15665384D01*
X24180773Y15550365D01*
X24327165Y15403973D01*
X24442185Y15231833D01*
X24521411Y15040564D01*
X24561800Y14837516D01*
X24561800Y14630484D01*
X24521411Y14427436D01*
X24442185Y14236167D01*
X24442184Y14236165D01*
X24327165Y14064027D01*
X24180773Y13917635D01*
X24008635Y13802616D01*
X24008634Y13802615D01*
X24008633Y13802615D01*
X23817364Y13723389D01*
X23614316Y13683000D01*
X23407284Y13683000D01*
X23204236Y13723389D01*
X23012967Y13802615D01*
X23012966Y13802615D01*
X23012965Y13802616D01*
X22840827Y13917635D01*
X22694435Y14064027D01*
X22579416Y14236165D01*
X22579415Y14236167D01*
X22500189Y14427436D01*
X22459800Y14630484D01*
X22459800Y14837516D01*
X22500189Y15040564D01*
X22579415Y15231833D01*
X22694435Y15403973D01*
X22840827Y15550365D01*
X23012965Y15665384D01*
X23012967Y15665385D01*
X23204236Y15744611D01*
X23407284Y15785000D01*
X23614316Y15785000D01*
X23817364Y15744611D01*
X23817364Y15744611D01*
G37*
G36*
X26357364Y15744611D02*
G01*
X26548633Y15665385D01*
X26548635Y15665384D01*
X26720773Y15550365D01*
X26867165Y15403973D01*
X26982185Y15231833D01*
X27061411Y15040564D01*
X27101800Y14837516D01*
X27101800Y14630484D01*
X27061411Y14427436D01*
X26982185Y14236167D01*
X26982184Y14236165D01*
X26867165Y14064027D01*
X26720773Y13917635D01*
X26548635Y13802616D01*
X26548634Y13802615D01*
X26548633Y13802615D01*
X26357364Y13723389D01*
X26154316Y13683000D01*
X25947284Y13683000D01*
X25744236Y13723389D01*
X25552967Y13802615D01*
X25552966Y13802615D01*
X25552965Y13802616D01*
X25380827Y13917635D01*
X25234435Y14064027D01*
X25119416Y14236165D01*
X25119415Y14236167D01*
X25040189Y14427436D01*
X24999800Y14630484D01*
X24999800Y14837516D01*
X25040189Y15040564D01*
X25119415Y15231833D01*
X25234435Y15403973D01*
X25380827Y15550365D01*
X25552965Y15665384D01*
X25552967Y15665385D01*
X25744236Y15744611D01*
X25947284Y15785000D01*
X26154316Y15785000D01*
X26357364Y15744611D01*
X26357364Y15744611D01*
G37*
G36*
X35673512Y17406073D02*
G01*
X35822812Y17376376D01*
X35986784Y17308456D01*
X36134354Y17209853D01*
X36259853Y17084354D01*
X36358456Y16936784D01*
X36426376Y16772812D01*
X36461000Y16598741D01*
X36461000Y16421259D01*
X36426376Y16247188D01*
X36358456Y16083216D01*
X36259853Y15935646D01*
X36134354Y15810147D01*
X35986784Y15711544D01*
X35822812Y15643624D01*
X35673512Y15613927D01*
X35648742Y15609000D01*
X35471258Y15609000D01*
X35446488Y15613927D01*
X35297188Y15643624D01*
X35133216Y15711544D01*
X34985646Y15810147D01*
X34860147Y15935646D01*
X34761544Y16083216D01*
X34693624Y16247188D01*
X34659000Y16421259D01*
X34659000Y16598741D01*
X34693624Y16772812D01*
X34761544Y16936784D01*
X34860147Y17084354D01*
X34985646Y17209853D01*
X35133216Y17308456D01*
X35297188Y17376376D01*
X35446488Y17406073D01*
X35471258Y17411000D01*
X35648742Y17411000D01*
X35673512Y17406073D01*
X35673512Y17406073D01*
G37*
G36*
X-35446488Y17406073D02*
G01*
X-35297188Y17376376D01*
X-35133216Y17308456D01*
X-34985646Y17209853D01*
X-34860147Y17084354D01*
X-34761544Y16936784D01*
X-34693624Y16772812D01*
X-34659000Y16598741D01*
X-34659000Y16421259D01*
X-34693624Y16247188D01*
X-34761544Y16083216D01*
X-34860147Y15935646D01*
X-34985646Y15810147D01*
X-35133216Y15711544D01*
X-35297188Y15643624D01*
X-35446488Y15613927D01*
X-35471258Y15609000D01*
X-35648742Y15609000D01*
X-35673512Y15613927D01*
X-35822812Y15643624D01*
X-35986784Y15711544D01*
X-36134354Y15810147D01*
X-36259853Y15935646D01*
X-36358456Y16083216D01*
X-36426376Y16247188D01*
X-36461000Y16421259D01*
X-36461000Y16598741D01*
X-36426376Y16772812D01*
X-36358456Y16936784D01*
X-36259853Y17084354D01*
X-36134354Y17209853D01*
X-35986784Y17308456D01*
X-35822812Y17376376D01*
X-35673512Y17406073D01*
X-35648742Y17411000D01*
X-35471258Y17411000D01*
X-35446488Y17406073D01*
X-35446488Y17406073D01*
G37*
G36*
X26357364Y18284611D02*
G01*
X26548633Y18205385D01*
X26548635Y18205384D01*
X26720773Y18090365D01*
X26867165Y17943973D01*
X26982185Y17771833D01*
X27061411Y17580564D01*
X27101800Y17377516D01*
X27101800Y17170484D01*
X27061411Y16967436D01*
X26982185Y16776167D01*
X26982184Y16776165D01*
X26867165Y16604027D01*
X26720773Y16457635D01*
X26548635Y16342616D01*
X26548634Y16342615D01*
X26548633Y16342615D01*
X26357364Y16263389D01*
X26154316Y16223000D01*
X25947284Y16223000D01*
X25744236Y16263389D01*
X25552967Y16342615D01*
X25552966Y16342615D01*
X25552965Y16342616D01*
X25380827Y16457635D01*
X25234435Y16604027D01*
X25119416Y16776165D01*
X25119415Y16776167D01*
X25040189Y16967436D01*
X24999800Y17170484D01*
X24999800Y17377516D01*
X25040189Y17580564D01*
X25119415Y17771833D01*
X25234435Y17943973D01*
X25380827Y18090365D01*
X25552965Y18205384D01*
X25552967Y18205385D01*
X25744236Y18284611D01*
X25947284Y18325000D01*
X26154316Y18325000D01*
X26357364Y18284611D01*
X26357364Y18284611D01*
G37*
G36*
X23817364Y18284611D02*
G01*
X24008633Y18205385D01*
X24008635Y18205384D01*
X24180773Y18090365D01*
X24327165Y17943973D01*
X24442185Y17771833D01*
X24521411Y17580564D01*
X24561800Y17377516D01*
X24561800Y17170484D01*
X24521411Y16967436D01*
X24442185Y16776167D01*
X24442184Y16776165D01*
X24327165Y16604027D01*
X24180773Y16457635D01*
X24008635Y16342616D01*
X24008634Y16342615D01*
X24008633Y16342615D01*
X23817364Y16263389D01*
X23614316Y16223000D01*
X23407284Y16223000D01*
X23204236Y16263389D01*
X23012967Y16342615D01*
X23012966Y16342615D01*
X23012965Y16342616D01*
X22840827Y16457635D01*
X22694435Y16604027D01*
X22579416Y16776165D01*
X22579415Y16776167D01*
X22500189Y16967436D01*
X22459800Y17170484D01*
X22459800Y17377516D01*
X22500189Y17580564D01*
X22579415Y17771833D01*
X22694435Y17943973D01*
X22840827Y18090365D01*
X23012965Y18205384D01*
X23012967Y18205385D01*
X23204236Y18284611D01*
X23407284Y18325000D01*
X23614316Y18325000D01*
X23817364Y18284611D01*
X23817364Y18284611D01*
G37*
G36*
X35673512Y19946073D02*
G01*
X35822812Y19916376D01*
X35986784Y19848456D01*
X36134354Y19749853D01*
X36259853Y19624354D01*
X36358456Y19476784D01*
X36426376Y19312812D01*
X36461000Y19138741D01*
X36461000Y18961259D01*
X36426376Y18787188D01*
X36358456Y18623216D01*
X36259853Y18475646D01*
X36134354Y18350147D01*
X35986784Y18251544D01*
X35822812Y18183624D01*
X35673512Y18153927D01*
X35648742Y18149000D01*
X35471258Y18149000D01*
X35446488Y18153927D01*
X35297188Y18183624D01*
X35133216Y18251544D01*
X34985646Y18350147D01*
X34860147Y18475646D01*
X34761544Y18623216D01*
X34693624Y18787188D01*
X34659000Y18961259D01*
X34659000Y19138741D01*
X34693624Y19312812D01*
X34761544Y19476784D01*
X34860147Y19624354D01*
X34985646Y19749853D01*
X35133216Y19848456D01*
X35297188Y19916376D01*
X35446488Y19946073D01*
X35471258Y19951000D01*
X35648742Y19951000D01*
X35673512Y19946073D01*
X35673512Y19946073D01*
G37*
G36*
X-35446488Y19946073D02*
G01*
X-35297188Y19916376D01*
X-35133216Y19848456D01*
X-34985646Y19749853D01*
X-34860147Y19624354D01*
X-34761544Y19476784D01*
X-34693624Y19312812D01*
X-34659000Y19138741D01*
X-34659000Y18961259D01*
X-34693624Y18787188D01*
X-34761544Y18623216D01*
X-34860147Y18475646D01*
X-34985646Y18350147D01*
X-35133216Y18251544D01*
X-35297188Y18183624D01*
X-35446488Y18153927D01*
X-35471258Y18149000D01*
X-35648742Y18149000D01*
X-35673512Y18153927D01*
X-35822812Y18183624D01*
X-35986784Y18251544D01*
X-36134354Y18350147D01*
X-36259853Y18475646D01*
X-36358456Y18623216D01*
X-36426376Y18787188D01*
X-36461000Y18961259D01*
X-36461000Y19138741D01*
X-36426376Y19312812D01*
X-36358456Y19476784D01*
X-36259853Y19624354D01*
X-36134354Y19749853D01*
X-35986784Y19848456D01*
X-35822812Y19916376D01*
X-35673512Y19946073D01*
X-35648742Y19951000D01*
X-35471258Y19951000D01*
X-35446488Y19946073D01*
X-35446488Y19946073D01*
G37*
G36*
X23817364Y20824611D02*
G01*
X24008633Y20745385D01*
X24008635Y20745384D01*
X24180773Y20630365D01*
X24327165Y20483973D01*
X24442185Y20311833D01*
X24521411Y20120564D01*
X24561800Y19917516D01*
X24561800Y19710484D01*
X24521411Y19507436D01*
X24442185Y19316167D01*
X24442184Y19316165D01*
X24327165Y19144027D01*
X24180773Y18997635D01*
X24008635Y18882616D01*
X24008634Y18882615D01*
X24008633Y18882615D01*
X23817364Y18803389D01*
X23614316Y18763000D01*
X23407284Y18763000D01*
X23204236Y18803389D01*
X23012967Y18882615D01*
X23012966Y18882615D01*
X23012965Y18882616D01*
X22840827Y18997635D01*
X22694435Y19144027D01*
X22579416Y19316165D01*
X22579415Y19316167D01*
X22500189Y19507436D01*
X22459800Y19710484D01*
X22459800Y19917516D01*
X22500189Y20120564D01*
X22579415Y20311833D01*
X22694435Y20483973D01*
X22840827Y20630365D01*
X23012965Y20745384D01*
X23012967Y20745385D01*
X23204236Y20824611D01*
X23407284Y20865000D01*
X23614316Y20865000D01*
X23817364Y20824611D01*
X23817364Y20824611D01*
G37*
G36*
X26357364Y20824611D02*
G01*
X26548633Y20745385D01*
X26548635Y20745384D01*
X26720773Y20630365D01*
X26867165Y20483973D01*
X26982185Y20311833D01*
X27061411Y20120564D01*
X27101800Y19917516D01*
X27101800Y19710484D01*
X27061411Y19507436D01*
X26982185Y19316167D01*
X26982184Y19316165D01*
X26867165Y19144027D01*
X26720773Y18997635D01*
X26548635Y18882616D01*
X26548634Y18882615D01*
X26548633Y18882615D01*
X26357364Y18803389D01*
X26154316Y18763000D01*
X25947284Y18763000D01*
X25744236Y18803389D01*
X25552967Y18882615D01*
X25552966Y18882615D01*
X25552965Y18882616D01*
X25380827Y18997635D01*
X25234435Y19144027D01*
X25119416Y19316165D01*
X25119415Y19316167D01*
X25040189Y19507436D01*
X24999800Y19710484D01*
X24999800Y19917516D01*
X25040189Y20120564D01*
X25119415Y20311833D01*
X25234435Y20483973D01*
X25380827Y20630365D01*
X25552965Y20745384D01*
X25552967Y20745385D01*
X25744236Y20824611D01*
X25947284Y20865000D01*
X26154316Y20865000D01*
X26357364Y20824611D01*
X26357364Y20824611D01*
G37*
G36*
X23817364Y23364611D02*
G01*
X24008633Y23285385D01*
X24008635Y23285384D01*
X24180773Y23170365D01*
X24327165Y23023973D01*
X24442185Y22851833D01*
X24521411Y22660564D01*
X24561800Y22457516D01*
X24561800Y22250484D01*
X24521411Y22047436D01*
X24442185Y21856167D01*
X24442184Y21856165D01*
X24327165Y21684027D01*
X24180773Y21537635D01*
X24008635Y21422616D01*
X24008634Y21422615D01*
X24008633Y21422615D01*
X23817364Y21343389D01*
X23614316Y21303000D01*
X23407284Y21303000D01*
X23204236Y21343389D01*
X23012967Y21422615D01*
X23012966Y21422615D01*
X23012965Y21422616D01*
X22840827Y21537635D01*
X22694435Y21684027D01*
X22579416Y21856165D01*
X22579415Y21856167D01*
X22500189Y22047436D01*
X22459800Y22250484D01*
X22459800Y22457516D01*
X22500189Y22660564D01*
X22579415Y22851833D01*
X22694435Y23023973D01*
X22840827Y23170365D01*
X23012965Y23285384D01*
X23012967Y23285385D01*
X23204236Y23364611D01*
X23407284Y23405000D01*
X23614316Y23405000D01*
X23817364Y23364611D01*
X23817364Y23364611D01*
G37*
G36*
X26357364Y23364611D02*
G01*
X26548633Y23285385D01*
X26548635Y23285384D01*
X26720773Y23170365D01*
X26867165Y23023973D01*
X26982185Y22851833D01*
X27061411Y22660564D01*
X27101800Y22457516D01*
X27101800Y22250484D01*
X27061411Y22047436D01*
X26982185Y21856167D01*
X26982184Y21856165D01*
X26867165Y21684027D01*
X26720773Y21537635D01*
X26548635Y21422616D01*
X26548634Y21422615D01*
X26548633Y21422615D01*
X26357364Y21343389D01*
X26154316Y21303000D01*
X25947284Y21303000D01*
X25744236Y21343389D01*
X25552967Y21422615D01*
X25552966Y21422615D01*
X25552965Y21422616D01*
X25380827Y21537635D01*
X25234435Y21684027D01*
X25119416Y21856165D01*
X25119415Y21856167D01*
X25040189Y22047436D01*
X24999800Y22250484D01*
X24999800Y22457516D01*
X25040189Y22660564D01*
X25119415Y22851833D01*
X25234435Y23023973D01*
X25380827Y23170365D01*
X25552965Y23285384D01*
X25552967Y23285385D01*
X25744236Y23364611D01*
X25947284Y23405000D01*
X26154316Y23405000D01*
X26357364Y23364611D01*
X26357364Y23364611D01*
G37*
G36*
X23817364Y25904611D02*
G01*
X24008633Y25825385D01*
X24008635Y25825384D01*
X24180773Y25710365D01*
X24327165Y25563973D01*
X24442185Y25391833D01*
X24521411Y25200564D01*
X24561800Y24997516D01*
X24561800Y24790484D01*
X24521411Y24587436D01*
X24442185Y24396167D01*
X24442184Y24396165D01*
X24327165Y24224027D01*
X24180773Y24077635D01*
X24008635Y23962616D01*
X24008634Y23962615D01*
X24008633Y23962615D01*
X23817364Y23883389D01*
X23614316Y23843000D01*
X23407284Y23843000D01*
X23204236Y23883389D01*
X23012967Y23962615D01*
X23012966Y23962615D01*
X23012965Y23962616D01*
X22840827Y24077635D01*
X22694435Y24224027D01*
X22579416Y24396165D01*
X22579415Y24396167D01*
X22500189Y24587436D01*
X22459800Y24790484D01*
X22459800Y24997516D01*
X22500189Y25200564D01*
X22579415Y25391833D01*
X22694435Y25563973D01*
X22840827Y25710365D01*
X23012965Y25825384D01*
X23012967Y25825385D01*
X23204236Y25904611D01*
X23407284Y25945000D01*
X23614316Y25945000D01*
X23817364Y25904611D01*
X23817364Y25904611D01*
G37*
G36*
X26357364Y25904611D02*
G01*
X26548633Y25825385D01*
X26548635Y25825384D01*
X26720773Y25710365D01*
X26867165Y25563973D01*
X26982185Y25391833D01*
X27061411Y25200564D01*
X27101800Y24997516D01*
X27101800Y24790484D01*
X27061411Y24587436D01*
X26982185Y24396167D01*
X26982184Y24396165D01*
X26867165Y24224027D01*
X26720773Y24077635D01*
X26548635Y23962616D01*
X26548634Y23962615D01*
X26548633Y23962615D01*
X26357364Y23883389D01*
X26154316Y23843000D01*
X25947284Y23843000D01*
X25744236Y23883389D01*
X25552967Y23962615D01*
X25552966Y23962615D01*
X25552965Y23962616D01*
X25380827Y24077635D01*
X25234435Y24224027D01*
X25119416Y24396165D01*
X25119415Y24396167D01*
X25040189Y24587436D01*
X24999800Y24790484D01*
X24999800Y24997516D01*
X25040189Y25200564D01*
X25119415Y25391833D01*
X25234435Y25563973D01*
X25380827Y25710365D01*
X25552965Y25825384D01*
X25552967Y25825385D01*
X25744236Y25904611D01*
X25947284Y25945000D01*
X26154316Y25945000D01*
X26357364Y25904611D01*
X26357364Y25904611D01*
G37*
G36*
X-23930915Y30876025D02*
G01*
X-23575857Y30728955D01*
X-23575855Y30728954D01*
X-23256310Y30515441D01*
X-22984559Y30243690D01*
X-22771046Y29924145D01*
X-22771045Y29924143D01*
X-22623975Y29569085D01*
X-22549000Y29192158D01*
X-22549000Y28807842D01*
X-22623975Y28430915D01*
X-22771045Y28075857D01*
X-22771046Y28075855D01*
X-22984559Y27756310D01*
X-23256310Y27484559D01*
X-23575855Y27271046D01*
X-23575856Y27271045D01*
X-23575857Y27271045D01*
X-23930915Y27123975D01*
X-24307842Y27049000D01*
X-24692158Y27049000D01*
X-25069085Y27123975D01*
X-25424143Y27271045D01*
X-25424144Y27271045D01*
X-25424145Y27271046D01*
X-25743690Y27484559D01*
X-26015441Y27756310D01*
X-26228954Y28075855D01*
X-26228955Y28075857D01*
X-26376025Y28430915D01*
X-26451000Y28807842D01*
X-26451000Y29192158D01*
X-26376025Y29569085D01*
X-26228955Y29924143D01*
X-26228954Y29924145D01*
X-26015441Y30243690D01*
X-25743690Y30515441D01*
X-25424145Y30728954D01*
X-25424143Y30728955D01*
X-25069085Y30876025D01*
X-24692158Y30951000D01*
X-24307842Y30951000D01*
X-23930915Y30876025D01*
X-23930915Y30876025D01*
G37*
G36*
X25069085Y30876025D02*
G01*
X25424143Y30728955D01*
X25424145Y30728954D01*
X25743690Y30515441D01*
X26015441Y30243690D01*
X26228954Y29924145D01*
X26228955Y29924143D01*
X26376025Y29569085D01*
X26451000Y29192158D01*
X26451000Y28807842D01*
X26376025Y28430915D01*
X26228955Y28075857D01*
X26228954Y28075855D01*
X26015441Y27756310D01*
X25743690Y27484559D01*
X25424145Y27271046D01*
X25424144Y27271045D01*
X25424143Y27271045D01*
X25069085Y27123975D01*
X24692158Y27049000D01*
X24307842Y27049000D01*
X23930915Y27123975D01*
X23575857Y27271045D01*
X23575856Y27271045D01*
X23575855Y27271046D01*
X23256310Y27484559D01*
X22984559Y27756310D01*
X22771046Y28075855D01*
X22771045Y28075857D01*
X22623975Y28430915D01*
X22549000Y28807842D01*
X22549000Y29192158D01*
X22623975Y29569085D01*
X22771045Y29924143D01*
X22771046Y29924145D01*
X22984559Y30243690D01*
X23256310Y30515441D01*
X23575855Y30728954D01*
X23575857Y30728955D01*
X23930915Y30876025D01*
X24307842Y30951000D01*
X24692158Y30951000D01*
X25069085Y30876025D01*
X25069085Y30876025D01*
G37*
G36*
X-27951224Y39521319D02*
G01*
X-27562042Y39360115D01*
X-27562041Y39360114D01*
X-27211786Y39126081D01*
X-26913919Y38828214D01*
X-26913918Y38828212D01*
X-26679885Y38477958D01*
X-26518681Y38088776D01*
X-26436500Y37675625D01*
X-26436500Y37254375D01*
X-26518681Y36841224D01*
X-26679885Y36452042D01*
X-26679886Y36452041D01*
X-26913919Y36101786D01*
X-27211786Y35803919D01*
X-27388104Y35686107D01*
X-27562042Y35569885D01*
X-27951224Y35408681D01*
X-28364375Y35326500D01*
X-28785625Y35326500D01*
X-29198776Y35408681D01*
X-29587958Y35569885D01*
X-29761896Y35686107D01*
X-29938214Y35803919D01*
X-30236081Y36101786D01*
X-30470114Y36452041D01*
X-30470115Y36452042D01*
X-30631319Y36841224D01*
X-30713500Y37254375D01*
X-30713500Y37675625D01*
X-30631319Y38088776D01*
X-30470115Y38477958D01*
X-30236082Y38828212D01*
X-30236081Y38828214D01*
X-29938214Y39126081D01*
X-29587959Y39360114D01*
X-29587958Y39360115D01*
X-29198776Y39521319D01*
X-28785625Y39603500D01*
X-28364375Y39603500D01*
X-27951224Y39521319D01*
X-27951224Y39521319D01*
G37*
G36*
X29198776Y39521319D02*
G01*
X29587958Y39360115D01*
X29587959Y39360114D01*
X29938214Y39126081D01*
X30236081Y38828214D01*
X30236082Y38828212D01*
X30470115Y38477958D01*
X30631319Y38088776D01*
X30713500Y37675625D01*
X30713500Y37254375D01*
X30631319Y36841224D01*
X30470115Y36452042D01*
X30470114Y36452041D01*
X30236081Y36101786D01*
X29938214Y35803919D01*
X29761896Y35686107D01*
X29587958Y35569885D01*
X29198776Y35408681D01*
X28785625Y35326500D01*
X28364375Y35326500D01*
X27951224Y35408681D01*
X27562042Y35569885D01*
X27388104Y35686107D01*
X27211786Y35803919D01*
X26913919Y36101786D01*
X26679886Y36452041D01*
X26679885Y36452042D01*
X26518681Y36841224D01*
X26436500Y37254375D01*
X26436500Y37675625D01*
X26518681Y38088776D01*
X26679885Y38477958D01*
X26913918Y38828212D01*
X26913919Y38828214D01*
X27211786Y39126081D01*
X27562041Y39360114D01*
X27562042Y39360115D01*
X27951224Y39521319D01*
X28364375Y39603500D01*
X28785625Y39603500D01*
X29198776Y39521319D01*
X29198776Y39521319D01*
G37*
M02*
