M48
; DRILL file {KiCad (5.1.2-1)-1} date Thursday, November 19, 2020 at 10:07:15 PM
; FORMAT={-:-/ absolute / inch / decimal}
; #@! TF.CreationDate,2020-11-19T22:07:15-06:00
; #@! TF.GenerationSoftware,Kicad,Pcbnew,(5.1.2-1)-1
; #@! TF.FileFunction,Plated,1,2,PTH
FMAT,2
INCH
T1C0.0130
T2C0.0138
T3C0.0157
T4C0.0197
T5C0.0300
T6C0.0315
T7C0.0394
T8C0.0400
T9C0.0433
T10C0.0472
T11C0.1000
T12C0.1102
T13C0.1250
T14C0.1260
%
G90
G05
T1
X-0.6437Y-0.9587
X-0.6437Y-1.0177
X-0.5846Y-0.9587
X-0.5846Y-1.0177
X-0.5256Y-0.9587
X-0.5256Y-1.0177
T2
X-1.6142Y-1.8169
X-1.6142Y-1.9193
X-1.6142Y-1.9193
X-1.5Y-1.3406
X-1.4744Y-2.7677
X-1.4724Y-2.5669
X-1.4626Y-2.9665
X-1.4508Y-1.7382
X-1.4508Y-2.3661
X-1.4449Y-3.0669
X-1.4449Y-3.0669
X-1.4331Y-1.7776
X-1.4331Y-2.2657
X-1.4311Y-3.1673
X-1.4193Y-3.2854
X-1.3892Y-3.9823
X-1.3819Y-1.0
X-1.3819Y-2.065
X-1.3819Y-2.8307
X-1.3819Y-3.3661
X-1.3819Y-3.7717
X-1.2992Y-1.9744
X-1.2992Y-2.1654
X-1.2972Y-1.7185
X-1.2972Y-2.8661
X-1.2953Y-0.1004
X-1.2933Y-1.4823
X-1.2933Y-1.6319
X-1.2795Y-2.5079
X-1.2774Y-3.7719
X-1.2736Y-1.8858
X-1.2421Y-3.4213
X-1.2362Y-2.7677
X-1.2362Y-3.128
X-1.2278Y-4.1422
X-1.2263Y-3.9847
X-1.2106Y-2.9665
X-1.2106Y-3.002
X-1.2106Y-3.002
X-1.1654Y-2.0866
X-1.1333Y-2.5872
X-1.1201Y-2.5079
X-1.1175Y-4.0256
X-1.1096Y-4.1516
X-1.1082Y-3.8932
X-1.1073Y-4.7923
X-1.0925Y-3.7717
X-1.061Y-2.1181
X-1.061Y-2.4173
X-1.0531Y-2.6516
X-0.9882Y-3.5217
X-0.9719Y-4.0256
X-0.9714Y-4.1865
X-0.9705Y-1.4646
X-0.9528Y-1.565
X-0.9528Y-1.7087
X-0.9173Y-1.9744
X-0.9173Y-2.2559
X-0.9167Y-2.586
X-0.9055Y-1.3268
X-0.9035Y-1.4055
X-0.9035Y-1.6673
X-0.8996Y-2.8307
X-0.8976Y-0.4823
X-0.8976Y-0.9508
X-0.8917Y-4.5374
X-0.8642Y0.1673
X-0.8425Y-3.4587
X-0.8425Y-4.5098
X-0.838Y-2.6516
X-0.8307Y0.128
X-0.8301Y-4.0256
X-0.8301Y-4.1516
X-0.8071Y-1.5846
X-0.8071Y-1.7087
X-0.7972Y0.0906
X-0.7755Y-4.0812
X-0.7717Y-3.7717
X-0.7671Y-2.8307
X-0.7652Y-3.0472
X-0.7638Y-3.4902
X-0.761Y0.05
X-0.7264Y-0.5098
X-0.7264Y-0.9528
X-0.7258Y-2.588
X-0.7244Y-1.0039
X-0.7028Y-0.6634
X-0.7028Y-0.9016
X-0.685Y-1.9685
X-0.685Y-2.0709
X-0.6732Y-0.7343
X-0.6732Y-0.8091
X-0.6476Y-1.1594
X-0.6457Y-4.1555
X-0.6457Y-4.1555
X-0.6457Y-4.1555
X-0.6457Y-4.2776
X-0.6339Y-2.5079
X-0.6335Y-2.326
X-0.623Y-0.81
X-0.622Y-0.6634
X-0.622Y-2.6516
X-0.6096Y-2.8307
X-0.6077Y-3.0472
X-0.6063Y-3.5217
X-0.5984Y-4.1555
X-0.5984Y-4.25
X-0.5965Y-0.5768
X-0.5965Y-0.7756
X-0.5728Y-0.6634
X-0.5728Y-0.811
X-0.5496Y-3.8283
X-0.5496Y-4.0299
X-0.5496Y-4.0764
X-0.5472Y-0.6929
X-0.5472Y-0.7756
X-0.5463Y-1.1506
X-0.5197Y-0.6339
X-0.5197Y-0.813
X-0.5Y-1.7106
X-0.4941Y-0.55
X-0.4941Y-0.7776
X-0.4843Y-2.5866
X-0.4626Y-0.4508
X-0.4577Y-1.9518
X-0.4567Y-1.8012
X-0.4469Y-1.1063
X-0.4228Y-2.4031
X-0.422Y-2.1484
X-0.4142Y-3.9283
X-0.4142Y-4.3157
X-0.4075Y-1.8406
X-0.4075Y-1.9508
X-0.4016Y-2.6516
X-0.3898Y-3.4213
X-0.3858Y0.9803
X-0.3858Y-0.7343
X-0.3858Y-0.8957
X-0.3858Y-3.9961
X-0.3858Y-4.3701
X-0.3858Y-4.6043
X-0.374Y-2.4606
X-0.3543Y-4.1299
X-0.3543Y-4.4094
X-0.3543Y-4.6024
X-0.35Y-3.8783
X-0.35Y-4.0783
X-0.3189Y-0.4016
X-0.313Y-1.2205
X-0.311Y-4.6811
X-0.311Y-4.8327
X-0.3016Y-1.8402
X-0.3012Y-1.9311
X-0.2953Y-2.9016
X-0.2953Y-2.9665
X-0.2878Y-3.7717
X-0.2878Y-4.2122
X-0.2815Y-0.4449
X-0.2717Y-4.7047
X-0.2717Y-4.8937
X-0.252Y-1.2224
X-0.252Y-4.3339
X-0.2441Y-0.4843
X-0.2382Y-3.002
X-0.2323Y-2.1043
X-0.2283Y-4.7795
X-0.2283Y-4.8937
X-0.2185Y-3.4587
X-0.2067Y-0.5236
X-0.2004Y-1.8402
X-0.1909Y-1.2205
X-0.1762Y-2.1033
X-0.1634Y-4.4337
X-0.1634Y-4.8169
X-0.1319Y-2.1043
X-0.1102Y-3.7843
X-0.1083Y-4.8189
X-0.0965Y-4.1831
X-0.063Y-4.8583
X-0.0492Y-1.815
X-0.0492Y-1.9114
X0.0Y-2.5689
X0.0Y-3.1378
X0.0Y-3.5118
X0.0449Y-4.7792
X0.0453Y-4.8189
X0.0472Y-4.8583
X0.0492Y-0.05
X0.061Y-2.3583
X0.1004Y-2.1063
X0.1161Y-0.1004
X0.1161Y-1.1161
X0.1457Y-1.3465
X0.1811Y-4.7953
X0.187Y-0.1496
X0.189Y-2.3858
X0.189Y-2.3858
X0.189Y-4.6575
X0.2087Y-3.5197
X0.2205Y-2.3465
X0.2343Y1.3169
X0.238Y-3.6045
X0.2382Y-3.6535
X0.2382Y-4.0669
X0.2382Y-4.0669
X0.2657Y1.2835
X0.2697Y-1.3071
X0.2794Y-3.4271
X0.2972Y1.2441
X0.315Y-3.4016
X0.3169Y-4.376
X0.3268Y1.0453
X0.3386Y-3.6535
X0.3504Y-2.0945
X0.3583Y0.6496
X0.3642Y-1.3484
X0.378Y-3.4488
X0.3898Y0.75
X0.4087Y-2.6035
X0.4213Y0.4488
X0.4238Y-3.6045
X0.4252Y-3.3701
X0.4252Y-3.3701
X0.4435Y-2.8287
X0.4435Y-3.0453
X0.4469Y-3.6299
X0.4488Y-2.0689
X0.4535Y0.55
X0.4774Y-3.4793
X0.4843Y0.3504
X0.4943Y-3.5829
X0.5138Y-4.7953
X0.5138Y-4.874
X0.5138Y-4.9941
X0.5177Y0.25
X0.5374Y-3.5197
X0.5374Y-3.6811
X0.5669Y-2.6035
X0.5787Y-3.5045
X0.5823Y-3.5531
X0.601Y-2.8287
X0.601Y-3.0453
X0.6043Y-3.6059
X0.6378Y-4.8327
X0.6386Y-3.6303
X0.651Y-3.527
X0.6837Y-3.5829
X0.687Y-4.4843
X0.687Y-4.7953
X0.6909Y-4.1949
X0.6929Y-0.2618
X0.723Y-2.6089
X0.7244Y-3.3484
X0.7354Y-3.6547
X0.7374Y-4.7709
X0.7382Y-4.0689
X0.7382Y-4.376
X0.7585Y-2.8287
X0.7585Y-3.0453
X0.7624Y-3.5537
X0.7854Y-3.9902
X0.8374Y-4.0224
X0.8406Y-4.8012
X0.8411Y-3.527
X0.8805Y-2.6128
X0.8839Y-3.687
X0.8839Y-3.8681
X0.8898Y-1.3858
X0.8917Y-0.0197
X0.9159Y-2.8287
X0.9159Y-3.0453
X0.9199Y-3.5045
X0.9374Y-3.7091
X0.9488Y-4.8012
X0.9528Y0.0886
X0.9546Y0.3091
X0.9742Y-4.7754
X0.9823Y-1.3484
X0.9882Y-4.6063
X0.9927Y-2.6128
X1.0026Y-3.4793
X1.063Y-0.0197
X1.0793Y-2.8287
X1.0793Y-3.0453
X1.0813Y-3.4494
X1.0866Y-3.6614
X1.101Y-2.6136
X1.1024Y0.1949
X1.1358Y-4.5787
X1.1476Y-0.2618
X1.161Y-3.4264
X1.1709Y-3.7091
X1.189Y0.8799
X1.2093Y-2.6128
X1.2343Y-3.4008
X1.2368Y-2.8287
X1.2368Y-3.0453
X1.2551Y-3.6547
X1.2622Y-4.722
X1.2913Y-4.5886
X1.3031Y-3.687
X1.3169Y-2.6161
X1.3175Y-3.3711
X1.3917Y-4.0748
X1.3943Y-2.8287
X1.3943Y-3.0453
X1.3965Y-3.3543
X1.4252Y-3.7091
X1.437Y-4.5866
X1.475Y-2.6148
X1.4874Y-4.1807
X1.5157Y-4.1476
X1.5264Y-3.8921
X1.5409Y-3.9886
X1.5409Y-4.6378
X1.5433Y-1.7992
X1.5518Y-2.8287
X1.5518Y-3.0453
X1.5537Y-2.6128
X1.5537Y-3.9148
X1.5638Y-3.9555
X1.5642Y-4.6142
X1.6146Y-4.3307
X1.6453Y0.1949
X1.6453Y-4.3913
X1.6457Y-1.7992
T3
X-1.3882Y-4.0561
X-1.3498Y-4.0177
X-1.09Y-3.9285
X-1.0821Y-4.1004
T4
X-1.5315Y-4.7835
X-1.5038Y-4.7167
X-1.5038Y-4.8503
X-1.437Y-4.689
X-1.437Y-4.878
X-1.3702Y-4.7167
X-1.3702Y-4.8503
X-1.3425Y-4.7835
X1.3425Y-4.7835
X1.3702Y-4.7167
X1.3702Y-4.8503
X1.437Y-4.689
X1.437Y-4.878
X1.5038Y-4.7167
X1.5038Y-4.8503
X1.5315Y-4.7835
T5
X1.102Y-1.5073
X1.202Y-1.5073
X1.302Y-1.5073
X1.402Y-1.5073
T6
X-0.1535Y-0.9567
X-0.1535Y-1.0354
X-0.1535Y-1.1142
T7
X-1.2106Y-2.2406
X-1.2106Y-2.3406
X-0.5138Y-4.7382
X-0.4138Y-4.7382
X1.0626Y-4.6295
X1.4Y0.75
X1.4Y0.65
X1.4Y0.55
X1.4Y0.45
X1.4Y0.35
X1.4Y0.25
X1.4Y0.15
X1.4Y0.05
X1.4Y-0.05
X1.4Y-0.15
X1.4Y-0.25
X1.4Y-0.35
X1.4Y-0.45
X1.4Y-0.55
X1.4Y-0.65
X1.4Y-0.75
X-1.0551Y-3.0472
X-0.9551Y-3.0472
X-0.5Y-2.0079
X-0.4Y-2.0079
X-0.3Y-2.0079
X-0.2Y-2.0079
X-0.1Y-2.0079
X0.0Y-2.0079
X0.1Y-2.0079
X0.2Y-2.0079
X0.3Y-2.0079
X0.4Y-2.0079
X0.5Y-2.0079
X-1.5551Y-1.8661
X-1.5551Y-1.9661
X-1.5551Y-2.0661
X-1.5551Y-2.1661
X-1.5551Y-2.2661
X-1.5551Y-2.3661
X-1.5551Y-2.4661
X-1.5551Y-2.5661
X-1.3774Y-4.3484
X-1.2774Y-4.3484
X-1.1774Y-4.3484
X-1.0774Y-4.3484
X-0.9774Y-4.3484
X-0.8774Y-4.3484
X-0.7774Y-4.3484
X-0.6774Y-4.3484
X-0.15Y-2.2047
X-0.05Y-2.2047
X0.05Y-2.2047
X0.15Y-2.2047
X0.624Y-0.9232
X0.624Y-1.0232
X-1.5551Y-2.6661
X-1.5551Y-2.7661
X-1.5551Y-2.8661
X-1.5551Y-2.9661
X-1.5551Y-3.0661
X-1.5551Y-3.1661
X-1.5551Y-3.2661
X-1.5551Y-3.3661
X-1.0898Y-3.6413
X-0.9898Y-3.6413
X-0.8898Y-3.6413
X-0.7898Y-3.6413
X-0.6898Y-3.6413
X-0.5898Y-3.6413
X-0.4898Y-3.6413
X-0.3898Y-3.6413
X0.2697Y-1.4449
X0.3697Y-1.4449
X-1.4Y0.75
X-1.4Y0.65
X-1.4Y0.55
X-1.4Y0.45
X-1.4Y0.35
X-1.4Y0.25
X-1.4Y0.15
X-1.4Y0.05
X-1.4Y-0.05
X-1.4Y-0.15
X-1.4Y-0.25
X-1.4Y-0.35
X-1.4Y-0.45
X-1.4Y-0.55
X-1.4Y-0.65
X-1.4Y-0.75
T8
X-1.0425Y-4.7933
X-1.0425Y-4.8933
X-0.9425Y-4.7933
X-0.9425Y-4.8933
X-0.8425Y-4.7933
X-0.8425Y-4.8933
T9
X0.1374Y-3.8339
X0.1374Y-3.9339
X0.1374Y-4.0339
X0.1374Y-4.1339
X0.1374Y-4.2339
X0.1374Y-4.3339
X0.1374Y-4.4339
X0.2374Y-3.8339
X0.2374Y-4.1339
X0.2374Y-4.2339
X0.2374Y-4.4339
X0.3374Y-3.8339
X0.3374Y-4.1339
X0.3374Y-4.2339
X0.3374Y-4.4339
X0.4374Y-3.8339
X0.4374Y-4.1339
X0.4374Y-4.2339
X0.4374Y-4.4339
X0.5374Y-3.8339
X0.5374Y-4.1339
X0.5374Y-4.2339
X0.5374Y-4.4339
X0.6374Y-3.8339
X0.6374Y-4.1339
X0.6374Y-4.2339
X0.6374Y-4.4339
X0.7374Y-3.8339
X0.7374Y-4.1339
X0.7374Y-4.2339
X0.7374Y-4.4339
X0.8374Y-3.8339
X0.8374Y-4.1339
X0.8374Y-4.2339
X0.8374Y-4.4339
X0.9374Y-3.8339
X0.9374Y-4.3339
X0.9374Y-4.4339
X1.0374Y-3.8339
X1.0374Y-4.3339
X1.0374Y-4.4339
X1.1374Y-3.8339
X1.1374Y-4.3339
X1.1374Y-4.4339
X1.2374Y-3.8339
X1.2374Y-4.4339
X1.3374Y-3.8339
X1.3374Y-4.3339
X1.3374Y-4.4339
X1.4374Y-3.8339
X1.4374Y-4.4339
X-0.0626Y-3.7339
X-0.0626Y-3.8339
X-0.0626Y-3.9339
X-0.0626Y-4.0339
X-0.0626Y-4.1339
X-0.0626Y-4.2339
X-0.0626Y-4.3339
X-0.0626Y-4.4339
X-0.0626Y-4.5339
T10
X0.9256Y0.9801
X0.9256Y0.8801
X0.9256Y0.7801
X0.9256Y0.6801
X0.9256Y0.5801
X0.9256Y0.4801
X0.9256Y0.3801
X1.0256Y0.9801
X1.0256Y0.8801
X1.0256Y0.7801
X1.0256Y0.6801
X1.0256Y0.5801
X1.0256Y0.4801
X1.0256Y0.3801
T11
X0.952Y-0.9573
X0.952Y-1.5073
X1.552Y-0.9573
X1.552Y-1.5073
T12
X-0.9646Y1.1417
X-0.9646Y-1.1417
X0.9646Y1.1417
X0.9646Y-1.1417
T13
X-1.125Y1.475
X-1.125Y-1.775
X1.125Y1.475
X1.125Y-1.775
T14
X-1.437Y-4.7835
X1.437Y-4.7835
T0
M30
