G04 #@! TF.GenerationSoftware,KiCad,Pcbnew,(5.1.2-1)-1*
G04 #@! TF.CreationDate,2020-11-19T22:06:58-06:00*
G04 #@! TF.ProjectId,Core64 LB v0.4,436f7265-3634-4204-9c42-2076302e342e,0.3*
G04 #@! TF.SameCoordinates,Original*
G04 #@! TF.FileFunction,Legend,Bot*
G04 #@! TF.FilePolarity,Positive*
%FSLAX46Y46*%
G04 Gerber Fmt 4.6, Leading zero omitted, Abs format (unit mm)*
G04 Created by KiCad (PCBNEW (5.1.2-1)-1) date 2020-11-19 22:06:58*
%MOMM*%
%LPD*%
G04 APERTURE LIST*
%ADD10C,0.150000*%
%ADD11C,0.381000*%
%ADD12C,0.635000*%
%ADD13C,0.010000*%
%ADD14C,0.120000*%
G04 APERTURE END LIST*
D10*
X30096785Y-120132857D02*
X30096785Y-118932857D01*
X29639642Y-118932857D01*
X29525357Y-118990000D01*
X29468214Y-119047142D01*
X29411071Y-119161428D01*
X29411071Y-119332857D01*
X29468214Y-119447142D01*
X29525357Y-119504285D01*
X29639642Y-119561428D01*
X30096785Y-119561428D01*
X28382500Y-120132857D02*
X28382500Y-119504285D01*
X28439642Y-119390000D01*
X28553928Y-119332857D01*
X28782500Y-119332857D01*
X28896785Y-119390000D01*
X28382500Y-120075714D02*
X28496785Y-120132857D01*
X28782500Y-120132857D01*
X28896785Y-120075714D01*
X28953928Y-119961428D01*
X28953928Y-119847142D01*
X28896785Y-119732857D01*
X28782500Y-119675714D01*
X28496785Y-119675714D01*
X28382500Y-119618571D01*
X27811071Y-120132857D02*
X27811071Y-119332857D01*
X27811071Y-119561428D02*
X27753928Y-119447142D01*
X27696785Y-119390000D01*
X27582500Y-119332857D01*
X27468214Y-119332857D01*
X27239642Y-119332857D02*
X26782500Y-119332857D01*
X27068214Y-118932857D02*
X27068214Y-119961428D01*
X27011071Y-120075714D01*
X26896785Y-120132857D01*
X26782500Y-120132857D01*
X25468214Y-120132857D02*
X25468214Y-118932857D01*
X24782500Y-120132857D01*
X24782500Y-118932857D01*
X23696785Y-119332857D02*
X23696785Y-120132857D01*
X24211071Y-119332857D02*
X24211071Y-119961428D01*
X24153928Y-120075714D01*
X24039642Y-120132857D01*
X23868214Y-120132857D01*
X23753928Y-120075714D01*
X23696785Y-120018571D01*
X23125357Y-120132857D02*
X23125357Y-119332857D01*
X23125357Y-119447142D02*
X23068214Y-119390000D01*
X22953928Y-119332857D01*
X22782499Y-119332857D01*
X22668214Y-119390000D01*
X22611071Y-119504285D01*
X22611071Y-120132857D01*
X22611071Y-119504285D02*
X22553928Y-119390000D01*
X22439642Y-119332857D01*
X22268214Y-119332857D01*
X22153928Y-119390000D01*
X22096785Y-119504285D01*
X22096785Y-120132857D01*
X21525357Y-120132857D02*
X21525357Y-118932857D01*
X21525357Y-119390000D02*
X21411071Y-119332857D01*
X21182499Y-119332857D01*
X21068214Y-119390000D01*
X21011071Y-119447142D01*
X20953928Y-119561428D01*
X20953928Y-119904285D01*
X21011071Y-120018571D01*
X21068214Y-120075714D01*
X21182499Y-120132857D01*
X21411071Y-120132857D01*
X21525357Y-120075714D01*
X19982499Y-120075714D02*
X20096785Y-120132857D01*
X20325357Y-120132857D01*
X20439642Y-120075714D01*
X20496785Y-119961428D01*
X20496785Y-119504285D01*
X20439642Y-119390000D01*
X20325357Y-119332857D01*
X20096785Y-119332857D01*
X19982499Y-119390000D01*
X19925357Y-119504285D01*
X19925357Y-119618571D01*
X20496785Y-119732857D01*
X19411071Y-120132857D02*
X19411071Y-119332857D01*
X19411071Y-119561428D02*
X19353928Y-119447142D01*
X19296785Y-119390000D01*
X19182499Y-119332857D01*
X19068214Y-119332857D01*
X18668214Y-120018571D02*
X18611071Y-120075714D01*
X18668214Y-120132857D01*
X18725357Y-120075714D01*
X18668214Y-120018571D01*
X18668214Y-120132857D01*
X18668214Y-119390000D02*
X18611071Y-119447142D01*
X18668214Y-119504285D01*
X18725357Y-119447142D01*
X18668214Y-119390000D01*
X18668214Y-119504285D01*
X16611071Y-120132857D02*
X17182499Y-120132857D01*
X17182499Y-118932857D01*
X16039642Y-120132857D02*
X16153928Y-120075714D01*
X16211071Y-120018571D01*
X16268214Y-119904285D01*
X16268214Y-119561428D01*
X16211071Y-119447142D01*
X16153928Y-119390000D01*
X16039642Y-119332857D01*
X15868214Y-119332857D01*
X15753928Y-119390000D01*
X15696785Y-119447142D01*
X15639642Y-119561428D01*
X15639642Y-119904285D01*
X15696785Y-120018571D01*
X15753928Y-120075714D01*
X15868214Y-120132857D01*
X16039642Y-120132857D01*
X14611071Y-119332857D02*
X14611071Y-120304285D01*
X14668214Y-120418571D01*
X14725357Y-120475714D01*
X14839642Y-120532857D01*
X15011071Y-120532857D01*
X15125357Y-120475714D01*
X14611071Y-120075714D02*
X14725357Y-120132857D01*
X14953928Y-120132857D01*
X15068214Y-120075714D01*
X15125357Y-120018571D01*
X15182499Y-119904285D01*
X15182499Y-119561428D01*
X15125357Y-119447142D01*
X15068214Y-119390000D01*
X14953928Y-119332857D01*
X14725357Y-119332857D01*
X14611071Y-119390000D01*
X14039642Y-120132857D02*
X14039642Y-119332857D01*
X14039642Y-118932857D02*
X14096785Y-118990000D01*
X14039642Y-119047142D01*
X13982499Y-118990000D01*
X14039642Y-118932857D01*
X14039642Y-119047142D01*
X12953928Y-120075714D02*
X13068214Y-120132857D01*
X13296785Y-120132857D01*
X13411071Y-120075714D01*
X13468214Y-120018571D01*
X13525357Y-119904285D01*
X13525357Y-119561428D01*
X13468214Y-119447142D01*
X13411071Y-119390000D01*
X13296785Y-119332857D01*
X13068214Y-119332857D01*
X12953928Y-119390000D01*
X11125357Y-119504285D02*
X10953928Y-119561428D01*
X10896785Y-119618571D01*
X10839642Y-119732857D01*
X10839642Y-119904285D01*
X10896785Y-120018571D01*
X10953928Y-120075714D01*
X11068214Y-120132857D01*
X11525357Y-120132857D01*
X11525357Y-118932857D01*
X11125357Y-118932857D01*
X11011071Y-118990000D01*
X10953928Y-119047142D01*
X10896785Y-119161428D01*
X10896785Y-119275714D01*
X10953928Y-119390000D01*
X11011071Y-119447142D01*
X11125357Y-119504285D01*
X11525357Y-119504285D01*
X10153928Y-120132857D02*
X10268214Y-120075714D01*
X10325357Y-120018571D01*
X10382500Y-119904285D01*
X10382500Y-119561428D01*
X10325357Y-119447142D01*
X10268214Y-119390000D01*
X10153928Y-119332857D01*
X9982500Y-119332857D01*
X9868214Y-119390000D01*
X9811071Y-119447142D01*
X9753928Y-119561428D01*
X9753928Y-119904285D01*
X9811071Y-120018571D01*
X9868214Y-120075714D01*
X9982500Y-120132857D01*
X10153928Y-120132857D01*
X8725357Y-120132857D02*
X8725357Y-119504285D01*
X8782500Y-119390000D01*
X8896785Y-119332857D01*
X9125357Y-119332857D01*
X9239642Y-119390000D01*
X8725357Y-120075714D02*
X8839642Y-120132857D01*
X9125357Y-120132857D01*
X9239642Y-120075714D01*
X9296785Y-119961428D01*
X9296785Y-119847142D01*
X9239642Y-119732857D01*
X9125357Y-119675714D01*
X8839642Y-119675714D01*
X8725357Y-119618571D01*
X8153928Y-120132857D02*
X8153928Y-119332857D01*
X8153928Y-119561428D02*
X8096785Y-119447142D01*
X8039642Y-119390000D01*
X7925357Y-119332857D01*
X7811071Y-119332857D01*
X6896785Y-120132857D02*
X6896785Y-118932857D01*
X6896785Y-120075714D02*
X7011071Y-120132857D01*
X7239642Y-120132857D01*
X7353928Y-120075714D01*
X7411071Y-120018571D01*
X7468214Y-119904285D01*
X7468214Y-119561428D01*
X7411071Y-119447142D01*
X7353928Y-119390000D01*
X7239642Y-119332857D01*
X7011071Y-119332857D01*
X6896785Y-119390000D01*
X29411071Y-122082857D02*
X29811071Y-121511428D01*
X30096785Y-122082857D02*
X30096785Y-120882857D01*
X29639642Y-120882857D01*
X29525357Y-120940000D01*
X29468214Y-120997142D01*
X29411071Y-121111428D01*
X29411071Y-121282857D01*
X29468214Y-121397142D01*
X29525357Y-121454285D01*
X29639642Y-121511428D01*
X30096785Y-121511428D01*
X28439642Y-122025714D02*
X28553928Y-122082857D01*
X28782500Y-122082857D01*
X28896785Y-122025714D01*
X28953928Y-121911428D01*
X28953928Y-121454285D01*
X28896785Y-121340000D01*
X28782500Y-121282857D01*
X28553928Y-121282857D01*
X28439642Y-121340000D01*
X28382500Y-121454285D01*
X28382500Y-121568571D01*
X28953928Y-121682857D01*
X27982500Y-121282857D02*
X27696785Y-122082857D01*
X27411071Y-121282857D01*
X26953928Y-122082857D02*
X26953928Y-121282857D01*
X26953928Y-120882857D02*
X27011071Y-120940000D01*
X26953928Y-120997142D01*
X26896785Y-120940000D01*
X26953928Y-120882857D01*
X26953928Y-120997142D01*
X26439642Y-122025714D02*
X26325357Y-122082857D01*
X26096785Y-122082857D01*
X25982500Y-122025714D01*
X25925357Y-121911428D01*
X25925357Y-121854285D01*
X25982500Y-121740000D01*
X26096785Y-121682857D01*
X26268214Y-121682857D01*
X26382500Y-121625714D01*
X26439642Y-121511428D01*
X26439642Y-121454285D01*
X26382500Y-121340000D01*
X26268214Y-121282857D01*
X26096785Y-121282857D01*
X25982500Y-121340000D01*
X25411071Y-122082857D02*
X25411071Y-121282857D01*
X25411071Y-120882857D02*
X25468214Y-120940000D01*
X25411071Y-120997142D01*
X25353928Y-120940000D01*
X25411071Y-120882857D01*
X25411071Y-120997142D01*
X24668214Y-122082857D02*
X24782500Y-122025714D01*
X24839642Y-121968571D01*
X24896785Y-121854285D01*
X24896785Y-121511428D01*
X24839642Y-121397142D01*
X24782500Y-121340000D01*
X24668214Y-121282857D01*
X24496785Y-121282857D01*
X24382500Y-121340000D01*
X24325357Y-121397142D01*
X24268214Y-121511428D01*
X24268214Y-121854285D01*
X24325357Y-121968571D01*
X24382500Y-122025714D01*
X24496785Y-122082857D01*
X24668214Y-122082857D01*
X23753928Y-121282857D02*
X23753928Y-122082857D01*
X23753928Y-121397142D02*
X23696785Y-121340000D01*
X23582500Y-121282857D01*
X23411071Y-121282857D01*
X23296785Y-121340000D01*
X23239642Y-121454285D01*
X23239642Y-122082857D01*
X22668214Y-121968571D02*
X22611071Y-122025714D01*
X22668214Y-122082857D01*
X22725357Y-122025714D01*
X22668214Y-121968571D01*
X22668214Y-122082857D01*
X22668214Y-121340000D02*
X22611071Y-121397142D01*
X22668214Y-121454285D01*
X22725357Y-121397142D01*
X22668214Y-121340000D01*
X22668214Y-121454285D01*
X20953928Y-120882857D02*
X20839642Y-120882857D01*
X20725357Y-120940000D01*
X20668214Y-120997142D01*
X20611071Y-121111428D01*
X20553928Y-121340000D01*
X20553928Y-121625714D01*
X20611071Y-121854285D01*
X20668214Y-121968571D01*
X20725357Y-122025714D01*
X20839642Y-122082857D01*
X20953928Y-122082857D01*
X21068214Y-122025714D01*
X21125357Y-121968571D01*
X21182500Y-121854285D01*
X21239642Y-121625714D01*
X21239642Y-121340000D01*
X21182500Y-121111428D01*
X21125357Y-120997142D01*
X21068214Y-120940000D01*
X20953928Y-120882857D01*
X20039642Y-121968571D02*
X19982500Y-122025714D01*
X20039642Y-122082857D01*
X20096785Y-122025714D01*
X20039642Y-121968571D01*
X20039642Y-122082857D01*
X18953928Y-121282857D02*
X18953928Y-122082857D01*
X19239642Y-120825714D02*
X19525357Y-121682857D01*
X18782500Y-121682857D01*
X29411071Y-124032857D02*
X29811071Y-123461428D01*
X30096785Y-124032857D02*
X30096785Y-122832857D01*
X29639642Y-122832857D01*
X29525357Y-122890000D01*
X29468214Y-122947142D01*
X29411071Y-123061428D01*
X29411071Y-123232857D01*
X29468214Y-123347142D01*
X29525357Y-123404285D01*
X29639642Y-123461428D01*
X30096785Y-123461428D01*
X28439642Y-123975714D02*
X28553928Y-124032857D01*
X28782500Y-124032857D01*
X28896785Y-123975714D01*
X28953928Y-123861428D01*
X28953928Y-123404285D01*
X28896785Y-123290000D01*
X28782500Y-123232857D01*
X28553928Y-123232857D01*
X28439642Y-123290000D01*
X28382500Y-123404285D01*
X28382500Y-123518571D01*
X28953928Y-123632857D01*
X27696785Y-124032857D02*
X27811071Y-123975714D01*
X27868214Y-123861428D01*
X27868214Y-122832857D01*
X26782500Y-123975714D02*
X26896785Y-124032857D01*
X27125357Y-124032857D01*
X27239642Y-123975714D01*
X27296785Y-123861428D01*
X27296785Y-123404285D01*
X27239642Y-123290000D01*
X27125357Y-123232857D01*
X26896785Y-123232857D01*
X26782500Y-123290000D01*
X26725357Y-123404285D01*
X26725357Y-123518571D01*
X27296785Y-123632857D01*
X25696785Y-124032857D02*
X25696785Y-123404285D01*
X25753928Y-123290000D01*
X25868214Y-123232857D01*
X26096785Y-123232857D01*
X26211071Y-123290000D01*
X25696785Y-123975714D02*
X25811071Y-124032857D01*
X26096785Y-124032857D01*
X26211071Y-123975714D01*
X26268214Y-123861428D01*
X26268214Y-123747142D01*
X26211071Y-123632857D01*
X26096785Y-123575714D01*
X25811071Y-123575714D01*
X25696785Y-123518571D01*
X25182499Y-123975714D02*
X25068214Y-124032857D01*
X24839642Y-124032857D01*
X24725357Y-123975714D01*
X24668214Y-123861428D01*
X24668214Y-123804285D01*
X24725357Y-123690000D01*
X24839642Y-123632857D01*
X25011071Y-123632857D01*
X25125357Y-123575714D01*
X25182499Y-123461428D01*
X25182499Y-123404285D01*
X25125357Y-123290000D01*
X25011071Y-123232857D01*
X24839642Y-123232857D01*
X24725357Y-123290000D01*
X23696785Y-123975714D02*
X23811071Y-124032857D01*
X24039642Y-124032857D01*
X24153928Y-123975714D01*
X24211071Y-123861428D01*
X24211071Y-123404285D01*
X24153928Y-123290000D01*
X24039642Y-123232857D01*
X23811071Y-123232857D01*
X23696785Y-123290000D01*
X23639642Y-123404285D01*
X23639642Y-123518571D01*
X24211071Y-123632857D01*
X22211071Y-124032857D02*
X22211071Y-122832857D01*
X21925357Y-122832857D01*
X21753928Y-122890000D01*
X21639642Y-123004285D01*
X21582500Y-123118571D01*
X21525357Y-123347142D01*
X21525357Y-123518571D01*
X21582500Y-123747142D01*
X21639642Y-123861428D01*
X21753928Y-123975714D01*
X21925357Y-124032857D01*
X22211071Y-124032857D01*
X20496785Y-124032857D02*
X20496785Y-123404285D01*
X20553928Y-123290000D01*
X20668214Y-123232857D01*
X20896785Y-123232857D01*
X21011071Y-123290000D01*
X20496785Y-123975714D02*
X20611071Y-124032857D01*
X20896785Y-124032857D01*
X21011071Y-123975714D01*
X21068214Y-123861428D01*
X21068214Y-123747142D01*
X21011071Y-123632857D01*
X20896785Y-123575714D01*
X20611071Y-123575714D01*
X20496785Y-123518571D01*
X20096785Y-123232857D02*
X19639642Y-123232857D01*
X19925357Y-122832857D02*
X19925357Y-123861428D01*
X19868214Y-123975714D01*
X19753928Y-124032857D01*
X19639642Y-124032857D01*
X18782500Y-123975714D02*
X18896785Y-124032857D01*
X19125357Y-124032857D01*
X19239642Y-123975714D01*
X19296785Y-123861428D01*
X19296785Y-123404285D01*
X19239642Y-123290000D01*
X19125357Y-123232857D01*
X18896785Y-123232857D01*
X18782500Y-123290000D01*
X18725357Y-123404285D01*
X18725357Y-123518571D01*
X19296785Y-123632857D01*
X18211071Y-123918571D02*
X18153928Y-123975714D01*
X18211071Y-124032857D01*
X18268214Y-123975714D01*
X18211071Y-123918571D01*
X18211071Y-124032857D01*
X18211071Y-123290000D02*
X18153928Y-123347142D01*
X18211071Y-123404285D01*
X18268214Y-123347142D01*
X18211071Y-123290000D01*
X18211071Y-123404285D01*
X16782500Y-122947142D02*
X16725357Y-122890000D01*
X16611071Y-122832857D01*
X16325357Y-122832857D01*
X16211071Y-122890000D01*
X16153928Y-122947142D01*
X16096785Y-123061428D01*
X16096785Y-123175714D01*
X16153928Y-123347142D01*
X16839642Y-124032857D01*
X16096785Y-124032857D01*
X15353928Y-122832857D02*
X15239642Y-122832857D01*
X15125357Y-122890000D01*
X15068214Y-122947142D01*
X15011071Y-123061428D01*
X14953928Y-123290000D01*
X14953928Y-123575714D01*
X15011071Y-123804285D01*
X15068214Y-123918571D01*
X15125357Y-123975714D01*
X15239642Y-124032857D01*
X15353928Y-124032857D01*
X15468214Y-123975714D01*
X15525357Y-123918571D01*
X15582499Y-123804285D01*
X15639642Y-123575714D01*
X15639642Y-123290000D01*
X15582499Y-123061428D01*
X15525357Y-122947142D01*
X15468214Y-122890000D01*
X15353928Y-122832857D01*
X14496785Y-122947142D02*
X14439642Y-122890000D01*
X14325357Y-122832857D01*
X14039642Y-122832857D01*
X13925357Y-122890000D01*
X13868214Y-122947142D01*
X13811071Y-123061428D01*
X13811071Y-123175714D01*
X13868214Y-123347142D01*
X14553928Y-124032857D01*
X13811071Y-124032857D01*
X13068214Y-122832857D02*
X12953928Y-122832857D01*
X12839642Y-122890000D01*
X12782500Y-122947142D01*
X12725357Y-123061428D01*
X12668214Y-123290000D01*
X12668214Y-123575714D01*
X12725357Y-123804285D01*
X12782500Y-123918571D01*
X12839642Y-123975714D01*
X12953928Y-124032857D01*
X13068214Y-124032857D01*
X13182500Y-123975714D01*
X13239642Y-123918571D01*
X13296785Y-123804285D01*
X13353928Y-123575714D01*
X13353928Y-123290000D01*
X13296785Y-123061428D01*
X13239642Y-122947142D01*
X13182500Y-122890000D01*
X13068214Y-122832857D01*
X12153928Y-123575714D02*
X11239642Y-123575714D01*
X10039642Y-124032857D02*
X10725357Y-124032857D01*
X10382500Y-124032857D02*
X10382500Y-122832857D01*
X10496785Y-123004285D01*
X10611071Y-123118571D01*
X10725357Y-123175714D01*
X8896785Y-124032857D02*
X9582500Y-124032857D01*
X9239642Y-124032857D02*
X9239642Y-122832857D01*
X9353928Y-123004285D01*
X9468214Y-123118571D01*
X9582500Y-123175714D01*
X8382500Y-123575714D02*
X7468214Y-123575714D01*
X6268214Y-124032857D02*
X6953928Y-124032857D01*
X6611071Y-124032857D02*
X6611071Y-122832857D01*
X6725357Y-123004285D01*
X6839642Y-123118571D01*
X6953928Y-123175714D01*
X5696785Y-124032857D02*
X5468214Y-124032857D01*
X5353928Y-123975714D01*
X5296785Y-123918571D01*
X5182500Y-123747142D01*
X5125357Y-123518571D01*
X5125357Y-123061428D01*
X5182500Y-122947142D01*
X5239642Y-122890000D01*
X5353928Y-122832857D01*
X5582500Y-122832857D01*
X5696785Y-122890000D01*
X5753928Y-122947142D01*
X5811071Y-123061428D01*
X5811071Y-123347142D01*
X5753928Y-123461428D01*
X5696785Y-123518571D01*
X5582500Y-123575714D01*
X5353928Y-123575714D01*
X5239642Y-123518571D01*
X5182500Y-123461428D01*
X5125357Y-123347142D01*
X38067500Y-68122857D02*
X38067500Y-66922857D01*
X37610357Y-66922857D01*
X37496071Y-66980000D01*
X37438928Y-67037142D01*
X37381785Y-67151428D01*
X37381785Y-67322857D01*
X37438928Y-67437142D01*
X37496071Y-67494285D01*
X37610357Y-67551428D01*
X38067500Y-67551428D01*
X36181785Y-68008571D02*
X36238928Y-68065714D01*
X36410357Y-68122857D01*
X36524642Y-68122857D01*
X36696071Y-68065714D01*
X36810357Y-67951428D01*
X36867500Y-67837142D01*
X36924642Y-67608571D01*
X36924642Y-67437142D01*
X36867500Y-67208571D01*
X36810357Y-67094285D01*
X36696071Y-66980000D01*
X36524642Y-66922857D01*
X36410357Y-66922857D01*
X36238928Y-66980000D01*
X36181785Y-67037142D01*
X35267500Y-67494285D02*
X35096071Y-67551428D01*
X35038928Y-67608571D01*
X34981785Y-67722857D01*
X34981785Y-67894285D01*
X35038928Y-68008571D01*
X35096071Y-68065714D01*
X35210357Y-68122857D01*
X35667500Y-68122857D01*
X35667500Y-66922857D01*
X35267500Y-66922857D01*
X35153214Y-66980000D01*
X35096071Y-67037142D01*
X35038928Y-67151428D01*
X35038928Y-67265714D01*
X35096071Y-67380000D01*
X35153214Y-67437142D01*
X35267500Y-67494285D01*
X35667500Y-67494285D01*
X33553214Y-68122857D02*
X33553214Y-66922857D01*
X33153214Y-67780000D01*
X32753214Y-66922857D01*
X32753214Y-68122857D01*
X31667500Y-68122857D02*
X31667500Y-67494285D01*
X31724642Y-67380000D01*
X31838928Y-67322857D01*
X32067500Y-67322857D01*
X32181785Y-67380000D01*
X31667500Y-68065714D02*
X31781785Y-68122857D01*
X32067500Y-68122857D01*
X32181785Y-68065714D01*
X32238928Y-67951428D01*
X32238928Y-67837142D01*
X32181785Y-67722857D01*
X32067500Y-67665714D01*
X31781785Y-67665714D01*
X31667500Y-67608571D01*
X31096071Y-68122857D02*
X31096071Y-66922857D01*
X30981785Y-67665714D02*
X30638928Y-68122857D01*
X30638928Y-67322857D02*
X31096071Y-67780000D01*
X29667500Y-68065714D02*
X29781785Y-68122857D01*
X30010357Y-68122857D01*
X30124642Y-68065714D01*
X30181785Y-67951428D01*
X30181785Y-67494285D01*
X30124642Y-67380000D01*
X30010357Y-67322857D01*
X29781785Y-67322857D01*
X29667500Y-67380000D01*
X29610357Y-67494285D01*
X29610357Y-67608571D01*
X30181785Y-67722857D01*
X29096071Y-68122857D02*
X29096071Y-67322857D01*
X29096071Y-67551428D02*
X29038928Y-67437142D01*
X28981785Y-67380000D01*
X28867500Y-67322857D01*
X28753214Y-67322857D01*
X28353214Y-68008571D02*
X28296071Y-68065714D01*
X28353214Y-68122857D01*
X28410357Y-68065714D01*
X28353214Y-68008571D01*
X28353214Y-68122857D01*
X28353214Y-67380000D02*
X28296071Y-67437142D01*
X28353214Y-67494285D01*
X28410357Y-67437142D01*
X28353214Y-67380000D01*
X28353214Y-67494285D01*
X37496071Y-73630000D02*
X36924642Y-73630000D01*
X37610357Y-73972857D02*
X37210357Y-72772857D01*
X36810357Y-73972857D01*
X36467500Y-73915714D02*
X36353214Y-73972857D01*
X36124642Y-73972857D01*
X36010357Y-73915714D01*
X35953214Y-73801428D01*
X35953214Y-73744285D01*
X36010357Y-73630000D01*
X36124642Y-73572857D01*
X36296071Y-73572857D01*
X36410357Y-73515714D01*
X36467500Y-73401428D01*
X36467500Y-73344285D01*
X36410357Y-73230000D01*
X36296071Y-73172857D01*
X36124642Y-73172857D01*
X36010357Y-73230000D01*
X35496071Y-73915714D02*
X35381785Y-73972857D01*
X35153214Y-73972857D01*
X35038928Y-73915714D01*
X34981785Y-73801428D01*
X34981785Y-73744285D01*
X35038928Y-73630000D01*
X35153214Y-73572857D01*
X35324642Y-73572857D01*
X35438928Y-73515714D01*
X35496071Y-73401428D01*
X35496071Y-73344285D01*
X35438928Y-73230000D01*
X35324642Y-73172857D01*
X35153214Y-73172857D01*
X35038928Y-73230000D01*
X34010357Y-73915714D02*
X34124642Y-73972857D01*
X34353214Y-73972857D01*
X34467500Y-73915714D01*
X34524642Y-73801428D01*
X34524642Y-73344285D01*
X34467500Y-73230000D01*
X34353214Y-73172857D01*
X34124642Y-73172857D01*
X34010357Y-73230000D01*
X33953214Y-73344285D01*
X33953214Y-73458571D01*
X34524642Y-73572857D01*
X33438928Y-73972857D02*
X33438928Y-73172857D01*
X33438928Y-73287142D02*
X33381785Y-73230000D01*
X33267500Y-73172857D01*
X33096071Y-73172857D01*
X32981785Y-73230000D01*
X32924642Y-73344285D01*
X32924642Y-73972857D01*
X32924642Y-73344285D02*
X32867500Y-73230000D01*
X32753214Y-73172857D01*
X32581785Y-73172857D01*
X32467500Y-73230000D01*
X32410357Y-73344285D01*
X32410357Y-73972857D01*
X31838928Y-73972857D02*
X31838928Y-72772857D01*
X31838928Y-73230000D02*
X31724642Y-73172857D01*
X31496071Y-73172857D01*
X31381785Y-73230000D01*
X31324642Y-73287142D01*
X31267500Y-73401428D01*
X31267500Y-73744285D01*
X31324642Y-73858571D01*
X31381785Y-73915714D01*
X31496071Y-73972857D01*
X31724642Y-73972857D01*
X31838928Y-73915714D01*
X30581785Y-73972857D02*
X30696071Y-73915714D01*
X30753214Y-73801428D01*
X30753214Y-72772857D01*
X29667500Y-73915714D02*
X29781785Y-73972857D01*
X30010357Y-73972857D01*
X30124642Y-73915714D01*
X30181785Y-73801428D01*
X30181785Y-73344285D01*
X30124642Y-73230000D01*
X30010357Y-73172857D01*
X29781785Y-73172857D01*
X29667500Y-73230000D01*
X29610357Y-73344285D01*
X29610357Y-73458571D01*
X30181785Y-73572857D01*
X29096071Y-73972857D02*
X29096071Y-73172857D01*
X29096071Y-73401428D02*
X29038928Y-73287142D01*
X28981785Y-73230000D01*
X28867500Y-73172857D01*
X28753214Y-73172857D01*
X28353214Y-73858571D02*
X28296071Y-73915714D01*
X28353214Y-73972857D01*
X28410357Y-73915714D01*
X28353214Y-73858571D01*
X28353214Y-73972857D01*
X28353214Y-73230000D02*
X28296071Y-73287142D01*
X28353214Y-73344285D01*
X28410357Y-73287142D01*
X28353214Y-73230000D01*
X28353214Y-73344285D01*
X41324642Y-79765714D02*
X41153214Y-79822857D01*
X40867500Y-79822857D01*
X40753214Y-79765714D01*
X40696071Y-79708571D01*
X40638928Y-79594285D01*
X40638928Y-79480000D01*
X40696071Y-79365714D01*
X40753214Y-79308571D01*
X40867500Y-79251428D01*
X41096071Y-79194285D01*
X41210357Y-79137142D01*
X41267500Y-79080000D01*
X41324642Y-78965714D01*
X41324642Y-78851428D01*
X41267500Y-78737142D01*
X41210357Y-78680000D01*
X41096071Y-78622857D01*
X40810357Y-78622857D01*
X40638928Y-78680000D01*
X39667500Y-79765714D02*
X39781785Y-79822857D01*
X40010357Y-79822857D01*
X40124642Y-79765714D01*
X40181785Y-79651428D01*
X40181785Y-79194285D01*
X40124642Y-79080000D01*
X40010357Y-79022857D01*
X39781785Y-79022857D01*
X39667500Y-79080000D01*
X39610357Y-79194285D01*
X39610357Y-79308571D01*
X40181785Y-79422857D01*
X39096071Y-79822857D02*
X39096071Y-79022857D01*
X39096071Y-79251428D02*
X39038928Y-79137142D01*
X38981785Y-79080000D01*
X38867500Y-79022857D01*
X38753214Y-79022857D01*
X38353214Y-79822857D02*
X38353214Y-79022857D01*
X38353214Y-78622857D02*
X38410357Y-78680000D01*
X38353214Y-78737142D01*
X38296071Y-78680000D01*
X38353214Y-78622857D01*
X38353214Y-78737142D01*
X37267500Y-79822857D02*
X37267500Y-79194285D01*
X37324642Y-79080000D01*
X37438928Y-79022857D01*
X37667500Y-79022857D01*
X37781785Y-79080000D01*
X37267500Y-79765714D02*
X37381785Y-79822857D01*
X37667500Y-79822857D01*
X37781785Y-79765714D01*
X37838928Y-79651428D01*
X37838928Y-79537142D01*
X37781785Y-79422857D01*
X37667500Y-79365714D01*
X37381785Y-79365714D01*
X37267500Y-79308571D01*
X36524642Y-79822857D02*
X36638928Y-79765714D01*
X36696071Y-79651428D01*
X36696071Y-78622857D01*
X35153214Y-79822857D02*
X35153214Y-78622857D01*
X34467500Y-79822857D01*
X34467500Y-78622857D01*
X33381785Y-79022857D02*
X33381785Y-79822857D01*
X33896071Y-79022857D02*
X33896071Y-79651428D01*
X33838928Y-79765714D01*
X33724642Y-79822857D01*
X33553214Y-79822857D01*
X33438928Y-79765714D01*
X33381785Y-79708571D01*
X32810357Y-79822857D02*
X32810357Y-79022857D01*
X32810357Y-79137142D02*
X32753214Y-79080000D01*
X32638928Y-79022857D01*
X32467500Y-79022857D01*
X32353214Y-79080000D01*
X32296071Y-79194285D01*
X32296071Y-79822857D01*
X32296071Y-79194285D02*
X32238928Y-79080000D01*
X32124642Y-79022857D01*
X31953214Y-79022857D01*
X31838928Y-79080000D01*
X31781785Y-79194285D01*
X31781785Y-79822857D01*
X31210357Y-79822857D02*
X31210357Y-78622857D01*
X31210357Y-79080000D02*
X31096071Y-79022857D01*
X30867500Y-79022857D01*
X30753214Y-79080000D01*
X30696071Y-79137142D01*
X30638928Y-79251428D01*
X30638928Y-79594285D01*
X30696071Y-79708571D01*
X30753214Y-79765714D01*
X30867500Y-79822857D01*
X31096071Y-79822857D01*
X31210357Y-79765714D01*
X29667500Y-79765714D02*
X29781785Y-79822857D01*
X30010357Y-79822857D01*
X30124642Y-79765714D01*
X30181785Y-79651428D01*
X30181785Y-79194285D01*
X30124642Y-79080000D01*
X30010357Y-79022857D01*
X29781785Y-79022857D01*
X29667500Y-79080000D01*
X29610357Y-79194285D01*
X29610357Y-79308571D01*
X30181785Y-79422857D01*
X29096071Y-79822857D02*
X29096071Y-79022857D01*
X29096071Y-79251428D02*
X29038928Y-79137142D01*
X28981785Y-79080000D01*
X28867500Y-79022857D01*
X28753214Y-79022857D01*
X28353214Y-79708571D02*
X28296071Y-79765714D01*
X28353214Y-79822857D01*
X28410357Y-79765714D01*
X28353214Y-79708571D01*
X28353214Y-79822857D01*
X28353214Y-79080000D02*
X28296071Y-79137142D01*
X28353214Y-79194285D01*
X28410357Y-79137142D01*
X28353214Y-79080000D01*
X28353214Y-79194285D01*
X11875238Y-89973809D02*
X12408571Y-89211904D01*
X12789523Y-89973809D02*
X12789523Y-88373809D01*
X12180000Y-88373809D01*
X12027619Y-88450000D01*
X11951428Y-88526190D01*
X11875238Y-88678571D01*
X11875238Y-88907142D01*
X11951428Y-89059523D01*
X12027619Y-89135714D01*
X12180000Y-89211904D01*
X12789523Y-89211904D01*
X11418095Y-88373809D02*
X10503809Y-88373809D01*
X10960952Y-89973809D02*
X10960952Y-88373809D01*
X9056190Y-89821428D02*
X9132380Y-89897619D01*
X9360952Y-89973809D01*
X9513333Y-89973809D01*
X9741904Y-89897619D01*
X9894285Y-89745238D01*
X9970476Y-89592857D01*
X10046666Y-89288095D01*
X10046666Y-89059523D01*
X9970476Y-88754761D01*
X9894285Y-88602380D01*
X9741904Y-88450000D01*
X9513333Y-88373809D01*
X9360952Y-88373809D01*
X9132380Y-88450000D01*
X9056190Y-88526190D01*
X6618095Y-89135714D02*
X6389523Y-89211904D01*
X6313333Y-89288095D01*
X6237142Y-89440476D01*
X6237142Y-89669047D01*
X6313333Y-89821428D01*
X6389523Y-89897619D01*
X6541904Y-89973809D01*
X7151428Y-89973809D01*
X7151428Y-88373809D01*
X6618095Y-88373809D01*
X6465714Y-88450000D01*
X6389523Y-88526190D01*
X6313333Y-88678571D01*
X6313333Y-88830952D01*
X6389523Y-88983333D01*
X6465714Y-89059523D01*
X6618095Y-89135714D01*
X7151428Y-89135714D01*
X5627619Y-89516666D02*
X4865714Y-89516666D01*
X5780000Y-89973809D02*
X5246666Y-88373809D01*
X4713333Y-89973809D01*
X4408571Y-88373809D02*
X3494285Y-88373809D01*
X3951428Y-89973809D02*
X3951428Y-88373809D01*
X3189523Y-88373809D02*
X2275238Y-88373809D01*
X2732380Y-89973809D02*
X2732380Y-88373809D01*
X1741904Y-89135714D02*
X1208571Y-89135714D01*
X980000Y-89973809D02*
X1741904Y-89973809D01*
X1741904Y-88373809D01*
X980000Y-88373809D01*
X-620000Y-89973809D02*
X-86666Y-89211904D01*
X294285Y-89973809D02*
X294285Y-88373809D01*
X-315238Y-88373809D01*
X-467619Y-88450000D01*
X-543809Y-88526190D01*
X-620000Y-88678571D01*
X-620000Y-88907142D01*
X-543809Y-89059523D01*
X-467619Y-89135714D01*
X-315238Y-89211904D01*
X294285Y-89211904D01*
X-1610476Y-89211904D02*
X-1610476Y-89973809D01*
X-1077142Y-88373809D02*
X-1610476Y-89211904D01*
X-2143809Y-88373809D01*
X-4810476Y-89821428D02*
X-4734285Y-89897619D01*
X-4505714Y-89973809D01*
X-4353333Y-89973809D01*
X-4124761Y-89897619D01*
X-3972380Y-89745238D01*
X-3896190Y-89592857D01*
X-3820000Y-89288095D01*
X-3820000Y-89059523D01*
X-3896190Y-88754761D01*
X-3972380Y-88602380D01*
X-4124761Y-88450000D01*
X-4353333Y-88373809D01*
X-4505714Y-88373809D01*
X-4734285Y-88450000D01*
X-4810476Y-88526190D01*
X-6410476Y-89973809D02*
X-5877142Y-89211904D01*
X-5496190Y-89973809D02*
X-5496190Y-88373809D01*
X-6105714Y-88373809D01*
X-6258095Y-88450000D01*
X-6334285Y-88526190D01*
X-6410476Y-88678571D01*
X-6410476Y-88907142D01*
X-6334285Y-89059523D01*
X-6258095Y-89135714D01*
X-6105714Y-89211904D01*
X-5496190Y-89211904D01*
X-7020000Y-88526190D02*
X-7096190Y-88450000D01*
X-7248571Y-88373809D01*
X-7629523Y-88373809D01*
X-7781904Y-88450000D01*
X-7858095Y-88526190D01*
X-7934285Y-88678571D01*
X-7934285Y-88830952D01*
X-7858095Y-89059523D01*
X-6943809Y-89973809D01*
X-7934285Y-89973809D01*
X-8924761Y-88373809D02*
X-9077142Y-88373809D01*
X-9229523Y-88450000D01*
X-9305714Y-88526190D01*
X-9381904Y-88678571D01*
X-9458095Y-88983333D01*
X-9458095Y-89364285D01*
X-9381904Y-89669047D01*
X-9305714Y-89821428D01*
X-9229523Y-89897619D01*
X-9077142Y-89973809D01*
X-8924761Y-89973809D01*
X-8772380Y-89897619D01*
X-8696190Y-89821428D01*
X-8620000Y-89669047D01*
X-8543809Y-89364285D01*
X-8543809Y-88983333D01*
X-8620000Y-88678571D01*
X-8696190Y-88526190D01*
X-8772380Y-88450000D01*
X-8924761Y-88373809D01*
X-9991428Y-88373809D02*
X-10981904Y-88373809D01*
X-10448571Y-88983333D01*
X-10677142Y-88983333D01*
X-10829523Y-89059523D01*
X-10905714Y-89135714D01*
X-10981904Y-89288095D01*
X-10981904Y-89669047D01*
X-10905714Y-89821428D01*
X-10829523Y-89897619D01*
X-10677142Y-89973809D01*
X-10220000Y-89973809D01*
X-10067619Y-89897619D01*
X-9991428Y-89821428D01*
X-11591428Y-88526190D02*
X-11667619Y-88450000D01*
X-11820000Y-88373809D01*
X-12200952Y-88373809D01*
X-12353333Y-88450000D01*
X-12429523Y-88526190D01*
X-12505714Y-88678571D01*
X-12505714Y-88830952D01*
X-12429523Y-89059523D01*
X-11515238Y-89973809D01*
X-12505714Y-89973809D01*
D11*
X16872857Y-20680357D02*
X16963571Y-20771071D01*
X17235714Y-20861785D01*
X17417142Y-20861785D01*
X17689285Y-20771071D01*
X17870714Y-20589642D01*
X17961428Y-20408214D01*
X18052142Y-20045357D01*
X18052142Y-19773214D01*
X17961428Y-19410357D01*
X17870714Y-19228928D01*
X17689285Y-19047500D01*
X17417142Y-18956785D01*
X17235714Y-18956785D01*
X16963571Y-19047500D01*
X16872857Y-19138214D01*
X15784285Y-20861785D02*
X15965714Y-20771071D01*
X16056428Y-20680357D01*
X16147142Y-20498928D01*
X16147142Y-19954642D01*
X16056428Y-19773214D01*
X15965714Y-19682500D01*
X15784285Y-19591785D01*
X15512142Y-19591785D01*
X15330714Y-19682500D01*
X15240000Y-19773214D01*
X15149285Y-19954642D01*
X15149285Y-20498928D01*
X15240000Y-20680357D01*
X15330714Y-20771071D01*
X15512142Y-20861785D01*
X15784285Y-20861785D01*
X14332857Y-20861785D02*
X14332857Y-19591785D01*
X14332857Y-19954642D02*
X14242142Y-19773214D01*
X14151428Y-19682500D01*
X13970000Y-19591785D01*
X13788571Y-19591785D01*
X12427857Y-20771071D02*
X12609285Y-20861785D01*
X12972142Y-20861785D01*
X13153571Y-20771071D01*
X13244285Y-20589642D01*
X13244285Y-19863928D01*
X13153571Y-19682500D01*
X12972142Y-19591785D01*
X12609285Y-19591785D01*
X12427857Y-19682500D01*
X12337142Y-19863928D01*
X12337142Y-20045357D01*
X13244285Y-20226785D01*
X10704285Y-18956785D02*
X11067142Y-18956785D01*
X11248571Y-19047500D01*
X11339285Y-19138214D01*
X11520714Y-19410357D01*
X11611428Y-19773214D01*
X11611428Y-20498928D01*
X11520714Y-20680357D01*
X11430000Y-20771071D01*
X11248571Y-20861785D01*
X10885714Y-20861785D01*
X10704285Y-20771071D01*
X10613571Y-20680357D01*
X10522857Y-20498928D01*
X10522857Y-20045357D01*
X10613571Y-19863928D01*
X10704285Y-19773214D01*
X10885714Y-19682500D01*
X11248571Y-19682500D01*
X11430000Y-19773214D01*
X11520714Y-19863928D01*
X11611428Y-20045357D01*
X8890000Y-19591785D02*
X8890000Y-20861785D01*
X9343571Y-18866071D02*
X9797142Y-20226785D01*
X8617857Y-20226785D01*
X7892142Y-20680357D02*
X7801428Y-20771071D01*
X7892142Y-20861785D01*
X7982857Y-20771071D01*
X7892142Y-20680357D01*
X7892142Y-20861785D01*
X6985000Y-20861785D02*
X6985000Y-18956785D01*
X6350000Y-20317500D01*
X5715000Y-18956785D01*
X5715000Y-20861785D01*
X3991428Y-20861785D02*
X3991428Y-19863928D01*
X4082142Y-19682500D01*
X4263571Y-19591785D01*
X4626428Y-19591785D01*
X4807857Y-19682500D01*
X3991428Y-20771071D02*
X4172857Y-20861785D01*
X4626428Y-20861785D01*
X4807857Y-20771071D01*
X4898571Y-20589642D01*
X4898571Y-20408214D01*
X4807857Y-20226785D01*
X4626428Y-20136071D01*
X4172857Y-20136071D01*
X3991428Y-20045357D01*
X2267857Y-20771071D02*
X2449285Y-20861785D01*
X2812142Y-20861785D01*
X2993571Y-20771071D01*
X3084285Y-20680357D01*
X3175000Y-20498928D01*
X3175000Y-19954642D01*
X3084285Y-19773214D01*
X2993571Y-19682500D01*
X2812142Y-19591785D01*
X2449285Y-19591785D01*
X2267857Y-19682500D01*
X1451428Y-20861785D02*
X1451428Y-18956785D01*
X635000Y-20861785D02*
X635000Y-19863928D01*
X725714Y-19682500D01*
X907142Y-19591785D01*
X1179285Y-19591785D01*
X1360714Y-19682500D01*
X1451428Y-19773214D01*
X-272142Y-20861785D02*
X-272142Y-19591785D01*
X-272142Y-18956785D02*
X-181428Y-19047500D01*
X-272142Y-19138214D01*
X-362857Y-19047500D01*
X-272142Y-18956785D01*
X-272142Y-19138214D01*
X-1179285Y-19591785D02*
X-1179285Y-20861785D01*
X-1179285Y-19773214D02*
X-1269999Y-19682500D01*
X-1451428Y-19591785D01*
X-1723571Y-19591785D01*
X-1904999Y-19682500D01*
X-1995714Y-19863928D01*
X-1995714Y-20861785D01*
X-3628571Y-20771071D02*
X-3447142Y-20861785D01*
X-3084285Y-20861785D01*
X-2902857Y-20771071D01*
X-2812142Y-20589642D01*
X-2812142Y-19863928D01*
X-2902857Y-19682500D01*
X-3084285Y-19591785D01*
X-3447142Y-19591785D01*
X-3628571Y-19682500D01*
X-3719285Y-19863928D01*
X-3719285Y-20045357D01*
X-2812142Y-20226785D01*
X-4535714Y-20861785D02*
X-4535714Y-18956785D01*
X-6259285Y-20861785D02*
X-6259285Y-18956785D01*
X-6259285Y-20771071D02*
X-6077857Y-20861785D01*
X-5714999Y-20861785D01*
X-5533571Y-20771071D01*
X-5442857Y-20680357D01*
X-5352142Y-20498928D01*
X-5352142Y-19954642D01*
X-5442857Y-19773214D01*
X-5533571Y-19682500D01*
X-5714999Y-19591785D01*
X-6077857Y-19591785D01*
X-6259285Y-19682500D01*
X-7892142Y-20771071D02*
X-7710714Y-20861785D01*
X-7347857Y-20861785D01*
X-7166428Y-20771071D01*
X-7075714Y-20589642D01*
X-7075714Y-19863928D01*
X-7166428Y-19682500D01*
X-7347857Y-19591785D01*
X-7710714Y-19591785D01*
X-7892142Y-19682500D01*
X-7982857Y-19863928D01*
X-7982857Y-20045357D01*
X-7075714Y-20226785D01*
X-9615714Y-20861785D02*
X-9615714Y-19863928D01*
X-9524999Y-19682500D01*
X-9343571Y-19591785D01*
X-8980714Y-19591785D01*
X-8799285Y-19682500D01*
X-9615714Y-20771071D02*
X-9434285Y-20861785D01*
X-8980714Y-20861785D01*
X-8799285Y-20771071D01*
X-8708571Y-20589642D01*
X-8708571Y-20408214D01*
X-8799285Y-20226785D01*
X-8980714Y-20136071D01*
X-9434285Y-20136071D01*
X-9615714Y-20045357D01*
X-10432142Y-20771071D02*
X-10613571Y-20861785D01*
X-10976428Y-20861785D01*
X-11157857Y-20771071D01*
X-11248571Y-20589642D01*
X-11248571Y-20498928D01*
X-11157857Y-20317500D01*
X-10976428Y-20226785D01*
X-10704285Y-20226785D01*
X-10522857Y-20136071D01*
X-10432142Y-19954642D01*
X-10432142Y-19863928D01*
X-10522857Y-19682500D01*
X-10704285Y-19591785D01*
X-10976428Y-19591785D01*
X-11157857Y-19682500D01*
X-12064999Y-20680357D02*
X-12155714Y-20771071D01*
X-12064999Y-20861785D01*
X-11974285Y-20771071D01*
X-12064999Y-20680357D01*
X-12064999Y-20861785D01*
X-13788571Y-20771071D02*
X-13607142Y-20861785D01*
X-13244285Y-20861785D01*
X-13062857Y-20771071D01*
X-12972142Y-20680357D01*
X-12881428Y-20498928D01*
X-12881428Y-19954642D01*
X-12972142Y-19773214D01*
X-13062857Y-19682500D01*
X-13244285Y-19591785D01*
X-13607142Y-19591785D01*
X-13788571Y-19682500D01*
X-14877142Y-20861785D02*
X-14695714Y-20771071D01*
X-14604999Y-20680357D01*
X-14514285Y-20498928D01*
X-14514285Y-19954642D01*
X-14604999Y-19773214D01*
X-14695714Y-19682500D01*
X-14877142Y-19591785D01*
X-15149285Y-19591785D01*
X-15330714Y-19682500D01*
X-15421428Y-19773214D01*
X-15512142Y-19954642D01*
X-15512142Y-20498928D01*
X-15421428Y-20680357D01*
X-15330714Y-20771071D01*
X-15149285Y-20861785D01*
X-14877142Y-20861785D01*
X-16328571Y-20861785D02*
X-16328571Y-19591785D01*
X-16328571Y-19773214D02*
X-16419285Y-19682500D01*
X-16600714Y-19591785D01*
X-16872857Y-19591785D01*
X-17054285Y-19682500D01*
X-17144999Y-19863928D01*
X-17144999Y-20861785D01*
X-17144999Y-19863928D02*
X-17235714Y-19682500D01*
X-17417142Y-19591785D01*
X-17689285Y-19591785D01*
X-17870714Y-19682500D01*
X-17961428Y-19863928D01*
X-17961428Y-20861785D01*
X9071428Y-16317500D02*
X8164285Y-16317500D01*
X9252857Y-16861785D02*
X8617857Y-14956785D01*
X7982857Y-16861785D01*
X7347857Y-15591785D02*
X7347857Y-16861785D01*
X7347857Y-15773214D02*
X7257142Y-15682500D01*
X7075714Y-15591785D01*
X6803571Y-15591785D01*
X6622142Y-15682500D01*
X6531428Y-15863928D01*
X6531428Y-16861785D01*
X4807857Y-16861785D02*
X4807857Y-14956785D01*
X4807857Y-16771071D02*
X4989285Y-16861785D01*
X5352142Y-16861785D01*
X5533571Y-16771071D01*
X5624285Y-16680357D01*
X5714999Y-16498928D01*
X5714999Y-15954642D01*
X5624285Y-15773214D01*
X5533571Y-15682500D01*
X5352142Y-15591785D01*
X4989285Y-15591785D01*
X4807857Y-15682500D01*
X4082142Y-15591785D02*
X3628571Y-16861785D01*
X3174999Y-15591785D02*
X3628571Y-16861785D01*
X3809999Y-17315357D01*
X3900714Y-17406071D01*
X4082142Y-17496785D01*
X0Y-15047500D02*
X181428Y-14956785D01*
X453571Y-14956785D01*
X725714Y-15047500D01*
X907142Y-15228928D01*
X997857Y-15410357D01*
X1088571Y-15773214D01*
X1088571Y-16045357D01*
X997857Y-16408214D01*
X907142Y-16589642D01*
X725714Y-16771071D01*
X453571Y-16861785D01*
X272142Y-16861785D01*
X0Y-16771071D01*
X-90714Y-16680357D01*
X-90714Y-16045357D01*
X272142Y-16045357D01*
X-1632857Y-16771071D02*
X-1451428Y-16861785D01*
X-1088571Y-16861785D01*
X-907142Y-16771071D01*
X-816428Y-16589642D01*
X-816428Y-15863928D01*
X-907142Y-15682500D01*
X-1088571Y-15591785D01*
X-1451428Y-15591785D01*
X-1632857Y-15682500D01*
X-1723571Y-15863928D01*
X-1723571Y-16045357D01*
X-816428Y-16226785D01*
X-2540000Y-15591785D02*
X-2540000Y-17496785D01*
X-2540000Y-15682500D02*
X-2721428Y-15591785D01*
X-3084285Y-15591785D01*
X-3265714Y-15682500D01*
X-3356428Y-15773214D01*
X-3447142Y-15954642D01*
X-3447142Y-16498928D01*
X-3356428Y-16680357D01*
X-3265714Y-16771071D01*
X-3084285Y-16861785D01*
X-2721428Y-16861785D01*
X-2540000Y-16771071D01*
X-4263571Y-15591785D02*
X-4263571Y-17496785D01*
X-4263571Y-15682500D02*
X-4445000Y-15591785D01*
X-4807857Y-15591785D01*
X-4989285Y-15682500D01*
X-5080000Y-15773214D01*
X-5170714Y-15954642D01*
X-5170714Y-16498928D01*
X-5080000Y-16680357D01*
X-4989285Y-16771071D01*
X-4807857Y-16861785D01*
X-4445000Y-16861785D01*
X-4263571Y-16771071D01*
X-6712857Y-16771071D02*
X-6531428Y-16861785D01*
X-6168571Y-16861785D01*
X-5987142Y-16771071D01*
X-5896428Y-16589642D01*
X-5896428Y-15863928D01*
X-5987142Y-15682500D01*
X-6168571Y-15591785D01*
X-6531428Y-15591785D01*
X-6712857Y-15682500D01*
X-6803571Y-15863928D01*
X-6803571Y-16045357D01*
X-5896428Y-16226785D01*
X-7620000Y-16861785D02*
X-7620000Y-15591785D01*
X-7620000Y-15954642D02*
X-7710714Y-15773214D01*
X-7801428Y-15682500D01*
X-7982857Y-15591785D01*
X-8164285Y-15591785D01*
X-8527142Y-15591785D02*
X-9252857Y-15591785D01*
X-8799285Y-14956785D02*
X-8799285Y-16589642D01*
X-8890000Y-16771071D01*
X-9071428Y-16861785D01*
X-9252857Y-16861785D01*
D12*
X11717261Y22961190D02*
X11717261Y26136190D01*
X10205357Y25077857D02*
X10205357Y22961190D01*
X10205357Y24775476D02*
X10054166Y24926666D01*
X9751785Y25077857D01*
X9298214Y25077857D01*
X8995833Y24926666D01*
X8844642Y24624285D01*
X8844642Y22961190D01*
X7786309Y25077857D02*
X6576785Y25077857D01*
X7332738Y26136190D02*
X7332738Y23414761D01*
X7181547Y23112380D01*
X6879166Y22961190D01*
X6576785Y22961190D01*
X4308928Y23112380D02*
X4611309Y22961190D01*
X5216071Y22961190D01*
X5518452Y23112380D01*
X5669642Y23414761D01*
X5669642Y24624285D01*
X5518452Y24926666D01*
X5216071Y25077857D01*
X4611309Y25077857D01*
X4308928Y24926666D01*
X4157738Y24624285D01*
X4157738Y24321904D01*
X5669642Y24019523D01*
X2797023Y22961190D02*
X2797023Y25077857D01*
X2797023Y24473095D02*
X2645833Y24775476D01*
X2494642Y24926666D01*
X2192261Y25077857D01*
X1889880Y25077857D01*
X-529166Y22961190D02*
X-529166Y24624285D01*
X-377976Y24926666D01*
X-75595Y25077857D01*
X529166Y25077857D01*
X831547Y24926666D01*
X-529166Y23112380D02*
X-226785Y22961190D01*
X529166Y22961190D01*
X831547Y23112380D01*
X982738Y23414761D01*
X982738Y23717142D01*
X831547Y24019523D01*
X529166Y24170714D01*
X-226785Y24170714D01*
X-529166Y24321904D01*
X-3401785Y23112380D02*
X-3099404Y22961190D01*
X-2494642Y22961190D01*
X-2192261Y23112380D01*
X-2041071Y23263571D01*
X-1889880Y23565952D01*
X-1889880Y24473095D01*
X-2041071Y24775476D01*
X-2192261Y24926666D01*
X-2494642Y25077857D01*
X-3099404Y25077857D01*
X-3401785Y24926666D01*
X-4308928Y25077857D02*
X-5518452Y25077857D01*
X-4762499Y26136190D02*
X-4762499Y23414761D01*
X-4913690Y23112380D01*
X-5216071Y22961190D01*
X-5518452Y22961190D01*
X-6576785Y22961190D02*
X-6576785Y25077857D01*
X-6576785Y26136190D02*
X-6425595Y25985000D01*
X-6576785Y25833809D01*
X-6727976Y25985000D01*
X-6576785Y26136190D01*
X-6576785Y25833809D01*
X-7786309Y25077857D02*
X-8542261Y22961190D01*
X-9298214Y25077857D01*
X-11717261Y23112380D02*
X-11414880Y22961190D01*
X-10810119Y22961190D01*
X-10507738Y23112380D01*
X-10356547Y23414761D01*
X-10356547Y24624285D01*
X-10507738Y24926666D01*
X-10810119Y25077857D01*
X-11414880Y25077857D01*
X-11717261Y24926666D01*
X-11868452Y24624285D01*
X-11868452Y24321904D01*
X-10356547Y24019523D01*
X2797023Y17866071D02*
X2948214Y17714880D01*
X3401785Y17563690D01*
X3704166Y17563690D01*
X4157738Y17714880D01*
X4460119Y18017261D01*
X4611309Y18319642D01*
X4762500Y18924404D01*
X4762500Y19377976D01*
X4611309Y19982738D01*
X4460119Y20285119D01*
X4157738Y20587500D01*
X3704166Y20738690D01*
X3401785Y20738690D01*
X2948214Y20587500D01*
X2797023Y20436309D01*
X982738Y17563690D02*
X1285119Y17714880D01*
X1436309Y17866071D01*
X1587500Y18168452D01*
X1587500Y19075595D01*
X1436309Y19377976D01*
X1285119Y19529166D01*
X982738Y19680357D01*
X529166Y19680357D01*
X226785Y19529166D01*
X75595Y19377976D01*
X-75595Y19075595D01*
X-75595Y18168452D01*
X75595Y17866071D01*
X226785Y17714880D01*
X529166Y17563690D01*
X982738Y17563690D01*
X-1436309Y17563690D02*
X-1436309Y19680357D01*
X-1436309Y19075595D02*
X-1587499Y19377976D01*
X-1738690Y19529166D01*
X-2041071Y19680357D01*
X-2343452Y19680357D01*
X-4611309Y17714880D02*
X-4308928Y17563690D01*
X-3704166Y17563690D01*
X-3401785Y17714880D01*
X-3250595Y18017261D01*
X-3250595Y19226785D01*
X-3401785Y19529166D01*
X-3704166Y19680357D01*
X-4308928Y19680357D01*
X-4611309Y19529166D01*
X-4762499Y19226785D01*
X-4762499Y18924404D01*
X-3250595Y18622023D01*
X8164285Y12166190D02*
X8164285Y15341190D01*
X7105952Y13073333D01*
X6047619Y15341190D01*
X6047619Y12166190D01*
X3326190Y12317380D02*
X3628571Y12166190D01*
X4233333Y12166190D01*
X4535714Y12317380D01*
X4686904Y12619761D01*
X4686904Y13829285D01*
X4535714Y14131666D01*
X4233333Y14282857D01*
X3628571Y14282857D01*
X3326190Y14131666D01*
X3174999Y13829285D01*
X3174999Y13526904D01*
X4686904Y13224523D01*
X1814285Y12166190D02*
X1814285Y14282857D01*
X1814285Y13980476D02*
X1663095Y14131666D01*
X1360714Y14282857D01*
X907142Y14282857D01*
X604761Y14131666D01*
X453571Y13829285D01*
X453571Y12166190D01*
X453571Y13829285D02*
X302380Y14131666D01*
X0Y14282857D01*
X-453571Y14282857D01*
X-755952Y14131666D01*
X-907142Y13829285D01*
X-907142Y12166190D01*
X-2872619Y12166190D02*
X-2570238Y12317380D01*
X-2419047Y12468571D01*
X-2267857Y12770952D01*
X-2267857Y13678095D01*
X-2419047Y13980476D01*
X-2570238Y14131666D01*
X-2872619Y14282857D01*
X-3326190Y14282857D01*
X-3628571Y14131666D01*
X-3779761Y13980476D01*
X-3930952Y13678095D01*
X-3930952Y12770952D01*
X-3779761Y12468571D01*
X-3628571Y12317380D01*
X-3326190Y12166190D01*
X-2872619Y12166190D01*
X-5291666Y12166190D02*
X-5291666Y14282857D01*
X-5291666Y13678095D02*
X-5442857Y13980476D01*
X-5594047Y14131666D01*
X-5896428Y14282857D01*
X-6198809Y14282857D01*
X-6954761Y14282857D02*
X-7710714Y12166190D01*
X-8466666Y14282857D02*
X-7710714Y12166190D01*
X-7408333Y11410238D01*
X-7257142Y11259047D01*
X-6954761Y11107857D01*
D13*
G36*
X-10221021Y6131031D02*
G01*
X-7729329Y6131031D01*
X-7729329Y8622723D01*
X-10221021Y8622723D01*
X-10221021Y6131031D01*
X-10221021Y6131031D01*
G37*
X-10221021Y6131031D02*
X-7729329Y6131031D01*
X-7729329Y8622723D01*
X-10221021Y8622723D01*
X-10221021Y6131031D01*
G36*
X7856457Y6131031D02*
G01*
X10322723Y6131031D01*
X10322723Y8622723D01*
X7856457Y8622723D01*
X7856457Y6131031D01*
X7856457Y6131031D01*
G37*
X7856457Y6131031D02*
X10322723Y6131031D01*
X10322723Y8622723D01*
X7856457Y8622723D01*
X7856457Y6131031D01*
G36*
X-2008608Y6131031D02*
G01*
X-1169569Y6131031D01*
X-1169569Y6970070D01*
X-2008608Y6970070D01*
X-2008608Y6131031D01*
X-2008608Y6131031D01*
G37*
X-2008608Y6131031D02*
X-1169569Y6131031D01*
X-1169569Y6970070D01*
X-2008608Y6970070D01*
X-2008608Y6131031D01*
G36*
X-6915715Y-8615716D02*
G01*
X-6076676Y-8615716D01*
X-6076676Y-7776677D01*
X-6915715Y-7776677D01*
X-6915715Y-8615716D01*
X-6915715Y-8615716D01*
G37*
X-6915715Y-8615716D02*
X-6076676Y-8615716D01*
X-6076676Y-7776677D01*
X-6915715Y-7776677D01*
X-6915715Y-8615716D01*
G36*
X7856457Y-11895596D02*
G01*
X10322723Y-11895596D01*
X10322723Y-9429329D01*
X7856457Y-9429329D01*
X7856457Y-11895596D01*
X7856457Y-11895596D01*
G37*
X7856457Y-11895596D02*
X10322723Y-11895596D01*
X10322723Y-9429329D01*
X7856457Y-9429329D01*
X7856457Y-11895596D01*
G36*
X-11848248Y4503804D02*
G01*
X-6076676Y4503804D01*
X-6076676Y9410911D01*
X-6915715Y9410911D01*
X-6915715Y5342843D01*
X-11009209Y5342843D01*
X-11009209Y9410911D01*
X-6915715Y9410911D01*
X-6076676Y9410911D01*
X-6076676Y10249950D01*
X-11848248Y10249950D01*
X-11848248Y4503804D01*
X-11848248Y4503804D01*
G37*
X-11848248Y4503804D02*
X-6076676Y4503804D01*
X-6076676Y9410911D01*
X-6915715Y9410911D01*
X-6915715Y5342843D01*
X-11009209Y5342843D01*
X-11009209Y9410911D01*
X-6915715Y9410911D01*
X-6076676Y9410911D01*
X-6076676Y10249950D01*
X-11848248Y10249950D01*
X-11848248Y4503804D01*
G36*
X6203804Y4503804D02*
G01*
X11975376Y4503804D01*
X11975376Y9410911D01*
X11136337Y9410911D01*
X11136337Y5342843D01*
X7042843Y5342843D01*
X7042843Y9410911D01*
X11136337Y9410911D01*
X11975376Y9410911D01*
X11975376Y10249950D01*
X6203804Y10249950D01*
X6203804Y4503804D01*
X6203804Y4503804D01*
G37*
X6203804Y4503804D02*
X11975376Y4503804D01*
X11975376Y9410911D01*
X11136337Y9410911D01*
X11136337Y5342843D01*
X7042843Y5342843D01*
X7042843Y9410911D01*
X11136337Y9410911D01*
X11975376Y9410911D01*
X11975376Y10249950D01*
X6203804Y10249950D01*
X6203804Y4503804D01*
G36*
X-9381982Y-4522222D02*
G01*
X-8542943Y-4522222D01*
X-8542943Y-3683183D01*
X-9381982Y-3683183D01*
X-9381982Y-4522222D01*
X-9381982Y-4522222D01*
G37*
X-9381982Y-4522222D02*
X-8542943Y-4522222D01*
X-8542943Y-3683183D01*
X-9381982Y-3683183D01*
X-9381982Y-4522222D01*
G36*
X11136337Y-6988489D02*
G01*
X11975376Y-6988489D01*
X11975376Y-6149450D01*
X11136337Y-6149450D01*
X11136337Y-6988489D01*
X11136337Y-6988489D01*
G37*
X11136337Y-6988489D02*
X11975376Y-6988489D01*
X11975376Y-6149450D01*
X11136337Y-6149450D01*
X11136337Y-6988489D01*
G36*
X4551152Y-11081982D02*
G01*
X5415616Y-11081982D01*
X5415616Y-10242943D01*
X4551152Y-10242943D01*
X4551152Y-11081982D01*
X4551152Y-11081982D01*
G37*
X4551152Y-11081982D02*
X5415616Y-11081982D01*
X5415616Y-10242943D01*
X4551152Y-10242943D01*
X4551152Y-11081982D01*
G36*
X3737538Y9410911D02*
G01*
X4551152Y9410911D01*
X4551152Y8622723D01*
X2949350Y8622723D01*
X2949350Y9410911D01*
X-1169569Y9410911D01*
X-1169569Y8622723D01*
X-1983183Y8622723D01*
X-1983183Y9410911D01*
X-2822222Y9410911D01*
X-2822222Y7809109D01*
X-4449449Y7809109D01*
X-4449449Y9410911D01*
X-2822222Y9410911D01*
X-1983183Y9410911D01*
X-1169569Y9410911D01*
X2949350Y9410911D01*
X2949350Y9436336D01*
X2110311Y9436336D01*
X2110311Y10249950D01*
X457658Y10249950D01*
X457658Y9436336D01*
X-1169569Y9436336D01*
X-1169569Y10249950D01*
X-4474875Y10249950D01*
X-4474875Y9436336D01*
X-5288488Y9436336D01*
X-5288488Y7783684D01*
X-4474875Y7783684D01*
X-4474875Y6970070D01*
X-3635835Y6970070D01*
X-3635835Y6156456D01*
X-5288488Y6156456D01*
X-5288488Y3690190D01*
X-4474875Y3690190D01*
X-4474875Y2876576D01*
X-5288488Y2876576D01*
X-5288488Y2062963D01*
X-6076676Y2062963D01*
X-6076676Y2851151D01*
X-7754754Y2851151D01*
X-7754754Y2062963D01*
X-8542943Y2062963D01*
X-8542943Y2851151D01*
X-9381982Y2851151D01*
X-9381982Y2062963D01*
X-11009209Y2062963D01*
X-11009209Y2851151D01*
X-9381982Y2851151D01*
X-8542943Y2851151D01*
X-7754754Y2851151D01*
X-6076676Y2851151D01*
X-6076676Y3690190D01*
X-8568368Y3690190D01*
X-8568368Y2876576D01*
X-9356556Y2876576D01*
X-9356556Y3690190D01*
X-11034634Y3690190D01*
X-11034634Y2876576D01*
X-11848248Y2876576D01*
X-11848248Y2037537D01*
X-11034634Y2037537D01*
X-11034634Y410310D01*
X-11848248Y410310D01*
X-11848248Y-428729D01*
X-10195595Y-428729D01*
X-10195595Y410310D01*
X-9381982Y410310D01*
X-9381982Y-428729D01*
X-8542943Y-428729D01*
X-8542943Y410310D01*
X-9356556Y410310D01*
X-9356556Y1223924D01*
X-7754754Y1223924D01*
X-7754754Y410310D01*
X-6915715Y410310D01*
X-6915715Y-428729D01*
X-6076676Y-428729D01*
X-6076676Y410310D01*
X-5288488Y410310D01*
X-5288488Y-1216917D01*
X-7754754Y-1216917D01*
X-7754754Y-5310410D01*
X-8568368Y-5310410D01*
X-8568368Y-8590290D01*
X-10195595Y-8590290D01*
X-10195595Y-7802102D01*
X-9356556Y-7802102D01*
X-9356556Y-6149450D01*
X-10195595Y-6149450D01*
X-10195595Y-4496797D01*
X-11009209Y-4496797D01*
X-11009209Y-3708609D01*
X-10195595Y-3708609D01*
X-10195595Y-2055956D01*
X-9381982Y-2055956D01*
X-9381982Y-2869570D01*
X-8542943Y-2869570D01*
X-8542943Y-1216917D01*
X-11848248Y-1216917D01*
X-11848248Y-2055956D01*
X-11034634Y-2055956D01*
X-11034634Y-3683183D01*
X-11848248Y-3683183D01*
X-11848248Y-6149450D01*
X-10221021Y-6149450D01*
X-10221021Y-6963063D01*
X-11848248Y-6963063D01*
X-11848248Y-7802102D01*
X-11034634Y-7802102D01*
X-11034634Y-9429329D01*
X-11848248Y-9429329D01*
X-11848248Y-10268368D01*
X-11034634Y-10268368D01*
X-11034634Y-11056557D01*
X-11848248Y-11056557D01*
X-11848248Y-11895596D01*
X-11034634Y-11895596D01*
X-11034634Y-13548248D01*
X-10195595Y-13548248D01*
X-10195595Y-11895596D01*
X-8568368Y-11895596D01*
X-8568368Y-12709209D01*
X-9381982Y-12709209D01*
X-9381982Y-13548248D01*
X-7729329Y-13548248D01*
X-7729329Y-11081982D01*
X-10221021Y-11081982D01*
X-10221021Y-11870170D01*
X-11009209Y-11870170D01*
X-11009209Y-11081982D01*
X-10221021Y-11081982D01*
X-7729329Y-11081982D01*
X-6076676Y-11081982D01*
X-6076676Y-10268368D01*
X-4474875Y-10268368D01*
X-4474875Y-11081982D01*
X-3635835Y-11081982D01*
X-3635835Y-11870170D01*
X-5288488Y-11870170D01*
X-5288488Y-12709209D01*
X-6076676Y-12709209D01*
X-6076676Y-11870170D01*
X-6915715Y-11870170D01*
X-6915715Y-12734635D01*
X-6102102Y-12734635D01*
X-6102102Y-13548248D01*
X-4449449Y-13548248D01*
X-4449449Y-12734635D01*
X-2822222Y-12734635D01*
X-2822222Y-13548248D01*
X-1983183Y-13548248D01*
X-1983183Y-12734635D01*
X-1169569Y-12734635D01*
X-1169569Y-13548248D01*
X-330530Y-13548248D01*
X-330530Y-12709209D01*
X-1169569Y-12709209D01*
X-1169569Y-11870170D01*
X-2796796Y-11870170D01*
X-2796796Y-11081982D01*
X-1983183Y-11081982D01*
X-1983183Y-10268368D01*
X-355956Y-10268368D01*
X-355956Y-11895596D01*
X1296697Y-11895596D01*
X1296697Y-10242943D01*
X483083Y-10242943D01*
X483083Y-9429329D01*
X2110311Y-9429329D01*
X2110311Y-12709209D01*
X457658Y-12709209D01*
X457658Y-13548248D01*
X2110311Y-13548248D01*
X2110311Y-12734635D01*
X2923924Y-12734635D01*
X2923924Y-13548248D01*
X5415616Y-13548248D01*
X5415616Y-11870170D01*
X3762963Y-11870170D01*
X3762963Y-10242943D01*
X2949350Y-10242943D01*
X2949350Y-9429329D01*
X3762963Y-9429329D01*
X3762963Y-8615716D01*
X457658Y-8615716D01*
X457658Y-9429329D01*
X-330530Y-9429329D01*
X-330530Y-8615716D01*
X457658Y-8615716D01*
X3762963Y-8615716D01*
X5415616Y-8615716D01*
X5415616Y-7802102D01*
X3737538Y-7802102D01*
X3737538Y-8590290D01*
X2949350Y-8590290D01*
X2949350Y-7802102D01*
X3737538Y-7802102D01*
X5415616Y-7802102D01*
X5415616Y-6988489D01*
X457658Y-6988489D01*
X457658Y-7776677D01*
X-355956Y-7776677D01*
X-355956Y-8590290D01*
X-1169569Y-8590290D01*
X-1169569Y-7776677D01*
X-2822222Y-7776677D01*
X-2822222Y-8615716D01*
X-2008608Y-8615716D01*
X-2008608Y-9429329D01*
X-2822222Y-9429329D01*
X-2822222Y-11056557D01*
X-3635835Y-11056557D01*
X-3635835Y-10242943D01*
X-4449449Y-10242943D01*
X-4449449Y-7802102D01*
X-3635835Y-7802102D01*
X-3635835Y-6988489D01*
X-5288488Y-6988489D01*
X-5288488Y-9429329D01*
X-7729329Y-9429329D01*
X-8568368Y-9429329D01*
X-8568368Y-10242943D01*
X-11009209Y-10242943D01*
X-11009209Y-9429329D01*
X-8568368Y-9429329D01*
X-7729329Y-9429329D01*
X-7729329Y-6988489D01*
X-5288488Y-6988489D01*
X-3635835Y-6988489D01*
X-2796796Y-6988489D01*
X-2796796Y-6149450D01*
X-3635835Y-6149450D01*
X-3635835Y-6963063D01*
X-4449449Y-6963063D01*
X-4449449Y-6149450D01*
X-3635835Y-6149450D01*
X-2796796Y-6149450D01*
X-2008608Y-6149450D01*
X-2008608Y-6988489D01*
X457658Y-6988489D01*
X5415616Y-6988489D01*
X7856457Y-6988489D01*
X7856457Y-6149450D01*
X8695496Y-6149450D01*
X8695496Y-5335836D01*
X9483684Y-5335836D01*
X9483684Y-6149450D01*
X10322723Y-6149450D01*
X10322723Y-5310410D01*
X9509109Y-5310410D01*
X9509109Y-4522222D01*
X8670070Y-4522222D01*
X8670070Y-5310410D01*
X7856457Y-5310410D01*
X7856457Y-6149450D01*
X6229230Y-6149450D01*
X4551152Y-6149450D01*
X4551152Y-6963063D01*
X2949350Y-6963063D01*
X2949350Y-6149450D01*
X4551152Y-6149450D01*
X6229230Y-6149450D01*
X6229230Y-5335836D01*
X7042843Y-5335836D01*
X7042843Y-4522222D01*
X8670070Y-4522222D01*
X9509109Y-4522222D01*
X11136337Y-4522222D01*
X11136337Y-5335836D01*
X11975376Y-5335836D01*
X11975376Y-4496797D01*
X11136337Y-4496797D01*
X11136337Y-3708609D01*
X9483684Y-3708609D01*
X9483684Y-4496797D01*
X8695496Y-4496797D01*
X8695496Y-3708609D01*
X9483684Y-3708609D01*
X11136337Y-3708609D01*
X11975376Y-3708609D01*
X11975376Y-2869570D01*
X11136337Y-2869570D01*
X11136337Y-3683183D01*
X9509109Y-3683183D01*
X9509109Y-2869570D01*
X11136337Y-2869570D01*
X11136337Y-1242342D01*
X11975376Y-1242342D01*
X11975376Y-428729D01*
X10297298Y-428729D01*
X10297298Y-2030531D01*
X8670070Y-2030531D01*
X8670070Y-2869570D01*
X6203804Y-2869570D01*
X6203804Y-3708609D01*
X7017418Y-3708609D01*
X7017418Y-4496797D01*
X5390191Y-4496797D01*
X5390191Y-5310410D01*
X3762963Y-5310410D01*
X3762963Y-4522222D01*
X4576577Y-4522222D01*
X4576577Y-3708609D01*
X3737538Y-3708609D01*
X3737538Y-4496797D01*
X2923924Y-4496797D01*
X2923924Y-5310410D01*
X2110311Y-5310410D01*
X2110311Y-6149450D01*
X1296697Y-6149450D01*
X1271272Y-6149450D01*
X1271272Y-6963063D01*
X483083Y-6963063D01*
X483083Y-6149450D01*
X1271272Y-6149450D01*
X1296697Y-6149450D01*
X1296697Y-4496797D01*
X457658Y-4496797D01*
X457658Y-6149450D01*
X-1983183Y-6149450D01*
X-1983183Y-4496797D01*
X-2796796Y-4496797D01*
X-2796796Y-3708609D01*
X-1983183Y-3708609D01*
X-1983183Y-2869570D01*
X-2822222Y-2869570D01*
X-2822222Y-3683183D01*
X-3635835Y-3683183D01*
X-3635835Y-5310410D01*
X-4474875Y-5310410D01*
X-4474875Y-6149450D01*
X-5263063Y-6149450D01*
X-5263063Y-4522222D01*
X-6102102Y-4522222D01*
X-6102102Y-6149450D01*
X-7729329Y-6149450D01*
X-7729329Y-5335836D01*
X-6915715Y-5335836D01*
X-6915715Y-4522222D01*
X-6102102Y-4522222D01*
X-5263063Y-4522222D01*
X-5263063Y-3708609D01*
X-4449449Y-3708609D01*
X-4449449Y-2869570D01*
X-2822222Y-2869570D01*
X-1983183Y-2869570D01*
X-1169569Y-2869570D01*
X-1169569Y-4522222D01*
X-330530Y-4522222D01*
X-330530Y-3708609D01*
X1296697Y-3708609D01*
X1296697Y-2869570D01*
X2110311Y-2869570D01*
X2110311Y-3708609D01*
X3737538Y-3708609D01*
X4576577Y-3708609D01*
X4576577Y-3683183D01*
X3762963Y-3683183D01*
X3762963Y-2869570D01*
X2110311Y-2869570D01*
X2110311Y-2055956D01*
X-355956Y-2055956D01*
X-355956Y-2869570D01*
X-1169569Y-2869570D01*
X-1169569Y-2055956D01*
X-355956Y-2055956D01*
X2110311Y-2055956D01*
X2110311Y-1242342D01*
X2923924Y-1242342D01*
X2923924Y-2055956D01*
X4551152Y-2055956D01*
X4551152Y-2869570D01*
X5415616Y-2869570D01*
X5415616Y-2030531D01*
X4576577Y-2030531D01*
X4576577Y-428729D01*
X5390191Y-428729D01*
X5390191Y-1242342D01*
X6203804Y-1242342D01*
X6203804Y-2055956D01*
X7042843Y-2055956D01*
X7042843Y-1216917D01*
X6229230Y-1216917D01*
X6229230Y-428729D01*
X7042843Y-428729D01*
X7042843Y410310D01*
X5415616Y410310D01*
X5415616Y1223924D01*
X4551152Y1223924D01*
X4551152Y-403303D01*
X2110311Y-403303D01*
X2110311Y410310D01*
X1271272Y410310D01*
X1271272Y-2030531D01*
X-330530Y-2030531D01*
X-330530Y-1242342D01*
X-3635835Y-1242342D01*
X-3635835Y-2030531D01*
X-4474875Y-2030531D01*
X-4474875Y-2869570D01*
X-5263063Y-2869570D01*
X-5288488Y-2869570D01*
X-5288488Y-3683183D01*
X-6915715Y-3683183D01*
X-6915715Y-2055956D01*
X-6102102Y-2055956D01*
X-6102102Y-2869570D01*
X-5288488Y-2869570D01*
X-5263063Y-2869570D01*
X-5263063Y-1242342D01*
X-3635835Y-1242342D01*
X-330530Y-1242342D01*
X-330530Y-428729D01*
X-1169569Y-428729D01*
X-1169569Y-1216917D01*
X-1983183Y-1216917D01*
X-1983183Y-428729D01*
X-1169569Y-428729D01*
X-330530Y-428729D01*
X-330530Y-403303D01*
X-1169569Y-403303D01*
X-1169569Y410310D01*
X483083Y410310D01*
X483083Y1249349D01*
X-1169569Y1249349D01*
X-1169569Y2037537D01*
X483083Y2037537D01*
X483083Y2876576D01*
X-330530Y2876576D01*
X-330530Y3690190D01*
X483083Y3690190D01*
X483083Y5317417D01*
X1271272Y5317417D01*
X1271272Y3690190D01*
X2110311Y3690190D01*
X2110311Y5317417D01*
X2923924Y5317417D01*
X2923924Y4503804D01*
X3737538Y4503804D01*
X3737538Y3690190D01*
X2923924Y3690190D01*
X2923924Y2876576D01*
X2110311Y2876576D01*
X2110311Y2037537D01*
X2923924Y2037537D01*
X2923924Y1223924D01*
X4551152Y1223924D01*
X5415616Y1223924D01*
X5415616Y2062963D01*
X3762963Y2062963D01*
X3762963Y3690190D01*
X5390191Y3690190D01*
X5390191Y2851151D01*
X7017418Y2851151D01*
X7017418Y2062963D01*
X6203804Y2062963D01*
X6203804Y1223924D01*
X7856457Y1223924D01*
X7856457Y410310D01*
X8670070Y410310D01*
X8670070Y-1242342D01*
X9509109Y-1242342D01*
X9509109Y-428729D01*
X10297298Y-428729D01*
X11975376Y-428729D01*
X11975376Y-403303D01*
X10322723Y-403303D01*
X10322723Y410310D01*
X11136337Y410310D01*
X11136337Y2037537D01*
X10297298Y2037537D01*
X10297298Y1249349D01*
X9509109Y1249349D01*
X9509109Y2037537D01*
X8670070Y2037537D01*
X8670070Y1249349D01*
X7856457Y1249349D01*
X7856457Y2037537D01*
X8670070Y2037537D01*
X9509109Y2037537D01*
X10297298Y2037537D01*
X11136337Y2037537D01*
X11975376Y2037537D01*
X11975376Y2851151D01*
X11136337Y2851151D01*
X11136337Y2062963D01*
X10322723Y2062963D01*
X10322723Y2851151D01*
X9483684Y2851151D01*
X9483684Y2062963D01*
X8695496Y2062963D01*
X8695496Y2851151D01*
X9483684Y2851151D01*
X10322723Y2851151D01*
X11136337Y2851151D01*
X11975376Y2851151D01*
X11975376Y3690190D01*
X10297298Y3690190D01*
X10297298Y2876576D01*
X9509109Y2876576D01*
X9509109Y3690190D01*
X8670070Y3690190D01*
X8670070Y2876576D01*
X7042843Y2876576D01*
X7042843Y3690190D01*
X5415616Y3690190D01*
X5415616Y5317417D01*
X4551152Y5317417D01*
X4551152Y4529229D01*
X3762963Y4529229D01*
X3762963Y5317417D01*
X4551152Y5317417D01*
X5415616Y5317417D01*
X5415616Y6970070D01*
X4576577Y6970070D01*
X4551152Y6970070D01*
X4551152Y6156456D01*
X3737538Y6156456D01*
X3737538Y5342843D01*
X2949350Y5342843D01*
X2949350Y6156456D01*
X2110311Y6156456D01*
X2110311Y5342843D01*
X1296697Y5342843D01*
X1296697Y6970070D01*
X-355956Y6970070D01*
X-355956Y3690190D01*
X-1169569Y3690190D01*
X-1169569Y2062963D01*
X-1983183Y2062963D01*
X-1983183Y2876576D01*
X-2822222Y2876576D01*
X-2822222Y2037537D01*
X-2008608Y2037537D01*
X-2008608Y1223924D01*
X-1169569Y1223924D01*
X-1169569Y410310D01*
X-2796796Y410310D01*
X-2822222Y410310D01*
X-2822222Y-1216917D01*
X-3635835Y-1216917D01*
X-3635835Y410310D01*
X-2822222Y410310D01*
X-2796796Y410310D01*
X-2796796Y1249349D01*
X-3635835Y1249349D01*
X-3635835Y2037537D01*
X-4474875Y2037537D01*
X-4474875Y1249349D01*
X-5263063Y1249349D01*
X-5263063Y2037537D01*
X-6102102Y2037537D01*
X-6102102Y1249349D01*
X-6915715Y1249349D01*
X-6915715Y2037537D01*
X-6102102Y2037537D01*
X-5263063Y2037537D01*
X-4474875Y2037537D01*
X-3635835Y2037537D01*
X-3635835Y2062963D01*
X-4449449Y2062963D01*
X-4449449Y2851151D01*
X-3635835Y2851151D01*
X-3635835Y4503804D01*
X-2822222Y4503804D01*
X-2822222Y3690190D01*
X-1983183Y3690190D01*
X-1983183Y4503804D01*
X-1169569Y4503804D01*
X-1169569Y5342843D01*
X-2008608Y5342843D01*
X-2008608Y4529229D01*
X-2796796Y4529229D01*
X-2796796Y5317417D01*
X-3635835Y5317417D01*
X-3635835Y4529229D01*
X-4449449Y4529229D01*
X-4449449Y5317417D01*
X-3635835Y5317417D01*
X-2796796Y5317417D01*
X-2796796Y7783684D01*
X-1169569Y7783684D01*
X-1169569Y6970070D01*
X-355956Y6970070D01*
X1296697Y6970070D01*
X1296697Y7783684D01*
X2110311Y7783684D01*
X2110311Y6970070D01*
X4551152Y6970070D01*
X4576577Y6970070D01*
X4576577Y7783684D01*
X5415616Y7783684D01*
X5415616Y8597297D01*
X457658Y8597297D01*
X457658Y7809109D01*
X-1169569Y7809109D01*
X-1169569Y8597297D01*
X457658Y8597297D01*
X5415616Y8597297D01*
X5415616Y9436336D01*
X4576577Y9436336D01*
X4576577Y10249950D01*
X3737538Y10249950D01*
X3737538Y9410911D01*
X3737538Y9410911D01*
G37*
X3737538Y9410911D02*
X4551152Y9410911D01*
X4551152Y8622723D01*
X2949350Y8622723D01*
X2949350Y9410911D01*
X-1169569Y9410911D01*
X-1169569Y8622723D01*
X-1983183Y8622723D01*
X-1983183Y9410911D01*
X-2822222Y9410911D01*
X-2822222Y7809109D01*
X-4449449Y7809109D01*
X-4449449Y9410911D01*
X-2822222Y9410911D01*
X-1983183Y9410911D01*
X-1169569Y9410911D01*
X2949350Y9410911D01*
X2949350Y9436336D01*
X2110311Y9436336D01*
X2110311Y10249950D01*
X457658Y10249950D01*
X457658Y9436336D01*
X-1169569Y9436336D01*
X-1169569Y10249950D01*
X-4474875Y10249950D01*
X-4474875Y9436336D01*
X-5288488Y9436336D01*
X-5288488Y7783684D01*
X-4474875Y7783684D01*
X-4474875Y6970070D01*
X-3635835Y6970070D01*
X-3635835Y6156456D01*
X-5288488Y6156456D01*
X-5288488Y3690190D01*
X-4474875Y3690190D01*
X-4474875Y2876576D01*
X-5288488Y2876576D01*
X-5288488Y2062963D01*
X-6076676Y2062963D01*
X-6076676Y2851151D01*
X-7754754Y2851151D01*
X-7754754Y2062963D01*
X-8542943Y2062963D01*
X-8542943Y2851151D01*
X-9381982Y2851151D01*
X-9381982Y2062963D01*
X-11009209Y2062963D01*
X-11009209Y2851151D01*
X-9381982Y2851151D01*
X-8542943Y2851151D01*
X-7754754Y2851151D01*
X-6076676Y2851151D01*
X-6076676Y3690190D01*
X-8568368Y3690190D01*
X-8568368Y2876576D01*
X-9356556Y2876576D01*
X-9356556Y3690190D01*
X-11034634Y3690190D01*
X-11034634Y2876576D01*
X-11848248Y2876576D01*
X-11848248Y2037537D01*
X-11034634Y2037537D01*
X-11034634Y410310D01*
X-11848248Y410310D01*
X-11848248Y-428729D01*
X-10195595Y-428729D01*
X-10195595Y410310D01*
X-9381982Y410310D01*
X-9381982Y-428729D01*
X-8542943Y-428729D01*
X-8542943Y410310D01*
X-9356556Y410310D01*
X-9356556Y1223924D01*
X-7754754Y1223924D01*
X-7754754Y410310D01*
X-6915715Y410310D01*
X-6915715Y-428729D01*
X-6076676Y-428729D01*
X-6076676Y410310D01*
X-5288488Y410310D01*
X-5288488Y-1216917D01*
X-7754754Y-1216917D01*
X-7754754Y-5310410D01*
X-8568368Y-5310410D01*
X-8568368Y-8590290D01*
X-10195595Y-8590290D01*
X-10195595Y-7802102D01*
X-9356556Y-7802102D01*
X-9356556Y-6149450D01*
X-10195595Y-6149450D01*
X-10195595Y-4496797D01*
X-11009209Y-4496797D01*
X-11009209Y-3708609D01*
X-10195595Y-3708609D01*
X-10195595Y-2055956D01*
X-9381982Y-2055956D01*
X-9381982Y-2869570D01*
X-8542943Y-2869570D01*
X-8542943Y-1216917D01*
X-11848248Y-1216917D01*
X-11848248Y-2055956D01*
X-11034634Y-2055956D01*
X-11034634Y-3683183D01*
X-11848248Y-3683183D01*
X-11848248Y-6149450D01*
X-10221021Y-6149450D01*
X-10221021Y-6963063D01*
X-11848248Y-6963063D01*
X-11848248Y-7802102D01*
X-11034634Y-7802102D01*
X-11034634Y-9429329D01*
X-11848248Y-9429329D01*
X-11848248Y-10268368D01*
X-11034634Y-10268368D01*
X-11034634Y-11056557D01*
X-11848248Y-11056557D01*
X-11848248Y-11895596D01*
X-11034634Y-11895596D01*
X-11034634Y-13548248D01*
X-10195595Y-13548248D01*
X-10195595Y-11895596D01*
X-8568368Y-11895596D01*
X-8568368Y-12709209D01*
X-9381982Y-12709209D01*
X-9381982Y-13548248D01*
X-7729329Y-13548248D01*
X-7729329Y-11081982D01*
X-10221021Y-11081982D01*
X-10221021Y-11870170D01*
X-11009209Y-11870170D01*
X-11009209Y-11081982D01*
X-10221021Y-11081982D01*
X-7729329Y-11081982D01*
X-6076676Y-11081982D01*
X-6076676Y-10268368D01*
X-4474875Y-10268368D01*
X-4474875Y-11081982D01*
X-3635835Y-11081982D01*
X-3635835Y-11870170D01*
X-5288488Y-11870170D01*
X-5288488Y-12709209D01*
X-6076676Y-12709209D01*
X-6076676Y-11870170D01*
X-6915715Y-11870170D01*
X-6915715Y-12734635D01*
X-6102102Y-12734635D01*
X-6102102Y-13548248D01*
X-4449449Y-13548248D01*
X-4449449Y-12734635D01*
X-2822222Y-12734635D01*
X-2822222Y-13548248D01*
X-1983183Y-13548248D01*
X-1983183Y-12734635D01*
X-1169569Y-12734635D01*
X-1169569Y-13548248D01*
X-330530Y-13548248D01*
X-330530Y-12709209D01*
X-1169569Y-12709209D01*
X-1169569Y-11870170D01*
X-2796796Y-11870170D01*
X-2796796Y-11081982D01*
X-1983183Y-11081982D01*
X-1983183Y-10268368D01*
X-355956Y-10268368D01*
X-355956Y-11895596D01*
X1296697Y-11895596D01*
X1296697Y-10242943D01*
X483083Y-10242943D01*
X483083Y-9429329D01*
X2110311Y-9429329D01*
X2110311Y-12709209D01*
X457658Y-12709209D01*
X457658Y-13548248D01*
X2110311Y-13548248D01*
X2110311Y-12734635D01*
X2923924Y-12734635D01*
X2923924Y-13548248D01*
X5415616Y-13548248D01*
X5415616Y-11870170D01*
X3762963Y-11870170D01*
X3762963Y-10242943D01*
X2949350Y-10242943D01*
X2949350Y-9429329D01*
X3762963Y-9429329D01*
X3762963Y-8615716D01*
X457658Y-8615716D01*
X457658Y-9429329D01*
X-330530Y-9429329D01*
X-330530Y-8615716D01*
X457658Y-8615716D01*
X3762963Y-8615716D01*
X5415616Y-8615716D01*
X5415616Y-7802102D01*
X3737538Y-7802102D01*
X3737538Y-8590290D01*
X2949350Y-8590290D01*
X2949350Y-7802102D01*
X3737538Y-7802102D01*
X5415616Y-7802102D01*
X5415616Y-6988489D01*
X457658Y-6988489D01*
X457658Y-7776677D01*
X-355956Y-7776677D01*
X-355956Y-8590290D01*
X-1169569Y-8590290D01*
X-1169569Y-7776677D01*
X-2822222Y-7776677D01*
X-2822222Y-8615716D01*
X-2008608Y-8615716D01*
X-2008608Y-9429329D01*
X-2822222Y-9429329D01*
X-2822222Y-11056557D01*
X-3635835Y-11056557D01*
X-3635835Y-10242943D01*
X-4449449Y-10242943D01*
X-4449449Y-7802102D01*
X-3635835Y-7802102D01*
X-3635835Y-6988489D01*
X-5288488Y-6988489D01*
X-5288488Y-9429329D01*
X-7729329Y-9429329D01*
X-8568368Y-9429329D01*
X-8568368Y-10242943D01*
X-11009209Y-10242943D01*
X-11009209Y-9429329D01*
X-8568368Y-9429329D01*
X-7729329Y-9429329D01*
X-7729329Y-6988489D01*
X-5288488Y-6988489D01*
X-3635835Y-6988489D01*
X-2796796Y-6988489D01*
X-2796796Y-6149450D01*
X-3635835Y-6149450D01*
X-3635835Y-6963063D01*
X-4449449Y-6963063D01*
X-4449449Y-6149450D01*
X-3635835Y-6149450D01*
X-2796796Y-6149450D01*
X-2008608Y-6149450D01*
X-2008608Y-6988489D01*
X457658Y-6988489D01*
X5415616Y-6988489D01*
X7856457Y-6988489D01*
X7856457Y-6149450D01*
X8695496Y-6149450D01*
X8695496Y-5335836D01*
X9483684Y-5335836D01*
X9483684Y-6149450D01*
X10322723Y-6149450D01*
X10322723Y-5310410D01*
X9509109Y-5310410D01*
X9509109Y-4522222D01*
X8670070Y-4522222D01*
X8670070Y-5310410D01*
X7856457Y-5310410D01*
X7856457Y-6149450D01*
X6229230Y-6149450D01*
X4551152Y-6149450D01*
X4551152Y-6963063D01*
X2949350Y-6963063D01*
X2949350Y-6149450D01*
X4551152Y-6149450D01*
X6229230Y-6149450D01*
X6229230Y-5335836D01*
X7042843Y-5335836D01*
X7042843Y-4522222D01*
X8670070Y-4522222D01*
X9509109Y-4522222D01*
X11136337Y-4522222D01*
X11136337Y-5335836D01*
X11975376Y-5335836D01*
X11975376Y-4496797D01*
X11136337Y-4496797D01*
X11136337Y-3708609D01*
X9483684Y-3708609D01*
X9483684Y-4496797D01*
X8695496Y-4496797D01*
X8695496Y-3708609D01*
X9483684Y-3708609D01*
X11136337Y-3708609D01*
X11975376Y-3708609D01*
X11975376Y-2869570D01*
X11136337Y-2869570D01*
X11136337Y-3683183D01*
X9509109Y-3683183D01*
X9509109Y-2869570D01*
X11136337Y-2869570D01*
X11136337Y-1242342D01*
X11975376Y-1242342D01*
X11975376Y-428729D01*
X10297298Y-428729D01*
X10297298Y-2030531D01*
X8670070Y-2030531D01*
X8670070Y-2869570D01*
X6203804Y-2869570D01*
X6203804Y-3708609D01*
X7017418Y-3708609D01*
X7017418Y-4496797D01*
X5390191Y-4496797D01*
X5390191Y-5310410D01*
X3762963Y-5310410D01*
X3762963Y-4522222D01*
X4576577Y-4522222D01*
X4576577Y-3708609D01*
X3737538Y-3708609D01*
X3737538Y-4496797D01*
X2923924Y-4496797D01*
X2923924Y-5310410D01*
X2110311Y-5310410D01*
X2110311Y-6149450D01*
X1296697Y-6149450D01*
X1271272Y-6149450D01*
X1271272Y-6963063D01*
X483083Y-6963063D01*
X483083Y-6149450D01*
X1271272Y-6149450D01*
X1296697Y-6149450D01*
X1296697Y-4496797D01*
X457658Y-4496797D01*
X457658Y-6149450D01*
X-1983183Y-6149450D01*
X-1983183Y-4496797D01*
X-2796796Y-4496797D01*
X-2796796Y-3708609D01*
X-1983183Y-3708609D01*
X-1983183Y-2869570D01*
X-2822222Y-2869570D01*
X-2822222Y-3683183D01*
X-3635835Y-3683183D01*
X-3635835Y-5310410D01*
X-4474875Y-5310410D01*
X-4474875Y-6149450D01*
X-5263063Y-6149450D01*
X-5263063Y-4522222D01*
X-6102102Y-4522222D01*
X-6102102Y-6149450D01*
X-7729329Y-6149450D01*
X-7729329Y-5335836D01*
X-6915715Y-5335836D01*
X-6915715Y-4522222D01*
X-6102102Y-4522222D01*
X-5263063Y-4522222D01*
X-5263063Y-3708609D01*
X-4449449Y-3708609D01*
X-4449449Y-2869570D01*
X-2822222Y-2869570D01*
X-1983183Y-2869570D01*
X-1169569Y-2869570D01*
X-1169569Y-4522222D01*
X-330530Y-4522222D01*
X-330530Y-3708609D01*
X1296697Y-3708609D01*
X1296697Y-2869570D01*
X2110311Y-2869570D01*
X2110311Y-3708609D01*
X3737538Y-3708609D01*
X4576577Y-3708609D01*
X4576577Y-3683183D01*
X3762963Y-3683183D01*
X3762963Y-2869570D01*
X2110311Y-2869570D01*
X2110311Y-2055956D01*
X-355956Y-2055956D01*
X-355956Y-2869570D01*
X-1169569Y-2869570D01*
X-1169569Y-2055956D01*
X-355956Y-2055956D01*
X2110311Y-2055956D01*
X2110311Y-1242342D01*
X2923924Y-1242342D01*
X2923924Y-2055956D01*
X4551152Y-2055956D01*
X4551152Y-2869570D01*
X5415616Y-2869570D01*
X5415616Y-2030531D01*
X4576577Y-2030531D01*
X4576577Y-428729D01*
X5390191Y-428729D01*
X5390191Y-1242342D01*
X6203804Y-1242342D01*
X6203804Y-2055956D01*
X7042843Y-2055956D01*
X7042843Y-1216917D01*
X6229230Y-1216917D01*
X6229230Y-428729D01*
X7042843Y-428729D01*
X7042843Y410310D01*
X5415616Y410310D01*
X5415616Y1223924D01*
X4551152Y1223924D01*
X4551152Y-403303D01*
X2110311Y-403303D01*
X2110311Y410310D01*
X1271272Y410310D01*
X1271272Y-2030531D01*
X-330530Y-2030531D01*
X-330530Y-1242342D01*
X-3635835Y-1242342D01*
X-3635835Y-2030531D01*
X-4474875Y-2030531D01*
X-4474875Y-2869570D01*
X-5263063Y-2869570D01*
X-5288488Y-2869570D01*
X-5288488Y-3683183D01*
X-6915715Y-3683183D01*
X-6915715Y-2055956D01*
X-6102102Y-2055956D01*
X-6102102Y-2869570D01*
X-5288488Y-2869570D01*
X-5263063Y-2869570D01*
X-5263063Y-1242342D01*
X-3635835Y-1242342D01*
X-330530Y-1242342D01*
X-330530Y-428729D01*
X-1169569Y-428729D01*
X-1169569Y-1216917D01*
X-1983183Y-1216917D01*
X-1983183Y-428729D01*
X-1169569Y-428729D01*
X-330530Y-428729D01*
X-330530Y-403303D01*
X-1169569Y-403303D01*
X-1169569Y410310D01*
X483083Y410310D01*
X483083Y1249349D01*
X-1169569Y1249349D01*
X-1169569Y2037537D01*
X483083Y2037537D01*
X483083Y2876576D01*
X-330530Y2876576D01*
X-330530Y3690190D01*
X483083Y3690190D01*
X483083Y5317417D01*
X1271272Y5317417D01*
X1271272Y3690190D01*
X2110311Y3690190D01*
X2110311Y5317417D01*
X2923924Y5317417D01*
X2923924Y4503804D01*
X3737538Y4503804D01*
X3737538Y3690190D01*
X2923924Y3690190D01*
X2923924Y2876576D01*
X2110311Y2876576D01*
X2110311Y2037537D01*
X2923924Y2037537D01*
X2923924Y1223924D01*
X4551152Y1223924D01*
X5415616Y1223924D01*
X5415616Y2062963D01*
X3762963Y2062963D01*
X3762963Y3690190D01*
X5390191Y3690190D01*
X5390191Y2851151D01*
X7017418Y2851151D01*
X7017418Y2062963D01*
X6203804Y2062963D01*
X6203804Y1223924D01*
X7856457Y1223924D01*
X7856457Y410310D01*
X8670070Y410310D01*
X8670070Y-1242342D01*
X9509109Y-1242342D01*
X9509109Y-428729D01*
X10297298Y-428729D01*
X11975376Y-428729D01*
X11975376Y-403303D01*
X10322723Y-403303D01*
X10322723Y410310D01*
X11136337Y410310D01*
X11136337Y2037537D01*
X10297298Y2037537D01*
X10297298Y1249349D01*
X9509109Y1249349D01*
X9509109Y2037537D01*
X8670070Y2037537D01*
X8670070Y1249349D01*
X7856457Y1249349D01*
X7856457Y2037537D01*
X8670070Y2037537D01*
X9509109Y2037537D01*
X10297298Y2037537D01*
X11136337Y2037537D01*
X11975376Y2037537D01*
X11975376Y2851151D01*
X11136337Y2851151D01*
X11136337Y2062963D01*
X10322723Y2062963D01*
X10322723Y2851151D01*
X9483684Y2851151D01*
X9483684Y2062963D01*
X8695496Y2062963D01*
X8695496Y2851151D01*
X9483684Y2851151D01*
X10322723Y2851151D01*
X11136337Y2851151D01*
X11975376Y2851151D01*
X11975376Y3690190D01*
X10297298Y3690190D01*
X10297298Y2876576D01*
X9509109Y2876576D01*
X9509109Y3690190D01*
X8670070Y3690190D01*
X8670070Y2876576D01*
X7042843Y2876576D01*
X7042843Y3690190D01*
X5415616Y3690190D01*
X5415616Y5317417D01*
X4551152Y5317417D01*
X4551152Y4529229D01*
X3762963Y4529229D01*
X3762963Y5317417D01*
X4551152Y5317417D01*
X5415616Y5317417D01*
X5415616Y6970070D01*
X4576577Y6970070D01*
X4551152Y6970070D01*
X4551152Y6156456D01*
X3737538Y6156456D01*
X3737538Y5342843D01*
X2949350Y5342843D01*
X2949350Y6156456D01*
X2110311Y6156456D01*
X2110311Y5342843D01*
X1296697Y5342843D01*
X1296697Y6970070D01*
X-355956Y6970070D01*
X-355956Y3690190D01*
X-1169569Y3690190D01*
X-1169569Y2062963D01*
X-1983183Y2062963D01*
X-1983183Y2876576D01*
X-2822222Y2876576D01*
X-2822222Y2037537D01*
X-2008608Y2037537D01*
X-2008608Y1223924D01*
X-1169569Y1223924D01*
X-1169569Y410310D01*
X-2796796Y410310D01*
X-2822222Y410310D01*
X-2822222Y-1216917D01*
X-3635835Y-1216917D01*
X-3635835Y410310D01*
X-2822222Y410310D01*
X-2796796Y410310D01*
X-2796796Y1249349D01*
X-3635835Y1249349D01*
X-3635835Y2037537D01*
X-4474875Y2037537D01*
X-4474875Y1249349D01*
X-5263063Y1249349D01*
X-5263063Y2037537D01*
X-6102102Y2037537D01*
X-6102102Y1249349D01*
X-6915715Y1249349D01*
X-6915715Y2037537D01*
X-6102102Y2037537D01*
X-5263063Y2037537D01*
X-4474875Y2037537D01*
X-3635835Y2037537D01*
X-3635835Y2062963D01*
X-4449449Y2062963D01*
X-4449449Y2851151D01*
X-3635835Y2851151D01*
X-3635835Y4503804D01*
X-2822222Y4503804D01*
X-2822222Y3690190D01*
X-1983183Y3690190D01*
X-1983183Y4503804D01*
X-1169569Y4503804D01*
X-1169569Y5342843D01*
X-2008608Y5342843D01*
X-2008608Y4529229D01*
X-2796796Y4529229D01*
X-2796796Y5317417D01*
X-3635835Y5317417D01*
X-3635835Y4529229D01*
X-4449449Y4529229D01*
X-4449449Y5317417D01*
X-3635835Y5317417D01*
X-2796796Y5317417D01*
X-2796796Y7783684D01*
X-1169569Y7783684D01*
X-1169569Y6970070D01*
X-355956Y6970070D01*
X1296697Y6970070D01*
X1296697Y7783684D01*
X2110311Y7783684D01*
X2110311Y6970070D01*
X4551152Y6970070D01*
X4576577Y6970070D01*
X4576577Y7783684D01*
X5415616Y7783684D01*
X5415616Y8597297D01*
X457658Y8597297D01*
X457658Y7809109D01*
X-1169569Y7809109D01*
X-1169569Y8597297D01*
X457658Y8597297D01*
X5415616Y8597297D01*
X5415616Y9436336D01*
X4576577Y9436336D01*
X4576577Y10249950D01*
X3737538Y10249950D01*
X3737538Y9410911D01*
G36*
X6203804Y-13548248D02*
G01*
X11975376Y-13548248D01*
X11975376Y-8615716D01*
X11136337Y-8615716D01*
X11136337Y-12709209D01*
X7042843Y-12709209D01*
X7042843Y-8615716D01*
X11136337Y-8615716D01*
X11975376Y-8615716D01*
X11975376Y-7776677D01*
X6203804Y-7776677D01*
X6203804Y-13548248D01*
X6203804Y-13548248D01*
G37*
X6203804Y-13548248D02*
X11975376Y-13548248D01*
X11975376Y-8615716D01*
X11136337Y-8615716D01*
X11136337Y-12709209D01*
X7042843Y-12709209D01*
X7042843Y-8615716D01*
X11136337Y-8615716D01*
X11975376Y-8615716D01*
X11975376Y-7776677D01*
X6203804Y-7776677D01*
X6203804Y-13548248D01*
D14*
X4881168Y-83365021D02*
G75*
G03X4885000Y-65637090I-4881168J8865021D01*
G01*
X-4885000Y-65637090D02*
G75*
G03X-4885000Y-83362910I4885000J-8862910D01*
G01*
X4885000Y-84970000D02*
X4885000Y-83362910D01*
X4885000Y-64030000D02*
X4885000Y-65637090D01*
X-4885000Y-84970000D02*
X-4885000Y-83362910D01*
X3000000Y-84970000D02*
X4885000Y-84970000D01*
X3000000Y-64030000D02*
X4885000Y-64030000D01*
X-3000000Y-84970000D02*
X-4885000Y-84970000D01*
X-3000000Y-64030000D02*
X-4885000Y-64030000D01*
X-4885000Y-64030000D02*
X-4885000Y-65637090D01*
D13*
G36*
X4649689Y34925098D02*
G01*
X4477108Y34920373D01*
X4354333Y34909716D01*
X4263940Y34890854D01*
X4188503Y34861509D01*
X4121908Y34825926D01*
X3938708Y34673676D01*
X3811400Y34464111D01*
X3746934Y34209004D01*
X3744697Y34186943D01*
X3728176Y34004867D01*
X3710703Y33812130D01*
X3706162Y33762000D01*
X3686990Y33550333D01*
X4731911Y33550333D01*
X4759141Y33695479D01*
X4813010Y33865253D01*
X4907707Y33973324D01*
X5058123Y34032208D01*
X5179896Y34049017D01*
X5418728Y34042661D01*
X5631785Y33987599D01*
X5798765Y33890780D01*
X5870317Y33812727D01*
X5896916Y33764639D01*
X5917211Y33701113D01*
X5932307Y33610099D01*
X5943311Y33479544D01*
X5951330Y33297398D01*
X5957471Y33051611D01*
X5961482Y32820083D01*
X5975131Y31941667D01*
X7069667Y31941667D01*
X7069667Y34905000D01*
X6011334Y34905000D01*
X6011334Y34426630D01*
X5885168Y34600796D01*
X5791346Y34719452D01*
X5697448Y34805483D01*
X5587809Y34864007D01*
X5446764Y34900143D01*
X5258646Y34919012D01*
X5007790Y34925733D01*
X4889500Y34926167D01*
X4649689Y34925098D01*
X4649689Y34925098D01*
G37*
X4649689Y34925098D02*
X4477108Y34920373D01*
X4354333Y34909716D01*
X4263940Y34890854D01*
X4188503Y34861509D01*
X4121908Y34825926D01*
X3938708Y34673676D01*
X3811400Y34464111D01*
X3746934Y34209004D01*
X3744697Y34186943D01*
X3728176Y34004867D01*
X3710703Y33812130D01*
X3706162Y33762000D01*
X3686990Y33550333D01*
X4731911Y33550333D01*
X4759141Y33695479D01*
X4813010Y33865253D01*
X4907707Y33973324D01*
X5058123Y34032208D01*
X5179896Y34049017D01*
X5418728Y34042661D01*
X5631785Y33987599D01*
X5798765Y33890780D01*
X5870317Y33812727D01*
X5896916Y33764639D01*
X5917211Y33701113D01*
X5932307Y33610099D01*
X5943311Y33479544D01*
X5951330Y33297398D01*
X5957471Y33051611D01*
X5961482Y32820083D01*
X5975131Y31941667D01*
X7069667Y31941667D01*
X7069667Y34905000D01*
X6011334Y34905000D01*
X6011334Y34426630D01*
X5885168Y34600796D01*
X5791346Y34719452D01*
X5697448Y34805483D01*
X5587809Y34864007D01*
X5446764Y34900143D01*
X5258646Y34919012D01*
X5007790Y34925733D01*
X4889500Y34926167D01*
X4649689Y34925098D01*
G36*
X993423Y34878068D02*
G01*
X624047Y34857131D01*
X323632Y34815564D01*
X84607Y34747907D01*
X-100604Y34648702D01*
X-239571Y34512488D01*
X-339870Y34333806D01*
X-409072Y34107198D01*
X-454750Y33827203D01*
X-483881Y33497417D01*
X-508493Y33127000D01*
X2297078Y33127000D01*
X2272182Y32973583D01*
X2235172Y32837503D01*
X2167394Y32734915D01*
X2058634Y32661547D01*
X1898678Y32613127D01*
X1677313Y32585386D01*
X1384324Y32574052D01*
X1315095Y32573371D01*
X1058088Y32577453D01*
X872467Y32595965D01*
X745612Y32632757D01*
X664905Y32691679D01*
X617729Y32776580D01*
X614192Y32787206D01*
X597672Y32822393D01*
X564958Y32846390D01*
X501813Y32861323D01*
X394002Y32869316D01*
X227287Y32872495D01*
X39481Y32873000D01*
X-195850Y32872818D01*
X-357290Y32866813D01*
X-455580Y32846800D01*
X-501463Y32804594D01*
X-505680Y32732009D01*
X-478973Y32620861D01*
X-444257Y32504391D01*
X-339323Y32276954D01*
X-173518Y32103483D01*
X57384Y31980403D01*
X238561Y31927042D01*
X416129Y31897585D01*
X656816Y31872781D01*
X939161Y31853440D01*
X1241702Y31840372D01*
X1542979Y31834387D01*
X1821531Y31836294D01*
X2055897Y31846903D01*
X2144618Y31855119D01*
X2505650Y31918105D01*
X2795732Y32018177D01*
X3022019Y32159736D01*
X3191663Y32347180D01*
X3305962Y32569374D01*
X3347269Y32691777D01*
X3374669Y32817762D01*
X3390873Y32969433D01*
X3398595Y33168891D01*
X3400366Y33338667D01*
X3390847Y33703361D01*
X3374739Y33839288D01*
X2286000Y33839288D01*
X2281022Y33812981D01*
X2258857Y33793413D01*
X2208665Y33779595D01*
X2119603Y33770535D01*
X1980828Y33765246D01*
X1781499Y33762736D01*
X1510773Y33762017D01*
X1439334Y33762000D01*
X1145821Y33762852D01*
X926850Y33765893D01*
X772311Y33771855D01*
X672090Y33781466D01*
X616077Y33795458D01*
X594160Y33814561D01*
X592667Y33823140D01*
X618626Y33893930D01*
X682357Y33988093D01*
X694835Y34003056D01*
X797003Y34121833D01*
X1432258Y34121833D01*
X1677491Y34121245D01*
X1852957Y34118111D01*
X1973553Y34110377D01*
X2054179Y34095990D01*
X2109731Y34072896D01*
X2155108Y34039041D01*
X2176757Y34019204D01*
X2250945Y33928826D01*
X2285651Y33845808D01*
X2286000Y33839288D01*
X3374739Y33839288D01*
X3354767Y34007817D01*
X3285691Y34257106D01*
X3177179Y34456301D01*
X3022796Y34610474D01*
X2816104Y34724697D01*
X2550666Y34804042D01*
X2220044Y34853582D01*
X1817801Y34878388D01*
X1439334Y34883833D01*
X993423Y34878068D01*
X993423Y34878068D01*
G37*
X993423Y34878068D02*
X624047Y34857131D01*
X323632Y34815564D01*
X84607Y34747907D01*
X-100604Y34648702D01*
X-239571Y34512488D01*
X-339870Y34333806D01*
X-409072Y34107198D01*
X-454750Y33827203D01*
X-483881Y33497417D01*
X-508493Y33127000D01*
X2297078Y33127000D01*
X2272182Y32973583D01*
X2235172Y32837503D01*
X2167394Y32734915D01*
X2058634Y32661547D01*
X1898678Y32613127D01*
X1677313Y32585386D01*
X1384324Y32574052D01*
X1315095Y32573371D01*
X1058088Y32577453D01*
X872467Y32595965D01*
X745612Y32632757D01*
X664905Y32691679D01*
X617729Y32776580D01*
X614192Y32787206D01*
X597672Y32822393D01*
X564958Y32846390D01*
X501813Y32861323D01*
X394002Y32869316D01*
X227287Y32872495D01*
X39481Y32873000D01*
X-195850Y32872818D01*
X-357290Y32866813D01*
X-455580Y32846800D01*
X-501463Y32804594D01*
X-505680Y32732009D01*
X-478973Y32620861D01*
X-444257Y32504391D01*
X-339323Y32276954D01*
X-173518Y32103483D01*
X57384Y31980403D01*
X238561Y31927042D01*
X416129Y31897585D01*
X656816Y31872781D01*
X939161Y31853440D01*
X1241702Y31840372D01*
X1542979Y31834387D01*
X1821531Y31836294D01*
X2055897Y31846903D01*
X2144618Y31855119D01*
X2505650Y31918105D01*
X2795732Y32018177D01*
X3022019Y32159736D01*
X3191663Y32347180D01*
X3305962Y32569374D01*
X3347269Y32691777D01*
X3374669Y32817762D01*
X3390873Y32969433D01*
X3398595Y33168891D01*
X3400366Y33338667D01*
X3390847Y33703361D01*
X3374739Y33839288D01*
X2286000Y33839288D01*
X2281022Y33812981D01*
X2258857Y33793413D01*
X2208665Y33779595D01*
X2119603Y33770535D01*
X1980828Y33765246D01*
X1781499Y33762736D01*
X1510773Y33762017D01*
X1439334Y33762000D01*
X1145821Y33762852D01*
X926850Y33765893D01*
X772311Y33771855D01*
X672090Y33781466D01*
X616077Y33795458D01*
X594160Y33814561D01*
X592667Y33823140D01*
X618626Y33893930D01*
X682357Y33988093D01*
X694835Y34003056D01*
X797003Y34121833D01*
X1432258Y34121833D01*
X1677491Y34121245D01*
X1852957Y34118111D01*
X1973553Y34110377D01*
X2054179Y34095990D01*
X2109731Y34072896D01*
X2155108Y34039041D01*
X2176757Y34019204D01*
X2250945Y33928826D01*
X2285651Y33845808D01*
X2286000Y33839288D01*
X3374739Y33839288D01*
X3354767Y34007817D01*
X3285691Y34257106D01*
X3177179Y34456301D01*
X3022796Y34610474D01*
X2816104Y34724697D01*
X2550666Y34804042D01*
X2220044Y34853582D01*
X1817801Y34878388D01*
X1439334Y34883833D01*
X993423Y34878068D01*
G36*
X9536644Y34894598D02*
G01*
X9165043Y34884480D01*
X8866062Y34869423D01*
X8627699Y34847270D01*
X8437955Y34815867D01*
X8284827Y34773058D01*
X8156314Y34716687D01*
X8040416Y34644598D01*
X8006553Y34619766D01*
X7888639Y34509577D01*
X7800839Y34373136D01*
X7738813Y34196964D01*
X7698220Y33967582D01*
X7674720Y33671510D01*
X7670680Y33576679D01*
X7666677Y33165202D01*
X7690344Y32827122D01*
X7745640Y32554555D01*
X7836526Y32339620D01*
X7966962Y32174434D01*
X8140909Y32051115D01*
X8362327Y31961778D01*
X8500267Y31925516D01*
X8649210Y31901294D01*
X8862444Y31879193D01*
X9119601Y31860171D01*
X9400312Y31845184D01*
X9684211Y31835187D01*
X9950928Y31831135D01*
X10180097Y31833986D01*
X10308167Y31840671D01*
X10702266Y31886435D01*
X11024421Y31960324D01*
X11280296Y32069182D01*
X11475556Y32219855D01*
X11615865Y32419186D01*
X11706889Y32674021D01*
X11754291Y32991205D01*
X11763220Y33356511D01*
X10659169Y33356511D01*
X10644692Y33165820D01*
X10612997Y33005842D01*
X10579465Y32924870D01*
X10464341Y32818890D01*
X10272136Y32745080D01*
X10202334Y32729834D01*
X10092324Y32719649D01*
X9927049Y32716853D01*
X9729099Y32720424D01*
X9521063Y32729343D01*
X9325529Y32742590D01*
X9165086Y32759144D01*
X9062324Y32777985D01*
X9050964Y32781826D01*
X8933945Y32850440D01*
X8856979Y32956065D01*
X8813986Y33113003D01*
X8798885Y33335554D01*
X8798650Y33375208D01*
X8804948Y33591606D01*
X8830724Y33754723D01*
X8886301Y33872015D01*
X8982002Y33950935D01*
X9128151Y33998936D01*
X9335069Y34023473D01*
X9613081Y34032001D01*
X9709000Y34032544D01*
X10000042Y34029611D01*
X10218618Y34016390D01*
X10376710Y33988663D01*
X10486301Y33942213D01*
X10559373Y33872824D01*
X10607910Y33776277D01*
X10628833Y33708801D01*
X10654519Y33547608D01*
X10659169Y33356511D01*
X11763220Y33356511D01*
X11763736Y33377582D01*
X11756402Y33590635D01*
X11731322Y33917868D01*
X11688319Y34173560D01*
X11621827Y34369931D01*
X11526285Y34519199D01*
X11396128Y34633583D01*
X11243333Y34717467D01*
X11086124Y34780442D01*
X10917746Y34828630D01*
X10725692Y34863329D01*
X10497454Y34885838D01*
X10220526Y34897453D01*
X9882401Y34899473D01*
X9536644Y34894598D01*
X9536644Y34894598D01*
G37*
X9536644Y34894598D02*
X9165043Y34884480D01*
X8866062Y34869423D01*
X8627699Y34847270D01*
X8437955Y34815867D01*
X8284827Y34773058D01*
X8156314Y34716687D01*
X8040416Y34644598D01*
X8006553Y34619766D01*
X7888639Y34509577D01*
X7800839Y34373136D01*
X7738813Y34196964D01*
X7698220Y33967582D01*
X7674720Y33671510D01*
X7670680Y33576679D01*
X7666677Y33165202D01*
X7690344Y32827122D01*
X7745640Y32554555D01*
X7836526Y32339620D01*
X7966962Y32174434D01*
X8140909Y32051115D01*
X8362327Y31961778D01*
X8500267Y31925516D01*
X8649210Y31901294D01*
X8862444Y31879193D01*
X9119601Y31860171D01*
X9400312Y31845184D01*
X9684211Y31835187D01*
X9950928Y31831135D01*
X10180097Y31833986D01*
X10308167Y31840671D01*
X10702266Y31886435D01*
X11024421Y31960324D01*
X11280296Y32069182D01*
X11475556Y32219855D01*
X11615865Y32419186D01*
X11706889Y32674021D01*
X11754291Y32991205D01*
X11763220Y33356511D01*
X10659169Y33356511D01*
X10644692Y33165820D01*
X10612997Y33005842D01*
X10579465Y32924870D01*
X10464341Y32818890D01*
X10272136Y32745080D01*
X10202334Y32729834D01*
X10092324Y32719649D01*
X9927049Y32716853D01*
X9729099Y32720424D01*
X9521063Y32729343D01*
X9325529Y32742590D01*
X9165086Y32759144D01*
X9062324Y32777985D01*
X9050964Y32781826D01*
X8933945Y32850440D01*
X8856979Y32956065D01*
X8813986Y33113003D01*
X8798885Y33335554D01*
X8798650Y33375208D01*
X8804948Y33591606D01*
X8830724Y33754723D01*
X8886301Y33872015D01*
X8982002Y33950935D01*
X9128151Y33998936D01*
X9335069Y34023473D01*
X9613081Y34032001D01*
X9709000Y34032544D01*
X10000042Y34029611D01*
X10218618Y34016390D01*
X10376710Y33988663D01*
X10486301Y33942213D01*
X10559373Y33872824D01*
X10607910Y33776277D01*
X10628833Y33708801D01*
X10654519Y33547608D01*
X10659169Y33356511D01*
X11763220Y33356511D01*
X11763736Y33377582D01*
X11756402Y33590635D01*
X11731322Y33917868D01*
X11688319Y34173560D01*
X11621827Y34369931D01*
X11526285Y34519199D01*
X11396128Y34633583D01*
X11243333Y34717467D01*
X11086124Y34780442D01*
X10917746Y34828630D01*
X10725692Y34863329D01*
X10497454Y34885838D01*
X10220526Y34897453D01*
X9882401Y34899473D01*
X9536644Y34894598D01*
G36*
X-14901333Y32788333D02*
G01*
X-15832666Y32788333D01*
X-15832666Y31433667D01*
X-14901333Y31433667D01*
X-14901333Y30333000D01*
X-12573000Y30333000D01*
X-12573000Y31433667D01*
X-8509000Y31433667D01*
X-8509000Y32788333D01*
X-10745552Y32788333D01*
X-12573000Y32788333D01*
X-12573000Y34671309D01*
X-11786979Y33888571D01*
X-11567845Y33669153D01*
X-11362153Y33460943D01*
X-11179605Y33273939D01*
X-11029908Y33118142D01*
X-10922763Y33003550D01*
X-10873255Y32947083D01*
X-10745552Y32788333D01*
X-8509000Y32788333D01*
X-8509000Y33063913D01*
X-10128453Y34682956D01*
X-11747907Y36302000D01*
X-14901333Y36302000D01*
X-14901333Y32788333D01*
X-14901333Y32788333D01*
G37*
X-14901333Y32788333D02*
X-15832666Y32788333D01*
X-15832666Y31433667D01*
X-14901333Y31433667D01*
X-14901333Y30333000D01*
X-12573000Y30333000D01*
X-12573000Y31433667D01*
X-8509000Y31433667D01*
X-8509000Y32788333D01*
X-10745552Y32788333D01*
X-12573000Y32788333D01*
X-12573000Y34671309D01*
X-11786979Y33888571D01*
X-11567845Y33669153D01*
X-11362153Y33460943D01*
X-11179605Y33273939D01*
X-11029908Y33118142D01*
X-10922763Y33003550D01*
X-10873255Y32947083D01*
X-10745552Y32788333D01*
X-8509000Y32788333D01*
X-8509000Y33063913D01*
X-10128453Y34682956D01*
X-11747907Y36302000D01*
X-14901333Y36302000D01*
X-14901333Y32788333D01*
G36*
X-4977347Y36374981D02*
G01*
X-5522357Y36338933D01*
X-5992743Y36276744D01*
X-6391980Y36186670D01*
X-6723548Y36066967D01*
X-6990924Y35915891D01*
X-7197584Y35731699D01*
X-7347008Y35512647D01*
X-7442671Y35256990D01*
X-7488051Y34962986D01*
X-7493000Y34812650D01*
X-7493000Y34524000D01*
X-5164666Y34524000D01*
X-5164666Y34686772D01*
X-5153911Y34808183D01*
X-5113524Y34894770D01*
X-5031327Y34953271D01*
X-4895140Y34990421D01*
X-4692783Y35012959D01*
X-4560435Y35020983D01*
X-4219024Y35029560D01*
X-3926790Y35018902D01*
X-3693155Y34989983D01*
X-3527539Y34943780D01*
X-3463876Y34907474D01*
X-3424113Y34868368D01*
X-3396487Y34816159D01*
X-3377958Y34734716D01*
X-3365484Y34607908D01*
X-3356026Y34419601D01*
X-3352078Y34314256D01*
X-3333622Y33796621D01*
X-3463879Y33863979D01*
X-3610417Y33928128D01*
X-3779356Y33977488D01*
X-3982658Y34013568D01*
X-4232286Y34037881D01*
X-4540202Y34051936D01*
X-4918368Y34057245D01*
X-4995333Y34057388D01*
X-5278896Y34055321D01*
X-5552704Y34049385D01*
X-5798363Y34040273D01*
X-5997477Y34028679D01*
X-6131653Y34015296D01*
X-6138333Y34014280D01*
X-6535827Y33929214D01*
X-6862622Y33808190D01*
X-7126774Y33646324D01*
X-7336342Y33438731D01*
X-7493000Y33193175D01*
X-7641166Y32902703D01*
X-7641166Y32178768D01*
X-7640224Y31908131D01*
X-7636375Y31706655D01*
X-7628086Y31558848D01*
X-7613825Y31449216D01*
X-7592060Y31362266D01*
X-7561257Y31282503D01*
X-7550051Y31257716D01*
X-7381047Y30992741D01*
X-7137449Y30767139D01*
X-6819756Y30581173D01*
X-6428465Y30435104D01*
X-5964074Y30329195D01*
X-5716110Y30292795D01*
X-5557306Y30279406D01*
X-5331213Y30268914D01*
X-5054138Y30261315D01*
X-4742391Y30256606D01*
X-4412282Y30254784D01*
X-4080119Y30255844D01*
X-3762213Y30259784D01*
X-3474871Y30266600D01*
X-3234404Y30276287D01*
X-3057120Y30288844D01*
X-3017053Y30293381D01*
X-2554002Y30377909D01*
X-2162327Y30503823D01*
X-1837590Y30674816D01*
X-1575353Y30894584D01*
X-1371177Y31166822D01*
X-1220624Y31495224D01*
X-1121551Y31871307D01*
X-1097660Y32049257D01*
X-1080528Y32274031D01*
X-3365385Y32274031D01*
X-3365500Y32174500D01*
X-3371834Y31965816D01*
X-3396723Y31824615D01*
X-3448995Y31734277D01*
X-3537476Y31678178D01*
X-3646567Y31645278D01*
X-3762449Y31629337D01*
X-3941145Y31618020D01*
X-4160926Y31611346D01*
X-4400066Y31609334D01*
X-4636835Y31612003D01*
X-4849507Y31619371D01*
X-5016354Y31631458D01*
X-5100033Y31644017D01*
X-5225013Y31684463D01*
X-5306296Y31747383D01*
X-5352679Y31849310D01*
X-5372957Y32006781D01*
X-5376333Y32163349D01*
X-5373566Y32336122D01*
X-5361399Y32448228D01*
X-5334030Y32523593D01*
X-5285659Y32586139D01*
X-5269914Y32602268D01*
X-5163495Y32708687D01*
X-4339993Y32695594D01*
X-4028721Y32690453D01*
X-3791907Y32682596D01*
X-3619385Y32666588D01*
X-3500991Y32636993D01*
X-3426559Y32588376D01*
X-3385924Y32515300D01*
X-3368921Y32412330D01*
X-3365385Y32274031D01*
X-1080528Y32274031D01*
X-1079007Y32293977D01*
X-1065571Y32589308D01*
X-1057332Y32919091D01*
X-1054269Y33267166D01*
X-1056361Y33617374D01*
X-1063588Y33953556D01*
X-1075929Y34259552D01*
X-1093362Y34519204D01*
X-1115869Y34716352D01*
X-1125268Y34769202D01*
X-1213363Y35104176D01*
X-1334022Y35393581D01*
X-1492513Y35640055D01*
X-1694104Y35846237D01*
X-1944062Y36014766D01*
X-2247654Y36148279D01*
X-2610149Y36249416D01*
X-3036813Y36320815D01*
X-3532915Y36365114D01*
X-4103722Y36384954D01*
X-4354235Y36386631D01*
X-4977347Y36374981D01*
X-4977347Y36374981D01*
G37*
X-4977347Y36374981D02*
X-5522357Y36338933D01*
X-5992743Y36276744D01*
X-6391980Y36186670D01*
X-6723548Y36066967D01*
X-6990924Y35915891D01*
X-7197584Y35731699D01*
X-7347008Y35512647D01*
X-7442671Y35256990D01*
X-7488051Y34962986D01*
X-7493000Y34812650D01*
X-7493000Y34524000D01*
X-5164666Y34524000D01*
X-5164666Y34686772D01*
X-5153911Y34808183D01*
X-5113524Y34894770D01*
X-5031327Y34953271D01*
X-4895140Y34990421D01*
X-4692783Y35012959D01*
X-4560435Y35020983D01*
X-4219024Y35029560D01*
X-3926790Y35018902D01*
X-3693155Y34989983D01*
X-3527539Y34943780D01*
X-3463876Y34907474D01*
X-3424113Y34868368D01*
X-3396487Y34816159D01*
X-3377958Y34734716D01*
X-3365484Y34607908D01*
X-3356026Y34419601D01*
X-3352078Y34314256D01*
X-3333622Y33796621D01*
X-3463879Y33863979D01*
X-3610417Y33928128D01*
X-3779356Y33977488D01*
X-3982658Y34013568D01*
X-4232286Y34037881D01*
X-4540202Y34051936D01*
X-4918368Y34057245D01*
X-4995333Y34057388D01*
X-5278896Y34055321D01*
X-5552704Y34049385D01*
X-5798363Y34040273D01*
X-5997477Y34028679D01*
X-6131653Y34015296D01*
X-6138333Y34014280D01*
X-6535827Y33929214D01*
X-6862622Y33808190D01*
X-7126774Y33646324D01*
X-7336342Y33438731D01*
X-7493000Y33193175D01*
X-7641166Y32902703D01*
X-7641166Y32178768D01*
X-7640224Y31908131D01*
X-7636375Y31706655D01*
X-7628086Y31558848D01*
X-7613825Y31449216D01*
X-7592060Y31362266D01*
X-7561257Y31282503D01*
X-7550051Y31257716D01*
X-7381047Y30992741D01*
X-7137449Y30767139D01*
X-6819756Y30581173D01*
X-6428465Y30435104D01*
X-5964074Y30329195D01*
X-5716110Y30292795D01*
X-5557306Y30279406D01*
X-5331213Y30268914D01*
X-5054138Y30261315D01*
X-4742391Y30256606D01*
X-4412282Y30254784D01*
X-4080119Y30255844D01*
X-3762213Y30259784D01*
X-3474871Y30266600D01*
X-3234404Y30276287D01*
X-3057120Y30288844D01*
X-3017053Y30293381D01*
X-2554002Y30377909D01*
X-2162327Y30503823D01*
X-1837590Y30674816D01*
X-1575353Y30894584D01*
X-1371177Y31166822D01*
X-1220624Y31495224D01*
X-1121551Y31871307D01*
X-1097660Y32049257D01*
X-1080528Y32274031D01*
X-3365385Y32274031D01*
X-3365500Y32174500D01*
X-3371834Y31965816D01*
X-3396723Y31824615D01*
X-3448995Y31734277D01*
X-3537476Y31678178D01*
X-3646567Y31645278D01*
X-3762449Y31629337D01*
X-3941145Y31618020D01*
X-4160926Y31611346D01*
X-4400066Y31609334D01*
X-4636835Y31612003D01*
X-4849507Y31619371D01*
X-5016354Y31631458D01*
X-5100033Y31644017D01*
X-5225013Y31684463D01*
X-5306296Y31747383D01*
X-5352679Y31849310D01*
X-5372957Y32006781D01*
X-5376333Y32163349D01*
X-5373566Y32336122D01*
X-5361399Y32448228D01*
X-5334030Y32523593D01*
X-5285659Y32586139D01*
X-5269914Y32602268D01*
X-5163495Y32708687D01*
X-4339993Y32695594D01*
X-4028721Y32690453D01*
X-3791907Y32682596D01*
X-3619385Y32666588D01*
X-3500991Y32636993D01*
X-3426559Y32588376D01*
X-3385924Y32515300D01*
X-3368921Y32412330D01*
X-3365385Y32274031D01*
X-1080528Y32274031D01*
X-1079007Y32293977D01*
X-1065571Y32589308D01*
X-1057332Y32919091D01*
X-1054269Y33267166D01*
X-1056361Y33617374D01*
X-1063588Y33953556D01*
X-1075929Y34259552D01*
X-1093362Y34519204D01*
X-1115869Y34716352D01*
X-1125268Y34769202D01*
X-1213363Y35104176D01*
X-1334022Y35393581D01*
X-1492513Y35640055D01*
X-1694104Y35846237D01*
X-1944062Y36014766D01*
X-2247654Y36148279D01*
X-2610149Y36249416D01*
X-3036813Y36320815D01*
X-3532915Y36365114D01*
X-4103722Y36384954D01*
X-4354235Y36386631D01*
X-4977347Y36374981D01*
G36*
X12481822Y36869634D02*
G01*
X12207570Y36852989D01*
X11986743Y36821335D01*
X11969750Y36817582D01*
X11726334Y36761664D01*
X11726334Y35829804D01*
X11727702Y35560349D01*
X11731536Y35322886D01*
X11737424Y35129219D01*
X11744958Y34991155D01*
X11753730Y34920499D01*
X11758084Y34913892D01*
X12104064Y35067905D01*
X12413368Y35160466D01*
X12703547Y35195143D01*
X12992154Y35175507D01*
X13021181Y35170766D01*
X13399203Y35064793D01*
X13740042Y34882757D01*
X14015172Y34653711D01*
X14259954Y34354183D01*
X14430966Y34026631D01*
X14529959Y33681308D01*
X14558684Y33328465D01*
X14518890Y32978355D01*
X14412329Y32641232D01*
X14240752Y32327346D01*
X14005908Y32046952D01*
X13709548Y31810302D01*
X13510362Y31697226D01*
X13366264Y31627889D01*
X13253078Y31582578D01*
X13145337Y31556188D01*
X13017571Y31543616D01*
X12844314Y31539758D01*
X12723363Y31539500D01*
X12508096Y31541536D01*
X12353088Y31550281D01*
X12233978Y31569697D01*
X12126403Y31603740D01*
X12006968Y31655917D01*
X11877286Y31715592D01*
X11781678Y31757580D01*
X11742385Y31772333D01*
X11737756Y31731999D01*
X11733651Y31618987D01*
X11730271Y31445289D01*
X11727821Y31222892D01*
X11726504Y30963788D01*
X11726334Y30826363D01*
X11726334Y29880393D01*
X12045037Y29810363D01*
X12301915Y29770781D01*
X12606155Y29749810D01*
X12922365Y29748164D01*
X13215156Y29766560D01*
X13345279Y29784093D01*
X13833705Y29906782D01*
X14304454Y30103002D01*
X14747146Y30364384D01*
X15151400Y30682557D01*
X15506836Y31049150D01*
X15803074Y31455792D01*
X16029732Y31894113D01*
X16061988Y31974809D01*
X16214975Y32489738D01*
X16291983Y33025425D01*
X16292895Y33567249D01*
X16217596Y34100589D01*
X16082703Y34566333D01*
X15873753Y35015768D01*
X15592402Y35437897D01*
X15248938Y35823607D01*
X14853648Y36163784D01*
X14416821Y36449315D01*
X13948744Y36671085D01*
X13567834Y36794131D01*
X13352507Y36833519D01*
X13081554Y36859499D01*
X12782238Y36871671D01*
X12481822Y36869634D01*
X12481822Y36869634D01*
G37*
X12481822Y36869634D02*
X12207570Y36852989D01*
X11986743Y36821335D01*
X11969750Y36817582D01*
X11726334Y36761664D01*
X11726334Y35829804D01*
X11727702Y35560349D01*
X11731536Y35322886D01*
X11737424Y35129219D01*
X11744958Y34991155D01*
X11753730Y34920499D01*
X11758084Y34913892D01*
X12104064Y35067905D01*
X12413368Y35160466D01*
X12703547Y35195143D01*
X12992154Y35175507D01*
X13021181Y35170766D01*
X13399203Y35064793D01*
X13740042Y34882757D01*
X14015172Y34653711D01*
X14259954Y34354183D01*
X14430966Y34026631D01*
X14529959Y33681308D01*
X14558684Y33328465D01*
X14518890Y32978355D01*
X14412329Y32641232D01*
X14240752Y32327346D01*
X14005908Y32046952D01*
X13709548Y31810302D01*
X13510362Y31697226D01*
X13366264Y31627889D01*
X13253078Y31582578D01*
X13145337Y31556188D01*
X13017571Y31543616D01*
X12844314Y31539758D01*
X12723363Y31539500D01*
X12508096Y31541536D01*
X12353088Y31550281D01*
X12233978Y31569697D01*
X12126403Y31603740D01*
X12006968Y31655917D01*
X11877286Y31715592D01*
X11781678Y31757580D01*
X11742385Y31772333D01*
X11737756Y31731999D01*
X11733651Y31618987D01*
X11730271Y31445289D01*
X11727821Y31222892D01*
X11726504Y30963788D01*
X11726334Y30826363D01*
X11726334Y29880393D01*
X12045037Y29810363D01*
X12301915Y29770781D01*
X12606155Y29749810D01*
X12922365Y29748164D01*
X13215156Y29766560D01*
X13345279Y29784093D01*
X13833705Y29906782D01*
X14304454Y30103002D01*
X14747146Y30364384D01*
X15151400Y30682557D01*
X15506836Y31049150D01*
X15803074Y31455792D01*
X16029732Y31894113D01*
X16061988Y31974809D01*
X16214975Y32489738D01*
X16291983Y33025425D01*
X16292895Y33567249D01*
X16217596Y34100589D01*
X16082703Y34566333D01*
X15873753Y35015768D01*
X15592402Y35437897D01*
X15248938Y35823607D01*
X14853648Y36163784D01*
X14416821Y36449315D01*
X13948744Y36671085D01*
X13567834Y36794131D01*
X13352507Y36833519D01*
X13081554Y36859499D01*
X12782238Y36871671D01*
X12481822Y36869634D01*
D10*
X-18955857Y-119831000D02*
X-18884428Y-119795285D01*
X-18777285Y-119795285D01*
X-18670142Y-119831000D01*
X-18598714Y-119902428D01*
X-18563000Y-119973857D01*
X-18527285Y-120116714D01*
X-18527285Y-120223857D01*
X-18563000Y-120366714D01*
X-18598714Y-120438142D01*
X-18670142Y-120509571D01*
X-18777285Y-120545285D01*
X-18848714Y-120545285D01*
X-18955857Y-120509571D01*
X-18991571Y-120473857D01*
X-18991571Y-120223857D01*
X-18848714Y-120223857D01*
X-19313000Y-120545285D02*
X-19313000Y-119795285D01*
X-19598714Y-119795285D01*
X-19670142Y-119831000D01*
X-19705857Y-119866714D01*
X-19741571Y-119938142D01*
X-19741571Y-120045285D01*
X-19705857Y-120116714D01*
X-19670142Y-120152428D01*
X-19598714Y-120188142D01*
X-19313000Y-120188142D01*
X-20063000Y-120545285D02*
X-20063000Y-119795285D01*
X-20563000Y-119795285D02*
X-20705857Y-119795285D01*
X-20777285Y-119831000D01*
X-20848714Y-119902428D01*
X-20884428Y-120045285D01*
X-20884428Y-120295285D01*
X-20848714Y-120438142D01*
X-20777285Y-120509571D01*
X-20705857Y-120545285D01*
X-20563000Y-120545285D01*
X-20491571Y-120509571D01*
X-20420142Y-120438142D01*
X-20384428Y-120295285D01*
X-20384428Y-120045285D01*
X-20420142Y-119902428D01*
X-20491571Y-119831000D01*
X-20563000Y-119795285D01*
X-21598714Y-120545285D02*
X-21170142Y-120545285D01*
X-21384428Y-120545285D02*
X-21384428Y-119795285D01*
X-21313000Y-119902428D01*
X-21241571Y-119973857D01*
X-21170142Y-120009571D01*
X-18955857Y-125673000D02*
X-18884428Y-125637285D01*
X-18777285Y-125637285D01*
X-18670142Y-125673000D01*
X-18598714Y-125744428D01*
X-18563000Y-125815857D01*
X-18527285Y-125958714D01*
X-18527285Y-126065857D01*
X-18563000Y-126208714D01*
X-18598714Y-126280142D01*
X-18670142Y-126351571D01*
X-18777285Y-126387285D01*
X-18848714Y-126387285D01*
X-18955857Y-126351571D01*
X-18991571Y-126315857D01*
X-18991571Y-126065857D01*
X-18848714Y-126065857D01*
X-19313000Y-126387285D02*
X-19313000Y-125637285D01*
X-19598714Y-125637285D01*
X-19670142Y-125673000D01*
X-19705857Y-125708714D01*
X-19741571Y-125780142D01*
X-19741571Y-125887285D01*
X-19705857Y-125958714D01*
X-19670142Y-125994428D01*
X-19598714Y-126030142D01*
X-19313000Y-126030142D01*
X-20063000Y-126387285D02*
X-20063000Y-125637285D01*
X-20563000Y-125637285D02*
X-20705857Y-125637285D01*
X-20777285Y-125673000D01*
X-20848714Y-125744428D01*
X-20884428Y-125887285D01*
X-20884428Y-126137285D01*
X-20848714Y-126280142D01*
X-20777285Y-126351571D01*
X-20705857Y-126387285D01*
X-20563000Y-126387285D01*
X-20491571Y-126351571D01*
X-20420142Y-126280142D01*
X-20384428Y-126137285D01*
X-20384428Y-125887285D01*
X-20420142Y-125744428D01*
X-20491571Y-125673000D01*
X-20563000Y-125637285D01*
X-21170142Y-125708714D02*
X-21205857Y-125673000D01*
X-21277285Y-125637285D01*
X-21455857Y-125637285D01*
X-21527285Y-125673000D01*
X-21563000Y-125708714D01*
X-21598714Y-125780142D01*
X-21598714Y-125851571D01*
X-21563000Y-125958714D01*
X-21134428Y-126387285D01*
X-21598714Y-126387285D01*
X-23107142Y-126351571D02*
X-23214285Y-126387285D01*
X-23392857Y-126387285D01*
X-23464285Y-126351571D01*
X-23500000Y-126315857D01*
X-23535714Y-126244428D01*
X-23535714Y-126173000D01*
X-23500000Y-126101571D01*
X-23464285Y-126065857D01*
X-23392857Y-126030142D01*
X-23250000Y-125994428D01*
X-23178571Y-125958714D01*
X-23142857Y-125923000D01*
X-23107142Y-125851571D01*
X-23107142Y-125780142D01*
X-23142857Y-125708714D01*
X-23178571Y-125673000D01*
X-23250000Y-125637285D01*
X-23428571Y-125637285D01*
X-23535714Y-125673000D01*
X-24285714Y-126315857D02*
X-24250000Y-126351571D01*
X-24142857Y-126387285D01*
X-24071428Y-126387285D01*
X-23964285Y-126351571D01*
X-23892857Y-126280142D01*
X-23857142Y-126208714D01*
X-23821428Y-126065857D01*
X-23821428Y-125958714D01*
X-23857142Y-125815857D01*
X-23892857Y-125744428D01*
X-23964285Y-125673000D01*
X-24071428Y-125637285D01*
X-24142857Y-125637285D01*
X-24250000Y-125673000D01*
X-24285714Y-125708714D01*
X-24964285Y-126387285D02*
X-24607142Y-126387285D01*
X-24607142Y-125637285D01*
X-23089285Y-120509571D02*
X-23196428Y-120545285D01*
X-23375000Y-120545285D01*
X-23446428Y-120509571D01*
X-23482142Y-120473857D01*
X-23517857Y-120402428D01*
X-23517857Y-120331000D01*
X-23482142Y-120259571D01*
X-23446428Y-120223857D01*
X-23375000Y-120188142D01*
X-23232142Y-120152428D01*
X-23160714Y-120116714D01*
X-23125000Y-120081000D01*
X-23089285Y-120009571D01*
X-23089285Y-119938142D01*
X-23125000Y-119866714D01*
X-23160714Y-119831000D01*
X-23232142Y-119795285D01*
X-23410714Y-119795285D01*
X-23517857Y-119831000D01*
X-23839285Y-120545285D02*
X-23839285Y-119795285D01*
X-24017857Y-119795285D01*
X-24125000Y-119831000D01*
X-24196428Y-119902428D01*
X-24232142Y-119973857D01*
X-24267857Y-120116714D01*
X-24267857Y-120223857D01*
X-24232142Y-120366714D01*
X-24196428Y-120438142D01*
X-24125000Y-120509571D01*
X-24017857Y-120545285D01*
X-23839285Y-120545285D01*
X-24553571Y-120331000D02*
X-24910714Y-120331000D01*
X-24482142Y-120545285D02*
X-24732142Y-119795285D01*
X-24982142Y-120545285D01*
X-25968571Y-125673000D02*
X-25897142Y-125637285D01*
X-25790000Y-125637285D01*
X-25682857Y-125673000D01*
X-25611428Y-125744428D01*
X-25575714Y-125815857D01*
X-25540000Y-125958714D01*
X-25540000Y-126065857D01*
X-25575714Y-126208714D01*
X-25611428Y-126280142D01*
X-25682857Y-126351571D01*
X-25790000Y-126387285D01*
X-25861428Y-126387285D01*
X-25968571Y-126351571D01*
X-26004285Y-126315857D01*
X-26004285Y-126065857D01*
X-25861428Y-126065857D01*
X-26325714Y-126387285D02*
X-26325714Y-125637285D01*
X-26754285Y-126387285D01*
X-26754285Y-125637285D01*
X-27111428Y-126387285D02*
X-27111428Y-125637285D01*
X-27290000Y-125637285D01*
X-27397142Y-125673000D01*
X-27468571Y-125744428D01*
X-27504285Y-125815857D01*
X-27540000Y-125958714D01*
X-27540000Y-126065857D01*
X-27504285Y-126208714D01*
X-27468571Y-126280142D01*
X-27397142Y-126351571D01*
X-27290000Y-126387285D01*
X-27111428Y-126387285D01*
X-25611428Y-119795285D02*
X-26075714Y-119795285D01*
X-25825714Y-120081000D01*
X-25932857Y-120081000D01*
X-26004285Y-120116714D01*
X-26040000Y-120152428D01*
X-26075714Y-120223857D01*
X-26075714Y-120402428D01*
X-26040000Y-120473857D01*
X-26004285Y-120509571D01*
X-25932857Y-120545285D01*
X-25718571Y-120545285D01*
X-25647142Y-120509571D01*
X-25611428Y-120473857D01*
X-26290000Y-119795285D02*
X-26540000Y-120545285D01*
X-26790000Y-119795285D01*
X-26968571Y-119795285D02*
X-27432857Y-119795285D01*
X-27182857Y-120081000D01*
X-27290000Y-120081000D01*
X-27361428Y-120116714D01*
X-27397142Y-120152428D01*
X-27432857Y-120223857D01*
X-27432857Y-120402428D01*
X-27397142Y-120473857D01*
X-27361428Y-120509571D01*
X-27290000Y-120545285D01*
X-27075714Y-120545285D01*
X-27004285Y-120509571D01*
X-26968571Y-120473857D01*
X7785714Y-64928571D02*
X7642857Y-64976190D01*
X7595238Y-65023809D01*
X7547619Y-65119047D01*
X7547619Y-65261904D01*
X7595238Y-65357142D01*
X7642857Y-65404761D01*
X7738095Y-65452380D01*
X8119047Y-65452380D01*
X8119047Y-64452380D01*
X7785714Y-64452380D01*
X7690476Y-64500000D01*
X7642857Y-64547619D01*
X7595238Y-64642857D01*
X7595238Y-64738095D01*
X7642857Y-64833333D01*
X7690476Y-64880952D01*
X7785714Y-64928571D01*
X8119047Y-64928571D01*
X7261904Y-64452380D02*
X6690476Y-64452380D01*
X6976190Y-65452380D02*
X6976190Y-64452380D01*
X5833333Y-65452380D02*
X6404761Y-65452380D01*
X6119047Y-65452380D02*
X6119047Y-64452380D01*
X6214285Y-64595238D01*
X6309523Y-64690476D01*
X6404761Y-64738095D01*
M02*
