G04 #@! TF.GenerationSoftware,KiCad,Pcbnew,(5.1.2-1)-1*
G04 #@! TF.CreationDate,2021-02-18T11:20:44-06:00*
G04 #@! TF.ProjectId,Core64 LM v0.1,436f7265-3634-4204-9c4d-2076302e312e,0.3*
G04 #@! TF.SameCoordinates,Original*
G04 #@! TF.FileFunction,Soldermask,Top*
G04 #@! TF.FilePolarity,Negative*
%FSLAX46Y46*%
G04 Gerber Fmt 4.6, Leading zero omitted, Abs format (unit mm)*
G04 Created by KiCad (PCBNEW (5.1.2-1)-1) date 2021-02-18 11:20:44*
%MOMM*%
%LPD*%
G04 APERTURE LIST*
%ADD10C,0.100000*%
G04 APERTURE END LIST*
D10*
G36*
X7045443Y-39055519D02*
G01*
X7111627Y-39062037D01*
X7281466Y-39113557D01*
X7437991Y-39197222D01*
X7473729Y-39226552D01*
X7575186Y-39309814D01*
X7658448Y-39411271D01*
X7687778Y-39447009D01*
X7771443Y-39603534D01*
X7822963Y-39773373D01*
X7840359Y-39950000D01*
X7822963Y-40126627D01*
X7771443Y-40296466D01*
X7687778Y-40452991D01*
X7658448Y-40488729D01*
X7575186Y-40590186D01*
X7473729Y-40673448D01*
X7437991Y-40702778D01*
X7281466Y-40786443D01*
X7111627Y-40837963D01*
X7045443Y-40844481D01*
X6979260Y-40851000D01*
X6890740Y-40851000D01*
X6824557Y-40844481D01*
X6758373Y-40837963D01*
X6588534Y-40786443D01*
X6432009Y-40702778D01*
X6396271Y-40673448D01*
X6294814Y-40590186D01*
X6211552Y-40488729D01*
X6182222Y-40452991D01*
X6098557Y-40296466D01*
X6047037Y-40126627D01*
X6029641Y-39950000D01*
X6047037Y-39773373D01*
X6098557Y-39603534D01*
X6182222Y-39447009D01*
X6211552Y-39411271D01*
X6294814Y-39309814D01*
X6396271Y-39226552D01*
X6432009Y-39197222D01*
X6588534Y-39113557D01*
X6758373Y-39062037D01*
X6824557Y-39055519D01*
X6890740Y-39049000D01*
X6979260Y-39049000D01*
X7045443Y-39055519D01*
X7045443Y-39055519D01*
G37*
G36*
X4505443Y-39055519D02*
G01*
X4571627Y-39062037D01*
X4741466Y-39113557D01*
X4897991Y-39197222D01*
X4933729Y-39226552D01*
X5035186Y-39309814D01*
X5118448Y-39411271D01*
X5147778Y-39447009D01*
X5231443Y-39603534D01*
X5282963Y-39773373D01*
X5300359Y-39950000D01*
X5282963Y-40126627D01*
X5231443Y-40296466D01*
X5147778Y-40452991D01*
X5118448Y-40488729D01*
X5035186Y-40590186D01*
X4933729Y-40673448D01*
X4897991Y-40702778D01*
X4741466Y-40786443D01*
X4571627Y-40837963D01*
X4505443Y-40844481D01*
X4439260Y-40851000D01*
X4350740Y-40851000D01*
X4284557Y-40844481D01*
X4218373Y-40837963D01*
X4048534Y-40786443D01*
X3892009Y-40702778D01*
X3856271Y-40673448D01*
X3754814Y-40590186D01*
X3671552Y-40488729D01*
X3642222Y-40452991D01*
X3558557Y-40296466D01*
X3507037Y-40126627D01*
X3489641Y-39950000D01*
X3507037Y-39773373D01*
X3558557Y-39603534D01*
X3642222Y-39447009D01*
X3671552Y-39411271D01*
X3754814Y-39309814D01*
X3856271Y-39226552D01*
X3892009Y-39197222D01*
X4048534Y-39113557D01*
X4218373Y-39062037D01*
X4284557Y-39055519D01*
X4350740Y-39049000D01*
X4439260Y-39049000D01*
X4505443Y-39055519D01*
X4505443Y-39055519D01*
G37*
G36*
X1965443Y-39055519D02*
G01*
X2031627Y-39062037D01*
X2201466Y-39113557D01*
X2357991Y-39197222D01*
X2393729Y-39226552D01*
X2495186Y-39309814D01*
X2578448Y-39411271D01*
X2607778Y-39447009D01*
X2691443Y-39603534D01*
X2742963Y-39773373D01*
X2760359Y-39950000D01*
X2742963Y-40126627D01*
X2691443Y-40296466D01*
X2607778Y-40452991D01*
X2578448Y-40488729D01*
X2495186Y-40590186D01*
X2393729Y-40673448D01*
X2357991Y-40702778D01*
X2201466Y-40786443D01*
X2031627Y-40837963D01*
X1965443Y-40844481D01*
X1899260Y-40851000D01*
X1810740Y-40851000D01*
X1744557Y-40844481D01*
X1678373Y-40837963D01*
X1508534Y-40786443D01*
X1352009Y-40702778D01*
X1316271Y-40673448D01*
X1214814Y-40590186D01*
X1131552Y-40488729D01*
X1102222Y-40452991D01*
X1018557Y-40296466D01*
X967037Y-40126627D01*
X949641Y-39950000D01*
X967037Y-39773373D01*
X1018557Y-39603534D01*
X1102222Y-39447009D01*
X1131552Y-39411271D01*
X1214814Y-39309814D01*
X1316271Y-39226552D01*
X1352009Y-39197222D01*
X1508534Y-39113557D01*
X1678373Y-39062037D01*
X1744557Y-39055519D01*
X1810740Y-39049000D01*
X1899260Y-39049000D01*
X1965443Y-39055519D01*
X1965443Y-39055519D01*
G37*
G36*
X216000Y-40851000D02*
G01*
X-1586000Y-40851000D01*
X-1586000Y-39049000D01*
X216000Y-39049000D01*
X216000Y-40851000D01*
X216000Y-40851000D01*
G37*
G36*
X1726000Y-25776000D02*
G01*
X-1726000Y-25776000D01*
X-1726000Y-24674000D01*
X1726000Y-24674000D01*
X1726000Y-25776000D01*
X1726000Y-25776000D01*
G37*
G36*
X-5024000Y-25776000D02*
G01*
X-8476000Y-25776000D01*
X-8476000Y-24674000D01*
X-5024000Y-24674000D01*
X-5024000Y-25776000D01*
X-5024000Y-25776000D01*
G37*
G36*
X-11774000Y-25776000D02*
G01*
X-15226000Y-25776000D01*
X-15226000Y-24674000D01*
X-11774000Y-24674000D01*
X-11774000Y-25776000D01*
X-11774000Y-25776000D01*
G37*
G36*
X-18524000Y-25776000D02*
G01*
X-21976000Y-25776000D01*
X-21976000Y-24674000D01*
X-18524000Y-24674000D01*
X-18524000Y-25776000D01*
X-18524000Y-25776000D01*
G37*
G36*
X-25274000Y-25776000D02*
G01*
X-26876000Y-25776000D01*
X-26876000Y-24674000D01*
X-25274000Y-24674000D01*
X-25274000Y-25776000D01*
X-25274000Y-25776000D01*
G37*
G36*
X8476000Y-25776000D02*
G01*
X5024000Y-25776000D01*
X5024000Y-24674000D01*
X8476000Y-24674000D01*
X8476000Y-25776000D01*
X8476000Y-25776000D01*
G37*
G36*
X15226000Y-25776000D02*
G01*
X11774000Y-25776000D01*
X11774000Y-24674000D01*
X15226000Y-24674000D01*
X15226000Y-25776000D01*
X15226000Y-25776000D01*
G37*
G36*
X21976000Y-25776000D02*
G01*
X18524000Y-25776000D01*
X18524000Y-24674000D01*
X21976000Y-24674000D01*
X21976000Y-25776000D01*
X21976000Y-25776000D01*
G37*
G36*
X26876000Y-25776000D02*
G01*
X25274000Y-25776000D01*
X25274000Y-24674000D01*
X26876000Y-24674000D01*
X26876000Y-25776000D01*
X26876000Y-25776000D01*
G37*
G36*
X35673512Y-23233927D02*
G01*
X35822812Y-23263624D01*
X35986784Y-23331544D01*
X36134354Y-23430147D01*
X36259853Y-23555646D01*
X36358456Y-23703216D01*
X36426376Y-23867188D01*
X36461000Y-24041259D01*
X36461000Y-24218741D01*
X36426376Y-24392812D01*
X36358456Y-24556784D01*
X36259853Y-24704354D01*
X36134354Y-24829853D01*
X35986784Y-24928456D01*
X35822812Y-24996376D01*
X35673512Y-25026073D01*
X35648742Y-25031000D01*
X35471258Y-25031000D01*
X35446488Y-25026073D01*
X35297188Y-24996376D01*
X35133216Y-24928456D01*
X34985646Y-24829853D01*
X34860147Y-24704354D01*
X34761544Y-24556784D01*
X34693624Y-24392812D01*
X34659000Y-24218741D01*
X34659000Y-24041259D01*
X34693624Y-23867188D01*
X34761544Y-23703216D01*
X34860147Y-23555646D01*
X34985646Y-23430147D01*
X35133216Y-23331544D01*
X35297188Y-23263624D01*
X35446488Y-23233927D01*
X35471258Y-23229000D01*
X35648742Y-23229000D01*
X35673512Y-23233927D01*
X35673512Y-23233927D01*
G37*
G36*
X-35446488Y-23233927D02*
G01*
X-35297188Y-23263624D01*
X-35133216Y-23331544D01*
X-34985646Y-23430147D01*
X-34860147Y-23555646D01*
X-34761544Y-23703216D01*
X-34693624Y-23867188D01*
X-34659000Y-24041259D01*
X-34659000Y-24218741D01*
X-34693624Y-24392812D01*
X-34761544Y-24556784D01*
X-34860147Y-24704354D01*
X-34985646Y-24829853D01*
X-35133216Y-24928456D01*
X-35297188Y-24996376D01*
X-35446488Y-25026073D01*
X-35471258Y-25031000D01*
X-35648742Y-25031000D01*
X-35673512Y-25026073D01*
X-35822812Y-24996376D01*
X-35986784Y-24928456D01*
X-36134354Y-24829853D01*
X-36259853Y-24704354D01*
X-36358456Y-24556784D01*
X-36426376Y-24392812D01*
X-36461000Y-24218741D01*
X-36461000Y-24041259D01*
X-36426376Y-23867188D01*
X-36358456Y-23703216D01*
X-36259853Y-23555646D01*
X-36134354Y-23430147D01*
X-35986784Y-23331544D01*
X-35822812Y-23263624D01*
X-35673512Y-23233927D01*
X-35648742Y-23229000D01*
X-35471258Y-23229000D01*
X-35446488Y-23233927D01*
X-35446488Y-23233927D01*
G37*
G36*
X-25445566Y-23078686D02*
G01*
X-25405716Y-23090774D01*
X-25369001Y-23110399D01*
X-25336814Y-23136814D01*
X-25310399Y-23169001D01*
X-25290774Y-23205716D01*
X-25278686Y-23245566D01*
X-25274000Y-23293141D01*
X-25274000Y-23956859D01*
X-25278686Y-24004434D01*
X-25290774Y-24044284D01*
X-25310399Y-24080999D01*
X-25336814Y-24113186D01*
X-25369001Y-24139601D01*
X-25405716Y-24159226D01*
X-25445566Y-24171314D01*
X-25493141Y-24176000D01*
X-26656859Y-24176000D01*
X-26704434Y-24171314D01*
X-26744284Y-24159226D01*
X-26780999Y-24139601D01*
X-26813186Y-24113186D01*
X-26839601Y-24080999D01*
X-26859226Y-24044284D01*
X-26871314Y-24004434D01*
X-26876000Y-23956859D01*
X-26876000Y-23293141D01*
X-26871314Y-23245566D01*
X-26859226Y-23205716D01*
X-26839601Y-23169001D01*
X-26813186Y-23136814D01*
X-26780999Y-23110399D01*
X-26744284Y-23090774D01*
X-26704434Y-23078686D01*
X-26656859Y-23074000D01*
X-25493141Y-23074000D01*
X-25445566Y-23078686D01*
X-25445566Y-23078686D01*
G37*
G36*
X-6874000Y-23266715D02*
G01*
X-6871598Y-23291101D01*
X-6864485Y-23314550D01*
X-6852934Y-23336161D01*
X-6837389Y-23355103D01*
X-6818447Y-23370648D01*
X-6796836Y-23382199D01*
X-6773387Y-23389312D01*
X-6749001Y-23391714D01*
X-6724615Y-23389312D01*
X-6701166Y-23382199D01*
X-6679555Y-23370648D01*
X-6660613Y-23355103D01*
X-6645068Y-23336161D01*
X-6633517Y-23314550D01*
X-6624604Y-23278968D01*
X-6621314Y-23245566D01*
X-6609226Y-23205716D01*
X-6589601Y-23169001D01*
X-6563186Y-23136814D01*
X-6530999Y-23110399D01*
X-6494284Y-23090774D01*
X-6454434Y-23078686D01*
X-6406859Y-23074000D01*
X-5243141Y-23074000D01*
X-5195566Y-23078686D01*
X-5155716Y-23090774D01*
X-5119001Y-23110399D01*
X-5086814Y-23136814D01*
X-5060399Y-23169001D01*
X-5040774Y-23205716D01*
X-5028686Y-23245566D01*
X-5024000Y-23293141D01*
X-5024000Y-23956859D01*
X-5028686Y-24004434D01*
X-5040774Y-24044284D01*
X-5060399Y-24080999D01*
X-5086814Y-24113186D01*
X-5119001Y-24139601D01*
X-5155716Y-24159226D01*
X-5195566Y-24171314D01*
X-5243141Y-24176000D01*
X-6406859Y-24176000D01*
X-6454434Y-24171314D01*
X-6494284Y-24159226D01*
X-6530999Y-24139601D01*
X-6563186Y-24113186D01*
X-6589601Y-24080999D01*
X-6609226Y-24044284D01*
X-6621314Y-24004434D01*
X-6624604Y-23971032D01*
X-6629385Y-23946999D01*
X-6638762Y-23924360D01*
X-6652376Y-23903986D01*
X-6669703Y-23886659D01*
X-6690078Y-23873045D01*
X-6712717Y-23863668D01*
X-6736750Y-23858888D01*
X-6761254Y-23858888D01*
X-6785287Y-23863669D01*
X-6807926Y-23873046D01*
X-6828300Y-23886660D01*
X-6845627Y-23903987D01*
X-6859241Y-23924362D01*
X-6868618Y-23947001D01*
X-6874000Y-23983285D01*
X-6874000Y-24176000D01*
X-8476000Y-24176000D01*
X-8476000Y-23074000D01*
X-6874000Y-23074000D01*
X-6874000Y-23266715D01*
X-6874000Y-23266715D01*
G37*
G36*
X-20374000Y-23266715D02*
G01*
X-20371598Y-23291101D01*
X-20364485Y-23314550D01*
X-20352934Y-23336161D01*
X-20337389Y-23355103D01*
X-20318447Y-23370648D01*
X-20296836Y-23382199D01*
X-20273387Y-23389312D01*
X-20249001Y-23391714D01*
X-20224615Y-23389312D01*
X-20201166Y-23382199D01*
X-20179555Y-23370648D01*
X-20160613Y-23355103D01*
X-20145068Y-23336161D01*
X-20133517Y-23314550D01*
X-20124604Y-23278968D01*
X-20121314Y-23245566D01*
X-20109226Y-23205716D01*
X-20089601Y-23169001D01*
X-20063186Y-23136814D01*
X-20030999Y-23110399D01*
X-19994284Y-23090774D01*
X-19954434Y-23078686D01*
X-19906859Y-23074000D01*
X-18743141Y-23074000D01*
X-18695566Y-23078686D01*
X-18655716Y-23090774D01*
X-18619001Y-23110399D01*
X-18586814Y-23136814D01*
X-18560399Y-23169001D01*
X-18540774Y-23205716D01*
X-18528686Y-23245566D01*
X-18524000Y-23293141D01*
X-18524000Y-23956859D01*
X-18528686Y-24004434D01*
X-18540774Y-24044284D01*
X-18560399Y-24080999D01*
X-18586814Y-24113186D01*
X-18619001Y-24139601D01*
X-18655716Y-24159226D01*
X-18695566Y-24171314D01*
X-18743141Y-24176000D01*
X-19906859Y-24176000D01*
X-19954434Y-24171314D01*
X-19994284Y-24159226D01*
X-20030999Y-24139601D01*
X-20063186Y-24113186D01*
X-20089601Y-24080999D01*
X-20109226Y-24044284D01*
X-20121314Y-24004434D01*
X-20124604Y-23971032D01*
X-20129385Y-23946999D01*
X-20138762Y-23924360D01*
X-20152376Y-23903986D01*
X-20169703Y-23886659D01*
X-20190078Y-23873045D01*
X-20212717Y-23863668D01*
X-20236750Y-23858888D01*
X-20261254Y-23858888D01*
X-20285287Y-23863669D01*
X-20307926Y-23873046D01*
X-20328300Y-23886660D01*
X-20345627Y-23903987D01*
X-20359241Y-23924362D01*
X-20368618Y-23947001D01*
X-20374000Y-23983285D01*
X-20374000Y-24176000D01*
X-21976000Y-24176000D01*
X-21976000Y-23074000D01*
X-20374000Y-23074000D01*
X-20374000Y-23266715D01*
X-20374000Y-23266715D01*
G37*
G36*
X26876000Y-24176000D02*
G01*
X25274000Y-24176000D01*
X25274000Y-23074000D01*
X26876000Y-23074000D01*
X26876000Y-24176000D01*
X26876000Y-24176000D01*
G37*
G36*
X-13624000Y-23266715D02*
G01*
X-13621598Y-23291101D01*
X-13614485Y-23314550D01*
X-13602934Y-23336161D01*
X-13587389Y-23355103D01*
X-13568447Y-23370648D01*
X-13546836Y-23382199D01*
X-13523387Y-23389312D01*
X-13499001Y-23391714D01*
X-13474615Y-23389312D01*
X-13451166Y-23382199D01*
X-13429555Y-23370648D01*
X-13410613Y-23355103D01*
X-13395068Y-23336161D01*
X-13383517Y-23314550D01*
X-13374604Y-23278968D01*
X-13371314Y-23245566D01*
X-13359226Y-23205716D01*
X-13339601Y-23169001D01*
X-13313186Y-23136814D01*
X-13280999Y-23110399D01*
X-13244284Y-23090774D01*
X-13204434Y-23078686D01*
X-13156859Y-23074000D01*
X-11993141Y-23074000D01*
X-11945566Y-23078686D01*
X-11905716Y-23090774D01*
X-11869001Y-23110399D01*
X-11836814Y-23136814D01*
X-11810399Y-23169001D01*
X-11790774Y-23205716D01*
X-11778686Y-23245566D01*
X-11774000Y-23293141D01*
X-11774000Y-23956859D01*
X-11778686Y-24004434D01*
X-11790774Y-24044284D01*
X-11810399Y-24080999D01*
X-11836814Y-24113186D01*
X-11869001Y-24139601D01*
X-11905716Y-24159226D01*
X-11945566Y-24171314D01*
X-11993141Y-24176000D01*
X-13156859Y-24176000D01*
X-13204434Y-24171314D01*
X-13244284Y-24159226D01*
X-13280999Y-24139601D01*
X-13313186Y-24113186D01*
X-13339601Y-24080999D01*
X-13359226Y-24044284D01*
X-13371314Y-24004434D01*
X-13374604Y-23971032D01*
X-13379385Y-23946999D01*
X-13388762Y-23924360D01*
X-13402376Y-23903986D01*
X-13419703Y-23886659D01*
X-13440078Y-23873045D01*
X-13462717Y-23863668D01*
X-13486750Y-23858888D01*
X-13511254Y-23858888D01*
X-13535287Y-23863669D01*
X-13557926Y-23873046D01*
X-13578300Y-23886660D01*
X-13595627Y-23903987D01*
X-13609241Y-23924362D01*
X-13618618Y-23947001D01*
X-13624000Y-23983285D01*
X-13624000Y-24176000D01*
X-15226000Y-24176000D01*
X-15226000Y-23074000D01*
X-13624000Y-23074000D01*
X-13624000Y-23266715D01*
X-13624000Y-23266715D01*
G37*
G36*
X20126000Y-23266715D02*
G01*
X20128402Y-23291101D01*
X20135515Y-23314550D01*
X20147066Y-23336161D01*
X20162611Y-23355103D01*
X20181553Y-23370648D01*
X20203164Y-23382199D01*
X20226613Y-23389312D01*
X20250999Y-23391714D01*
X20275385Y-23389312D01*
X20298834Y-23382199D01*
X20320445Y-23370648D01*
X20339387Y-23355103D01*
X20354932Y-23336161D01*
X20366483Y-23314550D01*
X20375396Y-23278968D01*
X20378686Y-23245566D01*
X20390774Y-23205716D01*
X20410399Y-23169001D01*
X20436814Y-23136814D01*
X20469001Y-23110399D01*
X20505716Y-23090774D01*
X20545566Y-23078686D01*
X20593141Y-23074000D01*
X21756859Y-23074000D01*
X21804434Y-23078686D01*
X21844284Y-23090774D01*
X21880999Y-23110399D01*
X21913186Y-23136814D01*
X21939601Y-23169001D01*
X21959226Y-23205716D01*
X21971314Y-23245566D01*
X21976000Y-23293141D01*
X21976000Y-23956859D01*
X21971314Y-24004434D01*
X21959226Y-24044284D01*
X21939601Y-24080999D01*
X21913186Y-24113186D01*
X21880999Y-24139601D01*
X21844284Y-24159226D01*
X21804434Y-24171314D01*
X21756859Y-24176000D01*
X20593141Y-24176000D01*
X20545566Y-24171314D01*
X20505716Y-24159226D01*
X20469001Y-24139601D01*
X20436814Y-24113186D01*
X20410399Y-24080999D01*
X20390774Y-24044284D01*
X20378686Y-24004434D01*
X20375396Y-23971032D01*
X20370615Y-23946999D01*
X20361238Y-23924360D01*
X20347624Y-23903986D01*
X20330297Y-23886659D01*
X20309922Y-23873045D01*
X20287283Y-23863668D01*
X20263250Y-23858888D01*
X20238746Y-23858888D01*
X20214713Y-23863669D01*
X20192074Y-23873046D01*
X20171700Y-23886660D01*
X20154373Y-23903987D01*
X20140759Y-23924362D01*
X20131382Y-23947001D01*
X20126000Y-23983285D01*
X20126000Y-24176000D01*
X18524000Y-24176000D01*
X18524000Y-23074000D01*
X20126000Y-23074000D01*
X20126000Y-23266715D01*
X20126000Y-23266715D01*
G37*
G36*
X6626000Y-23266715D02*
G01*
X6628402Y-23291101D01*
X6635515Y-23314550D01*
X6647066Y-23336161D01*
X6662611Y-23355103D01*
X6681553Y-23370648D01*
X6703164Y-23382199D01*
X6726613Y-23389312D01*
X6750999Y-23391714D01*
X6775385Y-23389312D01*
X6798834Y-23382199D01*
X6820445Y-23370648D01*
X6839387Y-23355103D01*
X6854932Y-23336161D01*
X6866483Y-23314550D01*
X6875396Y-23278968D01*
X6878686Y-23245566D01*
X6890774Y-23205716D01*
X6910399Y-23169001D01*
X6936814Y-23136814D01*
X6969001Y-23110399D01*
X7005716Y-23090774D01*
X7045566Y-23078686D01*
X7093141Y-23074000D01*
X8256859Y-23074000D01*
X8304434Y-23078686D01*
X8344284Y-23090774D01*
X8380999Y-23110399D01*
X8413186Y-23136814D01*
X8439601Y-23169001D01*
X8459226Y-23205716D01*
X8471314Y-23245566D01*
X8476000Y-23293141D01*
X8476000Y-23956859D01*
X8471314Y-24004434D01*
X8459226Y-24044284D01*
X8439601Y-24080999D01*
X8413186Y-24113186D01*
X8380999Y-24139601D01*
X8344284Y-24159226D01*
X8304434Y-24171314D01*
X8256859Y-24176000D01*
X7093141Y-24176000D01*
X7045566Y-24171314D01*
X7005716Y-24159226D01*
X6969001Y-24139601D01*
X6936814Y-24113186D01*
X6910399Y-24080999D01*
X6890774Y-24044284D01*
X6878686Y-24004434D01*
X6875396Y-23971032D01*
X6870615Y-23946999D01*
X6861238Y-23924360D01*
X6847624Y-23903986D01*
X6830297Y-23886659D01*
X6809922Y-23873045D01*
X6787283Y-23863668D01*
X6763250Y-23858888D01*
X6738746Y-23858888D01*
X6714713Y-23863669D01*
X6692074Y-23873046D01*
X6671700Y-23886660D01*
X6654373Y-23903987D01*
X6640759Y-23924362D01*
X6631382Y-23947001D01*
X6626000Y-23983285D01*
X6626000Y-24176000D01*
X5024000Y-24176000D01*
X5024000Y-23074000D01*
X6626000Y-23074000D01*
X6626000Y-23266715D01*
X6626000Y-23266715D01*
G37*
G36*
X13376000Y-23266715D02*
G01*
X13378402Y-23291101D01*
X13385515Y-23314550D01*
X13397066Y-23336161D01*
X13412611Y-23355103D01*
X13431553Y-23370648D01*
X13453164Y-23382199D01*
X13476613Y-23389312D01*
X13500999Y-23391714D01*
X13525385Y-23389312D01*
X13548834Y-23382199D01*
X13570445Y-23370648D01*
X13589387Y-23355103D01*
X13604932Y-23336161D01*
X13616483Y-23314550D01*
X13625396Y-23278968D01*
X13628686Y-23245566D01*
X13640774Y-23205716D01*
X13660399Y-23169001D01*
X13686814Y-23136814D01*
X13719001Y-23110399D01*
X13755716Y-23090774D01*
X13795566Y-23078686D01*
X13843141Y-23074000D01*
X15006859Y-23074000D01*
X15054434Y-23078686D01*
X15094284Y-23090774D01*
X15130999Y-23110399D01*
X15163186Y-23136814D01*
X15189601Y-23169001D01*
X15209226Y-23205716D01*
X15221314Y-23245566D01*
X15226000Y-23293141D01*
X15226000Y-23956859D01*
X15221314Y-24004434D01*
X15209226Y-24044284D01*
X15189601Y-24080999D01*
X15163186Y-24113186D01*
X15130999Y-24139601D01*
X15094284Y-24159226D01*
X15054434Y-24171314D01*
X15006859Y-24176000D01*
X13843141Y-24176000D01*
X13795566Y-24171314D01*
X13755716Y-24159226D01*
X13719001Y-24139601D01*
X13686814Y-24113186D01*
X13660399Y-24080999D01*
X13640774Y-24044284D01*
X13628686Y-24004434D01*
X13625396Y-23971032D01*
X13620615Y-23946999D01*
X13611238Y-23924360D01*
X13597624Y-23903986D01*
X13580297Y-23886659D01*
X13559922Y-23873045D01*
X13537283Y-23863668D01*
X13513250Y-23858888D01*
X13488746Y-23858888D01*
X13464713Y-23863669D01*
X13442074Y-23873046D01*
X13421700Y-23886660D01*
X13404373Y-23903987D01*
X13390759Y-23924362D01*
X13381382Y-23947001D01*
X13376000Y-23983285D01*
X13376000Y-24176000D01*
X11774000Y-24176000D01*
X11774000Y-23074000D01*
X13376000Y-23074000D01*
X13376000Y-23266715D01*
X13376000Y-23266715D01*
G37*
G36*
X-124000Y-23266715D02*
G01*
X-121598Y-23291101D01*
X-114485Y-23314550D01*
X-102934Y-23336161D01*
X-87389Y-23355103D01*
X-68447Y-23370648D01*
X-46836Y-23382199D01*
X-23387Y-23389312D01*
X999Y-23391714D01*
X25385Y-23389312D01*
X48834Y-23382199D01*
X70445Y-23370648D01*
X89387Y-23355103D01*
X104932Y-23336161D01*
X116483Y-23314550D01*
X125396Y-23278968D01*
X128686Y-23245566D01*
X140774Y-23205716D01*
X160399Y-23169001D01*
X186814Y-23136814D01*
X219001Y-23110399D01*
X255716Y-23090774D01*
X295566Y-23078686D01*
X343141Y-23074000D01*
X1506859Y-23074000D01*
X1554434Y-23078686D01*
X1594284Y-23090774D01*
X1630999Y-23110399D01*
X1663186Y-23136814D01*
X1689601Y-23169001D01*
X1709226Y-23205716D01*
X1721314Y-23245566D01*
X1726000Y-23293141D01*
X1726000Y-23956859D01*
X1721314Y-24004434D01*
X1709226Y-24044284D01*
X1689601Y-24080999D01*
X1663186Y-24113186D01*
X1630999Y-24139601D01*
X1594284Y-24159226D01*
X1554434Y-24171314D01*
X1506859Y-24176000D01*
X343141Y-24176000D01*
X295566Y-24171314D01*
X255716Y-24159226D01*
X219001Y-24139601D01*
X186814Y-24113186D01*
X160399Y-24080999D01*
X140774Y-24044284D01*
X128686Y-24004434D01*
X125396Y-23971032D01*
X120615Y-23946999D01*
X111238Y-23924360D01*
X97624Y-23903986D01*
X80297Y-23886659D01*
X59922Y-23873045D01*
X37283Y-23863668D01*
X13250Y-23858888D01*
X-11254Y-23858888D01*
X-35287Y-23863669D01*
X-57926Y-23873046D01*
X-78300Y-23886660D01*
X-95627Y-23903987D01*
X-109241Y-23924362D01*
X-118618Y-23947001D01*
X-124000Y-23983285D01*
X-124000Y-24176000D01*
X-1726000Y-24176000D01*
X-1726000Y-23074000D01*
X-124000Y-23074000D01*
X-124000Y-23266715D01*
X-124000Y-23266715D01*
G37*
G36*
X28264591Y-23143085D02*
G01*
X28298569Y-23153393D01*
X28329890Y-23170134D01*
X28357339Y-23192661D01*
X28379866Y-23220110D01*
X28396607Y-23251431D01*
X28406915Y-23285409D01*
X28411000Y-23326890D01*
X28411000Y-23928110D01*
X28406915Y-23969591D01*
X28396607Y-24003569D01*
X28379866Y-24034890D01*
X28357339Y-24062339D01*
X28329890Y-24084866D01*
X28298569Y-24101607D01*
X28264591Y-24111915D01*
X28223110Y-24116000D01*
X27546890Y-24116000D01*
X27505409Y-24111915D01*
X27471431Y-24101607D01*
X27440110Y-24084866D01*
X27412661Y-24062339D01*
X27390134Y-24034890D01*
X27373393Y-24003569D01*
X27363085Y-23969591D01*
X27359000Y-23928110D01*
X27359000Y-23326890D01*
X27363085Y-23285409D01*
X27373393Y-23251431D01*
X27390134Y-23220110D01*
X27412661Y-23192661D01*
X27440110Y-23170134D01*
X27471431Y-23153393D01*
X27505409Y-23143085D01*
X27546890Y-23139000D01*
X28223110Y-23139000D01*
X28264591Y-23143085D01*
X28264591Y-23143085D01*
G37*
G36*
X1726000Y-22576000D02*
G01*
X-1726000Y-22576000D01*
X-1726000Y-21474000D01*
X1726000Y-21474000D01*
X1726000Y-22576000D01*
X1726000Y-22576000D01*
G37*
G36*
X15226000Y-22576000D02*
G01*
X11774000Y-22576000D01*
X11774000Y-21474000D01*
X15226000Y-21474000D01*
X15226000Y-22576000D01*
X15226000Y-22576000D01*
G37*
G36*
X21976000Y-22576000D02*
G01*
X18524000Y-22576000D01*
X18524000Y-21474000D01*
X21976000Y-21474000D01*
X21976000Y-22576000D01*
X21976000Y-22576000D01*
G37*
G36*
X26876000Y-22576000D02*
G01*
X25274000Y-22576000D01*
X25274000Y-21474000D01*
X26876000Y-21474000D01*
X26876000Y-22576000D01*
X26876000Y-22576000D01*
G37*
G36*
X-5024000Y-22576000D02*
G01*
X-8476000Y-22576000D01*
X-8476000Y-21474000D01*
X-5024000Y-21474000D01*
X-5024000Y-22576000D01*
X-5024000Y-22576000D01*
G37*
G36*
X8476000Y-22576000D02*
G01*
X5024000Y-22576000D01*
X5024000Y-21474000D01*
X8476000Y-21474000D01*
X8476000Y-22576000D01*
X8476000Y-22576000D01*
G37*
G36*
X-25274000Y-22576000D02*
G01*
X-26876000Y-22576000D01*
X-26876000Y-21474000D01*
X-25274000Y-21474000D01*
X-25274000Y-22576000D01*
X-25274000Y-22576000D01*
G37*
G36*
X-18524000Y-22576000D02*
G01*
X-21976000Y-22576000D01*
X-21976000Y-21474000D01*
X-18524000Y-21474000D01*
X-18524000Y-22576000D01*
X-18524000Y-22576000D01*
G37*
G36*
X-11774000Y-22576000D02*
G01*
X-15226000Y-22576000D01*
X-15226000Y-21474000D01*
X-11774000Y-21474000D01*
X-11774000Y-22576000D01*
X-11774000Y-22576000D01*
G37*
G36*
X28264591Y-21568085D02*
G01*
X28298569Y-21578393D01*
X28329890Y-21595134D01*
X28357339Y-21617661D01*
X28379866Y-21645110D01*
X28396607Y-21676431D01*
X28406915Y-21710409D01*
X28411000Y-21751890D01*
X28411000Y-22353110D01*
X28406915Y-22394591D01*
X28396607Y-22428569D01*
X28379866Y-22459890D01*
X28357339Y-22487339D01*
X28329890Y-22509866D01*
X28298569Y-22526607D01*
X28264591Y-22536915D01*
X28223110Y-22541000D01*
X27546890Y-22541000D01*
X27505409Y-22536915D01*
X27471431Y-22526607D01*
X27440110Y-22509866D01*
X27412661Y-22487339D01*
X27390134Y-22459890D01*
X27373393Y-22428569D01*
X27363085Y-22394591D01*
X27359000Y-22353110D01*
X27359000Y-21751890D01*
X27363085Y-21710409D01*
X27373393Y-21676431D01*
X27390134Y-21645110D01*
X27412661Y-21617661D01*
X27440110Y-21595134D01*
X27471431Y-21578393D01*
X27505409Y-21568085D01*
X27546890Y-21564000D01*
X28223110Y-21564000D01*
X28264591Y-21568085D01*
X28264591Y-21568085D01*
G37*
G36*
X35673512Y-20693927D02*
G01*
X35822812Y-20723624D01*
X35986784Y-20791544D01*
X36134354Y-20890147D01*
X36259853Y-21015646D01*
X36358456Y-21163216D01*
X36426376Y-21327188D01*
X36461000Y-21501259D01*
X36461000Y-21678741D01*
X36426376Y-21852812D01*
X36358456Y-22016784D01*
X36259853Y-22164354D01*
X36134354Y-22289853D01*
X35986784Y-22388456D01*
X35822812Y-22456376D01*
X35673512Y-22486073D01*
X35648742Y-22491000D01*
X35471258Y-22491000D01*
X35446488Y-22486073D01*
X35297188Y-22456376D01*
X35133216Y-22388456D01*
X34985646Y-22289853D01*
X34860147Y-22164354D01*
X34761544Y-22016784D01*
X34693624Y-21852812D01*
X34659000Y-21678741D01*
X34659000Y-21501259D01*
X34693624Y-21327188D01*
X34761544Y-21163216D01*
X34860147Y-21015646D01*
X34985646Y-20890147D01*
X35133216Y-20791544D01*
X35297188Y-20723624D01*
X35446488Y-20693927D01*
X35471258Y-20689000D01*
X35648742Y-20689000D01*
X35673512Y-20693927D01*
X35673512Y-20693927D01*
G37*
G36*
X-35446488Y-20693927D02*
G01*
X-35297188Y-20723624D01*
X-35133216Y-20791544D01*
X-34985646Y-20890147D01*
X-34860147Y-21015646D01*
X-34761544Y-21163216D01*
X-34693624Y-21327188D01*
X-34659000Y-21501259D01*
X-34659000Y-21678741D01*
X-34693624Y-21852812D01*
X-34761544Y-22016784D01*
X-34860147Y-22164354D01*
X-34985646Y-22289853D01*
X-35133216Y-22388456D01*
X-35297188Y-22456376D01*
X-35446488Y-22486073D01*
X-35471258Y-22491000D01*
X-35648742Y-22491000D01*
X-35673512Y-22486073D01*
X-35822812Y-22456376D01*
X-35986784Y-22388456D01*
X-36134354Y-22289853D01*
X-36259853Y-22164354D01*
X-36358456Y-22016784D01*
X-36426376Y-21852812D01*
X-36461000Y-21678741D01*
X-36461000Y-21501259D01*
X-36426376Y-21327188D01*
X-36358456Y-21163216D01*
X-36259853Y-21015646D01*
X-36134354Y-20890147D01*
X-35986784Y-20791544D01*
X-35822812Y-20723624D01*
X-35673512Y-20693927D01*
X-35648742Y-20689000D01*
X-35471258Y-20689000D01*
X-35446488Y-20693927D01*
X-35446488Y-20693927D01*
G37*
G36*
X-35446488Y-18153927D02*
G01*
X-35297188Y-18183624D01*
X-35133216Y-18251544D01*
X-34985646Y-18350147D01*
X-34860147Y-18475646D01*
X-34761544Y-18623216D01*
X-34693624Y-18787188D01*
X-34659000Y-18961259D01*
X-34659000Y-19138741D01*
X-34693624Y-19312812D01*
X-34761544Y-19476784D01*
X-34860147Y-19624354D01*
X-34985646Y-19749853D01*
X-35133216Y-19848456D01*
X-35297188Y-19916376D01*
X-35446488Y-19946073D01*
X-35471258Y-19951000D01*
X-35648742Y-19951000D01*
X-35673512Y-19946073D01*
X-35822812Y-19916376D01*
X-35986784Y-19848456D01*
X-36134354Y-19749853D01*
X-36259853Y-19624354D01*
X-36358456Y-19476784D01*
X-36426376Y-19312812D01*
X-36461000Y-19138741D01*
X-36461000Y-18961259D01*
X-36426376Y-18787188D01*
X-36358456Y-18623216D01*
X-36259853Y-18475646D01*
X-36134354Y-18350147D01*
X-35986784Y-18251544D01*
X-35822812Y-18183624D01*
X-35673512Y-18153927D01*
X-35648742Y-18149000D01*
X-35471258Y-18149000D01*
X-35446488Y-18153927D01*
X-35446488Y-18153927D01*
G37*
G36*
X35673512Y-18153927D02*
G01*
X35822812Y-18183624D01*
X35986784Y-18251544D01*
X36134354Y-18350147D01*
X36259853Y-18475646D01*
X36358456Y-18623216D01*
X36426376Y-18787188D01*
X36461000Y-18961259D01*
X36461000Y-19138741D01*
X36426376Y-19312812D01*
X36358456Y-19476784D01*
X36259853Y-19624354D01*
X36134354Y-19749853D01*
X35986784Y-19848456D01*
X35822812Y-19916376D01*
X35673512Y-19946073D01*
X35648742Y-19951000D01*
X35471258Y-19951000D01*
X35446488Y-19946073D01*
X35297188Y-19916376D01*
X35133216Y-19848456D01*
X34985646Y-19749853D01*
X34860147Y-19624354D01*
X34761544Y-19476784D01*
X34693624Y-19312812D01*
X34659000Y-19138741D01*
X34659000Y-18961259D01*
X34693624Y-18787188D01*
X34761544Y-18623216D01*
X34860147Y-18475646D01*
X34985646Y-18350147D01*
X35133216Y-18251544D01*
X35297188Y-18183624D01*
X35446488Y-18153927D01*
X35471258Y-18149000D01*
X35648742Y-18149000D01*
X35673512Y-18153927D01*
X35673512Y-18153927D01*
G37*
G36*
X-18524000Y-19026000D02*
G01*
X-21976000Y-19026000D01*
X-21976000Y-17924000D01*
X-18524000Y-17924000D01*
X-18524000Y-19026000D01*
X-18524000Y-19026000D01*
G37*
G36*
X-25274000Y-19026000D02*
G01*
X-26876000Y-19026000D01*
X-26876000Y-17924000D01*
X-25274000Y-17924000D01*
X-25274000Y-19026000D01*
X-25274000Y-19026000D01*
G37*
G36*
X-11774000Y-19026000D02*
G01*
X-15226000Y-19026000D01*
X-15226000Y-17924000D01*
X-11774000Y-17924000D01*
X-11774000Y-19026000D01*
X-11774000Y-19026000D01*
G37*
G36*
X26876000Y-19026000D02*
G01*
X25274000Y-19026000D01*
X25274000Y-17924000D01*
X26876000Y-17924000D01*
X26876000Y-19026000D01*
X26876000Y-19026000D01*
G37*
G36*
X21976000Y-19026000D02*
G01*
X18524000Y-19026000D01*
X18524000Y-17924000D01*
X21976000Y-17924000D01*
X21976000Y-19026000D01*
X21976000Y-19026000D01*
G37*
G36*
X15226000Y-19026000D02*
G01*
X11774000Y-19026000D01*
X11774000Y-17924000D01*
X15226000Y-17924000D01*
X15226000Y-19026000D01*
X15226000Y-19026000D01*
G37*
G36*
X8476000Y-19026000D02*
G01*
X5024000Y-19026000D01*
X5024000Y-17924000D01*
X8476000Y-17924000D01*
X8476000Y-19026000D01*
X8476000Y-19026000D01*
G37*
G36*
X-5024000Y-19026000D02*
G01*
X-8476000Y-19026000D01*
X-8476000Y-17924000D01*
X-5024000Y-17924000D01*
X-5024000Y-19026000D01*
X-5024000Y-19026000D01*
G37*
G36*
X1726000Y-19026000D02*
G01*
X-1726000Y-19026000D01*
X-1726000Y-17924000D01*
X1726000Y-17924000D01*
X1726000Y-19026000D01*
X1726000Y-19026000D01*
G37*
G36*
X-20374000Y-16516715D02*
G01*
X-20371598Y-16541101D01*
X-20364485Y-16564550D01*
X-20352934Y-16586161D01*
X-20337389Y-16605103D01*
X-20318447Y-16620648D01*
X-20296836Y-16632199D01*
X-20273387Y-16639312D01*
X-20249001Y-16641714D01*
X-20224615Y-16639312D01*
X-20201166Y-16632199D01*
X-20179555Y-16620648D01*
X-20160613Y-16605103D01*
X-20145068Y-16586161D01*
X-20133517Y-16564550D01*
X-20124604Y-16528968D01*
X-20121314Y-16495566D01*
X-20109226Y-16455716D01*
X-20089601Y-16419001D01*
X-20063186Y-16386814D01*
X-20030999Y-16360399D01*
X-19994284Y-16340774D01*
X-19954434Y-16328686D01*
X-19906859Y-16324000D01*
X-18743141Y-16324000D01*
X-18695566Y-16328686D01*
X-18655716Y-16340774D01*
X-18619001Y-16360399D01*
X-18586814Y-16386814D01*
X-18560399Y-16419001D01*
X-18540774Y-16455716D01*
X-18528686Y-16495566D01*
X-18524000Y-16543141D01*
X-18524000Y-17206859D01*
X-18528686Y-17254434D01*
X-18540774Y-17294284D01*
X-18560399Y-17330999D01*
X-18586814Y-17363186D01*
X-18619001Y-17389601D01*
X-18655716Y-17409226D01*
X-18695566Y-17421314D01*
X-18743141Y-17426000D01*
X-19906859Y-17426000D01*
X-19954434Y-17421314D01*
X-19994284Y-17409226D01*
X-20030999Y-17389601D01*
X-20063186Y-17363186D01*
X-20089601Y-17330999D01*
X-20109226Y-17294284D01*
X-20121314Y-17254434D01*
X-20124604Y-17221032D01*
X-20129385Y-17196999D01*
X-20138762Y-17174360D01*
X-20152376Y-17153986D01*
X-20169703Y-17136659D01*
X-20190078Y-17123045D01*
X-20212717Y-17113668D01*
X-20236750Y-17108888D01*
X-20261254Y-17108888D01*
X-20285287Y-17113669D01*
X-20307926Y-17123046D01*
X-20328300Y-17136660D01*
X-20345627Y-17153987D01*
X-20359241Y-17174362D01*
X-20368618Y-17197001D01*
X-20374000Y-17233285D01*
X-20374000Y-17426000D01*
X-21976000Y-17426000D01*
X-21976000Y-16324000D01*
X-20374000Y-16324000D01*
X-20374000Y-16516715D01*
X-20374000Y-16516715D01*
G37*
G36*
X13376000Y-16516715D02*
G01*
X13378402Y-16541101D01*
X13385515Y-16564550D01*
X13397066Y-16586161D01*
X13412611Y-16605103D01*
X13431553Y-16620648D01*
X13453164Y-16632199D01*
X13476613Y-16639312D01*
X13500999Y-16641714D01*
X13525385Y-16639312D01*
X13548834Y-16632199D01*
X13570445Y-16620648D01*
X13589387Y-16605103D01*
X13604932Y-16586161D01*
X13616483Y-16564550D01*
X13625396Y-16528968D01*
X13628686Y-16495566D01*
X13640774Y-16455716D01*
X13660399Y-16419001D01*
X13686814Y-16386814D01*
X13719001Y-16360399D01*
X13755716Y-16340774D01*
X13795566Y-16328686D01*
X13843141Y-16324000D01*
X15006859Y-16324000D01*
X15054434Y-16328686D01*
X15094284Y-16340774D01*
X15130999Y-16360399D01*
X15163186Y-16386814D01*
X15189601Y-16419001D01*
X15209226Y-16455716D01*
X15221314Y-16495566D01*
X15226000Y-16543141D01*
X15226000Y-17206859D01*
X15221314Y-17254434D01*
X15209226Y-17294284D01*
X15189601Y-17330999D01*
X15163186Y-17363186D01*
X15130999Y-17389601D01*
X15094284Y-17409226D01*
X15054434Y-17421314D01*
X15006859Y-17426000D01*
X13843141Y-17426000D01*
X13795566Y-17421314D01*
X13755716Y-17409226D01*
X13719001Y-17389601D01*
X13686814Y-17363186D01*
X13660399Y-17330999D01*
X13640774Y-17294284D01*
X13628686Y-17254434D01*
X13625396Y-17221032D01*
X13620615Y-17196999D01*
X13611238Y-17174360D01*
X13597624Y-17153986D01*
X13580297Y-17136659D01*
X13559922Y-17123045D01*
X13537283Y-17113668D01*
X13513250Y-17108888D01*
X13488746Y-17108888D01*
X13464713Y-17113669D01*
X13442074Y-17123046D01*
X13421700Y-17136660D01*
X13404373Y-17153987D01*
X13390759Y-17174362D01*
X13381382Y-17197001D01*
X13376000Y-17233285D01*
X13376000Y-17426000D01*
X11774000Y-17426000D01*
X11774000Y-16324000D01*
X13376000Y-16324000D01*
X13376000Y-16516715D01*
X13376000Y-16516715D01*
G37*
G36*
X6626000Y-16516715D02*
G01*
X6628402Y-16541101D01*
X6635515Y-16564550D01*
X6647066Y-16586161D01*
X6662611Y-16605103D01*
X6681553Y-16620648D01*
X6703164Y-16632199D01*
X6726613Y-16639312D01*
X6750999Y-16641714D01*
X6775385Y-16639312D01*
X6798834Y-16632199D01*
X6820445Y-16620648D01*
X6839387Y-16605103D01*
X6854932Y-16586161D01*
X6866483Y-16564550D01*
X6875396Y-16528968D01*
X6878686Y-16495566D01*
X6890774Y-16455716D01*
X6910399Y-16419001D01*
X6936814Y-16386814D01*
X6969001Y-16360399D01*
X7005716Y-16340774D01*
X7045566Y-16328686D01*
X7093141Y-16324000D01*
X8256859Y-16324000D01*
X8304434Y-16328686D01*
X8344284Y-16340774D01*
X8380999Y-16360399D01*
X8413186Y-16386814D01*
X8439601Y-16419001D01*
X8459226Y-16455716D01*
X8471314Y-16495566D01*
X8476000Y-16543141D01*
X8476000Y-17206859D01*
X8471314Y-17254434D01*
X8459226Y-17294284D01*
X8439601Y-17330999D01*
X8413186Y-17363186D01*
X8380999Y-17389601D01*
X8344284Y-17409226D01*
X8304434Y-17421314D01*
X8256859Y-17426000D01*
X7093141Y-17426000D01*
X7045566Y-17421314D01*
X7005716Y-17409226D01*
X6969001Y-17389601D01*
X6936814Y-17363186D01*
X6910399Y-17330999D01*
X6890774Y-17294284D01*
X6878686Y-17254434D01*
X6875396Y-17221032D01*
X6870615Y-17196999D01*
X6861238Y-17174360D01*
X6847624Y-17153986D01*
X6830297Y-17136659D01*
X6809922Y-17123045D01*
X6787283Y-17113668D01*
X6763250Y-17108888D01*
X6738746Y-17108888D01*
X6714713Y-17113669D01*
X6692074Y-17123046D01*
X6671700Y-17136660D01*
X6654373Y-17153987D01*
X6640759Y-17174362D01*
X6631382Y-17197001D01*
X6626000Y-17233285D01*
X6626000Y-17426000D01*
X5024000Y-17426000D01*
X5024000Y-16324000D01*
X6626000Y-16324000D01*
X6626000Y-16516715D01*
X6626000Y-16516715D01*
G37*
G36*
X-25445566Y-16328686D02*
G01*
X-25405716Y-16340774D01*
X-25369001Y-16360399D01*
X-25336814Y-16386814D01*
X-25310399Y-16419001D01*
X-25290774Y-16455716D01*
X-25278686Y-16495566D01*
X-25274000Y-16543141D01*
X-25274000Y-17206859D01*
X-25278686Y-17254434D01*
X-25290774Y-17294284D01*
X-25310399Y-17330999D01*
X-25336814Y-17363186D01*
X-25369001Y-17389601D01*
X-25405716Y-17409226D01*
X-25445566Y-17421314D01*
X-25493141Y-17426000D01*
X-26656859Y-17426000D01*
X-26704434Y-17421314D01*
X-26744284Y-17409226D01*
X-26780999Y-17389601D01*
X-26813186Y-17363186D01*
X-26839601Y-17330999D01*
X-26859226Y-17294284D01*
X-26871314Y-17254434D01*
X-26876000Y-17206859D01*
X-26876000Y-16543141D01*
X-26871314Y-16495566D01*
X-26859226Y-16455716D01*
X-26839601Y-16419001D01*
X-26813186Y-16386814D01*
X-26780999Y-16360399D01*
X-26744284Y-16340774D01*
X-26704434Y-16328686D01*
X-26656859Y-16324000D01*
X-25493141Y-16324000D01*
X-25445566Y-16328686D01*
X-25445566Y-16328686D01*
G37*
G36*
X20126000Y-16516715D02*
G01*
X20128402Y-16541101D01*
X20135515Y-16564550D01*
X20147066Y-16586161D01*
X20162611Y-16605103D01*
X20181553Y-16620648D01*
X20203164Y-16632199D01*
X20226613Y-16639312D01*
X20250999Y-16641714D01*
X20275385Y-16639312D01*
X20298834Y-16632199D01*
X20320445Y-16620648D01*
X20339387Y-16605103D01*
X20354932Y-16586161D01*
X20366483Y-16564550D01*
X20375396Y-16528968D01*
X20378686Y-16495566D01*
X20390774Y-16455716D01*
X20410399Y-16419001D01*
X20436814Y-16386814D01*
X20469001Y-16360399D01*
X20505716Y-16340774D01*
X20545566Y-16328686D01*
X20593141Y-16324000D01*
X21756859Y-16324000D01*
X21804434Y-16328686D01*
X21844284Y-16340774D01*
X21880999Y-16360399D01*
X21913186Y-16386814D01*
X21939601Y-16419001D01*
X21959226Y-16455716D01*
X21971314Y-16495566D01*
X21976000Y-16543141D01*
X21976000Y-17206859D01*
X21971314Y-17254434D01*
X21959226Y-17294284D01*
X21939601Y-17330999D01*
X21913186Y-17363186D01*
X21880999Y-17389601D01*
X21844284Y-17409226D01*
X21804434Y-17421314D01*
X21756859Y-17426000D01*
X20593141Y-17426000D01*
X20545566Y-17421314D01*
X20505716Y-17409226D01*
X20469001Y-17389601D01*
X20436814Y-17363186D01*
X20410399Y-17330999D01*
X20390774Y-17294284D01*
X20378686Y-17254434D01*
X20375396Y-17221032D01*
X20370615Y-17196999D01*
X20361238Y-17174360D01*
X20347624Y-17153986D01*
X20330297Y-17136659D01*
X20309922Y-17123045D01*
X20287283Y-17113668D01*
X20263250Y-17108888D01*
X20238746Y-17108888D01*
X20214713Y-17113669D01*
X20192074Y-17123046D01*
X20171700Y-17136660D01*
X20154373Y-17153987D01*
X20140759Y-17174362D01*
X20131382Y-17197001D01*
X20126000Y-17233285D01*
X20126000Y-17426000D01*
X18524000Y-17426000D01*
X18524000Y-16324000D01*
X20126000Y-16324000D01*
X20126000Y-16516715D01*
X20126000Y-16516715D01*
G37*
G36*
X-13624000Y-16516715D02*
G01*
X-13621598Y-16541101D01*
X-13614485Y-16564550D01*
X-13602934Y-16586161D01*
X-13587389Y-16605103D01*
X-13568447Y-16620648D01*
X-13546836Y-16632199D01*
X-13523387Y-16639312D01*
X-13499001Y-16641714D01*
X-13474615Y-16639312D01*
X-13451166Y-16632199D01*
X-13429555Y-16620648D01*
X-13410613Y-16605103D01*
X-13395068Y-16586161D01*
X-13383517Y-16564550D01*
X-13374604Y-16528968D01*
X-13371314Y-16495566D01*
X-13359226Y-16455716D01*
X-13339601Y-16419001D01*
X-13313186Y-16386814D01*
X-13280999Y-16360399D01*
X-13244284Y-16340774D01*
X-13204434Y-16328686D01*
X-13156859Y-16324000D01*
X-11993141Y-16324000D01*
X-11945566Y-16328686D01*
X-11905716Y-16340774D01*
X-11869001Y-16360399D01*
X-11836814Y-16386814D01*
X-11810399Y-16419001D01*
X-11790774Y-16455716D01*
X-11778686Y-16495566D01*
X-11774000Y-16543141D01*
X-11774000Y-17206859D01*
X-11778686Y-17254434D01*
X-11790774Y-17294284D01*
X-11810399Y-17330999D01*
X-11836814Y-17363186D01*
X-11869001Y-17389601D01*
X-11905716Y-17409226D01*
X-11945566Y-17421314D01*
X-11993141Y-17426000D01*
X-13156859Y-17426000D01*
X-13204434Y-17421314D01*
X-13244284Y-17409226D01*
X-13280999Y-17389601D01*
X-13313186Y-17363186D01*
X-13339601Y-17330999D01*
X-13359226Y-17294284D01*
X-13371314Y-17254434D01*
X-13374604Y-17221032D01*
X-13379385Y-17196999D01*
X-13388762Y-17174360D01*
X-13402376Y-17153986D01*
X-13419703Y-17136659D01*
X-13440078Y-17123045D01*
X-13462717Y-17113668D01*
X-13486750Y-17108888D01*
X-13511254Y-17108888D01*
X-13535287Y-17113669D01*
X-13557926Y-17123046D01*
X-13578300Y-17136660D01*
X-13595627Y-17153987D01*
X-13609241Y-17174362D01*
X-13618618Y-17197001D01*
X-13624000Y-17233285D01*
X-13624000Y-17426000D01*
X-15226000Y-17426000D01*
X-15226000Y-16324000D01*
X-13624000Y-16324000D01*
X-13624000Y-16516715D01*
X-13624000Y-16516715D01*
G37*
G36*
X-124000Y-16516715D02*
G01*
X-121598Y-16541101D01*
X-114485Y-16564550D01*
X-102934Y-16586161D01*
X-87389Y-16605103D01*
X-68447Y-16620648D01*
X-46836Y-16632199D01*
X-23387Y-16639312D01*
X999Y-16641714D01*
X25385Y-16639312D01*
X48834Y-16632199D01*
X70445Y-16620648D01*
X89387Y-16605103D01*
X104932Y-16586161D01*
X116483Y-16564550D01*
X125396Y-16528968D01*
X128686Y-16495566D01*
X140774Y-16455716D01*
X160399Y-16419001D01*
X186814Y-16386814D01*
X219001Y-16360399D01*
X255716Y-16340774D01*
X295566Y-16328686D01*
X343141Y-16324000D01*
X1506859Y-16324000D01*
X1554434Y-16328686D01*
X1594284Y-16340774D01*
X1630999Y-16360399D01*
X1663186Y-16386814D01*
X1689601Y-16419001D01*
X1709226Y-16455716D01*
X1721314Y-16495566D01*
X1726000Y-16543141D01*
X1726000Y-17206859D01*
X1721314Y-17254434D01*
X1709226Y-17294284D01*
X1689601Y-17330999D01*
X1663186Y-17363186D01*
X1630999Y-17389601D01*
X1594284Y-17409226D01*
X1554434Y-17421314D01*
X1506859Y-17426000D01*
X343141Y-17426000D01*
X295566Y-17421314D01*
X255716Y-17409226D01*
X219001Y-17389601D01*
X186814Y-17363186D01*
X160399Y-17330999D01*
X140774Y-17294284D01*
X128686Y-17254434D01*
X125396Y-17221032D01*
X120615Y-17196999D01*
X111238Y-17174360D01*
X97624Y-17153986D01*
X80297Y-17136659D01*
X59922Y-17123045D01*
X37283Y-17113668D01*
X13250Y-17108888D01*
X-11254Y-17108888D01*
X-35287Y-17113669D01*
X-57926Y-17123046D01*
X-78300Y-17136660D01*
X-95627Y-17153987D01*
X-109241Y-17174362D01*
X-118618Y-17197001D01*
X-124000Y-17233285D01*
X-124000Y-17426000D01*
X-1726000Y-17426000D01*
X-1726000Y-16324000D01*
X-124000Y-16324000D01*
X-124000Y-16516715D01*
X-124000Y-16516715D01*
G37*
G36*
X-6874000Y-16516715D02*
G01*
X-6871598Y-16541101D01*
X-6864485Y-16564550D01*
X-6852934Y-16586161D01*
X-6837389Y-16605103D01*
X-6818447Y-16620648D01*
X-6796836Y-16632199D01*
X-6773387Y-16639312D01*
X-6749001Y-16641714D01*
X-6724615Y-16639312D01*
X-6701166Y-16632199D01*
X-6679555Y-16620648D01*
X-6660613Y-16605103D01*
X-6645068Y-16586161D01*
X-6633517Y-16564550D01*
X-6624604Y-16528968D01*
X-6621314Y-16495566D01*
X-6609226Y-16455716D01*
X-6589601Y-16419001D01*
X-6563186Y-16386814D01*
X-6530999Y-16360399D01*
X-6494284Y-16340774D01*
X-6454434Y-16328686D01*
X-6406859Y-16324000D01*
X-5243141Y-16324000D01*
X-5195566Y-16328686D01*
X-5155716Y-16340774D01*
X-5119001Y-16360399D01*
X-5086814Y-16386814D01*
X-5060399Y-16419001D01*
X-5040774Y-16455716D01*
X-5028686Y-16495566D01*
X-5024000Y-16543141D01*
X-5024000Y-17206859D01*
X-5028686Y-17254434D01*
X-5040774Y-17294284D01*
X-5060399Y-17330999D01*
X-5086814Y-17363186D01*
X-5119001Y-17389601D01*
X-5155716Y-17409226D01*
X-5195566Y-17421314D01*
X-5243141Y-17426000D01*
X-6406859Y-17426000D01*
X-6454434Y-17421314D01*
X-6494284Y-17409226D01*
X-6530999Y-17389601D01*
X-6563186Y-17363186D01*
X-6589601Y-17330999D01*
X-6609226Y-17294284D01*
X-6621314Y-17254434D01*
X-6624604Y-17221032D01*
X-6629385Y-17196999D01*
X-6638762Y-17174360D01*
X-6652376Y-17153986D01*
X-6669703Y-17136659D01*
X-6690078Y-17123045D01*
X-6712717Y-17113668D01*
X-6736750Y-17108888D01*
X-6761254Y-17108888D01*
X-6785287Y-17113669D01*
X-6807926Y-17123046D01*
X-6828300Y-17136660D01*
X-6845627Y-17153987D01*
X-6859241Y-17174362D01*
X-6868618Y-17197001D01*
X-6874000Y-17233285D01*
X-6874000Y-17426000D01*
X-8476000Y-17426000D01*
X-8476000Y-16324000D01*
X-6874000Y-16324000D01*
X-6874000Y-16516715D01*
X-6874000Y-16516715D01*
G37*
G36*
X26876000Y-17426000D02*
G01*
X25274000Y-17426000D01*
X25274000Y-16324000D01*
X26876000Y-16324000D01*
X26876000Y-17426000D01*
X26876000Y-17426000D01*
G37*
G36*
X-35446488Y-15613927D02*
G01*
X-35297188Y-15643624D01*
X-35133216Y-15711544D01*
X-34985646Y-15810147D01*
X-34860147Y-15935646D01*
X-34761544Y-16083216D01*
X-34693624Y-16247188D01*
X-34659000Y-16421259D01*
X-34659000Y-16598741D01*
X-34693624Y-16772812D01*
X-34761544Y-16936784D01*
X-34860147Y-17084354D01*
X-34985646Y-17209853D01*
X-35133216Y-17308456D01*
X-35297188Y-17376376D01*
X-35441240Y-17405029D01*
X-35471258Y-17411000D01*
X-35648742Y-17411000D01*
X-35678760Y-17405029D01*
X-35822812Y-17376376D01*
X-35986784Y-17308456D01*
X-36134354Y-17209853D01*
X-36259853Y-17084354D01*
X-36358456Y-16936784D01*
X-36426376Y-16772812D01*
X-36461000Y-16598741D01*
X-36461000Y-16421259D01*
X-36426376Y-16247188D01*
X-36358456Y-16083216D01*
X-36259853Y-15935646D01*
X-36134354Y-15810147D01*
X-35986784Y-15711544D01*
X-35822812Y-15643624D01*
X-35673512Y-15613927D01*
X-35648742Y-15609000D01*
X-35471258Y-15609000D01*
X-35446488Y-15613927D01*
X-35446488Y-15613927D01*
G37*
G36*
X35673512Y-15613927D02*
G01*
X35822812Y-15643624D01*
X35986784Y-15711544D01*
X36134354Y-15810147D01*
X36259853Y-15935646D01*
X36358456Y-16083216D01*
X36426376Y-16247188D01*
X36461000Y-16421259D01*
X36461000Y-16598741D01*
X36426376Y-16772812D01*
X36358456Y-16936784D01*
X36259853Y-17084354D01*
X36134354Y-17209853D01*
X35986784Y-17308456D01*
X35822812Y-17376376D01*
X35678760Y-17405029D01*
X35648742Y-17411000D01*
X35471258Y-17411000D01*
X35441240Y-17405029D01*
X35297188Y-17376376D01*
X35133216Y-17308456D01*
X34985646Y-17209853D01*
X34860147Y-17084354D01*
X34761544Y-16936784D01*
X34693624Y-16772812D01*
X34659000Y-16598741D01*
X34659000Y-16421259D01*
X34693624Y-16247188D01*
X34761544Y-16083216D01*
X34860147Y-15935646D01*
X34985646Y-15810147D01*
X35133216Y-15711544D01*
X35297188Y-15643624D01*
X35446488Y-15613927D01*
X35471258Y-15609000D01*
X35648742Y-15609000D01*
X35673512Y-15613927D01*
X35673512Y-15613927D01*
G37*
G36*
X28264591Y-16383085D02*
G01*
X28298569Y-16393393D01*
X28329890Y-16410134D01*
X28357339Y-16432661D01*
X28379866Y-16460110D01*
X28396607Y-16491431D01*
X28406915Y-16525409D01*
X28411000Y-16566890D01*
X28411000Y-17168110D01*
X28406915Y-17209591D01*
X28396607Y-17243569D01*
X28379866Y-17274890D01*
X28357339Y-17302339D01*
X28329890Y-17324866D01*
X28298569Y-17341607D01*
X28264591Y-17351915D01*
X28223110Y-17356000D01*
X27546890Y-17356000D01*
X27505409Y-17351915D01*
X27471431Y-17341607D01*
X27440110Y-17324866D01*
X27412661Y-17302339D01*
X27390134Y-17274890D01*
X27373393Y-17243569D01*
X27363085Y-17209591D01*
X27359000Y-17168110D01*
X27359000Y-16566890D01*
X27363085Y-16525409D01*
X27373393Y-16491431D01*
X27390134Y-16460110D01*
X27412661Y-16432661D01*
X27440110Y-16410134D01*
X27471431Y-16393393D01*
X27505409Y-16383085D01*
X27546890Y-16379000D01*
X28223110Y-16379000D01*
X28264591Y-16383085D01*
X28264591Y-16383085D01*
G37*
G36*
X-11774000Y-15826000D02*
G01*
X-15226000Y-15826000D01*
X-15226000Y-14724000D01*
X-11774000Y-14724000D01*
X-11774000Y-15826000D01*
X-11774000Y-15826000D01*
G37*
G36*
X15226000Y-15826000D02*
G01*
X11774000Y-15826000D01*
X11774000Y-14724000D01*
X15226000Y-14724000D01*
X15226000Y-15826000D01*
X15226000Y-15826000D01*
G37*
G36*
X1726000Y-15826000D02*
G01*
X-1726000Y-15826000D01*
X-1726000Y-14724000D01*
X1726000Y-14724000D01*
X1726000Y-15826000D01*
X1726000Y-15826000D01*
G37*
G36*
X-18524000Y-15826000D02*
G01*
X-21976000Y-15826000D01*
X-21976000Y-14724000D01*
X-18524000Y-14724000D01*
X-18524000Y-15826000D01*
X-18524000Y-15826000D01*
G37*
G36*
X-25274000Y-15826000D02*
G01*
X-26876000Y-15826000D01*
X-26876000Y-14724000D01*
X-25274000Y-14724000D01*
X-25274000Y-15826000D01*
X-25274000Y-15826000D01*
G37*
G36*
X-5024000Y-15826000D02*
G01*
X-8476000Y-15826000D01*
X-8476000Y-14724000D01*
X-5024000Y-14724000D01*
X-5024000Y-15826000D01*
X-5024000Y-15826000D01*
G37*
G36*
X26876000Y-15826000D02*
G01*
X25274000Y-15826000D01*
X25274000Y-14724000D01*
X26876000Y-14724000D01*
X26876000Y-15826000D01*
X26876000Y-15826000D01*
G37*
G36*
X8476000Y-15826000D02*
G01*
X5024000Y-15826000D01*
X5024000Y-14724000D01*
X8476000Y-14724000D01*
X8476000Y-15826000D01*
X8476000Y-15826000D01*
G37*
G36*
X21976000Y-15826000D02*
G01*
X18524000Y-15826000D01*
X18524000Y-14724000D01*
X21976000Y-14724000D01*
X21976000Y-15826000D01*
X21976000Y-15826000D01*
G37*
G36*
X28264591Y-14808085D02*
G01*
X28298569Y-14818393D01*
X28329890Y-14835134D01*
X28357339Y-14857661D01*
X28379866Y-14885110D01*
X28396607Y-14916431D01*
X28406915Y-14950409D01*
X28411000Y-14991890D01*
X28411000Y-15593110D01*
X28406915Y-15634591D01*
X28396607Y-15668569D01*
X28379866Y-15699890D01*
X28357339Y-15727339D01*
X28329890Y-15749866D01*
X28298569Y-15766607D01*
X28264591Y-15776915D01*
X28223110Y-15781000D01*
X27546890Y-15781000D01*
X27505409Y-15776915D01*
X27471431Y-15766607D01*
X27440110Y-15749866D01*
X27412661Y-15727339D01*
X27390134Y-15699890D01*
X27373393Y-15668569D01*
X27363085Y-15634591D01*
X27359000Y-15593110D01*
X27359000Y-14991890D01*
X27363085Y-14950409D01*
X27373393Y-14916431D01*
X27390134Y-14885110D01*
X27412661Y-14857661D01*
X27440110Y-14835134D01*
X27471431Y-14818393D01*
X27505409Y-14808085D01*
X27546890Y-14804000D01*
X28223110Y-14804000D01*
X28264591Y-14808085D01*
X28264591Y-14808085D01*
G37*
G36*
X35673512Y-13073927D02*
G01*
X35822812Y-13103624D01*
X35986784Y-13171544D01*
X36134354Y-13270147D01*
X36259853Y-13395646D01*
X36358456Y-13543216D01*
X36426376Y-13707188D01*
X36461000Y-13881259D01*
X36461000Y-14058741D01*
X36426376Y-14232812D01*
X36358456Y-14396784D01*
X36259853Y-14544354D01*
X36134354Y-14669853D01*
X35986784Y-14768456D01*
X35822812Y-14836376D01*
X35673512Y-14866073D01*
X35648742Y-14871000D01*
X35471258Y-14871000D01*
X35446488Y-14866073D01*
X35297188Y-14836376D01*
X35133216Y-14768456D01*
X34985646Y-14669853D01*
X34860147Y-14544354D01*
X34761544Y-14396784D01*
X34693624Y-14232812D01*
X34659000Y-14058741D01*
X34659000Y-13881259D01*
X34693624Y-13707188D01*
X34761544Y-13543216D01*
X34860147Y-13395646D01*
X34985646Y-13270147D01*
X35133216Y-13171544D01*
X35297188Y-13103624D01*
X35446488Y-13073927D01*
X35471258Y-13069000D01*
X35648742Y-13069000D01*
X35673512Y-13073927D01*
X35673512Y-13073927D01*
G37*
G36*
X-35446488Y-13073927D02*
G01*
X-35297188Y-13103624D01*
X-35133216Y-13171544D01*
X-34985646Y-13270147D01*
X-34860147Y-13395646D01*
X-34761544Y-13543216D01*
X-34693624Y-13707188D01*
X-34659000Y-13881259D01*
X-34659000Y-14058741D01*
X-34693624Y-14232812D01*
X-34761544Y-14396784D01*
X-34860147Y-14544354D01*
X-34985646Y-14669853D01*
X-35133216Y-14768456D01*
X-35297188Y-14836376D01*
X-35446488Y-14866073D01*
X-35471258Y-14871000D01*
X-35648742Y-14871000D01*
X-35673512Y-14866073D01*
X-35822812Y-14836376D01*
X-35986784Y-14768456D01*
X-36134354Y-14669853D01*
X-36259853Y-14544354D01*
X-36358456Y-14396784D01*
X-36426376Y-14232812D01*
X-36461000Y-14058741D01*
X-36461000Y-13881259D01*
X-36426376Y-13707188D01*
X-36358456Y-13543216D01*
X-36259853Y-13395646D01*
X-36134354Y-13270147D01*
X-35986784Y-13171544D01*
X-35822812Y-13103624D01*
X-35673512Y-13073927D01*
X-35648742Y-13069000D01*
X-35471258Y-13069000D01*
X-35446488Y-13073927D01*
X-35446488Y-13073927D01*
G37*
G36*
X35673512Y-10533927D02*
G01*
X35822812Y-10563624D01*
X35986784Y-10631544D01*
X36134354Y-10730147D01*
X36259853Y-10855646D01*
X36358456Y-11003216D01*
X36426376Y-11167188D01*
X36461000Y-11341259D01*
X36461000Y-11518741D01*
X36426376Y-11692812D01*
X36358456Y-11856784D01*
X36259853Y-12004354D01*
X36134354Y-12129853D01*
X35986784Y-12228456D01*
X35822812Y-12296376D01*
X35673512Y-12326073D01*
X35648742Y-12331000D01*
X35471258Y-12331000D01*
X35446488Y-12326073D01*
X35297188Y-12296376D01*
X35133216Y-12228456D01*
X34985646Y-12129853D01*
X34860147Y-12004354D01*
X34761544Y-11856784D01*
X34693624Y-11692812D01*
X34659000Y-11518741D01*
X34659000Y-11341259D01*
X34693624Y-11167188D01*
X34761544Y-11003216D01*
X34860147Y-10855646D01*
X34985646Y-10730147D01*
X35133216Y-10631544D01*
X35297188Y-10563624D01*
X35446488Y-10533927D01*
X35471258Y-10529000D01*
X35648742Y-10529000D01*
X35673512Y-10533927D01*
X35673512Y-10533927D01*
G37*
G36*
X-35446488Y-10533927D02*
G01*
X-35297188Y-10563624D01*
X-35133216Y-10631544D01*
X-34985646Y-10730147D01*
X-34860147Y-10855646D01*
X-34761544Y-11003216D01*
X-34693624Y-11167188D01*
X-34659000Y-11341259D01*
X-34659000Y-11518741D01*
X-34693624Y-11692812D01*
X-34761544Y-11856784D01*
X-34860147Y-12004354D01*
X-34985646Y-12129853D01*
X-35133216Y-12228456D01*
X-35297188Y-12296376D01*
X-35446488Y-12326073D01*
X-35471258Y-12331000D01*
X-35648742Y-12331000D01*
X-35673512Y-12326073D01*
X-35822812Y-12296376D01*
X-35986784Y-12228456D01*
X-36134354Y-12129853D01*
X-36259853Y-12004354D01*
X-36358456Y-11856784D01*
X-36426376Y-11692812D01*
X-36461000Y-11518741D01*
X-36461000Y-11341259D01*
X-36426376Y-11167188D01*
X-36358456Y-11003216D01*
X-36259853Y-10855646D01*
X-36134354Y-10730147D01*
X-35986784Y-10631544D01*
X-35822812Y-10563624D01*
X-35673512Y-10533927D01*
X-35648742Y-10529000D01*
X-35471258Y-10529000D01*
X-35446488Y-10533927D01*
X-35446488Y-10533927D01*
G37*
G36*
X15226000Y-12276000D02*
G01*
X11774000Y-12276000D01*
X11774000Y-11174000D01*
X15226000Y-11174000D01*
X15226000Y-12276000D01*
X15226000Y-12276000D01*
G37*
G36*
X1726000Y-12276000D02*
G01*
X-1726000Y-12276000D01*
X-1726000Y-11174000D01*
X1726000Y-11174000D01*
X1726000Y-12276000D01*
X1726000Y-12276000D01*
G37*
G36*
X26876000Y-12276000D02*
G01*
X25274000Y-12276000D01*
X25274000Y-11174000D01*
X26876000Y-11174000D01*
X26876000Y-12276000D01*
X26876000Y-12276000D01*
G37*
G36*
X8476000Y-12276000D02*
G01*
X5024000Y-12276000D01*
X5024000Y-11174000D01*
X8476000Y-11174000D01*
X8476000Y-12276000D01*
X8476000Y-12276000D01*
G37*
G36*
X21976000Y-12276000D02*
G01*
X18524000Y-12276000D01*
X18524000Y-11174000D01*
X21976000Y-11174000D01*
X21976000Y-12276000D01*
X21976000Y-12276000D01*
G37*
G36*
X-25274000Y-12276000D02*
G01*
X-26876000Y-12276000D01*
X-26876000Y-11174000D01*
X-25274000Y-11174000D01*
X-25274000Y-12276000D01*
X-25274000Y-12276000D01*
G37*
G36*
X-5024000Y-12276000D02*
G01*
X-8476000Y-12276000D01*
X-8476000Y-11174000D01*
X-5024000Y-11174000D01*
X-5024000Y-12276000D01*
X-5024000Y-12276000D01*
G37*
G36*
X-18524000Y-12276000D02*
G01*
X-21976000Y-12276000D01*
X-21976000Y-11174000D01*
X-18524000Y-11174000D01*
X-18524000Y-12276000D01*
X-18524000Y-12276000D01*
G37*
G36*
X-11774000Y-12276000D02*
G01*
X-15226000Y-12276000D01*
X-15226000Y-11174000D01*
X-11774000Y-11174000D01*
X-11774000Y-12276000D01*
X-11774000Y-12276000D01*
G37*
G36*
X-13624000Y-9766715D02*
G01*
X-13621598Y-9791101D01*
X-13614485Y-9814550D01*
X-13602934Y-9836161D01*
X-13587389Y-9855103D01*
X-13568447Y-9870648D01*
X-13546836Y-9882199D01*
X-13523387Y-9889312D01*
X-13499001Y-9891714D01*
X-13474615Y-9889312D01*
X-13451166Y-9882199D01*
X-13429555Y-9870648D01*
X-13410613Y-9855103D01*
X-13395068Y-9836161D01*
X-13383517Y-9814550D01*
X-13374604Y-9778968D01*
X-13371314Y-9745566D01*
X-13359226Y-9705716D01*
X-13339601Y-9669001D01*
X-13313186Y-9636814D01*
X-13280999Y-9610399D01*
X-13244284Y-9590774D01*
X-13204434Y-9578686D01*
X-13156859Y-9574000D01*
X-11993141Y-9574000D01*
X-11945566Y-9578686D01*
X-11905716Y-9590774D01*
X-11869001Y-9610399D01*
X-11836814Y-9636814D01*
X-11810399Y-9669001D01*
X-11790774Y-9705716D01*
X-11778686Y-9745566D01*
X-11774000Y-9793141D01*
X-11774000Y-10456859D01*
X-11778686Y-10504434D01*
X-11790774Y-10544284D01*
X-11810399Y-10580999D01*
X-11836814Y-10613186D01*
X-11869001Y-10639601D01*
X-11905716Y-10659226D01*
X-11945566Y-10671314D01*
X-11993141Y-10676000D01*
X-13156859Y-10676000D01*
X-13204434Y-10671314D01*
X-13244284Y-10659226D01*
X-13280999Y-10639601D01*
X-13313186Y-10613186D01*
X-13339601Y-10580999D01*
X-13359226Y-10544284D01*
X-13371314Y-10504434D01*
X-13374604Y-10471032D01*
X-13379385Y-10446999D01*
X-13388762Y-10424360D01*
X-13402376Y-10403986D01*
X-13419703Y-10386659D01*
X-13440078Y-10373045D01*
X-13462717Y-10363668D01*
X-13486750Y-10358888D01*
X-13511254Y-10358888D01*
X-13535287Y-10363669D01*
X-13557926Y-10373046D01*
X-13578300Y-10386660D01*
X-13595627Y-10403987D01*
X-13609241Y-10424362D01*
X-13618618Y-10447001D01*
X-13624000Y-10483285D01*
X-13624000Y-10676000D01*
X-15226000Y-10676000D01*
X-15226000Y-9574000D01*
X-13624000Y-9574000D01*
X-13624000Y-9766715D01*
X-13624000Y-9766715D01*
G37*
G36*
X-20374000Y-9766715D02*
G01*
X-20371598Y-9791101D01*
X-20364485Y-9814550D01*
X-20352934Y-9836161D01*
X-20337389Y-9855103D01*
X-20318447Y-9870648D01*
X-20296836Y-9882199D01*
X-20273387Y-9889312D01*
X-20249001Y-9891714D01*
X-20224615Y-9889312D01*
X-20201166Y-9882199D01*
X-20179555Y-9870648D01*
X-20160613Y-9855103D01*
X-20145068Y-9836161D01*
X-20133517Y-9814550D01*
X-20124604Y-9778968D01*
X-20121314Y-9745566D01*
X-20109226Y-9705716D01*
X-20089601Y-9669001D01*
X-20063186Y-9636814D01*
X-20030999Y-9610399D01*
X-19994284Y-9590774D01*
X-19954434Y-9578686D01*
X-19906859Y-9574000D01*
X-18743141Y-9574000D01*
X-18695566Y-9578686D01*
X-18655716Y-9590774D01*
X-18619001Y-9610399D01*
X-18586814Y-9636814D01*
X-18560399Y-9669001D01*
X-18540774Y-9705716D01*
X-18528686Y-9745566D01*
X-18524000Y-9793141D01*
X-18524000Y-10456859D01*
X-18528686Y-10504434D01*
X-18540774Y-10544284D01*
X-18560399Y-10580999D01*
X-18586814Y-10613186D01*
X-18619001Y-10639601D01*
X-18655716Y-10659226D01*
X-18695566Y-10671314D01*
X-18743141Y-10676000D01*
X-19906859Y-10676000D01*
X-19954434Y-10671314D01*
X-19994284Y-10659226D01*
X-20030999Y-10639601D01*
X-20063186Y-10613186D01*
X-20089601Y-10580999D01*
X-20109226Y-10544284D01*
X-20121314Y-10504434D01*
X-20124604Y-10471032D01*
X-20129385Y-10446999D01*
X-20138762Y-10424360D01*
X-20152376Y-10403986D01*
X-20169703Y-10386659D01*
X-20190078Y-10373045D01*
X-20212717Y-10363668D01*
X-20236750Y-10358888D01*
X-20261254Y-10358888D01*
X-20285287Y-10363669D01*
X-20307926Y-10373046D01*
X-20328300Y-10386660D01*
X-20345627Y-10403987D01*
X-20359241Y-10424362D01*
X-20368618Y-10447001D01*
X-20374000Y-10483285D01*
X-20374000Y-10676000D01*
X-21976000Y-10676000D01*
X-21976000Y-9574000D01*
X-20374000Y-9574000D01*
X-20374000Y-9766715D01*
X-20374000Y-9766715D01*
G37*
G36*
X26876000Y-10676000D02*
G01*
X25274000Y-10676000D01*
X25274000Y-9574000D01*
X26876000Y-9574000D01*
X26876000Y-10676000D01*
X26876000Y-10676000D01*
G37*
G36*
X-6874000Y-9766715D02*
G01*
X-6871598Y-9791101D01*
X-6864485Y-9814550D01*
X-6852934Y-9836161D01*
X-6837389Y-9855103D01*
X-6818447Y-9870648D01*
X-6796836Y-9882199D01*
X-6773387Y-9889312D01*
X-6749001Y-9891714D01*
X-6724615Y-9889312D01*
X-6701166Y-9882199D01*
X-6679555Y-9870648D01*
X-6660613Y-9855103D01*
X-6645068Y-9836161D01*
X-6633517Y-9814550D01*
X-6624604Y-9778968D01*
X-6621314Y-9745566D01*
X-6609226Y-9705716D01*
X-6589601Y-9669001D01*
X-6563186Y-9636814D01*
X-6530999Y-9610399D01*
X-6494284Y-9590774D01*
X-6454434Y-9578686D01*
X-6406859Y-9574000D01*
X-5243141Y-9574000D01*
X-5195566Y-9578686D01*
X-5155716Y-9590774D01*
X-5119001Y-9610399D01*
X-5086814Y-9636814D01*
X-5060399Y-9669001D01*
X-5040774Y-9705716D01*
X-5028686Y-9745566D01*
X-5024000Y-9793141D01*
X-5024000Y-10456859D01*
X-5028686Y-10504434D01*
X-5040774Y-10544284D01*
X-5060399Y-10580999D01*
X-5086814Y-10613186D01*
X-5119001Y-10639601D01*
X-5155716Y-10659226D01*
X-5195566Y-10671314D01*
X-5243141Y-10676000D01*
X-6406859Y-10676000D01*
X-6454434Y-10671314D01*
X-6494284Y-10659226D01*
X-6530999Y-10639601D01*
X-6563186Y-10613186D01*
X-6589601Y-10580999D01*
X-6609226Y-10544284D01*
X-6621314Y-10504434D01*
X-6624604Y-10471032D01*
X-6629385Y-10446999D01*
X-6638762Y-10424360D01*
X-6652376Y-10403986D01*
X-6669703Y-10386659D01*
X-6690078Y-10373045D01*
X-6712717Y-10363668D01*
X-6736750Y-10358888D01*
X-6761254Y-10358888D01*
X-6785287Y-10363669D01*
X-6807926Y-10373046D01*
X-6828300Y-10386660D01*
X-6845627Y-10403987D01*
X-6859241Y-10424362D01*
X-6868618Y-10447001D01*
X-6874000Y-10483285D01*
X-6874000Y-10676000D01*
X-8476000Y-10676000D01*
X-8476000Y-9574000D01*
X-6874000Y-9574000D01*
X-6874000Y-9766715D01*
X-6874000Y-9766715D01*
G37*
G36*
X20126000Y-9766715D02*
G01*
X20128402Y-9791101D01*
X20135515Y-9814550D01*
X20147066Y-9836161D01*
X20162611Y-9855103D01*
X20181553Y-9870648D01*
X20203164Y-9882199D01*
X20226613Y-9889312D01*
X20250999Y-9891714D01*
X20275385Y-9889312D01*
X20298834Y-9882199D01*
X20320445Y-9870648D01*
X20339387Y-9855103D01*
X20354932Y-9836161D01*
X20366483Y-9814550D01*
X20375396Y-9778968D01*
X20378686Y-9745566D01*
X20390774Y-9705716D01*
X20410399Y-9669001D01*
X20436814Y-9636814D01*
X20469001Y-9610399D01*
X20505716Y-9590774D01*
X20545566Y-9578686D01*
X20593141Y-9574000D01*
X21756859Y-9574000D01*
X21804434Y-9578686D01*
X21844284Y-9590774D01*
X21880999Y-9610399D01*
X21913186Y-9636814D01*
X21939601Y-9669001D01*
X21959226Y-9705716D01*
X21971314Y-9745566D01*
X21976000Y-9793141D01*
X21976000Y-10456859D01*
X21971314Y-10504434D01*
X21959226Y-10544284D01*
X21939601Y-10580999D01*
X21913186Y-10613186D01*
X21880999Y-10639601D01*
X21844284Y-10659226D01*
X21804434Y-10671314D01*
X21756859Y-10676000D01*
X20593141Y-10676000D01*
X20545566Y-10671314D01*
X20505716Y-10659226D01*
X20469001Y-10639601D01*
X20436814Y-10613186D01*
X20410399Y-10580999D01*
X20390774Y-10544284D01*
X20378686Y-10504434D01*
X20375396Y-10471032D01*
X20370615Y-10446999D01*
X20361238Y-10424360D01*
X20347624Y-10403986D01*
X20330297Y-10386659D01*
X20309922Y-10373045D01*
X20287283Y-10363668D01*
X20263250Y-10358888D01*
X20238746Y-10358888D01*
X20214713Y-10363669D01*
X20192074Y-10373046D01*
X20171700Y-10386660D01*
X20154373Y-10403987D01*
X20140759Y-10424362D01*
X20131382Y-10447001D01*
X20126000Y-10483285D01*
X20126000Y-10676000D01*
X18524000Y-10676000D01*
X18524000Y-9574000D01*
X20126000Y-9574000D01*
X20126000Y-9766715D01*
X20126000Y-9766715D01*
G37*
G36*
X-25445566Y-9578686D02*
G01*
X-25405716Y-9590774D01*
X-25369001Y-9610399D01*
X-25336814Y-9636814D01*
X-25310399Y-9669001D01*
X-25290774Y-9705716D01*
X-25278686Y-9745566D01*
X-25274000Y-9793141D01*
X-25274000Y-10456859D01*
X-25278686Y-10504434D01*
X-25290774Y-10544284D01*
X-25310399Y-10580999D01*
X-25336814Y-10613186D01*
X-25369001Y-10639601D01*
X-25405716Y-10659226D01*
X-25445566Y-10671314D01*
X-25493141Y-10676000D01*
X-26656859Y-10676000D01*
X-26704434Y-10671314D01*
X-26744284Y-10659226D01*
X-26780999Y-10639601D01*
X-26813186Y-10613186D01*
X-26839601Y-10580999D01*
X-26859226Y-10544284D01*
X-26871314Y-10504434D01*
X-26876000Y-10456859D01*
X-26876000Y-9793141D01*
X-26871314Y-9745566D01*
X-26859226Y-9705716D01*
X-26839601Y-9669001D01*
X-26813186Y-9636814D01*
X-26780999Y-9610399D01*
X-26744284Y-9590774D01*
X-26704434Y-9578686D01*
X-26656859Y-9574000D01*
X-25493141Y-9574000D01*
X-25445566Y-9578686D01*
X-25445566Y-9578686D01*
G37*
G36*
X13376000Y-9766715D02*
G01*
X13378402Y-9791101D01*
X13385515Y-9814550D01*
X13397066Y-9836161D01*
X13412611Y-9855103D01*
X13431553Y-9870648D01*
X13453164Y-9882199D01*
X13476613Y-9889312D01*
X13500999Y-9891714D01*
X13525385Y-9889312D01*
X13548834Y-9882199D01*
X13570445Y-9870648D01*
X13589387Y-9855103D01*
X13604932Y-9836161D01*
X13616483Y-9814550D01*
X13625396Y-9778968D01*
X13628686Y-9745566D01*
X13640774Y-9705716D01*
X13660399Y-9669001D01*
X13686814Y-9636814D01*
X13719001Y-9610399D01*
X13755716Y-9590774D01*
X13795566Y-9578686D01*
X13843141Y-9574000D01*
X15006859Y-9574000D01*
X15054434Y-9578686D01*
X15094284Y-9590774D01*
X15130999Y-9610399D01*
X15163186Y-9636814D01*
X15189601Y-9669001D01*
X15209226Y-9705716D01*
X15221314Y-9745566D01*
X15226000Y-9793141D01*
X15226000Y-10456859D01*
X15221314Y-10504434D01*
X15209226Y-10544284D01*
X15189601Y-10580999D01*
X15163186Y-10613186D01*
X15130999Y-10639601D01*
X15094284Y-10659226D01*
X15054434Y-10671314D01*
X15006859Y-10676000D01*
X13843141Y-10676000D01*
X13795566Y-10671314D01*
X13755716Y-10659226D01*
X13719001Y-10639601D01*
X13686814Y-10613186D01*
X13660399Y-10580999D01*
X13640774Y-10544284D01*
X13628686Y-10504434D01*
X13625396Y-10471032D01*
X13620615Y-10446999D01*
X13611238Y-10424360D01*
X13597624Y-10403986D01*
X13580297Y-10386659D01*
X13559922Y-10373045D01*
X13537283Y-10363668D01*
X13513250Y-10358888D01*
X13488746Y-10358888D01*
X13464713Y-10363669D01*
X13442074Y-10373046D01*
X13421700Y-10386660D01*
X13404373Y-10403987D01*
X13390759Y-10424362D01*
X13381382Y-10447001D01*
X13376000Y-10483285D01*
X13376000Y-10676000D01*
X11774000Y-10676000D01*
X11774000Y-9574000D01*
X13376000Y-9574000D01*
X13376000Y-9766715D01*
X13376000Y-9766715D01*
G37*
G36*
X6626000Y-9766715D02*
G01*
X6628402Y-9791101D01*
X6635515Y-9814550D01*
X6647066Y-9836161D01*
X6662611Y-9855103D01*
X6681553Y-9870648D01*
X6703164Y-9882199D01*
X6726613Y-9889312D01*
X6750999Y-9891714D01*
X6775385Y-9889312D01*
X6798834Y-9882199D01*
X6820445Y-9870648D01*
X6839387Y-9855103D01*
X6854932Y-9836161D01*
X6866483Y-9814550D01*
X6875396Y-9778968D01*
X6878686Y-9745566D01*
X6890774Y-9705716D01*
X6910399Y-9669001D01*
X6936814Y-9636814D01*
X6969001Y-9610399D01*
X7005716Y-9590774D01*
X7045566Y-9578686D01*
X7093141Y-9574000D01*
X8256859Y-9574000D01*
X8304434Y-9578686D01*
X8344284Y-9590774D01*
X8380999Y-9610399D01*
X8413186Y-9636814D01*
X8439601Y-9669001D01*
X8459226Y-9705716D01*
X8471314Y-9745566D01*
X8476000Y-9793141D01*
X8476000Y-10456859D01*
X8471314Y-10504434D01*
X8459226Y-10544284D01*
X8439601Y-10580999D01*
X8413186Y-10613186D01*
X8380999Y-10639601D01*
X8344284Y-10659226D01*
X8304434Y-10671314D01*
X8256859Y-10676000D01*
X7093141Y-10676000D01*
X7045566Y-10671314D01*
X7005716Y-10659226D01*
X6969001Y-10639601D01*
X6936814Y-10613186D01*
X6910399Y-10580999D01*
X6890774Y-10544284D01*
X6878686Y-10504434D01*
X6875396Y-10471032D01*
X6870615Y-10446999D01*
X6861238Y-10424360D01*
X6847624Y-10403986D01*
X6830297Y-10386659D01*
X6809922Y-10373045D01*
X6787283Y-10363668D01*
X6763250Y-10358888D01*
X6738746Y-10358888D01*
X6714713Y-10363669D01*
X6692074Y-10373046D01*
X6671700Y-10386660D01*
X6654373Y-10403987D01*
X6640759Y-10424362D01*
X6631382Y-10447001D01*
X6626000Y-10483285D01*
X6626000Y-10676000D01*
X5024000Y-10676000D01*
X5024000Y-9574000D01*
X6626000Y-9574000D01*
X6626000Y-9766715D01*
X6626000Y-9766715D01*
G37*
G36*
X-124000Y-9766715D02*
G01*
X-121598Y-9791101D01*
X-114485Y-9814550D01*
X-102934Y-9836161D01*
X-87389Y-9855103D01*
X-68447Y-9870648D01*
X-46836Y-9882199D01*
X-23387Y-9889312D01*
X999Y-9891714D01*
X25385Y-9889312D01*
X48834Y-9882199D01*
X70445Y-9870648D01*
X89387Y-9855103D01*
X104932Y-9836161D01*
X116483Y-9814550D01*
X125396Y-9778968D01*
X128686Y-9745566D01*
X140774Y-9705716D01*
X160399Y-9669001D01*
X186814Y-9636814D01*
X219001Y-9610399D01*
X255716Y-9590774D01*
X295566Y-9578686D01*
X343141Y-9574000D01*
X1506859Y-9574000D01*
X1554434Y-9578686D01*
X1594284Y-9590774D01*
X1630999Y-9610399D01*
X1663186Y-9636814D01*
X1689601Y-9669001D01*
X1709226Y-9705716D01*
X1721314Y-9745566D01*
X1726000Y-9793141D01*
X1726000Y-10456859D01*
X1721314Y-10504434D01*
X1709226Y-10544284D01*
X1689601Y-10580999D01*
X1663186Y-10613186D01*
X1630999Y-10639601D01*
X1594284Y-10659226D01*
X1554434Y-10671314D01*
X1506859Y-10676000D01*
X343141Y-10676000D01*
X295566Y-10671314D01*
X255716Y-10659226D01*
X219001Y-10639601D01*
X186814Y-10613186D01*
X160399Y-10580999D01*
X140774Y-10544284D01*
X128686Y-10504434D01*
X125396Y-10471032D01*
X120615Y-10446999D01*
X111238Y-10424360D01*
X97624Y-10403986D01*
X80297Y-10386659D01*
X59922Y-10373045D01*
X37283Y-10363668D01*
X13250Y-10358888D01*
X-11254Y-10358888D01*
X-35287Y-10363669D01*
X-57926Y-10373046D01*
X-78300Y-10386660D01*
X-95627Y-10403987D01*
X-109241Y-10424362D01*
X-118618Y-10447001D01*
X-124000Y-10483285D01*
X-124000Y-10676000D01*
X-1726000Y-10676000D01*
X-1726000Y-9574000D01*
X-124000Y-9574000D01*
X-124000Y-9766715D01*
X-124000Y-9766715D01*
G37*
G36*
X28274591Y-9643085D02*
G01*
X28308569Y-9653393D01*
X28339890Y-9670134D01*
X28367339Y-9692661D01*
X28389866Y-9720110D01*
X28406607Y-9751431D01*
X28416915Y-9785409D01*
X28421000Y-9826890D01*
X28421000Y-10428110D01*
X28416915Y-10469591D01*
X28406607Y-10503569D01*
X28389866Y-10534890D01*
X28367339Y-10562339D01*
X28339890Y-10584866D01*
X28308569Y-10601607D01*
X28274591Y-10611915D01*
X28233110Y-10616000D01*
X27556890Y-10616000D01*
X27515409Y-10611915D01*
X27481431Y-10601607D01*
X27450110Y-10584866D01*
X27422661Y-10562339D01*
X27400134Y-10534890D01*
X27383393Y-10503569D01*
X27373085Y-10469591D01*
X27369000Y-10428110D01*
X27369000Y-9826890D01*
X27373085Y-9785409D01*
X27383393Y-9751431D01*
X27400134Y-9720110D01*
X27422661Y-9692661D01*
X27450110Y-9670134D01*
X27481431Y-9653393D01*
X27515409Y-9643085D01*
X27556890Y-9639000D01*
X28233110Y-9639000D01*
X28274591Y-9643085D01*
X28274591Y-9643085D01*
G37*
G36*
X35673512Y-7993927D02*
G01*
X35822812Y-8023624D01*
X35986784Y-8091544D01*
X36134354Y-8190147D01*
X36259853Y-8315646D01*
X36358456Y-8463216D01*
X36426376Y-8627188D01*
X36461000Y-8801259D01*
X36461000Y-8978741D01*
X36426376Y-9152812D01*
X36358456Y-9316784D01*
X36259853Y-9464354D01*
X36134354Y-9589853D01*
X35986784Y-9688456D01*
X35822812Y-9756376D01*
X35673512Y-9786073D01*
X35648742Y-9791000D01*
X35471258Y-9791000D01*
X35446488Y-9786073D01*
X35297188Y-9756376D01*
X35133216Y-9688456D01*
X34985646Y-9589853D01*
X34860147Y-9464354D01*
X34761544Y-9316784D01*
X34693624Y-9152812D01*
X34659000Y-8978741D01*
X34659000Y-8801259D01*
X34693624Y-8627188D01*
X34761544Y-8463216D01*
X34860147Y-8315646D01*
X34985646Y-8190147D01*
X35133216Y-8091544D01*
X35297188Y-8023624D01*
X35446488Y-7993927D01*
X35471258Y-7989000D01*
X35648742Y-7989000D01*
X35673512Y-7993927D01*
X35673512Y-7993927D01*
G37*
G36*
X-35446488Y-7993927D02*
G01*
X-35297188Y-8023624D01*
X-35133216Y-8091544D01*
X-34985646Y-8190147D01*
X-34860147Y-8315646D01*
X-34761544Y-8463216D01*
X-34693624Y-8627188D01*
X-34659000Y-8801259D01*
X-34659000Y-8978741D01*
X-34693624Y-9152812D01*
X-34761544Y-9316784D01*
X-34860147Y-9464354D01*
X-34985646Y-9589853D01*
X-35133216Y-9688456D01*
X-35297188Y-9756376D01*
X-35446488Y-9786073D01*
X-35471258Y-9791000D01*
X-35648742Y-9791000D01*
X-35673512Y-9786073D01*
X-35822812Y-9756376D01*
X-35986784Y-9688456D01*
X-36134354Y-9589853D01*
X-36259853Y-9464354D01*
X-36358456Y-9316784D01*
X-36426376Y-9152812D01*
X-36461000Y-8978741D01*
X-36461000Y-8801259D01*
X-36426376Y-8627188D01*
X-36358456Y-8463216D01*
X-36259853Y-8315646D01*
X-36134354Y-8190147D01*
X-35986784Y-8091544D01*
X-35822812Y-8023624D01*
X-35673512Y-7993927D01*
X-35648742Y-7989000D01*
X-35471258Y-7989000D01*
X-35446488Y-7993927D01*
X-35446488Y-7993927D01*
G37*
G36*
X8476000Y-9076000D02*
G01*
X5024000Y-9076000D01*
X5024000Y-7974000D01*
X8476000Y-7974000D01*
X8476000Y-9076000D01*
X8476000Y-9076000D01*
G37*
G36*
X1726000Y-9076000D02*
G01*
X-1726000Y-9076000D01*
X-1726000Y-7974000D01*
X1726000Y-7974000D01*
X1726000Y-9076000D01*
X1726000Y-9076000D01*
G37*
G36*
X15226000Y-9076000D02*
G01*
X11774000Y-9076000D01*
X11774000Y-7974000D01*
X15226000Y-7974000D01*
X15226000Y-9076000D01*
X15226000Y-9076000D01*
G37*
G36*
X21976000Y-9076000D02*
G01*
X18524000Y-9076000D01*
X18524000Y-7974000D01*
X21976000Y-7974000D01*
X21976000Y-9076000D01*
X21976000Y-9076000D01*
G37*
G36*
X-5024000Y-9076000D02*
G01*
X-8476000Y-9076000D01*
X-8476000Y-7974000D01*
X-5024000Y-7974000D01*
X-5024000Y-9076000D01*
X-5024000Y-9076000D01*
G37*
G36*
X26876000Y-9076000D02*
G01*
X25274000Y-9076000D01*
X25274000Y-7974000D01*
X26876000Y-7974000D01*
X26876000Y-9076000D01*
X26876000Y-9076000D01*
G37*
G36*
X-11774000Y-9076000D02*
G01*
X-15226000Y-9076000D01*
X-15226000Y-7974000D01*
X-11774000Y-7974000D01*
X-11774000Y-9076000D01*
X-11774000Y-9076000D01*
G37*
G36*
X-18524000Y-9076000D02*
G01*
X-21976000Y-9076000D01*
X-21976000Y-7974000D01*
X-18524000Y-7974000D01*
X-18524000Y-9076000D01*
X-18524000Y-9076000D01*
G37*
G36*
X-25274000Y-9076000D02*
G01*
X-26876000Y-9076000D01*
X-26876000Y-7974000D01*
X-25274000Y-7974000D01*
X-25274000Y-9076000D01*
X-25274000Y-9076000D01*
G37*
G36*
X28274591Y-8068085D02*
G01*
X28308569Y-8078393D01*
X28339890Y-8095134D01*
X28367339Y-8117661D01*
X28389866Y-8145110D01*
X28406607Y-8176431D01*
X28416915Y-8210409D01*
X28421000Y-8251890D01*
X28421000Y-8853110D01*
X28416915Y-8894591D01*
X28406607Y-8928569D01*
X28389866Y-8959890D01*
X28367339Y-8987339D01*
X28339890Y-9009866D01*
X28308569Y-9026607D01*
X28274591Y-9036915D01*
X28233110Y-9041000D01*
X27556890Y-9041000D01*
X27515409Y-9036915D01*
X27481431Y-9026607D01*
X27450110Y-9009866D01*
X27422661Y-8987339D01*
X27400134Y-8959890D01*
X27383393Y-8928569D01*
X27373085Y-8894591D01*
X27369000Y-8853110D01*
X27369000Y-8251890D01*
X27373085Y-8210409D01*
X27383393Y-8176431D01*
X27400134Y-8145110D01*
X27422661Y-8117661D01*
X27450110Y-8095134D01*
X27481431Y-8078393D01*
X27515409Y-8068085D01*
X27556890Y-8064000D01*
X28233110Y-8064000D01*
X28274591Y-8068085D01*
X28274591Y-8068085D01*
G37*
G36*
X35673512Y-5453927D02*
G01*
X35822812Y-5483624D01*
X35986784Y-5551544D01*
X36134354Y-5650147D01*
X36259853Y-5775646D01*
X36358456Y-5923216D01*
X36426376Y-6087188D01*
X36461000Y-6261259D01*
X36461000Y-6438741D01*
X36426376Y-6612812D01*
X36358456Y-6776784D01*
X36259853Y-6924354D01*
X36134354Y-7049853D01*
X35986784Y-7148456D01*
X35822812Y-7216376D01*
X35673512Y-7246073D01*
X35648742Y-7251000D01*
X35471258Y-7251000D01*
X35446488Y-7246073D01*
X35297188Y-7216376D01*
X35133216Y-7148456D01*
X34985646Y-7049853D01*
X34860147Y-6924354D01*
X34761544Y-6776784D01*
X34693624Y-6612812D01*
X34659000Y-6438741D01*
X34659000Y-6261259D01*
X34693624Y-6087188D01*
X34761544Y-5923216D01*
X34860147Y-5775646D01*
X34985646Y-5650147D01*
X35133216Y-5551544D01*
X35297188Y-5483624D01*
X35446488Y-5453927D01*
X35471258Y-5449000D01*
X35648742Y-5449000D01*
X35673512Y-5453927D01*
X35673512Y-5453927D01*
G37*
G36*
X-35446488Y-5453927D02*
G01*
X-35297188Y-5483624D01*
X-35133216Y-5551544D01*
X-34985646Y-5650147D01*
X-34860147Y-5775646D01*
X-34761544Y-5923216D01*
X-34693624Y-6087188D01*
X-34659000Y-6261259D01*
X-34659000Y-6438741D01*
X-34693624Y-6612812D01*
X-34761544Y-6776784D01*
X-34860147Y-6924354D01*
X-34985646Y-7049853D01*
X-35133216Y-7148456D01*
X-35297188Y-7216376D01*
X-35446488Y-7246073D01*
X-35471258Y-7251000D01*
X-35648742Y-7251000D01*
X-35673512Y-7246073D01*
X-35822812Y-7216376D01*
X-35986784Y-7148456D01*
X-36134354Y-7049853D01*
X-36259853Y-6924354D01*
X-36358456Y-6776784D01*
X-36426376Y-6612812D01*
X-36461000Y-6438741D01*
X-36461000Y-6261259D01*
X-36426376Y-6087188D01*
X-36358456Y-5923216D01*
X-36259853Y-5775646D01*
X-36134354Y-5650147D01*
X-35986784Y-5551544D01*
X-35822812Y-5483624D01*
X-35673512Y-5453927D01*
X-35648742Y-5449000D01*
X-35471258Y-5449000D01*
X-35446488Y-5453927D01*
X-35446488Y-5453927D01*
G37*
G36*
X1726000Y-5526000D02*
G01*
X-1726000Y-5526000D01*
X-1726000Y-4424000D01*
X1726000Y-4424000D01*
X1726000Y-5526000D01*
X1726000Y-5526000D01*
G37*
G36*
X-5024000Y-5526000D02*
G01*
X-8476000Y-5526000D01*
X-8476000Y-4424000D01*
X-5024000Y-4424000D01*
X-5024000Y-5526000D01*
X-5024000Y-5526000D01*
G37*
G36*
X-11774000Y-5526000D02*
G01*
X-15226000Y-5526000D01*
X-15226000Y-4424000D01*
X-11774000Y-4424000D01*
X-11774000Y-5526000D01*
X-11774000Y-5526000D01*
G37*
G36*
X8476000Y-5526000D02*
G01*
X5024000Y-5526000D01*
X5024000Y-4424000D01*
X8476000Y-4424000D01*
X8476000Y-5526000D01*
X8476000Y-5526000D01*
G37*
G36*
X15226000Y-5526000D02*
G01*
X11774000Y-5526000D01*
X11774000Y-4424000D01*
X15226000Y-4424000D01*
X15226000Y-5526000D01*
X15226000Y-5526000D01*
G37*
G36*
X21976000Y-5526000D02*
G01*
X18524000Y-5526000D01*
X18524000Y-4424000D01*
X21976000Y-4424000D01*
X21976000Y-5526000D01*
X21976000Y-5526000D01*
G37*
G36*
X26876000Y-5526000D02*
G01*
X25274000Y-5526000D01*
X25274000Y-4424000D01*
X26876000Y-4424000D01*
X26876000Y-5526000D01*
X26876000Y-5526000D01*
G37*
G36*
X-25274000Y-5526000D02*
G01*
X-26876000Y-5526000D01*
X-26876000Y-4424000D01*
X-25274000Y-4424000D01*
X-25274000Y-5526000D01*
X-25274000Y-5526000D01*
G37*
G36*
X-18524000Y-5526000D02*
G01*
X-21976000Y-5526000D01*
X-21976000Y-4424000D01*
X-18524000Y-4424000D01*
X-18524000Y-5526000D01*
X-18524000Y-5526000D01*
G37*
G36*
X-35446488Y-2913927D02*
G01*
X-35297188Y-2943624D01*
X-35133216Y-3011544D01*
X-34985646Y-3110147D01*
X-34860147Y-3235646D01*
X-34761544Y-3383216D01*
X-34693624Y-3547188D01*
X-34672381Y-3653986D01*
X-34659000Y-3721258D01*
X-34659000Y-3898742D01*
X-34663369Y-3920706D01*
X-34693624Y-4072812D01*
X-34761544Y-4236784D01*
X-34860147Y-4384354D01*
X-34985646Y-4509853D01*
X-35133216Y-4608456D01*
X-35297188Y-4676376D01*
X-35446488Y-4706073D01*
X-35471258Y-4711000D01*
X-35648742Y-4711000D01*
X-35673512Y-4706073D01*
X-35822812Y-4676376D01*
X-35986784Y-4608456D01*
X-36134354Y-4509853D01*
X-36259853Y-4384354D01*
X-36358456Y-4236784D01*
X-36426376Y-4072812D01*
X-36456631Y-3920706D01*
X-36461000Y-3898742D01*
X-36461000Y-3721258D01*
X-36447619Y-3653986D01*
X-36426376Y-3547188D01*
X-36358456Y-3383216D01*
X-36259853Y-3235646D01*
X-36134354Y-3110147D01*
X-35986784Y-3011544D01*
X-35822812Y-2943624D01*
X-35673512Y-2913927D01*
X-35648742Y-2909000D01*
X-35471258Y-2909000D01*
X-35446488Y-2913927D01*
X-35446488Y-2913927D01*
G37*
G36*
X35673512Y-2913927D02*
G01*
X35822812Y-2943624D01*
X35986784Y-3011544D01*
X36134354Y-3110147D01*
X36259853Y-3235646D01*
X36358456Y-3383216D01*
X36426376Y-3547188D01*
X36447619Y-3653986D01*
X36461000Y-3721258D01*
X36461000Y-3898742D01*
X36456631Y-3920706D01*
X36426376Y-4072812D01*
X36358456Y-4236784D01*
X36259853Y-4384354D01*
X36134354Y-4509853D01*
X35986784Y-4608456D01*
X35822812Y-4676376D01*
X35673512Y-4706073D01*
X35648742Y-4711000D01*
X35471258Y-4711000D01*
X35446488Y-4706073D01*
X35297188Y-4676376D01*
X35133216Y-4608456D01*
X34985646Y-4509853D01*
X34860147Y-4384354D01*
X34761544Y-4236784D01*
X34693624Y-4072812D01*
X34663369Y-3920706D01*
X34659000Y-3898742D01*
X34659000Y-3721258D01*
X34672381Y-3653986D01*
X34693624Y-3547188D01*
X34761544Y-3383216D01*
X34860147Y-3235646D01*
X34985646Y-3110147D01*
X35133216Y-3011544D01*
X35297188Y-2943624D01*
X35446488Y-2913927D01*
X35471258Y-2909000D01*
X35648742Y-2909000D01*
X35673512Y-2913927D01*
X35673512Y-2913927D01*
G37*
G36*
X13376000Y-3016715D02*
G01*
X13378402Y-3041101D01*
X13385515Y-3064550D01*
X13397066Y-3086161D01*
X13412611Y-3105103D01*
X13431553Y-3120648D01*
X13453164Y-3132199D01*
X13476613Y-3139312D01*
X13500999Y-3141714D01*
X13525385Y-3139312D01*
X13548834Y-3132199D01*
X13570445Y-3120648D01*
X13589387Y-3105103D01*
X13604932Y-3086161D01*
X13616483Y-3064550D01*
X13625396Y-3028968D01*
X13628686Y-2995566D01*
X13640774Y-2955716D01*
X13660399Y-2919001D01*
X13686814Y-2886814D01*
X13719001Y-2860399D01*
X13755716Y-2840774D01*
X13795566Y-2828686D01*
X13843141Y-2824000D01*
X15006859Y-2824000D01*
X15054434Y-2828686D01*
X15094284Y-2840774D01*
X15130999Y-2860399D01*
X15163186Y-2886814D01*
X15189601Y-2919001D01*
X15209226Y-2955716D01*
X15221314Y-2995566D01*
X15226000Y-3043141D01*
X15226000Y-3706859D01*
X15221314Y-3754434D01*
X15209226Y-3794284D01*
X15189601Y-3830999D01*
X15163186Y-3863186D01*
X15130999Y-3889601D01*
X15094284Y-3909226D01*
X15054434Y-3921314D01*
X15006859Y-3926000D01*
X13843141Y-3926000D01*
X13795566Y-3921314D01*
X13755716Y-3909226D01*
X13719001Y-3889601D01*
X13686814Y-3863186D01*
X13660399Y-3830999D01*
X13640774Y-3794284D01*
X13628686Y-3754434D01*
X13625396Y-3721032D01*
X13620615Y-3696999D01*
X13611238Y-3674360D01*
X13597624Y-3653986D01*
X13580297Y-3636659D01*
X13559922Y-3623045D01*
X13537283Y-3613668D01*
X13513250Y-3608888D01*
X13488746Y-3608888D01*
X13464713Y-3613669D01*
X13442074Y-3623046D01*
X13421700Y-3636660D01*
X13404373Y-3653987D01*
X13390759Y-3674362D01*
X13381382Y-3697001D01*
X13376000Y-3733285D01*
X13376000Y-3926000D01*
X11774000Y-3926000D01*
X11774000Y-2824000D01*
X13376000Y-2824000D01*
X13376000Y-3016715D01*
X13376000Y-3016715D01*
G37*
G36*
X-13624000Y-3016715D02*
G01*
X-13621598Y-3041101D01*
X-13614485Y-3064550D01*
X-13602934Y-3086161D01*
X-13587389Y-3105103D01*
X-13568447Y-3120648D01*
X-13546836Y-3132199D01*
X-13523387Y-3139312D01*
X-13499001Y-3141714D01*
X-13474615Y-3139312D01*
X-13451166Y-3132199D01*
X-13429555Y-3120648D01*
X-13410613Y-3105103D01*
X-13395068Y-3086161D01*
X-13383517Y-3064550D01*
X-13374604Y-3028968D01*
X-13371314Y-2995566D01*
X-13359226Y-2955716D01*
X-13339601Y-2919001D01*
X-13313186Y-2886814D01*
X-13280999Y-2860399D01*
X-13244284Y-2840774D01*
X-13204434Y-2828686D01*
X-13156859Y-2824000D01*
X-11993141Y-2824000D01*
X-11945566Y-2828686D01*
X-11905716Y-2840774D01*
X-11869001Y-2860399D01*
X-11836814Y-2886814D01*
X-11810399Y-2919001D01*
X-11790774Y-2955716D01*
X-11778686Y-2995566D01*
X-11774000Y-3043141D01*
X-11774000Y-3706859D01*
X-11778686Y-3754434D01*
X-11790774Y-3794284D01*
X-11810399Y-3830999D01*
X-11836814Y-3863186D01*
X-11869001Y-3889601D01*
X-11905716Y-3909226D01*
X-11945566Y-3921314D01*
X-11993141Y-3926000D01*
X-13156859Y-3926000D01*
X-13204434Y-3921314D01*
X-13244284Y-3909226D01*
X-13280999Y-3889601D01*
X-13313186Y-3863186D01*
X-13339601Y-3830999D01*
X-13359226Y-3794284D01*
X-13371314Y-3754434D01*
X-13374604Y-3721032D01*
X-13379385Y-3696999D01*
X-13388762Y-3674360D01*
X-13402376Y-3653986D01*
X-13419703Y-3636659D01*
X-13440078Y-3623045D01*
X-13462717Y-3613668D01*
X-13486750Y-3608888D01*
X-13511254Y-3608888D01*
X-13535287Y-3613669D01*
X-13557926Y-3623046D01*
X-13578300Y-3636660D01*
X-13595627Y-3653987D01*
X-13609241Y-3674362D01*
X-13618618Y-3697001D01*
X-13624000Y-3733285D01*
X-13624000Y-3926000D01*
X-15226000Y-3926000D01*
X-15226000Y-2824000D01*
X-13624000Y-2824000D01*
X-13624000Y-3016715D01*
X-13624000Y-3016715D01*
G37*
G36*
X-124000Y-3016715D02*
G01*
X-121598Y-3041101D01*
X-114485Y-3064550D01*
X-102934Y-3086161D01*
X-87389Y-3105103D01*
X-68447Y-3120648D01*
X-46836Y-3132199D01*
X-23387Y-3139312D01*
X999Y-3141714D01*
X25385Y-3139312D01*
X48834Y-3132199D01*
X70445Y-3120648D01*
X89387Y-3105103D01*
X104932Y-3086161D01*
X116483Y-3064550D01*
X125396Y-3028968D01*
X128686Y-2995566D01*
X140774Y-2955716D01*
X160399Y-2919001D01*
X186814Y-2886814D01*
X219001Y-2860399D01*
X255716Y-2840774D01*
X295566Y-2828686D01*
X343141Y-2824000D01*
X1506859Y-2824000D01*
X1554434Y-2828686D01*
X1594284Y-2840774D01*
X1630999Y-2860399D01*
X1663186Y-2886814D01*
X1689601Y-2919001D01*
X1709226Y-2955716D01*
X1721314Y-2995566D01*
X1726000Y-3043141D01*
X1726000Y-3706859D01*
X1721314Y-3754434D01*
X1709226Y-3794284D01*
X1689601Y-3830999D01*
X1663186Y-3863186D01*
X1630999Y-3889601D01*
X1594284Y-3909226D01*
X1554434Y-3921314D01*
X1506859Y-3926000D01*
X343141Y-3926000D01*
X295566Y-3921314D01*
X255716Y-3909226D01*
X219001Y-3889601D01*
X186814Y-3863186D01*
X160399Y-3830999D01*
X140774Y-3794284D01*
X128686Y-3754434D01*
X125396Y-3721032D01*
X120615Y-3696999D01*
X111238Y-3674360D01*
X97624Y-3653986D01*
X80297Y-3636659D01*
X59922Y-3623045D01*
X37283Y-3613668D01*
X13250Y-3608888D01*
X-11254Y-3608888D01*
X-35287Y-3613669D01*
X-57926Y-3623046D01*
X-78300Y-3636660D01*
X-95627Y-3653987D01*
X-109241Y-3674362D01*
X-118618Y-3697001D01*
X-124000Y-3733285D01*
X-124000Y-3926000D01*
X-1726000Y-3926000D01*
X-1726000Y-2824000D01*
X-124000Y-2824000D01*
X-124000Y-3016715D01*
X-124000Y-3016715D01*
G37*
G36*
X-20374000Y-3016715D02*
G01*
X-20371598Y-3041101D01*
X-20364485Y-3064550D01*
X-20352934Y-3086161D01*
X-20337389Y-3105103D01*
X-20318447Y-3120648D01*
X-20296836Y-3132199D01*
X-20273387Y-3139312D01*
X-20249001Y-3141714D01*
X-20224615Y-3139312D01*
X-20201166Y-3132199D01*
X-20179555Y-3120648D01*
X-20160613Y-3105103D01*
X-20145068Y-3086161D01*
X-20133517Y-3064550D01*
X-20124604Y-3028968D01*
X-20121314Y-2995566D01*
X-20109226Y-2955716D01*
X-20089601Y-2919001D01*
X-20063186Y-2886814D01*
X-20030999Y-2860399D01*
X-19994284Y-2840774D01*
X-19954434Y-2828686D01*
X-19906859Y-2824000D01*
X-18743141Y-2824000D01*
X-18695566Y-2828686D01*
X-18655716Y-2840774D01*
X-18619001Y-2860399D01*
X-18586814Y-2886814D01*
X-18560399Y-2919001D01*
X-18540774Y-2955716D01*
X-18528686Y-2995566D01*
X-18524000Y-3043141D01*
X-18524000Y-3706859D01*
X-18528686Y-3754434D01*
X-18540774Y-3794284D01*
X-18560399Y-3830999D01*
X-18586814Y-3863186D01*
X-18619001Y-3889601D01*
X-18655716Y-3909226D01*
X-18695566Y-3921314D01*
X-18743141Y-3926000D01*
X-19906859Y-3926000D01*
X-19954434Y-3921314D01*
X-19994284Y-3909226D01*
X-20030999Y-3889601D01*
X-20063186Y-3863186D01*
X-20089601Y-3830999D01*
X-20109226Y-3794284D01*
X-20121314Y-3754434D01*
X-20124604Y-3721032D01*
X-20129385Y-3696999D01*
X-20138762Y-3674360D01*
X-20152376Y-3653986D01*
X-20169703Y-3636659D01*
X-20190078Y-3623045D01*
X-20212717Y-3613668D01*
X-20236750Y-3608888D01*
X-20261254Y-3608888D01*
X-20285287Y-3613669D01*
X-20307926Y-3623046D01*
X-20328300Y-3636660D01*
X-20345627Y-3653987D01*
X-20359241Y-3674362D01*
X-20368618Y-3697001D01*
X-20374000Y-3733285D01*
X-20374000Y-3926000D01*
X-21976000Y-3926000D01*
X-21976000Y-2824000D01*
X-20374000Y-2824000D01*
X-20374000Y-3016715D01*
X-20374000Y-3016715D01*
G37*
G36*
X-6874000Y-3016715D02*
G01*
X-6871598Y-3041101D01*
X-6864485Y-3064550D01*
X-6852934Y-3086161D01*
X-6837389Y-3105103D01*
X-6818447Y-3120648D01*
X-6796836Y-3132199D01*
X-6773387Y-3139312D01*
X-6749001Y-3141714D01*
X-6724615Y-3139312D01*
X-6701166Y-3132199D01*
X-6679555Y-3120648D01*
X-6660613Y-3105103D01*
X-6645068Y-3086161D01*
X-6633517Y-3064550D01*
X-6624604Y-3028968D01*
X-6621314Y-2995566D01*
X-6609226Y-2955716D01*
X-6589601Y-2919001D01*
X-6563186Y-2886814D01*
X-6530999Y-2860399D01*
X-6494284Y-2840774D01*
X-6454434Y-2828686D01*
X-6406859Y-2824000D01*
X-5243141Y-2824000D01*
X-5195566Y-2828686D01*
X-5155716Y-2840774D01*
X-5119001Y-2860399D01*
X-5086814Y-2886814D01*
X-5060399Y-2919001D01*
X-5040774Y-2955716D01*
X-5028686Y-2995566D01*
X-5024000Y-3043141D01*
X-5024000Y-3706859D01*
X-5028686Y-3754434D01*
X-5040774Y-3794284D01*
X-5060399Y-3830999D01*
X-5086814Y-3863186D01*
X-5119001Y-3889601D01*
X-5155716Y-3909226D01*
X-5195566Y-3921314D01*
X-5243141Y-3926000D01*
X-6406859Y-3926000D01*
X-6454434Y-3921314D01*
X-6494284Y-3909226D01*
X-6530999Y-3889601D01*
X-6563186Y-3863186D01*
X-6589601Y-3830999D01*
X-6609226Y-3794284D01*
X-6621314Y-3754434D01*
X-6624604Y-3721032D01*
X-6629385Y-3696999D01*
X-6638762Y-3674360D01*
X-6652376Y-3653986D01*
X-6669703Y-3636659D01*
X-6690078Y-3623045D01*
X-6712717Y-3613668D01*
X-6736750Y-3608888D01*
X-6761254Y-3608888D01*
X-6785287Y-3613669D01*
X-6807926Y-3623046D01*
X-6828300Y-3636660D01*
X-6845627Y-3653987D01*
X-6859241Y-3674362D01*
X-6868618Y-3697001D01*
X-6874000Y-3733285D01*
X-6874000Y-3926000D01*
X-8476000Y-3926000D01*
X-8476000Y-2824000D01*
X-6874000Y-2824000D01*
X-6874000Y-3016715D01*
X-6874000Y-3016715D01*
G37*
G36*
X-25445566Y-2828686D02*
G01*
X-25405716Y-2840774D01*
X-25369001Y-2860399D01*
X-25336814Y-2886814D01*
X-25310399Y-2919001D01*
X-25290774Y-2955716D01*
X-25278686Y-2995566D01*
X-25274000Y-3043141D01*
X-25274000Y-3706859D01*
X-25278686Y-3754434D01*
X-25290774Y-3794284D01*
X-25310399Y-3830999D01*
X-25336814Y-3863186D01*
X-25369001Y-3889601D01*
X-25405716Y-3909226D01*
X-25445566Y-3921314D01*
X-25493141Y-3926000D01*
X-26656859Y-3926000D01*
X-26704434Y-3921314D01*
X-26744284Y-3909226D01*
X-26780999Y-3889601D01*
X-26813186Y-3863186D01*
X-26839601Y-3830999D01*
X-26859226Y-3794284D01*
X-26871314Y-3754434D01*
X-26876000Y-3706859D01*
X-26876000Y-3043141D01*
X-26871314Y-2995566D01*
X-26859226Y-2955716D01*
X-26839601Y-2919001D01*
X-26813186Y-2886814D01*
X-26780999Y-2860399D01*
X-26744284Y-2840774D01*
X-26704434Y-2828686D01*
X-26656859Y-2824000D01*
X-25493141Y-2824000D01*
X-25445566Y-2828686D01*
X-25445566Y-2828686D01*
G37*
G36*
X26876000Y-3926000D02*
G01*
X25274000Y-3926000D01*
X25274000Y-2824000D01*
X26876000Y-2824000D01*
X26876000Y-3926000D01*
X26876000Y-3926000D01*
G37*
G36*
X20126000Y-3016715D02*
G01*
X20128402Y-3041101D01*
X20135515Y-3064550D01*
X20147066Y-3086161D01*
X20162611Y-3105103D01*
X20181553Y-3120648D01*
X20203164Y-3132199D01*
X20226613Y-3139312D01*
X20250999Y-3141714D01*
X20275385Y-3139312D01*
X20298834Y-3132199D01*
X20320445Y-3120648D01*
X20339387Y-3105103D01*
X20354932Y-3086161D01*
X20366483Y-3064550D01*
X20375396Y-3028968D01*
X20378686Y-2995566D01*
X20390774Y-2955716D01*
X20410399Y-2919001D01*
X20436814Y-2886814D01*
X20469001Y-2860399D01*
X20505716Y-2840774D01*
X20545566Y-2828686D01*
X20593141Y-2824000D01*
X21756859Y-2824000D01*
X21804434Y-2828686D01*
X21844284Y-2840774D01*
X21880999Y-2860399D01*
X21913186Y-2886814D01*
X21939601Y-2919001D01*
X21959226Y-2955716D01*
X21971314Y-2995566D01*
X21976000Y-3043141D01*
X21976000Y-3706859D01*
X21971314Y-3754434D01*
X21959226Y-3794284D01*
X21939601Y-3830999D01*
X21913186Y-3863186D01*
X21880999Y-3889601D01*
X21844284Y-3909226D01*
X21804434Y-3921314D01*
X21756859Y-3926000D01*
X20593141Y-3926000D01*
X20545566Y-3921314D01*
X20505716Y-3909226D01*
X20469001Y-3889601D01*
X20436814Y-3863186D01*
X20410399Y-3830999D01*
X20390774Y-3794284D01*
X20378686Y-3754434D01*
X20375396Y-3721032D01*
X20370615Y-3696999D01*
X20361238Y-3674360D01*
X20347624Y-3653986D01*
X20330297Y-3636659D01*
X20309922Y-3623045D01*
X20287283Y-3613668D01*
X20263250Y-3608888D01*
X20238746Y-3608888D01*
X20214713Y-3613669D01*
X20192074Y-3623046D01*
X20171700Y-3636660D01*
X20154373Y-3653987D01*
X20140759Y-3674362D01*
X20131382Y-3697001D01*
X20126000Y-3733285D01*
X20126000Y-3926000D01*
X18524000Y-3926000D01*
X18524000Y-2824000D01*
X20126000Y-2824000D01*
X20126000Y-3016715D01*
X20126000Y-3016715D01*
G37*
G36*
X6626000Y-3016715D02*
G01*
X6628402Y-3041101D01*
X6635515Y-3064550D01*
X6647066Y-3086161D01*
X6662611Y-3105103D01*
X6681553Y-3120648D01*
X6703164Y-3132199D01*
X6726613Y-3139312D01*
X6750999Y-3141714D01*
X6775385Y-3139312D01*
X6798834Y-3132199D01*
X6820445Y-3120648D01*
X6839387Y-3105103D01*
X6854932Y-3086161D01*
X6866483Y-3064550D01*
X6875396Y-3028968D01*
X6878686Y-2995566D01*
X6890774Y-2955716D01*
X6910399Y-2919001D01*
X6936814Y-2886814D01*
X6969001Y-2860399D01*
X7005716Y-2840774D01*
X7045566Y-2828686D01*
X7093141Y-2824000D01*
X8256859Y-2824000D01*
X8304434Y-2828686D01*
X8344284Y-2840774D01*
X8380999Y-2860399D01*
X8413186Y-2886814D01*
X8439601Y-2919001D01*
X8459226Y-2955716D01*
X8471314Y-2995566D01*
X8476000Y-3043141D01*
X8476000Y-3706859D01*
X8471314Y-3754434D01*
X8459226Y-3794284D01*
X8439601Y-3830999D01*
X8413186Y-3863186D01*
X8380999Y-3889601D01*
X8344284Y-3909226D01*
X8304434Y-3921314D01*
X8256859Y-3926000D01*
X7093141Y-3926000D01*
X7045566Y-3921314D01*
X7005716Y-3909226D01*
X6969001Y-3889601D01*
X6936814Y-3863186D01*
X6910399Y-3830999D01*
X6890774Y-3794284D01*
X6878686Y-3754434D01*
X6875396Y-3721032D01*
X6870615Y-3696999D01*
X6861238Y-3674360D01*
X6847624Y-3653986D01*
X6830297Y-3636659D01*
X6809922Y-3623045D01*
X6787283Y-3613668D01*
X6763250Y-3608888D01*
X6738746Y-3608888D01*
X6714713Y-3613669D01*
X6692074Y-3623046D01*
X6671700Y-3636660D01*
X6654373Y-3653987D01*
X6640759Y-3674362D01*
X6631382Y-3697001D01*
X6626000Y-3733285D01*
X6626000Y-3926000D01*
X5024000Y-3926000D01*
X5024000Y-2824000D01*
X6626000Y-2824000D01*
X6626000Y-3016715D01*
X6626000Y-3016715D01*
G37*
G36*
X28264591Y-2893085D02*
G01*
X28298569Y-2903393D01*
X28329890Y-2920134D01*
X28357339Y-2942661D01*
X28379866Y-2970110D01*
X28396607Y-3001431D01*
X28406915Y-3035409D01*
X28411000Y-3076890D01*
X28411000Y-3678110D01*
X28406915Y-3719591D01*
X28396607Y-3753569D01*
X28379866Y-3784890D01*
X28357339Y-3812339D01*
X28329890Y-3834866D01*
X28298569Y-3851607D01*
X28264591Y-3861915D01*
X28223110Y-3866000D01*
X27546890Y-3866000D01*
X27505409Y-3861915D01*
X27471431Y-3851607D01*
X27440110Y-3834866D01*
X27412661Y-3812339D01*
X27390134Y-3784890D01*
X27373393Y-3753569D01*
X27363085Y-3719591D01*
X27359000Y-3678110D01*
X27359000Y-3076890D01*
X27363085Y-3035409D01*
X27373393Y-3001431D01*
X27390134Y-2970110D01*
X27412661Y-2942661D01*
X27440110Y-2920134D01*
X27471431Y-2903393D01*
X27505409Y-2893085D01*
X27546890Y-2889000D01*
X28223110Y-2889000D01*
X28264591Y-2893085D01*
X28264591Y-2893085D01*
G37*
G36*
X26876000Y-2326000D02*
G01*
X25274000Y-2326000D01*
X25274000Y-1224000D01*
X26876000Y-1224000D01*
X26876000Y-2326000D01*
X26876000Y-2326000D01*
G37*
G36*
X21976000Y-2326000D02*
G01*
X18524000Y-2326000D01*
X18524000Y-1224000D01*
X21976000Y-1224000D01*
X21976000Y-2326000D01*
X21976000Y-2326000D01*
G37*
G36*
X15226000Y-2326000D02*
G01*
X11774000Y-2326000D01*
X11774000Y-1224000D01*
X15226000Y-1224000D01*
X15226000Y-2326000D01*
X15226000Y-2326000D01*
G37*
G36*
X-18524000Y-2326000D02*
G01*
X-21976000Y-2326000D01*
X-21976000Y-1224000D01*
X-18524000Y-1224000D01*
X-18524000Y-2326000D01*
X-18524000Y-2326000D01*
G37*
G36*
X8476000Y-2326000D02*
G01*
X5024000Y-2326000D01*
X5024000Y-1224000D01*
X8476000Y-1224000D01*
X8476000Y-2326000D01*
X8476000Y-2326000D01*
G37*
G36*
X-25274000Y-2326000D02*
G01*
X-26876000Y-2326000D01*
X-26876000Y-1224000D01*
X-25274000Y-1224000D01*
X-25274000Y-2326000D01*
X-25274000Y-2326000D01*
G37*
G36*
X1726000Y-2326000D02*
G01*
X-1726000Y-2326000D01*
X-1726000Y-1224000D01*
X1726000Y-1224000D01*
X1726000Y-2326000D01*
X1726000Y-2326000D01*
G37*
G36*
X-5024000Y-2326000D02*
G01*
X-8476000Y-2326000D01*
X-8476000Y-1224000D01*
X-5024000Y-1224000D01*
X-5024000Y-2326000D01*
X-5024000Y-2326000D01*
G37*
G36*
X-11774000Y-2326000D02*
G01*
X-15226000Y-2326000D01*
X-15226000Y-1224000D01*
X-11774000Y-1224000D01*
X-11774000Y-2326000D01*
X-11774000Y-2326000D01*
G37*
G36*
X28264591Y-1318085D02*
G01*
X28298569Y-1328393D01*
X28329890Y-1345134D01*
X28357339Y-1367661D01*
X28379866Y-1395110D01*
X28396607Y-1426431D01*
X28406915Y-1460409D01*
X28411000Y-1501890D01*
X28411000Y-2103110D01*
X28406915Y-2144591D01*
X28396607Y-2178569D01*
X28379866Y-2209890D01*
X28357339Y-2237339D01*
X28329890Y-2259866D01*
X28298569Y-2276607D01*
X28264591Y-2286915D01*
X28223110Y-2291000D01*
X27546890Y-2291000D01*
X27505409Y-2286915D01*
X27471431Y-2276607D01*
X27440110Y-2259866D01*
X27412661Y-2237339D01*
X27390134Y-2209890D01*
X27373393Y-2178569D01*
X27363085Y-2144591D01*
X27359000Y-2103110D01*
X27359000Y-1501890D01*
X27363085Y-1460409D01*
X27373393Y-1426431D01*
X27390134Y-1395110D01*
X27412661Y-1367661D01*
X27440110Y-1345134D01*
X27471431Y-1328393D01*
X27505409Y-1318085D01*
X27546890Y-1314000D01*
X28223110Y-1314000D01*
X28264591Y-1318085D01*
X28264591Y-1318085D01*
G37*
G36*
X-35446488Y-373927D02*
G01*
X-35297188Y-403624D01*
X-35133216Y-471544D01*
X-34985646Y-570147D01*
X-34860147Y-695646D01*
X-34761544Y-843216D01*
X-34693624Y-1007188D01*
X-34659000Y-1181259D01*
X-34659000Y-1358741D01*
X-34693624Y-1532812D01*
X-34761544Y-1696784D01*
X-34860147Y-1844354D01*
X-34985646Y-1969853D01*
X-35133216Y-2068456D01*
X-35297188Y-2136376D01*
X-35446488Y-2166073D01*
X-35471258Y-2171000D01*
X-35648742Y-2171000D01*
X-35673512Y-2166073D01*
X-35822812Y-2136376D01*
X-35986784Y-2068456D01*
X-36134354Y-1969853D01*
X-36259853Y-1844354D01*
X-36358456Y-1696784D01*
X-36426376Y-1532812D01*
X-36461000Y-1358741D01*
X-36461000Y-1181259D01*
X-36426376Y-1007188D01*
X-36358456Y-843216D01*
X-36259853Y-695646D01*
X-36134354Y-570147D01*
X-35986784Y-471544D01*
X-35822812Y-403624D01*
X-35673512Y-373927D01*
X-35648742Y-369000D01*
X-35471258Y-369000D01*
X-35446488Y-373927D01*
X-35446488Y-373927D01*
G37*
G36*
X35673512Y-373927D02*
G01*
X35822812Y-403624D01*
X35986784Y-471544D01*
X36134354Y-570147D01*
X36259853Y-695646D01*
X36358456Y-843216D01*
X36426376Y-1007188D01*
X36461000Y-1181259D01*
X36461000Y-1358741D01*
X36426376Y-1532812D01*
X36358456Y-1696784D01*
X36259853Y-1844354D01*
X36134354Y-1969853D01*
X35986784Y-2068456D01*
X35822812Y-2136376D01*
X35673512Y-2166073D01*
X35648742Y-2171000D01*
X35471258Y-2171000D01*
X35446488Y-2166073D01*
X35297188Y-2136376D01*
X35133216Y-2068456D01*
X34985646Y-1969853D01*
X34860147Y-1844354D01*
X34761544Y-1696784D01*
X34693624Y-1532812D01*
X34659000Y-1358741D01*
X34659000Y-1181259D01*
X34693624Y-1007188D01*
X34761544Y-843216D01*
X34860147Y-695646D01*
X34985646Y-570147D01*
X35133216Y-471544D01*
X35297188Y-403624D01*
X35446488Y-373927D01*
X35471258Y-369000D01*
X35648742Y-369000D01*
X35673512Y-373927D01*
X35673512Y-373927D01*
G37*
G36*
X-35446488Y2166073D02*
G01*
X-35297188Y2136376D01*
X-35133216Y2068456D01*
X-34985646Y1969853D01*
X-34860147Y1844354D01*
X-34761544Y1696784D01*
X-34693624Y1532812D01*
X-34659000Y1358741D01*
X-34659000Y1181259D01*
X-34693624Y1007188D01*
X-34761544Y843216D01*
X-34860147Y695646D01*
X-34985646Y570147D01*
X-35133216Y471544D01*
X-35297188Y403624D01*
X-35446488Y373927D01*
X-35471258Y369000D01*
X-35648742Y369000D01*
X-35673512Y373927D01*
X-35822812Y403624D01*
X-35986784Y471544D01*
X-36134354Y570147D01*
X-36259853Y695646D01*
X-36358456Y843216D01*
X-36426376Y1007188D01*
X-36461000Y1181259D01*
X-36461000Y1358741D01*
X-36426376Y1532812D01*
X-36358456Y1696784D01*
X-36259853Y1844354D01*
X-36134354Y1969853D01*
X-35986784Y2068456D01*
X-35822812Y2136376D01*
X-35673512Y2166073D01*
X-35648742Y2171000D01*
X-35471258Y2171000D01*
X-35446488Y2166073D01*
X-35446488Y2166073D01*
G37*
G36*
X35673512Y2166073D02*
G01*
X35822812Y2136376D01*
X35986784Y2068456D01*
X36134354Y1969853D01*
X36259853Y1844354D01*
X36358456Y1696784D01*
X36426376Y1532812D01*
X36461000Y1358741D01*
X36461000Y1181259D01*
X36426376Y1007188D01*
X36358456Y843216D01*
X36259853Y695646D01*
X36134354Y570147D01*
X35986784Y471544D01*
X35822812Y403624D01*
X35673512Y373927D01*
X35648742Y369000D01*
X35471258Y369000D01*
X35446488Y373927D01*
X35297188Y403624D01*
X35133216Y471544D01*
X34985646Y570147D01*
X34860147Y695646D01*
X34761544Y843216D01*
X34693624Y1007188D01*
X34659000Y1181259D01*
X34659000Y1358741D01*
X34693624Y1532812D01*
X34761544Y1696784D01*
X34860147Y1844354D01*
X34985646Y1969853D01*
X35133216Y2068456D01*
X35297188Y2136376D01*
X35446488Y2166073D01*
X35471258Y2171000D01*
X35648742Y2171000D01*
X35673512Y2166073D01*
X35673512Y2166073D01*
G37*
G36*
X15226000Y1224000D02*
G01*
X11774000Y1224000D01*
X11774000Y2326000D01*
X15226000Y2326000D01*
X15226000Y1224000D01*
X15226000Y1224000D01*
G37*
G36*
X-5024000Y1224000D02*
G01*
X-8476000Y1224000D01*
X-8476000Y2326000D01*
X-5024000Y2326000D01*
X-5024000Y1224000D01*
X-5024000Y1224000D01*
G37*
G36*
X21976000Y1224000D02*
G01*
X18524000Y1224000D01*
X18524000Y2326000D01*
X21976000Y2326000D01*
X21976000Y1224000D01*
X21976000Y1224000D01*
G37*
G36*
X-11774000Y1224000D02*
G01*
X-15226000Y1224000D01*
X-15226000Y2326000D01*
X-11774000Y2326000D01*
X-11774000Y1224000D01*
X-11774000Y1224000D01*
G37*
G36*
X1726000Y1224000D02*
G01*
X-1726000Y1224000D01*
X-1726000Y2326000D01*
X1726000Y2326000D01*
X1726000Y1224000D01*
X1726000Y1224000D01*
G37*
G36*
X8476000Y1224000D02*
G01*
X5024000Y1224000D01*
X5024000Y2326000D01*
X8476000Y2326000D01*
X8476000Y1224000D01*
X8476000Y1224000D01*
G37*
G36*
X26876000Y1224000D02*
G01*
X25274000Y1224000D01*
X25274000Y2326000D01*
X26876000Y2326000D01*
X26876000Y1224000D01*
X26876000Y1224000D01*
G37*
G36*
X-18524000Y1224000D02*
G01*
X-21976000Y1224000D01*
X-21976000Y2326000D01*
X-18524000Y2326000D01*
X-18524000Y1224000D01*
X-18524000Y1224000D01*
G37*
G36*
X-25274000Y1224000D02*
G01*
X-26876000Y1224000D01*
X-26876000Y2326000D01*
X-25274000Y2326000D01*
X-25274000Y1224000D01*
X-25274000Y1224000D01*
G37*
G36*
X-20374000Y3733285D02*
G01*
X-20371598Y3708899D01*
X-20364485Y3685450D01*
X-20352934Y3663839D01*
X-20337389Y3644897D01*
X-20318447Y3629352D01*
X-20296836Y3617801D01*
X-20273387Y3610688D01*
X-20249001Y3608286D01*
X-20224615Y3610688D01*
X-20201166Y3617801D01*
X-20179555Y3629352D01*
X-20160613Y3644897D01*
X-20145068Y3663839D01*
X-20133517Y3685450D01*
X-20124604Y3721032D01*
X-20121314Y3754434D01*
X-20109226Y3794284D01*
X-20089601Y3830999D01*
X-20063186Y3863186D01*
X-20030999Y3889601D01*
X-19994284Y3909226D01*
X-19954434Y3921314D01*
X-19906859Y3926000D01*
X-18743141Y3926000D01*
X-18695566Y3921314D01*
X-18655716Y3909226D01*
X-18619001Y3889601D01*
X-18586814Y3863186D01*
X-18560399Y3830999D01*
X-18540774Y3794284D01*
X-18528686Y3754434D01*
X-18524000Y3706859D01*
X-18524000Y3043141D01*
X-18528686Y2995566D01*
X-18540774Y2955716D01*
X-18560399Y2919001D01*
X-18586814Y2886814D01*
X-18619001Y2860399D01*
X-18655716Y2840774D01*
X-18695566Y2828686D01*
X-18743141Y2824000D01*
X-19906859Y2824000D01*
X-19954434Y2828686D01*
X-19994284Y2840774D01*
X-20030999Y2860399D01*
X-20063186Y2886814D01*
X-20089601Y2919001D01*
X-20109226Y2955716D01*
X-20121314Y2995566D01*
X-20124604Y3028968D01*
X-20129385Y3053001D01*
X-20138762Y3075640D01*
X-20152376Y3096014D01*
X-20169703Y3113341D01*
X-20190078Y3126955D01*
X-20212717Y3136332D01*
X-20236750Y3141112D01*
X-20261254Y3141112D01*
X-20285287Y3136331D01*
X-20307926Y3126954D01*
X-20328300Y3113340D01*
X-20345627Y3096013D01*
X-20359241Y3075638D01*
X-20368618Y3052999D01*
X-20374000Y3016715D01*
X-20374000Y2824000D01*
X-21976000Y2824000D01*
X-21976000Y3926000D01*
X-20374000Y3926000D01*
X-20374000Y3733285D01*
X-20374000Y3733285D01*
G37*
G36*
X-25445566Y3921314D02*
G01*
X-25405716Y3909226D01*
X-25369001Y3889601D01*
X-25336814Y3863186D01*
X-25310399Y3830999D01*
X-25290774Y3794284D01*
X-25278686Y3754434D01*
X-25274000Y3706859D01*
X-25274000Y3043141D01*
X-25278686Y2995566D01*
X-25290774Y2955716D01*
X-25310399Y2919001D01*
X-25336814Y2886814D01*
X-25369001Y2860399D01*
X-25405716Y2840774D01*
X-25445566Y2828686D01*
X-25493141Y2824000D01*
X-26656859Y2824000D01*
X-26704434Y2828686D01*
X-26744284Y2840774D01*
X-26780999Y2860399D01*
X-26813186Y2886814D01*
X-26839601Y2919001D01*
X-26859226Y2955716D01*
X-26871314Y2995566D01*
X-26876000Y3043141D01*
X-26876000Y3706859D01*
X-26871314Y3754434D01*
X-26859226Y3794284D01*
X-26839601Y3830999D01*
X-26813186Y3863186D01*
X-26780999Y3889601D01*
X-26744284Y3909226D01*
X-26704434Y3921314D01*
X-26656859Y3926000D01*
X-25493141Y3926000D01*
X-25445566Y3921314D01*
X-25445566Y3921314D01*
G37*
G36*
X20126000Y3733285D02*
G01*
X20128402Y3708899D01*
X20135515Y3685450D01*
X20147066Y3663839D01*
X20162611Y3644897D01*
X20181553Y3629352D01*
X20203164Y3617801D01*
X20226613Y3610688D01*
X20250999Y3608286D01*
X20275385Y3610688D01*
X20298834Y3617801D01*
X20320445Y3629352D01*
X20339387Y3644897D01*
X20354932Y3663839D01*
X20366483Y3685450D01*
X20375396Y3721032D01*
X20378686Y3754434D01*
X20390774Y3794284D01*
X20410399Y3830999D01*
X20436814Y3863186D01*
X20469001Y3889601D01*
X20505716Y3909226D01*
X20545566Y3921314D01*
X20593141Y3926000D01*
X21756859Y3926000D01*
X21804434Y3921314D01*
X21844284Y3909226D01*
X21880999Y3889601D01*
X21913186Y3863186D01*
X21939601Y3830999D01*
X21959226Y3794284D01*
X21971314Y3754434D01*
X21976000Y3706859D01*
X21976000Y3043141D01*
X21971314Y2995566D01*
X21959226Y2955716D01*
X21939601Y2919001D01*
X21913186Y2886814D01*
X21880999Y2860399D01*
X21844284Y2840774D01*
X21804434Y2828686D01*
X21756859Y2824000D01*
X20593141Y2824000D01*
X20545566Y2828686D01*
X20505716Y2840774D01*
X20469001Y2860399D01*
X20436814Y2886814D01*
X20410399Y2919001D01*
X20390774Y2955716D01*
X20378686Y2995566D01*
X20375396Y3028968D01*
X20370615Y3053001D01*
X20361238Y3075640D01*
X20347624Y3096014D01*
X20330297Y3113341D01*
X20309922Y3126955D01*
X20287283Y3136332D01*
X20263250Y3141112D01*
X20238746Y3141112D01*
X20214713Y3136331D01*
X20192074Y3126954D01*
X20171700Y3113340D01*
X20154373Y3096013D01*
X20140759Y3075638D01*
X20131382Y3052999D01*
X20126000Y3016715D01*
X20126000Y2824000D01*
X18524000Y2824000D01*
X18524000Y3926000D01*
X20126000Y3926000D01*
X20126000Y3733285D01*
X20126000Y3733285D01*
G37*
G36*
X-124000Y3733285D02*
G01*
X-121598Y3708899D01*
X-114485Y3685450D01*
X-102934Y3663839D01*
X-87389Y3644897D01*
X-68447Y3629352D01*
X-46836Y3617801D01*
X-23387Y3610688D01*
X999Y3608286D01*
X25385Y3610688D01*
X48834Y3617801D01*
X70445Y3629352D01*
X89387Y3644897D01*
X104932Y3663839D01*
X116483Y3685450D01*
X125396Y3721032D01*
X128686Y3754434D01*
X140774Y3794284D01*
X160399Y3830999D01*
X186814Y3863186D01*
X219001Y3889601D01*
X255716Y3909226D01*
X295566Y3921314D01*
X343141Y3926000D01*
X1506859Y3926000D01*
X1554434Y3921314D01*
X1594284Y3909226D01*
X1630999Y3889601D01*
X1663186Y3863186D01*
X1689601Y3830999D01*
X1709226Y3794284D01*
X1721314Y3754434D01*
X1726000Y3706859D01*
X1726000Y3043141D01*
X1721314Y2995566D01*
X1709226Y2955716D01*
X1689601Y2919001D01*
X1663186Y2886814D01*
X1630999Y2860399D01*
X1594284Y2840774D01*
X1554434Y2828686D01*
X1506859Y2824000D01*
X343141Y2824000D01*
X295566Y2828686D01*
X255716Y2840774D01*
X219001Y2860399D01*
X186814Y2886814D01*
X160399Y2919001D01*
X140774Y2955716D01*
X128686Y2995566D01*
X125396Y3028968D01*
X120615Y3053001D01*
X111238Y3075640D01*
X97624Y3096014D01*
X80297Y3113341D01*
X59922Y3126955D01*
X37283Y3136332D01*
X13250Y3141112D01*
X-11254Y3141112D01*
X-35287Y3136331D01*
X-57926Y3126954D01*
X-78300Y3113340D01*
X-95627Y3096013D01*
X-109241Y3075638D01*
X-118618Y3052999D01*
X-124000Y3016715D01*
X-124000Y2824000D01*
X-1726000Y2824000D01*
X-1726000Y3926000D01*
X-124000Y3926000D01*
X-124000Y3733285D01*
X-124000Y3733285D01*
G37*
G36*
X-6874000Y3733285D02*
G01*
X-6871598Y3708899D01*
X-6864485Y3685450D01*
X-6852934Y3663839D01*
X-6837389Y3644897D01*
X-6818447Y3629352D01*
X-6796836Y3617801D01*
X-6773387Y3610688D01*
X-6749001Y3608286D01*
X-6724615Y3610688D01*
X-6701166Y3617801D01*
X-6679555Y3629352D01*
X-6660613Y3644897D01*
X-6645068Y3663839D01*
X-6633517Y3685450D01*
X-6624604Y3721032D01*
X-6621314Y3754434D01*
X-6609226Y3794284D01*
X-6589601Y3830999D01*
X-6563186Y3863186D01*
X-6530999Y3889601D01*
X-6494284Y3909226D01*
X-6454434Y3921314D01*
X-6406859Y3926000D01*
X-5243141Y3926000D01*
X-5195566Y3921314D01*
X-5155716Y3909226D01*
X-5119001Y3889601D01*
X-5086814Y3863186D01*
X-5060399Y3830999D01*
X-5040774Y3794284D01*
X-5028686Y3754434D01*
X-5024000Y3706859D01*
X-5024000Y3043141D01*
X-5028686Y2995566D01*
X-5040774Y2955716D01*
X-5060399Y2919001D01*
X-5086814Y2886814D01*
X-5119001Y2860399D01*
X-5155716Y2840774D01*
X-5195566Y2828686D01*
X-5243141Y2824000D01*
X-6406859Y2824000D01*
X-6454434Y2828686D01*
X-6494284Y2840774D01*
X-6530999Y2860399D01*
X-6563186Y2886814D01*
X-6589601Y2919001D01*
X-6609226Y2955716D01*
X-6621314Y2995566D01*
X-6624604Y3028968D01*
X-6629385Y3053001D01*
X-6638762Y3075640D01*
X-6652376Y3096014D01*
X-6669703Y3113341D01*
X-6690078Y3126955D01*
X-6712717Y3136332D01*
X-6736750Y3141112D01*
X-6761254Y3141112D01*
X-6785287Y3136331D01*
X-6807926Y3126954D01*
X-6828300Y3113340D01*
X-6845627Y3096013D01*
X-6859241Y3075638D01*
X-6868618Y3052999D01*
X-6874000Y3016715D01*
X-6874000Y2824000D01*
X-8476000Y2824000D01*
X-8476000Y3926000D01*
X-6874000Y3926000D01*
X-6874000Y3733285D01*
X-6874000Y3733285D01*
G37*
G36*
X6626000Y3733285D02*
G01*
X6628402Y3708899D01*
X6635515Y3685450D01*
X6647066Y3663839D01*
X6662611Y3644897D01*
X6681553Y3629352D01*
X6703164Y3617801D01*
X6726613Y3610688D01*
X6750999Y3608286D01*
X6775385Y3610688D01*
X6798834Y3617801D01*
X6820445Y3629352D01*
X6839387Y3644897D01*
X6854932Y3663839D01*
X6866483Y3685450D01*
X6875396Y3721032D01*
X6878686Y3754434D01*
X6890774Y3794284D01*
X6910399Y3830999D01*
X6936814Y3863186D01*
X6969001Y3889601D01*
X7005716Y3909226D01*
X7045566Y3921314D01*
X7093141Y3926000D01*
X8256859Y3926000D01*
X8304434Y3921314D01*
X8344284Y3909226D01*
X8380999Y3889601D01*
X8413186Y3863186D01*
X8439601Y3830999D01*
X8459226Y3794284D01*
X8471314Y3754434D01*
X8476000Y3706859D01*
X8476000Y3043141D01*
X8471314Y2995566D01*
X8459226Y2955716D01*
X8439601Y2919001D01*
X8413186Y2886814D01*
X8380999Y2860399D01*
X8344284Y2840774D01*
X8304434Y2828686D01*
X8256859Y2824000D01*
X7093141Y2824000D01*
X7045566Y2828686D01*
X7005716Y2840774D01*
X6969001Y2860399D01*
X6936814Y2886814D01*
X6910399Y2919001D01*
X6890774Y2955716D01*
X6878686Y2995566D01*
X6875396Y3028968D01*
X6870615Y3053001D01*
X6861238Y3075640D01*
X6847624Y3096014D01*
X6830297Y3113341D01*
X6809922Y3126955D01*
X6787283Y3136332D01*
X6763250Y3141112D01*
X6738746Y3141112D01*
X6714713Y3136331D01*
X6692074Y3126954D01*
X6671700Y3113340D01*
X6654373Y3096013D01*
X6640759Y3075638D01*
X6631382Y3052999D01*
X6626000Y3016715D01*
X6626000Y2824000D01*
X5024000Y2824000D01*
X5024000Y3926000D01*
X6626000Y3926000D01*
X6626000Y3733285D01*
X6626000Y3733285D01*
G37*
G36*
X26876000Y2824000D02*
G01*
X25274000Y2824000D01*
X25274000Y3926000D01*
X26876000Y3926000D01*
X26876000Y2824000D01*
X26876000Y2824000D01*
G37*
G36*
X13376000Y3733285D02*
G01*
X13378402Y3708899D01*
X13385515Y3685450D01*
X13397066Y3663839D01*
X13412611Y3644897D01*
X13431553Y3629352D01*
X13453164Y3617801D01*
X13476613Y3610688D01*
X13500999Y3608286D01*
X13525385Y3610688D01*
X13548834Y3617801D01*
X13570445Y3629352D01*
X13589387Y3644897D01*
X13604932Y3663839D01*
X13616483Y3685450D01*
X13625396Y3721032D01*
X13628686Y3754434D01*
X13640774Y3794284D01*
X13660399Y3830999D01*
X13686814Y3863186D01*
X13719001Y3889601D01*
X13755716Y3909226D01*
X13795566Y3921314D01*
X13843141Y3926000D01*
X15006859Y3926000D01*
X15054434Y3921314D01*
X15094284Y3909226D01*
X15130999Y3889601D01*
X15163186Y3863186D01*
X15189601Y3830999D01*
X15209226Y3794284D01*
X15221314Y3754434D01*
X15226000Y3706859D01*
X15226000Y3043141D01*
X15221314Y2995566D01*
X15209226Y2955716D01*
X15189601Y2919001D01*
X15163186Y2886814D01*
X15130999Y2860399D01*
X15094284Y2840774D01*
X15054434Y2828686D01*
X15006859Y2824000D01*
X13843141Y2824000D01*
X13795566Y2828686D01*
X13755716Y2840774D01*
X13719001Y2860399D01*
X13686814Y2886814D01*
X13660399Y2919001D01*
X13640774Y2955716D01*
X13628686Y2995566D01*
X13625396Y3028968D01*
X13620615Y3053001D01*
X13611238Y3075640D01*
X13597624Y3096014D01*
X13580297Y3113341D01*
X13559922Y3126955D01*
X13537283Y3136332D01*
X13513250Y3141112D01*
X13488746Y3141112D01*
X13464713Y3136331D01*
X13442074Y3126954D01*
X13421700Y3113340D01*
X13404373Y3096013D01*
X13390759Y3075638D01*
X13381382Y3052999D01*
X13376000Y3016715D01*
X13376000Y2824000D01*
X11774000Y2824000D01*
X11774000Y3926000D01*
X13376000Y3926000D01*
X13376000Y3733285D01*
X13376000Y3733285D01*
G37*
G36*
X-13624000Y3733285D02*
G01*
X-13621598Y3708899D01*
X-13614485Y3685450D01*
X-13602934Y3663839D01*
X-13587389Y3644897D01*
X-13568447Y3629352D01*
X-13546836Y3617801D01*
X-13523387Y3610688D01*
X-13499001Y3608286D01*
X-13474615Y3610688D01*
X-13451166Y3617801D01*
X-13429555Y3629352D01*
X-13410613Y3644897D01*
X-13395068Y3663839D01*
X-13383517Y3685450D01*
X-13374604Y3721032D01*
X-13371314Y3754434D01*
X-13359226Y3794284D01*
X-13339601Y3830999D01*
X-13313186Y3863186D01*
X-13280999Y3889601D01*
X-13244284Y3909226D01*
X-13204434Y3921314D01*
X-13156859Y3926000D01*
X-11993141Y3926000D01*
X-11945566Y3921314D01*
X-11905716Y3909226D01*
X-11869001Y3889601D01*
X-11836814Y3863186D01*
X-11810399Y3830999D01*
X-11790774Y3794284D01*
X-11778686Y3754434D01*
X-11774000Y3706859D01*
X-11774000Y3043141D01*
X-11778686Y2995566D01*
X-11790774Y2955716D01*
X-11810399Y2919001D01*
X-11836814Y2886814D01*
X-11869001Y2860399D01*
X-11905716Y2840774D01*
X-11945566Y2828686D01*
X-11993141Y2824000D01*
X-13156859Y2824000D01*
X-13204434Y2828686D01*
X-13244284Y2840774D01*
X-13280999Y2860399D01*
X-13313186Y2886814D01*
X-13339601Y2919001D01*
X-13359226Y2955716D01*
X-13371314Y2995566D01*
X-13374604Y3028968D01*
X-13379385Y3053001D01*
X-13388762Y3075640D01*
X-13402376Y3096014D01*
X-13419703Y3113341D01*
X-13440078Y3126955D01*
X-13462717Y3136332D01*
X-13486750Y3141112D01*
X-13511254Y3141112D01*
X-13535287Y3136331D01*
X-13557926Y3126954D01*
X-13578300Y3113340D01*
X-13595627Y3096013D01*
X-13609241Y3075638D01*
X-13618618Y3052999D01*
X-13624000Y3016715D01*
X-13624000Y2824000D01*
X-15226000Y2824000D01*
X-15226000Y3926000D01*
X-13624000Y3926000D01*
X-13624000Y3733285D01*
X-13624000Y3733285D01*
G37*
G36*
X28264591Y3856915D02*
G01*
X28298569Y3846607D01*
X28329890Y3829866D01*
X28357339Y3807339D01*
X28379866Y3779890D01*
X28396607Y3748569D01*
X28406915Y3714591D01*
X28411000Y3673110D01*
X28411000Y3071890D01*
X28406915Y3030409D01*
X28396607Y2996431D01*
X28379866Y2965110D01*
X28357339Y2937661D01*
X28329890Y2915134D01*
X28298569Y2898393D01*
X28264591Y2888085D01*
X28223110Y2884000D01*
X27546890Y2884000D01*
X27505409Y2888085D01*
X27471431Y2898393D01*
X27440110Y2915134D01*
X27412661Y2937661D01*
X27390134Y2965110D01*
X27373393Y2996431D01*
X27363085Y3030409D01*
X27359000Y3071890D01*
X27359000Y3673110D01*
X27363085Y3714591D01*
X27373393Y3748569D01*
X27390134Y3779890D01*
X27412661Y3807339D01*
X27440110Y3829866D01*
X27471431Y3846607D01*
X27505409Y3856915D01*
X27546890Y3861000D01*
X28223110Y3861000D01*
X28264591Y3856915D01*
X28264591Y3856915D01*
G37*
G36*
X35673512Y4706073D02*
G01*
X35822812Y4676376D01*
X35986784Y4608456D01*
X36134354Y4509853D01*
X36259853Y4384354D01*
X36358456Y4236784D01*
X36426376Y4072812D01*
X36455578Y3926000D01*
X36458915Y3909226D01*
X36461000Y3898741D01*
X36461000Y3721259D01*
X36426376Y3547188D01*
X36358456Y3383216D01*
X36259853Y3235646D01*
X36134354Y3110147D01*
X35986784Y3011544D01*
X35822812Y2943624D01*
X35679579Y2915134D01*
X35648742Y2909000D01*
X35471258Y2909000D01*
X35440421Y2915134D01*
X35297188Y2943624D01*
X35133216Y3011544D01*
X34985646Y3110147D01*
X34860147Y3235646D01*
X34761544Y3383216D01*
X34693624Y3547188D01*
X34659000Y3721259D01*
X34659000Y3898741D01*
X34661086Y3909226D01*
X34664422Y3926000D01*
X34693624Y4072812D01*
X34761544Y4236784D01*
X34860147Y4384354D01*
X34985646Y4509853D01*
X35133216Y4608456D01*
X35297188Y4676376D01*
X35446488Y4706073D01*
X35471258Y4711000D01*
X35648742Y4711000D01*
X35673512Y4706073D01*
X35673512Y4706073D01*
G37*
G36*
X-35446488Y4706073D02*
G01*
X-35297188Y4676376D01*
X-35133216Y4608456D01*
X-34985646Y4509853D01*
X-34860147Y4384354D01*
X-34761544Y4236784D01*
X-34693624Y4072812D01*
X-34664422Y3926000D01*
X-34661085Y3909226D01*
X-34659000Y3898741D01*
X-34659000Y3721259D01*
X-34693624Y3547188D01*
X-34761544Y3383216D01*
X-34860147Y3235646D01*
X-34985646Y3110147D01*
X-35133216Y3011544D01*
X-35297188Y2943624D01*
X-35440421Y2915134D01*
X-35471258Y2909000D01*
X-35648742Y2909000D01*
X-35679579Y2915134D01*
X-35822812Y2943624D01*
X-35986784Y3011544D01*
X-36134354Y3110147D01*
X-36259853Y3235646D01*
X-36358456Y3383216D01*
X-36426376Y3547188D01*
X-36461000Y3721259D01*
X-36461000Y3898741D01*
X-36458914Y3909226D01*
X-36455578Y3926000D01*
X-36426376Y4072812D01*
X-36358456Y4236784D01*
X-36259853Y4384354D01*
X-36134354Y4509853D01*
X-35986784Y4608456D01*
X-35822812Y4676376D01*
X-35673512Y4706073D01*
X-35648742Y4711000D01*
X-35471258Y4711000D01*
X-35446488Y4706073D01*
X-35446488Y4706073D01*
G37*
G36*
X-25274000Y4424000D02*
G01*
X-26876000Y4424000D01*
X-26876000Y5526000D01*
X-25274000Y5526000D01*
X-25274000Y4424000D01*
X-25274000Y4424000D01*
G37*
G36*
X26876000Y4424000D02*
G01*
X25274000Y4424000D01*
X25274000Y5526000D01*
X26876000Y5526000D01*
X26876000Y4424000D01*
X26876000Y4424000D01*
G37*
G36*
X-18524000Y4424000D02*
G01*
X-21976000Y4424000D01*
X-21976000Y5526000D01*
X-18524000Y5526000D01*
X-18524000Y4424000D01*
X-18524000Y4424000D01*
G37*
G36*
X-11774000Y4424000D02*
G01*
X-15226000Y4424000D01*
X-15226000Y5526000D01*
X-11774000Y5526000D01*
X-11774000Y4424000D01*
X-11774000Y4424000D01*
G37*
G36*
X-5024000Y4424000D02*
G01*
X-8476000Y4424000D01*
X-8476000Y5526000D01*
X-5024000Y5526000D01*
X-5024000Y4424000D01*
X-5024000Y4424000D01*
G37*
G36*
X1726000Y4424000D02*
G01*
X-1726000Y4424000D01*
X-1726000Y5526000D01*
X1726000Y5526000D01*
X1726000Y4424000D01*
X1726000Y4424000D01*
G37*
G36*
X8476000Y4424000D02*
G01*
X5024000Y4424000D01*
X5024000Y5526000D01*
X8476000Y5526000D01*
X8476000Y4424000D01*
X8476000Y4424000D01*
G37*
G36*
X15226000Y4424000D02*
G01*
X11774000Y4424000D01*
X11774000Y5526000D01*
X15226000Y5526000D01*
X15226000Y4424000D01*
X15226000Y4424000D01*
G37*
G36*
X21976000Y4424000D02*
G01*
X18524000Y4424000D01*
X18524000Y5526000D01*
X21976000Y5526000D01*
X21976000Y4424000D01*
X21976000Y4424000D01*
G37*
G36*
X28264591Y5431915D02*
G01*
X28298569Y5421607D01*
X28329890Y5404866D01*
X28357339Y5382339D01*
X28379866Y5354890D01*
X28396607Y5323569D01*
X28406915Y5289591D01*
X28411000Y5248110D01*
X28411000Y4646890D01*
X28406915Y4605409D01*
X28396607Y4571431D01*
X28379866Y4540110D01*
X28357339Y4512661D01*
X28329890Y4490134D01*
X28298569Y4473393D01*
X28264591Y4463085D01*
X28223110Y4459000D01*
X27546890Y4459000D01*
X27505409Y4463085D01*
X27471431Y4473393D01*
X27440110Y4490134D01*
X27412661Y4512661D01*
X27390134Y4540110D01*
X27373393Y4571431D01*
X27363085Y4605409D01*
X27359000Y4646890D01*
X27359000Y5248110D01*
X27363085Y5289591D01*
X27373393Y5323569D01*
X27390134Y5354890D01*
X27412661Y5382339D01*
X27440110Y5404866D01*
X27471431Y5421607D01*
X27505409Y5431915D01*
X27546890Y5436000D01*
X28223110Y5436000D01*
X28264591Y5431915D01*
X28264591Y5431915D01*
G37*
G36*
X-35446488Y7246073D02*
G01*
X-35297188Y7216376D01*
X-35133216Y7148456D01*
X-34985646Y7049853D01*
X-34860147Y6924354D01*
X-34761544Y6776784D01*
X-34693624Y6612812D01*
X-34659000Y6438741D01*
X-34659000Y6261259D01*
X-34693624Y6087188D01*
X-34761544Y5923216D01*
X-34860147Y5775646D01*
X-34985646Y5650147D01*
X-35133216Y5551544D01*
X-35297188Y5483624D01*
X-35446488Y5453927D01*
X-35471258Y5449000D01*
X-35648742Y5449000D01*
X-35673512Y5453927D01*
X-35822812Y5483624D01*
X-35986784Y5551544D01*
X-36134354Y5650147D01*
X-36259853Y5775646D01*
X-36358456Y5923216D01*
X-36426376Y6087188D01*
X-36461000Y6261259D01*
X-36461000Y6438741D01*
X-36426376Y6612812D01*
X-36358456Y6776784D01*
X-36259853Y6924354D01*
X-36134354Y7049853D01*
X-35986784Y7148456D01*
X-35822812Y7216376D01*
X-35673512Y7246073D01*
X-35648742Y7251000D01*
X-35471258Y7251000D01*
X-35446488Y7246073D01*
X-35446488Y7246073D01*
G37*
G36*
X35673512Y7246073D02*
G01*
X35822812Y7216376D01*
X35986784Y7148456D01*
X36134354Y7049853D01*
X36259853Y6924354D01*
X36358456Y6776784D01*
X36426376Y6612812D01*
X36461000Y6438741D01*
X36461000Y6261259D01*
X36426376Y6087188D01*
X36358456Y5923216D01*
X36259853Y5775646D01*
X36134354Y5650147D01*
X35986784Y5551544D01*
X35822812Y5483624D01*
X35673512Y5453927D01*
X35648742Y5449000D01*
X35471258Y5449000D01*
X35446488Y5453927D01*
X35297188Y5483624D01*
X35133216Y5551544D01*
X34985646Y5650147D01*
X34860147Y5775646D01*
X34761544Y5923216D01*
X34693624Y6087188D01*
X34659000Y6261259D01*
X34659000Y6438741D01*
X34693624Y6612812D01*
X34761544Y6776784D01*
X34860147Y6924354D01*
X34985646Y7049853D01*
X35133216Y7148456D01*
X35297188Y7216376D01*
X35446488Y7246073D01*
X35471258Y7251000D01*
X35648742Y7251000D01*
X35673512Y7246073D01*
X35673512Y7246073D01*
G37*
G36*
X21976000Y7974000D02*
G01*
X18524000Y7974000D01*
X18524000Y9076000D01*
X21976000Y9076000D01*
X21976000Y7974000D01*
X21976000Y7974000D01*
G37*
G36*
X8476000Y7974000D02*
G01*
X5024000Y7974000D01*
X5024000Y9076000D01*
X8476000Y9076000D01*
X8476000Y7974000D01*
X8476000Y7974000D01*
G37*
G36*
X1726000Y7974000D02*
G01*
X-1726000Y7974000D01*
X-1726000Y9076000D01*
X1726000Y9076000D01*
X1726000Y7974000D01*
X1726000Y7974000D01*
G37*
G36*
X26876000Y7974000D02*
G01*
X25274000Y7974000D01*
X25274000Y9076000D01*
X26876000Y9076000D01*
X26876000Y7974000D01*
X26876000Y7974000D01*
G37*
G36*
X15226000Y7974000D02*
G01*
X11774000Y7974000D01*
X11774000Y9076000D01*
X15226000Y9076000D01*
X15226000Y7974000D01*
X15226000Y7974000D01*
G37*
G36*
X-5024000Y7974000D02*
G01*
X-8476000Y7974000D01*
X-8476000Y9076000D01*
X-5024000Y9076000D01*
X-5024000Y7974000D01*
X-5024000Y7974000D01*
G37*
G36*
X-11774000Y7974000D02*
G01*
X-15226000Y7974000D01*
X-15226000Y9076000D01*
X-11774000Y9076000D01*
X-11774000Y7974000D01*
X-11774000Y7974000D01*
G37*
G36*
X-18524000Y7974000D02*
G01*
X-21976000Y7974000D01*
X-21976000Y9076000D01*
X-18524000Y9076000D01*
X-18524000Y7974000D01*
X-18524000Y7974000D01*
G37*
G36*
X-25274000Y7974000D02*
G01*
X-26876000Y7974000D01*
X-26876000Y9076000D01*
X-25274000Y9076000D01*
X-25274000Y7974000D01*
X-25274000Y7974000D01*
G37*
G36*
X35673512Y9786073D02*
G01*
X35822812Y9756376D01*
X35986784Y9688456D01*
X36134354Y9589853D01*
X36259853Y9464354D01*
X36358456Y9316784D01*
X36426376Y9152812D01*
X36461000Y8978741D01*
X36461000Y8801259D01*
X36426376Y8627188D01*
X36358456Y8463216D01*
X36259853Y8315646D01*
X36134354Y8190147D01*
X35986784Y8091544D01*
X35822812Y8023624D01*
X35673512Y7993927D01*
X35648742Y7989000D01*
X35471258Y7989000D01*
X35446488Y7993927D01*
X35297188Y8023624D01*
X35133216Y8091544D01*
X34985646Y8190147D01*
X34860147Y8315646D01*
X34761544Y8463216D01*
X34693624Y8627188D01*
X34659000Y8801259D01*
X34659000Y8978741D01*
X34693624Y9152812D01*
X34761544Y9316784D01*
X34860147Y9464354D01*
X34985646Y9589853D01*
X35133216Y9688456D01*
X35297188Y9756376D01*
X35446488Y9786073D01*
X35471258Y9791000D01*
X35648742Y9791000D01*
X35673512Y9786073D01*
X35673512Y9786073D01*
G37*
G36*
X-35446488Y9786073D02*
G01*
X-35297188Y9756376D01*
X-35133216Y9688456D01*
X-34985646Y9589853D01*
X-34860147Y9464354D01*
X-34761544Y9316784D01*
X-34693624Y9152812D01*
X-34659000Y8978741D01*
X-34659000Y8801259D01*
X-34693624Y8627188D01*
X-34761544Y8463216D01*
X-34860147Y8315646D01*
X-34985646Y8190147D01*
X-35133216Y8091544D01*
X-35297188Y8023624D01*
X-35446488Y7993927D01*
X-35471258Y7989000D01*
X-35648742Y7989000D01*
X-35673512Y7993927D01*
X-35822812Y8023624D01*
X-35986784Y8091544D01*
X-36134354Y8190147D01*
X-36259853Y8315646D01*
X-36358456Y8463216D01*
X-36426376Y8627188D01*
X-36461000Y8801259D01*
X-36461000Y8978741D01*
X-36426376Y9152812D01*
X-36358456Y9316784D01*
X-36259853Y9464354D01*
X-36134354Y9589853D01*
X-35986784Y9688456D01*
X-35822812Y9756376D01*
X-35673512Y9786073D01*
X-35648742Y9791000D01*
X-35471258Y9791000D01*
X-35446488Y9786073D01*
X-35446488Y9786073D01*
G37*
G36*
X20126000Y10483285D02*
G01*
X20128402Y10458899D01*
X20135515Y10435450D01*
X20147066Y10413839D01*
X20162611Y10394897D01*
X20181553Y10379352D01*
X20203164Y10367801D01*
X20226613Y10360688D01*
X20250999Y10358286D01*
X20275385Y10360688D01*
X20298834Y10367801D01*
X20320445Y10379352D01*
X20339387Y10394897D01*
X20354932Y10413839D01*
X20366483Y10435450D01*
X20375396Y10471032D01*
X20378686Y10504434D01*
X20390774Y10544284D01*
X20410399Y10580999D01*
X20436814Y10613186D01*
X20469001Y10639601D01*
X20505716Y10659226D01*
X20545566Y10671314D01*
X20593141Y10676000D01*
X21756859Y10676000D01*
X21804434Y10671314D01*
X21844284Y10659226D01*
X21880999Y10639601D01*
X21913186Y10613186D01*
X21939601Y10580999D01*
X21959226Y10544284D01*
X21971314Y10504434D01*
X21976000Y10456859D01*
X21976000Y9793141D01*
X21971314Y9745566D01*
X21959226Y9705716D01*
X21939601Y9669001D01*
X21913186Y9636814D01*
X21880999Y9610399D01*
X21844284Y9590774D01*
X21804434Y9578686D01*
X21756859Y9574000D01*
X20593141Y9574000D01*
X20545566Y9578686D01*
X20505716Y9590774D01*
X20469001Y9610399D01*
X20436814Y9636814D01*
X20410399Y9669001D01*
X20390774Y9705716D01*
X20378686Y9745566D01*
X20375396Y9778968D01*
X20370615Y9803001D01*
X20361238Y9825640D01*
X20347624Y9846014D01*
X20330297Y9863341D01*
X20309922Y9876955D01*
X20287283Y9886332D01*
X20263250Y9891112D01*
X20238746Y9891112D01*
X20214713Y9886331D01*
X20192074Y9876954D01*
X20171700Y9863340D01*
X20154373Y9846013D01*
X20140759Y9825638D01*
X20131382Y9802999D01*
X20126000Y9766715D01*
X20126000Y9574000D01*
X18524000Y9574000D01*
X18524000Y10676000D01*
X20126000Y10676000D01*
X20126000Y10483285D01*
X20126000Y10483285D01*
G37*
G36*
X13376000Y10483285D02*
G01*
X13378402Y10458899D01*
X13385515Y10435450D01*
X13397066Y10413839D01*
X13412611Y10394897D01*
X13431553Y10379352D01*
X13453164Y10367801D01*
X13476613Y10360688D01*
X13500999Y10358286D01*
X13525385Y10360688D01*
X13548834Y10367801D01*
X13570445Y10379352D01*
X13589387Y10394897D01*
X13604932Y10413839D01*
X13616483Y10435450D01*
X13625396Y10471032D01*
X13628686Y10504434D01*
X13640774Y10544284D01*
X13660399Y10580999D01*
X13686814Y10613186D01*
X13719001Y10639601D01*
X13755716Y10659226D01*
X13795566Y10671314D01*
X13843141Y10676000D01*
X15006859Y10676000D01*
X15054434Y10671314D01*
X15094284Y10659226D01*
X15130999Y10639601D01*
X15163186Y10613186D01*
X15189601Y10580999D01*
X15209226Y10544284D01*
X15221314Y10504434D01*
X15226000Y10456859D01*
X15226000Y9793141D01*
X15221314Y9745566D01*
X15209226Y9705716D01*
X15189601Y9669001D01*
X15163186Y9636814D01*
X15130999Y9610399D01*
X15094284Y9590774D01*
X15054434Y9578686D01*
X15006859Y9574000D01*
X13843141Y9574000D01*
X13795566Y9578686D01*
X13755716Y9590774D01*
X13719001Y9610399D01*
X13686814Y9636814D01*
X13660399Y9669001D01*
X13640774Y9705716D01*
X13628686Y9745566D01*
X13625396Y9778968D01*
X13620615Y9803001D01*
X13611238Y9825640D01*
X13597624Y9846014D01*
X13580297Y9863341D01*
X13559922Y9876955D01*
X13537283Y9886332D01*
X13513250Y9891112D01*
X13488746Y9891112D01*
X13464713Y9886331D01*
X13442074Y9876954D01*
X13421700Y9863340D01*
X13404373Y9846013D01*
X13390759Y9825638D01*
X13381382Y9802999D01*
X13376000Y9766715D01*
X13376000Y9574000D01*
X11774000Y9574000D01*
X11774000Y10676000D01*
X13376000Y10676000D01*
X13376000Y10483285D01*
X13376000Y10483285D01*
G37*
G36*
X6626000Y10483285D02*
G01*
X6628402Y10458899D01*
X6635515Y10435450D01*
X6647066Y10413839D01*
X6662611Y10394897D01*
X6681553Y10379352D01*
X6703164Y10367801D01*
X6726613Y10360688D01*
X6750999Y10358286D01*
X6775385Y10360688D01*
X6798834Y10367801D01*
X6820445Y10379352D01*
X6839387Y10394897D01*
X6854932Y10413839D01*
X6866483Y10435450D01*
X6875396Y10471032D01*
X6878686Y10504434D01*
X6890774Y10544284D01*
X6910399Y10580999D01*
X6936814Y10613186D01*
X6969001Y10639601D01*
X7005716Y10659226D01*
X7045566Y10671314D01*
X7093141Y10676000D01*
X8256859Y10676000D01*
X8304434Y10671314D01*
X8344284Y10659226D01*
X8380999Y10639601D01*
X8413186Y10613186D01*
X8439601Y10580999D01*
X8459226Y10544284D01*
X8471314Y10504434D01*
X8476000Y10456859D01*
X8476000Y9793141D01*
X8471314Y9745566D01*
X8459226Y9705716D01*
X8439601Y9669001D01*
X8413186Y9636814D01*
X8380999Y9610399D01*
X8344284Y9590774D01*
X8304434Y9578686D01*
X8256859Y9574000D01*
X7093141Y9574000D01*
X7045566Y9578686D01*
X7005716Y9590774D01*
X6969001Y9610399D01*
X6936814Y9636814D01*
X6910399Y9669001D01*
X6890774Y9705716D01*
X6878686Y9745566D01*
X6875396Y9778968D01*
X6870615Y9803001D01*
X6861238Y9825640D01*
X6847624Y9846014D01*
X6830297Y9863341D01*
X6809922Y9876955D01*
X6787283Y9886332D01*
X6763250Y9891112D01*
X6738746Y9891112D01*
X6714713Y9886331D01*
X6692074Y9876954D01*
X6671700Y9863340D01*
X6654373Y9846013D01*
X6640759Y9825638D01*
X6631382Y9802999D01*
X6626000Y9766715D01*
X6626000Y9574000D01*
X5024000Y9574000D01*
X5024000Y10676000D01*
X6626000Y10676000D01*
X6626000Y10483285D01*
X6626000Y10483285D01*
G37*
G36*
X-124000Y10483285D02*
G01*
X-121598Y10458899D01*
X-114485Y10435450D01*
X-102934Y10413839D01*
X-87389Y10394897D01*
X-68447Y10379352D01*
X-46836Y10367801D01*
X-23387Y10360688D01*
X999Y10358286D01*
X25385Y10360688D01*
X48834Y10367801D01*
X70445Y10379352D01*
X89387Y10394897D01*
X104932Y10413839D01*
X116483Y10435450D01*
X125396Y10471032D01*
X128686Y10504434D01*
X140774Y10544284D01*
X160399Y10580999D01*
X186814Y10613186D01*
X219001Y10639601D01*
X255716Y10659226D01*
X295566Y10671314D01*
X343141Y10676000D01*
X1506859Y10676000D01*
X1554434Y10671314D01*
X1594284Y10659226D01*
X1630999Y10639601D01*
X1663186Y10613186D01*
X1689601Y10580999D01*
X1709226Y10544284D01*
X1721314Y10504434D01*
X1726000Y10456859D01*
X1726000Y9793141D01*
X1721314Y9745566D01*
X1709226Y9705716D01*
X1689601Y9669001D01*
X1663186Y9636814D01*
X1630999Y9610399D01*
X1594284Y9590774D01*
X1554434Y9578686D01*
X1506859Y9574000D01*
X343141Y9574000D01*
X295566Y9578686D01*
X255716Y9590774D01*
X219001Y9610399D01*
X186814Y9636814D01*
X160399Y9669001D01*
X140774Y9705716D01*
X128686Y9745566D01*
X125396Y9778968D01*
X120615Y9803001D01*
X111238Y9825640D01*
X97624Y9846014D01*
X80297Y9863341D01*
X59922Y9876955D01*
X37283Y9886332D01*
X13250Y9891112D01*
X-11254Y9891112D01*
X-35287Y9886331D01*
X-57926Y9876954D01*
X-78300Y9863340D01*
X-95627Y9846013D01*
X-109241Y9825638D01*
X-118618Y9802999D01*
X-124000Y9766715D01*
X-124000Y9574000D01*
X-1726000Y9574000D01*
X-1726000Y10676000D01*
X-124000Y10676000D01*
X-124000Y10483285D01*
X-124000Y10483285D01*
G37*
G36*
X-6874000Y10483285D02*
G01*
X-6871598Y10458899D01*
X-6864485Y10435450D01*
X-6852934Y10413839D01*
X-6837389Y10394897D01*
X-6818447Y10379352D01*
X-6796836Y10367801D01*
X-6773387Y10360688D01*
X-6749001Y10358286D01*
X-6724615Y10360688D01*
X-6701166Y10367801D01*
X-6679555Y10379352D01*
X-6660613Y10394897D01*
X-6645068Y10413839D01*
X-6633517Y10435450D01*
X-6624604Y10471032D01*
X-6621314Y10504434D01*
X-6609226Y10544284D01*
X-6589601Y10580999D01*
X-6563186Y10613186D01*
X-6530999Y10639601D01*
X-6494284Y10659226D01*
X-6454434Y10671314D01*
X-6406859Y10676000D01*
X-5243141Y10676000D01*
X-5195566Y10671314D01*
X-5155716Y10659226D01*
X-5119001Y10639601D01*
X-5086814Y10613186D01*
X-5060399Y10580999D01*
X-5040774Y10544284D01*
X-5028686Y10504434D01*
X-5024000Y10456859D01*
X-5024000Y9793141D01*
X-5028686Y9745566D01*
X-5040774Y9705716D01*
X-5060399Y9669001D01*
X-5086814Y9636814D01*
X-5119001Y9610399D01*
X-5155716Y9590774D01*
X-5195566Y9578686D01*
X-5243141Y9574000D01*
X-6406859Y9574000D01*
X-6454434Y9578686D01*
X-6494284Y9590774D01*
X-6530999Y9610399D01*
X-6563186Y9636814D01*
X-6589601Y9669001D01*
X-6609226Y9705716D01*
X-6621314Y9745566D01*
X-6624604Y9778968D01*
X-6629385Y9803001D01*
X-6638762Y9825640D01*
X-6652376Y9846014D01*
X-6669703Y9863341D01*
X-6690078Y9876955D01*
X-6712717Y9886332D01*
X-6736750Y9891112D01*
X-6761254Y9891112D01*
X-6785287Y9886331D01*
X-6807926Y9876954D01*
X-6828300Y9863340D01*
X-6845627Y9846013D01*
X-6859241Y9825638D01*
X-6868618Y9802999D01*
X-6874000Y9766715D01*
X-6874000Y9574000D01*
X-8476000Y9574000D01*
X-8476000Y10676000D01*
X-6874000Y10676000D01*
X-6874000Y10483285D01*
X-6874000Y10483285D01*
G37*
G36*
X-13624000Y10483285D02*
G01*
X-13621598Y10458899D01*
X-13614485Y10435450D01*
X-13602934Y10413839D01*
X-13587389Y10394897D01*
X-13568447Y10379352D01*
X-13546836Y10367801D01*
X-13523387Y10360688D01*
X-13499001Y10358286D01*
X-13474615Y10360688D01*
X-13451166Y10367801D01*
X-13429555Y10379352D01*
X-13410613Y10394897D01*
X-13395068Y10413839D01*
X-13383517Y10435450D01*
X-13374604Y10471032D01*
X-13371314Y10504434D01*
X-13359226Y10544284D01*
X-13339601Y10580999D01*
X-13313186Y10613186D01*
X-13280999Y10639601D01*
X-13244284Y10659226D01*
X-13204434Y10671314D01*
X-13156859Y10676000D01*
X-11993141Y10676000D01*
X-11945566Y10671314D01*
X-11905716Y10659226D01*
X-11869001Y10639601D01*
X-11836814Y10613186D01*
X-11810399Y10580999D01*
X-11790774Y10544284D01*
X-11778686Y10504434D01*
X-11774000Y10456859D01*
X-11774000Y9793141D01*
X-11778686Y9745566D01*
X-11790774Y9705716D01*
X-11810399Y9669001D01*
X-11836814Y9636814D01*
X-11869001Y9610399D01*
X-11905716Y9590774D01*
X-11945566Y9578686D01*
X-11993141Y9574000D01*
X-13156859Y9574000D01*
X-13204434Y9578686D01*
X-13244284Y9590774D01*
X-13280999Y9610399D01*
X-13313186Y9636814D01*
X-13339601Y9669001D01*
X-13359226Y9705716D01*
X-13371314Y9745566D01*
X-13374604Y9778968D01*
X-13379385Y9803001D01*
X-13388762Y9825640D01*
X-13402376Y9846014D01*
X-13419703Y9863341D01*
X-13440078Y9876955D01*
X-13462717Y9886332D01*
X-13486750Y9891112D01*
X-13511254Y9891112D01*
X-13535287Y9886331D01*
X-13557926Y9876954D01*
X-13578300Y9863340D01*
X-13595627Y9846013D01*
X-13609241Y9825638D01*
X-13618618Y9802999D01*
X-13624000Y9766715D01*
X-13624000Y9574000D01*
X-15226000Y9574000D01*
X-15226000Y10676000D01*
X-13624000Y10676000D01*
X-13624000Y10483285D01*
X-13624000Y10483285D01*
G37*
G36*
X-20374000Y10483285D02*
G01*
X-20371598Y10458899D01*
X-20364485Y10435450D01*
X-20352934Y10413839D01*
X-20337389Y10394897D01*
X-20318447Y10379352D01*
X-20296836Y10367801D01*
X-20273387Y10360688D01*
X-20249001Y10358286D01*
X-20224615Y10360688D01*
X-20201166Y10367801D01*
X-20179555Y10379352D01*
X-20160613Y10394897D01*
X-20145068Y10413839D01*
X-20133517Y10435450D01*
X-20124604Y10471032D01*
X-20121314Y10504434D01*
X-20109226Y10544284D01*
X-20089601Y10580999D01*
X-20063186Y10613186D01*
X-20030999Y10639601D01*
X-19994284Y10659226D01*
X-19954434Y10671314D01*
X-19906859Y10676000D01*
X-18743141Y10676000D01*
X-18695566Y10671314D01*
X-18655716Y10659226D01*
X-18619001Y10639601D01*
X-18586814Y10613186D01*
X-18560399Y10580999D01*
X-18540774Y10544284D01*
X-18528686Y10504434D01*
X-18524000Y10456859D01*
X-18524000Y9793141D01*
X-18528686Y9745566D01*
X-18540774Y9705716D01*
X-18560399Y9669001D01*
X-18586814Y9636814D01*
X-18619001Y9610399D01*
X-18655716Y9590774D01*
X-18695566Y9578686D01*
X-18743141Y9574000D01*
X-19906859Y9574000D01*
X-19954434Y9578686D01*
X-19994284Y9590774D01*
X-20030999Y9610399D01*
X-20063186Y9636814D01*
X-20089601Y9669001D01*
X-20109226Y9705716D01*
X-20121314Y9745566D01*
X-20124604Y9778968D01*
X-20129385Y9803001D01*
X-20138762Y9825640D01*
X-20152376Y9846014D01*
X-20169703Y9863341D01*
X-20190078Y9876955D01*
X-20212717Y9886332D01*
X-20236750Y9891112D01*
X-20261254Y9891112D01*
X-20285287Y9886331D01*
X-20307926Y9876954D01*
X-20328300Y9863340D01*
X-20345627Y9846013D01*
X-20359241Y9825638D01*
X-20368618Y9802999D01*
X-20374000Y9766715D01*
X-20374000Y9574000D01*
X-21976000Y9574000D01*
X-21976000Y10676000D01*
X-20374000Y10676000D01*
X-20374000Y10483285D01*
X-20374000Y10483285D01*
G37*
G36*
X-25445566Y10671314D02*
G01*
X-25405716Y10659226D01*
X-25369001Y10639601D01*
X-25336814Y10613186D01*
X-25310399Y10580999D01*
X-25290774Y10544284D01*
X-25278686Y10504434D01*
X-25274000Y10456859D01*
X-25274000Y9793141D01*
X-25278686Y9745566D01*
X-25290774Y9705716D01*
X-25310399Y9669001D01*
X-25336814Y9636814D01*
X-25369001Y9610399D01*
X-25405716Y9590774D01*
X-25445566Y9578686D01*
X-25493141Y9574000D01*
X-26656859Y9574000D01*
X-26704434Y9578686D01*
X-26744284Y9590774D01*
X-26780999Y9610399D01*
X-26813186Y9636814D01*
X-26839601Y9669001D01*
X-26859226Y9705716D01*
X-26871314Y9745566D01*
X-26876000Y9793141D01*
X-26876000Y10456859D01*
X-26871314Y10504434D01*
X-26859226Y10544284D01*
X-26839601Y10580999D01*
X-26813186Y10613186D01*
X-26780999Y10639601D01*
X-26744284Y10659226D01*
X-26704434Y10671314D01*
X-26656859Y10676000D01*
X-25493141Y10676000D01*
X-25445566Y10671314D01*
X-25445566Y10671314D01*
G37*
G36*
X26876000Y9574000D02*
G01*
X25274000Y9574000D01*
X25274000Y10676000D01*
X26876000Y10676000D01*
X26876000Y9574000D01*
X26876000Y9574000D01*
G37*
G36*
X28269591Y10621915D02*
G01*
X28303569Y10611607D01*
X28334890Y10594866D01*
X28362339Y10572339D01*
X28384866Y10544890D01*
X28401607Y10513569D01*
X28411915Y10479591D01*
X28416000Y10438110D01*
X28416000Y9836890D01*
X28411915Y9795409D01*
X28401607Y9761431D01*
X28384866Y9730110D01*
X28362339Y9702661D01*
X28334890Y9680134D01*
X28303569Y9663393D01*
X28269591Y9653085D01*
X28228110Y9649000D01*
X27551890Y9649000D01*
X27510409Y9653085D01*
X27476431Y9663393D01*
X27445110Y9680134D01*
X27417661Y9702661D01*
X27395134Y9730110D01*
X27378393Y9761431D01*
X27368085Y9795409D01*
X27364000Y9836890D01*
X27364000Y10438110D01*
X27368085Y10479591D01*
X27378393Y10513569D01*
X27395134Y10544890D01*
X27417661Y10572339D01*
X27445110Y10594866D01*
X27476431Y10611607D01*
X27510409Y10621915D01*
X27551890Y10626000D01*
X28228110Y10626000D01*
X28269591Y10621915D01*
X28269591Y10621915D01*
G37*
G36*
X35673512Y12326073D02*
G01*
X35822812Y12296376D01*
X35986784Y12228456D01*
X36134354Y12129853D01*
X36259853Y12004354D01*
X36358456Y11856784D01*
X36426376Y11692812D01*
X36461000Y11518741D01*
X36461000Y11341259D01*
X36426376Y11167188D01*
X36358456Y11003216D01*
X36259853Y10855646D01*
X36134354Y10730147D01*
X35986784Y10631544D01*
X35822812Y10563624D01*
X35673512Y10533927D01*
X35648742Y10529000D01*
X35471258Y10529000D01*
X35446488Y10533927D01*
X35297188Y10563624D01*
X35133216Y10631544D01*
X34985646Y10730147D01*
X34860147Y10855646D01*
X34761544Y11003216D01*
X34693624Y11167188D01*
X34659000Y11341259D01*
X34659000Y11518741D01*
X34693624Y11692812D01*
X34761544Y11856784D01*
X34860147Y12004354D01*
X34985646Y12129853D01*
X35133216Y12228456D01*
X35297188Y12296376D01*
X35446488Y12326073D01*
X35471258Y12331000D01*
X35648742Y12331000D01*
X35673512Y12326073D01*
X35673512Y12326073D01*
G37*
G36*
X-35446488Y12326073D02*
G01*
X-35297188Y12296376D01*
X-35133216Y12228456D01*
X-34985646Y12129853D01*
X-34860147Y12004354D01*
X-34761544Y11856784D01*
X-34693624Y11692812D01*
X-34659000Y11518741D01*
X-34659000Y11341259D01*
X-34693624Y11167188D01*
X-34761544Y11003216D01*
X-34860147Y10855646D01*
X-34985646Y10730147D01*
X-35133216Y10631544D01*
X-35297188Y10563624D01*
X-35446488Y10533927D01*
X-35471258Y10529000D01*
X-35648742Y10529000D01*
X-35673512Y10533927D01*
X-35822812Y10563624D01*
X-35986784Y10631544D01*
X-36134354Y10730147D01*
X-36259853Y10855646D01*
X-36358456Y11003216D01*
X-36426376Y11167188D01*
X-36461000Y11341259D01*
X-36461000Y11518741D01*
X-36426376Y11692812D01*
X-36358456Y11856784D01*
X-36259853Y12004354D01*
X-36134354Y12129853D01*
X-35986784Y12228456D01*
X-35822812Y12296376D01*
X-35673512Y12326073D01*
X-35648742Y12331000D01*
X-35471258Y12331000D01*
X-35446488Y12326073D01*
X-35446488Y12326073D01*
G37*
G36*
X-11774000Y11174000D02*
G01*
X-15226000Y11174000D01*
X-15226000Y12276000D01*
X-11774000Y12276000D01*
X-11774000Y11174000D01*
X-11774000Y11174000D01*
G37*
G36*
X-5024000Y11174000D02*
G01*
X-8476000Y11174000D01*
X-8476000Y12276000D01*
X-5024000Y12276000D01*
X-5024000Y11174000D01*
X-5024000Y11174000D01*
G37*
G36*
X1726000Y11174000D02*
G01*
X-1726000Y11174000D01*
X-1726000Y12276000D01*
X1726000Y12276000D01*
X1726000Y11174000D01*
X1726000Y11174000D01*
G37*
G36*
X8476000Y11174000D02*
G01*
X5024000Y11174000D01*
X5024000Y12276000D01*
X8476000Y12276000D01*
X8476000Y11174000D01*
X8476000Y11174000D01*
G37*
G36*
X15226000Y11174000D02*
G01*
X11774000Y11174000D01*
X11774000Y12276000D01*
X15226000Y12276000D01*
X15226000Y11174000D01*
X15226000Y11174000D01*
G37*
G36*
X21976000Y11174000D02*
G01*
X18524000Y11174000D01*
X18524000Y12276000D01*
X21976000Y12276000D01*
X21976000Y11174000D01*
X21976000Y11174000D01*
G37*
G36*
X26876000Y11174000D02*
G01*
X25274000Y11174000D01*
X25274000Y12276000D01*
X26876000Y12276000D01*
X26876000Y11174000D01*
X26876000Y11174000D01*
G37*
G36*
X-18524000Y11174000D02*
G01*
X-21976000Y11174000D01*
X-21976000Y12276000D01*
X-18524000Y12276000D01*
X-18524000Y11174000D01*
X-18524000Y11174000D01*
G37*
G36*
X-25274000Y11174000D02*
G01*
X-26876000Y11174000D01*
X-26876000Y12276000D01*
X-25274000Y12276000D01*
X-25274000Y11174000D01*
X-25274000Y11174000D01*
G37*
G36*
X28269591Y12196915D02*
G01*
X28303569Y12186607D01*
X28334890Y12169866D01*
X28362339Y12147339D01*
X28384866Y12119890D01*
X28401607Y12088569D01*
X28411915Y12054591D01*
X28416000Y12013110D01*
X28416000Y11411890D01*
X28411915Y11370409D01*
X28401607Y11336431D01*
X28384866Y11305110D01*
X28362339Y11277661D01*
X28334890Y11255134D01*
X28303569Y11238393D01*
X28269591Y11228085D01*
X28228110Y11224000D01*
X27551890Y11224000D01*
X27510409Y11228085D01*
X27476431Y11238393D01*
X27445110Y11255134D01*
X27417661Y11277661D01*
X27395134Y11305110D01*
X27378393Y11336431D01*
X27368085Y11370409D01*
X27364000Y11411890D01*
X27364000Y12013110D01*
X27368085Y12054591D01*
X27378393Y12088569D01*
X27395134Y12119890D01*
X27417661Y12147339D01*
X27445110Y12169866D01*
X27476431Y12186607D01*
X27510409Y12196915D01*
X27551890Y12201000D01*
X28228110Y12201000D01*
X28269591Y12196915D01*
X28269591Y12196915D01*
G37*
G36*
X35673512Y14866073D02*
G01*
X35822812Y14836376D01*
X35986784Y14768456D01*
X36134354Y14669853D01*
X36259853Y14544354D01*
X36358456Y14396784D01*
X36426376Y14232812D01*
X36461000Y14058741D01*
X36461000Y13881259D01*
X36426376Y13707188D01*
X36358456Y13543216D01*
X36259853Y13395646D01*
X36134354Y13270147D01*
X35986784Y13171544D01*
X35822812Y13103624D01*
X35673512Y13073927D01*
X35648742Y13069000D01*
X35471258Y13069000D01*
X35446488Y13073927D01*
X35297188Y13103624D01*
X35133216Y13171544D01*
X34985646Y13270147D01*
X34860147Y13395646D01*
X34761544Y13543216D01*
X34693624Y13707188D01*
X34659000Y13881259D01*
X34659000Y14058741D01*
X34693624Y14232812D01*
X34761544Y14396784D01*
X34860147Y14544354D01*
X34985646Y14669853D01*
X35133216Y14768456D01*
X35297188Y14836376D01*
X35446488Y14866073D01*
X35471258Y14871000D01*
X35648742Y14871000D01*
X35673512Y14866073D01*
X35673512Y14866073D01*
G37*
G36*
X-35446488Y14866073D02*
G01*
X-35297188Y14836376D01*
X-35133216Y14768456D01*
X-34985646Y14669853D01*
X-34860147Y14544354D01*
X-34761544Y14396784D01*
X-34693624Y14232812D01*
X-34659000Y14058741D01*
X-34659000Y13881259D01*
X-34693624Y13707188D01*
X-34761544Y13543216D01*
X-34860147Y13395646D01*
X-34985646Y13270147D01*
X-35133216Y13171544D01*
X-35297188Y13103624D01*
X-35446488Y13073927D01*
X-35471258Y13069000D01*
X-35648742Y13069000D01*
X-35673512Y13073927D01*
X-35822812Y13103624D01*
X-35986784Y13171544D01*
X-36134354Y13270147D01*
X-36259853Y13395646D01*
X-36358456Y13543216D01*
X-36426376Y13707188D01*
X-36461000Y13881259D01*
X-36461000Y14058741D01*
X-36426376Y14232812D01*
X-36358456Y14396784D01*
X-36259853Y14544354D01*
X-36134354Y14669853D01*
X-35986784Y14768456D01*
X-35822812Y14836376D01*
X-35673512Y14866073D01*
X-35648742Y14871000D01*
X-35471258Y14871000D01*
X-35446488Y14866073D01*
X-35446488Y14866073D01*
G37*
G36*
X26876000Y14724000D02*
G01*
X25274000Y14724000D01*
X25274000Y15826000D01*
X26876000Y15826000D01*
X26876000Y14724000D01*
X26876000Y14724000D01*
G37*
G36*
X21976000Y14724000D02*
G01*
X18524000Y14724000D01*
X18524000Y15826000D01*
X21976000Y15826000D01*
X21976000Y14724000D01*
X21976000Y14724000D01*
G37*
G36*
X15226000Y14724000D02*
G01*
X11774000Y14724000D01*
X11774000Y15826000D01*
X15226000Y15826000D01*
X15226000Y14724000D01*
X15226000Y14724000D01*
G37*
G36*
X8476000Y14724000D02*
G01*
X5024000Y14724000D01*
X5024000Y15826000D01*
X8476000Y15826000D01*
X8476000Y14724000D01*
X8476000Y14724000D01*
G37*
G36*
X1726000Y14724000D02*
G01*
X-1726000Y14724000D01*
X-1726000Y15826000D01*
X1726000Y15826000D01*
X1726000Y14724000D01*
X1726000Y14724000D01*
G37*
G36*
X-5024000Y14724000D02*
G01*
X-8476000Y14724000D01*
X-8476000Y15826000D01*
X-5024000Y15826000D01*
X-5024000Y14724000D01*
X-5024000Y14724000D01*
G37*
G36*
X-11774000Y14724000D02*
G01*
X-15226000Y14724000D01*
X-15226000Y15826000D01*
X-11774000Y15826000D01*
X-11774000Y14724000D01*
X-11774000Y14724000D01*
G37*
G36*
X-18524000Y14724000D02*
G01*
X-21976000Y14724000D01*
X-21976000Y15826000D01*
X-18524000Y15826000D01*
X-18524000Y14724000D01*
X-18524000Y14724000D01*
G37*
G36*
X-25274000Y14724000D02*
G01*
X-26876000Y14724000D01*
X-26876000Y15826000D01*
X-25274000Y15826000D01*
X-25274000Y14724000D01*
X-25274000Y14724000D01*
G37*
G36*
X35657660Y17409226D02*
G01*
X35822812Y17376376D01*
X35986784Y17308456D01*
X36134354Y17209853D01*
X36259853Y17084354D01*
X36358456Y16936784D01*
X36426376Y16772812D01*
X36461000Y16598741D01*
X36461000Y16421259D01*
X36426376Y16247188D01*
X36358456Y16083216D01*
X36259853Y15935646D01*
X36134354Y15810147D01*
X35986784Y15711544D01*
X35822812Y15643624D01*
X35673512Y15613927D01*
X35648742Y15609000D01*
X35471258Y15609000D01*
X35446488Y15613927D01*
X35297188Y15643624D01*
X35133216Y15711544D01*
X34985646Y15810147D01*
X34860147Y15935646D01*
X34761544Y16083216D01*
X34693624Y16247188D01*
X34659000Y16421259D01*
X34659000Y16598741D01*
X34693624Y16772812D01*
X34761544Y16936784D01*
X34860147Y17084354D01*
X34985646Y17209853D01*
X35133216Y17308456D01*
X35297188Y17376376D01*
X35462340Y17409226D01*
X35471258Y17411000D01*
X35648742Y17411000D01*
X35657660Y17409226D01*
X35657660Y17409226D01*
G37*
G36*
X-35462340Y17409226D02*
G01*
X-35297188Y17376376D01*
X-35133216Y17308456D01*
X-34985646Y17209853D01*
X-34860147Y17084354D01*
X-34761544Y16936784D01*
X-34693624Y16772812D01*
X-34659000Y16598741D01*
X-34659000Y16421259D01*
X-34693624Y16247188D01*
X-34761544Y16083216D01*
X-34860147Y15935646D01*
X-34985646Y15810147D01*
X-35133216Y15711544D01*
X-35297188Y15643624D01*
X-35446488Y15613927D01*
X-35471258Y15609000D01*
X-35648742Y15609000D01*
X-35673512Y15613927D01*
X-35822812Y15643624D01*
X-35986784Y15711544D01*
X-36134354Y15810147D01*
X-36259853Y15935646D01*
X-36358456Y16083216D01*
X-36426376Y16247188D01*
X-36461000Y16421259D01*
X-36461000Y16598741D01*
X-36426376Y16772812D01*
X-36358456Y16936784D01*
X-36259853Y17084354D01*
X-36134354Y17209853D01*
X-35986784Y17308456D01*
X-35822812Y17376376D01*
X-35657660Y17409226D01*
X-35648742Y17411000D01*
X-35471258Y17411000D01*
X-35462340Y17409226D01*
X-35462340Y17409226D01*
G37*
G36*
X26876000Y16324000D02*
G01*
X25274000Y16324000D01*
X25274000Y17426000D01*
X26876000Y17426000D01*
X26876000Y16324000D01*
X26876000Y16324000D01*
G37*
G36*
X13376000Y17233285D02*
G01*
X13378402Y17208899D01*
X13385515Y17185450D01*
X13397066Y17163839D01*
X13412611Y17144897D01*
X13431553Y17129352D01*
X13453164Y17117801D01*
X13476613Y17110688D01*
X13500999Y17108286D01*
X13525385Y17110688D01*
X13548834Y17117801D01*
X13570445Y17129352D01*
X13589387Y17144897D01*
X13604932Y17163839D01*
X13616483Y17185450D01*
X13625396Y17221032D01*
X13628686Y17254434D01*
X13640774Y17294284D01*
X13660399Y17330999D01*
X13686814Y17363186D01*
X13719001Y17389601D01*
X13755716Y17409226D01*
X13795566Y17421314D01*
X13843141Y17426000D01*
X15006859Y17426000D01*
X15054434Y17421314D01*
X15094284Y17409226D01*
X15130999Y17389601D01*
X15163186Y17363186D01*
X15189601Y17330999D01*
X15209226Y17294284D01*
X15221314Y17254434D01*
X15226000Y17206859D01*
X15226000Y16543141D01*
X15221314Y16495566D01*
X15209226Y16455716D01*
X15189601Y16419001D01*
X15163186Y16386814D01*
X15130999Y16360399D01*
X15094284Y16340774D01*
X15054434Y16328686D01*
X15006859Y16324000D01*
X13843141Y16324000D01*
X13795566Y16328686D01*
X13755716Y16340774D01*
X13719001Y16360399D01*
X13686814Y16386814D01*
X13660399Y16419001D01*
X13640774Y16455716D01*
X13628686Y16495566D01*
X13625396Y16528968D01*
X13620615Y16553001D01*
X13611238Y16575640D01*
X13597624Y16596014D01*
X13580297Y16613341D01*
X13559922Y16626955D01*
X13537283Y16636332D01*
X13513250Y16641112D01*
X13488746Y16641112D01*
X13464713Y16636331D01*
X13442074Y16626954D01*
X13421700Y16613340D01*
X13404373Y16596013D01*
X13390759Y16575638D01*
X13381382Y16552999D01*
X13376000Y16516715D01*
X13376000Y16324000D01*
X11774000Y16324000D01*
X11774000Y17426000D01*
X13376000Y17426000D01*
X13376000Y17233285D01*
X13376000Y17233285D01*
G37*
G36*
X20126000Y17233285D02*
G01*
X20128402Y17208899D01*
X20135515Y17185450D01*
X20147066Y17163839D01*
X20162611Y17144897D01*
X20181553Y17129352D01*
X20203164Y17117801D01*
X20226613Y17110688D01*
X20250999Y17108286D01*
X20275385Y17110688D01*
X20298834Y17117801D01*
X20320445Y17129352D01*
X20339387Y17144897D01*
X20354932Y17163839D01*
X20366483Y17185450D01*
X20375396Y17221032D01*
X20378686Y17254434D01*
X20390774Y17294284D01*
X20410399Y17330999D01*
X20436814Y17363186D01*
X20469001Y17389601D01*
X20505716Y17409226D01*
X20545566Y17421314D01*
X20593141Y17426000D01*
X21756859Y17426000D01*
X21804434Y17421314D01*
X21844284Y17409226D01*
X21880999Y17389601D01*
X21913186Y17363186D01*
X21939601Y17330999D01*
X21959226Y17294284D01*
X21971314Y17254434D01*
X21976000Y17206859D01*
X21976000Y16543141D01*
X21971314Y16495566D01*
X21959226Y16455716D01*
X21939601Y16419001D01*
X21913186Y16386814D01*
X21880999Y16360399D01*
X21844284Y16340774D01*
X21804434Y16328686D01*
X21756859Y16324000D01*
X20593141Y16324000D01*
X20545566Y16328686D01*
X20505716Y16340774D01*
X20469001Y16360399D01*
X20436814Y16386814D01*
X20410399Y16419001D01*
X20390774Y16455716D01*
X20378686Y16495566D01*
X20375396Y16528968D01*
X20370615Y16553001D01*
X20361238Y16575640D01*
X20347624Y16596014D01*
X20330297Y16613341D01*
X20309922Y16626955D01*
X20287283Y16636332D01*
X20263250Y16641112D01*
X20238746Y16641112D01*
X20214713Y16636331D01*
X20192074Y16626954D01*
X20171700Y16613340D01*
X20154373Y16596013D01*
X20140759Y16575638D01*
X20131382Y16552999D01*
X20126000Y16516715D01*
X20126000Y16324000D01*
X18524000Y16324000D01*
X18524000Y17426000D01*
X20126000Y17426000D01*
X20126000Y17233285D01*
X20126000Y17233285D01*
G37*
G36*
X-20374000Y17233285D02*
G01*
X-20371598Y17208899D01*
X-20364485Y17185450D01*
X-20352934Y17163839D01*
X-20337389Y17144897D01*
X-20318447Y17129352D01*
X-20296836Y17117801D01*
X-20273387Y17110688D01*
X-20249001Y17108286D01*
X-20224615Y17110688D01*
X-20201166Y17117801D01*
X-20179555Y17129352D01*
X-20160613Y17144897D01*
X-20145068Y17163839D01*
X-20133517Y17185450D01*
X-20124604Y17221032D01*
X-20121314Y17254434D01*
X-20109226Y17294284D01*
X-20089601Y17330999D01*
X-20063186Y17363186D01*
X-20030999Y17389601D01*
X-19994284Y17409226D01*
X-19954434Y17421314D01*
X-19906859Y17426000D01*
X-18743141Y17426000D01*
X-18695566Y17421314D01*
X-18655716Y17409226D01*
X-18619001Y17389601D01*
X-18586814Y17363186D01*
X-18560399Y17330999D01*
X-18540774Y17294284D01*
X-18528686Y17254434D01*
X-18524000Y17206859D01*
X-18524000Y16543141D01*
X-18528686Y16495566D01*
X-18540774Y16455716D01*
X-18560399Y16419001D01*
X-18586814Y16386814D01*
X-18619001Y16360399D01*
X-18655716Y16340774D01*
X-18695566Y16328686D01*
X-18743141Y16324000D01*
X-19906859Y16324000D01*
X-19954434Y16328686D01*
X-19994284Y16340774D01*
X-20030999Y16360399D01*
X-20063186Y16386814D01*
X-20089601Y16419001D01*
X-20109226Y16455716D01*
X-20121314Y16495566D01*
X-20124604Y16528968D01*
X-20129385Y16553001D01*
X-20138762Y16575640D01*
X-20152376Y16596014D01*
X-20169703Y16613341D01*
X-20190078Y16626955D01*
X-20212717Y16636332D01*
X-20236750Y16641112D01*
X-20261254Y16641112D01*
X-20285287Y16636331D01*
X-20307926Y16626954D01*
X-20328300Y16613340D01*
X-20345627Y16596013D01*
X-20359241Y16575638D01*
X-20368618Y16552999D01*
X-20374000Y16516715D01*
X-20374000Y16324000D01*
X-21976000Y16324000D01*
X-21976000Y17426000D01*
X-20374000Y17426000D01*
X-20374000Y17233285D01*
X-20374000Y17233285D01*
G37*
G36*
X-25445566Y17421314D02*
G01*
X-25405716Y17409226D01*
X-25369001Y17389601D01*
X-25336814Y17363186D01*
X-25310399Y17330999D01*
X-25290774Y17294284D01*
X-25278686Y17254434D01*
X-25274000Y17206859D01*
X-25274000Y16543141D01*
X-25278686Y16495566D01*
X-25290774Y16455716D01*
X-25310399Y16419001D01*
X-25336814Y16386814D01*
X-25369001Y16360399D01*
X-25405716Y16340774D01*
X-25445566Y16328686D01*
X-25493141Y16324000D01*
X-26656859Y16324000D01*
X-26704434Y16328686D01*
X-26744284Y16340774D01*
X-26780999Y16360399D01*
X-26813186Y16386814D01*
X-26839601Y16419001D01*
X-26859226Y16455716D01*
X-26871314Y16495566D01*
X-26876000Y16543141D01*
X-26876000Y17206859D01*
X-26871314Y17254434D01*
X-26859226Y17294284D01*
X-26839601Y17330999D01*
X-26813186Y17363186D01*
X-26780999Y17389601D01*
X-26744284Y17409226D01*
X-26704434Y17421314D01*
X-26656859Y17426000D01*
X-25493141Y17426000D01*
X-25445566Y17421314D01*
X-25445566Y17421314D01*
G37*
G36*
X6626000Y17233285D02*
G01*
X6628402Y17208899D01*
X6635515Y17185450D01*
X6647066Y17163839D01*
X6662611Y17144897D01*
X6681553Y17129352D01*
X6703164Y17117801D01*
X6726613Y17110688D01*
X6750999Y17108286D01*
X6775385Y17110688D01*
X6798834Y17117801D01*
X6820445Y17129352D01*
X6839387Y17144897D01*
X6854932Y17163839D01*
X6866483Y17185450D01*
X6875396Y17221032D01*
X6878686Y17254434D01*
X6890774Y17294284D01*
X6910399Y17330999D01*
X6936814Y17363186D01*
X6969001Y17389601D01*
X7005716Y17409226D01*
X7045566Y17421314D01*
X7093141Y17426000D01*
X8256859Y17426000D01*
X8304434Y17421314D01*
X8344284Y17409226D01*
X8380999Y17389601D01*
X8413186Y17363186D01*
X8439601Y17330999D01*
X8459226Y17294284D01*
X8471314Y17254434D01*
X8476000Y17206859D01*
X8476000Y16543141D01*
X8471314Y16495566D01*
X8459226Y16455716D01*
X8439601Y16419001D01*
X8413186Y16386814D01*
X8380999Y16360399D01*
X8344284Y16340774D01*
X8304434Y16328686D01*
X8256859Y16324000D01*
X7093141Y16324000D01*
X7045566Y16328686D01*
X7005716Y16340774D01*
X6969001Y16360399D01*
X6936814Y16386814D01*
X6910399Y16419001D01*
X6890774Y16455716D01*
X6878686Y16495566D01*
X6875396Y16528968D01*
X6870615Y16553001D01*
X6861238Y16575640D01*
X6847624Y16596014D01*
X6830297Y16613341D01*
X6809922Y16626955D01*
X6787283Y16636332D01*
X6763250Y16641112D01*
X6738746Y16641112D01*
X6714713Y16636331D01*
X6692074Y16626954D01*
X6671700Y16613340D01*
X6654373Y16596013D01*
X6640759Y16575638D01*
X6631382Y16552999D01*
X6626000Y16516715D01*
X6626000Y16324000D01*
X5024000Y16324000D01*
X5024000Y17426000D01*
X6626000Y17426000D01*
X6626000Y17233285D01*
X6626000Y17233285D01*
G37*
G36*
X-124000Y17233285D02*
G01*
X-121598Y17208899D01*
X-114485Y17185450D01*
X-102934Y17163839D01*
X-87389Y17144897D01*
X-68447Y17129352D01*
X-46836Y17117801D01*
X-23387Y17110688D01*
X999Y17108286D01*
X25385Y17110688D01*
X48834Y17117801D01*
X70445Y17129352D01*
X89387Y17144897D01*
X104932Y17163839D01*
X116483Y17185450D01*
X125396Y17221032D01*
X128686Y17254434D01*
X140774Y17294284D01*
X160399Y17330999D01*
X186814Y17363186D01*
X219001Y17389601D01*
X255716Y17409226D01*
X295566Y17421314D01*
X343141Y17426000D01*
X1506859Y17426000D01*
X1554434Y17421314D01*
X1594284Y17409226D01*
X1630999Y17389601D01*
X1663186Y17363186D01*
X1689601Y17330999D01*
X1709226Y17294284D01*
X1721314Y17254434D01*
X1726000Y17206859D01*
X1726000Y16543141D01*
X1721314Y16495566D01*
X1709226Y16455716D01*
X1689601Y16419001D01*
X1663186Y16386814D01*
X1630999Y16360399D01*
X1594284Y16340774D01*
X1554434Y16328686D01*
X1506859Y16324000D01*
X343141Y16324000D01*
X295566Y16328686D01*
X255716Y16340774D01*
X219001Y16360399D01*
X186814Y16386814D01*
X160399Y16419001D01*
X140774Y16455716D01*
X128686Y16495566D01*
X125396Y16528968D01*
X120615Y16553001D01*
X111238Y16575640D01*
X97624Y16596014D01*
X80297Y16613341D01*
X59922Y16626955D01*
X37283Y16636332D01*
X13250Y16641112D01*
X-11254Y16641112D01*
X-35287Y16636331D01*
X-57926Y16626954D01*
X-78300Y16613340D01*
X-95627Y16596013D01*
X-109241Y16575638D01*
X-118618Y16552999D01*
X-124000Y16516715D01*
X-124000Y16324000D01*
X-1726000Y16324000D01*
X-1726000Y17426000D01*
X-124000Y17426000D01*
X-124000Y17233285D01*
X-124000Y17233285D01*
G37*
G36*
X-13624000Y17233285D02*
G01*
X-13621598Y17208899D01*
X-13614485Y17185450D01*
X-13602934Y17163839D01*
X-13587389Y17144897D01*
X-13568447Y17129352D01*
X-13546836Y17117801D01*
X-13523387Y17110688D01*
X-13499001Y17108286D01*
X-13474615Y17110688D01*
X-13451166Y17117801D01*
X-13429555Y17129352D01*
X-13410613Y17144897D01*
X-13395068Y17163839D01*
X-13383517Y17185450D01*
X-13374604Y17221032D01*
X-13371314Y17254434D01*
X-13359226Y17294284D01*
X-13339601Y17330999D01*
X-13313186Y17363186D01*
X-13280999Y17389601D01*
X-13244284Y17409226D01*
X-13204434Y17421314D01*
X-13156859Y17426000D01*
X-11993141Y17426000D01*
X-11945566Y17421314D01*
X-11905716Y17409226D01*
X-11869001Y17389601D01*
X-11836814Y17363186D01*
X-11810399Y17330999D01*
X-11790774Y17294284D01*
X-11778686Y17254434D01*
X-11774000Y17206859D01*
X-11774000Y16543141D01*
X-11778686Y16495566D01*
X-11790774Y16455716D01*
X-11810399Y16419001D01*
X-11836814Y16386814D01*
X-11869001Y16360399D01*
X-11905716Y16340774D01*
X-11945566Y16328686D01*
X-11993141Y16324000D01*
X-13156859Y16324000D01*
X-13204434Y16328686D01*
X-13244284Y16340774D01*
X-13280999Y16360399D01*
X-13313186Y16386814D01*
X-13339601Y16419001D01*
X-13359226Y16455716D01*
X-13371314Y16495566D01*
X-13374604Y16528968D01*
X-13379385Y16553001D01*
X-13388762Y16575640D01*
X-13402376Y16596014D01*
X-13419703Y16613341D01*
X-13440078Y16626955D01*
X-13462717Y16636332D01*
X-13486750Y16641112D01*
X-13511254Y16641112D01*
X-13535287Y16636331D01*
X-13557926Y16626954D01*
X-13578300Y16613340D01*
X-13595627Y16596013D01*
X-13609241Y16575638D01*
X-13618618Y16552999D01*
X-13624000Y16516715D01*
X-13624000Y16324000D01*
X-15226000Y16324000D01*
X-15226000Y17426000D01*
X-13624000Y17426000D01*
X-13624000Y17233285D01*
X-13624000Y17233285D01*
G37*
G36*
X-6874000Y17233285D02*
G01*
X-6871598Y17208899D01*
X-6864485Y17185450D01*
X-6852934Y17163839D01*
X-6837389Y17144897D01*
X-6818447Y17129352D01*
X-6796836Y17117801D01*
X-6773387Y17110688D01*
X-6749001Y17108286D01*
X-6724615Y17110688D01*
X-6701166Y17117801D01*
X-6679555Y17129352D01*
X-6660613Y17144897D01*
X-6645068Y17163839D01*
X-6633517Y17185450D01*
X-6624604Y17221032D01*
X-6621314Y17254434D01*
X-6609226Y17294284D01*
X-6589601Y17330999D01*
X-6563186Y17363186D01*
X-6530999Y17389601D01*
X-6494284Y17409226D01*
X-6454434Y17421314D01*
X-6406859Y17426000D01*
X-5243141Y17426000D01*
X-5195566Y17421314D01*
X-5155716Y17409226D01*
X-5119001Y17389601D01*
X-5086814Y17363186D01*
X-5060399Y17330999D01*
X-5040774Y17294284D01*
X-5028686Y17254434D01*
X-5024000Y17206859D01*
X-5024000Y16543141D01*
X-5028686Y16495566D01*
X-5040774Y16455716D01*
X-5060399Y16419001D01*
X-5086814Y16386814D01*
X-5119001Y16360399D01*
X-5155716Y16340774D01*
X-5195566Y16328686D01*
X-5243141Y16324000D01*
X-6406859Y16324000D01*
X-6454434Y16328686D01*
X-6494284Y16340774D01*
X-6530999Y16360399D01*
X-6563186Y16386814D01*
X-6589601Y16419001D01*
X-6609226Y16455716D01*
X-6621314Y16495566D01*
X-6624604Y16528968D01*
X-6629385Y16553001D01*
X-6638762Y16575640D01*
X-6652376Y16596014D01*
X-6669703Y16613341D01*
X-6690078Y16626955D01*
X-6712717Y16636332D01*
X-6736750Y16641112D01*
X-6761254Y16641112D01*
X-6785287Y16636331D01*
X-6807926Y16626954D01*
X-6828300Y16613340D01*
X-6845627Y16596013D01*
X-6859241Y16575638D01*
X-6868618Y16552999D01*
X-6874000Y16516715D01*
X-6874000Y16324000D01*
X-8476000Y16324000D01*
X-8476000Y17426000D01*
X-6874000Y17426000D01*
X-6874000Y17233285D01*
X-6874000Y17233285D01*
G37*
G36*
X28269591Y17346915D02*
G01*
X28303569Y17336607D01*
X28334890Y17319866D01*
X28362339Y17297339D01*
X28384866Y17269890D01*
X28401607Y17238569D01*
X28411915Y17204591D01*
X28416000Y17163110D01*
X28416000Y16561890D01*
X28411915Y16520409D01*
X28401607Y16486431D01*
X28384866Y16455110D01*
X28362339Y16427661D01*
X28334890Y16405134D01*
X28303569Y16388393D01*
X28269591Y16378085D01*
X28228110Y16374000D01*
X27551890Y16374000D01*
X27510409Y16378085D01*
X27476431Y16388393D01*
X27445110Y16405134D01*
X27417661Y16427661D01*
X27395134Y16455110D01*
X27378393Y16486431D01*
X27368085Y16520409D01*
X27364000Y16561890D01*
X27364000Y17163110D01*
X27368085Y17204591D01*
X27378393Y17238569D01*
X27395134Y17269890D01*
X27417661Y17297339D01*
X27445110Y17319866D01*
X27476431Y17336607D01*
X27510409Y17346915D01*
X27551890Y17351000D01*
X28228110Y17351000D01*
X28269591Y17346915D01*
X28269591Y17346915D01*
G37*
G36*
X-18524000Y17924000D02*
G01*
X-21976000Y17924000D01*
X-21976000Y19026000D01*
X-18524000Y19026000D01*
X-18524000Y17924000D01*
X-18524000Y17924000D01*
G37*
G36*
X15226000Y17924000D02*
G01*
X11774000Y17924000D01*
X11774000Y19026000D01*
X15226000Y19026000D01*
X15226000Y17924000D01*
X15226000Y17924000D01*
G37*
G36*
X-25274000Y17924000D02*
G01*
X-26876000Y17924000D01*
X-26876000Y19026000D01*
X-25274000Y19026000D01*
X-25274000Y17924000D01*
X-25274000Y17924000D01*
G37*
G36*
X26876000Y17924000D02*
G01*
X25274000Y17924000D01*
X25274000Y19026000D01*
X26876000Y19026000D01*
X26876000Y17924000D01*
X26876000Y17924000D01*
G37*
G36*
X1726000Y17924000D02*
G01*
X-1726000Y17924000D01*
X-1726000Y19026000D01*
X1726000Y19026000D01*
X1726000Y17924000D01*
X1726000Y17924000D01*
G37*
G36*
X21976000Y17924000D02*
G01*
X18524000Y17924000D01*
X18524000Y19026000D01*
X21976000Y19026000D01*
X21976000Y17924000D01*
X21976000Y17924000D01*
G37*
G36*
X-5024000Y17924000D02*
G01*
X-8476000Y17924000D01*
X-8476000Y19026000D01*
X-5024000Y19026000D01*
X-5024000Y17924000D01*
X-5024000Y17924000D01*
G37*
G36*
X-11774000Y17924000D02*
G01*
X-15226000Y17924000D01*
X-15226000Y19026000D01*
X-11774000Y19026000D01*
X-11774000Y17924000D01*
X-11774000Y17924000D01*
G37*
G36*
X8476000Y17924000D02*
G01*
X5024000Y17924000D01*
X5024000Y19026000D01*
X8476000Y19026000D01*
X8476000Y17924000D01*
X8476000Y17924000D01*
G37*
G36*
X28269591Y18921915D02*
G01*
X28303569Y18911607D01*
X28334890Y18894866D01*
X28362339Y18872339D01*
X28384866Y18844890D01*
X28401607Y18813569D01*
X28411915Y18779591D01*
X28416000Y18738110D01*
X28416000Y18136890D01*
X28411915Y18095409D01*
X28401607Y18061431D01*
X28384866Y18030110D01*
X28362339Y18002661D01*
X28334890Y17980134D01*
X28303569Y17963393D01*
X28269591Y17953085D01*
X28228110Y17949000D01*
X27551890Y17949000D01*
X27510409Y17953085D01*
X27476431Y17963393D01*
X27445110Y17980134D01*
X27417661Y18002661D01*
X27395134Y18030110D01*
X27378393Y18061431D01*
X27368085Y18095409D01*
X27364000Y18136890D01*
X27364000Y18738110D01*
X27368085Y18779591D01*
X27378393Y18813569D01*
X27395134Y18844890D01*
X27417661Y18872339D01*
X27445110Y18894866D01*
X27476431Y18911607D01*
X27510409Y18921915D01*
X27551890Y18926000D01*
X28228110Y18926000D01*
X28269591Y18921915D01*
X28269591Y18921915D01*
G37*
G36*
X-35446488Y19946073D02*
G01*
X-35297188Y19916376D01*
X-35133216Y19848456D01*
X-34985646Y19749853D01*
X-34860147Y19624354D01*
X-34761544Y19476784D01*
X-34693624Y19312812D01*
X-34659000Y19138741D01*
X-34659000Y18961259D01*
X-34693624Y18787188D01*
X-34761544Y18623216D01*
X-34860147Y18475646D01*
X-34985646Y18350147D01*
X-35133216Y18251544D01*
X-35297188Y18183624D01*
X-35446488Y18153927D01*
X-35471258Y18149000D01*
X-35648742Y18149000D01*
X-35673512Y18153927D01*
X-35822812Y18183624D01*
X-35986784Y18251544D01*
X-36134354Y18350147D01*
X-36259853Y18475646D01*
X-36358456Y18623216D01*
X-36426376Y18787188D01*
X-36461000Y18961259D01*
X-36461000Y19138741D01*
X-36426376Y19312812D01*
X-36358456Y19476784D01*
X-36259853Y19624354D01*
X-36134354Y19749853D01*
X-35986784Y19848456D01*
X-35822812Y19916376D01*
X-35673512Y19946073D01*
X-35648742Y19951000D01*
X-35471258Y19951000D01*
X-35446488Y19946073D01*
X-35446488Y19946073D01*
G37*
G36*
X35673512Y19946073D02*
G01*
X35822812Y19916376D01*
X35986784Y19848456D01*
X36134354Y19749853D01*
X36259853Y19624354D01*
X36358456Y19476784D01*
X36426376Y19312812D01*
X36461000Y19138741D01*
X36461000Y18961259D01*
X36426376Y18787188D01*
X36358456Y18623216D01*
X36259853Y18475646D01*
X36134354Y18350147D01*
X35986784Y18251544D01*
X35822812Y18183624D01*
X35673512Y18153927D01*
X35648742Y18149000D01*
X35471258Y18149000D01*
X35446488Y18153927D01*
X35297188Y18183624D01*
X35133216Y18251544D01*
X34985646Y18350147D01*
X34860147Y18475646D01*
X34761544Y18623216D01*
X34693624Y18787188D01*
X34659000Y18961259D01*
X34659000Y19138741D01*
X34693624Y19312812D01*
X34761544Y19476784D01*
X34860147Y19624354D01*
X34985646Y19749853D01*
X35133216Y19848456D01*
X35297188Y19916376D01*
X35446488Y19946073D01*
X35471258Y19951000D01*
X35648742Y19951000D01*
X35673512Y19946073D01*
X35673512Y19946073D01*
G37*
G36*
X-35446488Y22486073D02*
G01*
X-35297188Y22456376D01*
X-35133216Y22388456D01*
X-34985646Y22289853D01*
X-34860147Y22164354D01*
X-34761544Y22016784D01*
X-34693624Y21852812D01*
X-34659000Y21678741D01*
X-34659000Y21501259D01*
X-34693624Y21327188D01*
X-34761544Y21163216D01*
X-34860147Y21015646D01*
X-34985646Y20890147D01*
X-35133216Y20791544D01*
X-35297188Y20723624D01*
X-35446488Y20693927D01*
X-35471258Y20689000D01*
X-35648742Y20689000D01*
X-35673512Y20693927D01*
X-35822812Y20723624D01*
X-35986784Y20791544D01*
X-36134354Y20890147D01*
X-36259853Y21015646D01*
X-36358456Y21163216D01*
X-36426376Y21327188D01*
X-36461000Y21501259D01*
X-36461000Y21678741D01*
X-36426376Y21852812D01*
X-36358456Y22016784D01*
X-36259853Y22164354D01*
X-36134354Y22289853D01*
X-35986784Y22388456D01*
X-35822812Y22456376D01*
X-35673512Y22486073D01*
X-35648742Y22491000D01*
X-35471258Y22491000D01*
X-35446488Y22486073D01*
X-35446488Y22486073D01*
G37*
G36*
X35673512Y22486073D02*
G01*
X35822812Y22456376D01*
X35986784Y22388456D01*
X36134354Y22289853D01*
X36259853Y22164354D01*
X36358456Y22016784D01*
X36426376Y21852812D01*
X36461000Y21678741D01*
X36461000Y21501259D01*
X36426376Y21327188D01*
X36358456Y21163216D01*
X36259853Y21015646D01*
X36134354Y20890147D01*
X35986784Y20791544D01*
X35822812Y20723624D01*
X35673512Y20693927D01*
X35648742Y20689000D01*
X35471258Y20689000D01*
X35446488Y20693927D01*
X35297188Y20723624D01*
X35133216Y20791544D01*
X34985646Y20890147D01*
X34860147Y21015646D01*
X34761544Y21163216D01*
X34693624Y21327188D01*
X34659000Y21501259D01*
X34659000Y21678741D01*
X34693624Y21852812D01*
X34761544Y22016784D01*
X34860147Y22164354D01*
X34985646Y22289853D01*
X35133216Y22388456D01*
X35297188Y22456376D01*
X35446488Y22486073D01*
X35471258Y22491000D01*
X35648742Y22491000D01*
X35673512Y22486073D01*
X35673512Y22486073D01*
G37*
G36*
X-11774000Y21474000D02*
G01*
X-15226000Y21474000D01*
X-15226000Y22576000D01*
X-11774000Y22576000D01*
X-11774000Y21474000D01*
X-11774000Y21474000D01*
G37*
G36*
X-5024000Y21474000D02*
G01*
X-8476000Y21474000D01*
X-8476000Y22576000D01*
X-5024000Y22576000D01*
X-5024000Y21474000D01*
X-5024000Y21474000D01*
G37*
G36*
X26876000Y21474000D02*
G01*
X25274000Y21474000D01*
X25274000Y22576000D01*
X26876000Y22576000D01*
X26876000Y21474000D01*
X26876000Y21474000D01*
G37*
G36*
X21976000Y21474000D02*
G01*
X18524000Y21474000D01*
X18524000Y22576000D01*
X21976000Y22576000D01*
X21976000Y21474000D01*
X21976000Y21474000D01*
G37*
G36*
X15226000Y21474000D02*
G01*
X11774000Y21474000D01*
X11774000Y22576000D01*
X15226000Y22576000D01*
X15226000Y21474000D01*
X15226000Y21474000D01*
G37*
G36*
X8476000Y21474000D02*
G01*
X5024000Y21474000D01*
X5024000Y22576000D01*
X8476000Y22576000D01*
X8476000Y21474000D01*
X8476000Y21474000D01*
G37*
G36*
X1726000Y21474000D02*
G01*
X-1726000Y21474000D01*
X-1726000Y22576000D01*
X1726000Y22576000D01*
X1726000Y21474000D01*
X1726000Y21474000D01*
G37*
G36*
X-18524000Y21474000D02*
G01*
X-21976000Y21474000D01*
X-21976000Y22576000D01*
X-18524000Y22576000D01*
X-18524000Y21474000D01*
X-18524000Y21474000D01*
G37*
G36*
X-25274000Y21474000D02*
G01*
X-26876000Y21474000D01*
X-26876000Y22576000D01*
X-25274000Y22576000D01*
X-25274000Y21474000D01*
X-25274000Y21474000D01*
G37*
G36*
X-20374000Y23983285D02*
G01*
X-20371598Y23958899D01*
X-20364485Y23935450D01*
X-20352934Y23913839D01*
X-20337389Y23894897D01*
X-20318447Y23879352D01*
X-20296836Y23867801D01*
X-20273387Y23860688D01*
X-20249001Y23858286D01*
X-20224615Y23860688D01*
X-20201166Y23867801D01*
X-20179555Y23879352D01*
X-20160613Y23894897D01*
X-20145068Y23913839D01*
X-20133517Y23935450D01*
X-20124604Y23971032D01*
X-20121314Y24004434D01*
X-20109226Y24044284D01*
X-20089601Y24080999D01*
X-20063186Y24113186D01*
X-20030999Y24139601D01*
X-19994284Y24159226D01*
X-19954434Y24171314D01*
X-19906859Y24176000D01*
X-18743141Y24176000D01*
X-18695566Y24171314D01*
X-18655716Y24159226D01*
X-18619001Y24139601D01*
X-18586814Y24113186D01*
X-18560399Y24080999D01*
X-18540774Y24044284D01*
X-18528686Y24004434D01*
X-18524000Y23956859D01*
X-18524000Y23293141D01*
X-18528686Y23245566D01*
X-18540774Y23205716D01*
X-18560399Y23169001D01*
X-18586814Y23136814D01*
X-18619001Y23110399D01*
X-18655716Y23090774D01*
X-18695566Y23078686D01*
X-18743141Y23074000D01*
X-19906859Y23074000D01*
X-19954434Y23078686D01*
X-19994284Y23090774D01*
X-20030999Y23110399D01*
X-20063186Y23136814D01*
X-20089601Y23169001D01*
X-20109226Y23205716D01*
X-20121314Y23245566D01*
X-20124604Y23278968D01*
X-20129385Y23303001D01*
X-20138762Y23325640D01*
X-20152376Y23346014D01*
X-20169703Y23363341D01*
X-20190078Y23376955D01*
X-20212717Y23386332D01*
X-20236750Y23391112D01*
X-20261254Y23391112D01*
X-20285287Y23386331D01*
X-20307926Y23376954D01*
X-20328300Y23363340D01*
X-20345627Y23346013D01*
X-20359241Y23325638D01*
X-20368618Y23302999D01*
X-20374000Y23266715D01*
X-20374000Y23074000D01*
X-21976000Y23074000D01*
X-21976000Y24176000D01*
X-20374000Y24176000D01*
X-20374000Y23983285D01*
X-20374000Y23983285D01*
G37*
G36*
X-13624000Y23983285D02*
G01*
X-13621598Y23958899D01*
X-13614485Y23935450D01*
X-13602934Y23913839D01*
X-13587389Y23894897D01*
X-13568447Y23879352D01*
X-13546836Y23867801D01*
X-13523387Y23860688D01*
X-13499001Y23858286D01*
X-13474615Y23860688D01*
X-13451166Y23867801D01*
X-13429555Y23879352D01*
X-13410613Y23894897D01*
X-13395068Y23913839D01*
X-13383517Y23935450D01*
X-13374604Y23971032D01*
X-13371314Y24004434D01*
X-13359226Y24044284D01*
X-13339601Y24080999D01*
X-13313186Y24113186D01*
X-13280999Y24139601D01*
X-13244284Y24159226D01*
X-13204434Y24171314D01*
X-13156859Y24176000D01*
X-11993141Y24176000D01*
X-11945566Y24171314D01*
X-11905716Y24159226D01*
X-11869001Y24139601D01*
X-11836814Y24113186D01*
X-11810399Y24080999D01*
X-11790774Y24044284D01*
X-11778686Y24004434D01*
X-11774000Y23956859D01*
X-11774000Y23293141D01*
X-11778686Y23245566D01*
X-11790774Y23205716D01*
X-11810399Y23169001D01*
X-11836814Y23136814D01*
X-11869001Y23110399D01*
X-11905716Y23090774D01*
X-11945566Y23078686D01*
X-11993141Y23074000D01*
X-13156859Y23074000D01*
X-13204434Y23078686D01*
X-13244284Y23090774D01*
X-13280999Y23110399D01*
X-13313186Y23136814D01*
X-13339601Y23169001D01*
X-13359226Y23205716D01*
X-13371314Y23245566D01*
X-13374604Y23278968D01*
X-13379385Y23303001D01*
X-13388762Y23325640D01*
X-13402376Y23346014D01*
X-13419703Y23363341D01*
X-13440078Y23376955D01*
X-13462717Y23386332D01*
X-13486750Y23391112D01*
X-13511254Y23391112D01*
X-13535287Y23386331D01*
X-13557926Y23376954D01*
X-13578300Y23363340D01*
X-13595627Y23346013D01*
X-13609241Y23325638D01*
X-13618618Y23302999D01*
X-13624000Y23266715D01*
X-13624000Y23074000D01*
X-15226000Y23074000D01*
X-15226000Y24176000D01*
X-13624000Y24176000D01*
X-13624000Y23983285D01*
X-13624000Y23983285D01*
G37*
G36*
X-124000Y23983285D02*
G01*
X-121598Y23958899D01*
X-114485Y23935450D01*
X-102934Y23913839D01*
X-87389Y23894897D01*
X-68447Y23879352D01*
X-46836Y23867801D01*
X-23387Y23860688D01*
X999Y23858286D01*
X25385Y23860688D01*
X48834Y23867801D01*
X70445Y23879352D01*
X89387Y23894897D01*
X104932Y23913839D01*
X116483Y23935450D01*
X125396Y23971032D01*
X128686Y24004434D01*
X140774Y24044284D01*
X160399Y24080999D01*
X186814Y24113186D01*
X219001Y24139601D01*
X255716Y24159226D01*
X295566Y24171314D01*
X343141Y24176000D01*
X1506859Y24176000D01*
X1554434Y24171314D01*
X1594284Y24159226D01*
X1630999Y24139601D01*
X1663186Y24113186D01*
X1689601Y24080999D01*
X1709226Y24044284D01*
X1721314Y24004434D01*
X1726000Y23956859D01*
X1726000Y23293141D01*
X1721314Y23245566D01*
X1709226Y23205716D01*
X1689601Y23169001D01*
X1663186Y23136814D01*
X1630999Y23110399D01*
X1594284Y23090774D01*
X1554434Y23078686D01*
X1506859Y23074000D01*
X343141Y23074000D01*
X295566Y23078686D01*
X255716Y23090774D01*
X219001Y23110399D01*
X186814Y23136814D01*
X160399Y23169001D01*
X140774Y23205716D01*
X128686Y23245566D01*
X125396Y23278968D01*
X120615Y23303001D01*
X111238Y23325640D01*
X97624Y23346014D01*
X80297Y23363341D01*
X59922Y23376955D01*
X37283Y23386332D01*
X13250Y23391112D01*
X-11254Y23391112D01*
X-35287Y23386331D01*
X-57926Y23376954D01*
X-78300Y23363340D01*
X-95627Y23346013D01*
X-109241Y23325638D01*
X-118618Y23302999D01*
X-124000Y23266715D01*
X-124000Y23074000D01*
X-1726000Y23074000D01*
X-1726000Y24176000D01*
X-124000Y24176000D01*
X-124000Y23983285D01*
X-124000Y23983285D01*
G37*
G36*
X-6874000Y23983285D02*
G01*
X-6871598Y23958899D01*
X-6864485Y23935450D01*
X-6852934Y23913839D01*
X-6837389Y23894897D01*
X-6818447Y23879352D01*
X-6796836Y23867801D01*
X-6773387Y23860688D01*
X-6749001Y23858286D01*
X-6724615Y23860688D01*
X-6701166Y23867801D01*
X-6679555Y23879352D01*
X-6660613Y23894897D01*
X-6645068Y23913839D01*
X-6633517Y23935450D01*
X-6624604Y23971032D01*
X-6621314Y24004434D01*
X-6609226Y24044284D01*
X-6589601Y24080999D01*
X-6563186Y24113186D01*
X-6530999Y24139601D01*
X-6494284Y24159226D01*
X-6454434Y24171314D01*
X-6406859Y24176000D01*
X-5243141Y24176000D01*
X-5195566Y24171314D01*
X-5155716Y24159226D01*
X-5119001Y24139601D01*
X-5086814Y24113186D01*
X-5060399Y24080999D01*
X-5040774Y24044284D01*
X-5028686Y24004434D01*
X-5024000Y23956859D01*
X-5024000Y23293141D01*
X-5028686Y23245566D01*
X-5040774Y23205716D01*
X-5060399Y23169001D01*
X-5086814Y23136814D01*
X-5119001Y23110399D01*
X-5155716Y23090774D01*
X-5195566Y23078686D01*
X-5243141Y23074000D01*
X-6406859Y23074000D01*
X-6454434Y23078686D01*
X-6494284Y23090774D01*
X-6530999Y23110399D01*
X-6563186Y23136814D01*
X-6589601Y23169001D01*
X-6609226Y23205716D01*
X-6621314Y23245566D01*
X-6624604Y23278968D01*
X-6629385Y23303001D01*
X-6638762Y23325640D01*
X-6652376Y23346014D01*
X-6669703Y23363341D01*
X-6690078Y23376955D01*
X-6712717Y23386332D01*
X-6736750Y23391112D01*
X-6761254Y23391112D01*
X-6785287Y23386331D01*
X-6807926Y23376954D01*
X-6828300Y23363340D01*
X-6845627Y23346013D01*
X-6859241Y23325638D01*
X-6868618Y23302999D01*
X-6874000Y23266715D01*
X-6874000Y23074000D01*
X-8476000Y23074000D01*
X-8476000Y24176000D01*
X-6874000Y24176000D01*
X-6874000Y23983285D01*
X-6874000Y23983285D01*
G37*
G36*
X6626000Y23983285D02*
G01*
X6628402Y23958899D01*
X6635515Y23935450D01*
X6647066Y23913839D01*
X6662611Y23894897D01*
X6681553Y23879352D01*
X6703164Y23867801D01*
X6726613Y23860688D01*
X6750999Y23858286D01*
X6775385Y23860688D01*
X6798834Y23867801D01*
X6820445Y23879352D01*
X6839387Y23894897D01*
X6854932Y23913839D01*
X6866483Y23935450D01*
X6875396Y23971032D01*
X6878686Y24004434D01*
X6890774Y24044284D01*
X6910399Y24080999D01*
X6936814Y24113186D01*
X6969001Y24139601D01*
X7005716Y24159226D01*
X7045566Y24171314D01*
X7093141Y24176000D01*
X8256859Y24176000D01*
X8304434Y24171314D01*
X8344284Y24159226D01*
X8380999Y24139601D01*
X8413186Y24113186D01*
X8439601Y24080999D01*
X8459226Y24044284D01*
X8471314Y24004434D01*
X8476000Y23956859D01*
X8476000Y23293141D01*
X8471314Y23245566D01*
X8459226Y23205716D01*
X8439601Y23169001D01*
X8413186Y23136814D01*
X8380999Y23110399D01*
X8344284Y23090774D01*
X8304434Y23078686D01*
X8256859Y23074000D01*
X7093141Y23074000D01*
X7045566Y23078686D01*
X7005716Y23090774D01*
X6969001Y23110399D01*
X6936814Y23136814D01*
X6910399Y23169001D01*
X6890774Y23205716D01*
X6878686Y23245566D01*
X6875396Y23278968D01*
X6870615Y23303001D01*
X6861238Y23325640D01*
X6847624Y23346014D01*
X6830297Y23363341D01*
X6809922Y23376955D01*
X6787283Y23386332D01*
X6763250Y23391112D01*
X6738746Y23391112D01*
X6714713Y23386331D01*
X6692074Y23376954D01*
X6671700Y23363340D01*
X6654373Y23346013D01*
X6640759Y23325638D01*
X6631382Y23302999D01*
X6626000Y23266715D01*
X6626000Y23074000D01*
X5024000Y23074000D01*
X5024000Y24176000D01*
X6626000Y24176000D01*
X6626000Y23983285D01*
X6626000Y23983285D01*
G37*
G36*
X26876000Y23074000D02*
G01*
X25274000Y23074000D01*
X25274000Y24176000D01*
X26876000Y24176000D01*
X26876000Y23074000D01*
X26876000Y23074000D01*
G37*
G36*
X20126000Y23983285D02*
G01*
X20128402Y23958899D01*
X20135515Y23935450D01*
X20147066Y23913839D01*
X20162611Y23894897D01*
X20181553Y23879352D01*
X20203164Y23867801D01*
X20226613Y23860688D01*
X20250999Y23858286D01*
X20275385Y23860688D01*
X20298834Y23867801D01*
X20320445Y23879352D01*
X20339387Y23894897D01*
X20354932Y23913839D01*
X20366483Y23935450D01*
X20375396Y23971032D01*
X20378686Y24004434D01*
X20390774Y24044284D01*
X20410399Y24080999D01*
X20436814Y24113186D01*
X20469001Y24139601D01*
X20505716Y24159226D01*
X20545566Y24171314D01*
X20593141Y24176000D01*
X21756859Y24176000D01*
X21804434Y24171314D01*
X21844284Y24159226D01*
X21880999Y24139601D01*
X21913186Y24113186D01*
X21939601Y24080999D01*
X21959226Y24044284D01*
X21971314Y24004434D01*
X21976000Y23956859D01*
X21976000Y23293141D01*
X21971314Y23245566D01*
X21959226Y23205716D01*
X21939601Y23169001D01*
X21913186Y23136814D01*
X21880999Y23110399D01*
X21844284Y23090774D01*
X21804434Y23078686D01*
X21756859Y23074000D01*
X20593141Y23074000D01*
X20545566Y23078686D01*
X20505716Y23090774D01*
X20469001Y23110399D01*
X20436814Y23136814D01*
X20410399Y23169001D01*
X20390774Y23205716D01*
X20378686Y23245566D01*
X20375396Y23278968D01*
X20370615Y23303001D01*
X20361238Y23325640D01*
X20347624Y23346014D01*
X20330297Y23363341D01*
X20309922Y23376955D01*
X20287283Y23386332D01*
X20263250Y23391112D01*
X20238746Y23391112D01*
X20214713Y23386331D01*
X20192074Y23376954D01*
X20171700Y23363340D01*
X20154373Y23346013D01*
X20140759Y23325638D01*
X20131382Y23302999D01*
X20126000Y23266715D01*
X20126000Y23074000D01*
X18524000Y23074000D01*
X18524000Y24176000D01*
X20126000Y24176000D01*
X20126000Y23983285D01*
X20126000Y23983285D01*
G37*
G36*
X-25445566Y24171314D02*
G01*
X-25405716Y24159226D01*
X-25369001Y24139601D01*
X-25336814Y24113186D01*
X-25310399Y24080999D01*
X-25290774Y24044284D01*
X-25278686Y24004434D01*
X-25274000Y23956859D01*
X-25274000Y23293141D01*
X-25278686Y23245566D01*
X-25290774Y23205716D01*
X-25310399Y23169001D01*
X-25336814Y23136814D01*
X-25369001Y23110399D01*
X-25405716Y23090774D01*
X-25445566Y23078686D01*
X-25493141Y23074000D01*
X-26656859Y23074000D01*
X-26704434Y23078686D01*
X-26744284Y23090774D01*
X-26780999Y23110399D01*
X-26813186Y23136814D01*
X-26839601Y23169001D01*
X-26859226Y23205716D01*
X-26871314Y23245566D01*
X-26876000Y23293141D01*
X-26876000Y23956859D01*
X-26871314Y24004434D01*
X-26859226Y24044284D01*
X-26839601Y24080999D01*
X-26813186Y24113186D01*
X-26780999Y24139601D01*
X-26744284Y24159226D01*
X-26704434Y24171314D01*
X-26656859Y24176000D01*
X-25493141Y24176000D01*
X-25445566Y24171314D01*
X-25445566Y24171314D01*
G37*
G36*
X13376000Y23983285D02*
G01*
X13378402Y23958899D01*
X13385515Y23935450D01*
X13397066Y23913839D01*
X13412611Y23894897D01*
X13431553Y23879352D01*
X13453164Y23867801D01*
X13476613Y23860688D01*
X13500999Y23858286D01*
X13525385Y23860688D01*
X13548834Y23867801D01*
X13570445Y23879352D01*
X13589387Y23894897D01*
X13604932Y23913839D01*
X13616483Y23935450D01*
X13625396Y23971032D01*
X13628686Y24004434D01*
X13640774Y24044284D01*
X13660399Y24080999D01*
X13686814Y24113186D01*
X13719001Y24139601D01*
X13755716Y24159226D01*
X13795566Y24171314D01*
X13843141Y24176000D01*
X15006859Y24176000D01*
X15054434Y24171314D01*
X15094284Y24159226D01*
X15130999Y24139601D01*
X15163186Y24113186D01*
X15189601Y24080999D01*
X15209226Y24044284D01*
X15221314Y24004434D01*
X15226000Y23956859D01*
X15226000Y23293141D01*
X15221314Y23245566D01*
X15209226Y23205716D01*
X15189601Y23169001D01*
X15163186Y23136814D01*
X15130999Y23110399D01*
X15094284Y23090774D01*
X15054434Y23078686D01*
X15006859Y23074000D01*
X13843141Y23074000D01*
X13795566Y23078686D01*
X13755716Y23090774D01*
X13719001Y23110399D01*
X13686814Y23136814D01*
X13660399Y23169001D01*
X13640774Y23205716D01*
X13628686Y23245566D01*
X13625396Y23278968D01*
X13620615Y23303001D01*
X13611238Y23325640D01*
X13597624Y23346014D01*
X13580297Y23363341D01*
X13559922Y23376955D01*
X13537283Y23386332D01*
X13513250Y23391112D01*
X13488746Y23391112D01*
X13464713Y23386331D01*
X13442074Y23376954D01*
X13421700Y23363340D01*
X13404373Y23346013D01*
X13390759Y23325638D01*
X13381382Y23302999D01*
X13376000Y23266715D01*
X13376000Y23074000D01*
X11774000Y23074000D01*
X11774000Y24176000D01*
X13376000Y24176000D01*
X13376000Y23983285D01*
X13376000Y23983285D01*
G37*
G36*
X28264591Y24106915D02*
G01*
X28298569Y24096607D01*
X28329890Y24079866D01*
X28357339Y24057339D01*
X28379866Y24029890D01*
X28396607Y23998569D01*
X28406915Y23964591D01*
X28411000Y23923110D01*
X28411000Y23321890D01*
X28406915Y23280409D01*
X28396607Y23246431D01*
X28379866Y23215110D01*
X28357339Y23187661D01*
X28329890Y23165134D01*
X28298569Y23148393D01*
X28264591Y23138085D01*
X28223110Y23134000D01*
X27546890Y23134000D01*
X27505409Y23138085D01*
X27471431Y23148393D01*
X27440110Y23165134D01*
X27412661Y23187661D01*
X27390134Y23215110D01*
X27373393Y23246431D01*
X27363085Y23280409D01*
X27359000Y23321890D01*
X27359000Y23923110D01*
X27363085Y23964591D01*
X27373393Y23998569D01*
X27390134Y24029890D01*
X27412661Y24057339D01*
X27440110Y24079866D01*
X27471431Y24096607D01*
X27505409Y24106915D01*
X27546890Y24111000D01*
X28223110Y24111000D01*
X28264591Y24106915D01*
X28264591Y24106915D01*
G37*
G36*
X-35446488Y25026073D02*
G01*
X-35297188Y24996376D01*
X-35133216Y24928456D01*
X-34985646Y24829853D01*
X-34860147Y24704354D01*
X-34761544Y24556784D01*
X-34693624Y24392812D01*
X-34663927Y24243512D01*
X-34659000Y24218742D01*
X-34659000Y24041258D01*
X-34661261Y24029890D01*
X-34693624Y23867188D01*
X-34761544Y23703216D01*
X-34860147Y23555646D01*
X-34985646Y23430147D01*
X-35133216Y23331544D01*
X-35297188Y23263624D01*
X-35446488Y23233927D01*
X-35471258Y23229000D01*
X-35648742Y23229000D01*
X-35673512Y23233927D01*
X-35822812Y23263624D01*
X-35986784Y23331544D01*
X-36134354Y23430147D01*
X-36259853Y23555646D01*
X-36358456Y23703216D01*
X-36426376Y23867188D01*
X-36458739Y24029890D01*
X-36461000Y24041258D01*
X-36461000Y24218742D01*
X-36456073Y24243512D01*
X-36426376Y24392812D01*
X-36358456Y24556784D01*
X-36259853Y24704354D01*
X-36134354Y24829853D01*
X-35986784Y24928456D01*
X-35822812Y24996376D01*
X-35673512Y25026073D01*
X-35648742Y25031000D01*
X-35471258Y25031000D01*
X-35446488Y25026073D01*
X-35446488Y25026073D01*
G37*
G36*
X35673512Y25026073D02*
G01*
X35822812Y24996376D01*
X35986784Y24928456D01*
X36134354Y24829853D01*
X36259853Y24704354D01*
X36358456Y24556784D01*
X36426376Y24392812D01*
X36456073Y24243512D01*
X36461000Y24218742D01*
X36461000Y24041258D01*
X36458739Y24029890D01*
X36426376Y23867188D01*
X36358456Y23703216D01*
X36259853Y23555646D01*
X36134354Y23430147D01*
X35986784Y23331544D01*
X35822812Y23263624D01*
X35673512Y23233927D01*
X35648742Y23229000D01*
X35471258Y23229000D01*
X35446488Y23233927D01*
X35297188Y23263624D01*
X35133216Y23331544D01*
X34985646Y23430147D01*
X34860147Y23555646D01*
X34761544Y23703216D01*
X34693624Y23867188D01*
X34661261Y24029890D01*
X34659000Y24041258D01*
X34659000Y24218742D01*
X34663927Y24243512D01*
X34693624Y24392812D01*
X34761544Y24556784D01*
X34860147Y24704354D01*
X34985646Y24829853D01*
X35133216Y24928456D01*
X35297188Y24996376D01*
X35446488Y25026073D01*
X35471258Y25031000D01*
X35648742Y25031000D01*
X35673512Y25026073D01*
X35673512Y25026073D01*
G37*
G36*
X1726000Y24674000D02*
G01*
X-1726000Y24674000D01*
X-1726000Y25776000D01*
X1726000Y25776000D01*
X1726000Y24674000D01*
X1726000Y24674000D01*
G37*
G36*
X-11774000Y24674000D02*
G01*
X-15226000Y24674000D01*
X-15226000Y25776000D01*
X-11774000Y25776000D01*
X-11774000Y24674000D01*
X-11774000Y24674000D01*
G37*
G36*
X-18524000Y24674000D02*
G01*
X-21976000Y24674000D01*
X-21976000Y25776000D01*
X-18524000Y25776000D01*
X-18524000Y24674000D01*
X-18524000Y24674000D01*
G37*
G36*
X-5024000Y24674000D02*
G01*
X-8476000Y24674000D01*
X-8476000Y25776000D01*
X-5024000Y25776000D01*
X-5024000Y24674000D01*
X-5024000Y24674000D01*
G37*
G36*
X-25274000Y24674000D02*
G01*
X-26876000Y24674000D01*
X-26876000Y25776000D01*
X-25274000Y25776000D01*
X-25274000Y24674000D01*
X-25274000Y24674000D01*
G37*
G36*
X21976000Y24674000D02*
G01*
X18524000Y24674000D01*
X18524000Y25776000D01*
X21976000Y25776000D01*
X21976000Y24674000D01*
X21976000Y24674000D01*
G37*
G36*
X8476000Y24674000D02*
G01*
X5024000Y24674000D01*
X5024000Y25776000D01*
X8476000Y25776000D01*
X8476000Y24674000D01*
X8476000Y24674000D01*
G37*
G36*
X15226000Y24674000D02*
G01*
X11774000Y24674000D01*
X11774000Y25776000D01*
X15226000Y25776000D01*
X15226000Y24674000D01*
X15226000Y24674000D01*
G37*
G36*
X26876000Y24674000D02*
G01*
X25274000Y24674000D01*
X25274000Y25776000D01*
X26876000Y25776000D01*
X26876000Y24674000D01*
X26876000Y24674000D01*
G37*
G36*
X28264591Y25681915D02*
G01*
X28298569Y25671607D01*
X28329890Y25654866D01*
X28357339Y25632339D01*
X28379866Y25604890D01*
X28396607Y25573569D01*
X28406915Y25539591D01*
X28411000Y25498110D01*
X28411000Y24896890D01*
X28406915Y24855409D01*
X28396607Y24821431D01*
X28379866Y24790110D01*
X28357339Y24762661D01*
X28329890Y24740134D01*
X28298569Y24723393D01*
X28264591Y24713085D01*
X28223110Y24709000D01*
X27546890Y24709000D01*
X27505409Y24713085D01*
X27471431Y24723393D01*
X27440110Y24740134D01*
X27412661Y24762661D01*
X27390134Y24790110D01*
X27373393Y24821431D01*
X27363085Y24855409D01*
X27359000Y24896890D01*
X27359000Y25498110D01*
X27363085Y25539591D01*
X27373393Y25573569D01*
X27390134Y25604890D01*
X27412661Y25632339D01*
X27440110Y25654866D01*
X27471431Y25671607D01*
X27505409Y25681915D01*
X27546890Y25686000D01*
X28223110Y25686000D01*
X28264591Y25681915D01*
X28264591Y25681915D01*
G37*
G36*
X15477142Y28721758D02*
G01*
X15625101Y28660471D01*
X15758255Y28571501D01*
X15871501Y28458255D01*
X15960471Y28325101D01*
X16021758Y28177142D01*
X16053000Y28020075D01*
X16053000Y27859925D01*
X16021758Y27702858D01*
X15960471Y27554899D01*
X15871501Y27421745D01*
X15758255Y27308499D01*
X15625101Y27219529D01*
X15477142Y27158242D01*
X15320075Y27127000D01*
X15159925Y27127000D01*
X15002858Y27158242D01*
X14854899Y27219529D01*
X14721745Y27308499D01*
X14608499Y27421745D01*
X14519529Y27554899D01*
X14458242Y27702858D01*
X14427000Y27859925D01*
X14427000Y28020075D01*
X14458242Y28177142D01*
X14519529Y28325101D01*
X14608499Y28458255D01*
X14721745Y28571501D01*
X14854899Y28660471D01*
X15002858Y28721758D01*
X15159925Y28753000D01*
X15320075Y28753000D01*
X15477142Y28721758D01*
X15477142Y28721758D01*
G37*
G36*
X-14559558Y31394482D02*
G01*
X-14493373Y31387963D01*
X-14323534Y31336443D01*
X-14167009Y31252778D01*
X-14131271Y31223448D01*
X-14029814Y31140186D01*
X-13946552Y31038729D01*
X-13917222Y31002991D01*
X-13833557Y30846466D01*
X-13782037Y30676627D01*
X-13764641Y30500000D01*
X-13782037Y30323373D01*
X-13833557Y30153534D01*
X-13917222Y29997009D01*
X-13946163Y29961745D01*
X-14029814Y29859814D01*
X-14131271Y29776552D01*
X-14167009Y29747222D01*
X-14323534Y29663557D01*
X-14493373Y29612037D01*
X-14559557Y29605519D01*
X-14625740Y29599000D01*
X-14714260Y29599000D01*
X-14780443Y29605519D01*
X-14846627Y29612037D01*
X-15016466Y29663557D01*
X-15172991Y29747222D01*
X-15208729Y29776552D01*
X-15310186Y29859814D01*
X-15393837Y29961745D01*
X-15422778Y29997009D01*
X-15506443Y30153534D01*
X-15557963Y30323373D01*
X-15575359Y30500000D01*
X-15557963Y30676627D01*
X-15506443Y30846466D01*
X-15422778Y31002991D01*
X-15393448Y31038729D01*
X-15310186Y31140186D01*
X-15208729Y31223448D01*
X-15172991Y31252778D01*
X-15016466Y31336443D01*
X-14846627Y31387963D01*
X-14780442Y31394482D01*
X-14714260Y31401000D01*
X-14625740Y31401000D01*
X-14559558Y31394482D01*
X-14559558Y31394482D01*
G37*
G36*
X-12019558Y31394482D02*
G01*
X-11953373Y31387963D01*
X-11783534Y31336443D01*
X-11627009Y31252778D01*
X-11591271Y31223448D01*
X-11489814Y31140186D01*
X-11406552Y31038729D01*
X-11377222Y31002991D01*
X-11293557Y30846466D01*
X-11242037Y30676627D01*
X-11224641Y30500000D01*
X-11242037Y30323373D01*
X-11293557Y30153534D01*
X-11377222Y29997009D01*
X-11406163Y29961745D01*
X-11489814Y29859814D01*
X-11591271Y29776552D01*
X-11627009Y29747222D01*
X-11783534Y29663557D01*
X-11953373Y29612037D01*
X-12019557Y29605519D01*
X-12085740Y29599000D01*
X-12174260Y29599000D01*
X-12240443Y29605519D01*
X-12306627Y29612037D01*
X-12476466Y29663557D01*
X-12632991Y29747222D01*
X-12668729Y29776552D01*
X-12770186Y29859814D01*
X-12853837Y29961745D01*
X-12882778Y29997009D01*
X-12966443Y30153534D01*
X-13017963Y30323373D01*
X-13035359Y30500000D01*
X-13017963Y30676627D01*
X-12966443Y30846466D01*
X-12882778Y31002991D01*
X-12853448Y31038729D01*
X-12770186Y31140186D01*
X-12668729Y31223448D01*
X-12632991Y31252778D01*
X-12476466Y31336443D01*
X-12306627Y31387963D01*
X-12240442Y31394482D01*
X-12174260Y31401000D01*
X-12085740Y31401000D01*
X-12019558Y31394482D01*
X-12019558Y31394482D01*
G37*
G36*
X-16309000Y29599000D02*
G01*
X-18111000Y29599000D01*
X-18111000Y31401000D01*
X-16309000Y31401000D01*
X-16309000Y29599000D01*
X-16309000Y29599000D01*
G37*
G36*
X15477142Y31261758D02*
G01*
X15625101Y31200471D01*
X15758255Y31111501D01*
X15871501Y30998255D01*
X15960471Y30865101D01*
X16021758Y30717142D01*
X16053000Y30560075D01*
X16053000Y30399925D01*
X16021758Y30242858D01*
X15960471Y30094899D01*
X15871501Y29961745D01*
X15758255Y29848499D01*
X15625101Y29759529D01*
X15477142Y29698242D01*
X15320075Y29667000D01*
X15159925Y29667000D01*
X15002858Y29698242D01*
X14854899Y29759529D01*
X14721745Y29848499D01*
X14608499Y29961745D01*
X14519529Y30094899D01*
X14458242Y30242858D01*
X14427000Y30399925D01*
X14427000Y30560075D01*
X14458242Y30717142D01*
X14519529Y30865101D01*
X14608499Y30998255D01*
X14721745Y31111501D01*
X14854899Y31200471D01*
X15002858Y31261758D01*
X15159925Y31293000D01*
X15320075Y31293000D01*
X15477142Y31261758D01*
X15477142Y31261758D01*
G37*
G36*
X15477142Y33801758D02*
G01*
X15625101Y33740471D01*
X15758255Y33651501D01*
X15871501Y33538255D01*
X15960471Y33405101D01*
X16021758Y33257142D01*
X16053000Y33100075D01*
X16053000Y32939925D01*
X16021758Y32782858D01*
X15960471Y32634899D01*
X15871501Y32501745D01*
X15758255Y32388499D01*
X15625101Y32299529D01*
X15477142Y32238242D01*
X15320075Y32207000D01*
X15159925Y32207000D01*
X15002858Y32238242D01*
X14854899Y32299529D01*
X14721745Y32388499D01*
X14608499Y32501745D01*
X14519529Y32634899D01*
X14458242Y32782858D01*
X14427000Y32939925D01*
X14427000Y33100075D01*
X14458242Y33257142D01*
X14519529Y33405101D01*
X14608499Y33538255D01*
X14721745Y33651501D01*
X14854899Y33740471D01*
X15002858Y33801758D01*
X15159925Y33833000D01*
X15320075Y33833000D01*
X15477142Y33801758D01*
X15477142Y33801758D01*
G37*
G36*
X15477142Y36341758D02*
G01*
X15625101Y36280471D01*
X15758255Y36191501D01*
X15871501Y36078255D01*
X15960471Y35945101D01*
X16021758Y35797142D01*
X16053000Y35640075D01*
X16053000Y35479925D01*
X16021758Y35322858D01*
X15960471Y35174899D01*
X15871501Y35041745D01*
X15758255Y34928499D01*
X15625101Y34839529D01*
X15477142Y34778242D01*
X15320075Y34747000D01*
X15159925Y34747000D01*
X15002858Y34778242D01*
X14854899Y34839529D01*
X14721745Y34928499D01*
X14608499Y35041745D01*
X14519529Y35174899D01*
X14458242Y35322858D01*
X14427000Y35479925D01*
X14427000Y35640075D01*
X14458242Y35797142D01*
X14519529Y35945101D01*
X14608499Y36078255D01*
X14721745Y36191501D01*
X14854899Y36280471D01*
X15002858Y36341758D01*
X15159925Y36373000D01*
X15320075Y36373000D01*
X15477142Y36341758D01*
X15477142Y36341758D01*
G37*
M02*
