M48
; DRILL file {KiCad (5.1.2-1)-1} date Thursday, February 18, 2021 at 11:20:58 AM
; FORMAT={-:-/ absolute / inch / decimal}
; #@! TF.CreationDate,2021-02-18T11:20:58-06:00
; #@! TF.GenerationSoftware,Kicad,Pcbnew,(5.1.2-1)-1
; #@! TF.FileFunction,Plated,1,2,PTH
FMAT,2
INCH
T1C0.0138
T2C0.0300
T3C0.0394
%
G90
G05
T1
X-1.3065Y-1.3406
X-1.3065Y-1.3799
X-1.3065Y-1.4193
X-1.3065Y-1.4587
X-1.0266Y1.0323
X-1.0266Y0.7665
X-1.0266Y0.5008
X-1.0266Y0.235
X-1.0266Y-0.0307
X-1.0266Y-0.2965
X-1.0266Y-0.5622
X-1.0266Y-0.828
X-0.9876Y-1.4193
X-0.7604Y1.0319
X-0.7604Y0.7661
X-0.7604Y0.5004
X-0.7604Y0.2346
X-0.7604Y-0.0311
X-0.7604Y-0.2969
X-0.7604Y-0.5626
X-0.7604Y-0.8283
X-0.6285Y0.9933
X-0.6285Y0.7276
X-0.6285Y0.4618
X-0.6285Y0.1961
X-0.6285Y-0.0697
X-0.6285Y-0.3354
X-0.6285Y-0.6012
X-0.6285Y-0.8669
X-0.5152Y-1.5728
X-0.4947Y1.0319
X-0.4947Y0.7661
X-0.4947Y0.5004
X-0.4947Y0.2346
X-0.4947Y-0.0311
X-0.4947Y-0.2969
X-0.4947Y-0.5626
X-0.4947Y-0.8283
X-0.3734Y-1.4665
X-0.3628Y0.9933
X-0.3628Y0.7276
X-0.3628Y0.4618
X-0.3628Y0.1961
X-0.3628Y-0.0697
X-0.3628Y-0.3354
X-0.3628Y-0.6012
X-0.3628Y-0.8669
X-0.2289Y1.0319
X-0.2289Y0.7661
X-0.2289Y0.5004
X-0.2289Y0.2346
X-0.2289Y-0.0311
X-0.2289Y-0.2969
X-0.2289Y-0.5626
X-0.2289Y-0.8283
X-0.097Y0.9933
X-0.097Y0.7276
X-0.097Y0.4618
X-0.097Y0.1961
X-0.097Y-0.0697
X-0.097Y-0.3354
X-0.097Y-0.6012
X-0.097Y-0.8669
X0.0368Y1.0319
X0.0368Y0.7661
X0.0368Y0.5004
X0.0368Y0.2346
X0.0368Y-0.0311
X0.0368Y-0.2969
X0.0368Y-0.5626
X0.0368Y-0.8283
X0.1687Y0.9933
X0.1687Y0.7276
X0.1687Y0.4618
X0.1687Y0.1961
X0.1687Y-0.0697
X0.1687Y-0.3354
X0.1687Y-0.6012
X0.1687Y-0.8669
X0.3026Y1.0319
X0.3026Y0.7661
X0.3026Y0.5004
X0.3026Y0.2346
X0.3026Y-0.0311
X0.3026Y-0.2969
X0.3026Y-0.5626
X0.3026Y-0.8283
X0.4344Y0.9933
X0.4344Y0.7276
X0.4344Y0.4618
X0.4344Y0.1961
X0.4344Y-0.0697
X0.4344Y-0.3354
X0.4344Y-0.6012
X0.4344Y-0.8669
X0.5683Y1.0319
X0.5683Y0.7661
X0.5683Y0.5004
X0.5683Y0.2346
X0.5683Y-0.0311
X0.5683Y-0.2969
X0.5683Y-0.5626
X0.5683Y-0.8283
X0.7002Y0.9933
X0.7002Y0.7276
X0.7002Y0.4618
X0.7002Y0.1961
X0.7002Y-0.0697
X0.7002Y-0.3354
X0.7002Y-0.6012
X0.7002Y-0.8669
X0.8341Y1.0319
X0.8341Y0.7661
X0.8341Y0.5004
X0.8341Y0.2346
X0.8341Y-0.0311
X0.8341Y-0.2969
X0.8341Y-0.5626
X0.8341Y-0.8283
X0.9659Y0.9933
X0.9659Y0.7276
X0.9659Y0.4618
X0.9659Y0.1961
X0.9659Y-0.0697
X0.9659Y-0.3354
X0.9659Y-0.6012
X0.9659Y-0.8669
X1.1002Y0.8669
X1.1002Y0.6012
X1.1002Y0.3354
X1.1002Y0.0697
X1.1002Y-0.1961
X1.1002Y-0.4618
X1.1002Y-0.7276
X-1.0266Y-0.9301
X-1.0266Y-0.9931
X-0.8337Y-0.9301
X-0.8337Y-0.9931
X-0.2293Y-0.3986
X-0.2293Y-0.4616
X-0.0364Y-0.3986
X-0.0364Y-0.4616
X0.5679Y-0.9301
X0.5679Y-0.9931
X0.7608Y-0.9301
X0.7608Y-0.9931
X-0.2293Y-0.6644
X-0.2293Y-0.7274
X-0.0364Y-0.6644
X-0.0364Y-0.7274
X0.0364Y-0.9301
X0.0364Y-0.9931
X0.2293Y-0.9301
X0.2293Y-0.9931
X0.8337Y0.6644
X0.8337Y0.6014
X1.0266Y0.6644
X1.0266Y0.6014
X-0.4951Y0.1329
X-0.4951Y0.0699
X-0.3022Y0.1329
X-0.3022Y0.0699
X0.8337Y0.9301
X0.8337Y0.8671
X1.0266Y0.9301
X1.0266Y0.8671
X0.0364Y-0.6644
X0.0364Y-0.7274
X0.2293Y-0.6644
X0.2293Y-0.7274
X-0.2293Y-0.1329
X-0.2293Y-0.1959
X-0.0364Y-0.1329
X-0.0364Y-0.1959
X0.5679Y-0.1329
X0.5679Y-0.1959
X0.7608Y-0.1329
X0.7608Y-0.1959
X0.0364Y-0.3986
X0.0364Y-0.4616
X0.2293Y-0.3986
X0.2293Y-0.4616
X-0.7608Y0.1329
X-0.7608Y0.0699
X-0.5679Y0.1329
X-0.5679Y0.0699
X-0.2293Y-0.9301
X-0.2293Y-0.9931
X-0.0364Y-0.9301
X-0.0364Y-0.9931
X0.0364Y0.9301
X0.0364Y0.8671
X0.2293Y0.9301
X0.2293Y0.8671
X-0.2293Y0.3986
X-0.2293Y0.3356
X-0.0364Y0.3986
X-0.0364Y0.3356
X-1.0266Y-0.1329
X-1.0266Y-0.1959
X-0.8337Y-0.1329
X-0.8337Y-0.1959
X-0.2293Y0.1329
X-0.2293Y0.0699
X-0.0364Y0.1329
X-0.0364Y0.0699
X0.3022Y0.9301
X0.3022Y0.8671
X0.4951Y0.9301
X0.4951Y0.8671
X0.0364Y0.1329
X0.0364Y0.0699
X0.2293Y0.1329
X0.2293Y0.0699
X0.8337Y0.1329
X0.8337Y0.0699
X1.0266Y0.1329
X1.0266Y0.0699
X-1.0266Y0.6644
X-1.0266Y0.6014
X-0.8337Y0.6644
X-0.8337Y0.6014
X-0.4951Y0.9301
X-0.4951Y0.8671
X-0.3022Y0.9301
X-0.3022Y0.8671
X0.8337Y-0.3986
X0.8337Y-0.4616
X1.0266Y-0.3986
X1.0266Y-0.4616
X-1.0266Y-0.6644
X-1.0266Y-0.7274
X-0.8337Y-0.6644
X-0.8337Y-0.7274
X-1.0266Y0.1329
X-1.0266Y0.0699
X-0.8337Y0.1329
X-0.8337Y0.0699
X-0.7608Y-0.1329
X-0.7608Y-0.1959
X-0.5679Y-0.1329
X-0.5679Y-0.1959
X0.0364Y-0.1329
X0.0364Y-0.1959
X0.2293Y-0.1329
X0.2293Y-0.1959
X0.3022Y-0.9301
X0.3022Y-0.9931
X0.4951Y-0.9301
X0.4951Y-0.9931
X0.0364Y0.3986
X0.0364Y0.3356
X0.2293Y0.3986
X0.2293Y0.3356
X-0.7608Y-0.3986
X-0.7608Y-0.4616
X-0.5679Y-0.3986
X-0.5679Y-0.4616
X-0.7608Y0.3986
X-0.7608Y0.3356
X-0.5679Y0.3986
X-0.5679Y0.3356
X0.8337Y-0.1329
X0.8337Y-0.1959
X1.0266Y-0.1329
X1.0266Y-0.1959
X-1.0266Y0.9301
X-1.0266Y0.8671
X-0.8337Y0.9301
X-0.8337Y0.8671
X-0.7608Y-0.9301
X-0.7608Y-0.9931
X-0.5679Y-0.9301
X-0.5679Y-0.9931
X-0.4951Y-0.9301
X-0.4951Y-0.9931
X-0.3022Y-0.9301
X-0.3022Y-0.9931
X0.3022Y0.1329
X0.3022Y0.0699
X0.4951Y0.1329
X0.4951Y0.0699
X-0.2293Y0.9301
X-0.2293Y0.8671
X-0.0364Y0.9301
X-0.0364Y0.8671
X0.0364Y0.6644
X0.0364Y0.6014
X0.2293Y0.6644
X0.2293Y0.6014
X-0.7608Y-0.6644
X-0.7608Y-0.7274
X-0.5679Y-0.6644
X-0.5679Y-0.7274
X0.3022Y0.3986
X0.3022Y0.3356
X0.4951Y0.3986
X0.4951Y0.3356
X-0.2293Y0.6644
X-0.2293Y0.6014
X-0.0364Y0.6644
X-0.0364Y0.6014
X-0.4951Y0.3986
X-0.4951Y0.3356
X-0.3022Y0.3986
X-0.3022Y0.3356
X0.8337Y0.3986
X0.8337Y0.3356
X1.0266Y0.3986
X1.0266Y0.3356
X0.8337Y-0.6644
X0.8337Y-0.7274
X1.0266Y-0.6644
X1.0266Y-0.7274
X-1.0266Y0.3986
X-1.0266Y0.3356
X-0.8337Y0.3986
X-0.8337Y0.3356
X0.3022Y-0.3986
X0.3022Y-0.4616
X0.4951Y-0.3986
X0.4951Y-0.4616
X0.5679Y-0.6644
X0.5679Y-0.7274
X0.7608Y-0.6644
X0.7608Y-0.7274
X-0.4951Y-0.1329
X-0.4951Y-0.1959
X-0.3022Y-0.1329
X-0.3022Y-0.1959
X0.3022Y-0.1329
X0.3022Y-0.1959
X0.4951Y-0.1329
X0.4951Y-0.1959
X0.3022Y-0.6644
X0.3022Y-0.7274
X0.4951Y-0.6644
X0.4951Y-0.7274
X0.5679Y0.6644
X0.5679Y0.6014
X0.7608Y0.6644
X0.7608Y0.6014
X-0.7608Y0.9301
X-0.7608Y0.8671
X-0.5679Y0.9301
X-0.5679Y0.8671
X0.8337Y-0.9301
X0.8337Y-0.9931
X1.0266Y-0.9301
X1.0266Y-0.9931
X-0.7608Y0.6644
X-0.7608Y0.6014
X-0.5679Y0.6644
X-0.5679Y0.6014
X0.3022Y0.6644
X0.3022Y0.6014
X0.4951Y0.6644
X0.4951Y0.6014
X-1.0266Y-0.3986
X-1.0266Y-0.4616
X-0.8337Y-0.3986
X-0.8337Y-0.4616
X-0.4951Y-0.6644
X-0.4951Y-0.7274
X-0.3022Y-0.6644
X-0.3022Y-0.7274
X0.5679Y0.3986
X0.5679Y0.3356
X0.7608Y0.3986
X0.7608Y0.3356
X-0.4951Y-0.3986
X-0.4951Y-0.4616
X-0.3022Y-0.3986
X-0.3022Y-0.4616
X0.5679Y-0.3986
X0.5679Y-0.4616
X0.7608Y-0.3986
X0.7608Y-0.4616
X0.5679Y0.1329
X0.5679Y0.0699
X0.7608Y0.1329
X0.7608Y0.0699
X0.5679Y0.9301
X0.5679Y0.8671
X0.7608Y0.9301
X0.7608Y0.8671
X-0.4951Y0.6644
X-0.4951Y0.6014
X-0.3022Y0.6644
X-0.3022Y0.6014
T2
X0.6Y1.4
X0.6Y1.3
X0.6Y1.2
X0.6Y1.1
T3
X-0.6776Y1.2008
X-0.5776Y1.2008
X-0.4776Y1.2008
X-1.4Y0.95
X-1.4Y0.85
X-1.4Y0.75
X-1.4Y0.65
X-1.4Y0.55
X-1.4Y0.45
X-1.4Y0.35
X-1.4Y0.25
X-1.4Y0.15
X-1.4Y0.05
X-1.4Y-0.05
X-1.4Y-0.15
X-1.4Y-0.25
X-1.4Y-0.35
X-1.4Y-0.45
X-1.4Y-0.55
X-1.4Y-0.65
X-1.4Y-0.75
X-1.4Y-0.85
X-1.4Y-0.95
X1.4Y0.95
X1.4Y0.85
X1.4Y0.75
X1.4Y0.65
X1.4Y0.55
X1.4Y0.45
X1.4Y0.35
X1.4Y0.25
X1.4Y0.15
X1.4Y0.05
X1.4Y-0.05
X1.4Y-0.15
X1.4Y-0.25
X1.4Y-0.35
X1.4Y-0.45
X1.4Y-0.55
X1.4Y-0.65
X1.4Y-0.75
X1.4Y-0.85
X1.4Y-0.95
X-0.027Y-1.5728
X0.073Y-1.5728
X0.173Y-1.5728
X0.273Y-1.5728
T0
M30
