M48
; DRILL file {KiCad (5.1.2-1)-1} date Friday, April 17, 2020 at 06:44:17 AM
; FORMAT={-:-/ absolute / inch / decimal}
; #@! TF.CreationDate,2020-04-17T06:44:17-05:00
; #@! TF.GenerationSoftware,Kicad,Pcbnew,(5.1.2-1)-1
; #@! TF.FileFunction,Plated,1,2,PTH
FMAT,2
INCH
T1C0.0138
T2C0.0157
T3C0.0276
T4C0.0354
T5C0.0394
T6C0.0400
T7C0.0402
%
G90
G05
T1
X-1.6411Y0.8287
X-1.6411Y-0.3524
X-1.6136Y1.128
X-1.586Y1.1043
X-1.5545Y1.0728
X-1.5309Y-1.3996
X-1.5309Y-1.2618
X-1.527Y1.0453
X-1.527Y-0.9744
X-1.527Y-1.1122
X-1.4994Y1.0177
X-1.4994Y0.0174
X-1.4719Y0.9508
X-1.464Y-0.7028
X-1.3341Y-0.7933
X-1.3026Y-0.6043
X-1.1884Y-0.2461
X-1.0841Y-1.3248
X-1.0841Y-1.3996
X-0.7002Y1.4154
X-0.523Y1.502
X-0.523Y1.3248
X-0.1648Y1.4154
X0.0065Y1.5335
X0.0065Y1.3268
X0.3628Y1.4154
X0.5359Y1.565
X0.536Y1.3268
X0.8904Y1.4114
X1.0695Y1.5984
X1.0695Y1.3268
X1.0695Y1.3268
X1.6148Y-0.5492
X1.6148Y-0.75
X1.6457Y-0.65
T2
X-1.4955Y-0.498
X-1.4955Y-0.9075
X-1.464Y-1.2028
X-1.3341Y-1.3366
X-1.3026Y-1.0571
X1.225Y-0.3496
X1.2663Y-0.248
X1.3037Y-0.1516
X1.6148Y1.2972
T3
X-1.1673Y0.8957
X-1.1673Y0.6398
X-1.1673Y0.3839
X-1.1673Y0.1309
X-1.1673Y-0.128
X-1.1673Y-0.3839
X-1.1673Y-0.5118
X-1.1673Y-0.6398
X-1.1673Y-0.8957
X-1.1673Y-1.1319
X-0.9232Y1.1319
X-0.9232Y-1.1319
X-0.6594Y1.1319
X-0.6594Y-1.1319
X-0.3957Y1.1319
X-0.3957Y-1.1319
X-0.1319Y1.1319
X-0.1319Y-1.1319
X0.1319Y1.1319
X0.1319Y-1.1319
X0.3957Y1.1319
X0.3957Y-1.1319
X0.6594Y1.1319
X0.6594Y-1.1319
X0.9232Y1.1319
X0.9232Y-1.1319
X1.1673Y0.8957
X1.1673Y0.6398
X1.1673Y0.3839
X1.1673Y0.128
X1.1673Y-0.128
X1.1673Y-0.3839
X1.1673Y-0.6398
X1.1673Y-0.8957
T4
X0.6776Y-1.2008
T5
X1.4Y0.75
X1.4Y0.65
X1.4Y0.55
X1.4Y0.45
X1.4Y0.35
X1.4Y0.25
X1.4Y0.15
X1.4Y0.05
X1.4Y-0.05
X1.4Y-0.15
X1.4Y-0.25
X1.4Y-0.35
X1.4Y-0.45
X1.4Y-0.55
X1.4Y-0.65
X1.4Y-0.75
X-1.4Y0.75
X-1.4Y0.65
X-1.4Y0.55
X-1.4Y0.45
X-1.4Y0.35
X-1.4Y0.25
X-1.4Y0.15
X-1.4Y0.05
X-1.4Y-0.05
X-1.4Y-0.15
X-1.4Y-0.25
X-1.4Y-0.35
X-1.4Y-0.45
X-1.4Y-0.55
X-1.4Y-0.65
X-1.4Y-0.75
T6
X1.1963Y1.3937
X1.1963Y1.2937
X1.2963Y1.3937
X1.2963Y1.2937
X1.3963Y1.3937
X1.3963Y1.2937
T7
X0.5776Y-1.2008
X0.7776Y-1.2008
T0
M30
