G04 #@! TF.GenerationSoftware,KiCad,Pcbnew,(5.1.2-1)-1*
G04 #@! TF.CreationDate,2020-04-17T06:43:39-05:00*
G04 #@! TF.ProjectId,Interactive Core Memory Badge (Cores) v0.3,496e7465-7261-4637-9469-766520436f72,0.3*
G04 #@! TF.SameCoordinates,Original*
G04 #@! TF.FileFunction,Legend,Top*
G04 #@! TF.FilePolarity,Positive*
%FSLAX46Y46*%
G04 Gerber Fmt 4.6, Leading zero omitted, Abs format (unit mm)*
G04 Created by KiCad (PCBNEW (5.1.2-1)-1) date 2020-04-17 06:43:39*
%MOMM*%
%LPD*%
G04 APERTURE LIST*
%ADD10C,0.150000*%
%ADD11C,0.160000*%
%ADD12C,1.250000*%
%ADD13C,0.635000*%
G04 APERTURE END LIST*
D10*
X19472142Y33816666D02*
X19424523Y33864285D01*
X19329285Y34007142D01*
X19281666Y34102380D01*
X19234047Y34245238D01*
X19186428Y34483333D01*
X19186428Y34673809D01*
X19234047Y34911904D01*
X19281666Y35054761D01*
X19329285Y35150000D01*
X19424523Y35292857D01*
X19472142Y35340476D01*
X19853095Y34197619D02*
X19853095Y35197619D01*
X20091190Y35197619D01*
X20234047Y35150000D01*
X20329285Y35054761D01*
X20376904Y34959523D01*
X20424523Y34769047D01*
X20424523Y34626190D01*
X20376904Y34435714D01*
X20329285Y34340476D01*
X20234047Y34245238D01*
X20091190Y34197619D01*
X19853095Y34197619D01*
X20757857Y33816666D02*
X20805476Y33864285D01*
X20900714Y34007142D01*
X20948333Y34102380D01*
X20995952Y34245238D01*
X21043571Y34483333D01*
X21043571Y34673809D01*
X20995952Y34911904D01*
X20948333Y35054761D01*
X20900714Y35150000D01*
X20805476Y35292857D01*
X20757857Y35340476D01*
X6072142Y33816666D02*
X6024523Y33864285D01*
X5929285Y34007142D01*
X5881666Y34102380D01*
X5834047Y34245238D01*
X5786428Y34483333D01*
X5786428Y34673809D01*
X5834047Y34911904D01*
X5881666Y35054761D01*
X5929285Y35150000D01*
X6024523Y35292857D01*
X6072142Y35340476D01*
X7024523Y34292857D02*
X6976904Y34245238D01*
X6834047Y34197619D01*
X6738809Y34197619D01*
X6595952Y34245238D01*
X6500714Y34340476D01*
X6453095Y34435714D01*
X6405476Y34626190D01*
X6405476Y34769047D01*
X6453095Y34959523D01*
X6500714Y35054761D01*
X6595952Y35150000D01*
X6738809Y35197619D01*
X6834047Y35197619D01*
X6976904Y35150000D01*
X7024523Y35102380D01*
X7357857Y33816666D02*
X7405476Y33864285D01*
X7500714Y34007142D01*
X7548333Y34102380D01*
X7595952Y34245238D01*
X7643571Y34483333D01*
X7643571Y34673809D01*
X7595952Y34911904D01*
X7548333Y35054761D01*
X7500714Y35150000D01*
X7405476Y35292857D01*
X7357857Y35340476D01*
X-7327857Y33816666D02*
X-7375476Y33864285D01*
X-7470714Y34007142D01*
X-7518333Y34102380D01*
X-7565952Y34245238D01*
X-7613571Y34483333D01*
X-7613571Y34673809D01*
X-7565952Y34911904D01*
X-7518333Y35054761D01*
X-7470714Y35150000D01*
X-7375476Y35292857D01*
X-7327857Y35340476D01*
X-6613571Y34721428D02*
X-6470714Y34673809D01*
X-6423095Y34626190D01*
X-6375476Y34530952D01*
X-6375476Y34388095D01*
X-6423095Y34292857D01*
X-6470714Y34245238D01*
X-6565952Y34197619D01*
X-6946904Y34197619D01*
X-6946904Y35197619D01*
X-6613571Y35197619D01*
X-6518333Y35150000D01*
X-6470714Y35102380D01*
X-6423095Y35007142D01*
X-6423095Y34911904D01*
X-6470714Y34816666D01*
X-6518333Y34769047D01*
X-6613571Y34721428D01*
X-6946904Y34721428D01*
X-6042142Y33816666D02*
X-5994523Y33864285D01*
X-5899285Y34007142D01*
X-5851666Y34102380D01*
X-5804047Y34245238D01*
X-5756428Y34483333D01*
X-5756428Y34673809D01*
X-5804047Y34911904D01*
X-5851666Y35054761D01*
X-5899285Y35150000D01*
X-5994523Y35292857D01*
X-6042142Y35340476D01*
X-20656428Y33916666D02*
X-20704047Y33964285D01*
X-20799285Y34107142D01*
X-20846904Y34202380D01*
X-20894523Y34345238D01*
X-20942142Y34583333D01*
X-20942142Y34773809D01*
X-20894523Y35011904D01*
X-20846904Y35154761D01*
X-20799285Y35250000D01*
X-20704047Y35392857D01*
X-20656428Y35440476D01*
X-20323095Y34583333D02*
X-19846904Y34583333D01*
X-20418333Y34297619D02*
X-20085000Y35297619D01*
X-19751666Y34297619D01*
X-19513571Y33916666D02*
X-19465952Y33964285D01*
X-19370714Y34107142D01*
X-19323095Y34202380D01*
X-19275476Y34345238D01*
X-19227857Y34583333D01*
X-19227857Y34773809D01*
X-19275476Y35011904D01*
X-19323095Y35154761D01*
X-19370714Y35250000D01*
X-19465952Y35392857D01*
X-19513571Y35440476D01*
X19495952Y-35383333D02*
X19448333Y-35335714D01*
X19353095Y-35192857D01*
X19305476Y-35097619D01*
X19257857Y-34954761D01*
X19210238Y-34716666D01*
X19210238Y-34526190D01*
X19257857Y-34288095D01*
X19305476Y-34145238D01*
X19353095Y-34050000D01*
X19448333Y-33907142D01*
X19495952Y-33859523D01*
X19829285Y-34954761D02*
X19972142Y-35002380D01*
X20210238Y-35002380D01*
X20305476Y-34954761D01*
X20353095Y-34907142D01*
X20400714Y-34811904D01*
X20400714Y-34716666D01*
X20353095Y-34621428D01*
X20305476Y-34573809D01*
X20210238Y-34526190D01*
X20019761Y-34478571D01*
X19924523Y-34430952D01*
X19876904Y-34383333D01*
X19829285Y-34288095D01*
X19829285Y-34192857D01*
X19876904Y-34097619D01*
X19924523Y-34050000D01*
X20019761Y-34002380D01*
X20257857Y-34002380D01*
X20400714Y-34050000D01*
X20734047Y-35383333D02*
X20781666Y-35335714D01*
X20876904Y-35192857D01*
X20924523Y-35097619D01*
X20972142Y-34954761D01*
X21019761Y-34716666D01*
X21019761Y-34526190D01*
X20972142Y-34288095D01*
X20924523Y-34145238D01*
X20876904Y-34050000D01*
X20781666Y-33907142D01*
X20734047Y-33859523D01*
X5953095Y-35383333D02*
X5905476Y-35335714D01*
X5810238Y-35192857D01*
X5762619Y-35097619D01*
X5715000Y-34954761D01*
X5667380Y-34716666D01*
X5667380Y-34526190D01*
X5715000Y-34288095D01*
X5762619Y-34145238D01*
X5810238Y-34050000D01*
X5905476Y-33907142D01*
X5953095Y-33859523D01*
X6334047Y-34621428D02*
X7095952Y-34621428D01*
X6715000Y-35002380D02*
X6715000Y-34240476D01*
X7476904Y-35383333D02*
X7524523Y-35335714D01*
X7619761Y-35192857D01*
X7667380Y-35097619D01*
X7715000Y-34954761D01*
X7762619Y-34716666D01*
X7762619Y-34526190D01*
X7715000Y-34288095D01*
X7667380Y-34145238D01*
X7619761Y-34050000D01*
X7524523Y-33907142D01*
X7476904Y-33859523D01*
X-7446904Y-35383333D02*
X-7494523Y-35335714D01*
X-7589761Y-35192857D01*
X-7637380Y-35097619D01*
X-7685000Y-34954761D01*
X-7732619Y-34716666D01*
X-7732619Y-34526190D01*
X-7685000Y-34288095D01*
X-7637380Y-34145238D01*
X-7589761Y-34050000D01*
X-7494523Y-33907142D01*
X-7446904Y-33859523D01*
X-7065952Y-34621428D02*
X-6304047Y-34621428D01*
X-5923095Y-35383333D02*
X-5875476Y-35335714D01*
X-5780238Y-35192857D01*
X-5732619Y-35097619D01*
X-5685000Y-34954761D01*
X-5637380Y-34716666D01*
X-5637380Y-34526190D01*
X-5685000Y-34288095D01*
X-5732619Y-34145238D01*
X-5780238Y-34050000D01*
X-5875476Y-33907142D01*
X-5923095Y-33859523D01*
D11*
X31995952Y23064285D02*
X31234047Y22778571D01*
X31995952Y22492857D01*
X32472142Y22778571D02*
X33234047Y22778571D01*
X33710238Y22397619D02*
X33710238Y23397619D01*
X33710238Y23016666D02*
X33805476Y23064285D01*
X33995952Y23064285D01*
X34091190Y23016666D01*
X34138809Y22969047D01*
X34186428Y22873809D01*
X34186428Y22588095D01*
X34138809Y22492857D01*
X34091190Y22445238D01*
X33995952Y22397619D01*
X33805476Y22397619D01*
X33710238Y22445238D01*
X34615000Y22397619D02*
X34615000Y23064285D01*
X34615000Y23397619D02*
X34567380Y23350000D01*
X34615000Y23302380D01*
X34662619Y23350000D01*
X34615000Y23397619D01*
X34615000Y23302380D01*
X34948333Y23064285D02*
X35329285Y23064285D01*
X35091190Y23397619D02*
X35091190Y22540476D01*
X35138809Y22445238D01*
X35234047Y22397619D01*
X35329285Y22397619D01*
X36853095Y23397619D02*
X36662619Y23397619D01*
X36567380Y23350000D01*
X36519761Y23302380D01*
X36424523Y23159523D01*
X36376904Y22969047D01*
X36376904Y22588095D01*
X36424523Y22492857D01*
X36472142Y22445238D01*
X36567380Y22397619D01*
X36757857Y22397619D01*
X36853095Y22445238D01*
X36900714Y22492857D01*
X36948333Y22588095D01*
X36948333Y22826190D01*
X36900714Y22921428D01*
X36853095Y22969047D01*
X36757857Y23016666D01*
X36567380Y23016666D01*
X36472142Y22969047D01*
X36424523Y22921428D01*
X36376904Y22826190D01*
X37281666Y23397619D02*
X37900714Y23397619D01*
X37567380Y23016666D01*
X37710238Y23016666D01*
X37805476Y22969047D01*
X37853095Y22921428D01*
X37900714Y22826190D01*
X37900714Y22588095D01*
X37853095Y22492857D01*
X37805476Y22445238D01*
X37710238Y22397619D01*
X37424523Y22397619D01*
X37329285Y22445238D01*
X37281666Y22492857D01*
X38329285Y22778571D02*
X39091190Y22778571D01*
X40043571Y23397619D02*
X39567380Y23397619D01*
X39519761Y22921428D01*
X39567380Y22969047D01*
X39662619Y23016666D01*
X39900714Y23016666D01*
X39995952Y22969047D01*
X40043571Y22921428D01*
X40091190Y22826190D01*
X40091190Y22588095D01*
X40043571Y22492857D01*
X39995952Y22445238D01*
X39900714Y22397619D01*
X39662619Y22397619D01*
X39567380Y22445238D01*
X39519761Y22492857D01*
X40948333Y23397619D02*
X40757857Y23397619D01*
X40662619Y23350000D01*
X40615000Y23302380D01*
X40519761Y23159523D01*
X40472142Y22969047D01*
X40472142Y22588095D01*
X40519761Y22492857D01*
X40567380Y22445238D01*
X40662619Y22397619D01*
X40853095Y22397619D01*
X40948333Y22445238D01*
X40995952Y22492857D01*
X41043571Y22588095D01*
X41043571Y22826190D01*
X40995952Y22921428D01*
X40948333Y22969047D01*
X40853095Y23016666D01*
X40662619Y23016666D01*
X40567380Y22969047D01*
X40519761Y22921428D01*
X40472142Y22826190D01*
X31948333Y-22535714D02*
X31186428Y-22821428D01*
X31948333Y-23107142D01*
X32424523Y-22821428D02*
X33186428Y-22821428D01*
X33662619Y-23202380D02*
X33662619Y-22202380D01*
X33662619Y-22583333D02*
X33757857Y-22535714D01*
X33948333Y-22535714D01*
X34043571Y-22583333D01*
X34091190Y-22630952D01*
X34138809Y-22726190D01*
X34138809Y-23011904D01*
X34091190Y-23107142D01*
X34043571Y-23154761D01*
X33948333Y-23202380D01*
X33757857Y-23202380D01*
X33662619Y-23154761D01*
X34567380Y-23202380D02*
X34567380Y-22535714D01*
X34567380Y-22202380D02*
X34519761Y-22250000D01*
X34567380Y-22297619D01*
X34615000Y-22250000D01*
X34567380Y-22202380D01*
X34567380Y-22297619D01*
X34900714Y-22535714D02*
X35281666Y-22535714D01*
X35043571Y-22202380D02*
X35043571Y-23059523D01*
X35091190Y-23154761D01*
X35186428Y-23202380D01*
X35281666Y-23202380D01*
X36281666Y-22202380D02*
X36948333Y-22202380D01*
X36519761Y-23202380D01*
X37329285Y-22821428D02*
X38091190Y-22821428D01*
X38757857Y-22202380D02*
X38853095Y-22202380D01*
X38948333Y-22250000D01*
X38995952Y-22297619D01*
X39043571Y-22392857D01*
X39091190Y-22583333D01*
X39091190Y-22821428D01*
X39043571Y-23011904D01*
X38995952Y-23107142D01*
X38948333Y-23154761D01*
X38853095Y-23202380D01*
X38757857Y-23202380D01*
X38662619Y-23154761D01*
X38615000Y-23107142D01*
X38567380Y-23011904D01*
X38519761Y-22821428D01*
X38519761Y-22583333D01*
X38567380Y-22392857D01*
X38615000Y-22297619D01*
X38662619Y-22250000D01*
X38757857Y-22202380D01*
X-42123095Y-23202380D02*
X-42123095Y-22202380D01*
X-41742142Y-22202380D01*
X-41646904Y-22250000D01*
X-41599285Y-22297619D01*
X-41551666Y-22392857D01*
X-41551666Y-22535714D01*
X-41599285Y-22630952D01*
X-41646904Y-22678571D01*
X-41742142Y-22726190D01*
X-42123095Y-22726190D01*
X-41123095Y-23202380D02*
X-41123095Y-22535714D01*
X-41123095Y-22202380D02*
X-41170714Y-22250000D01*
X-41123095Y-22297619D01*
X-41075476Y-22250000D01*
X-41123095Y-22202380D01*
X-41123095Y-22297619D01*
X-40742142Y-23202380D02*
X-40218333Y-22535714D01*
X-40742142Y-22535714D02*
X-40218333Y-23202380D01*
X-39456428Y-23154761D02*
X-39551666Y-23202380D01*
X-39742142Y-23202380D01*
X-39837380Y-23154761D01*
X-39885000Y-23059523D01*
X-39885000Y-22678571D01*
X-39837380Y-22583333D01*
X-39742142Y-22535714D01*
X-39551666Y-22535714D01*
X-39456428Y-22583333D01*
X-39408809Y-22678571D01*
X-39408809Y-22773809D01*
X-39885000Y-22869047D01*
X-38837380Y-23202380D02*
X-38932619Y-23154761D01*
X-38980238Y-23059523D01*
X-38980238Y-22202380D01*
X-37218333Y-22202380D02*
X-37694523Y-22202380D01*
X-37742142Y-22678571D01*
X-37694523Y-22630952D01*
X-37599285Y-22583333D01*
X-37361190Y-22583333D01*
X-37265952Y-22630952D01*
X-37218333Y-22678571D01*
X-37170714Y-22773809D01*
X-37170714Y-23011904D01*
X-37218333Y-23107142D01*
X-37265952Y-23154761D01*
X-37361190Y-23202380D01*
X-37599285Y-23202380D01*
X-37694523Y-23154761D01*
X-37742142Y-23107142D01*
X-36313571Y-22202380D02*
X-36504047Y-22202380D01*
X-36599285Y-22250000D01*
X-36646904Y-22297619D01*
X-36742142Y-22440476D01*
X-36789761Y-22630952D01*
X-36789761Y-23011904D01*
X-36742142Y-23107142D01*
X-36694523Y-23154761D01*
X-36599285Y-23202380D01*
X-36408809Y-23202380D01*
X-36313571Y-23154761D01*
X-36265952Y-23107142D01*
X-36218333Y-23011904D01*
X-36218333Y-22773809D01*
X-36265952Y-22678571D01*
X-36313571Y-22630952D01*
X-36408809Y-22583333D01*
X-36599285Y-22583333D01*
X-36694523Y-22630952D01*
X-36742142Y-22678571D01*
X-36789761Y-22773809D01*
X-35789761Y-22821428D02*
X-35027857Y-22821428D01*
X-34123095Y-22202380D02*
X-34313571Y-22202380D01*
X-34408809Y-22250000D01*
X-34456428Y-22297619D01*
X-34551666Y-22440476D01*
X-34599285Y-22630952D01*
X-34599285Y-23011904D01*
X-34551666Y-23107142D01*
X-34504047Y-23154761D01*
X-34408809Y-23202380D01*
X-34218333Y-23202380D01*
X-34123095Y-23154761D01*
X-34075476Y-23107142D01*
X-34027857Y-23011904D01*
X-34027857Y-22773809D01*
X-34075476Y-22678571D01*
X-34123095Y-22630952D01*
X-34218333Y-22583333D01*
X-34408809Y-22583333D01*
X-34504047Y-22630952D01*
X-34551666Y-22678571D01*
X-34599285Y-22773809D01*
X-33694523Y-22202380D02*
X-33075476Y-22202380D01*
X-33408809Y-22583333D01*
X-33265952Y-22583333D01*
X-33170714Y-22630952D01*
X-33123095Y-22678571D01*
X-33075476Y-22773809D01*
X-33075476Y-23011904D01*
X-33123095Y-23107142D01*
X-33170714Y-23154761D01*
X-33265952Y-23202380D01*
X-33551666Y-23202380D01*
X-33646904Y-23154761D01*
X-33694523Y-23107142D01*
X-32646904Y-22821428D02*
X-31885000Y-22821428D01*
X-31408809Y-22535714D02*
X-30646904Y-22821428D01*
X-31408809Y-23107142D01*
X-41251666Y22397619D02*
X-41251666Y23397619D01*
X-40870714Y23397619D01*
X-40775476Y23350000D01*
X-40727857Y23302380D01*
X-40680238Y23207142D01*
X-40680238Y23064285D01*
X-40727857Y22969047D01*
X-40775476Y22921428D01*
X-40870714Y22873809D01*
X-41251666Y22873809D01*
X-40251666Y22397619D02*
X-40251666Y23064285D01*
X-40251666Y23397619D02*
X-40299285Y23350000D01*
X-40251666Y23302380D01*
X-40204047Y23350000D01*
X-40251666Y23397619D01*
X-40251666Y23302380D01*
X-39870714Y22397619D02*
X-39346904Y23064285D01*
X-39870714Y23064285D02*
X-39346904Y22397619D01*
X-38585000Y22445238D02*
X-38680238Y22397619D01*
X-38870714Y22397619D01*
X-38965952Y22445238D01*
X-39013571Y22540476D01*
X-39013571Y22921428D01*
X-38965952Y23016666D01*
X-38870714Y23064285D01*
X-38680238Y23064285D01*
X-38585000Y23016666D01*
X-38537380Y22921428D01*
X-38537380Y22826190D01*
X-39013571Y22730952D01*
X-37965952Y22397619D02*
X-38061190Y22445238D01*
X-38108809Y22540476D01*
X-38108809Y23397619D01*
X-36632619Y23397619D02*
X-36537380Y23397619D01*
X-36442142Y23350000D01*
X-36394523Y23302380D01*
X-36346904Y23207142D01*
X-36299285Y23016666D01*
X-36299285Y22778571D01*
X-36346904Y22588095D01*
X-36394523Y22492857D01*
X-36442142Y22445238D01*
X-36537380Y22397619D01*
X-36632619Y22397619D01*
X-36727857Y22445238D01*
X-36775476Y22492857D01*
X-36823095Y22588095D01*
X-36870714Y22778571D01*
X-36870714Y23016666D01*
X-36823095Y23207142D01*
X-36775476Y23302380D01*
X-36727857Y23350000D01*
X-36632619Y23397619D01*
X-35870714Y22778571D02*
X-35108809Y22778571D01*
X-34727857Y23397619D02*
X-34061190Y23397619D01*
X-34489761Y22397619D01*
X-32918333Y22778571D02*
X-32156428Y22778571D01*
X-31680238Y23064285D02*
X-30918333Y22778571D01*
X-31680238Y22492857D01*
X11181666Y-32321428D02*
X11943571Y-32321428D01*
X11562619Y-32702380D02*
X11562619Y-31940476D01*
X12276904Y-31702380D02*
X12610238Y-32702380D01*
X12943571Y-31702380D01*
X13229285Y-32654761D02*
X13372142Y-32702380D01*
X13610238Y-32702380D01*
X13705476Y-32654761D01*
X13753095Y-32607142D01*
X13800714Y-32511904D01*
X13800714Y-32416666D01*
X13753095Y-32321428D01*
X13705476Y-32273809D01*
X13610238Y-32226190D01*
X13419761Y-32178571D01*
X13324523Y-32130952D01*
X13276904Y-32083333D01*
X13229285Y-31988095D01*
X13229285Y-31892857D01*
X13276904Y-31797619D01*
X13324523Y-31750000D01*
X13419761Y-31702380D01*
X13657857Y-31702380D01*
X13800714Y-31750000D01*
X14134047Y-31702380D02*
X14372142Y-32702380D01*
X14562619Y-31988095D01*
X14753095Y-32702380D01*
X14991190Y-31702380D01*
X16086428Y-32654761D02*
X16229285Y-32702380D01*
X16467380Y-32702380D01*
X16562619Y-32654761D01*
X16610238Y-32607142D01*
X16657857Y-32511904D01*
X16657857Y-32416666D01*
X16610238Y-32321428D01*
X16562619Y-32273809D01*
X16467380Y-32226190D01*
X16276904Y-32178571D01*
X16181666Y-32130952D01*
X16134047Y-32083333D01*
X16086428Y-31988095D01*
X16086428Y-31892857D01*
X16134047Y-31797619D01*
X16181666Y-31750000D01*
X16276904Y-31702380D01*
X16515000Y-31702380D01*
X16657857Y-31750000D01*
X17086428Y-32702380D02*
X17086428Y-31702380D01*
X18086428Y-31750000D02*
X17991190Y-31702380D01*
X17848333Y-31702380D01*
X17705476Y-31750000D01*
X17610238Y-31845238D01*
X17562619Y-31940476D01*
X17515000Y-32130952D01*
X17515000Y-32273809D01*
X17562619Y-32464285D01*
X17610238Y-32559523D01*
X17705476Y-32654761D01*
X17848333Y-32702380D01*
X17943571Y-32702380D01*
X18086428Y-32654761D01*
X18134047Y-32607142D01*
X18134047Y-32273809D01*
X17943571Y-32273809D01*
X19086428Y-32702380D02*
X18515000Y-32702380D01*
X18800714Y-32702380D02*
X18800714Y-31702380D01*
X18705476Y-31845238D01*
X18610238Y-31940476D01*
X18515000Y-31988095D01*
X20800714Y-31750000D02*
X20705476Y-31702380D01*
X20562619Y-31702380D01*
X20419761Y-31750000D01*
X20324523Y-31845238D01*
X20276904Y-31940476D01*
X20229285Y-32130952D01*
X20229285Y-32273809D01*
X20276904Y-32464285D01*
X20324523Y-32559523D01*
X20419761Y-32654761D01*
X20562619Y-32702380D01*
X20657857Y-32702380D01*
X20800714Y-32654761D01*
X20848333Y-32607142D01*
X20848333Y-32273809D01*
X20657857Y-32273809D01*
X21276904Y-32702380D02*
X21276904Y-31702380D01*
X21848333Y-32702380D01*
X21848333Y-31702380D01*
X22324523Y-32702380D02*
X22324523Y-31702380D01*
X22562619Y-31702380D01*
X22705476Y-31750000D01*
X22800714Y-31845238D01*
X22848333Y-31940476D01*
X22895952Y-32130952D01*
X22895952Y-32273809D01*
X22848333Y-32464285D01*
X22800714Y-32559523D01*
X22705476Y-32654761D01*
X22562619Y-32702380D01*
X22324523Y-32702380D01*
X37333285Y19890238D02*
X37866619Y18310238D01*
X37866619Y19890238D02*
X37333285Y18310238D01*
X38057095Y19890238D02*
X38514238Y19890238D01*
X38285666Y18310238D02*
X38285666Y19890238D01*
X38704714Y19890238D02*
X39199952Y19890238D01*
X38933285Y19288333D01*
X39047571Y19288333D01*
X39123761Y19213095D01*
X39161857Y19137857D01*
X39199952Y18987380D01*
X39199952Y18611190D01*
X39161857Y18460714D01*
X39123761Y18385476D01*
X39047571Y18310238D01*
X38819000Y18310238D01*
X38742809Y18385476D01*
X38704714Y18460714D01*
X39580904Y18385476D02*
X39580904Y18310238D01*
X39542809Y18159761D01*
X39504714Y18084523D01*
X39847571Y19890238D02*
X40380904Y19890238D01*
X40038047Y18310238D01*
X37333285Y17360238D02*
X37866619Y15780238D01*
X37866619Y17360238D02*
X37333285Y15780238D01*
X38057095Y17360238D02*
X38514238Y17360238D01*
X38285666Y15780238D02*
X38285666Y17360238D01*
X38742809Y17209761D02*
X38780904Y17285000D01*
X38857095Y17360238D01*
X39047571Y17360238D01*
X39123761Y17285000D01*
X39161857Y17209761D01*
X39199952Y17059285D01*
X39199952Y16908809D01*
X39161857Y16683095D01*
X38704714Y15780238D01*
X39199952Y15780238D01*
X39580904Y15855476D02*
X39580904Y15780238D01*
X39542809Y15629761D01*
X39504714Y15554523D01*
X40266619Y17360238D02*
X40114238Y17360238D01*
X40038047Y17285000D01*
X39999952Y17209761D01*
X39923761Y16984047D01*
X39885666Y16683095D01*
X39885666Y16081190D01*
X39923761Y15930714D01*
X39961857Y15855476D01*
X40038047Y15780238D01*
X40190428Y15780238D01*
X40266619Y15855476D01*
X40304714Y15930714D01*
X40342809Y16081190D01*
X40342809Y16457380D01*
X40304714Y16607857D01*
X40266619Y16683095D01*
X40190428Y16758333D01*
X40038047Y16758333D01*
X39961857Y16683095D01*
X39923761Y16607857D01*
X39885666Y16457380D01*
X37333285Y14830238D02*
X37866619Y13250238D01*
X37866619Y14830238D02*
X37333285Y13250238D01*
X38057095Y14830238D02*
X38514238Y14830238D01*
X38285666Y13250238D02*
X38285666Y14830238D01*
X39199952Y13250238D02*
X38742809Y13250238D01*
X38971380Y13250238D02*
X38971380Y14830238D01*
X38895190Y14604523D01*
X38819000Y14454047D01*
X38742809Y14378809D01*
X39580904Y13325476D02*
X39580904Y13250238D01*
X39542809Y13099761D01*
X39504714Y13024523D01*
X40304714Y14830238D02*
X39923761Y14830238D01*
X39885666Y14077857D01*
X39923761Y14153095D01*
X39999952Y14228333D01*
X40190428Y14228333D01*
X40266619Y14153095D01*
X40304714Y14077857D01*
X40342809Y13927380D01*
X40342809Y13551190D01*
X40304714Y13400714D01*
X40266619Y13325476D01*
X40190428Y13250238D01*
X39999952Y13250238D01*
X39923761Y13325476D01*
X39885666Y13400714D01*
X37333285Y12300238D02*
X37866619Y10720238D01*
X37866619Y12300238D02*
X37333285Y10720238D01*
X38057095Y12300238D02*
X38514238Y12300238D01*
X38285666Y10720238D02*
X38285666Y12300238D01*
X38933285Y12300238D02*
X39009476Y12300238D01*
X39085666Y12225000D01*
X39123761Y12149761D01*
X39161857Y11999285D01*
X39199952Y11698333D01*
X39199952Y11322142D01*
X39161857Y11021190D01*
X39123761Y10870714D01*
X39085666Y10795476D01*
X39009476Y10720238D01*
X38933285Y10720238D01*
X38857095Y10795476D01*
X38819000Y10870714D01*
X38780904Y11021190D01*
X38742809Y11322142D01*
X38742809Y11698333D01*
X38780904Y11999285D01*
X38819000Y12149761D01*
X38857095Y12225000D01*
X38933285Y12300238D01*
X39580904Y10795476D02*
X39580904Y10720238D01*
X39542809Y10569761D01*
X39504714Y10494523D01*
X40266619Y11773571D02*
X40266619Y10720238D01*
X40076142Y12375476D02*
X39885666Y11246904D01*
X40380904Y11246904D01*
X37333285Y9770238D02*
X37866619Y8190238D01*
X37866619Y9770238D02*
X37333285Y8190238D01*
X38438047Y9017857D02*
X38552333Y8942619D01*
X38590428Y8867380D01*
X38628523Y8716904D01*
X38628523Y8491190D01*
X38590428Y8340714D01*
X38552333Y8265476D01*
X38476142Y8190238D01*
X38171380Y8190238D01*
X38171380Y9770238D01*
X38438047Y9770238D01*
X38514238Y9695000D01*
X38552333Y9619761D01*
X38590428Y9469285D01*
X38590428Y9318809D01*
X38552333Y9168333D01*
X38514238Y9093095D01*
X38438047Y9017857D01*
X38171380Y9017857D01*
X39123761Y9770238D02*
X39199952Y9770238D01*
X39276142Y9695000D01*
X39314238Y9619761D01*
X39352333Y9469285D01*
X39390428Y9168333D01*
X39390428Y8792142D01*
X39352333Y8491190D01*
X39314238Y8340714D01*
X39276142Y8265476D01*
X39199952Y8190238D01*
X39123761Y8190238D01*
X39047571Y8265476D01*
X39009476Y8340714D01*
X38971380Y8491190D01*
X38933285Y8792142D01*
X38933285Y9168333D01*
X38971380Y9469285D01*
X39009476Y9619761D01*
X39047571Y9695000D01*
X39123761Y9770238D01*
X37333285Y7240238D02*
X37866619Y5660238D01*
X37866619Y7240238D02*
X37333285Y5660238D01*
X38438047Y6487857D02*
X38552333Y6412619D01*
X38590428Y6337380D01*
X38628523Y6186904D01*
X38628523Y5961190D01*
X38590428Y5810714D01*
X38552333Y5735476D01*
X38476142Y5660238D01*
X38171380Y5660238D01*
X38171380Y7240238D01*
X38438047Y7240238D01*
X38514238Y7165000D01*
X38552333Y7089761D01*
X38590428Y6939285D01*
X38590428Y6788809D01*
X38552333Y6638333D01*
X38514238Y6563095D01*
X38438047Y6487857D01*
X38171380Y6487857D01*
X39390428Y5660238D02*
X38933285Y5660238D01*
X39161857Y5660238D02*
X39161857Y7240238D01*
X39085666Y7014523D01*
X39009476Y6864047D01*
X38933285Y6788809D01*
X37333285Y4710238D02*
X37866619Y3130238D01*
X37866619Y4710238D02*
X37333285Y3130238D01*
X38438047Y3957857D02*
X38552333Y3882619D01*
X38590428Y3807380D01*
X38628523Y3656904D01*
X38628523Y3431190D01*
X38590428Y3280714D01*
X38552333Y3205476D01*
X38476142Y3130238D01*
X38171380Y3130238D01*
X38171380Y4710238D01*
X38438047Y4710238D01*
X38514238Y4635000D01*
X38552333Y4559761D01*
X38590428Y4409285D01*
X38590428Y4258809D01*
X38552333Y4108333D01*
X38514238Y4033095D01*
X38438047Y3957857D01*
X38171380Y3957857D01*
X38933285Y4559761D02*
X38971380Y4635000D01*
X39047571Y4710238D01*
X39238047Y4710238D01*
X39314238Y4635000D01*
X39352333Y4559761D01*
X39390428Y4409285D01*
X39390428Y4258809D01*
X39352333Y4033095D01*
X38895190Y3130238D01*
X39390428Y3130238D01*
X37333285Y2180238D02*
X37866619Y600238D01*
X37866619Y2180238D02*
X37333285Y600238D01*
X38438047Y1427857D02*
X38552333Y1352619D01*
X38590428Y1277380D01*
X38628523Y1126904D01*
X38628523Y901190D01*
X38590428Y750714D01*
X38552333Y675476D01*
X38476142Y600238D01*
X38171380Y600238D01*
X38171380Y2180238D01*
X38438047Y2180238D01*
X38514238Y2105000D01*
X38552333Y2029761D01*
X38590428Y1879285D01*
X38590428Y1728809D01*
X38552333Y1578333D01*
X38514238Y1503095D01*
X38438047Y1427857D01*
X38171380Y1427857D01*
X38895190Y2180238D02*
X39390428Y2180238D01*
X39123761Y1578333D01*
X39238047Y1578333D01*
X39314238Y1503095D01*
X39352333Y1427857D01*
X39390428Y1277380D01*
X39390428Y901190D01*
X39352333Y750714D01*
X39314238Y675476D01*
X39238047Y600238D01*
X39009476Y600238D01*
X38933285Y675476D01*
X38895190Y750714D01*
X37333285Y-349761D02*
X37866619Y-1929761D01*
X37866619Y-349761D02*
X37333285Y-1929761D01*
X38438047Y-1102142D02*
X38552333Y-1177380D01*
X38590428Y-1252619D01*
X38628523Y-1403095D01*
X38628523Y-1628809D01*
X38590428Y-1779285D01*
X38552333Y-1854523D01*
X38476142Y-1929761D01*
X38171380Y-1929761D01*
X38171380Y-349761D01*
X38438047Y-349761D01*
X38514238Y-425000D01*
X38552333Y-500238D01*
X38590428Y-650714D01*
X38590428Y-801190D01*
X38552333Y-951666D01*
X38514238Y-1026904D01*
X38438047Y-1102142D01*
X38171380Y-1102142D01*
X39314238Y-876428D02*
X39314238Y-1929761D01*
X39123761Y-274523D02*
X38933285Y-1403095D01*
X39428523Y-1403095D01*
X37333285Y-2879761D02*
X37866619Y-4459761D01*
X37866619Y-2879761D02*
X37333285Y-4459761D01*
X38438047Y-3632142D02*
X38552333Y-3707380D01*
X38590428Y-3782619D01*
X38628523Y-3933095D01*
X38628523Y-4158809D01*
X38590428Y-4309285D01*
X38552333Y-4384523D01*
X38476142Y-4459761D01*
X38171380Y-4459761D01*
X38171380Y-2879761D01*
X38438047Y-2879761D01*
X38514238Y-2955000D01*
X38552333Y-3030238D01*
X38590428Y-3180714D01*
X38590428Y-3331190D01*
X38552333Y-3481666D01*
X38514238Y-3556904D01*
X38438047Y-3632142D01*
X38171380Y-3632142D01*
X39352333Y-2879761D02*
X38971380Y-2879761D01*
X38933285Y-3632142D01*
X38971380Y-3556904D01*
X39047571Y-3481666D01*
X39238047Y-3481666D01*
X39314238Y-3556904D01*
X39352333Y-3632142D01*
X39390428Y-3782619D01*
X39390428Y-4158809D01*
X39352333Y-4309285D01*
X39314238Y-4384523D01*
X39238047Y-4459761D01*
X39047571Y-4459761D01*
X38971380Y-4384523D01*
X38933285Y-4309285D01*
X37333285Y-5409761D02*
X37866619Y-6989761D01*
X37866619Y-5409761D02*
X37333285Y-6989761D01*
X38438047Y-6162142D02*
X38552333Y-6237380D01*
X38590428Y-6312619D01*
X38628523Y-6463095D01*
X38628523Y-6688809D01*
X38590428Y-6839285D01*
X38552333Y-6914523D01*
X38476142Y-6989761D01*
X38171380Y-6989761D01*
X38171380Y-5409761D01*
X38438047Y-5409761D01*
X38514238Y-5485000D01*
X38552333Y-5560238D01*
X38590428Y-5710714D01*
X38590428Y-5861190D01*
X38552333Y-6011666D01*
X38514238Y-6086904D01*
X38438047Y-6162142D01*
X38171380Y-6162142D01*
X39314238Y-5409761D02*
X39161857Y-5409761D01*
X39085666Y-5485000D01*
X39047571Y-5560238D01*
X38971380Y-5785952D01*
X38933285Y-6086904D01*
X38933285Y-6688809D01*
X38971380Y-6839285D01*
X39009476Y-6914523D01*
X39085666Y-6989761D01*
X39238047Y-6989761D01*
X39314238Y-6914523D01*
X39352333Y-6839285D01*
X39390428Y-6688809D01*
X39390428Y-6312619D01*
X39352333Y-6162142D01*
X39314238Y-6086904D01*
X39238047Y-6011666D01*
X39085666Y-6011666D01*
X39009476Y-6086904D01*
X38971380Y-6162142D01*
X38933285Y-6312619D01*
X37333285Y-7939761D02*
X37866619Y-9519761D01*
X37866619Y-7939761D02*
X37333285Y-9519761D01*
X38438047Y-8692142D02*
X38552333Y-8767380D01*
X38590428Y-8842619D01*
X38628523Y-8993095D01*
X38628523Y-9218809D01*
X38590428Y-9369285D01*
X38552333Y-9444523D01*
X38476142Y-9519761D01*
X38171380Y-9519761D01*
X38171380Y-7939761D01*
X38438047Y-7939761D01*
X38514238Y-8015000D01*
X38552333Y-8090238D01*
X38590428Y-8240714D01*
X38590428Y-8391190D01*
X38552333Y-8541666D01*
X38514238Y-8616904D01*
X38438047Y-8692142D01*
X38171380Y-8692142D01*
X38895190Y-7939761D02*
X39428523Y-7939761D01*
X39085666Y-9519761D01*
X37409476Y-11447857D02*
X38019000Y-11447857D01*
X37714238Y-12049761D02*
X37714238Y-10845952D01*
X38285666Y-10469761D02*
X38552333Y-12049761D01*
X38819000Y-10469761D01*
X39047571Y-11974523D02*
X39161857Y-12049761D01*
X39352333Y-12049761D01*
X39428523Y-11974523D01*
X39466619Y-11899285D01*
X39504714Y-11748809D01*
X39504714Y-11598333D01*
X39466619Y-11447857D01*
X39428523Y-11372619D01*
X39352333Y-11297380D01*
X39199952Y-11222142D01*
X39123761Y-11146904D01*
X39085666Y-11071666D01*
X39047571Y-10921190D01*
X39047571Y-10770714D01*
X39085666Y-10620238D01*
X39123761Y-10545000D01*
X39199952Y-10469761D01*
X39390428Y-10469761D01*
X39504714Y-10545000D01*
X39771380Y-10469761D02*
X39961857Y-12049761D01*
X40114238Y-10921190D01*
X40266619Y-12049761D01*
X40457095Y-10469761D01*
X37371380Y-14504523D02*
X37485666Y-14579761D01*
X37676142Y-14579761D01*
X37752333Y-14504523D01*
X37790428Y-14429285D01*
X37828523Y-14278809D01*
X37828523Y-14128333D01*
X37790428Y-13977857D01*
X37752333Y-13902619D01*
X37676142Y-13827380D01*
X37523761Y-13752142D01*
X37447571Y-13676904D01*
X37409476Y-13601666D01*
X37371380Y-13451190D01*
X37371380Y-13300714D01*
X37409476Y-13150238D01*
X37447571Y-13075000D01*
X37523761Y-12999761D01*
X37714238Y-12999761D01*
X37828523Y-13075000D01*
X38171380Y-14579761D02*
X38171380Y-12999761D01*
X38971380Y-13075000D02*
X38895190Y-12999761D01*
X38780904Y-12999761D01*
X38666619Y-13075000D01*
X38590428Y-13225476D01*
X38552333Y-13375952D01*
X38514238Y-13676904D01*
X38514238Y-13902619D01*
X38552333Y-14203571D01*
X38590428Y-14354047D01*
X38666619Y-14504523D01*
X38780904Y-14579761D01*
X38857095Y-14579761D01*
X38971380Y-14504523D01*
X39009476Y-14429285D01*
X39009476Y-13902619D01*
X38857095Y-13902619D01*
X39771380Y-14579761D02*
X39314238Y-14579761D01*
X39542809Y-14579761D02*
X39542809Y-12999761D01*
X39466619Y-13225476D01*
X39390428Y-13375952D01*
X39314238Y-13451190D01*
X37828523Y-15605000D02*
X37752333Y-15529761D01*
X37638047Y-15529761D01*
X37523761Y-15605000D01*
X37447571Y-15755476D01*
X37409476Y-15905952D01*
X37371380Y-16206904D01*
X37371380Y-16432619D01*
X37409476Y-16733571D01*
X37447571Y-16884047D01*
X37523761Y-17034523D01*
X37638047Y-17109761D01*
X37714238Y-17109761D01*
X37828523Y-17034523D01*
X37866619Y-16959285D01*
X37866619Y-16432619D01*
X37714238Y-16432619D01*
X38209476Y-17109761D02*
X38209476Y-15529761D01*
X38666619Y-17109761D01*
X38666619Y-15529761D01*
X39047571Y-17109761D02*
X39047571Y-15529761D01*
X39238047Y-15529761D01*
X39352333Y-15605000D01*
X39428523Y-15755476D01*
X39466619Y-15905952D01*
X39504714Y-16206904D01*
X39504714Y-16432619D01*
X39466619Y-16733571D01*
X39428523Y-16884047D01*
X39352333Y-17034523D01*
X39238047Y-17109761D01*
X39047571Y-17109761D01*
X37828523Y-18135000D02*
X37752333Y-18059761D01*
X37638047Y-18059761D01*
X37523761Y-18135000D01*
X37447571Y-18285476D01*
X37409476Y-18435952D01*
X37371380Y-18736904D01*
X37371380Y-18962619D01*
X37409476Y-19263571D01*
X37447571Y-19414047D01*
X37523761Y-19564523D01*
X37638047Y-19639761D01*
X37714238Y-19639761D01*
X37828523Y-19564523D01*
X37866619Y-19489285D01*
X37866619Y-18962619D01*
X37714238Y-18962619D01*
X38209476Y-19639761D02*
X38209476Y-18059761D01*
X38514238Y-18059761D01*
X38590428Y-18135000D01*
X38628523Y-18210238D01*
X38666619Y-18360714D01*
X38666619Y-18586428D01*
X38628523Y-18736904D01*
X38590428Y-18812142D01*
X38514238Y-18887380D01*
X38209476Y-18887380D01*
X39009476Y-19639761D02*
X39009476Y-18059761D01*
X39542809Y-18059761D02*
X39695190Y-18059761D01*
X39771380Y-18135000D01*
X39847571Y-18285476D01*
X39885666Y-18586428D01*
X39885666Y-19113095D01*
X39847571Y-19414047D01*
X39771380Y-19564523D01*
X39695190Y-19639761D01*
X39542809Y-19639761D01*
X39466619Y-19564523D01*
X39390428Y-19414047D01*
X39352333Y-19113095D01*
X39352333Y-18586428D01*
X39390428Y-18285476D01*
X39466619Y-18135000D01*
X39542809Y-18059761D01*
X40190428Y-18210238D02*
X40228523Y-18135000D01*
X40304714Y-18059761D01*
X40495190Y-18059761D01*
X40571380Y-18135000D01*
X40609476Y-18210238D01*
X40647571Y-18360714D01*
X40647571Y-18511190D01*
X40609476Y-18736904D01*
X40152333Y-19639761D01*
X40647571Y-19639761D01*
X-39041380Y18862619D02*
X-39041380Y18110238D01*
X-39308047Y19690238D02*
X-39041380Y18862619D01*
X-38774714Y19690238D01*
X-38127095Y18110238D02*
X-38508047Y18110238D01*
X-38508047Y19690238D01*
X-37708047Y19690238D02*
X-37631857Y19690238D01*
X-37555666Y19615000D01*
X-37517571Y19539761D01*
X-37479476Y19389285D01*
X-37441380Y19088333D01*
X-37441380Y18712142D01*
X-37479476Y18411190D01*
X-37517571Y18260714D01*
X-37555666Y18185476D01*
X-37631857Y18110238D01*
X-37708047Y18110238D01*
X-37784238Y18185476D01*
X-37822333Y18260714D01*
X-37860428Y18411190D01*
X-37898523Y18712142D01*
X-37898523Y19088333D01*
X-37860428Y19389285D01*
X-37822333Y19539761D01*
X-37784238Y19615000D01*
X-37708047Y19690238D01*
X-39041380Y16332619D02*
X-39041380Y15580238D01*
X-39308047Y17160238D02*
X-39041380Y16332619D01*
X-38774714Y17160238D01*
X-38127095Y15580238D02*
X-38508047Y15580238D01*
X-38508047Y17160238D01*
X-37441380Y15580238D02*
X-37898523Y15580238D01*
X-37669952Y15580238D02*
X-37669952Y17160238D01*
X-37746142Y16934523D01*
X-37822333Y16784047D01*
X-37898523Y16708809D01*
X-39041380Y13802619D02*
X-39041380Y13050238D01*
X-39308047Y14630238D02*
X-39041380Y13802619D01*
X-38774714Y14630238D01*
X-38127095Y13050238D02*
X-38508047Y13050238D01*
X-38508047Y14630238D01*
X-37898523Y14479761D02*
X-37860428Y14555000D01*
X-37784238Y14630238D01*
X-37593761Y14630238D01*
X-37517571Y14555000D01*
X-37479476Y14479761D01*
X-37441380Y14329285D01*
X-37441380Y14178809D01*
X-37479476Y13953095D01*
X-37936619Y13050238D01*
X-37441380Y13050238D01*
X-39041380Y11272619D02*
X-39041380Y10520238D01*
X-39308047Y12100238D02*
X-39041380Y11272619D01*
X-38774714Y12100238D01*
X-38127095Y10520238D02*
X-38508047Y10520238D01*
X-38508047Y12100238D01*
X-37936619Y12100238D02*
X-37441380Y12100238D01*
X-37708047Y11498333D01*
X-37593761Y11498333D01*
X-37517571Y11423095D01*
X-37479476Y11347857D01*
X-37441380Y11197380D01*
X-37441380Y10821190D01*
X-37479476Y10670714D01*
X-37517571Y10595476D01*
X-37593761Y10520238D01*
X-37822333Y10520238D01*
X-37898523Y10595476D01*
X-37936619Y10670714D01*
X-40184238Y8742619D02*
X-40184238Y7990238D01*
X-40450904Y9570238D02*
X-40184238Y8742619D01*
X-39917571Y9570238D01*
X-39269952Y7990238D02*
X-39650904Y7990238D01*
X-39650904Y9570238D01*
X-38660428Y9043571D02*
X-38660428Y7990238D01*
X-38850904Y9645476D02*
X-39041380Y8516904D01*
X-38546142Y8516904D01*
X-38203285Y8065476D02*
X-38203285Y7990238D01*
X-38241380Y7839761D01*
X-38279476Y7764523D01*
X-37517571Y9570238D02*
X-37669952Y9570238D01*
X-37746142Y9495000D01*
X-37784238Y9419761D01*
X-37860428Y9194047D01*
X-37898523Y8893095D01*
X-37898523Y8291190D01*
X-37860428Y8140714D01*
X-37822333Y8065476D01*
X-37746142Y7990238D01*
X-37593761Y7990238D01*
X-37517571Y8065476D01*
X-37479476Y8140714D01*
X-37441380Y8291190D01*
X-37441380Y8667380D01*
X-37479476Y8817857D01*
X-37517571Y8893095D01*
X-37593761Y8968333D01*
X-37746142Y8968333D01*
X-37822333Y8893095D01*
X-37860428Y8817857D01*
X-37898523Y8667380D01*
X-40184238Y6212619D02*
X-40184238Y5460238D01*
X-40450904Y7040238D02*
X-40184238Y6212619D01*
X-39917571Y7040238D01*
X-39269952Y5460238D02*
X-39650904Y5460238D01*
X-39650904Y7040238D01*
X-38622333Y7040238D02*
X-39003285Y7040238D01*
X-39041380Y6287857D01*
X-39003285Y6363095D01*
X-38927095Y6438333D01*
X-38736619Y6438333D01*
X-38660428Y6363095D01*
X-38622333Y6287857D01*
X-38584238Y6137380D01*
X-38584238Y5761190D01*
X-38622333Y5610714D01*
X-38660428Y5535476D01*
X-38736619Y5460238D01*
X-38927095Y5460238D01*
X-39003285Y5535476D01*
X-39041380Y5610714D01*
X-38203285Y5535476D02*
X-38203285Y5460238D01*
X-38241380Y5309761D01*
X-38279476Y5234523D01*
X-37936619Y7040238D02*
X-37403285Y7040238D01*
X-37746142Y5460238D01*
X-40222333Y3005476D02*
X-40108047Y2930238D01*
X-39917571Y2930238D01*
X-39841380Y3005476D01*
X-39803285Y3080714D01*
X-39765190Y3231190D01*
X-39765190Y3381666D01*
X-39803285Y3532142D01*
X-39841380Y3607380D01*
X-39917571Y3682619D01*
X-40069952Y3757857D01*
X-40146142Y3833095D01*
X-40184238Y3908333D01*
X-40222333Y4058809D01*
X-40222333Y4209285D01*
X-40184238Y4359761D01*
X-40146142Y4435000D01*
X-40069952Y4510238D01*
X-39879476Y4510238D01*
X-39765190Y4435000D01*
X-39422333Y3757857D02*
X-39155666Y3757857D01*
X-39041380Y2930238D02*
X-39422333Y2930238D01*
X-39422333Y4510238D01*
X-39041380Y4510238D01*
X-38698523Y2930238D02*
X-38698523Y4510238D01*
X-38241380Y2930238D01*
X-38241380Y4510238D01*
X-37441380Y2930238D02*
X-37898523Y2930238D01*
X-37669952Y2930238D02*
X-37669952Y4510238D01*
X-37746142Y4284523D01*
X-37822333Y4134047D01*
X-37898523Y4058809D01*
X-40222333Y475476D02*
X-40108047Y400238D01*
X-39917571Y400238D01*
X-39841380Y475476D01*
X-39803285Y550714D01*
X-39765190Y701190D01*
X-39765190Y851666D01*
X-39803285Y1002142D01*
X-39841380Y1077380D01*
X-39917571Y1152619D01*
X-40069952Y1227857D01*
X-40146142Y1303095D01*
X-40184238Y1378333D01*
X-40222333Y1528809D01*
X-40222333Y1679285D01*
X-40184238Y1829761D01*
X-40146142Y1905000D01*
X-40069952Y1980238D01*
X-39879476Y1980238D01*
X-39765190Y1905000D01*
X-39422333Y1227857D02*
X-39155666Y1227857D01*
X-39041380Y400238D02*
X-39422333Y400238D01*
X-39422333Y1980238D01*
X-39041380Y1980238D01*
X-38698523Y400238D02*
X-38698523Y1980238D01*
X-38241380Y400238D01*
X-38241380Y1980238D01*
X-37898523Y1829761D02*
X-37860428Y1905000D01*
X-37784238Y1980238D01*
X-37593761Y1980238D01*
X-37517571Y1905000D01*
X-37479476Y1829761D01*
X-37441380Y1679285D01*
X-37441380Y1528809D01*
X-37479476Y1303095D01*
X-37936619Y400238D01*
X-37441380Y400238D01*
X-38889000Y-1979285D02*
X-38927095Y-2054523D01*
X-39041380Y-2129761D01*
X-39117571Y-2129761D01*
X-39231857Y-2054523D01*
X-39308047Y-1904047D01*
X-39346142Y-1753571D01*
X-39384238Y-1452619D01*
X-39384238Y-1226904D01*
X-39346142Y-925952D01*
X-39308047Y-775476D01*
X-39231857Y-625000D01*
X-39117571Y-549761D01*
X-39041380Y-549761D01*
X-38927095Y-625000D01*
X-38889000Y-700238D01*
X-38165190Y-2129761D02*
X-38546142Y-2129761D01*
X-38546142Y-549761D01*
X-37898523Y-2129761D02*
X-37898523Y-549761D01*
X-37441380Y-2129761D02*
X-37784238Y-1226904D01*
X-37441380Y-549761D02*
X-37898523Y-1452619D01*
X-39193761Y-4659761D02*
X-39193761Y-3079761D01*
X-39003285Y-3079761D01*
X-38889000Y-3155000D01*
X-38812809Y-3305476D01*
X-38774714Y-3455952D01*
X-38736619Y-3756904D01*
X-38736619Y-3982619D01*
X-38774714Y-4283571D01*
X-38812809Y-4434047D01*
X-38889000Y-4584523D01*
X-39003285Y-4659761D01*
X-39193761Y-4659761D01*
X-38431857Y-4208333D02*
X-38050904Y-4208333D01*
X-38508047Y-4659761D02*
X-38241380Y-3079761D01*
X-37974714Y-4659761D01*
X-37822333Y-3079761D02*
X-37365190Y-3079761D01*
X-37593761Y-4659761D02*
X-37593761Y-3079761D01*
X-39384238Y-5609761D02*
X-38889000Y-5609761D01*
X-39155666Y-6211666D01*
X-39041380Y-6211666D01*
X-38965190Y-6286904D01*
X-38927095Y-6362142D01*
X-38889000Y-6512619D01*
X-38889000Y-6888809D01*
X-38927095Y-7039285D01*
X-38965190Y-7114523D01*
X-39041380Y-7189761D01*
X-39269952Y-7189761D01*
X-39346142Y-7114523D01*
X-39384238Y-7039285D01*
X-38660428Y-5609761D02*
X-38393761Y-7189761D01*
X-38127095Y-5609761D01*
X-37936619Y-5609761D02*
X-37441380Y-5609761D01*
X-37708047Y-6211666D01*
X-37593761Y-6211666D01*
X-37517571Y-6286904D01*
X-37479476Y-6362142D01*
X-37441380Y-6512619D01*
X-37441380Y-6888809D01*
X-37479476Y-7039285D01*
X-37517571Y-7114523D01*
X-37593761Y-7189761D01*
X-37822333Y-7189761D01*
X-37898523Y-7114523D01*
X-37936619Y-7039285D01*
X-39917571Y-8215000D02*
X-39993761Y-8139761D01*
X-40108047Y-8139761D01*
X-40222333Y-8215000D01*
X-40298523Y-8365476D01*
X-40336619Y-8515952D01*
X-40374714Y-8816904D01*
X-40374714Y-9042619D01*
X-40336619Y-9343571D01*
X-40298523Y-9494047D01*
X-40222333Y-9644523D01*
X-40108047Y-9719761D01*
X-40031857Y-9719761D01*
X-39917571Y-9644523D01*
X-39879476Y-9569285D01*
X-39879476Y-9042619D01*
X-40031857Y-9042619D01*
X-39536619Y-9719761D02*
X-39536619Y-8139761D01*
X-39079476Y-9719761D01*
X-39079476Y-8139761D01*
X-38698523Y-9719761D02*
X-38698523Y-8139761D01*
X-38508047Y-8139761D01*
X-38393761Y-8215000D01*
X-38317571Y-8365476D01*
X-38279476Y-8515952D01*
X-38241380Y-8816904D01*
X-38241380Y-9042619D01*
X-38279476Y-9343571D01*
X-38317571Y-9494047D01*
X-38393761Y-9644523D01*
X-38508047Y-9719761D01*
X-38698523Y-9719761D01*
X-37898523Y-9719761D02*
X-37898523Y-8139761D01*
X-37708047Y-8139761D01*
X-37593761Y-8215000D01*
X-37517571Y-8365476D01*
X-37479476Y-8515952D01*
X-37441380Y-8816904D01*
X-37441380Y-9042619D01*
X-37479476Y-9343571D01*
X-37517571Y-9494047D01*
X-37593761Y-9644523D01*
X-37708047Y-9719761D01*
X-37898523Y-9719761D01*
X-40679476Y-12249761D02*
X-40679476Y-10669761D01*
X-40679476Y-11422142D02*
X-40222333Y-11422142D01*
X-40222333Y-12249761D02*
X-40222333Y-10669761D01*
X-39879476Y-11798333D02*
X-39498523Y-11798333D01*
X-39955666Y-12249761D02*
X-39689000Y-10669761D01*
X-39422333Y-12249761D01*
X-38774714Y-12249761D02*
X-39155666Y-12249761D01*
X-39155666Y-10669761D01*
X-38127095Y-12249761D02*
X-38508047Y-12249761D01*
X-38508047Y-10669761D01*
X-37441380Y-12249761D02*
X-37898523Y-12249761D01*
X-37669952Y-12249761D02*
X-37669952Y-10669761D01*
X-37746142Y-10895476D01*
X-37822333Y-11045952D01*
X-37898523Y-11121190D01*
X-40679476Y-14779761D02*
X-40679476Y-13199761D01*
X-40679476Y-13952142D02*
X-40222333Y-13952142D01*
X-40222333Y-14779761D02*
X-40222333Y-13199761D01*
X-39879476Y-14328333D02*
X-39498523Y-14328333D01*
X-39955666Y-14779761D02*
X-39689000Y-13199761D01*
X-39422333Y-14779761D01*
X-38774714Y-14779761D02*
X-39155666Y-14779761D01*
X-39155666Y-13199761D01*
X-38127095Y-14779761D02*
X-38508047Y-14779761D01*
X-38508047Y-13199761D01*
X-37898523Y-13350238D02*
X-37860428Y-13275000D01*
X-37784238Y-13199761D01*
X-37593761Y-13199761D01*
X-37517571Y-13275000D01*
X-37479476Y-13350238D01*
X-37441380Y-13500714D01*
X-37441380Y-13651190D01*
X-37479476Y-13876904D01*
X-37936619Y-14779761D01*
X-37441380Y-14779761D01*
X-40679476Y-17309761D02*
X-40679476Y-15729761D01*
X-40679476Y-16482142D02*
X-40222333Y-16482142D01*
X-40222333Y-17309761D02*
X-40222333Y-15729761D01*
X-39879476Y-16858333D02*
X-39498523Y-16858333D01*
X-39955666Y-17309761D02*
X-39689000Y-15729761D01*
X-39422333Y-17309761D01*
X-38774714Y-17309761D02*
X-39155666Y-17309761D01*
X-39155666Y-15729761D01*
X-38127095Y-17309761D02*
X-38508047Y-17309761D01*
X-38508047Y-15729761D01*
X-37936619Y-15729761D02*
X-37441380Y-15729761D01*
X-37708047Y-16331666D01*
X-37593761Y-16331666D01*
X-37517571Y-16406904D01*
X-37479476Y-16482142D01*
X-37441380Y-16632619D01*
X-37441380Y-17008809D01*
X-37479476Y-17159285D01*
X-37517571Y-17234523D01*
X-37593761Y-17309761D01*
X-37822333Y-17309761D01*
X-37898523Y-17234523D01*
X-37936619Y-17159285D01*
X-40679476Y-19839761D02*
X-40679476Y-18259761D01*
X-40679476Y-19012142D02*
X-40222333Y-19012142D01*
X-40222333Y-19839761D02*
X-40222333Y-18259761D01*
X-39879476Y-19388333D02*
X-39498523Y-19388333D01*
X-39955666Y-19839761D02*
X-39689000Y-18259761D01*
X-39422333Y-19839761D01*
X-38774714Y-19839761D02*
X-39155666Y-19839761D01*
X-39155666Y-18259761D01*
X-38127095Y-19839761D02*
X-38508047Y-19839761D01*
X-38508047Y-18259761D01*
X-37517571Y-18786428D02*
X-37517571Y-19839761D01*
X-37708047Y-18184523D02*
X-37898523Y-19313095D01*
X-37403285Y-19313095D01*
D10*
X-20799285Y-35383333D02*
X-20846904Y-35335714D01*
X-20942142Y-35192857D01*
X-20989761Y-35097619D01*
X-21037380Y-34954761D01*
X-21085000Y-34716666D01*
X-21085000Y-34526190D01*
X-21037380Y-34288095D01*
X-20989761Y-34145238D01*
X-20942142Y-34050000D01*
X-20846904Y-33907142D01*
X-20799285Y-33859523D01*
X-20418333Y-35002380D02*
X-20418333Y-34002380D01*
X-20085000Y-34716666D01*
X-19751666Y-34002380D01*
X-19751666Y-35002380D01*
X-19370714Y-35383333D02*
X-19323095Y-35335714D01*
X-19227857Y-35192857D01*
X-19180238Y-35097619D01*
X-19132619Y-34954761D01*
X-19085000Y-34716666D01*
X-19085000Y-34526190D01*
X-19132619Y-34288095D01*
X-19180238Y-34145238D01*
X-19227857Y-34050000D01*
X-19323095Y-33907142D01*
X-19370714Y-33859523D01*
X-28690476Y-41707142D02*
X-28738095Y-41754761D01*
X-28880952Y-41802380D01*
X-28976190Y-41802380D01*
X-29119047Y-41754761D01*
X-29214285Y-41659523D01*
X-29261904Y-41564285D01*
X-29309523Y-41373809D01*
X-29309523Y-41230952D01*
X-29261904Y-41040476D01*
X-29214285Y-40945238D01*
X-29119047Y-40850000D01*
X-28976190Y-40802380D01*
X-28880952Y-40802380D01*
X-28738095Y-40850000D01*
X-28690476Y-40897619D01*
X-28071428Y-40802380D02*
X-27880952Y-40802380D01*
X-27785714Y-40850000D01*
X-27690476Y-40945238D01*
X-27642857Y-41135714D01*
X-27642857Y-41469047D01*
X-27690476Y-41659523D01*
X-27785714Y-41754761D01*
X-27880952Y-41802380D01*
X-28071428Y-41802380D01*
X-28166666Y-41754761D01*
X-28261904Y-41659523D01*
X-28309523Y-41469047D01*
X-28309523Y-41135714D01*
X-28261904Y-40945238D01*
X-28166666Y-40850000D01*
X-28071428Y-40802380D01*
X-26642857Y-41802380D02*
X-26976190Y-41326190D01*
X-27214285Y-41802380D02*
X-27214285Y-40802380D01*
X-26833333Y-40802380D01*
X-26738095Y-40850000D01*
X-26690476Y-40897619D01*
X-26642857Y-40992857D01*
X-26642857Y-41135714D01*
X-26690476Y-41230952D01*
X-26738095Y-41278571D01*
X-26833333Y-41326190D01*
X-27214285Y-41326190D01*
X-26214285Y-41278571D02*
X-25880952Y-41278571D01*
X-25738095Y-41802380D02*
X-26214285Y-41802380D01*
X-26214285Y-40802380D01*
X-25738095Y-40802380D01*
X-24214285Y-41278571D02*
X-24071428Y-41326190D01*
X-24023809Y-41373809D01*
X-23976190Y-41469047D01*
X-23976190Y-41611904D01*
X-24023809Y-41707142D01*
X-24071428Y-41754761D01*
X-24166666Y-41802380D01*
X-24547619Y-41802380D01*
X-24547619Y-40802380D01*
X-24214285Y-40802380D01*
X-24119047Y-40850000D01*
X-24071428Y-40897619D01*
X-24023809Y-40992857D01*
X-24023809Y-41088095D01*
X-24071428Y-41183333D01*
X-24119047Y-41230952D01*
X-24214285Y-41278571D01*
X-24547619Y-41278571D01*
X-23357142Y-40802380D02*
X-23166666Y-40802380D01*
X-23071428Y-40850000D01*
X-22976190Y-40945238D01*
X-22928571Y-41135714D01*
X-22928571Y-41469047D01*
X-22976190Y-41659523D01*
X-23071428Y-41754761D01*
X-23166666Y-41802380D01*
X-23357142Y-41802380D01*
X-23452380Y-41754761D01*
X-23547619Y-41659523D01*
X-23595238Y-41469047D01*
X-23595238Y-41135714D01*
X-23547619Y-40945238D01*
X-23452380Y-40850000D01*
X-23357142Y-40802380D01*
X-22547619Y-41516666D02*
X-22071428Y-41516666D01*
X-22642857Y-41802380D02*
X-22309523Y-40802380D01*
X-21976190Y-41802380D01*
X-21071428Y-41802380D02*
X-21404761Y-41326190D01*
X-21642857Y-41802380D02*
X-21642857Y-40802380D01*
X-21261904Y-40802380D01*
X-21166666Y-40850000D01*
X-21119047Y-40897619D01*
X-21071428Y-40992857D01*
X-21071428Y-41135714D01*
X-21119047Y-41230952D01*
X-21166666Y-41278571D01*
X-21261904Y-41326190D01*
X-21642857Y-41326190D01*
X-20642857Y-41802380D02*
X-20642857Y-40802380D01*
X-20404761Y-40802380D01*
X-20261904Y-40850000D01*
X-20166666Y-40945238D01*
X-20119047Y-41040476D01*
X-20071428Y-41230952D01*
X-20071428Y-41373809D01*
X-20119047Y-41564285D01*
X-20166666Y-41659523D01*
X-20261904Y-41754761D01*
X-20404761Y-41802380D01*
X-20642857Y-41802380D01*
X-17500000Y-40802380D02*
X-17166666Y-41802380D01*
X-16833333Y-40802380D01*
X-16309523Y-40802380D02*
X-16214285Y-40802380D01*
X-16119047Y-40850000D01*
X-16071428Y-40897619D01*
X-16023809Y-40992857D01*
X-15976190Y-41183333D01*
X-15976190Y-41421428D01*
X-16023809Y-41611904D01*
X-16071428Y-41707142D01*
X-16119047Y-41754761D01*
X-16214285Y-41802380D01*
X-16309523Y-41802380D01*
X-16404761Y-41754761D01*
X-16452380Y-41707142D01*
X-16499999Y-41611904D01*
X-16547619Y-41421428D01*
X-16547619Y-41183333D01*
X-16499999Y-40992857D01*
X-16452380Y-40897619D01*
X-16404761Y-40850000D01*
X-16309523Y-40802380D01*
X-15547619Y-41707142D02*
X-15500000Y-41754761D01*
X-15547619Y-41802380D01*
X-15595238Y-41754761D01*
X-15547619Y-41707142D01*
X-15547619Y-41802380D01*
X-15166666Y-40802380D02*
X-14547619Y-40802380D01*
X-14880952Y-41183333D01*
X-14738095Y-41183333D01*
X-14642857Y-41230952D01*
X-14595238Y-41278571D01*
X-14547619Y-41373809D01*
X-14547619Y-41611904D01*
X-14595238Y-41707142D01*
X-14642857Y-41754761D01*
X-14738095Y-41802380D01*
X-15023809Y-41802380D01*
X-15119047Y-41754761D01*
X-15166666Y-41707142D01*
X-11880952Y-40897619D02*
X-11833333Y-40850000D01*
X-11738095Y-40802380D01*
X-11500000Y-40802380D01*
X-11404761Y-40850000D01*
X-11357142Y-40897619D01*
X-11309523Y-40992857D01*
X-11309523Y-41088095D01*
X-11357142Y-41230952D01*
X-11928571Y-41802380D01*
X-11309523Y-41802380D01*
X-10690476Y-40802380D02*
X-10595238Y-40802380D01*
X-10500000Y-40850000D01*
X-10452380Y-40897619D01*
X-10404761Y-40992857D01*
X-10357142Y-41183333D01*
X-10357142Y-41421428D01*
X-10404761Y-41611904D01*
X-10452380Y-41707142D01*
X-10500000Y-41754761D01*
X-10595238Y-41802380D01*
X-10690476Y-41802380D01*
X-10785714Y-41754761D01*
X-10833333Y-41707142D01*
X-10880952Y-41611904D01*
X-10928571Y-41421428D01*
X-10928571Y-41183333D01*
X-10880952Y-40992857D01*
X-10833333Y-40897619D01*
X-10785714Y-40850000D01*
X-10690476Y-40802380D01*
X-9976190Y-40897619D02*
X-9928571Y-40850000D01*
X-9833333Y-40802380D01*
X-9595238Y-40802380D01*
X-9500000Y-40850000D01*
X-9452380Y-40897619D01*
X-9404761Y-40992857D01*
X-9404761Y-41088095D01*
X-9452380Y-41230952D01*
X-10023809Y-41802380D01*
X-9404761Y-41802380D01*
X-8785714Y-40802380D02*
X-8690476Y-40802380D01*
X-8595238Y-40850000D01*
X-8547619Y-40897619D01*
X-8500000Y-40992857D01*
X-8452380Y-41183333D01*
X-8452380Y-41421428D01*
X-8500000Y-41611904D01*
X-8547619Y-41707142D01*
X-8595238Y-41754761D01*
X-8690476Y-41802380D01*
X-8785714Y-41802380D01*
X-8880952Y-41754761D01*
X-8928571Y-41707142D01*
X-8976190Y-41611904D01*
X-9023809Y-41421428D01*
X-9023809Y-41183333D01*
X-8976190Y-40992857D01*
X-8928571Y-40897619D01*
X-8880952Y-40850000D01*
X-8785714Y-40802380D01*
X-8023809Y-41421428D02*
X-7261904Y-41421428D01*
X-6595238Y-40802380D02*
X-6500000Y-40802380D01*
X-6404761Y-40850000D01*
X-6357142Y-40897619D01*
X-6309523Y-40992857D01*
X-6261904Y-41183333D01*
X-6261904Y-41421428D01*
X-6309523Y-41611904D01*
X-6357142Y-41707142D01*
X-6404761Y-41754761D01*
X-6500000Y-41802380D01*
X-6595238Y-41802380D01*
X-6690476Y-41754761D01*
X-6738095Y-41707142D01*
X-6785714Y-41611904D01*
X-6833333Y-41421428D01*
X-6833333Y-41183333D01*
X-6785714Y-40992857D01*
X-6738095Y-40897619D01*
X-6690476Y-40850000D01*
X-6595238Y-40802380D01*
X-5404761Y-41135714D02*
X-5404761Y-41802380D01*
X-5642857Y-40754761D02*
X-5880952Y-41469047D01*
X-5261904Y-41469047D01*
X-4880952Y-41421428D02*
X-4119047Y-41421428D01*
X-3119047Y-41802380D02*
X-3690476Y-41802380D01*
X-3404761Y-41802380D02*
X-3404761Y-40802380D01*
X-3500000Y-40945238D01*
X-3595238Y-41040476D01*
X-3690476Y-41088095D01*
X-2785714Y-40802380D02*
X-2119047Y-40802380D01*
X-2547619Y-41802380D01*
X499999Y-41516666D02*
X976190Y-41516666D01*
X404761Y-41802380D02*
X738095Y-40802380D01*
X1071428Y-41802380D01*
X1404761Y-41707142D02*
X1452380Y-41754761D01*
X1404761Y-41802380D01*
X1357142Y-41754761D01*
X1404761Y-41707142D01*
X1404761Y-41802380D01*
X3166666Y-40850000D02*
X3071428Y-40802380D01*
X2928571Y-40802380D01*
X2785714Y-40850000D01*
X2690476Y-40945238D01*
X2642857Y-41040476D01*
X2595238Y-41230952D01*
X2595238Y-41373809D01*
X2642857Y-41564285D01*
X2690476Y-41659523D01*
X2785714Y-41754761D01*
X2928571Y-41802380D01*
X3023809Y-41802380D01*
X3166666Y-41754761D01*
X3214285Y-41707142D01*
X3214285Y-41373809D01*
X3023809Y-41373809D01*
X3642857Y-41278571D02*
X3976190Y-41278571D01*
X4119047Y-41802380D02*
X3642857Y-41802380D01*
X3642857Y-40802380D01*
X4119047Y-40802380D01*
X4547619Y-41802380D02*
X4547619Y-40802380D01*
X4928571Y-40802380D01*
X5023809Y-40850000D01*
X5071428Y-40897619D01*
X5119047Y-40992857D01*
X5119047Y-41135714D01*
X5071428Y-41230952D01*
X5023809Y-41278571D01*
X4928571Y-41326190D01*
X4547619Y-41326190D01*
X5547619Y-41802380D02*
X5547619Y-40802380D01*
X5928571Y-40802380D01*
X6023809Y-40850000D01*
X6071428Y-40897619D01*
X6119047Y-40992857D01*
X6119047Y-41135714D01*
X6071428Y-41230952D01*
X6023809Y-41278571D01*
X5928571Y-41326190D01*
X5547619Y-41326190D01*
X6547619Y-41278571D02*
X6880952Y-41278571D01*
X7023809Y-41802380D02*
X6547619Y-41802380D01*
X6547619Y-40802380D01*
X7023809Y-40802380D01*
X8023809Y-41802380D02*
X7690476Y-41326190D01*
X7452380Y-41802380D02*
X7452380Y-40802380D01*
X7833333Y-40802380D01*
X7928571Y-40850000D01*
X7976190Y-40897619D01*
X8023809Y-40992857D01*
X8023809Y-41135714D01*
X7976190Y-41230952D01*
X7928571Y-41278571D01*
X7833333Y-41326190D01*
X7452380Y-41326190D01*
X8309523Y-40802380D02*
X8880952Y-40802380D01*
X8595238Y-41802380D02*
X8595238Y-40802380D01*
X11404761Y-40802380D02*
X11642857Y-41802380D01*
X11833333Y-41088095D01*
X12023809Y-41802380D01*
X12261904Y-40802380D01*
X12547619Y-40802380D02*
X12785714Y-41802380D01*
X12976190Y-41088095D01*
X13166666Y-41802380D01*
X13404761Y-40802380D01*
X13690476Y-40802380D02*
X13928571Y-41802380D01*
X14119047Y-41088095D01*
X14309523Y-41802380D01*
X14547619Y-40802380D01*
X14928571Y-41707142D02*
X14976190Y-41754761D01*
X14928571Y-41802380D01*
X14880952Y-41754761D01*
X14928571Y-41707142D01*
X14928571Y-41802380D01*
X15404761Y-41802380D02*
X15404761Y-40802380D01*
X15738095Y-41516666D01*
X16071428Y-40802380D01*
X16071428Y-41802380D01*
X16499999Y-41516666D02*
X16976190Y-41516666D01*
X16404761Y-41802380D02*
X16738095Y-40802380D01*
X17071428Y-41802380D01*
X17976190Y-41707142D02*
X17928571Y-41754761D01*
X17785714Y-41802380D01*
X17690476Y-41802380D01*
X17547619Y-41754761D01*
X17452380Y-41659523D01*
X17404761Y-41564285D01*
X17357142Y-41373809D01*
X17357142Y-41230952D01*
X17404761Y-41040476D01*
X17452380Y-40945238D01*
X17547619Y-40850000D01*
X17690476Y-40802380D01*
X17785714Y-40802380D01*
X17928571Y-40850000D01*
X17976190Y-40897619D01*
X18404761Y-41802380D02*
X18404761Y-40802380D01*
X18404761Y-41278571D02*
X18976190Y-41278571D01*
X18976190Y-41802380D02*
X18976190Y-40802380D01*
X19452380Y-41802380D02*
X19452380Y-40802380D01*
X19928571Y-41802380D02*
X19928571Y-40802380D01*
X20499999Y-41802380D01*
X20499999Y-40802380D01*
X20976190Y-41278571D02*
X21309523Y-41278571D01*
X21452380Y-41802380D02*
X20976190Y-41802380D01*
X20976190Y-40802380D01*
X21452380Y-40802380D01*
X21880952Y-41802380D02*
X21880952Y-40802380D01*
X22357142Y-41802380D02*
X22357142Y-40802380D01*
X22595238Y-40802380D01*
X22738095Y-40850000D01*
X22833333Y-40945238D01*
X22880952Y-41040476D01*
X22928571Y-41230952D01*
X22928571Y-41373809D01*
X22880952Y-41564285D01*
X22833333Y-41659523D01*
X22738095Y-41754761D01*
X22595238Y-41802380D01*
X22357142Y-41802380D01*
X23357142Y-41278571D02*
X23690476Y-41278571D01*
X23833333Y-41802380D02*
X23357142Y-41802380D01*
X23357142Y-40802380D01*
X23833333Y-40802380D01*
X24214285Y-41516666D02*
X24690476Y-41516666D01*
X24119047Y-41802380D02*
X24452380Y-40802380D01*
X24785714Y-41802380D01*
X25071428Y-41754761D02*
X25214285Y-41802380D01*
X25452380Y-41802380D01*
X25547619Y-41754761D01*
X25595238Y-41707142D01*
X25642857Y-41611904D01*
X25642857Y-41516666D01*
X25595238Y-41421428D01*
X25547619Y-41373809D01*
X25452380Y-41326190D01*
X25261904Y-41278571D01*
X25166666Y-41230952D01*
X25119047Y-41183333D01*
X25071428Y-41088095D01*
X25071428Y-40992857D01*
X25119047Y-40897619D01*
X25166666Y-40850000D01*
X25261904Y-40802380D01*
X25499999Y-40802380D01*
X25642857Y-40850000D01*
X26071428Y-41707142D02*
X26119047Y-41754761D01*
X26071428Y-41802380D01*
X26023809Y-41754761D01*
X26071428Y-41707142D01*
X26071428Y-41802380D01*
X27119047Y-41707142D02*
X27071428Y-41754761D01*
X26928571Y-41802380D01*
X26833333Y-41802380D01*
X26690476Y-41754761D01*
X26595238Y-41659523D01*
X26547619Y-41564285D01*
X26499999Y-41373809D01*
X26499999Y-41230952D01*
X26547619Y-41040476D01*
X26595238Y-40945238D01*
X26690476Y-40850000D01*
X26833333Y-40802380D01*
X26928571Y-40802380D01*
X27071428Y-40850000D01*
X27119047Y-40897619D01*
X27738095Y-40802380D02*
X27928571Y-40802380D01*
X28023809Y-40850000D01*
X28119047Y-40945238D01*
X28166666Y-41135714D01*
X28166666Y-41469047D01*
X28119047Y-41659523D01*
X28023809Y-41754761D01*
X27928571Y-41802380D01*
X27738095Y-41802380D01*
X27642857Y-41754761D01*
X27547619Y-41659523D01*
X27499999Y-41469047D01*
X27499999Y-41135714D01*
X27547619Y-40945238D01*
X27642857Y-40850000D01*
X27738095Y-40802380D01*
X28595238Y-41802380D02*
X28595238Y-40802380D01*
X28928571Y-41516666D01*
X29261904Y-40802380D01*
X29261904Y-41802380D01*
D12*
X-12499999Y36614285D02*
X-12738095Y36376190D01*
X-13452380Y36138095D01*
X-13928571Y36138095D01*
X-14642857Y36376190D01*
X-15119047Y36852380D01*
X-15357142Y37328571D01*
X-15595238Y38280952D01*
X-15595238Y38995238D01*
X-15357142Y39947619D01*
X-15119047Y40423809D01*
X-14642857Y40900000D01*
X-13928571Y41138095D01*
X-13452380Y41138095D01*
X-12738095Y40900000D01*
X-12499999Y40661904D01*
X-9404761Y41138095D02*
X-8452380Y41138095D01*
X-7976190Y40900000D01*
X-7499999Y40423809D01*
X-7261904Y39471428D01*
X-7261904Y37804761D01*
X-7499999Y36852380D01*
X-7976190Y36376190D01*
X-8452380Y36138095D01*
X-9404761Y36138095D01*
X-9880952Y36376190D01*
X-10357142Y36852380D01*
X-10595238Y37804761D01*
X-10595238Y39471428D01*
X-10357142Y40423809D01*
X-9880952Y40900000D01*
X-9404761Y41138095D01*
X-2261904Y36138095D02*
X-3928571Y38519047D01*
X-5119047Y36138095D02*
X-5119047Y41138095D01*
X-3214285Y41138095D01*
X-2738095Y40900000D01*
X-2499999Y40661904D01*
X-2261904Y40185714D01*
X-2261904Y39471428D01*
X-2499999Y38995238D01*
X-2738095Y38757142D01*
X-3214285Y38519047D01*
X-5119047Y38519047D01*
X-119047Y38757142D02*
X1547619Y38757142D01*
X2261904Y36138095D02*
X-119047Y36138095D01*
X-119047Y41138095D01*
X2261904Y41138095D01*
X10357142Y41138095D02*
X9404761Y41138095D01*
X8928571Y40900000D01*
X8690476Y40661904D01*
X8214285Y39947619D01*
X7976190Y38995238D01*
X7976190Y37090476D01*
X8214285Y36614285D01*
X8452380Y36376190D01*
X8928571Y36138095D01*
X9880952Y36138095D01*
X10357142Y36376190D01*
X10595238Y36614285D01*
X10833333Y37090476D01*
X10833333Y38280952D01*
X10595238Y38757142D01*
X10357142Y38995238D01*
X9880952Y39233333D01*
X8928571Y39233333D01*
X8452380Y38995238D01*
X8214285Y38757142D01*
X7976190Y38280952D01*
X15119047Y39471428D02*
X15119047Y36138095D01*
X13928571Y41376190D02*
X12738095Y37804761D01*
X15833333Y37804761D01*
D13*
X-28423809Y-39186309D02*
X-28423809Y-36011309D01*
X-26911904Y-37069642D02*
X-26911904Y-39186309D01*
X-26911904Y-37372023D02*
X-26760714Y-37220833D01*
X-26458333Y-37069642D01*
X-26004761Y-37069642D01*
X-25702380Y-37220833D01*
X-25551190Y-37523214D01*
X-25551190Y-39186309D01*
X-24492857Y-37069642D02*
X-23283333Y-37069642D01*
X-24039285Y-36011309D02*
X-24039285Y-38732738D01*
X-23888095Y-39035119D01*
X-23585714Y-39186309D01*
X-23283333Y-39186309D01*
X-21015476Y-39035119D02*
X-21317857Y-39186309D01*
X-21922619Y-39186309D01*
X-22225000Y-39035119D01*
X-22376190Y-38732738D01*
X-22376190Y-37523214D01*
X-22225000Y-37220833D01*
X-21922619Y-37069642D01*
X-21317857Y-37069642D01*
X-21015476Y-37220833D01*
X-20864285Y-37523214D01*
X-20864285Y-37825595D01*
X-22376190Y-38127976D01*
X-19503571Y-39186309D02*
X-19503571Y-37069642D01*
X-19503571Y-37674404D02*
X-19352380Y-37372023D01*
X-19201190Y-37220833D01*
X-18898809Y-37069642D01*
X-18596428Y-37069642D01*
X-16177380Y-39186309D02*
X-16177380Y-37523214D01*
X-16328571Y-37220833D01*
X-16630952Y-37069642D01*
X-17235714Y-37069642D01*
X-17538095Y-37220833D01*
X-16177380Y-39035119D02*
X-16479761Y-39186309D01*
X-17235714Y-39186309D01*
X-17538095Y-39035119D01*
X-17689285Y-38732738D01*
X-17689285Y-38430357D01*
X-17538095Y-38127976D01*
X-17235714Y-37976785D01*
X-16479761Y-37976785D01*
X-16177380Y-37825595D01*
X-13304761Y-39035119D02*
X-13607142Y-39186309D01*
X-14211904Y-39186309D01*
X-14514285Y-39035119D01*
X-14665476Y-38883928D01*
X-14816666Y-38581547D01*
X-14816666Y-37674404D01*
X-14665476Y-37372023D01*
X-14514285Y-37220833D01*
X-14211904Y-37069642D01*
X-13607142Y-37069642D01*
X-13304761Y-37220833D01*
X-12397619Y-37069642D02*
X-11188095Y-37069642D01*
X-11944047Y-36011309D02*
X-11944047Y-38732738D01*
X-11792857Y-39035119D01*
X-11490476Y-39186309D01*
X-11188095Y-39186309D01*
X-10129761Y-39186309D02*
X-10129761Y-37069642D01*
X-10129761Y-36011309D02*
X-10280952Y-36162500D01*
X-10129761Y-36313690D01*
X-9978571Y-36162500D01*
X-10129761Y-36011309D01*
X-10129761Y-36313690D01*
X-8920238Y-37069642D02*
X-8164285Y-39186309D01*
X-7408333Y-37069642D01*
X-4989285Y-39035119D02*
X-5291666Y-39186309D01*
X-5896428Y-39186309D01*
X-6198809Y-39035119D01*
X-6350000Y-38732738D01*
X-6350000Y-37523214D01*
X-6198809Y-37220833D01*
X-5896428Y-37069642D01*
X-5291666Y-37069642D01*
X-4989285Y-37220833D01*
X-4838095Y-37523214D01*
X-4838095Y-37825595D01*
X-6350000Y-38127976D01*
X755952Y-38883928D02*
X604761Y-39035119D01*
X151190Y-39186309D01*
X-151190Y-39186309D01*
X-604761Y-39035119D01*
X-907142Y-38732738D01*
X-1058333Y-38430357D01*
X-1209523Y-37825595D01*
X-1209523Y-37372023D01*
X-1058333Y-36767261D01*
X-907142Y-36464880D01*
X-604761Y-36162500D01*
X-151190Y-36011309D01*
X151190Y-36011309D01*
X604761Y-36162500D01*
X755952Y-36313690D01*
X2570238Y-39186309D02*
X2267857Y-39035119D01*
X2116666Y-38883928D01*
X1965476Y-38581547D01*
X1965476Y-37674404D01*
X2116666Y-37372023D01*
X2267857Y-37220833D01*
X2570238Y-37069642D01*
X3023809Y-37069642D01*
X3326190Y-37220833D01*
X3477380Y-37372023D01*
X3628571Y-37674404D01*
X3628571Y-38581547D01*
X3477380Y-38883928D01*
X3326190Y-39035119D01*
X3023809Y-39186309D01*
X2570238Y-39186309D01*
X4989285Y-39186309D02*
X4989285Y-37069642D01*
X4989285Y-37674404D02*
X5140476Y-37372023D01*
X5291666Y-37220833D01*
X5594047Y-37069642D01*
X5896428Y-37069642D01*
X8164285Y-39035119D02*
X7861904Y-39186309D01*
X7257142Y-39186309D01*
X6954761Y-39035119D01*
X6803571Y-38732738D01*
X6803571Y-37523214D01*
X6954761Y-37220833D01*
X7257142Y-37069642D01*
X7861904Y-37069642D01*
X8164285Y-37220833D01*
X8315476Y-37523214D01*
X8315476Y-37825595D01*
X6803571Y-38127976D01*
X12095238Y-39186309D02*
X12095238Y-36011309D01*
X13153571Y-38279166D01*
X14211904Y-36011309D01*
X14211904Y-39186309D01*
X16933333Y-39035119D02*
X16630952Y-39186309D01*
X16026190Y-39186309D01*
X15723809Y-39035119D01*
X15572619Y-38732738D01*
X15572619Y-37523214D01*
X15723809Y-37220833D01*
X16026190Y-37069642D01*
X16630952Y-37069642D01*
X16933333Y-37220833D01*
X17084523Y-37523214D01*
X17084523Y-37825595D01*
X15572619Y-38127976D01*
X18445238Y-39186309D02*
X18445238Y-37069642D01*
X18445238Y-37372023D02*
X18596428Y-37220833D01*
X18898809Y-37069642D01*
X19352380Y-37069642D01*
X19654761Y-37220833D01*
X19805952Y-37523214D01*
X19805952Y-39186309D01*
X19805952Y-37523214D02*
X19957142Y-37220833D01*
X20259523Y-37069642D01*
X20713095Y-37069642D01*
X21015476Y-37220833D01*
X21166666Y-37523214D01*
X21166666Y-39186309D01*
X23132142Y-39186309D02*
X22829761Y-39035119D01*
X22678571Y-38883928D01*
X22527380Y-38581547D01*
X22527380Y-37674404D01*
X22678571Y-37372023D01*
X22829761Y-37220833D01*
X23132142Y-37069642D01*
X23585714Y-37069642D01*
X23888095Y-37220833D01*
X24039285Y-37372023D01*
X24190476Y-37674404D01*
X24190476Y-38581547D01*
X24039285Y-38883928D01*
X23888095Y-39035119D01*
X23585714Y-39186309D01*
X23132142Y-39186309D01*
X25551190Y-39186309D02*
X25551190Y-37069642D01*
X25551190Y-37674404D02*
X25702380Y-37372023D01*
X25853571Y-37220833D01*
X26155952Y-37069642D01*
X26458333Y-37069642D01*
X27214285Y-37069642D02*
X27970238Y-39186309D01*
X28726190Y-37069642D02*
X27970238Y-39186309D01*
X27667857Y-39942261D01*
X27516666Y-40093452D01*
X27214285Y-40244642D01*
D10*
X27775000Y38530000D02*
G75*
G03X27775000Y38530000I-500000J0D01*
G01*
X30705000Y37580000D02*
X30706000Y38214000D01*
X35024000Y38214000D02*
X35024000Y37580000D01*
X30706000Y38214000D02*
X35024000Y38214000D01*
X26134000Y30467000D02*
X26134000Y37579000D01*
X39469000Y30467000D02*
X26134000Y30467000D01*
X39469000Y37579000D02*
X39469000Y30467000D01*
X26261000Y37579000D02*
X39469000Y37579000D01*
X21981666Y-29802380D02*
X21981666Y-30516666D01*
X21934047Y-30659523D01*
X21838809Y-30754761D01*
X21695952Y-30802380D01*
X21600714Y-30802380D01*
X22362619Y-29802380D02*
X22981666Y-29802380D01*
X22648333Y-30183333D01*
X22791190Y-30183333D01*
X22886428Y-30230952D01*
X22934047Y-30278571D01*
X22981666Y-30373809D01*
X22981666Y-30611904D01*
X22934047Y-30707142D01*
X22886428Y-30754761D01*
X22791190Y-30802380D01*
X22505476Y-30802380D01*
X22410238Y-30754761D01*
X22362619Y-30707142D01*
X40105476Y34697619D02*
X40772142Y33697619D01*
X40772142Y34697619D02*
X40105476Y33697619D01*
X41676904Y33697619D02*
X41105476Y33697619D01*
X41391190Y33697619D02*
X41391190Y34697619D01*
X41295952Y34554761D01*
X41200714Y34459523D01*
X41105476Y34411904D01*
X-30465952Y-21026190D02*
X-30465952Y-21502380D01*
X-30799285Y-20502380D02*
X-30465952Y-21026190D01*
X-30132619Y-20502380D01*
X-29323095Y-21502380D02*
X-29799285Y-21502380D01*
X-29799285Y-20502380D01*
X-29085000Y-20502380D02*
X-28418333Y-20502380D01*
X-28846904Y-21502380D01*
X-30465952Y-14626190D02*
X-30465952Y-15102380D01*
X-30799285Y-14102380D02*
X-30465952Y-14626190D01*
X-30132619Y-14102380D01*
X-29323095Y-15102380D02*
X-29799285Y-15102380D01*
X-29799285Y-14102380D01*
X-28561190Y-14102380D02*
X-28751666Y-14102380D01*
X-28846904Y-14150000D01*
X-28894523Y-14197619D01*
X-28989761Y-14340476D01*
X-29037380Y-14530952D01*
X-29037380Y-14911904D01*
X-28989761Y-15007142D01*
X-28942142Y-15054761D01*
X-28846904Y-15102380D01*
X-28656428Y-15102380D01*
X-28561190Y-15054761D01*
X-28513571Y-15007142D01*
X-28465952Y-14911904D01*
X-28465952Y-14673809D01*
X-28513571Y-14578571D01*
X-28561190Y-14530952D01*
X-28656428Y-14483333D01*
X-28846904Y-14483333D01*
X-28942142Y-14530952D01*
X-28989761Y-14578571D01*
X-29037380Y-14673809D01*
X-30515952Y24423809D02*
X-30515952Y23947619D01*
X-30849285Y24947619D02*
X-30515952Y24423809D01*
X-30182619Y24947619D01*
X-29373095Y23947619D02*
X-29849285Y23947619D01*
X-29849285Y24947619D01*
X-28849285Y24947619D02*
X-28754047Y24947619D01*
X-28658809Y24900000D01*
X-28611190Y24852380D01*
X-28563571Y24757142D01*
X-28515952Y24566666D01*
X-28515952Y24328571D01*
X-28563571Y24138095D01*
X-28611190Y24042857D01*
X-28658809Y23995238D01*
X-28754047Y23947619D01*
X-28849285Y23947619D01*
X-28944523Y23995238D01*
X-28992142Y24042857D01*
X-29039761Y24138095D01*
X-29087380Y24328571D01*
X-29087380Y24566666D01*
X-29039761Y24757142D01*
X-28992142Y24852380D01*
X-28944523Y24900000D01*
X-28849285Y24947619D01*
X-30465952Y-1626190D02*
X-30465952Y-2102380D01*
X-30799285Y-1102380D02*
X-30465952Y-1626190D01*
X-30132619Y-1102380D01*
X-29323095Y-2102380D02*
X-29799285Y-2102380D01*
X-29799285Y-1102380D01*
X-28561190Y-1435714D02*
X-28561190Y-2102380D01*
X-28799285Y-1054761D02*
X-29037380Y-1769047D01*
X-28418333Y-1769047D01*
X-30465952Y11373809D02*
X-30465952Y10897619D01*
X-30799285Y11897619D02*
X-30465952Y11373809D01*
X-30132619Y11897619D01*
X-29323095Y10897619D02*
X-29799285Y10897619D01*
X-29799285Y11897619D01*
X-29037380Y11802380D02*
X-28989761Y11850000D01*
X-28894523Y11897619D01*
X-28656428Y11897619D01*
X-28561190Y11850000D01*
X-28513571Y11802380D01*
X-28465952Y11707142D01*
X-28465952Y11611904D01*
X-28513571Y11469047D01*
X-29085000Y10897619D01*
X-28465952Y10897619D01*
X-30515952Y17923809D02*
X-30515952Y17447619D01*
X-30849285Y18447619D02*
X-30515952Y17923809D01*
X-30182619Y18447619D01*
X-29373095Y17447619D02*
X-29849285Y17447619D01*
X-29849285Y18447619D01*
X-28515952Y17447619D02*
X-29087380Y17447619D01*
X-28801666Y17447619D02*
X-28801666Y18447619D01*
X-28896904Y18304761D01*
X-28992142Y18209523D01*
X-29087380Y18161904D01*
X-30465952Y4973809D02*
X-30465952Y4497619D01*
X-30799285Y5497619D02*
X-30465952Y4973809D01*
X-30132619Y5497619D01*
X-29323095Y4497619D02*
X-29799285Y4497619D01*
X-29799285Y5497619D01*
X-29085000Y5497619D02*
X-28465952Y5497619D01*
X-28799285Y5116666D01*
X-28656428Y5116666D01*
X-28561190Y5069047D01*
X-28513571Y5021428D01*
X-28465952Y4926190D01*
X-28465952Y4688095D01*
X-28513571Y4592857D01*
X-28561190Y4545238D01*
X-28656428Y4497619D01*
X-28942142Y4497619D01*
X-29037380Y4545238D01*
X-29085000Y4592857D01*
X-30465952Y-8226190D02*
X-30465952Y-8702380D01*
X-30799285Y-7702380D02*
X-30465952Y-8226190D01*
X-30132619Y-7702380D01*
X-29323095Y-8702380D02*
X-29799285Y-8702380D01*
X-29799285Y-7702380D01*
X-28513571Y-7702380D02*
X-28989761Y-7702380D01*
X-29037380Y-8178571D01*
X-28989761Y-8130952D01*
X-28894523Y-8083333D01*
X-28656428Y-8083333D01*
X-28561190Y-8130952D01*
X-28513571Y-8178571D01*
X-28465952Y-8273809D01*
X-28465952Y-8511904D01*
X-28513571Y-8607142D01*
X-28561190Y-8654761D01*
X-28656428Y-8702380D01*
X-28894523Y-8702380D01*
X-28989761Y-8654761D01*
X-29037380Y-8607142D01*
X-27094523Y-28302380D02*
X-26427857Y-29302380D01*
X-26427857Y-28302380D02*
X-27094523Y-29302380D01*
X-25713571Y-28778571D02*
X-25570714Y-28826190D01*
X-25523095Y-28873809D01*
X-25475476Y-28969047D01*
X-25475476Y-29111904D01*
X-25523095Y-29207142D01*
X-25570714Y-29254761D01*
X-25665952Y-29302380D01*
X-26046904Y-29302380D01*
X-26046904Y-28302380D01*
X-25713571Y-28302380D01*
X-25618333Y-28350000D01*
X-25570714Y-28397619D01*
X-25523095Y-28492857D01*
X-25523095Y-28588095D01*
X-25570714Y-28683333D01*
X-25618333Y-28730952D01*
X-25713571Y-28778571D01*
X-26046904Y-28778571D01*
X-24856428Y-28302380D02*
X-24761190Y-28302380D01*
X-24665952Y-28350000D01*
X-24618333Y-28397619D01*
X-24570714Y-28492857D01*
X-24523095Y-28683333D01*
X-24523095Y-28921428D01*
X-24570714Y-29111904D01*
X-24618333Y-29207142D01*
X-24665952Y-29254761D01*
X-24761190Y-29302380D01*
X-24856428Y-29302380D01*
X-24951666Y-29254761D01*
X-24999285Y-29207142D01*
X-25046904Y-29111904D01*
X-25094523Y-28921428D01*
X-25094523Y-28683333D01*
X-25046904Y-28492857D01*
X-24999285Y-28397619D01*
X-24951666Y-28350000D01*
X-24856428Y-28302380D01*
X13105476Y-28302380D02*
X13772142Y-29302380D01*
X13772142Y-28302380D02*
X13105476Y-29302380D01*
X14486428Y-28778571D02*
X14629285Y-28826190D01*
X14676904Y-28873809D01*
X14724523Y-28969047D01*
X14724523Y-29111904D01*
X14676904Y-29207142D01*
X14629285Y-29254761D01*
X14534047Y-29302380D01*
X14153095Y-29302380D01*
X14153095Y-28302380D01*
X14486428Y-28302380D01*
X14581666Y-28350000D01*
X14629285Y-28397619D01*
X14676904Y-28492857D01*
X14676904Y-28588095D01*
X14629285Y-28683333D01*
X14581666Y-28730952D01*
X14486428Y-28778571D01*
X14153095Y-28778571D01*
X15581666Y-28302380D02*
X15391190Y-28302380D01*
X15295952Y-28350000D01*
X15248333Y-28397619D01*
X15153095Y-28540476D01*
X15105476Y-28730952D01*
X15105476Y-29111904D01*
X15153095Y-29207142D01*
X15200714Y-29254761D01*
X15295952Y-29302380D01*
X15486428Y-29302380D01*
X15581666Y-29254761D01*
X15629285Y-29207142D01*
X15676904Y-29111904D01*
X15676904Y-28873809D01*
X15629285Y-28778571D01*
X15581666Y-28730952D01*
X15486428Y-28683333D01*
X15295952Y-28683333D01*
X15200714Y-28730952D01*
X15153095Y-28778571D01*
X15105476Y-28873809D01*
X6305476Y-28302380D02*
X6972142Y-29302380D01*
X6972142Y-28302380D02*
X6305476Y-29302380D01*
X7686428Y-28778571D02*
X7829285Y-28826190D01*
X7876904Y-28873809D01*
X7924523Y-28969047D01*
X7924523Y-29111904D01*
X7876904Y-29207142D01*
X7829285Y-29254761D01*
X7734047Y-29302380D01*
X7353095Y-29302380D01*
X7353095Y-28302380D01*
X7686428Y-28302380D01*
X7781666Y-28350000D01*
X7829285Y-28397619D01*
X7876904Y-28492857D01*
X7876904Y-28588095D01*
X7829285Y-28683333D01*
X7781666Y-28730952D01*
X7686428Y-28778571D01*
X7353095Y-28778571D01*
X8829285Y-28302380D02*
X8353095Y-28302380D01*
X8305476Y-28778571D01*
X8353095Y-28730952D01*
X8448333Y-28683333D01*
X8686428Y-28683333D01*
X8781666Y-28730952D01*
X8829285Y-28778571D01*
X8876904Y-28873809D01*
X8876904Y-29111904D01*
X8829285Y-29207142D01*
X8781666Y-29254761D01*
X8686428Y-29302380D01*
X8448333Y-29302380D01*
X8353095Y-29254761D01*
X8305476Y-29207142D01*
X19705476Y-28302380D02*
X20372142Y-29302380D01*
X20372142Y-28302380D02*
X19705476Y-29302380D01*
X21086428Y-28778571D02*
X21229285Y-28826190D01*
X21276904Y-28873809D01*
X21324523Y-28969047D01*
X21324523Y-29111904D01*
X21276904Y-29207142D01*
X21229285Y-29254761D01*
X21134047Y-29302380D01*
X20753095Y-29302380D01*
X20753095Y-28302380D01*
X21086428Y-28302380D01*
X21181666Y-28350000D01*
X21229285Y-28397619D01*
X21276904Y-28492857D01*
X21276904Y-28588095D01*
X21229285Y-28683333D01*
X21181666Y-28730952D01*
X21086428Y-28778571D01*
X20753095Y-28778571D01*
X21657857Y-28302380D02*
X22324523Y-28302380D01*
X21895952Y-29302380D01*
X-7094523Y-28302380D02*
X-6427857Y-29302380D01*
X-6427857Y-28302380D02*
X-7094523Y-29302380D01*
X-5713571Y-28778571D02*
X-5570714Y-28826190D01*
X-5523095Y-28873809D01*
X-5475476Y-28969047D01*
X-5475476Y-29111904D01*
X-5523095Y-29207142D01*
X-5570714Y-29254761D01*
X-5665952Y-29302380D01*
X-6046904Y-29302380D01*
X-6046904Y-28302380D01*
X-5713571Y-28302380D01*
X-5618333Y-28350000D01*
X-5570714Y-28397619D01*
X-5523095Y-28492857D01*
X-5523095Y-28588095D01*
X-5570714Y-28683333D01*
X-5618333Y-28730952D01*
X-5713571Y-28778571D01*
X-6046904Y-28778571D01*
X-5142142Y-28302380D02*
X-4523095Y-28302380D01*
X-4856428Y-28683333D01*
X-4713571Y-28683333D01*
X-4618333Y-28730952D01*
X-4570714Y-28778571D01*
X-4523095Y-28873809D01*
X-4523095Y-29111904D01*
X-4570714Y-29207142D01*
X-4618333Y-29254761D01*
X-4713571Y-29302380D01*
X-4999285Y-29302380D01*
X-5094523Y-29254761D01*
X-5142142Y-29207142D01*
X-294523Y-28302380D02*
X372142Y-29302380D01*
X372142Y-28302380D02*
X-294523Y-29302380D01*
X1086428Y-28778571D02*
X1229285Y-28826190D01*
X1276904Y-28873809D01*
X1324523Y-28969047D01*
X1324523Y-29111904D01*
X1276904Y-29207142D01*
X1229285Y-29254761D01*
X1134047Y-29302380D01*
X753095Y-29302380D01*
X753095Y-28302380D01*
X1086428Y-28302380D01*
X1181666Y-28350000D01*
X1229285Y-28397619D01*
X1276904Y-28492857D01*
X1276904Y-28588095D01*
X1229285Y-28683333D01*
X1181666Y-28730952D01*
X1086428Y-28778571D01*
X753095Y-28778571D01*
X2181666Y-28635714D02*
X2181666Y-29302380D01*
X1943571Y-28254761D02*
X1705476Y-28969047D01*
X2324523Y-28969047D01*
X-20294523Y-28302380D02*
X-19627857Y-29302380D01*
X-19627857Y-28302380D02*
X-20294523Y-29302380D01*
X-18913571Y-28778571D02*
X-18770714Y-28826190D01*
X-18723095Y-28873809D01*
X-18675476Y-28969047D01*
X-18675476Y-29111904D01*
X-18723095Y-29207142D01*
X-18770714Y-29254761D01*
X-18865952Y-29302380D01*
X-19246904Y-29302380D01*
X-19246904Y-28302380D01*
X-18913571Y-28302380D01*
X-18818333Y-28350000D01*
X-18770714Y-28397619D01*
X-18723095Y-28492857D01*
X-18723095Y-28588095D01*
X-18770714Y-28683333D01*
X-18818333Y-28730952D01*
X-18913571Y-28778571D01*
X-19246904Y-28778571D01*
X-17723095Y-29302380D02*
X-18294523Y-29302380D01*
X-18008809Y-29302380D02*
X-18008809Y-28302380D01*
X-18104047Y-28445238D01*
X-18199285Y-28540476D01*
X-18294523Y-28588095D01*
X-13694523Y-28302380D02*
X-13027857Y-29302380D01*
X-13027857Y-28302380D02*
X-13694523Y-29302380D01*
X-12313571Y-28778571D02*
X-12170714Y-28826190D01*
X-12123095Y-28873809D01*
X-12075476Y-28969047D01*
X-12075476Y-29111904D01*
X-12123095Y-29207142D01*
X-12170714Y-29254761D01*
X-12265952Y-29302380D01*
X-12646904Y-29302380D01*
X-12646904Y-28302380D01*
X-12313571Y-28302380D01*
X-12218333Y-28350000D01*
X-12170714Y-28397619D01*
X-12123095Y-28492857D01*
X-12123095Y-28588095D01*
X-12170714Y-28683333D01*
X-12218333Y-28730952D01*
X-12313571Y-28778571D01*
X-12646904Y-28778571D01*
X-11694523Y-28397619D02*
X-11646904Y-28350000D01*
X-11551666Y-28302380D01*
X-11313571Y-28302380D01*
X-11218333Y-28350000D01*
X-11170714Y-28397619D01*
X-11123095Y-28492857D01*
X-11123095Y-28588095D01*
X-11170714Y-28730952D01*
X-11742142Y-29302380D01*
X-11123095Y-29302380D01*
X-26975476Y29297619D02*
X-26308809Y28297619D01*
X-26308809Y29297619D02*
X-26975476Y28297619D01*
X-26070714Y29297619D02*
X-25499285Y29297619D01*
X-25785000Y28297619D02*
X-25785000Y29297619D01*
X-24975476Y29297619D02*
X-24880238Y29297619D01*
X-24785000Y29250000D01*
X-24737380Y29202380D01*
X-24689761Y29107142D01*
X-24642142Y28916666D01*
X-24642142Y28678571D01*
X-24689761Y28488095D01*
X-24737380Y28392857D01*
X-24785000Y28345238D01*
X-24880238Y28297619D01*
X-24975476Y28297619D01*
X-25070714Y28345238D01*
X-25118333Y28392857D01*
X-25165952Y28488095D01*
X-25213571Y28678571D01*
X-25213571Y28916666D01*
X-25165952Y29107142D01*
X-25118333Y29202380D01*
X-25070714Y29250000D01*
X-24975476Y29297619D01*
X-20175476Y29297619D02*
X-19508809Y28297619D01*
X-19508809Y29297619D02*
X-20175476Y28297619D01*
X-19270714Y29297619D02*
X-18699285Y29297619D01*
X-18985000Y28297619D02*
X-18985000Y29297619D01*
X-17842142Y28297619D02*
X-18413571Y28297619D01*
X-18127857Y28297619D02*
X-18127857Y29297619D01*
X-18223095Y29154761D01*
X-18318333Y29059523D01*
X-18413571Y29011904D01*
X-13775476Y29297619D02*
X-13108809Y28297619D01*
X-13108809Y29297619D02*
X-13775476Y28297619D01*
X-12870714Y29297619D02*
X-12299285Y29297619D01*
X-12585000Y28297619D02*
X-12585000Y29297619D01*
X-12013571Y29202380D02*
X-11965952Y29250000D01*
X-11870714Y29297619D01*
X-11632619Y29297619D01*
X-11537380Y29250000D01*
X-11489761Y29202380D01*
X-11442142Y29107142D01*
X-11442142Y29011904D01*
X-11489761Y28869047D01*
X-12061190Y28297619D01*
X-11442142Y28297619D01*
X-6775476Y29297619D02*
X-6108809Y28297619D01*
X-6108809Y29297619D02*
X-6775476Y28297619D01*
X-5870714Y29297619D02*
X-5299285Y29297619D01*
X-5585000Y28297619D02*
X-5585000Y29297619D01*
X-5061190Y29297619D02*
X-4442142Y29297619D01*
X-4775476Y28916666D01*
X-4632619Y28916666D01*
X-4537380Y28869047D01*
X-4489761Y28821428D01*
X-4442142Y28726190D01*
X-4442142Y28488095D01*
X-4489761Y28392857D01*
X-4537380Y28345238D01*
X-4632619Y28297619D01*
X-4918333Y28297619D01*
X-5013571Y28345238D01*
X-5061190Y28392857D01*
X-175476Y29297619D02*
X491190Y28297619D01*
X491190Y29297619D02*
X-175476Y28297619D01*
X729285Y29297619D02*
X1300714Y29297619D01*
X1015000Y28297619D02*
X1015000Y29297619D01*
X2062619Y28964285D02*
X2062619Y28297619D01*
X1824523Y29345238D02*
X1586428Y28630952D01*
X2205476Y28630952D01*
X6424523Y29297619D02*
X7091190Y28297619D01*
X7091190Y29297619D02*
X6424523Y28297619D01*
X7329285Y29297619D02*
X7900714Y29297619D01*
X7615000Y28297619D02*
X7615000Y29297619D01*
X8710238Y29297619D02*
X8234047Y29297619D01*
X8186428Y28821428D01*
X8234047Y28869047D01*
X8329285Y28916666D01*
X8567380Y28916666D01*
X8662619Y28869047D01*
X8710238Y28821428D01*
X8757857Y28726190D01*
X8757857Y28488095D01*
X8710238Y28392857D01*
X8662619Y28345238D01*
X8567380Y28297619D01*
X8329285Y28297619D01*
X8234047Y28345238D01*
X8186428Y28392857D01*
X13224523Y29297619D02*
X13891190Y28297619D01*
X13891190Y29297619D02*
X13224523Y28297619D01*
X14129285Y29297619D02*
X14700714Y29297619D01*
X14415000Y28297619D02*
X14415000Y29297619D01*
X15462619Y29297619D02*
X15272142Y29297619D01*
X15176904Y29250000D01*
X15129285Y29202380D01*
X15034047Y29059523D01*
X14986428Y28869047D01*
X14986428Y28488095D01*
X15034047Y28392857D01*
X15081666Y28345238D01*
X15176904Y28297619D01*
X15367380Y28297619D01*
X15462619Y28345238D01*
X15510238Y28392857D01*
X15557857Y28488095D01*
X15557857Y28726190D01*
X15510238Y28821428D01*
X15462619Y28869047D01*
X15367380Y28916666D01*
X15176904Y28916666D01*
X15081666Y28869047D01*
X15034047Y28821428D01*
X14986428Y28726190D01*
X20024523Y29297619D02*
X20691190Y28297619D01*
X20691190Y29297619D02*
X20024523Y28297619D01*
X20929285Y29297619D02*
X21500714Y29297619D01*
X21215000Y28297619D02*
X21215000Y29297619D01*
X21738809Y29297619D02*
X22405476Y29297619D01*
X21976904Y28297619D01*
X28638809Y24373809D02*
X28638809Y23897619D01*
X28305476Y24897619D02*
X28638809Y24373809D01*
X28972142Y24897619D01*
X29876904Y23897619D02*
X29543571Y24373809D01*
X29305476Y23897619D02*
X29305476Y24897619D01*
X29686428Y24897619D01*
X29781666Y24850000D01*
X29829285Y24802380D01*
X29876904Y24707142D01*
X29876904Y24564285D01*
X29829285Y24469047D01*
X29781666Y24421428D01*
X29686428Y24373809D01*
X29305476Y24373809D01*
X30495952Y24897619D02*
X30591190Y24897619D01*
X30686428Y24850000D01*
X30734047Y24802380D01*
X30781666Y24707142D01*
X30829285Y24516666D01*
X30829285Y24278571D01*
X30781666Y24088095D01*
X30734047Y23992857D01*
X30686428Y23945238D01*
X30591190Y23897619D01*
X30495952Y23897619D01*
X30400714Y23945238D01*
X30353095Y23992857D01*
X30305476Y24088095D01*
X30257857Y24278571D01*
X30257857Y24516666D01*
X30305476Y24707142D01*
X30353095Y24802380D01*
X30400714Y24850000D01*
X30495952Y24897619D01*
X28638809Y17973809D02*
X28638809Y17497619D01*
X28305476Y18497619D02*
X28638809Y17973809D01*
X28972142Y18497619D01*
X29876904Y17497619D02*
X29543571Y17973809D01*
X29305476Y17497619D02*
X29305476Y18497619D01*
X29686428Y18497619D01*
X29781666Y18450000D01*
X29829285Y18402380D01*
X29876904Y18307142D01*
X29876904Y18164285D01*
X29829285Y18069047D01*
X29781666Y18021428D01*
X29686428Y17973809D01*
X29305476Y17973809D01*
X30829285Y17497619D02*
X30257857Y17497619D01*
X30543571Y17497619D02*
X30543571Y18497619D01*
X30448333Y18354761D01*
X30353095Y18259523D01*
X30257857Y18211904D01*
X28638809Y11373809D02*
X28638809Y10897619D01*
X28305476Y11897619D02*
X28638809Y11373809D01*
X28972142Y11897619D01*
X29876904Y10897619D02*
X29543571Y11373809D01*
X29305476Y10897619D02*
X29305476Y11897619D01*
X29686428Y11897619D01*
X29781666Y11850000D01*
X29829285Y11802380D01*
X29876904Y11707142D01*
X29876904Y11564285D01*
X29829285Y11469047D01*
X29781666Y11421428D01*
X29686428Y11373809D01*
X29305476Y11373809D01*
X30257857Y11802380D02*
X30305476Y11850000D01*
X30400714Y11897619D01*
X30638809Y11897619D01*
X30734047Y11850000D01*
X30781666Y11802380D01*
X30829285Y11707142D01*
X30829285Y11611904D01*
X30781666Y11469047D01*
X30210238Y10897619D01*
X30829285Y10897619D01*
X28638809Y4773809D02*
X28638809Y4297619D01*
X28305476Y5297619D02*
X28638809Y4773809D01*
X28972142Y5297619D01*
X29876904Y4297619D02*
X29543571Y4773809D01*
X29305476Y4297619D02*
X29305476Y5297619D01*
X29686428Y5297619D01*
X29781666Y5250000D01*
X29829285Y5202380D01*
X29876904Y5107142D01*
X29876904Y4964285D01*
X29829285Y4869047D01*
X29781666Y4821428D01*
X29686428Y4773809D01*
X29305476Y4773809D01*
X30210238Y5297619D02*
X30829285Y5297619D01*
X30495952Y4916666D01*
X30638809Y4916666D01*
X30734047Y4869047D01*
X30781666Y4821428D01*
X30829285Y4726190D01*
X30829285Y4488095D01*
X30781666Y4392857D01*
X30734047Y4345238D01*
X30638809Y4297619D01*
X30353095Y4297619D01*
X30257857Y4345238D01*
X30210238Y4392857D01*
X28638809Y-1626190D02*
X28638809Y-2102380D01*
X28305476Y-1102380D02*
X28638809Y-1626190D01*
X28972142Y-1102380D01*
X29876904Y-2102380D02*
X29543571Y-1626190D01*
X29305476Y-2102380D02*
X29305476Y-1102380D01*
X29686428Y-1102380D01*
X29781666Y-1150000D01*
X29829285Y-1197619D01*
X29876904Y-1292857D01*
X29876904Y-1435714D01*
X29829285Y-1530952D01*
X29781666Y-1578571D01*
X29686428Y-1626190D01*
X29305476Y-1626190D01*
X30734047Y-1435714D02*
X30734047Y-2102380D01*
X30495952Y-1054761D02*
X30257857Y-1769047D01*
X30876904Y-1769047D01*
X28638809Y-8226190D02*
X28638809Y-8702380D01*
X28305476Y-7702380D02*
X28638809Y-8226190D01*
X28972142Y-7702380D01*
X29876904Y-8702380D02*
X29543571Y-8226190D01*
X29305476Y-8702380D02*
X29305476Y-7702380D01*
X29686428Y-7702380D01*
X29781666Y-7750000D01*
X29829285Y-7797619D01*
X29876904Y-7892857D01*
X29876904Y-8035714D01*
X29829285Y-8130952D01*
X29781666Y-8178571D01*
X29686428Y-8226190D01*
X29305476Y-8226190D01*
X30781666Y-7702380D02*
X30305476Y-7702380D01*
X30257857Y-8178571D01*
X30305476Y-8130952D01*
X30400714Y-8083333D01*
X30638809Y-8083333D01*
X30734047Y-8130952D01*
X30781666Y-8178571D01*
X30829285Y-8273809D01*
X30829285Y-8511904D01*
X30781666Y-8607142D01*
X30734047Y-8654761D01*
X30638809Y-8702380D01*
X30400714Y-8702380D01*
X30305476Y-8654761D01*
X30257857Y-8607142D01*
X-28846904Y-27654761D02*
X-28704047Y-27702380D01*
X-28465952Y-27702380D01*
X-28370714Y-27654761D01*
X-28323095Y-27607142D01*
X-28275476Y-27511904D01*
X-28275476Y-27416666D01*
X-28323095Y-27321428D01*
X-28370714Y-27273809D01*
X-28465952Y-27226190D01*
X-28656428Y-27178571D01*
X-28751666Y-27130952D01*
X-28799285Y-27083333D01*
X-28846904Y-26988095D01*
X-28846904Y-26892857D01*
X-28799285Y-26797619D01*
X-28751666Y-26750000D01*
X-28656428Y-26702380D01*
X-28418333Y-26702380D01*
X-28275476Y-26750000D01*
X-27894523Y-26797619D02*
X-27846904Y-26750000D01*
X-27751666Y-26702380D01*
X-27513571Y-26702380D01*
X-27418333Y-26750000D01*
X-27370714Y-26797619D01*
X-27323095Y-26892857D01*
X-27323095Y-26988095D01*
X-27370714Y-27130952D01*
X-27942142Y-27702380D01*
X-27323095Y-27702380D01*
X-32046904Y-11854761D02*
X-31904047Y-11902380D01*
X-31665952Y-11902380D01*
X-31570714Y-11854761D01*
X-31523095Y-11807142D01*
X-31475476Y-11711904D01*
X-31475476Y-11616666D01*
X-31523095Y-11521428D01*
X-31570714Y-11473809D01*
X-31665952Y-11426190D01*
X-31856428Y-11378571D01*
X-31951666Y-11330952D01*
X-31999285Y-11283333D01*
X-32046904Y-11188095D01*
X-32046904Y-11092857D01*
X-31999285Y-10997619D01*
X-31951666Y-10950000D01*
X-31856428Y-10902380D01*
X-31618333Y-10902380D01*
X-31475476Y-10950000D01*
X-30523095Y-11902380D02*
X-31094523Y-11902380D01*
X-30808809Y-11902380D02*
X-30808809Y-10902380D01*
X-30904047Y-11045238D01*
X-30999285Y-11140476D01*
X-31094523Y-11188095D01*
X28638809Y-14426190D02*
X28638809Y-14902380D01*
X28305476Y-13902380D02*
X28638809Y-14426190D01*
X28972142Y-13902380D01*
X29876904Y-14902380D02*
X29543571Y-14426190D01*
X29305476Y-14902380D02*
X29305476Y-13902380D01*
X29686428Y-13902380D01*
X29781666Y-13950000D01*
X29829285Y-13997619D01*
X29876904Y-14092857D01*
X29876904Y-14235714D01*
X29829285Y-14330952D01*
X29781666Y-14378571D01*
X29686428Y-14426190D01*
X29305476Y-14426190D01*
X30734047Y-13902380D02*
X30543571Y-13902380D01*
X30448333Y-13950000D01*
X30400714Y-13997619D01*
X30305476Y-14140476D01*
X30257857Y-14330952D01*
X30257857Y-14711904D01*
X30305476Y-14807142D01*
X30353095Y-14854761D01*
X30448333Y-14902380D01*
X30638809Y-14902380D01*
X30734047Y-14854761D01*
X30781666Y-14807142D01*
X30829285Y-14711904D01*
X30829285Y-14473809D01*
X30781666Y-14378571D01*
X30734047Y-14330952D01*
X30638809Y-14283333D01*
X30448333Y-14283333D01*
X30353095Y-14330952D01*
X30305476Y-14378571D01*
X30257857Y-14473809D01*
X28638809Y-21026190D02*
X28638809Y-21502380D01*
X28305476Y-20502380D02*
X28638809Y-21026190D01*
X28972142Y-20502380D01*
X29876904Y-21502380D02*
X29543571Y-21026190D01*
X29305476Y-21502380D02*
X29305476Y-20502380D01*
X29686428Y-20502380D01*
X29781666Y-20550000D01*
X29829285Y-20597619D01*
X29876904Y-20692857D01*
X29876904Y-20835714D01*
X29829285Y-20930952D01*
X29781666Y-20978571D01*
X29686428Y-21026190D01*
X29305476Y-21026190D01*
X30210238Y-20502380D02*
X30876904Y-20502380D01*
X30448333Y-21502380D01*
M02*
