G04 #@! TF.GenerationSoftware,KiCad,Pcbnew,(5.1.2-1)-1*
G04 #@! TF.CreationDate,2020-04-17T06:43:39-05:00*
G04 #@! TF.ProjectId,Interactive Core Memory Badge (Cores) v0.3,496e7465-7261-4637-9469-766520436f72,0.3*
G04 #@! TF.SameCoordinates,Original*
G04 #@! TF.FileFunction,Soldermask,Bot*
G04 #@! TF.FilePolarity,Negative*
%FSLAX46Y46*%
G04 Gerber Fmt 4.6, Leading zero omitted, Abs format (unit mm)*
G04 Created by KiCad (PCBNEW (5.1.2-1)-1) date 2020-04-17 06:43:39*
%MOMM*%
%LPD*%
G04 APERTURE LIST*
%ADD10C,0.100000*%
G04 APERTURE END LIST*
D10*
G36*
X14699468Y-36953565D02*
G01*
X14738138Y-36965296D01*
X14773777Y-36984346D01*
X14805017Y-37009983D01*
X14830654Y-37041223D01*
X14849704Y-37076862D01*
X14861435Y-37115532D01*
X14866000Y-37161888D01*
X14866000Y-37813112D01*
X14861435Y-37859468D01*
X14849704Y-37898138D01*
X14830654Y-37933777D01*
X14805017Y-37965017D01*
X14773777Y-37990654D01*
X14738138Y-38009704D01*
X14699468Y-38021435D01*
X14653112Y-38026000D01*
X13576888Y-38026000D01*
X13530532Y-38021435D01*
X13491862Y-38009704D01*
X13456223Y-37990654D01*
X13424983Y-37965017D01*
X13399346Y-37933777D01*
X13380296Y-37898138D01*
X13368565Y-37859468D01*
X13364000Y-37813112D01*
X13364000Y-37161888D01*
X13368565Y-37115532D01*
X13380296Y-37076862D01*
X13399346Y-37041223D01*
X13424983Y-37009983D01*
X13456223Y-36984346D01*
X13491862Y-36965296D01*
X13530532Y-36953565D01*
X13576888Y-36949000D01*
X14653112Y-36949000D01*
X14699468Y-36953565D01*
X14699468Y-36953565D01*
G37*
G36*
X1399468Y-36853565D02*
G01*
X1438138Y-36865296D01*
X1473777Y-36884346D01*
X1505017Y-36909983D01*
X1530654Y-36941223D01*
X1549704Y-36976862D01*
X1561435Y-37015532D01*
X1566000Y-37061888D01*
X1566000Y-37713112D01*
X1561435Y-37759468D01*
X1549704Y-37798138D01*
X1530654Y-37833777D01*
X1505017Y-37865017D01*
X1473777Y-37890654D01*
X1438138Y-37909704D01*
X1399468Y-37921435D01*
X1353112Y-37926000D01*
X276888Y-37926000D01*
X230532Y-37921435D01*
X191862Y-37909704D01*
X156223Y-37890654D01*
X124983Y-37865017D01*
X99346Y-37833777D01*
X80296Y-37798138D01*
X68565Y-37759468D01*
X64000Y-37713112D01*
X64000Y-37061888D01*
X68565Y-37015532D01*
X80296Y-36976862D01*
X99346Y-36941223D01*
X124983Y-36909983D01*
X156223Y-36884346D01*
X191862Y-36865296D01*
X230532Y-36853565D01*
X276888Y-36849000D01*
X1353112Y-36849000D01*
X1399468Y-36853565D01*
X1399468Y-36853565D01*
G37*
G36*
X-11900532Y-36853565D02*
G01*
X-11861862Y-36865296D01*
X-11826223Y-36884346D01*
X-11794983Y-36909983D01*
X-11769346Y-36941223D01*
X-11750296Y-36976862D01*
X-11738565Y-37015532D01*
X-11734000Y-37061888D01*
X-11734000Y-37713112D01*
X-11738565Y-37759468D01*
X-11750296Y-37798138D01*
X-11769346Y-37833777D01*
X-11794983Y-37865017D01*
X-11826223Y-37890654D01*
X-11861862Y-37909704D01*
X-11900532Y-37921435D01*
X-11946888Y-37926000D01*
X-13023112Y-37926000D01*
X-13069468Y-37921435D01*
X-13108138Y-37909704D01*
X-13143777Y-37890654D01*
X-13175017Y-37865017D01*
X-13200654Y-37833777D01*
X-13219704Y-37798138D01*
X-13231435Y-37759468D01*
X-13236000Y-37713112D01*
X-13236000Y-37061888D01*
X-13231435Y-37015532D01*
X-13219704Y-36976862D01*
X-13200654Y-36941223D01*
X-13175017Y-36909983D01*
X-13143777Y-36884346D01*
X-13108138Y-36865296D01*
X-13069468Y-36853565D01*
X-13023112Y-36849000D01*
X-11946888Y-36849000D01*
X-11900532Y-36853565D01*
X-11900532Y-36853565D01*
G37*
G36*
X-25500532Y-36853565D02*
G01*
X-25461862Y-36865296D01*
X-25426223Y-36884346D01*
X-25394983Y-36909983D01*
X-25369346Y-36941223D01*
X-25350296Y-36976862D01*
X-25338565Y-37015532D01*
X-25334000Y-37061888D01*
X-25334000Y-37713112D01*
X-25338565Y-37759468D01*
X-25350296Y-37798138D01*
X-25369346Y-37833777D01*
X-25394983Y-37865017D01*
X-25426223Y-37890654D01*
X-25461862Y-37909704D01*
X-25500532Y-37921435D01*
X-25546888Y-37926000D01*
X-26623112Y-37926000D01*
X-26669468Y-37921435D01*
X-26708138Y-37909704D01*
X-26743777Y-37890654D01*
X-26775017Y-37865017D01*
X-26800654Y-37833777D01*
X-26819704Y-37798138D01*
X-26831435Y-37759468D01*
X-26836000Y-37713112D01*
X-26836000Y-37061888D01*
X-26831435Y-37015532D01*
X-26819704Y-36976862D01*
X-26800654Y-36941223D01*
X-26775017Y-36909983D01*
X-26743777Y-36884346D01*
X-26708138Y-36865296D01*
X-26669468Y-36853565D01*
X-26623112Y-36849000D01*
X-25546888Y-36849000D01*
X-25500532Y-36853565D01*
X-25500532Y-36853565D01*
G37*
G36*
X-36425001Y-34799737D02*
G01*
X-36410472Y-34804145D01*
X-36397289Y-34809606D01*
X-36373255Y-34814388D01*
X-36348751Y-34814389D01*
X-36324718Y-34809609D01*
X-36302079Y-34800232D01*
X-36300235Y-34799000D01*
X-35068950Y-34799000D01*
X-35056836Y-34805475D01*
X-35033387Y-34812588D01*
X-35009001Y-34814990D01*
X-34984615Y-34812588D01*
X-34961166Y-34805475D01*
X-34956254Y-34803152D01*
X-34944999Y-34799737D01*
X-34928860Y-34798148D01*
X-34391139Y-34798148D01*
X-34372801Y-34799954D01*
X-34360550Y-34800556D01*
X-34342131Y-34800556D01*
X-34319851Y-34802750D01*
X-34235767Y-34819476D01*
X-34214340Y-34825976D01*
X-34135142Y-34858780D01*
X-34129697Y-34861691D01*
X-34129691Y-34861693D01*
X-34120831Y-34866429D01*
X-34120827Y-34866432D01*
X-34115386Y-34869340D01*
X-34044101Y-34916971D01*
X-34026796Y-34931172D01*
X-33966172Y-34991796D01*
X-33951971Y-35009101D01*
X-33904340Y-35080386D01*
X-33901432Y-35085827D01*
X-33901429Y-35085831D01*
X-33896693Y-35094691D01*
X-33896691Y-35094697D01*
X-33893780Y-35100142D01*
X-33860976Y-35179340D01*
X-33854476Y-35200767D01*
X-33837750Y-35284851D01*
X-33835556Y-35307131D01*
X-33835556Y-35325550D01*
X-33834954Y-35337801D01*
X-33833148Y-35356139D01*
X-33833148Y-35843862D01*
X-33834954Y-35862199D01*
X-33835556Y-35874450D01*
X-33835556Y-35892869D01*
X-33837750Y-35915149D01*
X-33854476Y-35999233D01*
X-33860976Y-36020660D01*
X-33893780Y-36099858D01*
X-33896691Y-36105303D01*
X-33896693Y-36105309D01*
X-33901429Y-36114169D01*
X-33901432Y-36114173D01*
X-33904340Y-36119614D01*
X-33951971Y-36190899D01*
X-33966172Y-36208204D01*
X-34026796Y-36268828D01*
X-34044101Y-36283029D01*
X-34115386Y-36330660D01*
X-34120827Y-36333568D01*
X-34120831Y-36333571D01*
X-34129691Y-36338307D01*
X-34129697Y-36338309D01*
X-34135142Y-36341220D01*
X-34214340Y-36374024D01*
X-34235767Y-36380524D01*
X-34319851Y-36397250D01*
X-34342131Y-36399444D01*
X-34360550Y-36399444D01*
X-34372801Y-36400046D01*
X-34391138Y-36401852D01*
X-34928860Y-36401852D01*
X-34944999Y-36400263D01*
X-34959528Y-36395855D01*
X-34972711Y-36390394D01*
X-34996745Y-36385612D01*
X-35021249Y-36385611D01*
X-35045282Y-36390391D01*
X-35067921Y-36399768D01*
X-35069765Y-36401000D01*
X-36301050Y-36401000D01*
X-36313164Y-36394525D01*
X-36336613Y-36387412D01*
X-36360999Y-36385010D01*
X-36385385Y-36387412D01*
X-36408834Y-36394525D01*
X-36413746Y-36396848D01*
X-36425001Y-36400263D01*
X-36441140Y-36401852D01*
X-36978862Y-36401852D01*
X-36997199Y-36400046D01*
X-37009450Y-36399444D01*
X-37027869Y-36399444D01*
X-37050149Y-36397250D01*
X-37134233Y-36380524D01*
X-37155660Y-36374024D01*
X-37234858Y-36341220D01*
X-37240303Y-36338309D01*
X-37240309Y-36338307D01*
X-37249169Y-36333571D01*
X-37249173Y-36333568D01*
X-37254614Y-36330660D01*
X-37325899Y-36283029D01*
X-37343204Y-36268828D01*
X-37403828Y-36208204D01*
X-37418029Y-36190899D01*
X-37465660Y-36119614D01*
X-37468568Y-36114173D01*
X-37468571Y-36114169D01*
X-37473307Y-36105309D01*
X-37473309Y-36105303D01*
X-37476220Y-36099858D01*
X-37509024Y-36020660D01*
X-37515524Y-35999233D01*
X-37532250Y-35915149D01*
X-37534444Y-35892869D01*
X-37534444Y-35874450D01*
X-37535046Y-35862199D01*
X-37536852Y-35843862D01*
X-37536852Y-35356139D01*
X-37535046Y-35337801D01*
X-37534444Y-35325550D01*
X-37534444Y-35307131D01*
X-37532250Y-35284851D01*
X-37515524Y-35200767D01*
X-37509024Y-35179340D01*
X-37476220Y-35100142D01*
X-37473309Y-35094697D01*
X-37473307Y-35094691D01*
X-37468571Y-35085831D01*
X-37468568Y-35085827D01*
X-37465660Y-35080386D01*
X-37418029Y-35009101D01*
X-37403828Y-34991796D01*
X-37343204Y-34931172D01*
X-37325899Y-34916971D01*
X-37254614Y-34869340D01*
X-37249173Y-34866432D01*
X-37249169Y-34866429D01*
X-37240309Y-34861693D01*
X-37240303Y-34861691D01*
X-37234858Y-34858780D01*
X-37155660Y-34825976D01*
X-37134233Y-34819476D01*
X-37050149Y-34802750D01*
X-37027869Y-34800556D01*
X-37009450Y-34800556D01*
X-36997199Y-34799954D01*
X-36978861Y-34798148D01*
X-36441140Y-34798148D01*
X-36425001Y-34799737D01*
X-36425001Y-34799737D01*
G37*
G36*
X14699468Y-35078565D02*
G01*
X14738138Y-35090296D01*
X14773777Y-35109346D01*
X14805017Y-35134983D01*
X14830654Y-35166223D01*
X14849704Y-35201862D01*
X14861435Y-35240532D01*
X14866000Y-35286888D01*
X14866000Y-35938112D01*
X14861435Y-35984468D01*
X14849704Y-36023138D01*
X14830654Y-36058777D01*
X14805017Y-36090017D01*
X14773777Y-36115654D01*
X14738138Y-36134704D01*
X14699468Y-36146435D01*
X14653112Y-36151000D01*
X13576888Y-36151000D01*
X13530532Y-36146435D01*
X13491862Y-36134704D01*
X13456223Y-36115654D01*
X13424983Y-36090017D01*
X13399346Y-36058777D01*
X13380296Y-36023138D01*
X13368565Y-35984468D01*
X13364000Y-35938112D01*
X13364000Y-35286888D01*
X13368565Y-35240532D01*
X13380296Y-35201862D01*
X13399346Y-35166223D01*
X13424983Y-35134983D01*
X13456223Y-35109346D01*
X13491862Y-35090296D01*
X13530532Y-35078565D01*
X13576888Y-35074000D01*
X14653112Y-35074000D01*
X14699468Y-35078565D01*
X14699468Y-35078565D01*
G37*
G36*
X16899468Y-35053565D02*
G01*
X16938138Y-35065296D01*
X16973777Y-35084346D01*
X17005017Y-35109983D01*
X17030654Y-35141223D01*
X17049704Y-35176862D01*
X17061435Y-35215532D01*
X17066000Y-35261888D01*
X17066000Y-35913112D01*
X17061435Y-35959468D01*
X17049704Y-35998138D01*
X17030654Y-36033777D01*
X17005017Y-36065017D01*
X16973777Y-36090654D01*
X16938138Y-36109704D01*
X16899468Y-36121435D01*
X16853112Y-36126000D01*
X15776888Y-36126000D01*
X15730532Y-36121435D01*
X15691862Y-36109704D01*
X15656223Y-36090654D01*
X15624983Y-36065017D01*
X15599346Y-36033777D01*
X15580296Y-35998138D01*
X15568565Y-35959468D01*
X15564000Y-35913112D01*
X15564000Y-35261888D01*
X15568565Y-35215532D01*
X15580296Y-35176862D01*
X15599346Y-35141223D01*
X15624983Y-35109983D01*
X15656223Y-35084346D01*
X15691862Y-35065296D01*
X15730532Y-35053565D01*
X15776888Y-35049000D01*
X16853112Y-35049000D01*
X16899468Y-35053565D01*
X16899468Y-35053565D01*
G37*
G36*
X-23600532Y-35003565D02*
G01*
X-23561862Y-35015296D01*
X-23526223Y-35034346D01*
X-23494983Y-35059983D01*
X-23469346Y-35091223D01*
X-23450296Y-35126862D01*
X-23438565Y-35165532D01*
X-23434000Y-35211888D01*
X-23434000Y-35863112D01*
X-23438565Y-35909468D01*
X-23450296Y-35948138D01*
X-23469346Y-35983777D01*
X-23494983Y-36015017D01*
X-23526223Y-36040654D01*
X-23561862Y-36059704D01*
X-23600532Y-36071435D01*
X-23646888Y-36076000D01*
X-24723112Y-36076000D01*
X-24769468Y-36071435D01*
X-24808138Y-36059704D01*
X-24843777Y-36040654D01*
X-24875017Y-36015017D01*
X-24900654Y-35983777D01*
X-24919704Y-35948138D01*
X-24931435Y-35909468D01*
X-24936000Y-35863112D01*
X-24936000Y-35211888D01*
X-24931435Y-35165532D01*
X-24919704Y-35126862D01*
X-24900654Y-35091223D01*
X-24875017Y-35059983D01*
X-24843777Y-35034346D01*
X-24808138Y-35015296D01*
X-24769468Y-35003565D01*
X-24723112Y-34999000D01*
X-23646888Y-34999000D01*
X-23600532Y-35003565D01*
X-23600532Y-35003565D01*
G37*
G36*
X24899468Y-35003565D02*
G01*
X24938138Y-35015296D01*
X24973777Y-35034346D01*
X25005017Y-35059983D01*
X25030654Y-35091223D01*
X25049704Y-35126862D01*
X25061435Y-35165532D01*
X25066000Y-35211888D01*
X25066000Y-35863112D01*
X25061435Y-35909468D01*
X25049704Y-35948138D01*
X25030654Y-35983777D01*
X25005017Y-36015017D01*
X24973777Y-36040654D01*
X24938138Y-36059704D01*
X24899468Y-36071435D01*
X24853112Y-36076000D01*
X23776888Y-36076000D01*
X23730532Y-36071435D01*
X23691862Y-36059704D01*
X23656223Y-36040654D01*
X23624983Y-36015017D01*
X23599346Y-35983777D01*
X23580296Y-35948138D01*
X23568565Y-35909468D01*
X23564000Y-35863112D01*
X23564000Y-35211888D01*
X23568565Y-35165532D01*
X23580296Y-35126862D01*
X23599346Y-35091223D01*
X23624983Y-35059983D01*
X23656223Y-35034346D01*
X23691862Y-35015296D01*
X23730532Y-35003565D01*
X23776888Y-34999000D01*
X24853112Y-34999000D01*
X24899468Y-35003565D01*
X24899468Y-35003565D01*
G37*
G36*
X11349468Y-35003565D02*
G01*
X11388138Y-35015296D01*
X11423777Y-35034346D01*
X11455017Y-35059983D01*
X11480654Y-35091223D01*
X11499704Y-35126862D01*
X11511435Y-35165532D01*
X11516000Y-35211888D01*
X11516000Y-35863112D01*
X11511435Y-35909468D01*
X11499704Y-35948138D01*
X11480654Y-35983777D01*
X11455017Y-36015017D01*
X11423777Y-36040654D01*
X11388138Y-36059704D01*
X11349468Y-36071435D01*
X11303112Y-36076000D01*
X10226888Y-36076000D01*
X10180532Y-36071435D01*
X10141862Y-36059704D01*
X10106223Y-36040654D01*
X10074983Y-36015017D01*
X10049346Y-35983777D01*
X10030296Y-35948138D01*
X10018565Y-35909468D01*
X10014000Y-35863112D01*
X10014000Y-35211888D01*
X10018565Y-35165532D01*
X10030296Y-35126862D01*
X10049346Y-35091223D01*
X10074983Y-35059983D01*
X10106223Y-35034346D01*
X10141862Y-35015296D01*
X10180532Y-35003565D01*
X10226888Y-34999000D01*
X11303112Y-34999000D01*
X11349468Y-35003565D01*
X11349468Y-35003565D01*
G37*
G36*
X-2150532Y-35003565D02*
G01*
X-2111862Y-35015296D01*
X-2076223Y-35034346D01*
X-2044983Y-35059983D01*
X-2019346Y-35091223D01*
X-2000296Y-35126862D01*
X-1988565Y-35165532D01*
X-1984000Y-35211888D01*
X-1984000Y-35863112D01*
X-1988565Y-35909468D01*
X-2000296Y-35948138D01*
X-2019346Y-35983777D01*
X-2044983Y-36015017D01*
X-2076223Y-36040654D01*
X-2111862Y-36059704D01*
X-2150532Y-36071435D01*
X-2196888Y-36076000D01*
X-3273112Y-36076000D01*
X-3319468Y-36071435D01*
X-3358138Y-36059704D01*
X-3393777Y-36040654D01*
X-3425017Y-36015017D01*
X-3450654Y-35983777D01*
X-3469704Y-35948138D01*
X-3481435Y-35909468D01*
X-3486000Y-35863112D01*
X-3486000Y-35211888D01*
X-3481435Y-35165532D01*
X-3469704Y-35126862D01*
X-3450654Y-35091223D01*
X-3425017Y-35059983D01*
X-3393777Y-35034346D01*
X-3358138Y-35015296D01*
X-3319468Y-35003565D01*
X-3273112Y-34999000D01*
X-2196888Y-34999000D01*
X-2150532Y-35003565D01*
X-2150532Y-35003565D01*
G37*
G36*
X3599468Y-35003565D02*
G01*
X3638138Y-35015296D01*
X3673777Y-35034346D01*
X3705017Y-35059983D01*
X3730654Y-35091223D01*
X3749704Y-35126862D01*
X3761435Y-35165532D01*
X3766000Y-35211888D01*
X3766000Y-35863112D01*
X3761435Y-35909468D01*
X3749704Y-35948138D01*
X3730654Y-35983777D01*
X3705017Y-36015017D01*
X3673777Y-36040654D01*
X3638138Y-36059704D01*
X3599468Y-36071435D01*
X3553112Y-36076000D01*
X2476888Y-36076000D01*
X2430532Y-36071435D01*
X2391862Y-36059704D01*
X2356223Y-36040654D01*
X2324983Y-36015017D01*
X2299346Y-35983777D01*
X2280296Y-35948138D01*
X2268565Y-35909468D01*
X2264000Y-35863112D01*
X2264000Y-35211888D01*
X2268565Y-35165532D01*
X2280296Y-35126862D01*
X2299346Y-35091223D01*
X2324983Y-35059983D01*
X2356223Y-35034346D01*
X2391862Y-35015296D01*
X2430532Y-35003565D01*
X2476888Y-34999000D01*
X3553112Y-34999000D01*
X3599468Y-35003565D01*
X3599468Y-35003565D01*
G37*
G36*
X-9900532Y-35003565D02*
G01*
X-9861862Y-35015296D01*
X-9826223Y-35034346D01*
X-9794983Y-35059983D01*
X-9769346Y-35091223D01*
X-9750296Y-35126862D01*
X-9738565Y-35165532D01*
X-9734000Y-35211888D01*
X-9734000Y-35863112D01*
X-9738565Y-35909468D01*
X-9750296Y-35948138D01*
X-9769346Y-35983777D01*
X-9794983Y-36015017D01*
X-9826223Y-36040654D01*
X-9861862Y-36059704D01*
X-9900532Y-36071435D01*
X-9946888Y-36076000D01*
X-11023112Y-36076000D01*
X-11069468Y-36071435D01*
X-11108138Y-36059704D01*
X-11143777Y-36040654D01*
X-11175017Y-36015017D01*
X-11200654Y-35983777D01*
X-11219704Y-35948138D01*
X-11231435Y-35909468D01*
X-11236000Y-35863112D01*
X-11236000Y-35211888D01*
X-11231435Y-35165532D01*
X-11219704Y-35126862D01*
X-11200654Y-35091223D01*
X-11175017Y-35059983D01*
X-11143777Y-35034346D01*
X-11108138Y-35015296D01*
X-11069468Y-35003565D01*
X-11023112Y-34999000D01*
X-9946888Y-34999000D01*
X-9900532Y-35003565D01*
X-9900532Y-35003565D01*
G37*
G36*
X-15600532Y-35003565D02*
G01*
X-15561862Y-35015296D01*
X-15526223Y-35034346D01*
X-15494983Y-35059983D01*
X-15469346Y-35091223D01*
X-15450296Y-35126862D01*
X-15438565Y-35165532D01*
X-15434000Y-35211888D01*
X-15434000Y-35863112D01*
X-15438565Y-35909468D01*
X-15450296Y-35948138D01*
X-15469346Y-35983777D01*
X-15494983Y-36015017D01*
X-15526223Y-36040654D01*
X-15561862Y-36059704D01*
X-15600532Y-36071435D01*
X-15646888Y-36076000D01*
X-16723112Y-36076000D01*
X-16769468Y-36071435D01*
X-16808138Y-36059704D01*
X-16843777Y-36040654D01*
X-16875017Y-36015017D01*
X-16900654Y-35983777D01*
X-16919704Y-35948138D01*
X-16931435Y-35909468D01*
X-16936000Y-35863112D01*
X-16936000Y-35211888D01*
X-16931435Y-35165532D01*
X-16919704Y-35126862D01*
X-16900654Y-35091223D01*
X-16875017Y-35059983D01*
X-16843777Y-35034346D01*
X-16808138Y-35015296D01*
X-16769468Y-35003565D01*
X-16723112Y-34999000D01*
X-15646888Y-34999000D01*
X-15600532Y-35003565D01*
X-15600532Y-35003565D01*
G37*
G36*
X-25500532Y-34978565D02*
G01*
X-25461862Y-34990296D01*
X-25426223Y-35009346D01*
X-25394983Y-35034983D01*
X-25369346Y-35066223D01*
X-25350296Y-35101862D01*
X-25338565Y-35140532D01*
X-25334000Y-35186888D01*
X-25334000Y-35838112D01*
X-25338565Y-35884468D01*
X-25350296Y-35923138D01*
X-25369346Y-35958777D01*
X-25394983Y-35990017D01*
X-25426223Y-36015654D01*
X-25461862Y-36034704D01*
X-25500532Y-36046435D01*
X-25546888Y-36051000D01*
X-26623112Y-36051000D01*
X-26669468Y-36046435D01*
X-26708138Y-36034704D01*
X-26743777Y-36015654D01*
X-26775017Y-35990017D01*
X-26800654Y-35958777D01*
X-26819704Y-35923138D01*
X-26831435Y-35884468D01*
X-26836000Y-35838112D01*
X-26836000Y-35186888D01*
X-26831435Y-35140532D01*
X-26819704Y-35101862D01*
X-26800654Y-35066223D01*
X-26775017Y-35034983D01*
X-26743777Y-35009346D01*
X-26708138Y-34990296D01*
X-26669468Y-34978565D01*
X-26623112Y-34974000D01*
X-25546888Y-34974000D01*
X-25500532Y-34978565D01*
X-25500532Y-34978565D01*
G37*
G36*
X1399468Y-34978565D02*
G01*
X1438138Y-34990296D01*
X1473777Y-35009346D01*
X1505017Y-35034983D01*
X1530654Y-35066223D01*
X1549704Y-35101862D01*
X1561435Y-35140532D01*
X1566000Y-35186888D01*
X1566000Y-35838112D01*
X1561435Y-35884468D01*
X1549704Y-35923138D01*
X1530654Y-35958777D01*
X1505017Y-35990017D01*
X1473777Y-36015654D01*
X1438138Y-36034704D01*
X1399468Y-36046435D01*
X1353112Y-36051000D01*
X276888Y-36051000D01*
X230532Y-36046435D01*
X191862Y-36034704D01*
X156223Y-36015654D01*
X124983Y-35990017D01*
X99346Y-35958777D01*
X80296Y-35923138D01*
X68565Y-35884468D01*
X64000Y-35838112D01*
X64000Y-35186888D01*
X68565Y-35140532D01*
X80296Y-35101862D01*
X99346Y-35066223D01*
X124983Y-35034983D01*
X156223Y-35009346D01*
X191862Y-34990296D01*
X230532Y-34978565D01*
X276888Y-34974000D01*
X1353112Y-34974000D01*
X1399468Y-34978565D01*
X1399468Y-34978565D01*
G37*
G36*
X-11900532Y-34978565D02*
G01*
X-11861862Y-34990296D01*
X-11826223Y-35009346D01*
X-11794983Y-35034983D01*
X-11769346Y-35066223D01*
X-11750296Y-35101862D01*
X-11738565Y-35140532D01*
X-11734000Y-35186888D01*
X-11734000Y-35838112D01*
X-11738565Y-35884468D01*
X-11750296Y-35923138D01*
X-11769346Y-35958777D01*
X-11794983Y-35990017D01*
X-11826223Y-36015654D01*
X-11861862Y-36034704D01*
X-11900532Y-36046435D01*
X-11946888Y-36051000D01*
X-13023112Y-36051000D01*
X-13069468Y-36046435D01*
X-13108138Y-36034704D01*
X-13143777Y-36015654D01*
X-13175017Y-35990017D01*
X-13200654Y-35958777D01*
X-13219704Y-35923138D01*
X-13231435Y-35884468D01*
X-13236000Y-35838112D01*
X-13236000Y-35186888D01*
X-13231435Y-35140532D01*
X-13219704Y-35101862D01*
X-13200654Y-35066223D01*
X-13175017Y-35034983D01*
X-13143777Y-35009346D01*
X-13108138Y-34990296D01*
X-13069468Y-34978565D01*
X-13023112Y-34974000D01*
X-11946888Y-34974000D01*
X-11900532Y-34978565D01*
X-11900532Y-34978565D01*
G37*
G36*
X-4184000Y-36001000D02*
G01*
X-6186000Y-36001000D01*
X-6186000Y-35099000D01*
X-4184000Y-35099000D01*
X-4184000Y-36001000D01*
X-4184000Y-36001000D01*
G37*
G36*
X22616000Y-36001000D02*
G01*
X20614000Y-36001000D01*
X20614000Y-35099000D01*
X22616000Y-35099000D01*
X22616000Y-36001000D01*
X22616000Y-36001000D01*
G37*
G36*
X-17699000Y-36001000D02*
G01*
X-19701000Y-36001000D01*
X-19701000Y-35099000D01*
X-17699000Y-35099000D01*
X-17699000Y-36001000D01*
X-17699000Y-36001000D01*
G37*
G36*
X9216000Y-36001000D02*
G01*
X7214000Y-36001000D01*
X7214000Y-35099000D01*
X9216000Y-35099000D01*
X9216000Y-36001000D01*
X9216000Y-36001000D01*
G37*
G36*
X-27425328Y-35188449D02*
G01*
X-27425326Y-35188450D01*
X-27425325Y-35188450D01*
X-27356897Y-35216793D01*
X-27295314Y-35257942D01*
X-27242942Y-35310314D01*
X-27201793Y-35371897D01*
X-27173450Y-35440325D01*
X-27159000Y-35512967D01*
X-27159000Y-35587033D01*
X-27173450Y-35659675D01*
X-27201793Y-35728103D01*
X-27242942Y-35789686D01*
X-27295314Y-35842058D01*
X-27356897Y-35883207D01*
X-27425325Y-35911550D01*
X-27425326Y-35911550D01*
X-27425328Y-35911551D01*
X-27497966Y-35926000D01*
X-27572034Y-35926000D01*
X-27644672Y-35911551D01*
X-27644674Y-35911550D01*
X-27644675Y-35911550D01*
X-27713103Y-35883207D01*
X-27774686Y-35842058D01*
X-27827058Y-35789686D01*
X-27868207Y-35728103D01*
X-27896550Y-35659675D01*
X-27911000Y-35587033D01*
X-27911000Y-35512967D01*
X-27896550Y-35440325D01*
X-27868207Y-35371897D01*
X-27827058Y-35310314D01*
X-27774686Y-35257942D01*
X-27713103Y-35216793D01*
X-27644675Y-35188450D01*
X-27644674Y-35188450D01*
X-27644672Y-35188449D01*
X-27572034Y-35174000D01*
X-27497966Y-35174000D01*
X-27425328Y-35188449D01*
X-27425328Y-35188449D01*
G37*
G36*
X-38775328Y-35188449D02*
G01*
X-38775326Y-35188450D01*
X-38775325Y-35188450D01*
X-38706897Y-35216793D01*
X-38645314Y-35257942D01*
X-38592942Y-35310314D01*
X-38551793Y-35371897D01*
X-38523450Y-35440325D01*
X-38509000Y-35512967D01*
X-38509000Y-35587033D01*
X-38523450Y-35659675D01*
X-38551793Y-35728103D01*
X-38592942Y-35789686D01*
X-38645314Y-35842058D01*
X-38706897Y-35883207D01*
X-38775325Y-35911550D01*
X-38775326Y-35911550D01*
X-38775328Y-35911551D01*
X-38847966Y-35926000D01*
X-38922034Y-35926000D01*
X-38994672Y-35911551D01*
X-38994674Y-35911550D01*
X-38994675Y-35911550D01*
X-39063103Y-35883207D01*
X-39124686Y-35842058D01*
X-39177058Y-35789686D01*
X-39218207Y-35728103D01*
X-39246550Y-35659675D01*
X-39261000Y-35587033D01*
X-39261000Y-35512967D01*
X-39246550Y-35440325D01*
X-39218207Y-35371897D01*
X-39177058Y-35310314D01*
X-39124686Y-35257942D01*
X-39063103Y-35216793D01*
X-38994675Y-35188450D01*
X-38994674Y-35188450D01*
X-38994672Y-35188449D01*
X-38922034Y-35174000D01*
X-38847966Y-35174000D01*
X-38775328Y-35188449D01*
X-38775328Y-35188449D01*
G37*
G36*
X-20699000Y-35051000D02*
G01*
X-22701000Y-35051000D01*
X-22701000Y-34149000D01*
X-20699000Y-34149000D01*
X-20699000Y-35051000D01*
X-20699000Y-35051000D01*
G37*
G36*
X-7184000Y-35051000D02*
G01*
X-9186000Y-35051000D01*
X-9186000Y-34149000D01*
X-7184000Y-34149000D01*
X-7184000Y-35051000D01*
X-7184000Y-35051000D01*
G37*
G36*
X6216000Y-35051000D02*
G01*
X4214000Y-35051000D01*
X4214000Y-34149000D01*
X6216000Y-34149000D01*
X6216000Y-35051000D01*
X6216000Y-35051000D01*
G37*
G36*
X19616000Y-35051000D02*
G01*
X17614000Y-35051000D01*
X17614000Y-34149000D01*
X19616000Y-34149000D01*
X19616000Y-35051000D01*
X19616000Y-35051000D01*
G37*
G36*
X-33777513Y-33595661D02*
G01*
X-33710451Y-33623439D01*
X-33710450Y-33623440D01*
X-33650095Y-33663767D01*
X-33598767Y-33715095D01*
X-33571821Y-33755423D01*
X-33558439Y-33775451D01*
X-33530661Y-33842513D01*
X-33516500Y-33913705D01*
X-33516500Y-33986295D01*
X-33530661Y-34057487D01*
X-33558439Y-34124549D01*
X-33558440Y-34124550D01*
X-33598767Y-34184905D01*
X-33650095Y-34236233D01*
X-33665364Y-34246435D01*
X-33710451Y-34276561D01*
X-33777513Y-34304339D01*
X-33848705Y-34318500D01*
X-33921295Y-34318500D01*
X-33992487Y-34304339D01*
X-34059549Y-34276561D01*
X-34104636Y-34246435D01*
X-34119905Y-34236233D01*
X-34171233Y-34184905D01*
X-34211560Y-34124550D01*
X-34211561Y-34124549D01*
X-34239339Y-34057487D01*
X-34253500Y-33986295D01*
X-34253500Y-33913705D01*
X-34239339Y-33842513D01*
X-34211561Y-33775451D01*
X-34198179Y-33755423D01*
X-34171233Y-33715095D01*
X-34119905Y-33663767D01*
X-34059550Y-33623440D01*
X-34059549Y-33623439D01*
X-33992487Y-33595661D01*
X-33921295Y-33581500D01*
X-33848705Y-33581500D01*
X-33777513Y-33595661D01*
X-33777513Y-33595661D01*
G37*
G36*
X16899468Y-33178565D02*
G01*
X16938138Y-33190296D01*
X16973777Y-33209346D01*
X17005017Y-33234983D01*
X17030654Y-33266223D01*
X17049704Y-33301862D01*
X17061435Y-33340532D01*
X17066000Y-33386888D01*
X17066000Y-34038112D01*
X17061435Y-34084468D01*
X17049704Y-34123138D01*
X17030654Y-34158777D01*
X17005017Y-34190017D01*
X16973777Y-34215654D01*
X16938138Y-34234704D01*
X16899468Y-34246435D01*
X16853112Y-34251000D01*
X15776888Y-34251000D01*
X15730532Y-34246435D01*
X15691862Y-34234704D01*
X15656223Y-34215654D01*
X15624983Y-34190017D01*
X15599346Y-34158777D01*
X15580296Y-34123138D01*
X15568565Y-34084468D01*
X15564000Y-34038112D01*
X15564000Y-33386888D01*
X15568565Y-33340532D01*
X15580296Y-33301862D01*
X15599346Y-33266223D01*
X15624983Y-33234983D01*
X15656223Y-33209346D01*
X15691862Y-33190296D01*
X15730532Y-33178565D01*
X15776888Y-33174000D01*
X16853112Y-33174000D01*
X16899468Y-33178565D01*
X16899468Y-33178565D01*
G37*
G36*
X24899468Y-33128565D02*
G01*
X24938138Y-33140296D01*
X24973777Y-33159346D01*
X25005017Y-33184983D01*
X25030654Y-33216223D01*
X25049704Y-33251862D01*
X25061435Y-33290532D01*
X25066000Y-33336888D01*
X25066000Y-33988112D01*
X25061435Y-34034468D01*
X25049704Y-34073138D01*
X25030654Y-34108777D01*
X25005017Y-34140017D01*
X24973777Y-34165654D01*
X24938138Y-34184704D01*
X24899468Y-34196435D01*
X24853112Y-34201000D01*
X23776888Y-34201000D01*
X23730532Y-34196435D01*
X23691862Y-34184704D01*
X23656223Y-34165654D01*
X23624983Y-34140017D01*
X23599346Y-34108777D01*
X23580296Y-34073138D01*
X23568565Y-34034468D01*
X23564000Y-33988112D01*
X23564000Y-33336888D01*
X23568565Y-33290532D01*
X23580296Y-33251862D01*
X23599346Y-33216223D01*
X23624983Y-33184983D01*
X23656223Y-33159346D01*
X23691862Y-33140296D01*
X23730532Y-33128565D01*
X23776888Y-33124000D01*
X24853112Y-33124000D01*
X24899468Y-33128565D01*
X24899468Y-33128565D01*
G37*
G36*
X3599468Y-33128565D02*
G01*
X3638138Y-33140296D01*
X3673777Y-33159346D01*
X3705017Y-33184983D01*
X3730654Y-33216223D01*
X3749704Y-33251862D01*
X3761435Y-33290532D01*
X3766000Y-33336888D01*
X3766000Y-33988112D01*
X3761435Y-34034468D01*
X3749704Y-34073138D01*
X3730654Y-34108777D01*
X3705017Y-34140017D01*
X3673777Y-34165654D01*
X3638138Y-34184704D01*
X3599468Y-34196435D01*
X3553112Y-34201000D01*
X2476888Y-34201000D01*
X2430532Y-34196435D01*
X2391862Y-34184704D01*
X2356223Y-34165654D01*
X2324983Y-34140017D01*
X2299346Y-34108777D01*
X2280296Y-34073138D01*
X2268565Y-34034468D01*
X2264000Y-33988112D01*
X2264000Y-33336888D01*
X2268565Y-33290532D01*
X2280296Y-33251862D01*
X2299346Y-33216223D01*
X2324983Y-33184983D01*
X2356223Y-33159346D01*
X2391862Y-33140296D01*
X2430532Y-33128565D01*
X2476888Y-33124000D01*
X3553112Y-33124000D01*
X3599468Y-33128565D01*
X3599468Y-33128565D01*
G37*
G36*
X-9900532Y-33128565D02*
G01*
X-9861862Y-33140296D01*
X-9826223Y-33159346D01*
X-9794983Y-33184983D01*
X-9769346Y-33216223D01*
X-9750296Y-33251862D01*
X-9738565Y-33290532D01*
X-9734000Y-33336888D01*
X-9734000Y-33988112D01*
X-9738565Y-34034468D01*
X-9750296Y-34073138D01*
X-9769346Y-34108777D01*
X-9794983Y-34140017D01*
X-9826223Y-34165654D01*
X-9861862Y-34184704D01*
X-9900532Y-34196435D01*
X-9946888Y-34201000D01*
X-11023112Y-34201000D01*
X-11069468Y-34196435D01*
X-11108138Y-34184704D01*
X-11143777Y-34165654D01*
X-11175017Y-34140017D01*
X-11200654Y-34108777D01*
X-11219704Y-34073138D01*
X-11231435Y-34034468D01*
X-11236000Y-33988112D01*
X-11236000Y-33336888D01*
X-11231435Y-33290532D01*
X-11219704Y-33251862D01*
X-11200654Y-33216223D01*
X-11175017Y-33184983D01*
X-11143777Y-33159346D01*
X-11108138Y-33140296D01*
X-11069468Y-33128565D01*
X-11023112Y-33124000D01*
X-9946888Y-33124000D01*
X-9900532Y-33128565D01*
X-9900532Y-33128565D01*
G37*
G36*
X-15600532Y-33128565D02*
G01*
X-15561862Y-33140296D01*
X-15526223Y-33159346D01*
X-15494983Y-33184983D01*
X-15469346Y-33216223D01*
X-15450296Y-33251862D01*
X-15438565Y-33290532D01*
X-15434000Y-33336888D01*
X-15434000Y-33988112D01*
X-15438565Y-34034468D01*
X-15450296Y-34073138D01*
X-15469346Y-34108777D01*
X-15494983Y-34140017D01*
X-15526223Y-34165654D01*
X-15561862Y-34184704D01*
X-15600532Y-34196435D01*
X-15646888Y-34201000D01*
X-16723112Y-34201000D01*
X-16769468Y-34196435D01*
X-16808138Y-34184704D01*
X-16843777Y-34165654D01*
X-16875017Y-34140017D01*
X-16900654Y-34108777D01*
X-16919704Y-34073138D01*
X-16931435Y-34034468D01*
X-16936000Y-33988112D01*
X-16936000Y-33336888D01*
X-16931435Y-33290532D01*
X-16919704Y-33251862D01*
X-16900654Y-33216223D01*
X-16875017Y-33184983D01*
X-16843777Y-33159346D01*
X-16808138Y-33140296D01*
X-16769468Y-33128565D01*
X-16723112Y-33124000D01*
X-15646888Y-33124000D01*
X-15600532Y-33128565D01*
X-15600532Y-33128565D01*
G37*
G36*
X-2150532Y-33128565D02*
G01*
X-2111862Y-33140296D01*
X-2076223Y-33159346D01*
X-2044983Y-33184983D01*
X-2019346Y-33216223D01*
X-2000296Y-33251862D01*
X-1988565Y-33290532D01*
X-1984000Y-33336888D01*
X-1984000Y-33988112D01*
X-1988565Y-34034468D01*
X-2000296Y-34073138D01*
X-2019346Y-34108777D01*
X-2044983Y-34140017D01*
X-2076223Y-34165654D01*
X-2111862Y-34184704D01*
X-2150532Y-34196435D01*
X-2196888Y-34201000D01*
X-3273112Y-34201000D01*
X-3319468Y-34196435D01*
X-3358138Y-34184704D01*
X-3393777Y-34165654D01*
X-3425017Y-34140017D01*
X-3450654Y-34108777D01*
X-3469704Y-34073138D01*
X-3481435Y-34034468D01*
X-3486000Y-33988112D01*
X-3486000Y-33336888D01*
X-3481435Y-33290532D01*
X-3469704Y-33251862D01*
X-3450654Y-33216223D01*
X-3425017Y-33184983D01*
X-3393777Y-33159346D01*
X-3358138Y-33140296D01*
X-3319468Y-33128565D01*
X-3273112Y-33124000D01*
X-2196888Y-33124000D01*
X-2150532Y-33128565D01*
X-2150532Y-33128565D01*
G37*
G36*
X11349468Y-33128565D02*
G01*
X11388138Y-33140296D01*
X11423777Y-33159346D01*
X11455017Y-33184983D01*
X11480654Y-33216223D01*
X11499704Y-33251862D01*
X11511435Y-33290532D01*
X11516000Y-33336888D01*
X11516000Y-33988112D01*
X11511435Y-34034468D01*
X11499704Y-34073138D01*
X11480654Y-34108777D01*
X11455017Y-34140017D01*
X11423777Y-34165654D01*
X11388138Y-34184704D01*
X11349468Y-34196435D01*
X11303112Y-34201000D01*
X10226888Y-34201000D01*
X10180532Y-34196435D01*
X10141862Y-34184704D01*
X10106223Y-34165654D01*
X10074983Y-34140017D01*
X10049346Y-34108777D01*
X10030296Y-34073138D01*
X10018565Y-34034468D01*
X10014000Y-33988112D01*
X10014000Y-33336888D01*
X10018565Y-33290532D01*
X10030296Y-33251862D01*
X10049346Y-33216223D01*
X10074983Y-33184983D01*
X10106223Y-33159346D01*
X10141862Y-33140296D01*
X10180532Y-33128565D01*
X10226888Y-33124000D01*
X11303112Y-33124000D01*
X11349468Y-33128565D01*
X11349468Y-33128565D01*
G37*
G36*
X-23600532Y-33128565D02*
G01*
X-23561862Y-33140296D01*
X-23526223Y-33159346D01*
X-23494983Y-33184983D01*
X-23469346Y-33216223D01*
X-23450296Y-33251862D01*
X-23438565Y-33290532D01*
X-23434000Y-33336888D01*
X-23434000Y-33988112D01*
X-23438565Y-34034468D01*
X-23450296Y-34073138D01*
X-23469346Y-34108777D01*
X-23494983Y-34140017D01*
X-23526223Y-34165654D01*
X-23561862Y-34184704D01*
X-23600532Y-34196435D01*
X-23646888Y-34201000D01*
X-24723112Y-34201000D01*
X-24769468Y-34196435D01*
X-24808138Y-34184704D01*
X-24843777Y-34165654D01*
X-24875017Y-34140017D01*
X-24900654Y-34108777D01*
X-24919704Y-34073138D01*
X-24931435Y-34034468D01*
X-24936000Y-33988112D01*
X-24936000Y-33336888D01*
X-24931435Y-33290532D01*
X-24919704Y-33251862D01*
X-24900654Y-33216223D01*
X-24875017Y-33184983D01*
X-24843777Y-33159346D01*
X-24808138Y-33140296D01*
X-24769468Y-33128565D01*
X-24723112Y-33124000D01*
X-23646888Y-33124000D01*
X-23600532Y-33128565D01*
X-23600532Y-33128565D01*
G37*
G36*
X-4184000Y-34101000D02*
G01*
X-6186000Y-34101000D01*
X-6186000Y-33199000D01*
X-4184000Y-33199000D01*
X-4184000Y-34101000D01*
X-4184000Y-34101000D01*
G37*
G36*
X-17699000Y-34101000D02*
G01*
X-19701000Y-34101000D01*
X-19701000Y-33199000D01*
X-17699000Y-33199000D01*
X-17699000Y-34101000D01*
X-17699000Y-34101000D01*
G37*
G36*
X9216000Y-34101000D02*
G01*
X7214000Y-34101000D01*
X7214000Y-33199000D01*
X9216000Y-33199000D01*
X9216000Y-34101000D01*
X9216000Y-34101000D01*
G37*
G36*
X22616000Y-34101000D02*
G01*
X20614000Y-34101000D01*
X20614000Y-33199000D01*
X22616000Y-33199000D01*
X22616000Y-34101000D01*
X22616000Y-34101000D01*
G37*
G36*
X-27425328Y-33288449D02*
G01*
X-27425326Y-33288450D01*
X-27425325Y-33288450D01*
X-27356897Y-33316793D01*
X-27295314Y-33357942D01*
X-27242942Y-33410314D01*
X-27201793Y-33471897D01*
X-27173450Y-33540325D01*
X-27173449Y-33540328D01*
X-27159000Y-33612966D01*
X-27159000Y-33687033D01*
X-27173450Y-33759675D01*
X-27201793Y-33828103D01*
X-27242942Y-33889686D01*
X-27295314Y-33942058D01*
X-27356897Y-33983207D01*
X-27425325Y-34011550D01*
X-27425326Y-34011550D01*
X-27425328Y-34011551D01*
X-27497966Y-34026000D01*
X-27572034Y-34026000D01*
X-27644672Y-34011551D01*
X-27644674Y-34011550D01*
X-27644675Y-34011550D01*
X-27713103Y-33983207D01*
X-27774686Y-33942058D01*
X-27827058Y-33889686D01*
X-27868207Y-33828103D01*
X-27896550Y-33759675D01*
X-27911000Y-33687033D01*
X-27911000Y-33612966D01*
X-27896551Y-33540328D01*
X-27896550Y-33540325D01*
X-27868207Y-33471897D01*
X-27827058Y-33410314D01*
X-27774686Y-33357942D01*
X-27713103Y-33316793D01*
X-27644675Y-33288450D01*
X-27644674Y-33288450D01*
X-27644672Y-33288449D01*
X-27572034Y-33274000D01*
X-27497966Y-33274000D01*
X-27425328Y-33288449D01*
X-27425328Y-33288449D01*
G37*
G36*
X-36425001Y-31249737D02*
G01*
X-36410472Y-31254145D01*
X-36397289Y-31259606D01*
X-36373255Y-31264388D01*
X-36348751Y-31264389D01*
X-36324718Y-31259609D01*
X-36302079Y-31250232D01*
X-36300235Y-31249000D01*
X-35068950Y-31249000D01*
X-35056836Y-31255475D01*
X-35033387Y-31262588D01*
X-35009001Y-31264990D01*
X-34984615Y-31262588D01*
X-34961166Y-31255475D01*
X-34956254Y-31253152D01*
X-34944999Y-31249737D01*
X-34928860Y-31248148D01*
X-34391139Y-31248148D01*
X-34372801Y-31249954D01*
X-34360550Y-31250556D01*
X-34342131Y-31250556D01*
X-34319851Y-31252750D01*
X-34235767Y-31269476D01*
X-34214340Y-31275976D01*
X-34135142Y-31308780D01*
X-34129697Y-31311691D01*
X-34129691Y-31311693D01*
X-34120831Y-31316429D01*
X-34120827Y-31316432D01*
X-34115386Y-31319340D01*
X-34044101Y-31366971D01*
X-34026796Y-31381172D01*
X-33966172Y-31441796D01*
X-33951971Y-31459101D01*
X-33904340Y-31530386D01*
X-33901432Y-31535827D01*
X-33901429Y-31535831D01*
X-33896693Y-31544691D01*
X-33896691Y-31544697D01*
X-33893780Y-31550142D01*
X-33860976Y-31629340D01*
X-33854476Y-31650767D01*
X-33837750Y-31734851D01*
X-33835556Y-31757131D01*
X-33835556Y-31775550D01*
X-33834954Y-31787801D01*
X-33833148Y-31806139D01*
X-33833148Y-32293862D01*
X-33834954Y-32312199D01*
X-33835556Y-32324450D01*
X-33835556Y-32342869D01*
X-33837750Y-32365149D01*
X-33854476Y-32449233D01*
X-33860976Y-32470660D01*
X-33893780Y-32549858D01*
X-33896691Y-32555303D01*
X-33896693Y-32555309D01*
X-33901429Y-32564169D01*
X-33901432Y-32564173D01*
X-33904340Y-32569614D01*
X-33951971Y-32640899D01*
X-33966172Y-32658204D01*
X-34026796Y-32718828D01*
X-34044101Y-32733029D01*
X-34115386Y-32780660D01*
X-34120827Y-32783568D01*
X-34120831Y-32783571D01*
X-34129691Y-32788307D01*
X-34129697Y-32788309D01*
X-34135142Y-32791220D01*
X-34214340Y-32824024D01*
X-34235767Y-32830524D01*
X-34319851Y-32847250D01*
X-34342131Y-32849444D01*
X-34360550Y-32849444D01*
X-34372801Y-32850046D01*
X-34391138Y-32851852D01*
X-34928860Y-32851852D01*
X-34944999Y-32850263D01*
X-34959528Y-32845855D01*
X-34972711Y-32840394D01*
X-34996745Y-32835612D01*
X-35021249Y-32835611D01*
X-35045282Y-32840391D01*
X-35067921Y-32849768D01*
X-35069765Y-32851000D01*
X-36301050Y-32851000D01*
X-36313164Y-32844525D01*
X-36336613Y-32837412D01*
X-36360999Y-32835010D01*
X-36385385Y-32837412D01*
X-36408834Y-32844525D01*
X-36413746Y-32846848D01*
X-36425001Y-32850263D01*
X-36441140Y-32851852D01*
X-36978862Y-32851852D01*
X-36997199Y-32850046D01*
X-37009450Y-32849444D01*
X-37027869Y-32849444D01*
X-37050149Y-32847250D01*
X-37134233Y-32830524D01*
X-37155660Y-32824024D01*
X-37234858Y-32791220D01*
X-37240303Y-32788309D01*
X-37240309Y-32788307D01*
X-37249169Y-32783571D01*
X-37249173Y-32783568D01*
X-37254614Y-32780660D01*
X-37325899Y-32733029D01*
X-37343204Y-32718828D01*
X-37403828Y-32658204D01*
X-37418029Y-32640899D01*
X-37465660Y-32569614D01*
X-37468568Y-32564173D01*
X-37468571Y-32564169D01*
X-37473307Y-32555309D01*
X-37473309Y-32555303D01*
X-37476220Y-32549858D01*
X-37509024Y-32470660D01*
X-37515524Y-32449233D01*
X-37532250Y-32365149D01*
X-37534444Y-32342869D01*
X-37534444Y-32324450D01*
X-37535046Y-32312199D01*
X-37536852Y-32293862D01*
X-37536852Y-31806139D01*
X-37535046Y-31787801D01*
X-37534444Y-31775550D01*
X-37534444Y-31757131D01*
X-37532250Y-31734851D01*
X-37515524Y-31650767D01*
X-37509024Y-31629340D01*
X-37476220Y-31550142D01*
X-37473309Y-31544697D01*
X-37473307Y-31544691D01*
X-37468571Y-31535831D01*
X-37468568Y-31535827D01*
X-37465660Y-31530386D01*
X-37418029Y-31459101D01*
X-37403828Y-31441796D01*
X-37343204Y-31381172D01*
X-37325899Y-31366971D01*
X-37254614Y-31319340D01*
X-37249173Y-31316432D01*
X-37249169Y-31316429D01*
X-37240309Y-31311693D01*
X-37240303Y-31311691D01*
X-37234858Y-31308780D01*
X-37155660Y-31275976D01*
X-37134233Y-31269476D01*
X-37050149Y-31252750D01*
X-37027869Y-31250556D01*
X-37009450Y-31250556D01*
X-36997199Y-31249954D01*
X-36978861Y-31248148D01*
X-36441140Y-31248148D01*
X-36425001Y-31249737D01*
X-36425001Y-31249737D01*
G37*
G36*
X-38775324Y-31688449D02*
G01*
X-38775322Y-31688450D01*
X-38775321Y-31688450D01*
X-38706893Y-31716793D01*
X-38645310Y-31757942D01*
X-38592938Y-31810314D01*
X-38551789Y-31871897D01*
X-38523446Y-31940325D01*
X-38508996Y-32012967D01*
X-38508996Y-32087033D01*
X-38523446Y-32159675D01*
X-38551789Y-32228103D01*
X-38592938Y-32289686D01*
X-38645310Y-32342058D01*
X-38706893Y-32383207D01*
X-38775321Y-32411550D01*
X-38775322Y-32411550D01*
X-38775324Y-32411551D01*
X-38847962Y-32426000D01*
X-38922030Y-32426000D01*
X-38994668Y-32411551D01*
X-38994670Y-32411550D01*
X-38994671Y-32411550D01*
X-39063099Y-32383207D01*
X-39124682Y-32342058D01*
X-39177054Y-32289686D01*
X-39218203Y-32228103D01*
X-39246546Y-32159675D01*
X-39260996Y-32087033D01*
X-39260996Y-32012967D01*
X-39246546Y-31940325D01*
X-39218203Y-31871897D01*
X-39177054Y-31810314D01*
X-39124682Y-31757942D01*
X-39063099Y-31716793D01*
X-38994671Y-31688450D01*
X-38994670Y-31688450D01*
X-38994668Y-31688449D01*
X-38922030Y-31674000D01*
X-38847962Y-31674000D01*
X-38775324Y-31688449D01*
X-38775324Y-31688449D01*
G37*
G36*
X14980343Y-29595361D02*
G01*
X14999568Y-29597254D01*
X15085900Y-29623443D01*
X15172234Y-29649632D01*
X15331365Y-29734689D01*
X15470844Y-29849156D01*
X15585311Y-29988635D01*
X15670368Y-30147766D01*
X15722746Y-30320433D01*
X15740432Y-30500000D01*
X15722746Y-30679567D01*
X15670368Y-30852234D01*
X15585311Y-31011365D01*
X15470844Y-31150844D01*
X15331365Y-31265311D01*
X15172234Y-31350368D01*
X15085900Y-31376557D01*
X14999568Y-31402746D01*
X14980343Y-31404639D01*
X14864998Y-31416000D01*
X14475002Y-31416000D01*
X14359657Y-31404639D01*
X14340432Y-31402746D01*
X14254100Y-31376557D01*
X14167766Y-31350368D01*
X14008635Y-31265311D01*
X13869156Y-31150844D01*
X13754689Y-31011365D01*
X13669632Y-30852234D01*
X13617254Y-30679567D01*
X13599568Y-30500000D01*
X13617254Y-30320433D01*
X13669632Y-30147766D01*
X13754689Y-29988635D01*
X13869156Y-29849156D01*
X14008635Y-29734689D01*
X14167766Y-29649632D01*
X14254100Y-29623443D01*
X14340432Y-29597254D01*
X14359657Y-29595361D01*
X14475002Y-29584000D01*
X14864998Y-29584000D01*
X14980343Y-29595361D01*
X14980343Y-29595361D01*
G37*
G36*
X20816000Y-31416000D02*
G01*
X18684000Y-31416000D01*
X18684000Y-29584000D01*
X20816000Y-29584000D01*
X20816000Y-31416000D01*
X20816000Y-31416000D01*
G37*
G36*
X17414473Y-29825938D02*
G01*
X17542049Y-29878782D01*
X17656859Y-29955495D01*
X17754505Y-30053141D01*
X17831218Y-30167951D01*
X17884062Y-30295527D01*
X17911000Y-30430956D01*
X17911000Y-30569044D01*
X17884062Y-30704473D01*
X17831218Y-30832049D01*
X17754505Y-30946859D01*
X17656859Y-31044505D01*
X17542049Y-31121218D01*
X17414473Y-31174062D01*
X17279044Y-31201000D01*
X17140956Y-31201000D01*
X17005527Y-31174062D01*
X16877951Y-31121218D01*
X16763141Y-31044505D01*
X16665495Y-30946859D01*
X16588782Y-30832049D01*
X16535938Y-30704473D01*
X16509000Y-30569044D01*
X16509000Y-30430956D01*
X16535938Y-30295527D01*
X16588782Y-30167951D01*
X16665495Y-30053141D01*
X16763141Y-29955495D01*
X16877951Y-29878782D01*
X17005527Y-29825938D01*
X17140956Y-29799000D01*
X17279044Y-29799000D01*
X17414473Y-29825938D01*
X17414473Y-29825938D01*
G37*
G36*
X-37077513Y-30195657D02*
G01*
X-37010451Y-30223435D01*
X-37010450Y-30223436D01*
X-36950095Y-30263763D01*
X-36898767Y-30315091D01*
X-36895198Y-30320433D01*
X-36858439Y-30375447D01*
X-36830661Y-30442509D01*
X-36816500Y-30513701D01*
X-36816500Y-30586291D01*
X-36830661Y-30657483D01*
X-36858439Y-30724545D01*
X-36858440Y-30724546D01*
X-36898767Y-30784901D01*
X-36950095Y-30836229D01*
X-36974049Y-30852234D01*
X-37010451Y-30876557D01*
X-37077513Y-30904335D01*
X-37148705Y-30918496D01*
X-37221295Y-30918496D01*
X-37292487Y-30904335D01*
X-37359549Y-30876557D01*
X-37395951Y-30852234D01*
X-37419905Y-30836229D01*
X-37471233Y-30784901D01*
X-37511560Y-30724546D01*
X-37511561Y-30724545D01*
X-37539339Y-30657483D01*
X-37553500Y-30586291D01*
X-37553500Y-30513701D01*
X-37539339Y-30442509D01*
X-37511561Y-30375447D01*
X-37474802Y-30320433D01*
X-37471233Y-30315091D01*
X-37419905Y-30263763D01*
X-37359550Y-30223436D01*
X-37359549Y-30223435D01*
X-37292487Y-30195657D01*
X-37221295Y-30181496D01*
X-37148705Y-30181496D01*
X-37077513Y-30195657D01*
X-37077513Y-30195657D01*
G37*
G36*
X3583642Y-27979781D02*
G01*
X3729414Y-28040162D01*
X3729416Y-28040163D01*
X3860608Y-28127822D01*
X3972178Y-28239392D01*
X4004010Y-28287033D01*
X4059838Y-28370586D01*
X4120219Y-28516358D01*
X4151000Y-28671107D01*
X4151000Y-28828893D01*
X4120219Y-28983642D01*
X4059838Y-29129414D01*
X4059837Y-29129416D01*
X3972178Y-29260608D01*
X3860608Y-29372178D01*
X3729416Y-29459837D01*
X3729415Y-29459838D01*
X3729414Y-29459838D01*
X3583642Y-29520219D01*
X3428893Y-29551000D01*
X3271107Y-29551000D01*
X3116358Y-29520219D01*
X2970586Y-29459838D01*
X2970585Y-29459838D01*
X2970584Y-29459837D01*
X2839392Y-29372178D01*
X2727822Y-29260608D01*
X2640163Y-29129416D01*
X2640162Y-29129414D01*
X2579781Y-28983642D01*
X2549000Y-28828893D01*
X2549000Y-28671107D01*
X2579781Y-28516358D01*
X2640162Y-28370586D01*
X2695990Y-28287033D01*
X2727822Y-28239392D01*
X2839392Y-28127822D01*
X2970584Y-28040163D01*
X2970586Y-28040162D01*
X3116358Y-27979781D01*
X3271107Y-27949000D01*
X3428893Y-27949000D01*
X3583642Y-27979781D01*
X3583642Y-27979781D01*
G37*
G36*
X-3116358Y-27979781D02*
G01*
X-2970586Y-28040162D01*
X-2970584Y-28040163D01*
X-2839392Y-28127822D01*
X-2727822Y-28239392D01*
X-2695990Y-28287033D01*
X-2640162Y-28370586D01*
X-2579781Y-28516358D01*
X-2549000Y-28671107D01*
X-2549000Y-28828893D01*
X-2579781Y-28983642D01*
X-2640162Y-29129414D01*
X-2640163Y-29129416D01*
X-2727822Y-29260608D01*
X-2839392Y-29372178D01*
X-2970584Y-29459837D01*
X-2970585Y-29459838D01*
X-2970586Y-29459838D01*
X-3116358Y-29520219D01*
X-3271107Y-29551000D01*
X-3428893Y-29551000D01*
X-3583642Y-29520219D01*
X-3729414Y-29459838D01*
X-3729415Y-29459838D01*
X-3729416Y-29459837D01*
X-3860608Y-29372178D01*
X-3972178Y-29260608D01*
X-4059837Y-29129416D01*
X-4059838Y-29129414D01*
X-4120219Y-28983642D01*
X-4151000Y-28828893D01*
X-4151000Y-28671107D01*
X-4120219Y-28516358D01*
X-4059838Y-28370586D01*
X-4004010Y-28287033D01*
X-3972178Y-28239392D01*
X-3860608Y-28127822D01*
X-3729416Y-28040163D01*
X-3729414Y-28040162D01*
X-3583642Y-27979781D01*
X-3428893Y-27949000D01*
X-3271107Y-27949000D01*
X-3116358Y-27979781D01*
X-3116358Y-27979781D01*
G37*
G36*
X-9816358Y-27979781D02*
G01*
X-9670586Y-28040162D01*
X-9670584Y-28040163D01*
X-9539392Y-28127822D01*
X-9427822Y-28239392D01*
X-9395990Y-28287033D01*
X-9340162Y-28370586D01*
X-9279781Y-28516358D01*
X-9249000Y-28671107D01*
X-9249000Y-28828893D01*
X-9279781Y-28983642D01*
X-9340162Y-29129414D01*
X-9340163Y-29129416D01*
X-9427822Y-29260608D01*
X-9539392Y-29372178D01*
X-9670584Y-29459837D01*
X-9670585Y-29459838D01*
X-9670586Y-29459838D01*
X-9816358Y-29520219D01*
X-9971107Y-29551000D01*
X-10128893Y-29551000D01*
X-10283642Y-29520219D01*
X-10429414Y-29459838D01*
X-10429415Y-29459838D01*
X-10429416Y-29459837D01*
X-10560608Y-29372178D01*
X-10672178Y-29260608D01*
X-10759837Y-29129416D01*
X-10759838Y-29129414D01*
X-10820219Y-28983642D01*
X-10851000Y-28828893D01*
X-10851000Y-28671107D01*
X-10820219Y-28516358D01*
X-10759838Y-28370586D01*
X-10704010Y-28287033D01*
X-10672178Y-28239392D01*
X-10560608Y-28127822D01*
X-10429416Y-28040163D01*
X-10429414Y-28040162D01*
X-10283642Y-27979781D01*
X-10128893Y-27949000D01*
X-9971107Y-27949000D01*
X-9816358Y-27979781D01*
X-9816358Y-27979781D01*
G37*
G36*
X-16516358Y-27979781D02*
G01*
X-16370586Y-28040162D01*
X-16370584Y-28040163D01*
X-16239392Y-28127822D01*
X-16127822Y-28239392D01*
X-16095990Y-28287033D01*
X-16040162Y-28370586D01*
X-15979781Y-28516358D01*
X-15949000Y-28671107D01*
X-15949000Y-28828893D01*
X-15979781Y-28983642D01*
X-16040162Y-29129414D01*
X-16040163Y-29129416D01*
X-16127822Y-29260608D01*
X-16239392Y-29372178D01*
X-16370584Y-29459837D01*
X-16370585Y-29459838D01*
X-16370586Y-29459838D01*
X-16516358Y-29520219D01*
X-16671107Y-29551000D01*
X-16828893Y-29551000D01*
X-16983642Y-29520219D01*
X-17129414Y-29459838D01*
X-17129415Y-29459838D01*
X-17129416Y-29459837D01*
X-17260608Y-29372178D01*
X-17372178Y-29260608D01*
X-17459837Y-29129416D01*
X-17459838Y-29129414D01*
X-17520219Y-28983642D01*
X-17551000Y-28828893D01*
X-17551000Y-28671107D01*
X-17520219Y-28516358D01*
X-17459838Y-28370586D01*
X-17404010Y-28287033D01*
X-17372178Y-28239392D01*
X-17260608Y-28127822D01*
X-17129416Y-28040163D01*
X-17129414Y-28040162D01*
X-16983642Y-27979781D01*
X-16828893Y-27949000D01*
X-16671107Y-27949000D01*
X-16516358Y-27979781D01*
X-16516358Y-27979781D01*
G37*
G36*
X-23216358Y-27979781D02*
G01*
X-23070586Y-28040162D01*
X-23070584Y-28040163D01*
X-22939392Y-28127822D01*
X-22827822Y-28239392D01*
X-22795990Y-28287033D01*
X-22740162Y-28370586D01*
X-22679781Y-28516358D01*
X-22649000Y-28671107D01*
X-22649000Y-28828893D01*
X-22679781Y-28983642D01*
X-22740162Y-29129414D01*
X-22740163Y-29129416D01*
X-22827822Y-29260608D01*
X-22939392Y-29372178D01*
X-23070584Y-29459837D01*
X-23070585Y-29459838D01*
X-23070586Y-29459838D01*
X-23216358Y-29520219D01*
X-23371107Y-29551000D01*
X-23528893Y-29551000D01*
X-23683642Y-29520219D01*
X-23829414Y-29459838D01*
X-23829415Y-29459838D01*
X-23829416Y-29459837D01*
X-23960608Y-29372178D01*
X-24072178Y-29260608D01*
X-24159837Y-29129416D01*
X-24159838Y-29129414D01*
X-24220219Y-28983642D01*
X-24251000Y-28828893D01*
X-24251000Y-28671107D01*
X-24220219Y-28516358D01*
X-24159838Y-28370586D01*
X-24104010Y-28287033D01*
X-24072178Y-28239392D01*
X-23960608Y-28127822D01*
X-23829416Y-28040163D01*
X-23829414Y-28040162D01*
X-23683642Y-27979781D01*
X-23528893Y-27949000D01*
X-23371107Y-27949000D01*
X-23216358Y-27979781D01*
X-23216358Y-27979781D01*
G37*
G36*
X-28849000Y-29551000D02*
G01*
X-30451000Y-29551000D01*
X-30451000Y-27949000D01*
X-28849000Y-27949000D01*
X-28849000Y-29551000D01*
X-28849000Y-29551000D01*
G37*
G36*
X23683642Y-27979781D02*
G01*
X23829414Y-28040162D01*
X23829416Y-28040163D01*
X23960608Y-28127822D01*
X24072178Y-28239392D01*
X24104010Y-28287033D01*
X24159838Y-28370586D01*
X24220219Y-28516358D01*
X24251000Y-28671107D01*
X24251000Y-28828893D01*
X24220219Y-28983642D01*
X24159838Y-29129414D01*
X24159837Y-29129416D01*
X24072178Y-29260608D01*
X23960608Y-29372178D01*
X23829416Y-29459837D01*
X23829415Y-29459838D01*
X23829414Y-29459838D01*
X23683642Y-29520219D01*
X23528893Y-29551000D01*
X23371107Y-29551000D01*
X23216358Y-29520219D01*
X23070586Y-29459838D01*
X23070585Y-29459838D01*
X23070584Y-29459837D01*
X22939392Y-29372178D01*
X22827822Y-29260608D01*
X22740163Y-29129416D01*
X22740162Y-29129414D01*
X22679781Y-28983642D01*
X22649000Y-28828893D01*
X22649000Y-28671107D01*
X22679781Y-28516358D01*
X22740162Y-28370586D01*
X22795990Y-28287033D01*
X22827822Y-28239392D01*
X22939392Y-28127822D01*
X23070584Y-28040163D01*
X23070586Y-28040162D01*
X23216358Y-27979781D01*
X23371107Y-27949000D01*
X23528893Y-27949000D01*
X23683642Y-27979781D01*
X23683642Y-27979781D01*
G37*
G36*
X16983642Y-27979781D02*
G01*
X17129414Y-28040162D01*
X17129416Y-28040163D01*
X17260608Y-28127822D01*
X17372178Y-28239392D01*
X17404010Y-28287033D01*
X17459838Y-28370586D01*
X17520219Y-28516358D01*
X17551000Y-28671107D01*
X17551000Y-28828893D01*
X17520219Y-28983642D01*
X17459838Y-29129414D01*
X17459837Y-29129416D01*
X17372178Y-29260608D01*
X17260608Y-29372178D01*
X17129416Y-29459837D01*
X17129415Y-29459838D01*
X17129414Y-29459838D01*
X16983642Y-29520219D01*
X16828893Y-29551000D01*
X16671107Y-29551000D01*
X16516358Y-29520219D01*
X16370586Y-29459838D01*
X16370585Y-29459838D01*
X16370584Y-29459837D01*
X16239392Y-29372178D01*
X16127822Y-29260608D01*
X16040163Y-29129416D01*
X16040162Y-29129414D01*
X15979781Y-28983642D01*
X15949000Y-28828893D01*
X15949000Y-28671107D01*
X15979781Y-28516358D01*
X16040162Y-28370586D01*
X16095990Y-28287033D01*
X16127822Y-28239392D01*
X16239392Y-28127822D01*
X16370584Y-28040163D01*
X16370586Y-28040162D01*
X16516358Y-27979781D01*
X16671107Y-27949000D01*
X16828893Y-27949000D01*
X16983642Y-27979781D01*
X16983642Y-27979781D01*
G37*
G36*
X10283642Y-27979781D02*
G01*
X10429414Y-28040162D01*
X10429416Y-28040163D01*
X10560608Y-28127822D01*
X10672178Y-28239392D01*
X10704010Y-28287033D01*
X10759838Y-28370586D01*
X10820219Y-28516358D01*
X10851000Y-28671107D01*
X10851000Y-28828893D01*
X10820219Y-28983642D01*
X10759838Y-29129414D01*
X10759837Y-29129416D01*
X10672178Y-29260608D01*
X10560608Y-29372178D01*
X10429416Y-29459837D01*
X10429415Y-29459838D01*
X10429414Y-29459838D01*
X10283642Y-29520219D01*
X10128893Y-29551000D01*
X9971107Y-29551000D01*
X9816358Y-29520219D01*
X9670586Y-29459838D01*
X9670585Y-29459838D01*
X9670584Y-29459837D01*
X9539392Y-29372178D01*
X9427822Y-29260608D01*
X9340163Y-29129416D01*
X9340162Y-29129414D01*
X9279781Y-28983642D01*
X9249000Y-28828893D01*
X9249000Y-28671107D01*
X9279781Y-28516358D01*
X9340162Y-28370586D01*
X9395990Y-28287033D01*
X9427822Y-28239392D01*
X9539392Y-28127822D01*
X9670584Y-28040163D01*
X9670586Y-28040162D01*
X9816358Y-27979781D01*
X9971107Y-27949000D01*
X10128893Y-27949000D01*
X10283642Y-27979781D01*
X10283642Y-27979781D01*
G37*
G36*
X-36425001Y-27499737D02*
G01*
X-36410472Y-27504145D01*
X-36397289Y-27509606D01*
X-36373255Y-27514388D01*
X-36348751Y-27514389D01*
X-36324718Y-27509609D01*
X-36302079Y-27500232D01*
X-36300235Y-27499000D01*
X-35068950Y-27499000D01*
X-35056836Y-27505475D01*
X-35033387Y-27512588D01*
X-35009001Y-27514990D01*
X-34984615Y-27512588D01*
X-34961166Y-27505475D01*
X-34956254Y-27503152D01*
X-34944999Y-27499737D01*
X-34928860Y-27498148D01*
X-34391139Y-27498148D01*
X-34372801Y-27499954D01*
X-34360550Y-27500556D01*
X-34342131Y-27500556D01*
X-34319851Y-27502750D01*
X-34235767Y-27519476D01*
X-34214340Y-27525976D01*
X-34135142Y-27558780D01*
X-34129697Y-27561691D01*
X-34129691Y-27561693D01*
X-34120831Y-27566429D01*
X-34120827Y-27566432D01*
X-34115386Y-27569340D01*
X-34044101Y-27616971D01*
X-34026796Y-27631172D01*
X-33966172Y-27691796D01*
X-33951971Y-27709101D01*
X-33904340Y-27780386D01*
X-33901432Y-27785827D01*
X-33901429Y-27785831D01*
X-33896693Y-27794691D01*
X-33896691Y-27794697D01*
X-33893780Y-27800142D01*
X-33860976Y-27879340D01*
X-33854476Y-27900767D01*
X-33837750Y-27984851D01*
X-33835556Y-28007131D01*
X-33835556Y-28025550D01*
X-33834954Y-28037801D01*
X-33833148Y-28056139D01*
X-33833148Y-28543862D01*
X-33834954Y-28562199D01*
X-33835556Y-28574450D01*
X-33835556Y-28592869D01*
X-33837750Y-28615149D01*
X-33854476Y-28699233D01*
X-33860976Y-28720660D01*
X-33893780Y-28799858D01*
X-33896691Y-28805303D01*
X-33896693Y-28805309D01*
X-33901429Y-28814169D01*
X-33901432Y-28814173D01*
X-33904340Y-28819614D01*
X-33951971Y-28890899D01*
X-33966172Y-28908204D01*
X-34026796Y-28968828D01*
X-34044101Y-28983029D01*
X-34115386Y-29030660D01*
X-34120827Y-29033568D01*
X-34120831Y-29033571D01*
X-34129691Y-29038307D01*
X-34129697Y-29038309D01*
X-34135142Y-29041220D01*
X-34214340Y-29074024D01*
X-34235767Y-29080524D01*
X-34319851Y-29097250D01*
X-34342131Y-29099444D01*
X-34360550Y-29099444D01*
X-34372801Y-29100046D01*
X-34391138Y-29101852D01*
X-34928860Y-29101852D01*
X-34944999Y-29100263D01*
X-34959528Y-29095855D01*
X-34972711Y-29090394D01*
X-34996745Y-29085612D01*
X-35021249Y-29085611D01*
X-35045282Y-29090391D01*
X-35067921Y-29099768D01*
X-35069765Y-29101000D01*
X-36301050Y-29101000D01*
X-36313164Y-29094525D01*
X-36336613Y-29087412D01*
X-36360999Y-29085010D01*
X-36385385Y-29087412D01*
X-36408834Y-29094525D01*
X-36413746Y-29096848D01*
X-36425001Y-29100263D01*
X-36441140Y-29101852D01*
X-36978862Y-29101852D01*
X-36997199Y-29100046D01*
X-37009450Y-29099444D01*
X-37027869Y-29099444D01*
X-37050149Y-29097250D01*
X-37134233Y-29080524D01*
X-37155660Y-29074024D01*
X-37234858Y-29041220D01*
X-37240303Y-29038309D01*
X-37240309Y-29038307D01*
X-37249169Y-29033571D01*
X-37249173Y-29033568D01*
X-37254614Y-29030660D01*
X-37325899Y-28983029D01*
X-37343204Y-28968828D01*
X-37403828Y-28908204D01*
X-37418029Y-28890899D01*
X-37465660Y-28819614D01*
X-37468568Y-28814173D01*
X-37468571Y-28814169D01*
X-37473307Y-28805309D01*
X-37473309Y-28805303D01*
X-37476220Y-28799858D01*
X-37509024Y-28720660D01*
X-37515524Y-28699233D01*
X-37532250Y-28615149D01*
X-37534444Y-28592869D01*
X-37534444Y-28574450D01*
X-37535046Y-28562199D01*
X-37536852Y-28543862D01*
X-37536852Y-28056139D01*
X-37535046Y-28037801D01*
X-37534444Y-28025550D01*
X-37534444Y-28007131D01*
X-37532250Y-27984851D01*
X-37515524Y-27900767D01*
X-37509024Y-27879340D01*
X-37476220Y-27800142D01*
X-37473309Y-27794697D01*
X-37473307Y-27794691D01*
X-37468571Y-27785831D01*
X-37468568Y-27785827D01*
X-37465660Y-27780386D01*
X-37418029Y-27709101D01*
X-37403828Y-27691796D01*
X-37343204Y-27631172D01*
X-37325899Y-27616971D01*
X-37254614Y-27569340D01*
X-37249173Y-27566432D01*
X-37249169Y-27566429D01*
X-37240309Y-27561693D01*
X-37240303Y-27561691D01*
X-37234858Y-27558780D01*
X-37155660Y-27525976D01*
X-37134233Y-27519476D01*
X-37050149Y-27502750D01*
X-37027869Y-27500556D01*
X-37009450Y-27500556D01*
X-36997199Y-27499954D01*
X-36978861Y-27498148D01*
X-36441140Y-27498148D01*
X-36425001Y-27499737D01*
X-36425001Y-27499737D01*
G37*
G36*
X-38675322Y-27888449D02*
G01*
X-38675320Y-27888450D01*
X-38675319Y-27888450D01*
X-38606891Y-27916793D01*
X-38545308Y-27957942D01*
X-38492936Y-28010314D01*
X-38451787Y-28071897D01*
X-38423444Y-28140325D01*
X-38408994Y-28212967D01*
X-38408994Y-28287033D01*
X-38423444Y-28359675D01*
X-38451787Y-28428103D01*
X-38492936Y-28489686D01*
X-38545308Y-28542058D01*
X-38606891Y-28583207D01*
X-38675319Y-28611550D01*
X-38675320Y-28611550D01*
X-38675322Y-28611551D01*
X-38747960Y-28626000D01*
X-38822028Y-28626000D01*
X-38894666Y-28611551D01*
X-38894668Y-28611550D01*
X-38894669Y-28611550D01*
X-38963097Y-28583207D01*
X-39024680Y-28542058D01*
X-39077052Y-28489686D01*
X-39118201Y-28428103D01*
X-39146544Y-28359675D01*
X-39160994Y-28287033D01*
X-39160994Y-28212967D01*
X-39146544Y-28140325D01*
X-39118201Y-28071897D01*
X-39077052Y-28010314D01*
X-39024680Y-27957942D01*
X-38963097Y-27916793D01*
X-38894669Y-27888450D01*
X-38894668Y-27888450D01*
X-38894666Y-27888449D01*
X-38822028Y-27874000D01*
X-38747960Y-27874000D01*
X-38675322Y-27888449D01*
X-38675322Y-27888449D01*
G37*
G36*
X-32977513Y-26495661D02*
G01*
X-32910451Y-26523439D01*
X-32910450Y-26523440D01*
X-32850095Y-26563767D01*
X-32798767Y-26615095D01*
X-32771821Y-26655423D01*
X-32758439Y-26675451D01*
X-32730661Y-26742513D01*
X-32716500Y-26813705D01*
X-32716500Y-26886295D01*
X-32730661Y-26957487D01*
X-32758439Y-27024549D01*
X-32758440Y-27024550D01*
X-32798767Y-27084905D01*
X-32850095Y-27136233D01*
X-32890423Y-27163179D01*
X-32910451Y-27176561D01*
X-32977513Y-27204339D01*
X-33048705Y-27218500D01*
X-33121295Y-27218500D01*
X-33192487Y-27204339D01*
X-33259549Y-27176561D01*
X-33279577Y-27163179D01*
X-33319905Y-27136233D01*
X-33371233Y-27084905D01*
X-33411560Y-27024550D01*
X-33411561Y-27024549D01*
X-33439339Y-26957487D01*
X-33453500Y-26886295D01*
X-33453500Y-26813705D01*
X-33439339Y-26742513D01*
X-33411561Y-26675451D01*
X-33398179Y-26655423D01*
X-33371233Y-26615095D01*
X-33319905Y-26563767D01*
X-33259550Y-26523440D01*
X-33259549Y-26523439D01*
X-33192487Y-26495661D01*
X-33121295Y-26481500D01*
X-33048705Y-26481500D01*
X-32977513Y-26495661D01*
X-32977513Y-26495661D01*
G37*
G36*
X-36425001Y-23899737D02*
G01*
X-36410472Y-23904145D01*
X-36397289Y-23909606D01*
X-36373255Y-23914388D01*
X-36348751Y-23914389D01*
X-36324718Y-23909609D01*
X-36302079Y-23900232D01*
X-36300235Y-23899000D01*
X-35068950Y-23899000D01*
X-35056836Y-23905475D01*
X-35033387Y-23912588D01*
X-35009001Y-23914990D01*
X-34984615Y-23912588D01*
X-34961166Y-23905475D01*
X-34956254Y-23903152D01*
X-34944999Y-23899737D01*
X-34928860Y-23898148D01*
X-34391139Y-23898148D01*
X-34372801Y-23899954D01*
X-34360550Y-23900556D01*
X-34342131Y-23900556D01*
X-34319851Y-23902750D01*
X-34235767Y-23919476D01*
X-34214340Y-23925976D01*
X-34135142Y-23958780D01*
X-34129697Y-23961691D01*
X-34129691Y-23961693D01*
X-34120831Y-23966429D01*
X-34120827Y-23966432D01*
X-34115386Y-23969340D01*
X-34044101Y-24016971D01*
X-34026796Y-24031172D01*
X-33966172Y-24091796D01*
X-33951971Y-24109101D01*
X-33904340Y-24180386D01*
X-33901432Y-24185827D01*
X-33901429Y-24185831D01*
X-33896693Y-24194691D01*
X-33896691Y-24194697D01*
X-33893780Y-24200142D01*
X-33860976Y-24279340D01*
X-33854476Y-24300767D01*
X-33837750Y-24384851D01*
X-33835556Y-24407131D01*
X-33835556Y-24425550D01*
X-33834954Y-24437801D01*
X-33833148Y-24456139D01*
X-33833148Y-24943862D01*
X-33834954Y-24962199D01*
X-33835556Y-24974450D01*
X-33835556Y-24992869D01*
X-33837750Y-25015149D01*
X-33854476Y-25099233D01*
X-33860976Y-25120660D01*
X-33893780Y-25199858D01*
X-33896691Y-25205303D01*
X-33896693Y-25205309D01*
X-33901429Y-25214169D01*
X-33901432Y-25214173D01*
X-33904340Y-25219614D01*
X-33951971Y-25290899D01*
X-33966172Y-25308204D01*
X-34026796Y-25368828D01*
X-34044101Y-25383029D01*
X-34115386Y-25430660D01*
X-34120827Y-25433568D01*
X-34120831Y-25433571D01*
X-34129691Y-25438307D01*
X-34129697Y-25438309D01*
X-34135142Y-25441220D01*
X-34214340Y-25474024D01*
X-34235767Y-25480524D01*
X-34319851Y-25497250D01*
X-34342131Y-25499444D01*
X-34360550Y-25499444D01*
X-34372801Y-25500046D01*
X-34391138Y-25501852D01*
X-34928860Y-25501852D01*
X-34944999Y-25500263D01*
X-34959528Y-25495855D01*
X-34972711Y-25490394D01*
X-34996745Y-25485612D01*
X-35021249Y-25485611D01*
X-35045282Y-25490391D01*
X-35067921Y-25499768D01*
X-35069765Y-25501000D01*
X-36301050Y-25501000D01*
X-36313164Y-25494525D01*
X-36336613Y-25487412D01*
X-36360999Y-25485010D01*
X-36385385Y-25487412D01*
X-36408834Y-25494525D01*
X-36413746Y-25496848D01*
X-36425001Y-25500263D01*
X-36441140Y-25501852D01*
X-36978862Y-25501852D01*
X-36997199Y-25500046D01*
X-37009450Y-25499444D01*
X-37027869Y-25499444D01*
X-37050149Y-25497250D01*
X-37134233Y-25480524D01*
X-37155660Y-25474024D01*
X-37234858Y-25441220D01*
X-37240303Y-25438309D01*
X-37240309Y-25438307D01*
X-37249169Y-25433571D01*
X-37249173Y-25433568D01*
X-37254614Y-25430660D01*
X-37325899Y-25383029D01*
X-37343204Y-25368828D01*
X-37403828Y-25308204D01*
X-37418029Y-25290899D01*
X-37465660Y-25219614D01*
X-37468568Y-25214173D01*
X-37468571Y-25214169D01*
X-37473307Y-25205309D01*
X-37473309Y-25205303D01*
X-37476220Y-25199858D01*
X-37509024Y-25120660D01*
X-37515524Y-25099233D01*
X-37532250Y-25015149D01*
X-37534444Y-24992869D01*
X-37534444Y-24974450D01*
X-37535046Y-24962199D01*
X-37536852Y-24943862D01*
X-37536852Y-24456139D01*
X-37535046Y-24437801D01*
X-37534444Y-24425550D01*
X-37534444Y-24407131D01*
X-37532250Y-24384851D01*
X-37515524Y-24300767D01*
X-37509024Y-24279340D01*
X-37476220Y-24200142D01*
X-37473309Y-24194697D01*
X-37473307Y-24194691D01*
X-37468571Y-24185831D01*
X-37468568Y-24185827D01*
X-37465660Y-24180386D01*
X-37418029Y-24109101D01*
X-37403828Y-24091796D01*
X-37343204Y-24031172D01*
X-37325899Y-24016971D01*
X-37254614Y-23969340D01*
X-37249173Y-23966432D01*
X-37249169Y-23966429D01*
X-37240309Y-23961693D01*
X-37240303Y-23961691D01*
X-37234858Y-23958780D01*
X-37155660Y-23925976D01*
X-37134233Y-23919476D01*
X-37050149Y-23902750D01*
X-37027869Y-23900556D01*
X-37009450Y-23900556D01*
X-36997199Y-23899954D01*
X-36978861Y-23898148D01*
X-36441140Y-23898148D01*
X-36425001Y-23899737D01*
X-36425001Y-23899737D01*
G37*
G36*
X-38675328Y-24388449D02*
G01*
X-38675326Y-24388450D01*
X-38675325Y-24388450D01*
X-38606897Y-24416793D01*
X-38545314Y-24457942D01*
X-38492942Y-24510314D01*
X-38451793Y-24571897D01*
X-38423450Y-24640325D01*
X-38409000Y-24712967D01*
X-38409000Y-24787033D01*
X-38423450Y-24859675D01*
X-38451793Y-24928103D01*
X-38492942Y-24989686D01*
X-38545314Y-25042058D01*
X-38606897Y-25083207D01*
X-38675325Y-25111550D01*
X-38675326Y-25111550D01*
X-38675328Y-25111551D01*
X-38747966Y-25126000D01*
X-38822034Y-25126000D01*
X-38894672Y-25111551D01*
X-38894674Y-25111550D01*
X-38894675Y-25111550D01*
X-38963103Y-25083207D01*
X-39024686Y-25042058D01*
X-39077058Y-24989686D01*
X-39118207Y-24928103D01*
X-39146550Y-24859675D01*
X-39161000Y-24787033D01*
X-39161000Y-24712967D01*
X-39146550Y-24640325D01*
X-39118207Y-24571897D01*
X-39077058Y-24510314D01*
X-39024686Y-24457942D01*
X-38963103Y-24416793D01*
X-38894675Y-24388450D01*
X-38894674Y-24388450D01*
X-38894672Y-24388449D01*
X-38822034Y-24374000D01*
X-38747966Y-24374000D01*
X-38675328Y-24388449D01*
X-38675328Y-24388449D01*
G37*
G36*
X29883642Y-21979781D02*
G01*
X30029414Y-22040162D01*
X30029416Y-22040163D01*
X30160608Y-22127822D01*
X30272178Y-22239392D01*
X30359837Y-22370584D01*
X30359838Y-22370586D01*
X30420219Y-22516358D01*
X30451000Y-22671107D01*
X30451000Y-22828893D01*
X30420219Y-22983642D01*
X30359838Y-23129414D01*
X30359837Y-23129416D01*
X30272178Y-23260608D01*
X30160608Y-23372178D01*
X30029416Y-23459837D01*
X30029415Y-23459838D01*
X30029414Y-23459838D01*
X29883642Y-23520219D01*
X29728893Y-23551000D01*
X29571107Y-23551000D01*
X29416358Y-23520219D01*
X29270586Y-23459838D01*
X29270585Y-23459838D01*
X29270584Y-23459837D01*
X29139392Y-23372178D01*
X29027822Y-23260608D01*
X28940163Y-23129416D01*
X28940162Y-23129414D01*
X28879781Y-22983642D01*
X28849000Y-22828893D01*
X28849000Y-22671107D01*
X28879781Y-22516358D01*
X28940162Y-22370586D01*
X28940163Y-22370584D01*
X29027822Y-22239392D01*
X29139392Y-22127822D01*
X29270584Y-22040163D01*
X29270586Y-22040162D01*
X29416358Y-21979781D01*
X29571107Y-21949000D01*
X29728893Y-21949000D01*
X29883642Y-21979781D01*
X29883642Y-21979781D01*
G37*
G36*
X-29416358Y-21979781D02*
G01*
X-29270586Y-22040162D01*
X-29270584Y-22040163D01*
X-29139392Y-22127822D01*
X-29027822Y-22239392D01*
X-28940163Y-22370584D01*
X-28940162Y-22370586D01*
X-28879781Y-22516358D01*
X-28849000Y-22671107D01*
X-28849000Y-22828893D01*
X-28879781Y-22983642D01*
X-28940162Y-23129414D01*
X-28940163Y-23129416D01*
X-29027822Y-23260608D01*
X-29139392Y-23372178D01*
X-29270584Y-23459837D01*
X-29270585Y-23459838D01*
X-29270586Y-23459838D01*
X-29416358Y-23520219D01*
X-29571107Y-23551000D01*
X-29728893Y-23551000D01*
X-29883642Y-23520219D01*
X-30029414Y-23459838D01*
X-30029415Y-23459838D01*
X-30029416Y-23459837D01*
X-30160608Y-23372178D01*
X-30272178Y-23260608D01*
X-30359837Y-23129416D01*
X-30359838Y-23129414D01*
X-30420219Y-22983642D01*
X-30451000Y-22828893D01*
X-30451000Y-22671107D01*
X-30420219Y-22516358D01*
X-30359838Y-22370586D01*
X-30359837Y-22370584D01*
X-30272178Y-22239392D01*
X-30160608Y-22127822D01*
X-30029416Y-22040163D01*
X-30029414Y-22040162D01*
X-29883642Y-21979781D01*
X-29728893Y-21949000D01*
X-29571107Y-21949000D01*
X-29416358Y-21979781D01*
X-29416358Y-21979781D01*
G37*
G36*
X-37877513Y-22695661D02*
G01*
X-37810451Y-22723439D01*
X-37810450Y-22723440D01*
X-37750095Y-22763767D01*
X-37698767Y-22815095D01*
X-37689548Y-22828893D01*
X-37658439Y-22875451D01*
X-37630661Y-22942513D01*
X-37616500Y-23013705D01*
X-37616500Y-23086295D01*
X-37630661Y-23157487D01*
X-37658439Y-23224549D01*
X-37658440Y-23224550D01*
X-37698767Y-23284905D01*
X-37750095Y-23336233D01*
X-37790423Y-23363179D01*
X-37810451Y-23376561D01*
X-37877513Y-23404339D01*
X-37948705Y-23418500D01*
X-38021295Y-23418500D01*
X-38092487Y-23404339D01*
X-38159549Y-23376561D01*
X-38179577Y-23363179D01*
X-38219905Y-23336233D01*
X-38271233Y-23284905D01*
X-38311560Y-23224550D01*
X-38311561Y-23224549D01*
X-38339339Y-23157487D01*
X-38353500Y-23086295D01*
X-38353500Y-23013705D01*
X-38339339Y-22942513D01*
X-38311561Y-22875451D01*
X-38280452Y-22828893D01*
X-38271233Y-22815095D01*
X-38219905Y-22763767D01*
X-38159550Y-22723440D01*
X-38159549Y-22723439D01*
X-38092487Y-22695661D01*
X-38021295Y-22681500D01*
X-37948705Y-22681500D01*
X-37877513Y-22695661D01*
X-37877513Y-22695661D01*
G37*
G36*
X-35446488Y-18153927D02*
G01*
X-35297188Y-18183624D01*
X-35133216Y-18251544D01*
X-34985646Y-18350147D01*
X-34873395Y-18462398D01*
X-34854464Y-18477934D01*
X-34832853Y-18489485D01*
X-34809404Y-18496598D01*
X-34785018Y-18499000D01*
X-32599000Y-18499000D01*
X-32599000Y-19601000D01*
X-33617786Y-19601000D01*
X-33642172Y-19603402D01*
X-33665621Y-19610515D01*
X-33687232Y-19622066D01*
X-33706174Y-19637611D01*
X-33721719Y-19656553D01*
X-33733270Y-19678164D01*
X-33740383Y-19701613D01*
X-33742785Y-19725999D01*
X-33740383Y-19750385D01*
X-33733270Y-19773834D01*
X-33721719Y-19795445D01*
X-33706174Y-19814387D01*
X-33687234Y-19829930D01*
X-33645314Y-19857940D01*
X-33592942Y-19910312D01*
X-33551793Y-19971895D01*
X-33523450Y-20040323D01*
X-33509000Y-20112965D01*
X-33509000Y-20187031D01*
X-33523450Y-20259673D01*
X-33551793Y-20328101D01*
X-33592942Y-20389684D01*
X-33645314Y-20442056D01*
X-33706897Y-20483205D01*
X-33775325Y-20511548D01*
X-33775326Y-20511548D01*
X-33775328Y-20511549D01*
X-33847966Y-20525998D01*
X-33922034Y-20525998D01*
X-33994672Y-20511549D01*
X-33994674Y-20511548D01*
X-33994675Y-20511548D01*
X-34063103Y-20483205D01*
X-34124686Y-20442056D01*
X-34177058Y-20389684D01*
X-34218207Y-20328101D01*
X-34246550Y-20259673D01*
X-34261000Y-20187031D01*
X-34261000Y-20112965D01*
X-34246550Y-20040323D01*
X-34218207Y-19971895D01*
X-34177058Y-19910312D01*
X-34124686Y-19857940D01*
X-34082766Y-19829930D01*
X-34063827Y-19814387D01*
X-34048281Y-19795445D01*
X-34036730Y-19773834D01*
X-34029617Y-19750385D01*
X-34027215Y-19725999D01*
X-34029617Y-19701613D01*
X-34036730Y-19678164D01*
X-34048281Y-19656554D01*
X-34063826Y-19637612D01*
X-34082768Y-19622066D01*
X-34104379Y-19610515D01*
X-34127828Y-19603402D01*
X-34152214Y-19601000D01*
X-34785018Y-19601000D01*
X-34809404Y-19603402D01*
X-34832853Y-19610515D01*
X-34854464Y-19622066D01*
X-34873395Y-19637602D01*
X-34985646Y-19749853D01*
X-35133216Y-19848456D01*
X-35297188Y-19916376D01*
X-35446488Y-19946073D01*
X-35471258Y-19951000D01*
X-35648742Y-19951000D01*
X-35673512Y-19946073D01*
X-35822812Y-19916376D01*
X-35986784Y-19848456D01*
X-36134354Y-19749853D01*
X-36259853Y-19624354D01*
X-36358456Y-19476784D01*
X-36426376Y-19312812D01*
X-36461000Y-19138741D01*
X-36461000Y-18961259D01*
X-36426376Y-18787188D01*
X-36358456Y-18623216D01*
X-36259853Y-18475646D01*
X-36134354Y-18350147D01*
X-35986784Y-18251544D01*
X-35822812Y-18183624D01*
X-35673512Y-18153927D01*
X-35648742Y-18149000D01*
X-35471258Y-18149000D01*
X-35446488Y-18153927D01*
X-35446488Y-18153927D01*
G37*
G36*
X35673512Y-18153927D02*
G01*
X35822812Y-18183624D01*
X35986784Y-18251544D01*
X36134354Y-18350147D01*
X36246605Y-18462398D01*
X36265536Y-18477934D01*
X36287147Y-18489485D01*
X36310596Y-18496598D01*
X36334982Y-18499000D01*
X38521000Y-18499000D01*
X38521000Y-19601000D01*
X36334982Y-19601000D01*
X36310596Y-19603402D01*
X36287147Y-19610515D01*
X36265536Y-19622066D01*
X36246605Y-19637602D01*
X36134354Y-19749853D01*
X35986784Y-19848456D01*
X35822812Y-19916376D01*
X35673512Y-19946073D01*
X35648742Y-19951000D01*
X35471258Y-19951000D01*
X35446488Y-19946073D01*
X35297188Y-19916376D01*
X35133216Y-19848456D01*
X34985646Y-19749853D01*
X34860147Y-19624354D01*
X34761544Y-19476784D01*
X34693624Y-19312812D01*
X34659000Y-19138741D01*
X34659000Y-18961259D01*
X34693624Y-18787188D01*
X34761544Y-18623216D01*
X34860147Y-18475646D01*
X34985646Y-18350147D01*
X35133216Y-18251544D01*
X35297188Y-18183624D01*
X35446488Y-18153927D01*
X35471258Y-18149000D01*
X35648742Y-18149000D01*
X35673512Y-18153927D01*
X35673512Y-18153927D01*
G37*
G36*
X41124672Y-18688449D02*
G01*
X41124674Y-18688450D01*
X41124675Y-18688450D01*
X41193103Y-18716793D01*
X41254686Y-18757942D01*
X41307058Y-18810314D01*
X41348207Y-18871897D01*
X41376550Y-18940325D01*
X41376551Y-18940328D01*
X41391000Y-19012966D01*
X41391000Y-19087034D01*
X41380715Y-19138741D01*
X41376550Y-19159675D01*
X41348207Y-19228103D01*
X41307058Y-19289686D01*
X41254686Y-19342058D01*
X41193103Y-19383207D01*
X41124675Y-19411550D01*
X41124674Y-19411550D01*
X41124672Y-19411551D01*
X41052034Y-19426000D01*
X40977966Y-19426000D01*
X40905328Y-19411551D01*
X40905326Y-19411550D01*
X40905325Y-19411550D01*
X40836897Y-19383207D01*
X40775314Y-19342058D01*
X40722942Y-19289686D01*
X40681793Y-19228103D01*
X40653450Y-19159675D01*
X40649286Y-19138741D01*
X40639000Y-19087034D01*
X40639000Y-19012966D01*
X40653449Y-18940328D01*
X40653450Y-18940325D01*
X40681793Y-18871897D01*
X40722942Y-18810314D01*
X40775314Y-18757942D01*
X40836897Y-18716793D01*
X40905325Y-18688450D01*
X40905326Y-18688450D01*
X40905328Y-18688449D01*
X40977966Y-18674000D01*
X41052034Y-18674000D01*
X41124672Y-18688449D01*
X41124672Y-18688449D01*
G37*
G36*
X-37075328Y-17488449D02*
G01*
X-37075326Y-17488450D01*
X-37075325Y-17488450D01*
X-37006897Y-17516793D01*
X-36945314Y-17557942D01*
X-36892942Y-17610314D01*
X-36851793Y-17671897D01*
X-36823450Y-17740325D01*
X-36809000Y-17812967D01*
X-36809000Y-17887033D01*
X-36823450Y-17959675D01*
X-36851793Y-18028103D01*
X-36892942Y-18089686D01*
X-36945314Y-18142058D01*
X-37006897Y-18183207D01*
X-37075325Y-18211550D01*
X-37075326Y-18211550D01*
X-37075328Y-18211551D01*
X-37147966Y-18226000D01*
X-37222034Y-18226000D01*
X-37294672Y-18211551D01*
X-37294674Y-18211550D01*
X-37294675Y-18211550D01*
X-37363103Y-18183207D01*
X-37424686Y-18142058D01*
X-37477058Y-18089686D01*
X-37518207Y-18028103D01*
X-37546550Y-17959675D01*
X-37561000Y-17887033D01*
X-37561000Y-17812967D01*
X-37546550Y-17740325D01*
X-37518207Y-17671897D01*
X-37477058Y-17610314D01*
X-37424686Y-17557942D01*
X-37363103Y-17516793D01*
X-37294675Y-17488450D01*
X-37294674Y-17488450D01*
X-37294672Y-17488449D01*
X-37222034Y-17474000D01*
X-37147966Y-17474000D01*
X-37075328Y-17488449D01*
X-37075328Y-17488449D01*
G37*
G36*
X35673512Y-15613927D02*
G01*
X35822812Y-15643624D01*
X35986784Y-15711544D01*
X36134354Y-15810147D01*
X36259853Y-15935646D01*
X36358456Y-16083216D01*
X36426376Y-16247188D01*
X36461000Y-16421259D01*
X36461000Y-16598741D01*
X36426376Y-16772812D01*
X36358456Y-16936784D01*
X36259853Y-17084354D01*
X36134354Y-17209853D01*
X35986784Y-17308456D01*
X35822812Y-17376376D01*
X35673512Y-17406073D01*
X35648742Y-17411000D01*
X35471258Y-17411000D01*
X35446488Y-17406073D01*
X35297188Y-17376376D01*
X35133216Y-17308456D01*
X34985646Y-17209853D01*
X34873395Y-17097602D01*
X34854464Y-17082066D01*
X34832853Y-17070515D01*
X34809404Y-17063402D01*
X34785018Y-17061000D01*
X32599000Y-17061000D01*
X32599000Y-15959000D01*
X34785018Y-15959000D01*
X34809404Y-15956598D01*
X34832853Y-15949485D01*
X34854464Y-15937934D01*
X34873395Y-15922398D01*
X34985646Y-15810147D01*
X35133216Y-15711544D01*
X35297188Y-15643624D01*
X35446488Y-15613927D01*
X35471258Y-15609000D01*
X35648742Y-15609000D01*
X35673512Y-15613927D01*
X35673512Y-15613927D01*
G37*
G36*
X-35446488Y-15613927D02*
G01*
X-35297188Y-15643624D01*
X-35133216Y-15711544D01*
X-34985646Y-15810147D01*
X-34860147Y-15935646D01*
X-34761544Y-16083216D01*
X-34693624Y-16247188D01*
X-34659000Y-16421259D01*
X-34659000Y-16598741D01*
X-34693624Y-16772812D01*
X-34761544Y-16936784D01*
X-34860147Y-17084354D01*
X-34985646Y-17209853D01*
X-35133216Y-17308456D01*
X-35297188Y-17376376D01*
X-35446488Y-17406073D01*
X-35471258Y-17411000D01*
X-35648742Y-17411000D01*
X-35673512Y-17406073D01*
X-35822812Y-17376376D01*
X-35986784Y-17308456D01*
X-36134354Y-17209853D01*
X-36246605Y-17097602D01*
X-36265536Y-17082066D01*
X-36287147Y-17070515D01*
X-36310596Y-17063402D01*
X-36334982Y-17061000D01*
X-38521000Y-17061000D01*
X-38521000Y-15959000D01*
X-36334982Y-15959000D01*
X-36310596Y-15956598D01*
X-36287147Y-15949485D01*
X-36265536Y-15937934D01*
X-36246605Y-15922398D01*
X-36134354Y-15810147D01*
X-35986784Y-15711544D01*
X-35822812Y-15643624D01*
X-35673512Y-15613927D01*
X-35648742Y-15609000D01*
X-35471258Y-15609000D01*
X-35446488Y-15613927D01*
X-35446488Y-15613927D01*
G37*
G36*
X29883642Y-15479781D02*
G01*
X30000301Y-15528103D01*
X30029416Y-15540163D01*
X30160608Y-15627822D01*
X30272178Y-15739392D01*
X30319455Y-15810148D01*
X30359838Y-15870586D01*
X30420219Y-16016358D01*
X30451000Y-16171107D01*
X30451000Y-16328893D01*
X30420219Y-16483642D01*
X30393961Y-16547033D01*
X30359837Y-16629416D01*
X30272178Y-16760608D01*
X30160608Y-16872178D01*
X30029416Y-16959837D01*
X30029415Y-16959838D01*
X30029414Y-16959838D01*
X29883642Y-17020219D01*
X29728893Y-17051000D01*
X29571107Y-17051000D01*
X29416358Y-17020219D01*
X29270586Y-16959838D01*
X29270585Y-16959838D01*
X29270584Y-16959837D01*
X29139392Y-16872178D01*
X29027822Y-16760608D01*
X28940163Y-16629416D01*
X28906039Y-16547033D01*
X28879781Y-16483642D01*
X28849000Y-16328893D01*
X28849000Y-16171107D01*
X28879781Y-16016358D01*
X28940162Y-15870586D01*
X28980545Y-15810148D01*
X29027822Y-15739392D01*
X29139392Y-15627822D01*
X29270584Y-15540163D01*
X29299699Y-15528103D01*
X29416358Y-15479781D01*
X29571107Y-15449000D01*
X29728893Y-15449000D01*
X29883642Y-15479781D01*
X29883642Y-15479781D01*
G37*
G36*
X-29416358Y-15479781D02*
G01*
X-29299699Y-15528103D01*
X-29270584Y-15540163D01*
X-29139392Y-15627822D01*
X-29027822Y-15739392D01*
X-28980545Y-15810148D01*
X-28940162Y-15870586D01*
X-28879781Y-16016358D01*
X-28849000Y-16171107D01*
X-28849000Y-16328893D01*
X-28879781Y-16483642D01*
X-28906039Y-16547033D01*
X-28940163Y-16629416D01*
X-29027822Y-16760608D01*
X-29139392Y-16872178D01*
X-29270584Y-16959837D01*
X-29270585Y-16959838D01*
X-29270586Y-16959838D01*
X-29416358Y-17020219D01*
X-29571107Y-17051000D01*
X-29728893Y-17051000D01*
X-29883642Y-17020219D01*
X-30029414Y-16959838D01*
X-30029415Y-16959838D01*
X-30029416Y-16959837D01*
X-30160608Y-16872178D01*
X-30272178Y-16760608D01*
X-30359837Y-16629416D01*
X-30393961Y-16547033D01*
X-30420219Y-16483642D01*
X-30451000Y-16328893D01*
X-30451000Y-16171107D01*
X-30420219Y-16016358D01*
X-30359838Y-15870586D01*
X-30319455Y-15810148D01*
X-30272178Y-15739392D01*
X-30160608Y-15627822D01*
X-30029416Y-15540163D01*
X-30000301Y-15528103D01*
X-29883642Y-15479781D01*
X-29728893Y-15449000D01*
X-29571107Y-15449000D01*
X-29416358Y-15479781D01*
X-29416358Y-15479781D01*
G37*
G36*
X41909672Y-16148449D02*
G01*
X41909674Y-16148450D01*
X41909675Y-16148450D01*
X41978103Y-16176793D01*
X42039686Y-16217942D01*
X42092058Y-16270314D01*
X42133207Y-16331897D01*
X42161550Y-16400325D01*
X42161551Y-16400328D01*
X42176000Y-16472966D01*
X42176000Y-16547034D01*
X42165715Y-16598741D01*
X42161550Y-16619675D01*
X42133207Y-16688103D01*
X42092058Y-16749686D01*
X42039686Y-16802058D01*
X41978103Y-16843207D01*
X41909675Y-16871550D01*
X41909674Y-16871550D01*
X41909672Y-16871551D01*
X41837034Y-16886000D01*
X41762966Y-16886000D01*
X41690328Y-16871551D01*
X41690326Y-16871550D01*
X41690325Y-16871550D01*
X41621897Y-16843207D01*
X41560314Y-16802058D01*
X41507942Y-16749686D01*
X41466793Y-16688103D01*
X41438450Y-16619675D01*
X41434286Y-16598741D01*
X41424000Y-16547034D01*
X41424000Y-16472966D01*
X41438449Y-16400328D01*
X41438450Y-16400325D01*
X41466793Y-16331897D01*
X41507942Y-16270314D01*
X41560314Y-16217942D01*
X41621897Y-16176793D01*
X41690325Y-16148450D01*
X41690326Y-16148450D01*
X41690328Y-16148449D01*
X41762966Y-16134000D01*
X41837034Y-16134000D01*
X41909672Y-16148449D01*
X41909672Y-16148449D01*
G37*
G36*
X-32975328Y-14988449D02*
G01*
X-32975326Y-14988450D01*
X-32975325Y-14988450D01*
X-32906897Y-15016793D01*
X-32845314Y-15057942D01*
X-32792942Y-15110314D01*
X-32751793Y-15171897D01*
X-32723450Y-15240325D01*
X-32723449Y-15240328D01*
X-32709000Y-15312966D01*
X-32709000Y-15387034D01*
X-32721326Y-15449000D01*
X-32723450Y-15459675D01*
X-32751793Y-15528103D01*
X-32792942Y-15589686D01*
X-32845314Y-15642058D01*
X-32906897Y-15683207D01*
X-32975325Y-15711550D01*
X-32975326Y-15711550D01*
X-32975328Y-15711551D01*
X-33047966Y-15726000D01*
X-33122034Y-15726000D01*
X-33194672Y-15711551D01*
X-33194674Y-15711550D01*
X-33194675Y-15711550D01*
X-33263103Y-15683207D01*
X-33324686Y-15642058D01*
X-33377058Y-15589686D01*
X-33418207Y-15528103D01*
X-33446550Y-15459675D01*
X-33448673Y-15449000D01*
X-33461000Y-15387034D01*
X-33461000Y-15312966D01*
X-33446551Y-15240328D01*
X-33446550Y-15240325D01*
X-33418207Y-15171897D01*
X-33377058Y-15110314D01*
X-33324686Y-15057942D01*
X-33263103Y-15016793D01*
X-33194675Y-14988450D01*
X-33194674Y-14988450D01*
X-33194672Y-14988449D01*
X-33122034Y-14974000D01*
X-33047966Y-14974000D01*
X-32975328Y-14988449D01*
X-32975328Y-14988449D01*
G37*
G36*
X35673512Y-13073927D02*
G01*
X35822812Y-13103624D01*
X35986784Y-13171544D01*
X36134354Y-13270147D01*
X36246605Y-13382398D01*
X36265536Y-13397934D01*
X36287147Y-13409485D01*
X36310596Y-13416598D01*
X36334982Y-13419000D01*
X38521000Y-13419000D01*
X38521000Y-14521000D01*
X36334982Y-14521000D01*
X36310596Y-14523402D01*
X36287147Y-14530515D01*
X36265536Y-14542066D01*
X36246605Y-14557602D01*
X36134354Y-14669853D01*
X35986784Y-14768456D01*
X35822812Y-14836376D01*
X35673512Y-14866073D01*
X35648742Y-14871000D01*
X35471258Y-14871000D01*
X35446488Y-14866073D01*
X35297188Y-14836376D01*
X35133216Y-14768456D01*
X34985646Y-14669853D01*
X34860147Y-14544354D01*
X34761544Y-14396784D01*
X34693624Y-14232812D01*
X34659000Y-14058741D01*
X34659000Y-13881259D01*
X34693624Y-13707188D01*
X34761544Y-13543216D01*
X34860147Y-13395646D01*
X34985646Y-13270147D01*
X35133216Y-13171544D01*
X35297188Y-13103624D01*
X35446488Y-13073927D01*
X35471258Y-13069000D01*
X35648742Y-13069000D01*
X35673512Y-13073927D01*
X35673512Y-13073927D01*
G37*
G36*
X-35446488Y-13073927D02*
G01*
X-35297188Y-13103624D01*
X-35133216Y-13171544D01*
X-34985646Y-13270147D01*
X-34873395Y-13382398D01*
X-34854464Y-13397934D01*
X-34832853Y-13409485D01*
X-34809404Y-13416598D01*
X-34785018Y-13419000D01*
X-32599000Y-13419000D01*
X-32599000Y-14521000D01*
X-34785018Y-14521000D01*
X-34809404Y-14523402D01*
X-34832853Y-14530515D01*
X-34854464Y-14542066D01*
X-34873395Y-14557602D01*
X-34985646Y-14669853D01*
X-35133216Y-14768456D01*
X-35297188Y-14836376D01*
X-35446488Y-14866073D01*
X-35471258Y-14871000D01*
X-35648742Y-14871000D01*
X-35673512Y-14866073D01*
X-35822812Y-14836376D01*
X-35986784Y-14768456D01*
X-36134354Y-14669853D01*
X-36259853Y-14544354D01*
X-36358456Y-14396784D01*
X-36426376Y-14232812D01*
X-36461000Y-14058741D01*
X-36461000Y-13881259D01*
X-36426376Y-13707188D01*
X-36358456Y-13543216D01*
X-36259853Y-13395646D01*
X-36134354Y-13270147D01*
X-35986784Y-13171544D01*
X-35822812Y-13103624D01*
X-35673512Y-13073927D01*
X-35648742Y-13069000D01*
X-35471258Y-13069000D01*
X-35446488Y-13073927D01*
X-35446488Y-13073927D01*
G37*
G36*
X41124672Y-13588449D02*
G01*
X41124674Y-13588450D01*
X41124675Y-13588450D01*
X41193103Y-13616793D01*
X41254686Y-13657942D01*
X41307058Y-13710314D01*
X41348207Y-13771897D01*
X41376550Y-13840325D01*
X41376551Y-13840328D01*
X41384693Y-13881259D01*
X41391000Y-13912967D01*
X41391000Y-13987033D01*
X41376550Y-14059675D01*
X41348207Y-14128103D01*
X41307058Y-14189686D01*
X41254686Y-14242058D01*
X41193103Y-14283207D01*
X41124675Y-14311550D01*
X41124674Y-14311550D01*
X41124672Y-14311551D01*
X41052034Y-14326000D01*
X40977966Y-14326000D01*
X40905328Y-14311551D01*
X40905326Y-14311550D01*
X40905325Y-14311550D01*
X40836897Y-14283207D01*
X40775314Y-14242058D01*
X40722942Y-14189686D01*
X40681793Y-14128103D01*
X40653450Y-14059675D01*
X40639000Y-13987033D01*
X40639000Y-13912967D01*
X40645307Y-13881259D01*
X40653449Y-13840328D01*
X40653450Y-13840325D01*
X40681793Y-13771897D01*
X40722942Y-13710314D01*
X40775314Y-13657942D01*
X40836897Y-13616793D01*
X40905325Y-13588450D01*
X40905326Y-13588450D01*
X40905328Y-13588449D01*
X40977966Y-13574000D01*
X41052034Y-13574000D01*
X41124672Y-13588449D01*
X41124672Y-13588449D01*
G37*
G36*
X-28849000Y-13801000D02*
G01*
X-30451000Y-13801000D01*
X-30451000Y-12199000D01*
X-28849000Y-12199000D01*
X-28849000Y-13801000D01*
X-28849000Y-13801000D01*
G37*
G36*
X-37877513Y-12295661D02*
G01*
X-37810451Y-12323439D01*
X-37810450Y-12323440D01*
X-37750095Y-12363767D01*
X-37698767Y-12415095D01*
X-37671821Y-12455423D01*
X-37658439Y-12475451D01*
X-37630661Y-12542513D01*
X-37616500Y-12613705D01*
X-37616500Y-12686295D01*
X-37630661Y-12757487D01*
X-37658439Y-12824549D01*
X-37658440Y-12824550D01*
X-37698767Y-12884905D01*
X-37750095Y-12936233D01*
X-37790423Y-12963179D01*
X-37810451Y-12976561D01*
X-37877513Y-13004339D01*
X-37948705Y-13018500D01*
X-38021295Y-13018500D01*
X-38092487Y-13004339D01*
X-38159549Y-12976561D01*
X-38179577Y-12963179D01*
X-38219905Y-12936233D01*
X-38271233Y-12884905D01*
X-38311560Y-12824550D01*
X-38311561Y-12824549D01*
X-38339339Y-12757487D01*
X-38353500Y-12686295D01*
X-38353500Y-12613705D01*
X-38339339Y-12542513D01*
X-38311561Y-12475451D01*
X-38298179Y-12455423D01*
X-38271233Y-12415095D01*
X-38219905Y-12363767D01*
X-38159550Y-12323440D01*
X-38159549Y-12323439D01*
X-38092487Y-12295661D01*
X-38021295Y-12281500D01*
X-37948705Y-12281500D01*
X-37877513Y-12295661D01*
X-37877513Y-12295661D01*
G37*
G36*
X35673512Y-10533927D02*
G01*
X35822812Y-10563624D01*
X35986784Y-10631544D01*
X36134354Y-10730147D01*
X36259853Y-10855646D01*
X36358456Y-11003216D01*
X36426376Y-11167188D01*
X36461000Y-11341259D01*
X36461000Y-11518741D01*
X36426376Y-11692812D01*
X36358456Y-11856784D01*
X36259853Y-12004354D01*
X36134354Y-12129853D01*
X35986784Y-12228456D01*
X35822812Y-12296376D01*
X35673512Y-12326073D01*
X35648742Y-12331000D01*
X35471258Y-12331000D01*
X35446488Y-12326073D01*
X35297188Y-12296376D01*
X35133216Y-12228456D01*
X34985646Y-12129853D01*
X34873395Y-12017602D01*
X34854464Y-12002066D01*
X34832853Y-11990515D01*
X34809404Y-11983402D01*
X34785018Y-11981000D01*
X32599000Y-11981000D01*
X32599000Y-10879000D01*
X34785018Y-10879000D01*
X34809404Y-10876598D01*
X34832853Y-10869485D01*
X34854464Y-10857934D01*
X34873395Y-10842398D01*
X34985646Y-10730147D01*
X35133216Y-10631544D01*
X35297188Y-10563624D01*
X35446488Y-10533927D01*
X35471258Y-10529000D01*
X35648742Y-10529000D01*
X35673512Y-10533927D01*
X35673512Y-10533927D01*
G37*
G36*
X-35446488Y-10533927D02*
G01*
X-35297188Y-10563624D01*
X-35133216Y-10631544D01*
X-34985646Y-10730147D01*
X-34860147Y-10855646D01*
X-34761544Y-11003216D01*
X-34693624Y-11167188D01*
X-34659000Y-11341259D01*
X-34659000Y-11518741D01*
X-34693624Y-11692812D01*
X-34761544Y-11856784D01*
X-34860147Y-12004354D01*
X-34985646Y-12129853D01*
X-35133216Y-12228456D01*
X-35297188Y-12296376D01*
X-35446488Y-12326073D01*
X-35471258Y-12331000D01*
X-35648742Y-12331000D01*
X-35673512Y-12326073D01*
X-35822812Y-12296376D01*
X-35986784Y-12228456D01*
X-36134354Y-12129853D01*
X-36246605Y-12017602D01*
X-36265536Y-12002066D01*
X-36287147Y-11990515D01*
X-36310596Y-11983402D01*
X-36334982Y-11981000D01*
X-38521000Y-11981000D01*
X-38521000Y-10879000D01*
X-36334982Y-10879000D01*
X-36310596Y-10876598D01*
X-36287147Y-10869485D01*
X-36265536Y-10857934D01*
X-36246605Y-10842398D01*
X-36134354Y-10730147D01*
X-35986784Y-10631544D01*
X-35822812Y-10563624D01*
X-35673512Y-10533927D01*
X-35648742Y-10529000D01*
X-35471258Y-10529000D01*
X-35446488Y-10533927D01*
X-35446488Y-10533927D01*
G37*
G36*
X29883642Y-8979781D02*
G01*
X30029414Y-9040162D01*
X30029416Y-9040163D01*
X30160608Y-9127822D01*
X30272178Y-9239392D01*
X30323889Y-9316784D01*
X30359838Y-9370586D01*
X30420219Y-9516358D01*
X30451000Y-9671107D01*
X30451000Y-9828893D01*
X30420219Y-9983642D01*
X30359838Y-10129414D01*
X30359837Y-10129416D01*
X30272178Y-10260608D01*
X30160608Y-10372178D01*
X30029416Y-10459837D01*
X30029415Y-10459838D01*
X30029414Y-10459838D01*
X29883642Y-10520219D01*
X29728893Y-10551000D01*
X29571107Y-10551000D01*
X29416358Y-10520219D01*
X29270586Y-10459838D01*
X29270585Y-10459838D01*
X29270584Y-10459837D01*
X29139392Y-10372178D01*
X29027822Y-10260608D01*
X28940163Y-10129416D01*
X28940162Y-10129414D01*
X28879781Y-9983642D01*
X28849000Y-9828893D01*
X28849000Y-9671107D01*
X28879781Y-9516358D01*
X28940162Y-9370586D01*
X28976111Y-9316784D01*
X29027822Y-9239392D01*
X29139392Y-9127822D01*
X29270584Y-9040163D01*
X29270586Y-9040162D01*
X29416358Y-8979781D01*
X29571107Y-8949000D01*
X29728893Y-8949000D01*
X29883642Y-8979781D01*
X29883642Y-8979781D01*
G37*
G36*
X-29416358Y-8979781D02*
G01*
X-29270586Y-9040162D01*
X-29270584Y-9040163D01*
X-29139392Y-9127822D01*
X-29027822Y-9239392D01*
X-28976111Y-9316784D01*
X-28940162Y-9370586D01*
X-28879781Y-9516358D01*
X-28849000Y-9671107D01*
X-28849000Y-9828893D01*
X-28879781Y-9983642D01*
X-28940162Y-10129414D01*
X-28940163Y-10129416D01*
X-29027822Y-10260608D01*
X-29139392Y-10372178D01*
X-29270584Y-10459837D01*
X-29270585Y-10459838D01*
X-29270586Y-10459838D01*
X-29416358Y-10520219D01*
X-29571107Y-10551000D01*
X-29728893Y-10551000D01*
X-29883642Y-10520219D01*
X-30029414Y-10459838D01*
X-30029415Y-10459838D01*
X-30029416Y-10459837D01*
X-30160608Y-10372178D01*
X-30272178Y-10260608D01*
X-30359837Y-10129416D01*
X-30359838Y-10129414D01*
X-30420219Y-9983642D01*
X-30451000Y-9828893D01*
X-30451000Y-9671107D01*
X-30420219Y-9516358D01*
X-30359838Y-9370586D01*
X-30323889Y-9316784D01*
X-30272178Y-9239392D01*
X-30160608Y-9127822D01*
X-30029416Y-9040163D01*
X-30029414Y-9040162D01*
X-29883642Y-8979781D01*
X-29728893Y-8949000D01*
X-29571107Y-8949000D01*
X-29416358Y-8979781D01*
X-29416358Y-8979781D01*
G37*
G36*
X35673512Y-7993927D02*
G01*
X35822812Y-8023624D01*
X35986784Y-8091544D01*
X36134354Y-8190147D01*
X36246605Y-8302398D01*
X36265536Y-8317934D01*
X36287147Y-8329485D01*
X36310596Y-8336598D01*
X36334982Y-8339000D01*
X38521000Y-8339000D01*
X38521000Y-9441000D01*
X36334982Y-9441000D01*
X36310596Y-9443402D01*
X36287147Y-9450515D01*
X36265536Y-9462066D01*
X36246605Y-9477602D01*
X36134354Y-9589853D01*
X35986784Y-9688456D01*
X35822812Y-9756376D01*
X35673512Y-9786073D01*
X35648742Y-9791000D01*
X35471258Y-9791000D01*
X35446488Y-9786073D01*
X35297188Y-9756376D01*
X35133216Y-9688456D01*
X34985646Y-9589853D01*
X34860147Y-9464354D01*
X34761544Y-9316784D01*
X34693624Y-9152812D01*
X34660861Y-8988096D01*
X34659000Y-8978742D01*
X34659000Y-8801258D01*
X34664840Y-8771897D01*
X34693624Y-8627188D01*
X34761544Y-8463216D01*
X34860147Y-8315646D01*
X34985646Y-8190147D01*
X35133216Y-8091544D01*
X35297188Y-8023624D01*
X35446488Y-7993927D01*
X35471258Y-7989000D01*
X35648742Y-7989000D01*
X35673512Y-7993927D01*
X35673512Y-7993927D01*
G37*
G36*
X-35446488Y-7993927D02*
G01*
X-35297188Y-8023624D01*
X-35133216Y-8091544D01*
X-34985646Y-8190147D01*
X-34873395Y-8302398D01*
X-34854464Y-8317934D01*
X-34832853Y-8329485D01*
X-34809404Y-8336598D01*
X-34785018Y-8339000D01*
X-32599000Y-8339000D01*
X-32599000Y-9441000D01*
X-34785018Y-9441000D01*
X-34809404Y-9443402D01*
X-34832853Y-9450515D01*
X-34854464Y-9462066D01*
X-34873395Y-9477602D01*
X-34985646Y-9589853D01*
X-35133216Y-9688456D01*
X-35297188Y-9756376D01*
X-35446488Y-9786073D01*
X-35471258Y-9791000D01*
X-35648742Y-9791000D01*
X-35673512Y-9786073D01*
X-35822812Y-9756376D01*
X-35986784Y-9688456D01*
X-36134354Y-9589853D01*
X-36259853Y-9464354D01*
X-36358456Y-9316784D01*
X-36426376Y-9152812D01*
X-36459139Y-8988096D01*
X-36461000Y-8978742D01*
X-36461000Y-8801258D01*
X-36455160Y-8771897D01*
X-36426376Y-8627188D01*
X-36358456Y-8463216D01*
X-36259853Y-8315646D01*
X-36134354Y-8190147D01*
X-35986784Y-8091544D01*
X-35822812Y-8023624D01*
X-35673512Y-7993927D01*
X-35648742Y-7989000D01*
X-35471258Y-7989000D01*
X-35446488Y-7993927D01*
X-35446488Y-7993927D01*
G37*
G36*
X-41575328Y-8588449D02*
G01*
X-41575326Y-8588450D01*
X-41575325Y-8588450D01*
X-41506897Y-8616793D01*
X-41445314Y-8657942D01*
X-41392942Y-8710314D01*
X-41351793Y-8771897D01*
X-41323450Y-8840325D01*
X-41323449Y-8840328D01*
X-41309000Y-8912966D01*
X-41309000Y-8987034D01*
X-41322551Y-9055159D01*
X-41323450Y-9059675D01*
X-41351793Y-9128103D01*
X-41392942Y-9189686D01*
X-41445314Y-9242058D01*
X-41506897Y-9283207D01*
X-41575325Y-9311550D01*
X-41575326Y-9311550D01*
X-41575328Y-9311551D01*
X-41647966Y-9326000D01*
X-41722034Y-9326000D01*
X-41794672Y-9311551D01*
X-41794674Y-9311550D01*
X-41794675Y-9311550D01*
X-41863103Y-9283207D01*
X-41924686Y-9242058D01*
X-41977058Y-9189686D01*
X-42018207Y-9128103D01*
X-42046550Y-9059675D01*
X-42047448Y-9055159D01*
X-42061000Y-8987034D01*
X-42061000Y-8912966D01*
X-42046551Y-8840328D01*
X-42046550Y-8840325D01*
X-42018207Y-8771897D01*
X-41977058Y-8710314D01*
X-41924686Y-8657942D01*
X-41863103Y-8616793D01*
X-41794675Y-8588450D01*
X-41794674Y-8588450D01*
X-41794672Y-8588449D01*
X-41722034Y-8574000D01*
X-41647966Y-8574000D01*
X-41575328Y-8588449D01*
X-41575328Y-8588449D01*
G37*
G36*
X31222479Y-8526270D02*
G01*
X31289541Y-8554048D01*
X31289542Y-8554049D01*
X31349897Y-8594376D01*
X31401225Y-8645704D01*
X31409402Y-8657942D01*
X31441553Y-8706060D01*
X31469331Y-8773122D01*
X31483492Y-8844314D01*
X31483492Y-8916904D01*
X31469331Y-8988096D01*
X31441553Y-9055158D01*
X31441552Y-9055159D01*
X31401225Y-9115514D01*
X31349897Y-9166842D01*
X31315709Y-9189685D01*
X31289541Y-9207170D01*
X31222479Y-9234948D01*
X31151287Y-9249109D01*
X31078697Y-9249109D01*
X31007505Y-9234948D01*
X30940443Y-9207170D01*
X30914275Y-9189685D01*
X30880087Y-9166842D01*
X30828759Y-9115514D01*
X30788432Y-9055159D01*
X30788431Y-9055158D01*
X30760653Y-8988096D01*
X30746492Y-8916904D01*
X30746492Y-8844314D01*
X30760653Y-8773122D01*
X30788431Y-8706060D01*
X30820582Y-8657942D01*
X30828759Y-8645704D01*
X30880087Y-8594376D01*
X30940442Y-8554049D01*
X30940443Y-8554048D01*
X31007505Y-8526270D01*
X31078697Y-8512109D01*
X31151287Y-8512109D01*
X31222479Y-8526270D01*
X31222479Y-8526270D01*
G37*
G36*
X-35446488Y-5453927D02*
G01*
X-35297188Y-5483624D01*
X-35133216Y-5551544D01*
X-34985646Y-5650147D01*
X-34860147Y-5775646D01*
X-34761544Y-5923216D01*
X-34693624Y-6087188D01*
X-34659000Y-6261259D01*
X-34659000Y-6438741D01*
X-34693624Y-6612812D01*
X-34761544Y-6776784D01*
X-34860147Y-6924354D01*
X-34985646Y-7049853D01*
X-35133216Y-7148456D01*
X-35297188Y-7216376D01*
X-35446488Y-7246073D01*
X-35471258Y-7251000D01*
X-35648742Y-7251000D01*
X-35673512Y-7246073D01*
X-35822812Y-7216376D01*
X-35986784Y-7148456D01*
X-36134354Y-7049853D01*
X-36246605Y-6937602D01*
X-36265536Y-6922066D01*
X-36287147Y-6910515D01*
X-36310596Y-6903402D01*
X-36334982Y-6901000D01*
X-38521000Y-6901000D01*
X-38521000Y-5799000D01*
X-36334982Y-5799000D01*
X-36310596Y-5796598D01*
X-36287147Y-5789485D01*
X-36265536Y-5777934D01*
X-36246605Y-5762398D01*
X-36134354Y-5650147D01*
X-35986784Y-5551544D01*
X-35822812Y-5483624D01*
X-35673512Y-5453927D01*
X-35648742Y-5449000D01*
X-35471258Y-5449000D01*
X-35446488Y-5453927D01*
X-35446488Y-5453927D01*
G37*
G36*
X35673512Y-5453927D02*
G01*
X35822812Y-5483624D01*
X35986784Y-5551544D01*
X36134354Y-5650147D01*
X36259853Y-5775646D01*
X36358456Y-5923216D01*
X36426376Y-6087188D01*
X36461000Y-6261259D01*
X36461000Y-6438741D01*
X36426376Y-6612812D01*
X36358456Y-6776784D01*
X36259853Y-6924354D01*
X36134354Y-7049853D01*
X35986784Y-7148456D01*
X35822812Y-7216376D01*
X35673512Y-7246073D01*
X35648742Y-7251000D01*
X35471258Y-7251000D01*
X35446488Y-7246073D01*
X35297188Y-7216376D01*
X35133216Y-7148456D01*
X34985646Y-7049853D01*
X34873395Y-6937602D01*
X34854464Y-6922066D01*
X34832853Y-6910515D01*
X34809404Y-6903402D01*
X34785018Y-6901000D01*
X32599000Y-6901000D01*
X32599000Y-6687066D01*
X32596598Y-6662680D01*
X32589485Y-6639231D01*
X32577934Y-6617620D01*
X32562389Y-6598678D01*
X32543447Y-6583133D01*
X32521836Y-6571582D01*
X32498387Y-6564469D01*
X32474001Y-6562067D01*
X32449615Y-6564469D01*
X32426166Y-6571582D01*
X32404555Y-6583133D01*
X32399908Y-6586238D01*
X32399905Y-6586241D01*
X32362025Y-6611551D01*
X32339549Y-6626569D01*
X32272487Y-6654347D01*
X32201295Y-6668508D01*
X32128705Y-6668508D01*
X32057513Y-6654347D01*
X31990451Y-6626569D01*
X31967975Y-6611551D01*
X31930095Y-6586241D01*
X31878767Y-6534913D01*
X31838440Y-6474558D01*
X31838439Y-6474557D01*
X31810661Y-6407495D01*
X31796500Y-6336303D01*
X31796500Y-6263713D01*
X31810661Y-6192521D01*
X31838439Y-6125459D01*
X31864011Y-6087188D01*
X31878767Y-6065103D01*
X31930095Y-6013775D01*
X31990450Y-5973448D01*
X31990451Y-5973447D01*
X32057513Y-5945669D01*
X32128705Y-5931508D01*
X32201295Y-5931508D01*
X32272487Y-5945669D01*
X32339549Y-5973447D01*
X32339550Y-5973448D01*
X32399905Y-6013775D01*
X32399908Y-6013778D01*
X32404555Y-6016883D01*
X32426165Y-6028434D01*
X32449614Y-6035547D01*
X32474000Y-6037949D01*
X32498386Y-6035547D01*
X32521835Y-6028434D01*
X32543446Y-6016883D01*
X32562388Y-6001338D01*
X32577934Y-5982396D01*
X32589485Y-5960786D01*
X32596598Y-5937337D01*
X32599000Y-5912950D01*
X32599000Y-5799000D01*
X34785018Y-5799000D01*
X34809404Y-5796598D01*
X34832853Y-5789485D01*
X34854464Y-5777934D01*
X34873395Y-5762398D01*
X34985646Y-5650147D01*
X35133216Y-5551544D01*
X35297188Y-5483624D01*
X35446488Y-5453927D01*
X35471258Y-5449000D01*
X35648742Y-5449000D01*
X35673512Y-5453927D01*
X35673512Y-5453927D01*
G37*
G36*
X-30075328Y-5888449D02*
G01*
X-30075326Y-5888450D01*
X-30075325Y-5888450D01*
X-30006897Y-5916793D01*
X-29945314Y-5957942D01*
X-29892942Y-6010314D01*
X-29851793Y-6071897D01*
X-29829608Y-6125458D01*
X-29823449Y-6140328D01*
X-29809000Y-6212966D01*
X-29809000Y-6287034D01*
X-29818800Y-6336303D01*
X-29823450Y-6359675D01*
X-29851793Y-6428103D01*
X-29892942Y-6489686D01*
X-29945314Y-6542058D01*
X-30006897Y-6583207D01*
X-30075325Y-6611550D01*
X-30075326Y-6611550D01*
X-30075328Y-6611551D01*
X-30147966Y-6626000D01*
X-30222034Y-6626000D01*
X-30294672Y-6611551D01*
X-30294674Y-6611550D01*
X-30294675Y-6611550D01*
X-30363103Y-6583207D01*
X-30424686Y-6542058D01*
X-30477058Y-6489686D01*
X-30518207Y-6428103D01*
X-30546550Y-6359675D01*
X-30551199Y-6336303D01*
X-30561000Y-6287034D01*
X-30561000Y-6212966D01*
X-30546551Y-6140328D01*
X-30540392Y-6125458D01*
X-30518207Y-6071897D01*
X-30477058Y-6010314D01*
X-30424686Y-5957942D01*
X-30363103Y-5916793D01*
X-30294675Y-5888450D01*
X-30294674Y-5888450D01*
X-30294672Y-5888449D01*
X-30222034Y-5874000D01*
X-30147966Y-5874000D01*
X-30075328Y-5888449D01*
X-30075328Y-5888449D01*
G37*
G36*
X-35446488Y-2913927D02*
G01*
X-35297188Y-2943624D01*
X-35133216Y-3011544D01*
X-34985646Y-3110147D01*
X-34873395Y-3222398D01*
X-34854464Y-3237934D01*
X-34832853Y-3249485D01*
X-34809404Y-3256598D01*
X-34785018Y-3259000D01*
X-32599000Y-3259000D01*
X-32599000Y-4361000D01*
X-34785018Y-4361000D01*
X-34809404Y-4363402D01*
X-34832853Y-4370515D01*
X-34854464Y-4382066D01*
X-34873395Y-4397602D01*
X-34985646Y-4509853D01*
X-35133216Y-4608456D01*
X-35297188Y-4676376D01*
X-35446488Y-4706073D01*
X-35471258Y-4711000D01*
X-35648742Y-4711000D01*
X-35673512Y-4706073D01*
X-35822812Y-4676376D01*
X-35986784Y-4608456D01*
X-36134354Y-4509853D01*
X-36259853Y-4384354D01*
X-36358456Y-4236784D01*
X-36426376Y-4072812D01*
X-36461000Y-3898741D01*
X-36461000Y-3721259D01*
X-36426376Y-3547188D01*
X-36358456Y-3383216D01*
X-36259853Y-3235646D01*
X-36134354Y-3110147D01*
X-35986784Y-3011544D01*
X-35822812Y-2943624D01*
X-35673512Y-2913927D01*
X-35648742Y-2909000D01*
X-35471258Y-2909000D01*
X-35446488Y-2913927D01*
X-35446488Y-2913927D01*
G37*
G36*
X35673512Y-2913927D02*
G01*
X35822812Y-2943624D01*
X35986784Y-3011544D01*
X36134354Y-3110147D01*
X36246605Y-3222398D01*
X36265536Y-3237934D01*
X36287147Y-3249485D01*
X36310596Y-3256598D01*
X36334982Y-3259000D01*
X38521000Y-3259000D01*
X38521000Y-4361000D01*
X36334982Y-4361000D01*
X36310596Y-4363402D01*
X36287147Y-4370515D01*
X36265536Y-4382066D01*
X36246605Y-4397602D01*
X36134354Y-4509853D01*
X35986784Y-4608456D01*
X35822812Y-4676376D01*
X35673512Y-4706073D01*
X35648742Y-4711000D01*
X35471258Y-4711000D01*
X35446488Y-4706073D01*
X35297188Y-4676376D01*
X35133216Y-4608456D01*
X34985646Y-4509853D01*
X34860147Y-4384354D01*
X34761544Y-4236784D01*
X34693624Y-4072812D01*
X34659000Y-3898741D01*
X34659000Y-3721259D01*
X34693624Y-3547188D01*
X34761544Y-3383216D01*
X34860147Y-3235646D01*
X34985646Y-3110147D01*
X35133216Y-3011544D01*
X35297188Y-2943624D01*
X35446488Y-2913927D01*
X35471258Y-2909000D01*
X35648742Y-2909000D01*
X35673512Y-2913927D01*
X35673512Y-2913927D01*
G37*
G36*
X33222417Y-3495661D02*
G01*
X33289479Y-3523439D01*
X33289480Y-3523440D01*
X33349835Y-3563767D01*
X33401163Y-3615095D01*
X33428109Y-3655423D01*
X33441491Y-3675451D01*
X33469269Y-3742513D01*
X33483430Y-3813705D01*
X33483430Y-3886295D01*
X33469269Y-3957487D01*
X33441491Y-4024549D01*
X33441490Y-4024550D01*
X33401163Y-4084905D01*
X33349835Y-4136233D01*
X33309507Y-4163179D01*
X33289479Y-4176561D01*
X33222417Y-4204339D01*
X33151225Y-4218500D01*
X33078635Y-4218500D01*
X33007443Y-4204339D01*
X32940381Y-4176561D01*
X32920353Y-4163179D01*
X32880025Y-4136233D01*
X32828697Y-4084905D01*
X32788370Y-4024550D01*
X32788369Y-4024549D01*
X32760591Y-3957487D01*
X32746430Y-3886295D01*
X32746430Y-3813705D01*
X32760591Y-3742513D01*
X32788369Y-3675451D01*
X32801751Y-3655423D01*
X32828697Y-3615095D01*
X32880025Y-3563767D01*
X32940380Y-3523440D01*
X32940381Y-3523439D01*
X33007443Y-3495661D01*
X33078635Y-3481500D01*
X33151225Y-3481500D01*
X33222417Y-3495661D01*
X33222417Y-3495661D01*
G37*
G36*
X29883642Y-2479781D02*
G01*
X30029414Y-2540162D01*
X30029416Y-2540163D01*
X30160608Y-2627822D01*
X30272178Y-2739392D01*
X30359837Y-2870584D01*
X30359838Y-2870586D01*
X30420219Y-3016358D01*
X30451000Y-3171107D01*
X30451000Y-3328893D01*
X30420219Y-3483642D01*
X30387030Y-3563767D01*
X30359837Y-3629416D01*
X30272178Y-3760608D01*
X30160608Y-3872178D01*
X30029416Y-3959837D01*
X30029415Y-3959838D01*
X30029414Y-3959838D01*
X29883642Y-4020219D01*
X29728893Y-4051000D01*
X29571107Y-4051000D01*
X29416358Y-4020219D01*
X29270586Y-3959838D01*
X29270585Y-3959838D01*
X29270584Y-3959837D01*
X29139392Y-3872178D01*
X29027822Y-3760608D01*
X28940163Y-3629416D01*
X28912970Y-3563767D01*
X28879781Y-3483642D01*
X28849000Y-3328893D01*
X28849000Y-3171107D01*
X28879781Y-3016358D01*
X28940162Y-2870586D01*
X28940163Y-2870584D01*
X29027822Y-2739392D01*
X29139392Y-2627822D01*
X29270584Y-2540163D01*
X29270586Y-2540162D01*
X29416358Y-2479781D01*
X29571107Y-2449000D01*
X29728893Y-2449000D01*
X29883642Y-2479781D01*
X29883642Y-2479781D01*
G37*
G36*
X-29416358Y-2479781D02*
G01*
X-29270586Y-2540162D01*
X-29270584Y-2540163D01*
X-29139392Y-2627822D01*
X-29027822Y-2739392D01*
X-28940163Y-2870584D01*
X-28940162Y-2870586D01*
X-28879781Y-3016358D01*
X-28849000Y-3171107D01*
X-28849000Y-3328893D01*
X-28879781Y-3483642D01*
X-28912970Y-3563767D01*
X-28940163Y-3629416D01*
X-29027822Y-3760608D01*
X-29139392Y-3872178D01*
X-29270584Y-3959837D01*
X-29270585Y-3959838D01*
X-29270586Y-3959838D01*
X-29416358Y-4020219D01*
X-29571107Y-4051000D01*
X-29728893Y-4051000D01*
X-29883642Y-4020219D01*
X-30029414Y-3959838D01*
X-30029415Y-3959838D01*
X-30029416Y-3959837D01*
X-30160608Y-3872178D01*
X-30272178Y-3760608D01*
X-30359837Y-3629416D01*
X-30387030Y-3563767D01*
X-30420219Y-3483642D01*
X-30451000Y-3328893D01*
X-30451000Y-3171107D01*
X-30420219Y-3016358D01*
X-30359838Y-2870586D01*
X-30359837Y-2870584D01*
X-30272178Y-2739392D01*
X-30160608Y-2627822D01*
X-30029416Y-2540163D01*
X-30029414Y-2540162D01*
X-29883642Y-2479781D01*
X-29728893Y-2449000D01*
X-29571107Y-2449000D01*
X-29416358Y-2479781D01*
X-29416358Y-2479781D01*
G37*
G36*
X35673512Y-373927D02*
G01*
X35822812Y-403624D01*
X35986784Y-471544D01*
X36134354Y-570147D01*
X36259853Y-695646D01*
X36358456Y-843216D01*
X36426376Y-1007188D01*
X36461000Y-1181259D01*
X36461000Y-1358741D01*
X36426376Y-1532812D01*
X36358456Y-1696784D01*
X36259853Y-1844354D01*
X36134354Y-1969853D01*
X35986784Y-2068456D01*
X35822812Y-2136376D01*
X35673512Y-2166073D01*
X35648742Y-2171000D01*
X35471258Y-2171000D01*
X35446488Y-2166073D01*
X35297188Y-2136376D01*
X35133216Y-2068456D01*
X34985646Y-1969853D01*
X34873395Y-1857602D01*
X34854464Y-1842066D01*
X34832853Y-1830515D01*
X34809404Y-1823402D01*
X34785018Y-1821000D01*
X32599000Y-1821000D01*
X32599000Y-719000D01*
X34785018Y-719000D01*
X34809404Y-716598D01*
X34832853Y-709485D01*
X34854464Y-697934D01*
X34873395Y-682398D01*
X34985646Y-570147D01*
X35133216Y-471544D01*
X35297188Y-403624D01*
X35446488Y-373927D01*
X35471258Y-369000D01*
X35648742Y-369000D01*
X35673512Y-373927D01*
X35673512Y-373927D01*
G37*
G36*
X-35446488Y-373927D02*
G01*
X-35297188Y-403624D01*
X-35133216Y-471544D01*
X-34985646Y-570147D01*
X-34860147Y-695646D01*
X-34761544Y-843216D01*
X-34693624Y-1007188D01*
X-34659000Y-1181259D01*
X-34659000Y-1358741D01*
X-34693624Y-1532812D01*
X-34761544Y-1696784D01*
X-34860147Y-1844354D01*
X-34985646Y-1969853D01*
X-35133216Y-2068456D01*
X-35297188Y-2136376D01*
X-35446488Y-2166073D01*
X-35471258Y-2171000D01*
X-35648742Y-2171000D01*
X-35673512Y-2166073D01*
X-35822812Y-2136376D01*
X-35986784Y-2068456D01*
X-36134354Y-1969853D01*
X-36246605Y-1857602D01*
X-36265536Y-1842066D01*
X-36287147Y-1830515D01*
X-36310596Y-1823402D01*
X-36334982Y-1821000D01*
X-38521000Y-1821000D01*
X-38521000Y-719000D01*
X-36334982Y-719000D01*
X-36310596Y-716598D01*
X-36287147Y-709485D01*
X-36265536Y-697934D01*
X-36246605Y-682398D01*
X-36134354Y-570147D01*
X-35986784Y-471544D01*
X-35822812Y-403624D01*
X-35673512Y-373927D01*
X-35648742Y-369000D01*
X-35471258Y-369000D01*
X-35446488Y-373927D01*
X-35446488Y-373927D01*
G37*
G36*
X-37975328Y804561D02*
G01*
X-37975326Y804560D01*
X-37975325Y804560D01*
X-37906897Y776217D01*
X-37845314Y735068D01*
X-37792942Y682696D01*
X-37751793Y621113D01*
X-37723450Y552685D01*
X-37709000Y480043D01*
X-37709000Y405977D01*
X-37723450Y333335D01*
X-37751793Y264907D01*
X-37792942Y203324D01*
X-37845314Y150952D01*
X-37906897Y109803D01*
X-37975325Y81460D01*
X-37975326Y81460D01*
X-37975328Y81459D01*
X-38047966Y67010D01*
X-38122034Y67010D01*
X-38194672Y81459D01*
X-38194674Y81460D01*
X-38194675Y81460D01*
X-38263103Y109803D01*
X-38324686Y150952D01*
X-38377058Y203324D01*
X-38418207Y264907D01*
X-38446550Y333335D01*
X-38461000Y405977D01*
X-38461000Y480043D01*
X-38446550Y552685D01*
X-38418207Y621113D01*
X-38377058Y682696D01*
X-38324686Y735068D01*
X-38263103Y776217D01*
X-38194675Y804560D01*
X-38194674Y804560D01*
X-38194672Y804561D01*
X-38122034Y819010D01*
X-38047966Y819010D01*
X-37975328Y804561D01*
X-37975328Y804561D01*
G37*
G36*
X-35446488Y2166073D02*
G01*
X-35297188Y2136376D01*
X-35133216Y2068456D01*
X-34985646Y1969853D01*
X-34873395Y1857602D01*
X-34854464Y1842066D01*
X-34832853Y1830515D01*
X-34809404Y1823402D01*
X-34785018Y1821000D01*
X-32599000Y1821000D01*
X-32599000Y719000D01*
X-34785018Y719000D01*
X-34809404Y716598D01*
X-34832853Y709485D01*
X-34854464Y697934D01*
X-34873395Y682398D01*
X-34985646Y570147D01*
X-35133216Y471544D01*
X-35297188Y403624D01*
X-35446488Y373927D01*
X-35471258Y369000D01*
X-35648742Y369000D01*
X-35673512Y373927D01*
X-35822812Y403624D01*
X-35986784Y471544D01*
X-36134354Y570147D01*
X-36259853Y695646D01*
X-36358456Y843216D01*
X-36426376Y1007188D01*
X-36461000Y1181259D01*
X-36461000Y1358741D01*
X-36426376Y1532812D01*
X-36358456Y1696784D01*
X-36259853Y1844354D01*
X-36134354Y1969853D01*
X-35986784Y2068456D01*
X-35822812Y2136376D01*
X-35673512Y2166073D01*
X-35648742Y2171000D01*
X-35471258Y2171000D01*
X-35446488Y2166073D01*
X-35446488Y2166073D01*
G37*
G36*
X35673512Y2166073D02*
G01*
X35822812Y2136376D01*
X35986784Y2068456D01*
X36134354Y1969853D01*
X36246605Y1857602D01*
X36265536Y1842066D01*
X36287147Y1830515D01*
X36310596Y1823402D01*
X36334982Y1821000D01*
X38521000Y1821000D01*
X38521000Y719000D01*
X36334982Y719000D01*
X36310596Y716598D01*
X36287147Y709485D01*
X36265536Y697934D01*
X36246605Y682398D01*
X36134354Y570147D01*
X35986784Y471544D01*
X35822812Y403624D01*
X35673512Y373927D01*
X35648742Y369000D01*
X35471258Y369000D01*
X35446488Y373927D01*
X35297188Y403624D01*
X35133216Y471544D01*
X34985646Y570147D01*
X34860147Y695646D01*
X34761544Y843216D01*
X34693624Y1007188D01*
X34659000Y1181259D01*
X34659000Y1358741D01*
X34693624Y1532812D01*
X34761544Y1696784D01*
X34860147Y1844354D01*
X34985646Y1969853D01*
X35133216Y2068456D01*
X35297188Y2136376D01*
X35446488Y2166073D01*
X35471258Y2171000D01*
X35648742Y2171000D01*
X35673512Y2166073D01*
X35673512Y2166073D01*
G37*
G36*
X29883642Y4020219D02*
G01*
X30029414Y3959838D01*
X30029416Y3959837D01*
X30160608Y3872178D01*
X30272178Y3760608D01*
X30309725Y3704414D01*
X30359838Y3629414D01*
X30420219Y3483642D01*
X30451000Y3328893D01*
X30451000Y3171107D01*
X30420219Y3016358D01*
X30359838Y2870586D01*
X30359837Y2870584D01*
X30272178Y2739392D01*
X30160608Y2627822D01*
X30029416Y2540163D01*
X30029415Y2540162D01*
X30029414Y2540162D01*
X29883642Y2479781D01*
X29728893Y2449000D01*
X29571107Y2449000D01*
X29416358Y2479781D01*
X29270586Y2540162D01*
X29270585Y2540162D01*
X29270584Y2540163D01*
X29139392Y2627822D01*
X29027822Y2739392D01*
X28940163Y2870584D01*
X28940162Y2870586D01*
X28879781Y3016358D01*
X28849000Y3171107D01*
X28849000Y3328893D01*
X28879781Y3483642D01*
X28940162Y3629414D01*
X28990275Y3704414D01*
X29027822Y3760608D01*
X29139392Y3872178D01*
X29270584Y3959837D01*
X29270586Y3959838D01*
X29416358Y4020219D01*
X29571107Y4051000D01*
X29728893Y4051000D01*
X29883642Y4020219D01*
X29883642Y4020219D01*
G37*
G36*
X-29416358Y4095219D02*
G01*
X-29270586Y4034838D01*
X-29270584Y4034837D01*
X-29139392Y3947178D01*
X-29027822Y3835608D01*
X-28940163Y3704416D01*
X-28940162Y3704414D01*
X-28879781Y3558642D01*
X-28849000Y3403893D01*
X-28849000Y3246107D01*
X-28879781Y3091358D01*
X-28940162Y2945586D01*
X-28940163Y2945584D01*
X-29027822Y2814392D01*
X-29139392Y2702822D01*
X-29270584Y2615163D01*
X-29270585Y2615162D01*
X-29270586Y2615162D01*
X-29416358Y2554781D01*
X-29571107Y2524000D01*
X-29728893Y2524000D01*
X-29883642Y2554781D01*
X-30029414Y2615162D01*
X-30029415Y2615162D01*
X-30029416Y2615163D01*
X-30160608Y2702822D01*
X-30272178Y2814392D01*
X-30359837Y2945584D01*
X-30359838Y2945586D01*
X-30420219Y3091358D01*
X-30451000Y3246107D01*
X-30451000Y3403893D01*
X-30420219Y3558642D01*
X-30359838Y3704414D01*
X-30359837Y3704416D01*
X-30272178Y3835608D01*
X-30160608Y3947178D01*
X-30029416Y4034837D01*
X-30029414Y4034838D01*
X-29883642Y4095219D01*
X-29728893Y4126000D01*
X-29571107Y4126000D01*
X-29416358Y4095219D01*
X-29416358Y4095219D01*
G37*
G36*
X35673512Y4706073D02*
G01*
X35822812Y4676376D01*
X35986784Y4608456D01*
X36134354Y4509853D01*
X36259853Y4384354D01*
X36358456Y4236784D01*
X36426376Y4072812D01*
X36461000Y3898741D01*
X36461000Y3721259D01*
X36426376Y3547188D01*
X36358456Y3383216D01*
X36259853Y3235646D01*
X36134354Y3110147D01*
X35986784Y3011544D01*
X35822812Y2943624D01*
X35673512Y2913927D01*
X35648742Y2909000D01*
X35471258Y2909000D01*
X35446488Y2913927D01*
X35297188Y2943624D01*
X35133216Y3011544D01*
X34985646Y3110147D01*
X34873395Y3222398D01*
X34854464Y3237934D01*
X34832853Y3249485D01*
X34809404Y3256598D01*
X34785018Y3259000D01*
X32599000Y3259000D01*
X32599000Y4361000D01*
X34785018Y4361000D01*
X34809404Y4363402D01*
X34832853Y4370515D01*
X34854464Y4382066D01*
X34873395Y4397602D01*
X34985646Y4509853D01*
X35133216Y4608456D01*
X35297188Y4676376D01*
X35446488Y4706073D01*
X35471258Y4711000D01*
X35648742Y4711000D01*
X35673512Y4706073D01*
X35673512Y4706073D01*
G37*
G36*
X-35446488Y4706073D02*
G01*
X-35297188Y4676376D01*
X-35133216Y4608456D01*
X-34985646Y4509853D01*
X-34860147Y4384354D01*
X-34761544Y4236784D01*
X-34693624Y4072812D01*
X-34659000Y3898741D01*
X-34659000Y3721259D01*
X-34693624Y3547188D01*
X-34761544Y3383216D01*
X-34860147Y3235646D01*
X-34985646Y3110147D01*
X-35133216Y3011544D01*
X-35297188Y2943624D01*
X-35446488Y2913927D01*
X-35471258Y2909000D01*
X-35648742Y2909000D01*
X-35673512Y2913927D01*
X-35822812Y2943624D01*
X-35986784Y3011544D01*
X-36134354Y3110147D01*
X-36246605Y3222398D01*
X-36265536Y3237934D01*
X-36287147Y3249485D01*
X-36310596Y3256598D01*
X-36334982Y3259000D01*
X-38521000Y3259000D01*
X-38521000Y4361000D01*
X-36334982Y4361000D01*
X-36310596Y4363402D01*
X-36287147Y4370515D01*
X-36265536Y4382066D01*
X-36246605Y4397602D01*
X-36134354Y4509853D01*
X-35986784Y4608456D01*
X-35822812Y4676376D01*
X-35673512Y4706073D01*
X-35648742Y4711000D01*
X-35471258Y4711000D01*
X-35446488Y4706073D01*
X-35446488Y4706073D01*
G37*
G36*
X-35446488Y7246073D02*
G01*
X-35297188Y7216376D01*
X-35133216Y7148456D01*
X-34985646Y7049853D01*
X-34873395Y6937602D01*
X-34854464Y6922066D01*
X-34832853Y6910515D01*
X-34809404Y6903402D01*
X-34785018Y6901000D01*
X-32599000Y6901000D01*
X-32599000Y5799000D01*
X-34785018Y5799000D01*
X-34809404Y5796598D01*
X-34832853Y5789485D01*
X-34854464Y5777934D01*
X-34873395Y5762398D01*
X-34985646Y5650147D01*
X-35133216Y5551544D01*
X-35297188Y5483624D01*
X-35446488Y5453927D01*
X-35471258Y5449000D01*
X-35648742Y5449000D01*
X-35673512Y5453927D01*
X-35822812Y5483624D01*
X-35986784Y5551544D01*
X-36134354Y5650147D01*
X-36259853Y5775646D01*
X-36358456Y5923216D01*
X-36426376Y6087188D01*
X-36461000Y6261259D01*
X-36461000Y6438741D01*
X-36426376Y6612812D01*
X-36358456Y6776784D01*
X-36259853Y6924354D01*
X-36134354Y7049853D01*
X-35986784Y7148456D01*
X-35822812Y7216376D01*
X-35673512Y7246073D01*
X-35648742Y7251000D01*
X-35471258Y7251000D01*
X-35446488Y7246073D01*
X-35446488Y7246073D01*
G37*
G36*
X35673512Y7246073D02*
G01*
X35822812Y7216376D01*
X35986784Y7148456D01*
X36134354Y7049853D01*
X36246605Y6937602D01*
X36265536Y6922066D01*
X36287147Y6910515D01*
X36310596Y6903402D01*
X36334982Y6901000D01*
X38521000Y6901000D01*
X38521000Y5799000D01*
X36334982Y5799000D01*
X36310596Y5796598D01*
X36287147Y5789485D01*
X36265536Y5777934D01*
X36246605Y5762398D01*
X36134354Y5650147D01*
X35986784Y5551544D01*
X35822812Y5483624D01*
X35673512Y5453927D01*
X35648742Y5449000D01*
X35471258Y5449000D01*
X35446488Y5453927D01*
X35297188Y5483624D01*
X35133216Y5551544D01*
X34985646Y5650147D01*
X34860147Y5775646D01*
X34761544Y5923216D01*
X34693624Y6087188D01*
X34659000Y6261259D01*
X34659000Y6438741D01*
X34693624Y6612812D01*
X34761544Y6776784D01*
X34860147Y6924354D01*
X34985646Y7049853D01*
X35133216Y7148456D01*
X35297188Y7216376D01*
X35446488Y7246073D01*
X35471258Y7251000D01*
X35648742Y7251000D01*
X35673512Y7246073D01*
X35673512Y7246073D01*
G37*
G36*
X-35446488Y9786073D02*
G01*
X-35297188Y9756376D01*
X-35133216Y9688456D01*
X-34985646Y9589853D01*
X-34860147Y9464354D01*
X-34761544Y9316784D01*
X-34693624Y9152812D01*
X-34659000Y8978741D01*
X-34659000Y8801259D01*
X-34693624Y8627188D01*
X-34761544Y8463216D01*
X-34860147Y8315646D01*
X-34985646Y8190147D01*
X-35133216Y8091544D01*
X-35297188Y8023624D01*
X-35446488Y7993927D01*
X-35471258Y7989000D01*
X-35648742Y7989000D01*
X-35673512Y7993927D01*
X-35822812Y8023624D01*
X-35986784Y8091544D01*
X-36134354Y8190147D01*
X-36246605Y8302398D01*
X-36265536Y8317934D01*
X-36287147Y8329485D01*
X-36310596Y8336598D01*
X-36334982Y8339000D01*
X-38521000Y8339000D01*
X-38521000Y9441000D01*
X-36334982Y9441000D01*
X-36310596Y9443402D01*
X-36287147Y9450515D01*
X-36265536Y9462066D01*
X-36246605Y9477602D01*
X-36134354Y9589853D01*
X-35986784Y9688456D01*
X-35822812Y9756376D01*
X-35673512Y9786073D01*
X-35648742Y9791000D01*
X-35471258Y9791000D01*
X-35446488Y9786073D01*
X-35446488Y9786073D01*
G37*
G36*
X35673512Y9786073D02*
G01*
X35822812Y9756376D01*
X35986784Y9688456D01*
X36134354Y9589853D01*
X36259853Y9464354D01*
X36358456Y9316784D01*
X36426376Y9152812D01*
X36461000Y8978741D01*
X36461000Y8801259D01*
X36426376Y8627188D01*
X36358456Y8463216D01*
X36259853Y8315646D01*
X36134354Y8190147D01*
X35986784Y8091544D01*
X35822812Y8023624D01*
X35673512Y7993927D01*
X35648742Y7989000D01*
X35471258Y7989000D01*
X35446488Y7993927D01*
X35297188Y8023624D01*
X35133216Y8091544D01*
X34985646Y8190147D01*
X34873395Y8302398D01*
X34854464Y8317934D01*
X34832853Y8329485D01*
X34809404Y8336598D01*
X34785018Y8339000D01*
X32599000Y8339000D01*
X32599000Y9441000D01*
X34785018Y9441000D01*
X34809404Y9443402D01*
X34832853Y9450515D01*
X34854464Y9462066D01*
X34873395Y9477602D01*
X34985646Y9589853D01*
X35133216Y9688456D01*
X35297188Y9756376D01*
X35446488Y9786073D01*
X35471258Y9791000D01*
X35648742Y9791000D01*
X35673512Y9786073D01*
X35673512Y9786073D01*
G37*
G36*
X-29416358Y10520219D02*
G01*
X-29270586Y10459838D01*
X-29270584Y10459837D01*
X-29139392Y10372178D01*
X-29027822Y10260608D01*
X-28940163Y10129416D01*
X-28940162Y10129414D01*
X-28879781Y9983642D01*
X-28849000Y9828893D01*
X-28849000Y9671107D01*
X-28879781Y9516358D01*
X-28940162Y9370586D01*
X-28940163Y9370584D01*
X-29027822Y9239392D01*
X-29139392Y9127822D01*
X-29270584Y9040163D01*
X-29270585Y9040162D01*
X-29270586Y9040162D01*
X-29416358Y8979781D01*
X-29571107Y8949000D01*
X-29728893Y8949000D01*
X-29883642Y8979781D01*
X-30029414Y9040162D01*
X-30029415Y9040162D01*
X-30029416Y9040163D01*
X-30160608Y9127822D01*
X-30272178Y9239392D01*
X-30359837Y9370584D01*
X-30359838Y9370586D01*
X-30420219Y9516358D01*
X-30451000Y9671107D01*
X-30451000Y9828893D01*
X-30420219Y9983642D01*
X-30359838Y10129414D01*
X-30359837Y10129416D01*
X-30272178Y10260608D01*
X-30160608Y10372178D01*
X-30029416Y10459837D01*
X-30029414Y10459838D01*
X-29883642Y10520219D01*
X-29728893Y10551000D01*
X-29571107Y10551000D01*
X-29416358Y10520219D01*
X-29416358Y10520219D01*
G37*
G36*
X29883642Y10520219D02*
G01*
X30029414Y10459838D01*
X30029416Y10459837D01*
X30160608Y10372178D01*
X30272178Y10260608D01*
X30359837Y10129416D01*
X30359838Y10129414D01*
X30420219Y9983642D01*
X30451000Y9828893D01*
X30451000Y9671107D01*
X30420219Y9516358D01*
X30359838Y9370586D01*
X30359837Y9370584D01*
X30272178Y9239392D01*
X30160608Y9127822D01*
X30029416Y9040163D01*
X30029415Y9040162D01*
X30029414Y9040162D01*
X29883642Y8979781D01*
X29728893Y8949000D01*
X29571107Y8949000D01*
X29416358Y8979781D01*
X29270586Y9040162D01*
X29270585Y9040162D01*
X29270584Y9040163D01*
X29139392Y9127822D01*
X29027822Y9239392D01*
X28940163Y9370584D01*
X28940162Y9370586D01*
X28879781Y9516358D01*
X28849000Y9671107D01*
X28849000Y9828893D01*
X28879781Y9983642D01*
X28940162Y10129414D01*
X28940163Y10129416D01*
X29027822Y10260608D01*
X29139392Y10372178D01*
X29270584Y10459837D01*
X29270586Y10459838D01*
X29416358Y10520219D01*
X29571107Y10551000D01*
X29728893Y10551000D01*
X29883642Y10520219D01*
X29883642Y10520219D01*
G37*
G36*
X-35446488Y12326073D02*
G01*
X-35297188Y12296376D01*
X-35133216Y12228456D01*
X-34985646Y12129853D01*
X-34873395Y12017602D01*
X-34854464Y12002066D01*
X-34832853Y11990515D01*
X-34809404Y11983402D01*
X-34785018Y11981000D01*
X-32599000Y11981000D01*
X-32599000Y10879000D01*
X-34785018Y10879000D01*
X-34809404Y10876598D01*
X-34832853Y10869485D01*
X-34854464Y10857934D01*
X-34873395Y10842398D01*
X-34985646Y10730147D01*
X-35133216Y10631544D01*
X-35297188Y10563624D01*
X-35446488Y10533927D01*
X-35471258Y10529000D01*
X-35648742Y10529000D01*
X-35673512Y10533927D01*
X-35822812Y10563624D01*
X-35986784Y10631544D01*
X-36134354Y10730147D01*
X-36259853Y10855646D01*
X-36358456Y11003216D01*
X-36426376Y11167188D01*
X-36461000Y11341259D01*
X-36461000Y11518741D01*
X-36426376Y11692812D01*
X-36358456Y11856784D01*
X-36259853Y12004354D01*
X-36134354Y12129853D01*
X-35986784Y12228456D01*
X-35822812Y12296376D01*
X-35673512Y12326073D01*
X-35648742Y12331000D01*
X-35471258Y12331000D01*
X-35446488Y12326073D01*
X-35446488Y12326073D01*
G37*
G36*
X35673512Y12326073D02*
G01*
X35822812Y12296376D01*
X35986784Y12228456D01*
X36134354Y12129853D01*
X36246605Y12017602D01*
X36265536Y12002066D01*
X36287147Y11990515D01*
X36310596Y11983402D01*
X36334982Y11981000D01*
X38521000Y11981000D01*
X38521000Y10879000D01*
X36334982Y10879000D01*
X36310596Y10876598D01*
X36287147Y10869485D01*
X36265536Y10857934D01*
X36246605Y10842398D01*
X36134354Y10730147D01*
X35986784Y10631544D01*
X35822812Y10563624D01*
X35673512Y10533927D01*
X35648742Y10529000D01*
X35471258Y10529000D01*
X35446488Y10533927D01*
X35297188Y10563624D01*
X35133216Y10631544D01*
X34985646Y10730147D01*
X34860147Y10855646D01*
X34761544Y11003216D01*
X34693624Y11167188D01*
X34659000Y11341259D01*
X34659000Y11518741D01*
X34693624Y11692812D01*
X34761544Y11856784D01*
X34860147Y12004354D01*
X34985646Y12129853D01*
X35133216Y12228456D01*
X35297188Y12296376D01*
X35446488Y12326073D01*
X35471258Y12331000D01*
X35648742Y12331000D01*
X35673512Y12326073D01*
X35673512Y12326073D01*
G37*
G36*
X35673512Y14866073D02*
G01*
X35822812Y14836376D01*
X35986784Y14768456D01*
X36134354Y14669853D01*
X36259853Y14544354D01*
X36358456Y14396784D01*
X36426376Y14232812D01*
X36461000Y14058741D01*
X36461000Y13881259D01*
X36426376Y13707188D01*
X36358456Y13543216D01*
X36259853Y13395646D01*
X36134354Y13270147D01*
X35986784Y13171544D01*
X35822812Y13103624D01*
X35673512Y13073927D01*
X35648742Y13069000D01*
X35471258Y13069000D01*
X35446488Y13073927D01*
X35297188Y13103624D01*
X35133216Y13171544D01*
X34985646Y13270147D01*
X34873395Y13382398D01*
X34854464Y13397934D01*
X34832853Y13409485D01*
X34809404Y13416598D01*
X34785018Y13419000D01*
X32599000Y13419000D01*
X32599000Y14521000D01*
X34785018Y14521000D01*
X34809404Y14523402D01*
X34832853Y14530515D01*
X34854464Y14542066D01*
X34873395Y14557602D01*
X34985646Y14669853D01*
X35133216Y14768456D01*
X35297188Y14836376D01*
X35446488Y14866073D01*
X35471258Y14871000D01*
X35648742Y14871000D01*
X35673512Y14866073D01*
X35673512Y14866073D01*
G37*
G36*
X-35446488Y14866073D02*
G01*
X-35297188Y14836376D01*
X-35133216Y14768456D01*
X-34985646Y14669853D01*
X-34860147Y14544354D01*
X-34761544Y14396784D01*
X-34693624Y14232812D01*
X-34659000Y14058741D01*
X-34659000Y13881259D01*
X-34693624Y13707188D01*
X-34761544Y13543216D01*
X-34860147Y13395646D01*
X-34985646Y13270147D01*
X-35133216Y13171544D01*
X-35297188Y13103624D01*
X-35446488Y13073927D01*
X-35471258Y13069000D01*
X-35648742Y13069000D01*
X-35673512Y13073927D01*
X-35822812Y13103624D01*
X-35986784Y13171544D01*
X-36134354Y13270147D01*
X-36246605Y13382398D01*
X-36265536Y13397934D01*
X-36287147Y13409485D01*
X-36310596Y13416598D01*
X-36334982Y13419000D01*
X-38521000Y13419000D01*
X-38521000Y14521000D01*
X-36334982Y14521000D01*
X-36310596Y14523402D01*
X-36287147Y14530515D01*
X-36265536Y14542066D01*
X-36246605Y14557602D01*
X-36134354Y14669853D01*
X-35986784Y14768456D01*
X-35822812Y14836376D01*
X-35673512Y14866073D01*
X-35648742Y14871000D01*
X-35471258Y14871000D01*
X-35446488Y14866073D01*
X-35446488Y14866073D01*
G37*
G36*
X-29416358Y17020219D02*
G01*
X-29270586Y16959838D01*
X-29270584Y16959837D01*
X-29139392Y16872178D01*
X-29027822Y16760608D01*
X-28940163Y16629416D01*
X-28940162Y16629414D01*
X-28879781Y16483642D01*
X-28849000Y16328893D01*
X-28849000Y16171107D01*
X-28879781Y16016358D01*
X-28940162Y15870586D01*
X-28940163Y15870584D01*
X-29027822Y15739392D01*
X-29139392Y15627822D01*
X-29270584Y15540163D01*
X-29270585Y15540162D01*
X-29270586Y15540162D01*
X-29416358Y15479781D01*
X-29571107Y15449000D01*
X-29728893Y15449000D01*
X-29883642Y15479781D01*
X-30029414Y15540162D01*
X-30029415Y15540162D01*
X-30029416Y15540163D01*
X-30160608Y15627822D01*
X-30272178Y15739392D01*
X-30359837Y15870584D01*
X-30359838Y15870586D01*
X-30420219Y16016358D01*
X-30451000Y16171107D01*
X-30451000Y16328893D01*
X-30420219Y16483642D01*
X-30359838Y16629414D01*
X-30359837Y16629416D01*
X-30272178Y16760608D01*
X-30160608Y16872178D01*
X-30029416Y16959837D01*
X-30029414Y16959838D01*
X-29883642Y17020219D01*
X-29728893Y17051000D01*
X-29571107Y17051000D01*
X-29416358Y17020219D01*
X-29416358Y17020219D01*
G37*
G36*
X29883642Y17020219D02*
G01*
X30029414Y16959838D01*
X30029416Y16959837D01*
X30160608Y16872178D01*
X30272178Y16760608D01*
X30359837Y16629416D01*
X30359838Y16629414D01*
X30420219Y16483642D01*
X30451000Y16328893D01*
X30451000Y16171107D01*
X30420219Y16016358D01*
X30359838Y15870586D01*
X30359837Y15870584D01*
X30272178Y15739392D01*
X30160608Y15627822D01*
X30029416Y15540163D01*
X30029415Y15540162D01*
X30029414Y15540162D01*
X29883642Y15479781D01*
X29728893Y15449000D01*
X29571107Y15449000D01*
X29416358Y15479781D01*
X29270586Y15540162D01*
X29270585Y15540162D01*
X29270584Y15540163D01*
X29139392Y15627822D01*
X29027822Y15739392D01*
X28940163Y15870584D01*
X28940162Y15870586D01*
X28879781Y16016358D01*
X28849000Y16171107D01*
X28849000Y16328893D01*
X28879781Y16483642D01*
X28940162Y16629414D01*
X28940163Y16629416D01*
X29027822Y16760608D01*
X29139392Y16872178D01*
X29270584Y16959837D01*
X29270586Y16959838D01*
X29416358Y17020219D01*
X29571107Y17051000D01*
X29728893Y17051000D01*
X29883642Y17020219D01*
X29883642Y17020219D01*
G37*
G36*
X35673512Y17406073D02*
G01*
X35822812Y17376376D01*
X35986784Y17308456D01*
X36134354Y17209853D01*
X36246605Y17097602D01*
X36265536Y17082066D01*
X36287147Y17070515D01*
X36310596Y17063402D01*
X36334982Y17061000D01*
X38521000Y17061000D01*
X38521000Y15959000D01*
X36334982Y15959000D01*
X36310596Y15956598D01*
X36287147Y15949485D01*
X36265536Y15937934D01*
X36246605Y15922398D01*
X36134354Y15810147D01*
X35986784Y15711544D01*
X35822812Y15643624D01*
X35673512Y15613927D01*
X35648742Y15609000D01*
X35471258Y15609000D01*
X35446488Y15613927D01*
X35297188Y15643624D01*
X35133216Y15711544D01*
X34985646Y15810147D01*
X34860147Y15935646D01*
X34761544Y16083216D01*
X34693624Y16247188D01*
X34659000Y16421259D01*
X34659000Y16598741D01*
X34693624Y16772812D01*
X34761544Y16936784D01*
X34860147Y17084354D01*
X34985646Y17209853D01*
X35133216Y17308456D01*
X35297188Y17376376D01*
X35446488Y17406073D01*
X35471258Y17411000D01*
X35648742Y17411000D01*
X35673512Y17406073D01*
X35673512Y17406073D01*
G37*
G36*
X-35446488Y17406073D02*
G01*
X-35297188Y17376376D01*
X-35133216Y17308456D01*
X-34985646Y17209853D01*
X-34873395Y17097602D01*
X-34854464Y17082066D01*
X-34832853Y17070515D01*
X-34809404Y17063402D01*
X-34785018Y17061000D01*
X-32599000Y17061000D01*
X-32599000Y15959000D01*
X-34785018Y15959000D01*
X-34809404Y15956598D01*
X-34832853Y15949485D01*
X-34854464Y15937934D01*
X-34873395Y15922398D01*
X-34985646Y15810147D01*
X-35133216Y15711544D01*
X-35297188Y15643624D01*
X-35446488Y15613927D01*
X-35471258Y15609000D01*
X-35648742Y15609000D01*
X-35673512Y15613927D01*
X-35822812Y15643624D01*
X-35986784Y15711544D01*
X-36134354Y15810147D01*
X-36259853Y15935646D01*
X-36358456Y16083216D01*
X-36426376Y16247188D01*
X-36461000Y16421259D01*
X-36461000Y16598741D01*
X-36426376Y16772812D01*
X-36358456Y16936784D01*
X-36259853Y17084354D01*
X-36134354Y17209853D01*
X-35986784Y17308456D01*
X-35822812Y17376376D01*
X-35673512Y17406073D01*
X-35648742Y17411000D01*
X-35471258Y17411000D01*
X-35446488Y17406073D01*
X-35446488Y17406073D01*
G37*
G36*
X35673512Y19946073D02*
G01*
X35822812Y19916376D01*
X35986784Y19848456D01*
X36134354Y19749853D01*
X36259853Y19624354D01*
X36358456Y19476784D01*
X36426376Y19312812D01*
X36461000Y19138741D01*
X36461000Y18961259D01*
X36426376Y18787188D01*
X36358456Y18623216D01*
X36259853Y18475646D01*
X36134354Y18350147D01*
X35986784Y18251544D01*
X35822812Y18183624D01*
X35673512Y18153927D01*
X35648742Y18149000D01*
X35471258Y18149000D01*
X35446488Y18153927D01*
X35297188Y18183624D01*
X35133216Y18251544D01*
X34985646Y18350147D01*
X34873395Y18462398D01*
X34854464Y18477934D01*
X34832853Y18489485D01*
X34809404Y18496598D01*
X34785018Y18499000D01*
X32599000Y18499000D01*
X32599000Y19601000D01*
X34785018Y19601000D01*
X34809404Y19603402D01*
X34832853Y19610515D01*
X34854464Y19622066D01*
X34873395Y19637602D01*
X34985646Y19749853D01*
X35133216Y19848456D01*
X35297188Y19916376D01*
X35446488Y19946073D01*
X35471258Y19951000D01*
X35648742Y19951000D01*
X35673512Y19946073D01*
X35673512Y19946073D01*
G37*
G36*
X-35446488Y19946073D02*
G01*
X-35297188Y19916376D01*
X-35133216Y19848456D01*
X-34985646Y19749853D01*
X-34860147Y19624354D01*
X-34761544Y19476784D01*
X-34693624Y19312812D01*
X-34659000Y19138741D01*
X-34659000Y18961259D01*
X-34693624Y18787188D01*
X-34761544Y18623216D01*
X-34860147Y18475646D01*
X-34985646Y18350147D01*
X-35133216Y18251544D01*
X-35297188Y18183624D01*
X-35446488Y18153927D01*
X-35471258Y18149000D01*
X-35648742Y18149000D01*
X-35673512Y18153927D01*
X-35822812Y18183624D01*
X-35986784Y18251544D01*
X-36134354Y18350147D01*
X-36246605Y18462398D01*
X-36265536Y18477934D01*
X-36287147Y18489485D01*
X-36310596Y18496598D01*
X-36334982Y18499000D01*
X-38521000Y18499000D01*
X-38521000Y19601000D01*
X-36334982Y19601000D01*
X-36310596Y19603402D01*
X-36287147Y19610515D01*
X-36265536Y19622066D01*
X-36246605Y19637602D01*
X-36134354Y19749853D01*
X-35986784Y19848456D01*
X-35822812Y19916376D01*
X-35673512Y19946073D01*
X-35648742Y19951000D01*
X-35471258Y19951000D01*
X-35446488Y19946073D01*
X-35446488Y19946073D01*
G37*
G36*
X-41575328Y21411551D02*
G01*
X-41575326Y21411550D01*
X-41575325Y21411550D01*
X-41506897Y21383207D01*
X-41445314Y21342058D01*
X-41392942Y21289686D01*
X-41351793Y21228103D01*
X-41323450Y21159675D01*
X-41309000Y21087033D01*
X-41309000Y21012967D01*
X-41323450Y20940325D01*
X-41351793Y20871897D01*
X-41392942Y20810314D01*
X-41445314Y20757942D01*
X-41506897Y20716793D01*
X-41575325Y20688450D01*
X-41575326Y20688450D01*
X-41575328Y20688449D01*
X-41647966Y20674000D01*
X-41722034Y20674000D01*
X-41794672Y20688449D01*
X-41794674Y20688450D01*
X-41794675Y20688450D01*
X-41863103Y20716793D01*
X-41924686Y20757942D01*
X-41977058Y20810314D01*
X-42018207Y20871897D01*
X-42046550Y20940325D01*
X-42061000Y21012967D01*
X-42061000Y21087033D01*
X-42046550Y21159675D01*
X-42018207Y21228103D01*
X-41977058Y21289686D01*
X-41924686Y21342058D01*
X-41863103Y21383207D01*
X-41794675Y21411550D01*
X-41794674Y21411550D01*
X-41794672Y21411551D01*
X-41722034Y21426000D01*
X-41647966Y21426000D01*
X-41575328Y21411551D01*
X-41575328Y21411551D01*
G37*
G36*
X29883642Y23520219D02*
G01*
X30029414Y23459838D01*
X30029416Y23459837D01*
X30160608Y23372178D01*
X30272178Y23260608D01*
X30359837Y23129416D01*
X30359838Y23129414D01*
X30420219Y22983642D01*
X30451000Y22828893D01*
X30451000Y22671107D01*
X30420219Y22516358D01*
X30359838Y22370586D01*
X30359837Y22370584D01*
X30272178Y22239392D01*
X30160608Y22127822D01*
X30029416Y22040163D01*
X30029415Y22040162D01*
X30029414Y22040162D01*
X29883642Y21979781D01*
X29728893Y21949000D01*
X29571107Y21949000D01*
X29416358Y21979781D01*
X29270586Y22040162D01*
X29270585Y22040162D01*
X29270584Y22040163D01*
X29139392Y22127822D01*
X29027822Y22239392D01*
X28940163Y22370584D01*
X28940162Y22370586D01*
X28879781Y22516358D01*
X28849000Y22671107D01*
X28849000Y22828893D01*
X28879781Y22983642D01*
X28940162Y23129414D01*
X28940163Y23129416D01*
X29027822Y23260608D01*
X29139392Y23372178D01*
X29270584Y23459837D01*
X29270586Y23459838D01*
X29416358Y23520219D01*
X29571107Y23551000D01*
X29728893Y23551000D01*
X29883642Y23520219D01*
X29883642Y23520219D01*
G37*
G36*
X-29416358Y23520219D02*
G01*
X-29270586Y23459838D01*
X-29270584Y23459837D01*
X-29139392Y23372178D01*
X-29027822Y23260608D01*
X-28940163Y23129416D01*
X-28940162Y23129414D01*
X-28879781Y22983642D01*
X-28849000Y22828893D01*
X-28849000Y22671107D01*
X-28879781Y22516358D01*
X-28940162Y22370586D01*
X-28940163Y22370584D01*
X-29027822Y22239392D01*
X-29139392Y22127822D01*
X-29270584Y22040163D01*
X-29270585Y22040162D01*
X-29270586Y22040162D01*
X-29416358Y21979781D01*
X-29571107Y21949000D01*
X-29728893Y21949000D01*
X-29883642Y21979781D01*
X-30029414Y22040162D01*
X-30029415Y22040162D01*
X-30029416Y22040163D01*
X-30160608Y22127822D01*
X-30272178Y22239392D01*
X-30359837Y22370584D01*
X-30359838Y22370586D01*
X-30420219Y22516358D01*
X-30451000Y22671107D01*
X-30451000Y22828893D01*
X-30420219Y22983642D01*
X-30359838Y23129414D01*
X-30359837Y23129416D01*
X-30272178Y23260608D01*
X-30160608Y23372178D01*
X-30029416Y23459837D01*
X-30029414Y23459838D01*
X-29883642Y23520219D01*
X-29728893Y23551000D01*
X-29571107Y23551000D01*
X-29416358Y23520219D01*
X-29416358Y23520219D01*
G37*
G36*
X-37275328Y24511551D02*
G01*
X-37275326Y24511550D01*
X-37275325Y24511550D01*
X-37206897Y24483207D01*
X-37145314Y24442058D01*
X-37092942Y24389686D01*
X-37051793Y24328103D01*
X-37023450Y24259675D01*
X-37009000Y24187033D01*
X-37009000Y24112967D01*
X-37023450Y24040325D01*
X-37051793Y23971897D01*
X-37092942Y23910314D01*
X-37145314Y23857942D01*
X-37206897Y23816793D01*
X-37275325Y23788450D01*
X-37275326Y23788450D01*
X-37275328Y23788449D01*
X-37347966Y23774000D01*
X-37422034Y23774000D01*
X-37494672Y23788449D01*
X-37494674Y23788450D01*
X-37494675Y23788450D01*
X-37563103Y23816793D01*
X-37624686Y23857942D01*
X-37677058Y23910314D01*
X-37718207Y23971897D01*
X-37746550Y24040325D01*
X-37761000Y24112967D01*
X-37761000Y24187033D01*
X-37746550Y24259675D01*
X-37718207Y24328103D01*
X-37677058Y24389686D01*
X-37624686Y24442058D01*
X-37563103Y24483207D01*
X-37494675Y24511550D01*
X-37494674Y24511550D01*
X-37494672Y24511551D01*
X-37422034Y24526000D01*
X-37347966Y24526000D01*
X-37275328Y24511551D01*
X-37275328Y24511551D01*
G37*
G36*
X-37975328Y26211547D02*
G01*
X-37975326Y26211546D01*
X-37975325Y26211546D01*
X-37906897Y26183203D01*
X-37845314Y26142054D01*
X-37792942Y26089682D01*
X-37751793Y26028099D01*
X-37723450Y25959671D01*
X-37709000Y25887029D01*
X-37709000Y25812963D01*
X-37723450Y25740321D01*
X-37751793Y25671893D01*
X-37792942Y25610310D01*
X-37845314Y25557938D01*
X-37906897Y25516789D01*
X-37975325Y25488446D01*
X-37975326Y25488446D01*
X-37975328Y25488445D01*
X-38047966Y25473996D01*
X-38122034Y25473996D01*
X-38194672Y25488445D01*
X-38194674Y25488446D01*
X-38194675Y25488446D01*
X-38263103Y25516789D01*
X-38324686Y25557938D01*
X-38377058Y25610310D01*
X-38418207Y25671893D01*
X-38446550Y25740321D01*
X-38461000Y25812963D01*
X-38461000Y25887029D01*
X-38446550Y25959671D01*
X-38418207Y26028099D01*
X-38387372Y26074246D01*
X-38375826Y26095847D01*
X-38368713Y26119296D01*
X-38367421Y26132416D01*
X-38354305Y26133708D01*
X-38330856Y26140821D01*
X-38309245Y26152372D01*
X-38263106Y26183201D01*
X-38263104Y26183202D01*
X-38263103Y26183203D01*
X-38194675Y26211546D01*
X-38194674Y26211546D01*
X-38194672Y26211547D01*
X-38122034Y26225996D01*
X-38047966Y26225996D01*
X-37975328Y26211547D01*
X-37975328Y26211547D01*
G37*
G36*
X-38675328Y26911543D02*
G01*
X-38675326Y26911542D01*
X-38675325Y26911542D01*
X-38606897Y26883199D01*
X-38545314Y26842050D01*
X-38492942Y26789678D01*
X-38451793Y26728095D01*
X-38423450Y26659667D01*
X-38409000Y26587025D01*
X-38409000Y26512959D01*
X-38423450Y26440317D01*
X-38451793Y26371889D01*
X-38482628Y26325742D01*
X-38494174Y26304141D01*
X-38501287Y26280692D01*
X-38502579Y26267572D01*
X-38515695Y26266280D01*
X-38539144Y26259167D01*
X-38560755Y26247616D01*
X-38593112Y26225996D01*
X-38606897Y26216785D01*
X-38675325Y26188442D01*
X-38675326Y26188442D01*
X-38675328Y26188441D01*
X-38747966Y26173992D01*
X-38822034Y26173992D01*
X-38894672Y26188441D01*
X-38894674Y26188442D01*
X-38894675Y26188442D01*
X-38963103Y26216785D01*
X-39024686Y26257934D01*
X-39077058Y26310306D01*
X-39118207Y26371889D01*
X-39146550Y26440317D01*
X-39161000Y26512959D01*
X-39161000Y26587025D01*
X-39146550Y26659667D01*
X-39118207Y26728095D01*
X-39087375Y26774238D01*
X-39075827Y26795843D01*
X-39068714Y26819292D01*
X-39067422Y26832407D01*
X-39054312Y26833698D01*
X-39030863Y26840811D01*
X-39009258Y26852359D01*
X-38963103Y26883199D01*
X-38894675Y26911542D01*
X-38894674Y26911542D01*
X-38894672Y26911543D01*
X-38822034Y26925992D01*
X-38747966Y26925992D01*
X-38675328Y26911543D01*
X-38675328Y26911543D01*
G37*
G36*
X-39375337Y27611532D02*
G01*
X-39375335Y27611531D01*
X-39375334Y27611531D01*
X-39306906Y27583188D01*
X-39245323Y27542039D01*
X-39192951Y27489667D01*
X-39151802Y27428084D01*
X-39123459Y27359656D01*
X-39109009Y27287014D01*
X-39109009Y27212948D01*
X-39123459Y27140306D01*
X-39151802Y27071878D01*
X-39182634Y27025735D01*
X-39194182Y27004130D01*
X-39201295Y26980681D01*
X-39202587Y26967566D01*
X-39215697Y26966275D01*
X-39239146Y26959162D01*
X-39260751Y26947614D01*
X-39306906Y26916774D01*
X-39375334Y26888431D01*
X-39375335Y26888431D01*
X-39375337Y26888430D01*
X-39447975Y26873981D01*
X-39522043Y26873981D01*
X-39594681Y26888430D01*
X-39594683Y26888431D01*
X-39594684Y26888431D01*
X-39663112Y26916774D01*
X-39724695Y26957923D01*
X-39777067Y27010295D01*
X-39818216Y27071878D01*
X-39846559Y27140306D01*
X-39861009Y27212948D01*
X-39861009Y27287014D01*
X-39846559Y27359656D01*
X-39818216Y27428084D01*
X-39777067Y27489667D01*
X-39724695Y27542039D01*
X-39663112Y27583188D01*
X-39594684Y27611531D01*
X-39594683Y27611531D01*
X-39594681Y27611532D01*
X-39522043Y27625981D01*
X-39447975Y27625981D01*
X-39375337Y27611532D01*
X-39375337Y27611532D01*
G37*
G36*
X-40875328Y29011551D02*
G01*
X-40875326Y29011550D01*
X-40875325Y29011550D01*
X-40806897Y28983207D01*
X-40745314Y28942058D01*
X-40692942Y28889686D01*
X-40651793Y28828103D01*
X-40623450Y28759675D01*
X-40623449Y28759672D01*
X-40609000Y28687034D01*
X-40609000Y28612966D01*
X-40625344Y28530798D01*
X-40626851Y28525829D01*
X-40629251Y28501443D01*
X-40626847Y28477057D01*
X-40619732Y28453609D01*
X-40608179Y28431999D01*
X-40592632Y28413058D01*
X-40573688Y28397515D01*
X-40552077Y28385966D01*
X-40528627Y28378855D01*
X-40504241Y28376455D01*
X-40479855Y28378859D01*
X-40456423Y28385968D01*
X-40394675Y28411544D01*
X-40394674Y28411544D01*
X-40394672Y28411545D01*
X-40322034Y28425994D01*
X-40247966Y28425994D01*
X-40175328Y28411545D01*
X-40175326Y28411544D01*
X-40175325Y28411544D01*
X-40106897Y28383201D01*
X-40045314Y28342052D01*
X-39992942Y28289680D01*
X-39951793Y28228097D01*
X-39923450Y28159669D01*
X-39909000Y28087027D01*
X-39909000Y28012961D01*
X-39923450Y27940319D01*
X-39951793Y27871891D01*
X-39992942Y27810308D01*
X-40045314Y27757936D01*
X-40106897Y27716787D01*
X-40175325Y27688444D01*
X-40175326Y27688444D01*
X-40175328Y27688443D01*
X-40247966Y27673994D01*
X-40322034Y27673994D01*
X-40394672Y27688443D01*
X-40394674Y27688444D01*
X-40394675Y27688444D01*
X-40463103Y27716787D01*
X-40524686Y27757936D01*
X-40577058Y27810308D01*
X-40618207Y27871891D01*
X-40646550Y27940319D01*
X-40661000Y28012961D01*
X-40661000Y28087028D01*
X-40644656Y28169196D01*
X-40643149Y28174165D01*
X-40640749Y28198551D01*
X-40643153Y28222937D01*
X-40650268Y28246385D01*
X-40661821Y28267995D01*
X-40677368Y28286936D01*
X-40696312Y28302479D01*
X-40717923Y28314028D01*
X-40741373Y28321139D01*
X-40765759Y28323539D01*
X-40790145Y28321135D01*
X-40813577Y28314026D01*
X-40875325Y28288450D01*
X-40875326Y28288450D01*
X-40875328Y28288449D01*
X-40947966Y28274000D01*
X-41022034Y28274000D01*
X-41094672Y28288449D01*
X-41094674Y28288450D01*
X-41094675Y28288450D01*
X-41163103Y28316793D01*
X-41224686Y28357942D01*
X-41277058Y28410314D01*
X-41318207Y28471897D01*
X-41346550Y28540325D01*
X-41361000Y28612967D01*
X-41361000Y28687033D01*
X-41346550Y28759675D01*
X-41318207Y28828103D01*
X-41277058Y28889686D01*
X-41224686Y28942058D01*
X-41163103Y28983207D01*
X-41094675Y29011550D01*
X-41094674Y29011550D01*
X-41094672Y29011551D01*
X-41022034Y29026000D01*
X-40947966Y29026000D01*
X-40875328Y29011551D01*
X-40875328Y29011551D01*
G37*
G36*
X-16516358Y29520219D02*
G01*
X-16370586Y29459838D01*
X-16370584Y29459837D01*
X-16239392Y29372178D01*
X-16127822Y29260608D01*
X-16040163Y29129416D01*
X-16040162Y29129414D01*
X-15979781Y28983642D01*
X-15949000Y28828893D01*
X-15949000Y28671107D01*
X-15979781Y28516358D01*
X-16034937Y28383201D01*
X-16040163Y28370584D01*
X-16127822Y28239392D01*
X-16239392Y28127822D01*
X-16370584Y28040163D01*
X-16370585Y28040162D01*
X-16370586Y28040162D01*
X-16516358Y27979781D01*
X-16671107Y27949000D01*
X-16828893Y27949000D01*
X-16983642Y27979781D01*
X-17129414Y28040162D01*
X-17129415Y28040162D01*
X-17129416Y28040163D01*
X-17260608Y28127822D01*
X-17372178Y28239392D01*
X-17459837Y28370584D01*
X-17465063Y28383201D01*
X-17520219Y28516358D01*
X-17551000Y28671107D01*
X-17551000Y28828893D01*
X-17520219Y28983642D01*
X-17459838Y29129414D01*
X-17459837Y29129416D01*
X-17372178Y29260608D01*
X-17260608Y29372178D01*
X-17129416Y29459837D01*
X-17129414Y29459838D01*
X-16983642Y29520219D01*
X-16828893Y29551000D01*
X-16671107Y29551000D01*
X-16516358Y29520219D01*
X-16516358Y29520219D01*
G37*
G36*
X-9816358Y29520219D02*
G01*
X-9670586Y29459838D01*
X-9670584Y29459837D01*
X-9539392Y29372178D01*
X-9427822Y29260608D01*
X-9340163Y29129416D01*
X-9340162Y29129414D01*
X-9279781Y28983642D01*
X-9249000Y28828893D01*
X-9249000Y28671107D01*
X-9279781Y28516358D01*
X-9334937Y28383201D01*
X-9340163Y28370584D01*
X-9427822Y28239392D01*
X-9539392Y28127822D01*
X-9670584Y28040163D01*
X-9670585Y28040162D01*
X-9670586Y28040162D01*
X-9816358Y27979781D01*
X-9971107Y27949000D01*
X-10128893Y27949000D01*
X-10283642Y27979781D01*
X-10429414Y28040162D01*
X-10429415Y28040162D01*
X-10429416Y28040163D01*
X-10560608Y28127822D01*
X-10672178Y28239392D01*
X-10759837Y28370584D01*
X-10765063Y28383201D01*
X-10820219Y28516358D01*
X-10851000Y28671107D01*
X-10851000Y28828893D01*
X-10820219Y28983642D01*
X-10759838Y29129414D01*
X-10759837Y29129416D01*
X-10672178Y29260608D01*
X-10560608Y29372178D01*
X-10429416Y29459837D01*
X-10429414Y29459838D01*
X-10283642Y29520219D01*
X-10128893Y29551000D01*
X-9971107Y29551000D01*
X-9816358Y29520219D01*
X-9816358Y29520219D01*
G37*
G36*
X-3116358Y29520219D02*
G01*
X-2970586Y29459838D01*
X-2970584Y29459837D01*
X-2839392Y29372178D01*
X-2727822Y29260608D01*
X-2640163Y29129416D01*
X-2640162Y29129414D01*
X-2579781Y28983642D01*
X-2549000Y28828893D01*
X-2549000Y28671107D01*
X-2579781Y28516358D01*
X-2634937Y28383201D01*
X-2640163Y28370584D01*
X-2727822Y28239392D01*
X-2839392Y28127822D01*
X-2970584Y28040163D01*
X-2970585Y28040162D01*
X-2970586Y28040162D01*
X-3116358Y27979781D01*
X-3271107Y27949000D01*
X-3428893Y27949000D01*
X-3583642Y27979781D01*
X-3729414Y28040162D01*
X-3729415Y28040162D01*
X-3729416Y28040163D01*
X-3860608Y28127822D01*
X-3972178Y28239392D01*
X-4059837Y28370584D01*
X-4065063Y28383201D01*
X-4120219Y28516358D01*
X-4151000Y28671107D01*
X-4151000Y28828893D01*
X-4120219Y28983642D01*
X-4059838Y29129414D01*
X-4059837Y29129416D01*
X-3972178Y29260608D01*
X-3860608Y29372178D01*
X-3729416Y29459837D01*
X-3729414Y29459838D01*
X-3583642Y29520219D01*
X-3428893Y29551000D01*
X-3271107Y29551000D01*
X-3116358Y29520219D01*
X-3116358Y29520219D01*
G37*
G36*
X3583642Y29520219D02*
G01*
X3729414Y29459838D01*
X3729416Y29459837D01*
X3860608Y29372178D01*
X3972178Y29260608D01*
X4059837Y29129416D01*
X4059838Y29129414D01*
X4120219Y28983642D01*
X4151000Y28828893D01*
X4151000Y28671107D01*
X4120219Y28516358D01*
X4065063Y28383201D01*
X4059837Y28370584D01*
X3972178Y28239392D01*
X3860608Y28127822D01*
X3729416Y28040163D01*
X3729415Y28040162D01*
X3729414Y28040162D01*
X3583642Y27979781D01*
X3428893Y27949000D01*
X3271107Y27949000D01*
X3116358Y27979781D01*
X2970586Y28040162D01*
X2970585Y28040162D01*
X2970584Y28040163D01*
X2839392Y28127822D01*
X2727822Y28239392D01*
X2640163Y28370584D01*
X2634937Y28383201D01*
X2579781Y28516358D01*
X2549000Y28671107D01*
X2549000Y28828893D01*
X2579781Y28983642D01*
X2640162Y29129414D01*
X2640163Y29129416D01*
X2727822Y29260608D01*
X2839392Y29372178D01*
X2970584Y29459837D01*
X2970586Y29459838D01*
X3116358Y29520219D01*
X3271107Y29551000D01*
X3428893Y29551000D01*
X3583642Y29520219D01*
X3583642Y29520219D01*
G37*
G36*
X10283642Y29520219D02*
G01*
X10429414Y29459838D01*
X10429416Y29459837D01*
X10560608Y29372178D01*
X10672178Y29260608D01*
X10759837Y29129416D01*
X10759838Y29129414D01*
X10820219Y28983642D01*
X10851000Y28828893D01*
X10851000Y28671107D01*
X10820219Y28516358D01*
X10765063Y28383201D01*
X10759837Y28370584D01*
X10672178Y28239392D01*
X10560608Y28127822D01*
X10429416Y28040163D01*
X10429415Y28040162D01*
X10429414Y28040162D01*
X10283642Y27979781D01*
X10128893Y27949000D01*
X9971107Y27949000D01*
X9816358Y27979781D01*
X9670586Y28040162D01*
X9670585Y28040162D01*
X9670584Y28040163D01*
X9539392Y28127822D01*
X9427822Y28239392D01*
X9340163Y28370584D01*
X9334937Y28383201D01*
X9279781Y28516358D01*
X9249000Y28671107D01*
X9249000Y28828893D01*
X9279781Y28983642D01*
X9340162Y29129414D01*
X9340163Y29129416D01*
X9427822Y29260608D01*
X9539392Y29372178D01*
X9670584Y29459837D01*
X9670586Y29459838D01*
X9816358Y29520219D01*
X9971107Y29551000D01*
X10128893Y29551000D01*
X10283642Y29520219D01*
X10283642Y29520219D01*
G37*
G36*
X16983642Y29520219D02*
G01*
X17129414Y29459838D01*
X17129416Y29459837D01*
X17260608Y29372178D01*
X17372178Y29260608D01*
X17459837Y29129416D01*
X17459838Y29129414D01*
X17520219Y28983642D01*
X17551000Y28828893D01*
X17551000Y28671107D01*
X17520219Y28516358D01*
X17465063Y28383201D01*
X17459837Y28370584D01*
X17372178Y28239392D01*
X17260608Y28127822D01*
X17129416Y28040163D01*
X17129415Y28040162D01*
X17129414Y28040162D01*
X16983642Y27979781D01*
X16828893Y27949000D01*
X16671107Y27949000D01*
X16516358Y27979781D01*
X16370586Y28040162D01*
X16370585Y28040162D01*
X16370584Y28040163D01*
X16239392Y28127822D01*
X16127822Y28239392D01*
X16040163Y28370584D01*
X16034937Y28383201D01*
X15979781Y28516358D01*
X15949000Y28671107D01*
X15949000Y28828893D01*
X15979781Y28983642D01*
X16040162Y29129414D01*
X16040163Y29129416D01*
X16127822Y29260608D01*
X16239392Y29372178D01*
X16370584Y29459837D01*
X16370586Y29459838D01*
X16516358Y29520219D01*
X16671107Y29551000D01*
X16828893Y29551000D01*
X16983642Y29520219D01*
X16983642Y29520219D01*
G37*
G36*
X23683642Y29520219D02*
G01*
X23829414Y29459838D01*
X23829416Y29459837D01*
X23960608Y29372178D01*
X24072178Y29260608D01*
X24159837Y29129416D01*
X24159838Y29129414D01*
X24220219Y28983642D01*
X24251000Y28828893D01*
X24251000Y28671107D01*
X24220219Y28516358D01*
X24165063Y28383201D01*
X24159837Y28370584D01*
X24072178Y28239392D01*
X23960608Y28127822D01*
X23829416Y28040163D01*
X23829415Y28040162D01*
X23829414Y28040162D01*
X23683642Y27979781D01*
X23528893Y27949000D01*
X23371107Y27949000D01*
X23216358Y27979781D01*
X23070586Y28040162D01*
X23070585Y28040162D01*
X23070584Y28040163D01*
X22939392Y28127822D01*
X22827822Y28239392D01*
X22740163Y28370584D01*
X22734937Y28383201D01*
X22679781Y28516358D01*
X22649000Y28671107D01*
X22649000Y28828893D01*
X22679781Y28983642D01*
X22740162Y29129414D01*
X22740163Y29129416D01*
X22827822Y29260608D01*
X22939392Y29372178D01*
X23070584Y29459837D01*
X23070586Y29459838D01*
X23216358Y29520219D01*
X23371107Y29551000D01*
X23528893Y29551000D01*
X23683642Y29520219D01*
X23683642Y29520219D01*
G37*
G36*
X-23216358Y29520219D02*
G01*
X-23070586Y29459838D01*
X-23070584Y29459837D01*
X-22939392Y29372178D01*
X-22827822Y29260608D01*
X-22740163Y29129416D01*
X-22740162Y29129414D01*
X-22679781Y28983642D01*
X-22649000Y28828893D01*
X-22649000Y28671107D01*
X-22679781Y28516358D01*
X-22734937Y28383201D01*
X-22740163Y28370584D01*
X-22827822Y28239392D01*
X-22939392Y28127822D01*
X-23070584Y28040163D01*
X-23070585Y28040162D01*
X-23070586Y28040162D01*
X-23216358Y27979781D01*
X-23371107Y27949000D01*
X-23528893Y27949000D01*
X-23683642Y27979781D01*
X-23829414Y28040162D01*
X-23829415Y28040162D01*
X-23829416Y28040163D01*
X-23960608Y28127822D01*
X-24072178Y28239392D01*
X-24159837Y28370584D01*
X-24165063Y28383201D01*
X-24220219Y28516358D01*
X-24251000Y28671107D01*
X-24251000Y28828893D01*
X-24220219Y28983642D01*
X-24159838Y29129414D01*
X-24159837Y29129416D01*
X-24072178Y29260608D01*
X-23960608Y29372178D01*
X-23829416Y29459837D01*
X-23829414Y29459838D01*
X-23683642Y29520219D01*
X-23528893Y29551000D01*
X-23371107Y29551000D01*
X-23216358Y29520219D01*
X-23216358Y29520219D01*
G37*
G36*
X30651778Y33739453D02*
G01*
X30818224Y33670509D01*
X30968022Y33570417D01*
X31095417Y33443022D01*
X31195509Y33293224D01*
X31264453Y33126778D01*
X31299600Y32950082D01*
X31299600Y32769918D01*
X31264453Y32593222D01*
X31195509Y32426776D01*
X31095417Y32276978D01*
X30968022Y32149583D01*
X30818224Y32049491D01*
X30651778Y31980547D01*
X30475082Y31945400D01*
X30294918Y31945400D01*
X30118222Y31980547D01*
X29951776Y32049491D01*
X29801978Y32149583D01*
X29674583Y32276978D01*
X29574491Y32426776D01*
X29505547Y32593222D01*
X29470400Y32769918D01*
X29470400Y32950082D01*
X29505547Y33126778D01*
X29574491Y33293224D01*
X29674583Y33443022D01*
X29801978Y33570417D01*
X29951776Y33670509D01*
X30118222Y33739453D01*
X30294918Y33774600D01*
X30475082Y33774600D01*
X30651778Y33739453D01*
X30651778Y33739453D01*
G37*
G36*
X33104294Y33761367D02*
G01*
X33276695Y33709069D01*
X33435583Y33624142D01*
X33574849Y33509849D01*
X33689142Y33370583D01*
X33774069Y33211695D01*
X33826367Y33039294D01*
X33844025Y32860000D01*
X33826367Y32680706D01*
X33774069Y32508305D01*
X33689142Y32349417D01*
X33574849Y32210151D01*
X33435583Y32095858D01*
X33276695Y32010931D01*
X33104294Y31958633D01*
X32969931Y31945400D01*
X32880069Y31945400D01*
X32745706Y31958633D01*
X32573305Y32010931D01*
X32414417Y32095858D01*
X32275151Y32210151D01*
X32160858Y32349417D01*
X32075931Y32508305D01*
X32023633Y32680706D01*
X32005975Y32860000D01*
X32023633Y33039294D01*
X32075931Y33211695D01*
X32160858Y33370583D01*
X32275151Y33509849D01*
X32414417Y33624142D01*
X32573305Y33709069D01*
X32745706Y33761367D01*
X32880069Y33774600D01*
X32969931Y33774600D01*
X33104294Y33761367D01*
X33104294Y33761367D01*
G37*
G36*
X35731778Y33739453D02*
G01*
X35898224Y33670509D01*
X36048022Y33570417D01*
X36175417Y33443022D01*
X36275509Y33293224D01*
X36344453Y33126778D01*
X36379600Y32950082D01*
X36379600Y32769918D01*
X36344453Y32593222D01*
X36275509Y32426776D01*
X36175417Y32276978D01*
X36048022Y32149583D01*
X35898224Y32049491D01*
X35731778Y31980547D01*
X35555082Y31945400D01*
X35374918Y31945400D01*
X35198222Y31980547D01*
X35031776Y32049491D01*
X34881978Y32149583D01*
X34754583Y32276978D01*
X34654491Y32426776D01*
X34585547Y32593222D01*
X34550400Y32769918D01*
X34550400Y32950082D01*
X34585547Y33126778D01*
X34654491Y33293224D01*
X34754583Y33443022D01*
X34881978Y33570417D01*
X35031776Y33670509D01*
X35198222Y33739453D01*
X35374918Y33774600D01*
X35555082Y33774600D01*
X35731778Y33739453D01*
X35731778Y33739453D01*
G37*
G36*
X41122487Y33304339D02*
G01*
X41189549Y33276561D01*
X41209577Y33263179D01*
X41249905Y33236233D01*
X41301233Y33184905D01*
X41328179Y33144577D01*
X41341561Y33124549D01*
X41369339Y33057487D01*
X41383500Y32986295D01*
X41383500Y32913705D01*
X41369339Y32842513D01*
X41341561Y32775451D01*
X41341560Y32775450D01*
X41301233Y32715095D01*
X41249905Y32663767D01*
X41209577Y32636821D01*
X41189549Y32623439D01*
X41122487Y32595661D01*
X41051295Y32581500D01*
X40978705Y32581500D01*
X40907513Y32595661D01*
X40840451Y32623439D01*
X40820423Y32636821D01*
X40780095Y32663767D01*
X40728767Y32715095D01*
X40688440Y32775450D01*
X40688439Y32775451D01*
X40660661Y32842513D01*
X40646500Y32913705D01*
X40646500Y32986295D01*
X40660661Y33057487D01*
X40688439Y33124549D01*
X40701821Y33144577D01*
X40728767Y33184905D01*
X40780095Y33236233D01*
X40820423Y33263179D01*
X40840451Y33276561D01*
X40907513Y33304339D01*
X40978705Y33318500D01*
X41051295Y33318500D01*
X41122487Y33304339D01*
X41122487Y33304339D01*
G37*
G36*
X-13175328Y34011551D02*
G01*
X-13175326Y34011550D01*
X-13175325Y34011550D01*
X-13106897Y33983207D01*
X-13045314Y33942058D01*
X-12992942Y33889686D01*
X-12951793Y33828103D01*
X-12923450Y33759675D01*
X-12909000Y33687033D01*
X-12909000Y33612967D01*
X-12923450Y33540325D01*
X-12951793Y33471897D01*
X-12992942Y33410314D01*
X-13045314Y33357942D01*
X-13106897Y33316793D01*
X-13175325Y33288450D01*
X-13175326Y33288450D01*
X-13175328Y33288449D01*
X-13247966Y33274000D01*
X-13322034Y33274000D01*
X-13394672Y33288449D01*
X-13394674Y33288450D01*
X-13394675Y33288450D01*
X-13463103Y33316793D01*
X-13524686Y33357942D01*
X-13577058Y33410314D01*
X-13618207Y33471897D01*
X-13646550Y33540325D01*
X-13661000Y33612967D01*
X-13661000Y33687033D01*
X-13646550Y33759675D01*
X-13618207Y33828103D01*
X-13577058Y33889686D01*
X-13524686Y33942058D01*
X-13463103Y33983207D01*
X-13394675Y34011550D01*
X-13394674Y34011550D01*
X-13394672Y34011551D01*
X-13322034Y34026000D01*
X-13247966Y34026000D01*
X-13175328Y34011551D01*
X-13175328Y34011551D01*
G37*
G36*
X274672Y34061551D02*
G01*
X274674Y34061550D01*
X274675Y34061550D01*
X343103Y34033207D01*
X404686Y33992058D01*
X457058Y33939686D01*
X498207Y33878103D01*
X518917Y33828103D01*
X526551Y33809672D01*
X536160Y33761366D01*
X541000Y33737033D01*
X541000Y33662967D01*
X526550Y33590325D01*
X498207Y33521897D01*
X457058Y33460314D01*
X404686Y33407942D01*
X343103Y33366793D01*
X274675Y33338450D01*
X274674Y33338450D01*
X274672Y33338449D01*
X202034Y33324000D01*
X127966Y33324000D01*
X55328Y33338449D01*
X55326Y33338450D01*
X55325Y33338450D01*
X-13103Y33366793D01*
X-74686Y33407942D01*
X-127058Y33460314D01*
X-168207Y33521897D01*
X-196550Y33590325D01*
X-211000Y33662967D01*
X-211000Y33737033D01*
X-206160Y33761366D01*
X-196551Y33809672D01*
X-188917Y33828103D01*
X-168207Y33878103D01*
X-127058Y33939686D01*
X-74686Y33992058D01*
X-13103Y34033207D01*
X55325Y34061550D01*
X55326Y34061550D01*
X55328Y34061551D01*
X127966Y34076000D01*
X202034Y34076000D01*
X274672Y34061551D01*
X274672Y34061551D01*
G37*
G36*
X8396000Y33324000D02*
G01*
X7234000Y33324000D01*
X7234000Y34076000D01*
X8396000Y34076000D01*
X8396000Y33324000D01*
X8396000Y33324000D01*
G37*
G36*
X21796000Y33324000D02*
G01*
X20634000Y33324000D01*
X20634000Y34076000D01*
X21796000Y34076000D01*
X21796000Y33324000D01*
X21796000Y33324000D01*
G37*
G36*
X27274672Y34061551D02*
G01*
X27274674Y34061550D01*
X27274675Y34061550D01*
X27343103Y34033207D01*
X27404686Y33992058D01*
X27457058Y33939686D01*
X27498207Y33878103D01*
X27518917Y33828103D01*
X27526551Y33809672D01*
X27536160Y33761366D01*
X27541000Y33737033D01*
X27541000Y33662967D01*
X27526550Y33590325D01*
X27498207Y33521897D01*
X27457058Y33460314D01*
X27404686Y33407942D01*
X27343103Y33366793D01*
X27274675Y33338450D01*
X27274674Y33338450D01*
X27274672Y33338449D01*
X27202034Y33324000D01*
X27127966Y33324000D01*
X27055328Y33338449D01*
X27055326Y33338450D01*
X27055325Y33338450D01*
X26986897Y33366793D01*
X26925314Y33407942D01*
X26872942Y33460314D01*
X26831793Y33521897D01*
X26803450Y33590325D01*
X26789000Y33662967D01*
X26789000Y33737033D01*
X26793840Y33761366D01*
X26803449Y33809672D01*
X26811083Y33828103D01*
X26831793Y33878103D01*
X26872942Y33939686D01*
X26925314Y33992058D01*
X26986897Y34033207D01*
X27055325Y34061550D01*
X27055326Y34061550D01*
X27055328Y34061551D01*
X27127966Y34076000D01*
X27202034Y34076000D01*
X27274672Y34061551D01*
X27274672Y34061551D01*
G37*
G36*
X-18504000Y33324000D02*
G01*
X-19666000Y33324000D01*
X-19666000Y34076000D01*
X-18504000Y34076000D01*
X-18504000Y33324000D01*
X-18504000Y33324000D01*
G37*
G36*
X-20704000Y33324000D02*
G01*
X-21866000Y33324000D01*
X-21866000Y35976000D01*
X-20704000Y35976000D01*
X-20704000Y33324000D01*
X-20704000Y33324000D01*
G37*
G36*
X19596000Y33324000D02*
G01*
X18434000Y33324000D01*
X18434000Y35976000D01*
X19596000Y35976000D01*
X19596000Y33324000D01*
X19596000Y33324000D01*
G37*
G36*
X-5004000Y33324000D02*
G01*
X-6166000Y33324000D01*
X-6166000Y34076000D01*
X-5004000Y34076000D01*
X-5004000Y33324000D01*
X-5004000Y33324000D01*
G37*
G36*
X6196000Y33324000D02*
G01*
X5034000Y33324000D01*
X5034000Y35976000D01*
X6196000Y35976000D01*
X6196000Y33324000D01*
X6196000Y33324000D01*
G37*
G36*
X13724672Y34061551D02*
G01*
X13724674Y34061550D01*
X13724675Y34061550D01*
X13793103Y34033207D01*
X13854686Y33992058D01*
X13907058Y33939686D01*
X13948207Y33878103D01*
X13968917Y33828103D01*
X13976551Y33809672D01*
X13986160Y33761366D01*
X13991000Y33737033D01*
X13991000Y33662967D01*
X13976550Y33590325D01*
X13948207Y33521897D01*
X13907058Y33460314D01*
X13854686Y33407942D01*
X13793103Y33366793D01*
X13724675Y33338450D01*
X13724674Y33338450D01*
X13724672Y33338449D01*
X13652034Y33324000D01*
X13577966Y33324000D01*
X13505328Y33338449D01*
X13505326Y33338450D01*
X13505325Y33338450D01*
X13436897Y33366793D01*
X13375314Y33407942D01*
X13322942Y33460314D01*
X13281793Y33521897D01*
X13253450Y33590325D01*
X13239000Y33662967D01*
X13239000Y33737033D01*
X13243840Y33761366D01*
X13253449Y33809672D01*
X13261083Y33828103D01*
X13281793Y33878103D01*
X13322942Y33939686D01*
X13375314Y33992058D01*
X13436897Y34033207D01*
X13505325Y34061550D01*
X13505326Y34061550D01*
X13505328Y34061551D01*
X13577966Y34076000D01*
X13652034Y34076000D01*
X13724672Y34061551D01*
X13724672Y34061551D01*
G37*
G36*
X-7204000Y33324000D02*
G01*
X-8366000Y33324000D01*
X-8366000Y35976000D01*
X-7204000Y35976000D01*
X-7204000Y33324000D01*
X-7204000Y33324000D01*
G37*
G36*
X33104294Y36301367D02*
G01*
X33276695Y36249069D01*
X33435583Y36164142D01*
X33574849Y36049849D01*
X33689142Y35910583D01*
X33774069Y35751695D01*
X33826367Y35579294D01*
X33844025Y35400000D01*
X33826367Y35220706D01*
X33774069Y35048305D01*
X33689142Y34889417D01*
X33574849Y34750151D01*
X33435583Y34635858D01*
X33276695Y34550931D01*
X33104294Y34498633D01*
X32969931Y34485400D01*
X32880069Y34485400D01*
X32745706Y34498633D01*
X32573305Y34550931D01*
X32414417Y34635858D01*
X32275151Y34750151D01*
X32160858Y34889417D01*
X32075931Y35048305D01*
X32023633Y35220706D01*
X32005975Y35400000D01*
X32023633Y35579294D01*
X32075931Y35751695D01*
X32160858Y35910583D01*
X32275151Y36049849D01*
X32414417Y36164142D01*
X32573305Y36249069D01*
X32745706Y36301367D01*
X32880069Y36314600D01*
X32969931Y36314600D01*
X33104294Y36301367D01*
X33104294Y36301367D01*
G37*
G36*
X31299600Y34485400D02*
G01*
X29470400Y34485400D01*
X29470400Y36314600D01*
X31299600Y36314600D01*
X31299600Y34485400D01*
X31299600Y34485400D01*
G37*
G36*
X35731778Y36279453D02*
G01*
X35898224Y36210509D01*
X36048022Y36110417D01*
X36175417Y35983022D01*
X36275509Y35833224D01*
X36344453Y35666778D01*
X36379600Y35490082D01*
X36379600Y35309918D01*
X36344453Y35133222D01*
X36275509Y34966776D01*
X36175417Y34816978D01*
X36048022Y34689583D01*
X35898224Y34589491D01*
X35731778Y34520547D01*
X35555082Y34485400D01*
X35374918Y34485400D01*
X35198222Y34520547D01*
X35031776Y34589491D01*
X34881978Y34689583D01*
X34754583Y34816978D01*
X34654491Y34966776D01*
X34585547Y35133222D01*
X34550400Y35309918D01*
X34550400Y35490082D01*
X34585547Y35666778D01*
X34654491Y35833224D01*
X34754583Y35983022D01*
X34881978Y36110417D01*
X35031776Y36210509D01*
X35198222Y36279453D01*
X35374918Y36314600D01*
X35555082Y36314600D01*
X35731778Y36279453D01*
X35731778Y36279453D01*
G37*
G36*
X-16050532Y36696435D02*
G01*
X-16011862Y36684704D01*
X-15976223Y36665654D01*
X-15944983Y36640017D01*
X-15919346Y36608777D01*
X-15900296Y36573138D01*
X-15888565Y36534468D01*
X-15884000Y36488112D01*
X-15884000Y35411888D01*
X-15888565Y35365532D01*
X-15900296Y35326862D01*
X-15919346Y35291223D01*
X-15944983Y35259983D01*
X-15976223Y35234346D01*
X-16011862Y35215296D01*
X-16050532Y35203565D01*
X-16096888Y35199000D01*
X-16748112Y35199000D01*
X-16794468Y35203565D01*
X-16833138Y35215296D01*
X-16868777Y35234346D01*
X-16900017Y35259983D01*
X-16925654Y35291223D01*
X-16944704Y35326862D01*
X-16956435Y35365532D01*
X-16961000Y35411888D01*
X-16961000Y36488112D01*
X-16956435Y36534468D01*
X-16944704Y36573138D01*
X-16925654Y36608777D01*
X-16900017Y36640017D01*
X-16868777Y36665654D01*
X-16833138Y36684704D01*
X-16794468Y36696435D01*
X-16748112Y36701000D01*
X-16096888Y36701000D01*
X-16050532Y36696435D01*
X-16050532Y36696435D01*
G37*
G36*
X-14175532Y36696435D02*
G01*
X-14136862Y36684704D01*
X-14101223Y36665654D01*
X-14069983Y36640017D01*
X-14044346Y36608777D01*
X-14025296Y36573138D01*
X-14013565Y36534468D01*
X-14009000Y36488112D01*
X-14009000Y35411888D01*
X-14013565Y35365532D01*
X-14025296Y35326862D01*
X-14044346Y35291223D01*
X-14069983Y35259983D01*
X-14101223Y35234346D01*
X-14136862Y35215296D01*
X-14175532Y35203565D01*
X-14221888Y35199000D01*
X-14873112Y35199000D01*
X-14919468Y35203565D01*
X-14958138Y35215296D01*
X-14993777Y35234346D01*
X-15025017Y35259983D01*
X-15050654Y35291223D01*
X-15069704Y35326862D01*
X-15081435Y35365532D01*
X-15086000Y35411888D01*
X-15086000Y36488112D01*
X-15081435Y36534468D01*
X-15069704Y36573138D01*
X-15050654Y36608777D01*
X-15025017Y36640017D01*
X-14993777Y36665654D01*
X-14958138Y36684704D01*
X-14919468Y36696435D01*
X-14873112Y36701000D01*
X-14221888Y36701000D01*
X-14175532Y36696435D01*
X-14175532Y36696435D01*
G37*
G36*
X-2550532Y36696435D02*
G01*
X-2511862Y36684704D01*
X-2476223Y36665654D01*
X-2444983Y36640017D01*
X-2419346Y36608777D01*
X-2400296Y36573138D01*
X-2388565Y36534468D01*
X-2384000Y36488112D01*
X-2384000Y35411888D01*
X-2388565Y35365532D01*
X-2400296Y35326862D01*
X-2419346Y35291223D01*
X-2444983Y35259983D01*
X-2476223Y35234346D01*
X-2511862Y35215296D01*
X-2550532Y35203565D01*
X-2596888Y35199000D01*
X-3248112Y35199000D01*
X-3294468Y35203565D01*
X-3333138Y35215296D01*
X-3368777Y35234346D01*
X-3400017Y35259983D01*
X-3425654Y35291223D01*
X-3444704Y35326862D01*
X-3456435Y35365532D01*
X-3461000Y35411888D01*
X-3461000Y36488112D01*
X-3456435Y36534468D01*
X-3444704Y36573138D01*
X-3425654Y36608777D01*
X-3400017Y36640017D01*
X-3368777Y36665654D01*
X-3333138Y36684704D01*
X-3294468Y36696435D01*
X-3248112Y36701000D01*
X-2596888Y36701000D01*
X-2550532Y36696435D01*
X-2550532Y36696435D01*
G37*
G36*
X-675532Y36696435D02*
G01*
X-636862Y36684704D01*
X-601223Y36665654D01*
X-569983Y36640017D01*
X-544346Y36608777D01*
X-525296Y36573138D01*
X-513565Y36534468D01*
X-509000Y36488112D01*
X-509000Y35411888D01*
X-513565Y35365532D01*
X-525296Y35326862D01*
X-544346Y35291223D01*
X-569983Y35259983D01*
X-601223Y35234346D01*
X-636862Y35215296D01*
X-675532Y35203565D01*
X-721888Y35199000D01*
X-1373112Y35199000D01*
X-1419468Y35203565D01*
X-1458138Y35215296D01*
X-1493777Y35234346D01*
X-1525017Y35259983D01*
X-1550654Y35291223D01*
X-1569704Y35326862D01*
X-1581435Y35365532D01*
X-1586000Y35411888D01*
X-1586000Y36488112D01*
X-1581435Y36534468D01*
X-1569704Y36573138D01*
X-1550654Y36608777D01*
X-1525017Y36640017D01*
X-1493777Y36665654D01*
X-1458138Y36684704D01*
X-1419468Y36696435D01*
X-1373112Y36701000D01*
X-721888Y36701000D01*
X-675532Y36696435D01*
X-675532Y36696435D01*
G37*
G36*
X10949468Y36696435D02*
G01*
X10988138Y36684704D01*
X11023777Y36665654D01*
X11055017Y36640017D01*
X11080654Y36608777D01*
X11099704Y36573138D01*
X11111435Y36534468D01*
X11116000Y36488112D01*
X11116000Y35411888D01*
X11111435Y35365532D01*
X11099704Y35326862D01*
X11080654Y35291223D01*
X11055017Y35259983D01*
X11023777Y35234346D01*
X10988138Y35215296D01*
X10949468Y35203565D01*
X10903112Y35199000D01*
X10251888Y35199000D01*
X10205532Y35203565D01*
X10166862Y35215296D01*
X10131223Y35234346D01*
X10099983Y35259983D01*
X10074346Y35291223D01*
X10055296Y35326862D01*
X10043565Y35365532D01*
X10039000Y35411888D01*
X10039000Y36488112D01*
X10043565Y36534468D01*
X10055296Y36573138D01*
X10074346Y36608777D01*
X10099983Y36640017D01*
X10131223Y36665654D01*
X10166862Y36684704D01*
X10205532Y36696435D01*
X10251888Y36701000D01*
X10903112Y36701000D01*
X10949468Y36696435D01*
X10949468Y36696435D01*
G37*
G36*
X12824468Y36696435D02*
G01*
X12863138Y36684704D01*
X12898777Y36665654D01*
X12930017Y36640017D01*
X12955654Y36608777D01*
X12974704Y36573138D01*
X12986435Y36534468D01*
X12991000Y36488112D01*
X12991000Y35411888D01*
X12986435Y35365532D01*
X12974704Y35326862D01*
X12955654Y35291223D01*
X12930017Y35259983D01*
X12898777Y35234346D01*
X12863138Y35215296D01*
X12824468Y35203565D01*
X12778112Y35199000D01*
X12126888Y35199000D01*
X12080532Y35203565D01*
X12041862Y35215296D01*
X12006223Y35234346D01*
X11974983Y35259983D01*
X11949346Y35291223D01*
X11930296Y35326862D01*
X11918565Y35365532D01*
X11914000Y35411888D01*
X11914000Y36488112D01*
X11918565Y36534468D01*
X11930296Y36573138D01*
X11949346Y36608777D01*
X11974983Y36640017D01*
X12006223Y36665654D01*
X12041862Y36684704D01*
X12080532Y36696435D01*
X12126888Y36701000D01*
X12778112Y36701000D01*
X12824468Y36696435D01*
X12824468Y36696435D01*
G37*
G36*
X24349468Y36696435D02*
G01*
X24388138Y36684704D01*
X24423777Y36665654D01*
X24455017Y36640017D01*
X24480654Y36608777D01*
X24499704Y36573138D01*
X24511435Y36534468D01*
X24516000Y36488112D01*
X24516000Y35411888D01*
X24511435Y35365532D01*
X24499704Y35326862D01*
X24480654Y35291223D01*
X24455017Y35259983D01*
X24423777Y35234346D01*
X24388138Y35215296D01*
X24349468Y35203565D01*
X24303112Y35199000D01*
X23651888Y35199000D01*
X23605532Y35203565D01*
X23566862Y35215296D01*
X23531223Y35234346D01*
X23499983Y35259983D01*
X23474346Y35291223D01*
X23455296Y35326862D01*
X23443565Y35365532D01*
X23439000Y35411888D01*
X23439000Y36488112D01*
X23443565Y36534468D01*
X23455296Y36573138D01*
X23474346Y36608777D01*
X23499983Y36640017D01*
X23531223Y36665654D01*
X23566862Y36684704D01*
X23605532Y36696435D01*
X23651888Y36701000D01*
X24303112Y36701000D01*
X24349468Y36696435D01*
X24349468Y36696435D01*
G37*
G36*
X26224468Y36696435D02*
G01*
X26263138Y36684704D01*
X26298777Y36665654D01*
X26330017Y36640017D01*
X26355654Y36608777D01*
X26374704Y36573138D01*
X26386435Y36534468D01*
X26391000Y36488112D01*
X26391000Y35411888D01*
X26386435Y35365532D01*
X26374704Y35326862D01*
X26355654Y35291223D01*
X26330017Y35259983D01*
X26298777Y35234346D01*
X26263138Y35215296D01*
X26224468Y35203565D01*
X26178112Y35199000D01*
X25526888Y35199000D01*
X25480532Y35203565D01*
X25441862Y35215296D01*
X25406223Y35234346D01*
X25374983Y35259983D01*
X25349346Y35291223D01*
X25330296Y35326862D01*
X25318565Y35365532D01*
X25314000Y35411888D01*
X25314000Y36488112D01*
X25318565Y36534468D01*
X25330296Y36573138D01*
X25349346Y36608777D01*
X25374983Y36640017D01*
X25406223Y36665654D01*
X25441862Y36684704D01*
X25480532Y36696435D01*
X25526888Y36701000D01*
X26178112Y36701000D01*
X26224468Y36696435D01*
X26224468Y36696435D01*
G37*
G36*
X-18504000Y35224000D02*
G01*
X-19666000Y35224000D01*
X-19666000Y35976000D01*
X-18504000Y35976000D01*
X-18504000Y35224000D01*
X-18504000Y35224000D01*
G37*
G36*
X-5004000Y35224000D02*
G01*
X-6166000Y35224000D01*
X-6166000Y35976000D01*
X-5004000Y35976000D01*
X-5004000Y35224000D01*
X-5004000Y35224000D01*
G37*
G36*
X21796000Y35224000D02*
G01*
X20634000Y35224000D01*
X20634000Y35976000D01*
X21796000Y35976000D01*
X21796000Y35224000D01*
X21796000Y35224000D01*
G37*
G36*
X8396000Y35224000D02*
G01*
X7234000Y35224000D01*
X7234000Y35976000D01*
X8396000Y35976000D01*
X8396000Y35224000D01*
X8396000Y35224000D01*
G37*
G36*
X22724672Y36211551D02*
G01*
X22724674Y36211550D01*
X22724675Y36211550D01*
X22793103Y36183207D01*
X22854686Y36142058D01*
X22907058Y36089686D01*
X22948207Y36028103D01*
X22969788Y35976000D01*
X22976551Y35959672D01*
X22991000Y35887034D01*
X22991000Y35812966D01*
X22982831Y35771897D01*
X22976550Y35740325D01*
X22948207Y35671897D01*
X22907058Y35610314D01*
X22854686Y35557942D01*
X22793103Y35516793D01*
X22724675Y35488450D01*
X22724674Y35488450D01*
X22724672Y35488449D01*
X22652034Y35474000D01*
X22577966Y35474000D01*
X22505328Y35488449D01*
X22505326Y35488450D01*
X22505325Y35488450D01*
X22436897Y35516793D01*
X22375314Y35557942D01*
X22322942Y35610314D01*
X22281793Y35671897D01*
X22253450Y35740325D01*
X22247170Y35771897D01*
X22239000Y35812966D01*
X22239000Y35887034D01*
X22253449Y35959672D01*
X22260212Y35976000D01*
X22281793Y36028103D01*
X22322942Y36089686D01*
X22375314Y36142058D01*
X22436897Y36183207D01*
X22505325Y36211550D01*
X22505326Y36211550D01*
X22505328Y36211551D01*
X22577966Y36226000D01*
X22652034Y36226000D01*
X22724672Y36211551D01*
X22724672Y36211551D01*
G37*
G36*
X-4075328Y36311551D02*
G01*
X-4075326Y36311550D01*
X-4075325Y36311550D01*
X-4006897Y36283207D01*
X-3945314Y36242058D01*
X-3892942Y36189686D01*
X-3851793Y36128103D01*
X-3823450Y36059675D01*
X-3823449Y36059672D01*
X-3809000Y35987034D01*
X-3809000Y35912966D01*
X-3814158Y35887034D01*
X-3823450Y35840325D01*
X-3851793Y35771897D01*
X-3892942Y35710314D01*
X-3945314Y35657942D01*
X-4006897Y35616793D01*
X-4075325Y35588450D01*
X-4075326Y35588450D01*
X-4075328Y35588449D01*
X-4147966Y35574000D01*
X-4222034Y35574000D01*
X-4294672Y35588449D01*
X-4294674Y35588450D01*
X-4294675Y35588450D01*
X-4363103Y35616793D01*
X-4424686Y35657942D01*
X-4477058Y35710314D01*
X-4518207Y35771897D01*
X-4546550Y35840325D01*
X-4555841Y35887034D01*
X-4561000Y35912966D01*
X-4561000Y35987034D01*
X-4546551Y36059672D01*
X-4546550Y36059675D01*
X-4518207Y36128103D01*
X-4477058Y36189686D01*
X-4424686Y36242058D01*
X-4363103Y36283207D01*
X-4294675Y36311550D01*
X-4294674Y36311550D01*
X-4294672Y36311551D01*
X-4222034Y36326000D01*
X-4147966Y36326000D01*
X-4075328Y36311551D01*
X-4075328Y36311551D01*
G37*
G36*
X9324672Y36311551D02*
G01*
X9324674Y36311550D01*
X9324675Y36311550D01*
X9393103Y36283207D01*
X9454686Y36242058D01*
X9507058Y36189686D01*
X9548207Y36128103D01*
X9576550Y36059675D01*
X9576551Y36059672D01*
X9591000Y35987034D01*
X9591000Y35912966D01*
X9585842Y35887034D01*
X9576550Y35840325D01*
X9548207Y35771897D01*
X9507058Y35710314D01*
X9454686Y35657942D01*
X9393103Y35616793D01*
X9324675Y35588450D01*
X9324674Y35588450D01*
X9324672Y35588449D01*
X9252034Y35574000D01*
X9177966Y35574000D01*
X9105328Y35588449D01*
X9105326Y35588450D01*
X9105325Y35588450D01*
X9036897Y35616793D01*
X8975314Y35657942D01*
X8922942Y35710314D01*
X8881793Y35771897D01*
X8853450Y35840325D01*
X8844159Y35887034D01*
X8839000Y35912966D01*
X8839000Y35987034D01*
X8853449Y36059672D01*
X8853450Y36059675D01*
X8881793Y36128103D01*
X8922942Y36189686D01*
X8975314Y36242058D01*
X9036897Y36283207D01*
X9105325Y36311550D01*
X9105326Y36311550D01*
X9105328Y36311551D01*
X9177966Y36326000D01*
X9252034Y36326000D01*
X9324672Y36311551D01*
X9324672Y36311551D01*
G37*
G36*
X-17675328Y36311551D02*
G01*
X-17675326Y36311550D01*
X-17675325Y36311550D01*
X-17606897Y36283207D01*
X-17545314Y36242058D01*
X-17492942Y36189686D01*
X-17451793Y36128103D01*
X-17423450Y36059675D01*
X-17423449Y36059672D01*
X-17409000Y35987034D01*
X-17409000Y35912966D01*
X-17414158Y35887034D01*
X-17423450Y35840325D01*
X-17451793Y35771897D01*
X-17492942Y35710314D01*
X-17545314Y35657942D01*
X-17606897Y35616793D01*
X-17675325Y35588450D01*
X-17675326Y35588450D01*
X-17675328Y35588449D01*
X-17747966Y35574000D01*
X-17822034Y35574000D01*
X-17894672Y35588449D01*
X-17894674Y35588450D01*
X-17894675Y35588450D01*
X-17963103Y35616793D01*
X-18024686Y35657942D01*
X-18077058Y35710314D01*
X-18118207Y35771897D01*
X-18146550Y35840325D01*
X-18155841Y35887034D01*
X-18161000Y35912966D01*
X-18161000Y35987034D01*
X-18146551Y36059672D01*
X-18146550Y36059675D01*
X-18118207Y36128103D01*
X-18077058Y36189686D01*
X-18024686Y36242058D01*
X-17963103Y36283207D01*
X-17894675Y36311550D01*
X-17894674Y36311550D01*
X-17894672Y36311551D01*
X-17822034Y36326000D01*
X-17747966Y36326000D01*
X-17675328Y36311551D01*
X-17675328Y36311551D01*
G37*
G36*
X-13175328Y38511551D02*
G01*
X-13175326Y38511550D01*
X-13175325Y38511550D01*
X-13106897Y38483207D01*
X-13045314Y38442058D01*
X-12992942Y38389686D01*
X-12951793Y38328103D01*
X-12923450Y38259675D01*
X-12909000Y38187033D01*
X-12909000Y38112967D01*
X-12923450Y38040325D01*
X-12951793Y37971897D01*
X-12992942Y37910314D01*
X-13045314Y37857942D01*
X-13106897Y37816793D01*
X-13175325Y37788450D01*
X-13175326Y37788450D01*
X-13175328Y37788449D01*
X-13247966Y37774000D01*
X-13322034Y37774000D01*
X-13394672Y37788449D01*
X-13394674Y37788450D01*
X-13394675Y37788450D01*
X-13463103Y37816793D01*
X-13524686Y37857942D01*
X-13577058Y37910314D01*
X-13618207Y37971897D01*
X-13646550Y38040325D01*
X-13661000Y38112967D01*
X-13661000Y38187033D01*
X-13646550Y38259675D01*
X-13618207Y38328103D01*
X-13577058Y38389686D01*
X-13524686Y38442058D01*
X-13463103Y38483207D01*
X-13394675Y38511550D01*
X-13394674Y38511550D01*
X-13394672Y38511551D01*
X-13322034Y38526000D01*
X-13247966Y38526000D01*
X-13175328Y38511551D01*
X-13175328Y38511551D01*
G37*
G36*
X274666Y39311551D02*
G01*
X274668Y39311550D01*
X274669Y39311550D01*
X343097Y39283207D01*
X404680Y39242058D01*
X457052Y39189686D01*
X498201Y39128103D01*
X526544Y39059675D01*
X540994Y38987033D01*
X540994Y38912967D01*
X526544Y38840325D01*
X498201Y38771897D01*
X457052Y38710314D01*
X404680Y38657942D01*
X343097Y38616793D01*
X274669Y38588450D01*
X274668Y38588450D01*
X274666Y38588449D01*
X202028Y38574000D01*
X127960Y38574000D01*
X55322Y38588449D01*
X55320Y38588450D01*
X55319Y38588450D01*
X-13109Y38616793D01*
X-74692Y38657942D01*
X-127064Y38710314D01*
X-168213Y38771897D01*
X-196556Y38840325D01*
X-211006Y38912967D01*
X-211006Y38987033D01*
X-196556Y39059675D01*
X-168213Y39128103D01*
X-127064Y39189686D01*
X-74692Y39242058D01*
X-13109Y39283207D01*
X55319Y39311550D01*
X55320Y39311550D01*
X55322Y39311551D01*
X127960Y39326000D01*
X202028Y39326000D01*
X274666Y39311551D01*
X274666Y39311551D01*
G37*
G36*
X13720287Y40111551D02*
G01*
X13720289Y40111550D01*
X13720290Y40111550D01*
X13788718Y40083207D01*
X13850301Y40042058D01*
X13902673Y39989686D01*
X13943822Y39928103D01*
X13972165Y39859675D01*
X13986615Y39787033D01*
X13986615Y39712967D01*
X13972165Y39640325D01*
X13943822Y39571897D01*
X13902673Y39510314D01*
X13850301Y39457942D01*
X13788718Y39416793D01*
X13720290Y39388450D01*
X13720289Y39388450D01*
X13720287Y39388449D01*
X13647649Y39374000D01*
X13573581Y39374000D01*
X13500943Y39388449D01*
X13500941Y39388450D01*
X13500940Y39388450D01*
X13432512Y39416793D01*
X13370929Y39457942D01*
X13318557Y39510314D01*
X13277408Y39571897D01*
X13249065Y39640325D01*
X13234615Y39712967D01*
X13234615Y39787033D01*
X13249065Y39859675D01*
X13277408Y39928103D01*
X13318557Y39989686D01*
X13370929Y40042058D01*
X13432512Y40083207D01*
X13500940Y40111550D01*
X13500941Y40111550D01*
X13500943Y40111551D01*
X13573581Y40126000D01*
X13647649Y40126000D01*
X13720287Y40111551D01*
X13720287Y40111551D01*
G37*
G36*
X27274672Y40961551D02*
G01*
X27274674Y40961550D01*
X27274675Y40961550D01*
X27343103Y40933207D01*
X27404686Y40892058D01*
X27457058Y40839686D01*
X27498207Y40778103D01*
X27526550Y40709675D01*
X27541000Y40637033D01*
X27541000Y40562967D01*
X27526550Y40490325D01*
X27498207Y40421897D01*
X27457058Y40360314D01*
X27404686Y40307942D01*
X27343103Y40266793D01*
X27274675Y40238450D01*
X27274674Y40238450D01*
X27274672Y40238449D01*
X27202034Y40224000D01*
X27127966Y40224000D01*
X27055328Y40238449D01*
X27055326Y40238450D01*
X27055325Y40238450D01*
X26986897Y40266793D01*
X26925314Y40307942D01*
X26872942Y40360314D01*
X26831793Y40421897D01*
X26803450Y40490325D01*
X26789000Y40562967D01*
X26789000Y40637033D01*
X26803450Y40709675D01*
X26831793Y40778103D01*
X26872942Y40839686D01*
X26925314Y40892058D01*
X26986897Y40933207D01*
X27055325Y40961550D01*
X27055326Y40961550D01*
X27055328Y40961551D01*
X27127966Y40976000D01*
X27202034Y40976000D01*
X27274672Y40961551D01*
X27274672Y40961551D01*
G37*
M02*
