G04 #@! TF.GenerationSoftware,KiCad,Pcbnew,(5.1.2-1)-1*
G04 #@! TF.CreationDate,2020-05-18T22:01:47-05:00*
G04 #@! TF.ProjectId,Interactive Core Memory Badge (Logic) v0.3,496e7465-7261-4637-9469-766520436f72,0.3*
G04 #@! TF.SameCoordinates,Original*
G04 #@! TF.FileFunction,Legend,Bot*
G04 #@! TF.FilePolarity,Positive*
%FSLAX46Y46*%
G04 Gerber Fmt 4.6, Leading zero omitted, Abs format (unit mm)*
G04 Created by KiCad (PCBNEW (5.1.2-1)-1) date 2020-05-18 22:01:47*
%MOMM*%
%LPD*%
G04 APERTURE LIST*
%ADD10C,0.150000*%
%ADD11C,0.381000*%
%ADD12C,0.635000*%
%ADD13C,0.010000*%
G04 APERTURE END LIST*
D10*
X30499999Y-127152380D02*
X30976190Y-127152380D01*
X30976190Y-126152380D01*
X29976190Y-126152380D02*
X29785714Y-126152380D01*
X29690476Y-126200000D01*
X29595238Y-126295238D01*
X29547619Y-126485714D01*
X29547619Y-126819047D01*
X29595238Y-127009523D01*
X29690476Y-127104761D01*
X29785714Y-127152380D01*
X29976190Y-127152380D01*
X30071428Y-127104761D01*
X30166666Y-127009523D01*
X30214285Y-126819047D01*
X30214285Y-126485714D01*
X30166666Y-126295238D01*
X30071428Y-126200000D01*
X29976190Y-126152380D01*
X28595238Y-126200000D02*
X28690476Y-126152380D01*
X28833333Y-126152380D01*
X28976190Y-126200000D01*
X29071428Y-126295238D01*
X29119047Y-126390476D01*
X29166666Y-126580952D01*
X29166666Y-126723809D01*
X29119047Y-126914285D01*
X29071428Y-127009523D01*
X28976190Y-127104761D01*
X28833333Y-127152380D01*
X28738095Y-127152380D01*
X28595238Y-127104761D01*
X28547619Y-127057142D01*
X28547619Y-126723809D01*
X28738095Y-126723809D01*
X28119047Y-127152380D02*
X28119047Y-126152380D01*
X27071428Y-127057142D02*
X27119047Y-127104761D01*
X27261904Y-127152380D01*
X27357142Y-127152380D01*
X27499999Y-127104761D01*
X27595238Y-127009523D01*
X27642857Y-126914285D01*
X27690476Y-126723809D01*
X27690476Y-126580952D01*
X27642857Y-126390476D01*
X27595238Y-126295238D01*
X27499999Y-126200000D01*
X27357142Y-126152380D01*
X27261904Y-126152380D01*
X27119047Y-126200000D01*
X27071428Y-126247619D01*
X25547619Y-126628571D02*
X25404761Y-126676190D01*
X25357142Y-126723809D01*
X25309523Y-126819047D01*
X25309523Y-126961904D01*
X25357142Y-127057142D01*
X25404761Y-127104761D01*
X25499999Y-127152380D01*
X25880952Y-127152380D01*
X25880952Y-126152380D01*
X25547619Y-126152380D01*
X25452380Y-126200000D01*
X25404761Y-126247619D01*
X25357142Y-126342857D01*
X25357142Y-126438095D01*
X25404761Y-126533333D01*
X25452380Y-126580952D01*
X25547619Y-126628571D01*
X25880952Y-126628571D01*
X24690476Y-126152380D02*
X24499999Y-126152380D01*
X24404761Y-126200000D01*
X24309523Y-126295238D01*
X24261904Y-126485714D01*
X24261904Y-126819047D01*
X24309523Y-127009523D01*
X24404761Y-127104761D01*
X24499999Y-127152380D01*
X24690476Y-127152380D01*
X24785714Y-127104761D01*
X24880952Y-127009523D01*
X24928571Y-126819047D01*
X24928571Y-126485714D01*
X24880952Y-126295238D01*
X24785714Y-126200000D01*
X24690476Y-126152380D01*
X23880952Y-126866666D02*
X23404761Y-126866666D01*
X23976190Y-127152380D02*
X23642857Y-126152380D01*
X23309523Y-127152380D01*
X22404761Y-127152380D02*
X22738095Y-126676190D01*
X22976190Y-127152380D02*
X22976190Y-126152380D01*
X22595238Y-126152380D01*
X22499999Y-126200000D01*
X22452380Y-126247619D01*
X22404761Y-126342857D01*
X22404761Y-126485714D01*
X22452380Y-126580952D01*
X22499999Y-126628571D01*
X22595238Y-126676190D01*
X22976190Y-126676190D01*
X21976190Y-127152380D02*
X21976190Y-126152380D01*
X21738095Y-126152380D01*
X21595238Y-126200000D01*
X21499999Y-126295238D01*
X21452380Y-126390476D01*
X21404761Y-126580952D01*
X21404761Y-126723809D01*
X21452380Y-126914285D01*
X21499999Y-127009523D01*
X21595238Y-127104761D01*
X21738095Y-127152380D01*
X21976190Y-127152380D01*
X18071428Y-126152380D02*
X17738095Y-127152380D01*
X17404761Y-126152380D01*
X16880952Y-126152380D02*
X16785714Y-126152380D01*
X16690476Y-126200000D01*
X16642857Y-126247619D01*
X16595238Y-126342857D01*
X16547619Y-126533333D01*
X16547619Y-126771428D01*
X16595238Y-126961904D01*
X16642857Y-127057142D01*
X16690476Y-127104761D01*
X16785714Y-127152380D01*
X16880952Y-127152380D01*
X16976190Y-127104761D01*
X17023809Y-127057142D01*
X17071428Y-126961904D01*
X17119047Y-126771428D01*
X17119047Y-126533333D01*
X17071428Y-126342857D01*
X17023809Y-126247619D01*
X16976190Y-126200000D01*
X16880952Y-126152380D01*
X16119047Y-127057142D02*
X16071428Y-127104761D01*
X16119047Y-127152380D01*
X16166666Y-127104761D01*
X16119047Y-127057142D01*
X16119047Y-127152380D01*
X15738095Y-126152380D02*
X15119047Y-126152380D01*
X15452380Y-126533333D01*
X15309523Y-126533333D01*
X15214285Y-126580952D01*
X15166666Y-126628571D01*
X15119047Y-126723809D01*
X15119047Y-126961904D01*
X15166666Y-127057142D01*
X15214285Y-127104761D01*
X15309523Y-127152380D01*
X15595238Y-127152380D01*
X15690476Y-127104761D01*
X15738095Y-127057142D01*
X11690476Y-126247619D02*
X11642857Y-126200000D01*
X11547619Y-126152380D01*
X11309523Y-126152380D01*
X11214285Y-126200000D01*
X11166666Y-126247619D01*
X11119047Y-126342857D01*
X11119047Y-126438095D01*
X11166666Y-126580952D01*
X11738095Y-127152380D01*
X11119047Y-127152380D01*
X10499999Y-126152380D02*
X10404761Y-126152380D01*
X10309523Y-126200000D01*
X10261904Y-126247619D01*
X10214285Y-126342857D01*
X10166666Y-126533333D01*
X10166666Y-126771428D01*
X10214285Y-126961904D01*
X10261904Y-127057142D01*
X10309523Y-127104761D01*
X10404761Y-127152380D01*
X10499999Y-127152380D01*
X10595238Y-127104761D01*
X10642857Y-127057142D01*
X10690476Y-126961904D01*
X10738095Y-126771428D01*
X10738095Y-126533333D01*
X10690476Y-126342857D01*
X10642857Y-126247619D01*
X10595238Y-126200000D01*
X10499999Y-126152380D01*
X9785714Y-126247619D02*
X9738095Y-126200000D01*
X9642857Y-126152380D01*
X9404761Y-126152380D01*
X9309523Y-126200000D01*
X9261904Y-126247619D01*
X9214285Y-126342857D01*
X9214285Y-126438095D01*
X9261904Y-126580952D01*
X9833333Y-127152380D01*
X9214285Y-127152380D01*
X8595238Y-126152380D02*
X8499999Y-126152380D01*
X8404761Y-126200000D01*
X8357142Y-126247619D01*
X8309523Y-126342857D01*
X8261904Y-126533333D01*
X8261904Y-126771428D01*
X8309523Y-126961904D01*
X8357142Y-127057142D01*
X8404761Y-127104761D01*
X8499999Y-127152380D01*
X8595238Y-127152380D01*
X8690476Y-127104761D01*
X8738095Y-127057142D01*
X8785714Y-126961904D01*
X8833333Y-126771428D01*
X8833333Y-126533333D01*
X8785714Y-126342857D01*
X8738095Y-126247619D01*
X8690476Y-126200000D01*
X8595238Y-126152380D01*
X7833333Y-126771428D02*
X7071428Y-126771428D01*
X6404761Y-126152380D02*
X6309523Y-126152380D01*
X6214285Y-126200000D01*
X6166666Y-126247619D01*
X6119047Y-126342857D01*
X6071428Y-126533333D01*
X6071428Y-126771428D01*
X6119047Y-126961904D01*
X6166666Y-127057142D01*
X6214285Y-127104761D01*
X6309523Y-127152380D01*
X6404761Y-127152380D01*
X6499999Y-127104761D01*
X6547619Y-127057142D01*
X6595238Y-126961904D01*
X6642857Y-126771428D01*
X6642857Y-126533333D01*
X6595238Y-126342857D01*
X6547619Y-126247619D01*
X6499999Y-126200000D01*
X6404761Y-126152380D01*
X5166666Y-126152380D02*
X5642857Y-126152380D01*
X5690476Y-126628571D01*
X5642857Y-126580952D01*
X5547619Y-126533333D01*
X5309523Y-126533333D01*
X5214285Y-126580952D01*
X5166666Y-126628571D01*
X5119047Y-126723809D01*
X5119047Y-126961904D01*
X5166666Y-127057142D01*
X5214285Y-127104761D01*
X5309523Y-127152380D01*
X5547619Y-127152380D01*
X5642857Y-127104761D01*
X5690476Y-127057142D01*
X4690476Y-126771428D02*
X3928571Y-126771428D01*
X2928571Y-127152380D02*
X3499999Y-127152380D01*
X3214285Y-127152380D02*
X3214285Y-126152380D01*
X3309523Y-126295238D01*
X3404761Y-126390476D01*
X3499999Y-126438095D01*
X2357142Y-126580952D02*
X2452380Y-126533333D01*
X2499999Y-126485714D01*
X2547619Y-126390476D01*
X2547619Y-126342857D01*
X2499999Y-126247619D01*
X2452380Y-126200000D01*
X2357142Y-126152380D01*
X2166666Y-126152380D01*
X2071428Y-126200000D01*
X2023809Y-126247619D01*
X1976190Y-126342857D01*
X1976190Y-126390476D01*
X2023809Y-126485714D01*
X2071428Y-126533333D01*
X2166666Y-126580952D01*
X2357142Y-126580952D01*
X2452380Y-126628571D01*
X2499999Y-126676190D01*
X2547619Y-126771428D01*
X2547619Y-126961904D01*
X2499999Y-127057142D01*
X2452380Y-127104761D01*
X2357142Y-127152380D01*
X2166666Y-127152380D01*
X2071428Y-127104761D01*
X2023809Y-127057142D01*
X1976190Y-126961904D01*
X1976190Y-126771428D01*
X2023809Y-126676190D01*
X2071428Y-126628571D01*
X2166666Y-126580952D01*
X-1452380Y-126866666D02*
X-1928571Y-126866666D01*
X-1357142Y-127152380D02*
X-1690476Y-126152380D01*
X-2023809Y-127152380D01*
X-2357142Y-127057142D02*
X-2404761Y-127104761D01*
X-2357142Y-127152380D01*
X-2309523Y-127104761D01*
X-2357142Y-127057142D01*
X-2357142Y-127152380D01*
X-4119047Y-126200000D02*
X-4023809Y-126152380D01*
X-3880952Y-126152380D01*
X-3738095Y-126200000D01*
X-3642857Y-126295238D01*
X-3595238Y-126390476D01*
X-3547619Y-126580952D01*
X-3547619Y-126723809D01*
X-3595238Y-126914285D01*
X-3642857Y-127009523D01*
X-3738095Y-127104761D01*
X-3880952Y-127152380D01*
X-3976190Y-127152380D01*
X-4119047Y-127104761D01*
X-4166666Y-127057142D01*
X-4166666Y-126723809D01*
X-3976190Y-126723809D01*
X-4595238Y-126628571D02*
X-4928571Y-126628571D01*
X-5071428Y-127152380D02*
X-4595238Y-127152380D01*
X-4595238Y-126152380D01*
X-5071428Y-126152380D01*
X-5500000Y-127152380D02*
X-5500000Y-126152380D01*
X-5880952Y-126152380D01*
X-5976190Y-126200000D01*
X-6023809Y-126247619D01*
X-6071428Y-126342857D01*
X-6071428Y-126485714D01*
X-6023809Y-126580952D01*
X-5976190Y-126628571D01*
X-5880952Y-126676190D01*
X-5500000Y-126676190D01*
X-6500000Y-127152380D02*
X-6500000Y-126152380D01*
X-6880952Y-126152380D01*
X-6976190Y-126200000D01*
X-7023809Y-126247619D01*
X-7071428Y-126342857D01*
X-7071428Y-126485714D01*
X-7023809Y-126580952D01*
X-6976190Y-126628571D01*
X-6880952Y-126676190D01*
X-6500000Y-126676190D01*
X-7500000Y-126628571D02*
X-7833333Y-126628571D01*
X-7976190Y-127152380D02*
X-7500000Y-127152380D01*
X-7500000Y-126152380D01*
X-7976190Y-126152380D01*
X-8976190Y-127152380D02*
X-8642857Y-126676190D01*
X-8404761Y-127152380D02*
X-8404761Y-126152380D01*
X-8785714Y-126152380D01*
X-8880952Y-126200000D01*
X-8928571Y-126247619D01*
X-8976190Y-126342857D01*
X-8976190Y-126485714D01*
X-8928571Y-126580952D01*
X-8880952Y-126628571D01*
X-8785714Y-126676190D01*
X-8404761Y-126676190D01*
X-9261904Y-126152380D02*
X-9833333Y-126152380D01*
X-9547619Y-127152380D02*
X-9547619Y-126152380D01*
X-13119047Y-126152380D02*
X-13357142Y-127152380D01*
X-13547619Y-126438095D01*
X-13738095Y-127152380D01*
X-13976190Y-126152380D01*
X-14261904Y-126152380D02*
X-14500000Y-127152380D01*
X-14690476Y-126438095D01*
X-14880952Y-127152380D01*
X-15119047Y-126152380D01*
X-15404761Y-126152380D02*
X-15642857Y-127152380D01*
X-15833333Y-126438095D01*
X-16023809Y-127152380D01*
X-16261904Y-126152380D01*
X-16642857Y-127057142D02*
X-16690476Y-127104761D01*
X-16642857Y-127152380D01*
X-16595238Y-127104761D01*
X-16642857Y-127057142D01*
X-16642857Y-127152380D01*
X-17119047Y-127152380D02*
X-17119047Y-126152380D01*
X-17452380Y-126866666D01*
X-17785714Y-126152380D01*
X-17785714Y-127152380D01*
X-18214285Y-126866666D02*
X-18690476Y-126866666D01*
X-18119047Y-127152380D02*
X-18452380Y-126152380D01*
X-18785714Y-127152380D01*
X-19690476Y-127057142D02*
X-19642857Y-127104761D01*
X-19500000Y-127152380D01*
X-19404761Y-127152380D01*
X-19261904Y-127104761D01*
X-19166666Y-127009523D01*
X-19119047Y-126914285D01*
X-19071428Y-126723809D01*
X-19071428Y-126580952D01*
X-19119047Y-126390476D01*
X-19166666Y-126295238D01*
X-19261904Y-126200000D01*
X-19404761Y-126152380D01*
X-19500000Y-126152380D01*
X-19642857Y-126200000D01*
X-19690476Y-126247619D01*
X-20119047Y-127152380D02*
X-20119047Y-126152380D01*
X-20119047Y-126628571D02*
X-20690476Y-126628571D01*
X-20690476Y-127152380D02*
X-20690476Y-126152380D01*
X-21166666Y-127152380D02*
X-21166666Y-126152380D01*
X-21642857Y-127152380D02*
X-21642857Y-126152380D01*
X-22214285Y-127152380D01*
X-22214285Y-126152380D01*
X-22690476Y-126628571D02*
X-23023809Y-126628571D01*
X-23166666Y-127152380D02*
X-22690476Y-127152380D01*
X-22690476Y-126152380D01*
X-23166666Y-126152380D01*
X-23595238Y-127152380D02*
X-23595238Y-126152380D01*
X-24071428Y-127152380D02*
X-24071428Y-126152380D01*
X-24309523Y-126152380D01*
X-24452380Y-126200000D01*
X-24547619Y-126295238D01*
X-24595238Y-126390476D01*
X-24642857Y-126580952D01*
X-24642857Y-126723809D01*
X-24595238Y-126914285D01*
X-24547619Y-127009523D01*
X-24452380Y-127104761D01*
X-24309523Y-127152380D01*
X-24071428Y-127152380D01*
X-25071428Y-126628571D02*
X-25404761Y-126628571D01*
X-25547619Y-127152380D02*
X-25071428Y-127152380D01*
X-25071428Y-126152380D01*
X-25547619Y-126152380D01*
X-25928571Y-126866666D02*
X-26404761Y-126866666D01*
X-25833333Y-127152380D02*
X-26166666Y-126152380D01*
X-26500000Y-127152380D01*
X-26785714Y-127104761D02*
X-26928571Y-127152380D01*
X-27166666Y-127152380D01*
X-27261904Y-127104761D01*
X-27309523Y-127057142D01*
X-27357142Y-126961904D01*
X-27357142Y-126866666D01*
X-27309523Y-126771428D01*
X-27261904Y-126723809D01*
X-27166666Y-126676190D01*
X-26976190Y-126628571D01*
X-26880952Y-126580952D01*
X-26833333Y-126533333D01*
X-26785714Y-126438095D01*
X-26785714Y-126342857D01*
X-26833333Y-126247619D01*
X-26880952Y-126200000D01*
X-26976190Y-126152380D01*
X-27214285Y-126152380D01*
X-27357142Y-126200000D01*
X-27785714Y-127057142D02*
X-27833333Y-127104761D01*
X-27785714Y-127152380D01*
X-27738095Y-127104761D01*
X-27785714Y-127057142D01*
X-27785714Y-127152380D01*
X-28833333Y-127057142D02*
X-28785714Y-127104761D01*
X-28642857Y-127152380D01*
X-28547619Y-127152380D01*
X-28404761Y-127104761D01*
X-28309523Y-127009523D01*
X-28261904Y-126914285D01*
X-28214285Y-126723809D01*
X-28214285Y-126580952D01*
X-28261904Y-126390476D01*
X-28309523Y-126295238D01*
X-28404761Y-126200000D01*
X-28547619Y-126152380D01*
X-28642857Y-126152380D01*
X-28785714Y-126200000D01*
X-28833333Y-126247619D01*
X-29452380Y-126152380D02*
X-29642857Y-126152380D01*
X-29738095Y-126200000D01*
X-29833333Y-126295238D01*
X-29880952Y-126485714D01*
X-29880952Y-126819047D01*
X-29833333Y-127009523D01*
X-29738095Y-127104761D01*
X-29642857Y-127152380D01*
X-29452380Y-127152380D01*
X-29357142Y-127104761D01*
X-29261904Y-127009523D01*
X-29214285Y-126819047D01*
X-29214285Y-126485714D01*
X-29261904Y-126295238D01*
X-29357142Y-126200000D01*
X-29452380Y-126152380D01*
X-30309523Y-127152380D02*
X-30309523Y-126152380D01*
X-30642857Y-126866666D01*
X-30976190Y-126152380D01*
X-30976190Y-127152380D01*
D11*
X16101785Y-6591785D02*
X15738928Y-7861785D01*
X15376071Y-6954642D01*
X15013214Y-7861785D01*
X14650357Y-6591785D01*
X14106071Y-6591785D02*
X13743214Y-7861785D01*
X13380357Y-6954642D01*
X13017500Y-7861785D01*
X12654642Y-6591785D01*
X12110357Y-6591785D02*
X11747500Y-7861785D01*
X11384642Y-6954642D01*
X11021785Y-7861785D01*
X10658928Y-6591785D01*
X9933214Y-7680357D02*
X9842500Y-7771071D01*
X9933214Y-7861785D01*
X10023928Y-7771071D01*
X9933214Y-7680357D01*
X9933214Y-7861785D01*
X9026071Y-7861785D02*
X9026071Y-5956785D01*
X8391071Y-7317500D01*
X7756071Y-5956785D01*
X7756071Y-7861785D01*
X6032500Y-7861785D02*
X6032500Y-6863928D01*
X6123214Y-6682500D01*
X6304642Y-6591785D01*
X6667500Y-6591785D01*
X6848928Y-6682500D01*
X6032500Y-7771071D02*
X6213928Y-7861785D01*
X6667500Y-7861785D01*
X6848928Y-7771071D01*
X6939642Y-7589642D01*
X6939642Y-7408214D01*
X6848928Y-7226785D01*
X6667500Y-7136071D01*
X6213928Y-7136071D01*
X6032500Y-7045357D01*
X4308928Y-7771071D02*
X4490357Y-7861785D01*
X4853214Y-7861785D01*
X5034642Y-7771071D01*
X5125357Y-7680357D01*
X5216071Y-7498928D01*
X5216071Y-6954642D01*
X5125357Y-6773214D01*
X5034642Y-6682500D01*
X4853214Y-6591785D01*
X4490357Y-6591785D01*
X4308928Y-6682500D01*
X3492500Y-7861785D02*
X3492500Y-5956785D01*
X2676071Y-7861785D02*
X2676071Y-6863928D01*
X2766785Y-6682500D01*
X2948214Y-6591785D01*
X3220357Y-6591785D01*
X3401785Y-6682500D01*
X3492500Y-6773214D01*
X1768928Y-7861785D02*
X1768928Y-6591785D01*
X1768928Y-5956785D02*
X1859642Y-6047500D01*
X1768928Y-6138214D01*
X1678214Y-6047500D01*
X1768928Y-5956785D01*
X1768928Y-6138214D01*
X861785Y-6591785D02*
X861785Y-7861785D01*
X861785Y-6773214D02*
X771071Y-6682500D01*
X589642Y-6591785D01*
X317500Y-6591785D01*
X136071Y-6682500D01*
X45357Y-6863928D01*
X45357Y-7861785D01*
X-1587499Y-7771071D02*
X-1406071Y-7861785D01*
X-1043214Y-7861785D01*
X-861785Y-7771071D01*
X-771071Y-7589642D01*
X-771071Y-6863928D01*
X-861785Y-6682500D01*
X-1043214Y-6591785D01*
X-1406071Y-6591785D01*
X-1587499Y-6682500D01*
X-1678214Y-6863928D01*
X-1678214Y-7045357D01*
X-771071Y-7226785D01*
X-2494642Y-7861785D02*
X-2494642Y-5956785D01*
X-4218214Y-7861785D02*
X-4218214Y-5956785D01*
X-4218214Y-7771071D02*
X-4036785Y-7861785D01*
X-3673928Y-7861785D01*
X-3492499Y-7771071D01*
X-3401785Y-7680357D01*
X-3311071Y-7498928D01*
X-3311071Y-6954642D01*
X-3401785Y-6773214D01*
X-3492499Y-6682500D01*
X-3673928Y-6591785D01*
X-4036785Y-6591785D01*
X-4218214Y-6682500D01*
X-5851071Y-7771071D02*
X-5669642Y-7861785D01*
X-5306785Y-7861785D01*
X-5125357Y-7771071D01*
X-5034642Y-7589642D01*
X-5034642Y-6863928D01*
X-5125357Y-6682500D01*
X-5306785Y-6591785D01*
X-5669642Y-6591785D01*
X-5851071Y-6682500D01*
X-5941785Y-6863928D01*
X-5941785Y-7045357D01*
X-5034642Y-7226785D01*
X-7574642Y-7861785D02*
X-7574642Y-6863928D01*
X-7483928Y-6682500D01*
X-7302499Y-6591785D01*
X-6939642Y-6591785D01*
X-6758214Y-6682500D01*
X-7574642Y-7771071D02*
X-7393214Y-7861785D01*
X-6939642Y-7861785D01*
X-6758214Y-7771071D01*
X-6667499Y-7589642D01*
X-6667499Y-7408214D01*
X-6758214Y-7226785D01*
X-6939642Y-7136071D01*
X-7393214Y-7136071D01*
X-7574642Y-7045357D01*
X-8391071Y-7771071D02*
X-8572499Y-7861785D01*
X-8935357Y-7861785D01*
X-9116785Y-7771071D01*
X-9207499Y-7589642D01*
X-9207499Y-7498928D01*
X-9116785Y-7317500D01*
X-8935357Y-7226785D01*
X-8663214Y-7226785D01*
X-8481785Y-7136071D01*
X-8391071Y-6954642D01*
X-8391071Y-6863928D01*
X-8481785Y-6682500D01*
X-8663214Y-6591785D01*
X-8935357Y-6591785D01*
X-9116785Y-6682500D01*
X-10023928Y-7680357D02*
X-10114642Y-7771071D01*
X-10023928Y-7861785D01*
X-9933214Y-7771071D01*
X-10023928Y-7680357D01*
X-10023928Y-7861785D01*
X-11747499Y-7771071D02*
X-11566071Y-7861785D01*
X-11203214Y-7861785D01*
X-11021785Y-7771071D01*
X-10931071Y-7680357D01*
X-10840357Y-7498928D01*
X-10840357Y-6954642D01*
X-10931071Y-6773214D01*
X-11021785Y-6682500D01*
X-11203214Y-6591785D01*
X-11566071Y-6591785D01*
X-11747499Y-6682500D01*
X-12836071Y-7861785D02*
X-12654642Y-7771071D01*
X-12563928Y-7680357D01*
X-12473214Y-7498928D01*
X-12473214Y-6954642D01*
X-12563928Y-6773214D01*
X-12654642Y-6682500D01*
X-12836071Y-6591785D01*
X-13108214Y-6591785D01*
X-13289642Y-6682500D01*
X-13380357Y-6773214D01*
X-13471071Y-6954642D01*
X-13471071Y-7498928D01*
X-13380357Y-7680357D01*
X-13289642Y-7771071D01*
X-13108214Y-7861785D01*
X-12836071Y-7861785D01*
X-14287499Y-7861785D02*
X-14287499Y-6591785D01*
X-14287499Y-6773214D02*
X-14378214Y-6682500D01*
X-14559642Y-6591785D01*
X-14831785Y-6591785D01*
X-15013214Y-6682500D01*
X-15103928Y-6863928D01*
X-15103928Y-7861785D01*
X-15103928Y-6863928D02*
X-15194642Y-6682500D01*
X-15376071Y-6591785D01*
X-15648214Y-6591785D01*
X-15829642Y-6682500D01*
X-15920357Y-6863928D01*
X-15920357Y-7861785D01*
X9071428Y2182500D02*
X8164285Y2182500D01*
X9252857Y1638214D02*
X8617857Y3543214D01*
X7982857Y1638214D01*
X7347857Y2908214D02*
X7347857Y1638214D01*
X7347857Y2726785D02*
X7257142Y2817500D01*
X7075714Y2908214D01*
X6803571Y2908214D01*
X6622142Y2817500D01*
X6531428Y2636071D01*
X6531428Y1638214D01*
X4807857Y1638214D02*
X4807857Y3543214D01*
X4807857Y1728928D02*
X4989285Y1638214D01*
X5352142Y1638214D01*
X5533571Y1728928D01*
X5624285Y1819642D01*
X5714999Y2001071D01*
X5714999Y2545357D01*
X5624285Y2726785D01*
X5533571Y2817500D01*
X5352142Y2908214D01*
X4989285Y2908214D01*
X4807857Y2817500D01*
X4082142Y2908214D02*
X3628571Y1638214D01*
X3174999Y2908214D02*
X3628571Y1638214D01*
X3809999Y1184642D01*
X3900714Y1093928D01*
X4082142Y1003214D01*
X0Y3452500D02*
X181428Y3543214D01*
X453571Y3543214D01*
X725714Y3452500D01*
X907142Y3271071D01*
X997857Y3089642D01*
X1088571Y2726785D01*
X1088571Y2454642D01*
X997857Y2091785D01*
X907142Y1910357D01*
X725714Y1728928D01*
X453571Y1638214D01*
X272142Y1638214D01*
X0Y1728928D01*
X-90714Y1819642D01*
X-90714Y2454642D01*
X272142Y2454642D01*
X-1632857Y1728928D02*
X-1451428Y1638214D01*
X-1088571Y1638214D01*
X-907142Y1728928D01*
X-816428Y1910357D01*
X-816428Y2636071D01*
X-907142Y2817500D01*
X-1088571Y2908214D01*
X-1451428Y2908214D01*
X-1632857Y2817500D01*
X-1723571Y2636071D01*
X-1723571Y2454642D01*
X-816428Y2273214D01*
X-2540000Y2908214D02*
X-2540000Y1003214D01*
X-2540000Y2817500D02*
X-2721428Y2908214D01*
X-3084285Y2908214D01*
X-3265714Y2817500D01*
X-3356428Y2726785D01*
X-3447142Y2545357D01*
X-3447142Y2001071D01*
X-3356428Y1819642D01*
X-3265714Y1728928D01*
X-3084285Y1638214D01*
X-2721428Y1638214D01*
X-2540000Y1728928D01*
X-4263571Y2908214D02*
X-4263571Y1003214D01*
X-4263571Y2817500D02*
X-4445000Y2908214D01*
X-4807857Y2908214D01*
X-4989285Y2817500D01*
X-5080000Y2726785D01*
X-5170714Y2545357D01*
X-5170714Y2001071D01*
X-5080000Y1819642D01*
X-4989285Y1728928D01*
X-4807857Y1638214D01*
X-4445000Y1638214D01*
X-4263571Y1728928D01*
X-6712857Y1728928D02*
X-6531428Y1638214D01*
X-6168571Y1638214D01*
X-5987142Y1728928D01*
X-5896428Y1910357D01*
X-5896428Y2636071D01*
X-5987142Y2817500D01*
X-6168571Y2908214D01*
X-6531428Y2908214D01*
X-6712857Y2817500D01*
X-6803571Y2636071D01*
X-6803571Y2454642D01*
X-5896428Y2273214D01*
X-7620000Y1638214D02*
X-7620000Y2908214D01*
X-7620000Y2545357D02*
X-7710714Y2726785D01*
X-7801428Y2817500D01*
X-7982857Y2908214D01*
X-8164285Y2908214D01*
X-8527142Y2908214D02*
X-9252857Y2908214D01*
X-8799285Y3543214D02*
X-8799285Y1910357D01*
X-8890000Y1728928D01*
X-9071428Y1638214D01*
X-9252857Y1638214D01*
D12*
X28423809Y11063690D02*
X28423809Y14238690D01*
X26911904Y13180357D02*
X26911904Y11063690D01*
X26911904Y12877976D02*
X26760714Y13029166D01*
X26458333Y13180357D01*
X26004761Y13180357D01*
X25702380Y13029166D01*
X25551190Y12726785D01*
X25551190Y11063690D01*
X24492857Y13180357D02*
X23283333Y13180357D01*
X24039285Y14238690D02*
X24039285Y11517261D01*
X23888095Y11214880D01*
X23585714Y11063690D01*
X23283333Y11063690D01*
X21015476Y11214880D02*
X21317857Y11063690D01*
X21922619Y11063690D01*
X22225000Y11214880D01*
X22376190Y11517261D01*
X22376190Y12726785D01*
X22225000Y13029166D01*
X21922619Y13180357D01*
X21317857Y13180357D01*
X21015476Y13029166D01*
X20864285Y12726785D01*
X20864285Y12424404D01*
X22376190Y12122023D01*
X19503571Y11063690D02*
X19503571Y13180357D01*
X19503571Y12575595D02*
X19352380Y12877976D01*
X19201190Y13029166D01*
X18898809Y13180357D01*
X18596428Y13180357D01*
X16177380Y11063690D02*
X16177380Y12726785D01*
X16328571Y13029166D01*
X16630952Y13180357D01*
X17235714Y13180357D01*
X17538095Y13029166D01*
X16177380Y11214880D02*
X16479761Y11063690D01*
X17235714Y11063690D01*
X17538095Y11214880D01*
X17689285Y11517261D01*
X17689285Y11819642D01*
X17538095Y12122023D01*
X17235714Y12273214D01*
X16479761Y12273214D01*
X16177380Y12424404D01*
X13304761Y11214880D02*
X13607142Y11063690D01*
X14211904Y11063690D01*
X14514285Y11214880D01*
X14665476Y11366071D01*
X14816666Y11668452D01*
X14816666Y12575595D01*
X14665476Y12877976D01*
X14514285Y13029166D01*
X14211904Y13180357D01*
X13607142Y13180357D01*
X13304761Y13029166D01*
X12397619Y13180357D02*
X11188095Y13180357D01*
X11944047Y14238690D02*
X11944047Y11517261D01*
X11792857Y11214880D01*
X11490476Y11063690D01*
X11188095Y11063690D01*
X10129761Y11063690D02*
X10129761Y13180357D01*
X10129761Y14238690D02*
X10280952Y14087500D01*
X10129761Y13936309D01*
X9978571Y14087500D01*
X10129761Y14238690D01*
X10129761Y13936309D01*
X8920238Y13180357D02*
X8164285Y11063690D01*
X7408333Y13180357D01*
X4989285Y11214880D02*
X5291666Y11063690D01*
X5896428Y11063690D01*
X6198809Y11214880D01*
X6349999Y11517261D01*
X6349999Y12726785D01*
X6198809Y13029166D01*
X5896428Y13180357D01*
X5291666Y13180357D01*
X4989285Y13029166D01*
X4838095Y12726785D01*
X4838095Y12424404D01*
X6349999Y12122023D01*
X-755952Y11366071D02*
X-604761Y11214880D01*
X-151190Y11063690D01*
X151190Y11063690D01*
X604761Y11214880D01*
X907142Y11517261D01*
X1058333Y11819642D01*
X1209523Y12424404D01*
X1209523Y12877976D01*
X1058333Y13482738D01*
X907142Y13785119D01*
X604761Y14087500D01*
X151190Y14238690D01*
X-151190Y14238690D01*
X-604761Y14087500D01*
X-755952Y13936309D01*
X-2570238Y11063690D02*
X-2267857Y11214880D01*
X-2116666Y11366071D01*
X-1965476Y11668452D01*
X-1965476Y12575595D01*
X-2116666Y12877976D01*
X-2267857Y13029166D01*
X-2570238Y13180357D01*
X-3023809Y13180357D01*
X-3326190Y13029166D01*
X-3477380Y12877976D01*
X-3628571Y12575595D01*
X-3628571Y11668452D01*
X-3477380Y11366071D01*
X-3326190Y11214880D01*
X-3023809Y11063690D01*
X-2570238Y11063690D01*
X-4989285Y11063690D02*
X-4989285Y13180357D01*
X-4989285Y12575595D02*
X-5140476Y12877976D01*
X-5291666Y13029166D01*
X-5594047Y13180357D01*
X-5896428Y13180357D01*
X-8164285Y11214880D02*
X-7861904Y11063690D01*
X-7257142Y11063690D01*
X-6954761Y11214880D01*
X-6803571Y11517261D01*
X-6803571Y12726785D01*
X-6954761Y13029166D01*
X-7257142Y13180357D01*
X-7861904Y13180357D01*
X-8164285Y13029166D01*
X-8315476Y12726785D01*
X-8315476Y12424404D01*
X-6803571Y12122023D01*
X-12095238Y11063690D02*
X-12095238Y14238690D01*
X-13153571Y11970833D01*
X-14211904Y14238690D01*
X-14211904Y11063690D01*
X-16933333Y11214880D02*
X-16630952Y11063690D01*
X-16026190Y11063690D01*
X-15723809Y11214880D01*
X-15572619Y11517261D01*
X-15572619Y12726785D01*
X-15723809Y13029166D01*
X-16026190Y13180357D01*
X-16630952Y13180357D01*
X-16933333Y13029166D01*
X-17084523Y12726785D01*
X-17084523Y12424404D01*
X-15572619Y12122023D01*
X-18445238Y11063690D02*
X-18445238Y13180357D01*
X-18445238Y12877976D02*
X-18596428Y13029166D01*
X-18898809Y13180357D01*
X-19352380Y13180357D01*
X-19654761Y13029166D01*
X-19805952Y12726785D01*
X-19805952Y11063690D01*
X-19805952Y12726785D02*
X-19957142Y13029166D01*
X-20259523Y13180357D01*
X-20713095Y13180357D01*
X-21015476Y13029166D01*
X-21166666Y12726785D01*
X-21166666Y11063690D01*
X-23132142Y11063690D02*
X-22829761Y11214880D01*
X-22678571Y11366071D01*
X-22527380Y11668452D01*
X-22527380Y12575595D01*
X-22678571Y12877976D01*
X-22829761Y13029166D01*
X-23132142Y13180357D01*
X-23585714Y13180357D01*
X-23888095Y13029166D01*
X-24039285Y12877976D01*
X-24190476Y12575595D01*
X-24190476Y11668452D01*
X-24039285Y11366071D01*
X-23888095Y11214880D01*
X-23585714Y11063690D01*
X-23132142Y11063690D01*
X-25551190Y11063690D02*
X-25551190Y13180357D01*
X-25551190Y12575595D02*
X-25702380Y12877976D01*
X-25853571Y13029166D01*
X-26155952Y13180357D01*
X-26458333Y13180357D01*
X-27214285Y13180357D02*
X-27970238Y11063690D01*
X-28726190Y13180357D02*
X-27970238Y11063690D01*
X-27667857Y10307738D01*
X-27516666Y10156547D01*
X-27214285Y10005357D01*
D13*
G36*
X9550400Y-64683500D02*
G01*
X7531100Y-64683500D01*
X7531100Y-66702800D01*
X9550400Y-66702800D01*
X9550400Y-64683500D01*
X9550400Y-64683500D01*
G37*
X9550400Y-64683500D02*
X7531100Y-64683500D01*
X7531100Y-66702800D01*
X9550400Y-66702800D01*
X9550400Y-64683500D01*
G36*
X-7645400Y-64683500D02*
G01*
X-9664700Y-64683500D01*
X-9664700Y-66702800D01*
X-7645400Y-66702800D01*
X-7645400Y-64683500D01*
X-7645400Y-64683500D01*
G37*
X-7645400Y-64683500D02*
X-9664700Y-64683500D01*
X-9664700Y-66702800D01*
X-7645400Y-66702800D01*
X-7645400Y-64683500D01*
G36*
X-1381125Y-54799930D02*
G01*
X-1035050Y-54796550D01*
X-1035050Y-54110750D01*
X-1727200Y-54103992D01*
X-1727200Y-54803309D01*
X-1381125Y-54799930D01*
X-1381125Y-54799930D01*
G37*
X-1381125Y-54799930D02*
X-1035050Y-54796550D01*
X-1035050Y-54110750D01*
X-1727200Y-54103992D01*
X-1727200Y-54803309D01*
X-1381125Y-54799930D01*
G36*
X6896100Y-50142000D02*
G01*
X6210300Y-50142000D01*
X6210300Y-50827800D01*
X6896100Y-50827800D01*
X6896100Y-50142000D01*
X6896100Y-50142000D01*
G37*
X6896100Y-50142000D02*
X6210300Y-50142000D01*
X6210300Y-50827800D01*
X6896100Y-50827800D01*
X6896100Y-50142000D01*
G36*
X-7651750Y-47494050D02*
G01*
X-9664700Y-47487548D01*
X-9664700Y-49507000D01*
X-7645248Y-49507000D01*
X-7651750Y-47494050D01*
X-7651750Y-47494050D01*
G37*
X-7651750Y-47494050D02*
X-9664700Y-47487548D01*
X-9664700Y-49507000D01*
X-7645248Y-49507000D01*
X-7651750Y-47494050D01*
G36*
X4254500Y-65343900D02*
G01*
X3583516Y-65343900D01*
X3455307Y-65344056D01*
X3334815Y-65344504D01*
X3224419Y-65345213D01*
X3126498Y-65346156D01*
X3043431Y-65347301D01*
X2977597Y-65348619D01*
X2931373Y-65350080D01*
X2907140Y-65351656D01*
X2904066Y-65352367D01*
X2901823Y-65366829D01*
X2899803Y-65403299D01*
X2898088Y-65458384D01*
X2896761Y-65528694D01*
X2895904Y-65610836D01*
X2895600Y-65701418D01*
X2895600Y-66042400D01*
X4254500Y-66042400D01*
X4254500Y-65343900D01*
X4254500Y-65343900D01*
G37*
X4254500Y-65343900D02*
X3583516Y-65343900D01*
X3455307Y-65344056D01*
X3334815Y-65344504D01*
X3224419Y-65345213D01*
X3126498Y-65346156D01*
X3043431Y-65347301D01*
X2977597Y-65348619D01*
X2931373Y-65350080D01*
X2907140Y-65351656D01*
X2904066Y-65352367D01*
X2901823Y-65366829D01*
X2899803Y-65403299D01*
X2898088Y-65458384D01*
X2896761Y-65528694D01*
X2895904Y-65610836D01*
X2895600Y-65701418D01*
X2895600Y-66042400D01*
X4254500Y-66042400D01*
X4254500Y-65343900D01*
G36*
X5575300Y-64683500D02*
G01*
X5232001Y-64683500D01*
X5124222Y-64683768D01*
X5039545Y-64684640D01*
X4975676Y-64686222D01*
X4930322Y-64688620D01*
X4901190Y-64691940D01*
X4885985Y-64696286D01*
X4882530Y-64699584D01*
X4880992Y-64716195D01*
X4879853Y-64754648D01*
X4879142Y-64811388D01*
X4878887Y-64882860D01*
X4879117Y-64965508D01*
X4879754Y-65045659D01*
X4883150Y-65375650D01*
X5229225Y-65379030D01*
X5575300Y-65382409D01*
X5575300Y-64683500D01*
X5575300Y-64683500D01*
G37*
X5575300Y-64683500D02*
X5232001Y-64683500D01*
X5124222Y-64683768D01*
X5039545Y-64684640D01*
X4975676Y-64686222D01*
X4930322Y-64688620D01*
X4901190Y-64691940D01*
X4885985Y-64696286D01*
X4882530Y-64699584D01*
X4880992Y-64716195D01*
X4879853Y-64754648D01*
X4879142Y-64811388D01*
X4878887Y-64882860D01*
X4879117Y-64965508D01*
X4879754Y-65045659D01*
X4883150Y-65375650D01*
X5229225Y-65379030D01*
X5575300Y-65382409D01*
X5575300Y-64683500D01*
G36*
X10871200Y-63362700D02*
G01*
X6210300Y-63362700D01*
X6210300Y-64061200D01*
X6896462Y-64061200D01*
X10172700Y-64061200D01*
X10172700Y-67337800D01*
X8534694Y-67337801D01*
X6896689Y-67337801D01*
X6896575Y-65699500D01*
X6896462Y-64061200D01*
X6210300Y-64061200D01*
X6210300Y-68023600D01*
X10871200Y-68023600D01*
X10871200Y-63362700D01*
X10871200Y-63362700D01*
G37*
X10871200Y-63362700D02*
X6210300Y-63362700D01*
X6210300Y-64061200D01*
X6896462Y-64061200D01*
X10172700Y-64061200D01*
X10172700Y-67337800D01*
X8534694Y-67337801D01*
X6896689Y-67337801D01*
X6896575Y-65699500D01*
X6896462Y-64061200D01*
X6210300Y-64061200D01*
X6210300Y-68023600D01*
X10871200Y-68023600D01*
X10871200Y-63362700D01*
G36*
X5575300Y-63362700D02*
G01*
X5232001Y-63362700D01*
X5124222Y-63362968D01*
X5039545Y-63363840D01*
X4975676Y-63365422D01*
X4930322Y-63367820D01*
X4901190Y-63371140D01*
X4885985Y-63375486D01*
X4882530Y-63378784D01*
X4880992Y-63395395D01*
X4879853Y-63433848D01*
X4879142Y-63490588D01*
X4878887Y-63562060D01*
X4879117Y-63644708D01*
X4879754Y-63724859D01*
X4883150Y-64054850D01*
X5229225Y-64058230D01*
X5575300Y-64061609D01*
X5575300Y-63362700D01*
X5575300Y-63362700D01*
G37*
X5575300Y-63362700D02*
X5232001Y-63362700D01*
X5124222Y-63362968D01*
X5039545Y-63363840D01*
X4975676Y-63365422D01*
X4930322Y-63367820D01*
X4901190Y-63371140D01*
X4885985Y-63375486D01*
X4882530Y-63378784D01*
X4880992Y-63395395D01*
X4879853Y-63433848D01*
X4879142Y-63490588D01*
X4878887Y-63562060D01*
X4879117Y-63644708D01*
X4879754Y-63724859D01*
X4883150Y-64054850D01*
X5229225Y-64058230D01*
X5575300Y-64061609D01*
X5575300Y-63362700D01*
G36*
X-5003800Y-63362700D02*
G01*
X-5702300Y-63362700D01*
X-5702300Y-64061200D01*
X-5003800Y-64061200D01*
X-5003800Y-63362700D01*
X-5003800Y-63362700D01*
G37*
X-5003800Y-63362700D02*
X-5702300Y-63362700D01*
X-5702300Y-64061200D01*
X-5003800Y-64061200D01*
X-5003800Y-63362700D01*
G36*
X-6324600Y-63362700D02*
G01*
X-10985500Y-63362700D01*
X-10985500Y-67337800D01*
X-10287000Y-67337800D01*
X-10287000Y-64061200D01*
X-7023100Y-64061200D01*
X-7023100Y-67337800D01*
X-10287000Y-67337800D01*
X-10985500Y-67337800D01*
X-10985500Y-68023600D01*
X-6324600Y-68023600D01*
X-6324600Y-63362700D01*
X-6324600Y-63362700D01*
G37*
X-6324600Y-63362700D02*
X-10985500Y-63362700D01*
X-10985500Y-67337800D01*
X-10287000Y-67337800D01*
X-10287000Y-64061200D01*
X-7023100Y-64061200D01*
X-7023100Y-67337800D01*
X-10287000Y-67337800D01*
X-10985500Y-67337800D01*
X-10985500Y-68023600D01*
X-6324600Y-68023600D01*
X-6324600Y-63362700D01*
G36*
X9550400Y-62080000D02*
G01*
X10172700Y-62080000D01*
X10172700Y-62740400D01*
X10871200Y-62740400D01*
X10871200Y-60721100D01*
X10210800Y-60721100D01*
X10210800Y-60060700D01*
X9512300Y-60060700D01*
X9512300Y-60721100D01*
X8851900Y-60721100D01*
X8851900Y-62041900D01*
X7531100Y-62041900D01*
X7531100Y-62740400D01*
X9550400Y-62740400D01*
X9550400Y-62080000D01*
X9550400Y-62080000D01*
G37*
X9550400Y-62080000D02*
X10172700Y-62080000D01*
X10172700Y-62740400D01*
X10871200Y-62740400D01*
X10871200Y-60721100D01*
X10210800Y-60721100D01*
X10210800Y-60060700D01*
X9512300Y-60060700D01*
X9512300Y-60721100D01*
X8851900Y-60721100D01*
X8851900Y-62041900D01*
X7531100Y-62041900D01*
X7531100Y-62740400D01*
X9550400Y-62740400D01*
X9550400Y-62080000D01*
G36*
X6896502Y-47846475D02*
G01*
X6896586Y-47731462D01*
X6896591Y-47602349D01*
X6896524Y-47468233D01*
X6896389Y-47338211D01*
X6896192Y-47221380D01*
X6896112Y-47186075D01*
X6895319Y-46865400D01*
X9550400Y-46865400D01*
X9550400Y-46166900D01*
X6870700Y-46166900D01*
X6870700Y-46827300D01*
X6210300Y-46827300D01*
X6210300Y-48186200D01*
X6896100Y-48186200D01*
X6896502Y-47846475D01*
X6896502Y-47846475D01*
G37*
X6896502Y-47846475D02*
X6896586Y-47731462D01*
X6896591Y-47602349D01*
X6896524Y-47468233D01*
X6896389Y-47338211D01*
X6896192Y-47221380D01*
X6896112Y-47186075D01*
X6895319Y-46865400D01*
X9550400Y-46865400D01*
X9550400Y-46166900D01*
X6870700Y-46166900D01*
X6870700Y-46827300D01*
X6210300Y-46827300D01*
X6210300Y-48186200D01*
X6896100Y-48186200D01*
X6896502Y-47846475D01*
G36*
X-5003800Y-67363200D02*
G01*
X-4381500Y-67363200D01*
X-4381500Y-68023600D01*
X-3683000Y-68023600D01*
X-3683000Y-67363200D01*
X-3048000Y-67363200D01*
X-3048000Y-68023600D01*
X-1701800Y-68023600D01*
X-1701800Y-67337800D01*
X-2362200Y-67337800D01*
X-2362200Y-66702800D01*
X-1028700Y-66702800D01*
X-1028700Y-65382000D01*
X-406400Y-65382000D01*
X-406400Y-67363200D01*
X1574800Y-67363200D01*
X1574800Y-68023600D01*
X2933700Y-68023600D01*
X2933700Y-67363200D01*
X4216400Y-67363200D01*
X4216400Y-68023600D01*
X5575300Y-68023600D01*
X5575300Y-67337800D01*
X4914900Y-67337800D01*
X4914900Y-66702800D01*
X5575300Y-66702800D01*
X5575300Y-66353346D01*
X5575299Y-66003892D01*
X5229225Y-66007271D01*
X4883150Y-66010650D01*
X4879763Y-66344149D01*
X4876377Y-66677648D01*
X4225713Y-66677120D01*
X4084828Y-66677020D01*
X3939675Y-66676944D01*
X3794606Y-66676892D01*
X3653971Y-66676864D01*
X3522121Y-66676862D01*
X3403406Y-66676886D01*
X3302177Y-66676935D01*
X3235325Y-66676996D01*
X2895600Y-66677400D01*
X2895600Y-67337800D01*
X1612900Y-67337800D01*
X1612900Y-66677400D01*
X1273175Y-66676803D01*
X1158162Y-66676679D01*
X1029049Y-66676670D01*
X894933Y-66676768D01*
X764911Y-66676965D01*
X648080Y-66677254D01*
X612775Y-66677373D01*
X292100Y-66678540D01*
X292100Y-66042400D01*
X952908Y-66042400D01*
X946150Y-65350250D01*
X292100Y-65343472D01*
X292100Y-63400800D01*
X914400Y-63400800D01*
X914400Y-64023100D01*
X1612900Y-64023100D01*
X1612900Y-62740400D01*
X2235200Y-62740400D01*
X2235200Y-64023100D01*
X2933700Y-64023100D01*
X2933700Y-62740400D01*
X3556000Y-62740400D01*
X3556000Y-64023100D01*
X2933700Y-64023100D01*
X2235200Y-64023100D01*
X1612900Y-64023100D01*
X914400Y-64023100D01*
X914400Y-64061200D01*
X1574800Y-64061200D01*
X1574800Y-65382000D01*
X2273300Y-65382000D01*
X2273300Y-64721600D01*
X4254500Y-64721600D01*
X4254500Y-62702300D01*
X3594100Y-62702300D01*
X3594100Y-62041900D01*
X2933700Y-62041900D01*
X2933700Y-61419600D01*
X4215971Y-61419600D01*
X4219360Y-61746625D01*
X4222420Y-62041900D01*
X4914900Y-62041900D01*
X4914900Y-61419600D01*
X5575300Y-61419600D01*
X5575300Y-60098800D01*
X6210300Y-60098800D01*
X6210300Y-62041900D01*
X4914900Y-62041900D01*
X4222420Y-62041900D01*
X4222750Y-62073650D01*
X4876372Y-62080428D01*
X4883150Y-62734050D01*
X5559425Y-62737337D01*
X6235700Y-62740623D01*
X6235700Y-62080000D01*
X6896100Y-62080000D01*
X6896502Y-61740275D01*
X6896586Y-61625262D01*
X6896591Y-61496149D01*
X6896524Y-61362033D01*
X6896389Y-61232011D01*
X6896192Y-61115180D01*
X6896112Y-61079876D01*
X6895319Y-60759201D01*
X7213209Y-60759201D01*
X7531100Y-60759200D01*
X7531100Y-61420009D01*
X7877175Y-61416630D01*
X8223250Y-61413250D01*
X8230008Y-60721100D01*
X7569200Y-60721100D01*
X7569200Y-60410065D01*
X7569199Y-60099029D01*
X8226425Y-60095740D01*
X8883650Y-60092450D01*
X8887036Y-59758686D01*
X8890423Y-59424921D01*
X9210886Y-59425713D01*
X9321044Y-59425930D01*
X9447509Y-59426086D01*
X9581191Y-59426177D01*
X9712998Y-59426197D01*
X9833838Y-59426141D01*
X9871075Y-59426103D01*
X10210800Y-59425700D01*
X10210800Y-58739900D01*
X9550400Y-58739900D01*
X9550400Y-57444500D01*
X10871200Y-57444500D01*
X10871200Y-56085600D01*
X10210800Y-56085600D01*
X10210800Y-55463300D01*
X10871200Y-55463300D01*
X10871200Y-54764800D01*
X10172700Y-54764800D01*
X10172700Y-55425200D01*
X9512300Y-55425200D01*
X9512300Y-56085600D01*
X8890000Y-56085600D01*
X8890000Y-54802900D01*
X9550400Y-54802900D01*
X9550400Y-54142500D01*
X10871200Y-54142500D01*
X10871200Y-52783600D01*
X10210800Y-52783600D01*
X10210800Y-52161300D01*
X10871200Y-52161300D01*
X10871200Y-51462800D01*
X10172700Y-51462800D01*
X10172700Y-52123200D01*
X9512300Y-52123200D01*
X9512300Y-52783600D01*
X8890000Y-52783600D01*
X8890000Y-52123200D01*
X8229600Y-52123200D01*
X8229600Y-50826346D01*
X8556625Y-50827848D01*
X8670240Y-50828263D01*
X8799750Y-50828560D01*
X8935646Y-50828728D01*
X9068424Y-50828756D01*
X9188577Y-50828634D01*
X9217025Y-50828576D01*
X9550400Y-50827800D01*
X9550400Y-50167400D01*
X10210800Y-50167400D01*
X10210800Y-49507000D01*
X10871200Y-49507000D01*
X10871200Y-48821200D01*
X10210800Y-48821200D01*
X10210800Y-47525800D01*
X10871200Y-47525800D01*
X10871200Y-46827300D01*
X10172700Y-46827300D01*
X10172700Y-47487700D01*
X8191500Y-47487700D01*
X8191500Y-48186200D01*
X8851900Y-48186200D01*
X8851900Y-48820394D01*
X5575300Y-48820580D01*
X5575300Y-46827300D01*
X4914900Y-46827300D01*
X4914900Y-46166900D01*
X2895600Y-46166900D01*
X2895600Y-46865400D01*
X4216400Y-46865400D01*
X4216400Y-47487700D01*
X2235200Y-47487700D01*
X2235200Y-48148100D01*
X1612900Y-48148100D01*
X1612900Y-47487700D01*
X952500Y-47487700D01*
X952500Y-46865400D01*
X1612900Y-46865400D01*
X1612900Y-46166900D01*
X-406400Y-46166900D01*
X-406400Y-47487700D01*
X-1066800Y-47487700D01*
X-1066800Y-49481600D01*
X-368300Y-49481600D01*
X-368300Y-48846600D01*
X292100Y-48846600D01*
X292100Y-48186200D01*
X914400Y-48186200D01*
X914400Y-48821200D01*
X2933700Y-48821200D01*
X2933700Y-48186200D01*
X4216400Y-48186200D01*
X4216400Y-49481600D01*
X9550400Y-49481600D01*
X9550400Y-48846600D01*
X10172700Y-48846600D01*
X10172700Y-49481600D01*
X9550400Y-49481600D01*
X4216400Y-49481600D01*
X4216400Y-50802400D01*
X3594100Y-50802400D01*
X3594100Y-48821200D01*
X2933700Y-48821200D01*
X914400Y-48821200D01*
X914400Y-49507000D01*
X2895600Y-49507000D01*
X2895600Y-50142000D01*
X292100Y-50142000D01*
X292100Y-49481600D01*
X-368300Y-49481600D01*
X-1066800Y-49481600D01*
X-1066800Y-50142000D01*
X-1701800Y-50142000D01*
X-1701800Y-49481600D01*
X-3022600Y-49481600D01*
X-3022600Y-48846600D01*
X-1701800Y-48846600D01*
X-1701800Y-48148100D01*
X-2362200Y-48148100D01*
X-2362200Y-46865400D01*
X-1701800Y-46865400D01*
X-1701800Y-46166784D01*
X-4375150Y-46173250D01*
X-4378540Y-46500275D01*
X-4381929Y-46827300D01*
X-5003800Y-46827300D01*
X-5003800Y-46166900D01*
X-5702300Y-46166900D01*
X-5702300Y-47487700D01*
X-4343400Y-47487700D01*
X-4343400Y-46865400D01*
X-3048000Y-46865400D01*
X-3048000Y-47487700D01*
X-4343400Y-47487700D01*
X-5702300Y-47487700D01*
X-5702300Y-48186200D01*
X-4343400Y-48186200D01*
X-3047557Y-48186200D01*
X-3050954Y-48500525D01*
X-3054350Y-48814850D01*
X-4343400Y-48820938D01*
X-4343400Y-48186200D01*
X-5702300Y-48186200D01*
X-5702300Y-48846600D01*
X-5041900Y-48846600D01*
X-5041900Y-49507000D01*
X-3048000Y-49507000D01*
X-3048000Y-50802400D01*
X-2362200Y-50802400D01*
X-2362200Y-50167400D01*
X-1727200Y-50167400D01*
X-1727200Y-50802400D01*
X-2362200Y-50802400D01*
X-3048000Y-50802400D01*
X-4343400Y-50802400D01*
X-4343400Y-50142000D01*
X-5041900Y-50142000D01*
X-5041900Y-50802400D01*
X-5702300Y-50802400D01*
X-5702300Y-52123200D01*
X-6324600Y-52123200D01*
X-6324600Y-51462800D01*
X-7023100Y-51462800D01*
X-7023100Y-52123200D01*
X-8966200Y-52123200D01*
X-8966200Y-51462800D01*
X-9664700Y-51462800D01*
X-9664700Y-52123200D01*
X-10286572Y-52123200D01*
X-10293350Y-51469150D01*
X-10985500Y-51462392D01*
X-10985500Y-52161300D01*
X-10325100Y-52161300D01*
X-10325100Y-52783600D01*
X-6985000Y-52783600D01*
X-6985000Y-52161300D01*
X-6362700Y-52161300D01*
X-6362700Y-52783600D01*
X-6985000Y-52783600D01*
X-10325100Y-52783600D01*
X-10325100Y-52821700D01*
X-7023100Y-52821700D01*
X-7023100Y-53444000D01*
X-6324600Y-53444000D01*
X-6324600Y-52821700D01*
X-5664200Y-52821700D01*
X-5664200Y-52161300D01*
X-5042329Y-52161300D01*
X-5038940Y-52488325D01*
X-5035880Y-52783600D01*
X-4343400Y-52783600D01*
X-4343400Y-52161300D01*
X-3721100Y-52161300D01*
X-3721100Y-52783600D01*
X-4343400Y-52783600D01*
X-5035880Y-52783600D01*
X-5035550Y-52815350D01*
X-4708525Y-52818740D01*
X-4381500Y-52822129D01*
X-4381500Y-53444000D01*
X-5041900Y-53444000D01*
X-5041900Y-54104400D01*
X-5664200Y-54104400D01*
X-5664200Y-53444000D01*
X-6324600Y-53444000D01*
X-7023100Y-53444000D01*
X-7023100Y-53482100D01*
X-6362700Y-53482100D01*
X-6362700Y-54104400D01*
X-7023100Y-54104400D01*
X-7023100Y-54764800D01*
X-8305800Y-54764800D01*
X-8305800Y-54104400D01*
X-10286572Y-54104400D01*
X-10293350Y-53450350D01*
X-10985500Y-53443592D01*
X-10985500Y-54142500D01*
X-10325100Y-54142500D01*
X-10325100Y-54764800D01*
X-10985500Y-54764800D01*
X-10985500Y-55463300D01*
X-10325100Y-55463300D01*
X-10325100Y-56746000D01*
X-9626600Y-56746000D01*
X-9626600Y-54802900D01*
X-8343900Y-54802900D01*
X-8343900Y-55425200D01*
X-6985000Y-55425200D01*
X-6985000Y-54802900D01*
X-5702300Y-54802900D01*
X-5702300Y-55463300D01*
X-4343400Y-55463300D01*
X-4343400Y-54802900D01*
X-3721529Y-54802900D01*
X-3718140Y-55129925D01*
X-3714750Y-55456950D01*
X-3368675Y-55460330D01*
X-3022600Y-55463709D01*
X-3022600Y-54764800D01*
X-3683000Y-54764800D01*
X-3683000Y-54104400D01*
X-4343400Y-54104400D01*
X-4343400Y-53482100D01*
X-3683000Y-53482100D01*
X-3683000Y-52821818D01*
X-1035050Y-52815350D01*
X-1028292Y-52123200D01*
X-3022600Y-52123200D01*
X-3022600Y-50827800D01*
X-2387600Y-50827800D01*
X-2387600Y-51501123D01*
X-1711325Y-51497837D01*
X-1035050Y-51494550D01*
X-1028474Y-50167400D01*
X254000Y-50167400D01*
X254000Y-50802400D01*
X-406400Y-50802400D01*
X-406400Y-51462800D01*
X292100Y-51462800D01*
X292100Y-50828289D01*
X1574800Y-50828289D01*
X1574800Y-52123200D01*
X2273300Y-52123200D01*
X2273300Y-50828289D01*
X3555579Y-50828289D01*
X3558964Y-51161420D01*
X3562027Y-51462800D01*
X5575300Y-51462800D01*
X5575300Y-49507000D01*
X7531100Y-49507000D01*
X7531100Y-51462800D01*
X5575300Y-51462800D01*
X3562027Y-51462800D01*
X3562350Y-51494550D01*
X4219575Y-51497840D01*
X4876800Y-51501129D01*
X4876800Y-52783600D01*
X5575300Y-52783600D01*
X5575300Y-52161300D01*
X6210300Y-52161300D01*
X6210300Y-52783600D01*
X5575300Y-52783600D01*
X4876800Y-52783600D01*
X3556000Y-52783600D01*
X3556000Y-53444000D01*
X6235700Y-53444000D01*
X6235700Y-52821700D01*
X6896100Y-52821700D01*
X6896100Y-52161300D01*
X8191500Y-52161300D01*
X8191500Y-52821700D01*
X8851900Y-52821700D01*
X8851900Y-53444000D01*
X8191500Y-53444000D01*
X8191500Y-54104400D01*
X8890000Y-54104400D01*
X8890000Y-53482100D01*
X9512300Y-53482100D01*
X9512300Y-54104400D01*
X8890000Y-54104400D01*
X8191500Y-54104400D01*
X8191500Y-54142500D01*
X8851900Y-54142500D01*
X8851900Y-54764800D01*
X8191500Y-54764800D01*
X8191500Y-56085600D01*
X6896100Y-56085600D01*
X6896100Y-55463722D01*
X7562850Y-55456950D01*
X7562850Y-54110750D01*
X7229475Y-54107365D01*
X6896100Y-54103979D01*
X6896100Y-53444000D01*
X6235700Y-53444000D01*
X3556000Y-53444000D01*
X3556000Y-53482100D01*
X4216400Y-53482100D01*
X4216400Y-54104400D01*
X4914900Y-54104400D01*
X4914900Y-53482100D01*
X6210300Y-53482100D01*
X6210300Y-54104400D01*
X4914900Y-54104400D01*
X4216400Y-54104400D01*
X2933700Y-54104400D01*
X2933700Y-52123200D01*
X2273300Y-52123200D01*
X1574800Y-52123200D01*
X952500Y-52123200D01*
X952500Y-51462800D01*
X292100Y-51462800D01*
X-406400Y-51462800D01*
X-406400Y-51500900D01*
X254000Y-51500900D01*
X254000Y-52161300D01*
X914400Y-52161300D01*
X914400Y-52821700D01*
X1612900Y-52821700D01*
X1612900Y-52161300D01*
X2235200Y-52161300D01*
X2235200Y-53444000D01*
X914400Y-53444000D01*
X914400Y-54764800D01*
X4254500Y-54764800D01*
X4254500Y-54142500D01*
X4876800Y-54142500D01*
X4876800Y-54764800D01*
X6235700Y-54764800D01*
X6235700Y-54142500D01*
X6870700Y-54142500D01*
X6870700Y-54764800D01*
X6235700Y-54764800D01*
X4876800Y-54764800D01*
X4254500Y-54764800D01*
X914400Y-54764800D01*
X292100Y-54764800D01*
X292100Y-52783600D01*
X-406400Y-52783600D01*
X-406400Y-55425200D01*
X-2387600Y-55425200D01*
X-2387600Y-56746000D01*
X-3048000Y-56746000D01*
X-3048000Y-57406400D01*
X-3683000Y-57406400D01*
X-3683000Y-56085192D01*
X-4375150Y-56091950D01*
X-4378539Y-56418762D01*
X-4381928Y-56745573D01*
X-4708739Y-56748962D01*
X-5035550Y-56752350D01*
X-5038930Y-57098425D01*
X-5042309Y-57444501D01*
X-4381705Y-57444500D01*
X-3721100Y-57444500D01*
X-3721100Y-58739900D01*
X-3022600Y-58739900D01*
X-3022600Y-57444500D01*
X-1701800Y-57444500D01*
X-1701025Y-57111125D01*
X-1700862Y-56995897D01*
X-1700852Y-56865532D01*
X-1700984Y-56729535D01*
X-1701247Y-56597414D01*
X-1701632Y-56478673D01*
X-1701753Y-56450725D01*
X-1703255Y-56123700D01*
X-1066800Y-56123700D01*
X-1066800Y-58079500D01*
X-2387600Y-58079500D01*
X-2387600Y-58739900D01*
X-1028700Y-58739900D01*
X-1028700Y-58104900D01*
X292508Y-58104900D01*
X285750Y-57412750D01*
X-368300Y-57405972D01*
X-368300Y-56123700D01*
X254000Y-56123700D01*
X254000Y-56784100D01*
X952500Y-56784100D01*
X952500Y-56085600D01*
X292100Y-56085600D01*
X292100Y-55463300D01*
X1612900Y-55463300D01*
X1612900Y-54802900D01*
X3556000Y-54802900D01*
X3556000Y-55425200D01*
X4914900Y-55425200D01*
X4914900Y-54802900D01*
X5549900Y-54802900D01*
X5549900Y-55425200D01*
X4914900Y-55425200D01*
X3556000Y-55425200D01*
X2895600Y-55425200D01*
X2895600Y-56085600D01*
X4254500Y-56085600D01*
X4254500Y-55463300D01*
X4876800Y-55463300D01*
X4876800Y-56085600D01*
X4254500Y-56085600D01*
X2895600Y-56085600D01*
X2235200Y-56085600D01*
X2235200Y-56746000D01*
X2933700Y-56746000D01*
X2933700Y-56123700D01*
X3556000Y-56123700D01*
X3556000Y-56746000D01*
X9550400Y-56746000D01*
X9550400Y-56123700D01*
X10172700Y-56123700D01*
X10172700Y-56746000D01*
X9550400Y-56746000D01*
X3556000Y-56746000D01*
X2933700Y-56746000D01*
X2235200Y-56746000D01*
X2235200Y-57406400D01*
X6896100Y-57406400D01*
X6896100Y-56784100D01*
X7531100Y-56784100D01*
X7531100Y-57406400D01*
X6896100Y-57406400D01*
X2235200Y-57406400D01*
X2235200Y-58079500D01*
X914400Y-58079500D01*
X914400Y-58739900D01*
X-1028700Y-58739900D01*
X-2387600Y-58739900D01*
X-3022600Y-58739900D01*
X-3721100Y-58739900D01*
X-3721100Y-59400300D01*
X-2362200Y-59400300D01*
X-2362200Y-58765300D01*
X-1727200Y-58765300D01*
X-1727200Y-59400300D01*
X-2362200Y-59400300D01*
X-3721100Y-59400300D01*
X-5003800Y-59400300D01*
X-5003800Y-58079500D01*
X-5664200Y-58079500D01*
X-5664200Y-56085600D01*
X-6324600Y-56085600D01*
X-6324600Y-55425200D01*
X-6985000Y-55425200D01*
X-8343900Y-55425200D01*
X-8343900Y-55463300D01*
X-7023100Y-55463300D01*
X-7023100Y-56123700D01*
X-6362700Y-56123700D01*
X-6362700Y-56745572D01*
X-7016750Y-56752350D01*
X-7020130Y-57098425D01*
X-7023509Y-57444500D01*
X-6362700Y-57444500D01*
X-6362700Y-58079500D01*
X-7023100Y-58079500D01*
X-7023100Y-58739900D01*
X-6324600Y-58739900D01*
X-6324600Y-58104900D01*
X-5702300Y-58104900D01*
X-5702300Y-58739900D01*
X-6324600Y-58739900D01*
X-7023100Y-58739900D01*
X-7023100Y-58765300D01*
X-6362700Y-58765300D01*
X-6362700Y-59400300D01*
X-7645400Y-59400300D01*
X-7645400Y-58739900D01*
X-8305800Y-58739900D01*
X-8305800Y-57444500D01*
X-7645400Y-57444500D01*
X-7645400Y-56085600D01*
X-9004300Y-56085600D01*
X-9004300Y-56746000D01*
X-9626600Y-56746000D01*
X-10325100Y-56746000D01*
X-10325100Y-56784100D01*
X-9664700Y-56784100D01*
X-9664700Y-57444500D01*
X-9004300Y-57444500D01*
X-9004300Y-58079500D01*
X-9664700Y-58079500D01*
X-9664700Y-58739900D01*
X-10286774Y-58739900D01*
X-10293350Y-57412750D01*
X-10985500Y-57405992D01*
X-10985500Y-58765300D01*
X-10325100Y-58765300D01*
X-10325100Y-59425700D01*
X-9664700Y-59425700D01*
X-9664700Y-60060700D01*
X-8966200Y-60060700D01*
X-8966200Y-58765300D01*
X-8343900Y-58765300D01*
X-8343900Y-60060700D01*
X-8966200Y-60060700D01*
X-9664700Y-60060700D01*
X-10325100Y-60060700D01*
X-10325100Y-60721100D01*
X-10985500Y-60721100D01*
X-10985500Y-62740400D01*
X-8305800Y-62740400D01*
X-8305800Y-62041900D01*
X-9626600Y-62041900D01*
X-9626600Y-61420029D01*
X-9299575Y-61416640D01*
X-8972550Y-61413250D01*
X-8965772Y-60759200D01*
X-8343900Y-60759200D01*
X-8343900Y-61419600D01*
X-7645400Y-61419600D01*
X-7645400Y-60098800D01*
X-6362700Y-60098800D01*
X-6362700Y-60721100D01*
X-3683000Y-60721100D01*
X-3683000Y-59425700D01*
X-3048000Y-59425700D01*
X-3048000Y-60060700D01*
X-1028700Y-60060700D01*
X-1028700Y-59426078D01*
X253578Y-59426056D01*
X260350Y-60092450D01*
X946150Y-60092450D01*
X952726Y-58765300D01*
X1574800Y-58765300D01*
X1574800Y-59425700D01*
X2234778Y-59425700D01*
X2241550Y-60092450D01*
X2927350Y-60092450D01*
X2934108Y-59400300D01*
X2273300Y-59400300D01*
X2273300Y-58765300D01*
X3555773Y-58765300D01*
X3559061Y-59428875D01*
X3562350Y-60092450D01*
X3908425Y-60095830D01*
X4254500Y-60099209D01*
X4254500Y-58079500D01*
X3594100Y-58079500D01*
X3594100Y-57444500D01*
X4876800Y-57444500D01*
X4876800Y-58104900D01*
X6210300Y-58104900D01*
X6210300Y-58765300D01*
X6896100Y-58765300D01*
X6896100Y-58104900D01*
X7569200Y-58104900D01*
X7569200Y-57444500D01*
X8851900Y-57444500D01*
X8851900Y-58739900D01*
X8191500Y-58739900D01*
X8191500Y-59400300D01*
X6870700Y-59400300D01*
X6870700Y-60060700D01*
X6235700Y-60060700D01*
X6235700Y-59400300D01*
X5575300Y-59400300D01*
X5575300Y-58739900D01*
X4876800Y-58739900D01*
X4876800Y-60721100D01*
X2235200Y-60721100D01*
X2235200Y-61381500D01*
X1612900Y-61381500D01*
X1612900Y-60721100D01*
X914400Y-60721100D01*
X914400Y-61419600D01*
X1574800Y-61419600D01*
X1574800Y-62041900D01*
X292100Y-62041900D01*
X292100Y-60721100D01*
X-368300Y-60721100D01*
X-368300Y-60060700D01*
X-1028700Y-60060700D01*
X-3048000Y-60060700D01*
X-3048000Y-60098800D01*
X-2387600Y-60098800D01*
X-2387600Y-60721100D01*
X-3683000Y-60721100D01*
X-6362700Y-60721100D01*
X-7023100Y-60721100D01*
X-7023100Y-61419600D01*
X-6362700Y-61419600D01*
X-6362700Y-62041900D01*
X-7023100Y-62041900D01*
X-7023100Y-62740400D01*
X-6324600Y-62740400D01*
X-6324600Y-62080000D01*
X-5702300Y-62080000D01*
X-5702300Y-62740400D01*
X-5003800Y-62740400D01*
X-5003800Y-62041900D01*
X-5664200Y-62041900D01*
X-5664200Y-61419600D01*
X-4381500Y-61419600D01*
X-4381500Y-62041900D01*
X-3683000Y-62041900D01*
X-3683000Y-61419600D01*
X-3048000Y-61419600D01*
X-3048000Y-62041900D01*
X-3683000Y-62041900D01*
X-4381500Y-62041900D01*
X-4381500Y-64023100D01*
X-3683000Y-64023100D01*
X-3683000Y-62740400D01*
X-3048000Y-62740400D01*
X-3048000Y-64023100D01*
X-3683000Y-64023100D01*
X-4381500Y-64023100D01*
X-4381500Y-64683500D01*
X-3022600Y-64683500D01*
X-3022600Y-64061200D01*
X-2362200Y-64061200D01*
X-2362200Y-60759200D01*
X-1727200Y-60759200D01*
X-1727200Y-61420009D01*
X-1381125Y-61416630D01*
X-1035050Y-61413250D01*
X-1028272Y-60759200D01*
X-406400Y-60759200D01*
X-406400Y-62080000D01*
X254000Y-62080000D01*
X254000Y-62702300D01*
X2273300Y-62702300D01*
X2273300Y-62080000D01*
X2895600Y-62080000D01*
X2895600Y-62702300D01*
X2273300Y-62702300D01*
X254000Y-62702300D01*
X254000Y-63362700D01*
X-368300Y-63362700D01*
X-368300Y-62702300D01*
X-1028272Y-62702300D01*
X-1035050Y-62048250D01*
X-1727200Y-62041492D01*
X-1727200Y-64061609D01*
X-1381125Y-64058230D01*
X-1035050Y-64054850D01*
X-1028272Y-63400800D01*
X-406400Y-63400800D01*
X-406400Y-64683500D01*
X-1727200Y-64683500D01*
X-1727200Y-66004300D01*
X-2362200Y-66004300D01*
X-2362200Y-64683500D01*
X-3022600Y-64683500D01*
X-4381500Y-64683500D01*
X-4381500Y-64721600D01*
X-3721100Y-64721600D01*
X-3721100Y-65343900D01*
X-5003800Y-65343900D01*
X-5003800Y-64683092D01*
X-5695950Y-64689850D01*
X-5699202Y-65696325D01*
X-5702369Y-66677038D01*
X-3683000Y-66677038D01*
X-3683000Y-65382000D01*
X-3048000Y-65382000D01*
X-3048000Y-66042400D01*
X-2387600Y-66042400D01*
X-2387600Y-66677038D01*
X-3683000Y-66677038D01*
X-5702369Y-66677038D01*
X-5702453Y-66702800D01*
X-5041900Y-66702800D01*
X-5041900Y-67337800D01*
X-5702300Y-67337800D01*
X-5702300Y-68023600D01*
X-5003800Y-68023600D01*
X-5003800Y-67363200D01*
X-5003800Y-67363200D01*
G37*
X-5003800Y-67363200D02*
X-4381500Y-67363200D01*
X-4381500Y-68023600D01*
X-3683000Y-68023600D01*
X-3683000Y-67363200D01*
X-3048000Y-67363200D01*
X-3048000Y-68023600D01*
X-1701800Y-68023600D01*
X-1701800Y-67337800D01*
X-2362200Y-67337800D01*
X-2362200Y-66702800D01*
X-1028700Y-66702800D01*
X-1028700Y-65382000D01*
X-406400Y-65382000D01*
X-406400Y-67363200D01*
X1574800Y-67363200D01*
X1574800Y-68023600D01*
X2933700Y-68023600D01*
X2933700Y-67363200D01*
X4216400Y-67363200D01*
X4216400Y-68023600D01*
X5575300Y-68023600D01*
X5575300Y-67337800D01*
X4914900Y-67337800D01*
X4914900Y-66702800D01*
X5575300Y-66702800D01*
X5575300Y-66353346D01*
X5575299Y-66003892D01*
X5229225Y-66007271D01*
X4883150Y-66010650D01*
X4879763Y-66344149D01*
X4876377Y-66677648D01*
X4225713Y-66677120D01*
X4084828Y-66677020D01*
X3939675Y-66676944D01*
X3794606Y-66676892D01*
X3653971Y-66676864D01*
X3522121Y-66676862D01*
X3403406Y-66676886D01*
X3302177Y-66676935D01*
X3235325Y-66676996D01*
X2895600Y-66677400D01*
X2895600Y-67337800D01*
X1612900Y-67337800D01*
X1612900Y-66677400D01*
X1273175Y-66676803D01*
X1158162Y-66676679D01*
X1029049Y-66676670D01*
X894933Y-66676768D01*
X764911Y-66676965D01*
X648080Y-66677254D01*
X612775Y-66677373D01*
X292100Y-66678540D01*
X292100Y-66042400D01*
X952908Y-66042400D01*
X946150Y-65350250D01*
X292100Y-65343472D01*
X292100Y-63400800D01*
X914400Y-63400800D01*
X914400Y-64023100D01*
X1612900Y-64023100D01*
X1612900Y-62740400D01*
X2235200Y-62740400D01*
X2235200Y-64023100D01*
X2933700Y-64023100D01*
X2933700Y-62740400D01*
X3556000Y-62740400D01*
X3556000Y-64023100D01*
X2933700Y-64023100D01*
X2235200Y-64023100D01*
X1612900Y-64023100D01*
X914400Y-64023100D01*
X914400Y-64061200D01*
X1574800Y-64061200D01*
X1574800Y-65382000D01*
X2273300Y-65382000D01*
X2273300Y-64721600D01*
X4254500Y-64721600D01*
X4254500Y-62702300D01*
X3594100Y-62702300D01*
X3594100Y-62041900D01*
X2933700Y-62041900D01*
X2933700Y-61419600D01*
X4215971Y-61419600D01*
X4219360Y-61746625D01*
X4222420Y-62041900D01*
X4914900Y-62041900D01*
X4914900Y-61419600D01*
X5575300Y-61419600D01*
X5575300Y-60098800D01*
X6210300Y-60098800D01*
X6210300Y-62041900D01*
X4914900Y-62041900D01*
X4222420Y-62041900D01*
X4222750Y-62073650D01*
X4876372Y-62080428D01*
X4883150Y-62734050D01*
X5559425Y-62737337D01*
X6235700Y-62740623D01*
X6235700Y-62080000D01*
X6896100Y-62080000D01*
X6896502Y-61740275D01*
X6896586Y-61625262D01*
X6896591Y-61496149D01*
X6896524Y-61362033D01*
X6896389Y-61232011D01*
X6896192Y-61115180D01*
X6896112Y-61079876D01*
X6895319Y-60759201D01*
X7213209Y-60759201D01*
X7531100Y-60759200D01*
X7531100Y-61420009D01*
X7877175Y-61416630D01*
X8223250Y-61413250D01*
X8230008Y-60721100D01*
X7569200Y-60721100D01*
X7569200Y-60410065D01*
X7569199Y-60099029D01*
X8226425Y-60095740D01*
X8883650Y-60092450D01*
X8887036Y-59758686D01*
X8890423Y-59424921D01*
X9210886Y-59425713D01*
X9321044Y-59425930D01*
X9447509Y-59426086D01*
X9581191Y-59426177D01*
X9712998Y-59426197D01*
X9833838Y-59426141D01*
X9871075Y-59426103D01*
X10210800Y-59425700D01*
X10210800Y-58739900D01*
X9550400Y-58739900D01*
X9550400Y-57444500D01*
X10871200Y-57444500D01*
X10871200Y-56085600D01*
X10210800Y-56085600D01*
X10210800Y-55463300D01*
X10871200Y-55463300D01*
X10871200Y-54764800D01*
X10172700Y-54764800D01*
X10172700Y-55425200D01*
X9512300Y-55425200D01*
X9512300Y-56085600D01*
X8890000Y-56085600D01*
X8890000Y-54802900D01*
X9550400Y-54802900D01*
X9550400Y-54142500D01*
X10871200Y-54142500D01*
X10871200Y-52783600D01*
X10210800Y-52783600D01*
X10210800Y-52161300D01*
X10871200Y-52161300D01*
X10871200Y-51462800D01*
X10172700Y-51462800D01*
X10172700Y-52123200D01*
X9512300Y-52123200D01*
X9512300Y-52783600D01*
X8890000Y-52783600D01*
X8890000Y-52123200D01*
X8229600Y-52123200D01*
X8229600Y-50826346D01*
X8556625Y-50827848D01*
X8670240Y-50828263D01*
X8799750Y-50828560D01*
X8935646Y-50828728D01*
X9068424Y-50828756D01*
X9188577Y-50828634D01*
X9217025Y-50828576D01*
X9550400Y-50827800D01*
X9550400Y-50167400D01*
X10210800Y-50167400D01*
X10210800Y-49507000D01*
X10871200Y-49507000D01*
X10871200Y-48821200D01*
X10210800Y-48821200D01*
X10210800Y-47525800D01*
X10871200Y-47525800D01*
X10871200Y-46827300D01*
X10172700Y-46827300D01*
X10172700Y-47487700D01*
X8191500Y-47487700D01*
X8191500Y-48186200D01*
X8851900Y-48186200D01*
X8851900Y-48820394D01*
X5575300Y-48820580D01*
X5575300Y-46827300D01*
X4914900Y-46827300D01*
X4914900Y-46166900D01*
X2895600Y-46166900D01*
X2895600Y-46865400D01*
X4216400Y-46865400D01*
X4216400Y-47487700D01*
X2235200Y-47487700D01*
X2235200Y-48148100D01*
X1612900Y-48148100D01*
X1612900Y-47487700D01*
X952500Y-47487700D01*
X952500Y-46865400D01*
X1612900Y-46865400D01*
X1612900Y-46166900D01*
X-406400Y-46166900D01*
X-406400Y-47487700D01*
X-1066800Y-47487700D01*
X-1066800Y-49481600D01*
X-368300Y-49481600D01*
X-368300Y-48846600D01*
X292100Y-48846600D01*
X292100Y-48186200D01*
X914400Y-48186200D01*
X914400Y-48821200D01*
X2933700Y-48821200D01*
X2933700Y-48186200D01*
X4216400Y-48186200D01*
X4216400Y-49481600D01*
X9550400Y-49481600D01*
X9550400Y-48846600D01*
X10172700Y-48846600D01*
X10172700Y-49481600D01*
X9550400Y-49481600D01*
X4216400Y-49481600D01*
X4216400Y-50802400D01*
X3594100Y-50802400D01*
X3594100Y-48821200D01*
X2933700Y-48821200D01*
X914400Y-48821200D01*
X914400Y-49507000D01*
X2895600Y-49507000D01*
X2895600Y-50142000D01*
X292100Y-50142000D01*
X292100Y-49481600D01*
X-368300Y-49481600D01*
X-1066800Y-49481600D01*
X-1066800Y-50142000D01*
X-1701800Y-50142000D01*
X-1701800Y-49481600D01*
X-3022600Y-49481600D01*
X-3022600Y-48846600D01*
X-1701800Y-48846600D01*
X-1701800Y-48148100D01*
X-2362200Y-48148100D01*
X-2362200Y-46865400D01*
X-1701800Y-46865400D01*
X-1701800Y-46166784D01*
X-4375150Y-46173250D01*
X-4378540Y-46500275D01*
X-4381929Y-46827300D01*
X-5003800Y-46827300D01*
X-5003800Y-46166900D01*
X-5702300Y-46166900D01*
X-5702300Y-47487700D01*
X-4343400Y-47487700D01*
X-4343400Y-46865400D01*
X-3048000Y-46865400D01*
X-3048000Y-47487700D01*
X-4343400Y-47487700D01*
X-5702300Y-47487700D01*
X-5702300Y-48186200D01*
X-4343400Y-48186200D01*
X-3047557Y-48186200D01*
X-3050954Y-48500525D01*
X-3054350Y-48814850D01*
X-4343400Y-48820938D01*
X-4343400Y-48186200D01*
X-5702300Y-48186200D01*
X-5702300Y-48846600D01*
X-5041900Y-48846600D01*
X-5041900Y-49507000D01*
X-3048000Y-49507000D01*
X-3048000Y-50802400D01*
X-2362200Y-50802400D01*
X-2362200Y-50167400D01*
X-1727200Y-50167400D01*
X-1727200Y-50802400D01*
X-2362200Y-50802400D01*
X-3048000Y-50802400D01*
X-4343400Y-50802400D01*
X-4343400Y-50142000D01*
X-5041900Y-50142000D01*
X-5041900Y-50802400D01*
X-5702300Y-50802400D01*
X-5702300Y-52123200D01*
X-6324600Y-52123200D01*
X-6324600Y-51462800D01*
X-7023100Y-51462800D01*
X-7023100Y-52123200D01*
X-8966200Y-52123200D01*
X-8966200Y-51462800D01*
X-9664700Y-51462800D01*
X-9664700Y-52123200D01*
X-10286572Y-52123200D01*
X-10293350Y-51469150D01*
X-10985500Y-51462392D01*
X-10985500Y-52161300D01*
X-10325100Y-52161300D01*
X-10325100Y-52783600D01*
X-6985000Y-52783600D01*
X-6985000Y-52161300D01*
X-6362700Y-52161300D01*
X-6362700Y-52783600D01*
X-6985000Y-52783600D01*
X-10325100Y-52783600D01*
X-10325100Y-52821700D01*
X-7023100Y-52821700D01*
X-7023100Y-53444000D01*
X-6324600Y-53444000D01*
X-6324600Y-52821700D01*
X-5664200Y-52821700D01*
X-5664200Y-52161300D01*
X-5042329Y-52161300D01*
X-5038940Y-52488325D01*
X-5035880Y-52783600D01*
X-4343400Y-52783600D01*
X-4343400Y-52161300D01*
X-3721100Y-52161300D01*
X-3721100Y-52783600D01*
X-4343400Y-52783600D01*
X-5035880Y-52783600D01*
X-5035550Y-52815350D01*
X-4708525Y-52818740D01*
X-4381500Y-52822129D01*
X-4381500Y-53444000D01*
X-5041900Y-53444000D01*
X-5041900Y-54104400D01*
X-5664200Y-54104400D01*
X-5664200Y-53444000D01*
X-6324600Y-53444000D01*
X-7023100Y-53444000D01*
X-7023100Y-53482100D01*
X-6362700Y-53482100D01*
X-6362700Y-54104400D01*
X-7023100Y-54104400D01*
X-7023100Y-54764800D01*
X-8305800Y-54764800D01*
X-8305800Y-54104400D01*
X-10286572Y-54104400D01*
X-10293350Y-53450350D01*
X-10985500Y-53443592D01*
X-10985500Y-54142500D01*
X-10325100Y-54142500D01*
X-10325100Y-54764800D01*
X-10985500Y-54764800D01*
X-10985500Y-55463300D01*
X-10325100Y-55463300D01*
X-10325100Y-56746000D01*
X-9626600Y-56746000D01*
X-9626600Y-54802900D01*
X-8343900Y-54802900D01*
X-8343900Y-55425200D01*
X-6985000Y-55425200D01*
X-6985000Y-54802900D01*
X-5702300Y-54802900D01*
X-5702300Y-55463300D01*
X-4343400Y-55463300D01*
X-4343400Y-54802900D01*
X-3721529Y-54802900D01*
X-3718140Y-55129925D01*
X-3714750Y-55456950D01*
X-3368675Y-55460330D01*
X-3022600Y-55463709D01*
X-3022600Y-54764800D01*
X-3683000Y-54764800D01*
X-3683000Y-54104400D01*
X-4343400Y-54104400D01*
X-4343400Y-53482100D01*
X-3683000Y-53482100D01*
X-3683000Y-52821818D01*
X-1035050Y-52815350D01*
X-1028292Y-52123200D01*
X-3022600Y-52123200D01*
X-3022600Y-50827800D01*
X-2387600Y-50827800D01*
X-2387600Y-51501123D01*
X-1711325Y-51497837D01*
X-1035050Y-51494550D01*
X-1028474Y-50167400D01*
X254000Y-50167400D01*
X254000Y-50802400D01*
X-406400Y-50802400D01*
X-406400Y-51462800D01*
X292100Y-51462800D01*
X292100Y-50828289D01*
X1574800Y-50828289D01*
X1574800Y-52123200D01*
X2273300Y-52123200D01*
X2273300Y-50828289D01*
X3555579Y-50828289D01*
X3558964Y-51161420D01*
X3562027Y-51462800D01*
X5575300Y-51462800D01*
X5575300Y-49507000D01*
X7531100Y-49507000D01*
X7531100Y-51462800D01*
X5575300Y-51462800D01*
X3562027Y-51462800D01*
X3562350Y-51494550D01*
X4219575Y-51497840D01*
X4876800Y-51501129D01*
X4876800Y-52783600D01*
X5575300Y-52783600D01*
X5575300Y-52161300D01*
X6210300Y-52161300D01*
X6210300Y-52783600D01*
X5575300Y-52783600D01*
X4876800Y-52783600D01*
X3556000Y-52783600D01*
X3556000Y-53444000D01*
X6235700Y-53444000D01*
X6235700Y-52821700D01*
X6896100Y-52821700D01*
X6896100Y-52161300D01*
X8191500Y-52161300D01*
X8191500Y-52821700D01*
X8851900Y-52821700D01*
X8851900Y-53444000D01*
X8191500Y-53444000D01*
X8191500Y-54104400D01*
X8890000Y-54104400D01*
X8890000Y-53482100D01*
X9512300Y-53482100D01*
X9512300Y-54104400D01*
X8890000Y-54104400D01*
X8191500Y-54104400D01*
X8191500Y-54142500D01*
X8851900Y-54142500D01*
X8851900Y-54764800D01*
X8191500Y-54764800D01*
X8191500Y-56085600D01*
X6896100Y-56085600D01*
X6896100Y-55463722D01*
X7562850Y-55456950D01*
X7562850Y-54110750D01*
X7229475Y-54107365D01*
X6896100Y-54103979D01*
X6896100Y-53444000D01*
X6235700Y-53444000D01*
X3556000Y-53444000D01*
X3556000Y-53482100D01*
X4216400Y-53482100D01*
X4216400Y-54104400D01*
X4914900Y-54104400D01*
X4914900Y-53482100D01*
X6210300Y-53482100D01*
X6210300Y-54104400D01*
X4914900Y-54104400D01*
X4216400Y-54104400D01*
X2933700Y-54104400D01*
X2933700Y-52123200D01*
X2273300Y-52123200D01*
X1574800Y-52123200D01*
X952500Y-52123200D01*
X952500Y-51462800D01*
X292100Y-51462800D01*
X-406400Y-51462800D01*
X-406400Y-51500900D01*
X254000Y-51500900D01*
X254000Y-52161300D01*
X914400Y-52161300D01*
X914400Y-52821700D01*
X1612900Y-52821700D01*
X1612900Y-52161300D01*
X2235200Y-52161300D01*
X2235200Y-53444000D01*
X914400Y-53444000D01*
X914400Y-54764800D01*
X4254500Y-54764800D01*
X4254500Y-54142500D01*
X4876800Y-54142500D01*
X4876800Y-54764800D01*
X6235700Y-54764800D01*
X6235700Y-54142500D01*
X6870700Y-54142500D01*
X6870700Y-54764800D01*
X6235700Y-54764800D01*
X4876800Y-54764800D01*
X4254500Y-54764800D01*
X914400Y-54764800D01*
X292100Y-54764800D01*
X292100Y-52783600D01*
X-406400Y-52783600D01*
X-406400Y-55425200D01*
X-2387600Y-55425200D01*
X-2387600Y-56746000D01*
X-3048000Y-56746000D01*
X-3048000Y-57406400D01*
X-3683000Y-57406400D01*
X-3683000Y-56085192D01*
X-4375150Y-56091950D01*
X-4378539Y-56418762D01*
X-4381928Y-56745573D01*
X-4708739Y-56748962D01*
X-5035550Y-56752350D01*
X-5038930Y-57098425D01*
X-5042309Y-57444501D01*
X-4381705Y-57444500D01*
X-3721100Y-57444500D01*
X-3721100Y-58739900D01*
X-3022600Y-58739900D01*
X-3022600Y-57444500D01*
X-1701800Y-57444500D01*
X-1701025Y-57111125D01*
X-1700862Y-56995897D01*
X-1700852Y-56865532D01*
X-1700984Y-56729535D01*
X-1701247Y-56597414D01*
X-1701632Y-56478673D01*
X-1701753Y-56450725D01*
X-1703255Y-56123700D01*
X-1066800Y-56123700D01*
X-1066800Y-58079500D01*
X-2387600Y-58079500D01*
X-2387600Y-58739900D01*
X-1028700Y-58739900D01*
X-1028700Y-58104900D01*
X292508Y-58104900D01*
X285750Y-57412750D01*
X-368300Y-57405972D01*
X-368300Y-56123700D01*
X254000Y-56123700D01*
X254000Y-56784100D01*
X952500Y-56784100D01*
X952500Y-56085600D01*
X292100Y-56085600D01*
X292100Y-55463300D01*
X1612900Y-55463300D01*
X1612900Y-54802900D01*
X3556000Y-54802900D01*
X3556000Y-55425200D01*
X4914900Y-55425200D01*
X4914900Y-54802900D01*
X5549900Y-54802900D01*
X5549900Y-55425200D01*
X4914900Y-55425200D01*
X3556000Y-55425200D01*
X2895600Y-55425200D01*
X2895600Y-56085600D01*
X4254500Y-56085600D01*
X4254500Y-55463300D01*
X4876800Y-55463300D01*
X4876800Y-56085600D01*
X4254500Y-56085600D01*
X2895600Y-56085600D01*
X2235200Y-56085600D01*
X2235200Y-56746000D01*
X2933700Y-56746000D01*
X2933700Y-56123700D01*
X3556000Y-56123700D01*
X3556000Y-56746000D01*
X9550400Y-56746000D01*
X9550400Y-56123700D01*
X10172700Y-56123700D01*
X10172700Y-56746000D01*
X9550400Y-56746000D01*
X3556000Y-56746000D01*
X2933700Y-56746000D01*
X2235200Y-56746000D01*
X2235200Y-57406400D01*
X6896100Y-57406400D01*
X6896100Y-56784100D01*
X7531100Y-56784100D01*
X7531100Y-57406400D01*
X6896100Y-57406400D01*
X2235200Y-57406400D01*
X2235200Y-58079500D01*
X914400Y-58079500D01*
X914400Y-58739900D01*
X-1028700Y-58739900D01*
X-2387600Y-58739900D01*
X-3022600Y-58739900D01*
X-3721100Y-58739900D01*
X-3721100Y-59400300D01*
X-2362200Y-59400300D01*
X-2362200Y-58765300D01*
X-1727200Y-58765300D01*
X-1727200Y-59400300D01*
X-2362200Y-59400300D01*
X-3721100Y-59400300D01*
X-5003800Y-59400300D01*
X-5003800Y-58079500D01*
X-5664200Y-58079500D01*
X-5664200Y-56085600D01*
X-6324600Y-56085600D01*
X-6324600Y-55425200D01*
X-6985000Y-55425200D01*
X-8343900Y-55425200D01*
X-8343900Y-55463300D01*
X-7023100Y-55463300D01*
X-7023100Y-56123700D01*
X-6362700Y-56123700D01*
X-6362700Y-56745572D01*
X-7016750Y-56752350D01*
X-7020130Y-57098425D01*
X-7023509Y-57444500D01*
X-6362700Y-57444500D01*
X-6362700Y-58079500D01*
X-7023100Y-58079500D01*
X-7023100Y-58739900D01*
X-6324600Y-58739900D01*
X-6324600Y-58104900D01*
X-5702300Y-58104900D01*
X-5702300Y-58739900D01*
X-6324600Y-58739900D01*
X-7023100Y-58739900D01*
X-7023100Y-58765300D01*
X-6362700Y-58765300D01*
X-6362700Y-59400300D01*
X-7645400Y-59400300D01*
X-7645400Y-58739900D01*
X-8305800Y-58739900D01*
X-8305800Y-57444500D01*
X-7645400Y-57444500D01*
X-7645400Y-56085600D01*
X-9004300Y-56085600D01*
X-9004300Y-56746000D01*
X-9626600Y-56746000D01*
X-10325100Y-56746000D01*
X-10325100Y-56784100D01*
X-9664700Y-56784100D01*
X-9664700Y-57444500D01*
X-9004300Y-57444500D01*
X-9004300Y-58079500D01*
X-9664700Y-58079500D01*
X-9664700Y-58739900D01*
X-10286774Y-58739900D01*
X-10293350Y-57412750D01*
X-10985500Y-57405992D01*
X-10985500Y-58765300D01*
X-10325100Y-58765300D01*
X-10325100Y-59425700D01*
X-9664700Y-59425700D01*
X-9664700Y-60060700D01*
X-8966200Y-60060700D01*
X-8966200Y-58765300D01*
X-8343900Y-58765300D01*
X-8343900Y-60060700D01*
X-8966200Y-60060700D01*
X-9664700Y-60060700D01*
X-10325100Y-60060700D01*
X-10325100Y-60721100D01*
X-10985500Y-60721100D01*
X-10985500Y-62740400D01*
X-8305800Y-62740400D01*
X-8305800Y-62041900D01*
X-9626600Y-62041900D01*
X-9626600Y-61420029D01*
X-9299575Y-61416640D01*
X-8972550Y-61413250D01*
X-8965772Y-60759200D01*
X-8343900Y-60759200D01*
X-8343900Y-61419600D01*
X-7645400Y-61419600D01*
X-7645400Y-60098800D01*
X-6362700Y-60098800D01*
X-6362700Y-60721100D01*
X-3683000Y-60721100D01*
X-3683000Y-59425700D01*
X-3048000Y-59425700D01*
X-3048000Y-60060700D01*
X-1028700Y-60060700D01*
X-1028700Y-59426078D01*
X253578Y-59426056D01*
X260350Y-60092450D01*
X946150Y-60092450D01*
X952726Y-58765300D01*
X1574800Y-58765300D01*
X1574800Y-59425700D01*
X2234778Y-59425700D01*
X2241550Y-60092450D01*
X2927350Y-60092450D01*
X2934108Y-59400300D01*
X2273300Y-59400300D01*
X2273300Y-58765300D01*
X3555773Y-58765300D01*
X3559061Y-59428875D01*
X3562350Y-60092450D01*
X3908425Y-60095830D01*
X4254500Y-60099209D01*
X4254500Y-58079500D01*
X3594100Y-58079500D01*
X3594100Y-57444500D01*
X4876800Y-57444500D01*
X4876800Y-58104900D01*
X6210300Y-58104900D01*
X6210300Y-58765300D01*
X6896100Y-58765300D01*
X6896100Y-58104900D01*
X7569200Y-58104900D01*
X7569200Y-57444500D01*
X8851900Y-57444500D01*
X8851900Y-58739900D01*
X8191500Y-58739900D01*
X8191500Y-59400300D01*
X6870700Y-59400300D01*
X6870700Y-60060700D01*
X6235700Y-60060700D01*
X6235700Y-59400300D01*
X5575300Y-59400300D01*
X5575300Y-58739900D01*
X4876800Y-58739900D01*
X4876800Y-60721100D01*
X2235200Y-60721100D01*
X2235200Y-61381500D01*
X1612900Y-61381500D01*
X1612900Y-60721100D01*
X914400Y-60721100D01*
X914400Y-61419600D01*
X1574800Y-61419600D01*
X1574800Y-62041900D01*
X292100Y-62041900D01*
X292100Y-60721100D01*
X-368300Y-60721100D01*
X-368300Y-60060700D01*
X-1028700Y-60060700D01*
X-3048000Y-60060700D01*
X-3048000Y-60098800D01*
X-2387600Y-60098800D01*
X-2387600Y-60721100D01*
X-3683000Y-60721100D01*
X-6362700Y-60721100D01*
X-7023100Y-60721100D01*
X-7023100Y-61419600D01*
X-6362700Y-61419600D01*
X-6362700Y-62041900D01*
X-7023100Y-62041900D01*
X-7023100Y-62740400D01*
X-6324600Y-62740400D01*
X-6324600Y-62080000D01*
X-5702300Y-62080000D01*
X-5702300Y-62740400D01*
X-5003800Y-62740400D01*
X-5003800Y-62041900D01*
X-5664200Y-62041900D01*
X-5664200Y-61419600D01*
X-4381500Y-61419600D01*
X-4381500Y-62041900D01*
X-3683000Y-62041900D01*
X-3683000Y-61419600D01*
X-3048000Y-61419600D01*
X-3048000Y-62041900D01*
X-3683000Y-62041900D01*
X-4381500Y-62041900D01*
X-4381500Y-64023100D01*
X-3683000Y-64023100D01*
X-3683000Y-62740400D01*
X-3048000Y-62740400D01*
X-3048000Y-64023100D01*
X-3683000Y-64023100D01*
X-4381500Y-64023100D01*
X-4381500Y-64683500D01*
X-3022600Y-64683500D01*
X-3022600Y-64061200D01*
X-2362200Y-64061200D01*
X-2362200Y-60759200D01*
X-1727200Y-60759200D01*
X-1727200Y-61420009D01*
X-1381125Y-61416630D01*
X-1035050Y-61413250D01*
X-1028272Y-60759200D01*
X-406400Y-60759200D01*
X-406400Y-62080000D01*
X254000Y-62080000D01*
X254000Y-62702300D01*
X2273300Y-62702300D01*
X2273300Y-62080000D01*
X2895600Y-62080000D01*
X2895600Y-62702300D01*
X2273300Y-62702300D01*
X254000Y-62702300D01*
X254000Y-63362700D01*
X-368300Y-63362700D01*
X-368300Y-62702300D01*
X-1028272Y-62702300D01*
X-1035050Y-62048250D01*
X-1727200Y-62041492D01*
X-1727200Y-64061609D01*
X-1381125Y-64058230D01*
X-1035050Y-64054850D01*
X-1028272Y-63400800D01*
X-406400Y-63400800D01*
X-406400Y-64683500D01*
X-1727200Y-64683500D01*
X-1727200Y-66004300D01*
X-2362200Y-66004300D01*
X-2362200Y-64683500D01*
X-3022600Y-64683500D01*
X-4381500Y-64683500D01*
X-4381500Y-64721600D01*
X-3721100Y-64721600D01*
X-3721100Y-65343900D01*
X-5003800Y-65343900D01*
X-5003800Y-64683092D01*
X-5695950Y-64689850D01*
X-5699202Y-65696325D01*
X-5702369Y-66677038D01*
X-3683000Y-66677038D01*
X-3683000Y-65382000D01*
X-3048000Y-65382000D01*
X-3048000Y-66042400D01*
X-2387600Y-66042400D01*
X-2387600Y-66677038D01*
X-3683000Y-66677038D01*
X-5702369Y-66677038D01*
X-5702453Y-66702800D01*
X-5041900Y-66702800D01*
X-5041900Y-67337800D01*
X-5702300Y-67337800D01*
X-5702300Y-68023600D01*
X-5003800Y-68023600D01*
X-5003800Y-67363200D01*
G36*
X-8143217Y-50828323D02*
G01*
X-7942466Y-50828318D01*
X-7748641Y-50828309D01*
X-7563693Y-50828297D01*
X-7389572Y-50828281D01*
X-7228232Y-50828263D01*
X-7081623Y-50828240D01*
X-6951697Y-50828214D01*
X-6840406Y-50828185D01*
X-6749700Y-50828152D01*
X-6681532Y-50828116D01*
X-6657975Y-50828098D01*
X-6324600Y-50827800D01*
X-6324600Y-46166900D01*
X-10985500Y-46166900D01*
X-10985500Y-50142000D01*
X-10287000Y-50142000D01*
X-10287000Y-46865400D01*
X-7023100Y-46865400D01*
X-7023100Y-50142000D01*
X-10287000Y-50142000D01*
X-10985500Y-50142000D01*
X-10985500Y-50827800D01*
X-10658475Y-50828032D01*
X-10588028Y-50828072D01*
X-10495233Y-50828109D01*
X-10382042Y-50828144D01*
X-10250407Y-50828175D01*
X-10102279Y-50828204D01*
X-9939609Y-50828230D01*
X-9764349Y-50828252D01*
X-9578451Y-50828272D01*
X-9383866Y-50828289D01*
X-9182546Y-50828302D01*
X-8976441Y-50828313D01*
X-8767505Y-50828320D01*
X-8557688Y-50828325D01*
X-8348941Y-50828326D01*
X-8143217Y-50828323D01*
X-8143217Y-50828323D01*
G37*
X-8143217Y-50828323D02*
X-7942466Y-50828318D01*
X-7748641Y-50828309D01*
X-7563693Y-50828297D01*
X-7389572Y-50828281D01*
X-7228232Y-50828263D01*
X-7081623Y-50828240D01*
X-6951697Y-50828214D01*
X-6840406Y-50828185D01*
X-6749700Y-50828152D01*
X-6681532Y-50828116D01*
X-6657975Y-50828098D01*
X-6324600Y-50827800D01*
X-6324600Y-46166900D01*
X-10985500Y-46166900D01*
X-10985500Y-50142000D01*
X-10287000Y-50142000D01*
X-10287000Y-46865400D01*
X-7023100Y-46865400D01*
X-7023100Y-50142000D01*
X-10287000Y-50142000D01*
X-10985500Y-50142000D01*
X-10985500Y-50827800D01*
X-10658475Y-50828032D01*
X-10588028Y-50828072D01*
X-10495233Y-50828109D01*
X-10382042Y-50828144D01*
X-10250407Y-50828175D01*
X-10102279Y-50828204D01*
X-9939609Y-50828230D01*
X-9764349Y-50828252D01*
X-9578451Y-50828272D01*
X-9383866Y-50828289D01*
X-9182546Y-50828302D01*
X-8976441Y-50828313D01*
X-8767505Y-50828320D01*
X-8557688Y-50828325D01*
X-8348941Y-50828326D01*
X-8143217Y-50828323D01*
G36*
X-4149689Y23074902D02*
G01*
X-3977108Y23079627D01*
X-3854333Y23090284D01*
X-3763940Y23109146D01*
X-3688503Y23138491D01*
X-3621908Y23174074D01*
X-3438708Y23326324D01*
X-3311400Y23535889D01*
X-3246934Y23790996D01*
X-3244697Y23813057D01*
X-3228176Y23995133D01*
X-3210703Y24187870D01*
X-3206162Y24238000D01*
X-3186990Y24449667D01*
X-4231911Y24449667D01*
X-4259141Y24304521D01*
X-4313010Y24134747D01*
X-4407707Y24026676D01*
X-4558123Y23967792D01*
X-4679896Y23950983D01*
X-4918728Y23957339D01*
X-5131785Y24012401D01*
X-5298765Y24109220D01*
X-5370317Y24187273D01*
X-5396916Y24235361D01*
X-5417211Y24298887D01*
X-5432307Y24389901D01*
X-5443311Y24520456D01*
X-5451330Y24702602D01*
X-5457471Y24948389D01*
X-5461482Y25179917D01*
X-5475131Y26058333D01*
X-6569667Y26058333D01*
X-6569667Y23095000D01*
X-5511334Y23095000D01*
X-5511334Y23573370D01*
X-5385168Y23399204D01*
X-5291346Y23280548D01*
X-5197448Y23194517D01*
X-5087809Y23135993D01*
X-4946764Y23099857D01*
X-4758646Y23080988D01*
X-4507790Y23074267D01*
X-4389500Y23073833D01*
X-4149689Y23074902D01*
X-4149689Y23074902D01*
G37*
X-4149689Y23074902D02*
X-3977108Y23079627D01*
X-3854333Y23090284D01*
X-3763940Y23109146D01*
X-3688503Y23138491D01*
X-3621908Y23174074D01*
X-3438708Y23326324D01*
X-3311400Y23535889D01*
X-3246934Y23790996D01*
X-3244697Y23813057D01*
X-3228176Y23995133D01*
X-3210703Y24187870D01*
X-3206162Y24238000D01*
X-3186990Y24449667D01*
X-4231911Y24449667D01*
X-4259141Y24304521D01*
X-4313010Y24134747D01*
X-4407707Y24026676D01*
X-4558123Y23967792D01*
X-4679896Y23950983D01*
X-4918728Y23957339D01*
X-5131785Y24012401D01*
X-5298765Y24109220D01*
X-5370317Y24187273D01*
X-5396916Y24235361D01*
X-5417211Y24298887D01*
X-5432307Y24389901D01*
X-5443311Y24520456D01*
X-5451330Y24702602D01*
X-5457471Y24948389D01*
X-5461482Y25179917D01*
X-5475131Y26058333D01*
X-6569667Y26058333D01*
X-6569667Y23095000D01*
X-5511334Y23095000D01*
X-5511334Y23573370D01*
X-5385168Y23399204D01*
X-5291346Y23280548D01*
X-5197448Y23194517D01*
X-5087809Y23135993D01*
X-4946764Y23099857D01*
X-4758646Y23080988D01*
X-4507790Y23074267D01*
X-4389500Y23073833D01*
X-4149689Y23074902D01*
G36*
X-493423Y23121932D02*
G01*
X-124047Y23142869D01*
X176368Y23184436D01*
X415393Y23252093D01*
X600604Y23351298D01*
X739571Y23487512D01*
X839870Y23666194D01*
X909072Y23892802D01*
X954750Y24172797D01*
X983881Y24502583D01*
X1008493Y24873000D01*
X-1797078Y24873000D01*
X-1772182Y25026417D01*
X-1735172Y25162497D01*
X-1667394Y25265085D01*
X-1558634Y25338453D01*
X-1398678Y25386873D01*
X-1177313Y25414614D01*
X-884324Y25425948D01*
X-815095Y25426629D01*
X-558088Y25422547D01*
X-372467Y25404035D01*
X-245612Y25367243D01*
X-164905Y25308321D01*
X-117729Y25223420D01*
X-114192Y25212794D01*
X-97672Y25177607D01*
X-64958Y25153610D01*
X-1813Y25138677D01*
X105998Y25130684D01*
X272713Y25127505D01*
X460519Y25127000D01*
X695850Y25127182D01*
X857290Y25133187D01*
X955580Y25153200D01*
X1001463Y25195406D01*
X1005680Y25267991D01*
X978973Y25379139D01*
X944257Y25495609D01*
X839323Y25723046D01*
X673518Y25896517D01*
X442616Y26019597D01*
X261439Y26072958D01*
X83871Y26102415D01*
X-156816Y26127219D01*
X-439161Y26146560D01*
X-741702Y26159628D01*
X-1042979Y26165613D01*
X-1321531Y26163706D01*
X-1555897Y26153097D01*
X-1644618Y26144881D01*
X-2005650Y26081895D01*
X-2295732Y25981823D01*
X-2522019Y25840264D01*
X-2691663Y25652820D01*
X-2805962Y25430626D01*
X-2847269Y25308223D01*
X-2874669Y25182238D01*
X-2890873Y25030567D01*
X-2898595Y24831109D01*
X-2900366Y24661333D01*
X-2890847Y24296639D01*
X-2874739Y24160712D01*
X-1786000Y24160712D01*
X-1781022Y24187019D01*
X-1758857Y24206587D01*
X-1708665Y24220405D01*
X-1619603Y24229465D01*
X-1480828Y24234754D01*
X-1281499Y24237264D01*
X-1010773Y24237983D01*
X-939334Y24238000D01*
X-645821Y24237148D01*
X-426850Y24234107D01*
X-272311Y24228145D01*
X-172090Y24218534D01*
X-116077Y24204542D01*
X-94160Y24185439D01*
X-92667Y24176860D01*
X-118626Y24106070D01*
X-182357Y24011907D01*
X-194835Y23996944D01*
X-297003Y23878167D01*
X-932258Y23878167D01*
X-1177491Y23878755D01*
X-1352957Y23881889D01*
X-1473553Y23889623D01*
X-1554179Y23904010D01*
X-1609731Y23927104D01*
X-1655108Y23960959D01*
X-1676757Y23980796D01*
X-1750945Y24071174D01*
X-1785651Y24154192D01*
X-1786000Y24160712D01*
X-2874739Y24160712D01*
X-2854767Y23992183D01*
X-2785691Y23742894D01*
X-2677179Y23543699D01*
X-2522796Y23389526D01*
X-2316104Y23275303D01*
X-2050666Y23195958D01*
X-1720044Y23146418D01*
X-1317801Y23121612D01*
X-939334Y23116167D01*
X-493423Y23121932D01*
X-493423Y23121932D01*
G37*
X-493423Y23121932D02*
X-124047Y23142869D01*
X176368Y23184436D01*
X415393Y23252093D01*
X600604Y23351298D01*
X739571Y23487512D01*
X839870Y23666194D01*
X909072Y23892802D01*
X954750Y24172797D01*
X983881Y24502583D01*
X1008493Y24873000D01*
X-1797078Y24873000D01*
X-1772182Y25026417D01*
X-1735172Y25162497D01*
X-1667394Y25265085D01*
X-1558634Y25338453D01*
X-1398678Y25386873D01*
X-1177313Y25414614D01*
X-884324Y25425948D01*
X-815095Y25426629D01*
X-558088Y25422547D01*
X-372467Y25404035D01*
X-245612Y25367243D01*
X-164905Y25308321D01*
X-117729Y25223420D01*
X-114192Y25212794D01*
X-97672Y25177607D01*
X-64958Y25153610D01*
X-1813Y25138677D01*
X105998Y25130684D01*
X272713Y25127505D01*
X460519Y25127000D01*
X695850Y25127182D01*
X857290Y25133187D01*
X955580Y25153200D01*
X1001463Y25195406D01*
X1005680Y25267991D01*
X978973Y25379139D01*
X944257Y25495609D01*
X839323Y25723046D01*
X673518Y25896517D01*
X442616Y26019597D01*
X261439Y26072958D01*
X83871Y26102415D01*
X-156816Y26127219D01*
X-439161Y26146560D01*
X-741702Y26159628D01*
X-1042979Y26165613D01*
X-1321531Y26163706D01*
X-1555897Y26153097D01*
X-1644618Y26144881D01*
X-2005650Y26081895D01*
X-2295732Y25981823D01*
X-2522019Y25840264D01*
X-2691663Y25652820D01*
X-2805962Y25430626D01*
X-2847269Y25308223D01*
X-2874669Y25182238D01*
X-2890873Y25030567D01*
X-2898595Y24831109D01*
X-2900366Y24661333D01*
X-2890847Y24296639D01*
X-2874739Y24160712D01*
X-1786000Y24160712D01*
X-1781022Y24187019D01*
X-1758857Y24206587D01*
X-1708665Y24220405D01*
X-1619603Y24229465D01*
X-1480828Y24234754D01*
X-1281499Y24237264D01*
X-1010773Y24237983D01*
X-939334Y24238000D01*
X-645821Y24237148D01*
X-426850Y24234107D01*
X-272311Y24228145D01*
X-172090Y24218534D01*
X-116077Y24204542D01*
X-94160Y24185439D01*
X-92667Y24176860D01*
X-118626Y24106070D01*
X-182357Y24011907D01*
X-194835Y23996944D01*
X-297003Y23878167D01*
X-932258Y23878167D01*
X-1177491Y23878755D01*
X-1352957Y23881889D01*
X-1473553Y23889623D01*
X-1554179Y23904010D01*
X-1609731Y23927104D01*
X-1655108Y23960959D01*
X-1676757Y23980796D01*
X-1750945Y24071174D01*
X-1785651Y24154192D01*
X-1786000Y24160712D01*
X-2874739Y24160712D01*
X-2854767Y23992183D01*
X-2785691Y23742894D01*
X-2677179Y23543699D01*
X-2522796Y23389526D01*
X-2316104Y23275303D01*
X-2050666Y23195958D01*
X-1720044Y23146418D01*
X-1317801Y23121612D01*
X-939334Y23116167D01*
X-493423Y23121932D01*
G36*
X-9036644Y23105402D02*
G01*
X-8665043Y23115520D01*
X-8366062Y23130577D01*
X-8127699Y23152730D01*
X-7937955Y23184133D01*
X-7784827Y23226942D01*
X-7656314Y23283313D01*
X-7540416Y23355402D01*
X-7506553Y23380234D01*
X-7388639Y23490423D01*
X-7300839Y23626864D01*
X-7238813Y23803036D01*
X-7198220Y24032418D01*
X-7174720Y24328490D01*
X-7170680Y24423321D01*
X-7166677Y24834798D01*
X-7190344Y25172878D01*
X-7245640Y25445445D01*
X-7336526Y25660380D01*
X-7466962Y25825566D01*
X-7640909Y25948885D01*
X-7862327Y26038222D01*
X-8000267Y26074484D01*
X-8149210Y26098706D01*
X-8362444Y26120807D01*
X-8619601Y26139829D01*
X-8900312Y26154816D01*
X-9184211Y26164813D01*
X-9450928Y26168865D01*
X-9680097Y26166014D01*
X-9808167Y26159329D01*
X-10202266Y26113565D01*
X-10524421Y26039676D01*
X-10780296Y25930818D01*
X-10975556Y25780145D01*
X-11115865Y25580814D01*
X-11206889Y25325979D01*
X-11254291Y25008795D01*
X-11263220Y24643489D01*
X-10159169Y24643489D01*
X-10144692Y24834180D01*
X-10112997Y24994158D01*
X-10079465Y25075130D01*
X-9964341Y25181110D01*
X-9772136Y25254920D01*
X-9702334Y25270166D01*
X-9592324Y25280351D01*
X-9427049Y25283147D01*
X-9229099Y25279576D01*
X-9021063Y25270657D01*
X-8825529Y25257410D01*
X-8665086Y25240856D01*
X-8562324Y25222015D01*
X-8550964Y25218174D01*
X-8433945Y25149560D01*
X-8356979Y25043935D01*
X-8313986Y24886997D01*
X-8298885Y24664446D01*
X-8298650Y24624792D01*
X-8304948Y24408394D01*
X-8330724Y24245277D01*
X-8386301Y24127985D01*
X-8482002Y24049065D01*
X-8628151Y24001064D01*
X-8835069Y23976527D01*
X-9113081Y23967999D01*
X-9209000Y23967456D01*
X-9500042Y23970389D01*
X-9718618Y23983610D01*
X-9876710Y24011337D01*
X-9986301Y24057787D01*
X-10059373Y24127176D01*
X-10107910Y24223723D01*
X-10128833Y24291199D01*
X-10154519Y24452392D01*
X-10159169Y24643489D01*
X-11263220Y24643489D01*
X-11263736Y24622418D01*
X-11256402Y24409365D01*
X-11231322Y24082132D01*
X-11188319Y23826440D01*
X-11121827Y23630069D01*
X-11026285Y23480801D01*
X-10896128Y23366417D01*
X-10743333Y23282533D01*
X-10586124Y23219558D01*
X-10417746Y23171370D01*
X-10225692Y23136671D01*
X-9997454Y23114162D01*
X-9720526Y23102547D01*
X-9382401Y23100527D01*
X-9036644Y23105402D01*
X-9036644Y23105402D01*
G37*
X-9036644Y23105402D02*
X-8665043Y23115520D01*
X-8366062Y23130577D01*
X-8127699Y23152730D01*
X-7937955Y23184133D01*
X-7784827Y23226942D01*
X-7656314Y23283313D01*
X-7540416Y23355402D01*
X-7506553Y23380234D01*
X-7388639Y23490423D01*
X-7300839Y23626864D01*
X-7238813Y23803036D01*
X-7198220Y24032418D01*
X-7174720Y24328490D01*
X-7170680Y24423321D01*
X-7166677Y24834798D01*
X-7190344Y25172878D01*
X-7245640Y25445445D01*
X-7336526Y25660380D01*
X-7466962Y25825566D01*
X-7640909Y25948885D01*
X-7862327Y26038222D01*
X-8000267Y26074484D01*
X-8149210Y26098706D01*
X-8362444Y26120807D01*
X-8619601Y26139829D01*
X-8900312Y26154816D01*
X-9184211Y26164813D01*
X-9450928Y26168865D01*
X-9680097Y26166014D01*
X-9808167Y26159329D01*
X-10202266Y26113565D01*
X-10524421Y26039676D01*
X-10780296Y25930818D01*
X-10975556Y25780145D01*
X-11115865Y25580814D01*
X-11206889Y25325979D01*
X-11254291Y25008795D01*
X-11263220Y24643489D01*
X-10159169Y24643489D01*
X-10144692Y24834180D01*
X-10112997Y24994158D01*
X-10079465Y25075130D01*
X-9964341Y25181110D01*
X-9772136Y25254920D01*
X-9702334Y25270166D01*
X-9592324Y25280351D01*
X-9427049Y25283147D01*
X-9229099Y25279576D01*
X-9021063Y25270657D01*
X-8825529Y25257410D01*
X-8665086Y25240856D01*
X-8562324Y25222015D01*
X-8550964Y25218174D01*
X-8433945Y25149560D01*
X-8356979Y25043935D01*
X-8313986Y24886997D01*
X-8298885Y24664446D01*
X-8298650Y24624792D01*
X-8304948Y24408394D01*
X-8330724Y24245277D01*
X-8386301Y24127985D01*
X-8482002Y24049065D01*
X-8628151Y24001064D01*
X-8835069Y23976527D01*
X-9113081Y23967999D01*
X-9209000Y23967456D01*
X-9500042Y23970389D01*
X-9718618Y23983610D01*
X-9876710Y24011337D01*
X-9986301Y24057787D01*
X-10059373Y24127176D01*
X-10107910Y24223723D01*
X-10128833Y24291199D01*
X-10154519Y24452392D01*
X-10159169Y24643489D01*
X-11263220Y24643489D01*
X-11263736Y24622418D01*
X-11256402Y24409365D01*
X-11231322Y24082132D01*
X-11188319Y23826440D01*
X-11121827Y23630069D01*
X-11026285Y23480801D01*
X-10896128Y23366417D01*
X-10743333Y23282533D01*
X-10586124Y23219558D01*
X-10417746Y23171370D01*
X-10225692Y23136671D01*
X-9997454Y23114162D01*
X-9720526Y23102547D01*
X-9382401Y23100527D01*
X-9036644Y23105402D01*
G36*
X15401333Y25211667D02*
G01*
X16332666Y25211667D01*
X16332666Y26566333D01*
X15401333Y26566333D01*
X15401333Y27667000D01*
X13073000Y27667000D01*
X13073000Y26566333D01*
X9009000Y26566333D01*
X9009000Y25211667D01*
X11245552Y25211667D01*
X13073000Y25211667D01*
X13073000Y23328691D01*
X12286979Y24111429D01*
X12067845Y24330847D01*
X11862153Y24539057D01*
X11679605Y24726061D01*
X11529908Y24881858D01*
X11422763Y24996450D01*
X11373255Y25052917D01*
X11245552Y25211667D01*
X9009000Y25211667D01*
X9009000Y24936087D01*
X10628453Y23317044D01*
X12247907Y21698000D01*
X15401333Y21698000D01*
X15401333Y25211667D01*
X15401333Y25211667D01*
G37*
X15401333Y25211667D02*
X16332666Y25211667D01*
X16332666Y26566333D01*
X15401333Y26566333D01*
X15401333Y27667000D01*
X13073000Y27667000D01*
X13073000Y26566333D01*
X9009000Y26566333D01*
X9009000Y25211667D01*
X11245552Y25211667D01*
X13073000Y25211667D01*
X13073000Y23328691D01*
X12286979Y24111429D01*
X12067845Y24330847D01*
X11862153Y24539057D01*
X11679605Y24726061D01*
X11529908Y24881858D01*
X11422763Y24996450D01*
X11373255Y25052917D01*
X11245552Y25211667D01*
X9009000Y25211667D01*
X9009000Y24936087D01*
X10628453Y23317044D01*
X12247907Y21698000D01*
X15401333Y21698000D01*
X15401333Y25211667D01*
G36*
X5477347Y21625019D02*
G01*
X6022357Y21661067D01*
X6492743Y21723256D01*
X6891980Y21813330D01*
X7223548Y21933033D01*
X7490924Y22084109D01*
X7697584Y22268301D01*
X7847008Y22487353D01*
X7942671Y22743010D01*
X7988051Y23037014D01*
X7993000Y23187350D01*
X7993000Y23476000D01*
X5664666Y23476000D01*
X5664666Y23313228D01*
X5653911Y23191817D01*
X5613524Y23105230D01*
X5531327Y23046729D01*
X5395140Y23009579D01*
X5192783Y22987041D01*
X5060435Y22979017D01*
X4719024Y22970440D01*
X4426790Y22981098D01*
X4193155Y23010017D01*
X4027539Y23056220D01*
X3963876Y23092526D01*
X3924113Y23131632D01*
X3896487Y23183841D01*
X3877958Y23265284D01*
X3865484Y23392092D01*
X3856026Y23580399D01*
X3852078Y23685744D01*
X3833622Y24203379D01*
X3963879Y24136021D01*
X4110417Y24071872D01*
X4279356Y24022512D01*
X4482658Y23986432D01*
X4732286Y23962119D01*
X5040202Y23948064D01*
X5418368Y23942755D01*
X5495333Y23942612D01*
X5778896Y23944679D01*
X6052704Y23950615D01*
X6298363Y23959727D01*
X6497477Y23971321D01*
X6631653Y23984704D01*
X6638333Y23985720D01*
X7035827Y24070786D01*
X7362622Y24191810D01*
X7626774Y24353676D01*
X7836342Y24561269D01*
X7993000Y24806825D01*
X8141166Y25097297D01*
X8141166Y25821232D01*
X8140224Y26091869D01*
X8136375Y26293345D01*
X8128086Y26441152D01*
X8113825Y26550784D01*
X8092060Y26637734D01*
X8061257Y26717497D01*
X8050051Y26742284D01*
X7881047Y27007259D01*
X7637449Y27232861D01*
X7319756Y27418827D01*
X6928465Y27564896D01*
X6464074Y27670805D01*
X6216110Y27707205D01*
X6057306Y27720594D01*
X5831213Y27731086D01*
X5554138Y27738685D01*
X5242391Y27743394D01*
X4912282Y27745216D01*
X4580119Y27744156D01*
X4262213Y27740216D01*
X3974871Y27733400D01*
X3734404Y27723713D01*
X3557120Y27711156D01*
X3517053Y27706619D01*
X3054002Y27622091D01*
X2662327Y27496177D01*
X2337590Y27325184D01*
X2075353Y27105416D01*
X1871177Y26833178D01*
X1720624Y26504776D01*
X1621551Y26128693D01*
X1597660Y25950743D01*
X1580528Y25725969D01*
X3865385Y25725969D01*
X3865500Y25825500D01*
X3871834Y26034184D01*
X3896723Y26175385D01*
X3948995Y26265723D01*
X4037476Y26321822D01*
X4146567Y26354722D01*
X4262449Y26370663D01*
X4441145Y26381980D01*
X4660926Y26388654D01*
X4900066Y26390666D01*
X5136835Y26387997D01*
X5349507Y26380629D01*
X5516354Y26368542D01*
X5600033Y26355983D01*
X5725013Y26315537D01*
X5806296Y26252617D01*
X5852679Y26150690D01*
X5872957Y25993219D01*
X5876333Y25836651D01*
X5873566Y25663878D01*
X5861399Y25551772D01*
X5834030Y25476407D01*
X5785659Y25413861D01*
X5769914Y25397732D01*
X5663495Y25291313D01*
X4839993Y25304406D01*
X4528721Y25309547D01*
X4291907Y25317404D01*
X4119385Y25333412D01*
X4000991Y25363007D01*
X3926559Y25411624D01*
X3885924Y25484700D01*
X3868921Y25587670D01*
X3865385Y25725969D01*
X1580528Y25725969D01*
X1579007Y25706023D01*
X1565571Y25410692D01*
X1557332Y25080909D01*
X1554269Y24732834D01*
X1556361Y24382626D01*
X1563588Y24046444D01*
X1575929Y23740448D01*
X1593362Y23480796D01*
X1615869Y23283648D01*
X1625268Y23230798D01*
X1713363Y22895824D01*
X1834022Y22606419D01*
X1992513Y22359945D01*
X2194104Y22153763D01*
X2444062Y21985234D01*
X2747654Y21851721D01*
X3110149Y21750584D01*
X3536813Y21679185D01*
X4032915Y21634886D01*
X4603722Y21615046D01*
X4854235Y21613369D01*
X5477347Y21625019D01*
X5477347Y21625019D01*
G37*
X5477347Y21625019D02*
X6022357Y21661067D01*
X6492743Y21723256D01*
X6891980Y21813330D01*
X7223548Y21933033D01*
X7490924Y22084109D01*
X7697584Y22268301D01*
X7847008Y22487353D01*
X7942671Y22743010D01*
X7988051Y23037014D01*
X7993000Y23187350D01*
X7993000Y23476000D01*
X5664666Y23476000D01*
X5664666Y23313228D01*
X5653911Y23191817D01*
X5613524Y23105230D01*
X5531327Y23046729D01*
X5395140Y23009579D01*
X5192783Y22987041D01*
X5060435Y22979017D01*
X4719024Y22970440D01*
X4426790Y22981098D01*
X4193155Y23010017D01*
X4027539Y23056220D01*
X3963876Y23092526D01*
X3924113Y23131632D01*
X3896487Y23183841D01*
X3877958Y23265284D01*
X3865484Y23392092D01*
X3856026Y23580399D01*
X3852078Y23685744D01*
X3833622Y24203379D01*
X3963879Y24136021D01*
X4110417Y24071872D01*
X4279356Y24022512D01*
X4482658Y23986432D01*
X4732286Y23962119D01*
X5040202Y23948064D01*
X5418368Y23942755D01*
X5495333Y23942612D01*
X5778896Y23944679D01*
X6052704Y23950615D01*
X6298363Y23959727D01*
X6497477Y23971321D01*
X6631653Y23984704D01*
X6638333Y23985720D01*
X7035827Y24070786D01*
X7362622Y24191810D01*
X7626774Y24353676D01*
X7836342Y24561269D01*
X7993000Y24806825D01*
X8141166Y25097297D01*
X8141166Y25821232D01*
X8140224Y26091869D01*
X8136375Y26293345D01*
X8128086Y26441152D01*
X8113825Y26550784D01*
X8092060Y26637734D01*
X8061257Y26717497D01*
X8050051Y26742284D01*
X7881047Y27007259D01*
X7637449Y27232861D01*
X7319756Y27418827D01*
X6928465Y27564896D01*
X6464074Y27670805D01*
X6216110Y27707205D01*
X6057306Y27720594D01*
X5831213Y27731086D01*
X5554138Y27738685D01*
X5242391Y27743394D01*
X4912282Y27745216D01*
X4580119Y27744156D01*
X4262213Y27740216D01*
X3974871Y27733400D01*
X3734404Y27723713D01*
X3557120Y27711156D01*
X3517053Y27706619D01*
X3054002Y27622091D01*
X2662327Y27496177D01*
X2337590Y27325184D01*
X2075353Y27105416D01*
X1871177Y26833178D01*
X1720624Y26504776D01*
X1621551Y26128693D01*
X1597660Y25950743D01*
X1580528Y25725969D01*
X3865385Y25725969D01*
X3865500Y25825500D01*
X3871834Y26034184D01*
X3896723Y26175385D01*
X3948995Y26265723D01*
X4037476Y26321822D01*
X4146567Y26354722D01*
X4262449Y26370663D01*
X4441145Y26381980D01*
X4660926Y26388654D01*
X4900066Y26390666D01*
X5136835Y26387997D01*
X5349507Y26380629D01*
X5516354Y26368542D01*
X5600033Y26355983D01*
X5725013Y26315537D01*
X5806296Y26252617D01*
X5852679Y26150690D01*
X5872957Y25993219D01*
X5876333Y25836651D01*
X5873566Y25663878D01*
X5861399Y25551772D01*
X5834030Y25476407D01*
X5785659Y25413861D01*
X5769914Y25397732D01*
X5663495Y25291313D01*
X4839993Y25304406D01*
X4528721Y25309547D01*
X4291907Y25317404D01*
X4119385Y25333412D01*
X4000991Y25363007D01*
X3926559Y25411624D01*
X3885924Y25484700D01*
X3868921Y25587670D01*
X3865385Y25725969D01*
X1580528Y25725969D01*
X1579007Y25706023D01*
X1565571Y25410692D01*
X1557332Y25080909D01*
X1554269Y24732834D01*
X1556361Y24382626D01*
X1563588Y24046444D01*
X1575929Y23740448D01*
X1593362Y23480796D01*
X1615869Y23283648D01*
X1625268Y23230798D01*
X1713363Y22895824D01*
X1834022Y22606419D01*
X1992513Y22359945D01*
X2194104Y22153763D01*
X2444062Y21985234D01*
X2747654Y21851721D01*
X3110149Y21750584D01*
X3536813Y21679185D01*
X4032915Y21634886D01*
X4603722Y21615046D01*
X4854235Y21613369D01*
X5477347Y21625019D01*
G36*
X-11981822Y21130366D02*
G01*
X-11707570Y21147011D01*
X-11486743Y21178665D01*
X-11469750Y21182418D01*
X-11226334Y21238336D01*
X-11226334Y22170196D01*
X-11227702Y22439651D01*
X-11231536Y22677114D01*
X-11237424Y22870781D01*
X-11244958Y23008845D01*
X-11253730Y23079501D01*
X-11258084Y23086108D01*
X-11604064Y22932095D01*
X-11913368Y22839534D01*
X-12203547Y22804857D01*
X-12492154Y22824493D01*
X-12521181Y22829234D01*
X-12899203Y22935207D01*
X-13240042Y23117243D01*
X-13515172Y23346289D01*
X-13759954Y23645817D01*
X-13930966Y23973369D01*
X-14029959Y24318692D01*
X-14058684Y24671535D01*
X-14018890Y25021645D01*
X-13912329Y25358768D01*
X-13740752Y25672654D01*
X-13505908Y25953048D01*
X-13209548Y26189698D01*
X-13010362Y26302774D01*
X-12866264Y26372111D01*
X-12753078Y26417422D01*
X-12645337Y26443812D01*
X-12517571Y26456384D01*
X-12344314Y26460242D01*
X-12223363Y26460500D01*
X-12008096Y26458464D01*
X-11853088Y26449719D01*
X-11733978Y26430303D01*
X-11626403Y26396260D01*
X-11506968Y26344083D01*
X-11377286Y26284408D01*
X-11281678Y26242420D01*
X-11242385Y26227667D01*
X-11237756Y26268001D01*
X-11233651Y26381013D01*
X-11230271Y26554711D01*
X-11227821Y26777108D01*
X-11226504Y27036212D01*
X-11226334Y27173637D01*
X-11226334Y28119607D01*
X-11545037Y28189637D01*
X-11801915Y28229219D01*
X-12106155Y28250190D01*
X-12422365Y28251836D01*
X-12715156Y28233440D01*
X-12845279Y28215907D01*
X-13333705Y28093218D01*
X-13804454Y27896998D01*
X-14247146Y27635616D01*
X-14651400Y27317443D01*
X-15006836Y26950850D01*
X-15303074Y26544208D01*
X-15529732Y26105887D01*
X-15561988Y26025191D01*
X-15714975Y25510262D01*
X-15791983Y24974575D01*
X-15792895Y24432751D01*
X-15717596Y23899411D01*
X-15582703Y23433667D01*
X-15373753Y22984232D01*
X-15092402Y22562103D01*
X-14748938Y22176393D01*
X-14353648Y21836216D01*
X-13916821Y21550685D01*
X-13448744Y21328915D01*
X-13067834Y21205869D01*
X-12852507Y21166481D01*
X-12581554Y21140501D01*
X-12282238Y21128329D01*
X-11981822Y21130366D01*
X-11981822Y21130366D01*
G37*
X-11981822Y21130366D02*
X-11707570Y21147011D01*
X-11486743Y21178665D01*
X-11469750Y21182418D01*
X-11226334Y21238336D01*
X-11226334Y22170196D01*
X-11227702Y22439651D01*
X-11231536Y22677114D01*
X-11237424Y22870781D01*
X-11244958Y23008845D01*
X-11253730Y23079501D01*
X-11258084Y23086108D01*
X-11604064Y22932095D01*
X-11913368Y22839534D01*
X-12203547Y22804857D01*
X-12492154Y22824493D01*
X-12521181Y22829234D01*
X-12899203Y22935207D01*
X-13240042Y23117243D01*
X-13515172Y23346289D01*
X-13759954Y23645817D01*
X-13930966Y23973369D01*
X-14029959Y24318692D01*
X-14058684Y24671535D01*
X-14018890Y25021645D01*
X-13912329Y25358768D01*
X-13740752Y25672654D01*
X-13505908Y25953048D01*
X-13209548Y26189698D01*
X-13010362Y26302774D01*
X-12866264Y26372111D01*
X-12753078Y26417422D01*
X-12645337Y26443812D01*
X-12517571Y26456384D01*
X-12344314Y26460242D01*
X-12223363Y26460500D01*
X-12008096Y26458464D01*
X-11853088Y26449719D01*
X-11733978Y26430303D01*
X-11626403Y26396260D01*
X-11506968Y26344083D01*
X-11377286Y26284408D01*
X-11281678Y26242420D01*
X-11242385Y26227667D01*
X-11237756Y26268001D01*
X-11233651Y26381013D01*
X-11230271Y26554711D01*
X-11227821Y26777108D01*
X-11226504Y27036212D01*
X-11226334Y27173637D01*
X-11226334Y28119607D01*
X-11545037Y28189637D01*
X-11801915Y28229219D01*
X-12106155Y28250190D01*
X-12422365Y28251836D01*
X-12715156Y28233440D01*
X-12845279Y28215907D01*
X-13333705Y28093218D01*
X-13804454Y27896998D01*
X-14247146Y27635616D01*
X-14651400Y27317443D01*
X-15006836Y26950850D01*
X-15303074Y26544208D01*
X-15529732Y26105887D01*
X-15561988Y26025191D01*
X-15714975Y25510262D01*
X-15791983Y24974575D01*
X-15792895Y24432751D01*
X-15717596Y23899411D01*
X-15582703Y23433667D01*
X-15373753Y22984232D01*
X-15092402Y22562103D01*
X-14748938Y22176393D01*
X-14353648Y21836216D01*
X-13916821Y21550685D01*
X-13448744Y21328915D01*
X-13067834Y21205869D01*
X-12852507Y21166481D01*
X-12581554Y21140501D01*
X-12282238Y21128329D01*
X-11981822Y21130366D01*
D10*
X-12440857Y-119181000D02*
X-12369428Y-119145285D01*
X-12262285Y-119145285D01*
X-12155142Y-119181000D01*
X-12083714Y-119252428D01*
X-12048000Y-119323857D01*
X-12012285Y-119466714D01*
X-12012285Y-119573857D01*
X-12048000Y-119716714D01*
X-12083714Y-119788142D01*
X-12155142Y-119859571D01*
X-12262285Y-119895285D01*
X-12333714Y-119895285D01*
X-12440857Y-119859571D01*
X-12476571Y-119823857D01*
X-12476571Y-119573857D01*
X-12333714Y-119573857D01*
X-12798000Y-119895285D02*
X-12798000Y-119145285D01*
X-13083714Y-119145285D01*
X-13155142Y-119181000D01*
X-13190857Y-119216714D01*
X-13226571Y-119288142D01*
X-13226571Y-119395285D01*
X-13190857Y-119466714D01*
X-13155142Y-119502428D01*
X-13083714Y-119538142D01*
X-12798000Y-119538142D01*
X-13548000Y-119895285D02*
X-13548000Y-119145285D01*
X-14048000Y-119145285D02*
X-14190857Y-119145285D01*
X-14262285Y-119181000D01*
X-14333714Y-119252428D01*
X-14369428Y-119395285D01*
X-14369428Y-119645285D01*
X-14333714Y-119788142D01*
X-14262285Y-119859571D01*
X-14190857Y-119895285D01*
X-14048000Y-119895285D01*
X-13976571Y-119859571D01*
X-13905142Y-119788142D01*
X-13869428Y-119645285D01*
X-13869428Y-119395285D01*
X-13905142Y-119252428D01*
X-13976571Y-119181000D01*
X-14048000Y-119145285D01*
X-15083714Y-119895285D02*
X-14655142Y-119895285D01*
X-14869428Y-119895285D02*
X-14869428Y-119145285D01*
X-14798000Y-119252428D01*
X-14726571Y-119323857D01*
X-14655142Y-119359571D01*
X-12440857Y-125023000D02*
X-12369428Y-124987285D01*
X-12262285Y-124987285D01*
X-12155142Y-125023000D01*
X-12083714Y-125094428D01*
X-12048000Y-125165857D01*
X-12012285Y-125308714D01*
X-12012285Y-125415857D01*
X-12048000Y-125558714D01*
X-12083714Y-125630142D01*
X-12155142Y-125701571D01*
X-12262285Y-125737285D01*
X-12333714Y-125737285D01*
X-12440857Y-125701571D01*
X-12476571Y-125665857D01*
X-12476571Y-125415857D01*
X-12333714Y-125415857D01*
X-12798000Y-125737285D02*
X-12798000Y-124987285D01*
X-13083714Y-124987285D01*
X-13155142Y-125023000D01*
X-13190857Y-125058714D01*
X-13226571Y-125130142D01*
X-13226571Y-125237285D01*
X-13190857Y-125308714D01*
X-13155142Y-125344428D01*
X-13083714Y-125380142D01*
X-12798000Y-125380142D01*
X-13548000Y-125737285D02*
X-13548000Y-124987285D01*
X-14048000Y-124987285D02*
X-14190857Y-124987285D01*
X-14262285Y-125023000D01*
X-14333714Y-125094428D01*
X-14369428Y-125237285D01*
X-14369428Y-125487285D01*
X-14333714Y-125630142D01*
X-14262285Y-125701571D01*
X-14190857Y-125737285D01*
X-14048000Y-125737285D01*
X-13976571Y-125701571D01*
X-13905142Y-125630142D01*
X-13869428Y-125487285D01*
X-13869428Y-125237285D01*
X-13905142Y-125094428D01*
X-13976571Y-125023000D01*
X-14048000Y-124987285D01*
X-14655142Y-125058714D02*
X-14690857Y-125023000D01*
X-14762285Y-124987285D01*
X-14940857Y-124987285D01*
X-15012285Y-125023000D01*
X-15048000Y-125058714D01*
X-15083714Y-125130142D01*
X-15083714Y-125201571D01*
X-15048000Y-125308714D01*
X-14619428Y-125737285D01*
X-15083714Y-125737285D01*
X-16592142Y-125701571D02*
X-16699285Y-125737285D01*
X-16877857Y-125737285D01*
X-16949285Y-125701571D01*
X-16985000Y-125665857D01*
X-17020714Y-125594428D01*
X-17020714Y-125523000D01*
X-16985000Y-125451571D01*
X-16949285Y-125415857D01*
X-16877857Y-125380142D01*
X-16735000Y-125344428D01*
X-16663571Y-125308714D01*
X-16627857Y-125273000D01*
X-16592142Y-125201571D01*
X-16592142Y-125130142D01*
X-16627857Y-125058714D01*
X-16663571Y-125023000D01*
X-16735000Y-124987285D01*
X-16913571Y-124987285D01*
X-17020714Y-125023000D01*
X-17770714Y-125665857D02*
X-17735000Y-125701571D01*
X-17627857Y-125737285D01*
X-17556428Y-125737285D01*
X-17449285Y-125701571D01*
X-17377857Y-125630142D01*
X-17342142Y-125558714D01*
X-17306428Y-125415857D01*
X-17306428Y-125308714D01*
X-17342142Y-125165857D01*
X-17377857Y-125094428D01*
X-17449285Y-125023000D01*
X-17556428Y-124987285D01*
X-17627857Y-124987285D01*
X-17735000Y-125023000D01*
X-17770714Y-125058714D01*
X-18449285Y-125737285D02*
X-18092142Y-125737285D01*
X-18092142Y-124987285D01*
X-16574285Y-119859571D02*
X-16681428Y-119895285D01*
X-16860000Y-119895285D01*
X-16931428Y-119859571D01*
X-16967142Y-119823857D01*
X-17002857Y-119752428D01*
X-17002857Y-119681000D01*
X-16967142Y-119609571D01*
X-16931428Y-119573857D01*
X-16860000Y-119538142D01*
X-16717142Y-119502428D01*
X-16645714Y-119466714D01*
X-16610000Y-119431000D01*
X-16574285Y-119359571D01*
X-16574285Y-119288142D01*
X-16610000Y-119216714D01*
X-16645714Y-119181000D01*
X-16717142Y-119145285D01*
X-16895714Y-119145285D01*
X-17002857Y-119181000D01*
X-17324285Y-119895285D02*
X-17324285Y-119145285D01*
X-17502857Y-119145285D01*
X-17610000Y-119181000D01*
X-17681428Y-119252428D01*
X-17717142Y-119323857D01*
X-17752857Y-119466714D01*
X-17752857Y-119573857D01*
X-17717142Y-119716714D01*
X-17681428Y-119788142D01*
X-17610000Y-119859571D01*
X-17502857Y-119895285D01*
X-17324285Y-119895285D01*
X-18038571Y-119681000D02*
X-18395714Y-119681000D01*
X-17967142Y-119895285D02*
X-18217142Y-119145285D01*
X-18467142Y-119895285D01*
X-19453571Y-125023000D02*
X-19382142Y-124987285D01*
X-19275000Y-124987285D01*
X-19167857Y-125023000D01*
X-19096428Y-125094428D01*
X-19060714Y-125165857D01*
X-19025000Y-125308714D01*
X-19025000Y-125415857D01*
X-19060714Y-125558714D01*
X-19096428Y-125630142D01*
X-19167857Y-125701571D01*
X-19275000Y-125737285D01*
X-19346428Y-125737285D01*
X-19453571Y-125701571D01*
X-19489285Y-125665857D01*
X-19489285Y-125415857D01*
X-19346428Y-125415857D01*
X-19810714Y-125737285D02*
X-19810714Y-124987285D01*
X-20239285Y-125737285D01*
X-20239285Y-124987285D01*
X-20596428Y-125737285D02*
X-20596428Y-124987285D01*
X-20775000Y-124987285D01*
X-20882142Y-125023000D01*
X-20953571Y-125094428D01*
X-20989285Y-125165857D01*
X-21025000Y-125308714D01*
X-21025000Y-125415857D01*
X-20989285Y-125558714D01*
X-20953571Y-125630142D01*
X-20882142Y-125701571D01*
X-20775000Y-125737285D01*
X-20596428Y-125737285D01*
X-19096428Y-119145285D02*
X-19560714Y-119145285D01*
X-19310714Y-119431000D01*
X-19417857Y-119431000D01*
X-19489285Y-119466714D01*
X-19525000Y-119502428D01*
X-19560714Y-119573857D01*
X-19560714Y-119752428D01*
X-19525000Y-119823857D01*
X-19489285Y-119859571D01*
X-19417857Y-119895285D01*
X-19203571Y-119895285D01*
X-19132142Y-119859571D01*
X-19096428Y-119823857D01*
X-19775000Y-119145285D02*
X-20025000Y-119895285D01*
X-20275000Y-119145285D01*
X-20453571Y-119145285D02*
X-20917857Y-119145285D01*
X-20667857Y-119431000D01*
X-20775000Y-119431000D01*
X-20846428Y-119466714D01*
X-20882142Y-119502428D01*
X-20917857Y-119573857D01*
X-20917857Y-119752428D01*
X-20882142Y-119823857D01*
X-20846428Y-119859571D01*
X-20775000Y-119895285D01*
X-20560714Y-119895285D01*
X-20489285Y-119859571D01*
X-20453571Y-119823857D01*
M02*
