M48
; DRILL file {KiCad (5.1.2-1)-1} date Monday, May 18, 2020 at 10:02:25 PM
; FORMAT={-:-/ absolute / inch / decimal}
; #@! TF.CreationDate,2020-05-18T22:02:25-05:00
; #@! TF.GenerationSoftware,Kicad,Pcbnew,(5.1.2-1)-1
; #@! TF.FileFunction,Plated,1,2,PTH
FMAT,2
INCH
T1C0.0138
T2C0.0157
T3C0.0197
T4C0.0394
T5C0.0400
T6C0.0433
T7C0.0472
T8C0.0866
%
G90
G05
T1
X-1.6116Y0.8091
X-1.6096Y-1.4803
X-1.6037Y-1.0433
X-1.5506Y-1.6181
X-1.4817Y-1.3524
X-1.4817Y-1.5787
X-1.4817Y-3.1417
X-1.4817Y-3.7717
X-1.4817Y-4.4232
X-1.4665Y-2.2323
X-1.4423Y-1.5787
X-1.4385Y-4.4832
X-1.4376Y-2.3268
X-1.403Y-1.6575
X-1.3917Y-3.0492
X-1.3917Y-3.0492
X-1.3917Y-3.1752
X-1.3917Y-3.1752
X-1.3892Y-3.9823
X-1.3007Y-2.846
X-1.3007Y-3.7288
X-1.2756Y-0.811
X-1.275Y-4.4232
X-1.275Y-4.7677
X-1.248Y-0.6496
X-1.2278Y-4.1422
X-1.2263Y-3.9847
X-1.2205Y-0.5512
X-1.1929Y-0.4488
X-1.1654Y-0.0512
X-1.1654Y-2.0394
X-1.165Y-3.1776
X-1.1575Y-2.7067
X-1.1339Y-0.1496
X-1.1339Y-2.0118
X-1.1333Y-2.1148
X-1.1175Y-4.0256
X-1.1138Y-3.1776
X-1.1096Y-4.1516
X-1.1082Y-3.8932
X-1.0626Y-3.1776
X-1.0531Y-1.9252
X-1.0531Y-2.1791
X-1.0512Y-2.7067
X-1.0368Y-3.7717
X-1.0114Y-3.1776
X-1.0039Y-1.9252
X-0.9778Y0.498
X-0.9719Y-4.0256
X-0.9714Y-4.1865
X-0.9646Y-3.1083
X-0.9642Y-3.1776
X-0.9634Y-1.0315
X-0.9625Y-1.2761
X-0.96Y-1.5787
X-0.96Y-1.6575
X-0.9547Y-1.9252
X-0.9167Y-2.1136
X-0.9139Y-3.7288
X-0.9134Y-3.0827
X-0.913Y-3.1776
X-0.9055Y-1.9252
X-0.8996Y-2.3583
X-0.8996Y-2.5748
X-0.878Y-2.8858
X-0.8622Y-3.0157
X-0.8618Y-3.1776
X-0.8563Y-1.9252
X-0.838Y-2.1791
X-0.8301Y-4.0256
X-0.8301Y-4.1516
X-0.8106Y-3.1776
X-0.8071Y-1.9252
X-0.7992Y-2.8858
X-0.7992Y-3.0157
X-0.7868Y-4.6398
X-0.7756Y-4.1496
X-0.7755Y-4.0812
X-0.7717Y-3.7717
X-0.7671Y-2.3583
X-0.7652Y-2.5748
X-0.7646Y-0.5559
X-0.7638Y-0.3681
X-0.7638Y-3.5433
X-0.7634Y-3.3661
X-0.7579Y-1.9252
X-0.7258Y-2.1156
X-0.7165Y-2.8819
X-0.7165Y-3.0827
X-0.7165Y-3.9567
X-0.7126Y-3.7008
X-0.7126Y-4.248
X-0.7122Y-3.3307
X-0.7087Y-1.9252
X-0.6631Y-3.2975
X-0.6516Y-2.0807
X-0.6496Y-3.7008
X-0.6496Y-4.0433
X-0.6417Y-2.8819
X-0.6417Y-3.1083
X-0.622Y-2.1791
X-0.6122Y-3.6713
X-0.6096Y-2.3583
X-0.6077Y-2.5748
X-0.6068Y-2.0113
X-0.6009Y-4.155
X-0.5906Y-4.315
X-0.5866Y0.3504
X-0.578Y-2.0394
X-0.563Y-3.5394
X-0.563Y-3.7008
X-0.5496Y-3.8283
X-0.5496Y-4.0299
X-0.5496Y-4.0764
X-0.5374Y0.25
X-0.4878Y0.15
X-0.439Y0.0502
X-0.4291Y-3.2795
X-0.4291Y-3.5079
X-0.4142Y-3.9283
X-0.4142Y-4.3157
X-0.4016Y-2.1791
X-0.3896Y-0.05
X-0.3858Y-3.9961
X-0.3858Y-4.3701
X-0.3543Y-4.1299
X-0.3543Y-4.4094
X-0.3524Y-2.315
X-0.3524Y-2.315
X-0.3524Y-2.4016
X-0.35Y-3.8783
X-0.35Y-4.0783
X-0.34Y-0.15
X-0.2913Y-0.25
X-0.2878Y-3.7717
X-0.2878Y-4.2122
X-0.2421Y-0.3061
X-0.1811Y-3.1929
X-0.1654Y-3.5079
X-0.1628Y-4.8268
X-0.1628Y-4.9449
X-0.0939Y-4.7028
X-0.0472Y-3.189
X-0.0427Y-4.187
X-0.0197Y-3.6713
X-0.0152Y-3.7894
X-0.0152Y-4.3839
X-0.0151Y-4.2815
X0.0197Y-3.7008
X0.0203Y-4.6397
X0.0203Y-4.8563
X0.0557Y-3.8327
X0.0557Y-4.0846
X0.1817Y-4.8957
X0.1817Y-4.935
X0.2374Y-3.9854
X0.3091Y-2.5709
X0.311Y-2.3583
X0.311Y-2.3583
X0.3307Y-2.8819
X0.3307Y-3.4606
X0.3392Y-3.9587
X0.3661Y-3.4606
X0.3858Y-3.622
X0.3858Y-4.0157
X0.3898Y-4.185
X0.4094Y-2.8819
X0.4094Y-3.3642
X0.415Y-4.8169
X0.437Y-3.3346
X0.4374Y-3.9563
X0.4376Y-4.6555
X0.4435Y-2.3563
X0.4435Y-2.5728
X0.4528Y-3.5866
X0.4528Y-3.5866
X0.4646Y-3.3031
X0.4761Y-4.7865
X0.4882Y-3.9803
X0.4882Y-4.0827
X0.4921Y-2.878
X0.5122Y-3.1102
X0.5122Y-3.1736
X0.515Y-3.5406
X0.5157Y-3.4587
X0.563Y-3.0787
X0.5634Y-3.1736
X0.5642Y-3.4587
X0.5642Y-3.5382
X0.5669Y-2.878
X0.5852Y-4.8169
X0.5867Y-4.7495
X0.601Y-2.3563
X0.601Y-2.5728
X0.6142Y-3.0472
X0.6146Y-3.1736
X0.615Y-3.4587
X0.615Y-3.5386
X0.6398Y-4.3012
X0.6398Y-4.3012
X0.6457Y-2.8819
X0.6642Y-3.5335
X0.6646Y-3.4606
X0.6654Y-3.0157
X0.6657Y-3.1736
X0.689Y-4.0846
X0.713Y-2.9843
X0.713Y-3.1736
X0.7244Y-2.8819
X0.7244Y-2.939
X0.7328Y-4.748
X0.7374Y-4.361
X0.7585Y-2.3563
X0.7585Y-2.5728
X0.7624Y-4.6004
X0.7642Y-3.1736
X0.7776Y0.4508
X0.7776Y-1.9252
X0.7894Y-3.6713
X0.8071Y-2.878
X0.815Y-2.9409
X0.815Y-3.3642
X0.8154Y-3.1736
X0.8154Y-3.5398
X0.8274Y-1.9252
X0.8276Y0.55
X0.8622Y-3.3346
X0.8626Y-3.1736
X0.8626Y-3.5398
X0.876Y-1.9252
X0.8764Y0.65
X0.8819Y-2.878
X0.8819Y-2.9843
X0.8858Y-3.7008
X0.8858Y-4.0846
X0.9066Y-4.8465
X0.9134Y-3.3307
X0.9134Y-3.5433
X0.9138Y-3.2953
X0.9159Y-2.3563
X0.9159Y-2.5728
X0.9252Y0.75
X0.9252Y-1.9252
X0.9396Y-4.6004
X0.9528Y-3.5039
X0.9646Y-2.8819
X0.9646Y-3.0157
X0.9646Y-3.0157
X0.965Y-3.2953
X0.9685Y-0.3622
X0.9986Y-4.7677
X1.0142Y-3.3307
X1.0157Y-3.5039
X1.0177Y-0.4075
X1.0433Y-2.8819
X1.0433Y-3.0472
X1.061Y-3.6713
X1.0669Y-0.4528
X1.0793Y-2.3563
X1.0793Y-2.5728
X1.1102Y-3.7008
X1.1108Y-4.6004
X1.1108Y-4.7028
X1.1161Y-0.4961
X1.126Y-2.878
X1.126Y-3.0787
X1.162Y-4.7264
X1.1654Y-0.5394
X1.1713Y-1.9252
X1.1896Y-4.7579
X1.2008Y-2.878
X1.2008Y-3.1102
X1.2156Y-0.58
X1.2205Y-1.9252
X1.2348Y-4.0098
X1.2368Y-2.3563
X1.2368Y-2.5728
X1.248Y-3.2795
X1.248Y-3.5354
X1.2697Y-1.9252
X1.2795Y-2.8819
X1.2835Y-3.3661
X1.3189Y-1.9252
X1.3346Y-1.0354
X1.3371Y-4.1398
X1.3392Y-4.7677
X1.3431Y-3.9705
X1.3583Y-2.8819
X1.3583Y-3.3937
X1.3681Y-1.9252
X1.3943Y-2.3563
X1.3943Y-2.5728
X1.4173Y-1.9252
X1.4317Y-4.6004
X1.437Y-3.5354
X1.4409Y-2.878
X1.4409Y-3.4213
X1.4927Y-4.0098
X1.4927Y-4.6792
X1.5124Y-4.7106
X1.5157Y-2.878
X1.5161Y-3.4606
X1.54Y-3.9705
X1.5518Y-2.3563
X1.5518Y-2.5728
X1.5872Y-0.75
X1.5872Y-4.6319
X1.6148Y-1.6201
X1.6148Y-4.1398
T2
X-1.3882Y-4.0561
X-1.3498Y-4.0177
X-1.09Y-3.9285
X-1.0821Y-4.1004
X-1.5413Y-4.8228
X-1.5223Y-4.7769
X-1.5223Y-4.8688
X-1.4764Y-4.7579
X-1.4764Y-4.8878
X-1.4304Y-4.7769
X-1.4304Y-4.8688
X-1.4114Y-4.8228
X1.4114Y-4.8228
X1.4304Y-4.7769
X1.4304Y-4.8688
X1.4764Y-4.7579
X1.4764Y-4.8878
X1.5223Y-4.7769
X1.5223Y-4.8688
X1.5413Y-4.8228
T3
X1.0374Y-4.1339
X1.1874Y-4.1339
T4
X-1.5506Y-2.7488
X-1.5506Y-2.8488
X-1.5506Y-2.9488
X-1.5506Y-3.0488
X-1.5506Y-3.1488
X-1.5506Y-3.2488
X-1.5506Y-3.3488
X-1.5506Y-3.4488
X1.4Y0.75
X1.4Y0.65
X1.4Y0.55
X1.4Y0.45
X1.4Y0.35
X1.4Y0.25
X1.4Y0.15
X1.4Y0.05
X1.4Y-0.05
X1.4Y-0.15
X1.4Y-0.25
X1.4Y-0.35
X1.4Y-0.45
X1.4Y-0.55
X1.4Y-0.65
X1.4Y-0.75
X-0.15Y-2.6378
X-0.05Y-2.6378
X0.05Y-2.6378
X0.15Y-2.6378
X-0.0939Y-3.7854
X-0.0939Y-3.8854
X-0.0939Y-3.9854
X-0.0939Y-4.0854
X-0.0939Y-4.1854
X-0.0939Y-4.2854
X-0.0939Y-4.3854
X-0.0939Y-4.4854
X-1.3774Y-4.3484
X-1.2774Y-4.3484
X-1.1774Y-4.3484
X-1.0774Y-4.3484
X-0.9774Y-4.3484
X-0.8774Y-4.3484
X-0.7774Y-4.3484
X-0.6774Y-4.3484
X-1.4Y0.75
X-1.4Y0.65
X-1.4Y0.55
X-1.4Y0.45
X-1.4Y0.35
X-1.4Y0.25
X-1.4Y0.15
X-1.4Y0.05
X-1.4Y-0.05
X-1.4Y-0.15
X-1.4Y-0.25
X-1.4Y-0.35
X-1.4Y-0.45
X-1.4Y-0.55
X-1.4Y-0.65
X-1.4Y-0.75
X-0.9797Y1.113
X-0.9797Y1.013
X-1.5506Y-1.8138
X-1.5506Y-1.9138
X-1.5506Y-2.0138
X-1.5506Y-2.1138
X-1.5506Y-2.2138
X-1.5506Y-2.3138
X-1.5506Y-2.4138
X-1.5506Y-2.5138
T5
X-0.786Y-4.7677
X-0.786Y-4.8677
X-0.686Y-4.7677
X-0.686Y-4.8677
X-0.586Y-4.7677
X-0.586Y-4.8677
T6
X0.1374Y-3.8339
X0.1374Y-3.9339
X0.1374Y-4.0339
X0.1374Y-4.1339
X0.1374Y-4.2339
X0.1374Y-4.3339
X0.1374Y-4.4339
X0.2374Y-3.8339
X0.2374Y-4.1339
X0.2374Y-4.2339
X0.2374Y-4.4339
X0.3374Y-3.8339
X0.3374Y-4.1339
X0.3374Y-4.2339
X0.3374Y-4.4339
X0.4374Y-3.8339
X0.4374Y-4.1339
X0.4374Y-4.2339
X0.4374Y-4.4339
X0.5374Y-3.8339
X0.5374Y-4.1339
X0.5374Y-4.2339
X0.5374Y-4.4339
X0.6374Y-3.8339
X0.6374Y-4.1339
X0.6374Y-4.2339
X0.6374Y-4.4339
X0.7374Y-3.8339
X0.7374Y-4.1339
X0.7374Y-4.2339
X0.7374Y-4.4339
X0.8374Y-3.8339
X0.8374Y-4.1339
X0.8374Y-4.2339
X0.8374Y-4.4339
X0.9374Y-3.8339
X0.9374Y-4.3339
X0.9374Y-4.4339
X1.0374Y-3.8339
X1.0374Y-4.3339
X1.0374Y-4.4339
X1.1374Y-3.8339
X1.1374Y-4.3339
X1.1374Y-4.4339
X1.2374Y-3.8339
X1.2374Y-4.4339
X1.3374Y-3.8339
X1.3374Y-4.3339
X1.3374Y-4.4339
X1.4374Y-3.8339
X1.4374Y-4.4339
T7
X-0.998Y-0.4559
X-0.998Y-0.5559
X-0.998Y-0.6559
X-0.998Y-0.7559
X-0.998Y-0.8559
X-0.998Y-0.9559
X-0.898Y-0.4559
X-0.898Y-0.5559
X-0.898Y-0.6559
X-0.898Y-0.7559
X-0.898Y-0.8559
X-0.898Y-0.9559
T8
X-1.4764Y-4.8228
X1.4764Y-4.8228
T0
M30
