<?xml version="1.0" encoding="UTF-8" standalone="no"?>
<svg
   xmlns:dc="http://purl.org/dc/elements/1.1/"
   xmlns:cc="http://creativecommons.org/ns#"
   xmlns:rdf="http://www.w3.org/1999/02/22-rdf-syntax-ns#"
   xmlns:svg="http://www.w3.org/2000/svg"
   xmlns="http://www.w3.org/2000/svg"
   xmlns:sodipodi="http://sodipodi.sourceforge.net/DTD/sodipodi-0.dtd"
   xmlns:inkscape="http://www.inkscape.org/namespaces/inkscape"
   inkscape:version="1.0 (4035a4f, 2020-05-01)"
   sodipodi:docname="1_Mode-+Set Buttons (4mm).svg"
   xml:space="preserve"
   id="Ebene_1"
   viewBox="0 0 196.8504 39.370079"
   height="10mm"
   width="50mm"
   version="1.1"
   inkscape:export-filename="/Users/ageppert/Desktop/Core 64 Hotkeys.png"
   inkscape:export-xdpi="1000"
   inkscape:export-ydpi="1000"><metadata
   id="metadata845"><rdf:RDF><cc:Work
       rdf:about=""><dc:format>image/svg+xml</dc:format><dc:type
         rdf:resource="http://purl.org/dc/dcmitype/StillImage" /><dc:title /></cc:Work></rdf:RDF></metadata><sodipodi:namedview
   scale-x="100"
   inkscape:document-units="mm"
   units="mm"
   inkscape:current-layer="layer3"
   inkscape:window-maximized="0"
   inkscape:window-y="23"
   inkscape:window-x="0"
   inkscape:cy="110.59793"
   inkscape:cx="88.441265"
   inkscape:zoom="4.2034123"
   showgrid="false"
   id="namedview843"
   inkscape:window-height="1112"
   inkscape:window-width="1920"
   inkscape:pageshadow="2"
   inkscape:pageopacity="0"
   guidetolerance="10"
   gridtolerance="10"
   objecttolerance="1"
   borderopacity="1"
   bordercolor="#666666"
   pagecolor="#ffffff"
   inkscape:document-rotation="0" /><defs
   id="defs21">
	
	
	
	
	
	
	
<clipPath
   clipPathUnits="userSpaceOnUse"
   id="clipPath853"><rect
     clip-path="none"
     y="73.730728"
     x="331.58353"
     height="43.177532"
     width="159.75511"
     id="rect855"
     style="fill:#ffffff;fill-opacity:0.101215;stroke:#000000;stroke-width:1.04702;stroke-miterlimit:4;stroke-dasharray:none;stroke-dashoffset:0;stroke-opacity:1" /></clipPath><clipPath
   clipPathUnits="userSpaceOnUse"
   id="clipPath857"><rect
     clip-path="none"
     y="73.730728"
     x="331.58353"
     height="43.177532"
     width="159.75511"
     id="rect859"
     style="fill:#ffffff;fill-opacity:0.101215;stroke:#000000;stroke-width:1.04702;stroke-miterlimit:4;stroke-dasharray:none;stroke-dashoffset:0;stroke-opacity:1" /></clipPath><clipPath
   clipPathUnits="userSpaceOnUse"
   id="clipPath861"><rect
     clip-path="none"
     y="73.730728"
     x="331.58353"
     height="43.177532"
     width="159.75511"
     id="rect863"
     style="fill:#ffffff;fill-opacity:0.101215;stroke:#000000;stroke-width:1.04702;stroke-miterlimit:4;stroke-dasharray:none;stroke-dashoffset:0;stroke-opacity:1" /></clipPath><clipPath
   clipPathUnits="userSpaceOnUse"
   id="clipPath926"><rect
     style="opacity:0.511111;fill:#ffffff;stroke:#ff0000;stroke-width:0.601929;stroke-miterlimit:4;stroke-dasharray:none"
     id="rect928"
     width="26.884592"
     height="16.041706"
     x="-17.545986"
     y="135.74718" /></clipPath><clipPath
   clipPathUnits="userSpaceOnUse"
   id="clipPath932"><rect
     style="opacity:0.511111;fill:#ffffff;stroke:#ff0000;stroke-width:0.802066;stroke-miterlimit:4;stroke-dasharray:none"
     id="rect934"
     width="15.962662"
     height="14.377091"
     x="13.932868"
     y="155.2263" /></clipPath><clipPath
   clipPathUnits="userSpaceOnUse"
   id="clipPath938"><rect
     style="opacity:0.511111;fill:#ffffff;stroke:#ff0000;stroke-width:0.787402;stroke-miterlimit:4;stroke-dasharray:none"
     id="rect940"
     width="11.436796"
     height="6.3978119"
     x="35.103039"
     y="180.55418" /></clipPath><clipPath
   clipPathUnits="userSpaceOnUse"
   id="clipPath944"><rect
     style="opacity:0.511111;fill:#ffffff;stroke:#ff0000;stroke-width:0.787402;stroke-miterlimit:4;stroke-dasharray:none"
     id="rect946"
     width="19.929468"
     height="17.438284"
     x="48.691311"
     y="192.21745" /></clipPath></defs>

<g
   inkscape:groupmode="layer"
   id="layer1"
   inkscape:label="Background"
   style="display:inline"><rect
     style="fill:#000000;fill-opacity:1;stroke:#000000;stroke-width:1;stroke-miterlimit:4;stroke-dasharray:none;stroke-dashoffset:0;stroke-opacity:1"
     id="rect2546"
     width="388.48657"
     height="103.45567"
     x="-55.444592"
     y="-18.892572" /></g><g
   inkscape:groupmode="layer"
   id="layer2"
   inkscape:label="Foreground"
   style="display:inline" /><g
   inkscape:groupmode="layer"
   id="layer4"
   inkscape:label="Alignment Layer"><rect
     style="display:inline;opacity:0.511111;fill:none;fill-opacity:1;stroke:#ff0000;stroke-width:0.787402;stroke-miterlimit:4;stroke-dasharray:none;stroke-opacity:1"
     id="rect849"
     width="19.669619"
     height="19.669619"
     x="54.348938"
     y="106.11002" /><circle
     style="opacity:0.511111;fill:#ffffff;stroke:#ff0000;stroke-width:0.908541;stroke-miterlimit:4;stroke-dasharray:none"
     id="path891"
     cx="24.806282"
     cy="115.06371"
     r="11.356753" /></g><g
   inkscape:groupmode="layer"
   id="layer3"
   inkscape:label="Text"><path
     style="display:inline;fill:#ffffff;fill-opacity:1;stroke-width:0.104121"
     d="m 62.844302,151.50304 c -1.684244,-0.1824 -2.717126,-0.48597 -3.282456,-0.96474 -0.787705,-0.66709 -1.113139,-1.62335 -1.068164,-3.1387 l 0.02957,-0.9965 2.13425,-0.0283 c 2.369985,-0.0314 2.395036,-0.0245 2.395036,0.65885 0,0.18177 0.09337,0.44919 0.207492,0.59426 0.368798,0.46886 0.967132,0.53803 4.686223,0.5418 3.993146,0.004 4.447191,-0.0564 4.720034,-0.62859 0.221724,-0.46496 0.221607,-1.0248 -3e-4,-1.40045 -0.260035,-0.4402 -0.802255,-0.53128 -3.730582,-0.62664 -3.966928,-0.12919 -6.913826,-0.29364 -7.548813,-0.42128 -1.75051,-0.35185 -2.548758,-1.29834 -2.734141,-3.24189 -0.06133,-0.64307 -0.05989,-1.39239 0.0039,-2.03349 0.265289,-2.66491 1.314997,-3.59317 4.344093,-3.84151 1.321185,-0.10832 8.282604,-0.10926 9.31888,-0.001 1.706486,0.17784 2.936364,0.58089 3.572512,1.17076 0.16037,0.1487 0.407256,0.52326 0.548639,0.83235 0.217985,0.47656 0.260623,0.74019 0.280534,1.73445 l 0.02351,1.17246 H 74.5605 72.376456 l -0.09086,-0.31236 c -0.333552,-1.14668 -0.305157,-1.13856 -4.119505,-1.17834 -3.618652,-0.0377 -4.464877,0.0456 -4.80098,0.47291 -0.230747,0.29334 -0.276472,0.91071 -0.09668,1.30531 0.230237,0.50531 0.263234,0.50879 7.59325,0.8005 2.739164,0.10901 3.810414,0.26244 4.712093,0.67487 1.113004,0.50911 1.56693,1.31154 1.718193,3.03736 0.184213,2.10174 -0.120041,3.76474 -0.838005,4.58039 -0.732397,0.83204 -1.331126,1.04715 -3.457787,1.24232 -1.97824,0.18156 -8.46017,0.17863 -10.151854,-0.005 z m -80.069485,-7.75301 v -7.70702 h 4.053962 c 3.8836748,0 4.5881296,0.0479 4.5881296,0.31187 0,0.0598 0.1929694,0.51783 0.4288203,1.01776 0.2358538,0.49994 0.5918686,1.26039 0.7911473,1.68989 0.6583918,1.41901 0.9386444,2.02158 1.3075326,2.81128 0.2006281,0.4295 0.4698995,1.01519 0.5983818,1.30152 0.1284854,0.28634 0.4148163,0.90806 0.6362944,1.38162 0.2214781,0.47355 0.4026866,0.89969 0.4026866,0.94698 0,0.0473 0.092732,0.16991 0.2060707,0.27248 0.1983371,0.17949 0.2087546,0.17912 0.2774848,-0.01 0.039277,-0.10801 0.297954,-0.68192 0.574839,-1.27535 0.2768851,-0.59344 0.503428,-1.09721 0.503428,-1.1195 0,-0.0223 0.2282461,-0.52071 0.5072153,-1.10759 0.2789661,-0.58688 0.6129584,-1.30132 0.7421995,-1.58766 0.129241,-0.28633 0.4342958,-0.9423 0.67790133,-1.4577 0.24359948,-0.5154 0.56923743,-1.21822 0.72363455,-1.56182 0.50241438,-1.1181 0.71046726,-1.49882 0.84786594,-1.55154 0.0742643,-0.0285 1.94298018,-0.0425 4.15269728,-0.031 3.4424761,0.0178 4.1983074,0.02 4.1983074,0.02 0,0 0.017477,3.2527 0.018442,7.77273 0.00135,6.70705 -0.015023,7.46596 -0.1631038,7.52278 -0.2354925,0.0904 -4.2372771,0.0753 -4.3765518,-0.0165 -0.084533,-0.0557 -0.095495,-1.57647 -0.040329,-5.59494 0.041666,-3.03514 0.053594,-5.57742 0.026511,-5.64949 -0.089651,-0.23857 -0.549082,-0.27796 -0.7559938,-0.0648 -0.1676304,0.17267 -1.414192,2.58601 -4.8743176,9.43667 l -0.9860569,1.95227 h -1.943692 -1.9436951 l -1.0192345,-2.00434 c -0.5605802,-1.10238 -1.8382848,-3.62082 -2.8393469,-5.59653 -1.001062,-1.9757 -1.893758,-3.67419 -1.98377,-3.77441 -0.189946,-0.21148 -0.601593,-0.24108 -0.723934,-0.0521 -0.04633,0.0716 -0.08424,2.66031 -0.08424,5.75272 v 5.62256 l -2.264643,0.0281 -2.264646,0.0281 z m 42.197129,6.57707 c -0.09476,-0.0602 -0.135577,-0.76037 -0.156181,-2.67953 l -0.02789,-2.59805 -3.045556,-0.0276 c -1.907522,-0.0173 -3.047112,-0.0659 -3.049721,-0.13015 -0.0024,-0.0564 -0.0042,-0.5711 -0.0042,-1.14376 0,-0.57267 0.0018,-1.13493 0.0042,-1.24946 0.004,-0.20319 0.07551,-0.20828 2.9456,-0.20984 1.61779,-9e-4 2.999163,-0.0383 3.069719,-0.0831 0.09476,-0.0602 0.135578,-0.76038 0.156185,-2.67954 l 0.02789,-2.59804 h 1.35358 1.353578 l 0.05206,2.65509 0.05206,2.6551 3.019524,0.0521 3.019527,0.0521 0.02948,1.24117 c 0.02192,0.92297 -0.0048,1.26292 -0.104121,1.32596 -0.07349,0.0466 -1.457254,0.0855 -3.075045,0.0864 l -2.941435,0.002 v 2.59938 c 0,2.46336 -0.01053,2.60501 -0.201398,2.70716 -0.233473,0.12495 -2.287383,0.1441 -2.477866,0.0231 z m 17.464144,-2.98737 c -0.156106,-0.18809 -0.09561,-2.70441 0.06897,-2.86899 0.062,-0.062 1.902763,-0.0898 4.831406,-0.073 l 4.731251,0.0271 v 1.50976 1.50976 l -4.749948,0.0271 c -4.151195,0.0237 -4.766556,0.007 -4.881682,-0.13166 z"
     id="path880"
     sodipodi:nodetypes="csscssssssssscscssccccsssssssssccccsssssssssssssssssscssssssscccsssssccccsscsssscsscccccccssscssssssscccss"
     clip-path="url(#clipPath926)"
     transform="translate(26.674005,-124.48386)" /><path
     sodipodi:nodetypes="csscssssssssscscssccccsssssssssccccsssssssssssssssssscssssssscccsssssccccsscsssscsscccccccssscssssssscccss"
     id="path880-5"
     d="m 58.515128,170.26595 c -1.684244,-0.1824 -2.717125,-0.48597 -3.282456,-0.96474 -0.787705,-0.66709 -1.113139,-1.62335 -1.068164,-3.1387 l 0.02957,-0.9965 2.13425,-0.0283 c 2.369985,-0.0314 2.395036,-0.0245 2.395036,0.65885 0,0.18177 0.09337,0.44919 0.207492,0.59426 0.368798,0.46886 0.967132,0.53803 4.686223,0.5418 3.993147,0.004 4.447191,-0.0564 4.720034,-0.62859 0.221724,-0.46496 0.221607,-1.0248 -3e-4,-1.40045 -0.260038,-0.4402 -0.802258,-0.53128 -3.730585,-0.62664 -3.966928,-0.12919 -6.913826,-0.29364 -7.548813,-0.42128 -1.75051,-0.35185 -2.548758,-1.29834 -2.73414,-3.24189 -0.06133,-0.64307 -0.05989,-1.39239 0.0039,-2.03349 0.265288,-2.66491 1.314996,-3.59317 4.344092,-3.84151 1.321185,-0.10832 8.282605,-0.10926 9.318881,-10e-4 1.706485,0.17784 2.936363,0.58089 3.572511,1.17076 0.16037,0.1487 0.407256,0.52326 0.54864,0.83235 0.217984,0.47656 0.260623,0.74019 0.280533,1.73445 l 0.02351,1.17246 h -2.184018 -2.184045 l -0.09086,-0.31236 c -0.333552,-1.14668 -0.305157,-1.13856 -4.119505,-1.17834 -3.618652,-0.0377 -4.464877,0.0456 -4.80098,0.47291 -0.230747,0.29334 -0.276472,0.91071 -0.09668,1.30531 0.230237,0.50531 0.263234,0.50879 7.59325,0.8005 2.739165,0.10901 3.810415,0.26244 4.712094,0.67487 1.113003,0.50911 1.566929,1.31154 1.718192,3.03736 0.184213,2.10174 -0.12004,3.76474 -0.838005,4.58039 -0.732397,0.83204 -1.331126,1.04715 -3.457786,1.24232 -1.978241,0.18156 -8.460171,0.17863 -10.151854,-0.005 z m -80.069485,-7.75301 v -7.70702 h 4.053962 c 3.883675,0 4.588129,0.0479 4.588129,0.31187 0,0.0598 0.19297,0.51783 0.428821,1.01776 0.235854,0.49994 0.591868,1.26039 0.791147,1.68989 0.658392,1.41901 0.938644,2.02158 1.307533,2.81128 0.200628,0.4295 0.4698996,1.01519 0.5983816,1.30152 0.128486,0.28634 0.4148159,0.90806 0.6362939,1.38162 0.221478,0.47355 0.402686,0.89969 0.402686,0.94698 0,0.0473 0.09273,0.16991 0.206071,0.27248 0.198338,0.17949 0.208755,0.17912 0.277486,-0.01 0.03927,-0.10801 0.297953,-0.68192 0.574838,-1.27535 0.276886,-0.59344 0.503428,-1.09721 0.503428,-1.1195 0,-0.0223 0.228246,-0.52071 0.507216,-1.10759 0.278965,-0.58688 0.612958,-1.30132 0.742199,-1.58766 0.12924,-0.28633 0.434296,-0.9423 0.677901,-1.4577 0.2436,-0.5154 0.569237,-1.21822 0.723635,-1.56182 0.502414,-1.1181 0.710467,-1.49882 0.847866,-1.55154 0.07426,-0.0285 1.94298,-0.0425 4.15269694,-0.031 3.44247606,0.0178 4.19830706,0.02 4.19830706,0.02 0,0 0.01748,3.2527 0.01844,7.77273 0.0014,6.70705 -0.01502,7.46596 -0.163105,7.52278 -0.235492,0.0904 -4.23727706,0.0753 -4.37655206,-0.0165 -0.08453,-0.0557 -0.09549,-1.57647 -0.04033,-5.59494 0.04167,-3.03514 0.05359,-5.57742 0.02651,-5.64949 -0.08964,-0.23857 -0.549071,-0.27796 -0.75598299,-0.0648 -0.16763,0.17267 -1.41419195,2.58601 -4.87431795,9.43667 l -0.986057,1.95227 h -1.943697 -1.9436935 l -1.019235,-2.00434 c -0.56058,-1.10238 -1.838285,-3.62082 -2.839347,-5.59653 -1.001062,-1.9757 -1.893758,-3.67419 -1.98377,-3.77441 -0.189946,-0.21148 -0.601593,-0.24108 -0.723934,-0.0521 -0.04633,0.0716 -0.08424,2.66031 -0.08424,5.75272 v 5.62256 l -2.264643,0.0281 -2.264646,0.0281 z m 42.197129,6.57707 c -0.09476,-0.0602 -0.135577,-0.76037 -0.156181,-2.67953 l -0.02789,-2.59805 -3.045557,-0.0276 c -1.907522,-0.0173 -3.047112,-0.0659 -3.049721,-0.13015 -0.0024,-0.0564 -0.0042,-0.5711 -0.0042,-1.14376 0,-0.57267 0.0018,-1.13493 0.0042,-1.24946 0.004,-0.20319 0.07551,-0.20828 2.9456,-0.20984 1.61779,-9e-4 2.999163,-0.0383 3.069719,-0.0831 0.09476,-0.0602 0.135578,-0.76038 0.156185,-2.67954 l 0.02789,-2.59804 h 1.353581 1.353578 l 0.05206,2.65509 0.05206,2.6551 3.019524,0.0521 3.019527,0.0521 0.02948,1.24117 c 0.02192,0.92297 -0.0048,1.26292 -0.104125,1.32596 -0.07349,0.0466 -1.457253,0.0855 -3.075045,0.0864 l -2.941434,0.002 v 2.59938 c 0,2.46336 -0.01053,2.60501 -0.201399,2.70716 -0.233473,0.12495 -2.287382,0.1441 -2.477866,0.0231 z m 17.464144,-2.98737 c -0.156106,-0.18809 -0.09561,-2.70441 0.06897,-2.86899 0.062,-0.062 1.902763,-0.0898 4.831406,-0.073 l 4.731251,0.0271 v 1.50976 1.50976 l -4.749948,0.0271 c -4.151195,0.0237 -4.766556,0.007 -4.881682,-0.13166 z"
     style="display:inline;fill:#ffffff;fill-opacity:1;stroke-width:0.104121"
     clip-path="url(#clipPath932)"
     transform="matrix(1.0953559,0,0,1.0953559,104.81729,-158.6177)" /><path
     sodipodi:nodetypes="csscssssssssscscssccccsssssssssccccsssssssssssssssssscssssssscccsssssccccsscsssscsscccccccssscssssssscccss"
     id="path880-3"
     d="m 56.263707,189.45663 c -1.684244,-0.1824 -2.717125,-0.48597 -3.282456,-0.96474 -0.787705,-0.66709 -1.113139,-1.62335 -1.068164,-3.1387 l 0.02957,-0.9965 2.13425,-0.0283 c 2.369985,-0.0314 2.395036,-0.0245 2.395036,0.65885 0,0.18177 0.09337,0.44919 0.207492,0.59426 0.368798,0.46886 0.967132,0.53803 4.686223,0.5418 3.993147,0.004 4.447191,-0.0564 4.720034,-0.62859 0.221724,-0.46496 0.221607,-1.0248 -3e-4,-1.40045 -0.260038,-0.4402 -0.802258,-0.53128 -3.730585,-0.62664 -3.966928,-0.12919 -6.913826,-0.29364 -7.548813,-0.42128 -1.75051,-0.35185 -2.548758,-1.29834 -2.73414,-3.24189 -0.06133,-0.64307 -0.05989,-1.39239 0.0039,-2.03349 0.265288,-2.66491 1.314996,-3.59317 4.344092,-3.84151 1.321185,-0.10832 8.282605,-0.10926 9.318881,-0.001 1.706485,0.17784 2.936363,0.58089 3.572511,1.17076 0.16037,0.1487 0.407256,0.52326 0.54864,0.83235 0.217984,0.47656 0.260623,0.74019 0.280533,1.73445 l 0.02351,1.17246 h -2.184018 -2.184045 l -0.09086,-0.31236 c -0.333552,-1.14668 -0.305157,-1.13856 -4.119505,-1.17834 -3.618652,-0.0377 -4.464877,0.0456 -4.80098,0.47291 -0.230747,0.29334 -0.276472,0.91071 -0.09668,1.30531 0.230237,0.50531 0.263234,0.50879 7.59325,0.8005 2.739165,0.10901 3.810415,0.26244 4.712094,0.67487 1.113003,0.50911 1.566929,1.31154 1.718192,3.03736 0.184213,2.10174 -0.12004,3.76474 -0.838005,4.58039 -0.732397,0.83204 -1.331126,1.04715 -3.457786,1.24232 -1.978241,0.18156 -8.460171,0.17863 -10.151854,-0.005 z m -80.069485,-7.75301 v -7.70702 h 4.053962 c 3.883675,0 4.588129,0.0479 4.588129,0.31187 0,0.0598 0.19297,0.51783 0.428821,1.01776 0.235854,0.49994 0.591868,1.26039 0.791147,1.68989 0.658392,1.41901 0.938644,2.02158 1.307533,2.81128 0.200628,0.4295 0.4699,1.01519 0.598382,1.30152 0.128486,0.28634 0.414816,0.90806 0.636294,1.38162 0.221478,0.47355 0.402686,0.89969 0.402686,0.94698 0,0.0473 0.09273,0.16991 0.206071,0.27248 0.198338,0.17949 0.208755,0.17912 0.277486,-0.01 0.03927,-0.10801 0.297953,-0.68192 0.5748377,-1.27535 0.276886,-0.59344 0.503428,-1.09721 0.503428,-1.1195 0,-0.0223 0.228246,-0.52071 0.507216,-1.10759 0.278965,-0.58688 0.612958,-1.30132 0.742199,-1.58766 0.12924,-0.28633 0.434296,-0.9423 0.677901,-1.4577 0.2436,-0.5154 0.569237,-1.21822 0.723635,-1.56182 0.502414,-1.1181 0.710467,-1.49882 0.847866,-1.55154 0.07426,-0.0285 1.94298,-0.0425 4.152697,-0.031 3.442476,0.0178 4.198307,0.02 4.198307,0.02 0,0 0.01748,3.2527 0.01844,7.77273 0.0014,6.70705 -0.01502,7.46596 -0.163105,7.52278 -0.235492,0.0904 -4.237277,0.0753 -4.376552,-0.0165 -0.08453,-0.0557 -0.09549,-1.57647 -0.04033,-5.59494 0.04167,-3.03514 0.05359,-5.57742 0.02651,-5.64949 -0.08964,-0.23857 -0.549071,-0.27796 -0.755983,-0.0648 -0.16763,0.17267 -1.414192,2.58601 -4.874318,9.43667 l -0.986057,1.95227 h -1.9436967 -1.943694 l -1.019235,-2.00434 c -0.560581,-1.10238 -1.838285,-3.62082 -2.839347,-5.59653 -1.001062,-1.9757 -1.893758,-3.67419 -1.98377,-3.77441 -0.189946,-0.21148 -0.601593,-0.24108 -0.723934,-0.0521 -0.04633,0.0716 -0.08424,2.66031 -0.08424,5.75272 v 5.62256 l -2.264643,0.0281 -2.264646,0.0281 z m 42.197129,6.57707 c -0.09476,-0.0602 -0.135577,-0.76037 -0.156181,-2.67953 l -0.02789,-2.59805 -3.045557,-0.0276 c -1.907522,-0.0173 -3.047112,-0.0659 -3.049721,-0.13015 -0.0024,-0.0564 -0.0042,-0.5711 -0.0042,-1.14376 0,-0.57267 0.0018,-1.13493 0.0042,-1.24946 0.004,-0.20319 0.07551,-0.20828 2.9456,-0.20984 1.61779,-9e-4 2.999163,-0.0383 3.069719,-0.0831 0.09476,-0.0602 0.135578,-0.76038 0.156185,-2.67954 l 0.02789,-2.59804 h 1.353581 1.353578 l 0.05206,2.65509 0.05206,2.6551 3.019524,0.0521 3.019527,0.0521 0.02948,1.24117 c 0.02192,0.92297 -0.0048,1.26292 -0.104125,1.32596 -0.07349,0.0466 -1.457253,0.0855 -3.075045,0.0864 l -2.941434,0.002 v 2.59938 c 0,2.46336 -0.01053,2.60501 -0.201399,2.70716 -0.233473,0.12495 -2.287382,0.1441 -2.477866,0.0231 z m 17.464144,-2.98737 c -0.156106,-0.18809 -0.09561,-2.70441 0.06897,-2.86899 0.062,-0.062 1.902763,-0.0898 4.831406,-0.073 l 4.731251,0.0271 v 1.50976 1.50976 l -4.749948,0.0271 c -4.151195,0.0237 -4.766556,0.007 -4.881682,-0.13166 z"
     style="display:inline;fill:#ffffff;fill-opacity:1;stroke-width:0.104121"
     clip-path="url(#clipPath938)"
     transform="matrix(1.4131071,0,0,1.4131071,18.367849,-240.37844)" /><path
     sodipodi:nodetypes="csscssssssssscscssccccsssssssssccccsssssssssssssssssscssssssscccsssssccccsscsssscsscccccccssscssssssscccss"
     id="path880-54"
     d="m 53.583444,208.96895 c -1.684244,-0.1824 -2.717125,-0.48597 -3.282456,-0.96474 -0.787705,-0.66709 -1.113139,-1.62335 -1.068164,-3.1387 l 0.02957,-0.9965 2.13425,-0.0283 c 2.369985,-0.0314 2.395036,-0.0245 2.395036,0.65885 0,0.18177 0.09337,0.44919 0.207492,0.59426 0.368798,0.46886 0.967132,0.53803 4.686223,0.5418 3.993147,0.004 4.447191,-0.0564 4.720034,-0.62859 0.221724,-0.46496 0.221607,-1.0248 -3e-4,-1.40045 -0.260038,-0.4402 -0.802258,-0.53128 -3.730585,-0.62664 -3.966928,-0.12919 -6.913826,-0.29364 -7.548813,-0.42128 -1.75051,-0.35185 -2.548758,-1.29834 -2.73414,-3.24189 -0.06133,-0.64307 -0.05989,-1.39239 0.0039,-2.03349 0.265288,-2.66491 1.314996,-3.59317 4.344092,-3.84151 1.321185,-0.10832 8.282605,-0.10926 9.318881,-0.001 1.706485,0.17784 2.936363,0.58089 3.572511,1.17076 0.16037,0.1487 0.407256,0.52326 0.54864,0.83235 0.217984,0.47656 0.260623,0.74019 0.280533,1.73445 l 0.02351,1.17246 H 65.29964 63.115595 l -0.09086,-0.31236 c -0.333552,-1.14668 -0.305157,-1.13856 -4.119505,-1.17834 -3.618652,-0.0377 -4.464877,0.0456 -4.80098,0.47291 -0.230747,0.29334 -0.276472,0.91071 -0.09668,1.30531 0.230237,0.50531 0.263234,0.50879 7.59325,0.8005 2.739165,0.10901 3.810415,0.26244 4.712094,0.67487 1.113003,0.50911 1.566929,1.31154 1.718192,3.03736 0.184213,2.10174 -0.12004,3.76474 -0.838005,4.58039 -0.732397,0.83204 -1.331126,1.04715 -3.457786,1.24232 -1.978241,0.18156 -8.460171,0.17863 -10.151854,-0.005 z m -80.069485,-7.75301 v -7.70702 h 4.053962 c 3.883675,0 4.588129,0.0479 4.588129,0.31187 0,0.0598 0.19297,0.51783 0.428821,1.01776 0.235854,0.49994 0.591868,1.26039 0.791147,1.68989 0.658392,1.41901 0.938644,2.02158 1.307533,2.81128 0.200628,0.4295 0.4699,1.01519 0.598382,1.30152 0.128486,0.28634 0.414816,0.90806 0.636294,1.38162 0.221478,0.47355 0.402686,0.89969 0.402686,0.94698 0,0.0473 0.09273,0.16991 0.206071,0.27248 0.198338,0.17949 0.208755,0.17912 0.277486,-0.01 0.03927,-0.10801 0.297953,-0.68192 0.574838,-1.27535 0.276886,-0.59344 0.503428,-1.09721 0.503428,-1.1195 0,-0.0223 0.228246,-0.52071 0.507216,-1.10759 0.278965,-0.58688 0.612958,-1.30132 0.742199,-1.58766 0.12924,-0.28633 0.434296,-0.9423 0.677901,-1.4577 0.2436002,-0.5154 0.5692372,-1.21822 0.7236352,-1.56182 0.502414,-1.1181 0.710467,-1.49882 0.847866,-1.55154 0.07426,-0.0285 1.9429798,-0.0425 4.1526968,-0.031 3.442476,0.0178 4.19830696,0.02 4.19830696,0.02 0,0 0.01748,3.2527 0.01844,7.77273 0.0014,6.70705 -0.01502,7.46596 -0.163105,7.52278 -0.235492,0.0904 -4.23727696,0.0753 -4.37655196,-0.0165 -0.08453,-0.0557 -0.09549,-1.57647 -0.04033,-5.59494 0.04167,-3.03514 0.05359,-5.57742 0.02651,-5.64949 -0.08964,-0.23857 -0.549071,-0.27796 -0.755983,-0.0648 -0.16763,0.17267 -1.414192,2.58601 -4.874318,9.43667 l -0.986057,1.95227 h -1.943697 -1.943694 l -1.019235,-2.00434 c -0.56058,-1.10238 -1.838285,-3.62082 -2.839347,-5.59653 -1.001062,-1.9757 -1.893758,-3.67419 -1.98377,-3.77441 -0.189946,-0.21148 -0.601593,-0.24108 -0.723934,-0.0521 -0.04633,0.0716 -0.08424,2.66031 -0.08424,5.75272 v 5.62256 l -2.264643,0.0281 -2.264646,0.0281 z m 42.197129,6.57707 c -0.09476,-0.0602 -0.135577,-0.76037 -0.156181,-2.67953 l -0.02789,-2.59805 -3.045557,-0.0276 c -1.907522,-0.0173 -3.047112,-0.0659 -3.049721,-0.13015 -0.0024,-0.0564 -0.0042,-0.5711 -0.0042,-1.14376 0,-0.57267 0.0018,-1.13493 0.0042,-1.24946 0.004,-0.20319 0.07551,-0.20828 2.9456,-0.20984 1.61779,-9e-4 2.999163,-0.0383 3.069719,-0.0831 0.09476,-0.0602 0.135578,-0.76038 0.156185,-2.67954 l 0.02789,-2.59804 h 1.353581 1.353578 l 0.05206,2.65509 0.05206,2.6551 3.019524,0.0521 3.019527,0.0521 0.02948,1.24117 c 0.02192,0.92297 -0.0048,1.26292 -0.104125,1.32596 -0.07349,0.0466 -1.457253,0.0855 -3.075045,0.0864 l -2.941434,0.002 v 2.59938 c 0,2.46336 -0.01053,2.60501 -0.201399,2.70716 -0.233473,0.12495 -2.287382,0.1441 -2.477866,0.0231 z m 17.464144,-2.98737 c -0.156106,-0.18809 -0.09561,-2.70441 0.06897,-2.86899 0.062,-0.062 1.902763,-0.0898 4.831406,-0.073 l 4.731251,0.0271 v 1.50976 1.50976 l -4.749948,0.0271 c -4.151195,0.0237 -4.766556,0.007 -4.881682,-0.13166 z"
     style="display:inline;fill:#ffffff;fill-opacity:1;stroke-width:0.104121"
     clip-path="url(#clipPath944)"
     transform="translate(122.56853,-181.9506)" /></g></svg>
