G04 #@! TF.GenerationSoftware,KiCad,Pcbnew,(5.1.2-1)-1*
G04 #@! TF.CreationDate,2021-03-21T18:44:29-05:00*
G04 #@! TF.ProjectId,Core64 LM v0.2,436f7265-3634-4204-9c4d-2076302e322e,0.3*
G04 #@! TF.SameCoordinates,Original*
G04 #@! TF.FileFunction,Copper,L1,Top*
G04 #@! TF.FilePolarity,Positive*
%FSLAX46Y46*%
G04 Gerber Fmt 4.6, Leading zero omitted, Abs format (unit mm)*
G04 Created by KiCad (PCBNEW (5.1.2-1)-1) date 2021-03-21 18:44:29*
%MOMM*%
%LPD*%
G04 APERTURE LIST*
%ADD10C,0.100000*%
%ADD11C,1.000000*%
%ADD12R,1.500000X1.000000*%
%ADD13C,1.524000*%
%ADD14O,1.700000X1.700000*%
%ADD15R,1.700000X1.700000*%
%ADD16C,1.700000*%
%ADD17C,0.875000*%
%ADD18C,0.650000*%
%ADD19C,0.600000*%
%ADD20C,0.300000*%
%ADD21C,1.000000*%
G04 APERTURE END LIST*
D10*
G36*
X8199504Y5473796D02*
G01*
X8223773Y5470196D01*
X8247571Y5464235D01*
X8270671Y5455970D01*
X8292849Y5445480D01*
X8313893Y5432867D01*
X8333598Y5418253D01*
X8351777Y5401777D01*
X8368253Y5383598D01*
X8382867Y5363893D01*
X8395480Y5342849D01*
X8405970Y5320671D01*
X8414235Y5297571D01*
X8420196Y5273773D01*
X8423796Y5249504D01*
X8425000Y5225000D01*
X8425000Y4725000D01*
X8423796Y4700496D01*
X8420196Y4676227D01*
X8414235Y4652429D01*
X8405970Y4629329D01*
X8395480Y4607151D01*
X8382867Y4586107D01*
X8368253Y4566402D01*
X8351777Y4548223D01*
X8333598Y4531747D01*
X8313893Y4517133D01*
X8292849Y4504520D01*
X8270671Y4494030D01*
X8247571Y4485765D01*
X8223773Y4479804D01*
X8199504Y4476204D01*
X8175000Y4475000D01*
X7175000Y4475000D01*
X7150496Y4476204D01*
X7126227Y4479804D01*
X7102429Y4485765D01*
X7079329Y4494030D01*
X7057151Y4504520D01*
X7036107Y4517133D01*
X7016402Y4531747D01*
X6998223Y4548223D01*
X6981747Y4566402D01*
X6967133Y4586107D01*
X6954520Y4607151D01*
X6944030Y4629329D01*
X6935765Y4652429D01*
X6929804Y4676227D01*
X6926204Y4700496D01*
X6925000Y4725000D01*
X6925000Y5225000D01*
X6926204Y5249504D01*
X6929804Y5273773D01*
X6935765Y5297571D01*
X6944030Y5320671D01*
X6954520Y5342849D01*
X6967133Y5363893D01*
X6981747Y5383598D01*
X6998223Y5401777D01*
X7016402Y5418253D01*
X7036107Y5432867D01*
X7057151Y5445480D01*
X7079329Y5455970D01*
X7102429Y5464235D01*
X7126227Y5470196D01*
X7150496Y5473796D01*
X7175000Y5475000D01*
X8175000Y5475000D01*
X8199504Y5473796D01*
X8199504Y5473796D01*
G37*
D11*
X7675000Y4975000D03*
D12*
X7675000Y3375000D03*
X7675000Y1775000D03*
X12575000Y4975000D03*
X12575000Y3375000D03*
X12575000Y1775000D03*
D10*
G36*
X21699504Y25723796D02*
G01*
X21723773Y25720196D01*
X21747571Y25714235D01*
X21770671Y25705970D01*
X21792849Y25695480D01*
X21813893Y25682867D01*
X21833598Y25668253D01*
X21851777Y25651777D01*
X21868253Y25633598D01*
X21882867Y25613893D01*
X21895480Y25592849D01*
X21905970Y25570671D01*
X21914235Y25547571D01*
X21920196Y25523773D01*
X21923796Y25499504D01*
X21925000Y25475000D01*
X21925000Y24975000D01*
X21923796Y24950496D01*
X21920196Y24926227D01*
X21914235Y24902429D01*
X21905970Y24879329D01*
X21895480Y24857151D01*
X21882867Y24836107D01*
X21868253Y24816402D01*
X21851777Y24798223D01*
X21833598Y24781747D01*
X21813893Y24767133D01*
X21792849Y24754520D01*
X21770671Y24744030D01*
X21747571Y24735765D01*
X21723773Y24729804D01*
X21699504Y24726204D01*
X21675000Y24725000D01*
X20675000Y24725000D01*
X20650496Y24726204D01*
X20626227Y24729804D01*
X20602429Y24735765D01*
X20579329Y24744030D01*
X20557151Y24754520D01*
X20536107Y24767133D01*
X20516402Y24781747D01*
X20498223Y24798223D01*
X20481747Y24816402D01*
X20467133Y24836107D01*
X20454520Y24857151D01*
X20444030Y24879329D01*
X20435765Y24902429D01*
X20429804Y24926227D01*
X20426204Y24950496D01*
X20425000Y24975000D01*
X20425000Y25475000D01*
X20426204Y25499504D01*
X20429804Y25523773D01*
X20435765Y25547571D01*
X20444030Y25570671D01*
X20454520Y25592849D01*
X20467133Y25613893D01*
X20481747Y25633598D01*
X20498223Y25651777D01*
X20516402Y25668253D01*
X20536107Y25682867D01*
X20557151Y25695480D01*
X20579329Y25705970D01*
X20602429Y25714235D01*
X20626227Y25720196D01*
X20650496Y25723796D01*
X20675000Y25725000D01*
X21675000Y25725000D01*
X21699504Y25723796D01*
X21699504Y25723796D01*
G37*
D11*
X21175000Y25225000D03*
D12*
X21175000Y23625000D03*
X21175000Y22025000D03*
X26075000Y25225000D03*
X26075000Y23625000D03*
X26075000Y22025000D03*
D10*
G36*
X8199504Y25723796D02*
G01*
X8223773Y25720196D01*
X8247571Y25714235D01*
X8270671Y25705970D01*
X8292849Y25695480D01*
X8313893Y25682867D01*
X8333598Y25668253D01*
X8351777Y25651777D01*
X8368253Y25633598D01*
X8382867Y25613893D01*
X8395480Y25592849D01*
X8405970Y25570671D01*
X8414235Y25547571D01*
X8420196Y25523773D01*
X8423796Y25499504D01*
X8425000Y25475000D01*
X8425000Y24975000D01*
X8423796Y24950496D01*
X8420196Y24926227D01*
X8414235Y24902429D01*
X8405970Y24879329D01*
X8395480Y24857151D01*
X8382867Y24836107D01*
X8368253Y24816402D01*
X8351777Y24798223D01*
X8333598Y24781747D01*
X8313893Y24767133D01*
X8292849Y24754520D01*
X8270671Y24744030D01*
X8247571Y24735765D01*
X8223773Y24729804D01*
X8199504Y24726204D01*
X8175000Y24725000D01*
X7175000Y24725000D01*
X7150496Y24726204D01*
X7126227Y24729804D01*
X7102429Y24735765D01*
X7079329Y24744030D01*
X7057151Y24754520D01*
X7036107Y24767133D01*
X7016402Y24781747D01*
X6998223Y24798223D01*
X6981747Y24816402D01*
X6967133Y24836107D01*
X6954520Y24857151D01*
X6944030Y24879329D01*
X6935765Y24902429D01*
X6929804Y24926227D01*
X6926204Y24950496D01*
X6925000Y24975000D01*
X6925000Y25475000D01*
X6926204Y25499504D01*
X6929804Y25523773D01*
X6935765Y25547571D01*
X6944030Y25570671D01*
X6954520Y25592849D01*
X6967133Y25613893D01*
X6981747Y25633598D01*
X6998223Y25651777D01*
X7016402Y25668253D01*
X7036107Y25682867D01*
X7057151Y25695480D01*
X7079329Y25705970D01*
X7102429Y25714235D01*
X7126227Y25720196D01*
X7150496Y25723796D01*
X7175000Y25725000D01*
X8175000Y25725000D01*
X8199504Y25723796D01*
X8199504Y25723796D01*
G37*
D11*
X7675000Y25225000D03*
D12*
X7675000Y23625000D03*
X7675000Y22025000D03*
X12575000Y25225000D03*
X12575000Y23625000D03*
X12575000Y22025000D03*
D10*
G36*
X1449504Y25723796D02*
G01*
X1473773Y25720196D01*
X1497571Y25714235D01*
X1520671Y25705970D01*
X1542849Y25695480D01*
X1563893Y25682867D01*
X1583598Y25668253D01*
X1601777Y25651777D01*
X1618253Y25633598D01*
X1632867Y25613893D01*
X1645480Y25592849D01*
X1655970Y25570671D01*
X1664235Y25547571D01*
X1670196Y25523773D01*
X1673796Y25499504D01*
X1675000Y25475000D01*
X1675000Y24975000D01*
X1673796Y24950496D01*
X1670196Y24926227D01*
X1664235Y24902429D01*
X1655970Y24879329D01*
X1645480Y24857151D01*
X1632867Y24836107D01*
X1618253Y24816402D01*
X1601777Y24798223D01*
X1583598Y24781747D01*
X1563893Y24767133D01*
X1542849Y24754520D01*
X1520671Y24744030D01*
X1497571Y24735765D01*
X1473773Y24729804D01*
X1449504Y24726204D01*
X1425000Y24725000D01*
X425000Y24725000D01*
X400496Y24726204D01*
X376227Y24729804D01*
X352429Y24735765D01*
X329329Y24744030D01*
X307151Y24754520D01*
X286107Y24767133D01*
X266402Y24781747D01*
X248223Y24798223D01*
X231747Y24816402D01*
X217133Y24836107D01*
X204520Y24857151D01*
X194030Y24879329D01*
X185765Y24902429D01*
X179804Y24926227D01*
X176204Y24950496D01*
X175000Y24975000D01*
X175000Y25475000D01*
X176204Y25499504D01*
X179804Y25523773D01*
X185765Y25547571D01*
X194030Y25570671D01*
X204520Y25592849D01*
X217133Y25613893D01*
X231747Y25633598D01*
X248223Y25651777D01*
X266402Y25668253D01*
X286107Y25682867D01*
X307151Y25695480D01*
X329329Y25705970D01*
X352429Y25714235D01*
X376227Y25720196D01*
X400496Y25723796D01*
X425000Y25725000D01*
X1425000Y25725000D01*
X1449504Y25723796D01*
X1449504Y25723796D01*
G37*
D11*
X925000Y25225000D03*
D12*
X925000Y23625000D03*
X925000Y22025000D03*
X5825000Y25225000D03*
X5825000Y23625000D03*
X5825000Y22025000D03*
D10*
G36*
X-5300496Y-14776204D02*
G01*
X-5276227Y-14779804D01*
X-5252429Y-14785765D01*
X-5229329Y-14794030D01*
X-5207151Y-14804520D01*
X-5186107Y-14817133D01*
X-5166402Y-14831747D01*
X-5148223Y-14848223D01*
X-5131747Y-14866402D01*
X-5117133Y-14886107D01*
X-5104520Y-14907151D01*
X-5094030Y-14929329D01*
X-5085765Y-14952429D01*
X-5079804Y-14976227D01*
X-5076204Y-15000496D01*
X-5075000Y-15025000D01*
X-5075000Y-15525000D01*
X-5076204Y-15549504D01*
X-5079804Y-15573773D01*
X-5085765Y-15597571D01*
X-5094030Y-15620671D01*
X-5104520Y-15642849D01*
X-5117133Y-15663893D01*
X-5131747Y-15683598D01*
X-5148223Y-15701777D01*
X-5166402Y-15718253D01*
X-5186107Y-15732867D01*
X-5207151Y-15745480D01*
X-5229329Y-15755970D01*
X-5252429Y-15764235D01*
X-5276227Y-15770196D01*
X-5300496Y-15773796D01*
X-5325000Y-15775000D01*
X-6325000Y-15775000D01*
X-6349504Y-15773796D01*
X-6373773Y-15770196D01*
X-6397571Y-15764235D01*
X-6420671Y-15755970D01*
X-6442849Y-15745480D01*
X-6463893Y-15732867D01*
X-6483598Y-15718253D01*
X-6501777Y-15701777D01*
X-6518253Y-15683598D01*
X-6532867Y-15663893D01*
X-6545480Y-15642849D01*
X-6555970Y-15620671D01*
X-6564235Y-15597571D01*
X-6570196Y-15573773D01*
X-6573796Y-15549504D01*
X-6575000Y-15525000D01*
X-6575000Y-15025000D01*
X-6573796Y-15000496D01*
X-6570196Y-14976227D01*
X-6564235Y-14952429D01*
X-6555970Y-14929329D01*
X-6545480Y-14907151D01*
X-6532867Y-14886107D01*
X-6518253Y-14866402D01*
X-6501777Y-14848223D01*
X-6483598Y-14831747D01*
X-6463893Y-14817133D01*
X-6442849Y-14804520D01*
X-6420671Y-14794030D01*
X-6397571Y-14785765D01*
X-6373773Y-14779804D01*
X-6349504Y-14776204D01*
X-6325000Y-14775000D01*
X-5325000Y-14775000D01*
X-5300496Y-14776204D01*
X-5300496Y-14776204D01*
G37*
D11*
X-5825000Y-15275000D03*
D12*
X-5825000Y-16875000D03*
X-5825000Y-18475000D03*
X-925000Y-15275000D03*
X-925000Y-16875000D03*
X-925000Y-18475000D03*
D10*
G36*
X-12050496Y25723796D02*
G01*
X-12026227Y25720196D01*
X-12002429Y25714235D01*
X-11979329Y25705970D01*
X-11957151Y25695480D01*
X-11936107Y25682867D01*
X-11916402Y25668253D01*
X-11898223Y25651777D01*
X-11881747Y25633598D01*
X-11867133Y25613893D01*
X-11854520Y25592849D01*
X-11844030Y25570671D01*
X-11835765Y25547571D01*
X-11829804Y25523773D01*
X-11826204Y25499504D01*
X-11825000Y25475000D01*
X-11825000Y24975000D01*
X-11826204Y24950496D01*
X-11829804Y24926227D01*
X-11835765Y24902429D01*
X-11844030Y24879329D01*
X-11854520Y24857151D01*
X-11867133Y24836107D01*
X-11881747Y24816402D01*
X-11898223Y24798223D01*
X-11916402Y24781747D01*
X-11936107Y24767133D01*
X-11957151Y24754520D01*
X-11979329Y24744030D01*
X-12002429Y24735765D01*
X-12026227Y24729804D01*
X-12050496Y24726204D01*
X-12075000Y24725000D01*
X-13075000Y24725000D01*
X-13099504Y24726204D01*
X-13123773Y24729804D01*
X-13147571Y24735765D01*
X-13170671Y24744030D01*
X-13192849Y24754520D01*
X-13213893Y24767133D01*
X-13233598Y24781747D01*
X-13251777Y24798223D01*
X-13268253Y24816402D01*
X-13282867Y24836107D01*
X-13295480Y24857151D01*
X-13305970Y24879329D01*
X-13314235Y24902429D01*
X-13320196Y24926227D01*
X-13323796Y24950496D01*
X-13325000Y24975000D01*
X-13325000Y25475000D01*
X-13323796Y25499504D01*
X-13320196Y25523773D01*
X-13314235Y25547571D01*
X-13305970Y25570671D01*
X-13295480Y25592849D01*
X-13282867Y25613893D01*
X-13268253Y25633598D01*
X-13251777Y25651777D01*
X-13233598Y25668253D01*
X-13213893Y25682867D01*
X-13192849Y25695480D01*
X-13170671Y25705970D01*
X-13147571Y25714235D01*
X-13123773Y25720196D01*
X-13099504Y25723796D01*
X-13075000Y25725000D01*
X-12075000Y25725000D01*
X-12050496Y25723796D01*
X-12050496Y25723796D01*
G37*
D11*
X-12575000Y25225000D03*
D12*
X-12575000Y23625000D03*
X-12575000Y22025000D03*
X-7675000Y25225000D03*
X-7675000Y23625000D03*
X-7675000Y22025000D03*
D10*
G36*
X-5300496Y25723796D02*
G01*
X-5276227Y25720196D01*
X-5252429Y25714235D01*
X-5229329Y25705970D01*
X-5207151Y25695480D01*
X-5186107Y25682867D01*
X-5166402Y25668253D01*
X-5148223Y25651777D01*
X-5131747Y25633598D01*
X-5117133Y25613893D01*
X-5104520Y25592849D01*
X-5094030Y25570671D01*
X-5085765Y25547571D01*
X-5079804Y25523773D01*
X-5076204Y25499504D01*
X-5075000Y25475000D01*
X-5075000Y24975000D01*
X-5076204Y24950496D01*
X-5079804Y24926227D01*
X-5085765Y24902429D01*
X-5094030Y24879329D01*
X-5104520Y24857151D01*
X-5117133Y24836107D01*
X-5131747Y24816402D01*
X-5148223Y24798223D01*
X-5166402Y24781747D01*
X-5186107Y24767133D01*
X-5207151Y24754520D01*
X-5229329Y24744030D01*
X-5252429Y24735765D01*
X-5276227Y24729804D01*
X-5300496Y24726204D01*
X-5325000Y24725000D01*
X-6325000Y24725000D01*
X-6349504Y24726204D01*
X-6373773Y24729804D01*
X-6397571Y24735765D01*
X-6420671Y24744030D01*
X-6442849Y24754520D01*
X-6463893Y24767133D01*
X-6483598Y24781747D01*
X-6501777Y24798223D01*
X-6518253Y24816402D01*
X-6532867Y24836107D01*
X-6545480Y24857151D01*
X-6555970Y24879329D01*
X-6564235Y24902429D01*
X-6570196Y24926227D01*
X-6573796Y24950496D01*
X-6575000Y24975000D01*
X-6575000Y25475000D01*
X-6573796Y25499504D01*
X-6570196Y25523773D01*
X-6564235Y25547571D01*
X-6555970Y25570671D01*
X-6545480Y25592849D01*
X-6532867Y25613893D01*
X-6518253Y25633598D01*
X-6501777Y25651777D01*
X-6483598Y25668253D01*
X-6463893Y25682867D01*
X-6442849Y25695480D01*
X-6420671Y25705970D01*
X-6397571Y25714235D01*
X-6373773Y25720196D01*
X-6349504Y25723796D01*
X-6325000Y25725000D01*
X-5325000Y25725000D01*
X-5300496Y25723796D01*
X-5300496Y25723796D01*
G37*
D11*
X-5825000Y25225000D03*
D12*
X-5825000Y23625000D03*
X-5825000Y22025000D03*
X-925000Y25225000D03*
X-925000Y23625000D03*
X-925000Y22025000D03*
D10*
G36*
X-18800496Y25723796D02*
G01*
X-18776227Y25720196D01*
X-18752429Y25714235D01*
X-18729329Y25705970D01*
X-18707151Y25695480D01*
X-18686107Y25682867D01*
X-18666402Y25668253D01*
X-18648223Y25651777D01*
X-18631747Y25633598D01*
X-18617133Y25613893D01*
X-18604520Y25592849D01*
X-18594030Y25570671D01*
X-18585765Y25547571D01*
X-18579804Y25523773D01*
X-18576204Y25499504D01*
X-18575000Y25475000D01*
X-18575000Y24975000D01*
X-18576204Y24950496D01*
X-18579804Y24926227D01*
X-18585765Y24902429D01*
X-18594030Y24879329D01*
X-18604520Y24857151D01*
X-18617133Y24836107D01*
X-18631747Y24816402D01*
X-18648223Y24798223D01*
X-18666402Y24781747D01*
X-18686107Y24767133D01*
X-18707151Y24754520D01*
X-18729329Y24744030D01*
X-18752429Y24735765D01*
X-18776227Y24729804D01*
X-18800496Y24726204D01*
X-18825000Y24725000D01*
X-19825000Y24725000D01*
X-19849504Y24726204D01*
X-19873773Y24729804D01*
X-19897571Y24735765D01*
X-19920671Y24744030D01*
X-19942849Y24754520D01*
X-19963893Y24767133D01*
X-19983598Y24781747D01*
X-20001777Y24798223D01*
X-20018253Y24816402D01*
X-20032867Y24836107D01*
X-20045480Y24857151D01*
X-20055970Y24879329D01*
X-20064235Y24902429D01*
X-20070196Y24926227D01*
X-20073796Y24950496D01*
X-20075000Y24975000D01*
X-20075000Y25475000D01*
X-20073796Y25499504D01*
X-20070196Y25523773D01*
X-20064235Y25547571D01*
X-20055970Y25570671D01*
X-20045480Y25592849D01*
X-20032867Y25613893D01*
X-20018253Y25633598D01*
X-20001777Y25651777D01*
X-19983598Y25668253D01*
X-19963893Y25682867D01*
X-19942849Y25695480D01*
X-19920671Y25705970D01*
X-19897571Y25714235D01*
X-19873773Y25720196D01*
X-19849504Y25723796D01*
X-19825000Y25725000D01*
X-18825000Y25725000D01*
X-18800496Y25723796D01*
X-18800496Y25723796D01*
G37*
D11*
X-19325000Y25225000D03*
D12*
X-19325000Y23625000D03*
X-19325000Y22025000D03*
X-14425000Y25225000D03*
X-14425000Y23625000D03*
X-14425000Y22025000D03*
D10*
G36*
X-25550496Y25723796D02*
G01*
X-25526227Y25720196D01*
X-25502429Y25714235D01*
X-25479329Y25705970D01*
X-25457151Y25695480D01*
X-25436107Y25682867D01*
X-25416402Y25668253D01*
X-25398223Y25651777D01*
X-25381747Y25633598D01*
X-25367133Y25613893D01*
X-25354520Y25592849D01*
X-25344030Y25570671D01*
X-25335765Y25547571D01*
X-25329804Y25523773D01*
X-25326204Y25499504D01*
X-25325000Y25475000D01*
X-25325000Y24975000D01*
X-25326204Y24950496D01*
X-25329804Y24926227D01*
X-25335765Y24902429D01*
X-25344030Y24879329D01*
X-25354520Y24857151D01*
X-25367133Y24836107D01*
X-25381747Y24816402D01*
X-25398223Y24798223D01*
X-25416402Y24781747D01*
X-25436107Y24767133D01*
X-25457151Y24754520D01*
X-25479329Y24744030D01*
X-25502429Y24735765D01*
X-25526227Y24729804D01*
X-25550496Y24726204D01*
X-25575000Y24725000D01*
X-26575000Y24725000D01*
X-26599504Y24726204D01*
X-26623773Y24729804D01*
X-26647571Y24735765D01*
X-26670671Y24744030D01*
X-26692849Y24754520D01*
X-26713893Y24767133D01*
X-26733598Y24781747D01*
X-26751777Y24798223D01*
X-26768253Y24816402D01*
X-26782867Y24836107D01*
X-26795480Y24857151D01*
X-26805970Y24879329D01*
X-26814235Y24902429D01*
X-26820196Y24926227D01*
X-26823796Y24950496D01*
X-26825000Y24975000D01*
X-26825000Y25475000D01*
X-26823796Y25499504D01*
X-26820196Y25523773D01*
X-26814235Y25547571D01*
X-26805970Y25570671D01*
X-26795480Y25592849D01*
X-26782867Y25613893D01*
X-26768253Y25633598D01*
X-26751777Y25651777D01*
X-26733598Y25668253D01*
X-26713893Y25682867D01*
X-26692849Y25695480D01*
X-26670671Y25705970D01*
X-26647571Y25714235D01*
X-26623773Y25720196D01*
X-26599504Y25723796D01*
X-26575000Y25725000D01*
X-25575000Y25725000D01*
X-25550496Y25723796D01*
X-25550496Y25723796D01*
G37*
D11*
X-26075000Y25225000D03*
D12*
X-26075000Y23625000D03*
X-26075000Y22025000D03*
X-21175000Y25225000D03*
X-21175000Y23625000D03*
X-21175000Y22025000D03*
D10*
G36*
X-18800496Y18973796D02*
G01*
X-18776227Y18970196D01*
X-18752429Y18964235D01*
X-18729329Y18955970D01*
X-18707151Y18945480D01*
X-18686107Y18932867D01*
X-18666402Y18918253D01*
X-18648223Y18901777D01*
X-18631747Y18883598D01*
X-18617133Y18863893D01*
X-18604520Y18842849D01*
X-18594030Y18820671D01*
X-18585765Y18797571D01*
X-18579804Y18773773D01*
X-18576204Y18749504D01*
X-18575000Y18725000D01*
X-18575000Y18225000D01*
X-18576204Y18200496D01*
X-18579804Y18176227D01*
X-18585765Y18152429D01*
X-18594030Y18129329D01*
X-18604520Y18107151D01*
X-18617133Y18086107D01*
X-18631747Y18066402D01*
X-18648223Y18048223D01*
X-18666402Y18031747D01*
X-18686107Y18017133D01*
X-18707151Y18004520D01*
X-18729329Y17994030D01*
X-18752429Y17985765D01*
X-18776227Y17979804D01*
X-18800496Y17976204D01*
X-18825000Y17975000D01*
X-19825000Y17975000D01*
X-19849504Y17976204D01*
X-19873773Y17979804D01*
X-19897571Y17985765D01*
X-19920671Y17994030D01*
X-19942849Y18004520D01*
X-19963893Y18017133D01*
X-19983598Y18031747D01*
X-20001777Y18048223D01*
X-20018253Y18066402D01*
X-20032867Y18086107D01*
X-20045480Y18107151D01*
X-20055970Y18129329D01*
X-20064235Y18152429D01*
X-20070196Y18176227D01*
X-20073796Y18200496D01*
X-20075000Y18225000D01*
X-20075000Y18725000D01*
X-20073796Y18749504D01*
X-20070196Y18773773D01*
X-20064235Y18797571D01*
X-20055970Y18820671D01*
X-20045480Y18842849D01*
X-20032867Y18863893D01*
X-20018253Y18883598D01*
X-20001777Y18901777D01*
X-19983598Y18918253D01*
X-19963893Y18932867D01*
X-19942849Y18945480D01*
X-19920671Y18955970D01*
X-19897571Y18964235D01*
X-19873773Y18970196D01*
X-19849504Y18973796D01*
X-19825000Y18975000D01*
X-18825000Y18975000D01*
X-18800496Y18973796D01*
X-18800496Y18973796D01*
G37*
D11*
X-19325000Y18475000D03*
D12*
X-19325000Y16875000D03*
X-19325000Y15275000D03*
X-14425000Y18475000D03*
X-14425000Y16875000D03*
X-14425000Y15275000D03*
D10*
G36*
X-12050496Y18973796D02*
G01*
X-12026227Y18970196D01*
X-12002429Y18964235D01*
X-11979329Y18955970D01*
X-11957151Y18945480D01*
X-11936107Y18932867D01*
X-11916402Y18918253D01*
X-11898223Y18901777D01*
X-11881747Y18883598D01*
X-11867133Y18863893D01*
X-11854520Y18842849D01*
X-11844030Y18820671D01*
X-11835765Y18797571D01*
X-11829804Y18773773D01*
X-11826204Y18749504D01*
X-11825000Y18725000D01*
X-11825000Y18225000D01*
X-11826204Y18200496D01*
X-11829804Y18176227D01*
X-11835765Y18152429D01*
X-11844030Y18129329D01*
X-11854520Y18107151D01*
X-11867133Y18086107D01*
X-11881747Y18066402D01*
X-11898223Y18048223D01*
X-11916402Y18031747D01*
X-11936107Y18017133D01*
X-11957151Y18004520D01*
X-11979329Y17994030D01*
X-12002429Y17985765D01*
X-12026227Y17979804D01*
X-12050496Y17976204D01*
X-12075000Y17975000D01*
X-13075000Y17975000D01*
X-13099504Y17976204D01*
X-13123773Y17979804D01*
X-13147571Y17985765D01*
X-13170671Y17994030D01*
X-13192849Y18004520D01*
X-13213893Y18017133D01*
X-13233598Y18031747D01*
X-13251777Y18048223D01*
X-13268253Y18066402D01*
X-13282867Y18086107D01*
X-13295480Y18107151D01*
X-13305970Y18129329D01*
X-13314235Y18152429D01*
X-13320196Y18176227D01*
X-13323796Y18200496D01*
X-13325000Y18225000D01*
X-13325000Y18725000D01*
X-13323796Y18749504D01*
X-13320196Y18773773D01*
X-13314235Y18797571D01*
X-13305970Y18820671D01*
X-13295480Y18842849D01*
X-13282867Y18863893D01*
X-13268253Y18883598D01*
X-13251777Y18901777D01*
X-13233598Y18918253D01*
X-13213893Y18932867D01*
X-13192849Y18945480D01*
X-13170671Y18955970D01*
X-13147571Y18964235D01*
X-13123773Y18970196D01*
X-13099504Y18973796D01*
X-13075000Y18975000D01*
X-12075000Y18975000D01*
X-12050496Y18973796D01*
X-12050496Y18973796D01*
G37*
D11*
X-12575000Y18475000D03*
D12*
X-12575000Y16875000D03*
X-12575000Y15275000D03*
X-7675000Y18475000D03*
X-7675000Y16875000D03*
X-7675000Y15275000D03*
D10*
G36*
X-5300496Y18973796D02*
G01*
X-5276227Y18970196D01*
X-5252429Y18964235D01*
X-5229329Y18955970D01*
X-5207151Y18945480D01*
X-5186107Y18932867D01*
X-5166402Y18918253D01*
X-5148223Y18901777D01*
X-5131747Y18883598D01*
X-5117133Y18863893D01*
X-5104520Y18842849D01*
X-5094030Y18820671D01*
X-5085765Y18797571D01*
X-5079804Y18773773D01*
X-5076204Y18749504D01*
X-5075000Y18725000D01*
X-5075000Y18225000D01*
X-5076204Y18200496D01*
X-5079804Y18176227D01*
X-5085765Y18152429D01*
X-5094030Y18129329D01*
X-5104520Y18107151D01*
X-5117133Y18086107D01*
X-5131747Y18066402D01*
X-5148223Y18048223D01*
X-5166402Y18031747D01*
X-5186107Y18017133D01*
X-5207151Y18004520D01*
X-5229329Y17994030D01*
X-5252429Y17985765D01*
X-5276227Y17979804D01*
X-5300496Y17976204D01*
X-5325000Y17975000D01*
X-6325000Y17975000D01*
X-6349504Y17976204D01*
X-6373773Y17979804D01*
X-6397571Y17985765D01*
X-6420671Y17994030D01*
X-6442849Y18004520D01*
X-6463893Y18017133D01*
X-6483598Y18031747D01*
X-6501777Y18048223D01*
X-6518253Y18066402D01*
X-6532867Y18086107D01*
X-6545480Y18107151D01*
X-6555970Y18129329D01*
X-6564235Y18152429D01*
X-6570196Y18176227D01*
X-6573796Y18200496D01*
X-6575000Y18225000D01*
X-6575000Y18725000D01*
X-6573796Y18749504D01*
X-6570196Y18773773D01*
X-6564235Y18797571D01*
X-6555970Y18820671D01*
X-6545480Y18842849D01*
X-6532867Y18863893D01*
X-6518253Y18883598D01*
X-6501777Y18901777D01*
X-6483598Y18918253D01*
X-6463893Y18932867D01*
X-6442849Y18945480D01*
X-6420671Y18955970D01*
X-6397571Y18964235D01*
X-6373773Y18970196D01*
X-6349504Y18973796D01*
X-6325000Y18975000D01*
X-5325000Y18975000D01*
X-5300496Y18973796D01*
X-5300496Y18973796D01*
G37*
D11*
X-5825000Y18475000D03*
D12*
X-5825000Y16875000D03*
X-5825000Y15275000D03*
X-925000Y18475000D03*
X-925000Y16875000D03*
X-925000Y15275000D03*
D10*
G36*
X-25550496Y18973796D02*
G01*
X-25526227Y18970196D01*
X-25502429Y18964235D01*
X-25479329Y18955970D01*
X-25457151Y18945480D01*
X-25436107Y18932867D01*
X-25416402Y18918253D01*
X-25398223Y18901777D01*
X-25381747Y18883598D01*
X-25367133Y18863893D01*
X-25354520Y18842849D01*
X-25344030Y18820671D01*
X-25335765Y18797571D01*
X-25329804Y18773773D01*
X-25326204Y18749504D01*
X-25325000Y18725000D01*
X-25325000Y18225000D01*
X-25326204Y18200496D01*
X-25329804Y18176227D01*
X-25335765Y18152429D01*
X-25344030Y18129329D01*
X-25354520Y18107151D01*
X-25367133Y18086107D01*
X-25381747Y18066402D01*
X-25398223Y18048223D01*
X-25416402Y18031747D01*
X-25436107Y18017133D01*
X-25457151Y18004520D01*
X-25479329Y17994030D01*
X-25502429Y17985765D01*
X-25526227Y17979804D01*
X-25550496Y17976204D01*
X-25575000Y17975000D01*
X-26575000Y17975000D01*
X-26599504Y17976204D01*
X-26623773Y17979804D01*
X-26647571Y17985765D01*
X-26670671Y17994030D01*
X-26692849Y18004520D01*
X-26713893Y18017133D01*
X-26733598Y18031747D01*
X-26751777Y18048223D01*
X-26768253Y18066402D01*
X-26782867Y18086107D01*
X-26795480Y18107151D01*
X-26805970Y18129329D01*
X-26814235Y18152429D01*
X-26820196Y18176227D01*
X-26823796Y18200496D01*
X-26825000Y18225000D01*
X-26825000Y18725000D01*
X-26823796Y18749504D01*
X-26820196Y18773773D01*
X-26814235Y18797571D01*
X-26805970Y18820671D01*
X-26795480Y18842849D01*
X-26782867Y18863893D01*
X-26768253Y18883598D01*
X-26751777Y18901777D01*
X-26733598Y18918253D01*
X-26713893Y18932867D01*
X-26692849Y18945480D01*
X-26670671Y18955970D01*
X-26647571Y18964235D01*
X-26623773Y18970196D01*
X-26599504Y18973796D01*
X-26575000Y18975000D01*
X-25575000Y18975000D01*
X-25550496Y18973796D01*
X-25550496Y18973796D01*
G37*
D11*
X-26075000Y18475000D03*
D12*
X-26075000Y16875000D03*
X-26075000Y15275000D03*
X-21175000Y18475000D03*
X-21175000Y16875000D03*
X-21175000Y15275000D03*
D10*
G36*
X14949504Y18973796D02*
G01*
X14973773Y18970196D01*
X14997571Y18964235D01*
X15020671Y18955970D01*
X15042849Y18945480D01*
X15063893Y18932867D01*
X15083598Y18918253D01*
X15101777Y18901777D01*
X15118253Y18883598D01*
X15132867Y18863893D01*
X15145480Y18842849D01*
X15155970Y18820671D01*
X15164235Y18797571D01*
X15170196Y18773773D01*
X15173796Y18749504D01*
X15175000Y18725000D01*
X15175000Y18225000D01*
X15173796Y18200496D01*
X15170196Y18176227D01*
X15164235Y18152429D01*
X15155970Y18129329D01*
X15145480Y18107151D01*
X15132867Y18086107D01*
X15118253Y18066402D01*
X15101777Y18048223D01*
X15083598Y18031747D01*
X15063893Y18017133D01*
X15042849Y18004520D01*
X15020671Y17994030D01*
X14997571Y17985765D01*
X14973773Y17979804D01*
X14949504Y17976204D01*
X14925000Y17975000D01*
X13925000Y17975000D01*
X13900496Y17976204D01*
X13876227Y17979804D01*
X13852429Y17985765D01*
X13829329Y17994030D01*
X13807151Y18004520D01*
X13786107Y18017133D01*
X13766402Y18031747D01*
X13748223Y18048223D01*
X13731747Y18066402D01*
X13717133Y18086107D01*
X13704520Y18107151D01*
X13694030Y18129329D01*
X13685765Y18152429D01*
X13679804Y18176227D01*
X13676204Y18200496D01*
X13675000Y18225000D01*
X13675000Y18725000D01*
X13676204Y18749504D01*
X13679804Y18773773D01*
X13685765Y18797571D01*
X13694030Y18820671D01*
X13704520Y18842849D01*
X13717133Y18863893D01*
X13731747Y18883598D01*
X13748223Y18901777D01*
X13766402Y18918253D01*
X13786107Y18932867D01*
X13807151Y18945480D01*
X13829329Y18955970D01*
X13852429Y18964235D01*
X13876227Y18970196D01*
X13900496Y18973796D01*
X13925000Y18975000D01*
X14925000Y18975000D01*
X14949504Y18973796D01*
X14949504Y18973796D01*
G37*
D11*
X14425000Y18475000D03*
D12*
X14425000Y16875000D03*
X14425000Y15275000D03*
X19325000Y18475000D03*
X19325000Y16875000D03*
X19325000Y15275000D03*
D10*
G36*
X21699504Y12223796D02*
G01*
X21723773Y12220196D01*
X21747571Y12214235D01*
X21770671Y12205970D01*
X21792849Y12195480D01*
X21813893Y12182867D01*
X21833598Y12168253D01*
X21851777Y12151777D01*
X21868253Y12133598D01*
X21882867Y12113893D01*
X21895480Y12092849D01*
X21905970Y12070671D01*
X21914235Y12047571D01*
X21920196Y12023773D01*
X21923796Y11999504D01*
X21925000Y11975000D01*
X21925000Y11475000D01*
X21923796Y11450496D01*
X21920196Y11426227D01*
X21914235Y11402429D01*
X21905970Y11379329D01*
X21895480Y11357151D01*
X21882867Y11336107D01*
X21868253Y11316402D01*
X21851777Y11298223D01*
X21833598Y11281747D01*
X21813893Y11267133D01*
X21792849Y11254520D01*
X21770671Y11244030D01*
X21747571Y11235765D01*
X21723773Y11229804D01*
X21699504Y11226204D01*
X21675000Y11225000D01*
X20675000Y11225000D01*
X20650496Y11226204D01*
X20626227Y11229804D01*
X20602429Y11235765D01*
X20579329Y11244030D01*
X20557151Y11254520D01*
X20536107Y11267133D01*
X20516402Y11281747D01*
X20498223Y11298223D01*
X20481747Y11316402D01*
X20467133Y11336107D01*
X20454520Y11357151D01*
X20444030Y11379329D01*
X20435765Y11402429D01*
X20429804Y11426227D01*
X20426204Y11450496D01*
X20425000Y11475000D01*
X20425000Y11975000D01*
X20426204Y11999504D01*
X20429804Y12023773D01*
X20435765Y12047571D01*
X20444030Y12070671D01*
X20454520Y12092849D01*
X20467133Y12113893D01*
X20481747Y12133598D01*
X20498223Y12151777D01*
X20516402Y12168253D01*
X20536107Y12182867D01*
X20557151Y12195480D01*
X20579329Y12205970D01*
X20602429Y12214235D01*
X20626227Y12220196D01*
X20650496Y12223796D01*
X20675000Y12225000D01*
X21675000Y12225000D01*
X21699504Y12223796D01*
X21699504Y12223796D01*
G37*
D11*
X21175000Y11725000D03*
D12*
X21175000Y10125000D03*
X21175000Y8525000D03*
X26075000Y11725000D03*
X26075000Y10125000D03*
X26075000Y8525000D03*
D10*
G36*
X14949504Y25723796D02*
G01*
X14973773Y25720196D01*
X14997571Y25714235D01*
X15020671Y25705970D01*
X15042849Y25695480D01*
X15063893Y25682867D01*
X15083598Y25668253D01*
X15101777Y25651777D01*
X15118253Y25633598D01*
X15132867Y25613893D01*
X15145480Y25592849D01*
X15155970Y25570671D01*
X15164235Y25547571D01*
X15170196Y25523773D01*
X15173796Y25499504D01*
X15175000Y25475000D01*
X15175000Y24975000D01*
X15173796Y24950496D01*
X15170196Y24926227D01*
X15164235Y24902429D01*
X15155970Y24879329D01*
X15145480Y24857151D01*
X15132867Y24836107D01*
X15118253Y24816402D01*
X15101777Y24798223D01*
X15083598Y24781747D01*
X15063893Y24767133D01*
X15042849Y24754520D01*
X15020671Y24744030D01*
X14997571Y24735765D01*
X14973773Y24729804D01*
X14949504Y24726204D01*
X14925000Y24725000D01*
X13925000Y24725000D01*
X13900496Y24726204D01*
X13876227Y24729804D01*
X13852429Y24735765D01*
X13829329Y24744030D01*
X13807151Y24754520D01*
X13786107Y24767133D01*
X13766402Y24781747D01*
X13748223Y24798223D01*
X13731747Y24816402D01*
X13717133Y24836107D01*
X13704520Y24857151D01*
X13694030Y24879329D01*
X13685765Y24902429D01*
X13679804Y24926227D01*
X13676204Y24950496D01*
X13675000Y24975000D01*
X13675000Y25475000D01*
X13676204Y25499504D01*
X13679804Y25523773D01*
X13685765Y25547571D01*
X13694030Y25570671D01*
X13704520Y25592849D01*
X13717133Y25613893D01*
X13731747Y25633598D01*
X13748223Y25651777D01*
X13766402Y25668253D01*
X13786107Y25682867D01*
X13807151Y25695480D01*
X13829329Y25705970D01*
X13852429Y25714235D01*
X13876227Y25720196D01*
X13900496Y25723796D01*
X13925000Y25725000D01*
X14925000Y25725000D01*
X14949504Y25723796D01*
X14949504Y25723796D01*
G37*
D11*
X14425000Y25225000D03*
D12*
X14425000Y23625000D03*
X14425000Y22025000D03*
X19325000Y25225000D03*
X19325000Y23625000D03*
X19325000Y22025000D03*
D10*
G36*
X1449504Y18973796D02*
G01*
X1473773Y18970196D01*
X1497571Y18964235D01*
X1520671Y18955970D01*
X1542849Y18945480D01*
X1563893Y18932867D01*
X1583598Y18918253D01*
X1601777Y18901777D01*
X1618253Y18883598D01*
X1632867Y18863893D01*
X1645480Y18842849D01*
X1655970Y18820671D01*
X1664235Y18797571D01*
X1670196Y18773773D01*
X1673796Y18749504D01*
X1675000Y18725000D01*
X1675000Y18225000D01*
X1673796Y18200496D01*
X1670196Y18176227D01*
X1664235Y18152429D01*
X1655970Y18129329D01*
X1645480Y18107151D01*
X1632867Y18086107D01*
X1618253Y18066402D01*
X1601777Y18048223D01*
X1583598Y18031747D01*
X1563893Y18017133D01*
X1542849Y18004520D01*
X1520671Y17994030D01*
X1497571Y17985765D01*
X1473773Y17979804D01*
X1449504Y17976204D01*
X1425000Y17975000D01*
X425000Y17975000D01*
X400496Y17976204D01*
X376227Y17979804D01*
X352429Y17985765D01*
X329329Y17994030D01*
X307151Y18004520D01*
X286107Y18017133D01*
X266402Y18031747D01*
X248223Y18048223D01*
X231747Y18066402D01*
X217133Y18086107D01*
X204520Y18107151D01*
X194030Y18129329D01*
X185765Y18152429D01*
X179804Y18176227D01*
X176204Y18200496D01*
X175000Y18225000D01*
X175000Y18725000D01*
X176204Y18749504D01*
X179804Y18773773D01*
X185765Y18797571D01*
X194030Y18820671D01*
X204520Y18842849D01*
X217133Y18863893D01*
X231747Y18883598D01*
X248223Y18901777D01*
X266402Y18918253D01*
X286107Y18932867D01*
X307151Y18945480D01*
X329329Y18955970D01*
X352429Y18964235D01*
X376227Y18970196D01*
X400496Y18973796D01*
X425000Y18975000D01*
X1425000Y18975000D01*
X1449504Y18973796D01*
X1449504Y18973796D01*
G37*
D11*
X925000Y18475000D03*
D12*
X925000Y16875000D03*
X925000Y15275000D03*
X5825000Y18475000D03*
X5825000Y16875000D03*
X5825000Y15275000D03*
D10*
G36*
X8199504Y18973796D02*
G01*
X8223773Y18970196D01*
X8247571Y18964235D01*
X8270671Y18955970D01*
X8292849Y18945480D01*
X8313893Y18932867D01*
X8333598Y18918253D01*
X8351777Y18901777D01*
X8368253Y18883598D01*
X8382867Y18863893D01*
X8395480Y18842849D01*
X8405970Y18820671D01*
X8414235Y18797571D01*
X8420196Y18773773D01*
X8423796Y18749504D01*
X8425000Y18725000D01*
X8425000Y18225000D01*
X8423796Y18200496D01*
X8420196Y18176227D01*
X8414235Y18152429D01*
X8405970Y18129329D01*
X8395480Y18107151D01*
X8382867Y18086107D01*
X8368253Y18066402D01*
X8351777Y18048223D01*
X8333598Y18031747D01*
X8313893Y18017133D01*
X8292849Y18004520D01*
X8270671Y17994030D01*
X8247571Y17985765D01*
X8223773Y17979804D01*
X8199504Y17976204D01*
X8175000Y17975000D01*
X7175000Y17975000D01*
X7150496Y17976204D01*
X7126227Y17979804D01*
X7102429Y17985765D01*
X7079329Y17994030D01*
X7057151Y18004520D01*
X7036107Y18017133D01*
X7016402Y18031747D01*
X6998223Y18048223D01*
X6981747Y18066402D01*
X6967133Y18086107D01*
X6954520Y18107151D01*
X6944030Y18129329D01*
X6935765Y18152429D01*
X6929804Y18176227D01*
X6926204Y18200496D01*
X6925000Y18225000D01*
X6925000Y18725000D01*
X6926204Y18749504D01*
X6929804Y18773773D01*
X6935765Y18797571D01*
X6944030Y18820671D01*
X6954520Y18842849D01*
X6967133Y18863893D01*
X6981747Y18883598D01*
X6998223Y18901777D01*
X7016402Y18918253D01*
X7036107Y18932867D01*
X7057151Y18945480D01*
X7079329Y18955970D01*
X7102429Y18964235D01*
X7126227Y18970196D01*
X7150496Y18973796D01*
X7175000Y18975000D01*
X8175000Y18975000D01*
X8199504Y18973796D01*
X8199504Y18973796D01*
G37*
D11*
X7675000Y18475000D03*
D12*
X7675000Y16875000D03*
X7675000Y15275000D03*
X12575000Y18475000D03*
X12575000Y16875000D03*
X12575000Y15275000D03*
D10*
G36*
X21699504Y18973796D02*
G01*
X21723773Y18970196D01*
X21747571Y18964235D01*
X21770671Y18955970D01*
X21792849Y18945480D01*
X21813893Y18932867D01*
X21833598Y18918253D01*
X21851777Y18901777D01*
X21868253Y18883598D01*
X21882867Y18863893D01*
X21895480Y18842849D01*
X21905970Y18820671D01*
X21914235Y18797571D01*
X21920196Y18773773D01*
X21923796Y18749504D01*
X21925000Y18725000D01*
X21925000Y18225000D01*
X21923796Y18200496D01*
X21920196Y18176227D01*
X21914235Y18152429D01*
X21905970Y18129329D01*
X21895480Y18107151D01*
X21882867Y18086107D01*
X21868253Y18066402D01*
X21851777Y18048223D01*
X21833598Y18031747D01*
X21813893Y18017133D01*
X21792849Y18004520D01*
X21770671Y17994030D01*
X21747571Y17985765D01*
X21723773Y17979804D01*
X21699504Y17976204D01*
X21675000Y17975000D01*
X20675000Y17975000D01*
X20650496Y17976204D01*
X20626227Y17979804D01*
X20602429Y17985765D01*
X20579329Y17994030D01*
X20557151Y18004520D01*
X20536107Y18017133D01*
X20516402Y18031747D01*
X20498223Y18048223D01*
X20481747Y18066402D01*
X20467133Y18086107D01*
X20454520Y18107151D01*
X20444030Y18129329D01*
X20435765Y18152429D01*
X20429804Y18176227D01*
X20426204Y18200496D01*
X20425000Y18225000D01*
X20425000Y18725000D01*
X20426204Y18749504D01*
X20429804Y18773773D01*
X20435765Y18797571D01*
X20444030Y18820671D01*
X20454520Y18842849D01*
X20467133Y18863893D01*
X20481747Y18883598D01*
X20498223Y18901777D01*
X20516402Y18918253D01*
X20536107Y18932867D01*
X20557151Y18945480D01*
X20579329Y18955970D01*
X20602429Y18964235D01*
X20626227Y18970196D01*
X20650496Y18973796D01*
X20675000Y18975000D01*
X21675000Y18975000D01*
X21699504Y18973796D01*
X21699504Y18973796D01*
G37*
D11*
X21175000Y18475000D03*
D12*
X21175000Y16875000D03*
X21175000Y15275000D03*
X26075000Y18475000D03*
X26075000Y16875000D03*
X26075000Y15275000D03*
D10*
G36*
X-25550496Y12223796D02*
G01*
X-25526227Y12220196D01*
X-25502429Y12214235D01*
X-25479329Y12205970D01*
X-25457151Y12195480D01*
X-25436107Y12182867D01*
X-25416402Y12168253D01*
X-25398223Y12151777D01*
X-25381747Y12133598D01*
X-25367133Y12113893D01*
X-25354520Y12092849D01*
X-25344030Y12070671D01*
X-25335765Y12047571D01*
X-25329804Y12023773D01*
X-25326204Y11999504D01*
X-25325000Y11975000D01*
X-25325000Y11475000D01*
X-25326204Y11450496D01*
X-25329804Y11426227D01*
X-25335765Y11402429D01*
X-25344030Y11379329D01*
X-25354520Y11357151D01*
X-25367133Y11336107D01*
X-25381747Y11316402D01*
X-25398223Y11298223D01*
X-25416402Y11281747D01*
X-25436107Y11267133D01*
X-25457151Y11254520D01*
X-25479329Y11244030D01*
X-25502429Y11235765D01*
X-25526227Y11229804D01*
X-25550496Y11226204D01*
X-25575000Y11225000D01*
X-26575000Y11225000D01*
X-26599504Y11226204D01*
X-26623773Y11229804D01*
X-26647571Y11235765D01*
X-26670671Y11244030D01*
X-26692849Y11254520D01*
X-26713893Y11267133D01*
X-26733598Y11281747D01*
X-26751777Y11298223D01*
X-26768253Y11316402D01*
X-26782867Y11336107D01*
X-26795480Y11357151D01*
X-26805970Y11379329D01*
X-26814235Y11402429D01*
X-26820196Y11426227D01*
X-26823796Y11450496D01*
X-26825000Y11475000D01*
X-26825000Y11975000D01*
X-26823796Y11999504D01*
X-26820196Y12023773D01*
X-26814235Y12047571D01*
X-26805970Y12070671D01*
X-26795480Y12092849D01*
X-26782867Y12113893D01*
X-26768253Y12133598D01*
X-26751777Y12151777D01*
X-26733598Y12168253D01*
X-26713893Y12182867D01*
X-26692849Y12195480D01*
X-26670671Y12205970D01*
X-26647571Y12214235D01*
X-26623773Y12220196D01*
X-26599504Y12223796D01*
X-26575000Y12225000D01*
X-25575000Y12225000D01*
X-25550496Y12223796D01*
X-25550496Y12223796D01*
G37*
D11*
X-26075000Y11725000D03*
D12*
X-26075000Y10125000D03*
X-26075000Y8525000D03*
X-21175000Y11725000D03*
X-21175000Y10125000D03*
X-21175000Y8525000D03*
D10*
G36*
X-18800496Y12223796D02*
G01*
X-18776227Y12220196D01*
X-18752429Y12214235D01*
X-18729329Y12205970D01*
X-18707151Y12195480D01*
X-18686107Y12182867D01*
X-18666402Y12168253D01*
X-18648223Y12151777D01*
X-18631747Y12133598D01*
X-18617133Y12113893D01*
X-18604520Y12092849D01*
X-18594030Y12070671D01*
X-18585765Y12047571D01*
X-18579804Y12023773D01*
X-18576204Y11999504D01*
X-18575000Y11975000D01*
X-18575000Y11475000D01*
X-18576204Y11450496D01*
X-18579804Y11426227D01*
X-18585765Y11402429D01*
X-18594030Y11379329D01*
X-18604520Y11357151D01*
X-18617133Y11336107D01*
X-18631747Y11316402D01*
X-18648223Y11298223D01*
X-18666402Y11281747D01*
X-18686107Y11267133D01*
X-18707151Y11254520D01*
X-18729329Y11244030D01*
X-18752429Y11235765D01*
X-18776227Y11229804D01*
X-18800496Y11226204D01*
X-18825000Y11225000D01*
X-19825000Y11225000D01*
X-19849504Y11226204D01*
X-19873773Y11229804D01*
X-19897571Y11235765D01*
X-19920671Y11244030D01*
X-19942849Y11254520D01*
X-19963893Y11267133D01*
X-19983598Y11281747D01*
X-20001777Y11298223D01*
X-20018253Y11316402D01*
X-20032867Y11336107D01*
X-20045480Y11357151D01*
X-20055970Y11379329D01*
X-20064235Y11402429D01*
X-20070196Y11426227D01*
X-20073796Y11450496D01*
X-20075000Y11475000D01*
X-20075000Y11975000D01*
X-20073796Y11999504D01*
X-20070196Y12023773D01*
X-20064235Y12047571D01*
X-20055970Y12070671D01*
X-20045480Y12092849D01*
X-20032867Y12113893D01*
X-20018253Y12133598D01*
X-20001777Y12151777D01*
X-19983598Y12168253D01*
X-19963893Y12182867D01*
X-19942849Y12195480D01*
X-19920671Y12205970D01*
X-19897571Y12214235D01*
X-19873773Y12220196D01*
X-19849504Y12223796D01*
X-19825000Y12225000D01*
X-18825000Y12225000D01*
X-18800496Y12223796D01*
X-18800496Y12223796D01*
G37*
D11*
X-19325000Y11725000D03*
D12*
X-19325000Y10125000D03*
X-19325000Y8525000D03*
X-14425000Y11725000D03*
X-14425000Y10125000D03*
X-14425000Y8525000D03*
D10*
G36*
X-12050496Y12223796D02*
G01*
X-12026227Y12220196D01*
X-12002429Y12214235D01*
X-11979329Y12205970D01*
X-11957151Y12195480D01*
X-11936107Y12182867D01*
X-11916402Y12168253D01*
X-11898223Y12151777D01*
X-11881747Y12133598D01*
X-11867133Y12113893D01*
X-11854520Y12092849D01*
X-11844030Y12070671D01*
X-11835765Y12047571D01*
X-11829804Y12023773D01*
X-11826204Y11999504D01*
X-11825000Y11975000D01*
X-11825000Y11475000D01*
X-11826204Y11450496D01*
X-11829804Y11426227D01*
X-11835765Y11402429D01*
X-11844030Y11379329D01*
X-11854520Y11357151D01*
X-11867133Y11336107D01*
X-11881747Y11316402D01*
X-11898223Y11298223D01*
X-11916402Y11281747D01*
X-11936107Y11267133D01*
X-11957151Y11254520D01*
X-11979329Y11244030D01*
X-12002429Y11235765D01*
X-12026227Y11229804D01*
X-12050496Y11226204D01*
X-12075000Y11225000D01*
X-13075000Y11225000D01*
X-13099504Y11226204D01*
X-13123773Y11229804D01*
X-13147571Y11235765D01*
X-13170671Y11244030D01*
X-13192849Y11254520D01*
X-13213893Y11267133D01*
X-13233598Y11281747D01*
X-13251777Y11298223D01*
X-13268253Y11316402D01*
X-13282867Y11336107D01*
X-13295480Y11357151D01*
X-13305970Y11379329D01*
X-13314235Y11402429D01*
X-13320196Y11426227D01*
X-13323796Y11450496D01*
X-13325000Y11475000D01*
X-13325000Y11975000D01*
X-13323796Y11999504D01*
X-13320196Y12023773D01*
X-13314235Y12047571D01*
X-13305970Y12070671D01*
X-13295480Y12092849D01*
X-13282867Y12113893D01*
X-13268253Y12133598D01*
X-13251777Y12151777D01*
X-13233598Y12168253D01*
X-13213893Y12182867D01*
X-13192849Y12195480D01*
X-13170671Y12205970D01*
X-13147571Y12214235D01*
X-13123773Y12220196D01*
X-13099504Y12223796D01*
X-13075000Y12225000D01*
X-12075000Y12225000D01*
X-12050496Y12223796D01*
X-12050496Y12223796D01*
G37*
D11*
X-12575000Y11725000D03*
D12*
X-12575000Y10125000D03*
X-12575000Y8525000D03*
X-7675000Y11725000D03*
X-7675000Y10125000D03*
X-7675000Y8525000D03*
D10*
G36*
X-5300496Y12223796D02*
G01*
X-5276227Y12220196D01*
X-5252429Y12214235D01*
X-5229329Y12205970D01*
X-5207151Y12195480D01*
X-5186107Y12182867D01*
X-5166402Y12168253D01*
X-5148223Y12151777D01*
X-5131747Y12133598D01*
X-5117133Y12113893D01*
X-5104520Y12092849D01*
X-5094030Y12070671D01*
X-5085765Y12047571D01*
X-5079804Y12023773D01*
X-5076204Y11999504D01*
X-5075000Y11975000D01*
X-5075000Y11475000D01*
X-5076204Y11450496D01*
X-5079804Y11426227D01*
X-5085765Y11402429D01*
X-5094030Y11379329D01*
X-5104520Y11357151D01*
X-5117133Y11336107D01*
X-5131747Y11316402D01*
X-5148223Y11298223D01*
X-5166402Y11281747D01*
X-5186107Y11267133D01*
X-5207151Y11254520D01*
X-5229329Y11244030D01*
X-5252429Y11235765D01*
X-5276227Y11229804D01*
X-5300496Y11226204D01*
X-5325000Y11225000D01*
X-6325000Y11225000D01*
X-6349504Y11226204D01*
X-6373773Y11229804D01*
X-6397571Y11235765D01*
X-6420671Y11244030D01*
X-6442849Y11254520D01*
X-6463893Y11267133D01*
X-6483598Y11281747D01*
X-6501777Y11298223D01*
X-6518253Y11316402D01*
X-6532867Y11336107D01*
X-6545480Y11357151D01*
X-6555970Y11379329D01*
X-6564235Y11402429D01*
X-6570196Y11426227D01*
X-6573796Y11450496D01*
X-6575000Y11475000D01*
X-6575000Y11975000D01*
X-6573796Y11999504D01*
X-6570196Y12023773D01*
X-6564235Y12047571D01*
X-6555970Y12070671D01*
X-6545480Y12092849D01*
X-6532867Y12113893D01*
X-6518253Y12133598D01*
X-6501777Y12151777D01*
X-6483598Y12168253D01*
X-6463893Y12182867D01*
X-6442849Y12195480D01*
X-6420671Y12205970D01*
X-6397571Y12214235D01*
X-6373773Y12220196D01*
X-6349504Y12223796D01*
X-6325000Y12225000D01*
X-5325000Y12225000D01*
X-5300496Y12223796D01*
X-5300496Y12223796D01*
G37*
D11*
X-5825000Y11725000D03*
D12*
X-5825000Y10125000D03*
X-5825000Y8525000D03*
X-925000Y11725000D03*
X-925000Y10125000D03*
X-925000Y8525000D03*
D10*
G36*
X1449504Y12223796D02*
G01*
X1473773Y12220196D01*
X1497571Y12214235D01*
X1520671Y12205970D01*
X1542849Y12195480D01*
X1563893Y12182867D01*
X1583598Y12168253D01*
X1601777Y12151777D01*
X1618253Y12133598D01*
X1632867Y12113893D01*
X1645480Y12092849D01*
X1655970Y12070671D01*
X1664235Y12047571D01*
X1670196Y12023773D01*
X1673796Y11999504D01*
X1675000Y11975000D01*
X1675000Y11475000D01*
X1673796Y11450496D01*
X1670196Y11426227D01*
X1664235Y11402429D01*
X1655970Y11379329D01*
X1645480Y11357151D01*
X1632867Y11336107D01*
X1618253Y11316402D01*
X1601777Y11298223D01*
X1583598Y11281747D01*
X1563893Y11267133D01*
X1542849Y11254520D01*
X1520671Y11244030D01*
X1497571Y11235765D01*
X1473773Y11229804D01*
X1449504Y11226204D01*
X1425000Y11225000D01*
X425000Y11225000D01*
X400496Y11226204D01*
X376227Y11229804D01*
X352429Y11235765D01*
X329329Y11244030D01*
X307151Y11254520D01*
X286107Y11267133D01*
X266402Y11281747D01*
X248223Y11298223D01*
X231747Y11316402D01*
X217133Y11336107D01*
X204520Y11357151D01*
X194030Y11379329D01*
X185765Y11402429D01*
X179804Y11426227D01*
X176204Y11450496D01*
X175000Y11475000D01*
X175000Y11975000D01*
X176204Y11999504D01*
X179804Y12023773D01*
X185765Y12047571D01*
X194030Y12070671D01*
X204520Y12092849D01*
X217133Y12113893D01*
X231747Y12133598D01*
X248223Y12151777D01*
X266402Y12168253D01*
X286107Y12182867D01*
X307151Y12195480D01*
X329329Y12205970D01*
X352429Y12214235D01*
X376227Y12220196D01*
X400496Y12223796D01*
X425000Y12225000D01*
X1425000Y12225000D01*
X1449504Y12223796D01*
X1449504Y12223796D01*
G37*
D11*
X925000Y11725000D03*
D12*
X925000Y10125000D03*
X925000Y8525000D03*
X5825000Y11725000D03*
X5825000Y10125000D03*
X5825000Y8525000D03*
D10*
G36*
X8199504Y12223796D02*
G01*
X8223773Y12220196D01*
X8247571Y12214235D01*
X8270671Y12205970D01*
X8292849Y12195480D01*
X8313893Y12182867D01*
X8333598Y12168253D01*
X8351777Y12151777D01*
X8368253Y12133598D01*
X8382867Y12113893D01*
X8395480Y12092849D01*
X8405970Y12070671D01*
X8414235Y12047571D01*
X8420196Y12023773D01*
X8423796Y11999504D01*
X8425000Y11975000D01*
X8425000Y11475000D01*
X8423796Y11450496D01*
X8420196Y11426227D01*
X8414235Y11402429D01*
X8405970Y11379329D01*
X8395480Y11357151D01*
X8382867Y11336107D01*
X8368253Y11316402D01*
X8351777Y11298223D01*
X8333598Y11281747D01*
X8313893Y11267133D01*
X8292849Y11254520D01*
X8270671Y11244030D01*
X8247571Y11235765D01*
X8223773Y11229804D01*
X8199504Y11226204D01*
X8175000Y11225000D01*
X7175000Y11225000D01*
X7150496Y11226204D01*
X7126227Y11229804D01*
X7102429Y11235765D01*
X7079329Y11244030D01*
X7057151Y11254520D01*
X7036107Y11267133D01*
X7016402Y11281747D01*
X6998223Y11298223D01*
X6981747Y11316402D01*
X6967133Y11336107D01*
X6954520Y11357151D01*
X6944030Y11379329D01*
X6935765Y11402429D01*
X6929804Y11426227D01*
X6926204Y11450496D01*
X6925000Y11475000D01*
X6925000Y11975000D01*
X6926204Y11999504D01*
X6929804Y12023773D01*
X6935765Y12047571D01*
X6944030Y12070671D01*
X6954520Y12092849D01*
X6967133Y12113893D01*
X6981747Y12133598D01*
X6998223Y12151777D01*
X7016402Y12168253D01*
X7036107Y12182867D01*
X7057151Y12195480D01*
X7079329Y12205970D01*
X7102429Y12214235D01*
X7126227Y12220196D01*
X7150496Y12223796D01*
X7175000Y12225000D01*
X8175000Y12225000D01*
X8199504Y12223796D01*
X8199504Y12223796D01*
G37*
D11*
X7675000Y11725000D03*
D12*
X7675000Y10125000D03*
X7675000Y8525000D03*
X12575000Y11725000D03*
X12575000Y10125000D03*
X12575000Y8525000D03*
D10*
G36*
X14949504Y12223796D02*
G01*
X14973773Y12220196D01*
X14997571Y12214235D01*
X15020671Y12205970D01*
X15042849Y12195480D01*
X15063893Y12182867D01*
X15083598Y12168253D01*
X15101777Y12151777D01*
X15118253Y12133598D01*
X15132867Y12113893D01*
X15145480Y12092849D01*
X15155970Y12070671D01*
X15164235Y12047571D01*
X15170196Y12023773D01*
X15173796Y11999504D01*
X15175000Y11975000D01*
X15175000Y11475000D01*
X15173796Y11450496D01*
X15170196Y11426227D01*
X15164235Y11402429D01*
X15155970Y11379329D01*
X15145480Y11357151D01*
X15132867Y11336107D01*
X15118253Y11316402D01*
X15101777Y11298223D01*
X15083598Y11281747D01*
X15063893Y11267133D01*
X15042849Y11254520D01*
X15020671Y11244030D01*
X14997571Y11235765D01*
X14973773Y11229804D01*
X14949504Y11226204D01*
X14925000Y11225000D01*
X13925000Y11225000D01*
X13900496Y11226204D01*
X13876227Y11229804D01*
X13852429Y11235765D01*
X13829329Y11244030D01*
X13807151Y11254520D01*
X13786107Y11267133D01*
X13766402Y11281747D01*
X13748223Y11298223D01*
X13731747Y11316402D01*
X13717133Y11336107D01*
X13704520Y11357151D01*
X13694030Y11379329D01*
X13685765Y11402429D01*
X13679804Y11426227D01*
X13676204Y11450496D01*
X13675000Y11475000D01*
X13675000Y11975000D01*
X13676204Y11999504D01*
X13679804Y12023773D01*
X13685765Y12047571D01*
X13694030Y12070671D01*
X13704520Y12092849D01*
X13717133Y12113893D01*
X13731747Y12133598D01*
X13748223Y12151777D01*
X13766402Y12168253D01*
X13786107Y12182867D01*
X13807151Y12195480D01*
X13829329Y12205970D01*
X13852429Y12214235D01*
X13876227Y12220196D01*
X13900496Y12223796D01*
X13925000Y12225000D01*
X14925000Y12225000D01*
X14949504Y12223796D01*
X14949504Y12223796D01*
G37*
D11*
X14425000Y11725000D03*
D12*
X14425000Y10125000D03*
X14425000Y8525000D03*
X19325000Y11725000D03*
X19325000Y10125000D03*
X19325000Y8525000D03*
D10*
G36*
X-25550496Y5473796D02*
G01*
X-25526227Y5470196D01*
X-25502429Y5464235D01*
X-25479329Y5455970D01*
X-25457151Y5445480D01*
X-25436107Y5432867D01*
X-25416402Y5418253D01*
X-25398223Y5401777D01*
X-25381747Y5383598D01*
X-25367133Y5363893D01*
X-25354520Y5342849D01*
X-25344030Y5320671D01*
X-25335765Y5297571D01*
X-25329804Y5273773D01*
X-25326204Y5249504D01*
X-25325000Y5225000D01*
X-25325000Y4725000D01*
X-25326204Y4700496D01*
X-25329804Y4676227D01*
X-25335765Y4652429D01*
X-25344030Y4629329D01*
X-25354520Y4607151D01*
X-25367133Y4586107D01*
X-25381747Y4566402D01*
X-25398223Y4548223D01*
X-25416402Y4531747D01*
X-25436107Y4517133D01*
X-25457151Y4504520D01*
X-25479329Y4494030D01*
X-25502429Y4485765D01*
X-25526227Y4479804D01*
X-25550496Y4476204D01*
X-25575000Y4475000D01*
X-26575000Y4475000D01*
X-26599504Y4476204D01*
X-26623773Y4479804D01*
X-26647571Y4485765D01*
X-26670671Y4494030D01*
X-26692849Y4504520D01*
X-26713893Y4517133D01*
X-26733598Y4531747D01*
X-26751777Y4548223D01*
X-26768253Y4566402D01*
X-26782867Y4586107D01*
X-26795480Y4607151D01*
X-26805970Y4629329D01*
X-26814235Y4652429D01*
X-26820196Y4676227D01*
X-26823796Y4700496D01*
X-26825000Y4725000D01*
X-26825000Y5225000D01*
X-26823796Y5249504D01*
X-26820196Y5273773D01*
X-26814235Y5297571D01*
X-26805970Y5320671D01*
X-26795480Y5342849D01*
X-26782867Y5363893D01*
X-26768253Y5383598D01*
X-26751777Y5401777D01*
X-26733598Y5418253D01*
X-26713893Y5432867D01*
X-26692849Y5445480D01*
X-26670671Y5455970D01*
X-26647571Y5464235D01*
X-26623773Y5470196D01*
X-26599504Y5473796D01*
X-26575000Y5475000D01*
X-25575000Y5475000D01*
X-25550496Y5473796D01*
X-25550496Y5473796D01*
G37*
D11*
X-26075000Y4975000D03*
D12*
X-26075000Y3375000D03*
X-26075000Y1775000D03*
X-21175000Y4975000D03*
X-21175000Y3375000D03*
X-21175000Y1775000D03*
D10*
G36*
X-18800496Y5473796D02*
G01*
X-18776227Y5470196D01*
X-18752429Y5464235D01*
X-18729329Y5455970D01*
X-18707151Y5445480D01*
X-18686107Y5432867D01*
X-18666402Y5418253D01*
X-18648223Y5401777D01*
X-18631747Y5383598D01*
X-18617133Y5363893D01*
X-18604520Y5342849D01*
X-18594030Y5320671D01*
X-18585765Y5297571D01*
X-18579804Y5273773D01*
X-18576204Y5249504D01*
X-18575000Y5225000D01*
X-18575000Y4725000D01*
X-18576204Y4700496D01*
X-18579804Y4676227D01*
X-18585765Y4652429D01*
X-18594030Y4629329D01*
X-18604520Y4607151D01*
X-18617133Y4586107D01*
X-18631747Y4566402D01*
X-18648223Y4548223D01*
X-18666402Y4531747D01*
X-18686107Y4517133D01*
X-18707151Y4504520D01*
X-18729329Y4494030D01*
X-18752429Y4485765D01*
X-18776227Y4479804D01*
X-18800496Y4476204D01*
X-18825000Y4475000D01*
X-19825000Y4475000D01*
X-19849504Y4476204D01*
X-19873773Y4479804D01*
X-19897571Y4485765D01*
X-19920671Y4494030D01*
X-19942849Y4504520D01*
X-19963893Y4517133D01*
X-19983598Y4531747D01*
X-20001777Y4548223D01*
X-20018253Y4566402D01*
X-20032867Y4586107D01*
X-20045480Y4607151D01*
X-20055970Y4629329D01*
X-20064235Y4652429D01*
X-20070196Y4676227D01*
X-20073796Y4700496D01*
X-20075000Y4725000D01*
X-20075000Y5225000D01*
X-20073796Y5249504D01*
X-20070196Y5273773D01*
X-20064235Y5297571D01*
X-20055970Y5320671D01*
X-20045480Y5342849D01*
X-20032867Y5363893D01*
X-20018253Y5383598D01*
X-20001777Y5401777D01*
X-19983598Y5418253D01*
X-19963893Y5432867D01*
X-19942849Y5445480D01*
X-19920671Y5455970D01*
X-19897571Y5464235D01*
X-19873773Y5470196D01*
X-19849504Y5473796D01*
X-19825000Y5475000D01*
X-18825000Y5475000D01*
X-18800496Y5473796D01*
X-18800496Y5473796D01*
G37*
D11*
X-19325000Y4975000D03*
D12*
X-19325000Y3375000D03*
X-19325000Y1775000D03*
X-14425000Y4975000D03*
X-14425000Y3375000D03*
X-14425000Y1775000D03*
D10*
G36*
X-12050496Y5473796D02*
G01*
X-12026227Y5470196D01*
X-12002429Y5464235D01*
X-11979329Y5455970D01*
X-11957151Y5445480D01*
X-11936107Y5432867D01*
X-11916402Y5418253D01*
X-11898223Y5401777D01*
X-11881747Y5383598D01*
X-11867133Y5363893D01*
X-11854520Y5342849D01*
X-11844030Y5320671D01*
X-11835765Y5297571D01*
X-11829804Y5273773D01*
X-11826204Y5249504D01*
X-11825000Y5225000D01*
X-11825000Y4725000D01*
X-11826204Y4700496D01*
X-11829804Y4676227D01*
X-11835765Y4652429D01*
X-11844030Y4629329D01*
X-11854520Y4607151D01*
X-11867133Y4586107D01*
X-11881747Y4566402D01*
X-11898223Y4548223D01*
X-11916402Y4531747D01*
X-11936107Y4517133D01*
X-11957151Y4504520D01*
X-11979329Y4494030D01*
X-12002429Y4485765D01*
X-12026227Y4479804D01*
X-12050496Y4476204D01*
X-12075000Y4475000D01*
X-13075000Y4475000D01*
X-13099504Y4476204D01*
X-13123773Y4479804D01*
X-13147571Y4485765D01*
X-13170671Y4494030D01*
X-13192849Y4504520D01*
X-13213893Y4517133D01*
X-13233598Y4531747D01*
X-13251777Y4548223D01*
X-13268253Y4566402D01*
X-13282867Y4586107D01*
X-13295480Y4607151D01*
X-13305970Y4629329D01*
X-13314235Y4652429D01*
X-13320196Y4676227D01*
X-13323796Y4700496D01*
X-13325000Y4725000D01*
X-13325000Y5225000D01*
X-13323796Y5249504D01*
X-13320196Y5273773D01*
X-13314235Y5297571D01*
X-13305970Y5320671D01*
X-13295480Y5342849D01*
X-13282867Y5363893D01*
X-13268253Y5383598D01*
X-13251777Y5401777D01*
X-13233598Y5418253D01*
X-13213893Y5432867D01*
X-13192849Y5445480D01*
X-13170671Y5455970D01*
X-13147571Y5464235D01*
X-13123773Y5470196D01*
X-13099504Y5473796D01*
X-13075000Y5475000D01*
X-12075000Y5475000D01*
X-12050496Y5473796D01*
X-12050496Y5473796D01*
G37*
D11*
X-12575000Y4975000D03*
D12*
X-12575000Y3375000D03*
X-12575000Y1775000D03*
X-7675000Y4975000D03*
X-7675000Y3375000D03*
X-7675000Y1775000D03*
D10*
G36*
X-5300496Y5473796D02*
G01*
X-5276227Y5470196D01*
X-5252429Y5464235D01*
X-5229329Y5455970D01*
X-5207151Y5445480D01*
X-5186107Y5432867D01*
X-5166402Y5418253D01*
X-5148223Y5401777D01*
X-5131747Y5383598D01*
X-5117133Y5363893D01*
X-5104520Y5342849D01*
X-5094030Y5320671D01*
X-5085765Y5297571D01*
X-5079804Y5273773D01*
X-5076204Y5249504D01*
X-5075000Y5225000D01*
X-5075000Y4725000D01*
X-5076204Y4700496D01*
X-5079804Y4676227D01*
X-5085765Y4652429D01*
X-5094030Y4629329D01*
X-5104520Y4607151D01*
X-5117133Y4586107D01*
X-5131747Y4566402D01*
X-5148223Y4548223D01*
X-5166402Y4531747D01*
X-5186107Y4517133D01*
X-5207151Y4504520D01*
X-5229329Y4494030D01*
X-5252429Y4485765D01*
X-5276227Y4479804D01*
X-5300496Y4476204D01*
X-5325000Y4475000D01*
X-6325000Y4475000D01*
X-6349504Y4476204D01*
X-6373773Y4479804D01*
X-6397571Y4485765D01*
X-6420671Y4494030D01*
X-6442849Y4504520D01*
X-6463893Y4517133D01*
X-6483598Y4531747D01*
X-6501777Y4548223D01*
X-6518253Y4566402D01*
X-6532867Y4586107D01*
X-6545480Y4607151D01*
X-6555970Y4629329D01*
X-6564235Y4652429D01*
X-6570196Y4676227D01*
X-6573796Y4700496D01*
X-6575000Y4725000D01*
X-6575000Y5225000D01*
X-6573796Y5249504D01*
X-6570196Y5273773D01*
X-6564235Y5297571D01*
X-6555970Y5320671D01*
X-6545480Y5342849D01*
X-6532867Y5363893D01*
X-6518253Y5383598D01*
X-6501777Y5401777D01*
X-6483598Y5418253D01*
X-6463893Y5432867D01*
X-6442849Y5445480D01*
X-6420671Y5455970D01*
X-6397571Y5464235D01*
X-6373773Y5470196D01*
X-6349504Y5473796D01*
X-6325000Y5475000D01*
X-5325000Y5475000D01*
X-5300496Y5473796D01*
X-5300496Y5473796D01*
G37*
D11*
X-5825000Y4975000D03*
D12*
X-5825000Y3375000D03*
X-5825000Y1775000D03*
X-925000Y4975000D03*
X-925000Y3375000D03*
X-925000Y1775000D03*
D10*
G36*
X1449504Y5473796D02*
G01*
X1473773Y5470196D01*
X1497571Y5464235D01*
X1520671Y5455970D01*
X1542849Y5445480D01*
X1563893Y5432867D01*
X1583598Y5418253D01*
X1601777Y5401777D01*
X1618253Y5383598D01*
X1632867Y5363893D01*
X1645480Y5342849D01*
X1655970Y5320671D01*
X1664235Y5297571D01*
X1670196Y5273773D01*
X1673796Y5249504D01*
X1675000Y5225000D01*
X1675000Y4725000D01*
X1673796Y4700496D01*
X1670196Y4676227D01*
X1664235Y4652429D01*
X1655970Y4629329D01*
X1645480Y4607151D01*
X1632867Y4586107D01*
X1618253Y4566402D01*
X1601777Y4548223D01*
X1583598Y4531747D01*
X1563893Y4517133D01*
X1542849Y4504520D01*
X1520671Y4494030D01*
X1497571Y4485765D01*
X1473773Y4479804D01*
X1449504Y4476204D01*
X1425000Y4475000D01*
X425000Y4475000D01*
X400496Y4476204D01*
X376227Y4479804D01*
X352429Y4485765D01*
X329329Y4494030D01*
X307151Y4504520D01*
X286107Y4517133D01*
X266402Y4531747D01*
X248223Y4548223D01*
X231747Y4566402D01*
X217133Y4586107D01*
X204520Y4607151D01*
X194030Y4629329D01*
X185765Y4652429D01*
X179804Y4676227D01*
X176204Y4700496D01*
X175000Y4725000D01*
X175000Y5225000D01*
X176204Y5249504D01*
X179804Y5273773D01*
X185765Y5297571D01*
X194030Y5320671D01*
X204520Y5342849D01*
X217133Y5363893D01*
X231747Y5383598D01*
X248223Y5401777D01*
X266402Y5418253D01*
X286107Y5432867D01*
X307151Y5445480D01*
X329329Y5455970D01*
X352429Y5464235D01*
X376227Y5470196D01*
X400496Y5473796D01*
X425000Y5475000D01*
X1425000Y5475000D01*
X1449504Y5473796D01*
X1449504Y5473796D01*
G37*
D11*
X925000Y4975000D03*
D12*
X925000Y3375000D03*
X925000Y1775000D03*
X5825000Y4975000D03*
X5825000Y3375000D03*
X5825000Y1775000D03*
D10*
G36*
X14949504Y5473796D02*
G01*
X14973773Y5470196D01*
X14997571Y5464235D01*
X15020671Y5455970D01*
X15042849Y5445480D01*
X15063893Y5432867D01*
X15083598Y5418253D01*
X15101777Y5401777D01*
X15118253Y5383598D01*
X15132867Y5363893D01*
X15145480Y5342849D01*
X15155970Y5320671D01*
X15164235Y5297571D01*
X15170196Y5273773D01*
X15173796Y5249504D01*
X15175000Y5225000D01*
X15175000Y4725000D01*
X15173796Y4700496D01*
X15170196Y4676227D01*
X15164235Y4652429D01*
X15155970Y4629329D01*
X15145480Y4607151D01*
X15132867Y4586107D01*
X15118253Y4566402D01*
X15101777Y4548223D01*
X15083598Y4531747D01*
X15063893Y4517133D01*
X15042849Y4504520D01*
X15020671Y4494030D01*
X14997571Y4485765D01*
X14973773Y4479804D01*
X14949504Y4476204D01*
X14925000Y4475000D01*
X13925000Y4475000D01*
X13900496Y4476204D01*
X13876227Y4479804D01*
X13852429Y4485765D01*
X13829329Y4494030D01*
X13807151Y4504520D01*
X13786107Y4517133D01*
X13766402Y4531747D01*
X13748223Y4548223D01*
X13731747Y4566402D01*
X13717133Y4586107D01*
X13704520Y4607151D01*
X13694030Y4629329D01*
X13685765Y4652429D01*
X13679804Y4676227D01*
X13676204Y4700496D01*
X13675000Y4725000D01*
X13675000Y5225000D01*
X13676204Y5249504D01*
X13679804Y5273773D01*
X13685765Y5297571D01*
X13694030Y5320671D01*
X13704520Y5342849D01*
X13717133Y5363893D01*
X13731747Y5383598D01*
X13748223Y5401777D01*
X13766402Y5418253D01*
X13786107Y5432867D01*
X13807151Y5445480D01*
X13829329Y5455970D01*
X13852429Y5464235D01*
X13876227Y5470196D01*
X13900496Y5473796D01*
X13925000Y5475000D01*
X14925000Y5475000D01*
X14949504Y5473796D01*
X14949504Y5473796D01*
G37*
D11*
X14425000Y4975000D03*
D12*
X14425000Y3375000D03*
X14425000Y1775000D03*
X19325000Y4975000D03*
X19325000Y3375000D03*
X19325000Y1775000D03*
D10*
G36*
X21699504Y5473796D02*
G01*
X21723773Y5470196D01*
X21747571Y5464235D01*
X21770671Y5455970D01*
X21792849Y5445480D01*
X21813893Y5432867D01*
X21833598Y5418253D01*
X21851777Y5401777D01*
X21868253Y5383598D01*
X21882867Y5363893D01*
X21895480Y5342849D01*
X21905970Y5320671D01*
X21914235Y5297571D01*
X21920196Y5273773D01*
X21923796Y5249504D01*
X21925000Y5225000D01*
X21925000Y4725000D01*
X21923796Y4700496D01*
X21920196Y4676227D01*
X21914235Y4652429D01*
X21905970Y4629329D01*
X21895480Y4607151D01*
X21882867Y4586107D01*
X21868253Y4566402D01*
X21851777Y4548223D01*
X21833598Y4531747D01*
X21813893Y4517133D01*
X21792849Y4504520D01*
X21770671Y4494030D01*
X21747571Y4485765D01*
X21723773Y4479804D01*
X21699504Y4476204D01*
X21675000Y4475000D01*
X20675000Y4475000D01*
X20650496Y4476204D01*
X20626227Y4479804D01*
X20602429Y4485765D01*
X20579329Y4494030D01*
X20557151Y4504520D01*
X20536107Y4517133D01*
X20516402Y4531747D01*
X20498223Y4548223D01*
X20481747Y4566402D01*
X20467133Y4586107D01*
X20454520Y4607151D01*
X20444030Y4629329D01*
X20435765Y4652429D01*
X20429804Y4676227D01*
X20426204Y4700496D01*
X20425000Y4725000D01*
X20425000Y5225000D01*
X20426204Y5249504D01*
X20429804Y5273773D01*
X20435765Y5297571D01*
X20444030Y5320671D01*
X20454520Y5342849D01*
X20467133Y5363893D01*
X20481747Y5383598D01*
X20498223Y5401777D01*
X20516402Y5418253D01*
X20536107Y5432867D01*
X20557151Y5445480D01*
X20579329Y5455970D01*
X20602429Y5464235D01*
X20626227Y5470196D01*
X20650496Y5473796D01*
X20675000Y5475000D01*
X21675000Y5475000D01*
X21699504Y5473796D01*
X21699504Y5473796D01*
G37*
D11*
X21175000Y4975000D03*
D12*
X21175000Y3375000D03*
X21175000Y1775000D03*
X26075000Y4975000D03*
X26075000Y3375000D03*
X26075000Y1775000D03*
D10*
G36*
X-25550496Y-1276204D02*
G01*
X-25526227Y-1279804D01*
X-25502429Y-1285765D01*
X-25479329Y-1294030D01*
X-25457151Y-1304520D01*
X-25436107Y-1317133D01*
X-25416402Y-1331747D01*
X-25398223Y-1348223D01*
X-25381747Y-1366402D01*
X-25367133Y-1386107D01*
X-25354520Y-1407151D01*
X-25344030Y-1429329D01*
X-25335765Y-1452429D01*
X-25329804Y-1476227D01*
X-25326204Y-1500496D01*
X-25325000Y-1525000D01*
X-25325000Y-2025000D01*
X-25326204Y-2049504D01*
X-25329804Y-2073773D01*
X-25335765Y-2097571D01*
X-25344030Y-2120671D01*
X-25354520Y-2142849D01*
X-25367133Y-2163893D01*
X-25381747Y-2183598D01*
X-25398223Y-2201777D01*
X-25416402Y-2218253D01*
X-25436107Y-2232867D01*
X-25457151Y-2245480D01*
X-25479329Y-2255970D01*
X-25502429Y-2264235D01*
X-25526227Y-2270196D01*
X-25550496Y-2273796D01*
X-25575000Y-2275000D01*
X-26575000Y-2275000D01*
X-26599504Y-2273796D01*
X-26623773Y-2270196D01*
X-26647571Y-2264235D01*
X-26670671Y-2255970D01*
X-26692849Y-2245480D01*
X-26713893Y-2232867D01*
X-26733598Y-2218253D01*
X-26751777Y-2201777D01*
X-26768253Y-2183598D01*
X-26782867Y-2163893D01*
X-26795480Y-2142849D01*
X-26805970Y-2120671D01*
X-26814235Y-2097571D01*
X-26820196Y-2073773D01*
X-26823796Y-2049504D01*
X-26825000Y-2025000D01*
X-26825000Y-1525000D01*
X-26823796Y-1500496D01*
X-26820196Y-1476227D01*
X-26814235Y-1452429D01*
X-26805970Y-1429329D01*
X-26795480Y-1407151D01*
X-26782867Y-1386107D01*
X-26768253Y-1366402D01*
X-26751777Y-1348223D01*
X-26733598Y-1331747D01*
X-26713893Y-1317133D01*
X-26692849Y-1304520D01*
X-26670671Y-1294030D01*
X-26647571Y-1285765D01*
X-26623773Y-1279804D01*
X-26599504Y-1276204D01*
X-26575000Y-1275000D01*
X-25575000Y-1275000D01*
X-25550496Y-1276204D01*
X-25550496Y-1276204D01*
G37*
D11*
X-26075000Y-1775000D03*
D12*
X-26075000Y-3375000D03*
X-26075000Y-4975000D03*
X-21175000Y-1775000D03*
X-21175000Y-3375000D03*
X-21175000Y-4975000D03*
D10*
G36*
X-18800496Y-1276204D02*
G01*
X-18776227Y-1279804D01*
X-18752429Y-1285765D01*
X-18729329Y-1294030D01*
X-18707151Y-1304520D01*
X-18686107Y-1317133D01*
X-18666402Y-1331747D01*
X-18648223Y-1348223D01*
X-18631747Y-1366402D01*
X-18617133Y-1386107D01*
X-18604520Y-1407151D01*
X-18594030Y-1429329D01*
X-18585765Y-1452429D01*
X-18579804Y-1476227D01*
X-18576204Y-1500496D01*
X-18575000Y-1525000D01*
X-18575000Y-2025000D01*
X-18576204Y-2049504D01*
X-18579804Y-2073773D01*
X-18585765Y-2097571D01*
X-18594030Y-2120671D01*
X-18604520Y-2142849D01*
X-18617133Y-2163893D01*
X-18631747Y-2183598D01*
X-18648223Y-2201777D01*
X-18666402Y-2218253D01*
X-18686107Y-2232867D01*
X-18707151Y-2245480D01*
X-18729329Y-2255970D01*
X-18752429Y-2264235D01*
X-18776227Y-2270196D01*
X-18800496Y-2273796D01*
X-18825000Y-2275000D01*
X-19825000Y-2275000D01*
X-19849504Y-2273796D01*
X-19873773Y-2270196D01*
X-19897571Y-2264235D01*
X-19920671Y-2255970D01*
X-19942849Y-2245480D01*
X-19963893Y-2232867D01*
X-19983598Y-2218253D01*
X-20001777Y-2201777D01*
X-20018253Y-2183598D01*
X-20032867Y-2163893D01*
X-20045480Y-2142849D01*
X-20055970Y-2120671D01*
X-20064235Y-2097571D01*
X-20070196Y-2073773D01*
X-20073796Y-2049504D01*
X-20075000Y-2025000D01*
X-20075000Y-1525000D01*
X-20073796Y-1500496D01*
X-20070196Y-1476227D01*
X-20064235Y-1452429D01*
X-20055970Y-1429329D01*
X-20045480Y-1407151D01*
X-20032867Y-1386107D01*
X-20018253Y-1366402D01*
X-20001777Y-1348223D01*
X-19983598Y-1331747D01*
X-19963893Y-1317133D01*
X-19942849Y-1304520D01*
X-19920671Y-1294030D01*
X-19897571Y-1285765D01*
X-19873773Y-1279804D01*
X-19849504Y-1276204D01*
X-19825000Y-1275000D01*
X-18825000Y-1275000D01*
X-18800496Y-1276204D01*
X-18800496Y-1276204D01*
G37*
D11*
X-19325000Y-1775000D03*
D12*
X-19325000Y-3375000D03*
X-19325000Y-4975000D03*
X-14425000Y-1775000D03*
X-14425000Y-3375000D03*
X-14425000Y-4975000D03*
D10*
G36*
X-12050496Y-1276204D02*
G01*
X-12026227Y-1279804D01*
X-12002429Y-1285765D01*
X-11979329Y-1294030D01*
X-11957151Y-1304520D01*
X-11936107Y-1317133D01*
X-11916402Y-1331747D01*
X-11898223Y-1348223D01*
X-11881747Y-1366402D01*
X-11867133Y-1386107D01*
X-11854520Y-1407151D01*
X-11844030Y-1429329D01*
X-11835765Y-1452429D01*
X-11829804Y-1476227D01*
X-11826204Y-1500496D01*
X-11825000Y-1525000D01*
X-11825000Y-2025000D01*
X-11826204Y-2049504D01*
X-11829804Y-2073773D01*
X-11835765Y-2097571D01*
X-11844030Y-2120671D01*
X-11854520Y-2142849D01*
X-11867133Y-2163893D01*
X-11881747Y-2183598D01*
X-11898223Y-2201777D01*
X-11916402Y-2218253D01*
X-11936107Y-2232867D01*
X-11957151Y-2245480D01*
X-11979329Y-2255970D01*
X-12002429Y-2264235D01*
X-12026227Y-2270196D01*
X-12050496Y-2273796D01*
X-12075000Y-2275000D01*
X-13075000Y-2275000D01*
X-13099504Y-2273796D01*
X-13123773Y-2270196D01*
X-13147571Y-2264235D01*
X-13170671Y-2255970D01*
X-13192849Y-2245480D01*
X-13213893Y-2232867D01*
X-13233598Y-2218253D01*
X-13251777Y-2201777D01*
X-13268253Y-2183598D01*
X-13282867Y-2163893D01*
X-13295480Y-2142849D01*
X-13305970Y-2120671D01*
X-13314235Y-2097571D01*
X-13320196Y-2073773D01*
X-13323796Y-2049504D01*
X-13325000Y-2025000D01*
X-13325000Y-1525000D01*
X-13323796Y-1500496D01*
X-13320196Y-1476227D01*
X-13314235Y-1452429D01*
X-13305970Y-1429329D01*
X-13295480Y-1407151D01*
X-13282867Y-1386107D01*
X-13268253Y-1366402D01*
X-13251777Y-1348223D01*
X-13233598Y-1331747D01*
X-13213893Y-1317133D01*
X-13192849Y-1304520D01*
X-13170671Y-1294030D01*
X-13147571Y-1285765D01*
X-13123773Y-1279804D01*
X-13099504Y-1276204D01*
X-13075000Y-1275000D01*
X-12075000Y-1275000D01*
X-12050496Y-1276204D01*
X-12050496Y-1276204D01*
G37*
D11*
X-12575000Y-1775000D03*
D12*
X-12575000Y-3375000D03*
X-12575000Y-4975000D03*
X-7675000Y-1775000D03*
X-7675000Y-3375000D03*
X-7675000Y-4975000D03*
D10*
G36*
X-5300496Y-1276204D02*
G01*
X-5276227Y-1279804D01*
X-5252429Y-1285765D01*
X-5229329Y-1294030D01*
X-5207151Y-1304520D01*
X-5186107Y-1317133D01*
X-5166402Y-1331747D01*
X-5148223Y-1348223D01*
X-5131747Y-1366402D01*
X-5117133Y-1386107D01*
X-5104520Y-1407151D01*
X-5094030Y-1429329D01*
X-5085765Y-1452429D01*
X-5079804Y-1476227D01*
X-5076204Y-1500496D01*
X-5075000Y-1525000D01*
X-5075000Y-2025000D01*
X-5076204Y-2049504D01*
X-5079804Y-2073773D01*
X-5085765Y-2097571D01*
X-5094030Y-2120671D01*
X-5104520Y-2142849D01*
X-5117133Y-2163893D01*
X-5131747Y-2183598D01*
X-5148223Y-2201777D01*
X-5166402Y-2218253D01*
X-5186107Y-2232867D01*
X-5207151Y-2245480D01*
X-5229329Y-2255970D01*
X-5252429Y-2264235D01*
X-5276227Y-2270196D01*
X-5300496Y-2273796D01*
X-5325000Y-2275000D01*
X-6325000Y-2275000D01*
X-6349504Y-2273796D01*
X-6373773Y-2270196D01*
X-6397571Y-2264235D01*
X-6420671Y-2255970D01*
X-6442849Y-2245480D01*
X-6463893Y-2232867D01*
X-6483598Y-2218253D01*
X-6501777Y-2201777D01*
X-6518253Y-2183598D01*
X-6532867Y-2163893D01*
X-6545480Y-2142849D01*
X-6555970Y-2120671D01*
X-6564235Y-2097571D01*
X-6570196Y-2073773D01*
X-6573796Y-2049504D01*
X-6575000Y-2025000D01*
X-6575000Y-1525000D01*
X-6573796Y-1500496D01*
X-6570196Y-1476227D01*
X-6564235Y-1452429D01*
X-6555970Y-1429329D01*
X-6545480Y-1407151D01*
X-6532867Y-1386107D01*
X-6518253Y-1366402D01*
X-6501777Y-1348223D01*
X-6483598Y-1331747D01*
X-6463893Y-1317133D01*
X-6442849Y-1304520D01*
X-6420671Y-1294030D01*
X-6397571Y-1285765D01*
X-6373773Y-1279804D01*
X-6349504Y-1276204D01*
X-6325000Y-1275000D01*
X-5325000Y-1275000D01*
X-5300496Y-1276204D01*
X-5300496Y-1276204D01*
G37*
D11*
X-5825000Y-1775000D03*
D12*
X-5825000Y-3375000D03*
X-5825000Y-4975000D03*
X-925000Y-1775000D03*
X-925000Y-3375000D03*
X-925000Y-4975000D03*
D10*
G36*
X1449504Y-1276204D02*
G01*
X1473773Y-1279804D01*
X1497571Y-1285765D01*
X1520671Y-1294030D01*
X1542849Y-1304520D01*
X1563893Y-1317133D01*
X1583598Y-1331747D01*
X1601777Y-1348223D01*
X1618253Y-1366402D01*
X1632867Y-1386107D01*
X1645480Y-1407151D01*
X1655970Y-1429329D01*
X1664235Y-1452429D01*
X1670196Y-1476227D01*
X1673796Y-1500496D01*
X1675000Y-1525000D01*
X1675000Y-2025000D01*
X1673796Y-2049504D01*
X1670196Y-2073773D01*
X1664235Y-2097571D01*
X1655970Y-2120671D01*
X1645480Y-2142849D01*
X1632867Y-2163893D01*
X1618253Y-2183598D01*
X1601777Y-2201777D01*
X1583598Y-2218253D01*
X1563893Y-2232867D01*
X1542849Y-2245480D01*
X1520671Y-2255970D01*
X1497571Y-2264235D01*
X1473773Y-2270196D01*
X1449504Y-2273796D01*
X1425000Y-2275000D01*
X425000Y-2275000D01*
X400496Y-2273796D01*
X376227Y-2270196D01*
X352429Y-2264235D01*
X329329Y-2255970D01*
X307151Y-2245480D01*
X286107Y-2232867D01*
X266402Y-2218253D01*
X248223Y-2201777D01*
X231747Y-2183598D01*
X217133Y-2163893D01*
X204520Y-2142849D01*
X194030Y-2120671D01*
X185765Y-2097571D01*
X179804Y-2073773D01*
X176204Y-2049504D01*
X175000Y-2025000D01*
X175000Y-1525000D01*
X176204Y-1500496D01*
X179804Y-1476227D01*
X185765Y-1452429D01*
X194030Y-1429329D01*
X204520Y-1407151D01*
X217133Y-1386107D01*
X231747Y-1366402D01*
X248223Y-1348223D01*
X266402Y-1331747D01*
X286107Y-1317133D01*
X307151Y-1304520D01*
X329329Y-1294030D01*
X352429Y-1285765D01*
X376227Y-1279804D01*
X400496Y-1276204D01*
X425000Y-1275000D01*
X1425000Y-1275000D01*
X1449504Y-1276204D01*
X1449504Y-1276204D01*
G37*
D11*
X925000Y-1775000D03*
D12*
X925000Y-3375000D03*
X925000Y-4975000D03*
X5825000Y-1775000D03*
X5825000Y-3375000D03*
X5825000Y-4975000D03*
D10*
G36*
X8199504Y-1276204D02*
G01*
X8223773Y-1279804D01*
X8247571Y-1285765D01*
X8270671Y-1294030D01*
X8292849Y-1304520D01*
X8313893Y-1317133D01*
X8333598Y-1331747D01*
X8351777Y-1348223D01*
X8368253Y-1366402D01*
X8382867Y-1386107D01*
X8395480Y-1407151D01*
X8405970Y-1429329D01*
X8414235Y-1452429D01*
X8420196Y-1476227D01*
X8423796Y-1500496D01*
X8425000Y-1525000D01*
X8425000Y-2025000D01*
X8423796Y-2049504D01*
X8420196Y-2073773D01*
X8414235Y-2097571D01*
X8405970Y-2120671D01*
X8395480Y-2142849D01*
X8382867Y-2163893D01*
X8368253Y-2183598D01*
X8351777Y-2201777D01*
X8333598Y-2218253D01*
X8313893Y-2232867D01*
X8292849Y-2245480D01*
X8270671Y-2255970D01*
X8247571Y-2264235D01*
X8223773Y-2270196D01*
X8199504Y-2273796D01*
X8175000Y-2275000D01*
X7175000Y-2275000D01*
X7150496Y-2273796D01*
X7126227Y-2270196D01*
X7102429Y-2264235D01*
X7079329Y-2255970D01*
X7057151Y-2245480D01*
X7036107Y-2232867D01*
X7016402Y-2218253D01*
X6998223Y-2201777D01*
X6981747Y-2183598D01*
X6967133Y-2163893D01*
X6954520Y-2142849D01*
X6944030Y-2120671D01*
X6935765Y-2097571D01*
X6929804Y-2073773D01*
X6926204Y-2049504D01*
X6925000Y-2025000D01*
X6925000Y-1525000D01*
X6926204Y-1500496D01*
X6929804Y-1476227D01*
X6935765Y-1452429D01*
X6944030Y-1429329D01*
X6954520Y-1407151D01*
X6967133Y-1386107D01*
X6981747Y-1366402D01*
X6998223Y-1348223D01*
X7016402Y-1331747D01*
X7036107Y-1317133D01*
X7057151Y-1304520D01*
X7079329Y-1294030D01*
X7102429Y-1285765D01*
X7126227Y-1279804D01*
X7150496Y-1276204D01*
X7175000Y-1275000D01*
X8175000Y-1275000D01*
X8199504Y-1276204D01*
X8199504Y-1276204D01*
G37*
D11*
X7675000Y-1775000D03*
D12*
X7675000Y-3375000D03*
X7675000Y-4975000D03*
X12575000Y-1775000D03*
X12575000Y-3375000D03*
X12575000Y-4975000D03*
D10*
G36*
X14949504Y-1276204D02*
G01*
X14973773Y-1279804D01*
X14997571Y-1285765D01*
X15020671Y-1294030D01*
X15042849Y-1304520D01*
X15063893Y-1317133D01*
X15083598Y-1331747D01*
X15101777Y-1348223D01*
X15118253Y-1366402D01*
X15132867Y-1386107D01*
X15145480Y-1407151D01*
X15155970Y-1429329D01*
X15164235Y-1452429D01*
X15170196Y-1476227D01*
X15173796Y-1500496D01*
X15175000Y-1525000D01*
X15175000Y-2025000D01*
X15173796Y-2049504D01*
X15170196Y-2073773D01*
X15164235Y-2097571D01*
X15155970Y-2120671D01*
X15145480Y-2142849D01*
X15132867Y-2163893D01*
X15118253Y-2183598D01*
X15101777Y-2201777D01*
X15083598Y-2218253D01*
X15063893Y-2232867D01*
X15042849Y-2245480D01*
X15020671Y-2255970D01*
X14997571Y-2264235D01*
X14973773Y-2270196D01*
X14949504Y-2273796D01*
X14925000Y-2275000D01*
X13925000Y-2275000D01*
X13900496Y-2273796D01*
X13876227Y-2270196D01*
X13852429Y-2264235D01*
X13829329Y-2255970D01*
X13807151Y-2245480D01*
X13786107Y-2232867D01*
X13766402Y-2218253D01*
X13748223Y-2201777D01*
X13731747Y-2183598D01*
X13717133Y-2163893D01*
X13704520Y-2142849D01*
X13694030Y-2120671D01*
X13685765Y-2097571D01*
X13679804Y-2073773D01*
X13676204Y-2049504D01*
X13675000Y-2025000D01*
X13675000Y-1525000D01*
X13676204Y-1500496D01*
X13679804Y-1476227D01*
X13685765Y-1452429D01*
X13694030Y-1429329D01*
X13704520Y-1407151D01*
X13717133Y-1386107D01*
X13731747Y-1366402D01*
X13748223Y-1348223D01*
X13766402Y-1331747D01*
X13786107Y-1317133D01*
X13807151Y-1304520D01*
X13829329Y-1294030D01*
X13852429Y-1285765D01*
X13876227Y-1279804D01*
X13900496Y-1276204D01*
X13925000Y-1275000D01*
X14925000Y-1275000D01*
X14949504Y-1276204D01*
X14949504Y-1276204D01*
G37*
D11*
X14425000Y-1775000D03*
D12*
X14425000Y-3375000D03*
X14425000Y-4975000D03*
X19325000Y-1775000D03*
X19325000Y-3375000D03*
X19325000Y-4975000D03*
D10*
G36*
X21699504Y-1276204D02*
G01*
X21723773Y-1279804D01*
X21747571Y-1285765D01*
X21770671Y-1294030D01*
X21792849Y-1304520D01*
X21813893Y-1317133D01*
X21833598Y-1331747D01*
X21851777Y-1348223D01*
X21868253Y-1366402D01*
X21882867Y-1386107D01*
X21895480Y-1407151D01*
X21905970Y-1429329D01*
X21914235Y-1452429D01*
X21920196Y-1476227D01*
X21923796Y-1500496D01*
X21925000Y-1525000D01*
X21925000Y-2025000D01*
X21923796Y-2049504D01*
X21920196Y-2073773D01*
X21914235Y-2097571D01*
X21905970Y-2120671D01*
X21895480Y-2142849D01*
X21882867Y-2163893D01*
X21868253Y-2183598D01*
X21851777Y-2201777D01*
X21833598Y-2218253D01*
X21813893Y-2232867D01*
X21792849Y-2245480D01*
X21770671Y-2255970D01*
X21747571Y-2264235D01*
X21723773Y-2270196D01*
X21699504Y-2273796D01*
X21675000Y-2275000D01*
X20675000Y-2275000D01*
X20650496Y-2273796D01*
X20626227Y-2270196D01*
X20602429Y-2264235D01*
X20579329Y-2255970D01*
X20557151Y-2245480D01*
X20536107Y-2232867D01*
X20516402Y-2218253D01*
X20498223Y-2201777D01*
X20481747Y-2183598D01*
X20467133Y-2163893D01*
X20454520Y-2142849D01*
X20444030Y-2120671D01*
X20435765Y-2097571D01*
X20429804Y-2073773D01*
X20426204Y-2049504D01*
X20425000Y-2025000D01*
X20425000Y-1525000D01*
X20426204Y-1500496D01*
X20429804Y-1476227D01*
X20435765Y-1452429D01*
X20444030Y-1429329D01*
X20454520Y-1407151D01*
X20467133Y-1386107D01*
X20481747Y-1366402D01*
X20498223Y-1348223D01*
X20516402Y-1331747D01*
X20536107Y-1317133D01*
X20557151Y-1304520D01*
X20579329Y-1294030D01*
X20602429Y-1285765D01*
X20626227Y-1279804D01*
X20650496Y-1276204D01*
X20675000Y-1275000D01*
X21675000Y-1275000D01*
X21699504Y-1276204D01*
X21699504Y-1276204D01*
G37*
D11*
X21175000Y-1775000D03*
D12*
X21175000Y-3375000D03*
X21175000Y-4975000D03*
X26075000Y-1775000D03*
X26075000Y-3375000D03*
X26075000Y-4975000D03*
D10*
G36*
X-25550496Y-8026204D02*
G01*
X-25526227Y-8029804D01*
X-25502429Y-8035765D01*
X-25479329Y-8044030D01*
X-25457151Y-8054520D01*
X-25436107Y-8067133D01*
X-25416402Y-8081747D01*
X-25398223Y-8098223D01*
X-25381747Y-8116402D01*
X-25367133Y-8136107D01*
X-25354520Y-8157151D01*
X-25344030Y-8179329D01*
X-25335765Y-8202429D01*
X-25329804Y-8226227D01*
X-25326204Y-8250496D01*
X-25325000Y-8275000D01*
X-25325000Y-8775000D01*
X-25326204Y-8799504D01*
X-25329804Y-8823773D01*
X-25335765Y-8847571D01*
X-25344030Y-8870671D01*
X-25354520Y-8892849D01*
X-25367133Y-8913893D01*
X-25381747Y-8933598D01*
X-25398223Y-8951777D01*
X-25416402Y-8968253D01*
X-25436107Y-8982867D01*
X-25457151Y-8995480D01*
X-25479329Y-9005970D01*
X-25502429Y-9014235D01*
X-25526227Y-9020196D01*
X-25550496Y-9023796D01*
X-25575000Y-9025000D01*
X-26575000Y-9025000D01*
X-26599504Y-9023796D01*
X-26623773Y-9020196D01*
X-26647571Y-9014235D01*
X-26670671Y-9005970D01*
X-26692849Y-8995480D01*
X-26713893Y-8982867D01*
X-26733598Y-8968253D01*
X-26751777Y-8951777D01*
X-26768253Y-8933598D01*
X-26782867Y-8913893D01*
X-26795480Y-8892849D01*
X-26805970Y-8870671D01*
X-26814235Y-8847571D01*
X-26820196Y-8823773D01*
X-26823796Y-8799504D01*
X-26825000Y-8775000D01*
X-26825000Y-8275000D01*
X-26823796Y-8250496D01*
X-26820196Y-8226227D01*
X-26814235Y-8202429D01*
X-26805970Y-8179329D01*
X-26795480Y-8157151D01*
X-26782867Y-8136107D01*
X-26768253Y-8116402D01*
X-26751777Y-8098223D01*
X-26733598Y-8081747D01*
X-26713893Y-8067133D01*
X-26692849Y-8054520D01*
X-26670671Y-8044030D01*
X-26647571Y-8035765D01*
X-26623773Y-8029804D01*
X-26599504Y-8026204D01*
X-26575000Y-8025000D01*
X-25575000Y-8025000D01*
X-25550496Y-8026204D01*
X-25550496Y-8026204D01*
G37*
D11*
X-26075000Y-8525000D03*
D12*
X-26075000Y-10125000D03*
X-26075000Y-11725000D03*
X-21175000Y-8525000D03*
X-21175000Y-10125000D03*
X-21175000Y-11725000D03*
D10*
G36*
X-18800496Y-8026204D02*
G01*
X-18776227Y-8029804D01*
X-18752429Y-8035765D01*
X-18729329Y-8044030D01*
X-18707151Y-8054520D01*
X-18686107Y-8067133D01*
X-18666402Y-8081747D01*
X-18648223Y-8098223D01*
X-18631747Y-8116402D01*
X-18617133Y-8136107D01*
X-18604520Y-8157151D01*
X-18594030Y-8179329D01*
X-18585765Y-8202429D01*
X-18579804Y-8226227D01*
X-18576204Y-8250496D01*
X-18575000Y-8275000D01*
X-18575000Y-8775000D01*
X-18576204Y-8799504D01*
X-18579804Y-8823773D01*
X-18585765Y-8847571D01*
X-18594030Y-8870671D01*
X-18604520Y-8892849D01*
X-18617133Y-8913893D01*
X-18631747Y-8933598D01*
X-18648223Y-8951777D01*
X-18666402Y-8968253D01*
X-18686107Y-8982867D01*
X-18707151Y-8995480D01*
X-18729329Y-9005970D01*
X-18752429Y-9014235D01*
X-18776227Y-9020196D01*
X-18800496Y-9023796D01*
X-18825000Y-9025000D01*
X-19825000Y-9025000D01*
X-19849504Y-9023796D01*
X-19873773Y-9020196D01*
X-19897571Y-9014235D01*
X-19920671Y-9005970D01*
X-19942849Y-8995480D01*
X-19963893Y-8982867D01*
X-19983598Y-8968253D01*
X-20001777Y-8951777D01*
X-20018253Y-8933598D01*
X-20032867Y-8913893D01*
X-20045480Y-8892849D01*
X-20055970Y-8870671D01*
X-20064235Y-8847571D01*
X-20070196Y-8823773D01*
X-20073796Y-8799504D01*
X-20075000Y-8775000D01*
X-20075000Y-8275000D01*
X-20073796Y-8250496D01*
X-20070196Y-8226227D01*
X-20064235Y-8202429D01*
X-20055970Y-8179329D01*
X-20045480Y-8157151D01*
X-20032867Y-8136107D01*
X-20018253Y-8116402D01*
X-20001777Y-8098223D01*
X-19983598Y-8081747D01*
X-19963893Y-8067133D01*
X-19942849Y-8054520D01*
X-19920671Y-8044030D01*
X-19897571Y-8035765D01*
X-19873773Y-8029804D01*
X-19849504Y-8026204D01*
X-19825000Y-8025000D01*
X-18825000Y-8025000D01*
X-18800496Y-8026204D01*
X-18800496Y-8026204D01*
G37*
D11*
X-19325000Y-8525000D03*
D12*
X-19325000Y-10125000D03*
X-19325000Y-11725000D03*
X-14425000Y-8525000D03*
X-14425000Y-10125000D03*
X-14425000Y-11725000D03*
D10*
G36*
X-12050496Y-8026204D02*
G01*
X-12026227Y-8029804D01*
X-12002429Y-8035765D01*
X-11979329Y-8044030D01*
X-11957151Y-8054520D01*
X-11936107Y-8067133D01*
X-11916402Y-8081747D01*
X-11898223Y-8098223D01*
X-11881747Y-8116402D01*
X-11867133Y-8136107D01*
X-11854520Y-8157151D01*
X-11844030Y-8179329D01*
X-11835765Y-8202429D01*
X-11829804Y-8226227D01*
X-11826204Y-8250496D01*
X-11825000Y-8275000D01*
X-11825000Y-8775000D01*
X-11826204Y-8799504D01*
X-11829804Y-8823773D01*
X-11835765Y-8847571D01*
X-11844030Y-8870671D01*
X-11854520Y-8892849D01*
X-11867133Y-8913893D01*
X-11881747Y-8933598D01*
X-11898223Y-8951777D01*
X-11916402Y-8968253D01*
X-11936107Y-8982867D01*
X-11957151Y-8995480D01*
X-11979329Y-9005970D01*
X-12002429Y-9014235D01*
X-12026227Y-9020196D01*
X-12050496Y-9023796D01*
X-12075000Y-9025000D01*
X-13075000Y-9025000D01*
X-13099504Y-9023796D01*
X-13123773Y-9020196D01*
X-13147571Y-9014235D01*
X-13170671Y-9005970D01*
X-13192849Y-8995480D01*
X-13213893Y-8982867D01*
X-13233598Y-8968253D01*
X-13251777Y-8951777D01*
X-13268253Y-8933598D01*
X-13282867Y-8913893D01*
X-13295480Y-8892849D01*
X-13305970Y-8870671D01*
X-13314235Y-8847571D01*
X-13320196Y-8823773D01*
X-13323796Y-8799504D01*
X-13325000Y-8775000D01*
X-13325000Y-8275000D01*
X-13323796Y-8250496D01*
X-13320196Y-8226227D01*
X-13314235Y-8202429D01*
X-13305970Y-8179329D01*
X-13295480Y-8157151D01*
X-13282867Y-8136107D01*
X-13268253Y-8116402D01*
X-13251777Y-8098223D01*
X-13233598Y-8081747D01*
X-13213893Y-8067133D01*
X-13192849Y-8054520D01*
X-13170671Y-8044030D01*
X-13147571Y-8035765D01*
X-13123773Y-8029804D01*
X-13099504Y-8026204D01*
X-13075000Y-8025000D01*
X-12075000Y-8025000D01*
X-12050496Y-8026204D01*
X-12050496Y-8026204D01*
G37*
D11*
X-12575000Y-8525000D03*
D12*
X-12575000Y-10125000D03*
X-12575000Y-11725000D03*
X-7675000Y-8525000D03*
X-7675000Y-10125000D03*
X-7675000Y-11725000D03*
D10*
G36*
X-5300496Y-8026204D02*
G01*
X-5276227Y-8029804D01*
X-5252429Y-8035765D01*
X-5229329Y-8044030D01*
X-5207151Y-8054520D01*
X-5186107Y-8067133D01*
X-5166402Y-8081747D01*
X-5148223Y-8098223D01*
X-5131747Y-8116402D01*
X-5117133Y-8136107D01*
X-5104520Y-8157151D01*
X-5094030Y-8179329D01*
X-5085765Y-8202429D01*
X-5079804Y-8226227D01*
X-5076204Y-8250496D01*
X-5075000Y-8275000D01*
X-5075000Y-8775000D01*
X-5076204Y-8799504D01*
X-5079804Y-8823773D01*
X-5085765Y-8847571D01*
X-5094030Y-8870671D01*
X-5104520Y-8892849D01*
X-5117133Y-8913893D01*
X-5131747Y-8933598D01*
X-5148223Y-8951777D01*
X-5166402Y-8968253D01*
X-5186107Y-8982867D01*
X-5207151Y-8995480D01*
X-5229329Y-9005970D01*
X-5252429Y-9014235D01*
X-5276227Y-9020196D01*
X-5300496Y-9023796D01*
X-5325000Y-9025000D01*
X-6325000Y-9025000D01*
X-6349504Y-9023796D01*
X-6373773Y-9020196D01*
X-6397571Y-9014235D01*
X-6420671Y-9005970D01*
X-6442849Y-8995480D01*
X-6463893Y-8982867D01*
X-6483598Y-8968253D01*
X-6501777Y-8951777D01*
X-6518253Y-8933598D01*
X-6532867Y-8913893D01*
X-6545480Y-8892849D01*
X-6555970Y-8870671D01*
X-6564235Y-8847571D01*
X-6570196Y-8823773D01*
X-6573796Y-8799504D01*
X-6575000Y-8775000D01*
X-6575000Y-8275000D01*
X-6573796Y-8250496D01*
X-6570196Y-8226227D01*
X-6564235Y-8202429D01*
X-6555970Y-8179329D01*
X-6545480Y-8157151D01*
X-6532867Y-8136107D01*
X-6518253Y-8116402D01*
X-6501777Y-8098223D01*
X-6483598Y-8081747D01*
X-6463893Y-8067133D01*
X-6442849Y-8054520D01*
X-6420671Y-8044030D01*
X-6397571Y-8035765D01*
X-6373773Y-8029804D01*
X-6349504Y-8026204D01*
X-6325000Y-8025000D01*
X-5325000Y-8025000D01*
X-5300496Y-8026204D01*
X-5300496Y-8026204D01*
G37*
D11*
X-5825000Y-8525000D03*
D12*
X-5825000Y-10125000D03*
X-5825000Y-11725000D03*
X-925000Y-8525000D03*
X-925000Y-10125000D03*
X-925000Y-11725000D03*
D10*
G36*
X1449504Y-8026204D02*
G01*
X1473773Y-8029804D01*
X1497571Y-8035765D01*
X1520671Y-8044030D01*
X1542849Y-8054520D01*
X1563893Y-8067133D01*
X1583598Y-8081747D01*
X1601777Y-8098223D01*
X1618253Y-8116402D01*
X1632867Y-8136107D01*
X1645480Y-8157151D01*
X1655970Y-8179329D01*
X1664235Y-8202429D01*
X1670196Y-8226227D01*
X1673796Y-8250496D01*
X1675000Y-8275000D01*
X1675000Y-8775000D01*
X1673796Y-8799504D01*
X1670196Y-8823773D01*
X1664235Y-8847571D01*
X1655970Y-8870671D01*
X1645480Y-8892849D01*
X1632867Y-8913893D01*
X1618253Y-8933598D01*
X1601777Y-8951777D01*
X1583598Y-8968253D01*
X1563893Y-8982867D01*
X1542849Y-8995480D01*
X1520671Y-9005970D01*
X1497571Y-9014235D01*
X1473773Y-9020196D01*
X1449504Y-9023796D01*
X1425000Y-9025000D01*
X425000Y-9025000D01*
X400496Y-9023796D01*
X376227Y-9020196D01*
X352429Y-9014235D01*
X329329Y-9005970D01*
X307151Y-8995480D01*
X286107Y-8982867D01*
X266402Y-8968253D01*
X248223Y-8951777D01*
X231747Y-8933598D01*
X217133Y-8913893D01*
X204520Y-8892849D01*
X194030Y-8870671D01*
X185765Y-8847571D01*
X179804Y-8823773D01*
X176204Y-8799504D01*
X175000Y-8775000D01*
X175000Y-8275000D01*
X176204Y-8250496D01*
X179804Y-8226227D01*
X185765Y-8202429D01*
X194030Y-8179329D01*
X204520Y-8157151D01*
X217133Y-8136107D01*
X231747Y-8116402D01*
X248223Y-8098223D01*
X266402Y-8081747D01*
X286107Y-8067133D01*
X307151Y-8054520D01*
X329329Y-8044030D01*
X352429Y-8035765D01*
X376227Y-8029804D01*
X400496Y-8026204D01*
X425000Y-8025000D01*
X1425000Y-8025000D01*
X1449504Y-8026204D01*
X1449504Y-8026204D01*
G37*
D11*
X925000Y-8525000D03*
D12*
X925000Y-10125000D03*
X925000Y-11725000D03*
X5825000Y-8525000D03*
X5825000Y-10125000D03*
X5825000Y-11725000D03*
D10*
G36*
X8199504Y-8026204D02*
G01*
X8223773Y-8029804D01*
X8247571Y-8035765D01*
X8270671Y-8044030D01*
X8292849Y-8054520D01*
X8313893Y-8067133D01*
X8333598Y-8081747D01*
X8351777Y-8098223D01*
X8368253Y-8116402D01*
X8382867Y-8136107D01*
X8395480Y-8157151D01*
X8405970Y-8179329D01*
X8414235Y-8202429D01*
X8420196Y-8226227D01*
X8423796Y-8250496D01*
X8425000Y-8275000D01*
X8425000Y-8775000D01*
X8423796Y-8799504D01*
X8420196Y-8823773D01*
X8414235Y-8847571D01*
X8405970Y-8870671D01*
X8395480Y-8892849D01*
X8382867Y-8913893D01*
X8368253Y-8933598D01*
X8351777Y-8951777D01*
X8333598Y-8968253D01*
X8313893Y-8982867D01*
X8292849Y-8995480D01*
X8270671Y-9005970D01*
X8247571Y-9014235D01*
X8223773Y-9020196D01*
X8199504Y-9023796D01*
X8175000Y-9025000D01*
X7175000Y-9025000D01*
X7150496Y-9023796D01*
X7126227Y-9020196D01*
X7102429Y-9014235D01*
X7079329Y-9005970D01*
X7057151Y-8995480D01*
X7036107Y-8982867D01*
X7016402Y-8968253D01*
X6998223Y-8951777D01*
X6981747Y-8933598D01*
X6967133Y-8913893D01*
X6954520Y-8892849D01*
X6944030Y-8870671D01*
X6935765Y-8847571D01*
X6929804Y-8823773D01*
X6926204Y-8799504D01*
X6925000Y-8775000D01*
X6925000Y-8275000D01*
X6926204Y-8250496D01*
X6929804Y-8226227D01*
X6935765Y-8202429D01*
X6944030Y-8179329D01*
X6954520Y-8157151D01*
X6967133Y-8136107D01*
X6981747Y-8116402D01*
X6998223Y-8098223D01*
X7016402Y-8081747D01*
X7036107Y-8067133D01*
X7057151Y-8054520D01*
X7079329Y-8044030D01*
X7102429Y-8035765D01*
X7126227Y-8029804D01*
X7150496Y-8026204D01*
X7175000Y-8025000D01*
X8175000Y-8025000D01*
X8199504Y-8026204D01*
X8199504Y-8026204D01*
G37*
D11*
X7675000Y-8525000D03*
D12*
X7675000Y-10125000D03*
X7675000Y-11725000D03*
X12575000Y-8525000D03*
X12575000Y-10125000D03*
X12575000Y-11725000D03*
D10*
G36*
X14949504Y-8026204D02*
G01*
X14973773Y-8029804D01*
X14997571Y-8035765D01*
X15020671Y-8044030D01*
X15042849Y-8054520D01*
X15063893Y-8067133D01*
X15083598Y-8081747D01*
X15101777Y-8098223D01*
X15118253Y-8116402D01*
X15132867Y-8136107D01*
X15145480Y-8157151D01*
X15155970Y-8179329D01*
X15164235Y-8202429D01*
X15170196Y-8226227D01*
X15173796Y-8250496D01*
X15175000Y-8275000D01*
X15175000Y-8775000D01*
X15173796Y-8799504D01*
X15170196Y-8823773D01*
X15164235Y-8847571D01*
X15155970Y-8870671D01*
X15145480Y-8892849D01*
X15132867Y-8913893D01*
X15118253Y-8933598D01*
X15101777Y-8951777D01*
X15083598Y-8968253D01*
X15063893Y-8982867D01*
X15042849Y-8995480D01*
X15020671Y-9005970D01*
X14997571Y-9014235D01*
X14973773Y-9020196D01*
X14949504Y-9023796D01*
X14925000Y-9025000D01*
X13925000Y-9025000D01*
X13900496Y-9023796D01*
X13876227Y-9020196D01*
X13852429Y-9014235D01*
X13829329Y-9005970D01*
X13807151Y-8995480D01*
X13786107Y-8982867D01*
X13766402Y-8968253D01*
X13748223Y-8951777D01*
X13731747Y-8933598D01*
X13717133Y-8913893D01*
X13704520Y-8892849D01*
X13694030Y-8870671D01*
X13685765Y-8847571D01*
X13679804Y-8823773D01*
X13676204Y-8799504D01*
X13675000Y-8775000D01*
X13675000Y-8275000D01*
X13676204Y-8250496D01*
X13679804Y-8226227D01*
X13685765Y-8202429D01*
X13694030Y-8179329D01*
X13704520Y-8157151D01*
X13717133Y-8136107D01*
X13731747Y-8116402D01*
X13748223Y-8098223D01*
X13766402Y-8081747D01*
X13786107Y-8067133D01*
X13807151Y-8054520D01*
X13829329Y-8044030D01*
X13852429Y-8035765D01*
X13876227Y-8029804D01*
X13900496Y-8026204D01*
X13925000Y-8025000D01*
X14925000Y-8025000D01*
X14949504Y-8026204D01*
X14949504Y-8026204D01*
G37*
D11*
X14425000Y-8525000D03*
D12*
X14425000Y-10125000D03*
X14425000Y-11725000D03*
X19325000Y-8525000D03*
X19325000Y-10125000D03*
X19325000Y-11725000D03*
D10*
G36*
X21699504Y-8026204D02*
G01*
X21723773Y-8029804D01*
X21747571Y-8035765D01*
X21770671Y-8044030D01*
X21792849Y-8054520D01*
X21813893Y-8067133D01*
X21833598Y-8081747D01*
X21851777Y-8098223D01*
X21868253Y-8116402D01*
X21882867Y-8136107D01*
X21895480Y-8157151D01*
X21905970Y-8179329D01*
X21914235Y-8202429D01*
X21920196Y-8226227D01*
X21923796Y-8250496D01*
X21925000Y-8275000D01*
X21925000Y-8775000D01*
X21923796Y-8799504D01*
X21920196Y-8823773D01*
X21914235Y-8847571D01*
X21905970Y-8870671D01*
X21895480Y-8892849D01*
X21882867Y-8913893D01*
X21868253Y-8933598D01*
X21851777Y-8951777D01*
X21833598Y-8968253D01*
X21813893Y-8982867D01*
X21792849Y-8995480D01*
X21770671Y-9005970D01*
X21747571Y-9014235D01*
X21723773Y-9020196D01*
X21699504Y-9023796D01*
X21675000Y-9025000D01*
X20675000Y-9025000D01*
X20650496Y-9023796D01*
X20626227Y-9020196D01*
X20602429Y-9014235D01*
X20579329Y-9005970D01*
X20557151Y-8995480D01*
X20536107Y-8982867D01*
X20516402Y-8968253D01*
X20498223Y-8951777D01*
X20481747Y-8933598D01*
X20467133Y-8913893D01*
X20454520Y-8892849D01*
X20444030Y-8870671D01*
X20435765Y-8847571D01*
X20429804Y-8823773D01*
X20426204Y-8799504D01*
X20425000Y-8775000D01*
X20425000Y-8275000D01*
X20426204Y-8250496D01*
X20429804Y-8226227D01*
X20435765Y-8202429D01*
X20444030Y-8179329D01*
X20454520Y-8157151D01*
X20467133Y-8136107D01*
X20481747Y-8116402D01*
X20498223Y-8098223D01*
X20516402Y-8081747D01*
X20536107Y-8067133D01*
X20557151Y-8054520D01*
X20579329Y-8044030D01*
X20602429Y-8035765D01*
X20626227Y-8029804D01*
X20650496Y-8026204D01*
X20675000Y-8025000D01*
X21675000Y-8025000D01*
X21699504Y-8026204D01*
X21699504Y-8026204D01*
G37*
D11*
X21175000Y-8525000D03*
D12*
X21175000Y-10125000D03*
X21175000Y-11725000D03*
X26075000Y-8525000D03*
X26075000Y-10125000D03*
X26075000Y-11725000D03*
D10*
G36*
X-25550496Y-14776204D02*
G01*
X-25526227Y-14779804D01*
X-25502429Y-14785765D01*
X-25479329Y-14794030D01*
X-25457151Y-14804520D01*
X-25436107Y-14817133D01*
X-25416402Y-14831747D01*
X-25398223Y-14848223D01*
X-25381747Y-14866402D01*
X-25367133Y-14886107D01*
X-25354520Y-14907151D01*
X-25344030Y-14929329D01*
X-25335765Y-14952429D01*
X-25329804Y-14976227D01*
X-25326204Y-15000496D01*
X-25325000Y-15025000D01*
X-25325000Y-15525000D01*
X-25326204Y-15549504D01*
X-25329804Y-15573773D01*
X-25335765Y-15597571D01*
X-25344030Y-15620671D01*
X-25354520Y-15642849D01*
X-25367133Y-15663893D01*
X-25381747Y-15683598D01*
X-25398223Y-15701777D01*
X-25416402Y-15718253D01*
X-25436107Y-15732867D01*
X-25457151Y-15745480D01*
X-25479329Y-15755970D01*
X-25502429Y-15764235D01*
X-25526227Y-15770196D01*
X-25550496Y-15773796D01*
X-25575000Y-15775000D01*
X-26575000Y-15775000D01*
X-26599504Y-15773796D01*
X-26623773Y-15770196D01*
X-26647571Y-15764235D01*
X-26670671Y-15755970D01*
X-26692849Y-15745480D01*
X-26713893Y-15732867D01*
X-26733598Y-15718253D01*
X-26751777Y-15701777D01*
X-26768253Y-15683598D01*
X-26782867Y-15663893D01*
X-26795480Y-15642849D01*
X-26805970Y-15620671D01*
X-26814235Y-15597571D01*
X-26820196Y-15573773D01*
X-26823796Y-15549504D01*
X-26825000Y-15525000D01*
X-26825000Y-15025000D01*
X-26823796Y-15000496D01*
X-26820196Y-14976227D01*
X-26814235Y-14952429D01*
X-26805970Y-14929329D01*
X-26795480Y-14907151D01*
X-26782867Y-14886107D01*
X-26768253Y-14866402D01*
X-26751777Y-14848223D01*
X-26733598Y-14831747D01*
X-26713893Y-14817133D01*
X-26692849Y-14804520D01*
X-26670671Y-14794030D01*
X-26647571Y-14785765D01*
X-26623773Y-14779804D01*
X-26599504Y-14776204D01*
X-26575000Y-14775000D01*
X-25575000Y-14775000D01*
X-25550496Y-14776204D01*
X-25550496Y-14776204D01*
G37*
D11*
X-26075000Y-15275000D03*
D12*
X-26075000Y-16875000D03*
X-26075000Y-18475000D03*
X-21175000Y-15275000D03*
X-21175000Y-16875000D03*
X-21175000Y-18475000D03*
D10*
G36*
X-18800496Y-14776204D02*
G01*
X-18776227Y-14779804D01*
X-18752429Y-14785765D01*
X-18729329Y-14794030D01*
X-18707151Y-14804520D01*
X-18686107Y-14817133D01*
X-18666402Y-14831747D01*
X-18648223Y-14848223D01*
X-18631747Y-14866402D01*
X-18617133Y-14886107D01*
X-18604520Y-14907151D01*
X-18594030Y-14929329D01*
X-18585765Y-14952429D01*
X-18579804Y-14976227D01*
X-18576204Y-15000496D01*
X-18575000Y-15025000D01*
X-18575000Y-15525000D01*
X-18576204Y-15549504D01*
X-18579804Y-15573773D01*
X-18585765Y-15597571D01*
X-18594030Y-15620671D01*
X-18604520Y-15642849D01*
X-18617133Y-15663893D01*
X-18631747Y-15683598D01*
X-18648223Y-15701777D01*
X-18666402Y-15718253D01*
X-18686107Y-15732867D01*
X-18707151Y-15745480D01*
X-18729329Y-15755970D01*
X-18752429Y-15764235D01*
X-18776227Y-15770196D01*
X-18800496Y-15773796D01*
X-18825000Y-15775000D01*
X-19825000Y-15775000D01*
X-19849504Y-15773796D01*
X-19873773Y-15770196D01*
X-19897571Y-15764235D01*
X-19920671Y-15755970D01*
X-19942849Y-15745480D01*
X-19963893Y-15732867D01*
X-19983598Y-15718253D01*
X-20001777Y-15701777D01*
X-20018253Y-15683598D01*
X-20032867Y-15663893D01*
X-20045480Y-15642849D01*
X-20055970Y-15620671D01*
X-20064235Y-15597571D01*
X-20070196Y-15573773D01*
X-20073796Y-15549504D01*
X-20075000Y-15525000D01*
X-20075000Y-15025000D01*
X-20073796Y-15000496D01*
X-20070196Y-14976227D01*
X-20064235Y-14952429D01*
X-20055970Y-14929329D01*
X-20045480Y-14907151D01*
X-20032867Y-14886107D01*
X-20018253Y-14866402D01*
X-20001777Y-14848223D01*
X-19983598Y-14831747D01*
X-19963893Y-14817133D01*
X-19942849Y-14804520D01*
X-19920671Y-14794030D01*
X-19897571Y-14785765D01*
X-19873773Y-14779804D01*
X-19849504Y-14776204D01*
X-19825000Y-14775000D01*
X-18825000Y-14775000D01*
X-18800496Y-14776204D01*
X-18800496Y-14776204D01*
G37*
D11*
X-19325000Y-15275000D03*
D12*
X-19325000Y-16875000D03*
X-19325000Y-18475000D03*
X-14425000Y-15275000D03*
X-14425000Y-16875000D03*
X-14425000Y-18475000D03*
D10*
G36*
X-12050496Y-14776204D02*
G01*
X-12026227Y-14779804D01*
X-12002429Y-14785765D01*
X-11979329Y-14794030D01*
X-11957151Y-14804520D01*
X-11936107Y-14817133D01*
X-11916402Y-14831747D01*
X-11898223Y-14848223D01*
X-11881747Y-14866402D01*
X-11867133Y-14886107D01*
X-11854520Y-14907151D01*
X-11844030Y-14929329D01*
X-11835765Y-14952429D01*
X-11829804Y-14976227D01*
X-11826204Y-15000496D01*
X-11825000Y-15025000D01*
X-11825000Y-15525000D01*
X-11826204Y-15549504D01*
X-11829804Y-15573773D01*
X-11835765Y-15597571D01*
X-11844030Y-15620671D01*
X-11854520Y-15642849D01*
X-11867133Y-15663893D01*
X-11881747Y-15683598D01*
X-11898223Y-15701777D01*
X-11916402Y-15718253D01*
X-11936107Y-15732867D01*
X-11957151Y-15745480D01*
X-11979329Y-15755970D01*
X-12002429Y-15764235D01*
X-12026227Y-15770196D01*
X-12050496Y-15773796D01*
X-12075000Y-15775000D01*
X-13075000Y-15775000D01*
X-13099504Y-15773796D01*
X-13123773Y-15770196D01*
X-13147571Y-15764235D01*
X-13170671Y-15755970D01*
X-13192849Y-15745480D01*
X-13213893Y-15732867D01*
X-13233598Y-15718253D01*
X-13251777Y-15701777D01*
X-13268253Y-15683598D01*
X-13282867Y-15663893D01*
X-13295480Y-15642849D01*
X-13305970Y-15620671D01*
X-13314235Y-15597571D01*
X-13320196Y-15573773D01*
X-13323796Y-15549504D01*
X-13325000Y-15525000D01*
X-13325000Y-15025000D01*
X-13323796Y-15000496D01*
X-13320196Y-14976227D01*
X-13314235Y-14952429D01*
X-13305970Y-14929329D01*
X-13295480Y-14907151D01*
X-13282867Y-14886107D01*
X-13268253Y-14866402D01*
X-13251777Y-14848223D01*
X-13233598Y-14831747D01*
X-13213893Y-14817133D01*
X-13192849Y-14804520D01*
X-13170671Y-14794030D01*
X-13147571Y-14785765D01*
X-13123773Y-14779804D01*
X-13099504Y-14776204D01*
X-13075000Y-14775000D01*
X-12075000Y-14775000D01*
X-12050496Y-14776204D01*
X-12050496Y-14776204D01*
G37*
D11*
X-12575000Y-15275000D03*
D12*
X-12575000Y-16875000D03*
X-12575000Y-18475000D03*
X-7675000Y-15275000D03*
X-7675000Y-16875000D03*
X-7675000Y-18475000D03*
D10*
G36*
X1449504Y-14776204D02*
G01*
X1473773Y-14779804D01*
X1497571Y-14785765D01*
X1520671Y-14794030D01*
X1542849Y-14804520D01*
X1563893Y-14817133D01*
X1583598Y-14831747D01*
X1601777Y-14848223D01*
X1618253Y-14866402D01*
X1632867Y-14886107D01*
X1645480Y-14907151D01*
X1655970Y-14929329D01*
X1664235Y-14952429D01*
X1670196Y-14976227D01*
X1673796Y-15000496D01*
X1675000Y-15025000D01*
X1675000Y-15525000D01*
X1673796Y-15549504D01*
X1670196Y-15573773D01*
X1664235Y-15597571D01*
X1655970Y-15620671D01*
X1645480Y-15642849D01*
X1632867Y-15663893D01*
X1618253Y-15683598D01*
X1601777Y-15701777D01*
X1583598Y-15718253D01*
X1563893Y-15732867D01*
X1542849Y-15745480D01*
X1520671Y-15755970D01*
X1497571Y-15764235D01*
X1473773Y-15770196D01*
X1449504Y-15773796D01*
X1425000Y-15775000D01*
X425000Y-15775000D01*
X400496Y-15773796D01*
X376227Y-15770196D01*
X352429Y-15764235D01*
X329329Y-15755970D01*
X307151Y-15745480D01*
X286107Y-15732867D01*
X266402Y-15718253D01*
X248223Y-15701777D01*
X231747Y-15683598D01*
X217133Y-15663893D01*
X204520Y-15642849D01*
X194030Y-15620671D01*
X185765Y-15597571D01*
X179804Y-15573773D01*
X176204Y-15549504D01*
X175000Y-15525000D01*
X175000Y-15025000D01*
X176204Y-15000496D01*
X179804Y-14976227D01*
X185765Y-14952429D01*
X194030Y-14929329D01*
X204520Y-14907151D01*
X217133Y-14886107D01*
X231747Y-14866402D01*
X248223Y-14848223D01*
X266402Y-14831747D01*
X286107Y-14817133D01*
X307151Y-14804520D01*
X329329Y-14794030D01*
X352429Y-14785765D01*
X376227Y-14779804D01*
X400496Y-14776204D01*
X425000Y-14775000D01*
X1425000Y-14775000D01*
X1449504Y-14776204D01*
X1449504Y-14776204D01*
G37*
D11*
X925000Y-15275000D03*
D12*
X925000Y-16875000D03*
X925000Y-18475000D03*
X5825000Y-15275000D03*
X5825000Y-16875000D03*
X5825000Y-18475000D03*
D10*
G36*
X8199504Y-14776204D02*
G01*
X8223773Y-14779804D01*
X8247571Y-14785765D01*
X8270671Y-14794030D01*
X8292849Y-14804520D01*
X8313893Y-14817133D01*
X8333598Y-14831747D01*
X8351777Y-14848223D01*
X8368253Y-14866402D01*
X8382867Y-14886107D01*
X8395480Y-14907151D01*
X8405970Y-14929329D01*
X8414235Y-14952429D01*
X8420196Y-14976227D01*
X8423796Y-15000496D01*
X8425000Y-15025000D01*
X8425000Y-15525000D01*
X8423796Y-15549504D01*
X8420196Y-15573773D01*
X8414235Y-15597571D01*
X8405970Y-15620671D01*
X8395480Y-15642849D01*
X8382867Y-15663893D01*
X8368253Y-15683598D01*
X8351777Y-15701777D01*
X8333598Y-15718253D01*
X8313893Y-15732867D01*
X8292849Y-15745480D01*
X8270671Y-15755970D01*
X8247571Y-15764235D01*
X8223773Y-15770196D01*
X8199504Y-15773796D01*
X8175000Y-15775000D01*
X7175000Y-15775000D01*
X7150496Y-15773796D01*
X7126227Y-15770196D01*
X7102429Y-15764235D01*
X7079329Y-15755970D01*
X7057151Y-15745480D01*
X7036107Y-15732867D01*
X7016402Y-15718253D01*
X6998223Y-15701777D01*
X6981747Y-15683598D01*
X6967133Y-15663893D01*
X6954520Y-15642849D01*
X6944030Y-15620671D01*
X6935765Y-15597571D01*
X6929804Y-15573773D01*
X6926204Y-15549504D01*
X6925000Y-15525000D01*
X6925000Y-15025000D01*
X6926204Y-15000496D01*
X6929804Y-14976227D01*
X6935765Y-14952429D01*
X6944030Y-14929329D01*
X6954520Y-14907151D01*
X6967133Y-14886107D01*
X6981747Y-14866402D01*
X6998223Y-14848223D01*
X7016402Y-14831747D01*
X7036107Y-14817133D01*
X7057151Y-14804520D01*
X7079329Y-14794030D01*
X7102429Y-14785765D01*
X7126227Y-14779804D01*
X7150496Y-14776204D01*
X7175000Y-14775000D01*
X8175000Y-14775000D01*
X8199504Y-14776204D01*
X8199504Y-14776204D01*
G37*
D11*
X7675000Y-15275000D03*
D12*
X7675000Y-16875000D03*
X7675000Y-18475000D03*
X12575000Y-15275000D03*
X12575000Y-16875000D03*
X12575000Y-18475000D03*
D10*
G36*
X14949504Y-14776204D02*
G01*
X14973773Y-14779804D01*
X14997571Y-14785765D01*
X15020671Y-14794030D01*
X15042849Y-14804520D01*
X15063893Y-14817133D01*
X15083598Y-14831747D01*
X15101777Y-14848223D01*
X15118253Y-14866402D01*
X15132867Y-14886107D01*
X15145480Y-14907151D01*
X15155970Y-14929329D01*
X15164235Y-14952429D01*
X15170196Y-14976227D01*
X15173796Y-15000496D01*
X15175000Y-15025000D01*
X15175000Y-15525000D01*
X15173796Y-15549504D01*
X15170196Y-15573773D01*
X15164235Y-15597571D01*
X15155970Y-15620671D01*
X15145480Y-15642849D01*
X15132867Y-15663893D01*
X15118253Y-15683598D01*
X15101777Y-15701777D01*
X15083598Y-15718253D01*
X15063893Y-15732867D01*
X15042849Y-15745480D01*
X15020671Y-15755970D01*
X14997571Y-15764235D01*
X14973773Y-15770196D01*
X14949504Y-15773796D01*
X14925000Y-15775000D01*
X13925000Y-15775000D01*
X13900496Y-15773796D01*
X13876227Y-15770196D01*
X13852429Y-15764235D01*
X13829329Y-15755970D01*
X13807151Y-15745480D01*
X13786107Y-15732867D01*
X13766402Y-15718253D01*
X13748223Y-15701777D01*
X13731747Y-15683598D01*
X13717133Y-15663893D01*
X13704520Y-15642849D01*
X13694030Y-15620671D01*
X13685765Y-15597571D01*
X13679804Y-15573773D01*
X13676204Y-15549504D01*
X13675000Y-15525000D01*
X13675000Y-15025000D01*
X13676204Y-15000496D01*
X13679804Y-14976227D01*
X13685765Y-14952429D01*
X13694030Y-14929329D01*
X13704520Y-14907151D01*
X13717133Y-14886107D01*
X13731747Y-14866402D01*
X13748223Y-14848223D01*
X13766402Y-14831747D01*
X13786107Y-14817133D01*
X13807151Y-14804520D01*
X13829329Y-14794030D01*
X13852429Y-14785765D01*
X13876227Y-14779804D01*
X13900496Y-14776204D01*
X13925000Y-14775000D01*
X14925000Y-14775000D01*
X14949504Y-14776204D01*
X14949504Y-14776204D01*
G37*
D11*
X14425000Y-15275000D03*
D12*
X14425000Y-16875000D03*
X14425000Y-18475000D03*
X19325000Y-15275000D03*
X19325000Y-16875000D03*
X19325000Y-18475000D03*
D10*
G36*
X21699504Y-14776204D02*
G01*
X21723773Y-14779804D01*
X21747571Y-14785765D01*
X21770671Y-14794030D01*
X21792849Y-14804520D01*
X21813893Y-14817133D01*
X21833598Y-14831747D01*
X21851777Y-14848223D01*
X21868253Y-14866402D01*
X21882867Y-14886107D01*
X21895480Y-14907151D01*
X21905970Y-14929329D01*
X21914235Y-14952429D01*
X21920196Y-14976227D01*
X21923796Y-15000496D01*
X21925000Y-15025000D01*
X21925000Y-15525000D01*
X21923796Y-15549504D01*
X21920196Y-15573773D01*
X21914235Y-15597571D01*
X21905970Y-15620671D01*
X21895480Y-15642849D01*
X21882867Y-15663893D01*
X21868253Y-15683598D01*
X21851777Y-15701777D01*
X21833598Y-15718253D01*
X21813893Y-15732867D01*
X21792849Y-15745480D01*
X21770671Y-15755970D01*
X21747571Y-15764235D01*
X21723773Y-15770196D01*
X21699504Y-15773796D01*
X21675000Y-15775000D01*
X20675000Y-15775000D01*
X20650496Y-15773796D01*
X20626227Y-15770196D01*
X20602429Y-15764235D01*
X20579329Y-15755970D01*
X20557151Y-15745480D01*
X20536107Y-15732867D01*
X20516402Y-15718253D01*
X20498223Y-15701777D01*
X20481747Y-15683598D01*
X20467133Y-15663893D01*
X20454520Y-15642849D01*
X20444030Y-15620671D01*
X20435765Y-15597571D01*
X20429804Y-15573773D01*
X20426204Y-15549504D01*
X20425000Y-15525000D01*
X20425000Y-15025000D01*
X20426204Y-15000496D01*
X20429804Y-14976227D01*
X20435765Y-14952429D01*
X20444030Y-14929329D01*
X20454520Y-14907151D01*
X20467133Y-14886107D01*
X20481747Y-14866402D01*
X20498223Y-14848223D01*
X20516402Y-14831747D01*
X20536107Y-14817133D01*
X20557151Y-14804520D01*
X20579329Y-14794030D01*
X20602429Y-14785765D01*
X20626227Y-14779804D01*
X20650496Y-14776204D01*
X20675000Y-14775000D01*
X21675000Y-14775000D01*
X21699504Y-14776204D01*
X21699504Y-14776204D01*
G37*
D11*
X21175000Y-15275000D03*
D12*
X21175000Y-16875000D03*
X21175000Y-18475000D03*
X26075000Y-15275000D03*
X26075000Y-16875000D03*
X26075000Y-18475000D03*
D10*
G36*
X-25550496Y-21526204D02*
G01*
X-25526227Y-21529804D01*
X-25502429Y-21535765D01*
X-25479329Y-21544030D01*
X-25457151Y-21554520D01*
X-25436107Y-21567133D01*
X-25416402Y-21581747D01*
X-25398223Y-21598223D01*
X-25381747Y-21616402D01*
X-25367133Y-21636107D01*
X-25354520Y-21657151D01*
X-25344030Y-21679329D01*
X-25335765Y-21702429D01*
X-25329804Y-21726227D01*
X-25326204Y-21750496D01*
X-25325000Y-21775000D01*
X-25325000Y-22275000D01*
X-25326204Y-22299504D01*
X-25329804Y-22323773D01*
X-25335765Y-22347571D01*
X-25344030Y-22370671D01*
X-25354520Y-22392849D01*
X-25367133Y-22413893D01*
X-25381747Y-22433598D01*
X-25398223Y-22451777D01*
X-25416402Y-22468253D01*
X-25436107Y-22482867D01*
X-25457151Y-22495480D01*
X-25479329Y-22505970D01*
X-25502429Y-22514235D01*
X-25526227Y-22520196D01*
X-25550496Y-22523796D01*
X-25575000Y-22525000D01*
X-26575000Y-22525000D01*
X-26599504Y-22523796D01*
X-26623773Y-22520196D01*
X-26647571Y-22514235D01*
X-26670671Y-22505970D01*
X-26692849Y-22495480D01*
X-26713893Y-22482867D01*
X-26733598Y-22468253D01*
X-26751777Y-22451777D01*
X-26768253Y-22433598D01*
X-26782867Y-22413893D01*
X-26795480Y-22392849D01*
X-26805970Y-22370671D01*
X-26814235Y-22347571D01*
X-26820196Y-22323773D01*
X-26823796Y-22299504D01*
X-26825000Y-22275000D01*
X-26825000Y-21775000D01*
X-26823796Y-21750496D01*
X-26820196Y-21726227D01*
X-26814235Y-21702429D01*
X-26805970Y-21679329D01*
X-26795480Y-21657151D01*
X-26782867Y-21636107D01*
X-26768253Y-21616402D01*
X-26751777Y-21598223D01*
X-26733598Y-21581747D01*
X-26713893Y-21567133D01*
X-26692849Y-21554520D01*
X-26670671Y-21544030D01*
X-26647571Y-21535765D01*
X-26623773Y-21529804D01*
X-26599504Y-21526204D01*
X-26575000Y-21525000D01*
X-25575000Y-21525000D01*
X-25550496Y-21526204D01*
X-25550496Y-21526204D01*
G37*
D11*
X-26075000Y-22025000D03*
D12*
X-26075000Y-23625000D03*
X-26075000Y-25225000D03*
X-21175000Y-22025000D03*
X-21175000Y-23625000D03*
X-21175000Y-25225000D03*
D10*
G36*
X-18800496Y-21526204D02*
G01*
X-18776227Y-21529804D01*
X-18752429Y-21535765D01*
X-18729329Y-21544030D01*
X-18707151Y-21554520D01*
X-18686107Y-21567133D01*
X-18666402Y-21581747D01*
X-18648223Y-21598223D01*
X-18631747Y-21616402D01*
X-18617133Y-21636107D01*
X-18604520Y-21657151D01*
X-18594030Y-21679329D01*
X-18585765Y-21702429D01*
X-18579804Y-21726227D01*
X-18576204Y-21750496D01*
X-18575000Y-21775000D01*
X-18575000Y-22275000D01*
X-18576204Y-22299504D01*
X-18579804Y-22323773D01*
X-18585765Y-22347571D01*
X-18594030Y-22370671D01*
X-18604520Y-22392849D01*
X-18617133Y-22413893D01*
X-18631747Y-22433598D01*
X-18648223Y-22451777D01*
X-18666402Y-22468253D01*
X-18686107Y-22482867D01*
X-18707151Y-22495480D01*
X-18729329Y-22505970D01*
X-18752429Y-22514235D01*
X-18776227Y-22520196D01*
X-18800496Y-22523796D01*
X-18825000Y-22525000D01*
X-19825000Y-22525000D01*
X-19849504Y-22523796D01*
X-19873773Y-22520196D01*
X-19897571Y-22514235D01*
X-19920671Y-22505970D01*
X-19942849Y-22495480D01*
X-19963893Y-22482867D01*
X-19983598Y-22468253D01*
X-20001777Y-22451777D01*
X-20018253Y-22433598D01*
X-20032867Y-22413893D01*
X-20045480Y-22392849D01*
X-20055970Y-22370671D01*
X-20064235Y-22347571D01*
X-20070196Y-22323773D01*
X-20073796Y-22299504D01*
X-20075000Y-22275000D01*
X-20075000Y-21775000D01*
X-20073796Y-21750496D01*
X-20070196Y-21726227D01*
X-20064235Y-21702429D01*
X-20055970Y-21679329D01*
X-20045480Y-21657151D01*
X-20032867Y-21636107D01*
X-20018253Y-21616402D01*
X-20001777Y-21598223D01*
X-19983598Y-21581747D01*
X-19963893Y-21567133D01*
X-19942849Y-21554520D01*
X-19920671Y-21544030D01*
X-19897571Y-21535765D01*
X-19873773Y-21529804D01*
X-19849504Y-21526204D01*
X-19825000Y-21525000D01*
X-18825000Y-21525000D01*
X-18800496Y-21526204D01*
X-18800496Y-21526204D01*
G37*
D11*
X-19325000Y-22025000D03*
D12*
X-19325000Y-23625000D03*
X-19325000Y-25225000D03*
X-14425000Y-22025000D03*
X-14425000Y-23625000D03*
X-14425000Y-25225000D03*
D10*
G36*
X-12050496Y-21526204D02*
G01*
X-12026227Y-21529804D01*
X-12002429Y-21535765D01*
X-11979329Y-21544030D01*
X-11957151Y-21554520D01*
X-11936107Y-21567133D01*
X-11916402Y-21581747D01*
X-11898223Y-21598223D01*
X-11881747Y-21616402D01*
X-11867133Y-21636107D01*
X-11854520Y-21657151D01*
X-11844030Y-21679329D01*
X-11835765Y-21702429D01*
X-11829804Y-21726227D01*
X-11826204Y-21750496D01*
X-11825000Y-21775000D01*
X-11825000Y-22275000D01*
X-11826204Y-22299504D01*
X-11829804Y-22323773D01*
X-11835765Y-22347571D01*
X-11844030Y-22370671D01*
X-11854520Y-22392849D01*
X-11867133Y-22413893D01*
X-11881747Y-22433598D01*
X-11898223Y-22451777D01*
X-11916402Y-22468253D01*
X-11936107Y-22482867D01*
X-11957151Y-22495480D01*
X-11979329Y-22505970D01*
X-12002429Y-22514235D01*
X-12026227Y-22520196D01*
X-12050496Y-22523796D01*
X-12075000Y-22525000D01*
X-13075000Y-22525000D01*
X-13099504Y-22523796D01*
X-13123773Y-22520196D01*
X-13147571Y-22514235D01*
X-13170671Y-22505970D01*
X-13192849Y-22495480D01*
X-13213893Y-22482867D01*
X-13233598Y-22468253D01*
X-13251777Y-22451777D01*
X-13268253Y-22433598D01*
X-13282867Y-22413893D01*
X-13295480Y-22392849D01*
X-13305970Y-22370671D01*
X-13314235Y-22347571D01*
X-13320196Y-22323773D01*
X-13323796Y-22299504D01*
X-13325000Y-22275000D01*
X-13325000Y-21775000D01*
X-13323796Y-21750496D01*
X-13320196Y-21726227D01*
X-13314235Y-21702429D01*
X-13305970Y-21679329D01*
X-13295480Y-21657151D01*
X-13282867Y-21636107D01*
X-13268253Y-21616402D01*
X-13251777Y-21598223D01*
X-13233598Y-21581747D01*
X-13213893Y-21567133D01*
X-13192849Y-21554520D01*
X-13170671Y-21544030D01*
X-13147571Y-21535765D01*
X-13123773Y-21529804D01*
X-13099504Y-21526204D01*
X-13075000Y-21525000D01*
X-12075000Y-21525000D01*
X-12050496Y-21526204D01*
X-12050496Y-21526204D01*
G37*
D11*
X-12575000Y-22025000D03*
D12*
X-12575000Y-23625000D03*
X-12575000Y-25225000D03*
X-7675000Y-22025000D03*
X-7675000Y-23625000D03*
X-7675000Y-25225000D03*
D10*
G36*
X-5300496Y-21526204D02*
G01*
X-5276227Y-21529804D01*
X-5252429Y-21535765D01*
X-5229329Y-21544030D01*
X-5207151Y-21554520D01*
X-5186107Y-21567133D01*
X-5166402Y-21581747D01*
X-5148223Y-21598223D01*
X-5131747Y-21616402D01*
X-5117133Y-21636107D01*
X-5104520Y-21657151D01*
X-5094030Y-21679329D01*
X-5085765Y-21702429D01*
X-5079804Y-21726227D01*
X-5076204Y-21750496D01*
X-5075000Y-21775000D01*
X-5075000Y-22275000D01*
X-5076204Y-22299504D01*
X-5079804Y-22323773D01*
X-5085765Y-22347571D01*
X-5094030Y-22370671D01*
X-5104520Y-22392849D01*
X-5117133Y-22413893D01*
X-5131747Y-22433598D01*
X-5148223Y-22451777D01*
X-5166402Y-22468253D01*
X-5186107Y-22482867D01*
X-5207151Y-22495480D01*
X-5229329Y-22505970D01*
X-5252429Y-22514235D01*
X-5276227Y-22520196D01*
X-5300496Y-22523796D01*
X-5325000Y-22525000D01*
X-6325000Y-22525000D01*
X-6349504Y-22523796D01*
X-6373773Y-22520196D01*
X-6397571Y-22514235D01*
X-6420671Y-22505970D01*
X-6442849Y-22495480D01*
X-6463893Y-22482867D01*
X-6483598Y-22468253D01*
X-6501777Y-22451777D01*
X-6518253Y-22433598D01*
X-6532867Y-22413893D01*
X-6545480Y-22392849D01*
X-6555970Y-22370671D01*
X-6564235Y-22347571D01*
X-6570196Y-22323773D01*
X-6573796Y-22299504D01*
X-6575000Y-22275000D01*
X-6575000Y-21775000D01*
X-6573796Y-21750496D01*
X-6570196Y-21726227D01*
X-6564235Y-21702429D01*
X-6555970Y-21679329D01*
X-6545480Y-21657151D01*
X-6532867Y-21636107D01*
X-6518253Y-21616402D01*
X-6501777Y-21598223D01*
X-6483598Y-21581747D01*
X-6463893Y-21567133D01*
X-6442849Y-21554520D01*
X-6420671Y-21544030D01*
X-6397571Y-21535765D01*
X-6373773Y-21529804D01*
X-6349504Y-21526204D01*
X-6325000Y-21525000D01*
X-5325000Y-21525000D01*
X-5300496Y-21526204D01*
X-5300496Y-21526204D01*
G37*
D11*
X-5825000Y-22025000D03*
D12*
X-5825000Y-23625000D03*
X-5825000Y-25225000D03*
X-925000Y-22025000D03*
X-925000Y-23625000D03*
X-925000Y-25225000D03*
D10*
G36*
X1449504Y-21526204D02*
G01*
X1473773Y-21529804D01*
X1497571Y-21535765D01*
X1520671Y-21544030D01*
X1542849Y-21554520D01*
X1563893Y-21567133D01*
X1583598Y-21581747D01*
X1601777Y-21598223D01*
X1618253Y-21616402D01*
X1632867Y-21636107D01*
X1645480Y-21657151D01*
X1655970Y-21679329D01*
X1664235Y-21702429D01*
X1670196Y-21726227D01*
X1673796Y-21750496D01*
X1675000Y-21775000D01*
X1675000Y-22275000D01*
X1673796Y-22299504D01*
X1670196Y-22323773D01*
X1664235Y-22347571D01*
X1655970Y-22370671D01*
X1645480Y-22392849D01*
X1632867Y-22413893D01*
X1618253Y-22433598D01*
X1601777Y-22451777D01*
X1583598Y-22468253D01*
X1563893Y-22482867D01*
X1542849Y-22495480D01*
X1520671Y-22505970D01*
X1497571Y-22514235D01*
X1473773Y-22520196D01*
X1449504Y-22523796D01*
X1425000Y-22525000D01*
X425000Y-22525000D01*
X400496Y-22523796D01*
X376227Y-22520196D01*
X352429Y-22514235D01*
X329329Y-22505970D01*
X307151Y-22495480D01*
X286107Y-22482867D01*
X266402Y-22468253D01*
X248223Y-22451777D01*
X231747Y-22433598D01*
X217133Y-22413893D01*
X204520Y-22392849D01*
X194030Y-22370671D01*
X185765Y-22347571D01*
X179804Y-22323773D01*
X176204Y-22299504D01*
X175000Y-22275000D01*
X175000Y-21775000D01*
X176204Y-21750496D01*
X179804Y-21726227D01*
X185765Y-21702429D01*
X194030Y-21679329D01*
X204520Y-21657151D01*
X217133Y-21636107D01*
X231747Y-21616402D01*
X248223Y-21598223D01*
X266402Y-21581747D01*
X286107Y-21567133D01*
X307151Y-21554520D01*
X329329Y-21544030D01*
X352429Y-21535765D01*
X376227Y-21529804D01*
X400496Y-21526204D01*
X425000Y-21525000D01*
X1425000Y-21525000D01*
X1449504Y-21526204D01*
X1449504Y-21526204D01*
G37*
D11*
X925000Y-22025000D03*
D12*
X925000Y-23625000D03*
X925000Y-25225000D03*
X5825000Y-22025000D03*
X5825000Y-23625000D03*
X5825000Y-25225000D03*
D10*
G36*
X8199504Y-21526204D02*
G01*
X8223773Y-21529804D01*
X8247571Y-21535765D01*
X8270671Y-21544030D01*
X8292849Y-21554520D01*
X8313893Y-21567133D01*
X8333598Y-21581747D01*
X8351777Y-21598223D01*
X8368253Y-21616402D01*
X8382867Y-21636107D01*
X8395480Y-21657151D01*
X8405970Y-21679329D01*
X8414235Y-21702429D01*
X8420196Y-21726227D01*
X8423796Y-21750496D01*
X8425000Y-21775000D01*
X8425000Y-22275000D01*
X8423796Y-22299504D01*
X8420196Y-22323773D01*
X8414235Y-22347571D01*
X8405970Y-22370671D01*
X8395480Y-22392849D01*
X8382867Y-22413893D01*
X8368253Y-22433598D01*
X8351777Y-22451777D01*
X8333598Y-22468253D01*
X8313893Y-22482867D01*
X8292849Y-22495480D01*
X8270671Y-22505970D01*
X8247571Y-22514235D01*
X8223773Y-22520196D01*
X8199504Y-22523796D01*
X8175000Y-22525000D01*
X7175000Y-22525000D01*
X7150496Y-22523796D01*
X7126227Y-22520196D01*
X7102429Y-22514235D01*
X7079329Y-22505970D01*
X7057151Y-22495480D01*
X7036107Y-22482867D01*
X7016402Y-22468253D01*
X6998223Y-22451777D01*
X6981747Y-22433598D01*
X6967133Y-22413893D01*
X6954520Y-22392849D01*
X6944030Y-22370671D01*
X6935765Y-22347571D01*
X6929804Y-22323773D01*
X6926204Y-22299504D01*
X6925000Y-22275000D01*
X6925000Y-21775000D01*
X6926204Y-21750496D01*
X6929804Y-21726227D01*
X6935765Y-21702429D01*
X6944030Y-21679329D01*
X6954520Y-21657151D01*
X6967133Y-21636107D01*
X6981747Y-21616402D01*
X6998223Y-21598223D01*
X7016402Y-21581747D01*
X7036107Y-21567133D01*
X7057151Y-21554520D01*
X7079329Y-21544030D01*
X7102429Y-21535765D01*
X7126227Y-21529804D01*
X7150496Y-21526204D01*
X7175000Y-21525000D01*
X8175000Y-21525000D01*
X8199504Y-21526204D01*
X8199504Y-21526204D01*
G37*
D11*
X7675000Y-22025000D03*
D12*
X7675000Y-23625000D03*
X7675000Y-25225000D03*
X12575000Y-22025000D03*
X12575000Y-23625000D03*
X12575000Y-25225000D03*
D10*
G36*
X14949504Y-21526204D02*
G01*
X14973773Y-21529804D01*
X14997571Y-21535765D01*
X15020671Y-21544030D01*
X15042849Y-21554520D01*
X15063893Y-21567133D01*
X15083598Y-21581747D01*
X15101777Y-21598223D01*
X15118253Y-21616402D01*
X15132867Y-21636107D01*
X15145480Y-21657151D01*
X15155970Y-21679329D01*
X15164235Y-21702429D01*
X15170196Y-21726227D01*
X15173796Y-21750496D01*
X15175000Y-21775000D01*
X15175000Y-22275000D01*
X15173796Y-22299504D01*
X15170196Y-22323773D01*
X15164235Y-22347571D01*
X15155970Y-22370671D01*
X15145480Y-22392849D01*
X15132867Y-22413893D01*
X15118253Y-22433598D01*
X15101777Y-22451777D01*
X15083598Y-22468253D01*
X15063893Y-22482867D01*
X15042849Y-22495480D01*
X15020671Y-22505970D01*
X14997571Y-22514235D01*
X14973773Y-22520196D01*
X14949504Y-22523796D01*
X14925000Y-22525000D01*
X13925000Y-22525000D01*
X13900496Y-22523796D01*
X13876227Y-22520196D01*
X13852429Y-22514235D01*
X13829329Y-22505970D01*
X13807151Y-22495480D01*
X13786107Y-22482867D01*
X13766402Y-22468253D01*
X13748223Y-22451777D01*
X13731747Y-22433598D01*
X13717133Y-22413893D01*
X13704520Y-22392849D01*
X13694030Y-22370671D01*
X13685765Y-22347571D01*
X13679804Y-22323773D01*
X13676204Y-22299504D01*
X13675000Y-22275000D01*
X13675000Y-21775000D01*
X13676204Y-21750496D01*
X13679804Y-21726227D01*
X13685765Y-21702429D01*
X13694030Y-21679329D01*
X13704520Y-21657151D01*
X13717133Y-21636107D01*
X13731747Y-21616402D01*
X13748223Y-21598223D01*
X13766402Y-21581747D01*
X13786107Y-21567133D01*
X13807151Y-21554520D01*
X13829329Y-21544030D01*
X13852429Y-21535765D01*
X13876227Y-21529804D01*
X13900496Y-21526204D01*
X13925000Y-21525000D01*
X14925000Y-21525000D01*
X14949504Y-21526204D01*
X14949504Y-21526204D01*
G37*
D11*
X14425000Y-22025000D03*
D12*
X14425000Y-23625000D03*
X14425000Y-25225000D03*
X19325000Y-22025000D03*
X19325000Y-23625000D03*
X19325000Y-25225000D03*
D10*
G36*
X21699504Y-21526204D02*
G01*
X21723773Y-21529804D01*
X21747571Y-21535765D01*
X21770671Y-21544030D01*
X21792849Y-21554520D01*
X21813893Y-21567133D01*
X21833598Y-21581747D01*
X21851777Y-21598223D01*
X21868253Y-21616402D01*
X21882867Y-21636107D01*
X21895480Y-21657151D01*
X21905970Y-21679329D01*
X21914235Y-21702429D01*
X21920196Y-21726227D01*
X21923796Y-21750496D01*
X21925000Y-21775000D01*
X21925000Y-22275000D01*
X21923796Y-22299504D01*
X21920196Y-22323773D01*
X21914235Y-22347571D01*
X21905970Y-22370671D01*
X21895480Y-22392849D01*
X21882867Y-22413893D01*
X21868253Y-22433598D01*
X21851777Y-22451777D01*
X21833598Y-22468253D01*
X21813893Y-22482867D01*
X21792849Y-22495480D01*
X21770671Y-22505970D01*
X21747571Y-22514235D01*
X21723773Y-22520196D01*
X21699504Y-22523796D01*
X21675000Y-22525000D01*
X20675000Y-22525000D01*
X20650496Y-22523796D01*
X20626227Y-22520196D01*
X20602429Y-22514235D01*
X20579329Y-22505970D01*
X20557151Y-22495480D01*
X20536107Y-22482867D01*
X20516402Y-22468253D01*
X20498223Y-22451777D01*
X20481747Y-22433598D01*
X20467133Y-22413893D01*
X20454520Y-22392849D01*
X20444030Y-22370671D01*
X20435765Y-22347571D01*
X20429804Y-22323773D01*
X20426204Y-22299504D01*
X20425000Y-22275000D01*
X20425000Y-21775000D01*
X20426204Y-21750496D01*
X20429804Y-21726227D01*
X20435765Y-21702429D01*
X20444030Y-21679329D01*
X20454520Y-21657151D01*
X20467133Y-21636107D01*
X20481747Y-21616402D01*
X20498223Y-21598223D01*
X20516402Y-21581747D01*
X20536107Y-21567133D01*
X20557151Y-21554520D01*
X20579329Y-21544030D01*
X20602429Y-21535765D01*
X20626227Y-21529804D01*
X20650496Y-21526204D01*
X20675000Y-21525000D01*
X21675000Y-21525000D01*
X21699504Y-21526204D01*
X21699504Y-21526204D01*
G37*
D11*
X21175000Y-22025000D03*
D12*
X21175000Y-23625000D03*
X21175000Y-25225000D03*
X26075000Y-22025000D03*
X26075000Y-23625000D03*
X26075000Y-25225000D03*
D13*
X-31385000Y29430000D03*
X-31385000Y26890000D03*
X-31385000Y31970000D03*
X-31385000Y34510000D03*
X-31385000Y24350000D03*
D14*
X3810000Y-40000000D03*
X1270000Y-40000000D03*
X-1270000Y-40000000D03*
D15*
X-3810000Y-40000000D03*
D16*
X35560000Y-21590000D03*
X35560000Y-24130000D03*
X35560000Y-19050000D03*
X35560000Y-16510000D03*
X35560000Y-11430000D03*
X35560000Y3810000D03*
X35560000Y16510000D03*
X35560000Y24130000D03*
X35560000Y21590000D03*
X35560000Y13970000D03*
X35560000Y11430000D03*
X35560000Y6350000D03*
X35560000Y8890000D03*
X35560000Y19050000D03*
X35560000Y-1270000D03*
X35560000Y-6350000D03*
X35560000Y-3810000D03*
X35560000Y-13970000D03*
X35560000Y-8890000D03*
X35560000Y1270000D03*
X-35560000Y-21590000D03*
X-35560000Y-24130000D03*
X-35560000Y-19050000D03*
X-35560000Y-16510000D03*
X-35560000Y-11430000D03*
X-35560000Y3810000D03*
X-35560000Y16510000D03*
X-35560000Y24130000D03*
X-35560000Y21590000D03*
X-35560000Y13970000D03*
X-35560000Y11430000D03*
X-35560000Y6350000D03*
X-35560000Y8890000D03*
X-35560000Y19050000D03*
X-35560000Y-1270000D03*
X-35560000Y-6350000D03*
X-35560000Y-3810000D03*
X-35560000Y-13970000D03*
X-35560000Y-8890000D03*
X-35560000Y1270000D03*
D10*
G36*
X28162691Y24058947D02*
G01*
X28183926Y24055797D01*
X28204750Y24050581D01*
X28224962Y24043349D01*
X28244368Y24034170D01*
X28262781Y24023134D01*
X28280024Y24010346D01*
X28295930Y23995930D01*
X28310346Y23980024D01*
X28323134Y23962781D01*
X28334170Y23944368D01*
X28343349Y23924962D01*
X28350581Y23904750D01*
X28355797Y23883926D01*
X28358947Y23862691D01*
X28360000Y23841250D01*
X28360000Y23403750D01*
X28358947Y23382309D01*
X28355797Y23361074D01*
X28350581Y23340250D01*
X28343349Y23320038D01*
X28334170Y23300632D01*
X28323134Y23282219D01*
X28310346Y23264976D01*
X28295930Y23249070D01*
X28280024Y23234654D01*
X28262781Y23221866D01*
X28244368Y23210830D01*
X28224962Y23201651D01*
X28204750Y23194419D01*
X28183926Y23189203D01*
X28162691Y23186053D01*
X28141250Y23185000D01*
X27628750Y23185000D01*
X27607309Y23186053D01*
X27586074Y23189203D01*
X27565250Y23194419D01*
X27545038Y23201651D01*
X27525632Y23210830D01*
X27507219Y23221866D01*
X27489976Y23234654D01*
X27474070Y23249070D01*
X27459654Y23264976D01*
X27446866Y23282219D01*
X27435830Y23300632D01*
X27426651Y23320038D01*
X27419419Y23340250D01*
X27414203Y23361074D01*
X27411053Y23382309D01*
X27410000Y23403750D01*
X27410000Y23841250D01*
X27411053Y23862691D01*
X27414203Y23883926D01*
X27419419Y23904750D01*
X27426651Y23924962D01*
X27435830Y23944368D01*
X27446866Y23962781D01*
X27459654Y23980024D01*
X27474070Y23995930D01*
X27489976Y24010346D01*
X27507219Y24023134D01*
X27525632Y24034170D01*
X27545038Y24043349D01*
X27565250Y24050581D01*
X27586074Y24055797D01*
X27607309Y24058947D01*
X27628750Y24060000D01*
X28141250Y24060000D01*
X28162691Y24058947D01*
X28162691Y24058947D01*
G37*
D17*
X27885000Y23622500D03*
D10*
G36*
X28162691Y25633947D02*
G01*
X28183926Y25630797D01*
X28204750Y25625581D01*
X28224962Y25618349D01*
X28244368Y25609170D01*
X28262781Y25598134D01*
X28280024Y25585346D01*
X28295930Y25570930D01*
X28310346Y25555024D01*
X28323134Y25537781D01*
X28334170Y25519368D01*
X28343349Y25499962D01*
X28350581Y25479750D01*
X28355797Y25458926D01*
X28358947Y25437691D01*
X28360000Y25416250D01*
X28360000Y24978750D01*
X28358947Y24957309D01*
X28355797Y24936074D01*
X28350581Y24915250D01*
X28343349Y24895038D01*
X28334170Y24875632D01*
X28323134Y24857219D01*
X28310346Y24839976D01*
X28295930Y24824070D01*
X28280024Y24809654D01*
X28262781Y24796866D01*
X28244368Y24785830D01*
X28224962Y24776651D01*
X28204750Y24769419D01*
X28183926Y24764203D01*
X28162691Y24761053D01*
X28141250Y24760000D01*
X27628750Y24760000D01*
X27607309Y24761053D01*
X27586074Y24764203D01*
X27565250Y24769419D01*
X27545038Y24776651D01*
X27525632Y24785830D01*
X27507219Y24796866D01*
X27489976Y24809654D01*
X27474070Y24824070D01*
X27459654Y24839976D01*
X27446866Y24857219D01*
X27435830Y24875632D01*
X27426651Y24895038D01*
X27419419Y24915250D01*
X27414203Y24936074D01*
X27411053Y24957309D01*
X27410000Y24978750D01*
X27410000Y25416250D01*
X27411053Y25437691D01*
X27414203Y25458926D01*
X27419419Y25479750D01*
X27426651Y25499962D01*
X27435830Y25519368D01*
X27446866Y25537781D01*
X27459654Y25555024D01*
X27474070Y25570930D01*
X27489976Y25585346D01*
X27507219Y25598134D01*
X27525632Y25609170D01*
X27545038Y25618349D01*
X27565250Y25625581D01*
X27586074Y25630797D01*
X27607309Y25633947D01*
X27628750Y25635000D01*
X28141250Y25635000D01*
X28162691Y25633947D01*
X28162691Y25633947D01*
G37*
D17*
X27885000Y25197500D03*
D10*
G36*
X28167691Y17298947D02*
G01*
X28188926Y17295797D01*
X28209750Y17290581D01*
X28229962Y17283349D01*
X28249368Y17274170D01*
X28267781Y17263134D01*
X28285024Y17250346D01*
X28300930Y17235930D01*
X28315346Y17220024D01*
X28328134Y17202781D01*
X28339170Y17184368D01*
X28348349Y17164962D01*
X28355581Y17144750D01*
X28360797Y17123926D01*
X28363947Y17102691D01*
X28365000Y17081250D01*
X28365000Y16643750D01*
X28363947Y16622309D01*
X28360797Y16601074D01*
X28355581Y16580250D01*
X28348349Y16560038D01*
X28339170Y16540632D01*
X28328134Y16522219D01*
X28315346Y16504976D01*
X28300930Y16489070D01*
X28285024Y16474654D01*
X28267781Y16461866D01*
X28249368Y16450830D01*
X28229962Y16441651D01*
X28209750Y16434419D01*
X28188926Y16429203D01*
X28167691Y16426053D01*
X28146250Y16425000D01*
X27633750Y16425000D01*
X27612309Y16426053D01*
X27591074Y16429203D01*
X27570250Y16434419D01*
X27550038Y16441651D01*
X27530632Y16450830D01*
X27512219Y16461866D01*
X27494976Y16474654D01*
X27479070Y16489070D01*
X27464654Y16504976D01*
X27451866Y16522219D01*
X27440830Y16540632D01*
X27431651Y16560038D01*
X27424419Y16580250D01*
X27419203Y16601074D01*
X27416053Y16622309D01*
X27415000Y16643750D01*
X27415000Y17081250D01*
X27416053Y17102691D01*
X27419203Y17123926D01*
X27424419Y17144750D01*
X27431651Y17164962D01*
X27440830Y17184368D01*
X27451866Y17202781D01*
X27464654Y17220024D01*
X27479070Y17235930D01*
X27494976Y17250346D01*
X27512219Y17263134D01*
X27530632Y17274170D01*
X27550038Y17283349D01*
X27570250Y17290581D01*
X27591074Y17295797D01*
X27612309Y17298947D01*
X27633750Y17300000D01*
X28146250Y17300000D01*
X28167691Y17298947D01*
X28167691Y17298947D01*
G37*
D17*
X27890000Y16862500D03*
D10*
G36*
X28167691Y18873947D02*
G01*
X28188926Y18870797D01*
X28209750Y18865581D01*
X28229962Y18858349D01*
X28249368Y18849170D01*
X28267781Y18838134D01*
X28285024Y18825346D01*
X28300930Y18810930D01*
X28315346Y18795024D01*
X28328134Y18777781D01*
X28339170Y18759368D01*
X28348349Y18739962D01*
X28355581Y18719750D01*
X28360797Y18698926D01*
X28363947Y18677691D01*
X28365000Y18656250D01*
X28365000Y18218750D01*
X28363947Y18197309D01*
X28360797Y18176074D01*
X28355581Y18155250D01*
X28348349Y18135038D01*
X28339170Y18115632D01*
X28328134Y18097219D01*
X28315346Y18079976D01*
X28300930Y18064070D01*
X28285024Y18049654D01*
X28267781Y18036866D01*
X28249368Y18025830D01*
X28229962Y18016651D01*
X28209750Y18009419D01*
X28188926Y18004203D01*
X28167691Y18001053D01*
X28146250Y18000000D01*
X27633750Y18000000D01*
X27612309Y18001053D01*
X27591074Y18004203D01*
X27570250Y18009419D01*
X27550038Y18016651D01*
X27530632Y18025830D01*
X27512219Y18036866D01*
X27494976Y18049654D01*
X27479070Y18064070D01*
X27464654Y18079976D01*
X27451866Y18097219D01*
X27440830Y18115632D01*
X27431651Y18135038D01*
X27424419Y18155250D01*
X27419203Y18176074D01*
X27416053Y18197309D01*
X27415000Y18218750D01*
X27415000Y18656250D01*
X27416053Y18677691D01*
X27419203Y18698926D01*
X27424419Y18719750D01*
X27431651Y18739962D01*
X27440830Y18759368D01*
X27451866Y18777781D01*
X27464654Y18795024D01*
X27479070Y18810930D01*
X27494976Y18825346D01*
X27512219Y18838134D01*
X27530632Y18849170D01*
X27550038Y18858349D01*
X27570250Y18865581D01*
X27591074Y18870797D01*
X27612309Y18873947D01*
X27633750Y18875000D01*
X28146250Y18875000D01*
X28167691Y18873947D01*
X28167691Y18873947D01*
G37*
D17*
X27890000Y18437500D03*
D10*
G36*
X28167691Y10573947D02*
G01*
X28188926Y10570797D01*
X28209750Y10565581D01*
X28229962Y10558349D01*
X28249368Y10549170D01*
X28267781Y10538134D01*
X28285024Y10525346D01*
X28300930Y10510930D01*
X28315346Y10495024D01*
X28328134Y10477781D01*
X28339170Y10459368D01*
X28348349Y10439962D01*
X28355581Y10419750D01*
X28360797Y10398926D01*
X28363947Y10377691D01*
X28365000Y10356250D01*
X28365000Y9918750D01*
X28363947Y9897309D01*
X28360797Y9876074D01*
X28355581Y9855250D01*
X28348349Y9835038D01*
X28339170Y9815632D01*
X28328134Y9797219D01*
X28315346Y9779976D01*
X28300930Y9764070D01*
X28285024Y9749654D01*
X28267781Y9736866D01*
X28249368Y9725830D01*
X28229962Y9716651D01*
X28209750Y9709419D01*
X28188926Y9704203D01*
X28167691Y9701053D01*
X28146250Y9700000D01*
X27633750Y9700000D01*
X27612309Y9701053D01*
X27591074Y9704203D01*
X27570250Y9709419D01*
X27550038Y9716651D01*
X27530632Y9725830D01*
X27512219Y9736866D01*
X27494976Y9749654D01*
X27479070Y9764070D01*
X27464654Y9779976D01*
X27451866Y9797219D01*
X27440830Y9815632D01*
X27431651Y9835038D01*
X27424419Y9855250D01*
X27419203Y9876074D01*
X27416053Y9897309D01*
X27415000Y9918750D01*
X27415000Y10356250D01*
X27416053Y10377691D01*
X27419203Y10398926D01*
X27424419Y10419750D01*
X27431651Y10439962D01*
X27440830Y10459368D01*
X27451866Y10477781D01*
X27464654Y10495024D01*
X27479070Y10510930D01*
X27494976Y10525346D01*
X27512219Y10538134D01*
X27530632Y10549170D01*
X27550038Y10558349D01*
X27570250Y10565581D01*
X27591074Y10570797D01*
X27612309Y10573947D01*
X27633750Y10575000D01*
X28146250Y10575000D01*
X28167691Y10573947D01*
X28167691Y10573947D01*
G37*
D17*
X27890000Y10137500D03*
D10*
G36*
X28167691Y12148947D02*
G01*
X28188926Y12145797D01*
X28209750Y12140581D01*
X28229962Y12133349D01*
X28249368Y12124170D01*
X28267781Y12113134D01*
X28285024Y12100346D01*
X28300930Y12085930D01*
X28315346Y12070024D01*
X28328134Y12052781D01*
X28339170Y12034368D01*
X28348349Y12014962D01*
X28355581Y11994750D01*
X28360797Y11973926D01*
X28363947Y11952691D01*
X28365000Y11931250D01*
X28365000Y11493750D01*
X28363947Y11472309D01*
X28360797Y11451074D01*
X28355581Y11430250D01*
X28348349Y11410038D01*
X28339170Y11390632D01*
X28328134Y11372219D01*
X28315346Y11354976D01*
X28300930Y11339070D01*
X28285024Y11324654D01*
X28267781Y11311866D01*
X28249368Y11300830D01*
X28229962Y11291651D01*
X28209750Y11284419D01*
X28188926Y11279203D01*
X28167691Y11276053D01*
X28146250Y11275000D01*
X27633750Y11275000D01*
X27612309Y11276053D01*
X27591074Y11279203D01*
X27570250Y11284419D01*
X27550038Y11291651D01*
X27530632Y11300830D01*
X27512219Y11311866D01*
X27494976Y11324654D01*
X27479070Y11339070D01*
X27464654Y11354976D01*
X27451866Y11372219D01*
X27440830Y11390632D01*
X27431651Y11410038D01*
X27424419Y11430250D01*
X27419203Y11451074D01*
X27416053Y11472309D01*
X27415000Y11493750D01*
X27415000Y11931250D01*
X27416053Y11952691D01*
X27419203Y11973926D01*
X27424419Y11994750D01*
X27431651Y12014962D01*
X27440830Y12034368D01*
X27451866Y12052781D01*
X27464654Y12070024D01*
X27479070Y12085930D01*
X27494976Y12100346D01*
X27512219Y12113134D01*
X27530632Y12124170D01*
X27550038Y12133349D01*
X27570250Y12140581D01*
X27591074Y12145797D01*
X27612309Y12148947D01*
X27633750Y12150000D01*
X28146250Y12150000D01*
X28167691Y12148947D01*
X28167691Y12148947D01*
G37*
D17*
X27890000Y11712500D03*
D10*
G36*
X28162691Y3808947D02*
G01*
X28183926Y3805797D01*
X28204750Y3800581D01*
X28224962Y3793349D01*
X28244368Y3784170D01*
X28262781Y3773134D01*
X28280024Y3760346D01*
X28295930Y3745930D01*
X28310346Y3730024D01*
X28323134Y3712781D01*
X28334170Y3694368D01*
X28343349Y3674962D01*
X28350581Y3654750D01*
X28355797Y3633926D01*
X28358947Y3612691D01*
X28360000Y3591250D01*
X28360000Y3153750D01*
X28358947Y3132309D01*
X28355797Y3111074D01*
X28350581Y3090250D01*
X28343349Y3070038D01*
X28334170Y3050632D01*
X28323134Y3032219D01*
X28310346Y3014976D01*
X28295930Y2999070D01*
X28280024Y2984654D01*
X28262781Y2971866D01*
X28244368Y2960830D01*
X28224962Y2951651D01*
X28204750Y2944419D01*
X28183926Y2939203D01*
X28162691Y2936053D01*
X28141250Y2935000D01*
X27628750Y2935000D01*
X27607309Y2936053D01*
X27586074Y2939203D01*
X27565250Y2944419D01*
X27545038Y2951651D01*
X27525632Y2960830D01*
X27507219Y2971866D01*
X27489976Y2984654D01*
X27474070Y2999070D01*
X27459654Y3014976D01*
X27446866Y3032219D01*
X27435830Y3050632D01*
X27426651Y3070038D01*
X27419419Y3090250D01*
X27414203Y3111074D01*
X27411053Y3132309D01*
X27410000Y3153750D01*
X27410000Y3591250D01*
X27411053Y3612691D01*
X27414203Y3633926D01*
X27419419Y3654750D01*
X27426651Y3674962D01*
X27435830Y3694368D01*
X27446866Y3712781D01*
X27459654Y3730024D01*
X27474070Y3745930D01*
X27489976Y3760346D01*
X27507219Y3773134D01*
X27525632Y3784170D01*
X27545038Y3793349D01*
X27565250Y3800581D01*
X27586074Y3805797D01*
X27607309Y3808947D01*
X27628750Y3810000D01*
X28141250Y3810000D01*
X28162691Y3808947D01*
X28162691Y3808947D01*
G37*
D17*
X27885000Y3372500D03*
D10*
G36*
X28162691Y5383947D02*
G01*
X28183926Y5380797D01*
X28204750Y5375581D01*
X28224962Y5368349D01*
X28244368Y5359170D01*
X28262781Y5348134D01*
X28280024Y5335346D01*
X28295930Y5320930D01*
X28310346Y5305024D01*
X28323134Y5287781D01*
X28334170Y5269368D01*
X28343349Y5249962D01*
X28350581Y5229750D01*
X28355797Y5208926D01*
X28358947Y5187691D01*
X28360000Y5166250D01*
X28360000Y4728750D01*
X28358947Y4707309D01*
X28355797Y4686074D01*
X28350581Y4665250D01*
X28343349Y4645038D01*
X28334170Y4625632D01*
X28323134Y4607219D01*
X28310346Y4589976D01*
X28295930Y4574070D01*
X28280024Y4559654D01*
X28262781Y4546866D01*
X28244368Y4535830D01*
X28224962Y4526651D01*
X28204750Y4519419D01*
X28183926Y4514203D01*
X28162691Y4511053D01*
X28141250Y4510000D01*
X27628750Y4510000D01*
X27607309Y4511053D01*
X27586074Y4514203D01*
X27565250Y4519419D01*
X27545038Y4526651D01*
X27525632Y4535830D01*
X27507219Y4546866D01*
X27489976Y4559654D01*
X27474070Y4574070D01*
X27459654Y4589976D01*
X27446866Y4607219D01*
X27435830Y4625632D01*
X27426651Y4645038D01*
X27419419Y4665250D01*
X27414203Y4686074D01*
X27411053Y4707309D01*
X27410000Y4728750D01*
X27410000Y5166250D01*
X27411053Y5187691D01*
X27414203Y5208926D01*
X27419419Y5229750D01*
X27426651Y5249962D01*
X27435830Y5269368D01*
X27446866Y5287781D01*
X27459654Y5305024D01*
X27474070Y5320930D01*
X27489976Y5335346D01*
X27507219Y5348134D01*
X27525632Y5359170D01*
X27545038Y5368349D01*
X27565250Y5375581D01*
X27586074Y5380797D01*
X27607309Y5383947D01*
X27628750Y5385000D01*
X28141250Y5385000D01*
X28162691Y5383947D01*
X28162691Y5383947D01*
G37*
D17*
X27885000Y4947500D03*
D10*
G36*
X28162691Y-2941053D02*
G01*
X28183926Y-2944203D01*
X28204750Y-2949419D01*
X28224962Y-2956651D01*
X28244368Y-2965830D01*
X28262781Y-2976866D01*
X28280024Y-2989654D01*
X28295930Y-3004070D01*
X28310346Y-3019976D01*
X28323134Y-3037219D01*
X28334170Y-3055632D01*
X28343349Y-3075038D01*
X28350581Y-3095250D01*
X28355797Y-3116074D01*
X28358947Y-3137309D01*
X28360000Y-3158750D01*
X28360000Y-3596250D01*
X28358947Y-3617691D01*
X28355797Y-3638926D01*
X28350581Y-3659750D01*
X28343349Y-3679962D01*
X28334170Y-3699368D01*
X28323134Y-3717781D01*
X28310346Y-3735024D01*
X28295930Y-3750930D01*
X28280024Y-3765346D01*
X28262781Y-3778134D01*
X28244368Y-3789170D01*
X28224962Y-3798349D01*
X28204750Y-3805581D01*
X28183926Y-3810797D01*
X28162691Y-3813947D01*
X28141250Y-3815000D01*
X27628750Y-3815000D01*
X27607309Y-3813947D01*
X27586074Y-3810797D01*
X27565250Y-3805581D01*
X27545038Y-3798349D01*
X27525632Y-3789170D01*
X27507219Y-3778134D01*
X27489976Y-3765346D01*
X27474070Y-3750930D01*
X27459654Y-3735024D01*
X27446866Y-3717781D01*
X27435830Y-3699368D01*
X27426651Y-3679962D01*
X27419419Y-3659750D01*
X27414203Y-3638926D01*
X27411053Y-3617691D01*
X27410000Y-3596250D01*
X27410000Y-3158750D01*
X27411053Y-3137309D01*
X27414203Y-3116074D01*
X27419419Y-3095250D01*
X27426651Y-3075038D01*
X27435830Y-3055632D01*
X27446866Y-3037219D01*
X27459654Y-3019976D01*
X27474070Y-3004070D01*
X27489976Y-2989654D01*
X27507219Y-2976866D01*
X27525632Y-2965830D01*
X27545038Y-2956651D01*
X27565250Y-2949419D01*
X27586074Y-2944203D01*
X27607309Y-2941053D01*
X27628750Y-2940000D01*
X28141250Y-2940000D01*
X28162691Y-2941053D01*
X28162691Y-2941053D01*
G37*
D17*
X27885000Y-3377500D03*
D10*
G36*
X28162691Y-1366053D02*
G01*
X28183926Y-1369203D01*
X28204750Y-1374419D01*
X28224962Y-1381651D01*
X28244368Y-1390830D01*
X28262781Y-1401866D01*
X28280024Y-1414654D01*
X28295930Y-1429070D01*
X28310346Y-1444976D01*
X28323134Y-1462219D01*
X28334170Y-1480632D01*
X28343349Y-1500038D01*
X28350581Y-1520250D01*
X28355797Y-1541074D01*
X28358947Y-1562309D01*
X28360000Y-1583750D01*
X28360000Y-2021250D01*
X28358947Y-2042691D01*
X28355797Y-2063926D01*
X28350581Y-2084750D01*
X28343349Y-2104962D01*
X28334170Y-2124368D01*
X28323134Y-2142781D01*
X28310346Y-2160024D01*
X28295930Y-2175930D01*
X28280024Y-2190346D01*
X28262781Y-2203134D01*
X28244368Y-2214170D01*
X28224962Y-2223349D01*
X28204750Y-2230581D01*
X28183926Y-2235797D01*
X28162691Y-2238947D01*
X28141250Y-2240000D01*
X27628750Y-2240000D01*
X27607309Y-2238947D01*
X27586074Y-2235797D01*
X27565250Y-2230581D01*
X27545038Y-2223349D01*
X27525632Y-2214170D01*
X27507219Y-2203134D01*
X27489976Y-2190346D01*
X27474070Y-2175930D01*
X27459654Y-2160024D01*
X27446866Y-2142781D01*
X27435830Y-2124368D01*
X27426651Y-2104962D01*
X27419419Y-2084750D01*
X27414203Y-2063926D01*
X27411053Y-2042691D01*
X27410000Y-2021250D01*
X27410000Y-1583750D01*
X27411053Y-1562309D01*
X27414203Y-1541074D01*
X27419419Y-1520250D01*
X27426651Y-1500038D01*
X27435830Y-1480632D01*
X27446866Y-1462219D01*
X27459654Y-1444976D01*
X27474070Y-1429070D01*
X27489976Y-1414654D01*
X27507219Y-1401866D01*
X27525632Y-1390830D01*
X27545038Y-1381651D01*
X27565250Y-1374419D01*
X27586074Y-1369203D01*
X27607309Y-1366053D01*
X27628750Y-1365000D01*
X28141250Y-1365000D01*
X28162691Y-1366053D01*
X28162691Y-1366053D01*
G37*
D17*
X27885000Y-1802500D03*
D10*
G36*
X28172691Y-9691053D02*
G01*
X28193926Y-9694203D01*
X28214750Y-9699419D01*
X28234962Y-9706651D01*
X28254368Y-9715830D01*
X28272781Y-9726866D01*
X28290024Y-9739654D01*
X28305930Y-9754070D01*
X28320346Y-9769976D01*
X28333134Y-9787219D01*
X28344170Y-9805632D01*
X28353349Y-9825038D01*
X28360581Y-9845250D01*
X28365797Y-9866074D01*
X28368947Y-9887309D01*
X28370000Y-9908750D01*
X28370000Y-10346250D01*
X28368947Y-10367691D01*
X28365797Y-10388926D01*
X28360581Y-10409750D01*
X28353349Y-10429962D01*
X28344170Y-10449368D01*
X28333134Y-10467781D01*
X28320346Y-10485024D01*
X28305930Y-10500930D01*
X28290024Y-10515346D01*
X28272781Y-10528134D01*
X28254368Y-10539170D01*
X28234962Y-10548349D01*
X28214750Y-10555581D01*
X28193926Y-10560797D01*
X28172691Y-10563947D01*
X28151250Y-10565000D01*
X27638750Y-10565000D01*
X27617309Y-10563947D01*
X27596074Y-10560797D01*
X27575250Y-10555581D01*
X27555038Y-10548349D01*
X27535632Y-10539170D01*
X27517219Y-10528134D01*
X27499976Y-10515346D01*
X27484070Y-10500930D01*
X27469654Y-10485024D01*
X27456866Y-10467781D01*
X27445830Y-10449368D01*
X27436651Y-10429962D01*
X27429419Y-10409750D01*
X27424203Y-10388926D01*
X27421053Y-10367691D01*
X27420000Y-10346250D01*
X27420000Y-9908750D01*
X27421053Y-9887309D01*
X27424203Y-9866074D01*
X27429419Y-9845250D01*
X27436651Y-9825038D01*
X27445830Y-9805632D01*
X27456866Y-9787219D01*
X27469654Y-9769976D01*
X27484070Y-9754070D01*
X27499976Y-9739654D01*
X27517219Y-9726866D01*
X27535632Y-9715830D01*
X27555038Y-9706651D01*
X27575250Y-9699419D01*
X27596074Y-9694203D01*
X27617309Y-9691053D01*
X27638750Y-9690000D01*
X28151250Y-9690000D01*
X28172691Y-9691053D01*
X28172691Y-9691053D01*
G37*
D17*
X27895000Y-10127500D03*
D10*
G36*
X28172691Y-8116053D02*
G01*
X28193926Y-8119203D01*
X28214750Y-8124419D01*
X28234962Y-8131651D01*
X28254368Y-8140830D01*
X28272781Y-8151866D01*
X28290024Y-8164654D01*
X28305930Y-8179070D01*
X28320346Y-8194976D01*
X28333134Y-8212219D01*
X28344170Y-8230632D01*
X28353349Y-8250038D01*
X28360581Y-8270250D01*
X28365797Y-8291074D01*
X28368947Y-8312309D01*
X28370000Y-8333750D01*
X28370000Y-8771250D01*
X28368947Y-8792691D01*
X28365797Y-8813926D01*
X28360581Y-8834750D01*
X28353349Y-8854962D01*
X28344170Y-8874368D01*
X28333134Y-8892781D01*
X28320346Y-8910024D01*
X28305930Y-8925930D01*
X28290024Y-8940346D01*
X28272781Y-8953134D01*
X28254368Y-8964170D01*
X28234962Y-8973349D01*
X28214750Y-8980581D01*
X28193926Y-8985797D01*
X28172691Y-8988947D01*
X28151250Y-8990000D01*
X27638750Y-8990000D01*
X27617309Y-8988947D01*
X27596074Y-8985797D01*
X27575250Y-8980581D01*
X27555038Y-8973349D01*
X27535632Y-8964170D01*
X27517219Y-8953134D01*
X27499976Y-8940346D01*
X27484070Y-8925930D01*
X27469654Y-8910024D01*
X27456866Y-8892781D01*
X27445830Y-8874368D01*
X27436651Y-8854962D01*
X27429419Y-8834750D01*
X27424203Y-8813926D01*
X27421053Y-8792691D01*
X27420000Y-8771250D01*
X27420000Y-8333750D01*
X27421053Y-8312309D01*
X27424203Y-8291074D01*
X27429419Y-8270250D01*
X27436651Y-8250038D01*
X27445830Y-8230632D01*
X27456866Y-8212219D01*
X27469654Y-8194976D01*
X27484070Y-8179070D01*
X27499976Y-8164654D01*
X27517219Y-8151866D01*
X27535632Y-8140830D01*
X27555038Y-8131651D01*
X27575250Y-8124419D01*
X27596074Y-8119203D01*
X27617309Y-8116053D01*
X27638750Y-8115000D01*
X28151250Y-8115000D01*
X28172691Y-8116053D01*
X28172691Y-8116053D01*
G37*
D17*
X27895000Y-8552500D03*
D10*
G36*
X28162691Y-16431053D02*
G01*
X28183926Y-16434203D01*
X28204750Y-16439419D01*
X28224962Y-16446651D01*
X28244368Y-16455830D01*
X28262781Y-16466866D01*
X28280024Y-16479654D01*
X28295930Y-16494070D01*
X28310346Y-16509976D01*
X28323134Y-16527219D01*
X28334170Y-16545632D01*
X28343349Y-16565038D01*
X28350581Y-16585250D01*
X28355797Y-16606074D01*
X28358947Y-16627309D01*
X28360000Y-16648750D01*
X28360000Y-17086250D01*
X28358947Y-17107691D01*
X28355797Y-17128926D01*
X28350581Y-17149750D01*
X28343349Y-17169962D01*
X28334170Y-17189368D01*
X28323134Y-17207781D01*
X28310346Y-17225024D01*
X28295930Y-17240930D01*
X28280024Y-17255346D01*
X28262781Y-17268134D01*
X28244368Y-17279170D01*
X28224962Y-17288349D01*
X28204750Y-17295581D01*
X28183926Y-17300797D01*
X28162691Y-17303947D01*
X28141250Y-17305000D01*
X27628750Y-17305000D01*
X27607309Y-17303947D01*
X27586074Y-17300797D01*
X27565250Y-17295581D01*
X27545038Y-17288349D01*
X27525632Y-17279170D01*
X27507219Y-17268134D01*
X27489976Y-17255346D01*
X27474070Y-17240930D01*
X27459654Y-17225024D01*
X27446866Y-17207781D01*
X27435830Y-17189368D01*
X27426651Y-17169962D01*
X27419419Y-17149750D01*
X27414203Y-17128926D01*
X27411053Y-17107691D01*
X27410000Y-17086250D01*
X27410000Y-16648750D01*
X27411053Y-16627309D01*
X27414203Y-16606074D01*
X27419419Y-16585250D01*
X27426651Y-16565038D01*
X27435830Y-16545632D01*
X27446866Y-16527219D01*
X27459654Y-16509976D01*
X27474070Y-16494070D01*
X27489976Y-16479654D01*
X27507219Y-16466866D01*
X27525632Y-16455830D01*
X27545038Y-16446651D01*
X27565250Y-16439419D01*
X27586074Y-16434203D01*
X27607309Y-16431053D01*
X27628750Y-16430000D01*
X28141250Y-16430000D01*
X28162691Y-16431053D01*
X28162691Y-16431053D01*
G37*
D17*
X27885000Y-16867500D03*
D10*
G36*
X28162691Y-14856053D02*
G01*
X28183926Y-14859203D01*
X28204750Y-14864419D01*
X28224962Y-14871651D01*
X28244368Y-14880830D01*
X28262781Y-14891866D01*
X28280024Y-14904654D01*
X28295930Y-14919070D01*
X28310346Y-14934976D01*
X28323134Y-14952219D01*
X28334170Y-14970632D01*
X28343349Y-14990038D01*
X28350581Y-15010250D01*
X28355797Y-15031074D01*
X28358947Y-15052309D01*
X28360000Y-15073750D01*
X28360000Y-15511250D01*
X28358947Y-15532691D01*
X28355797Y-15553926D01*
X28350581Y-15574750D01*
X28343349Y-15594962D01*
X28334170Y-15614368D01*
X28323134Y-15632781D01*
X28310346Y-15650024D01*
X28295930Y-15665930D01*
X28280024Y-15680346D01*
X28262781Y-15693134D01*
X28244368Y-15704170D01*
X28224962Y-15713349D01*
X28204750Y-15720581D01*
X28183926Y-15725797D01*
X28162691Y-15728947D01*
X28141250Y-15730000D01*
X27628750Y-15730000D01*
X27607309Y-15728947D01*
X27586074Y-15725797D01*
X27565250Y-15720581D01*
X27545038Y-15713349D01*
X27525632Y-15704170D01*
X27507219Y-15693134D01*
X27489976Y-15680346D01*
X27474070Y-15665930D01*
X27459654Y-15650024D01*
X27446866Y-15632781D01*
X27435830Y-15614368D01*
X27426651Y-15594962D01*
X27419419Y-15574750D01*
X27414203Y-15553926D01*
X27411053Y-15532691D01*
X27410000Y-15511250D01*
X27410000Y-15073750D01*
X27411053Y-15052309D01*
X27414203Y-15031074D01*
X27419419Y-15010250D01*
X27426651Y-14990038D01*
X27435830Y-14970632D01*
X27446866Y-14952219D01*
X27459654Y-14934976D01*
X27474070Y-14919070D01*
X27489976Y-14904654D01*
X27507219Y-14891866D01*
X27525632Y-14880830D01*
X27545038Y-14871651D01*
X27565250Y-14864419D01*
X27586074Y-14859203D01*
X27607309Y-14856053D01*
X27628750Y-14855000D01*
X28141250Y-14855000D01*
X28162691Y-14856053D01*
X28162691Y-14856053D01*
G37*
D17*
X27885000Y-15292500D03*
D10*
G36*
X28162691Y-23191053D02*
G01*
X28183926Y-23194203D01*
X28204750Y-23199419D01*
X28224962Y-23206651D01*
X28244368Y-23215830D01*
X28262781Y-23226866D01*
X28280024Y-23239654D01*
X28295930Y-23254070D01*
X28310346Y-23269976D01*
X28323134Y-23287219D01*
X28334170Y-23305632D01*
X28343349Y-23325038D01*
X28350581Y-23345250D01*
X28355797Y-23366074D01*
X28358947Y-23387309D01*
X28360000Y-23408750D01*
X28360000Y-23846250D01*
X28358947Y-23867691D01*
X28355797Y-23888926D01*
X28350581Y-23909750D01*
X28343349Y-23929962D01*
X28334170Y-23949368D01*
X28323134Y-23967781D01*
X28310346Y-23985024D01*
X28295930Y-24000930D01*
X28280024Y-24015346D01*
X28262781Y-24028134D01*
X28244368Y-24039170D01*
X28224962Y-24048349D01*
X28204750Y-24055581D01*
X28183926Y-24060797D01*
X28162691Y-24063947D01*
X28141250Y-24065000D01*
X27628750Y-24065000D01*
X27607309Y-24063947D01*
X27586074Y-24060797D01*
X27565250Y-24055581D01*
X27545038Y-24048349D01*
X27525632Y-24039170D01*
X27507219Y-24028134D01*
X27489976Y-24015346D01*
X27474070Y-24000930D01*
X27459654Y-23985024D01*
X27446866Y-23967781D01*
X27435830Y-23949368D01*
X27426651Y-23929962D01*
X27419419Y-23909750D01*
X27414203Y-23888926D01*
X27411053Y-23867691D01*
X27410000Y-23846250D01*
X27410000Y-23408750D01*
X27411053Y-23387309D01*
X27414203Y-23366074D01*
X27419419Y-23345250D01*
X27426651Y-23325038D01*
X27435830Y-23305632D01*
X27446866Y-23287219D01*
X27459654Y-23269976D01*
X27474070Y-23254070D01*
X27489976Y-23239654D01*
X27507219Y-23226866D01*
X27525632Y-23215830D01*
X27545038Y-23206651D01*
X27565250Y-23199419D01*
X27586074Y-23194203D01*
X27607309Y-23191053D01*
X27628750Y-23190000D01*
X28141250Y-23190000D01*
X28162691Y-23191053D01*
X28162691Y-23191053D01*
G37*
D17*
X27885000Y-23627500D03*
D10*
G36*
X28162691Y-21616053D02*
G01*
X28183926Y-21619203D01*
X28204750Y-21624419D01*
X28224962Y-21631651D01*
X28244368Y-21640830D01*
X28262781Y-21651866D01*
X28280024Y-21664654D01*
X28295930Y-21679070D01*
X28310346Y-21694976D01*
X28323134Y-21712219D01*
X28334170Y-21730632D01*
X28343349Y-21750038D01*
X28350581Y-21770250D01*
X28355797Y-21791074D01*
X28358947Y-21812309D01*
X28360000Y-21833750D01*
X28360000Y-22271250D01*
X28358947Y-22292691D01*
X28355797Y-22313926D01*
X28350581Y-22334750D01*
X28343349Y-22354962D01*
X28334170Y-22374368D01*
X28323134Y-22392781D01*
X28310346Y-22410024D01*
X28295930Y-22425930D01*
X28280024Y-22440346D01*
X28262781Y-22453134D01*
X28244368Y-22464170D01*
X28224962Y-22473349D01*
X28204750Y-22480581D01*
X28183926Y-22485797D01*
X28162691Y-22488947D01*
X28141250Y-22490000D01*
X27628750Y-22490000D01*
X27607309Y-22488947D01*
X27586074Y-22485797D01*
X27565250Y-22480581D01*
X27545038Y-22473349D01*
X27525632Y-22464170D01*
X27507219Y-22453134D01*
X27489976Y-22440346D01*
X27474070Y-22425930D01*
X27459654Y-22410024D01*
X27446866Y-22392781D01*
X27435830Y-22374368D01*
X27426651Y-22354962D01*
X27419419Y-22334750D01*
X27414203Y-22313926D01*
X27411053Y-22292691D01*
X27410000Y-22271250D01*
X27410000Y-21833750D01*
X27411053Y-21812309D01*
X27414203Y-21791074D01*
X27419419Y-21770250D01*
X27426651Y-21750038D01*
X27435830Y-21730632D01*
X27446866Y-21712219D01*
X27459654Y-21694976D01*
X27474070Y-21679070D01*
X27489976Y-21664654D01*
X27507219Y-21651866D01*
X27525632Y-21640830D01*
X27545038Y-21631651D01*
X27565250Y-21624419D01*
X27586074Y-21619203D01*
X27607309Y-21616053D01*
X27628750Y-21615000D01*
X28141250Y-21615000D01*
X28162691Y-21616053D01*
X28162691Y-21616053D01*
G37*
D17*
X27885000Y-22052500D03*
D15*
X3800000Y40000000D03*
D14*
X1260000Y40000000D03*
X-1280000Y40000000D03*
X-3820000Y40000000D03*
D15*
X-12700000Y29210000D03*
X12700000Y29210000D03*
X-12700000Y-29210000D03*
X12700000Y-29210000D03*
D18*
X-23625000Y22025000D03*
X-16875000Y25230000D03*
X-31375000Y22825000D03*
X-3375000Y-23620000D03*
X10125000Y-23620000D03*
X3375000Y-23620000D03*
X16875000Y-23620000D03*
X-23625000Y-23625000D03*
X23625000Y-23620000D03*
X-16875000Y-23625000D03*
X-10125000Y-23620000D03*
X-3375000Y-16870000D03*
X10125000Y-16870000D03*
X3375000Y-16870000D03*
X16875000Y-16870000D03*
X-23625000Y-16875000D03*
X23625000Y-16870000D03*
X-16875000Y-16875000D03*
X-10125000Y-16870000D03*
X-3375000Y-10120000D03*
X10125000Y-10120000D03*
X3375000Y-10120000D03*
X16875000Y-10120000D03*
X-23625000Y-10125000D03*
X23625000Y-10120000D03*
X-16875000Y-10125000D03*
X-10125000Y-10120000D03*
X-3375000Y-3370000D03*
X10125000Y-3370000D03*
X3375000Y-3370000D03*
X16875000Y-3370000D03*
X-23625000Y-3375000D03*
X23625000Y-3370000D03*
X-16875000Y-3375000D03*
X-10125000Y-3370000D03*
X-3375000Y3380000D03*
X10125000Y3380000D03*
X3375000Y3380000D03*
X16875000Y3380000D03*
X-23625000Y3375000D03*
X23625000Y3380000D03*
X-16875000Y3375000D03*
X-10125000Y3380000D03*
X-3375000Y10130000D03*
X10125000Y10130000D03*
X3375000Y10130000D03*
X16875000Y10130000D03*
X-23625000Y10125000D03*
X23625000Y10130000D03*
X-16875000Y10125000D03*
X-10125000Y10130000D03*
X23625000Y16880000D03*
X-16875000Y16875000D03*
X-10125000Y16880000D03*
X16875000Y16880000D03*
X10125000Y16880000D03*
X-3375000Y16880000D03*
X3375000Y16880000D03*
X-23625000Y16875000D03*
X23625000Y23630000D03*
X16875000Y23630000D03*
X10125000Y23630000D03*
X3375000Y23630000D03*
X-3375000Y23630000D03*
X-10125000Y23630000D03*
X-16875000Y23625000D03*
X-23625000Y23625000D03*
X-10125000Y25230000D03*
X-16875000Y22025000D03*
X-3375000Y25230000D03*
X-10125000Y22025000D03*
X-3375000Y22025000D03*
X3375000Y25230000D03*
X10125000Y25230000D03*
X3375000Y22025000D03*
X10125000Y22025000D03*
X16875000Y25230000D03*
X23625000Y25230000D03*
X16875000Y22025000D03*
X-3375000Y18480000D03*
X-10125000Y15275000D03*
X-16875000Y15275000D03*
X-10125000Y18480000D03*
X3375000Y18480000D03*
X-3375000Y15275000D03*
X10125000Y18480000D03*
X3375000Y15275000D03*
X10125000Y15275000D03*
X16875000Y18480000D03*
X23625000Y18480000D03*
X16875000Y15275000D03*
X-16875000Y8525000D03*
X-10125000Y11730000D03*
X-10125000Y8525000D03*
X-3375000Y11730000D03*
X-3375000Y8525000D03*
X3375000Y11730000D03*
X3375000Y8525000D03*
X10125000Y11730000D03*
X10125000Y8525000D03*
X16875000Y11730000D03*
X16875000Y8525000D03*
X23625000Y11730000D03*
X-16875000Y1775000D03*
X-10125000Y4980000D03*
X-10125000Y1775000D03*
X-3375000Y4980000D03*
X-3375000Y1775000D03*
X3375000Y4980000D03*
X3375000Y1775000D03*
X10125000Y4980000D03*
X10125000Y1775000D03*
X16875000Y4980000D03*
X16875000Y1775000D03*
X23625000Y4980000D03*
X-16875000Y-4975000D03*
X-10125000Y-1770000D03*
X-10125000Y-4975000D03*
X-3375000Y-1770000D03*
X-3375000Y-4975000D03*
X3375000Y-1770000D03*
X3375000Y-4975000D03*
X10125000Y-1770000D03*
X10125000Y-4975000D03*
X16875000Y-1770000D03*
X16875000Y-4975000D03*
X23625000Y-1770000D03*
X-16875000Y-11725000D03*
X-10125000Y-8520000D03*
X-10125000Y-11725000D03*
X-3375000Y-8520000D03*
X-3375000Y-11725000D03*
X3375000Y-8520000D03*
X3375000Y-11725000D03*
X10125000Y-8520000D03*
X10125000Y-11725000D03*
X16875000Y-8520000D03*
X16875000Y-11725000D03*
X23625000Y-8520000D03*
X-16875000Y-18475000D03*
X-10125000Y-15270000D03*
X-10125000Y-18475000D03*
X-3375000Y-15270000D03*
X-3375000Y-18475000D03*
X3375000Y-15270000D03*
X3375000Y-18475000D03*
X10125000Y-15270000D03*
X10125000Y-18475000D03*
X16875000Y-15270000D03*
X16875000Y-18475000D03*
X23625000Y-15270000D03*
X-16875000Y-25225000D03*
X-10125000Y-22020000D03*
X-10125000Y-25225000D03*
X-3375000Y-22020000D03*
X-3375000Y-25225000D03*
X3375000Y-22020000D03*
X3375000Y-25225000D03*
X10125000Y-22020000D03*
X10125000Y-25225000D03*
X16875000Y-22020000D03*
X16875000Y-25225000D03*
X23625000Y-22020000D03*
X-26100000Y19930000D03*
X-23625000Y18480000D03*
X23625000Y22025000D03*
X27945000Y22020000D03*
X-16875000Y18480000D03*
X-23625000Y15275000D03*
X-26100000Y13180000D03*
X-23625000Y11730000D03*
X23625000Y15275000D03*
X27945000Y15270000D03*
X-16875000Y11730000D03*
X-23625000Y8525000D03*
X-26100000Y6430000D03*
X-23625000Y4980000D03*
X23625000Y8525000D03*
X27945000Y8520000D03*
X-16875000Y4980000D03*
X-23625000Y1775000D03*
X-26100000Y-320000D03*
X-23625000Y-1770000D03*
X23625000Y1775000D03*
X27945000Y1770000D03*
X-16875000Y-1770000D03*
X-23625000Y-4975000D03*
X-26100000Y-7070000D03*
X-23625000Y-8520000D03*
X23625000Y-4975000D03*
X27945000Y-4980000D03*
X-16875000Y-8520000D03*
X-23625000Y-11725000D03*
X-26100000Y-13820000D03*
X-23625000Y-15270000D03*
X23625000Y-11725000D03*
X27945000Y-11730000D03*
X-16875000Y-15270000D03*
X-23625000Y-18475000D03*
X-23625000Y-22020000D03*
X23625000Y-18475000D03*
X-26100000Y-20570000D03*
X27945000Y-18480000D03*
X-16875000Y-22020000D03*
X-23625000Y-25225000D03*
X-40185000Y-30800000D03*
X-3400000Y36000000D03*
X-19700000Y-32800000D03*
X-40400000Y-1400000D03*
X-16873371Y-36023600D03*
X-13085000Y-39950000D03*
X2400000Y32600000D03*
X-32600000Y-5900000D03*
X-21350000Y-39950000D03*
X-21400000Y-34900000D03*
X-9485000Y-37250000D03*
X40115000Y34485000D03*
D19*
X-35451582Y16401582D02*
X-35560000Y16510000D01*
D20*
X-21175000Y22025000D02*
X-21160000Y22040000D01*
X-14310000Y25225000D02*
X-14425000Y25225000D01*
X-14315000Y25230000D02*
X-16875000Y25230000D01*
X-23625000Y22025000D02*
X-21175000Y22025000D01*
X-24425000Y22825000D02*
X-23625000Y22025000D01*
X-31375000Y22825000D02*
X-24425000Y22825000D01*
D19*
X-35325000Y11430000D02*
X-35560000Y11430000D01*
X-35125000Y8890000D02*
X-35560000Y8890000D01*
X15770000Y-23180000D02*
X15770000Y-21060000D01*
X8575000Y-23625000D02*
X9020000Y-23180000D01*
X-18425000Y-23625000D02*
X-17980000Y-23180000D01*
X9020000Y-23180000D02*
X9020000Y-21060000D01*
X22520000Y-23180000D02*
X22520000Y-21060000D01*
X15325000Y-23625000D02*
X15770000Y-23180000D01*
X7675000Y-23625000D02*
X8575000Y-23625000D01*
X-17980000Y-23180000D02*
X-17980000Y-21060000D01*
X-4480000Y-23180000D02*
X-4480000Y-21060000D01*
X21175000Y-23625000D02*
X22075000Y-23625000D01*
X-11675000Y-23625000D02*
X-11230000Y-23180000D01*
X925000Y-23625000D02*
X1825000Y-23625000D01*
X-12575000Y-23625000D02*
X-11675000Y-23625000D01*
X1825000Y-23625000D02*
X2270000Y-23180000D01*
X-19325000Y-23625000D02*
X-18425000Y-23625000D01*
X-5825000Y-23625000D02*
X-4925000Y-23625000D01*
X14425000Y-23625000D02*
X15325000Y-23625000D01*
X22075000Y-23625000D02*
X22520000Y-23180000D01*
X-4925000Y-23625000D02*
X-4480000Y-23180000D01*
X2270000Y-23180000D02*
X2270000Y-21060000D01*
X-11230000Y-23180000D02*
X-11230000Y-21060000D01*
X-24730000Y-21030000D02*
X-19315000Y-21030000D01*
X-24730000Y-23180000D02*
X-24730000Y-21060000D01*
X-26075000Y-23625000D02*
X-25175000Y-23625000D01*
X-25175000Y-23625000D02*
X-24730000Y-23180000D01*
X15770000Y-16430000D02*
X15770000Y-14310000D01*
X8575000Y-16875000D02*
X9020000Y-16430000D01*
X-18425000Y-16875000D02*
X-17980000Y-16430000D01*
X9020000Y-16430000D02*
X9020000Y-14310000D01*
X22520000Y-16430000D02*
X22520000Y-14310000D01*
X15325000Y-16875000D02*
X15770000Y-16430000D01*
X7675000Y-16875000D02*
X8575000Y-16875000D01*
X-17980000Y-16430000D02*
X-17980000Y-14310000D01*
X-4480000Y-16430000D02*
X-4480000Y-14310000D01*
X21175000Y-16875000D02*
X22075000Y-16875000D01*
X-11675000Y-16875000D02*
X-11230000Y-16430000D01*
X925000Y-16875000D02*
X1825000Y-16875000D01*
X-12575000Y-16875000D02*
X-11675000Y-16875000D01*
X1825000Y-16875000D02*
X2270000Y-16430000D01*
X-19325000Y-16875000D02*
X-18425000Y-16875000D01*
X-5825000Y-16875000D02*
X-4925000Y-16875000D01*
X14425000Y-16875000D02*
X15325000Y-16875000D01*
X22075000Y-16875000D02*
X22520000Y-16430000D01*
X-4925000Y-16875000D02*
X-4480000Y-16430000D01*
X2270000Y-16430000D02*
X2270000Y-14310000D01*
X-11230000Y-16430000D02*
X-11230000Y-14310000D01*
X-24730000Y-14280000D02*
X-19315000Y-14280000D01*
X-24730000Y-16430000D02*
X-24730000Y-14310000D01*
X-26075000Y-16875000D02*
X-25175000Y-16875000D01*
X-25175000Y-16875000D02*
X-24730000Y-16430000D01*
X15770000Y-9680000D02*
X15770000Y-7560000D01*
X8575000Y-10125000D02*
X9020000Y-9680000D01*
X-18425000Y-10125000D02*
X-17980000Y-9680000D01*
X9020000Y-9680000D02*
X9020000Y-7560000D01*
X22520000Y-9680000D02*
X22520000Y-7560000D01*
X15325000Y-10125000D02*
X15770000Y-9680000D01*
X7675000Y-10125000D02*
X8575000Y-10125000D01*
X-17980000Y-9680000D02*
X-17980000Y-7560000D01*
X-4480000Y-9680000D02*
X-4480000Y-7560000D01*
X21175000Y-10125000D02*
X22075000Y-10125000D01*
X-11675000Y-10125000D02*
X-11230000Y-9680000D01*
X925000Y-10125000D02*
X1825000Y-10125000D01*
X-12575000Y-10125000D02*
X-11675000Y-10125000D01*
X1825000Y-10125000D02*
X2270000Y-9680000D01*
X-19325000Y-10125000D02*
X-18425000Y-10125000D01*
X-5825000Y-10125000D02*
X-4925000Y-10125000D01*
X14425000Y-10125000D02*
X15325000Y-10125000D01*
X22075000Y-10125000D02*
X22520000Y-9680000D01*
X-4925000Y-10125000D02*
X-4480000Y-9680000D01*
X2270000Y-9680000D02*
X2270000Y-7560000D01*
X-11230000Y-9680000D02*
X-11230000Y-7560000D01*
X-24730000Y-7530000D02*
X-19315000Y-7530000D01*
X-24730000Y-9680000D02*
X-24730000Y-7560000D01*
X-26075000Y-10125000D02*
X-25175000Y-10125000D01*
X-25175000Y-10125000D02*
X-24730000Y-9680000D01*
X15770000Y-2930000D02*
X15770000Y-810000D01*
X8575000Y-3375000D02*
X9020000Y-2930000D01*
X-18425000Y-3375000D02*
X-17980000Y-2930000D01*
X9020000Y-2930000D02*
X9020000Y-810000D01*
X22520000Y-2930000D02*
X22520000Y-810000D01*
X15325000Y-3375000D02*
X15770000Y-2930000D01*
X7675000Y-3375000D02*
X8575000Y-3375000D01*
X-17980000Y-2930000D02*
X-17980000Y-810000D01*
X-4480000Y-2930000D02*
X-4480000Y-810000D01*
X21175000Y-3375000D02*
X22075000Y-3375000D01*
X-11675000Y-3375000D02*
X-11230000Y-2930000D01*
X925000Y-3375000D02*
X1825000Y-3375000D01*
X-12575000Y-3375000D02*
X-11675000Y-3375000D01*
X1825000Y-3375000D02*
X2270000Y-2930000D01*
X-19325000Y-3375000D02*
X-18425000Y-3375000D01*
X-5825000Y-3375000D02*
X-4925000Y-3375000D01*
X14425000Y-3375000D02*
X15325000Y-3375000D01*
X22075000Y-3375000D02*
X22520000Y-2930000D01*
X-4925000Y-3375000D02*
X-4480000Y-2930000D01*
X2270000Y-2930000D02*
X2270000Y-810000D01*
X-11230000Y-2930000D02*
X-11230000Y-810000D01*
X-24730000Y-780000D02*
X-19315000Y-780000D01*
X-24730000Y-2930000D02*
X-24730000Y-810000D01*
X-26075000Y-3375000D02*
X-25175000Y-3375000D01*
X-25175000Y-3375000D02*
X-24730000Y-2930000D01*
X15770000Y3820000D02*
X15770000Y5940000D01*
X8575000Y3375000D02*
X9020000Y3820000D01*
X-18425000Y3375000D02*
X-17980000Y3820000D01*
X9020000Y3820000D02*
X9020000Y5940000D01*
X22520000Y3820000D02*
X22520000Y5940000D01*
X15325000Y3375000D02*
X15770000Y3820000D01*
X7675000Y3375000D02*
X8575000Y3375000D01*
X-17980000Y3820000D02*
X-17980000Y5940000D01*
X-4480000Y3820000D02*
X-4480000Y5940000D01*
X21175000Y3375000D02*
X22075000Y3375000D01*
X-11675000Y3375000D02*
X-11230000Y3820000D01*
X925000Y3375000D02*
X1825000Y3375000D01*
X-12575000Y3375000D02*
X-11675000Y3375000D01*
X1825000Y3375000D02*
X2270000Y3820000D01*
X-19325000Y3375000D02*
X-18425000Y3375000D01*
X-5825000Y3375000D02*
X-4925000Y3375000D01*
X14425000Y3375000D02*
X15325000Y3375000D01*
X22075000Y3375000D02*
X22520000Y3820000D01*
X-4925000Y3375000D02*
X-4480000Y3820000D01*
X2270000Y3820000D02*
X2270000Y5940000D01*
X-11230000Y3820000D02*
X-11230000Y5940000D01*
X-24730000Y5970000D02*
X-19315000Y5970000D01*
X-24730000Y3820000D02*
X-24730000Y5940000D01*
X-26075000Y3375000D02*
X-25175000Y3375000D01*
X-25175000Y3375000D02*
X-24730000Y3820000D01*
X15770000Y10570000D02*
X15770000Y12690000D01*
X8575000Y10125000D02*
X9020000Y10570000D01*
X-18425000Y10125000D02*
X-17980000Y10570000D01*
X9020000Y10570000D02*
X9020000Y12690000D01*
X22520000Y10570000D02*
X22520000Y12690000D01*
X15325000Y10125000D02*
X15770000Y10570000D01*
X7675000Y10125000D02*
X8575000Y10125000D01*
X-17980000Y10570000D02*
X-17980000Y12690000D01*
X-4480000Y10570000D02*
X-4480000Y12690000D01*
X21175000Y10125000D02*
X22075000Y10125000D01*
X-11675000Y10125000D02*
X-11230000Y10570000D01*
X925000Y10125000D02*
X1825000Y10125000D01*
X-12575000Y10125000D02*
X-11675000Y10125000D01*
X1825000Y10125000D02*
X2270000Y10570000D01*
X-19325000Y10125000D02*
X-18425000Y10125000D01*
X-5825000Y10125000D02*
X-4925000Y10125000D01*
X14425000Y10125000D02*
X15325000Y10125000D01*
X22075000Y10125000D02*
X22520000Y10570000D01*
X-4925000Y10125000D02*
X-4480000Y10570000D01*
X2270000Y10570000D02*
X2270000Y12690000D01*
X-11230000Y10570000D02*
X-11230000Y12690000D01*
X-24730000Y12720000D02*
X-19315000Y12720000D01*
X-24730000Y10570000D02*
X-24730000Y12690000D01*
X-26075000Y10125000D02*
X-25175000Y10125000D01*
X-25175000Y10125000D02*
X-24730000Y10570000D01*
X-24730000Y17320000D02*
X-24730000Y19440000D01*
X-25175000Y16875000D02*
X-24730000Y17320000D01*
X-26075000Y16875000D02*
X-25175000Y16875000D01*
X-5825000Y16875000D02*
X-4925000Y16875000D01*
X-4925000Y16875000D02*
X-4480000Y17320000D01*
X-4480000Y17320000D02*
X-4480000Y19440000D01*
X2270000Y17320000D02*
X2270000Y19440000D01*
X1825000Y16875000D02*
X2270000Y17320000D01*
X-11675000Y16875000D02*
X-11230000Y17320000D01*
X-11230000Y17320000D02*
X-11230000Y19440000D01*
X-12575000Y16875000D02*
X-11675000Y16875000D01*
X925000Y16875000D02*
X1825000Y16875000D01*
X-19325000Y16875000D02*
X-18425000Y16875000D01*
X14425000Y16875000D02*
X15325000Y16875000D01*
X21175000Y16875000D02*
X22075000Y16875000D01*
X22075000Y16875000D02*
X22520000Y17320000D01*
X15325000Y16875000D02*
X15770000Y17320000D01*
X-18425000Y16875000D02*
X-17980000Y17320000D01*
X22520000Y17320000D02*
X22520000Y19440000D01*
X-17980000Y17320000D02*
X-17980000Y19440000D01*
X9020000Y17320000D02*
X9020000Y19440000D01*
X8575000Y16875000D02*
X9020000Y17320000D01*
X7675000Y16875000D02*
X8575000Y16875000D01*
X15770000Y17320000D02*
X15770000Y19440000D01*
X22520000Y24070000D02*
X22520000Y26190000D01*
X22075000Y23625000D02*
X22520000Y24070000D01*
X21175000Y23625000D02*
X22075000Y23625000D01*
X15770000Y24070000D02*
X15770000Y26190000D01*
X15325000Y23625000D02*
X15770000Y24070000D01*
X14425000Y23625000D02*
X15325000Y23625000D01*
X9020000Y24070000D02*
X9020000Y26190000D01*
X8575000Y23625000D02*
X9020000Y24070000D01*
X7675000Y23625000D02*
X8575000Y23625000D01*
X2270000Y24070000D02*
X2270000Y26190000D01*
X1825000Y23625000D02*
X2270000Y24070000D01*
X925000Y23625000D02*
X1825000Y23625000D01*
X-4480000Y24070000D02*
X-4480000Y26190000D01*
X-4925000Y23625000D02*
X-4480000Y24070000D01*
X-5825000Y23625000D02*
X-4925000Y23625000D01*
X-11230000Y24070000D02*
X-11230000Y26190000D01*
X-11675000Y23625000D02*
X-11230000Y24070000D01*
X-12575000Y23625000D02*
X-11675000Y23625000D01*
X-17980000Y24070000D02*
X-17980000Y26190000D01*
X-18425000Y23625000D02*
X-17980000Y24070000D01*
X-19325000Y23625000D02*
X-18425000Y23625000D01*
X-5825000Y19470000D02*
X935000Y19470000D01*
X7675000Y19470000D02*
X14435000Y19470000D01*
X925000Y19470000D02*
X7685000Y19470000D01*
X27885000Y18447500D02*
X27885000Y19460000D01*
X-19325000Y19470000D02*
X-12565000Y19470000D01*
X-12575000Y19470000D02*
X-5815000Y19470000D01*
X21175000Y19470000D02*
X29105000Y19460000D01*
X29105000Y19470000D02*
X29105000Y19460000D01*
X14425000Y19470000D02*
X21185000Y19470000D01*
X14425000Y26220000D02*
X21185000Y26220000D01*
X7675000Y26220000D02*
X14435000Y26220000D01*
X925000Y26220000D02*
X7685000Y26220000D01*
X-5825000Y26220000D02*
X935000Y26220000D01*
X-12575000Y26220000D02*
X-5815000Y26220000D01*
X-19325000Y26220000D02*
X-12565000Y26220000D01*
X27885000Y25197500D02*
X27885000Y26210000D01*
X21175000Y26220000D02*
X29105000Y26210000D01*
X-5825000Y12720000D02*
X935000Y12720000D01*
X7675000Y12720000D02*
X14435000Y12720000D01*
X925000Y12720000D02*
X7685000Y12720000D01*
X27885000Y11697500D02*
X27885000Y12710000D01*
X-19325000Y12720000D02*
X-12565000Y12720000D01*
X-12575000Y12720000D02*
X-5815000Y12720000D01*
X21175000Y12720000D02*
X29105000Y12710000D01*
X14425000Y12720000D02*
X21185000Y12720000D01*
X29105000Y12720000D02*
X29105000Y12710000D01*
X27885000Y4947500D02*
X27885000Y5960000D01*
X-19325000Y5970000D02*
X-12565000Y5970000D01*
X14425000Y5970000D02*
X21185000Y5970000D01*
X21175000Y5970000D02*
X29105000Y5960000D01*
X29105000Y5970000D02*
X29105000Y5960000D01*
X-12575000Y5970000D02*
X-5815000Y5970000D01*
X925000Y5970000D02*
X7685000Y5970000D01*
X7675000Y5970000D02*
X14435000Y5970000D01*
X-5825000Y5970000D02*
X935000Y5970000D01*
X27885000Y-1802500D02*
X27885000Y-790000D01*
X7675000Y-780000D02*
X14435000Y-780000D01*
X21175000Y-780000D02*
X29105000Y-790000D01*
X-19325000Y-780000D02*
X-12565000Y-780000D01*
X29105000Y-780000D02*
X29105000Y-790000D01*
X-12575000Y-780000D02*
X-5815000Y-780000D01*
X925000Y-780000D02*
X7685000Y-780000D01*
X14425000Y-780000D02*
X21185000Y-780000D01*
X-5825000Y-780000D02*
X935000Y-780000D01*
X29105000Y-7530000D02*
X29105000Y-7540000D01*
X-5825000Y-7530000D02*
X935000Y-7530000D01*
X925000Y-7530000D02*
X7685000Y-7530000D01*
X14425000Y-7530000D02*
X21185000Y-7530000D01*
X-19325000Y-7530000D02*
X-12565000Y-7530000D01*
X-12575000Y-7530000D02*
X-5815000Y-7530000D01*
X21175000Y-7530000D02*
X29105000Y-7540000D01*
X27885000Y-8552500D02*
X27885000Y-7540000D01*
X7675000Y-7530000D02*
X14435000Y-7530000D01*
X925000Y-14280000D02*
X7685000Y-14280000D01*
X14425000Y-14280000D02*
X21185000Y-14280000D01*
X-19325000Y-14280000D02*
X-12565000Y-14280000D01*
X-12575000Y-14280000D02*
X-5815000Y-14280000D01*
X21175000Y-14280000D02*
X29105000Y-14290000D01*
X27885000Y-15302500D02*
X27885000Y-14290000D01*
X7675000Y-14280000D02*
X14435000Y-14280000D01*
X-5825000Y-14280000D02*
X935000Y-14280000D01*
X29105000Y-14280000D02*
X29105000Y-14290000D01*
X925000Y-21030000D02*
X7685000Y-21030000D01*
X14425000Y-21030000D02*
X21185000Y-21030000D01*
X-19325000Y-21030000D02*
X-12565000Y-21030000D01*
X-12575000Y-21030000D02*
X-5815000Y-21030000D01*
X21175000Y-21030000D02*
X29105000Y-21040000D01*
X27885000Y-22052500D02*
X27885000Y-21040000D01*
X7675000Y-21030000D02*
X14435000Y-21030000D01*
X-5825000Y-21030000D02*
X935000Y-21030000D01*
X35560000Y24130000D02*
X35560000Y24205000D01*
D21*
X35560000Y24130000D02*
X29115000Y24130000D01*
X29105000Y24140000D02*
X29105000Y-20850000D01*
D19*
X29115000Y24130000D02*
X29105000Y24140000D01*
D21*
X29115000Y26000000D02*
X29105000Y24140000D01*
D19*
X-24700000Y26220000D02*
X-19315000Y26220000D01*
X-24730000Y24070000D02*
X-24730000Y26190000D01*
X-25175000Y23625000D02*
X-24730000Y24070000D01*
X-24730000Y26190000D02*
X-24700000Y26220000D01*
X-26075000Y23625000D02*
X-25175000Y23625000D01*
X-24730000Y19470000D02*
X-19315000Y19470000D01*
X-14425000Y-23625000D02*
X-16875000Y-23625000D01*
X19325000Y-23625000D02*
X16875000Y-23620000D01*
X-925000Y-23625000D02*
X-3375000Y-23620000D01*
X5825000Y-23625000D02*
X3375000Y-23620000D01*
X26075000Y-23625000D02*
X23625000Y-23620000D01*
X-10125000Y-23620000D02*
X-9030000Y-23620000D01*
X-23625000Y-23625000D02*
X-21175000Y-23625000D01*
X-7675000Y-23625000D02*
X-10125000Y-23620000D01*
X12575000Y-23625000D02*
X10125000Y-23620000D01*
X-14425000Y-16875000D02*
X-16875000Y-16875000D01*
X19325000Y-16875000D02*
X16875000Y-16870000D01*
X-925000Y-16875000D02*
X-3375000Y-16870000D01*
X5825000Y-16875000D02*
X3375000Y-16870000D01*
X26075000Y-16875000D02*
X23625000Y-16870000D01*
X-10125000Y-16870000D02*
X-9030000Y-16870000D01*
X-23625000Y-16875000D02*
X-21175000Y-16875000D01*
X-7675000Y-16875000D02*
X-10125000Y-16870000D01*
X12575000Y-16875000D02*
X10125000Y-16870000D01*
X-14425000Y-10125000D02*
X-16875000Y-10125000D01*
X19325000Y-10125000D02*
X16875000Y-10120000D01*
X-925000Y-10125000D02*
X-3375000Y-10120000D01*
X5825000Y-10125000D02*
X3375000Y-10120000D01*
X26075000Y-10125000D02*
X23625000Y-10120000D01*
X-10125000Y-10120000D02*
X-9030000Y-10120000D01*
X-23625000Y-10125000D02*
X-21175000Y-10125000D01*
X-7675000Y-10125000D02*
X-10125000Y-10120000D01*
X12575000Y-10125000D02*
X10125000Y-10120000D01*
X-14425000Y-3375000D02*
X-16875000Y-3375000D01*
X19325000Y-3375000D02*
X16875000Y-3370000D01*
X-925000Y-3375000D02*
X-3375000Y-3370000D01*
X5825000Y-3375000D02*
X3375000Y-3370000D01*
X26075000Y-3375000D02*
X23625000Y-3370000D01*
X-10125000Y-3370000D02*
X-9030000Y-3370000D01*
X-23625000Y-3375000D02*
X-21175000Y-3375000D01*
X-7675000Y-3375000D02*
X-10125000Y-3370000D01*
X12575000Y-3375000D02*
X10125000Y-3370000D01*
X-14425000Y3375000D02*
X-16875000Y3375000D01*
X19325000Y3375000D02*
X16875000Y3380000D01*
X-925000Y3375000D02*
X-3375000Y3380000D01*
X5825000Y3375000D02*
X3375000Y3380000D01*
X26075000Y3375000D02*
X23625000Y3380000D01*
X-10125000Y3380000D02*
X-9030000Y3380000D01*
X-23625000Y3375000D02*
X-21175000Y3375000D01*
X-7675000Y3375000D02*
X-10125000Y3380000D01*
X12575000Y3375000D02*
X10125000Y3380000D01*
X-14425000Y10125000D02*
X-16875000Y10125000D01*
X19325000Y10125000D02*
X16875000Y10130000D01*
X-925000Y10125000D02*
X-3375000Y10130000D01*
X5825000Y10125000D02*
X3375000Y10130000D01*
X26075000Y10125000D02*
X23625000Y10130000D01*
X-10125000Y10130000D02*
X-9030000Y10130000D01*
X-23625000Y10125000D02*
X-21175000Y10125000D01*
X-7675000Y10125000D02*
X-10125000Y10130000D01*
X12575000Y10125000D02*
X10125000Y10130000D01*
X26075000Y16875000D02*
X23625000Y16880000D01*
X-10125000Y16880000D02*
X-9030000Y16880000D01*
X-7675000Y16875000D02*
X-10125000Y16880000D01*
X-23625000Y16875000D02*
X-21175000Y16875000D01*
X12575000Y16875000D02*
X10125000Y16880000D01*
X19325000Y16875000D02*
X16875000Y16880000D01*
X-925000Y16875000D02*
X-3375000Y16880000D01*
X5825000Y16875000D02*
X3375000Y16880000D01*
X-14425000Y16875000D02*
X-16875000Y16875000D01*
X26075000Y23625000D02*
X23625000Y23630000D01*
X19325000Y23625000D02*
X16875000Y23630000D01*
X5825000Y23625000D02*
X3375000Y23630000D01*
X-925000Y23625000D02*
X-3375000Y23630000D01*
X26075000Y16875000D02*
X27882500Y16875000D01*
X26075000Y-3375000D02*
X27882500Y-3375000D01*
X27882500Y-3375000D02*
X27885000Y-3377500D01*
X27882500Y-10125000D02*
X27885000Y-10127500D01*
X26075000Y-10125000D02*
X27882500Y-10125000D01*
X27882500Y-16875000D02*
X27885000Y-16877500D01*
X26075000Y-16875000D02*
X27882500Y-16875000D01*
X27882500Y-23625000D02*
X27885000Y-23627500D01*
X26075000Y-23625000D02*
X27882500Y-23625000D01*
X-21175000Y23625000D02*
X-21175000Y25225000D01*
X27882500Y23625000D02*
X27885000Y23622500D01*
X26075000Y23625000D02*
X27882500Y23625000D01*
X-23625000Y23625000D02*
X-21175000Y23625000D01*
X-14425000Y23625000D02*
X-16875000Y23625000D01*
X-10125000Y23630000D02*
X-9030000Y23630000D01*
X-7675000Y23625000D02*
X-10125000Y23630000D01*
X12575000Y23625000D02*
X10125000Y23630000D01*
X27877500Y10125000D02*
X27890000Y10137500D01*
X26075000Y10125000D02*
X27877500Y10125000D01*
X27882500Y3375000D02*
X27885000Y3372500D01*
X26075000Y3375000D02*
X27882500Y3375000D01*
X35580000Y13950000D02*
X35560000Y13970000D01*
D20*
X-7565000Y25230000D02*
X-10125000Y25230000D01*
X-16875000Y22025000D02*
X-14425000Y22025000D01*
X-17700000Y21200000D02*
X-16875000Y22025000D01*
X-26075000Y21200000D02*
X-17700000Y21200000D01*
X-26075000Y22025000D02*
X-26075000Y21200000D01*
X-11670000Y22825000D02*
X-10870000Y22025000D01*
X-17575000Y22825000D02*
X-11670000Y22825000D01*
X-10870000Y22025000D02*
X-7675000Y22025000D01*
X-18375000Y22025000D02*
X-17575000Y22825000D01*
X-19325000Y22025000D02*
X-18375000Y22025000D01*
X-815000Y25230000D02*
X-3375000Y25230000D01*
X-3375000Y22025000D02*
X-925000Y22025000D01*
X-12575000Y22025000D02*
X-12575000Y21200000D01*
X-12575000Y21200000D02*
X-4200000Y21200000D01*
X-4200000Y21200000D02*
X-3375000Y22025000D01*
X5935000Y25230000D02*
X3375000Y25230000D01*
X12685000Y25230000D02*
X10125000Y25230000D01*
X2630000Y22025000D02*
X5825000Y22025000D01*
X1830000Y22825000D02*
X2630000Y22025000D01*
X-3975000Y22825000D02*
X1830000Y22825000D01*
X-4775000Y22025000D02*
X-3975000Y22825000D01*
X-5825000Y22025000D02*
X-4775000Y22025000D01*
X10125000Y22025000D02*
X12575000Y22025000D01*
X925000Y22025000D02*
X925000Y21200000D01*
X925000Y21200000D02*
X9300000Y21200000D01*
X9300000Y21200000D02*
X10125000Y22025000D01*
X19435000Y25230000D02*
X16875000Y25230000D01*
X19390000Y25175000D02*
X19440000Y25225000D01*
X26185000Y25230000D02*
X23625000Y25230000D01*
X16130000Y22025000D02*
X19325000Y22025000D01*
X15330000Y22825000D02*
X16130000Y22025000D01*
X9325000Y22825000D02*
X15330000Y22825000D01*
X8525000Y22025000D02*
X9325000Y22825000D01*
X7675000Y22025000D02*
X8525000Y22025000D01*
X-10870000Y15275000D02*
X-7675000Y15275000D01*
X-19325000Y15275000D02*
X-18375000Y15275000D01*
X-18375000Y15275000D02*
X-17575000Y16075000D01*
X-11670000Y16075000D02*
X-10870000Y15275000D01*
X-17575000Y16075000D02*
X-11670000Y16075000D01*
X-815000Y18480000D02*
X-3375000Y18480000D01*
X-16875000Y15275000D02*
X-14425000Y15275000D01*
X-26075000Y15275000D02*
X-26075000Y14450000D01*
X-26075000Y14450000D02*
X-17700000Y14450000D01*
X-17700000Y14450000D02*
X-16875000Y15275000D01*
X-7565000Y18480000D02*
X-10125000Y18480000D01*
X5935000Y18480000D02*
X3375000Y18480000D01*
X-4200000Y14450000D02*
X-3375000Y15275000D01*
X-3375000Y15275000D02*
X-925000Y15275000D01*
X-12575000Y14450000D02*
X-4200000Y14450000D01*
X-12575000Y15275000D02*
X-12575000Y14450000D01*
X12685000Y18480000D02*
X10125000Y18480000D01*
X-3975000Y16075000D02*
X1830000Y16075000D01*
X2630000Y15275000D02*
X5825000Y15275000D01*
X-4775000Y15275000D02*
X-3975000Y16075000D01*
X1830000Y16075000D02*
X2630000Y15275000D01*
X-5825000Y15275000D02*
X-4775000Y15275000D01*
X19390000Y18425000D02*
X19440000Y18475000D01*
X10125000Y15275000D02*
X12575000Y15275000D01*
X19435000Y18480000D02*
X16875000Y18480000D01*
X925000Y15275000D02*
X925000Y14450000D01*
X9300000Y14450000D02*
X10125000Y15275000D01*
X925000Y14450000D02*
X9300000Y14450000D01*
X26185000Y18480000D02*
X23625000Y18480000D01*
X8525000Y15275000D02*
X9325000Y16075000D01*
X15330000Y16075000D02*
X16130000Y15275000D01*
X9325000Y16075000D02*
X15330000Y16075000D01*
X7675000Y15275000D02*
X8525000Y15275000D01*
X16130000Y15275000D02*
X19325000Y15275000D01*
X-16875000Y8525000D02*
X-14425000Y8525000D01*
X-17700000Y7700000D02*
X-16875000Y8525000D01*
X-26075000Y8525000D02*
X-26075000Y7700000D01*
X-26075000Y7700000D02*
X-17700000Y7700000D01*
X-7565000Y11730000D02*
X-10125000Y11730000D01*
X-815000Y11730000D02*
X-3375000Y11730000D01*
X-11670000Y9325000D02*
X-10870000Y8525000D01*
X-18375000Y8525000D02*
X-17575000Y9325000D01*
X-10870000Y8525000D02*
X-7675000Y8525000D01*
X-17575000Y9325000D02*
X-11670000Y9325000D01*
X-19325000Y8525000D02*
X-18375000Y8525000D01*
X-12575000Y8525000D02*
X-12575000Y7700000D01*
X-12575000Y7700000D02*
X-4200000Y7700000D01*
X5935000Y11730000D02*
X3375000Y11730000D01*
X-4200000Y7700000D02*
X-3375000Y8525000D01*
X-3375000Y8525000D02*
X-925000Y8525000D01*
X1830000Y9325000D02*
X2630000Y8525000D01*
X2630000Y8525000D02*
X5825000Y8525000D01*
X-4775000Y8525000D02*
X-3975000Y9325000D01*
X-5825000Y8525000D02*
X-4775000Y8525000D01*
X-3975000Y9325000D02*
X1830000Y9325000D01*
X12685000Y11730000D02*
X10125000Y11730000D01*
X925000Y8525000D02*
X925000Y7700000D01*
X925000Y7700000D02*
X9300000Y7700000D01*
X9300000Y7700000D02*
X10125000Y8525000D01*
X10125000Y8525000D02*
X12575000Y8525000D01*
X19435000Y11730000D02*
X16875000Y11730000D01*
X19390000Y11675000D02*
X19440000Y11725000D01*
X26185000Y11730000D02*
X23625000Y11730000D01*
X7675000Y8525000D02*
X8525000Y8525000D01*
X16130000Y8525000D02*
X19325000Y8525000D01*
X8525000Y8525000D02*
X9325000Y9325000D01*
X15330000Y9325000D02*
X16130000Y8525000D01*
X9325000Y9325000D02*
X15330000Y9325000D01*
X-16875000Y1775000D02*
X-14425000Y1775000D01*
X-17700000Y950000D02*
X-16875000Y1775000D01*
X-26075000Y1775000D02*
X-26075000Y950000D01*
X-26075000Y950000D02*
X-17700000Y950000D01*
X-7565000Y4980000D02*
X-10125000Y4980000D01*
X-815000Y4980000D02*
X-3375000Y4980000D01*
X-11670000Y2575000D02*
X-10870000Y1775000D01*
X-18375000Y1775000D02*
X-17575000Y2575000D01*
X-10870000Y1775000D02*
X-7675000Y1775000D01*
X-17575000Y2575000D02*
X-11670000Y2575000D01*
X-19325000Y1775000D02*
X-18375000Y1775000D01*
X-12575000Y1775000D02*
X-12575000Y950000D01*
X-12575000Y950000D02*
X-4200000Y950000D01*
X5935000Y4980000D02*
X3375000Y4980000D01*
X-4200000Y950000D02*
X-3375000Y1775000D01*
X-3375000Y1775000D02*
X-925000Y1775000D01*
X1830000Y2575000D02*
X2630000Y1775000D01*
X2630000Y1775000D02*
X5825000Y1775000D01*
X-4775000Y1775000D02*
X-3975000Y2575000D01*
X-5825000Y1775000D02*
X-4775000Y1775000D01*
X-3975000Y2575000D02*
X1830000Y2575000D01*
X12685000Y4980000D02*
X10125000Y4980000D01*
X925000Y1775000D02*
X925000Y950000D01*
X925000Y950000D02*
X9300000Y950000D01*
X9300000Y950000D02*
X10125000Y1775000D01*
X10125000Y1775000D02*
X12575000Y1775000D01*
X19435000Y4980000D02*
X16875000Y4980000D01*
X19390000Y4925000D02*
X19440000Y4975000D01*
X26185000Y4980000D02*
X23625000Y4980000D01*
X7675000Y1775000D02*
X8525000Y1775000D01*
X16130000Y1775000D02*
X19325000Y1775000D01*
X8525000Y1775000D02*
X9325000Y2575000D01*
X15330000Y2575000D02*
X16130000Y1775000D01*
X9325000Y2575000D02*
X15330000Y2575000D01*
X-16875000Y-4975000D02*
X-14425000Y-4975000D01*
X-17700000Y-5800000D02*
X-16875000Y-4975000D01*
X-26075000Y-4975000D02*
X-26075000Y-5800000D01*
X-26075000Y-5800000D02*
X-17700000Y-5800000D01*
X-7565000Y-1770000D02*
X-10125000Y-1770000D01*
X-815000Y-1770000D02*
X-3375000Y-1770000D01*
X-11670000Y-4175000D02*
X-10870000Y-4975000D01*
X-18375000Y-4975000D02*
X-17575000Y-4175000D01*
X-10870000Y-4975000D02*
X-7675000Y-4975000D01*
X-17575000Y-4175000D02*
X-11670000Y-4175000D01*
X-19325000Y-4975000D02*
X-18375000Y-4975000D01*
X-12575000Y-4975000D02*
X-12575000Y-5800000D01*
X-12575000Y-5800000D02*
X-4200000Y-5800000D01*
X5935000Y-1770000D02*
X3375000Y-1770000D01*
X-4200000Y-5800000D02*
X-3375000Y-4975000D01*
X-3375000Y-4975000D02*
X-925000Y-4975000D01*
X1830000Y-4175000D02*
X2630000Y-4975000D01*
X2630000Y-4975000D02*
X5825000Y-4975000D01*
X-4775000Y-4975000D02*
X-3975000Y-4175000D01*
X-5825000Y-4975000D02*
X-4775000Y-4975000D01*
X-3975000Y-4175000D02*
X1830000Y-4175000D01*
X12685000Y-1770000D02*
X10125000Y-1770000D01*
X925000Y-4975000D02*
X925000Y-5800000D01*
X925000Y-5800000D02*
X9300000Y-5800000D01*
X9300000Y-5800000D02*
X10125000Y-4975000D01*
X10125000Y-4975000D02*
X12575000Y-4975000D01*
X19435000Y-1770000D02*
X16875000Y-1770000D01*
X19390000Y-1825000D02*
X19440000Y-1775000D01*
X26185000Y-1770000D02*
X23625000Y-1770000D01*
X7675000Y-4975000D02*
X8525000Y-4975000D01*
X16130000Y-4975000D02*
X19325000Y-4975000D01*
X8525000Y-4975000D02*
X9325000Y-4175000D01*
X15330000Y-4175000D02*
X16130000Y-4975000D01*
X9325000Y-4175000D02*
X15330000Y-4175000D01*
X-16875000Y-11725000D02*
X-14425000Y-11725000D01*
X-17700000Y-12550000D02*
X-16875000Y-11725000D01*
X-26075000Y-11725000D02*
X-26075000Y-12550000D01*
X-26075000Y-12550000D02*
X-17700000Y-12550000D01*
X-7565000Y-8520000D02*
X-10125000Y-8520000D01*
X-815000Y-8520000D02*
X-3375000Y-8520000D01*
X-11670000Y-10925000D02*
X-10870000Y-11725000D01*
X-18375000Y-11725000D02*
X-17575000Y-10925000D01*
X-10870000Y-11725000D02*
X-7675000Y-11725000D01*
X-17575000Y-10925000D02*
X-11670000Y-10925000D01*
X-19325000Y-11725000D02*
X-18375000Y-11725000D01*
X-12575000Y-11725000D02*
X-12575000Y-12550000D01*
X-12575000Y-12550000D02*
X-4200000Y-12550000D01*
X5935000Y-8520000D02*
X3375000Y-8520000D01*
X-4200000Y-12550000D02*
X-3375000Y-11725000D01*
X-3375000Y-11725000D02*
X-925000Y-11725000D01*
X1830000Y-10925000D02*
X2630000Y-11725000D01*
X2630000Y-11725000D02*
X5825000Y-11725000D01*
X-4775000Y-11725000D02*
X-3975000Y-10925000D01*
X-5825000Y-11725000D02*
X-4775000Y-11725000D01*
X-3975000Y-10925000D02*
X1830000Y-10925000D01*
X12685000Y-8520000D02*
X10125000Y-8520000D01*
X925000Y-11725000D02*
X925000Y-12550000D01*
X925000Y-12550000D02*
X9300000Y-12550000D01*
X9300000Y-12550000D02*
X10125000Y-11725000D01*
X10125000Y-11725000D02*
X12575000Y-11725000D01*
X19435000Y-8520000D02*
X16875000Y-8520000D01*
X19390000Y-8575000D02*
X19440000Y-8525000D01*
X26185000Y-8520000D02*
X23625000Y-8520000D01*
X7675000Y-11725000D02*
X8525000Y-11725000D01*
X16130000Y-11725000D02*
X19325000Y-11725000D01*
X8525000Y-11725000D02*
X9325000Y-10925000D01*
X15330000Y-10925000D02*
X16130000Y-11725000D01*
X9325000Y-10925000D02*
X15330000Y-10925000D01*
X-16875000Y-18475000D02*
X-14425000Y-18475000D01*
X-17700000Y-19300000D02*
X-16875000Y-18475000D01*
X-26075000Y-18475000D02*
X-26075000Y-19300000D01*
X-26075000Y-19300000D02*
X-17700000Y-19300000D01*
X-7565000Y-15270000D02*
X-10125000Y-15270000D01*
X-815000Y-15270000D02*
X-3375000Y-15270000D01*
X-11670000Y-17675000D02*
X-10870000Y-18475000D01*
X-18375000Y-18475000D02*
X-17575000Y-17675000D01*
X-10870000Y-18475000D02*
X-7675000Y-18475000D01*
X-17575000Y-17675000D02*
X-11670000Y-17675000D01*
X-19325000Y-18475000D02*
X-18375000Y-18475000D01*
X-12575000Y-18475000D02*
X-12575000Y-19300000D01*
X-12575000Y-19300000D02*
X-4200000Y-19300000D01*
X5935000Y-15270000D02*
X3375000Y-15270000D01*
X-4200000Y-19300000D02*
X-3375000Y-18475000D01*
X-3375000Y-18475000D02*
X-925000Y-18475000D01*
X1830000Y-17675000D02*
X2630000Y-18475000D01*
X2630000Y-18475000D02*
X5825000Y-18475000D01*
X-4775000Y-18475000D02*
X-3975000Y-17675000D01*
X-5825000Y-18475000D02*
X-4775000Y-18475000D01*
X-3975000Y-17675000D02*
X1830000Y-17675000D01*
X12685000Y-15270000D02*
X10125000Y-15270000D01*
X925000Y-18475000D02*
X925000Y-19300000D01*
X925000Y-19300000D02*
X9300000Y-19300000D01*
X9300000Y-19300000D02*
X10125000Y-18475000D01*
X10125000Y-18475000D02*
X12575000Y-18475000D01*
X19435000Y-15270000D02*
X16875000Y-15270000D01*
X19390000Y-15325000D02*
X19440000Y-15275000D01*
X26185000Y-15270000D02*
X23625000Y-15270000D01*
X7675000Y-18475000D02*
X8525000Y-18475000D01*
X16130000Y-18475000D02*
X19325000Y-18475000D01*
X8525000Y-18475000D02*
X9325000Y-17675000D01*
X15330000Y-17675000D02*
X16130000Y-18475000D01*
X9325000Y-17675000D02*
X15330000Y-17675000D01*
X-16875000Y-25225000D02*
X-14425000Y-25225000D01*
X-17700000Y-26050000D02*
X-16875000Y-25225000D01*
X-26075000Y-25225000D02*
X-26075000Y-26050000D01*
X-26075000Y-26050000D02*
X-17700000Y-26050000D01*
X-7565000Y-22020000D02*
X-10125000Y-22020000D01*
X-815000Y-22020000D02*
X-3375000Y-22020000D01*
X-11670000Y-24425000D02*
X-10870000Y-25225000D01*
X-18375000Y-25225000D02*
X-17575000Y-24425000D01*
X-10870000Y-25225000D02*
X-7675000Y-25225000D01*
X-17575000Y-24425000D02*
X-11670000Y-24425000D01*
X-19325000Y-25225000D02*
X-18375000Y-25225000D01*
X-12575000Y-25225000D02*
X-12575000Y-26050000D01*
X-12575000Y-26050000D02*
X-4200000Y-26050000D01*
X5935000Y-22020000D02*
X3375000Y-22020000D01*
X-4200000Y-26050000D02*
X-3375000Y-25225000D01*
X-3375000Y-25225000D02*
X-925000Y-25225000D01*
X1830000Y-24425000D02*
X2630000Y-25225000D01*
X2630000Y-25225000D02*
X5825000Y-25225000D01*
X-4775000Y-25225000D02*
X-3975000Y-24425000D01*
X-5825000Y-25225000D02*
X-4775000Y-25225000D01*
X-3975000Y-24425000D02*
X1830000Y-24425000D01*
X12685000Y-22020000D02*
X10125000Y-22020000D01*
X925000Y-25225000D02*
X925000Y-26050000D01*
X925000Y-26050000D02*
X9300000Y-26050000D01*
X9300000Y-26050000D02*
X10125000Y-25225000D01*
X10125000Y-25225000D02*
X12575000Y-25225000D01*
X19435000Y-22020000D02*
X16875000Y-22020000D01*
X19390000Y-22075000D02*
X19440000Y-22025000D01*
X26185000Y-22020000D02*
X23625000Y-22020000D01*
X7675000Y-25225000D02*
X8525000Y-25225000D01*
X16130000Y-25225000D02*
X19325000Y-25225000D01*
X8525000Y-25225000D02*
X9325000Y-24425000D01*
X15330000Y-24425000D02*
X16130000Y-25225000D01*
X9325000Y-24425000D02*
X15330000Y-24425000D01*
X23625000Y-25225000D02*
X26075000Y-25225000D01*
X14425000Y-26050000D02*
X22800000Y-26050000D01*
X22800000Y-26050000D02*
X23625000Y-25225000D01*
X14425000Y-25225000D02*
X14425000Y-26050000D01*
X-21065000Y18480000D02*
X-23625000Y18480000D01*
X-22095000Y18480000D02*
X-21065000Y18480000D01*
X23625000Y22025000D02*
X26075000Y22025000D01*
X22800000Y21200000D02*
X23625000Y22025000D01*
X14425000Y21200000D02*
X22800000Y21200000D01*
X14425000Y22025000D02*
X14425000Y21200000D01*
X-25900000Y20130000D02*
X-26100000Y19930000D01*
X27325000Y20130000D02*
X-25900000Y20130000D01*
X27945000Y20750000D02*
X27325000Y20130000D01*
X27945000Y22020000D02*
X27945000Y20750000D01*
X-21175000Y15275000D02*
X-21160000Y15290000D01*
X-14310000Y18475000D02*
X-14425000Y18475000D01*
X-14315000Y18480000D02*
X-16875000Y18480000D01*
X-23625000Y15275000D02*
X-21175000Y15275000D01*
X-24430000Y16080000D02*
X-23625000Y15275000D01*
X-27315000Y16080000D02*
X-24430000Y16080000D01*
X-27745000Y16510000D02*
X-27315000Y16080000D01*
X-27745000Y20140000D02*
X-27745000Y16510000D01*
X-27182989Y20702011D02*
X-27745000Y20140000D01*
X27272999Y21037999D02*
X26937011Y20702011D01*
X27272999Y22575603D02*
X27272999Y21037999D01*
X26937011Y20702011D02*
X-27182989Y20702011D01*
X27046601Y22802001D02*
X27272999Y22575603D01*
X23002001Y22802001D02*
X27046601Y22802001D01*
X22225000Y22025000D02*
X23002001Y22802001D01*
X21175000Y22025000D02*
X22225000Y22025000D01*
X-21065000Y11730000D02*
X-23625000Y11730000D01*
X14425000Y14450000D02*
X22800000Y14450000D01*
X22800000Y14450000D02*
X23625000Y15275000D01*
X14425000Y15275000D02*
X14425000Y14450000D01*
X23625000Y15275000D02*
X26075000Y15275000D01*
X-22095000Y11730000D02*
X-21065000Y11730000D01*
X-25900000Y13380000D02*
X-26100000Y13180000D01*
X27325000Y13380000D02*
X-25900000Y13380000D01*
X27945000Y14000000D02*
X27325000Y13380000D01*
X27945000Y15270000D02*
X27945000Y14000000D01*
X-23625000Y8525000D02*
X-21175000Y8525000D01*
X-14315000Y11730000D02*
X-16875000Y11730000D01*
X-21175000Y8525000D02*
X-21160000Y8540000D01*
X-14310000Y11725000D02*
X-14425000Y11725000D01*
X26937011Y13952011D02*
X-27182989Y13952011D01*
X-27745000Y9760000D02*
X-27315000Y9330000D01*
X-24430000Y9330000D02*
X-23625000Y8525000D01*
X21175000Y15275000D02*
X22225000Y15275000D01*
X22225000Y15275000D02*
X23002001Y16052001D01*
X-27182989Y13952011D02*
X-27745000Y13390000D01*
X27046601Y16052001D02*
X27272999Y15825603D01*
X27272999Y14287999D02*
X26937011Y13952011D01*
X27272999Y15825603D02*
X27272999Y14287999D01*
X23002001Y16052001D02*
X27046601Y16052001D01*
X-27315000Y9330000D02*
X-24430000Y9330000D01*
X-27745000Y13390000D02*
X-27745000Y9760000D01*
X-21065000Y4980000D02*
X-23625000Y4980000D01*
X23625000Y8525000D02*
X26075000Y8525000D01*
X14425000Y7700000D02*
X22800000Y7700000D01*
X22800000Y7700000D02*
X23625000Y8525000D01*
X14425000Y8525000D02*
X14425000Y7700000D01*
X-22095000Y4980000D02*
X-21065000Y4980000D01*
X-25900000Y6630000D02*
X-26100000Y6430000D01*
X27945000Y7250000D02*
X27325000Y6630000D01*
X27325000Y6630000D02*
X-25900000Y6630000D01*
X27945000Y8520000D02*
X27945000Y7250000D01*
X-23625000Y1775000D02*
X-21175000Y1775000D01*
X-14315000Y4980000D02*
X-16875000Y4980000D01*
X-21175000Y1775000D02*
X-21160000Y1790000D01*
X-14310000Y4975000D02*
X-14425000Y4975000D01*
X-24430000Y2580000D02*
X-23625000Y1775000D01*
X-27745000Y3010000D02*
X-27315000Y2580000D01*
X26937011Y7202011D02*
X-27182989Y7202011D01*
X27272999Y7537999D02*
X26937011Y7202011D01*
X27272999Y9075603D02*
X27272999Y7537999D01*
X27046601Y9302001D02*
X27272999Y9075603D01*
X23002001Y9302001D02*
X27046601Y9302001D01*
X21175000Y8525000D02*
X22225000Y8525000D01*
X-27315000Y2580000D02*
X-24430000Y2580000D01*
X-27745000Y6640000D02*
X-27745000Y3010000D01*
X22225000Y8525000D02*
X23002001Y9302001D01*
X-27182989Y7202011D02*
X-27745000Y6640000D01*
X-21065000Y-1770000D02*
X-23625000Y-1770000D01*
X23625000Y1775000D02*
X26075000Y1775000D01*
X14425000Y950000D02*
X22800000Y950000D01*
X22800000Y950000D02*
X23625000Y1775000D01*
X14425000Y1775000D02*
X14425000Y950000D01*
X-22095000Y-1770000D02*
X-21065000Y-1770000D01*
X-25900000Y-120000D02*
X-26100000Y-320000D01*
X27325000Y-120000D02*
X-25900000Y-120000D01*
X27945000Y500000D02*
X27325000Y-120000D01*
X27945000Y1770000D02*
X27945000Y500000D01*
X-23625000Y-4975000D02*
X-21175000Y-4975000D01*
X-14315000Y-1770000D02*
X-16875000Y-1770000D01*
X-21175000Y-4975000D02*
X-21160000Y-4960000D01*
X-14310000Y-1775000D02*
X-14425000Y-1775000D01*
X-24430000Y-4170000D02*
X-23625000Y-4975000D01*
X-27315000Y-4170000D02*
X-24430000Y-4170000D01*
X-27745000Y-3740000D02*
X-27315000Y-4170000D01*
X-27182989Y452011D02*
X-27745000Y-110000D01*
X26937011Y452011D02*
X-27182989Y452011D01*
X27272999Y787999D02*
X26937011Y452011D01*
X22225000Y1775000D02*
X23002001Y2552001D01*
X27046601Y2552001D02*
X27272999Y2325603D01*
X23002001Y2552001D02*
X27046601Y2552001D01*
X-27745000Y-110000D02*
X-27745000Y-3740000D01*
X27272999Y2325603D02*
X27272999Y787999D01*
X21175000Y1775000D02*
X22225000Y1775000D01*
X-21065000Y-8520000D02*
X-23625000Y-8520000D01*
X23625000Y-4975000D02*
X26075000Y-4975000D01*
X14425000Y-5800000D02*
X22800000Y-5800000D01*
X22800000Y-5800000D02*
X23625000Y-4975000D01*
X14425000Y-4975000D02*
X14425000Y-5800000D01*
X-22095000Y-8520000D02*
X-21065000Y-8520000D01*
X-25900000Y-6870000D02*
X-26100000Y-7070000D01*
X27945000Y-6250000D02*
X27325000Y-6870000D01*
X27325000Y-6870000D02*
X-25900000Y-6870000D01*
X27945000Y-4980000D02*
X27945000Y-6250000D01*
X-23625000Y-11725000D02*
X-21175000Y-11725000D01*
X-14315000Y-8520000D02*
X-16875000Y-8520000D01*
X-21175000Y-11725000D02*
X-21160000Y-11710000D01*
X-14310000Y-8525000D02*
X-14425000Y-8525000D01*
X-24430000Y-10920000D02*
X-23625000Y-11725000D01*
X-27745000Y-6860000D02*
X-27745000Y-10490000D01*
X21175000Y-4975000D02*
X22225000Y-4975000D01*
X-27315000Y-10920000D02*
X-24430000Y-10920000D01*
X26937011Y-6297989D02*
X-27182989Y-6297989D01*
X27272999Y-5962001D02*
X26937011Y-6297989D01*
X-27745000Y-10490000D02*
X-27315000Y-10920000D01*
X27272999Y-4424397D02*
X27272999Y-5962001D01*
X27046601Y-4197999D02*
X27272999Y-4424397D01*
X-27182989Y-6297989D02*
X-27745000Y-6860000D01*
X23002001Y-4197999D02*
X27046601Y-4197999D01*
X22225000Y-4975000D02*
X23002001Y-4197999D01*
X-21065000Y-15270000D02*
X-23625000Y-15270000D01*
X23625000Y-11725000D02*
X26075000Y-11725000D01*
X14425000Y-12550000D02*
X22800000Y-12550000D01*
X22800000Y-12550000D02*
X23625000Y-11725000D01*
X14425000Y-11725000D02*
X14425000Y-12550000D01*
X-22095000Y-15270000D02*
X-21065000Y-15270000D01*
X27325000Y-13620000D02*
X-25900000Y-13620000D01*
X27945000Y-13000000D02*
X27325000Y-13620000D01*
X-25900000Y-13620000D02*
X-26100000Y-13820000D01*
X27945000Y-11730000D02*
X27945000Y-13000000D01*
X-23625000Y-18475000D02*
X-21175000Y-18475000D01*
X-14315000Y-15270000D02*
X-16875000Y-15270000D01*
X-21175000Y-18475000D02*
X-21160000Y-18460000D01*
X-14310000Y-15275000D02*
X-14425000Y-15275000D01*
X-24430000Y-17670000D02*
X-23625000Y-18475000D01*
X-27745000Y-17240000D02*
X-27315000Y-17670000D01*
X-27182989Y-13047989D02*
X-27745000Y-13610000D01*
X27046601Y-10947999D02*
X27272999Y-11174397D01*
X26937011Y-13047989D02*
X-27182989Y-13047989D01*
X27272999Y-12712001D02*
X26937011Y-13047989D01*
X27272999Y-11174397D02*
X27272999Y-12712001D01*
X-27315000Y-17670000D02*
X-24430000Y-17670000D01*
X22225000Y-11725000D02*
X23002001Y-10947999D01*
X-27745000Y-13610000D02*
X-27745000Y-17240000D01*
X23002001Y-10947999D02*
X27046601Y-10947999D01*
X21175000Y-11725000D02*
X22225000Y-11725000D01*
X-21065000Y-22020000D02*
X-23625000Y-22020000D01*
X23625000Y-18475000D02*
X26075000Y-18475000D01*
X14425000Y-19300000D02*
X22800000Y-19300000D01*
X22800000Y-19300000D02*
X23625000Y-18475000D01*
X14425000Y-18475000D02*
X14425000Y-19300000D01*
X-25900000Y-20370000D02*
X-26100000Y-20570000D01*
X27325000Y-20370000D02*
X-25900000Y-20370000D01*
X27945000Y-19750000D02*
X27325000Y-20370000D01*
X27945000Y-18480000D02*
X27945000Y-19750000D01*
X-23625000Y-25225000D02*
X-21175000Y-25225000D01*
X-14315000Y-22020000D02*
X-16875000Y-22020000D01*
X-21175000Y-25225000D02*
X-21160000Y-25210000D01*
X-14310000Y-22025000D02*
X-14425000Y-22025000D01*
X-27745000Y-23990000D02*
X-27315000Y-24420000D01*
X-27182989Y-19797989D02*
X-27745000Y-20360000D01*
X26937011Y-19797989D02*
X-27182989Y-19797989D01*
X27272999Y-19462001D02*
X26937011Y-19797989D01*
X-24430000Y-24420000D02*
X-23625000Y-25225000D01*
X27272999Y-17924397D02*
X27272999Y-19462001D01*
X-27315000Y-24420000D02*
X-24430000Y-24420000D01*
X27046601Y-17697999D02*
X27272999Y-17924397D01*
X-27745000Y-20360000D02*
X-27745000Y-23990000D01*
X23002001Y-17697999D02*
X27046601Y-17697999D01*
X22225000Y-18475000D02*
X23002001Y-17697999D01*
X21175000Y-18475000D02*
X22225000Y-18475000D01*
D19*
X-35560000Y-1270000D02*
X-37570000Y-1270000D01*
X-3780000Y37500000D02*
X-1280000Y40000000D01*
X-37570000Y32630000D02*
X-32700000Y37500000D01*
X-32700000Y37500000D02*
X-3780000Y37500000D01*
X-37570000Y-1270000D02*
X-37570000Y32630000D01*
X-40185000Y-30800000D02*
X-29435000Y-41550000D01*
X-40185000Y-4585000D02*
X-40185000Y-30800000D01*
X-37570000Y-1970000D02*
X-40185000Y-4585000D01*
X-280000Y-41550000D02*
X1270000Y-40000000D01*
X-29435000Y-41550000D02*
X-280000Y-41550000D01*
X-37570000Y-1270000D02*
X-37570000Y-1970000D01*
X-34710001Y-5500001D02*
X-35560000Y-6350000D01*
X-33900000Y-4690000D02*
X-34710001Y-5500001D01*
X-33900000Y34300000D02*
X-33900000Y-4690000D01*
X-32200000Y36000000D02*
X-33900000Y34300000D01*
X-3400000Y36000000D02*
X-32200000Y36000000D01*
X-29100000Y-31000000D02*
X-27300000Y-32800000D01*
X-30200000Y-7200000D02*
X-29100000Y-8300000D01*
X-35560000Y-6350000D02*
X-34357919Y-6350000D01*
X-33507919Y-7200000D02*
X-30200000Y-7200000D01*
X-27300000Y-32800000D02*
X-19700000Y-32800000D01*
X-29100000Y-8300000D02*
X-29100000Y-31000000D01*
X-34357919Y-6350000D02*
X-33507919Y-7200000D01*
X4415000Y-39970000D02*
X4395000Y-39950000D01*
D20*
X-34925000Y-3810000D02*
X-35560000Y-3810000D01*
D19*
X-5420000Y41600000D02*
X-3820000Y40000000D01*
X-30700000Y41600000D02*
X-5420000Y41600000D01*
X-40400000Y31900000D02*
X-30700000Y41600000D01*
X-40400000Y-1400000D02*
X-40400000Y31900000D01*
X-37810000Y-3810000D02*
X-35560000Y-3810000D01*
X-38385000Y-4385000D02*
X-37810000Y-3810000D01*
X-38385000Y-29715000D02*
X-38385000Y-4385000D01*
X-16873371Y-36023600D02*
X-17359390Y-36050000D01*
X-17359390Y-36050000D02*
X-32050000Y-36050000D01*
X-32050000Y-36050000D02*
X-38385000Y-29715000D01*
X-166400Y-36023600D02*
X3810000Y-40000000D01*
X-16873371Y-36023600D02*
X-166400Y-36023600D01*
X-32600000Y-5440381D02*
X-32600000Y-5900000D01*
X-31919001Y30780999D02*
X-32600000Y30100000D01*
X580999Y30780999D02*
X-31919001Y30780999D01*
X-32600000Y30100000D02*
X-32600000Y-5440381D01*
X2400000Y32600000D02*
X580999Y30780999D01*
X-13085000Y-39950000D02*
X-21350000Y-39950000D01*
X-29170000Y-34900000D02*
X-21400000Y-34900000D01*
X-30585000Y-33485000D02*
X-29170000Y-34900000D01*
X-30585000Y-10150000D02*
X-30585000Y-33485000D01*
X-31845000Y-8890000D02*
X-30585000Y-10150000D01*
X-33560000Y-8890000D02*
X-31845000Y-8890000D01*
X-1300000Y-39970000D02*
X-1270000Y-40000000D01*
X-1300000Y-38400000D02*
X-1300000Y-39970000D01*
X-2450000Y-37250000D02*
X-1300000Y-38400000D01*
X-9485000Y-37250000D02*
X-2450000Y-37250000D01*
X40090000Y34510000D02*
X-31385000Y34510000D01*
M02*
