G04 #@! TF.GenerationSoftware,KiCad,Pcbnew,(5.1.2-1)-1*
G04 #@! TF.CreationDate,2021-03-21T18:44:29-05:00*
G04 #@! TF.ProjectId,Core64 LM v0.2,436f7265-3634-4204-9c4d-2076302e322e,0.3*
G04 #@! TF.SameCoordinates,Original*
G04 #@! TF.FileFunction,Legend,Top*
G04 #@! TF.FilePolarity,Positive*
%FSLAX46Y46*%
G04 Gerber Fmt 4.6, Leading zero omitted, Abs format (unit mm)*
G04 Created by KiCad (PCBNEW (5.1.2-1)-1) date 2021-03-21 18:44:29*
%MOMM*%
%LPD*%
G04 APERTURE LIST*
%ADD10C,0.160000*%
%ADD11C,0.150000*%
%ADD12C,0.250000*%
%ADD13C,0.500000*%
%ADD14C,0.300000*%
%ADD15C,0.120000*%
%ADD16C,0.010000*%
G04 APERTURE END LIST*
D10*
X-34104000Y31638095D02*
X-34104000Y32438095D01*
X-33913523Y32438095D01*
X-33799238Y32400000D01*
X-33723047Y32323809D01*
X-33684952Y32247619D01*
X-33646857Y32095238D01*
X-33646857Y31980952D01*
X-33684952Y31828571D01*
X-33723047Y31752380D01*
X-33799238Y31676190D01*
X-33913523Y31638095D01*
X-34104000Y31638095D01*
X-33304000Y31942857D02*
X-32694476Y31942857D01*
X-34104000Y29138095D02*
X-34104000Y29938095D01*
X-33913523Y29938095D01*
X-33799238Y29900000D01*
X-33723047Y29823809D01*
X-33684952Y29747619D01*
X-33646857Y29595238D01*
X-33646857Y29480952D01*
X-33684952Y29328571D01*
X-33723047Y29252380D01*
X-33799238Y29176190D01*
X-33913523Y29138095D01*
X-34104000Y29138095D01*
X-33304000Y29442857D02*
X-32694476Y29442857D01*
X-32999238Y29138095D02*
X-32999238Y29747619D01*
X28680190Y-39234761D02*
X29137333Y-39234761D01*
X28908761Y-40814761D02*
X28908761Y-39234761D01*
X29556380Y-39234761D02*
X29708761Y-39234761D01*
X29784952Y-39310000D01*
X29861142Y-39460476D01*
X29899238Y-39761428D01*
X29899238Y-40288095D01*
X29861142Y-40589047D01*
X29784952Y-40739523D01*
X29708761Y-40814761D01*
X29556380Y-40814761D01*
X29480190Y-40739523D01*
X29404000Y-40589047D01*
X29365904Y-40288095D01*
X29365904Y-39761428D01*
X29404000Y-39460476D01*
X29480190Y-39310000D01*
X29556380Y-39234761D01*
X30242095Y-40814761D02*
X30242095Y-39234761D01*
X30546857Y-39234761D01*
X30623047Y-39310000D01*
X30661142Y-39385238D01*
X30699238Y-39535714D01*
X30699238Y-39761428D01*
X30661142Y-39911904D01*
X30623047Y-39987142D01*
X30546857Y-40062380D01*
X30242095Y-40062380D01*
X31613523Y-40739523D02*
X31727809Y-40814761D01*
X31918285Y-40814761D01*
X31994476Y-40739523D01*
X32032571Y-40664285D01*
X32070666Y-40513809D01*
X32070666Y-40363333D01*
X32032571Y-40212857D01*
X31994476Y-40137619D01*
X31918285Y-40062380D01*
X31765904Y-39987142D01*
X31689714Y-39911904D01*
X31651619Y-39836666D01*
X31613523Y-39686190D01*
X31613523Y-39535714D01*
X31651619Y-39385238D01*
X31689714Y-39310000D01*
X31765904Y-39234761D01*
X31956380Y-39234761D01*
X32070666Y-39310000D01*
X32413523Y-40814761D02*
X32413523Y-39234761D01*
X32794476Y-40814761D02*
X32794476Y-39234761D01*
X32984952Y-39234761D01*
X33099238Y-39310000D01*
X33175428Y-39460476D01*
X33213523Y-39610952D01*
X33251619Y-39911904D01*
X33251619Y-40137619D01*
X33213523Y-40438571D01*
X33175428Y-40589047D01*
X33099238Y-40739523D01*
X32984952Y-40814761D01*
X32794476Y-40814761D01*
X33594476Y-39987142D02*
X33861142Y-39987142D01*
X33975428Y-40814761D02*
X33594476Y-40814761D01*
X33594476Y-39234761D01*
X33975428Y-39234761D01*
D11*
X-33166785Y36747619D02*
X-32500119Y35747619D01*
X-32500119Y36747619D02*
X-33166785Y35747619D01*
X-31642976Y35747619D02*
X-32119166Y35747619D01*
X-32119166Y36747619D01*
X-31309643Y35747619D02*
X-31309643Y36747619D01*
X-30976309Y36033333D01*
X-30642976Y36747619D01*
X-30642976Y35747619D01*
X-29642976Y35747619D02*
X-30214404Y35747619D01*
X-29928690Y35747619D02*
X-29928690Y36747619D01*
X-30023928Y36604761D01*
X-30119166Y36509523D01*
X-30214404Y36461904D01*
D10*
X-10243619Y39360476D02*
X-10129333Y39285238D01*
X-9938857Y39285238D01*
X-9862666Y39360476D01*
X-9824571Y39435714D01*
X-9786476Y39586190D01*
X-9786476Y39736666D01*
X-9824571Y39887142D01*
X-9862666Y39962380D01*
X-9938857Y40037619D01*
X-10091238Y40112857D01*
X-10167428Y40188095D01*
X-10205523Y40263333D01*
X-10243619Y40413809D01*
X-10243619Y40564285D01*
X-10205523Y40714761D01*
X-10167428Y40790000D01*
X-10091238Y40865238D01*
X-9900761Y40865238D01*
X-9786476Y40790000D01*
X-9215047Y40865238D02*
X-9215047Y39736666D01*
X-9253142Y39510952D01*
X-9329333Y39360476D01*
X-9443619Y39285238D01*
X-9519809Y39285238D01*
X-8910285Y40865238D02*
X-8415047Y40865238D01*
X-8681714Y40263333D01*
X-8567428Y40263333D01*
X-8491238Y40188095D01*
X-8453142Y40112857D01*
X-8415047Y39962380D01*
X-8415047Y39586190D01*
X-8453142Y39435714D01*
X-8491238Y39360476D01*
X-8567428Y39285238D01*
X-8796000Y39285238D01*
X-8872190Y39360476D01*
X-8910285Y39435714D01*
X-7500761Y39360476D02*
X-7386476Y39285238D01*
X-7196000Y39285238D01*
X-7119809Y39360476D01*
X-7081714Y39435714D01*
X-7043619Y39586190D01*
X-7043619Y39736666D01*
X-7081714Y39887142D01*
X-7119809Y39962380D01*
X-7196000Y40037619D01*
X-7348380Y40112857D01*
X-7424571Y40188095D01*
X-7462666Y40263333D01*
X-7500761Y40413809D01*
X-7500761Y40564285D01*
X-7462666Y40714761D01*
X-7424571Y40790000D01*
X-7348380Y40865238D01*
X-7157904Y40865238D01*
X-7043619Y40790000D01*
X-6472190Y40865238D02*
X-6472190Y39736666D01*
X-6510285Y39510952D01*
X-6586476Y39360476D01*
X-6700761Y39285238D01*
X-6776952Y39285238D01*
X-5748380Y40338571D02*
X-5748380Y39285238D01*
X-5938857Y40940476D02*
X-6129333Y39811904D01*
X-5634095Y39811904D01*
X-15943619Y39360476D02*
X-15829333Y39285238D01*
X-15638857Y39285238D01*
X-15562666Y39360476D01*
X-15524571Y39435714D01*
X-15486476Y39586190D01*
X-15486476Y39736666D01*
X-15524571Y39887142D01*
X-15562666Y39962380D01*
X-15638857Y40037619D01*
X-15791238Y40112857D01*
X-15867428Y40188095D01*
X-15905523Y40263333D01*
X-15943619Y40413809D01*
X-15943619Y40564285D01*
X-15905523Y40714761D01*
X-15867428Y40790000D01*
X-15791238Y40865238D01*
X-15600761Y40865238D01*
X-15486476Y40790000D01*
X-15143619Y39285238D02*
X-15143619Y40865238D01*
X-14953142Y40865238D01*
X-14838857Y40790000D01*
X-14762666Y40639523D01*
X-14724571Y40489047D01*
X-14686476Y40188095D01*
X-14686476Y39962380D01*
X-14724571Y39661428D01*
X-14762666Y39510952D01*
X-14838857Y39360476D01*
X-14953142Y39285238D01*
X-15143619Y39285238D01*
X-14381714Y39736666D02*
X-14000761Y39736666D01*
X-14457904Y39285238D02*
X-14191238Y40865238D01*
X-13924571Y39285238D01*
X-13086476Y39360476D02*
X-12972190Y39285238D01*
X-12781714Y39285238D01*
X-12705523Y39360476D01*
X-12667428Y39435714D01*
X-12629333Y39586190D01*
X-12629333Y39736666D01*
X-12667428Y39887142D01*
X-12705523Y39962380D01*
X-12781714Y40037619D01*
X-12934095Y40112857D01*
X-13010285Y40188095D01*
X-13048380Y40263333D01*
X-13086476Y40413809D01*
X-13086476Y40564285D01*
X-13048380Y40714761D01*
X-13010285Y40790000D01*
X-12934095Y40865238D01*
X-12743619Y40865238D01*
X-12629333Y40790000D01*
X-11829333Y39435714D02*
X-11867428Y39360476D01*
X-11981714Y39285238D01*
X-12057904Y39285238D01*
X-12172190Y39360476D01*
X-12248380Y39510952D01*
X-12286476Y39661428D01*
X-12324571Y39962380D01*
X-12324571Y40188095D01*
X-12286476Y40489047D01*
X-12248380Y40639523D01*
X-12172190Y40790000D01*
X-12057904Y40865238D01*
X-11981714Y40865238D01*
X-11867428Y40790000D01*
X-11829333Y40714761D01*
X-11105523Y39285238D02*
X-11486476Y39285238D01*
X-11486476Y40865238D01*
X10446857Y40865238D02*
X10599238Y40865238D01*
X10675428Y40790000D01*
X10751619Y40639523D01*
X10789714Y40338571D01*
X10789714Y39811904D01*
X10751619Y39510952D01*
X10675428Y39360476D01*
X10599238Y39285238D01*
X10446857Y39285238D01*
X10370666Y39360476D01*
X10294476Y39510952D01*
X10256380Y39811904D01*
X10256380Y40338571D01*
X10294476Y40639523D01*
X10370666Y40790000D01*
X10446857Y40865238D01*
X11513523Y39285238D02*
X11132571Y39285238D01*
X11132571Y40865238D01*
X11780190Y40112857D02*
X12046857Y40112857D01*
X12161142Y39285238D02*
X11780190Y39285238D01*
X11780190Y40865238D01*
X12161142Y40865238D01*
X12504000Y39285238D02*
X12504000Y40865238D01*
X12694476Y40865238D01*
X12808761Y40790000D01*
X12884952Y40639523D01*
X12923047Y40489047D01*
X12961142Y40188095D01*
X12961142Y39962380D01*
X12923047Y39661428D01*
X12884952Y39510952D01*
X12808761Y39360476D01*
X12694476Y39285238D01*
X12504000Y39285238D01*
X-33737333Y24357142D02*
X-33623047Y24319047D01*
X-33584952Y24280952D01*
X-33546857Y24204761D01*
X-33546857Y24090476D01*
X-33584952Y24014285D01*
X-33623047Y23976190D01*
X-33699238Y23938095D01*
X-34004000Y23938095D01*
X-34004000Y24738095D01*
X-33737333Y24738095D01*
X-33661142Y24700000D01*
X-33623047Y24661904D01*
X-33584952Y24585714D01*
X-33584952Y24509523D01*
X-33623047Y24433333D01*
X-33661142Y24395238D01*
X-33737333Y24357142D01*
X-34004000Y24357142D01*
X-33204000Y24242857D02*
X-32594476Y24242857D01*
X-32899238Y23938095D02*
X-32899238Y24547619D01*
X-33837333Y26957142D02*
X-33723047Y26919047D01*
X-33684952Y26880952D01*
X-33646857Y26804761D01*
X-33646857Y26690476D01*
X-33684952Y26614285D01*
X-33723047Y26576190D01*
X-33799238Y26538095D01*
X-34104000Y26538095D01*
X-34104000Y27338095D01*
X-33837333Y27338095D01*
X-33761142Y27300000D01*
X-33723047Y27261904D01*
X-33684952Y27185714D01*
X-33684952Y27109523D01*
X-33723047Y27033333D01*
X-33761142Y26995238D01*
X-33837333Y26957142D01*
X-34104000Y26957142D01*
X-33304000Y26842857D02*
X-32694476Y26842857D01*
X-35880190Y34938095D02*
X-36261142Y34938095D01*
X-36299238Y34557142D01*
X-36261142Y34595238D01*
X-36184952Y34633333D01*
X-35994476Y34633333D01*
X-35918285Y34595238D01*
X-35880190Y34557142D01*
X-35842095Y34480952D01*
X-35842095Y34290476D01*
X-35880190Y34214285D01*
X-35918285Y34176190D01*
X-35994476Y34138095D01*
X-36184952Y34138095D01*
X-36261142Y34176190D01*
X-36299238Y34214285D01*
X-35613523Y34938095D02*
X-35346857Y34138095D01*
X-35080190Y34938095D01*
X-34813523Y34938095D02*
X-34813523Y34290476D01*
X-34775428Y34214285D01*
X-34737333Y34176190D01*
X-34661142Y34138095D01*
X-34508761Y34138095D01*
X-34432571Y34176190D01*
X-34394476Y34214285D01*
X-34356380Y34290476D01*
X-34356380Y34938095D01*
X-34013523Y34176190D02*
X-33899238Y34138095D01*
X-33708761Y34138095D01*
X-33632571Y34176190D01*
X-33594476Y34214285D01*
X-33556380Y34290476D01*
X-33556380Y34366666D01*
X-33594476Y34442857D01*
X-33632571Y34480952D01*
X-33708761Y34519047D01*
X-33861142Y34557142D01*
X-33937333Y34595238D01*
X-33975428Y34633333D01*
X-34013523Y34709523D01*
X-34013523Y34785714D01*
X-33975428Y34861904D01*
X-33937333Y34900000D01*
X-33861142Y34938095D01*
X-33670666Y34938095D01*
X-33556380Y34900000D01*
X-32946857Y34557142D02*
X-32832571Y34519047D01*
X-32794476Y34480952D01*
X-32756380Y34404761D01*
X-32756380Y34290476D01*
X-32794476Y34214285D01*
X-32832571Y34176190D01*
X-32908761Y34138095D01*
X-33213523Y34138095D01*
X-33213523Y34938095D01*
X-32946857Y34938095D01*
X-32870666Y34900000D01*
X-32832571Y34861904D01*
X-32794476Y34785714D01*
X-32794476Y34709523D01*
X-32832571Y34633333D01*
X-32870666Y34595238D01*
X-32946857Y34557142D01*
X-33213523Y34557142D01*
X-40105523Y-20844761D02*
X-40105523Y-22123809D01*
X-40067428Y-22274285D01*
X-40029333Y-22349523D01*
X-39953142Y-22424761D01*
X-39800761Y-22424761D01*
X-39724571Y-22349523D01*
X-39686476Y-22274285D01*
X-39648380Y-22123809D01*
X-39648380Y-20844761D01*
X-39305523Y-22349523D02*
X-39191238Y-22424761D01*
X-39000761Y-22424761D01*
X-38924571Y-22349523D01*
X-38886476Y-22274285D01*
X-38848380Y-22123809D01*
X-38848380Y-21973333D01*
X-38886476Y-21822857D01*
X-38924571Y-21747619D01*
X-39000761Y-21672380D01*
X-39153142Y-21597142D01*
X-39229333Y-21521904D01*
X-39267428Y-21446666D01*
X-39305523Y-21296190D01*
X-39305523Y-21145714D01*
X-39267428Y-20995238D01*
X-39229333Y-20920000D01*
X-39153142Y-20844761D01*
X-38962666Y-20844761D01*
X-38848380Y-20920000D01*
X-38048380Y-22424761D02*
X-38315047Y-21672380D01*
X-38505523Y-22424761D02*
X-38505523Y-20844761D01*
X-38200761Y-20844761D01*
X-38124571Y-20920000D01*
X-38086476Y-20995238D01*
X-38048380Y-21145714D01*
X-38048380Y-21371428D01*
X-38086476Y-21521904D01*
X-38124571Y-21597142D01*
X-38200761Y-21672380D01*
X-38505523Y-21672380D01*
X-37743619Y-20995238D02*
X-37705523Y-20920000D01*
X-37629333Y-20844761D01*
X-37438857Y-20844761D01*
X-37362666Y-20920000D01*
X-37324571Y-20995238D01*
X-37286476Y-21145714D01*
X-37286476Y-21296190D01*
X-37324571Y-21521904D01*
X-37781714Y-22424761D01*
X-37286476Y-22424761D01*
X-40105523Y-23374761D02*
X-40105523Y-24653809D01*
X-40067428Y-24804285D01*
X-40029333Y-24879523D01*
X-39953142Y-24954761D01*
X-39800761Y-24954761D01*
X-39724571Y-24879523D01*
X-39686476Y-24804285D01*
X-39648380Y-24653809D01*
X-39648380Y-23374761D01*
X-39305523Y-24879523D02*
X-39191238Y-24954761D01*
X-39000761Y-24954761D01*
X-38924571Y-24879523D01*
X-38886476Y-24804285D01*
X-38848380Y-24653809D01*
X-38848380Y-24503333D01*
X-38886476Y-24352857D01*
X-38924571Y-24277619D01*
X-39000761Y-24202380D01*
X-39153142Y-24127142D01*
X-39229333Y-24051904D01*
X-39267428Y-23976666D01*
X-39305523Y-23826190D01*
X-39305523Y-23675714D01*
X-39267428Y-23525238D01*
X-39229333Y-23450000D01*
X-39153142Y-23374761D01*
X-38962666Y-23374761D01*
X-38848380Y-23450000D01*
X-38048380Y-24954761D02*
X-38315047Y-24202380D01*
X-38505523Y-24954761D02*
X-38505523Y-23374761D01*
X-38200761Y-23374761D01*
X-38124571Y-23450000D01*
X-38086476Y-23525238D01*
X-38048380Y-23675714D01*
X-38048380Y-23901428D01*
X-38086476Y-24051904D01*
X-38124571Y-24127142D01*
X-38200761Y-24202380D01*
X-38505523Y-24202380D01*
X-37781714Y-23374761D02*
X-37286476Y-23374761D01*
X-37553142Y-23976666D01*
X-37438857Y-23976666D01*
X-37362666Y-24051904D01*
X-37324571Y-24127142D01*
X-37286476Y-24277619D01*
X-37286476Y-24653809D01*
X-37324571Y-24804285D01*
X-37362666Y-24879523D01*
X-37438857Y-24954761D01*
X-37667428Y-24954761D01*
X-37743619Y-24879523D01*
X-37781714Y-24804285D01*
D11*
X35266666Y26747619D02*
X35266666Y26033333D01*
X35219047Y25890476D01*
X35123809Y25795238D01*
X34980952Y25747619D01*
X34885714Y25747619D01*
X35695238Y26652380D02*
X35742857Y26700000D01*
X35838095Y26747619D01*
X36076190Y26747619D01*
X36171428Y26700000D01*
X36219047Y26652380D01*
X36266666Y26557142D01*
X36266666Y26461904D01*
X36219047Y26319047D01*
X35647619Y25747619D01*
X36266666Y25747619D01*
X-35833333Y26747619D02*
X-35833333Y26033333D01*
X-35880952Y25890476D01*
X-35976190Y25795238D01*
X-36119047Y25747619D01*
X-36214285Y25747619D01*
X-34833333Y25747619D02*
X-35404761Y25747619D01*
X-35119047Y25747619D02*
X-35119047Y26747619D01*
X-35214285Y26604761D01*
X-35309523Y26509523D01*
X-35404761Y26461904D01*
D10*
X-12553142Y-39209761D02*
X-12400761Y-39209761D01*
X-12324571Y-39285000D01*
X-12248380Y-39435476D01*
X-12210285Y-39736428D01*
X-12210285Y-40263095D01*
X-12248380Y-40564047D01*
X-12324571Y-40714523D01*
X-12400761Y-40789761D01*
X-12553142Y-40789761D01*
X-12629333Y-40714523D01*
X-12705523Y-40564047D01*
X-12743619Y-40263095D01*
X-12743619Y-39736428D01*
X-12705523Y-39435476D01*
X-12629333Y-39285000D01*
X-12553142Y-39209761D01*
X-11486476Y-40789761D02*
X-11867428Y-40789761D01*
X-11867428Y-39209761D01*
X-11219809Y-39962142D02*
X-10953142Y-39962142D01*
X-10838857Y-40789761D02*
X-11219809Y-40789761D01*
X-11219809Y-39209761D01*
X-10838857Y-39209761D01*
X-10496000Y-40789761D02*
X-10496000Y-39209761D01*
X-10305523Y-39209761D01*
X-10191238Y-39285000D01*
X-10115047Y-39435476D01*
X-10076952Y-39585952D01*
X-10038857Y-39886904D01*
X-10038857Y-40112619D01*
X-10076952Y-40413571D01*
X-10115047Y-40564047D01*
X-10191238Y-40714523D01*
X-10305523Y-40789761D01*
X-10496000Y-40789761D01*
X10956380Y-40739523D02*
X11070666Y-40814761D01*
X11261142Y-40814761D01*
X11337333Y-40739523D01*
X11375428Y-40664285D01*
X11413523Y-40513809D01*
X11413523Y-40363333D01*
X11375428Y-40212857D01*
X11337333Y-40137619D01*
X11261142Y-40062380D01*
X11108761Y-39987142D01*
X11032571Y-39911904D01*
X10994476Y-39836666D01*
X10956380Y-39686190D01*
X10956380Y-39535714D01*
X10994476Y-39385238D01*
X11032571Y-39310000D01*
X11108761Y-39234761D01*
X11299238Y-39234761D01*
X11413523Y-39310000D01*
X12213523Y-40664285D02*
X12175428Y-40739523D01*
X12061142Y-40814761D01*
X11984952Y-40814761D01*
X11870666Y-40739523D01*
X11794476Y-40589047D01*
X11756380Y-40438571D01*
X11718285Y-40137619D01*
X11718285Y-39911904D01*
X11756380Y-39610952D01*
X11794476Y-39460476D01*
X11870666Y-39310000D01*
X11984952Y-39234761D01*
X12061142Y-39234761D01*
X12175428Y-39310000D01*
X12213523Y-39385238D01*
X12937333Y-40814761D02*
X12556380Y-40814761D01*
X12556380Y-39234761D01*
X13775428Y-40739523D02*
X13889714Y-40814761D01*
X14080190Y-40814761D01*
X14156380Y-40739523D01*
X14194476Y-40664285D01*
X14232571Y-40513809D01*
X14232571Y-40363333D01*
X14194476Y-40212857D01*
X14156380Y-40137619D01*
X14080190Y-40062380D01*
X13927809Y-39987142D01*
X13851619Y-39911904D01*
X13813523Y-39836666D01*
X13775428Y-39686190D01*
X13775428Y-39535714D01*
X13813523Y-39385238D01*
X13851619Y-39310000D01*
X13927809Y-39234761D01*
X14118285Y-39234761D01*
X14232571Y-39310000D01*
X14575428Y-40814761D02*
X14575428Y-39234761D01*
X14765904Y-39234761D01*
X14880190Y-39310000D01*
X14956380Y-39460476D01*
X14994476Y-39610952D01*
X15032571Y-39911904D01*
X15032571Y-40137619D01*
X14994476Y-40438571D01*
X14956380Y-40589047D01*
X14880190Y-40739523D01*
X14765904Y-40814761D01*
X14575428Y-40814761D01*
X15337333Y-40363333D02*
X15718285Y-40363333D01*
X15261142Y-40814761D02*
X15527809Y-39234761D01*
X15794476Y-40814761D01*
X5656380Y-40739523D02*
X5770666Y-40814761D01*
X5961142Y-40814761D01*
X6037333Y-40739523D01*
X6075428Y-40664285D01*
X6113523Y-40513809D01*
X6113523Y-40363333D01*
X6075428Y-40212857D01*
X6037333Y-40137619D01*
X5961142Y-40062380D01*
X5808761Y-39987142D01*
X5732571Y-39911904D01*
X5694476Y-39836666D01*
X5656380Y-39686190D01*
X5656380Y-39535714D01*
X5694476Y-39385238D01*
X5732571Y-39310000D01*
X5808761Y-39234761D01*
X5999238Y-39234761D01*
X6113523Y-39310000D01*
X6684952Y-39234761D02*
X6684952Y-40363333D01*
X6646857Y-40589047D01*
X6570666Y-40739523D01*
X6456380Y-40814761D01*
X6380190Y-40814761D01*
X7027809Y-39385238D02*
X7065904Y-39310000D01*
X7142095Y-39234761D01*
X7332571Y-39234761D01*
X7408761Y-39310000D01*
X7446857Y-39385238D01*
X7484952Y-39535714D01*
X7484952Y-39686190D01*
X7446857Y-39911904D01*
X6989714Y-40814761D01*
X7484952Y-40814761D01*
X8399238Y-40739523D02*
X8513523Y-40814761D01*
X8704000Y-40814761D01*
X8780190Y-40739523D01*
X8818285Y-40664285D01*
X8856380Y-40513809D01*
X8856380Y-40363333D01*
X8818285Y-40212857D01*
X8780190Y-40137619D01*
X8704000Y-40062380D01*
X8551619Y-39987142D01*
X8475428Y-39911904D01*
X8437333Y-39836666D01*
X8399238Y-39686190D01*
X8399238Y-39535714D01*
X8437333Y-39385238D01*
X8475428Y-39310000D01*
X8551619Y-39234761D01*
X8742095Y-39234761D01*
X8856380Y-39310000D01*
X9427809Y-39234761D02*
X9427809Y-40363333D01*
X9389714Y-40589047D01*
X9313523Y-40739523D01*
X9199238Y-40814761D01*
X9123047Y-40814761D01*
X10227809Y-40814761D02*
X9770666Y-40814761D01*
X9999238Y-40814761D02*
X9999238Y-39234761D01*
X9923047Y-39460476D01*
X9846857Y-39610952D01*
X9770666Y-39686190D01*
X37309476Y-21797857D02*
X37919000Y-21797857D01*
X37614238Y-22399761D02*
X37614238Y-21195952D01*
X38566619Y-21572142D02*
X38680904Y-21647380D01*
X38719000Y-21722619D01*
X38757095Y-21873095D01*
X38757095Y-22098809D01*
X38719000Y-22249285D01*
X38680904Y-22324523D01*
X38604714Y-22399761D01*
X38299952Y-22399761D01*
X38299952Y-20819761D01*
X38566619Y-20819761D01*
X38642809Y-20895000D01*
X38680904Y-20970238D01*
X38719000Y-21120714D01*
X38719000Y-21271190D01*
X38680904Y-21421666D01*
X38642809Y-21496904D01*
X38566619Y-21572142D01*
X38299952Y-21572142D01*
X39061857Y-21948333D02*
X39442809Y-21948333D01*
X38985666Y-22399761D02*
X39252333Y-20819761D01*
X39519000Y-22399761D01*
X39671380Y-20819761D02*
X40128523Y-20819761D01*
X39899952Y-22399761D02*
X39899952Y-20819761D01*
X40280904Y-20819761D02*
X40738047Y-20819761D01*
X40509476Y-22399761D02*
X40509476Y-20819761D01*
X37690428Y-23349761D02*
X37309476Y-23349761D01*
X37271380Y-24102142D01*
X37309476Y-24026904D01*
X37385666Y-23951666D01*
X37576142Y-23951666D01*
X37652333Y-24026904D01*
X37690428Y-24102142D01*
X37728523Y-24252619D01*
X37728523Y-24628809D01*
X37690428Y-24779285D01*
X37652333Y-24854523D01*
X37576142Y-24929761D01*
X37385666Y-24929761D01*
X37309476Y-24854523D01*
X37271380Y-24779285D01*
X37957095Y-23349761D02*
X38223761Y-24929761D01*
X38490428Y-23349761D01*
X38757095Y-23349761D02*
X38757095Y-24628809D01*
X38795190Y-24779285D01*
X38833285Y-24854523D01*
X38909476Y-24929761D01*
X39061857Y-24929761D01*
X39138047Y-24854523D01*
X39176142Y-24779285D01*
X39214238Y-24628809D01*
X39214238Y-23349761D01*
X39557095Y-24854523D02*
X39671380Y-24929761D01*
X39861857Y-24929761D01*
X39938047Y-24854523D01*
X39976142Y-24779285D01*
X40014238Y-24628809D01*
X40014238Y-24478333D01*
X39976142Y-24327857D01*
X39938047Y-24252619D01*
X39861857Y-24177380D01*
X39709476Y-24102142D01*
X39633285Y-24026904D01*
X39595190Y-23951666D01*
X39557095Y-23801190D01*
X39557095Y-23650714D01*
X39595190Y-23500238D01*
X39633285Y-23425000D01*
X39709476Y-23349761D01*
X39899952Y-23349761D01*
X40014238Y-23425000D01*
X40623761Y-24102142D02*
X40738047Y-24177380D01*
X40776142Y-24252619D01*
X40814238Y-24403095D01*
X40814238Y-24628809D01*
X40776142Y-24779285D01*
X40738047Y-24854523D01*
X40661857Y-24929761D01*
X40357095Y-24929761D01*
X40357095Y-23349761D01*
X40623761Y-23349761D01*
X40699952Y-23425000D01*
X40738047Y-23500238D01*
X40776142Y-23650714D01*
X40776142Y-23801190D01*
X40738047Y-23951666D01*
X40699952Y-24026904D01*
X40623761Y-24102142D01*
X40357095Y-24102142D01*
X-39346142Y-2094523D02*
X-39231857Y-2169761D01*
X-39041380Y-2169761D01*
X-38965190Y-2094523D01*
X-38927095Y-2019285D01*
X-38889000Y-1868809D01*
X-38889000Y-1718333D01*
X-38927095Y-1567857D01*
X-38965190Y-1492619D01*
X-39041380Y-1417380D01*
X-39193761Y-1342142D01*
X-39269952Y-1266904D01*
X-39308047Y-1191666D01*
X-39346142Y-1041190D01*
X-39346142Y-890714D01*
X-39308047Y-740238D01*
X-39269952Y-665000D01*
X-39193761Y-589761D01*
X-39003285Y-589761D01*
X-38889000Y-665000D01*
X-38089000Y-2019285D02*
X-38127095Y-2094523D01*
X-38241380Y-2169761D01*
X-38317571Y-2169761D01*
X-38431857Y-2094523D01*
X-38508047Y-1944047D01*
X-38546142Y-1793571D01*
X-38584238Y-1492619D01*
X-38584238Y-1266904D01*
X-38546142Y-965952D01*
X-38508047Y-815476D01*
X-38431857Y-665000D01*
X-38317571Y-589761D01*
X-38241380Y-589761D01*
X-38127095Y-665000D01*
X-38089000Y-740238D01*
X-37365190Y-2169761D02*
X-37746142Y-2169761D01*
X-37746142Y-589761D01*
X-39384238Y-4624523D02*
X-39269952Y-4699761D01*
X-39079476Y-4699761D01*
X-39003285Y-4624523D01*
X-38965190Y-4549285D01*
X-38927095Y-4398809D01*
X-38927095Y-4248333D01*
X-38965190Y-4097857D01*
X-39003285Y-4022619D01*
X-39079476Y-3947380D01*
X-39231857Y-3872142D01*
X-39308047Y-3796904D01*
X-39346142Y-3721666D01*
X-39384238Y-3571190D01*
X-39384238Y-3420714D01*
X-39346142Y-3270238D01*
X-39308047Y-3195000D01*
X-39231857Y-3119761D01*
X-39041380Y-3119761D01*
X-38927095Y-3195000D01*
X-38584238Y-4699761D02*
X-38584238Y-3119761D01*
X-38393761Y-3119761D01*
X-38279476Y-3195000D01*
X-38203285Y-3345476D01*
X-38165190Y-3495952D01*
X-38127095Y-3796904D01*
X-38127095Y-4022619D01*
X-38165190Y-4323571D01*
X-38203285Y-4474047D01*
X-38279476Y-4624523D01*
X-38393761Y-4699761D01*
X-38584238Y-4699761D01*
X-37822333Y-4248333D02*
X-37441380Y-4248333D01*
X-37898523Y-4699761D02*
X-37631857Y-3119761D01*
X-37365190Y-4699761D01*
X-39384238Y-5649761D02*
X-38889000Y-5649761D01*
X-39155666Y-6251666D01*
X-39041380Y-6251666D01*
X-38965190Y-6326904D01*
X-38927095Y-6402142D01*
X-38889000Y-6552619D01*
X-38889000Y-6928809D01*
X-38927095Y-7079285D01*
X-38965190Y-7154523D01*
X-39041380Y-7229761D01*
X-39269952Y-7229761D01*
X-39346142Y-7154523D01*
X-39384238Y-7079285D01*
X-38660428Y-5649761D02*
X-38393761Y-7229761D01*
X-38127095Y-5649761D01*
X-37936619Y-5649761D02*
X-37441380Y-5649761D01*
X-37708047Y-6251666D01*
X-37593761Y-6251666D01*
X-37517571Y-6326904D01*
X-37479476Y-6402142D01*
X-37441380Y-6552619D01*
X-37441380Y-6928809D01*
X-37479476Y-7079285D01*
X-37517571Y-7154523D01*
X-37593761Y-7229761D01*
X-37822333Y-7229761D01*
X-37898523Y-7154523D01*
X-37936619Y-7079285D01*
X-39917571Y-8255000D02*
X-39993761Y-8179761D01*
X-40108047Y-8179761D01*
X-40222333Y-8255000D01*
X-40298523Y-8405476D01*
X-40336619Y-8555952D01*
X-40374714Y-8856904D01*
X-40374714Y-9082619D01*
X-40336619Y-9383571D01*
X-40298523Y-9534047D01*
X-40222333Y-9684523D01*
X-40108047Y-9759761D01*
X-40031857Y-9759761D01*
X-39917571Y-9684523D01*
X-39879476Y-9609285D01*
X-39879476Y-9082619D01*
X-40031857Y-9082619D01*
X-39536619Y-9759761D02*
X-39536619Y-8179761D01*
X-39079476Y-9759761D01*
X-39079476Y-8179761D01*
X-38698523Y-9759761D02*
X-38698523Y-8179761D01*
X-38508047Y-8179761D01*
X-38393761Y-8255000D01*
X-38317571Y-8405476D01*
X-38279476Y-8555952D01*
X-38241380Y-8856904D01*
X-38241380Y-9082619D01*
X-38279476Y-9383571D01*
X-38317571Y-9534047D01*
X-38393761Y-9684523D01*
X-38508047Y-9759761D01*
X-38698523Y-9759761D01*
X-37898523Y-9759761D02*
X-37898523Y-8179761D01*
X-37708047Y-8179761D01*
X-37593761Y-8255000D01*
X-37517571Y-8405476D01*
X-37479476Y-8555952D01*
X-37441380Y-8856904D01*
X-37441380Y-9082619D01*
X-37479476Y-9383571D01*
X-37517571Y-9534047D01*
X-37593761Y-9684523D01*
X-37708047Y-9759761D01*
X-37898523Y-9759761D01*
D12*
X-3923214Y-29473809D02*
X-4399404Y-29473809D01*
X-4399404Y-27873809D01*
X-3589880Y-28635714D02*
X-3256547Y-28635714D01*
X-3113690Y-29473809D02*
X-3589880Y-29473809D01*
X-3589880Y-27873809D01*
X-3113690Y-27873809D01*
X-2685119Y-29473809D02*
X-2685119Y-27873809D01*
X-2447023Y-27873809D01*
X-2304166Y-27950000D01*
X-2208928Y-28102380D01*
X-2161309Y-28254761D01*
X-2113690Y-28559523D01*
X-2113690Y-28788095D01*
X-2161309Y-29092857D01*
X-2208928Y-29245238D01*
X-2304166Y-29397619D01*
X-2447023Y-29473809D01*
X-2685119Y-29473809D01*
X-1732738Y-29397619D02*
X-1589880Y-29473809D01*
X-1351785Y-29473809D01*
X-1256547Y-29397619D01*
X-1208928Y-29321428D01*
X-1161309Y-29169047D01*
X-1161309Y-29016666D01*
X-1208928Y-28864285D01*
X-1256547Y-28788095D01*
X-1351785Y-28711904D01*
X-1542261Y-28635714D01*
X-1637500Y-28559523D01*
X-1685119Y-28483333D01*
X-1732738Y-28330952D01*
X-1732738Y-28178571D01*
X-1685119Y-28026190D01*
X-1637500Y-27950000D01*
X-1542261Y-27873809D01*
X-1304166Y-27873809D01*
X-1161309Y-27950000D01*
X219642Y-27873809D02*
X314880Y-27873809D01*
X410119Y-27950000D01*
X457738Y-28026190D01*
X505357Y-28178571D01*
X552976Y-28483333D01*
X552976Y-28864285D01*
X505357Y-29169047D01*
X457738Y-29321428D01*
X410119Y-29397619D01*
X314880Y-29473809D01*
X219642Y-29473809D01*
X124404Y-29397619D01*
X76785Y-29321428D01*
X29166Y-29169047D01*
X-18452Y-28864285D01*
X-18452Y-28483333D01*
X29166Y-28178571D01*
X76785Y-28026190D01*
X124404Y-27950000D01*
X219642Y-27873809D01*
X981547Y-28864285D02*
X1743452Y-28864285D01*
X2124404Y-27873809D02*
X2791071Y-27873809D01*
X2362499Y-29473809D01*
X-3923214Y-32123809D02*
X-4399404Y-32123809D01*
X-4399404Y-30523809D01*
X-3589880Y-31285714D02*
X-3256547Y-31285714D01*
X-3113690Y-32123809D02*
X-3589880Y-32123809D01*
X-3589880Y-30523809D01*
X-3113690Y-30523809D01*
X-2685119Y-32123809D02*
X-2685119Y-30523809D01*
X-2447023Y-30523809D01*
X-2304166Y-30600000D01*
X-2208928Y-30752380D01*
X-2161309Y-30904761D01*
X-2113690Y-31209523D01*
X-2113690Y-31438095D01*
X-2161309Y-31742857D01*
X-2208928Y-31895238D01*
X-2304166Y-32047619D01*
X-2447023Y-32123809D01*
X-2685119Y-32123809D01*
X-1732738Y-32047619D02*
X-1589880Y-32123809D01*
X-1351785Y-32123809D01*
X-1256547Y-32047619D01*
X-1208928Y-31971428D01*
X-1161309Y-31819047D01*
X-1161309Y-31666666D01*
X-1208928Y-31514285D01*
X-1256547Y-31438095D01*
X-1351785Y-31361904D01*
X-1542261Y-31285714D01*
X-1637500Y-31209523D01*
X-1685119Y-31133333D01*
X-1732738Y-30980952D01*
X-1732738Y-30828571D01*
X-1685119Y-30676190D01*
X-1637500Y-30600000D01*
X-1542261Y-30523809D01*
X-1304166Y-30523809D01*
X-1161309Y-30600000D01*
X172023Y-31209523D02*
X76785Y-31133333D01*
X29166Y-31057142D01*
X-18452Y-30904761D01*
X-18452Y-30828571D01*
X29166Y-30676190D01*
X76785Y-30600000D01*
X172023Y-30523809D01*
X362500Y-30523809D01*
X457738Y-30600000D01*
X505357Y-30676190D01*
X552976Y-30828571D01*
X552976Y-30904761D01*
X505357Y-31057142D01*
X457738Y-31133333D01*
X362500Y-31209523D01*
X172023Y-31209523D01*
X76785Y-31285714D01*
X29166Y-31361904D01*
X-18452Y-31514285D01*
X-18452Y-31819047D01*
X29166Y-31971428D01*
X76785Y-32047619D01*
X172023Y-32123809D01*
X362500Y-32123809D01*
X457738Y-32047619D01*
X505357Y-31971428D01*
X552976Y-31819047D01*
X552976Y-31514285D01*
X505357Y-31361904D01*
X457738Y-31285714D01*
X362500Y-31209523D01*
X981547Y-31514285D02*
X1743452Y-31514285D01*
X2743452Y-32123809D02*
X2172023Y-32123809D01*
X2457738Y-32123809D02*
X2457738Y-30523809D01*
X2362499Y-30752380D01*
X2267261Y-30904761D01*
X2172023Y-30980952D01*
X3648214Y-30523809D02*
X3172023Y-30523809D01*
X3124404Y-31285714D01*
X3172023Y-31209523D01*
X3267261Y-31133333D01*
X3505357Y-31133333D01*
X3600595Y-31209523D01*
X3648214Y-31285714D01*
X3695833Y-31438095D01*
X3695833Y-31819047D01*
X3648214Y-31971428D01*
X3600595Y-32047619D01*
X3505357Y-32123809D01*
X3267261Y-32123809D01*
X3172023Y-32047619D01*
X3124404Y-31971428D01*
X4124404Y-31971428D02*
X4172023Y-32047619D01*
X4124404Y-32123809D01*
X4076785Y-32047619D01*
X4124404Y-31971428D01*
X4124404Y-32123809D01*
X4600595Y-31971428D02*
X4648214Y-32047619D01*
X4600595Y-32123809D01*
X4552976Y-32047619D01*
X4600595Y-31971428D01*
X4600595Y-32123809D01*
X5076785Y-31971428D02*
X5124404Y-32047619D01*
X5076785Y-32123809D01*
X5029166Y-32047619D01*
X5076785Y-31971428D01*
X5076785Y-32123809D01*
X-3923214Y-34773809D02*
X-4399404Y-34773809D01*
X-4399404Y-33173809D01*
X-3589880Y-33935714D02*
X-3256547Y-33935714D01*
X-3113690Y-34773809D02*
X-3589880Y-34773809D01*
X-3589880Y-33173809D01*
X-3113690Y-33173809D01*
X-2685119Y-34773809D02*
X-2685119Y-33173809D01*
X-2447023Y-33173809D01*
X-2304166Y-33250000D01*
X-2208928Y-33402380D01*
X-2161309Y-33554761D01*
X-2113690Y-33859523D01*
X-2113690Y-34088095D01*
X-2161309Y-34392857D01*
X-2208928Y-34545238D01*
X-2304166Y-34697619D01*
X-2447023Y-34773809D01*
X-2685119Y-34773809D01*
X-1732738Y-34697619D02*
X-1589880Y-34773809D01*
X-1351785Y-34773809D01*
X-1256547Y-34697619D01*
X-1208928Y-34621428D01*
X-1161309Y-34469047D01*
X-1161309Y-34316666D01*
X-1208928Y-34164285D01*
X-1256547Y-34088095D01*
X-1351785Y-34011904D01*
X-1542261Y-33935714D01*
X-1637500Y-33859523D01*
X-1685119Y-33783333D01*
X-1732738Y-33630952D01*
X-1732738Y-33478571D01*
X-1685119Y-33326190D01*
X-1637500Y-33250000D01*
X-1542261Y-33173809D01*
X-1304166Y-33173809D01*
X-1161309Y-33250000D01*
X505357Y-33173809D02*
X29166Y-33173809D01*
X-18452Y-33935714D01*
X29166Y-33859523D01*
X124404Y-33783333D01*
X362500Y-33783333D01*
X457738Y-33859523D01*
X505357Y-33935714D01*
X552976Y-34088095D01*
X552976Y-34469047D01*
X505357Y-34621428D01*
X457738Y-34697619D01*
X362500Y-34773809D01*
X124404Y-34773809D01*
X29166Y-34697619D01*
X-18452Y-34621428D01*
X1410119Y-33173809D02*
X1219642Y-33173809D01*
X1124404Y-33250000D01*
X1076785Y-33326190D01*
X981547Y-33554761D01*
X933928Y-33859523D01*
X933928Y-34469047D01*
X981547Y-34621428D01*
X1029166Y-34697619D01*
X1124404Y-34773809D01*
X1314880Y-34773809D01*
X1410119Y-34697619D01*
X1457738Y-34621428D01*
X1505357Y-34469047D01*
X1505357Y-34088095D01*
X1457738Y-33935714D01*
X1410119Y-33859523D01*
X1314880Y-33783333D01*
X1124404Y-33783333D01*
X1029166Y-33859523D01*
X981547Y-33935714D01*
X933928Y-34088095D01*
X1933928Y-34164285D02*
X2695833Y-34164285D01*
X3600595Y-33173809D02*
X3410119Y-33173809D01*
X3314880Y-33250000D01*
X3267261Y-33326190D01*
X3172023Y-33554761D01*
X3124404Y-33859523D01*
X3124404Y-34469047D01*
X3172023Y-34621428D01*
X3219642Y-34697619D01*
X3314880Y-34773809D01*
X3505357Y-34773809D01*
X3600595Y-34697619D01*
X3648214Y-34621428D01*
X3695833Y-34469047D01*
X3695833Y-34088095D01*
X3648214Y-33935714D01*
X3600595Y-33859523D01*
X3505357Y-33783333D01*
X3314880Y-33783333D01*
X3219642Y-33859523D01*
X3172023Y-33935714D01*
X3124404Y-34088095D01*
X4029166Y-33173809D02*
X4648214Y-33173809D01*
X4314880Y-33783333D01*
X4457738Y-33783333D01*
X4552976Y-33859523D01*
X4600595Y-33935714D01*
X4648214Y-34088095D01*
X4648214Y-34469047D01*
X4600595Y-34621428D01*
X4552976Y-34697619D01*
X4457738Y-34773809D01*
X4172023Y-34773809D01*
X4076785Y-34697619D01*
X4029166Y-34621428D01*
D13*
X21825000Y34791666D02*
X20158333Y34791666D01*
X20158333Y38291666D01*
X22991666Y36625000D02*
X24158333Y36625000D01*
X24658333Y34791666D02*
X22991666Y34791666D01*
X22991666Y38291666D01*
X24658333Y38291666D01*
X26158333Y34791666D02*
X26158333Y38291666D01*
X26991666Y38291666D01*
X27491666Y38125000D01*
X27825000Y37791666D01*
X27991666Y37458333D01*
X28158333Y36791666D01*
X28158333Y36291666D01*
X27991666Y35625000D01*
X27825000Y35291666D01*
X27491666Y34958333D01*
X26991666Y34791666D01*
X26158333Y34791666D01*
X20158333Y29041666D02*
X20158333Y32541666D01*
X21325000Y30041666D01*
X22491666Y32541666D01*
X22491666Y29041666D01*
X23991666Y30041666D02*
X25658333Y30041666D01*
X23658333Y29041666D02*
X24825000Y32541666D01*
X25991666Y29041666D01*
X26658333Y32541666D02*
X28658333Y32541666D01*
X27658333Y29041666D02*
X27658333Y32541666D01*
X31825000Y29041666D02*
X30658333Y30708333D01*
X29825000Y29041666D02*
X29825000Y32541666D01*
X31158333Y32541666D01*
X31491666Y32375000D01*
X31658333Y32208333D01*
X31825000Y31875000D01*
X31825000Y31375000D01*
X31658333Y31041666D01*
X31491666Y30875000D01*
X31158333Y30708333D01*
X29825000Y30708333D01*
X33325000Y29041666D02*
X33325000Y32541666D01*
X34658333Y32541666D02*
X36991666Y29041666D01*
X36991666Y32541666D02*
X34658333Y29041666D01*
D10*
X-39208047Y23400238D02*
X-39589000Y23400238D01*
X-39589000Y24980238D01*
X-38979476Y23475476D02*
X-38865190Y23400238D01*
X-38674714Y23400238D01*
X-38598523Y23475476D01*
X-38560428Y23550714D01*
X-38522333Y23701190D01*
X-38522333Y23851666D01*
X-38560428Y24002142D01*
X-38598523Y24077380D01*
X-38674714Y24152619D01*
X-38827095Y24227857D01*
X-38903285Y24303095D01*
X-38941380Y24378333D01*
X-38979476Y24528809D01*
X-38979476Y24679285D01*
X-38941380Y24829761D01*
X-38903285Y24905000D01*
X-38827095Y24980238D01*
X-38636619Y24980238D01*
X-38522333Y24905000D01*
X-38179476Y23400238D02*
X-38179476Y24980238D01*
X-37379476Y24905000D02*
X-37455666Y24980238D01*
X-37569952Y24980238D01*
X-37684238Y24905000D01*
X-37760428Y24754523D01*
X-37798523Y24604047D01*
X-37836619Y24303095D01*
X-37836619Y24077380D01*
X-37798523Y23776428D01*
X-37760428Y23625952D01*
X-37684238Y23475476D01*
X-37569952Y23400238D01*
X-37493761Y23400238D01*
X-37379476Y23475476D01*
X-37341380Y23550714D01*
X-37341380Y24077380D01*
X-37493761Y24077380D01*
X-40160428Y22450238D02*
X-40160428Y21171190D01*
X-40122333Y21020714D01*
X-40084238Y20945476D01*
X-40008047Y20870238D01*
X-39855666Y20870238D01*
X-39779476Y20945476D01*
X-39741380Y21020714D01*
X-39703285Y21171190D01*
X-39703285Y22450238D01*
X-39360428Y20945476D02*
X-39246142Y20870238D01*
X-39055666Y20870238D01*
X-38979476Y20945476D01*
X-38941380Y21020714D01*
X-38903285Y21171190D01*
X-38903285Y21321666D01*
X-38941380Y21472142D01*
X-38979476Y21547380D01*
X-39055666Y21622619D01*
X-39208047Y21697857D01*
X-39284238Y21773095D01*
X-39322333Y21848333D01*
X-39360428Y21998809D01*
X-39360428Y22149285D01*
X-39322333Y22299761D01*
X-39284238Y22375000D01*
X-39208047Y22450238D01*
X-39017571Y22450238D01*
X-38903285Y22375000D01*
X-38103285Y20870238D02*
X-38369952Y21622619D01*
X-38560428Y20870238D02*
X-38560428Y22450238D01*
X-38255666Y22450238D01*
X-38179476Y22375000D01*
X-38141380Y22299761D01*
X-38103285Y22149285D01*
X-38103285Y21923571D01*
X-38141380Y21773095D01*
X-38179476Y21697857D01*
X-38255666Y21622619D01*
X-38560428Y21622619D01*
X-37341380Y20870238D02*
X-37798523Y20870238D01*
X-37569952Y20870238D02*
X-37569952Y22450238D01*
X-37646142Y22224523D01*
X-37722333Y22074047D01*
X-37798523Y21998809D01*
X37890428Y25180238D02*
X37509476Y25180238D01*
X37471380Y24427857D01*
X37509476Y24503095D01*
X37585666Y24578333D01*
X37776142Y24578333D01*
X37852333Y24503095D01*
X37890428Y24427857D01*
X37928523Y24277380D01*
X37928523Y23901190D01*
X37890428Y23750714D01*
X37852333Y23675476D01*
X37776142Y23600238D01*
X37585666Y23600238D01*
X37509476Y23675476D01*
X37471380Y23750714D01*
X38157095Y25180238D02*
X38423761Y23600238D01*
X38690428Y25180238D01*
X39109476Y25180238D02*
X39185666Y25180238D01*
X39261857Y25105000D01*
X39299952Y25029761D01*
X39338047Y24879285D01*
X39376142Y24578333D01*
X39376142Y24202142D01*
X39338047Y23901190D01*
X39299952Y23750714D01*
X39261857Y23675476D01*
X39185666Y23600238D01*
X39109476Y23600238D01*
X39033285Y23675476D01*
X38995190Y23750714D01*
X38957095Y23901190D01*
X38919000Y24202142D01*
X38919000Y24578333D01*
X38957095Y24879285D01*
X38995190Y25029761D01*
X39033285Y25105000D01*
X39109476Y25180238D01*
X37928523Y22575000D02*
X37852333Y22650238D01*
X37738047Y22650238D01*
X37623761Y22575000D01*
X37547571Y22424523D01*
X37509476Y22274047D01*
X37471380Y21973095D01*
X37471380Y21747380D01*
X37509476Y21446428D01*
X37547571Y21295952D01*
X37623761Y21145476D01*
X37738047Y21070238D01*
X37814238Y21070238D01*
X37928523Y21145476D01*
X37966619Y21220714D01*
X37966619Y21747380D01*
X37814238Y21747380D01*
X38309476Y21070238D02*
X38309476Y22650238D01*
X38766619Y21070238D01*
X38766619Y22650238D01*
X39147571Y21070238D02*
X39147571Y22650238D01*
X39338047Y22650238D01*
X39452333Y22575000D01*
X39528523Y22424523D01*
X39566619Y22274047D01*
X39604714Y21973095D01*
X39604714Y21747380D01*
X39566619Y21446428D01*
X39528523Y21295952D01*
X39452333Y21145476D01*
X39338047Y21070238D01*
X39147571Y21070238D01*
D14*
X7095000Y5975000D02*
G75*
G03X7095000Y5975000I-150000J0D01*
G01*
X20595000Y26225000D02*
G75*
G03X20595000Y26225000I-150000J0D01*
G01*
X7095000Y26225000D02*
G75*
G03X7095000Y26225000I-150000J0D01*
G01*
X345000Y26225000D02*
G75*
G03X345000Y26225000I-150000J0D01*
G01*
X-6405000Y-14275000D02*
G75*
G03X-6405000Y-14275000I-150000J0D01*
G01*
X-13155000Y26225000D02*
G75*
G03X-13155000Y26225000I-150000J0D01*
G01*
X-6405000Y26225000D02*
G75*
G03X-6405000Y26225000I-150000J0D01*
G01*
X-19905000Y26225000D02*
G75*
G03X-19905000Y26225000I-150000J0D01*
G01*
X-26655000Y26225000D02*
G75*
G03X-26655000Y26225000I-150000J0D01*
G01*
X-19905000Y19475000D02*
G75*
G03X-19905000Y19475000I-150000J0D01*
G01*
X-13155000Y19475000D02*
G75*
G03X-13155000Y19475000I-150000J0D01*
G01*
X-6405000Y19475000D02*
G75*
G03X-6405000Y19475000I-150000J0D01*
G01*
X-26655000Y19475000D02*
G75*
G03X-26655000Y19475000I-150000J0D01*
G01*
X13845000Y19475000D02*
G75*
G03X13845000Y19475000I-150000J0D01*
G01*
X20595000Y12725000D02*
G75*
G03X20595000Y12725000I-150000J0D01*
G01*
X13845000Y26225000D02*
G75*
G03X13845000Y26225000I-150000J0D01*
G01*
X345000Y19475000D02*
G75*
G03X345000Y19475000I-150000J0D01*
G01*
X7095000Y19475000D02*
G75*
G03X7095000Y19475000I-150000J0D01*
G01*
X20595000Y19475000D02*
G75*
G03X20595000Y19475000I-150000J0D01*
G01*
X-26655000Y12725000D02*
G75*
G03X-26655000Y12725000I-150000J0D01*
G01*
X-19905000Y12725000D02*
G75*
G03X-19905000Y12725000I-150000J0D01*
G01*
X-13155000Y12725000D02*
G75*
G03X-13155000Y12725000I-150000J0D01*
G01*
X-6405000Y12725000D02*
G75*
G03X-6405000Y12725000I-150000J0D01*
G01*
X345000Y12725000D02*
G75*
G03X345000Y12725000I-150000J0D01*
G01*
X7095000Y12725000D02*
G75*
G03X7095000Y12725000I-150000J0D01*
G01*
X13845000Y12725000D02*
G75*
G03X13845000Y12725000I-150000J0D01*
G01*
X-26655000Y5975000D02*
G75*
G03X-26655000Y5975000I-150000J0D01*
G01*
X-19905000Y5975000D02*
G75*
G03X-19905000Y5975000I-150000J0D01*
G01*
X-13155000Y5975000D02*
G75*
G03X-13155000Y5975000I-150000J0D01*
G01*
X-6405000Y5975000D02*
G75*
G03X-6405000Y5975000I-150000J0D01*
G01*
X345000Y5975000D02*
G75*
G03X345000Y5975000I-150000J0D01*
G01*
X13845000Y5975000D02*
G75*
G03X13845000Y5975000I-150000J0D01*
G01*
X20595000Y5975000D02*
G75*
G03X20595000Y5975000I-150000J0D01*
G01*
X-26655000Y-775000D02*
G75*
G03X-26655000Y-775000I-150000J0D01*
G01*
X-19905000Y-775000D02*
G75*
G03X-19905000Y-775000I-150000J0D01*
G01*
X-13155000Y-775000D02*
G75*
G03X-13155000Y-775000I-150000J0D01*
G01*
X-6405000Y-775000D02*
G75*
G03X-6405000Y-775000I-150000J0D01*
G01*
X345000Y-775000D02*
G75*
G03X345000Y-775000I-150000J0D01*
G01*
X7095000Y-775000D02*
G75*
G03X7095000Y-775000I-150000J0D01*
G01*
X13845000Y-775000D02*
G75*
G03X13845000Y-775000I-150000J0D01*
G01*
X20595000Y-775000D02*
G75*
G03X20595000Y-775000I-150000J0D01*
G01*
X-26655000Y-7525000D02*
G75*
G03X-26655000Y-7525000I-150000J0D01*
G01*
X-19905000Y-7525000D02*
G75*
G03X-19905000Y-7525000I-150000J0D01*
G01*
X-13155000Y-7525000D02*
G75*
G03X-13155000Y-7525000I-150000J0D01*
G01*
X-6405000Y-7525000D02*
G75*
G03X-6405000Y-7525000I-150000J0D01*
G01*
X345000Y-7525000D02*
G75*
G03X345000Y-7525000I-150000J0D01*
G01*
X7095000Y-7525000D02*
G75*
G03X7095000Y-7525000I-150000J0D01*
G01*
X13845000Y-7525000D02*
G75*
G03X13845000Y-7525000I-150000J0D01*
G01*
X20595000Y-7525000D02*
G75*
G03X20595000Y-7525000I-150000J0D01*
G01*
X-26655000Y-14275000D02*
G75*
G03X-26655000Y-14275000I-150000J0D01*
G01*
X-19905000Y-14275000D02*
G75*
G03X-19905000Y-14275000I-150000J0D01*
G01*
X-13155000Y-14275000D02*
G75*
G03X-13155000Y-14275000I-150000J0D01*
G01*
X345000Y-14275000D02*
G75*
G03X345000Y-14275000I-150000J0D01*
G01*
X7095000Y-14275000D02*
G75*
G03X7095000Y-14275000I-150000J0D01*
G01*
X13845000Y-14275000D02*
G75*
G03X13845000Y-14275000I-150000J0D01*
G01*
X20595000Y-14275000D02*
G75*
G03X20595000Y-14275000I-150000J0D01*
G01*
X-26655000Y-21025000D02*
G75*
G03X-26655000Y-21025000I-150000J0D01*
G01*
X-19905000Y-21025000D02*
G75*
G03X-19905000Y-21025000I-150000J0D01*
G01*
X-13155000Y-21025000D02*
G75*
G03X-13155000Y-21025000I-150000J0D01*
G01*
X-6405000Y-21025000D02*
G75*
G03X-6405000Y-21025000I-150000J0D01*
G01*
X345000Y-21025000D02*
G75*
G03X345000Y-21025000I-150000J0D01*
G01*
X7095000Y-21025000D02*
G75*
G03X7095000Y-21025000I-150000J0D01*
G01*
X13845000Y-21025000D02*
G75*
G03X13845000Y-21025000I-150000J0D01*
G01*
X20595000Y-21025000D02*
G75*
G03X20595000Y-21025000I-150000J0D01*
G01*
D15*
X-5140000Y-41330000D02*
X-5140000Y-40000000D01*
X-3810000Y-41330000D02*
X-5140000Y-41330000D01*
X-2540000Y-41330000D02*
X-2540000Y-38670000D01*
X-2540000Y-38670000D02*
X5140000Y-38670000D01*
X-2540000Y-41330000D02*
X5140000Y-41330000D01*
X5140000Y-41330000D02*
X5140000Y-38670000D01*
X27375000Y24572779D02*
X27375000Y24247221D01*
X28395000Y24572779D02*
X28395000Y24247221D01*
D16*
G36*
X-7840121Y35731908D02*
G01*
X-7596150Y35708555D01*
X-7391062Y35668792D01*
X-7219833Y35611236D01*
X-7077437Y35534506D01*
X-6958851Y35437220D01*
X-6934658Y35412055D01*
X-6846812Y35301251D01*
X-6777021Y35175803D01*
X-6723296Y35028710D01*
X-6683649Y34852970D01*
X-6656091Y34641582D01*
X-6638632Y34387544D01*
X-6637682Y34366750D01*
X-6621636Y34004800D01*
X-7260034Y34004800D01*
X-7898433Y34004801D01*
X-7912021Y34074650D01*
X-7944362Y34227260D01*
X-7976562Y34339161D01*
X-8014230Y34420120D01*
X-8062978Y34479902D01*
X-8128416Y34528273D01*
X-8192821Y34563442D01*
X-8255458Y34592164D01*
X-8315526Y34610706D01*
X-8386807Y34621223D01*
X-8483083Y34625872D01*
X-8597900Y34626822D01*
X-8827097Y34613911D01*
X-9016378Y34573766D01*
X-9169921Y34504377D01*
X-9291907Y34403729D01*
X-9386518Y34269812D01*
X-9402118Y34239683D01*
X-9416511Y34209568D01*
X-9428404Y34179805D01*
X-9438073Y34145407D01*
X-9445795Y34101384D01*
X-9451848Y34042748D01*
X-9456507Y33964511D01*
X-9460051Y33861685D01*
X-9462757Y33729280D01*
X-9464901Y33562308D01*
X-9466760Y33355782D01*
X-9468612Y33104712D01*
X-9469114Y33033250D01*
X-9476727Y31947400D01*
X-10845800Y31947400D01*
X-10845800Y35655800D01*
X-9525000Y35655800D01*
X-9525000Y35038325D01*
X-9424838Y35193296D01*
X-9312919Y35349287D01*
X-9195425Y35474588D01*
X-9065713Y35571998D01*
X-8917145Y35644318D01*
X-8743080Y35694349D01*
X-8536877Y35724892D01*
X-8291897Y35738746D01*
X-8128000Y35740232D01*
X-7840121Y35731908D01*
X-7840121Y35731908D01*
G37*
X-7840121Y35731908D02*
X-7596150Y35708555D01*
X-7391062Y35668792D01*
X-7219833Y35611236D01*
X-7077437Y35534506D01*
X-6958851Y35437220D01*
X-6934658Y35412055D01*
X-6846812Y35301251D01*
X-6777021Y35175803D01*
X-6723296Y35028710D01*
X-6683649Y34852970D01*
X-6656091Y34641582D01*
X-6638632Y34387544D01*
X-6637682Y34366750D01*
X-6621636Y34004800D01*
X-7260034Y34004800D01*
X-7898433Y34004801D01*
X-7912021Y34074650D01*
X-7944362Y34227260D01*
X-7976562Y34339161D01*
X-8014230Y34420120D01*
X-8062978Y34479902D01*
X-8128416Y34528273D01*
X-8192821Y34563442D01*
X-8255458Y34592164D01*
X-8315526Y34610706D01*
X-8386807Y34621223D01*
X-8483083Y34625872D01*
X-8597900Y34626822D01*
X-8827097Y34613911D01*
X-9016378Y34573766D01*
X-9169921Y34504377D01*
X-9291907Y34403729D01*
X-9386518Y34269812D01*
X-9402118Y34239683D01*
X-9416511Y34209568D01*
X-9428404Y34179805D01*
X-9438073Y34145407D01*
X-9445795Y34101384D01*
X-9451848Y34042748D01*
X-9456507Y33964511D01*
X-9460051Y33861685D01*
X-9462757Y33729280D01*
X-9464901Y33562308D01*
X-9466760Y33355782D01*
X-9468612Y33104712D01*
X-9469114Y33033250D01*
X-9476727Y31947400D01*
X-10845800Y31947400D01*
X-10845800Y35655800D01*
X-9525000Y35655800D01*
X-9525000Y35038325D01*
X-9424838Y35193296D01*
X-9312919Y35349287D01*
X-9195425Y35474588D01*
X-9065713Y35571998D01*
X-8917145Y35644318D01*
X-8743080Y35694349D01*
X-8536877Y35724892D01*
X-8291897Y35738746D01*
X-8128000Y35740232D01*
X-7840121Y35731908D01*
G36*
X-3200765Y35646539D02*
G01*
X-2897187Y35632057D01*
X-2633095Y35607969D01*
X-2404914Y35573642D01*
X-2209067Y35528437D01*
X-2041979Y35471721D01*
X-1900075Y35402858D01*
X-1779777Y35321211D01*
X-1701543Y35251164D01*
X-1623221Y35162941D01*
X-1557192Y35065117D01*
X-1502141Y34952360D01*
X-1456754Y34819337D01*
X-1419717Y34660718D01*
X-1389716Y34471171D01*
X-1365436Y34245364D01*
X-1345564Y33977965D01*
X-1333270Y33757150D01*
X-1317740Y33446000D01*
X-4853150Y33446000D01*
X-4837879Y33312650D01*
X-4805841Y33138987D01*
X-4750453Y33005502D01*
X-4665433Y32905218D01*
X-4544498Y32831156D01*
X-4381367Y32776339D01*
X-4347702Y32768133D01*
X-4268842Y32752164D01*
X-4182228Y32740216D01*
X-4079297Y32731777D01*
X-3951486Y32726337D01*
X-3790231Y32723385D01*
X-3586971Y32722409D01*
X-3581400Y32722406D01*
X-3395105Y32722579D01*
X-3252240Y32723720D01*
X-3145437Y32726421D01*
X-3067327Y32731275D01*
X-3010542Y32738874D01*
X-2967714Y32749810D01*
X-2931473Y32764678D01*
X-2908300Y32776548D01*
X-2806630Y32841705D01*
X-2740787Y32914724D01*
X-2696496Y33011834D01*
X-2693642Y33020550D01*
X-2663061Y33115800D01*
X-1320800Y33115800D01*
X-1321304Y33058650D01*
X-1331194Y32930541D01*
X-1355815Y32783580D01*
X-1390531Y32639857D01*
X-1430709Y32521465D01*
X-1437042Y32506989D01*
X-1514113Y32369540D01*
X-1613601Y32249641D01*
X-1738357Y32146473D01*
X-1891236Y32059219D01*
X-2075087Y31987063D01*
X-2292764Y31929186D01*
X-2547119Y31884772D01*
X-2841004Y31853003D01*
X-3177270Y31833062D01*
X-3558771Y31824132D01*
X-3821428Y31823779D01*
X-4003337Y31825710D01*
X-4181357Y31829202D01*
X-4344725Y31833923D01*
X-4482679Y31839543D01*
X-4584458Y31845731D01*
X-4610100Y31848027D01*
X-4937638Y31894002D01*
X-5222934Y31960104D01*
X-5464147Y32045835D01*
X-5603906Y32116168D01*
X-5713206Y32195726D01*
X-5828319Y32305660D01*
X-5934414Y32429930D01*
X-6016663Y32552494D01*
X-6029583Y32576644D01*
X-6069870Y32667439D01*
X-6113471Y32783167D01*
X-6151256Y32899506D01*
X-6152783Y32904744D01*
X-6170782Y32970363D01*
X-6184587Y33032513D01*
X-6194745Y33099141D01*
X-6201799Y33178197D01*
X-6206296Y33277630D01*
X-6208779Y33405391D01*
X-6209794Y33569427D01*
X-6209912Y33738100D01*
X-6209086Y33953584D01*
X-6206585Y34125877D01*
X-6202985Y34233400D01*
X-4871451Y34233400D01*
X-2661347Y34233400D01*
X-2679051Y34327773D01*
X-2727633Y34477576D01*
X-2811190Y34590950D01*
X-2931361Y34669797D01*
X-2993790Y34693276D01*
X-3057959Y34705135D01*
X-3163339Y34715369D01*
X-3300364Y34723804D01*
X-3459464Y34730267D01*
X-3631072Y34734587D01*
X-3805621Y34736588D01*
X-3973542Y34736100D01*
X-4125269Y34732948D01*
X-4251232Y34726959D01*
X-4341865Y34717961D01*
X-4343676Y34717684D01*
X-4524460Y34675888D01*
X-4662600Y34611403D01*
X-4762446Y34520836D01*
X-4828347Y34400793D01*
X-4851612Y34321361D01*
X-4871451Y34233400D01*
X-6202985Y34233400D01*
X-6202008Y34262572D01*
X-6194952Y34371262D01*
X-6185015Y34459539D01*
X-6171795Y34534998D01*
X-6166446Y34559238D01*
X-6091811Y34808096D01*
X-5991015Y35015764D01*
X-5860355Y35186621D01*
X-5696128Y35325043D01*
X-5494629Y35435408D01*
X-5389436Y35477584D01*
X-5266476Y35519401D01*
X-5145131Y35553648D01*
X-5018307Y35581166D01*
X-4878910Y35602794D01*
X-4719846Y35619374D01*
X-4534019Y35631747D01*
X-4314337Y35640751D01*
X-4053704Y35647229D01*
X-3940682Y35649232D01*
X-3547405Y35652052D01*
X-3200765Y35646539D01*
X-3200765Y35646539D01*
G37*
X-3200765Y35646539D02*
X-2897187Y35632057D01*
X-2633095Y35607969D01*
X-2404914Y35573642D01*
X-2209067Y35528437D01*
X-2041979Y35471721D01*
X-1900075Y35402858D01*
X-1779777Y35321211D01*
X-1701543Y35251164D01*
X-1623221Y35162941D01*
X-1557192Y35065117D01*
X-1502141Y34952360D01*
X-1456754Y34819337D01*
X-1419717Y34660718D01*
X-1389716Y34471171D01*
X-1365436Y34245364D01*
X-1345564Y33977965D01*
X-1333270Y33757150D01*
X-1317740Y33446000D01*
X-4853150Y33446000D01*
X-4837879Y33312650D01*
X-4805841Y33138987D01*
X-4750453Y33005502D01*
X-4665433Y32905218D01*
X-4544498Y32831156D01*
X-4381367Y32776339D01*
X-4347702Y32768133D01*
X-4268842Y32752164D01*
X-4182228Y32740216D01*
X-4079297Y32731777D01*
X-3951486Y32726337D01*
X-3790231Y32723385D01*
X-3586971Y32722409D01*
X-3581400Y32722406D01*
X-3395105Y32722579D01*
X-3252240Y32723720D01*
X-3145437Y32726421D01*
X-3067327Y32731275D01*
X-3010542Y32738874D01*
X-2967714Y32749810D01*
X-2931473Y32764678D01*
X-2908300Y32776548D01*
X-2806630Y32841705D01*
X-2740787Y32914724D01*
X-2696496Y33011834D01*
X-2693642Y33020550D01*
X-2663061Y33115800D01*
X-1320800Y33115800D01*
X-1321304Y33058650D01*
X-1331194Y32930541D01*
X-1355815Y32783580D01*
X-1390531Y32639857D01*
X-1430709Y32521465D01*
X-1437042Y32506989D01*
X-1514113Y32369540D01*
X-1613601Y32249641D01*
X-1738357Y32146473D01*
X-1891236Y32059219D01*
X-2075087Y31987063D01*
X-2292764Y31929186D01*
X-2547119Y31884772D01*
X-2841004Y31853003D01*
X-3177270Y31833062D01*
X-3558771Y31824132D01*
X-3821428Y31823779D01*
X-4003337Y31825710D01*
X-4181357Y31829202D01*
X-4344725Y31833923D01*
X-4482679Y31839543D01*
X-4584458Y31845731D01*
X-4610100Y31848027D01*
X-4937638Y31894002D01*
X-5222934Y31960104D01*
X-5464147Y32045835D01*
X-5603906Y32116168D01*
X-5713206Y32195726D01*
X-5828319Y32305660D01*
X-5934414Y32429930D01*
X-6016663Y32552494D01*
X-6029583Y32576644D01*
X-6069870Y32667439D01*
X-6113471Y32783167D01*
X-6151256Y32899506D01*
X-6152783Y32904744D01*
X-6170782Y32970363D01*
X-6184587Y33032513D01*
X-6194745Y33099141D01*
X-6201799Y33178197D01*
X-6206296Y33277630D01*
X-6208779Y33405391D01*
X-6209794Y33569427D01*
X-6209912Y33738100D01*
X-6209086Y33953584D01*
X-6206585Y34125877D01*
X-6202985Y34233400D01*
X-4871451Y34233400D01*
X-2661347Y34233400D01*
X-2679051Y34327773D01*
X-2727633Y34477576D01*
X-2811190Y34590950D01*
X-2931361Y34669797D01*
X-2993790Y34693276D01*
X-3057959Y34705135D01*
X-3163339Y34715369D01*
X-3300364Y34723804D01*
X-3459464Y34730267D01*
X-3631072Y34734587D01*
X-3805621Y34736588D01*
X-3973542Y34736100D01*
X-4125269Y34732948D01*
X-4251232Y34726959D01*
X-4341865Y34717961D01*
X-4343676Y34717684D01*
X-4524460Y34675888D01*
X-4662600Y34611403D01*
X-4762446Y34520836D01*
X-4828347Y34400793D01*
X-4851612Y34321361D01*
X-4871451Y34233400D01*
X-6202985Y34233400D01*
X-6202008Y34262572D01*
X-6194952Y34371262D01*
X-6185015Y34459539D01*
X-6171795Y34534998D01*
X-6166446Y34559238D01*
X-6091811Y34808096D01*
X-5991015Y35015764D01*
X-5860355Y35186621D01*
X-5696128Y35325043D01*
X-5494629Y35435408D01*
X-5389436Y35477584D01*
X-5266476Y35519401D01*
X-5145131Y35553648D01*
X-5018307Y35581166D01*
X-4878910Y35602794D01*
X-4719846Y35619374D01*
X-4534019Y35631747D01*
X-4314337Y35640751D01*
X-4053704Y35647229D01*
X-3940682Y35649232D01*
X-3547405Y35652052D01*
X-3200765Y35646539D01*
G36*
X-14077891Y35674940D02*
G01*
X-13848917Y35672020D01*
X-13627990Y35667652D01*
X-13422876Y35661922D01*
X-13241338Y35654917D01*
X-13091143Y35646721D01*
X-12980054Y35637422D01*
X-12941300Y35632338D01*
X-12656175Y35576678D01*
X-12416110Y35506694D01*
X-12216547Y35418952D01*
X-12052928Y35310016D01*
X-11920695Y35176452D01*
X-11815289Y35014826D01*
X-11732152Y34821702D01*
X-11691425Y34690600D01*
X-11675098Y34601744D01*
X-11661954Y34471062D01*
X-11651997Y34307429D01*
X-11645230Y34119720D01*
X-11641654Y33916808D01*
X-11641272Y33707570D01*
X-11644088Y33500878D01*
X-11650102Y33305609D01*
X-11659318Y33130636D01*
X-11671738Y32984834D01*
X-11687364Y32877078D01*
X-11690915Y32860701D01*
X-11763485Y32622521D01*
X-11861974Y32424498D01*
X-11990543Y32262515D01*
X-12153356Y32132458D01*
X-12354574Y32030211D01*
X-12598358Y31951660D01*
X-12614332Y31947635D01*
X-12746614Y31918054D01*
X-12895167Y31889737D01*
X-13017500Y31870328D01*
X-13088590Y31863957D01*
X-13202511Y31857714D01*
X-13351297Y31851739D01*
X-13526980Y31846172D01*
X-13721592Y31841155D01*
X-13927165Y31836827D01*
X-14135733Y31833329D01*
X-14339327Y31830801D01*
X-14529979Y31829384D01*
X-14699721Y31829217D01*
X-14840587Y31830442D01*
X-14944609Y31833199D01*
X-14986000Y31835645D01*
X-15063538Y31842962D01*
X-15172511Y31854250D01*
X-15293909Y31867516D01*
X-15341600Y31872920D01*
X-15649989Y31920956D01*
X-15914206Y31990406D01*
X-16137010Y32083234D01*
X-16321160Y32201404D01*
X-16469413Y32346882D01*
X-16584529Y32521631D01*
X-16669265Y32727617D01*
X-16700602Y32840847D01*
X-16728653Y32995716D01*
X-16749728Y33189700D01*
X-16763826Y33411653D01*
X-16770944Y33650432D01*
X-16771014Y33775836D01*
X-15417072Y33775836D01*
X-15410605Y33595213D01*
X-15390166Y33425428D01*
X-15355559Y33278470D01*
X-15326335Y33202883D01*
X-15249518Y33099560D01*
X-15128470Y33017620D01*
X-14965772Y32958717D01*
X-14932739Y32950795D01*
X-14838116Y32936536D01*
X-14705980Y32926224D01*
X-14545674Y32919709D01*
X-14366542Y32916839D01*
X-14177927Y32917465D01*
X-13989173Y32921435D01*
X-13809624Y32928600D01*
X-13648624Y32938808D01*
X-13515515Y32951908D01*
X-13419643Y32967751D01*
X-13391402Y32975643D01*
X-13252689Y33048187D01*
X-13140522Y33155217D01*
X-13065095Y33286257D01*
X-13052490Y33323911D01*
X-13037698Y33405789D01*
X-13027499Y33523016D01*
X-13021870Y33662535D01*
X-13020792Y33811292D01*
X-13024241Y33956232D01*
X-13032197Y34084299D01*
X-13044639Y34182439D01*
X-13053967Y34220700D01*
X-13117484Y34359903D01*
X-13203587Y34458637D01*
X-13299371Y34516510D01*
X-13396781Y34546676D01*
X-13535865Y34571772D01*
X-13707714Y34591367D01*
X-13903414Y34605032D01*
X-14114053Y34612336D01*
X-14330720Y34612849D01*
X-14544502Y34606140D01*
X-14746487Y34591778D01*
X-14782800Y34588149D01*
X-14979025Y34556763D01*
X-15130969Y34507697D01*
X-15242561Y34439295D01*
X-15307180Y34366903D01*
X-15354623Y34262830D01*
X-15388884Y34121635D01*
X-15409767Y33955307D01*
X-15417072Y33775836D01*
X-16771014Y33775836D01*
X-16771081Y33894891D01*
X-16764233Y34133888D01*
X-16750399Y34356276D01*
X-16729575Y34550912D01*
X-16701761Y34706651D01*
X-16700986Y34709911D01*
X-16637839Y34912195D01*
X-16550363Y35085821D01*
X-16435225Y35232872D01*
X-16289093Y35355431D01*
X-16108637Y35455581D01*
X-15890526Y35535405D01*
X-15631427Y35596986D01*
X-15328009Y35642407D01*
X-15185892Y35657228D01*
X-15071698Y35664805D01*
X-14918961Y35670417D01*
X-14735448Y35674150D01*
X-14528921Y35676091D01*
X-14307148Y35676326D01*
X-14077891Y35674940D01*
X-14077891Y35674940D01*
G37*
X-14077891Y35674940D02*
X-13848917Y35672020D01*
X-13627990Y35667652D01*
X-13422876Y35661922D01*
X-13241338Y35654917D01*
X-13091143Y35646721D01*
X-12980054Y35637422D01*
X-12941300Y35632338D01*
X-12656175Y35576678D01*
X-12416110Y35506694D01*
X-12216547Y35418952D01*
X-12052928Y35310016D01*
X-11920695Y35176452D01*
X-11815289Y35014826D01*
X-11732152Y34821702D01*
X-11691425Y34690600D01*
X-11675098Y34601744D01*
X-11661954Y34471062D01*
X-11651997Y34307429D01*
X-11645230Y34119720D01*
X-11641654Y33916808D01*
X-11641272Y33707570D01*
X-11644088Y33500878D01*
X-11650102Y33305609D01*
X-11659318Y33130636D01*
X-11671738Y32984834D01*
X-11687364Y32877078D01*
X-11690915Y32860701D01*
X-11763485Y32622521D01*
X-11861974Y32424498D01*
X-11990543Y32262515D01*
X-12153356Y32132458D01*
X-12354574Y32030211D01*
X-12598358Y31951660D01*
X-12614332Y31947635D01*
X-12746614Y31918054D01*
X-12895167Y31889737D01*
X-13017500Y31870328D01*
X-13088590Y31863957D01*
X-13202511Y31857714D01*
X-13351297Y31851739D01*
X-13526980Y31846172D01*
X-13721592Y31841155D01*
X-13927165Y31836827D01*
X-14135733Y31833329D01*
X-14339327Y31830801D01*
X-14529979Y31829384D01*
X-14699721Y31829217D01*
X-14840587Y31830442D01*
X-14944609Y31833199D01*
X-14986000Y31835645D01*
X-15063538Y31842962D01*
X-15172511Y31854250D01*
X-15293909Y31867516D01*
X-15341600Y31872920D01*
X-15649989Y31920956D01*
X-15914206Y31990406D01*
X-16137010Y32083234D01*
X-16321160Y32201404D01*
X-16469413Y32346882D01*
X-16584529Y32521631D01*
X-16669265Y32727617D01*
X-16700602Y32840847D01*
X-16728653Y32995716D01*
X-16749728Y33189700D01*
X-16763826Y33411653D01*
X-16770944Y33650432D01*
X-16771014Y33775836D01*
X-15417072Y33775836D01*
X-15410605Y33595213D01*
X-15390166Y33425428D01*
X-15355559Y33278470D01*
X-15326335Y33202883D01*
X-15249518Y33099560D01*
X-15128470Y33017620D01*
X-14965772Y32958717D01*
X-14932739Y32950795D01*
X-14838116Y32936536D01*
X-14705980Y32926224D01*
X-14545674Y32919709D01*
X-14366542Y32916839D01*
X-14177927Y32917465D01*
X-13989173Y32921435D01*
X-13809624Y32928600D01*
X-13648624Y32938808D01*
X-13515515Y32951908D01*
X-13419643Y32967751D01*
X-13391402Y32975643D01*
X-13252689Y33048187D01*
X-13140522Y33155217D01*
X-13065095Y33286257D01*
X-13052490Y33323911D01*
X-13037698Y33405789D01*
X-13027499Y33523016D01*
X-13021870Y33662535D01*
X-13020792Y33811292D01*
X-13024241Y33956232D01*
X-13032197Y34084299D01*
X-13044639Y34182439D01*
X-13053967Y34220700D01*
X-13117484Y34359903D01*
X-13203587Y34458637D01*
X-13299371Y34516510D01*
X-13396781Y34546676D01*
X-13535865Y34571772D01*
X-13707714Y34591367D01*
X-13903414Y34605032D01*
X-14114053Y34612336D01*
X-14330720Y34612849D01*
X-14544502Y34606140D01*
X-14746487Y34591778D01*
X-14782800Y34588149D01*
X-14979025Y34556763D01*
X-15130969Y34507697D01*
X-15242561Y34439295D01*
X-15307180Y34366903D01*
X-15354623Y34262830D01*
X-15388884Y34121635D01*
X-15409767Y33955307D01*
X-15417072Y33775836D01*
X-16771014Y33775836D01*
X-16771081Y33894891D01*
X-16764233Y34133888D01*
X-16750399Y34356276D01*
X-16729575Y34550912D01*
X-16701761Y34706651D01*
X-16700986Y34709911D01*
X-16637839Y34912195D01*
X-16550363Y35085821D01*
X-16435225Y35232872D01*
X-16289093Y35355431D01*
X-16108637Y35455581D01*
X-15890526Y35535405D01*
X-15631427Y35596986D01*
X-15328009Y35642407D01*
X-15185892Y35657228D01*
X-15071698Y35664805D01*
X-14918961Y35670417D01*
X-14735448Y35674150D01*
X-14528921Y35676091D01*
X-14307148Y35676326D01*
X-14077891Y35674940D01*
G36*
X17475200Y32988800D02*
G01*
X18745200Y32988800D01*
X18745200Y31236200D01*
X17475200Y31236200D01*
X17475200Y29763000D01*
X14478000Y29763000D01*
X14478000Y31236200D01*
X9111116Y31236200D01*
X9124489Y32308423D01*
X9132975Y32988800D01*
X11985340Y32988800D01*
X14478000Y32988800D01*
X14478000Y35515898D01*
X13282564Y34322199D01*
X13077012Y34116665D01*
X12881121Y33920246D01*
X12698018Y33736113D01*
X12530832Y33567440D01*
X12382693Y33417397D01*
X12256728Y33289157D01*
X12156067Y33185892D01*
X12083839Y33110773D01*
X12043172Y33066973D01*
X12036234Y33058650D01*
X11985340Y32988800D01*
X9132975Y32988800D01*
X9137863Y33380646D01*
X13382615Y37611600D01*
X17475200Y37611600D01*
X17475200Y32988800D01*
X17475200Y32988800D01*
G37*
X17475200Y32988800D02*
X18745200Y32988800D01*
X18745200Y31236200D01*
X17475200Y31236200D01*
X17475200Y29763000D01*
X14478000Y29763000D01*
X14478000Y31236200D01*
X9111116Y31236200D01*
X9124489Y32308423D01*
X9132975Y32988800D01*
X11985340Y32988800D01*
X14478000Y32988800D01*
X14478000Y35515898D01*
X13282564Y34322199D01*
X13077012Y34116665D01*
X12881121Y33920246D01*
X12698018Y33736113D01*
X12530832Y33567440D01*
X12382693Y33417397D01*
X12256728Y33289157D01*
X12156067Y33185892D01*
X12083839Y33110773D01*
X12043172Y33066973D01*
X12036234Y33058650D01*
X11985340Y32988800D01*
X9132975Y32988800D01*
X9137863Y33380646D01*
X13382615Y37611600D01*
X17475200Y37611600D01*
X17475200Y32988800D01*
G36*
X3579230Y37685556D02*
G01*
X3854187Y37683527D01*
X4128151Y37680367D01*
X4395071Y37676137D01*
X4648897Y37670895D01*
X4883579Y37664702D01*
X5093068Y37657620D01*
X5271311Y37649706D01*
X5412261Y37641022D01*
X5509866Y37631628D01*
X5525651Y37629357D01*
X5930452Y37554143D01*
X6288803Y37463700D01*
X6603063Y37356883D01*
X6875589Y37232550D01*
X7108739Y37089558D01*
X7304872Y36926763D01*
X7466345Y36743022D01*
X7523360Y36660933D01*
X7592161Y36545424D01*
X7644615Y36432639D01*
X7683096Y36312499D01*
X7709978Y36174923D01*
X7727635Y36009834D01*
X7738442Y35807153D01*
X7740679Y35738350D01*
X7753398Y35300200D01*
X4756327Y35300200D01*
X4744687Y35501259D01*
X4729523Y35642577D01*
X4699627Y35744144D01*
X4649812Y35816104D01*
X4574895Y35868600D01*
X4550974Y35880172D01*
X4520493Y35891621D01*
X4481160Y35900840D01*
X4427571Y35908061D01*
X4354323Y35913518D01*
X4256011Y35917444D01*
X4127231Y35920071D01*
X3962578Y35921632D01*
X3756649Y35922361D01*
X3568700Y35922500D01*
X3305568Y35922198D01*
X3088296Y35920706D01*
X2911944Y35917144D01*
X2771573Y35910633D01*
X2662245Y35900294D01*
X2579018Y35885248D01*
X2516955Y35864615D01*
X2471116Y35837517D01*
X2436561Y35803074D01*
X2408351Y35760408D01*
X2382920Y35711435D01*
X2364702Y35671934D01*
X2350561Y35632021D01*
X2339859Y35584627D01*
X2331961Y35522686D01*
X2326229Y35439130D01*
X2322029Y35326891D01*
X2318723Y35178904D01*
X2315676Y34988099D01*
X2315268Y34959928D01*
X2312802Y34760903D01*
X2311983Y34607472D01*
X2313024Y34494446D01*
X2316138Y34416639D01*
X2321536Y34368864D01*
X2329432Y34345935D01*
X2340037Y34342663D01*
X2340530Y34342872D01*
X2497123Y34411425D01*
X2637075Y34468846D01*
X2766949Y34516181D01*
X2893307Y34554478D01*
X3022712Y34584786D01*
X3161725Y34608151D01*
X3316908Y34625621D01*
X3494825Y34638244D01*
X3702037Y34647067D01*
X3945107Y34653138D01*
X4230597Y34657504D01*
X4318000Y34658552D01*
X4687810Y34661275D01*
X5012507Y34659984D01*
X5297658Y34654133D01*
X5548830Y34643173D01*
X5771590Y34626556D01*
X5971507Y34603736D01*
X6154148Y34574165D01*
X6325080Y34537294D01*
X6489872Y34492577D01*
X6654091Y34439466D01*
X6696193Y34424639D01*
X6996990Y34296109D01*
X7255705Y34139810D01*
X7473855Y33954051D01*
X7652953Y33737138D01*
X7794515Y33487380D01*
X7900056Y33203083D01*
X7943211Y33031793D01*
X7957576Y32956051D01*
X7968581Y32874033D01*
X7976604Y32778066D01*
X7982024Y32660477D01*
X7985216Y32513594D01*
X7986559Y32329745D01*
X7986555Y32150600D01*
X7985796Y31943231D01*
X7984165Y31779009D01*
X7981164Y31650285D01*
X7976293Y31549407D01*
X7969052Y31468724D01*
X7958942Y31400587D01*
X7945464Y31337344D01*
X7929480Y31276255D01*
X7832070Y31006330D01*
X7696080Y30764998D01*
X7519389Y30549760D01*
X7299877Y30358116D01*
X7035425Y30187565D01*
X6981158Y30157994D01*
X6715816Y30034350D01*
X6420426Y29930056D01*
X6091453Y29844356D01*
X5725364Y29776496D01*
X5318624Y29725718D01*
X4867700Y29691269D01*
X4775200Y29686432D01*
X4547964Y29677742D01*
X4281998Y29671523D01*
X3989311Y29667765D01*
X3681913Y29666460D01*
X3371812Y29667598D01*
X3071018Y29671170D01*
X2791541Y29677168D01*
X2545390Y29685583D01*
X2489200Y29688124D01*
X2010427Y29724246D01*
X1575836Y29784664D01*
X1184911Y29869531D01*
X837138Y29978997D01*
X532004Y30113213D01*
X268993Y30272332D01*
X127567Y30382943D01*
X-65172Y30580712D01*
X-236165Y30820219D01*
X-382564Y31096045D01*
X-501522Y31402773D01*
X-590191Y31734987D01*
X-594750Y31756900D01*
X-614724Y31859684D01*
X-631683Y31960623D01*
X-645820Y32064596D01*
X-657330Y32176477D01*
X-658219Y32188700D01*
X2324100Y32188700D01*
X2325047Y32024090D01*
X2330612Y31885873D01*
X2344881Y31771723D01*
X2371938Y31679310D01*
X2415868Y31606304D01*
X2480758Y31550378D01*
X2570692Y31509203D01*
X2689755Y31480448D01*
X2842033Y31461787D01*
X3031611Y31450889D01*
X3262574Y31445426D01*
X3539007Y31443070D01*
X3632866Y31442614D01*
X3829501Y31442739D01*
X4021208Y31444755D01*
X4198599Y31448422D01*
X4352290Y31453496D01*
X4472894Y31459738D01*
X4544602Y31466055D01*
X4687494Y31487647D01*
X4796171Y31516385D01*
X4875496Y31559008D01*
X4930330Y31622252D01*
X4965535Y31712858D01*
X4985973Y31837562D01*
X4996505Y32003102D01*
X4999402Y32096384D01*
X5002765Y32286247D01*
X5001166Y32433103D01*
X4993404Y32544605D01*
X4978280Y32628407D01*
X4954591Y32692162D01*
X4921138Y32743525D01*
X4893036Y32774444D01*
X4849989Y32811231D01*
X4797955Y32841582D01*
X4732002Y32866075D01*
X4647195Y32885290D01*
X4538600Y32899806D01*
X4401284Y32910204D01*
X4230312Y32917062D01*
X4020752Y32920961D01*
X3767668Y32922479D01*
X3632200Y32922535D01*
X3341201Y32921879D01*
X3096916Y32918933D01*
X2895256Y32911406D01*
X2732136Y32897005D01*
X2603468Y32873436D01*
X2505166Y32838407D01*
X2433142Y32789625D01*
X2383309Y32724797D01*
X2351581Y32641631D01*
X2333870Y32537835D01*
X2326090Y32411114D01*
X2324153Y32259177D01*
X2324100Y32188700D01*
X-658219Y32188700D01*
X-666406Y32301144D01*
X-673244Y32443472D01*
X-678038Y32608338D01*
X-680981Y32800619D01*
X-682268Y33025190D01*
X-682093Y33286929D01*
X-680650Y33590711D01*
X-678731Y33865100D01*
X-676278Y34172657D01*
X-673894Y34434089D01*
X-671399Y34654071D01*
X-668611Y34837280D01*
X-665348Y34988390D01*
X-661430Y35112075D01*
X-656675Y35213012D01*
X-650901Y35295874D01*
X-643928Y35365338D01*
X-635573Y35426078D01*
X-625656Y35482770D01*
X-613994Y35540088D01*
X-613694Y35541500D01*
X-523402Y35895246D01*
X-410028Y36211221D01*
X-271234Y36491231D01*
X-104681Y36737080D01*
X91970Y36950574D01*
X321056Y37133517D01*
X584917Y37287714D01*
X885890Y37414971D01*
X1226314Y37517091D01*
X1608528Y37595881D01*
X2034869Y37653145D01*
X2134912Y37663042D01*
X2247422Y37670613D01*
X2401290Y37676632D01*
X2590464Y37681160D01*
X2808896Y37684256D01*
X3050534Y37685981D01*
X3309328Y37686394D01*
X3579230Y37685556D01*
X3579230Y37685556D01*
G37*
X3579230Y37685556D02*
X3854187Y37683527D01*
X4128151Y37680367D01*
X4395071Y37676137D01*
X4648897Y37670895D01*
X4883579Y37664702D01*
X5093068Y37657620D01*
X5271311Y37649706D01*
X5412261Y37641022D01*
X5509866Y37631628D01*
X5525651Y37629357D01*
X5930452Y37554143D01*
X6288803Y37463700D01*
X6603063Y37356883D01*
X6875589Y37232550D01*
X7108739Y37089558D01*
X7304872Y36926763D01*
X7466345Y36743022D01*
X7523360Y36660933D01*
X7592161Y36545424D01*
X7644615Y36432639D01*
X7683096Y36312499D01*
X7709978Y36174923D01*
X7727635Y36009834D01*
X7738442Y35807153D01*
X7740679Y35738350D01*
X7753398Y35300200D01*
X4756327Y35300200D01*
X4744687Y35501259D01*
X4729523Y35642577D01*
X4699627Y35744144D01*
X4649812Y35816104D01*
X4574895Y35868600D01*
X4550974Y35880172D01*
X4520493Y35891621D01*
X4481160Y35900840D01*
X4427571Y35908061D01*
X4354323Y35913518D01*
X4256011Y35917444D01*
X4127231Y35920071D01*
X3962578Y35921632D01*
X3756649Y35922361D01*
X3568700Y35922500D01*
X3305568Y35922198D01*
X3088296Y35920706D01*
X2911944Y35917144D01*
X2771573Y35910633D01*
X2662245Y35900294D01*
X2579018Y35885248D01*
X2516955Y35864615D01*
X2471116Y35837517D01*
X2436561Y35803074D01*
X2408351Y35760408D01*
X2382920Y35711435D01*
X2364702Y35671934D01*
X2350561Y35632021D01*
X2339859Y35584627D01*
X2331961Y35522686D01*
X2326229Y35439130D01*
X2322029Y35326891D01*
X2318723Y35178904D01*
X2315676Y34988099D01*
X2315268Y34959928D01*
X2312802Y34760903D01*
X2311983Y34607472D01*
X2313024Y34494446D01*
X2316138Y34416639D01*
X2321536Y34368864D01*
X2329432Y34345935D01*
X2340037Y34342663D01*
X2340530Y34342872D01*
X2497123Y34411425D01*
X2637075Y34468846D01*
X2766949Y34516181D01*
X2893307Y34554478D01*
X3022712Y34584786D01*
X3161725Y34608151D01*
X3316908Y34625621D01*
X3494825Y34638244D01*
X3702037Y34647067D01*
X3945107Y34653138D01*
X4230597Y34657504D01*
X4318000Y34658552D01*
X4687810Y34661275D01*
X5012507Y34659984D01*
X5297658Y34654133D01*
X5548830Y34643173D01*
X5771590Y34626556D01*
X5971507Y34603736D01*
X6154148Y34574165D01*
X6325080Y34537294D01*
X6489872Y34492577D01*
X6654091Y34439466D01*
X6696193Y34424639D01*
X6996990Y34296109D01*
X7255705Y34139810D01*
X7473855Y33954051D01*
X7652953Y33737138D01*
X7794515Y33487380D01*
X7900056Y33203083D01*
X7943211Y33031793D01*
X7957576Y32956051D01*
X7968581Y32874033D01*
X7976604Y32778066D01*
X7982024Y32660477D01*
X7985216Y32513594D01*
X7986559Y32329745D01*
X7986555Y32150600D01*
X7985796Y31943231D01*
X7984165Y31779009D01*
X7981164Y31650285D01*
X7976293Y31549407D01*
X7969052Y31468724D01*
X7958942Y31400587D01*
X7945464Y31337344D01*
X7929480Y31276255D01*
X7832070Y31006330D01*
X7696080Y30764998D01*
X7519389Y30549760D01*
X7299877Y30358116D01*
X7035425Y30187565D01*
X6981158Y30157994D01*
X6715816Y30034350D01*
X6420426Y29930056D01*
X6091453Y29844356D01*
X5725364Y29776496D01*
X5318624Y29725718D01*
X4867700Y29691269D01*
X4775200Y29686432D01*
X4547964Y29677742D01*
X4281998Y29671523D01*
X3989311Y29667765D01*
X3681913Y29666460D01*
X3371812Y29667598D01*
X3071018Y29671170D01*
X2791541Y29677168D01*
X2545390Y29685583D01*
X2489200Y29688124D01*
X2010427Y29724246D01*
X1575836Y29784664D01*
X1184911Y29869531D01*
X837138Y29978997D01*
X532004Y30113213D01*
X268993Y30272332D01*
X127567Y30382943D01*
X-65172Y30580712D01*
X-236165Y30820219D01*
X-382564Y31096045D01*
X-501522Y31402773D01*
X-590191Y31734987D01*
X-594750Y31756900D01*
X-614724Y31859684D01*
X-631683Y31960623D01*
X-645820Y32064596D01*
X-657330Y32176477D01*
X-658219Y32188700D01*
X2324100Y32188700D01*
X2325047Y32024090D01*
X2330612Y31885873D01*
X2344881Y31771723D01*
X2371938Y31679310D01*
X2415868Y31606304D01*
X2480758Y31550378D01*
X2570692Y31509203D01*
X2689755Y31480448D01*
X2842033Y31461787D01*
X3031611Y31450889D01*
X3262574Y31445426D01*
X3539007Y31443070D01*
X3632866Y31442614D01*
X3829501Y31442739D01*
X4021208Y31444755D01*
X4198599Y31448422D01*
X4352290Y31453496D01*
X4472894Y31459738D01*
X4544602Y31466055D01*
X4687494Y31487647D01*
X4796171Y31516385D01*
X4875496Y31559008D01*
X4930330Y31622252D01*
X4965535Y31712858D01*
X4985973Y31837562D01*
X4996505Y32003102D01*
X4999402Y32096384D01*
X5002765Y32286247D01*
X5001166Y32433103D01*
X4993404Y32544605D01*
X4978280Y32628407D01*
X4954591Y32692162D01*
X4921138Y32743525D01*
X4893036Y32774444D01*
X4849989Y32811231D01*
X4797955Y32841582D01*
X4732002Y32866075D01*
X4647195Y32885290D01*
X4538600Y32899806D01*
X4401284Y32910204D01*
X4230312Y32917062D01*
X4020752Y32920961D01*
X3767668Y32922479D01*
X3632200Y32922535D01*
X3341201Y32921879D01*
X3096916Y32918933D01*
X2895256Y32911406D01*
X2732136Y32897005D01*
X2603468Y32873436D01*
X2505166Y32838407D01*
X2433142Y32789625D01*
X2383309Y32724797D01*
X2351581Y32641631D01*
X2333870Y32537835D01*
X2326090Y32411114D01*
X2324153Y32259177D01*
X2324100Y32188700D01*
X-658219Y32188700D01*
X-666406Y32301144D01*
X-673244Y32443472D01*
X-678038Y32608338D01*
X-680981Y32800619D01*
X-682268Y33025190D01*
X-682093Y33286929D01*
X-680650Y33590711D01*
X-678731Y33865100D01*
X-676278Y34172657D01*
X-673894Y34434089D01*
X-671399Y34654071D01*
X-668611Y34837280D01*
X-665348Y34988390D01*
X-661430Y35112075D01*
X-656675Y35213012D01*
X-650901Y35295874D01*
X-643928Y35365338D01*
X-635573Y35426078D01*
X-625656Y35482770D01*
X-613994Y35540088D01*
X-613694Y35541500D01*
X-523402Y35895246D01*
X-410028Y36211221D01*
X-271234Y36491231D01*
X-104681Y36737080D01*
X91970Y36950574D01*
X321056Y37133517D01*
X584917Y37287714D01*
X885890Y37414971D01*
X1226314Y37517091D01*
X1608528Y37595881D01*
X2034869Y37653145D01*
X2134912Y37663042D01*
X2247422Y37670613D01*
X2401290Y37676632D01*
X2590464Y37681160D01*
X2808896Y37684256D01*
X3050534Y37685981D01*
X3309328Y37686394D01*
X3579230Y37685556D01*
G36*
X-17862556Y38166542D02*
G01*
X-17591850Y38153023D01*
X-17336641Y38128211D01*
X-17112370Y38092614D01*
X-17068800Y38083405D01*
X-16954326Y38057978D01*
X-16859787Y38037173D01*
X-16795131Y38023166D01*
X-16770350Y38018132D01*
X-16769050Y37993544D01*
X-16767840Y37923193D01*
X-16766746Y37812118D01*
X-16765798Y37665355D01*
X-16765022Y37487942D01*
X-16764446Y37284917D01*
X-16764097Y37061316D01*
X-16764000Y36860184D01*
X-16764404Y36623559D01*
X-16765559Y36403609D01*
X-16767383Y36205315D01*
X-16769793Y36033656D01*
X-16772707Y35893613D01*
X-16776042Y35790167D01*
X-16779716Y35728297D01*
X-16783050Y35712120D01*
X-17033926Y35833996D01*
X-17256183Y35926472D01*
X-17460354Y35992524D01*
X-17656968Y36035124D01*
X-17856558Y36057247D01*
X-18022897Y36062200D01*
X-18350090Y36043261D01*
X-18651415Y35985015D01*
X-18935637Y35885318D01*
X-19122751Y35793228D01*
X-19404493Y35610740D01*
X-19652199Y35394305D01*
X-19864335Y35148645D01*
X-20039365Y34878485D01*
X-20175756Y34588550D01*
X-20271972Y34283564D01*
X-20326481Y33968251D01*
X-20337746Y33647335D01*
X-20304233Y33325541D01*
X-20224409Y33007594D01*
X-20115539Y32736620D01*
X-19947880Y32441766D01*
X-19739845Y32169704D01*
X-19498943Y31929474D01*
X-19340711Y31803624D01*
X-19226375Y31730668D01*
X-19080411Y31651834D01*
X-18920024Y31575254D01*
X-18762417Y31509058D01*
X-18624793Y31461378D01*
X-18604477Y31455660D01*
X-18292410Y31396373D01*
X-17970388Y31381421D01*
X-17648204Y31409818D01*
X-17335651Y31480577D01*
X-17042523Y31592711D01*
X-16990561Y31618241D01*
X-16912128Y31656401D01*
X-16841644Y31687743D01*
X-16826635Y31693729D01*
X-16764000Y31717543D01*
X-16764000Y29361216D01*
X-17100550Y29277867D01*
X-17222336Y29248467D01*
X-17323806Y29226733D01*
X-17416949Y29211368D01*
X-17513750Y29201075D01*
X-17626198Y29194557D01*
X-17766278Y29190516D01*
X-17932400Y29187837D01*
X-18186562Y29187254D01*
X-18395404Y29193164D01*
X-18564020Y29205775D01*
X-18655604Y29217850D01*
X-19134755Y29318774D01*
X-19590201Y29463974D01*
X-20025448Y29654826D01*
X-20444001Y29892709D01*
X-20550897Y29962684D01*
X-20929760Y30247114D01*
X-21271009Y30563669D01*
X-21573551Y30909166D01*
X-21836294Y31280422D01*
X-22058148Y31674255D01*
X-22238020Y32087481D01*
X-22374820Y32516917D01*
X-22467455Y32959381D01*
X-22514834Y33411690D01*
X-22515866Y33870661D01*
X-22469458Y34333110D01*
X-22374521Y34795855D01*
X-22298342Y35058318D01*
X-22235516Y35228885D01*
X-22149999Y35426273D01*
X-22049010Y35636242D01*
X-21939769Y35844554D01*
X-21829496Y36036969D01*
X-21725409Y36199247D01*
X-21705634Y36227300D01*
X-21397999Y36613803D01*
X-21059711Y36961191D01*
X-20692964Y37268113D01*
X-20299951Y37533215D01*
X-19882863Y37755146D01*
X-19443895Y37932553D01*
X-18985239Y38064084D01*
X-18613216Y38134259D01*
X-18388681Y38157669D01*
X-18133314Y38168260D01*
X-17862556Y38166542D01*
X-17862556Y38166542D01*
G37*
X-17862556Y38166542D02*
X-17591850Y38153023D01*
X-17336641Y38128211D01*
X-17112370Y38092614D01*
X-17068800Y38083405D01*
X-16954326Y38057978D01*
X-16859787Y38037173D01*
X-16795131Y38023166D01*
X-16770350Y38018132D01*
X-16769050Y37993544D01*
X-16767840Y37923193D01*
X-16766746Y37812118D01*
X-16765798Y37665355D01*
X-16765022Y37487942D01*
X-16764446Y37284917D01*
X-16764097Y37061316D01*
X-16764000Y36860184D01*
X-16764404Y36623559D01*
X-16765559Y36403609D01*
X-16767383Y36205315D01*
X-16769793Y36033656D01*
X-16772707Y35893613D01*
X-16776042Y35790167D01*
X-16779716Y35728297D01*
X-16783050Y35712120D01*
X-17033926Y35833996D01*
X-17256183Y35926472D01*
X-17460354Y35992524D01*
X-17656968Y36035124D01*
X-17856558Y36057247D01*
X-18022897Y36062200D01*
X-18350090Y36043261D01*
X-18651415Y35985015D01*
X-18935637Y35885318D01*
X-19122751Y35793228D01*
X-19404493Y35610740D01*
X-19652199Y35394305D01*
X-19864335Y35148645D01*
X-20039365Y34878485D01*
X-20175756Y34588550D01*
X-20271972Y34283564D01*
X-20326481Y33968251D01*
X-20337746Y33647335D01*
X-20304233Y33325541D01*
X-20224409Y33007594D01*
X-20115539Y32736620D01*
X-19947880Y32441766D01*
X-19739845Y32169704D01*
X-19498943Y31929474D01*
X-19340711Y31803624D01*
X-19226375Y31730668D01*
X-19080411Y31651834D01*
X-18920024Y31575254D01*
X-18762417Y31509058D01*
X-18624793Y31461378D01*
X-18604477Y31455660D01*
X-18292410Y31396373D01*
X-17970388Y31381421D01*
X-17648204Y31409818D01*
X-17335651Y31480577D01*
X-17042523Y31592711D01*
X-16990561Y31618241D01*
X-16912128Y31656401D01*
X-16841644Y31687743D01*
X-16826635Y31693729D01*
X-16764000Y31717543D01*
X-16764000Y29361216D01*
X-17100550Y29277867D01*
X-17222336Y29248467D01*
X-17323806Y29226733D01*
X-17416949Y29211368D01*
X-17513750Y29201075D01*
X-17626198Y29194557D01*
X-17766278Y29190516D01*
X-17932400Y29187837D01*
X-18186562Y29187254D01*
X-18395404Y29193164D01*
X-18564020Y29205775D01*
X-18655604Y29217850D01*
X-19134755Y29318774D01*
X-19590201Y29463974D01*
X-20025448Y29654826D01*
X-20444001Y29892709D01*
X-20550897Y29962684D01*
X-20929760Y30247114D01*
X-21271009Y30563669D01*
X-21573551Y30909166D01*
X-21836294Y31280422D01*
X-22058148Y31674255D01*
X-22238020Y32087481D01*
X-22374820Y32516917D01*
X-22467455Y32959381D01*
X-22514834Y33411690D01*
X-22515866Y33870661D01*
X-22469458Y34333110D01*
X-22374521Y34795855D01*
X-22298342Y35058318D01*
X-22235516Y35228885D01*
X-22149999Y35426273D01*
X-22049010Y35636242D01*
X-21939769Y35844554D01*
X-21829496Y36036969D01*
X-21725409Y36199247D01*
X-21705634Y36227300D01*
X-21397999Y36613803D01*
X-21059711Y36961191D01*
X-20692964Y37268113D01*
X-20299951Y37533215D01*
X-19882863Y37755146D01*
X-19443895Y37932553D01*
X-18985239Y38064084D01*
X-18613216Y38134259D01*
X-18388681Y38157669D01*
X-18133314Y38168260D01*
X-17862556Y38166542D01*
D15*
X27380000Y17812779D02*
X27380000Y17487221D01*
X28400000Y17812779D02*
X28400000Y17487221D01*
X27380000Y11087779D02*
X27380000Y10762221D01*
X28400000Y11087779D02*
X28400000Y10762221D01*
X27375000Y4322779D02*
X27375000Y3997221D01*
X28395000Y4322779D02*
X28395000Y3997221D01*
X27375000Y-2427221D02*
X27375000Y-2752779D01*
X28395000Y-2427221D02*
X28395000Y-2752779D01*
X27385000Y-9177221D02*
X27385000Y-9502779D01*
X28405000Y-9177221D02*
X28405000Y-9502779D01*
X27375000Y-15917221D02*
X27375000Y-16242779D01*
X28395000Y-15917221D02*
X28395000Y-16242779D01*
X27375000Y-22677221D02*
X27375000Y-23002779D01*
X28395000Y-22677221D02*
X28395000Y-23002779D01*
X-5150000Y41330000D02*
X-5150000Y38670000D01*
X2530000Y41330000D02*
X-5150000Y41330000D01*
X2530000Y38670000D02*
X-5150000Y38670000D01*
X2530000Y41330000D02*
X2530000Y38670000D01*
X3800000Y41330000D02*
X5130000Y41330000D01*
X5130000Y41330000D02*
X5130000Y40000000D01*
D11*
X8910714Y6422619D02*
X8910714Y7422619D01*
X9148809Y7422619D01*
X9291666Y7375000D01*
X9386904Y7279761D01*
X9434523Y7184523D01*
X9482142Y6994047D01*
X9482142Y6851190D01*
X9434523Y6660714D01*
X9386904Y6565476D01*
X9291666Y6470238D01*
X9148809Y6422619D01*
X8910714Y6422619D01*
X9815476Y7422619D02*
X10434523Y7422619D01*
X10101190Y7041666D01*
X10244047Y7041666D01*
X10339285Y6994047D01*
X10386904Y6946428D01*
X10434523Y6851190D01*
X10434523Y6613095D01*
X10386904Y6517857D01*
X10339285Y6470238D01*
X10244047Y6422619D01*
X9958333Y6422619D01*
X9863095Y6470238D01*
X9815476Y6517857D01*
X11053571Y7422619D02*
X11148809Y7422619D01*
X11244047Y7375000D01*
X11291666Y7327380D01*
X11339285Y7232142D01*
X11386904Y7041666D01*
X11386904Y6803571D01*
X11339285Y6613095D01*
X11291666Y6517857D01*
X11244047Y6470238D01*
X11148809Y6422619D01*
X11053571Y6422619D01*
X10958333Y6470238D01*
X10910714Y6517857D01*
X10863095Y6613095D01*
X10815476Y6803571D01*
X10815476Y7041666D01*
X10863095Y7232142D01*
X10910714Y7327380D01*
X10958333Y7375000D01*
X11053571Y7422619D01*
X22886904Y26672619D02*
X22886904Y27672619D01*
X23125000Y27672619D01*
X23267857Y27625000D01*
X23363095Y27529761D01*
X23410714Y27434523D01*
X23458333Y27244047D01*
X23458333Y27101190D01*
X23410714Y26910714D01*
X23363095Y26815476D01*
X23267857Y26720238D01*
X23125000Y26672619D01*
X22886904Y26672619D01*
X24029761Y27244047D02*
X23934523Y27291666D01*
X23886904Y27339285D01*
X23839285Y27434523D01*
X23839285Y27482142D01*
X23886904Y27577380D01*
X23934523Y27625000D01*
X24029761Y27672619D01*
X24220238Y27672619D01*
X24315476Y27625000D01*
X24363095Y27577380D01*
X24410714Y27482142D01*
X24410714Y27434523D01*
X24363095Y27339285D01*
X24315476Y27291666D01*
X24220238Y27244047D01*
X24029761Y27244047D01*
X23934523Y27196428D01*
X23886904Y27148809D01*
X23839285Y27053571D01*
X23839285Y26863095D01*
X23886904Y26767857D01*
X23934523Y26720238D01*
X24029761Y26672619D01*
X24220238Y26672619D01*
X24315476Y26720238D01*
X24363095Y26767857D01*
X24410714Y26863095D01*
X24410714Y27053571D01*
X24363095Y27148809D01*
X24315476Y27196428D01*
X24220238Y27244047D01*
X9386904Y26672619D02*
X9386904Y27672619D01*
X9625000Y27672619D01*
X9767857Y27625000D01*
X9863095Y27529761D01*
X9910714Y27434523D01*
X9958333Y27244047D01*
X9958333Y27101190D01*
X9910714Y26910714D01*
X9863095Y26815476D01*
X9767857Y26720238D01*
X9625000Y26672619D01*
X9386904Y26672619D01*
X10815476Y27672619D02*
X10625000Y27672619D01*
X10529761Y27625000D01*
X10482142Y27577380D01*
X10386904Y27434523D01*
X10339285Y27244047D01*
X10339285Y26863095D01*
X10386904Y26767857D01*
X10434523Y26720238D01*
X10529761Y26672619D01*
X10720238Y26672619D01*
X10815476Y26720238D01*
X10863095Y26767857D01*
X10910714Y26863095D01*
X10910714Y27101190D01*
X10863095Y27196428D01*
X10815476Y27244047D01*
X10720238Y27291666D01*
X10529761Y27291666D01*
X10434523Y27244047D01*
X10386904Y27196428D01*
X10339285Y27101190D01*
X2636904Y26672619D02*
X2636904Y27672619D01*
X2875000Y27672619D01*
X3017857Y27625000D01*
X3113095Y27529761D01*
X3160714Y27434523D01*
X3208333Y27244047D01*
X3208333Y27101190D01*
X3160714Y26910714D01*
X3113095Y26815476D01*
X3017857Y26720238D01*
X2875000Y26672619D01*
X2636904Y26672619D01*
X4113095Y27672619D02*
X3636904Y27672619D01*
X3589285Y27196428D01*
X3636904Y27244047D01*
X3732142Y27291666D01*
X3970238Y27291666D01*
X4065476Y27244047D01*
X4113095Y27196428D01*
X4160714Y27101190D01*
X4160714Y26863095D01*
X4113095Y26767857D01*
X4065476Y26720238D01*
X3970238Y26672619D01*
X3732142Y26672619D01*
X3636904Y26720238D01*
X3589285Y26767857D01*
X-4589285Y-13827380D02*
X-4589285Y-12827380D01*
X-4351190Y-12827380D01*
X-4208333Y-12875000D01*
X-4113095Y-12970238D01*
X-4065476Y-13065476D01*
X-4017857Y-13255952D01*
X-4017857Y-13398809D01*
X-4065476Y-13589285D01*
X-4113095Y-13684523D01*
X-4208333Y-13779761D01*
X-4351190Y-13827380D01*
X-4589285Y-13827380D01*
X-3113095Y-12827380D02*
X-3589285Y-12827380D01*
X-3636904Y-13303571D01*
X-3589285Y-13255952D01*
X-3494047Y-13208333D01*
X-3255952Y-13208333D01*
X-3160714Y-13255952D01*
X-3113095Y-13303571D01*
X-3065476Y-13398809D01*
X-3065476Y-13636904D01*
X-3113095Y-13732142D01*
X-3160714Y-13779761D01*
X-3255952Y-13827380D01*
X-3494047Y-13827380D01*
X-3589285Y-13779761D01*
X-3636904Y-13732142D01*
X-2684523Y-12922619D02*
X-2636904Y-12875000D01*
X-2541666Y-12827380D01*
X-2303571Y-12827380D01*
X-2208333Y-12875000D01*
X-2160714Y-12922619D01*
X-2113095Y-13017857D01*
X-2113095Y-13113095D01*
X-2160714Y-13255952D01*
X-2732142Y-13827380D01*
X-2113095Y-13827380D01*
X-10863095Y26672619D02*
X-10863095Y27672619D01*
X-10625000Y27672619D01*
X-10482142Y27625000D01*
X-10386904Y27529761D01*
X-10339285Y27434523D01*
X-10291666Y27244047D01*
X-10291666Y27101190D01*
X-10339285Y26910714D01*
X-10386904Y26815476D01*
X-10482142Y26720238D01*
X-10625000Y26672619D01*
X-10863095Y26672619D01*
X-9958333Y27672619D02*
X-9339285Y27672619D01*
X-9672619Y27291666D01*
X-9529761Y27291666D01*
X-9434523Y27244047D01*
X-9386904Y27196428D01*
X-9339285Y27101190D01*
X-9339285Y26863095D01*
X-9386904Y26767857D01*
X-9434523Y26720238D01*
X-9529761Y26672619D01*
X-9815476Y26672619D01*
X-9910714Y26720238D01*
X-9958333Y26767857D01*
X-4113095Y26672619D02*
X-4113095Y27672619D01*
X-3874999Y27672619D01*
X-3732142Y27625000D01*
X-3636904Y27529761D01*
X-3589285Y27434523D01*
X-3541666Y27244047D01*
X-3541666Y27101190D01*
X-3589285Y26910714D01*
X-3636904Y26815476D01*
X-3732142Y26720238D01*
X-3874999Y26672619D01*
X-4113095Y26672619D01*
X-2684523Y27339285D02*
X-2684523Y26672619D01*
X-2922619Y27720238D02*
X-3160714Y27005952D01*
X-2541666Y27005952D01*
X-17613095Y26672619D02*
X-17613095Y27672619D01*
X-17375000Y27672619D01*
X-17232142Y27625000D01*
X-17136904Y27529761D01*
X-17089285Y27434523D01*
X-17041666Y27244047D01*
X-17041666Y27101190D01*
X-17089285Y26910714D01*
X-17136904Y26815476D01*
X-17232142Y26720238D01*
X-17375000Y26672619D01*
X-17613095Y26672619D01*
X-16660714Y27577380D02*
X-16613095Y27625000D01*
X-16517857Y27672619D01*
X-16279761Y27672619D01*
X-16184523Y27625000D01*
X-16136904Y27577380D01*
X-16089285Y27482142D01*
X-16089285Y27386904D01*
X-16136904Y27244047D01*
X-16708333Y26672619D01*
X-16089285Y26672619D01*
X-24363095Y26672619D02*
X-24363095Y27672619D01*
X-24125000Y27672619D01*
X-23982142Y27625000D01*
X-23886904Y27529761D01*
X-23839285Y27434523D01*
X-23791666Y27244047D01*
X-23791666Y27101190D01*
X-23839285Y26910714D01*
X-23886904Y26815476D01*
X-23982142Y26720238D01*
X-24125000Y26672619D01*
X-24363095Y26672619D01*
X-22839285Y26672619D02*
X-23410714Y26672619D01*
X-23125000Y26672619D02*
X-23125000Y27672619D01*
X-23220238Y27529761D01*
X-23315476Y27434523D01*
X-23410714Y27386904D01*
X-18089285Y19922619D02*
X-18089285Y20922619D01*
X-17851190Y20922619D01*
X-17708333Y20875000D01*
X-17613095Y20779761D01*
X-17565476Y20684523D01*
X-17517857Y20494047D01*
X-17517857Y20351190D01*
X-17565476Y20160714D01*
X-17613095Y20065476D01*
X-17708333Y19970238D01*
X-17851190Y19922619D01*
X-18089285Y19922619D01*
X-16565476Y19922619D02*
X-17136904Y19922619D01*
X-16851190Y19922619D02*
X-16851190Y20922619D01*
X-16946428Y20779761D01*
X-17041666Y20684523D01*
X-17136904Y20636904D01*
X-15946428Y20922619D02*
X-15851190Y20922619D01*
X-15755952Y20875000D01*
X-15708333Y20827380D01*
X-15660714Y20732142D01*
X-15613095Y20541666D01*
X-15613095Y20303571D01*
X-15660714Y20113095D01*
X-15708333Y20017857D01*
X-15755952Y19970238D01*
X-15851190Y19922619D01*
X-15946428Y19922619D01*
X-16041666Y19970238D01*
X-16089285Y20017857D01*
X-16136904Y20113095D01*
X-16184523Y20303571D01*
X-16184523Y20541666D01*
X-16136904Y20732142D01*
X-16089285Y20827380D01*
X-16041666Y20875000D01*
X-15946428Y20922619D01*
X-11339285Y19922619D02*
X-11339285Y20922619D01*
X-11101190Y20922619D01*
X-10958333Y20875000D01*
X-10863095Y20779761D01*
X-10815476Y20684523D01*
X-10767857Y20494047D01*
X-10767857Y20351190D01*
X-10815476Y20160714D01*
X-10863095Y20065476D01*
X-10958333Y19970238D01*
X-11101190Y19922619D01*
X-11339285Y19922619D01*
X-9815476Y19922619D02*
X-10386904Y19922619D01*
X-10101190Y19922619D02*
X-10101190Y20922619D01*
X-10196428Y20779761D01*
X-10291666Y20684523D01*
X-10386904Y20636904D01*
X-8863095Y19922619D02*
X-9434523Y19922619D01*
X-9148809Y19922619D02*
X-9148809Y20922619D01*
X-9244047Y20779761D01*
X-9339285Y20684523D01*
X-9434523Y20636904D01*
X-4589285Y19922619D02*
X-4589285Y20922619D01*
X-4351190Y20922619D01*
X-4208333Y20875000D01*
X-4113095Y20779761D01*
X-4065476Y20684523D01*
X-4017857Y20494047D01*
X-4017857Y20351190D01*
X-4065476Y20160714D01*
X-4113095Y20065476D01*
X-4208333Y19970238D01*
X-4351190Y19922619D01*
X-4589285Y19922619D01*
X-3065476Y19922619D02*
X-3636904Y19922619D01*
X-3351190Y19922619D02*
X-3351190Y20922619D01*
X-3446428Y20779761D01*
X-3541666Y20684523D01*
X-3636904Y20636904D01*
X-2684523Y20827380D02*
X-2636904Y20875000D01*
X-2541666Y20922619D01*
X-2303571Y20922619D01*
X-2208333Y20875000D01*
X-2160714Y20827380D01*
X-2113095Y20732142D01*
X-2113095Y20636904D01*
X-2160714Y20494047D01*
X-2732142Y19922619D01*
X-2113095Y19922619D01*
X-24363095Y19922619D02*
X-24363095Y20922619D01*
X-24125000Y20922619D01*
X-23982142Y20875000D01*
X-23886904Y20779761D01*
X-23839285Y20684523D01*
X-23791666Y20494047D01*
X-23791666Y20351190D01*
X-23839285Y20160714D01*
X-23886904Y20065476D01*
X-23982142Y19970238D01*
X-24125000Y19922619D01*
X-24363095Y19922619D01*
X-23315476Y19922619D02*
X-23125000Y19922619D01*
X-23029761Y19970238D01*
X-22982142Y20017857D01*
X-22886904Y20160714D01*
X-22839285Y20351190D01*
X-22839285Y20732142D01*
X-22886904Y20827380D01*
X-22934523Y20875000D01*
X-23029761Y20922619D01*
X-23220238Y20922619D01*
X-23315476Y20875000D01*
X-23363095Y20827380D01*
X-23410714Y20732142D01*
X-23410714Y20494047D01*
X-23363095Y20398809D01*
X-23315476Y20351190D01*
X-23220238Y20303571D01*
X-23029761Y20303571D01*
X-22934523Y20351190D01*
X-22886904Y20398809D01*
X-22839285Y20494047D01*
X15660714Y19922619D02*
X15660714Y20922619D01*
X15898809Y20922619D01*
X16041666Y20875000D01*
X16136904Y20779761D01*
X16184523Y20684523D01*
X16232142Y20494047D01*
X16232142Y20351190D01*
X16184523Y20160714D01*
X16136904Y20065476D01*
X16041666Y19970238D01*
X15898809Y19922619D01*
X15660714Y19922619D01*
X17184523Y19922619D02*
X16613095Y19922619D01*
X16898809Y19922619D02*
X16898809Y20922619D01*
X16803571Y20779761D01*
X16708333Y20684523D01*
X16613095Y20636904D01*
X18089285Y20922619D02*
X17613095Y20922619D01*
X17565476Y20446428D01*
X17613095Y20494047D01*
X17708333Y20541666D01*
X17946428Y20541666D01*
X18041666Y20494047D01*
X18089285Y20446428D01*
X18136904Y20351190D01*
X18136904Y20113095D01*
X18089285Y20017857D01*
X18041666Y19970238D01*
X17946428Y19922619D01*
X17708333Y19922619D01*
X17613095Y19970238D01*
X17565476Y20017857D01*
X22410714Y13172619D02*
X22410714Y14172619D01*
X22648809Y14172619D01*
X22791666Y14125000D01*
X22886904Y14029761D01*
X22934523Y13934523D01*
X22982142Y13744047D01*
X22982142Y13601190D01*
X22934523Y13410714D01*
X22886904Y13315476D01*
X22791666Y13220238D01*
X22648809Y13172619D01*
X22410714Y13172619D01*
X23363095Y14077380D02*
X23410714Y14125000D01*
X23505952Y14172619D01*
X23744047Y14172619D01*
X23839285Y14125000D01*
X23886904Y14077380D01*
X23934523Y13982142D01*
X23934523Y13886904D01*
X23886904Y13744047D01*
X23315476Y13172619D01*
X23934523Y13172619D01*
X24791666Y13839285D02*
X24791666Y13172619D01*
X24553571Y14220238D02*
X24315476Y13505952D01*
X24934523Y13505952D01*
X16136904Y26672619D02*
X16136904Y27672619D01*
X16375000Y27672619D01*
X16517857Y27625000D01*
X16613095Y27529761D01*
X16660714Y27434523D01*
X16708333Y27244047D01*
X16708333Y27101190D01*
X16660714Y26910714D01*
X16613095Y26815476D01*
X16517857Y26720238D01*
X16375000Y26672619D01*
X16136904Y26672619D01*
X17041666Y27672619D02*
X17708333Y27672619D01*
X17279761Y26672619D01*
X2160714Y19922619D02*
X2160714Y20922619D01*
X2398809Y20922619D01*
X2541666Y20875000D01*
X2636904Y20779761D01*
X2684523Y20684523D01*
X2732142Y20494047D01*
X2732142Y20351190D01*
X2684523Y20160714D01*
X2636904Y20065476D01*
X2541666Y19970238D01*
X2398809Y19922619D01*
X2160714Y19922619D01*
X3684523Y19922619D02*
X3113095Y19922619D01*
X3398809Y19922619D02*
X3398809Y20922619D01*
X3303571Y20779761D01*
X3208333Y20684523D01*
X3113095Y20636904D01*
X4017857Y20922619D02*
X4636904Y20922619D01*
X4303571Y20541666D01*
X4446428Y20541666D01*
X4541666Y20494047D01*
X4589285Y20446428D01*
X4636904Y20351190D01*
X4636904Y20113095D01*
X4589285Y20017857D01*
X4541666Y19970238D01*
X4446428Y19922619D01*
X4160714Y19922619D01*
X4065476Y19970238D01*
X4017857Y20017857D01*
X8910714Y19922619D02*
X8910714Y20922619D01*
X9148809Y20922619D01*
X9291666Y20875000D01*
X9386904Y20779761D01*
X9434523Y20684523D01*
X9482142Y20494047D01*
X9482142Y20351190D01*
X9434523Y20160714D01*
X9386904Y20065476D01*
X9291666Y19970238D01*
X9148809Y19922619D01*
X8910714Y19922619D01*
X10434523Y19922619D02*
X9863095Y19922619D01*
X10148809Y19922619D02*
X10148809Y20922619D01*
X10053571Y20779761D01*
X9958333Y20684523D01*
X9863095Y20636904D01*
X11291666Y20589285D02*
X11291666Y19922619D01*
X11053571Y20970238D02*
X10815476Y20255952D01*
X11434523Y20255952D01*
X22410714Y19922619D02*
X22410714Y20922619D01*
X22648809Y20922619D01*
X22791666Y20875000D01*
X22886904Y20779761D01*
X22934523Y20684523D01*
X22982142Y20494047D01*
X22982142Y20351190D01*
X22934523Y20160714D01*
X22886904Y20065476D01*
X22791666Y19970238D01*
X22648809Y19922619D01*
X22410714Y19922619D01*
X23934523Y19922619D02*
X23363095Y19922619D01*
X23648809Y19922619D02*
X23648809Y20922619D01*
X23553571Y20779761D01*
X23458333Y20684523D01*
X23363095Y20636904D01*
X24791666Y20922619D02*
X24601190Y20922619D01*
X24505952Y20875000D01*
X24458333Y20827380D01*
X24363095Y20684523D01*
X24315476Y20494047D01*
X24315476Y20113095D01*
X24363095Y20017857D01*
X24410714Y19970238D01*
X24505952Y19922619D01*
X24696428Y19922619D01*
X24791666Y19970238D01*
X24839285Y20017857D01*
X24886904Y20113095D01*
X24886904Y20351190D01*
X24839285Y20446428D01*
X24791666Y20494047D01*
X24696428Y20541666D01*
X24505952Y20541666D01*
X24410714Y20494047D01*
X24363095Y20446428D01*
X24315476Y20351190D01*
X-24839285Y13172619D02*
X-24839285Y14172619D01*
X-24601190Y14172619D01*
X-24458333Y14125000D01*
X-24363095Y14029761D01*
X-24315476Y13934523D01*
X-24267857Y13744047D01*
X-24267857Y13601190D01*
X-24315476Y13410714D01*
X-24363095Y13315476D01*
X-24458333Y13220238D01*
X-24601190Y13172619D01*
X-24839285Y13172619D01*
X-23315476Y13172619D02*
X-23886904Y13172619D01*
X-23601190Y13172619D02*
X-23601190Y14172619D01*
X-23696428Y14029761D01*
X-23791666Y13934523D01*
X-23886904Y13886904D01*
X-22982142Y14172619D02*
X-22315476Y14172619D01*
X-22744047Y13172619D01*
X-18089285Y13172619D02*
X-18089285Y14172619D01*
X-17851190Y14172619D01*
X-17708333Y14125000D01*
X-17613095Y14029761D01*
X-17565476Y13934523D01*
X-17517857Y13744047D01*
X-17517857Y13601190D01*
X-17565476Y13410714D01*
X-17613095Y13315476D01*
X-17708333Y13220238D01*
X-17851190Y13172619D01*
X-18089285Y13172619D01*
X-16565476Y13172619D02*
X-17136904Y13172619D01*
X-16851190Y13172619D02*
X-16851190Y14172619D01*
X-16946428Y14029761D01*
X-17041666Y13934523D01*
X-17136904Y13886904D01*
X-15994047Y13744047D02*
X-16089285Y13791666D01*
X-16136904Y13839285D01*
X-16184523Y13934523D01*
X-16184523Y13982142D01*
X-16136904Y14077380D01*
X-16089285Y14125000D01*
X-15994047Y14172619D01*
X-15803571Y14172619D01*
X-15708333Y14125000D01*
X-15660714Y14077380D01*
X-15613095Y13982142D01*
X-15613095Y13934523D01*
X-15660714Y13839285D01*
X-15708333Y13791666D01*
X-15803571Y13744047D01*
X-15994047Y13744047D01*
X-16089285Y13696428D01*
X-16136904Y13648809D01*
X-16184523Y13553571D01*
X-16184523Y13363095D01*
X-16136904Y13267857D01*
X-16089285Y13220238D01*
X-15994047Y13172619D01*
X-15803571Y13172619D01*
X-15708333Y13220238D01*
X-15660714Y13267857D01*
X-15613095Y13363095D01*
X-15613095Y13553571D01*
X-15660714Y13648809D01*
X-15708333Y13696428D01*
X-15803571Y13744047D01*
X-11339285Y13172619D02*
X-11339285Y14172619D01*
X-11101190Y14172619D01*
X-10958333Y14125000D01*
X-10863095Y14029761D01*
X-10815476Y13934523D01*
X-10767857Y13744047D01*
X-10767857Y13601190D01*
X-10815476Y13410714D01*
X-10863095Y13315476D01*
X-10958333Y13220238D01*
X-11101190Y13172619D01*
X-11339285Y13172619D01*
X-9815476Y13172619D02*
X-10386904Y13172619D01*
X-10101190Y13172619D02*
X-10101190Y14172619D01*
X-10196428Y14029761D01*
X-10291666Y13934523D01*
X-10386904Y13886904D01*
X-9339285Y13172619D02*
X-9148809Y13172619D01*
X-9053571Y13220238D01*
X-9005952Y13267857D01*
X-8910714Y13410714D01*
X-8863095Y13601190D01*
X-8863095Y13982142D01*
X-8910714Y14077380D01*
X-8958333Y14125000D01*
X-9053571Y14172619D01*
X-9244047Y14172619D01*
X-9339285Y14125000D01*
X-9386904Y14077380D01*
X-9434523Y13982142D01*
X-9434523Y13744047D01*
X-9386904Y13648809D01*
X-9339285Y13601190D01*
X-9244047Y13553571D01*
X-9053571Y13553571D01*
X-8958333Y13601190D01*
X-8910714Y13648809D01*
X-8863095Y13744047D01*
X-4589285Y13172619D02*
X-4589285Y14172619D01*
X-4351190Y14172619D01*
X-4208333Y14125000D01*
X-4113095Y14029761D01*
X-4065476Y13934523D01*
X-4017857Y13744047D01*
X-4017857Y13601190D01*
X-4065476Y13410714D01*
X-4113095Y13315476D01*
X-4208333Y13220238D01*
X-4351190Y13172619D01*
X-4589285Y13172619D01*
X-3636904Y14077380D02*
X-3589285Y14125000D01*
X-3494047Y14172619D01*
X-3255952Y14172619D01*
X-3160714Y14125000D01*
X-3113095Y14077380D01*
X-3065476Y13982142D01*
X-3065476Y13886904D01*
X-3113095Y13744047D01*
X-3684523Y13172619D01*
X-3065476Y13172619D01*
X-2446428Y14172619D02*
X-2351190Y14172619D01*
X-2255952Y14125000D01*
X-2208333Y14077380D01*
X-2160714Y13982142D01*
X-2113095Y13791666D01*
X-2113095Y13553571D01*
X-2160714Y13363095D01*
X-2208333Y13267857D01*
X-2255952Y13220238D01*
X-2351190Y13172619D01*
X-2446428Y13172619D01*
X-2541666Y13220238D01*
X-2589285Y13267857D01*
X-2636904Y13363095D01*
X-2684523Y13553571D01*
X-2684523Y13791666D01*
X-2636904Y13982142D01*
X-2589285Y14077380D01*
X-2541666Y14125000D01*
X-2446428Y14172619D01*
X2160714Y13172619D02*
X2160714Y14172619D01*
X2398809Y14172619D01*
X2541666Y14125000D01*
X2636904Y14029761D01*
X2684523Y13934523D01*
X2732142Y13744047D01*
X2732142Y13601190D01*
X2684523Y13410714D01*
X2636904Y13315476D01*
X2541666Y13220238D01*
X2398809Y13172619D01*
X2160714Y13172619D01*
X3113095Y14077380D02*
X3160714Y14125000D01*
X3255952Y14172619D01*
X3494047Y14172619D01*
X3589285Y14125000D01*
X3636904Y14077380D01*
X3684523Y13982142D01*
X3684523Y13886904D01*
X3636904Y13744047D01*
X3065476Y13172619D01*
X3684523Y13172619D01*
X4636904Y13172619D02*
X4065476Y13172619D01*
X4351190Y13172619D02*
X4351190Y14172619D01*
X4255952Y14029761D01*
X4160714Y13934523D01*
X4065476Y13886904D01*
X8910714Y13172619D02*
X8910714Y14172619D01*
X9148809Y14172619D01*
X9291666Y14125000D01*
X9386904Y14029761D01*
X9434523Y13934523D01*
X9482142Y13744047D01*
X9482142Y13601190D01*
X9434523Y13410714D01*
X9386904Y13315476D01*
X9291666Y13220238D01*
X9148809Y13172619D01*
X8910714Y13172619D01*
X9863095Y14077380D02*
X9910714Y14125000D01*
X10005952Y14172619D01*
X10244047Y14172619D01*
X10339285Y14125000D01*
X10386904Y14077380D01*
X10434523Y13982142D01*
X10434523Y13886904D01*
X10386904Y13744047D01*
X9815476Y13172619D01*
X10434523Y13172619D01*
X10815476Y14077380D02*
X10863095Y14125000D01*
X10958333Y14172619D01*
X11196428Y14172619D01*
X11291666Y14125000D01*
X11339285Y14077380D01*
X11386904Y13982142D01*
X11386904Y13886904D01*
X11339285Y13744047D01*
X10767857Y13172619D01*
X11386904Y13172619D01*
X15660714Y13172619D02*
X15660714Y14172619D01*
X15898809Y14172619D01*
X16041666Y14125000D01*
X16136904Y14029761D01*
X16184523Y13934523D01*
X16232142Y13744047D01*
X16232142Y13601190D01*
X16184523Y13410714D01*
X16136904Y13315476D01*
X16041666Y13220238D01*
X15898809Y13172619D01*
X15660714Y13172619D01*
X16613095Y14077380D02*
X16660714Y14125000D01*
X16755952Y14172619D01*
X16994047Y14172619D01*
X17089285Y14125000D01*
X17136904Y14077380D01*
X17184523Y13982142D01*
X17184523Y13886904D01*
X17136904Y13744047D01*
X16565476Y13172619D01*
X17184523Y13172619D01*
X17517857Y14172619D02*
X18136904Y14172619D01*
X17803571Y13791666D01*
X17946428Y13791666D01*
X18041666Y13744047D01*
X18089285Y13696428D01*
X18136904Y13601190D01*
X18136904Y13363095D01*
X18089285Y13267857D01*
X18041666Y13220238D01*
X17946428Y13172619D01*
X17660714Y13172619D01*
X17565476Y13220238D01*
X17517857Y13267857D01*
X-24839285Y6422619D02*
X-24839285Y7422619D01*
X-24601190Y7422619D01*
X-24458333Y7375000D01*
X-24363095Y7279761D01*
X-24315476Y7184523D01*
X-24267857Y6994047D01*
X-24267857Y6851190D01*
X-24315476Y6660714D01*
X-24363095Y6565476D01*
X-24458333Y6470238D01*
X-24601190Y6422619D01*
X-24839285Y6422619D01*
X-23886904Y7327380D02*
X-23839285Y7375000D01*
X-23744047Y7422619D01*
X-23505952Y7422619D01*
X-23410714Y7375000D01*
X-23363095Y7327380D01*
X-23315476Y7232142D01*
X-23315476Y7136904D01*
X-23363095Y6994047D01*
X-23934523Y6422619D01*
X-23315476Y6422619D01*
X-22410714Y7422619D02*
X-22886904Y7422619D01*
X-22934523Y6946428D01*
X-22886904Y6994047D01*
X-22791666Y7041666D01*
X-22553571Y7041666D01*
X-22458333Y6994047D01*
X-22410714Y6946428D01*
X-22363095Y6851190D01*
X-22363095Y6613095D01*
X-22410714Y6517857D01*
X-22458333Y6470238D01*
X-22553571Y6422619D01*
X-22791666Y6422619D01*
X-22886904Y6470238D01*
X-22934523Y6517857D01*
X-18089285Y6422619D02*
X-18089285Y7422619D01*
X-17851190Y7422619D01*
X-17708333Y7375000D01*
X-17613095Y7279761D01*
X-17565476Y7184523D01*
X-17517857Y6994047D01*
X-17517857Y6851190D01*
X-17565476Y6660714D01*
X-17613095Y6565476D01*
X-17708333Y6470238D01*
X-17851190Y6422619D01*
X-18089285Y6422619D01*
X-17136904Y7327380D02*
X-17089285Y7375000D01*
X-16994047Y7422619D01*
X-16755952Y7422619D01*
X-16660714Y7375000D01*
X-16613095Y7327380D01*
X-16565476Y7232142D01*
X-16565476Y7136904D01*
X-16613095Y6994047D01*
X-17184523Y6422619D01*
X-16565476Y6422619D01*
X-15708333Y7422619D02*
X-15898809Y7422619D01*
X-15994047Y7375000D01*
X-16041666Y7327380D01*
X-16136904Y7184523D01*
X-16184523Y6994047D01*
X-16184523Y6613095D01*
X-16136904Y6517857D01*
X-16089285Y6470238D01*
X-15994047Y6422619D01*
X-15803571Y6422619D01*
X-15708333Y6470238D01*
X-15660714Y6517857D01*
X-15613095Y6613095D01*
X-15613095Y6851190D01*
X-15660714Y6946428D01*
X-15708333Y6994047D01*
X-15803571Y7041666D01*
X-15994047Y7041666D01*
X-16089285Y6994047D01*
X-16136904Y6946428D01*
X-16184523Y6851190D01*
X-11339285Y6422619D02*
X-11339285Y7422619D01*
X-11101190Y7422619D01*
X-10958333Y7375000D01*
X-10863095Y7279761D01*
X-10815476Y7184523D01*
X-10767857Y6994047D01*
X-10767857Y6851190D01*
X-10815476Y6660714D01*
X-10863095Y6565476D01*
X-10958333Y6470238D01*
X-11101190Y6422619D01*
X-11339285Y6422619D01*
X-10386904Y7327380D02*
X-10339285Y7375000D01*
X-10244047Y7422619D01*
X-10005952Y7422619D01*
X-9910714Y7375000D01*
X-9863095Y7327380D01*
X-9815476Y7232142D01*
X-9815476Y7136904D01*
X-9863095Y6994047D01*
X-10434523Y6422619D01*
X-9815476Y6422619D01*
X-9482142Y7422619D02*
X-8815476Y7422619D01*
X-9244047Y6422619D01*
X-4589285Y6422619D02*
X-4589285Y7422619D01*
X-4351190Y7422619D01*
X-4208333Y7375000D01*
X-4113095Y7279761D01*
X-4065476Y7184523D01*
X-4017857Y6994047D01*
X-4017857Y6851190D01*
X-4065476Y6660714D01*
X-4113095Y6565476D01*
X-4208333Y6470238D01*
X-4351190Y6422619D01*
X-4589285Y6422619D01*
X-3636904Y7327380D02*
X-3589285Y7375000D01*
X-3494047Y7422619D01*
X-3255952Y7422619D01*
X-3160714Y7375000D01*
X-3113095Y7327380D01*
X-3065476Y7232142D01*
X-3065476Y7136904D01*
X-3113095Y6994047D01*
X-3684523Y6422619D01*
X-3065476Y6422619D01*
X-2494047Y6994047D02*
X-2589285Y7041666D01*
X-2636904Y7089285D01*
X-2684523Y7184523D01*
X-2684523Y7232142D01*
X-2636904Y7327380D01*
X-2589285Y7375000D01*
X-2494047Y7422619D01*
X-2303571Y7422619D01*
X-2208333Y7375000D01*
X-2160714Y7327380D01*
X-2113095Y7232142D01*
X-2113095Y7184523D01*
X-2160714Y7089285D01*
X-2208333Y7041666D01*
X-2303571Y6994047D01*
X-2494047Y6994047D01*
X-2589285Y6946428D01*
X-2636904Y6898809D01*
X-2684523Y6803571D01*
X-2684523Y6613095D01*
X-2636904Y6517857D01*
X-2589285Y6470238D01*
X-2494047Y6422619D01*
X-2303571Y6422619D01*
X-2208333Y6470238D01*
X-2160714Y6517857D01*
X-2113095Y6613095D01*
X-2113095Y6803571D01*
X-2160714Y6898809D01*
X-2208333Y6946428D01*
X-2303571Y6994047D01*
X2160714Y6422619D02*
X2160714Y7422619D01*
X2398809Y7422619D01*
X2541666Y7375000D01*
X2636904Y7279761D01*
X2684523Y7184523D01*
X2732142Y6994047D01*
X2732142Y6851190D01*
X2684523Y6660714D01*
X2636904Y6565476D01*
X2541666Y6470238D01*
X2398809Y6422619D01*
X2160714Y6422619D01*
X3113095Y7327380D02*
X3160714Y7375000D01*
X3255952Y7422619D01*
X3494047Y7422619D01*
X3589285Y7375000D01*
X3636904Y7327380D01*
X3684523Y7232142D01*
X3684523Y7136904D01*
X3636904Y6994047D01*
X3065476Y6422619D01*
X3684523Y6422619D01*
X4160714Y6422619D02*
X4351190Y6422619D01*
X4446428Y6470238D01*
X4494047Y6517857D01*
X4589285Y6660714D01*
X4636904Y6851190D01*
X4636904Y7232142D01*
X4589285Y7327380D01*
X4541666Y7375000D01*
X4446428Y7422619D01*
X4255952Y7422619D01*
X4160714Y7375000D01*
X4113095Y7327380D01*
X4065476Y7232142D01*
X4065476Y6994047D01*
X4113095Y6898809D01*
X4160714Y6851190D01*
X4255952Y6803571D01*
X4446428Y6803571D01*
X4541666Y6851190D01*
X4589285Y6898809D01*
X4636904Y6994047D01*
X15660714Y6422619D02*
X15660714Y7422619D01*
X15898809Y7422619D01*
X16041666Y7375000D01*
X16136904Y7279761D01*
X16184523Y7184523D01*
X16232142Y6994047D01*
X16232142Y6851190D01*
X16184523Y6660714D01*
X16136904Y6565476D01*
X16041666Y6470238D01*
X15898809Y6422619D01*
X15660714Y6422619D01*
X16565476Y7422619D02*
X17184523Y7422619D01*
X16851190Y7041666D01*
X16994047Y7041666D01*
X17089285Y6994047D01*
X17136904Y6946428D01*
X17184523Y6851190D01*
X17184523Y6613095D01*
X17136904Y6517857D01*
X17089285Y6470238D01*
X16994047Y6422619D01*
X16708333Y6422619D01*
X16613095Y6470238D01*
X16565476Y6517857D01*
X18136904Y6422619D02*
X17565476Y6422619D01*
X17851190Y6422619D02*
X17851190Y7422619D01*
X17755952Y7279761D01*
X17660714Y7184523D01*
X17565476Y7136904D01*
X22410714Y6422619D02*
X22410714Y7422619D01*
X22648809Y7422619D01*
X22791666Y7375000D01*
X22886904Y7279761D01*
X22934523Y7184523D01*
X22982142Y6994047D01*
X22982142Y6851190D01*
X22934523Y6660714D01*
X22886904Y6565476D01*
X22791666Y6470238D01*
X22648809Y6422619D01*
X22410714Y6422619D01*
X23315476Y7422619D02*
X23934523Y7422619D01*
X23601190Y7041666D01*
X23744047Y7041666D01*
X23839285Y6994047D01*
X23886904Y6946428D01*
X23934523Y6851190D01*
X23934523Y6613095D01*
X23886904Y6517857D01*
X23839285Y6470238D01*
X23744047Y6422619D01*
X23458333Y6422619D01*
X23363095Y6470238D01*
X23315476Y6517857D01*
X24315476Y7327380D02*
X24363095Y7375000D01*
X24458333Y7422619D01*
X24696428Y7422619D01*
X24791666Y7375000D01*
X24839285Y7327380D01*
X24886904Y7232142D01*
X24886904Y7136904D01*
X24839285Y6994047D01*
X24267857Y6422619D01*
X24886904Y6422619D01*
X-24839285Y-327380D02*
X-24839285Y672619D01*
X-24601190Y672619D01*
X-24458333Y625000D01*
X-24363095Y529761D01*
X-24315476Y434523D01*
X-24267857Y244047D01*
X-24267857Y101190D01*
X-24315476Y-89285D01*
X-24363095Y-184523D01*
X-24458333Y-279761D01*
X-24601190Y-327380D01*
X-24839285Y-327380D01*
X-23934523Y672619D02*
X-23315476Y672619D01*
X-23648809Y291666D01*
X-23505952Y291666D01*
X-23410714Y244047D01*
X-23363095Y196428D01*
X-23315476Y101190D01*
X-23315476Y-136904D01*
X-23363095Y-232142D01*
X-23410714Y-279761D01*
X-23505952Y-327380D01*
X-23791666Y-327380D01*
X-23886904Y-279761D01*
X-23934523Y-232142D01*
X-22982142Y672619D02*
X-22363095Y672619D01*
X-22696428Y291666D01*
X-22553571Y291666D01*
X-22458333Y244047D01*
X-22410714Y196428D01*
X-22363095Y101190D01*
X-22363095Y-136904D01*
X-22410714Y-232142D01*
X-22458333Y-279761D01*
X-22553571Y-327380D01*
X-22839285Y-327380D01*
X-22934523Y-279761D01*
X-22982142Y-232142D01*
X-18089285Y-327380D02*
X-18089285Y672619D01*
X-17851190Y672619D01*
X-17708333Y625000D01*
X-17613095Y529761D01*
X-17565476Y434523D01*
X-17517857Y244047D01*
X-17517857Y101190D01*
X-17565476Y-89285D01*
X-17613095Y-184523D01*
X-17708333Y-279761D01*
X-17851190Y-327380D01*
X-18089285Y-327380D01*
X-17184523Y672619D02*
X-16565476Y672619D01*
X-16898809Y291666D01*
X-16755952Y291666D01*
X-16660714Y244047D01*
X-16613095Y196428D01*
X-16565476Y101190D01*
X-16565476Y-136904D01*
X-16613095Y-232142D01*
X-16660714Y-279761D01*
X-16755952Y-327380D01*
X-17041666Y-327380D01*
X-17136904Y-279761D01*
X-17184523Y-232142D01*
X-15708333Y339285D02*
X-15708333Y-327380D01*
X-15946428Y720238D02*
X-16184523Y5952D01*
X-15565476Y5952D01*
X-11339285Y-327380D02*
X-11339285Y672619D01*
X-11101190Y672619D01*
X-10958333Y625000D01*
X-10863095Y529761D01*
X-10815476Y434523D01*
X-10767857Y244047D01*
X-10767857Y101190D01*
X-10815476Y-89285D01*
X-10863095Y-184523D01*
X-10958333Y-279761D01*
X-11101190Y-327380D01*
X-11339285Y-327380D01*
X-10434523Y672619D02*
X-9815476Y672619D01*
X-10148809Y291666D01*
X-10005952Y291666D01*
X-9910714Y244047D01*
X-9863095Y196428D01*
X-9815476Y101190D01*
X-9815476Y-136904D01*
X-9863095Y-232142D01*
X-9910714Y-279761D01*
X-10005952Y-327380D01*
X-10291666Y-327380D01*
X-10386904Y-279761D01*
X-10434523Y-232142D01*
X-8910714Y672619D02*
X-9386904Y672619D01*
X-9434523Y196428D01*
X-9386904Y244047D01*
X-9291666Y291666D01*
X-9053571Y291666D01*
X-8958333Y244047D01*
X-8910714Y196428D01*
X-8863095Y101190D01*
X-8863095Y-136904D01*
X-8910714Y-232142D01*
X-8958333Y-279761D01*
X-9053571Y-327380D01*
X-9291666Y-327380D01*
X-9386904Y-279761D01*
X-9434523Y-232142D01*
X-4589285Y-327380D02*
X-4589285Y672619D01*
X-4351190Y672619D01*
X-4208333Y625000D01*
X-4113095Y529761D01*
X-4065476Y434523D01*
X-4017857Y244047D01*
X-4017857Y101190D01*
X-4065476Y-89285D01*
X-4113095Y-184523D01*
X-4208333Y-279761D01*
X-4351190Y-327380D01*
X-4589285Y-327380D01*
X-3684523Y672619D02*
X-3065476Y672619D01*
X-3398809Y291666D01*
X-3255952Y291666D01*
X-3160714Y244047D01*
X-3113095Y196428D01*
X-3065476Y101190D01*
X-3065476Y-136904D01*
X-3113095Y-232142D01*
X-3160714Y-279761D01*
X-3255952Y-327380D01*
X-3541666Y-327380D01*
X-3636904Y-279761D01*
X-3684523Y-232142D01*
X-2208333Y672619D02*
X-2398809Y672619D01*
X-2494047Y625000D01*
X-2541666Y577380D01*
X-2636904Y434523D01*
X-2684523Y244047D01*
X-2684523Y-136904D01*
X-2636904Y-232142D01*
X-2589285Y-279761D01*
X-2494047Y-327380D01*
X-2303571Y-327380D01*
X-2208333Y-279761D01*
X-2160714Y-232142D01*
X-2113095Y-136904D01*
X-2113095Y101190D01*
X-2160714Y196428D01*
X-2208333Y244047D01*
X-2303571Y291666D01*
X-2494047Y291666D01*
X-2589285Y244047D01*
X-2636904Y196428D01*
X-2684523Y101190D01*
X2160714Y-327380D02*
X2160714Y672619D01*
X2398809Y672619D01*
X2541666Y625000D01*
X2636904Y529761D01*
X2684523Y434523D01*
X2732142Y244047D01*
X2732142Y101190D01*
X2684523Y-89285D01*
X2636904Y-184523D01*
X2541666Y-279761D01*
X2398809Y-327380D01*
X2160714Y-327380D01*
X3065476Y672619D02*
X3684523Y672619D01*
X3351190Y291666D01*
X3494047Y291666D01*
X3589285Y244047D01*
X3636904Y196428D01*
X3684523Y101190D01*
X3684523Y-136904D01*
X3636904Y-232142D01*
X3589285Y-279761D01*
X3494047Y-327380D01*
X3208333Y-327380D01*
X3113095Y-279761D01*
X3065476Y-232142D01*
X4017857Y672619D02*
X4684523Y672619D01*
X4255952Y-327380D01*
X8910714Y-327380D02*
X8910714Y672619D01*
X9148809Y672619D01*
X9291666Y625000D01*
X9386904Y529761D01*
X9434523Y434523D01*
X9482142Y244047D01*
X9482142Y101190D01*
X9434523Y-89285D01*
X9386904Y-184523D01*
X9291666Y-279761D01*
X9148809Y-327380D01*
X8910714Y-327380D01*
X9815476Y672619D02*
X10434523Y672619D01*
X10101190Y291666D01*
X10244047Y291666D01*
X10339285Y244047D01*
X10386904Y196428D01*
X10434523Y101190D01*
X10434523Y-136904D01*
X10386904Y-232142D01*
X10339285Y-279761D01*
X10244047Y-327380D01*
X9958333Y-327380D01*
X9863095Y-279761D01*
X9815476Y-232142D01*
X11005952Y244047D02*
X10910714Y291666D01*
X10863095Y339285D01*
X10815476Y434523D01*
X10815476Y482142D01*
X10863095Y577380D01*
X10910714Y625000D01*
X11005952Y672619D01*
X11196428Y672619D01*
X11291666Y625000D01*
X11339285Y577380D01*
X11386904Y482142D01*
X11386904Y434523D01*
X11339285Y339285D01*
X11291666Y291666D01*
X11196428Y244047D01*
X11005952Y244047D01*
X10910714Y196428D01*
X10863095Y148809D01*
X10815476Y53571D01*
X10815476Y-136904D01*
X10863095Y-232142D01*
X10910714Y-279761D01*
X11005952Y-327380D01*
X11196428Y-327380D01*
X11291666Y-279761D01*
X11339285Y-232142D01*
X11386904Y-136904D01*
X11386904Y53571D01*
X11339285Y148809D01*
X11291666Y196428D01*
X11196428Y244047D01*
X15660714Y-327380D02*
X15660714Y672619D01*
X15898809Y672619D01*
X16041666Y625000D01*
X16136904Y529761D01*
X16184523Y434523D01*
X16232142Y244047D01*
X16232142Y101190D01*
X16184523Y-89285D01*
X16136904Y-184523D01*
X16041666Y-279761D01*
X15898809Y-327380D01*
X15660714Y-327380D01*
X16565476Y672619D02*
X17184523Y672619D01*
X16851190Y291666D01*
X16994047Y291666D01*
X17089285Y244047D01*
X17136904Y196428D01*
X17184523Y101190D01*
X17184523Y-136904D01*
X17136904Y-232142D01*
X17089285Y-279761D01*
X16994047Y-327380D01*
X16708333Y-327380D01*
X16613095Y-279761D01*
X16565476Y-232142D01*
X17660714Y-327380D02*
X17851190Y-327380D01*
X17946428Y-279761D01*
X17994047Y-232142D01*
X18089285Y-89285D01*
X18136904Y101190D01*
X18136904Y482142D01*
X18089285Y577380D01*
X18041666Y625000D01*
X17946428Y672619D01*
X17755952Y672619D01*
X17660714Y625000D01*
X17613095Y577380D01*
X17565476Y482142D01*
X17565476Y244047D01*
X17613095Y148809D01*
X17660714Y101190D01*
X17755952Y53571D01*
X17946428Y53571D01*
X18041666Y101190D01*
X18089285Y148809D01*
X18136904Y244047D01*
X22410714Y-327380D02*
X22410714Y672619D01*
X22648809Y672619D01*
X22791666Y625000D01*
X22886904Y529761D01*
X22934523Y434523D01*
X22982142Y244047D01*
X22982142Y101190D01*
X22934523Y-89285D01*
X22886904Y-184523D01*
X22791666Y-279761D01*
X22648809Y-327380D01*
X22410714Y-327380D01*
X23839285Y339285D02*
X23839285Y-327380D01*
X23601190Y720238D02*
X23363095Y5952D01*
X23982142Y5952D01*
X24553571Y672619D02*
X24648809Y672619D01*
X24744047Y625000D01*
X24791666Y577380D01*
X24839285Y482142D01*
X24886904Y291666D01*
X24886904Y53571D01*
X24839285Y-136904D01*
X24791666Y-232142D01*
X24744047Y-279761D01*
X24648809Y-327380D01*
X24553571Y-327380D01*
X24458333Y-279761D01*
X24410714Y-232142D01*
X24363095Y-136904D01*
X24315476Y53571D01*
X24315476Y291666D01*
X24363095Y482142D01*
X24410714Y577380D01*
X24458333Y625000D01*
X24553571Y672619D01*
X-24839285Y-7077380D02*
X-24839285Y-6077380D01*
X-24601190Y-6077380D01*
X-24458333Y-6125000D01*
X-24363095Y-6220238D01*
X-24315476Y-6315476D01*
X-24267857Y-6505952D01*
X-24267857Y-6648809D01*
X-24315476Y-6839285D01*
X-24363095Y-6934523D01*
X-24458333Y-7029761D01*
X-24601190Y-7077380D01*
X-24839285Y-7077380D01*
X-23410714Y-6410714D02*
X-23410714Y-7077380D01*
X-23648809Y-6029761D02*
X-23886904Y-6744047D01*
X-23267857Y-6744047D01*
X-22363095Y-7077380D02*
X-22934523Y-7077380D01*
X-22648809Y-7077380D02*
X-22648809Y-6077380D01*
X-22744047Y-6220238D01*
X-22839285Y-6315476D01*
X-22934523Y-6363095D01*
X-18089285Y-7077380D02*
X-18089285Y-6077380D01*
X-17851190Y-6077380D01*
X-17708333Y-6125000D01*
X-17613095Y-6220238D01*
X-17565476Y-6315476D01*
X-17517857Y-6505952D01*
X-17517857Y-6648809D01*
X-17565476Y-6839285D01*
X-17613095Y-6934523D01*
X-17708333Y-7029761D01*
X-17851190Y-7077380D01*
X-18089285Y-7077380D01*
X-16660714Y-6410714D02*
X-16660714Y-7077380D01*
X-16898809Y-6029761D02*
X-17136904Y-6744047D01*
X-16517857Y-6744047D01*
X-16184523Y-6172619D02*
X-16136904Y-6125000D01*
X-16041666Y-6077380D01*
X-15803571Y-6077380D01*
X-15708333Y-6125000D01*
X-15660714Y-6172619D01*
X-15613095Y-6267857D01*
X-15613095Y-6363095D01*
X-15660714Y-6505952D01*
X-16232142Y-7077380D01*
X-15613095Y-7077380D01*
X-11339285Y-7077380D02*
X-11339285Y-6077380D01*
X-11101190Y-6077380D01*
X-10958333Y-6125000D01*
X-10863095Y-6220238D01*
X-10815476Y-6315476D01*
X-10767857Y-6505952D01*
X-10767857Y-6648809D01*
X-10815476Y-6839285D01*
X-10863095Y-6934523D01*
X-10958333Y-7029761D01*
X-11101190Y-7077380D01*
X-11339285Y-7077380D01*
X-9910714Y-6410714D02*
X-9910714Y-7077380D01*
X-10148809Y-6029761D02*
X-10386904Y-6744047D01*
X-9767857Y-6744047D01*
X-9482142Y-6077380D02*
X-8863095Y-6077380D01*
X-9196428Y-6458333D01*
X-9053571Y-6458333D01*
X-8958333Y-6505952D01*
X-8910714Y-6553571D01*
X-8863095Y-6648809D01*
X-8863095Y-6886904D01*
X-8910714Y-6982142D01*
X-8958333Y-7029761D01*
X-9053571Y-7077380D01*
X-9339285Y-7077380D01*
X-9434523Y-7029761D01*
X-9482142Y-6982142D01*
X-4589285Y-7077380D02*
X-4589285Y-6077380D01*
X-4351190Y-6077380D01*
X-4208333Y-6125000D01*
X-4113095Y-6220238D01*
X-4065476Y-6315476D01*
X-4017857Y-6505952D01*
X-4017857Y-6648809D01*
X-4065476Y-6839285D01*
X-4113095Y-6934523D01*
X-4208333Y-7029761D01*
X-4351190Y-7077380D01*
X-4589285Y-7077380D01*
X-3160714Y-6410714D02*
X-3160714Y-7077380D01*
X-3398809Y-6029761D02*
X-3636904Y-6744047D01*
X-3017857Y-6744047D01*
X-2208333Y-6410714D02*
X-2208333Y-7077380D01*
X-2446428Y-6029761D02*
X-2684523Y-6744047D01*
X-2065476Y-6744047D01*
X2160714Y-7077380D02*
X2160714Y-6077380D01*
X2398809Y-6077380D01*
X2541666Y-6125000D01*
X2636904Y-6220238D01*
X2684523Y-6315476D01*
X2732142Y-6505952D01*
X2732142Y-6648809D01*
X2684523Y-6839285D01*
X2636904Y-6934523D01*
X2541666Y-7029761D01*
X2398809Y-7077380D01*
X2160714Y-7077380D01*
X3589285Y-6410714D02*
X3589285Y-7077380D01*
X3351190Y-6029761D02*
X3113095Y-6744047D01*
X3732142Y-6744047D01*
X4589285Y-6077380D02*
X4113095Y-6077380D01*
X4065476Y-6553571D01*
X4113095Y-6505952D01*
X4208333Y-6458333D01*
X4446428Y-6458333D01*
X4541666Y-6505952D01*
X4589285Y-6553571D01*
X4636904Y-6648809D01*
X4636904Y-6886904D01*
X4589285Y-6982142D01*
X4541666Y-7029761D01*
X4446428Y-7077380D01*
X4208333Y-7077380D01*
X4113095Y-7029761D01*
X4065476Y-6982142D01*
X8910714Y-7077380D02*
X8910714Y-6077380D01*
X9148809Y-6077380D01*
X9291666Y-6125000D01*
X9386904Y-6220238D01*
X9434523Y-6315476D01*
X9482142Y-6505952D01*
X9482142Y-6648809D01*
X9434523Y-6839285D01*
X9386904Y-6934523D01*
X9291666Y-7029761D01*
X9148809Y-7077380D01*
X8910714Y-7077380D01*
X10339285Y-6410714D02*
X10339285Y-7077380D01*
X10101190Y-6029761D02*
X9863095Y-6744047D01*
X10482142Y-6744047D01*
X11291666Y-6077380D02*
X11101190Y-6077380D01*
X11005952Y-6125000D01*
X10958333Y-6172619D01*
X10863095Y-6315476D01*
X10815476Y-6505952D01*
X10815476Y-6886904D01*
X10863095Y-6982142D01*
X10910714Y-7029761D01*
X11005952Y-7077380D01*
X11196428Y-7077380D01*
X11291666Y-7029761D01*
X11339285Y-6982142D01*
X11386904Y-6886904D01*
X11386904Y-6648809D01*
X11339285Y-6553571D01*
X11291666Y-6505952D01*
X11196428Y-6458333D01*
X11005952Y-6458333D01*
X10910714Y-6505952D01*
X10863095Y-6553571D01*
X10815476Y-6648809D01*
X15660714Y-7077380D02*
X15660714Y-6077380D01*
X15898809Y-6077380D01*
X16041666Y-6125000D01*
X16136904Y-6220238D01*
X16184523Y-6315476D01*
X16232142Y-6505952D01*
X16232142Y-6648809D01*
X16184523Y-6839285D01*
X16136904Y-6934523D01*
X16041666Y-7029761D01*
X15898809Y-7077380D01*
X15660714Y-7077380D01*
X17089285Y-6410714D02*
X17089285Y-7077380D01*
X16851190Y-6029761D02*
X16613095Y-6744047D01*
X17232142Y-6744047D01*
X17517857Y-6077380D02*
X18184523Y-6077380D01*
X17755952Y-7077380D01*
X22410714Y-7077380D02*
X22410714Y-6077380D01*
X22648809Y-6077380D01*
X22791666Y-6125000D01*
X22886904Y-6220238D01*
X22934523Y-6315476D01*
X22982142Y-6505952D01*
X22982142Y-6648809D01*
X22934523Y-6839285D01*
X22886904Y-6934523D01*
X22791666Y-7029761D01*
X22648809Y-7077380D01*
X22410714Y-7077380D01*
X23839285Y-6410714D02*
X23839285Y-7077380D01*
X23601190Y-6029761D02*
X23363095Y-6744047D01*
X23982142Y-6744047D01*
X24505952Y-6505952D02*
X24410714Y-6458333D01*
X24363095Y-6410714D01*
X24315476Y-6315476D01*
X24315476Y-6267857D01*
X24363095Y-6172619D01*
X24410714Y-6125000D01*
X24505952Y-6077380D01*
X24696428Y-6077380D01*
X24791666Y-6125000D01*
X24839285Y-6172619D01*
X24886904Y-6267857D01*
X24886904Y-6315476D01*
X24839285Y-6410714D01*
X24791666Y-6458333D01*
X24696428Y-6505952D01*
X24505952Y-6505952D01*
X24410714Y-6553571D01*
X24363095Y-6601190D01*
X24315476Y-6696428D01*
X24315476Y-6886904D01*
X24363095Y-6982142D01*
X24410714Y-7029761D01*
X24505952Y-7077380D01*
X24696428Y-7077380D01*
X24791666Y-7029761D01*
X24839285Y-6982142D01*
X24886904Y-6886904D01*
X24886904Y-6696428D01*
X24839285Y-6601190D01*
X24791666Y-6553571D01*
X24696428Y-6505952D01*
X-24839285Y-13827380D02*
X-24839285Y-12827380D01*
X-24601190Y-12827380D01*
X-24458333Y-12875000D01*
X-24363095Y-12970238D01*
X-24315476Y-13065476D01*
X-24267857Y-13255952D01*
X-24267857Y-13398809D01*
X-24315476Y-13589285D01*
X-24363095Y-13684523D01*
X-24458333Y-13779761D01*
X-24601190Y-13827380D01*
X-24839285Y-13827380D01*
X-23410714Y-13160714D02*
X-23410714Y-13827380D01*
X-23648809Y-12779761D02*
X-23886904Y-13494047D01*
X-23267857Y-13494047D01*
X-22839285Y-13827380D02*
X-22648809Y-13827380D01*
X-22553571Y-13779761D01*
X-22505952Y-13732142D01*
X-22410714Y-13589285D01*
X-22363095Y-13398809D01*
X-22363095Y-13017857D01*
X-22410714Y-12922619D01*
X-22458333Y-12875000D01*
X-22553571Y-12827380D01*
X-22744047Y-12827380D01*
X-22839285Y-12875000D01*
X-22886904Y-12922619D01*
X-22934523Y-13017857D01*
X-22934523Y-13255952D01*
X-22886904Y-13351190D01*
X-22839285Y-13398809D01*
X-22744047Y-13446428D01*
X-22553571Y-13446428D01*
X-22458333Y-13398809D01*
X-22410714Y-13351190D01*
X-22363095Y-13255952D01*
X-18089285Y-13827380D02*
X-18089285Y-12827380D01*
X-17851190Y-12827380D01*
X-17708333Y-12875000D01*
X-17613095Y-12970238D01*
X-17565476Y-13065476D01*
X-17517857Y-13255952D01*
X-17517857Y-13398809D01*
X-17565476Y-13589285D01*
X-17613095Y-13684523D01*
X-17708333Y-13779761D01*
X-17851190Y-13827380D01*
X-18089285Y-13827380D01*
X-16613095Y-12827380D02*
X-17089285Y-12827380D01*
X-17136904Y-13303571D01*
X-17089285Y-13255952D01*
X-16994047Y-13208333D01*
X-16755952Y-13208333D01*
X-16660714Y-13255952D01*
X-16613095Y-13303571D01*
X-16565476Y-13398809D01*
X-16565476Y-13636904D01*
X-16613095Y-13732142D01*
X-16660714Y-13779761D01*
X-16755952Y-13827380D01*
X-16994047Y-13827380D01*
X-17089285Y-13779761D01*
X-17136904Y-13732142D01*
X-15946428Y-12827380D02*
X-15851190Y-12827380D01*
X-15755952Y-12875000D01*
X-15708333Y-12922619D01*
X-15660714Y-13017857D01*
X-15613095Y-13208333D01*
X-15613095Y-13446428D01*
X-15660714Y-13636904D01*
X-15708333Y-13732142D01*
X-15755952Y-13779761D01*
X-15851190Y-13827380D01*
X-15946428Y-13827380D01*
X-16041666Y-13779761D01*
X-16089285Y-13732142D01*
X-16136904Y-13636904D01*
X-16184523Y-13446428D01*
X-16184523Y-13208333D01*
X-16136904Y-13017857D01*
X-16089285Y-12922619D01*
X-16041666Y-12875000D01*
X-15946428Y-12827380D01*
X-11339285Y-13827380D02*
X-11339285Y-12827380D01*
X-11101190Y-12827380D01*
X-10958333Y-12875000D01*
X-10863095Y-12970238D01*
X-10815476Y-13065476D01*
X-10767857Y-13255952D01*
X-10767857Y-13398809D01*
X-10815476Y-13589285D01*
X-10863095Y-13684523D01*
X-10958333Y-13779761D01*
X-11101190Y-13827380D01*
X-11339285Y-13827380D01*
X-9863095Y-12827380D02*
X-10339285Y-12827380D01*
X-10386904Y-13303571D01*
X-10339285Y-13255952D01*
X-10244047Y-13208333D01*
X-10005952Y-13208333D01*
X-9910714Y-13255952D01*
X-9863095Y-13303571D01*
X-9815476Y-13398809D01*
X-9815476Y-13636904D01*
X-9863095Y-13732142D01*
X-9910714Y-13779761D01*
X-10005952Y-13827380D01*
X-10244047Y-13827380D01*
X-10339285Y-13779761D01*
X-10386904Y-13732142D01*
X-8863095Y-13827380D02*
X-9434523Y-13827380D01*
X-9148809Y-13827380D02*
X-9148809Y-12827380D01*
X-9244047Y-12970238D01*
X-9339285Y-13065476D01*
X-9434523Y-13113095D01*
X2160714Y-13827380D02*
X2160714Y-12827380D01*
X2398809Y-12827380D01*
X2541666Y-12875000D01*
X2636904Y-12970238D01*
X2684523Y-13065476D01*
X2732142Y-13255952D01*
X2732142Y-13398809D01*
X2684523Y-13589285D01*
X2636904Y-13684523D01*
X2541666Y-13779761D01*
X2398809Y-13827380D01*
X2160714Y-13827380D01*
X3636904Y-12827380D02*
X3160714Y-12827380D01*
X3113095Y-13303571D01*
X3160714Y-13255952D01*
X3255952Y-13208333D01*
X3494047Y-13208333D01*
X3589285Y-13255952D01*
X3636904Y-13303571D01*
X3684523Y-13398809D01*
X3684523Y-13636904D01*
X3636904Y-13732142D01*
X3589285Y-13779761D01*
X3494047Y-13827380D01*
X3255952Y-13827380D01*
X3160714Y-13779761D01*
X3113095Y-13732142D01*
X4017857Y-12827380D02*
X4636904Y-12827380D01*
X4303571Y-13208333D01*
X4446428Y-13208333D01*
X4541666Y-13255952D01*
X4589285Y-13303571D01*
X4636904Y-13398809D01*
X4636904Y-13636904D01*
X4589285Y-13732142D01*
X4541666Y-13779761D01*
X4446428Y-13827380D01*
X4160714Y-13827380D01*
X4065476Y-13779761D01*
X4017857Y-13732142D01*
X8910714Y-13827380D02*
X8910714Y-12827380D01*
X9148809Y-12827380D01*
X9291666Y-12875000D01*
X9386904Y-12970238D01*
X9434523Y-13065476D01*
X9482142Y-13255952D01*
X9482142Y-13398809D01*
X9434523Y-13589285D01*
X9386904Y-13684523D01*
X9291666Y-13779761D01*
X9148809Y-13827380D01*
X8910714Y-13827380D01*
X10386904Y-12827380D02*
X9910714Y-12827380D01*
X9863095Y-13303571D01*
X9910714Y-13255952D01*
X10005952Y-13208333D01*
X10244047Y-13208333D01*
X10339285Y-13255952D01*
X10386904Y-13303571D01*
X10434523Y-13398809D01*
X10434523Y-13636904D01*
X10386904Y-13732142D01*
X10339285Y-13779761D01*
X10244047Y-13827380D01*
X10005952Y-13827380D01*
X9910714Y-13779761D01*
X9863095Y-13732142D01*
X11291666Y-13160714D02*
X11291666Y-13827380D01*
X11053571Y-12779761D02*
X10815476Y-13494047D01*
X11434523Y-13494047D01*
X15660714Y-13827380D02*
X15660714Y-12827380D01*
X15898809Y-12827380D01*
X16041666Y-12875000D01*
X16136904Y-12970238D01*
X16184523Y-13065476D01*
X16232142Y-13255952D01*
X16232142Y-13398809D01*
X16184523Y-13589285D01*
X16136904Y-13684523D01*
X16041666Y-13779761D01*
X15898809Y-13827380D01*
X15660714Y-13827380D01*
X17136904Y-12827380D02*
X16660714Y-12827380D01*
X16613095Y-13303571D01*
X16660714Y-13255952D01*
X16755952Y-13208333D01*
X16994047Y-13208333D01*
X17089285Y-13255952D01*
X17136904Y-13303571D01*
X17184523Y-13398809D01*
X17184523Y-13636904D01*
X17136904Y-13732142D01*
X17089285Y-13779761D01*
X16994047Y-13827380D01*
X16755952Y-13827380D01*
X16660714Y-13779761D01*
X16613095Y-13732142D01*
X18089285Y-12827380D02*
X17613095Y-12827380D01*
X17565476Y-13303571D01*
X17613095Y-13255952D01*
X17708333Y-13208333D01*
X17946428Y-13208333D01*
X18041666Y-13255952D01*
X18089285Y-13303571D01*
X18136904Y-13398809D01*
X18136904Y-13636904D01*
X18089285Y-13732142D01*
X18041666Y-13779761D01*
X17946428Y-13827380D01*
X17708333Y-13827380D01*
X17613095Y-13779761D01*
X17565476Y-13732142D01*
X22410714Y-13827380D02*
X22410714Y-12827380D01*
X22648809Y-12827380D01*
X22791666Y-12875000D01*
X22886904Y-12970238D01*
X22934523Y-13065476D01*
X22982142Y-13255952D01*
X22982142Y-13398809D01*
X22934523Y-13589285D01*
X22886904Y-13684523D01*
X22791666Y-13779761D01*
X22648809Y-13827380D01*
X22410714Y-13827380D01*
X23886904Y-12827380D02*
X23410714Y-12827380D01*
X23363095Y-13303571D01*
X23410714Y-13255952D01*
X23505952Y-13208333D01*
X23744047Y-13208333D01*
X23839285Y-13255952D01*
X23886904Y-13303571D01*
X23934523Y-13398809D01*
X23934523Y-13636904D01*
X23886904Y-13732142D01*
X23839285Y-13779761D01*
X23744047Y-13827380D01*
X23505952Y-13827380D01*
X23410714Y-13779761D01*
X23363095Y-13732142D01*
X24791666Y-12827380D02*
X24601190Y-12827380D01*
X24505952Y-12875000D01*
X24458333Y-12922619D01*
X24363095Y-13065476D01*
X24315476Y-13255952D01*
X24315476Y-13636904D01*
X24363095Y-13732142D01*
X24410714Y-13779761D01*
X24505952Y-13827380D01*
X24696428Y-13827380D01*
X24791666Y-13779761D01*
X24839285Y-13732142D01*
X24886904Y-13636904D01*
X24886904Y-13398809D01*
X24839285Y-13303571D01*
X24791666Y-13255952D01*
X24696428Y-13208333D01*
X24505952Y-13208333D01*
X24410714Y-13255952D01*
X24363095Y-13303571D01*
X24315476Y-13398809D01*
X-24839285Y-20577380D02*
X-24839285Y-19577380D01*
X-24601190Y-19577380D01*
X-24458333Y-19625000D01*
X-24363095Y-19720238D01*
X-24315476Y-19815476D01*
X-24267857Y-20005952D01*
X-24267857Y-20148809D01*
X-24315476Y-20339285D01*
X-24363095Y-20434523D01*
X-24458333Y-20529761D01*
X-24601190Y-20577380D01*
X-24839285Y-20577380D01*
X-23363095Y-19577380D02*
X-23839285Y-19577380D01*
X-23886904Y-20053571D01*
X-23839285Y-20005952D01*
X-23744047Y-19958333D01*
X-23505952Y-19958333D01*
X-23410714Y-20005952D01*
X-23363095Y-20053571D01*
X-23315476Y-20148809D01*
X-23315476Y-20386904D01*
X-23363095Y-20482142D01*
X-23410714Y-20529761D01*
X-23505952Y-20577380D01*
X-23744047Y-20577380D01*
X-23839285Y-20529761D01*
X-23886904Y-20482142D01*
X-22982142Y-19577380D02*
X-22315476Y-19577380D01*
X-22744047Y-20577380D01*
X-18089285Y-20577380D02*
X-18089285Y-19577380D01*
X-17851190Y-19577380D01*
X-17708333Y-19625000D01*
X-17613095Y-19720238D01*
X-17565476Y-19815476D01*
X-17517857Y-20005952D01*
X-17517857Y-20148809D01*
X-17565476Y-20339285D01*
X-17613095Y-20434523D01*
X-17708333Y-20529761D01*
X-17851190Y-20577380D01*
X-18089285Y-20577380D01*
X-16613095Y-19577380D02*
X-17089285Y-19577380D01*
X-17136904Y-20053571D01*
X-17089285Y-20005952D01*
X-16994047Y-19958333D01*
X-16755952Y-19958333D01*
X-16660714Y-20005952D01*
X-16613095Y-20053571D01*
X-16565476Y-20148809D01*
X-16565476Y-20386904D01*
X-16613095Y-20482142D01*
X-16660714Y-20529761D01*
X-16755952Y-20577380D01*
X-16994047Y-20577380D01*
X-17089285Y-20529761D01*
X-17136904Y-20482142D01*
X-15994047Y-20005952D02*
X-16089285Y-19958333D01*
X-16136904Y-19910714D01*
X-16184523Y-19815476D01*
X-16184523Y-19767857D01*
X-16136904Y-19672619D01*
X-16089285Y-19625000D01*
X-15994047Y-19577380D01*
X-15803571Y-19577380D01*
X-15708333Y-19625000D01*
X-15660714Y-19672619D01*
X-15613095Y-19767857D01*
X-15613095Y-19815476D01*
X-15660714Y-19910714D01*
X-15708333Y-19958333D01*
X-15803571Y-20005952D01*
X-15994047Y-20005952D01*
X-16089285Y-20053571D01*
X-16136904Y-20101190D01*
X-16184523Y-20196428D01*
X-16184523Y-20386904D01*
X-16136904Y-20482142D01*
X-16089285Y-20529761D01*
X-15994047Y-20577380D01*
X-15803571Y-20577380D01*
X-15708333Y-20529761D01*
X-15660714Y-20482142D01*
X-15613095Y-20386904D01*
X-15613095Y-20196428D01*
X-15660714Y-20101190D01*
X-15708333Y-20053571D01*
X-15803571Y-20005952D01*
X-11339285Y-20577380D02*
X-11339285Y-19577380D01*
X-11101190Y-19577380D01*
X-10958333Y-19625000D01*
X-10863095Y-19720238D01*
X-10815476Y-19815476D01*
X-10767857Y-20005952D01*
X-10767857Y-20148809D01*
X-10815476Y-20339285D01*
X-10863095Y-20434523D01*
X-10958333Y-20529761D01*
X-11101190Y-20577380D01*
X-11339285Y-20577380D01*
X-9863095Y-19577380D02*
X-10339285Y-19577380D01*
X-10386904Y-20053571D01*
X-10339285Y-20005952D01*
X-10244047Y-19958333D01*
X-10005952Y-19958333D01*
X-9910714Y-20005952D01*
X-9863095Y-20053571D01*
X-9815476Y-20148809D01*
X-9815476Y-20386904D01*
X-9863095Y-20482142D01*
X-9910714Y-20529761D01*
X-10005952Y-20577380D01*
X-10244047Y-20577380D01*
X-10339285Y-20529761D01*
X-10386904Y-20482142D01*
X-9339285Y-20577380D02*
X-9148809Y-20577380D01*
X-9053571Y-20529761D01*
X-9005952Y-20482142D01*
X-8910714Y-20339285D01*
X-8863095Y-20148809D01*
X-8863095Y-19767857D01*
X-8910714Y-19672619D01*
X-8958333Y-19625000D01*
X-9053571Y-19577380D01*
X-9244047Y-19577380D01*
X-9339285Y-19625000D01*
X-9386904Y-19672619D01*
X-9434523Y-19767857D01*
X-9434523Y-20005952D01*
X-9386904Y-20101190D01*
X-9339285Y-20148809D01*
X-9244047Y-20196428D01*
X-9053571Y-20196428D01*
X-8958333Y-20148809D01*
X-8910714Y-20101190D01*
X-8863095Y-20005952D01*
X-4589285Y-20577380D02*
X-4589285Y-19577380D01*
X-4351190Y-19577380D01*
X-4208333Y-19625000D01*
X-4113095Y-19720238D01*
X-4065476Y-19815476D01*
X-4017857Y-20005952D01*
X-4017857Y-20148809D01*
X-4065476Y-20339285D01*
X-4113095Y-20434523D01*
X-4208333Y-20529761D01*
X-4351190Y-20577380D01*
X-4589285Y-20577380D01*
X-3160714Y-19577380D02*
X-3351190Y-19577380D01*
X-3446428Y-19625000D01*
X-3494047Y-19672619D01*
X-3589285Y-19815476D01*
X-3636904Y-20005952D01*
X-3636904Y-20386904D01*
X-3589285Y-20482142D01*
X-3541666Y-20529761D01*
X-3446428Y-20577380D01*
X-3255952Y-20577380D01*
X-3160714Y-20529761D01*
X-3113095Y-20482142D01*
X-3065476Y-20386904D01*
X-3065476Y-20148809D01*
X-3113095Y-20053571D01*
X-3160714Y-20005952D01*
X-3255952Y-19958333D01*
X-3446428Y-19958333D01*
X-3541666Y-20005952D01*
X-3589285Y-20053571D01*
X-3636904Y-20148809D01*
X-2446428Y-19577380D02*
X-2351190Y-19577380D01*
X-2255952Y-19625000D01*
X-2208333Y-19672619D01*
X-2160714Y-19767857D01*
X-2113095Y-19958333D01*
X-2113095Y-20196428D01*
X-2160714Y-20386904D01*
X-2208333Y-20482142D01*
X-2255952Y-20529761D01*
X-2351190Y-20577380D01*
X-2446428Y-20577380D01*
X-2541666Y-20529761D01*
X-2589285Y-20482142D01*
X-2636904Y-20386904D01*
X-2684523Y-20196428D01*
X-2684523Y-19958333D01*
X-2636904Y-19767857D01*
X-2589285Y-19672619D01*
X-2541666Y-19625000D01*
X-2446428Y-19577380D01*
X2160714Y-20577380D02*
X2160714Y-19577380D01*
X2398809Y-19577380D01*
X2541666Y-19625000D01*
X2636904Y-19720238D01*
X2684523Y-19815476D01*
X2732142Y-20005952D01*
X2732142Y-20148809D01*
X2684523Y-20339285D01*
X2636904Y-20434523D01*
X2541666Y-20529761D01*
X2398809Y-20577380D01*
X2160714Y-20577380D01*
X3589285Y-19577380D02*
X3398809Y-19577380D01*
X3303571Y-19625000D01*
X3255952Y-19672619D01*
X3160714Y-19815476D01*
X3113095Y-20005952D01*
X3113095Y-20386904D01*
X3160714Y-20482142D01*
X3208333Y-20529761D01*
X3303571Y-20577380D01*
X3494047Y-20577380D01*
X3589285Y-20529761D01*
X3636904Y-20482142D01*
X3684523Y-20386904D01*
X3684523Y-20148809D01*
X3636904Y-20053571D01*
X3589285Y-20005952D01*
X3494047Y-19958333D01*
X3303571Y-19958333D01*
X3208333Y-20005952D01*
X3160714Y-20053571D01*
X3113095Y-20148809D01*
X4636904Y-20577380D02*
X4065476Y-20577380D01*
X4351190Y-20577380D02*
X4351190Y-19577380D01*
X4255952Y-19720238D01*
X4160714Y-19815476D01*
X4065476Y-19863095D01*
X8910714Y-20577380D02*
X8910714Y-19577380D01*
X9148809Y-19577380D01*
X9291666Y-19625000D01*
X9386904Y-19720238D01*
X9434523Y-19815476D01*
X9482142Y-20005952D01*
X9482142Y-20148809D01*
X9434523Y-20339285D01*
X9386904Y-20434523D01*
X9291666Y-20529761D01*
X9148809Y-20577380D01*
X8910714Y-20577380D01*
X10339285Y-19577380D02*
X10148809Y-19577380D01*
X10053571Y-19625000D01*
X10005952Y-19672619D01*
X9910714Y-19815476D01*
X9863095Y-20005952D01*
X9863095Y-20386904D01*
X9910714Y-20482142D01*
X9958333Y-20529761D01*
X10053571Y-20577380D01*
X10244047Y-20577380D01*
X10339285Y-20529761D01*
X10386904Y-20482142D01*
X10434523Y-20386904D01*
X10434523Y-20148809D01*
X10386904Y-20053571D01*
X10339285Y-20005952D01*
X10244047Y-19958333D01*
X10053571Y-19958333D01*
X9958333Y-20005952D01*
X9910714Y-20053571D01*
X9863095Y-20148809D01*
X10815476Y-19672619D02*
X10863095Y-19625000D01*
X10958333Y-19577380D01*
X11196428Y-19577380D01*
X11291666Y-19625000D01*
X11339285Y-19672619D01*
X11386904Y-19767857D01*
X11386904Y-19863095D01*
X11339285Y-20005952D01*
X10767857Y-20577380D01*
X11386904Y-20577380D01*
X15660714Y-20577380D02*
X15660714Y-19577380D01*
X15898809Y-19577380D01*
X16041666Y-19625000D01*
X16136904Y-19720238D01*
X16184523Y-19815476D01*
X16232142Y-20005952D01*
X16232142Y-20148809D01*
X16184523Y-20339285D01*
X16136904Y-20434523D01*
X16041666Y-20529761D01*
X15898809Y-20577380D01*
X15660714Y-20577380D01*
X17089285Y-19577380D02*
X16898809Y-19577380D01*
X16803571Y-19625000D01*
X16755952Y-19672619D01*
X16660714Y-19815476D01*
X16613095Y-20005952D01*
X16613095Y-20386904D01*
X16660714Y-20482142D01*
X16708333Y-20529761D01*
X16803571Y-20577380D01*
X16994047Y-20577380D01*
X17089285Y-20529761D01*
X17136904Y-20482142D01*
X17184523Y-20386904D01*
X17184523Y-20148809D01*
X17136904Y-20053571D01*
X17089285Y-20005952D01*
X16994047Y-19958333D01*
X16803571Y-19958333D01*
X16708333Y-20005952D01*
X16660714Y-20053571D01*
X16613095Y-20148809D01*
X17517857Y-19577380D02*
X18136904Y-19577380D01*
X17803571Y-19958333D01*
X17946428Y-19958333D01*
X18041666Y-20005952D01*
X18089285Y-20053571D01*
X18136904Y-20148809D01*
X18136904Y-20386904D01*
X18089285Y-20482142D01*
X18041666Y-20529761D01*
X17946428Y-20577380D01*
X17660714Y-20577380D01*
X17565476Y-20529761D01*
X17517857Y-20482142D01*
X22410714Y-20577380D02*
X22410714Y-19577380D01*
X22648809Y-19577380D01*
X22791666Y-19625000D01*
X22886904Y-19720238D01*
X22934523Y-19815476D01*
X22982142Y-20005952D01*
X22982142Y-20148809D01*
X22934523Y-20339285D01*
X22886904Y-20434523D01*
X22791666Y-20529761D01*
X22648809Y-20577380D01*
X22410714Y-20577380D01*
X23839285Y-19577380D02*
X23648809Y-19577380D01*
X23553571Y-19625000D01*
X23505952Y-19672619D01*
X23410714Y-19815476D01*
X23363095Y-20005952D01*
X23363095Y-20386904D01*
X23410714Y-20482142D01*
X23458333Y-20529761D01*
X23553571Y-20577380D01*
X23744047Y-20577380D01*
X23839285Y-20529761D01*
X23886904Y-20482142D01*
X23934523Y-20386904D01*
X23934523Y-20148809D01*
X23886904Y-20053571D01*
X23839285Y-20005952D01*
X23744047Y-19958333D01*
X23553571Y-19958333D01*
X23458333Y-20005952D01*
X23410714Y-20053571D01*
X23363095Y-20148809D01*
X24791666Y-19910714D02*
X24791666Y-20577380D01*
X24553571Y-19529761D02*
X24315476Y-20244047D01*
X24934523Y-20244047D01*
X-9435714Y-39427380D02*
X-8769047Y-40427380D01*
X-8769047Y-39427380D02*
X-9435714Y-40427380D01*
X-7911904Y-40427380D02*
X-8388095Y-40427380D01*
X-8388095Y-39427380D01*
X-7578571Y-40427380D02*
X-7578571Y-39427380D01*
X-7245238Y-40141666D01*
X-6911904Y-39427380D01*
X-6911904Y-40427380D01*
X-6483333Y-39522619D02*
X-6435714Y-39475000D01*
X-6340476Y-39427380D01*
X-6102380Y-39427380D01*
X-6007142Y-39475000D01*
X-5959523Y-39522619D01*
X-5911904Y-39617857D01*
X-5911904Y-39713095D01*
X-5959523Y-39855952D01*
X-6530952Y-40427380D01*
X-5911904Y-40427380D01*
X29448333Y24092857D02*
X29400714Y24045238D01*
X29257857Y23997619D01*
X29162619Y23997619D01*
X29019761Y24045238D01*
X28924523Y24140476D01*
X28876904Y24235714D01*
X28829285Y24426190D01*
X28829285Y24569047D01*
X28876904Y24759523D01*
X28924523Y24854761D01*
X29019761Y24950000D01*
X29162619Y24997619D01*
X29257857Y24997619D01*
X29400714Y24950000D01*
X29448333Y24902380D01*
X30400714Y23997619D02*
X29829285Y23997619D01*
X30115000Y23997619D02*
X30115000Y24997619D01*
X30019761Y24854761D01*
X29924523Y24759523D01*
X29829285Y24711904D01*
X29448333Y16492857D02*
X29400714Y16445238D01*
X29257857Y16397619D01*
X29162619Y16397619D01*
X29019761Y16445238D01*
X28924523Y16540476D01*
X28876904Y16635714D01*
X28829285Y16826190D01*
X28829285Y16969047D01*
X28876904Y17159523D01*
X28924523Y17254761D01*
X29019761Y17350000D01*
X29162619Y17397619D01*
X29257857Y17397619D01*
X29400714Y17350000D01*
X29448333Y17302380D01*
X29829285Y17302380D02*
X29876904Y17350000D01*
X29972142Y17397619D01*
X30210238Y17397619D01*
X30305476Y17350000D01*
X30353095Y17302380D01*
X30400714Y17207142D01*
X30400714Y17111904D01*
X30353095Y16969047D01*
X29781666Y16397619D01*
X30400714Y16397619D01*
X29448333Y10492857D02*
X29400714Y10445238D01*
X29257857Y10397619D01*
X29162619Y10397619D01*
X29019761Y10445238D01*
X28924523Y10540476D01*
X28876904Y10635714D01*
X28829285Y10826190D01*
X28829285Y10969047D01*
X28876904Y11159523D01*
X28924523Y11254761D01*
X29019761Y11350000D01*
X29162619Y11397619D01*
X29257857Y11397619D01*
X29400714Y11350000D01*
X29448333Y11302380D01*
X29781666Y11397619D02*
X30400714Y11397619D01*
X30067380Y11016666D01*
X30210238Y11016666D01*
X30305476Y10969047D01*
X30353095Y10921428D01*
X30400714Y10826190D01*
X30400714Y10588095D01*
X30353095Y10492857D01*
X30305476Y10445238D01*
X30210238Y10397619D01*
X29924523Y10397619D01*
X29829285Y10445238D01*
X29781666Y10492857D01*
X29448333Y3792857D02*
X29400714Y3745238D01*
X29257857Y3697619D01*
X29162619Y3697619D01*
X29019761Y3745238D01*
X28924523Y3840476D01*
X28876904Y3935714D01*
X28829285Y4126190D01*
X28829285Y4269047D01*
X28876904Y4459523D01*
X28924523Y4554761D01*
X29019761Y4650000D01*
X29162619Y4697619D01*
X29257857Y4697619D01*
X29400714Y4650000D01*
X29448333Y4602380D01*
X30305476Y4364285D02*
X30305476Y3697619D01*
X30067380Y4745238D02*
X29829285Y4030952D01*
X30448333Y4030952D01*
X29448333Y-3007142D02*
X29400714Y-3054761D01*
X29257857Y-3102380D01*
X29162619Y-3102380D01*
X29019761Y-3054761D01*
X28924523Y-2959523D01*
X28876904Y-2864285D01*
X28829285Y-2673809D01*
X28829285Y-2530952D01*
X28876904Y-2340476D01*
X28924523Y-2245238D01*
X29019761Y-2150000D01*
X29162619Y-2102380D01*
X29257857Y-2102380D01*
X29400714Y-2150000D01*
X29448333Y-2197619D01*
X30353095Y-2102380D02*
X29876904Y-2102380D01*
X29829285Y-2578571D01*
X29876904Y-2530952D01*
X29972142Y-2483333D01*
X30210238Y-2483333D01*
X30305476Y-2530952D01*
X30353095Y-2578571D01*
X30400714Y-2673809D01*
X30400714Y-2911904D01*
X30353095Y-3007142D01*
X30305476Y-3054761D01*
X30210238Y-3102380D01*
X29972142Y-3102380D01*
X29876904Y-3054761D01*
X29829285Y-3007142D01*
X29448333Y-9807142D02*
X29400714Y-9854761D01*
X29257857Y-9902380D01*
X29162619Y-9902380D01*
X29019761Y-9854761D01*
X28924523Y-9759523D01*
X28876904Y-9664285D01*
X28829285Y-9473809D01*
X28829285Y-9330952D01*
X28876904Y-9140476D01*
X28924523Y-9045238D01*
X29019761Y-8950000D01*
X29162619Y-8902380D01*
X29257857Y-8902380D01*
X29400714Y-8950000D01*
X29448333Y-8997619D01*
X30305476Y-8902380D02*
X30115000Y-8902380D01*
X30019761Y-8950000D01*
X29972142Y-8997619D01*
X29876904Y-9140476D01*
X29829285Y-9330952D01*
X29829285Y-9711904D01*
X29876904Y-9807142D01*
X29924523Y-9854761D01*
X30019761Y-9902380D01*
X30210238Y-9902380D01*
X30305476Y-9854761D01*
X30353095Y-9807142D01*
X30400714Y-9711904D01*
X30400714Y-9473809D01*
X30353095Y-9378571D01*
X30305476Y-9330952D01*
X30210238Y-9283333D01*
X30019761Y-9283333D01*
X29924523Y-9330952D01*
X29876904Y-9378571D01*
X29829285Y-9473809D01*
X29448333Y-16507142D02*
X29400714Y-16554761D01*
X29257857Y-16602380D01*
X29162619Y-16602380D01*
X29019761Y-16554761D01*
X28924523Y-16459523D01*
X28876904Y-16364285D01*
X28829285Y-16173809D01*
X28829285Y-16030952D01*
X28876904Y-15840476D01*
X28924523Y-15745238D01*
X29019761Y-15650000D01*
X29162619Y-15602380D01*
X29257857Y-15602380D01*
X29400714Y-15650000D01*
X29448333Y-15697619D01*
X29781666Y-15602380D02*
X30448333Y-15602380D01*
X30019761Y-16602380D01*
X29448333Y-23307142D02*
X29400714Y-23354761D01*
X29257857Y-23402380D01*
X29162619Y-23402380D01*
X29019761Y-23354761D01*
X28924523Y-23259523D01*
X28876904Y-23164285D01*
X28829285Y-22973809D01*
X28829285Y-22830952D01*
X28876904Y-22640476D01*
X28924523Y-22545238D01*
X29019761Y-22450000D01*
X29162619Y-22402380D01*
X29257857Y-22402380D01*
X29400714Y-22450000D01*
X29448333Y-22497619D01*
X30019761Y-22830952D02*
X29924523Y-22783333D01*
X29876904Y-22735714D01*
X29829285Y-22640476D01*
X29829285Y-22592857D01*
X29876904Y-22497619D01*
X29924523Y-22450000D01*
X30019761Y-22402380D01*
X30210238Y-22402380D01*
X30305476Y-22450000D01*
X30353095Y-22497619D01*
X30400714Y-22592857D01*
X30400714Y-22640476D01*
X30353095Y-22735714D01*
X30305476Y-22783333D01*
X30210238Y-22830952D01*
X30019761Y-22830952D01*
X29924523Y-22878571D01*
X29876904Y-22926190D01*
X29829285Y-23021428D01*
X29829285Y-23211904D01*
X29876904Y-23307142D01*
X29924523Y-23354761D01*
X30019761Y-23402380D01*
X30210238Y-23402380D01*
X30305476Y-23354761D01*
X30353095Y-23307142D01*
X30400714Y-23211904D01*
X30400714Y-23021428D01*
X30353095Y-22926190D01*
X30305476Y-22878571D01*
X30210238Y-22830952D01*
X5914285Y40547619D02*
X6580952Y39547619D01*
X6580952Y40547619D02*
X5914285Y39547619D01*
X7438095Y39547619D02*
X6961904Y39547619D01*
X6961904Y40547619D01*
X7771428Y39547619D02*
X7771428Y40547619D01*
X8104761Y39833333D01*
X8438095Y40547619D01*
X8438095Y39547619D01*
X8819047Y40547619D02*
X9438095Y40547619D01*
X9104761Y40166666D01*
X9247619Y40166666D01*
X9342857Y40119047D01*
X9390476Y40071428D01*
X9438095Y39976190D01*
X9438095Y39738095D01*
X9390476Y39642857D01*
X9342857Y39595238D01*
X9247619Y39547619D01*
X8961904Y39547619D01*
X8866666Y39595238D01*
X8819047Y39642857D01*
X-11033333Y29747619D02*
X-11033333Y29033333D01*
X-11080952Y28890476D01*
X-11176190Y28795238D01*
X-11319047Y28747619D01*
X-11414285Y28747619D01*
X-10652380Y29747619D02*
X-10033333Y29747619D01*
X-10366666Y29366666D01*
X-10223809Y29366666D01*
X-10128571Y29319047D01*
X-10080952Y29271428D01*
X-10033333Y29176190D01*
X-10033333Y28938095D01*
X-10080952Y28842857D01*
X-10128571Y28795238D01*
X-10223809Y28747619D01*
X-10509523Y28747619D01*
X-10604761Y28795238D01*
X-10652380Y28842857D01*
X10466666Y29847619D02*
X10466666Y29133333D01*
X10419047Y28990476D01*
X10323809Y28895238D01*
X10180952Y28847619D01*
X10085714Y28847619D01*
X11371428Y29514285D02*
X11371428Y28847619D01*
X11133333Y29895238D02*
X10895238Y29180952D01*
X11514285Y29180952D01*
X-11033333Y-28652380D02*
X-11033333Y-29366666D01*
X-11080952Y-29509523D01*
X-11176190Y-29604761D01*
X-11319047Y-29652380D01*
X-11414285Y-29652380D01*
X-10080952Y-28652380D02*
X-10557142Y-28652380D01*
X-10604761Y-29128571D01*
X-10557142Y-29080952D01*
X-10461904Y-29033333D01*
X-10223809Y-29033333D01*
X-10128571Y-29080952D01*
X-10080952Y-29128571D01*
X-10033333Y-29223809D01*
X-10033333Y-29461904D01*
X-10080952Y-29557142D01*
X-10128571Y-29604761D01*
X-10223809Y-29652380D01*
X-10461904Y-29652380D01*
X-10557142Y-29604761D01*
X-10604761Y-29557142D01*
X10366666Y-28652380D02*
X10366666Y-29366666D01*
X10319047Y-29509523D01*
X10223809Y-29604761D01*
X10080952Y-29652380D01*
X9985714Y-29652380D01*
X11271428Y-28652380D02*
X11080952Y-28652380D01*
X10985714Y-28700000D01*
X10938095Y-28747619D01*
X10842857Y-28890476D01*
X10795238Y-29080952D01*
X10795238Y-29461904D01*
X10842857Y-29557142D01*
X10890476Y-29604761D01*
X10985714Y-29652380D01*
X11176190Y-29652380D01*
X11271428Y-29604761D01*
X11319047Y-29557142D01*
X11366666Y-29461904D01*
X11366666Y-29223809D01*
X11319047Y-29128571D01*
X11271428Y-29080952D01*
X11176190Y-29033333D01*
X10985714Y-29033333D01*
X10890476Y-29080952D01*
X10842857Y-29128571D01*
X10795238Y-29223809D01*
M02*
