G04 #@! TF.GenerationSoftware,KiCad,Pcbnew,(5.1.2-1)-1*
G04 #@! TF.CreationDate,2021-03-21T18:44:29-05:00*
G04 #@! TF.ProjectId,Core64 LM v0.2,436f7265-3634-4204-9c4d-2076302e322e,0.3*
G04 #@! TF.SameCoordinates,Original*
G04 #@! TF.FileFunction,Legend,Bot*
G04 #@! TF.FilePolarity,Positive*
%FSLAX46Y46*%
G04 Gerber Fmt 4.6, Leading zero omitted, Abs format (unit mm)*
G04 Created by KiCad (PCBNEW (5.1.2-1)-1) date 2021-03-21 18:44:29*
%MOMM*%
%LPD*%
G04 APERTURE LIST*
%ADD10C,0.150000*%
%ADD11C,0.160000*%
%ADD12C,0.200000*%
%ADD13C,0.120000*%
%ADD14C,0.300000*%
%ADD15C,0.500000*%
G04 APERTURE END LIST*
D10*
X42107261Y-28902380D02*
X41535833Y-28902380D01*
X41821547Y-29902380D02*
X41821547Y-28902380D01*
X41202500Y-29378571D02*
X40869166Y-29378571D01*
X40726309Y-29902380D02*
X41202500Y-29902380D01*
X41202500Y-28902380D01*
X40726309Y-28902380D01*
X40297738Y-29378571D02*
X39964404Y-29378571D01*
X39821547Y-29902380D02*
X40297738Y-29902380D01*
X40297738Y-28902380D01*
X39821547Y-28902380D01*
X39392976Y-29902380D02*
X39392976Y-28902380D01*
X38821547Y-29902380D01*
X38821547Y-28902380D01*
X38392976Y-29854761D02*
X38250119Y-29902380D01*
X38012023Y-29902380D01*
X37916785Y-29854761D01*
X37869166Y-29807142D01*
X37821547Y-29711904D01*
X37821547Y-29616666D01*
X37869166Y-29521428D01*
X37916785Y-29473809D01*
X38012023Y-29426190D01*
X38202500Y-29378571D01*
X38297738Y-29330952D01*
X38345357Y-29283333D01*
X38392976Y-29188095D01*
X38392976Y-29092857D01*
X38345357Y-28997619D01*
X38297738Y-28950000D01*
X38202500Y-28902380D01*
X37964404Y-28902380D01*
X37821547Y-28950000D01*
X37202500Y-29426190D02*
X37202500Y-29902380D01*
X37535833Y-28902380D02*
X37202500Y-29426190D01*
X36869166Y-28902380D01*
X41392976Y-31457142D02*
X41440595Y-31504761D01*
X41583452Y-31552380D01*
X41678690Y-31552380D01*
X41821547Y-31504761D01*
X41916785Y-31409523D01*
X41964404Y-31314285D01*
X42012023Y-31123809D01*
X42012023Y-30980952D01*
X41964404Y-30790476D01*
X41916785Y-30695238D01*
X41821547Y-30600000D01*
X41678690Y-30552380D01*
X41583452Y-30552380D01*
X41440595Y-30600000D01*
X41392976Y-30647619D01*
X40964404Y-31552380D02*
X40964404Y-30552380D01*
X40964404Y-31028571D02*
X40392976Y-31028571D01*
X40392976Y-31552380D02*
X40392976Y-30552380D01*
X39964404Y-31266666D02*
X39488214Y-31266666D01*
X40059642Y-31552380D02*
X39726309Y-30552380D01*
X39392976Y-31552380D01*
X38488214Y-31552380D02*
X38821547Y-31076190D01*
X39059642Y-31552380D02*
X39059642Y-30552380D01*
X38678690Y-30552380D01*
X38583452Y-30600000D01*
X38535833Y-30647619D01*
X38488214Y-30742857D01*
X38488214Y-30885714D01*
X38535833Y-30980952D01*
X38583452Y-31028571D01*
X38678690Y-31076190D01*
X39059642Y-31076190D01*
X37535833Y-30600000D02*
X37631071Y-30552380D01*
X37773928Y-30552380D01*
X37916785Y-30600000D01*
X38012023Y-30695238D01*
X38059642Y-30790476D01*
X38107261Y-30980952D01*
X38107261Y-31123809D01*
X38059642Y-31314285D01*
X38012023Y-31409523D01*
X37916785Y-31504761D01*
X37773928Y-31552380D01*
X37678690Y-31552380D01*
X37535833Y-31504761D01*
X37488214Y-31457142D01*
X37488214Y-31123809D01*
X37678690Y-31123809D01*
X37059642Y-31028571D02*
X36726309Y-31028571D01*
X36583452Y-31552380D02*
X37059642Y-31552380D01*
X37059642Y-30552380D01*
X36583452Y-30552380D01*
X41964404Y-32678571D02*
X41631071Y-32678571D01*
X41488214Y-33202380D02*
X41964404Y-33202380D01*
X41964404Y-32202380D01*
X41488214Y-32202380D01*
X41059642Y-33202380D02*
X41059642Y-32202380D01*
X40488214Y-33202380D01*
X40488214Y-32202380D01*
X40059642Y-32916666D02*
X39583452Y-32916666D01*
X40154880Y-33202380D02*
X39821547Y-32202380D01*
X39488214Y-33202380D01*
X38821547Y-32678571D02*
X38678690Y-32726190D01*
X38631071Y-32773809D01*
X38583452Y-32869047D01*
X38583452Y-33011904D01*
X38631071Y-33107142D01*
X38678690Y-33154761D01*
X38773928Y-33202380D01*
X39154880Y-33202380D01*
X39154880Y-32202380D01*
X38821547Y-32202380D01*
X38726309Y-32250000D01*
X38678690Y-32297619D01*
X38631071Y-32392857D01*
X38631071Y-32488095D01*
X38678690Y-32583333D01*
X38726309Y-32630952D01*
X38821547Y-32678571D01*
X39154880Y-32678571D01*
X37678690Y-33202380D02*
X38154880Y-33202380D01*
X38154880Y-32202380D01*
X37345357Y-32678571D02*
X37012023Y-32678571D01*
X36869166Y-33202380D02*
X37345357Y-33202380D01*
X37345357Y-32202380D01*
X36869166Y-32202380D01*
D11*
X-16000000Y25000000D02*
X-16000000Y27000000D01*
X-14000000Y27000000D02*
X-16000000Y25000000D01*
X-16000000Y27000000D02*
X-14000000Y27000000D01*
X-16000000Y-25000000D02*
X-16000000Y-27000000D01*
X-14000000Y-27000000D02*
X-16000000Y-25000000D01*
X-16000000Y-27000000D02*
X-14000000Y-27000000D01*
X32000000Y-27000000D02*
X34000000Y-25000000D01*
X34000000Y-25000000D02*
X34000000Y-27000000D01*
X34000000Y-27000000D02*
X32000000Y-27000000D01*
X34000000Y27000000D02*
X34000000Y25000000D01*
X34000000Y27000000D02*
X32000000Y27000000D01*
X34000000Y25000000D02*
X32000000Y27000000D01*
D12*
X31370000Y29517857D02*
X32322380Y29160714D01*
X31370000Y28803571D01*
X30774761Y29160714D02*
X29822380Y29160714D01*
X28810476Y29339285D02*
X28631904Y29279761D01*
X28572380Y29220238D01*
X28512857Y29101190D01*
X28512857Y28922619D01*
X28572380Y28803571D01*
X28631904Y28744047D01*
X28750952Y28684523D01*
X29227142Y28684523D01*
X29227142Y29934523D01*
X28810476Y29934523D01*
X28691428Y29875000D01*
X28631904Y29815476D01*
X28572380Y29696428D01*
X28572380Y29577380D01*
X28631904Y29458333D01*
X28691428Y29398809D01*
X28810476Y29339285D01*
X29227142Y29339285D01*
X27441428Y28684523D02*
X27441428Y29339285D01*
X27500952Y29458333D01*
X27620000Y29517857D01*
X27858095Y29517857D01*
X27977142Y29458333D01*
X27441428Y28744047D02*
X27560476Y28684523D01*
X27858095Y28684523D01*
X27977142Y28744047D01*
X28036666Y28863095D01*
X28036666Y28982142D01*
X27977142Y29101190D01*
X27858095Y29160714D01*
X27560476Y29160714D01*
X27441428Y29220238D01*
X27024761Y29517857D02*
X26548571Y29517857D01*
X26846190Y29934523D02*
X26846190Y28863095D01*
X26786666Y28744047D01*
X26667619Y28684523D01*
X26548571Y28684523D01*
X26310476Y29517857D02*
X25834285Y29517857D01*
X26131904Y29934523D02*
X26131904Y28863095D01*
X26072380Y28744047D01*
X25953333Y28684523D01*
X25834285Y28684523D01*
X24941428Y28744047D02*
X25060476Y28684523D01*
X25298571Y28684523D01*
X25417619Y28744047D01*
X25477142Y28863095D01*
X25477142Y29339285D01*
X25417619Y29458333D01*
X25298571Y29517857D01*
X25060476Y29517857D01*
X24941428Y29458333D01*
X24881904Y29339285D01*
X24881904Y29220238D01*
X25477142Y29101190D01*
X24346190Y28684523D02*
X24346190Y29517857D01*
X24346190Y29279761D02*
X24286666Y29398809D01*
X24227142Y29458333D01*
X24108095Y29517857D01*
X23989047Y29517857D01*
X23691428Y29517857D02*
X23393809Y28684523D01*
X23096190Y29517857D02*
X23393809Y28684523D01*
X23512857Y28386904D01*
X23572380Y28327380D01*
X23691428Y28267857D01*
X20953333Y28803571D02*
X21012857Y28744047D01*
X21191428Y28684523D01*
X21310476Y28684523D01*
X21489047Y28744047D01*
X21608095Y28863095D01*
X21667619Y28982142D01*
X21727142Y29220238D01*
X21727142Y29398809D01*
X21667619Y29636904D01*
X21608095Y29755952D01*
X21489047Y29875000D01*
X21310476Y29934523D01*
X21191428Y29934523D01*
X21012857Y29875000D01*
X20953333Y29815476D01*
X20239047Y28684523D02*
X20358095Y28744047D01*
X20417619Y28803571D01*
X20477142Y28922619D01*
X20477142Y29279761D01*
X20417619Y29398809D01*
X20358095Y29458333D01*
X20239047Y29517857D01*
X20060476Y29517857D01*
X19941428Y29458333D01*
X19881904Y29398809D01*
X19822380Y29279761D01*
X19822380Y28922619D01*
X19881904Y28803571D01*
X19941428Y28744047D01*
X20060476Y28684523D01*
X20239047Y28684523D01*
X19286666Y28684523D02*
X19286666Y29517857D01*
X19286666Y29279761D02*
X19227142Y29398809D01*
X19167619Y29458333D01*
X19048571Y29517857D01*
X18929523Y29517857D01*
X18512857Y29517857D02*
X18512857Y28684523D01*
X18512857Y29398809D02*
X18453333Y29458333D01*
X18334285Y29517857D01*
X18155714Y29517857D01*
X18036666Y29458333D01*
X17977142Y29339285D01*
X17977142Y28684523D01*
X16905714Y28744047D02*
X17024761Y28684523D01*
X17262857Y28684523D01*
X17381904Y28744047D01*
X17441428Y28863095D01*
X17441428Y29339285D01*
X17381904Y29458333D01*
X17262857Y29517857D01*
X17024761Y29517857D01*
X16905714Y29458333D01*
X16846190Y29339285D01*
X16846190Y29220238D01*
X17441428Y29101190D01*
X16310476Y28684523D02*
X16310476Y29517857D01*
X16310476Y29279761D02*
X16250952Y29398809D01*
X16191428Y29458333D01*
X16072380Y29517857D01*
X15953333Y29517857D01*
D11*
X-16000000Y28000000D02*
X-16000000Y30000000D01*
X-14000000Y30000000D02*
X-16000000Y28000000D01*
X-16000000Y30000000D02*
X-14000000Y30000000D01*
X-16000000Y-28000000D02*
X-16000000Y-30000000D01*
X-14000000Y-30000000D02*
X-16000000Y-28000000D01*
X-16000000Y-30000000D02*
X-14000000Y-30000000D01*
X34000000Y-28000000D02*
X34000000Y-30000000D01*
X32000000Y-30000000D02*
X34000000Y-28000000D01*
X34000000Y-30000000D02*
X32000000Y-30000000D01*
X34000000Y28000000D02*
X32000000Y30000000D01*
X34000000Y30000000D02*
X34000000Y28000000D01*
X34000000Y30000000D02*
X32000000Y30000000D01*
D10*
X4628690Y547619D02*
X4628690Y-166666D01*
X4676309Y-309523D01*
X4771547Y-404761D01*
X4914404Y-452380D01*
X5009642Y-452380D01*
X3676309Y-452380D02*
X4152500Y-452380D01*
X4152500Y547619D01*
X2771547Y-357142D02*
X2819166Y-404761D01*
X2962023Y-452380D01*
X3057261Y-452380D01*
X3200119Y-404761D01*
X3295357Y-309523D01*
X3342976Y-214285D01*
X3390595Y-23809D01*
X3390595Y119047D01*
X3342976Y309523D01*
X3295357Y404761D01*
X3200119Y500000D01*
X3057261Y547619D01*
X2962023Y547619D01*
X2819166Y500000D01*
X2771547Y452380D01*
X2057261Y547619D02*
X2057261Y-166666D01*
X2104880Y-309523D01*
X2200119Y-404761D01*
X2342976Y-452380D01*
X2438214Y-452380D01*
X1104880Y-452380D02*
X1581071Y-452380D01*
X1581071Y547619D01*
X200119Y-357142D02*
X247738Y-404761D01*
X390595Y-452380D01*
X485833Y-452380D01*
X628690Y-404761D01*
X723928Y-309523D01*
X771547Y-214285D01*
X819166Y-23809D01*
X819166Y119047D01*
X771547Y309523D01*
X723928Y404761D01*
X628690Y500000D01*
X485833Y547619D01*
X390595Y547619D01*
X247738Y500000D01*
X200119Y452380D01*
X-514166Y547619D02*
X-514166Y-166666D01*
X-466547Y-309523D01*
X-371309Y-404761D01*
X-228452Y-452380D01*
X-133214Y-452380D01*
X-1466547Y-452380D02*
X-990357Y-452380D01*
X-990357Y547619D01*
X-2371309Y-357142D02*
X-2323690Y-404761D01*
X-2180833Y-452380D01*
X-2085595Y-452380D01*
X-1942738Y-404761D01*
X-1847500Y-309523D01*
X-1799880Y-214285D01*
X-1752261Y-23809D01*
X-1752261Y119047D01*
X-1799880Y309523D01*
X-1847500Y404761D01*
X-1942738Y500000D01*
X-2085595Y547619D01*
X-2180833Y547619D01*
X-2323690Y500000D01*
X-2371309Y452380D01*
X-3085595Y547619D02*
X-3085595Y-166666D01*
X-3037976Y-309523D01*
X-2942738Y-404761D01*
X-2799880Y-452380D01*
X-2704642Y-452380D01*
X-4037976Y-452380D02*
X-3561785Y-452380D01*
X-3561785Y547619D01*
X-4942738Y-357142D02*
X-4895119Y-404761D01*
X-4752261Y-452380D01*
X-4657023Y-452380D01*
X-4514166Y-404761D01*
X-4418928Y-309523D01*
X-4371309Y-214285D01*
X-4323690Y-23809D01*
X-4323690Y119047D01*
X-4371309Y309523D01*
X-4418928Y404761D01*
X-4514166Y500000D01*
X-4657023Y547619D01*
X-4752261Y547619D01*
X-4895119Y500000D01*
X-4942738Y452380D01*
D11*
X-26461142Y-39987142D02*
X-26575428Y-40062380D01*
X-26613523Y-40137619D01*
X-26651619Y-40288095D01*
X-26651619Y-40513809D01*
X-26613523Y-40664285D01*
X-26575428Y-40739523D01*
X-26499238Y-40814761D01*
X-26194476Y-40814761D01*
X-26194476Y-39234761D01*
X-26461142Y-39234761D01*
X-26537333Y-39310000D01*
X-26575428Y-39385238D01*
X-26613523Y-39535714D01*
X-26613523Y-39686190D01*
X-26575428Y-39836666D01*
X-26537333Y-39911904D01*
X-26461142Y-39987142D01*
X-26194476Y-39987142D01*
X-27146857Y-39234761D02*
X-27299238Y-39234761D01*
X-27375428Y-39310000D01*
X-27451619Y-39460476D01*
X-27489714Y-39761428D01*
X-27489714Y-40288095D01*
X-27451619Y-40589047D01*
X-27375428Y-40739523D01*
X-27299238Y-40814761D01*
X-27146857Y-40814761D01*
X-27070666Y-40739523D01*
X-26994476Y-40589047D01*
X-26956380Y-40288095D01*
X-26956380Y-39761428D01*
X-26994476Y-39460476D01*
X-27070666Y-39310000D01*
X-27146857Y-39234761D01*
X-27718285Y-39234761D02*
X-28175428Y-39234761D01*
X-27946857Y-40814761D02*
X-27946857Y-39234761D01*
X-28327809Y-39234761D02*
X-28784952Y-39234761D01*
X-28556380Y-40814761D02*
X-28556380Y-39234761D01*
X-29204000Y-39234761D02*
X-29356380Y-39234761D01*
X-29432571Y-39310000D01*
X-29508761Y-39460476D01*
X-29546857Y-39761428D01*
X-29546857Y-40288095D01*
X-29508761Y-40589047D01*
X-29432571Y-40739523D01*
X-29356380Y-40814761D01*
X-29204000Y-40814761D01*
X-29127809Y-40739523D01*
X-29051619Y-40589047D01*
X-29013523Y-40288095D01*
X-29013523Y-39761428D01*
X-29051619Y-39460476D01*
X-29127809Y-39310000D01*
X-29204000Y-39234761D01*
X-29889714Y-40814761D02*
X-29889714Y-39234761D01*
X-30156380Y-40363333D01*
X-30423047Y-39234761D01*
X-30423047Y-40814761D01*
X-31375428Y-40739523D02*
X-31489714Y-40814761D01*
X-31680190Y-40814761D01*
X-31756380Y-40739523D01*
X-31794476Y-40664285D01*
X-31832571Y-40513809D01*
X-31832571Y-40363333D01*
X-31794476Y-40212857D01*
X-31756380Y-40137619D01*
X-31680190Y-40062380D01*
X-31527809Y-39987142D01*
X-31451619Y-39911904D01*
X-31413523Y-39836666D01*
X-31375428Y-39686190D01*
X-31375428Y-39535714D01*
X-31413523Y-39385238D01*
X-31451619Y-39310000D01*
X-31527809Y-39234761D01*
X-31718285Y-39234761D01*
X-31832571Y-39310000D01*
X-32175428Y-40814761D02*
X-32175428Y-39234761D01*
X-32556380Y-40814761D02*
X-32556380Y-39234761D01*
X-32746857Y-39234761D01*
X-32861142Y-39310000D01*
X-32937333Y-39460476D01*
X-32975428Y-39610952D01*
X-33013523Y-39911904D01*
X-33013523Y-40137619D01*
X-32975428Y-40438571D01*
X-32937333Y-40589047D01*
X-32861142Y-40739523D01*
X-32746857Y-40814761D01*
X-32556380Y-40814761D01*
X-33356380Y-39987142D02*
X-33623047Y-39987142D01*
X-33737333Y-40814761D02*
X-33356380Y-40814761D01*
X-33356380Y-39234761D01*
X-33737333Y-39234761D01*
X-356380Y37360476D02*
X-470666Y37285238D01*
X-661142Y37285238D01*
X-737333Y37360476D01*
X-775428Y37435714D01*
X-813523Y37586190D01*
X-813523Y37736666D01*
X-775428Y37887142D01*
X-737333Y37962380D01*
X-661142Y38037619D01*
X-508761Y38112857D01*
X-432571Y38188095D01*
X-394476Y38263333D01*
X-356380Y38413809D01*
X-356380Y38564285D01*
X-394476Y38714761D01*
X-432571Y38790000D01*
X-508761Y38865238D01*
X-699238Y38865238D01*
X-813523Y38790000D01*
X-1613523Y37435714D02*
X-1575428Y37360476D01*
X-1461142Y37285238D01*
X-1384952Y37285238D01*
X-1270666Y37360476D01*
X-1194476Y37510952D01*
X-1156380Y37661428D01*
X-1118285Y37962380D01*
X-1118285Y38188095D01*
X-1156380Y38489047D01*
X-1194476Y38639523D01*
X-1270666Y38790000D01*
X-1384952Y38865238D01*
X-1461142Y38865238D01*
X-1575428Y38790000D01*
X-1613523Y38714761D01*
X-2337333Y37285238D02*
X-1956380Y37285238D01*
X-1956380Y38865238D01*
X-3175428Y37360476D02*
X-3289714Y37285238D01*
X-3480190Y37285238D01*
X-3556380Y37360476D01*
X-3594476Y37435714D01*
X-3632571Y37586190D01*
X-3632571Y37736666D01*
X-3594476Y37887142D01*
X-3556380Y37962380D01*
X-3480190Y38037619D01*
X-3327809Y38112857D01*
X-3251619Y38188095D01*
X-3213523Y38263333D01*
X-3175428Y38413809D01*
X-3175428Y38564285D01*
X-3213523Y38714761D01*
X-3251619Y38790000D01*
X-3327809Y38865238D01*
X-3518285Y38865238D01*
X-3632571Y38790000D01*
X-3975428Y37285238D02*
X-3975428Y38865238D01*
X-4165904Y38865238D01*
X-4280190Y38790000D01*
X-4356380Y38639523D01*
X-4394476Y38489047D01*
X-4432571Y38188095D01*
X-4432571Y37962380D01*
X-4394476Y37661428D01*
X-4356380Y37510952D01*
X-4280190Y37360476D01*
X-4165904Y37285238D01*
X-3975428Y37285238D01*
X-4737333Y37736666D02*
X-5118285Y37736666D01*
X-4661142Y37285238D02*
X-4927809Y38865238D01*
X-5194476Y37285238D01*
X3286476Y35090000D02*
X3362666Y35165238D01*
X3476952Y35165238D01*
X3591238Y35090000D01*
X3667428Y34939523D01*
X3705523Y34789047D01*
X3743619Y34488095D01*
X3743619Y34262380D01*
X3705523Y33961428D01*
X3667428Y33810952D01*
X3591238Y33660476D01*
X3476952Y33585238D01*
X3400761Y33585238D01*
X3286476Y33660476D01*
X3248380Y33735714D01*
X3248380Y34262380D01*
X3400761Y34262380D01*
X2905523Y33585238D02*
X2905523Y35165238D01*
X2448380Y33585238D01*
X2448380Y35165238D01*
X2067428Y33585238D02*
X2067428Y35165238D01*
X1876952Y35165238D01*
X1762666Y35090000D01*
X1686476Y34939523D01*
X1648380Y34789047D01*
X1610285Y34488095D01*
X1610285Y34262380D01*
X1648380Y33961428D01*
X1686476Y33810952D01*
X1762666Y33660476D01*
X1876952Y33585238D01*
X2067428Y33585238D01*
X1267428Y33585238D02*
X1267428Y35165238D01*
X1076952Y35165238D01*
X962666Y35090000D01*
X886476Y34939523D01*
X848380Y34789047D01*
X810285Y34488095D01*
X810285Y34262380D01*
X848380Y33961428D01*
X886476Y33810952D01*
X962666Y33660476D01*
X1076952Y33585238D01*
X1267428Y33585238D01*
X-4618285Y35165238D02*
X-5113523Y35165238D01*
X-4846857Y34563333D01*
X-4961142Y34563333D01*
X-5037333Y34488095D01*
X-5075428Y34412857D01*
X-5113523Y34262380D01*
X-5113523Y33886190D01*
X-5075428Y33735714D01*
X-5037333Y33660476D01*
X-4961142Y33585238D01*
X-4732571Y33585238D01*
X-4656380Y33660476D01*
X-4618285Y33735714D01*
X-5342095Y35165238D02*
X-5608761Y33585238D01*
X-5875428Y35165238D01*
X-6065904Y35165238D02*
X-6561142Y35165238D01*
X-6294476Y34563333D01*
X-6408761Y34563333D01*
X-6484952Y34488095D01*
X-6523047Y34412857D01*
X-6561142Y34262380D01*
X-6561142Y33886190D01*
X-6523047Y33735714D01*
X-6484952Y33660476D01*
X-6408761Y33585238D01*
X-6180190Y33585238D01*
X-6104000Y33660476D01*
X-6065904Y33735714D01*
X11281714Y35265238D02*
X10786476Y35265238D01*
X11053142Y34663333D01*
X10938857Y34663333D01*
X10862666Y34588095D01*
X10824571Y34512857D01*
X10786476Y34362380D01*
X10786476Y33986190D01*
X10824571Y33835714D01*
X10862666Y33760476D01*
X10938857Y33685238D01*
X11167428Y33685238D01*
X11243619Y33760476D01*
X11281714Y33835714D01*
X10557904Y35265238D02*
X10291238Y33685238D01*
X10024571Y35265238D01*
X9834095Y35265238D02*
X9338857Y35265238D01*
X9605523Y34663333D01*
X9491238Y34663333D01*
X9415047Y34588095D01*
X9376952Y34512857D01*
X9338857Y34362380D01*
X9338857Y33986190D01*
X9376952Y33835714D01*
X9415047Y33760476D01*
X9491238Y33685238D01*
X9719809Y33685238D01*
X9796000Y33760476D01*
X9834095Y33835714D01*
X4943619Y37260476D02*
X4829333Y37185238D01*
X4638857Y37185238D01*
X4562666Y37260476D01*
X4524571Y37335714D01*
X4486476Y37486190D01*
X4486476Y37636666D01*
X4524571Y37787142D01*
X4562666Y37862380D01*
X4638857Y37937619D01*
X4791238Y38012857D01*
X4867428Y38088095D01*
X4905523Y38163333D01*
X4943619Y38313809D01*
X4943619Y38464285D01*
X4905523Y38614761D01*
X4867428Y38690000D01*
X4791238Y38765238D01*
X4600761Y38765238D01*
X4486476Y38690000D01*
X3915047Y38765238D02*
X3915047Y37636666D01*
X3953142Y37410952D01*
X4029333Y37260476D01*
X4143619Y37185238D01*
X4219809Y37185238D01*
X3191238Y38238571D02*
X3191238Y37185238D01*
X3381714Y38840476D02*
X3572190Y37711904D01*
X3076952Y37711904D01*
X2200761Y37260476D02*
X2086476Y37185238D01*
X1895999Y37185238D01*
X1819809Y37260476D01*
X1781714Y37335714D01*
X1743619Y37486190D01*
X1743619Y37636666D01*
X1781714Y37787142D01*
X1819809Y37862380D01*
X1895999Y37937619D01*
X2048380Y38012857D01*
X2124571Y38088095D01*
X2162666Y38163333D01*
X2200761Y38313809D01*
X2200761Y38464285D01*
X2162666Y38614761D01*
X2124571Y38690000D01*
X2048380Y38765238D01*
X1857904Y38765238D01*
X1743619Y38690000D01*
X1172190Y38765238D02*
X1172190Y37636666D01*
X1210285Y37410952D01*
X1286476Y37260476D01*
X1400761Y37185238D01*
X1476952Y37185238D01*
X867428Y38765238D02*
X372190Y38765238D01*
X638857Y38163333D01*
X524571Y38163333D01*
X448380Y38088095D01*
X410285Y38012857D01*
X372190Y37862380D01*
X372190Y37486190D01*
X410285Y37335714D01*
X448380Y37260476D01*
X524571Y37185238D01*
X753142Y37185238D01*
X829333Y37260476D01*
X867428Y37335714D01*
X-5646857Y40865238D02*
X-5799238Y40865238D01*
X-5875428Y40790000D01*
X-5951619Y40639523D01*
X-5989714Y40338571D01*
X-5989714Y39811904D01*
X-5951619Y39510952D01*
X-5875428Y39360476D01*
X-5799238Y39285238D01*
X-5646857Y39285238D01*
X-5570666Y39360476D01*
X-5494476Y39510952D01*
X-5456380Y39811904D01*
X-5456380Y40338571D01*
X-5494476Y40639523D01*
X-5570666Y40790000D01*
X-5646857Y40865238D01*
X-6713523Y39285238D02*
X-6332571Y39285238D01*
X-6332571Y40865238D01*
X-6980190Y40112857D02*
X-7246857Y40112857D01*
X-7361142Y39285238D02*
X-6980190Y39285238D01*
X-6980190Y40865238D01*
X-7361142Y40865238D01*
X-7704000Y39285238D02*
X-7704000Y40865238D01*
X-7894476Y40865238D01*
X-8008761Y40790000D01*
X-8084952Y40639523D01*
X-8123047Y40489047D01*
X-8161142Y40188095D01*
X-8161142Y39962380D01*
X-8123047Y39661428D01*
X-8084952Y39510952D01*
X-8008761Y39360476D01*
X-7894476Y39285238D01*
X-7704000Y39285238D01*
D10*
X8859642Y40547619D02*
X8192976Y39547619D01*
X8192976Y40547619D02*
X8859642Y39547619D01*
X7335833Y39547619D02*
X7812023Y39547619D01*
X7812023Y40547619D01*
X7002500Y39547619D02*
X7002500Y40547619D01*
X6669166Y39833333D01*
X6335833Y40547619D01*
X6335833Y39547619D01*
X5954880Y40547619D02*
X5335833Y40547619D01*
X5669166Y40166666D01*
X5526309Y40166666D01*
X5431071Y40119047D01*
X5383452Y40071428D01*
X5335833Y39976190D01*
X5335833Y39738095D01*
X5383452Y39642857D01*
X5431071Y39595238D01*
X5526309Y39547619D01*
X5812023Y39547619D01*
X5907261Y39595238D01*
X5954880Y39642857D01*
D11*
X-17294476Y34365000D02*
X-17770666Y34365000D01*
X-17199238Y33936428D02*
X-17532571Y35436428D01*
X-17865904Y33936428D01*
X-18627809Y33936428D02*
X-18627809Y35436428D01*
X-18627809Y34007857D02*
X-18532571Y33936428D01*
X-18342095Y33936428D01*
X-18246857Y34007857D01*
X-18199238Y34079285D01*
X-18151619Y34222142D01*
X-18151619Y34650714D01*
X-18199238Y34793571D01*
X-18246857Y34865000D01*
X-18342095Y34936428D01*
X-18532571Y34936428D01*
X-18627809Y34865000D01*
X-19532571Y33936428D02*
X-19532571Y35436428D01*
X-19532571Y34007857D02*
X-19437333Y33936428D01*
X-19246857Y33936428D01*
X-19151619Y34007857D01*
X-19104000Y34079285D01*
X-19056380Y34222142D01*
X-19056380Y34650714D01*
X-19104000Y34793571D01*
X-19151619Y34865000D01*
X-19246857Y34936428D01*
X-19437333Y34936428D01*
X-19532571Y34865000D01*
X-20770666Y33936428D02*
X-20770666Y34936428D01*
X-20770666Y35436428D02*
X-20723047Y35365000D01*
X-20770666Y35293571D01*
X-20818285Y35365000D01*
X-20770666Y35436428D01*
X-20770666Y35293571D01*
X-21246857Y34936428D02*
X-21246857Y33936428D01*
X-21246857Y34793571D02*
X-21294476Y34865000D01*
X-21389714Y34936428D01*
X-21532571Y34936428D01*
X-21627809Y34865000D01*
X-21675428Y34722142D01*
X-21675428Y33936428D01*
X-22104000Y34007857D02*
X-22199238Y33936428D01*
X-22389714Y33936428D01*
X-22484952Y34007857D01*
X-22532571Y34150714D01*
X-22532571Y34222142D01*
X-22484952Y34365000D01*
X-22389714Y34436428D01*
X-22246857Y34436428D01*
X-22151619Y34507857D01*
X-22104000Y34650714D01*
X-22104000Y34722142D01*
X-22151619Y34865000D01*
X-22246857Y34936428D01*
X-22389714Y34936428D01*
X-22484952Y34865000D01*
X-23389714Y34936428D02*
X-23389714Y33936428D01*
X-22961142Y34936428D02*
X-22961142Y34150714D01*
X-23008761Y34007857D01*
X-23104000Y33936428D01*
X-23246857Y33936428D01*
X-23342095Y34007857D01*
X-23389714Y34079285D01*
X-24008761Y33936428D02*
X-23913523Y34007857D01*
X-23865904Y34150714D01*
X-23865904Y35436428D01*
X-24818285Y33936428D02*
X-24818285Y34722142D01*
X-24770666Y34865000D01*
X-24675428Y34936428D01*
X-24484952Y34936428D01*
X-24389714Y34865000D01*
X-24818285Y34007857D02*
X-24723047Y33936428D01*
X-24484952Y33936428D01*
X-24389714Y34007857D01*
X-24342095Y34150714D01*
X-24342095Y34293571D01*
X-24389714Y34436428D01*
X-24484952Y34507857D01*
X-24723047Y34507857D01*
X-24818285Y34579285D01*
X-25151619Y34936428D02*
X-25532571Y34936428D01*
X-25294476Y35436428D02*
X-25294476Y34150714D01*
X-25342095Y34007857D01*
X-25437333Y33936428D01*
X-25532571Y33936428D01*
X-25865904Y33936428D02*
X-25865904Y34936428D01*
X-25865904Y35436428D02*
X-25818285Y35365000D01*
X-25865904Y35293571D01*
X-25913523Y35365000D01*
X-25865904Y35436428D01*
X-25865904Y35293571D01*
X-26342095Y34936428D02*
X-26342095Y33936428D01*
X-26342095Y34793571D02*
X-26389714Y34865000D01*
X-26484952Y34936428D01*
X-26627809Y34936428D01*
X-26723047Y34865000D01*
X-26770666Y34722142D01*
X-26770666Y33936428D01*
X-27675428Y34936428D02*
X-27675428Y33722142D01*
X-27627809Y33579285D01*
X-27580190Y33507857D01*
X-27484952Y33436428D01*
X-27342095Y33436428D01*
X-27246857Y33507857D01*
X-27675428Y34007857D02*
X-27580190Y33936428D01*
X-27389714Y33936428D01*
X-27294476Y34007857D01*
X-27246857Y34079285D01*
X-27199238Y34222142D01*
X-27199238Y34650714D01*
X-27246857Y34793571D01*
X-27294476Y34865000D01*
X-27389714Y34936428D01*
X-27580190Y34936428D01*
X-27675428Y34865000D01*
X-17484952Y31526428D02*
X-17389714Y31597857D01*
X-17342095Y31740714D01*
X-17342095Y33026428D01*
X-18294476Y31526428D02*
X-18294476Y32312142D01*
X-18246857Y32455000D01*
X-18151619Y32526428D01*
X-17961142Y32526428D01*
X-17865904Y32455000D01*
X-18294476Y31597857D02*
X-18199238Y31526428D01*
X-17961142Y31526428D01*
X-17865904Y31597857D01*
X-17818285Y31740714D01*
X-17818285Y31883571D01*
X-17865904Y32026428D01*
X-17961142Y32097857D01*
X-18199238Y32097857D01*
X-18294476Y32169285D01*
X-18675428Y32526428D02*
X-18913523Y31526428D01*
X-19151619Y32526428D02*
X-18913523Y31526428D01*
X-18818285Y31169285D01*
X-18770666Y31097857D01*
X-18675428Y31026428D01*
X-19913523Y31597857D02*
X-19818285Y31526428D01*
X-19627809Y31526428D01*
X-19532571Y31597857D01*
X-19484952Y31740714D01*
X-19484952Y32312142D01*
X-19532571Y32455000D01*
X-19627809Y32526428D01*
X-19818285Y32526428D01*
X-19913523Y32455000D01*
X-19961142Y32312142D01*
X-19961142Y32169285D01*
X-19484952Y32026428D01*
X-20389714Y31526428D02*
X-20389714Y32526428D01*
X-20389714Y32240714D02*
X-20437333Y32383571D01*
X-20484952Y32455000D01*
X-20580190Y32526428D01*
X-20675428Y32526428D01*
X-21770666Y31526428D02*
X-21770666Y33026428D01*
X-21770666Y32455000D02*
X-21865904Y32526428D01*
X-22056380Y32526428D01*
X-22151619Y32455000D01*
X-22199238Y32383571D01*
X-22246857Y32240714D01*
X-22246857Y31812142D01*
X-22199238Y31669285D01*
X-22151619Y31597857D01*
X-22056380Y31526428D01*
X-21865904Y31526428D01*
X-21770666Y31597857D01*
X-23056380Y31597857D02*
X-22961142Y31526428D01*
X-22770666Y31526428D01*
X-22675428Y31597857D01*
X-22627809Y31740714D01*
X-22627809Y32312142D01*
X-22675428Y32455000D01*
X-22770666Y32526428D01*
X-22961142Y32526428D01*
X-23056380Y32455000D01*
X-23104000Y32312142D01*
X-23104000Y32169285D01*
X-22627809Y32026428D01*
X-23389714Y32526428D02*
X-23770666Y32526428D01*
X-23532571Y33026428D02*
X-23532571Y31740714D01*
X-23580190Y31597857D01*
X-23675428Y31526428D01*
X-23770666Y31526428D01*
X-24008761Y32526428D02*
X-24199238Y31526428D01*
X-24389714Y32240714D01*
X-24580190Y31526428D01*
X-24770666Y32526428D01*
X-25532571Y31597857D02*
X-25437333Y31526428D01*
X-25246857Y31526428D01*
X-25151619Y31597857D01*
X-25104000Y31740714D01*
X-25104000Y32312142D01*
X-25151619Y32455000D01*
X-25246857Y32526428D01*
X-25437333Y32526428D01*
X-25532571Y32455000D01*
X-25580190Y32312142D01*
X-25580190Y32169285D01*
X-25104000Y32026428D01*
X-26389714Y31597857D02*
X-26294476Y31526428D01*
X-26104000Y31526428D01*
X-26008761Y31597857D01*
X-25961142Y31740714D01*
X-25961142Y32312142D01*
X-26008761Y32455000D01*
X-26104000Y32526428D01*
X-26294476Y32526428D01*
X-26389714Y32455000D01*
X-26437333Y32312142D01*
X-26437333Y32169285D01*
X-25961142Y32026428D01*
X-26865904Y32526428D02*
X-26865904Y31526428D01*
X-26865904Y32383571D02*
X-26913523Y32455000D01*
X-27008761Y32526428D01*
X-27151619Y32526428D01*
X-27246857Y32455000D01*
X-27294476Y32312142D01*
X-27294476Y31526428D01*
X-17818285Y29116428D02*
X-17342095Y29116428D01*
X-17342095Y30616428D01*
X-18151619Y29116428D02*
X-18151619Y30116428D01*
X-18151619Y30616428D02*
X-18104000Y30545000D01*
X-18151619Y30473571D01*
X-18199238Y30545000D01*
X-18151619Y30616428D01*
X-18151619Y30473571D01*
X-18627809Y29116428D02*
X-18627809Y30616428D01*
X-19008761Y30616428D01*
X-19104000Y30545000D01*
X-19151619Y30473571D01*
X-19199238Y30330714D01*
X-19199238Y30116428D01*
X-19151619Y29973571D01*
X-19104000Y29902142D01*
X-19008761Y29830714D01*
X-18627809Y29830714D01*
X-19770666Y29116428D02*
X-19675428Y29187857D01*
X-19627809Y29259285D01*
X-19580190Y29402142D01*
X-19580190Y29830714D01*
X-19627809Y29973571D01*
X-19675428Y30045000D01*
X-19770666Y30116428D01*
X-19913523Y30116428D01*
X-20008761Y30045000D01*
X-20056380Y29973571D01*
X-20104000Y29830714D01*
X-20104000Y29402142D01*
X-20056380Y29259285D01*
X-20008761Y29187857D01*
X-19913523Y29116428D01*
X-19770666Y29116428D01*
X-21865904Y29259285D02*
X-21818285Y29187857D01*
X-21675428Y29116428D01*
X-21580190Y29116428D01*
X-21437333Y29187857D01*
X-21342095Y29330714D01*
X-21294476Y29473571D01*
X-21246857Y29759285D01*
X-21246857Y29973571D01*
X-21294476Y30259285D01*
X-21342095Y30402142D01*
X-21437333Y30545000D01*
X-21580190Y30616428D01*
X-21675428Y30616428D01*
X-21818285Y30545000D01*
X-21865904Y30473571D01*
X-22294476Y29116428D02*
X-22294476Y30616428D01*
X-22723047Y29116428D02*
X-22723047Y29902142D01*
X-22675428Y30045000D01*
X-22580190Y30116428D01*
X-22437333Y30116428D01*
X-22342095Y30045000D01*
X-22294476Y29973571D01*
X-23627809Y29116428D02*
X-23627809Y29902142D01*
X-23580190Y30045000D01*
X-23484952Y30116428D01*
X-23294476Y30116428D01*
X-23199238Y30045000D01*
X-23627809Y29187857D02*
X-23532571Y29116428D01*
X-23294476Y29116428D01*
X-23199238Y29187857D01*
X-23151619Y29330714D01*
X-23151619Y29473571D01*
X-23199238Y29616428D01*
X-23294476Y29687857D01*
X-23532571Y29687857D01*
X-23627809Y29759285D01*
X-24103999Y29116428D02*
X-24103999Y30116428D01*
X-24103999Y29830714D02*
X-24151619Y29973571D01*
X-24199238Y30045000D01*
X-24294476Y30116428D01*
X-24389714Y30116428D01*
X-25151619Y30116428D02*
X-25151619Y28902142D01*
X-25104000Y28759285D01*
X-25056380Y28687857D01*
X-24961142Y28616428D01*
X-24818285Y28616428D01*
X-24723047Y28687857D01*
X-25151619Y29187857D02*
X-25056380Y29116428D01*
X-24865904Y29116428D01*
X-24770666Y29187857D01*
X-24723047Y29259285D01*
X-24675428Y29402142D01*
X-24675428Y29830714D01*
X-24723047Y29973571D01*
X-24770666Y30045000D01*
X-24865904Y30116428D01*
X-25056380Y30116428D01*
X-25151619Y30045000D01*
X-26008761Y29187857D02*
X-25913523Y29116428D01*
X-25723047Y29116428D01*
X-25627809Y29187857D01*
X-25580190Y29330714D01*
X-25580190Y29902142D01*
X-25627809Y30045000D01*
X-25723047Y30116428D01*
X-25913523Y30116428D01*
X-26008761Y30045000D01*
X-26056380Y29902142D01*
X-26056380Y29759285D01*
X-25580190Y29616428D01*
X-26484952Y29116428D02*
X-26484952Y30116428D01*
X-26484952Y29830714D02*
X-26532571Y29973571D01*
X-26580190Y30045000D01*
X-26675428Y30116428D01*
X-26770666Y30116428D01*
X-28294476Y29116428D02*
X-28294476Y29902142D01*
X-28246857Y30045000D01*
X-28151619Y30116428D01*
X-27961142Y30116428D01*
X-27865904Y30045000D01*
X-28294476Y29187857D02*
X-28199238Y29116428D01*
X-27961142Y29116428D01*
X-27865904Y29187857D01*
X-27818285Y29330714D01*
X-27818285Y29473571D01*
X-27865904Y29616428D01*
X-27961142Y29687857D01*
X-28199238Y29687857D01*
X-28294476Y29759285D01*
X-28770666Y30116428D02*
X-28770666Y29116428D01*
X-28770666Y29973571D02*
X-28818285Y30045000D01*
X-28913523Y30116428D01*
X-29056380Y30116428D01*
X-29151619Y30045000D01*
X-29199238Y29902142D01*
X-29199238Y29116428D01*
X-30103999Y29116428D02*
X-30103999Y30616428D01*
X-30103999Y29187857D02*
X-30008761Y29116428D01*
X-29818285Y29116428D01*
X-29723047Y29187857D01*
X-29675428Y29259285D01*
X-29627809Y29402142D01*
X-29627809Y29830714D01*
X-29675428Y29973571D01*
X-29723047Y30045000D01*
X-29818285Y30116428D01*
X-30008761Y30116428D01*
X-30103999Y30045000D01*
X-17818285Y26706428D02*
X-17342095Y26706428D01*
X-17342095Y28206428D01*
X-18151619Y26706428D02*
X-18151619Y28206428D01*
X-18484952Y27135000D01*
X-18818285Y28206428D01*
X-18818285Y26706428D01*
X-20056380Y26706428D02*
X-20056380Y28206428D01*
X-20437333Y28206428D01*
X-20532571Y28135000D01*
X-20580190Y28063571D01*
X-20627809Y27920714D01*
X-20627809Y27706428D01*
X-20580190Y27563571D01*
X-20532571Y27492142D01*
X-20437333Y27420714D01*
X-20056380Y27420714D01*
X-21627809Y26849285D02*
X-21580190Y26777857D01*
X-21437333Y26706428D01*
X-21342095Y26706428D01*
X-21199238Y26777857D01*
X-21104000Y26920714D01*
X-21056380Y27063571D01*
X-21008761Y27349285D01*
X-21008761Y27563571D01*
X-21056380Y27849285D01*
X-21104000Y27992142D01*
X-21199238Y28135000D01*
X-21342095Y28206428D01*
X-21437333Y28206428D01*
X-21580190Y28135000D01*
X-21627809Y28063571D01*
X-22389714Y27492142D02*
X-22532571Y27420714D01*
X-22580190Y27349285D01*
X-22627809Y27206428D01*
X-22627809Y26992142D01*
X-22580190Y26849285D01*
X-22532571Y26777857D01*
X-22437333Y26706428D01*
X-22056380Y26706428D01*
X-22056380Y28206428D01*
X-22389714Y28206428D01*
X-22484952Y28135000D01*
X-22532571Y28063571D01*
X-22580190Y27920714D01*
X-22580190Y27777857D01*
X-22532571Y27635000D01*
X-22484952Y27563571D01*
X-22389714Y27492142D01*
X-22056380Y27492142D01*
X-23056380Y26849285D02*
X-23104000Y26777857D01*
X-23056380Y26706428D01*
X-23008761Y26777857D01*
X-23056380Y26849285D01*
X-23056380Y26706428D01*
X-39044476Y-20894761D02*
X-39044476Y-22173809D01*
X-39082571Y-22324285D01*
X-39120666Y-22399523D01*
X-39196857Y-22474761D01*
X-39349238Y-22474761D01*
X-39425428Y-22399523D01*
X-39463523Y-22324285D01*
X-39501619Y-22173809D01*
X-39501619Y-20894761D01*
X-39844476Y-22399523D02*
X-39958761Y-22474761D01*
X-40149238Y-22474761D01*
X-40225428Y-22399523D01*
X-40263523Y-22324285D01*
X-40301619Y-22173809D01*
X-40301619Y-22023333D01*
X-40263523Y-21872857D01*
X-40225428Y-21797619D01*
X-40149238Y-21722380D01*
X-39996857Y-21647142D01*
X-39920666Y-21571904D01*
X-39882571Y-21496666D01*
X-39844476Y-21346190D01*
X-39844476Y-21195714D01*
X-39882571Y-21045238D01*
X-39920666Y-20970000D01*
X-39996857Y-20894761D01*
X-40187333Y-20894761D01*
X-40301619Y-20970000D01*
X-41101619Y-22474761D02*
X-40834952Y-21722380D01*
X-40644476Y-22474761D02*
X-40644476Y-20894761D01*
X-40949238Y-20894761D01*
X-41025428Y-20970000D01*
X-41063523Y-21045238D01*
X-41101619Y-21195714D01*
X-41101619Y-21421428D01*
X-41063523Y-21571904D01*
X-41025428Y-21647142D01*
X-40949238Y-21722380D01*
X-40644476Y-21722380D01*
X-41406380Y-21045238D02*
X-41444476Y-20970000D01*
X-41520666Y-20894761D01*
X-41711142Y-20894761D01*
X-41787333Y-20970000D01*
X-41825428Y-21045238D01*
X-41863523Y-21195714D01*
X-41863523Y-21346190D01*
X-41825428Y-21571904D01*
X-41368285Y-22474761D01*
X-41863523Y-22474761D01*
X-39044476Y-23424761D02*
X-39044476Y-24703809D01*
X-39082571Y-24854285D01*
X-39120666Y-24929523D01*
X-39196857Y-25004761D01*
X-39349238Y-25004761D01*
X-39425428Y-24929523D01*
X-39463523Y-24854285D01*
X-39501619Y-24703809D01*
X-39501619Y-23424761D01*
X-39844476Y-24929523D02*
X-39958761Y-25004761D01*
X-40149238Y-25004761D01*
X-40225428Y-24929523D01*
X-40263523Y-24854285D01*
X-40301619Y-24703809D01*
X-40301619Y-24553333D01*
X-40263523Y-24402857D01*
X-40225428Y-24327619D01*
X-40149238Y-24252380D01*
X-39996857Y-24177142D01*
X-39920666Y-24101904D01*
X-39882571Y-24026666D01*
X-39844476Y-23876190D01*
X-39844476Y-23725714D01*
X-39882571Y-23575238D01*
X-39920666Y-23500000D01*
X-39996857Y-23424761D01*
X-40187333Y-23424761D01*
X-40301619Y-23500000D01*
X-41101619Y-25004761D02*
X-40834952Y-24252380D01*
X-40644476Y-25004761D02*
X-40644476Y-23424761D01*
X-40949238Y-23424761D01*
X-41025428Y-23500000D01*
X-41063523Y-23575238D01*
X-41101619Y-23725714D01*
X-41101619Y-23951428D01*
X-41063523Y-24101904D01*
X-41025428Y-24177142D01*
X-40949238Y-24252380D01*
X-40644476Y-24252380D01*
X-41368285Y-23424761D02*
X-41863523Y-23424761D01*
X-41596857Y-24026666D01*
X-41711142Y-24026666D01*
X-41787333Y-24101904D01*
X-41825428Y-24177142D01*
X-41863523Y-24327619D01*
X-41863523Y-24703809D01*
X-41825428Y-24854285D01*
X-41787333Y-24929523D01*
X-41711142Y-25004761D01*
X-41482571Y-25004761D01*
X-41406380Y-24929523D01*
X-41368285Y-24854285D01*
X-17527809Y-32265238D02*
X-17451619Y-32190000D01*
X-17375428Y-32039523D01*
X-17261142Y-31813809D01*
X-17184952Y-31738571D01*
X-17108761Y-31738571D01*
X-17146857Y-32114761D02*
X-17070666Y-32039523D01*
X-16994476Y-31889047D01*
X-16956380Y-31588095D01*
X-16956380Y-31061428D01*
X-16994476Y-30760476D01*
X-17070666Y-30610000D01*
X-17146857Y-30534761D01*
X-17299238Y-30534761D01*
X-17375428Y-30610000D01*
X-17451619Y-30760476D01*
X-17489714Y-31061428D01*
X-17489714Y-31588095D01*
X-17451619Y-31889047D01*
X-17375428Y-32039523D01*
X-17299238Y-32114761D01*
X-17146857Y-32114761D01*
X-17756380Y-30534761D02*
X-17946857Y-32114761D01*
X-18099238Y-30986190D01*
X-18251619Y-32114761D01*
X-18442095Y-30534761D01*
X-18746857Y-32114761D02*
X-18746857Y-30534761D01*
X-19127809Y-32114761D02*
X-19127809Y-30534761D01*
X-19965904Y-31964285D02*
X-19927809Y-32039523D01*
X-19813523Y-32114761D01*
X-19737333Y-32114761D01*
X-19623047Y-32039523D01*
X-19546857Y-31889047D01*
X-19508761Y-31738571D01*
X-19470666Y-31437619D01*
X-19470666Y-31211904D01*
X-19508761Y-30910952D01*
X-19546857Y-30760476D01*
X-19623047Y-30610000D01*
X-19737333Y-30534761D01*
X-19813523Y-30534761D01*
X-19927809Y-30610000D01*
X-19965904Y-30685238D01*
D13*
X-27611333Y-31028333D02*
X-27711333Y-31061666D01*
X-27878000Y-31061666D01*
X-27944666Y-31028333D01*
X-27978000Y-30995000D01*
X-28011333Y-30928333D01*
X-28011333Y-30861666D01*
X-27978000Y-30795000D01*
X-27944666Y-30761666D01*
X-27878000Y-30728333D01*
X-27744666Y-30695000D01*
X-27678000Y-30661666D01*
X-27644666Y-30628333D01*
X-27611333Y-30561666D01*
X-27611333Y-30495000D01*
X-27644666Y-30428333D01*
X-27678000Y-30395000D01*
X-27744666Y-30361666D01*
X-27911333Y-30361666D01*
X-28011333Y-30395000D01*
X-28711333Y-30995000D02*
X-28678000Y-31028333D01*
X-28578000Y-31061666D01*
X-28511333Y-31061666D01*
X-28411333Y-31028333D01*
X-28344666Y-30961666D01*
X-28311333Y-30895000D01*
X-28278000Y-30761666D01*
X-28278000Y-30661666D01*
X-28311333Y-30528333D01*
X-28344666Y-30461666D01*
X-28411333Y-30395000D01*
X-28511333Y-30361666D01*
X-28578000Y-30361666D01*
X-28678000Y-30395000D01*
X-28711333Y-30428333D01*
X-29344666Y-31061666D02*
X-29011333Y-31061666D01*
X-29011333Y-30361666D01*
X-27611333Y-32198333D02*
X-27711333Y-32231666D01*
X-27878000Y-32231666D01*
X-27944666Y-32198333D01*
X-27978000Y-32165000D01*
X-28011333Y-32098333D01*
X-28011333Y-32031666D01*
X-27978000Y-31965000D01*
X-27944666Y-31931666D01*
X-27878000Y-31898333D01*
X-27744666Y-31865000D01*
X-27678000Y-31831666D01*
X-27644666Y-31798333D01*
X-27611333Y-31731666D01*
X-27611333Y-31665000D01*
X-27644666Y-31598333D01*
X-27678000Y-31565000D01*
X-27744666Y-31531666D01*
X-27911333Y-31531666D01*
X-28011333Y-31565000D01*
X-28311333Y-32231666D02*
X-28311333Y-31531666D01*
X-28478000Y-31531666D01*
X-28578000Y-31565000D01*
X-28644666Y-31631666D01*
X-28678000Y-31698333D01*
X-28711333Y-31831666D01*
X-28711333Y-31931666D01*
X-28678000Y-32065000D01*
X-28644666Y-32131666D01*
X-28578000Y-32198333D01*
X-28478000Y-32231666D01*
X-28311333Y-32231666D01*
X-28978000Y-32031666D02*
X-29311333Y-32031666D01*
X-28911333Y-32231666D02*
X-29144666Y-31531666D01*
X-29378000Y-32231666D01*
X-27578000Y-32701666D02*
X-28011333Y-32701666D01*
X-27778000Y-32968333D01*
X-27878000Y-32968333D01*
X-27944666Y-33001666D01*
X-27978000Y-33035000D01*
X-28011333Y-33101666D01*
X-28011333Y-33268333D01*
X-27978000Y-33335000D01*
X-27944666Y-33368333D01*
X-27878000Y-33401666D01*
X-27678000Y-33401666D01*
X-27611333Y-33368333D01*
X-27578000Y-33335000D01*
X-28211333Y-32701666D02*
X-28444666Y-33401666D01*
X-28678000Y-32701666D01*
X-28844666Y-32701666D02*
X-29278000Y-32701666D01*
X-29044666Y-32968333D01*
X-29144666Y-32968333D01*
X-29211333Y-33001666D01*
X-29244666Y-33035000D01*
X-29278000Y-33101666D01*
X-29278000Y-33268333D01*
X-29244666Y-33335000D01*
X-29211333Y-33368333D01*
X-29144666Y-33401666D01*
X-28944666Y-33401666D01*
X-28878000Y-33368333D01*
X-28844666Y-33335000D01*
X-28011333Y-33905000D02*
X-27944666Y-33871666D01*
X-27844666Y-33871666D01*
X-27744666Y-33905000D01*
X-27678000Y-33971666D01*
X-27644666Y-34038333D01*
X-27611333Y-34171666D01*
X-27611333Y-34271666D01*
X-27644666Y-34405000D01*
X-27678000Y-34471666D01*
X-27744666Y-34538333D01*
X-27844666Y-34571666D01*
X-27911333Y-34571666D01*
X-28011333Y-34538333D01*
X-28044666Y-34505000D01*
X-28044666Y-34271666D01*
X-27911333Y-34271666D01*
X-28344666Y-34571666D02*
X-28344666Y-33871666D01*
X-28744666Y-34571666D01*
X-28744666Y-33871666D01*
X-29078000Y-34571666D02*
X-29078000Y-33871666D01*
X-29244666Y-33871666D01*
X-29344666Y-33905000D01*
X-29411333Y-33971666D01*
X-29444666Y-34038333D01*
X-29478000Y-34171666D01*
X-29478000Y-34271666D01*
X-29444666Y-34405000D01*
X-29411333Y-34471666D01*
X-29344666Y-34538333D01*
X-29244666Y-34571666D01*
X-29078000Y-34571666D01*
X-29778000Y-34571666D02*
X-29778000Y-33871666D01*
X-29944666Y-33871666D01*
X-30044666Y-33905000D01*
X-30111333Y-33971666D01*
X-30144666Y-34038333D01*
X-30178000Y-34171666D01*
X-30178000Y-34271666D01*
X-30144666Y-34405000D01*
X-30111333Y-34471666D01*
X-30044666Y-34538333D01*
X-29944666Y-34571666D01*
X-29778000Y-34571666D01*
D11*
X-35075428Y35295238D02*
X-34694476Y35295238D01*
X-34656380Y34542857D01*
X-34694476Y34618095D01*
X-34770666Y34693333D01*
X-34961142Y34693333D01*
X-35037333Y34618095D01*
X-35075428Y34542857D01*
X-35113523Y34392380D01*
X-35113523Y34016190D01*
X-35075428Y33865714D01*
X-35037333Y33790476D01*
X-34961142Y33715238D01*
X-34770666Y33715238D01*
X-34694476Y33790476D01*
X-34656380Y33865714D01*
X-35342095Y35295238D02*
X-35608761Y33715238D01*
X-35875428Y35295238D01*
X-36142095Y35295238D02*
X-36142095Y34016190D01*
X-36180190Y33865714D01*
X-36218285Y33790476D01*
X-36294476Y33715238D01*
X-36446857Y33715238D01*
X-36523047Y33790476D01*
X-36561142Y33865714D01*
X-36599238Y34016190D01*
X-36599238Y35295238D01*
X-36942095Y33790476D02*
X-37056380Y33715238D01*
X-37246857Y33715238D01*
X-37323047Y33790476D01*
X-37361142Y33865714D01*
X-37399238Y34016190D01*
X-37399238Y34166666D01*
X-37361142Y34317142D01*
X-37323047Y34392380D01*
X-37246857Y34467619D01*
X-37094476Y34542857D01*
X-37018285Y34618095D01*
X-36980190Y34693333D01*
X-36942095Y34843809D01*
X-36942095Y34994285D01*
X-36980190Y35144761D01*
X-37018285Y35220000D01*
X-37094476Y35295238D01*
X-37284952Y35295238D01*
X-37399238Y35220000D01*
X-38008761Y34542857D02*
X-38123047Y34467619D01*
X-38161142Y34392380D01*
X-38199238Y34241904D01*
X-38199238Y34016190D01*
X-38161142Y33865714D01*
X-38123047Y33790476D01*
X-38046857Y33715238D01*
X-37742095Y33715238D01*
X-37742095Y35295238D01*
X-38008761Y35295238D01*
X-38084952Y35220000D01*
X-38123047Y35144761D01*
X-38161142Y34994285D01*
X-38161142Y34843809D01*
X-38123047Y34693333D01*
X-38084952Y34618095D01*
X-38008761Y34542857D01*
X-37742095Y34542857D01*
X-34694476Y31185238D02*
X-34694476Y32765238D01*
X-34884952Y32765238D01*
X-34999238Y32690000D01*
X-35075428Y32539523D01*
X-35113523Y32389047D01*
X-35151619Y32088095D01*
X-35151619Y31862380D01*
X-35113523Y31561428D01*
X-35075428Y31410952D01*
X-34999238Y31260476D01*
X-34884952Y31185238D01*
X-34694476Y31185238D01*
X-35494476Y31787142D02*
X-36104000Y31787142D01*
X-34694476Y28655238D02*
X-34694476Y30235238D01*
X-34884952Y30235238D01*
X-34999238Y30160000D01*
X-35075428Y30009523D01*
X-35113523Y29859047D01*
X-35151619Y29558095D01*
X-35151619Y29332380D01*
X-35113523Y29031428D01*
X-35075428Y28880952D01*
X-34999238Y28730476D01*
X-34884952Y28655238D01*
X-34694476Y28655238D01*
X-35494476Y29257142D02*
X-36104000Y29257142D01*
X-35799238Y28655238D02*
X-35799238Y29859047D01*
D10*
X-2040357Y-41152380D02*
X-2707023Y-42152380D01*
X-2707023Y-41152380D02*
X-2040357Y-42152380D01*
X-3564166Y-42152380D02*
X-3087976Y-42152380D01*
X-3087976Y-41152380D01*
X-3897500Y-42152380D02*
X-3897500Y-41152380D01*
X-4230833Y-41866666D01*
X-4564166Y-41152380D01*
X-4564166Y-42152380D01*
X-4992738Y-41247619D02*
X-5040357Y-41200000D01*
X-5135595Y-41152380D01*
X-5373690Y-41152380D01*
X-5468928Y-41200000D01*
X-5516547Y-41247619D01*
X-5564166Y-41342857D01*
X-5564166Y-41438095D01*
X-5516547Y-41580952D01*
X-4945119Y-42152380D01*
X-5564166Y-42152380D01*
D11*
X7953142Y-39234761D02*
X7800761Y-39234761D01*
X7724571Y-39310000D01*
X7648380Y-39460476D01*
X7610285Y-39761428D01*
X7610285Y-40288095D01*
X7648380Y-40589047D01*
X7724571Y-40739523D01*
X7800761Y-40814761D01*
X7953142Y-40814761D01*
X8029333Y-40739523D01*
X8105523Y-40589047D01*
X8143619Y-40288095D01*
X8143619Y-39761428D01*
X8105523Y-39460476D01*
X8029333Y-39310000D01*
X7953142Y-39234761D01*
X6886476Y-40814761D02*
X7267428Y-40814761D01*
X7267428Y-39234761D01*
X6619809Y-39987142D02*
X6353142Y-39987142D01*
X6238857Y-40814761D02*
X6619809Y-40814761D01*
X6619809Y-39234761D01*
X6238857Y-39234761D01*
X5896000Y-40814761D02*
X5896000Y-39234761D01*
X5705523Y-39234761D01*
X5591238Y-39310000D01*
X5515047Y-39460476D01*
X5476952Y-39610952D01*
X5438857Y-39911904D01*
X5438857Y-40137619D01*
X5476952Y-40438571D01*
X5515047Y-40589047D01*
X5591238Y-40739523D01*
X5705523Y-40814761D01*
X5896000Y-40814761D01*
D10*
X-15537976Y41333333D02*
X-16014166Y41333333D01*
X-15442738Y41047619D02*
X-15776071Y42047619D01*
X-16109404Y41047619D01*
X-16442738Y41047619D02*
X-16442738Y42047619D01*
X-16680833Y42047619D01*
X-16823690Y42000000D01*
X-16918928Y41904761D01*
X-16966547Y41809523D01*
X-17014166Y41619047D01*
X-17014166Y41476190D01*
X-16966547Y41285714D01*
X-16918928Y41190476D01*
X-16823690Y41095238D01*
X-16680833Y41047619D01*
X-16442738Y41047619D01*
X-17395119Y41333333D02*
X-17871309Y41333333D01*
X-17299880Y41047619D02*
X-17633214Y42047619D01*
X-17966547Y41047619D01*
X-18633214Y41571428D02*
X-18299880Y41571428D01*
X-18299880Y41047619D02*
X-18299880Y42047619D01*
X-18776071Y42047619D01*
X-19728452Y41047619D02*
X-19395119Y41523809D01*
X-19157023Y41047619D02*
X-19157023Y42047619D01*
X-19537976Y42047619D01*
X-19633214Y42000000D01*
X-19680833Y41952380D01*
X-19728452Y41857142D01*
X-19728452Y41714285D01*
X-19680833Y41619047D01*
X-19633214Y41571428D01*
X-19537976Y41523809D01*
X-19157023Y41523809D01*
X-20157023Y42047619D02*
X-20157023Y41238095D01*
X-20204642Y41142857D01*
X-20252261Y41095238D01*
X-20347500Y41047619D01*
X-20537976Y41047619D01*
X-20633214Y41095238D01*
X-20680833Y41142857D01*
X-20728452Y41238095D01*
X-20728452Y42047619D01*
X-21204642Y41047619D02*
X-21204642Y42047619D01*
X-21537976Y42047619D02*
X-22109404Y42047619D01*
X-21823690Y41047619D02*
X-21823690Y42047619D01*
X-23157023Y41714285D02*
X-23871309Y41714285D01*
X-23442738Y42142857D02*
X-23157023Y40857142D01*
X-23776071Y41285714D02*
X-23061785Y41285714D01*
X-23490357Y40857142D02*
X-23776071Y42142857D01*
X-24633214Y41714285D02*
X-24633214Y41047619D01*
X-24395119Y42095238D02*
X-24157023Y41380952D01*
X-24776071Y41380952D01*
X-25585595Y41714285D02*
X-25585595Y41047619D01*
X-25347499Y42095238D02*
X-25109404Y41380952D01*
X-25728452Y41380952D01*
X-26633214Y41047619D02*
X-26061785Y41047619D01*
X-26347499Y41047619D02*
X-26347499Y42047619D01*
X-26252261Y41904761D01*
X-26157023Y41809523D01*
X-26061785Y41761904D01*
X-27252261Y42047619D02*
X-27347499Y42047619D01*
X-27442738Y42000000D01*
X-27490357Y41952380D01*
X-27537976Y41857142D01*
X-27585595Y41666666D01*
X-27585595Y41428571D01*
X-27537976Y41238095D01*
X-27490357Y41142857D01*
X-27442738Y41095238D01*
X-27347499Y41047619D01*
X-27252261Y41047619D01*
X-27157023Y41095238D01*
X-27109404Y41142857D01*
X-27061785Y41238095D01*
X-27014166Y41428571D01*
X-27014166Y41666666D01*
X-27061785Y41857142D01*
X-27109404Y41952380D01*
X-27157023Y42000000D01*
X-27252261Y42047619D01*
X-28776071Y42047619D02*
X-28776071Y41238095D01*
X-28823690Y41142857D01*
X-28871309Y41095238D01*
X-28966547Y41047619D01*
X-29157023Y41047619D01*
X-29252261Y41095238D01*
X-29299880Y41142857D01*
X-29347499Y41238095D01*
X-29347499Y42047619D01*
X-29776071Y41095238D02*
X-29918928Y41047619D01*
X-30157023Y41047619D01*
X-30252261Y41095238D01*
X-30299880Y41142857D01*
X-30347499Y41238095D01*
X-30347499Y41333333D01*
X-30299880Y41428571D01*
X-30252261Y41476190D01*
X-30157023Y41523809D01*
X-29966547Y41571428D01*
X-29871309Y41619047D01*
X-29823690Y41666666D01*
X-29776071Y41761904D01*
X-29776071Y41857142D01*
X-29823690Y41952380D01*
X-29871309Y42000000D01*
X-29966547Y42047619D01*
X-30204642Y42047619D01*
X-30347499Y42000000D01*
X-31109404Y41571428D02*
X-31252261Y41523809D01*
X-31299880Y41476190D01*
X-31347499Y41380952D01*
X-31347499Y41238095D01*
X-31299880Y41142857D01*
X-31252261Y41095238D01*
X-31157023Y41047619D01*
X-30776071Y41047619D01*
X-30776071Y42047619D01*
X-31109404Y42047619D01*
X-31204642Y42000000D01*
X-31252261Y41952380D01*
X-31299880Y41857142D01*
X-31299880Y41761904D01*
X-31252261Y41666666D01*
X-31204642Y41619047D01*
X-31109404Y41571428D01*
X-30776071Y41571428D01*
X-33109404Y41142857D02*
X-33061785Y41095238D01*
X-32918928Y41047619D01*
X-32823690Y41047619D01*
X-32680833Y41095238D01*
X-32585595Y41190476D01*
X-32537976Y41285714D01*
X-32490357Y41476190D01*
X-32490357Y41619047D01*
X-32537976Y41809523D01*
X-32585595Y41904761D01*
X-32680833Y42000000D01*
X-32823690Y42047619D01*
X-32918928Y42047619D01*
X-33061785Y42000000D01*
X-33109404Y41952380D01*
D14*
X33197857Y34632142D02*
X32983571Y34560714D01*
X32912142Y34489285D01*
X32840714Y34346428D01*
X32840714Y34132142D01*
X32912142Y33989285D01*
X32983571Y33917857D01*
X33126428Y33846428D01*
X33697857Y33846428D01*
X33697857Y35346428D01*
X33197857Y35346428D01*
X33055000Y35275000D01*
X32983571Y35203571D01*
X32912142Y35060714D01*
X32912142Y34917857D01*
X32983571Y34775000D01*
X33055000Y34703571D01*
X33197857Y34632142D01*
X33697857Y34632142D01*
X31555000Y33846428D02*
X31555000Y34632142D01*
X31626428Y34775000D01*
X31769285Y34846428D01*
X32055000Y34846428D01*
X32197857Y34775000D01*
X31555000Y33917857D02*
X31697857Y33846428D01*
X32055000Y33846428D01*
X32197857Y33917857D01*
X32269285Y34060714D01*
X32269285Y34203571D01*
X32197857Y34346428D01*
X32055000Y34417857D01*
X31697857Y34417857D01*
X31555000Y34489285D01*
X31055000Y34846428D02*
X30483571Y34846428D01*
X30840714Y35346428D02*
X30840714Y34060714D01*
X30769285Y33917857D01*
X30626428Y33846428D01*
X30483571Y33846428D01*
X30197857Y34846428D02*
X29626428Y34846428D01*
X29983571Y35346428D02*
X29983571Y34060714D01*
X29912142Y33917857D01*
X29769285Y33846428D01*
X29626428Y33846428D01*
X28555000Y33917857D02*
X28697857Y33846428D01*
X28983571Y33846428D01*
X29126428Y33917857D01*
X29197857Y34060714D01*
X29197857Y34632142D01*
X29126428Y34775000D01*
X28983571Y34846428D01*
X28697857Y34846428D01*
X28555000Y34775000D01*
X28483571Y34632142D01*
X28483571Y34489285D01*
X29197857Y34346428D01*
X27840714Y33846428D02*
X27840714Y34846428D01*
X27840714Y34560714D02*
X27769285Y34703571D01*
X27697857Y34775000D01*
X27555000Y34846428D01*
X27412142Y34846428D01*
X27055000Y34846428D02*
X26697857Y33846428D01*
X26340714Y34846428D02*
X26697857Y33846428D01*
X26840714Y33489285D01*
X26912142Y33417857D01*
X27055000Y33346428D01*
X23912142Y33846428D02*
X24626428Y33846428D01*
X24626428Y35346428D01*
X23412142Y33846428D02*
X23412142Y34846428D01*
X23412142Y35346428D02*
X23483571Y35275000D01*
X23412142Y35203571D01*
X23340714Y35275000D01*
X23412142Y35346428D01*
X23412142Y35203571D01*
X22697857Y33846428D02*
X22697857Y34846428D01*
X22697857Y34703571D02*
X22626428Y34775000D01*
X22483571Y34846428D01*
X22269285Y34846428D01*
X22126428Y34775000D01*
X22055000Y34632142D01*
X22055000Y33846428D01*
X22055000Y34632142D02*
X21983571Y34775000D01*
X21840714Y34846428D01*
X21626428Y34846428D01*
X21483571Y34775000D01*
X21412142Y34632142D01*
X21412142Y33846428D01*
X20697857Y33846428D02*
X20697857Y34846428D01*
X20697857Y35346428D02*
X20769285Y35275000D01*
X20697857Y35203571D01*
X20626428Y35275000D01*
X20697857Y35346428D01*
X20697857Y35203571D01*
X20197857Y34846428D02*
X19626428Y34846428D01*
X19983571Y35346428D02*
X19983571Y34060714D01*
X19912142Y33917857D01*
X19769285Y33846428D01*
X19626428Y33846428D01*
X19197857Y33917857D02*
X19055000Y33846428D01*
X18769285Y33846428D01*
X18626428Y33917857D01*
X18555000Y34060714D01*
X18555000Y34132142D01*
X18626428Y34275000D01*
X18769285Y34346428D01*
X18983571Y34346428D01*
X19126428Y34417857D01*
X19197857Y34560714D01*
X19197857Y34632142D01*
X19126428Y34775000D01*
X18983571Y34846428D01*
X18769285Y34846428D01*
X18626428Y34775000D01*
X17912142Y33989285D02*
X17840714Y33917857D01*
X17912142Y33846428D01*
X17983571Y33917857D01*
X17912142Y33989285D01*
X17912142Y33846428D01*
X17912142Y34775000D02*
X17840714Y34703571D01*
X17912142Y34632142D01*
X17983571Y34703571D01*
X17912142Y34775000D01*
X17912142Y34632142D01*
X32912142Y31296428D02*
X33769285Y31296428D01*
X33340714Y31296428D02*
X33340714Y32796428D01*
X33483571Y32582142D01*
X33626428Y32439285D01*
X33769285Y32367857D01*
X32340714Y31367857D02*
X32197857Y31296428D01*
X31912142Y31296428D01*
X31769285Y31367857D01*
X31697857Y31510714D01*
X31697857Y31582142D01*
X31769285Y31725000D01*
X31912142Y31796428D01*
X32126428Y31796428D01*
X32269285Y31867857D01*
X32340714Y32010714D01*
X32340714Y32082142D01*
X32269285Y32225000D01*
X32126428Y32296428D01*
X31912142Y32296428D01*
X31769285Y32225000D01*
X29697857Y31296428D02*
X29840714Y31367857D01*
X29912142Y31439285D01*
X29983571Y31582142D01*
X29983571Y32010714D01*
X29912142Y32153571D01*
X29840714Y32225000D01*
X29697857Y32296428D01*
X29483571Y32296428D01*
X29340714Y32225000D01*
X29269285Y32153571D01*
X29197857Y32010714D01*
X29197857Y31582142D01*
X29269285Y31439285D01*
X29340714Y31367857D01*
X29483571Y31296428D01*
X29697857Y31296428D01*
X28555000Y31296428D02*
X28555000Y32296428D01*
X28555000Y32010714D02*
X28483571Y32153571D01*
X28412142Y32225000D01*
X28269285Y32296428D01*
X28126428Y32296428D01*
X26626428Y32796428D02*
X25697857Y32796428D01*
X26197857Y32225000D01*
X25983571Y32225000D01*
X25840714Y32153571D01*
X25769285Y32082142D01*
X25697857Y31939285D01*
X25697857Y31582142D01*
X25769285Y31439285D01*
X25840714Y31367857D01*
X25983571Y31296428D01*
X26412142Y31296428D01*
X26555000Y31367857D01*
X26626428Y31439285D01*
X25055000Y31439285D02*
X24983571Y31367857D01*
X25055000Y31296428D01*
X25126428Y31367857D01*
X25055000Y31439285D01*
X25055000Y31296428D01*
X24483571Y32796428D02*
X23554999Y32796428D01*
X24054999Y32225000D01*
X23840714Y32225000D01*
X23697857Y32153571D01*
X23626428Y32082142D01*
X23554999Y31939285D01*
X23554999Y31582142D01*
X23626428Y31439285D01*
X23697857Y31367857D01*
X23840714Y31296428D01*
X24269285Y31296428D01*
X24412142Y31367857D01*
X24483571Y31439285D01*
X22912142Y31867857D02*
X21769285Y31867857D01*
X21197857Y32796428D02*
X20197857Y32796428D01*
X20840714Y31296428D01*
X19626428Y31439285D02*
X19554999Y31367857D01*
X19626428Y31296428D01*
X19697857Y31367857D01*
X19626428Y31439285D01*
X19626428Y31296428D01*
X18197857Y32796428D02*
X18912142Y32796428D01*
X18983571Y32082142D01*
X18912142Y32153571D01*
X18769285Y32225000D01*
X18412142Y32225000D01*
X18269285Y32153571D01*
X18197857Y32082142D01*
X18126428Y31939285D01*
X18126428Y31582142D01*
X18197857Y31439285D01*
X18269285Y31367857D01*
X18412142Y31296428D01*
X18769285Y31296428D01*
X18912142Y31367857D01*
X18983571Y31439285D01*
X17697857Y32796428D02*
X17197857Y31296428D01*
X16697857Y32796428D01*
D11*
X-32661904Y26957142D02*
X-32776190Y26919047D01*
X-32814285Y26880952D01*
X-32852380Y26804761D01*
X-32852380Y26690476D01*
X-32814285Y26614285D01*
X-32776190Y26576190D01*
X-32700000Y26538095D01*
X-32395238Y26538095D01*
X-32395238Y27338095D01*
X-32661904Y27338095D01*
X-32738095Y27300000D01*
X-32776190Y27261904D01*
X-32814285Y27185714D01*
X-32814285Y27109523D01*
X-32776190Y27033333D01*
X-32738095Y26995238D01*
X-32661904Y26957142D01*
X-32395238Y26957142D01*
X-33195238Y26842857D02*
X-33804761Y26842857D01*
X-32661904Y24357142D02*
X-32776190Y24319047D01*
X-32814285Y24280952D01*
X-32852380Y24204761D01*
X-32852380Y24090476D01*
X-32814285Y24014285D01*
X-32776190Y23976190D01*
X-32700000Y23938095D01*
X-32395238Y23938095D01*
X-32395238Y24738095D01*
X-32661904Y24738095D01*
X-32738095Y24700000D01*
X-32776190Y24661904D01*
X-32814285Y24585714D01*
X-32814285Y24509523D01*
X-32776190Y24433333D01*
X-32738095Y24395238D01*
X-32661904Y24357142D01*
X-32395238Y24357142D01*
X-33195238Y24242857D02*
X-33804761Y24242857D01*
X-33500000Y23938095D02*
X-33500000Y24547619D01*
X-141380Y-38514523D02*
X-255666Y-38589761D01*
X-446142Y-38589761D01*
X-522333Y-38514523D01*
X-560428Y-38439285D01*
X-598523Y-38288809D01*
X-598523Y-38138333D01*
X-560428Y-37987857D01*
X-522333Y-37912619D01*
X-446142Y-37837380D01*
X-293761Y-37762142D01*
X-217571Y-37686904D01*
X-179476Y-37611666D01*
X-141380Y-37461190D01*
X-141380Y-37310714D01*
X-179476Y-37160238D01*
X-217571Y-37085000D01*
X-293761Y-37009761D01*
X-484238Y-37009761D01*
X-598523Y-37085000D01*
X-1169952Y-37009761D02*
X-1169952Y-38138333D01*
X-1131857Y-38364047D01*
X-1055666Y-38514523D01*
X-941380Y-38589761D01*
X-865190Y-38589761D01*
X-1969952Y-38589761D02*
X-1512809Y-38589761D01*
X-1741380Y-38589761D02*
X-1741380Y-37009761D01*
X-1665190Y-37235476D01*
X-1589000Y-37385952D01*
X-1512809Y-37461190D01*
X-2884238Y-38514523D02*
X-2998523Y-38589761D01*
X-3189000Y-38589761D01*
X-3265190Y-38514523D01*
X-3303285Y-38439285D01*
X-3341380Y-38288809D01*
X-3341380Y-38138333D01*
X-3303285Y-37987857D01*
X-3265190Y-37912619D01*
X-3189000Y-37837380D01*
X-3036619Y-37762142D01*
X-2960428Y-37686904D01*
X-2922333Y-37611666D01*
X-2884238Y-37461190D01*
X-2884238Y-37310714D01*
X-2922333Y-37160238D01*
X-2960428Y-37085000D01*
X-3036619Y-37009761D01*
X-3227095Y-37009761D01*
X-3341380Y-37085000D01*
X-3912809Y-37009761D02*
X-3912809Y-38138333D01*
X-3874714Y-38364047D01*
X-3798523Y-38514523D01*
X-3684238Y-38589761D01*
X-3608047Y-38589761D01*
X-4255666Y-37160238D02*
X-4293761Y-37085000D01*
X-4369952Y-37009761D01*
X-4560428Y-37009761D01*
X-4636619Y-37085000D01*
X-4674714Y-37160238D01*
X-4712809Y-37310714D01*
X-4712809Y-37461190D01*
X-4674714Y-37686904D01*
X-4217571Y-38589761D01*
X-4712809Y-38589761D01*
X-5818285Y-37034761D02*
X-6313523Y-37034761D01*
X-6046857Y-37636666D01*
X-6161142Y-37636666D01*
X-6237333Y-37711904D01*
X-6275428Y-37787142D01*
X-6313523Y-37937619D01*
X-6313523Y-38313809D01*
X-6275428Y-38464285D01*
X-6237333Y-38539523D01*
X-6161142Y-38614761D01*
X-5932571Y-38614761D01*
X-5856380Y-38539523D01*
X-5818285Y-38464285D01*
X-6542095Y-37034761D02*
X-6808761Y-38614761D01*
X-7075428Y-37034761D01*
X-7265904Y-37034761D02*
X-7761142Y-37034761D01*
X-7494476Y-37636666D01*
X-7608761Y-37636666D01*
X-7684952Y-37711904D01*
X-7723047Y-37787142D01*
X-7761142Y-37937619D01*
X-7761142Y-38313809D01*
X-7723047Y-38464285D01*
X-7684952Y-38539523D01*
X-7608761Y-38614761D01*
X-7380190Y-38614761D01*
X-7304000Y-38539523D01*
X-7265904Y-38464285D01*
X-18918285Y-37034761D02*
X-19413523Y-37034761D01*
X-19146857Y-37636666D01*
X-19261142Y-37636666D01*
X-19337333Y-37711904D01*
X-19375428Y-37787142D01*
X-19413523Y-37937619D01*
X-19413523Y-38313809D01*
X-19375428Y-38464285D01*
X-19337333Y-38539523D01*
X-19261142Y-38614761D01*
X-19032571Y-38614761D01*
X-18956380Y-38539523D01*
X-18918285Y-38464285D01*
X-19642095Y-37034761D02*
X-19908761Y-38614761D01*
X-20175428Y-37034761D01*
X-20365904Y-37034761D02*
X-20861142Y-37034761D01*
X-20594476Y-37636666D01*
X-20708761Y-37636666D01*
X-20784952Y-37711904D01*
X-20823047Y-37787142D01*
X-20861142Y-37937619D01*
X-20861142Y-38313809D01*
X-20823047Y-38464285D01*
X-20784952Y-38539523D01*
X-20708761Y-38614761D01*
X-20480190Y-38614761D01*
X-20404000Y-38539523D01*
X-20365904Y-38464285D01*
X-12198523Y-37310000D02*
X-12122333Y-37234761D01*
X-12008047Y-37234761D01*
X-11893761Y-37310000D01*
X-11817571Y-37460476D01*
X-11779476Y-37610952D01*
X-11741380Y-37911904D01*
X-11741380Y-38137619D01*
X-11779476Y-38438571D01*
X-11817571Y-38589047D01*
X-11893761Y-38739523D01*
X-12008047Y-38814761D01*
X-12084238Y-38814761D01*
X-12198523Y-38739523D01*
X-12236619Y-38664285D01*
X-12236619Y-38137619D01*
X-12084238Y-38137619D01*
X-12579476Y-38814761D02*
X-12579476Y-37234761D01*
X-13036619Y-38814761D01*
X-13036619Y-37234761D01*
X-13417571Y-38814761D02*
X-13417571Y-37234761D01*
X-13608047Y-37234761D01*
X-13722333Y-37310000D01*
X-13798523Y-37460476D01*
X-13836619Y-37610952D01*
X-13874714Y-37911904D01*
X-13874714Y-38137619D01*
X-13836619Y-38438571D01*
X-13798523Y-38589047D01*
X-13722333Y-38739523D01*
X-13608047Y-38814761D01*
X-13417571Y-38814761D01*
X-14217571Y-38814761D02*
X-14217571Y-37234761D01*
X-14408047Y-37234761D01*
X-14522333Y-37310000D01*
X-14598523Y-37460476D01*
X-14636619Y-37610952D01*
X-14674714Y-37911904D01*
X-14674714Y-38137619D01*
X-14636619Y-38438571D01*
X-14598523Y-38589047D01*
X-14522333Y-38739523D01*
X-14408047Y-38814761D01*
X-14217571Y-38814761D01*
X5458619Y-38539523D02*
X5344333Y-38614761D01*
X5153857Y-38614761D01*
X5077666Y-38539523D01*
X5039571Y-38464285D01*
X5001476Y-38313809D01*
X5001476Y-38163333D01*
X5039571Y-38012857D01*
X5077666Y-37937619D01*
X5153857Y-37862380D01*
X5306238Y-37787142D01*
X5382428Y-37711904D01*
X5420523Y-37636666D01*
X5458619Y-37486190D01*
X5458619Y-37335714D01*
X5420523Y-37185238D01*
X5382428Y-37110000D01*
X5306238Y-37034761D01*
X5115761Y-37034761D01*
X5001476Y-37110000D01*
X4658619Y-38614761D02*
X4658619Y-37034761D01*
X4468142Y-37034761D01*
X4353857Y-37110000D01*
X4277666Y-37260476D01*
X4239571Y-37410952D01*
X4201476Y-37711904D01*
X4201476Y-37937619D01*
X4239571Y-38238571D01*
X4277666Y-38389047D01*
X4353857Y-38539523D01*
X4468142Y-38614761D01*
X4658619Y-38614761D01*
X3896714Y-38163333D02*
X3515761Y-38163333D01*
X3972904Y-38614761D02*
X3706238Y-37034761D01*
X3439571Y-38614761D01*
X2601476Y-38539523D02*
X2487190Y-38614761D01*
X2296714Y-38614761D01*
X2220523Y-38539523D01*
X2182428Y-38464285D01*
X2144333Y-38313809D01*
X2144333Y-38163333D01*
X2182428Y-38012857D01*
X2220523Y-37937619D01*
X2296714Y-37862380D01*
X2449095Y-37787142D01*
X2525285Y-37711904D01*
X2563380Y-37636666D01*
X2601476Y-37486190D01*
X2601476Y-37335714D01*
X2563380Y-37185238D01*
X2525285Y-37110000D01*
X2449095Y-37034761D01*
X2258619Y-37034761D01*
X2144333Y-37110000D01*
X1344333Y-38464285D02*
X1382428Y-38539523D01*
X1496714Y-38614761D01*
X1572904Y-38614761D01*
X1687190Y-38539523D01*
X1763380Y-38389047D01*
X1801476Y-38238571D01*
X1839571Y-37937619D01*
X1839571Y-37711904D01*
X1801476Y-37410952D01*
X1763380Y-37260476D01*
X1687190Y-37110000D01*
X1572904Y-37034761D01*
X1496714Y-37034761D01*
X1382428Y-37110000D01*
X1344333Y-37185238D01*
X620523Y-38614761D02*
X1001476Y-38614761D01*
X1001476Y-37034761D01*
X42123761Y-21797857D02*
X41514238Y-21797857D01*
X41819000Y-22399761D02*
X41819000Y-21195952D01*
X40866619Y-21572142D02*
X40752333Y-21647380D01*
X40714238Y-21722619D01*
X40676142Y-21873095D01*
X40676142Y-22098809D01*
X40714238Y-22249285D01*
X40752333Y-22324523D01*
X40828523Y-22399761D01*
X41133285Y-22399761D01*
X41133285Y-20819761D01*
X40866619Y-20819761D01*
X40790428Y-20895000D01*
X40752333Y-20970238D01*
X40714238Y-21120714D01*
X40714238Y-21271190D01*
X40752333Y-21421666D01*
X40790428Y-21496904D01*
X40866619Y-21572142D01*
X41133285Y-21572142D01*
X40371380Y-21948333D02*
X39990428Y-21948333D01*
X40447571Y-22399761D02*
X40180904Y-20819761D01*
X39914238Y-22399761D01*
X39761857Y-20819761D02*
X39304714Y-20819761D01*
X39533285Y-22399761D02*
X39533285Y-20819761D01*
X39152333Y-20819761D02*
X38695190Y-20819761D01*
X38923761Y-22399761D02*
X38923761Y-20819761D01*
X41895190Y-23349761D02*
X42276142Y-23349761D01*
X42314238Y-24102142D01*
X42276142Y-24026904D01*
X42199952Y-23951666D01*
X42009476Y-23951666D01*
X41933285Y-24026904D01*
X41895190Y-24102142D01*
X41857095Y-24252619D01*
X41857095Y-24628809D01*
X41895190Y-24779285D01*
X41933285Y-24854523D01*
X42009476Y-24929761D01*
X42199952Y-24929761D01*
X42276142Y-24854523D01*
X42314238Y-24779285D01*
X41628523Y-23349761D02*
X41361857Y-24929761D01*
X41095190Y-23349761D01*
X40828523Y-23349761D02*
X40828523Y-24628809D01*
X40790428Y-24779285D01*
X40752333Y-24854523D01*
X40676142Y-24929761D01*
X40523761Y-24929761D01*
X40447571Y-24854523D01*
X40409476Y-24779285D01*
X40371380Y-24628809D01*
X40371380Y-23349761D01*
X40028523Y-24854523D02*
X39914238Y-24929761D01*
X39723761Y-24929761D01*
X39647571Y-24854523D01*
X39609476Y-24779285D01*
X39571380Y-24628809D01*
X39571380Y-24478333D01*
X39609476Y-24327857D01*
X39647571Y-24252619D01*
X39723761Y-24177380D01*
X39876142Y-24102142D01*
X39952333Y-24026904D01*
X39990428Y-23951666D01*
X40028523Y-23801190D01*
X40028523Y-23650714D01*
X39990428Y-23500238D01*
X39952333Y-23425000D01*
X39876142Y-23349761D01*
X39685666Y-23349761D01*
X39571380Y-23425000D01*
X38961857Y-24102142D02*
X38847571Y-24177380D01*
X38809476Y-24252619D01*
X38771380Y-24403095D01*
X38771380Y-24628809D01*
X38809476Y-24779285D01*
X38847571Y-24854523D01*
X38923761Y-24929761D01*
X39228523Y-24929761D01*
X39228523Y-23349761D01*
X38961857Y-23349761D01*
X38885666Y-23425000D01*
X38847571Y-23500238D01*
X38809476Y-23650714D01*
X38809476Y-23801190D01*
X38847571Y-23951666D01*
X38885666Y-24026904D01*
X38961857Y-24102142D01*
X39228523Y-24102142D01*
X-39006380Y-2069523D02*
X-39120666Y-2144761D01*
X-39311142Y-2144761D01*
X-39387333Y-2069523D01*
X-39425428Y-1994285D01*
X-39463523Y-1843809D01*
X-39463523Y-1693333D01*
X-39425428Y-1542857D01*
X-39387333Y-1467619D01*
X-39311142Y-1392380D01*
X-39158761Y-1317142D01*
X-39082571Y-1241904D01*
X-39044476Y-1166666D01*
X-39006380Y-1016190D01*
X-39006380Y-865714D01*
X-39044476Y-715238D01*
X-39082571Y-640000D01*
X-39158761Y-564761D01*
X-39349238Y-564761D01*
X-39463523Y-640000D01*
X-40263523Y-1994285D02*
X-40225428Y-2069523D01*
X-40111142Y-2144761D01*
X-40034952Y-2144761D01*
X-39920666Y-2069523D01*
X-39844476Y-1919047D01*
X-39806380Y-1768571D01*
X-39768285Y-1467619D01*
X-39768285Y-1241904D01*
X-39806380Y-940952D01*
X-39844476Y-790476D01*
X-39920666Y-640000D01*
X-40034952Y-564761D01*
X-40111142Y-564761D01*
X-40225428Y-640000D01*
X-40263523Y-715238D01*
X-40987333Y-2144761D02*
X-40606380Y-2144761D01*
X-40606380Y-564761D01*
X-39006380Y-4599523D02*
X-39120666Y-4674761D01*
X-39311142Y-4674761D01*
X-39387333Y-4599523D01*
X-39425428Y-4524285D01*
X-39463523Y-4373809D01*
X-39463523Y-4223333D01*
X-39425428Y-4072857D01*
X-39387333Y-3997619D01*
X-39311142Y-3922380D01*
X-39158761Y-3847142D01*
X-39082571Y-3771904D01*
X-39044476Y-3696666D01*
X-39006380Y-3546190D01*
X-39006380Y-3395714D01*
X-39044476Y-3245238D01*
X-39082571Y-3170000D01*
X-39158761Y-3094761D01*
X-39349238Y-3094761D01*
X-39463523Y-3170000D01*
X-39806380Y-4674761D02*
X-39806380Y-3094761D01*
X-39996857Y-3094761D01*
X-40111142Y-3170000D01*
X-40187333Y-3320476D01*
X-40225428Y-3470952D01*
X-40263523Y-3771904D01*
X-40263523Y-3997619D01*
X-40225428Y-4298571D01*
X-40187333Y-4449047D01*
X-40111142Y-4599523D01*
X-39996857Y-4674761D01*
X-39806380Y-4674761D01*
X-40568285Y-4223333D02*
X-40949238Y-4223333D01*
X-40492095Y-4674761D02*
X-40758761Y-3094761D01*
X-41025428Y-4674761D01*
X-38968285Y-5624761D02*
X-39463523Y-5624761D01*
X-39196857Y-6226666D01*
X-39311142Y-6226666D01*
X-39387333Y-6301904D01*
X-39425428Y-6377142D01*
X-39463523Y-6527619D01*
X-39463523Y-6903809D01*
X-39425428Y-7054285D01*
X-39387333Y-7129523D01*
X-39311142Y-7204761D01*
X-39082571Y-7204761D01*
X-39006380Y-7129523D01*
X-38968285Y-7054285D01*
X-39692095Y-5624761D02*
X-39958761Y-7204761D01*
X-40225428Y-5624761D01*
X-40415904Y-5624761D02*
X-40911142Y-5624761D01*
X-40644476Y-6226666D01*
X-40758761Y-6226666D01*
X-40834952Y-6301904D01*
X-40873047Y-6377142D01*
X-40911142Y-6527619D01*
X-40911142Y-6903809D01*
X-40873047Y-7054285D01*
X-40834952Y-7129523D01*
X-40758761Y-7204761D01*
X-40530190Y-7204761D01*
X-40454000Y-7129523D01*
X-40415904Y-7054285D01*
X-39463523Y-8230000D02*
X-39387333Y-8154761D01*
X-39273047Y-8154761D01*
X-39158761Y-8230000D01*
X-39082571Y-8380476D01*
X-39044476Y-8530952D01*
X-39006380Y-8831904D01*
X-39006380Y-9057619D01*
X-39044476Y-9358571D01*
X-39082571Y-9509047D01*
X-39158761Y-9659523D01*
X-39273047Y-9734761D01*
X-39349238Y-9734761D01*
X-39463523Y-9659523D01*
X-39501619Y-9584285D01*
X-39501619Y-9057619D01*
X-39349238Y-9057619D01*
X-39844476Y-9734761D02*
X-39844476Y-8154761D01*
X-40301619Y-9734761D01*
X-40301619Y-8154761D01*
X-40682571Y-9734761D02*
X-40682571Y-8154761D01*
X-40873047Y-8154761D01*
X-40987333Y-8230000D01*
X-41063523Y-8380476D01*
X-41101619Y-8530952D01*
X-41139714Y-8831904D01*
X-41139714Y-9057619D01*
X-41101619Y-9358571D01*
X-41063523Y-9509047D01*
X-40987333Y-9659523D01*
X-40873047Y-9734761D01*
X-40682571Y-9734761D01*
X-41482571Y-9734761D02*
X-41482571Y-8154761D01*
X-41673047Y-8154761D01*
X-41787333Y-8230000D01*
X-41863523Y-8380476D01*
X-41901619Y-8530952D01*
X-41939714Y-8831904D01*
X-41939714Y-9057619D01*
X-41901619Y-9358571D01*
X-41863523Y-9509047D01*
X-41787333Y-9659523D01*
X-41673047Y-9734761D01*
X-41482571Y-9734761D01*
D14*
X-16178571Y14071428D02*
X-15321428Y14071428D01*
X-15750000Y14071428D02*
X-15750000Y15571428D01*
X-15607142Y15357142D01*
X-15464285Y15214285D01*
X-15321428Y15142857D01*
X-16750000Y14142857D02*
X-16892857Y14071428D01*
X-17178571Y14071428D01*
X-17321428Y14142857D01*
X-17392857Y14285714D01*
X-17392857Y14357142D01*
X-17321428Y14500000D01*
X-17178571Y14571428D01*
X-16964285Y14571428D01*
X-16821428Y14642857D01*
X-16750000Y14785714D01*
X-16750000Y14857142D01*
X-16821428Y15000000D01*
X-16964285Y15071428D01*
X-17178571Y15071428D01*
X-17321428Y15000000D01*
X-19892857Y14071428D02*
X-19178571Y14071428D01*
X-19178571Y15571428D01*
X-20392857Y14071428D02*
X-20392857Y15071428D01*
X-20392857Y15571428D02*
X-20321428Y15500000D01*
X-20392857Y15428571D01*
X-20464285Y15500000D01*
X-20392857Y15571428D01*
X-20392857Y15428571D01*
X-21107142Y14071428D02*
X-21107142Y15571428D01*
X-21678571Y15571428D01*
X-21821428Y15500000D01*
X-21892857Y15428571D01*
X-21964285Y15285714D01*
X-21964285Y15071428D01*
X-21892857Y14928571D01*
X-21821428Y14857142D01*
X-21678571Y14785714D01*
X-21107142Y14785714D01*
X-22821428Y14071428D02*
X-22678571Y14142857D01*
X-22607142Y14214285D01*
X-22535714Y14357142D01*
X-22535714Y14785714D01*
X-22607142Y14928571D01*
X-22678571Y15000000D01*
X-22821428Y15071428D01*
X-23035714Y15071428D01*
X-23178571Y15000000D01*
X-23250000Y14928571D01*
X-23321428Y14785714D01*
X-23321428Y14357142D01*
X-23250000Y14214285D01*
X-23178571Y14142857D01*
X-23035714Y14071428D01*
X-22821428Y14071428D01*
X-25964285Y14214285D02*
X-25892857Y14142857D01*
X-25678571Y14071428D01*
X-25535714Y14071428D01*
X-25321428Y14142857D01*
X-25178571Y14285714D01*
X-25107142Y14428571D01*
X-25035714Y14714285D01*
X-25035714Y14928571D01*
X-25107142Y15214285D01*
X-25178571Y15357142D01*
X-25321428Y15500000D01*
X-25535714Y15571428D01*
X-25678571Y15571428D01*
X-25892857Y15500000D01*
X-25964285Y15428571D01*
X-26607142Y14071428D02*
X-26607142Y15571428D01*
X-27250000Y14071428D02*
X-27250000Y14857142D01*
X-27178571Y15000000D01*
X-27035714Y15071428D01*
X-26821428Y15071428D01*
X-26678571Y15000000D01*
X-26607142Y14928571D01*
X-28607142Y14071428D02*
X-28607142Y14857142D01*
X-28535714Y15000000D01*
X-28392857Y15071428D01*
X-28107142Y15071428D01*
X-27964285Y15000000D01*
X-28607142Y14142857D02*
X-28464285Y14071428D01*
X-28107142Y14071428D01*
X-27964285Y14142857D01*
X-27892857Y14285714D01*
X-27892857Y14428571D01*
X-27964285Y14571428D01*
X-28107142Y14642857D01*
X-28464285Y14642857D01*
X-28607142Y14714285D01*
X-29321428Y14071428D02*
X-29321428Y15071428D01*
X-29321428Y14785714D02*
X-29392857Y14928571D01*
X-29464285Y15000000D01*
X-29607142Y15071428D01*
X-29750000Y15071428D01*
X-30892857Y15071428D02*
X-30892857Y13857142D01*
X-30821428Y13714285D01*
X-30750000Y13642857D01*
X-30607142Y13571428D01*
X-30392857Y13571428D01*
X-30250000Y13642857D01*
X-30892857Y14142857D02*
X-30750000Y14071428D01*
X-30464285Y14071428D01*
X-30321428Y14142857D01*
X-30250000Y14214285D01*
X-30178571Y14357142D01*
X-30178571Y14785714D01*
X-30250000Y14928571D01*
X-30321428Y15000000D01*
X-30464285Y15071428D01*
X-30750000Y15071428D01*
X-30892857Y15000000D01*
X-32178571Y14142857D02*
X-32035714Y14071428D01*
X-31750000Y14071428D01*
X-31607142Y14142857D01*
X-31535714Y14285714D01*
X-31535714Y14857142D01*
X-31607142Y15000000D01*
X-31750000Y15071428D01*
X-32035714Y15071428D01*
X-32178571Y15000000D01*
X-32250000Y14857142D01*
X-32250000Y14714285D01*
X-31535714Y14571428D01*
X-32892857Y14071428D02*
X-32892857Y15071428D01*
X-32892857Y14785714D02*
X-32964285Y14928571D01*
X-33035714Y15000000D01*
X-33178571Y15071428D01*
X-33321428Y15071428D01*
D11*
X41257095Y25180238D02*
X41638047Y25180238D01*
X41676142Y24427857D01*
X41638047Y24503095D01*
X41561857Y24578333D01*
X41371380Y24578333D01*
X41295190Y24503095D01*
X41257095Y24427857D01*
X41219000Y24277380D01*
X41219000Y23901190D01*
X41257095Y23750714D01*
X41295190Y23675476D01*
X41371380Y23600238D01*
X41561857Y23600238D01*
X41638047Y23675476D01*
X41676142Y23750714D01*
X40990428Y25180238D02*
X40723761Y23600238D01*
X40457095Y25180238D01*
X40038047Y25180238D02*
X39961857Y25180238D01*
X39885666Y25105000D01*
X39847571Y25029761D01*
X39809476Y24879285D01*
X39771380Y24578333D01*
X39771380Y24202142D01*
X39809476Y23901190D01*
X39847571Y23750714D01*
X39885666Y23675476D01*
X39961857Y23600238D01*
X40038047Y23600238D01*
X40114238Y23675476D01*
X40152333Y23750714D01*
X40190428Y23901190D01*
X40228523Y24202142D01*
X40228523Y24578333D01*
X40190428Y24879285D01*
X40152333Y25029761D01*
X40114238Y25105000D01*
X40038047Y25180238D01*
X41447571Y22575000D02*
X41523761Y22650238D01*
X41638047Y22650238D01*
X41752333Y22575000D01*
X41828523Y22424523D01*
X41866619Y22274047D01*
X41904714Y21973095D01*
X41904714Y21747380D01*
X41866619Y21446428D01*
X41828523Y21295952D01*
X41752333Y21145476D01*
X41638047Y21070238D01*
X41561857Y21070238D01*
X41447571Y21145476D01*
X41409476Y21220714D01*
X41409476Y21747380D01*
X41561857Y21747380D01*
X41066619Y21070238D02*
X41066619Y22650238D01*
X40609476Y21070238D01*
X40609476Y22650238D01*
X40228523Y21070238D02*
X40228523Y22650238D01*
X40038047Y22650238D01*
X39923761Y22575000D01*
X39847571Y22424523D01*
X39809476Y22274047D01*
X39771380Y21973095D01*
X39771380Y21747380D01*
X39809476Y21446428D01*
X39847571Y21295952D01*
X39923761Y21145476D01*
X40038047Y21070238D01*
X40228523Y21070238D01*
X-39500428Y23400238D02*
X-39119476Y23400238D01*
X-39119476Y24980238D01*
X-39729000Y23475476D02*
X-39843285Y23400238D01*
X-40033761Y23400238D01*
X-40109952Y23475476D01*
X-40148047Y23550714D01*
X-40186142Y23701190D01*
X-40186142Y23851666D01*
X-40148047Y24002142D01*
X-40109952Y24077380D01*
X-40033761Y24152619D01*
X-39881380Y24227857D01*
X-39805190Y24303095D01*
X-39767095Y24378333D01*
X-39729000Y24528809D01*
X-39729000Y24679285D01*
X-39767095Y24829761D01*
X-39805190Y24905000D01*
X-39881380Y24980238D01*
X-40071857Y24980238D01*
X-40186142Y24905000D01*
X-40529000Y23400238D02*
X-40529000Y24980238D01*
X-41329000Y24905000D02*
X-41252809Y24980238D01*
X-41138523Y24980238D01*
X-41024238Y24905000D01*
X-40948047Y24754523D01*
X-40909952Y24604047D01*
X-40871857Y24303095D01*
X-40871857Y24077380D01*
X-40909952Y23776428D01*
X-40948047Y23625952D01*
X-41024238Y23475476D01*
X-41138523Y23400238D01*
X-41214714Y23400238D01*
X-41329000Y23475476D01*
X-41367095Y23550714D01*
X-41367095Y24077380D01*
X-41214714Y24077380D01*
X-39119476Y22450238D02*
X-39119476Y21171190D01*
X-39157571Y21020714D01*
X-39195666Y20945476D01*
X-39271857Y20870238D01*
X-39424238Y20870238D01*
X-39500428Y20945476D01*
X-39538523Y21020714D01*
X-39576619Y21171190D01*
X-39576619Y22450238D01*
X-39919476Y20945476D02*
X-40033761Y20870238D01*
X-40224238Y20870238D01*
X-40300428Y20945476D01*
X-40338523Y21020714D01*
X-40376619Y21171190D01*
X-40376619Y21321666D01*
X-40338523Y21472142D01*
X-40300428Y21547380D01*
X-40224238Y21622619D01*
X-40071857Y21697857D01*
X-39995666Y21773095D01*
X-39957571Y21848333D01*
X-39919476Y21998809D01*
X-39919476Y22149285D01*
X-39957571Y22299761D01*
X-39995666Y22375000D01*
X-40071857Y22450238D01*
X-40262333Y22450238D01*
X-40376619Y22375000D01*
X-41176619Y20870238D02*
X-40909952Y21622619D01*
X-40719476Y20870238D02*
X-40719476Y22450238D01*
X-41024238Y22450238D01*
X-41100428Y22375000D01*
X-41138523Y22299761D01*
X-41176619Y22149285D01*
X-41176619Y21923571D01*
X-41138523Y21773095D01*
X-41100428Y21697857D01*
X-41024238Y21622619D01*
X-40719476Y21622619D01*
X-41938523Y20870238D02*
X-41481380Y20870238D01*
X-41709952Y20870238D02*
X-41709952Y22450238D01*
X-41633761Y22224523D01*
X-41557571Y22074047D01*
X-41481380Y21998809D01*
D15*
X34395238Y38735714D02*
X33919047Y37069047D01*
X33442857Y38259523D01*
X32966666Y37069047D01*
X32490476Y38735714D01*
X31776190Y38735714D02*
X31300000Y37069047D01*
X30823809Y38259523D01*
X30347619Y37069047D01*
X29871428Y38735714D01*
X29157142Y38735714D02*
X28680952Y37069047D01*
X28204761Y38259523D01*
X27728571Y37069047D01*
X27252380Y38735714D01*
X26299999Y37307142D02*
X26180952Y37188095D01*
X26299999Y37069047D01*
X26419047Y37188095D01*
X26299999Y37307142D01*
X26299999Y37069047D01*
X23680952Y37307142D02*
X23800000Y37188095D01*
X24157142Y37069047D01*
X24395238Y37069047D01*
X24752380Y37188095D01*
X24990476Y37426190D01*
X25109523Y37664285D01*
X25228571Y38140476D01*
X25228571Y38497619D01*
X25109523Y38973809D01*
X24990476Y39211904D01*
X24752380Y39450000D01*
X24395238Y39569047D01*
X24157142Y39569047D01*
X23800000Y39450000D01*
X23680952Y39330952D01*
X22252380Y37069047D02*
X22490476Y37188095D01*
X22609523Y37307142D01*
X22728571Y37545238D01*
X22728571Y38259523D01*
X22609523Y38497619D01*
X22490476Y38616666D01*
X22252380Y38735714D01*
X21895238Y38735714D01*
X21657142Y38616666D01*
X21538095Y38497619D01*
X21419047Y38259523D01*
X21419047Y37545238D01*
X21538095Y37307142D01*
X21657142Y37188095D01*
X21895238Y37069047D01*
X22252380Y37069047D01*
X20347619Y37069047D02*
X20347619Y38735714D01*
X20347619Y38259523D02*
X20228571Y38497619D01*
X20109523Y38616666D01*
X19871428Y38735714D01*
X19633333Y38735714D01*
X17847619Y37188095D02*
X18085714Y37069047D01*
X18561904Y37069047D01*
X18800000Y37188095D01*
X18919047Y37426190D01*
X18919047Y38378571D01*
X18800000Y38616666D01*
X18561904Y38735714D01*
X18085714Y38735714D01*
X17847619Y38616666D01*
X17728571Y38378571D01*
X17728571Y38140476D01*
X18919047Y37902380D01*
X15585714Y39569047D02*
X16061904Y39569047D01*
X16300000Y39450000D01*
X16419047Y39330952D01*
X16657142Y38973809D01*
X16776190Y38497619D01*
X16776190Y37545238D01*
X16657142Y37307142D01*
X16538095Y37188095D01*
X16300000Y37069047D01*
X15823809Y37069047D01*
X15585714Y37188095D01*
X15466666Y37307142D01*
X15347619Y37545238D01*
X15347619Y38140476D01*
X15466666Y38378571D01*
X15585714Y38497619D01*
X15823809Y38616666D01*
X16300000Y38616666D01*
X16538095Y38497619D01*
X16657142Y38378571D01*
X16776190Y38140476D01*
X13204761Y38735714D02*
X13204761Y37069047D01*
X13800000Y39688095D02*
X14395238Y37902380D01*
X12847619Y37902380D01*
X11895238Y37307142D02*
X11776190Y37188095D01*
X11895238Y37069047D01*
X12014285Y37188095D01*
X11895238Y37307142D01*
X11895238Y37069047D01*
X10704761Y37069047D02*
X10704761Y38735714D01*
X10704761Y39569047D02*
X10823809Y39450000D01*
X10704761Y39330952D01*
X10585714Y39450000D01*
X10704761Y39569047D01*
X10704761Y39330952D01*
X9157142Y37069047D02*
X9395238Y37188095D01*
X9514285Y37307142D01*
X9633333Y37545238D01*
X9633333Y38259523D01*
X9514285Y38497619D01*
X9395238Y38616666D01*
X9157142Y38735714D01*
X8800000Y38735714D01*
X8561904Y38616666D01*
X8442857Y38497619D01*
X8323809Y38259523D01*
X8323809Y37545238D01*
X8442857Y37307142D01*
X8561904Y37188095D01*
X8800000Y37069047D01*
X9157142Y37069047D01*
D10*
X34631071Y-32003571D02*
X34688214Y-32060714D01*
X34859642Y-32117857D01*
X34973928Y-32117857D01*
X35145357Y-32060714D01*
X35259642Y-31946428D01*
X35316785Y-31832142D01*
X35373928Y-31603571D01*
X35373928Y-31432142D01*
X35316785Y-31203571D01*
X35259642Y-31089285D01*
X35145357Y-30975000D01*
X34973928Y-30917857D01*
X34859642Y-30917857D01*
X34688214Y-30975000D01*
X34631071Y-31032142D01*
X33888214Y-30917857D02*
X33659642Y-30917857D01*
X33545357Y-30975000D01*
X33431071Y-31089285D01*
X33373928Y-31317857D01*
X33373928Y-31717857D01*
X33431071Y-31946428D01*
X33545357Y-32060714D01*
X33659642Y-32117857D01*
X33888214Y-32117857D01*
X34002500Y-32060714D01*
X34116785Y-31946428D01*
X34173928Y-31717857D01*
X34173928Y-31317857D01*
X34116785Y-31089285D01*
X34002500Y-30975000D01*
X33888214Y-30917857D01*
X32173928Y-32117857D02*
X32573928Y-31546428D01*
X32859642Y-32117857D02*
X32859642Y-30917857D01*
X32402500Y-30917857D01*
X32288214Y-30975000D01*
X32231071Y-31032142D01*
X32173928Y-31146428D01*
X32173928Y-31317857D01*
X32231071Y-31432142D01*
X32288214Y-31489285D01*
X32402500Y-31546428D01*
X32859642Y-31546428D01*
X31659642Y-31489285D02*
X31259642Y-31489285D01*
X31088214Y-32117857D02*
X31659642Y-32117857D01*
X31659642Y-30917857D01*
X31088214Y-30917857D01*
X30059642Y-30917857D02*
X30288214Y-30917857D01*
X30402500Y-30975000D01*
X30459642Y-31032142D01*
X30573928Y-31203571D01*
X30631071Y-31432142D01*
X30631071Y-31889285D01*
X30573928Y-32003571D01*
X30516785Y-32060714D01*
X30402500Y-32117857D01*
X30173928Y-32117857D01*
X30059642Y-32060714D01*
X30002500Y-32003571D01*
X29945357Y-31889285D01*
X29945357Y-31603571D01*
X30002500Y-31489285D01*
X30059642Y-31432142D01*
X30173928Y-31375000D01*
X30402500Y-31375000D01*
X30516785Y-31432142D01*
X30573928Y-31489285D01*
X30631071Y-31603571D01*
X28916785Y-31317857D02*
X28916785Y-32117857D01*
X29202500Y-30860714D02*
X29488214Y-31717857D01*
X28745357Y-31717857D01*
X26802500Y-32117857D02*
X27373928Y-32117857D01*
X27373928Y-30917857D01*
X26402500Y-31489285D02*
X26002500Y-31489285D01*
X25831071Y-32117857D02*
X26402500Y-32117857D01*
X26402500Y-30917857D01*
X25831071Y-30917857D01*
X25316785Y-32117857D02*
X25316785Y-30917857D01*
X25031071Y-30917857D01*
X24859642Y-30975000D01*
X24745357Y-31089285D01*
X24688214Y-31203571D01*
X24631071Y-31432142D01*
X24631071Y-31603571D01*
X24688214Y-31832142D01*
X24745357Y-31946428D01*
X24859642Y-32060714D01*
X25031071Y-32117857D01*
X25316785Y-32117857D01*
X23202500Y-32117857D02*
X23202500Y-30917857D01*
X22802500Y-31775000D01*
X22402500Y-30917857D01*
X22402500Y-32117857D01*
X21888214Y-31775000D02*
X21316785Y-31775000D01*
X22002499Y-32117857D02*
X21602499Y-30917857D01*
X21202499Y-32117857D01*
X20973928Y-30917857D02*
X20288214Y-30917857D01*
X20631071Y-32117857D02*
X20631071Y-30917857D01*
X19202500Y-32117857D02*
X19602500Y-31546428D01*
X19888214Y-32117857D02*
X19888214Y-30917857D01*
X19431071Y-30917857D01*
X19316785Y-30975000D01*
X19259642Y-31032142D01*
X19202500Y-31146428D01*
X19202500Y-31317857D01*
X19259642Y-31432142D01*
X19316785Y-31489285D01*
X19431071Y-31546428D01*
X19888214Y-31546428D01*
X18688214Y-32117857D02*
X18688214Y-30917857D01*
X18231071Y-30917857D02*
X17431071Y-32117857D01*
X17431071Y-30917857D02*
X18231071Y-32117857D01*
X15716785Y-32575000D02*
X15773928Y-32517857D01*
X15888214Y-32346428D01*
X15945357Y-32232142D01*
X16002500Y-32060714D01*
X16059642Y-31775000D01*
X16059642Y-31546428D01*
X16002500Y-31260714D01*
X15945357Y-31089285D01*
X15888214Y-30975000D01*
X15773928Y-30803571D01*
X15716785Y-30746428D01*
X14688214Y-32117857D02*
X15259642Y-32117857D01*
X15259642Y-30917857D01*
X14288214Y-32117857D02*
X14288214Y-30917857D01*
X13888214Y-31775000D01*
X13488214Y-30917857D01*
X13488214Y-32117857D01*
X13031071Y-32575000D02*
X12973928Y-32517857D01*
X12859642Y-32346428D01*
X12802500Y-32232142D01*
X12745357Y-32060714D01*
X12688214Y-31775000D01*
X12688214Y-31546428D01*
X12745357Y-31260714D01*
X12802500Y-31089285D01*
X12859642Y-30975000D01*
X12973928Y-30803571D01*
X13031071Y-30746428D01*
X7716785Y-30917857D02*
X7316785Y-32117857D01*
X6916785Y-30917857D01*
X6288214Y-30917857D02*
X6173928Y-30917857D01*
X6059642Y-30975000D01*
X6002500Y-31032142D01*
X5945357Y-31146428D01*
X5888214Y-31375000D01*
X5888214Y-31660714D01*
X5945357Y-31889285D01*
X6002500Y-32003571D01*
X6059642Y-32060714D01*
X6173928Y-32117857D01*
X6288214Y-32117857D01*
X6402500Y-32060714D01*
X6459642Y-32003571D01*
X6516785Y-31889285D01*
X6573928Y-31660714D01*
X6573928Y-31375000D01*
X6516785Y-31146428D01*
X6459642Y-31032142D01*
X6402500Y-30975000D01*
X6288214Y-30917857D01*
X5373928Y-32003571D02*
X5316785Y-32060714D01*
X5373928Y-32117857D01*
X5431071Y-32060714D01*
X5373928Y-32003571D01*
X5373928Y-32117857D01*
X4859642Y-31032142D02*
X4802500Y-30975000D01*
X4688214Y-30917857D01*
X4402500Y-30917857D01*
X4288214Y-30975000D01*
X4231071Y-31032142D01*
X4173928Y-31146428D01*
X4173928Y-31260714D01*
X4231071Y-31432142D01*
X4916785Y-32117857D01*
X4173928Y-32117857D01*
X-854642Y-31032142D02*
X-911785Y-30975000D01*
X-1026071Y-30917857D01*
X-1311785Y-30917857D01*
X-1426071Y-30975000D01*
X-1483214Y-31032142D01*
X-1540357Y-31146428D01*
X-1540357Y-31260714D01*
X-1483214Y-31432142D01*
X-797499Y-32117857D01*
X-1540357Y-32117857D01*
X-2283214Y-30917857D02*
X-2397499Y-30917857D01*
X-2511785Y-30975000D01*
X-2568928Y-31032142D01*
X-2626071Y-31146428D01*
X-2683214Y-31375000D01*
X-2683214Y-31660714D01*
X-2626071Y-31889285D01*
X-2568928Y-32003571D01*
X-2511785Y-32060714D01*
X-2397499Y-32117857D01*
X-2283214Y-32117857D01*
X-2168928Y-32060714D01*
X-2111785Y-32003571D01*
X-2054642Y-31889285D01*
X-1997499Y-31660714D01*
X-1997499Y-31375000D01*
X-2054642Y-31146428D01*
X-2111785Y-31032142D01*
X-2168928Y-30975000D01*
X-2283214Y-30917857D01*
X-3140357Y-31032142D02*
X-3197499Y-30975000D01*
X-3311785Y-30917857D01*
X-3597499Y-30917857D01*
X-3711785Y-30975000D01*
X-3768928Y-31032142D01*
X-3826071Y-31146428D01*
X-3826071Y-31260714D01*
X-3768928Y-31432142D01*
X-3083214Y-32117857D01*
X-3826071Y-32117857D01*
X-4968928Y-32117857D02*
X-4283214Y-32117857D01*
X-4626071Y-32117857D02*
X-4626071Y-30917857D01*
X-4511785Y-31089285D01*
X-4397499Y-31203571D01*
X-4283214Y-31260714D01*
X-5483214Y-31660714D02*
X-6397499Y-31660714D01*
X-7197499Y-30917857D02*
X-7311785Y-30917857D01*
X-7426071Y-30975000D01*
X-7483214Y-31032142D01*
X-7540357Y-31146428D01*
X-7597499Y-31375000D01*
X-7597499Y-31660714D01*
X-7540357Y-31889285D01*
X-7483214Y-32003571D01*
X-7426071Y-32060714D01*
X-7311785Y-32117857D01*
X-7197499Y-32117857D01*
X-7083214Y-32060714D01*
X-7026071Y-32003571D01*
X-6968928Y-31889285D01*
X-6911785Y-31660714D01*
X-6911785Y-31375000D01*
X-6968928Y-31146428D01*
X-7026071Y-31032142D01*
X-7083214Y-30975000D01*
X-7197499Y-30917857D01*
X-7997499Y-30917857D02*
X-8740357Y-30917857D01*
X-8340357Y-31375000D01*
X-8511785Y-31375000D01*
X-8626071Y-31432142D01*
X-8683214Y-31489285D01*
X-8740357Y-31603571D01*
X-8740357Y-31889285D01*
X-8683214Y-32003571D01*
X-8626071Y-32060714D01*
X-8511785Y-32117857D01*
X-8168928Y-32117857D01*
X-8054642Y-32060714D01*
X-7997499Y-32003571D01*
X-9254642Y-31660714D02*
X-10168928Y-31660714D01*
X-10683214Y-31032142D02*
X-10740357Y-30975000D01*
X-10854642Y-30917857D01*
X-11140357Y-30917857D01*
X-11254642Y-30975000D01*
X-11311785Y-31032142D01*
X-11368928Y-31146428D01*
X-11368928Y-31260714D01*
X-11311785Y-31432142D01*
X-10626071Y-32117857D01*
X-11368928Y-32117857D01*
X-12511785Y-32117857D02*
X-11826071Y-32117857D01*
X-12168928Y-32117857D02*
X-12168928Y-30917857D01*
X-12054642Y-31089285D01*
X-11940357Y-31203571D01*
X-11826071Y-31260714D01*
X35316785Y-34067857D02*
X35316785Y-32867857D01*
X34859642Y-32867857D01*
X34745357Y-32925000D01*
X34688214Y-32982142D01*
X34631071Y-33096428D01*
X34631071Y-33267857D01*
X34688214Y-33382142D01*
X34745357Y-33439285D01*
X34859642Y-33496428D01*
X35316785Y-33496428D01*
X34116785Y-34067857D02*
X34116785Y-33267857D01*
X34116785Y-33496428D02*
X34059642Y-33382142D01*
X34002500Y-33325000D01*
X33888214Y-33267857D01*
X33773928Y-33267857D01*
X33202500Y-34067857D02*
X33316785Y-34010714D01*
X33373928Y-33953571D01*
X33431071Y-33839285D01*
X33431071Y-33496428D01*
X33373928Y-33382142D01*
X33316785Y-33325000D01*
X33202500Y-33267857D01*
X33031071Y-33267857D01*
X32916785Y-33325000D01*
X32859642Y-33382142D01*
X32802500Y-33496428D01*
X32802500Y-33839285D01*
X32859642Y-33953571D01*
X32916785Y-34010714D01*
X33031071Y-34067857D01*
X33202500Y-34067857D01*
X32288214Y-33267857D02*
X32288214Y-34296428D01*
X32345357Y-34410714D01*
X32459642Y-34467857D01*
X32516785Y-34467857D01*
X32288214Y-32867857D02*
X32345357Y-32925000D01*
X32288214Y-32982142D01*
X32231071Y-32925000D01*
X32288214Y-32867857D01*
X32288214Y-32982142D01*
X31259642Y-34010714D02*
X31373928Y-34067857D01*
X31602500Y-34067857D01*
X31716785Y-34010714D01*
X31773928Y-33896428D01*
X31773928Y-33439285D01*
X31716785Y-33325000D01*
X31602500Y-33267857D01*
X31373928Y-33267857D01*
X31259642Y-33325000D01*
X31202500Y-33439285D01*
X31202500Y-33553571D01*
X31773928Y-33667857D01*
X30173928Y-34010714D02*
X30288214Y-34067857D01*
X30516785Y-34067857D01*
X30631071Y-34010714D01*
X30688214Y-33953571D01*
X30745357Y-33839285D01*
X30745357Y-33496428D01*
X30688214Y-33382142D01*
X30631071Y-33325000D01*
X30516785Y-33267857D01*
X30288214Y-33267857D01*
X30173928Y-33325000D01*
X29831071Y-33267857D02*
X29373928Y-33267857D01*
X29659642Y-32867857D02*
X29659642Y-33896428D01*
X29602500Y-34010714D01*
X29488214Y-34067857D01*
X29373928Y-34067857D01*
X28059642Y-34067857D02*
X28059642Y-33267857D01*
X28059642Y-32867857D02*
X28116785Y-32925000D01*
X28059642Y-32982142D01*
X28002500Y-32925000D01*
X28059642Y-32867857D01*
X28059642Y-32982142D01*
X27488214Y-33267857D02*
X27488214Y-34067857D01*
X27488214Y-33382142D02*
X27431071Y-33325000D01*
X27316785Y-33267857D01*
X27145357Y-33267857D01*
X27031071Y-33325000D01*
X26973928Y-33439285D01*
X26973928Y-34067857D01*
X26573928Y-33267857D02*
X26116785Y-33267857D01*
X26402499Y-34067857D02*
X26402499Y-33039285D01*
X26345357Y-32925000D01*
X26231071Y-32867857D01*
X26116785Y-32867857D01*
X25545357Y-34067857D02*
X25659642Y-34010714D01*
X25716785Y-33953571D01*
X25773928Y-33839285D01*
X25773928Y-33496428D01*
X25716785Y-33382142D01*
X25659642Y-33325000D01*
X25545357Y-33267857D01*
X25373928Y-33267857D01*
X25259642Y-33325000D01*
X25202499Y-33382142D01*
X25145357Y-33496428D01*
X25145357Y-33839285D01*
X25202499Y-33953571D01*
X25259642Y-34010714D01*
X25373928Y-34067857D01*
X25545357Y-34067857D01*
X24631071Y-34067857D02*
X24631071Y-33267857D01*
X24631071Y-33496428D02*
X24573928Y-33382142D01*
X24516785Y-33325000D01*
X24402499Y-33267857D01*
X24288214Y-33267857D01*
X23888214Y-34067857D02*
X23888214Y-33267857D01*
X23888214Y-33382142D02*
X23831071Y-33325000D01*
X23716785Y-33267857D01*
X23545357Y-33267857D01*
X23431071Y-33325000D01*
X23373928Y-33439285D01*
X23373928Y-34067857D01*
X23373928Y-33439285D02*
X23316785Y-33325000D01*
X23202499Y-33267857D01*
X23031071Y-33267857D01*
X22916785Y-33325000D01*
X22859642Y-33439285D01*
X22859642Y-34067857D01*
X21773928Y-34067857D02*
X21773928Y-33439285D01*
X21831071Y-33325000D01*
X21945357Y-33267857D01*
X22173928Y-33267857D01*
X22288214Y-33325000D01*
X21773928Y-34010714D02*
X21888214Y-34067857D01*
X22173928Y-34067857D01*
X22288214Y-34010714D01*
X22345357Y-33896428D01*
X22345357Y-33782142D01*
X22288214Y-33667857D01*
X22173928Y-33610714D01*
X21888214Y-33610714D01*
X21773928Y-33553571D01*
X21373928Y-33267857D02*
X20916785Y-33267857D01*
X21202499Y-32867857D02*
X21202499Y-33896428D01*
X21145357Y-34010714D01*
X21031071Y-34067857D01*
X20916785Y-34067857D01*
X20516785Y-34067857D02*
X20516785Y-33267857D01*
X20516785Y-32867857D02*
X20573928Y-32925000D01*
X20516785Y-32982142D01*
X20459642Y-32925000D01*
X20516785Y-32867857D01*
X20516785Y-32982142D01*
X19773928Y-34067857D02*
X19888214Y-34010714D01*
X19945357Y-33953571D01*
X20002499Y-33839285D01*
X20002499Y-33496428D01*
X19945357Y-33382142D01*
X19888214Y-33325000D01*
X19773928Y-33267857D01*
X19602499Y-33267857D01*
X19488214Y-33325000D01*
X19431071Y-33382142D01*
X19373928Y-33496428D01*
X19373928Y-33839285D01*
X19431071Y-33953571D01*
X19488214Y-34010714D01*
X19602499Y-34067857D01*
X19773928Y-34067857D01*
X18859642Y-33267857D02*
X18859642Y-34067857D01*
X18859642Y-33382142D02*
X18802499Y-33325000D01*
X18688214Y-33267857D01*
X18516785Y-33267857D01*
X18402499Y-33325000D01*
X18345357Y-33439285D01*
X18345357Y-34067857D01*
X16345357Y-34067857D02*
X16345357Y-33439285D01*
X16402499Y-33325000D01*
X16516785Y-33267857D01*
X16745357Y-33267857D01*
X16859642Y-33325000D01*
X16345357Y-34010714D02*
X16459642Y-34067857D01*
X16745357Y-34067857D01*
X16859642Y-34010714D01*
X16916785Y-33896428D01*
X16916785Y-33782142D01*
X16859642Y-33667857D01*
X16745357Y-33610714D01*
X16459642Y-33610714D01*
X16345357Y-33553571D01*
X15945357Y-33267857D02*
X15488214Y-33267857D01*
X15773928Y-32867857D02*
X15773928Y-33896428D01*
X15716785Y-34010714D01*
X15602499Y-34067857D01*
X15488214Y-34067857D01*
X14288214Y-33267857D02*
X14059642Y-34067857D01*
X13831071Y-33496428D01*
X13602499Y-34067857D01*
X13373928Y-33267857D01*
X13031071Y-33267857D02*
X12802499Y-34067857D01*
X12573928Y-33496428D01*
X12345357Y-34067857D01*
X12116785Y-33267857D01*
X11773928Y-33267857D02*
X11545357Y-34067857D01*
X11316785Y-33496428D01*
X11088214Y-34067857D01*
X10859642Y-33267857D01*
X10402499Y-33953571D02*
X10345357Y-34010714D01*
X10402499Y-34067857D01*
X10459642Y-34010714D01*
X10402499Y-33953571D01*
X10402499Y-34067857D01*
X9145357Y-33953571D02*
X9202499Y-34010714D01*
X9373928Y-34067857D01*
X9488214Y-34067857D01*
X9659642Y-34010714D01*
X9773928Y-33896428D01*
X9831071Y-33782142D01*
X9888214Y-33553571D01*
X9888214Y-33382142D01*
X9831071Y-33153571D01*
X9773928Y-33039285D01*
X9659642Y-32925000D01*
X9488214Y-32867857D01*
X9373928Y-32867857D01*
X9202499Y-32925000D01*
X9145357Y-32982142D01*
X8459642Y-34067857D02*
X8573928Y-34010714D01*
X8631071Y-33953571D01*
X8688214Y-33839285D01*
X8688214Y-33496428D01*
X8631071Y-33382142D01*
X8573928Y-33325000D01*
X8459642Y-33267857D01*
X8288214Y-33267857D01*
X8173928Y-33325000D01*
X8116785Y-33382142D01*
X8059642Y-33496428D01*
X8059642Y-33839285D01*
X8116785Y-33953571D01*
X8173928Y-34010714D01*
X8288214Y-34067857D01*
X8459642Y-34067857D01*
X7545357Y-34067857D02*
X7545357Y-33267857D01*
X7545357Y-33496428D02*
X7488214Y-33382142D01*
X7431071Y-33325000D01*
X7316785Y-33267857D01*
X7202499Y-33267857D01*
X6345357Y-34010714D02*
X6459642Y-34067857D01*
X6688214Y-34067857D01*
X6802499Y-34010714D01*
X6859642Y-33896428D01*
X6859642Y-33439285D01*
X6802499Y-33325000D01*
X6688214Y-33267857D01*
X6459642Y-33267857D01*
X6345357Y-33325000D01*
X6288214Y-33439285D01*
X6288214Y-33553571D01*
X6859642Y-33667857D01*
X5259642Y-32867857D02*
X5488214Y-32867857D01*
X5602499Y-32925000D01*
X5659642Y-32982142D01*
X5773928Y-33153571D01*
X5831071Y-33382142D01*
X5831071Y-33839285D01*
X5773928Y-33953571D01*
X5716785Y-34010714D01*
X5602499Y-34067857D01*
X5373928Y-34067857D01*
X5259642Y-34010714D01*
X5202499Y-33953571D01*
X5145357Y-33839285D01*
X5145357Y-33553571D01*
X5202499Y-33439285D01*
X5259642Y-33382142D01*
X5373928Y-33325000D01*
X5602499Y-33325000D01*
X5716785Y-33382142D01*
X5773928Y-33439285D01*
X5831071Y-33553571D01*
X4116785Y-33267857D02*
X4116785Y-34067857D01*
X4402499Y-32810714D02*
X4688214Y-33667857D01*
X3945357Y-33667857D01*
X3488214Y-33953571D02*
X3431071Y-34010714D01*
X3488214Y-34067857D01*
X3545357Y-34010714D01*
X3488214Y-33953571D01*
X3488214Y-34067857D01*
X2916785Y-34067857D02*
X2916785Y-33267857D01*
X2916785Y-32867857D02*
X2973928Y-32925000D01*
X2916785Y-32982142D01*
X2859642Y-32925000D01*
X2916785Y-32867857D01*
X2916785Y-32982142D01*
X2173928Y-34067857D02*
X2288214Y-34010714D01*
X2345357Y-33953571D01*
X2402499Y-33839285D01*
X2402499Y-33496428D01*
X2345357Y-33382142D01*
X2288214Y-33325000D01*
X2173928Y-33267857D01*
X2002499Y-33267857D01*
X1888214Y-33325000D01*
X1831071Y-33382142D01*
X1773928Y-33496428D01*
X1773928Y-33839285D01*
X1831071Y-33953571D01*
X1888214Y-34010714D01*
X2002499Y-34067857D01*
X2173928Y-34067857D01*
X35316785Y-36017857D02*
X35316785Y-34817857D01*
X35031071Y-34817857D01*
X34859642Y-34875000D01*
X34745357Y-34989285D01*
X34688214Y-35103571D01*
X34631071Y-35332142D01*
X34631071Y-35503571D01*
X34688214Y-35732142D01*
X34745357Y-35846428D01*
X34859642Y-35960714D01*
X35031071Y-36017857D01*
X35316785Y-36017857D01*
X33659642Y-35960714D02*
X33773928Y-36017857D01*
X34002500Y-36017857D01*
X34116785Y-35960714D01*
X34173928Y-35846428D01*
X34173928Y-35389285D01*
X34116785Y-35275000D01*
X34002500Y-35217857D01*
X33773928Y-35217857D01*
X33659642Y-35275000D01*
X33602500Y-35389285D01*
X33602500Y-35503571D01*
X34173928Y-35617857D01*
X33145357Y-35960714D02*
X33031071Y-36017857D01*
X32802500Y-36017857D01*
X32688214Y-35960714D01*
X32631071Y-35846428D01*
X32631071Y-35789285D01*
X32688214Y-35675000D01*
X32802500Y-35617857D01*
X32973928Y-35617857D01*
X33088214Y-35560714D01*
X33145357Y-35446428D01*
X33145357Y-35389285D01*
X33088214Y-35275000D01*
X32973928Y-35217857D01*
X32802500Y-35217857D01*
X32688214Y-35275000D01*
X32116785Y-36017857D02*
X32116785Y-35217857D01*
X32116785Y-34817857D02*
X32173928Y-34875000D01*
X32116785Y-34932142D01*
X32059642Y-34875000D01*
X32116785Y-34817857D01*
X32116785Y-34932142D01*
X31031071Y-35217857D02*
X31031071Y-36189285D01*
X31088214Y-36303571D01*
X31145357Y-36360714D01*
X31259642Y-36417857D01*
X31431071Y-36417857D01*
X31545357Y-36360714D01*
X31031071Y-35960714D02*
X31145357Y-36017857D01*
X31373928Y-36017857D01*
X31488214Y-35960714D01*
X31545357Y-35903571D01*
X31602500Y-35789285D01*
X31602500Y-35446428D01*
X31545357Y-35332142D01*
X31488214Y-35275000D01*
X31373928Y-35217857D01*
X31145357Y-35217857D01*
X31031071Y-35275000D01*
X30459642Y-35217857D02*
X30459642Y-36017857D01*
X30459642Y-35332142D02*
X30402500Y-35275000D01*
X30288214Y-35217857D01*
X30116785Y-35217857D01*
X30002500Y-35275000D01*
X29945357Y-35389285D01*
X29945357Y-36017857D01*
X28916785Y-35960714D02*
X29031071Y-36017857D01*
X29259642Y-36017857D01*
X29373928Y-35960714D01*
X29431071Y-35846428D01*
X29431071Y-35389285D01*
X29373928Y-35275000D01*
X29259642Y-35217857D01*
X29031071Y-35217857D01*
X28916785Y-35275000D01*
X28859642Y-35389285D01*
X28859642Y-35503571D01*
X29431071Y-35617857D01*
X27831071Y-36017857D02*
X27831071Y-34817857D01*
X27831071Y-35960714D02*
X27945357Y-36017857D01*
X28173928Y-36017857D01*
X28288214Y-35960714D01*
X28345357Y-35903571D01*
X28402500Y-35789285D01*
X28402500Y-35446428D01*
X28345357Y-35332142D01*
X28288214Y-35275000D01*
X28173928Y-35217857D01*
X27945357Y-35217857D01*
X27831071Y-35275000D01*
X26345357Y-36017857D02*
X26345357Y-34817857D01*
X26345357Y-35275000D02*
X26231071Y-35217857D01*
X26002500Y-35217857D01*
X25888214Y-35275000D01*
X25831071Y-35332142D01*
X25773928Y-35446428D01*
X25773928Y-35789285D01*
X25831071Y-35903571D01*
X25888214Y-35960714D01*
X26002500Y-36017857D01*
X26231071Y-36017857D01*
X26345357Y-35960714D01*
X25373928Y-35217857D02*
X25088214Y-36017857D01*
X24802500Y-35217857D02*
X25088214Y-36017857D01*
X25202500Y-36303571D01*
X25259642Y-36360714D01*
X25373928Y-36417857D01*
X23488214Y-35675000D02*
X22916785Y-35675000D01*
X23602500Y-36017857D02*
X23202500Y-34817857D01*
X22802500Y-36017857D01*
X22402500Y-35217857D02*
X22402500Y-36017857D01*
X22402500Y-35332142D02*
X22345357Y-35275000D01*
X22231071Y-35217857D01*
X22059642Y-35217857D01*
X21945357Y-35275000D01*
X21888214Y-35389285D01*
X21888214Y-36017857D01*
X20802500Y-36017857D02*
X20802500Y-34817857D01*
X20802500Y-35960714D02*
X20916785Y-36017857D01*
X21145357Y-36017857D01*
X21259642Y-35960714D01*
X21316785Y-35903571D01*
X21373928Y-35789285D01*
X21373928Y-35446428D01*
X21316785Y-35332142D01*
X21259642Y-35275000D01*
X21145357Y-35217857D01*
X20916785Y-35217857D01*
X20802500Y-35275000D01*
X20345357Y-35217857D02*
X20059642Y-36017857D01*
X19773928Y-35217857D02*
X20059642Y-36017857D01*
X20173928Y-36303571D01*
X20231071Y-36360714D01*
X20345357Y-36417857D01*
X17773928Y-34875000D02*
X17888214Y-34817857D01*
X18059642Y-34817857D01*
X18231071Y-34875000D01*
X18345357Y-34989285D01*
X18402500Y-35103571D01*
X18459642Y-35332142D01*
X18459642Y-35503571D01*
X18402500Y-35732142D01*
X18345357Y-35846428D01*
X18231071Y-35960714D01*
X18059642Y-36017857D01*
X17945357Y-36017857D01*
X17773928Y-35960714D01*
X17716785Y-35903571D01*
X17716785Y-35503571D01*
X17945357Y-35503571D01*
X16745357Y-35960714D02*
X16859642Y-36017857D01*
X17088214Y-36017857D01*
X17202500Y-35960714D01*
X17259642Y-35846428D01*
X17259642Y-35389285D01*
X17202500Y-35275000D01*
X17088214Y-35217857D01*
X16859642Y-35217857D01*
X16745357Y-35275000D01*
X16688214Y-35389285D01*
X16688214Y-35503571D01*
X17259642Y-35617857D01*
X16173928Y-35217857D02*
X16173928Y-36417857D01*
X16173928Y-35275000D02*
X16059642Y-35217857D01*
X15831071Y-35217857D01*
X15716785Y-35275000D01*
X15659642Y-35332142D01*
X15602500Y-35446428D01*
X15602500Y-35789285D01*
X15659642Y-35903571D01*
X15716785Y-35960714D01*
X15831071Y-36017857D01*
X16059642Y-36017857D01*
X16173928Y-35960714D01*
X15088214Y-35217857D02*
X15088214Y-36417857D01*
X15088214Y-35275000D02*
X14973928Y-35217857D01*
X14745357Y-35217857D01*
X14631071Y-35275000D01*
X14573928Y-35332142D01*
X14516785Y-35446428D01*
X14516785Y-35789285D01*
X14573928Y-35903571D01*
X14631071Y-35960714D01*
X14745357Y-36017857D01*
X14973928Y-36017857D01*
X15088214Y-35960714D01*
X13545357Y-35960714D02*
X13659642Y-36017857D01*
X13888214Y-36017857D01*
X14002500Y-35960714D01*
X14059642Y-35846428D01*
X14059642Y-35389285D01*
X14002500Y-35275000D01*
X13888214Y-35217857D01*
X13659642Y-35217857D01*
X13545357Y-35275000D01*
X13488214Y-35389285D01*
X13488214Y-35503571D01*
X14059642Y-35617857D01*
X12973928Y-36017857D02*
X12973928Y-35217857D01*
X12973928Y-35446428D02*
X12916785Y-35332142D01*
X12859642Y-35275000D01*
X12745357Y-35217857D01*
X12631071Y-35217857D01*
X12402500Y-35217857D02*
X11945357Y-35217857D01*
X12231071Y-34817857D02*
X12231071Y-35846428D01*
X12173928Y-35960714D01*
X12059642Y-36017857D01*
X11945357Y-36017857D01*
X10116785Y-36017857D02*
X10116785Y-35389285D01*
X10173928Y-35275000D01*
X10288214Y-35217857D01*
X10516785Y-35217857D01*
X10631071Y-35275000D01*
X10116785Y-35960714D02*
X10231071Y-36017857D01*
X10516785Y-36017857D01*
X10631071Y-35960714D01*
X10688214Y-35846428D01*
X10688214Y-35732142D01*
X10631071Y-35617857D01*
X10516785Y-35560714D01*
X10231071Y-35560714D01*
X10116785Y-35503571D01*
X9716785Y-35217857D02*
X9259642Y-35217857D01*
X9545357Y-34817857D02*
X9545357Y-35846428D01*
X9488214Y-35960714D01*
X9373928Y-36017857D01*
X9259642Y-36017857D01*
X8059642Y-35217857D02*
X7831071Y-36017857D01*
X7602500Y-35446428D01*
X7373928Y-36017857D01*
X7145357Y-35217857D01*
X6802500Y-35217857D02*
X6573928Y-36017857D01*
X6345357Y-35446428D01*
X6116785Y-36017857D01*
X5888214Y-35217857D01*
X5545357Y-35217857D02*
X5316785Y-36017857D01*
X5088214Y-35446428D01*
X4859642Y-36017857D01*
X4631071Y-35217857D01*
X4173928Y-35903571D02*
X4116785Y-35960714D01*
X4173928Y-36017857D01*
X4231071Y-35960714D01*
X4173928Y-35903571D01*
X4173928Y-36017857D01*
X3602500Y-36017857D02*
X3602500Y-34817857D01*
X3202500Y-35675000D01*
X2802500Y-34817857D01*
X2802500Y-36017857D01*
X1716785Y-36017857D02*
X1716785Y-35389285D01*
X1773928Y-35275000D01*
X1888214Y-35217857D01*
X2116785Y-35217857D01*
X2231071Y-35275000D01*
X1716785Y-35960714D02*
X1831071Y-36017857D01*
X2116785Y-36017857D01*
X2231071Y-35960714D01*
X2288214Y-35846428D01*
X2288214Y-35732142D01*
X2231071Y-35617857D01*
X2116785Y-35560714D01*
X1831071Y-35560714D01*
X1716785Y-35503571D01*
X631071Y-35960714D02*
X745357Y-36017857D01*
X973928Y-36017857D01*
X1088214Y-35960714D01*
X1145357Y-35903571D01*
X1202500Y-35789285D01*
X1202500Y-35446428D01*
X1145357Y-35332142D01*
X1088214Y-35275000D01*
X973928Y-35217857D01*
X745357Y-35217857D01*
X631071Y-35275000D01*
X116785Y-36017857D02*
X116785Y-34817857D01*
X-397500Y-36017857D02*
X-397500Y-35389285D01*
X-340357Y-35275000D01*
X-226071Y-35217857D01*
X-54642Y-35217857D01*
X59642Y-35275000D01*
X116785Y-35332142D01*
X-968928Y-36017857D02*
X-968928Y-35217857D01*
X-968928Y-34817857D02*
X-911785Y-34875000D01*
X-968928Y-34932142D01*
X-1026071Y-34875000D01*
X-968928Y-34817857D01*
X-968928Y-34932142D01*
X-1540357Y-35217857D02*
X-1540357Y-36017857D01*
X-1540357Y-35332142D02*
X-1597500Y-35275000D01*
X-1711785Y-35217857D01*
X-1883214Y-35217857D01*
X-1997500Y-35275000D01*
X-2054642Y-35389285D01*
X-2054642Y-36017857D01*
X-3083214Y-35960714D02*
X-2968928Y-36017857D01*
X-2740357Y-36017857D01*
X-2626071Y-35960714D01*
X-2568928Y-35846428D01*
X-2568928Y-35389285D01*
X-2626071Y-35275000D01*
X-2740357Y-35217857D01*
X-2968928Y-35217857D01*
X-3083214Y-35275000D01*
X-3140357Y-35389285D01*
X-3140357Y-35503571D01*
X-2568928Y-35617857D01*
X-3654642Y-36017857D02*
X-3654642Y-34817857D01*
X-4740357Y-36017857D02*
X-4740357Y-34817857D01*
X-4740357Y-35960714D02*
X-4626071Y-36017857D01*
X-4397500Y-36017857D01*
X-4283214Y-35960714D01*
X-4226071Y-35903571D01*
X-4168928Y-35789285D01*
X-4168928Y-35446428D01*
X-4226071Y-35332142D01*
X-4283214Y-35275000D01*
X-4397500Y-35217857D01*
X-4626071Y-35217857D01*
X-4740357Y-35275000D01*
X-5768928Y-35960714D02*
X-5654642Y-36017857D01*
X-5426071Y-36017857D01*
X-5311785Y-35960714D01*
X-5254642Y-35846428D01*
X-5254642Y-35389285D01*
X-5311785Y-35275000D01*
X-5426071Y-35217857D01*
X-5654642Y-35217857D01*
X-5768928Y-35275000D01*
X-5826071Y-35389285D01*
X-5826071Y-35503571D01*
X-5254642Y-35617857D01*
X-6854642Y-36017857D02*
X-6854642Y-35389285D01*
X-6797500Y-35275000D01*
X-6683214Y-35217857D01*
X-6454642Y-35217857D01*
X-6340357Y-35275000D01*
X-6854642Y-35960714D02*
X-6740357Y-36017857D01*
X-6454642Y-36017857D01*
X-6340357Y-35960714D01*
X-6283214Y-35846428D01*
X-6283214Y-35732142D01*
X-6340357Y-35617857D01*
X-6454642Y-35560714D01*
X-6740357Y-35560714D01*
X-6854642Y-35503571D01*
X-7368928Y-35960714D02*
X-7483214Y-36017857D01*
X-7711785Y-36017857D01*
X-7826071Y-35960714D01*
X-7883214Y-35846428D01*
X-7883214Y-35789285D01*
X-7826071Y-35675000D01*
X-7711785Y-35617857D01*
X-7540357Y-35617857D01*
X-7426071Y-35560714D01*
X-7368928Y-35446428D01*
X-7368928Y-35389285D01*
X-7426071Y-35275000D01*
X-7540357Y-35217857D01*
X-7711785Y-35217857D01*
X-7826071Y-35275000D01*
X-8397500Y-35903571D02*
X-8454642Y-35960714D01*
X-8397500Y-36017857D01*
X-8340357Y-35960714D01*
X-8397500Y-35903571D01*
X-8397500Y-36017857D01*
X-9483214Y-35960714D02*
X-9368928Y-36017857D01*
X-9140357Y-36017857D01*
X-9026071Y-35960714D01*
X-8968928Y-35903571D01*
X-8911785Y-35789285D01*
X-8911785Y-35446428D01*
X-8968928Y-35332142D01*
X-9026071Y-35275000D01*
X-9140357Y-35217857D01*
X-9368928Y-35217857D01*
X-9483214Y-35275000D01*
X-10168928Y-36017857D02*
X-10054642Y-35960714D01*
X-9997500Y-35903571D01*
X-9940357Y-35789285D01*
X-9940357Y-35446428D01*
X-9997500Y-35332142D01*
X-10054642Y-35275000D01*
X-10168928Y-35217857D01*
X-10340357Y-35217857D01*
X-10454642Y-35275000D01*
X-10511785Y-35332142D01*
X-10568928Y-35446428D01*
X-10568928Y-35789285D01*
X-10511785Y-35903571D01*
X-10454642Y-35960714D01*
X-10340357Y-36017857D01*
X-10168928Y-36017857D01*
X-11083214Y-36017857D02*
X-11083214Y-35217857D01*
X-11083214Y-35332142D02*
X-11140357Y-35275000D01*
X-11254642Y-35217857D01*
X-11426071Y-35217857D01*
X-11540357Y-35275000D01*
X-11597500Y-35389285D01*
X-11597500Y-36017857D01*
X-11597500Y-35389285D02*
X-11654642Y-35275000D01*
X-11768928Y-35217857D01*
X-11940357Y-35217857D01*
X-12054642Y-35275000D01*
X-12111785Y-35389285D01*
X-12111785Y-36017857D01*
X35431071Y-36767857D02*
X35145357Y-37967857D01*
X34916785Y-37110714D01*
X34688214Y-37967857D01*
X34402500Y-36767857D01*
X34002500Y-37910714D02*
X33831071Y-37967857D01*
X33545357Y-37967857D01*
X33431071Y-37910714D01*
X33373928Y-37853571D01*
X33316785Y-37739285D01*
X33316785Y-37625000D01*
X33373928Y-37510714D01*
X33431071Y-37453571D01*
X33545357Y-37396428D01*
X33773928Y-37339285D01*
X33888214Y-37282142D01*
X33945357Y-37225000D01*
X34002500Y-37110714D01*
X34002500Y-36996428D01*
X33945357Y-36882142D01*
X33888214Y-36825000D01*
X33773928Y-36767857D01*
X33488214Y-36767857D01*
X33316785Y-36825000D01*
X32859642Y-36882142D02*
X32802500Y-36825000D01*
X32688214Y-36767857D01*
X32402500Y-36767857D01*
X32288214Y-36825000D01*
X32231071Y-36882142D01*
X32173928Y-36996428D01*
X32173928Y-37110714D01*
X32231071Y-37282142D01*
X32916785Y-37967857D01*
X32173928Y-37967857D01*
X31488214Y-37282142D02*
X31602500Y-37225000D01*
X31659642Y-37167857D01*
X31716785Y-37053571D01*
X31716785Y-36996428D01*
X31659642Y-36882142D01*
X31602500Y-36825000D01*
X31488214Y-36767857D01*
X31259642Y-36767857D01*
X31145357Y-36825000D01*
X31088214Y-36882142D01*
X31031071Y-36996428D01*
X31031071Y-37053571D01*
X31088214Y-37167857D01*
X31145357Y-37225000D01*
X31259642Y-37282142D01*
X31488214Y-37282142D01*
X31602500Y-37339285D01*
X31659642Y-37396428D01*
X31716785Y-37510714D01*
X31716785Y-37739285D01*
X31659642Y-37853571D01*
X31602500Y-37910714D01*
X31488214Y-37967857D01*
X31259642Y-37967857D01*
X31145357Y-37910714D01*
X31088214Y-37853571D01*
X31031071Y-37739285D01*
X31031071Y-37510714D01*
X31088214Y-37396428D01*
X31145357Y-37339285D01*
X31259642Y-37282142D01*
X29888214Y-37967857D02*
X30573928Y-37967857D01*
X30231071Y-37967857D02*
X30231071Y-36767857D01*
X30345357Y-36939285D01*
X30459642Y-37053571D01*
X30573928Y-37110714D01*
X29488214Y-36767857D02*
X28745357Y-36767857D01*
X29145357Y-37225000D01*
X28973928Y-37225000D01*
X28859642Y-37282142D01*
X28802500Y-37339285D01*
X28745357Y-37453571D01*
X28745357Y-37739285D01*
X28802500Y-37853571D01*
X28859642Y-37910714D01*
X28973928Y-37967857D01*
X29316785Y-37967857D01*
X29431071Y-37910714D01*
X29488214Y-37853571D01*
X26745357Y-37967857D02*
X27316785Y-37967857D01*
X27316785Y-36767857D01*
X26345357Y-37339285D02*
X25945357Y-37339285D01*
X25773928Y-37967857D02*
X26345357Y-37967857D01*
X26345357Y-36767857D01*
X25773928Y-36767857D01*
X25259642Y-37967857D02*
X25259642Y-36767857D01*
X24973928Y-36767857D01*
X24802500Y-36825000D01*
X24688214Y-36939285D01*
X24631071Y-37053571D01*
X24573928Y-37282142D01*
X24573928Y-37453571D01*
X24631071Y-37682142D01*
X24688214Y-37796428D01*
X24802500Y-37910714D01*
X24973928Y-37967857D01*
X25259642Y-37967857D01*
X24116785Y-37910714D02*
X24002500Y-37967857D01*
X23773928Y-37967857D01*
X23659642Y-37910714D01*
X23602500Y-37796428D01*
X23602500Y-37739285D01*
X23659642Y-37625000D01*
X23773928Y-37567857D01*
X23945357Y-37567857D01*
X24059642Y-37510714D01*
X24116785Y-37396428D01*
X24116785Y-37339285D01*
X24059642Y-37225000D01*
X23945357Y-37167857D01*
X23773928Y-37167857D01*
X23659642Y-37225000D01*
D13*
X-33925000Y40860000D02*
X-33925000Y18000000D01*
X-33925000Y18000000D02*
X-14875000Y18000000D01*
X-14875000Y18000000D02*
X-14875000Y40860000D01*
X-14875000Y40860000D02*
X-33925000Y40860000D01*
X40865000Y-26450000D02*
X38065000Y-26450000D01*
X38065000Y-26450000D02*
X38065000Y-28450000D01*
X38065000Y-28450000D02*
X40865000Y-28450000D01*
X40865000Y-28450000D02*
X40865000Y-26450000D01*
X-26085000Y-34240000D02*
X-26085000Y-30360000D01*
X-21615000Y-29190000D02*
X-21615000Y-30240000D01*
X-24115000Y-29190000D02*
X-21615000Y-29190000D01*
X-21615000Y-34360000D02*
X-20625000Y-34360000D01*
X-21615000Y-35410000D02*
X-21615000Y-34360000D01*
X-24115000Y-35410000D02*
X-21615000Y-35410000D01*
X-14735000Y-38950000D02*
X-18835000Y-38950000D01*
X-18835000Y-38950000D02*
X-18835000Y-40950000D01*
X-18835000Y-40950000D02*
X-14735000Y-40950000D01*
X-14735000Y-40950000D02*
X-14735000Y-38950000D01*
X-11535000Y-40950000D02*
X-7435000Y-40950000D01*
X-7435000Y-40950000D02*
X-7435000Y-38950000D01*
X-7435000Y-38950000D02*
X-11535000Y-38950000D01*
X-11535000Y-38950000D02*
X-11535000Y-40950000D01*
X36890000Y-24890000D02*
X36890000Y-25460000D01*
X34230000Y-22350000D02*
X34230000Y-25460000D01*
X36890000Y-25460000D02*
X34230000Y-25460000D01*
X34230000Y-17270000D02*
X34230000Y-20380000D01*
X36890000Y-19810000D02*
X36890000Y-23393400D01*
X36890000Y-14730000D02*
X36890000Y-18290000D01*
X36890000Y-9650000D02*
X36890000Y-13210000D01*
X36890000Y-4570000D02*
X36890000Y-8130000D01*
X36890000Y510000D02*
X36890000Y-3050000D01*
X36890000Y5590000D02*
X36890000Y2030000D01*
X36890000Y10670000D02*
X36890000Y7110000D01*
X36890000Y15750000D02*
X36890000Y12190000D01*
X36890000Y20830000D02*
X36890000Y17270000D01*
X34230000Y25460000D02*
X34230000Y24890000D01*
X34230000Y24890000D02*
X32710000Y24890000D01*
X36890000Y25460000D02*
X36890000Y22350000D01*
X34230000Y-12190000D02*
X34230000Y-15300000D01*
X34230000Y-7110000D02*
X34230000Y-10670000D01*
X34230000Y-2030000D02*
X34230000Y-5590000D01*
X34230000Y3050000D02*
X34230000Y-510000D01*
X34230000Y8130000D02*
X34230000Y4570000D01*
X34230000Y13210000D02*
X34230000Y9650000D01*
X34230000Y18290000D02*
X34230000Y14730000D01*
X34230000Y23370000D02*
X34230000Y19810000D01*
X36890000Y25460000D02*
X34230000Y25460000D01*
X-34230000Y-24890000D02*
X-34230000Y-25460000D01*
X-36890000Y-22350000D02*
X-36890000Y-25460000D01*
X-34230000Y-25460000D02*
X-36890000Y-25460000D01*
X-36890000Y-17270000D02*
X-36890000Y-20380000D01*
X-34230000Y-19810000D02*
X-34230000Y-23393400D01*
X-34230000Y-14730000D02*
X-34230000Y-18290000D01*
X-34230000Y-9650000D02*
X-34230000Y-13210000D01*
X-34230000Y-4570000D02*
X-34230000Y-8130000D01*
X-34230000Y510000D02*
X-34230000Y-3050000D01*
X-34230000Y5590000D02*
X-34230000Y2030000D01*
X-34230000Y10670000D02*
X-34230000Y7110000D01*
X-34230000Y15750000D02*
X-34230000Y12190000D01*
X-34230000Y20830000D02*
X-34230000Y17270000D01*
X-36890000Y25460000D02*
X-36890000Y24890000D01*
X-36890000Y24890000D02*
X-38410000Y24890000D01*
X-34230000Y25460000D02*
X-34230000Y22350000D01*
X-36890000Y-12190000D02*
X-36890000Y-15300000D01*
X-36890000Y-7110000D02*
X-36890000Y-10670000D01*
X-36890000Y-2030000D02*
X-36890000Y-5590000D01*
X-36890000Y3050000D02*
X-36890000Y-510000D01*
X-36890000Y8130000D02*
X-36890000Y4570000D01*
X-36890000Y13210000D02*
X-36890000Y9650000D01*
X-36890000Y18290000D02*
X-36890000Y14730000D01*
X-36890000Y23370000D02*
X-36890000Y19810000D01*
X-34230000Y25460000D02*
X-36890000Y25460000D01*
X-50000Y31600000D02*
X-50000Y33600000D01*
X-4150000Y31600000D02*
X-50000Y31600000D01*
X-4150000Y33600000D02*
X-4150000Y31600000D01*
X-50000Y33600000D02*
X-4150000Y33600000D01*
X4950000Y31600000D02*
X9050000Y31600000D01*
X9050000Y31600000D02*
X9050000Y33600000D01*
X9050000Y33600000D02*
X4950000Y33600000D01*
X4950000Y33600000D02*
X4950000Y31600000D01*
D10*
X-11014285Y40547619D02*
X-11680952Y39547619D01*
X-11680952Y40547619D02*
X-11014285Y39547619D01*
X-12538095Y39547619D02*
X-12061904Y39547619D01*
X-12061904Y40547619D01*
X-12871428Y39547619D02*
X-12871428Y40547619D01*
X-13204761Y39833333D01*
X-13538095Y40547619D01*
X-13538095Y39547619D01*
X-14538095Y39547619D02*
X-13966666Y39547619D01*
X-14252380Y39547619D02*
X-14252380Y40547619D01*
X-14157142Y40404761D01*
X-14061904Y40309523D01*
X-13966666Y40261904D01*
X-23338095Y40247619D02*
X-23338095Y39438095D01*
X-23385714Y39342857D01*
X-23433333Y39295238D01*
X-23528571Y39247619D01*
X-23719047Y39247619D01*
X-23814285Y39295238D01*
X-23861904Y39342857D01*
X-23909523Y39438095D01*
X-23909523Y40247619D01*
X-24338095Y39295238D02*
X-24480952Y39247619D01*
X-24719047Y39247619D01*
X-24814285Y39295238D01*
X-24861904Y39342857D01*
X-24909523Y39438095D01*
X-24909523Y39533333D01*
X-24861904Y39628571D01*
X-24814285Y39676190D01*
X-24719047Y39723809D01*
X-24528571Y39771428D01*
X-24433333Y39819047D01*
X-24385714Y39866666D01*
X-24338095Y39961904D01*
X-24338095Y40057142D01*
X-24385714Y40152380D01*
X-24433333Y40200000D01*
X-24528571Y40247619D01*
X-24766666Y40247619D01*
X-24909523Y40200000D01*
X-25671428Y39771428D02*
X-25814285Y39723809D01*
X-25861904Y39676190D01*
X-25909523Y39580952D01*
X-25909523Y39438095D01*
X-25861904Y39342857D01*
X-25814285Y39295238D01*
X-25719047Y39247619D01*
X-25338095Y39247619D01*
X-25338095Y40247619D01*
X-25671428Y40247619D01*
X-25766666Y40200000D01*
X-25814285Y40152380D01*
X-25861904Y40057142D01*
X-25861904Y39961904D01*
X-25814285Y39866666D01*
X-25766666Y39819047D01*
X-25671428Y39771428D01*
X-25338095Y39771428D01*
X-23423809Y19371428D02*
X-23566666Y19323809D01*
X-23614285Y19276190D01*
X-23661904Y19180952D01*
X-23661904Y19038095D01*
X-23614285Y18942857D01*
X-23566666Y18895238D01*
X-23471428Y18847619D01*
X-23090476Y18847619D01*
X-23090476Y19847619D01*
X-23423809Y19847619D01*
X-23519047Y19800000D01*
X-23566666Y19752380D01*
X-23614285Y19657142D01*
X-23614285Y19561904D01*
X-23566666Y19466666D01*
X-23519047Y19419047D01*
X-23423809Y19371428D01*
X-23090476Y19371428D01*
X-24042857Y19133333D02*
X-24519047Y19133333D01*
X-23947619Y18847619D02*
X-24280952Y19847619D01*
X-24614285Y18847619D01*
X-24804761Y19847619D02*
X-25376190Y19847619D01*
X-25090476Y18847619D02*
X-25090476Y19847619D01*
X-25709523Y18942857D02*
X-25757142Y18895238D01*
X-25709523Y18847619D01*
X-25661904Y18895238D01*
X-25709523Y18942857D01*
X-25709523Y18847619D01*
X37433333Y-26852380D02*
X37433333Y-27566666D01*
X37480952Y-27709523D01*
X37576190Y-27804761D01*
X37719047Y-27852380D01*
X37814285Y-27852380D01*
X36957142Y-27852380D02*
X36957142Y-26852380D01*
X36576190Y-26852380D01*
X36480952Y-26900000D01*
X36433333Y-26947619D01*
X36385714Y-27042857D01*
X36385714Y-27185714D01*
X36433333Y-27280952D01*
X36480952Y-27328571D01*
X36576190Y-27376190D01*
X36957142Y-27376190D01*
X35480952Y-26852380D02*
X35957142Y-26852380D01*
X36004761Y-27328571D01*
X35957142Y-27280952D01*
X35861904Y-27233333D01*
X35623809Y-27233333D01*
X35528571Y-27280952D01*
X35480952Y-27328571D01*
X35433333Y-27423809D01*
X35433333Y-27661904D01*
X35480952Y-27757142D01*
X35528571Y-27804761D01*
X35623809Y-27852380D01*
X35861904Y-27852380D01*
X35957142Y-27804761D01*
X36004761Y-27757142D01*
X-16514285Y-33252380D02*
X-17180952Y-34252380D01*
X-17180952Y-33252380D02*
X-16514285Y-34252380D01*
X-18038095Y-34252380D02*
X-17561904Y-34252380D01*
X-17561904Y-33252380D01*
X-18371428Y-34252380D02*
X-18371428Y-33252380D01*
X-18704761Y-33966666D01*
X-19038095Y-33252380D01*
X-19038095Y-34252380D01*
X-19942857Y-33585714D02*
X-19942857Y-34252380D01*
X-19704761Y-33204761D02*
X-19466666Y-33919047D01*
X-20085714Y-33919047D01*
X-15951666Y-37602380D02*
X-15951666Y-38316666D01*
X-15904047Y-38459523D01*
X-15808809Y-38554761D01*
X-15665952Y-38602380D01*
X-15570714Y-38602380D01*
X-16427857Y-38602380D02*
X-16427857Y-37602380D01*
X-16808809Y-37602380D01*
X-16904047Y-37650000D01*
X-16951666Y-37697619D01*
X-16999285Y-37792857D01*
X-16999285Y-37935714D01*
X-16951666Y-38030952D01*
X-16904047Y-38078571D01*
X-16808809Y-38126190D01*
X-16427857Y-38126190D01*
X-17380238Y-37697619D02*
X-17427857Y-37650000D01*
X-17523095Y-37602380D01*
X-17761190Y-37602380D01*
X-17856428Y-37650000D01*
X-17904047Y-37697619D01*
X-17951666Y-37792857D01*
X-17951666Y-37888095D01*
X-17904047Y-38030952D01*
X-17332619Y-38602380D01*
X-17951666Y-38602380D01*
X-14470714Y-40402380D02*
X-13899285Y-40402380D01*
X-14185000Y-40402380D02*
X-14185000Y-39402380D01*
X-14089761Y-39545238D01*
X-13994523Y-39640476D01*
X-13899285Y-39688095D01*
X-19051666Y-39402380D02*
X-19670714Y-39402380D01*
X-19337380Y-39783333D01*
X-19480238Y-39783333D01*
X-19575476Y-39830952D01*
X-19623095Y-39878571D01*
X-19670714Y-39973809D01*
X-19670714Y-40211904D01*
X-19623095Y-40307142D01*
X-19575476Y-40354761D01*
X-19480238Y-40402380D01*
X-19194523Y-40402380D01*
X-19099285Y-40354761D01*
X-19051666Y-40307142D01*
X-8651666Y-37602380D02*
X-8651666Y-38316666D01*
X-8604047Y-38459523D01*
X-8508809Y-38554761D01*
X-8365952Y-38602380D01*
X-8270714Y-38602380D01*
X-9127857Y-38602380D02*
X-9127857Y-37602380D01*
X-9508809Y-37602380D01*
X-9604047Y-37650000D01*
X-9651666Y-37697619D01*
X-9699285Y-37792857D01*
X-9699285Y-37935714D01*
X-9651666Y-38030952D01*
X-9604047Y-38078571D01*
X-9508809Y-38126190D01*
X-9127857Y-38126190D01*
X-10651666Y-38602380D02*
X-10080238Y-38602380D01*
X-10365952Y-38602380D02*
X-10365952Y-37602380D01*
X-10270714Y-37745238D01*
X-10175476Y-37840476D01*
X-10080238Y-37888095D01*
X-12370714Y-40402380D02*
X-11799285Y-40402380D01*
X-12085000Y-40402380D02*
X-12085000Y-39402380D01*
X-11989761Y-39545238D01*
X-11894523Y-39640476D01*
X-11799285Y-39688095D01*
X-6551666Y-39402380D02*
X-7170714Y-39402380D01*
X-6837380Y-39783333D01*
X-6980238Y-39783333D01*
X-7075476Y-39830952D01*
X-7123095Y-39878571D01*
X-7170714Y-39973809D01*
X-7170714Y-40211904D01*
X-7123095Y-40307142D01*
X-7075476Y-40354761D01*
X-6980238Y-40402380D01*
X-6694523Y-40402380D01*
X-6599285Y-40354761D01*
X-6551666Y-40307142D01*
X35893333Y26747619D02*
X35893333Y26033333D01*
X35940952Y25890476D01*
X36036190Y25795238D01*
X36179047Y25747619D01*
X36274285Y25747619D01*
X35464761Y26652380D02*
X35417142Y26700000D01*
X35321904Y26747619D01*
X35083809Y26747619D01*
X34988571Y26700000D01*
X34940952Y26652380D01*
X34893333Y26557142D01*
X34893333Y26461904D01*
X34940952Y26319047D01*
X35512380Y25747619D01*
X34893333Y25747619D01*
X-35166666Y26747619D02*
X-35166666Y26033333D01*
X-35119047Y25890476D01*
X-35023809Y25795238D01*
X-34880952Y25747619D01*
X-34785714Y25747619D01*
X-36166666Y25747619D02*
X-35595238Y25747619D01*
X-35880952Y25747619D02*
X-35880952Y26747619D01*
X-35785714Y26604761D01*
X-35690476Y26509523D01*
X-35595238Y26461904D01*
X-1166666Y31347619D02*
X-1166666Y30633333D01*
X-1119047Y30490476D01*
X-1023809Y30395238D01*
X-880952Y30347619D01*
X-785714Y30347619D01*
X-1642857Y30347619D02*
X-1642857Y31347619D01*
X-2023809Y31347619D01*
X-2119047Y31300000D01*
X-2166666Y31252380D01*
X-2214285Y31157142D01*
X-2214285Y31014285D01*
X-2166666Y30919047D01*
X-2119047Y30871428D01*
X-2023809Y30823809D01*
X-1642857Y30823809D01*
X-2547619Y31347619D02*
X-3166666Y31347619D01*
X-2833333Y30966666D01*
X-2976190Y30966666D01*
X-3071428Y30919047D01*
X-3119047Y30871428D01*
X-3166666Y30776190D01*
X-3166666Y30538095D01*
X-3119047Y30442857D01*
X-3071428Y30395238D01*
X-2976190Y30347619D01*
X-2690476Y30347619D01*
X-2595238Y30395238D01*
X-2547619Y30442857D01*
X-4366666Y33147619D02*
X-4985714Y33147619D01*
X-4652380Y32766666D01*
X-4795238Y32766666D01*
X-4890476Y32719047D01*
X-4938095Y32671428D01*
X-4985714Y32576190D01*
X-4985714Y32338095D01*
X-4938095Y32242857D01*
X-4890476Y32195238D01*
X-4795238Y32147619D01*
X-4509523Y32147619D01*
X-4414285Y32195238D01*
X-4366666Y32242857D01*
X214285Y32147619D02*
X785714Y32147619D01*
X500000Y32147619D02*
X500000Y33147619D01*
X595238Y33004761D01*
X690476Y32909523D01*
X785714Y32861904D01*
X7833333Y31347619D02*
X7833333Y30633333D01*
X7880952Y30490476D01*
X7976190Y30395238D01*
X8119047Y30347619D01*
X8214285Y30347619D01*
X7357142Y30347619D02*
X7357142Y31347619D01*
X6976190Y31347619D01*
X6880952Y31300000D01*
X6833333Y31252380D01*
X6785714Y31157142D01*
X6785714Y31014285D01*
X6833333Y30919047D01*
X6880952Y30871428D01*
X6976190Y30823809D01*
X7357142Y30823809D01*
X5928571Y31014285D02*
X5928571Y30347619D01*
X6166666Y31395238D02*
X6404761Y30680952D01*
X5785714Y30680952D01*
X4114285Y32147619D02*
X4685714Y32147619D01*
X4400000Y32147619D02*
X4400000Y33147619D01*
X4495238Y33004761D01*
X4590476Y32909523D01*
X4685714Y32861904D01*
X9933333Y33147619D02*
X9314285Y33147619D01*
X9647619Y32766666D01*
X9504761Y32766666D01*
X9409523Y32719047D01*
X9361904Y32671428D01*
X9314285Y32576190D01*
X9314285Y32338095D01*
X9361904Y32242857D01*
X9409523Y32195238D01*
X9504761Y32147619D01*
X9790476Y32147619D01*
X9885714Y32195238D01*
X9933333Y32242857D01*
M02*
