G04 #@! TF.GenerationSoftware,KiCad,Pcbnew,(5.1.2-1)-1*
G04 #@! TF.CreationDate,2021-03-21T18:44:29-05:00*
G04 #@! TF.ProjectId,Core64 LM v0.2,436f7265-3634-4204-9c4d-2076302e322e,0.3*
G04 #@! TF.SameCoordinates,Original*
G04 #@! TF.FileFunction,Soldermask,Top*
G04 #@! TF.FilePolarity,Negative*
%FSLAX46Y46*%
G04 Gerber Fmt 4.6, Leading zero omitted, Abs format (unit mm)*
G04 Created by KiCad (PCBNEW (5.1.2-1)-1) date 2021-03-21 18:44:29*
%MOMM*%
%LPD*%
G04 APERTURE LIST*
%ADD10C,0.100000*%
G04 APERTURE END LIST*
D10*
G36*
X3920443Y-39105519D02*
G01*
X3986627Y-39112037D01*
X4156466Y-39163557D01*
X4312991Y-39247222D01*
X4348729Y-39276552D01*
X4450186Y-39359814D01*
X4533448Y-39461271D01*
X4562778Y-39497009D01*
X4646443Y-39653534D01*
X4697963Y-39823373D01*
X4715359Y-40000000D01*
X4697963Y-40176627D01*
X4646443Y-40346466D01*
X4562778Y-40502991D01*
X4533448Y-40538729D01*
X4450186Y-40640186D01*
X4348729Y-40723448D01*
X4312991Y-40752778D01*
X4156466Y-40836443D01*
X3986627Y-40887963D01*
X3920443Y-40894481D01*
X3854260Y-40901000D01*
X3765740Y-40901000D01*
X3699557Y-40894481D01*
X3633373Y-40887963D01*
X3463534Y-40836443D01*
X3307009Y-40752778D01*
X3271271Y-40723448D01*
X3169814Y-40640186D01*
X3086552Y-40538729D01*
X3057222Y-40502991D01*
X2973557Y-40346466D01*
X2922037Y-40176627D01*
X2904641Y-40000000D01*
X2922037Y-39823373D01*
X2973557Y-39653534D01*
X3057222Y-39497009D01*
X3086552Y-39461271D01*
X3169814Y-39359814D01*
X3271271Y-39276552D01*
X3307009Y-39247222D01*
X3463534Y-39163557D01*
X3633373Y-39112037D01*
X3699557Y-39105519D01*
X3765740Y-39099000D01*
X3854260Y-39099000D01*
X3920443Y-39105519D01*
X3920443Y-39105519D01*
G37*
G36*
X1380443Y-39105519D02*
G01*
X1446627Y-39112037D01*
X1616466Y-39163557D01*
X1772991Y-39247222D01*
X1808729Y-39276552D01*
X1910186Y-39359814D01*
X1993448Y-39461271D01*
X2022778Y-39497009D01*
X2106443Y-39653534D01*
X2157963Y-39823373D01*
X2175359Y-40000000D01*
X2157963Y-40176627D01*
X2106443Y-40346466D01*
X2022778Y-40502991D01*
X1993448Y-40538729D01*
X1910186Y-40640186D01*
X1808729Y-40723448D01*
X1772991Y-40752778D01*
X1616466Y-40836443D01*
X1446627Y-40887963D01*
X1380443Y-40894481D01*
X1314260Y-40901000D01*
X1225740Y-40901000D01*
X1159557Y-40894481D01*
X1093373Y-40887963D01*
X923534Y-40836443D01*
X767009Y-40752778D01*
X731271Y-40723448D01*
X629814Y-40640186D01*
X546552Y-40538729D01*
X517222Y-40502991D01*
X433557Y-40346466D01*
X382037Y-40176627D01*
X364641Y-40000000D01*
X382037Y-39823373D01*
X433557Y-39653534D01*
X517222Y-39497009D01*
X546552Y-39461271D01*
X629814Y-39359814D01*
X731271Y-39276552D01*
X767009Y-39247222D01*
X923534Y-39163557D01*
X1093373Y-39112037D01*
X1159557Y-39105519D01*
X1225740Y-39099000D01*
X1314260Y-39099000D01*
X1380443Y-39105519D01*
X1380443Y-39105519D01*
G37*
G36*
X-1159557Y-39105519D02*
G01*
X-1093373Y-39112037D01*
X-923534Y-39163557D01*
X-767009Y-39247222D01*
X-731271Y-39276552D01*
X-629814Y-39359814D01*
X-546552Y-39461271D01*
X-517222Y-39497009D01*
X-433557Y-39653534D01*
X-382037Y-39823373D01*
X-364641Y-40000000D01*
X-382037Y-40176627D01*
X-433557Y-40346466D01*
X-517222Y-40502991D01*
X-546552Y-40538729D01*
X-629814Y-40640186D01*
X-731271Y-40723448D01*
X-767009Y-40752778D01*
X-923534Y-40836443D01*
X-1093373Y-40887963D01*
X-1159557Y-40894481D01*
X-1225740Y-40901000D01*
X-1314260Y-40901000D01*
X-1380443Y-40894481D01*
X-1446627Y-40887963D01*
X-1616466Y-40836443D01*
X-1772991Y-40752778D01*
X-1808729Y-40723448D01*
X-1910186Y-40640186D01*
X-1993448Y-40538729D01*
X-2022778Y-40502991D01*
X-2106443Y-40346466D01*
X-2157963Y-40176627D01*
X-2175359Y-40000000D01*
X-2157963Y-39823373D01*
X-2106443Y-39653534D01*
X-2022778Y-39497009D01*
X-1993448Y-39461271D01*
X-1910186Y-39359814D01*
X-1808729Y-39276552D01*
X-1772991Y-39247222D01*
X-1616466Y-39163557D01*
X-1446627Y-39112037D01*
X-1380443Y-39105519D01*
X-1314260Y-39099000D01*
X-1225740Y-39099000D01*
X-1159557Y-39105519D01*
X-1159557Y-39105519D01*
G37*
G36*
X-2909000Y-40901000D02*
G01*
X-4711000Y-40901000D01*
X-4711000Y-39099000D01*
X-2909000Y-39099000D01*
X-2909000Y-40901000D01*
X-2909000Y-40901000D01*
G37*
G36*
X13601000Y-30111000D02*
G01*
X11799000Y-30111000D01*
X11799000Y-28309000D01*
X13601000Y-28309000D01*
X13601000Y-30111000D01*
X13601000Y-30111000D01*
G37*
G36*
X-11799000Y-30111000D02*
G01*
X-13601000Y-30111000D01*
X-13601000Y-28309000D01*
X-11799000Y-28309000D01*
X-11799000Y-30111000D01*
X-11799000Y-30111000D01*
G37*
G36*
X-11774000Y-25776000D02*
G01*
X-15226000Y-25776000D01*
X-15226000Y-24674000D01*
X-11774000Y-24674000D01*
X-11774000Y-25776000D01*
X-11774000Y-25776000D01*
G37*
G36*
X-18524000Y-25776000D02*
G01*
X-21976000Y-25776000D01*
X-21976000Y-24674000D01*
X-18524000Y-24674000D01*
X-18524000Y-25776000D01*
X-18524000Y-25776000D01*
G37*
G36*
X-25274000Y-25776000D02*
G01*
X-26876000Y-25776000D01*
X-26876000Y-24674000D01*
X-25274000Y-24674000D01*
X-25274000Y-25776000D01*
X-25274000Y-25776000D01*
G37*
G36*
X15226000Y-25776000D02*
G01*
X11774000Y-25776000D01*
X11774000Y-24674000D01*
X15226000Y-24674000D01*
X15226000Y-25776000D01*
X15226000Y-25776000D01*
G37*
G36*
X-5024000Y-25776000D02*
G01*
X-8476000Y-25776000D01*
X-8476000Y-24674000D01*
X-5024000Y-24674000D01*
X-5024000Y-25776000D01*
X-5024000Y-25776000D01*
G37*
G36*
X1726000Y-25776000D02*
G01*
X-1726000Y-25776000D01*
X-1726000Y-24674000D01*
X1726000Y-24674000D01*
X1726000Y-25776000D01*
X1726000Y-25776000D01*
G37*
G36*
X8476000Y-25776000D02*
G01*
X5024000Y-25776000D01*
X5024000Y-24674000D01*
X8476000Y-24674000D01*
X8476000Y-25776000D01*
X8476000Y-25776000D01*
G37*
G36*
X21976000Y-25776000D02*
G01*
X18524000Y-25776000D01*
X18524000Y-24674000D01*
X21976000Y-24674000D01*
X21976000Y-25776000D01*
X21976000Y-25776000D01*
G37*
G36*
X26876000Y-25776000D02*
G01*
X25274000Y-25776000D01*
X25274000Y-24674000D01*
X26876000Y-24674000D01*
X26876000Y-25776000D01*
X26876000Y-25776000D01*
G37*
G36*
X35673512Y-23233927D02*
G01*
X35822812Y-23263624D01*
X35986784Y-23331544D01*
X36134354Y-23430147D01*
X36259853Y-23555646D01*
X36358456Y-23703216D01*
X36426376Y-23867188D01*
X36461000Y-24041259D01*
X36461000Y-24218741D01*
X36426376Y-24392812D01*
X36358456Y-24556784D01*
X36259853Y-24704354D01*
X36134354Y-24829853D01*
X35986784Y-24928456D01*
X35822812Y-24996376D01*
X35673512Y-25026073D01*
X35648742Y-25031000D01*
X35471258Y-25031000D01*
X35446488Y-25026073D01*
X35297188Y-24996376D01*
X35133216Y-24928456D01*
X34985646Y-24829853D01*
X34860147Y-24704354D01*
X34761544Y-24556784D01*
X34693624Y-24392812D01*
X34659000Y-24218741D01*
X34659000Y-24041259D01*
X34693624Y-23867188D01*
X34761544Y-23703216D01*
X34860147Y-23555646D01*
X34985646Y-23430147D01*
X35133216Y-23331544D01*
X35297188Y-23263624D01*
X35446488Y-23233927D01*
X35471258Y-23229000D01*
X35648742Y-23229000D01*
X35673512Y-23233927D01*
X35673512Y-23233927D01*
G37*
G36*
X-35446488Y-23233927D02*
G01*
X-35297188Y-23263624D01*
X-35133216Y-23331544D01*
X-34985646Y-23430147D01*
X-34860147Y-23555646D01*
X-34761544Y-23703216D01*
X-34693624Y-23867188D01*
X-34659000Y-24041259D01*
X-34659000Y-24218741D01*
X-34693624Y-24392812D01*
X-34761544Y-24556784D01*
X-34860147Y-24704354D01*
X-34985646Y-24829853D01*
X-35133216Y-24928456D01*
X-35297188Y-24996376D01*
X-35446488Y-25026073D01*
X-35471258Y-25031000D01*
X-35648742Y-25031000D01*
X-35673512Y-25026073D01*
X-35822812Y-24996376D01*
X-35986784Y-24928456D01*
X-36134354Y-24829853D01*
X-36259853Y-24704354D01*
X-36358456Y-24556784D01*
X-36426376Y-24392812D01*
X-36461000Y-24218741D01*
X-36461000Y-24041259D01*
X-36426376Y-23867188D01*
X-36358456Y-23703216D01*
X-36259853Y-23555646D01*
X-36134354Y-23430147D01*
X-35986784Y-23331544D01*
X-35822812Y-23263624D01*
X-35673512Y-23233927D01*
X-35648742Y-23229000D01*
X-35471258Y-23229000D01*
X-35446488Y-23233927D01*
X-35446488Y-23233927D01*
G37*
G36*
X-5024000Y-24176000D02*
G01*
X-8476000Y-24176000D01*
X-8476000Y-23074000D01*
X-5024000Y-23074000D01*
X-5024000Y-24176000D01*
X-5024000Y-24176000D01*
G37*
G36*
X1726000Y-24176000D02*
G01*
X-1726000Y-24176000D01*
X-1726000Y-23074000D01*
X1726000Y-23074000D01*
X1726000Y-24176000D01*
X1726000Y-24176000D01*
G37*
G36*
X-11774000Y-24176000D02*
G01*
X-15226000Y-24176000D01*
X-15226000Y-23074000D01*
X-11774000Y-23074000D01*
X-11774000Y-24176000D01*
X-11774000Y-24176000D01*
G37*
G36*
X-25274000Y-24176000D02*
G01*
X-26876000Y-24176000D01*
X-26876000Y-23074000D01*
X-25274000Y-23074000D01*
X-25274000Y-24176000D01*
X-25274000Y-24176000D01*
G37*
G36*
X-18524000Y-24176000D02*
G01*
X-21976000Y-24176000D01*
X-21976000Y-23074000D01*
X-18524000Y-23074000D01*
X-18524000Y-24176000D01*
X-18524000Y-24176000D01*
G37*
G36*
X8476000Y-24176000D02*
G01*
X5024000Y-24176000D01*
X5024000Y-23074000D01*
X8476000Y-23074000D01*
X8476000Y-24176000D01*
X8476000Y-24176000D01*
G37*
G36*
X15226000Y-24176000D02*
G01*
X11774000Y-24176000D01*
X11774000Y-23074000D01*
X15226000Y-23074000D01*
X15226000Y-24176000D01*
X15226000Y-24176000D01*
G37*
G36*
X26876000Y-24176000D02*
G01*
X25274000Y-24176000D01*
X25274000Y-23074000D01*
X26876000Y-23074000D01*
X26876000Y-24176000D01*
X26876000Y-24176000D01*
G37*
G36*
X21976000Y-24176000D02*
G01*
X18524000Y-24176000D01*
X18524000Y-23074000D01*
X21976000Y-23074000D01*
X21976000Y-24176000D01*
X21976000Y-24176000D01*
G37*
G36*
X28264591Y-23143085D02*
G01*
X28298569Y-23153393D01*
X28329890Y-23170134D01*
X28357339Y-23192661D01*
X28379866Y-23220110D01*
X28396607Y-23251431D01*
X28406915Y-23285409D01*
X28411000Y-23326890D01*
X28411000Y-23928110D01*
X28406915Y-23969591D01*
X28396607Y-24003569D01*
X28379866Y-24034890D01*
X28357339Y-24062339D01*
X28329890Y-24084866D01*
X28298569Y-24101607D01*
X28264591Y-24111915D01*
X28223110Y-24116000D01*
X27546890Y-24116000D01*
X27505409Y-24111915D01*
X27471431Y-24101607D01*
X27440110Y-24084866D01*
X27412661Y-24062339D01*
X27390134Y-24034890D01*
X27373393Y-24003569D01*
X27363085Y-23969591D01*
X27359000Y-23928110D01*
X27359000Y-23326890D01*
X27363085Y-23285409D01*
X27373393Y-23251431D01*
X27390134Y-23220110D01*
X27412661Y-23192661D01*
X27440110Y-23170134D01*
X27471431Y-23153393D01*
X27505409Y-23143085D01*
X27546890Y-23139000D01*
X28223110Y-23139000D01*
X28264591Y-23143085D01*
X28264591Y-23143085D01*
G37*
G36*
X-124000Y-21666715D02*
G01*
X-121598Y-21691101D01*
X-114485Y-21714550D01*
X-102934Y-21736161D01*
X-87389Y-21755103D01*
X-68447Y-21770648D01*
X-46836Y-21782199D01*
X-23387Y-21789312D01*
X999Y-21791714D01*
X25385Y-21789312D01*
X48834Y-21782199D01*
X70445Y-21770648D01*
X89387Y-21755103D01*
X104932Y-21736161D01*
X116483Y-21714550D01*
X125396Y-21678968D01*
X128686Y-21645566D01*
X140774Y-21605716D01*
X160399Y-21569001D01*
X186814Y-21536814D01*
X219001Y-21510399D01*
X255716Y-21490774D01*
X295566Y-21478686D01*
X343141Y-21474000D01*
X1506859Y-21474000D01*
X1554434Y-21478686D01*
X1594284Y-21490774D01*
X1630999Y-21510399D01*
X1663186Y-21536814D01*
X1689601Y-21569001D01*
X1709226Y-21605716D01*
X1721314Y-21645566D01*
X1726000Y-21693141D01*
X1726000Y-22356859D01*
X1721314Y-22404434D01*
X1709226Y-22444284D01*
X1689601Y-22480999D01*
X1663186Y-22513186D01*
X1630999Y-22539601D01*
X1594284Y-22559226D01*
X1554434Y-22571314D01*
X1506859Y-22576000D01*
X343141Y-22576000D01*
X295566Y-22571314D01*
X255716Y-22559226D01*
X219001Y-22539601D01*
X186814Y-22513186D01*
X160399Y-22480999D01*
X140774Y-22444284D01*
X128686Y-22404434D01*
X125396Y-22371032D01*
X120615Y-22346999D01*
X111238Y-22324360D01*
X97624Y-22303986D01*
X80297Y-22286659D01*
X59922Y-22273045D01*
X37283Y-22263668D01*
X13250Y-22258888D01*
X-11254Y-22258888D01*
X-35287Y-22263669D01*
X-57926Y-22273046D01*
X-78300Y-22286660D01*
X-95627Y-22303987D01*
X-109241Y-22324362D01*
X-118618Y-22347001D01*
X-124000Y-22383285D01*
X-124000Y-22576000D01*
X-1726000Y-22576000D01*
X-1726000Y-21474000D01*
X-124000Y-21474000D01*
X-124000Y-21666715D01*
X-124000Y-21666715D01*
G37*
G36*
X-6874000Y-21666715D02*
G01*
X-6871598Y-21691101D01*
X-6864485Y-21714550D01*
X-6852934Y-21736161D01*
X-6837389Y-21755103D01*
X-6818447Y-21770648D01*
X-6796836Y-21782199D01*
X-6773387Y-21789312D01*
X-6749001Y-21791714D01*
X-6724615Y-21789312D01*
X-6701166Y-21782199D01*
X-6679555Y-21770648D01*
X-6660613Y-21755103D01*
X-6645068Y-21736161D01*
X-6633517Y-21714550D01*
X-6624604Y-21678968D01*
X-6621314Y-21645566D01*
X-6609226Y-21605716D01*
X-6589601Y-21569001D01*
X-6563186Y-21536814D01*
X-6530999Y-21510399D01*
X-6494284Y-21490774D01*
X-6454434Y-21478686D01*
X-6406859Y-21474000D01*
X-5243141Y-21474000D01*
X-5195566Y-21478686D01*
X-5155716Y-21490774D01*
X-5119001Y-21510399D01*
X-5086814Y-21536814D01*
X-5060399Y-21569001D01*
X-5040774Y-21605716D01*
X-5028686Y-21645566D01*
X-5024000Y-21693141D01*
X-5024000Y-22356859D01*
X-5028686Y-22404434D01*
X-5040774Y-22444284D01*
X-5060399Y-22480999D01*
X-5086814Y-22513186D01*
X-5119001Y-22539601D01*
X-5155716Y-22559226D01*
X-5195566Y-22571314D01*
X-5243141Y-22576000D01*
X-6406859Y-22576000D01*
X-6454434Y-22571314D01*
X-6494284Y-22559226D01*
X-6530999Y-22539601D01*
X-6563186Y-22513186D01*
X-6589601Y-22480999D01*
X-6609226Y-22444284D01*
X-6621314Y-22404434D01*
X-6624604Y-22371032D01*
X-6629385Y-22346999D01*
X-6638762Y-22324360D01*
X-6652376Y-22303986D01*
X-6669703Y-22286659D01*
X-6690078Y-22273045D01*
X-6712717Y-22263668D01*
X-6736750Y-22258888D01*
X-6761254Y-22258888D01*
X-6785287Y-22263669D01*
X-6807926Y-22273046D01*
X-6828300Y-22286660D01*
X-6845627Y-22303987D01*
X-6859241Y-22324362D01*
X-6868618Y-22347001D01*
X-6874000Y-22383285D01*
X-6874000Y-22576000D01*
X-8476000Y-22576000D01*
X-8476000Y-21474000D01*
X-6874000Y-21474000D01*
X-6874000Y-21666715D01*
X-6874000Y-21666715D01*
G37*
G36*
X6626000Y-21666715D02*
G01*
X6628402Y-21691101D01*
X6635515Y-21714550D01*
X6647066Y-21736161D01*
X6662611Y-21755103D01*
X6681553Y-21770648D01*
X6703164Y-21782199D01*
X6726613Y-21789312D01*
X6750999Y-21791714D01*
X6775385Y-21789312D01*
X6798834Y-21782199D01*
X6820445Y-21770648D01*
X6839387Y-21755103D01*
X6854932Y-21736161D01*
X6866483Y-21714550D01*
X6875396Y-21678968D01*
X6878686Y-21645566D01*
X6890774Y-21605716D01*
X6910399Y-21569001D01*
X6936814Y-21536814D01*
X6969001Y-21510399D01*
X7005716Y-21490774D01*
X7045566Y-21478686D01*
X7093141Y-21474000D01*
X8256859Y-21474000D01*
X8304434Y-21478686D01*
X8344284Y-21490774D01*
X8380999Y-21510399D01*
X8413186Y-21536814D01*
X8439601Y-21569001D01*
X8459226Y-21605716D01*
X8471314Y-21645566D01*
X8476000Y-21693141D01*
X8476000Y-22356859D01*
X8471314Y-22404434D01*
X8459226Y-22444284D01*
X8439601Y-22480999D01*
X8413186Y-22513186D01*
X8380999Y-22539601D01*
X8344284Y-22559226D01*
X8304434Y-22571314D01*
X8256859Y-22576000D01*
X7093141Y-22576000D01*
X7045566Y-22571314D01*
X7005716Y-22559226D01*
X6969001Y-22539601D01*
X6936814Y-22513186D01*
X6910399Y-22480999D01*
X6890774Y-22444284D01*
X6878686Y-22404434D01*
X6875396Y-22371032D01*
X6870615Y-22346999D01*
X6861238Y-22324360D01*
X6847624Y-22303986D01*
X6830297Y-22286659D01*
X6809922Y-22273045D01*
X6787283Y-22263668D01*
X6763250Y-22258888D01*
X6738746Y-22258888D01*
X6714713Y-22263669D01*
X6692074Y-22273046D01*
X6671700Y-22286660D01*
X6654373Y-22303987D01*
X6640759Y-22324362D01*
X6631382Y-22347001D01*
X6626000Y-22383285D01*
X6626000Y-22576000D01*
X5024000Y-22576000D01*
X5024000Y-21474000D01*
X6626000Y-21474000D01*
X6626000Y-21666715D01*
X6626000Y-21666715D01*
G37*
G36*
X13376000Y-21666715D02*
G01*
X13378402Y-21691101D01*
X13385515Y-21714550D01*
X13397066Y-21736161D01*
X13412611Y-21755103D01*
X13431553Y-21770648D01*
X13453164Y-21782199D01*
X13476613Y-21789312D01*
X13500999Y-21791714D01*
X13525385Y-21789312D01*
X13548834Y-21782199D01*
X13570445Y-21770648D01*
X13589387Y-21755103D01*
X13604932Y-21736161D01*
X13616483Y-21714550D01*
X13625396Y-21678968D01*
X13628686Y-21645566D01*
X13640774Y-21605716D01*
X13660399Y-21569001D01*
X13686814Y-21536814D01*
X13719001Y-21510399D01*
X13755716Y-21490774D01*
X13795566Y-21478686D01*
X13843141Y-21474000D01*
X15006859Y-21474000D01*
X15054434Y-21478686D01*
X15094284Y-21490774D01*
X15130999Y-21510399D01*
X15163186Y-21536814D01*
X15189601Y-21569001D01*
X15209226Y-21605716D01*
X15221314Y-21645566D01*
X15226000Y-21693141D01*
X15226000Y-22356859D01*
X15221314Y-22404434D01*
X15209226Y-22444284D01*
X15189601Y-22480999D01*
X15163186Y-22513186D01*
X15130999Y-22539601D01*
X15094284Y-22559226D01*
X15054434Y-22571314D01*
X15006859Y-22576000D01*
X13843141Y-22576000D01*
X13795566Y-22571314D01*
X13755716Y-22559226D01*
X13719001Y-22539601D01*
X13686814Y-22513186D01*
X13660399Y-22480999D01*
X13640774Y-22444284D01*
X13628686Y-22404434D01*
X13625396Y-22371032D01*
X13620615Y-22346999D01*
X13611238Y-22324360D01*
X13597624Y-22303986D01*
X13580297Y-22286659D01*
X13559922Y-22273045D01*
X13537283Y-22263668D01*
X13513250Y-22258888D01*
X13488746Y-22258888D01*
X13464713Y-22263669D01*
X13442074Y-22273046D01*
X13421700Y-22286660D01*
X13404373Y-22303987D01*
X13390759Y-22324362D01*
X13381382Y-22347001D01*
X13376000Y-22383285D01*
X13376000Y-22576000D01*
X11774000Y-22576000D01*
X11774000Y-21474000D01*
X13376000Y-21474000D01*
X13376000Y-21666715D01*
X13376000Y-21666715D01*
G37*
G36*
X-13624000Y-21666715D02*
G01*
X-13621598Y-21691101D01*
X-13614485Y-21714550D01*
X-13602934Y-21736161D01*
X-13587389Y-21755103D01*
X-13568447Y-21770648D01*
X-13546836Y-21782199D01*
X-13523387Y-21789312D01*
X-13499001Y-21791714D01*
X-13474615Y-21789312D01*
X-13451166Y-21782199D01*
X-13429555Y-21770648D01*
X-13410613Y-21755103D01*
X-13395068Y-21736161D01*
X-13383517Y-21714550D01*
X-13374604Y-21678968D01*
X-13371314Y-21645566D01*
X-13359226Y-21605716D01*
X-13339601Y-21569001D01*
X-13313186Y-21536814D01*
X-13280999Y-21510399D01*
X-13244284Y-21490774D01*
X-13204434Y-21478686D01*
X-13156859Y-21474000D01*
X-11993141Y-21474000D01*
X-11945566Y-21478686D01*
X-11905716Y-21490774D01*
X-11869001Y-21510399D01*
X-11836814Y-21536814D01*
X-11810399Y-21569001D01*
X-11790774Y-21605716D01*
X-11778686Y-21645566D01*
X-11774000Y-21693141D01*
X-11774000Y-22356859D01*
X-11778686Y-22404434D01*
X-11790774Y-22444284D01*
X-11810399Y-22480999D01*
X-11836814Y-22513186D01*
X-11869001Y-22539601D01*
X-11905716Y-22559226D01*
X-11945566Y-22571314D01*
X-11993141Y-22576000D01*
X-13156859Y-22576000D01*
X-13204434Y-22571314D01*
X-13244284Y-22559226D01*
X-13280999Y-22539601D01*
X-13313186Y-22513186D01*
X-13339601Y-22480999D01*
X-13359226Y-22444284D01*
X-13371314Y-22404434D01*
X-13374604Y-22371032D01*
X-13379385Y-22346999D01*
X-13388762Y-22324360D01*
X-13402376Y-22303986D01*
X-13419703Y-22286659D01*
X-13440078Y-22273045D01*
X-13462717Y-22263668D01*
X-13486750Y-22258888D01*
X-13511254Y-22258888D01*
X-13535287Y-22263669D01*
X-13557926Y-22273046D01*
X-13578300Y-22286660D01*
X-13595627Y-22303987D01*
X-13609241Y-22324362D01*
X-13618618Y-22347001D01*
X-13624000Y-22383285D01*
X-13624000Y-22576000D01*
X-15226000Y-22576000D01*
X-15226000Y-21474000D01*
X-13624000Y-21474000D01*
X-13624000Y-21666715D01*
X-13624000Y-21666715D01*
G37*
G36*
X26876000Y-22576000D02*
G01*
X25274000Y-22576000D01*
X25274000Y-21474000D01*
X26876000Y-21474000D01*
X26876000Y-22576000D01*
X26876000Y-22576000D01*
G37*
G36*
X20126000Y-21666715D02*
G01*
X20128402Y-21691101D01*
X20135515Y-21714550D01*
X20147066Y-21736161D01*
X20162611Y-21755103D01*
X20181553Y-21770648D01*
X20203164Y-21782199D01*
X20226613Y-21789312D01*
X20250999Y-21791714D01*
X20275385Y-21789312D01*
X20298834Y-21782199D01*
X20320445Y-21770648D01*
X20339387Y-21755103D01*
X20354932Y-21736161D01*
X20366483Y-21714550D01*
X20375396Y-21678968D01*
X20378686Y-21645566D01*
X20390774Y-21605716D01*
X20410399Y-21569001D01*
X20436814Y-21536814D01*
X20469001Y-21510399D01*
X20505716Y-21490774D01*
X20545566Y-21478686D01*
X20593141Y-21474000D01*
X21756859Y-21474000D01*
X21804434Y-21478686D01*
X21844284Y-21490774D01*
X21880999Y-21510399D01*
X21913186Y-21536814D01*
X21939601Y-21569001D01*
X21959226Y-21605716D01*
X21971314Y-21645566D01*
X21976000Y-21693141D01*
X21976000Y-22356859D01*
X21971314Y-22404434D01*
X21959226Y-22444284D01*
X21939601Y-22480999D01*
X21913186Y-22513186D01*
X21880999Y-22539601D01*
X21844284Y-22559226D01*
X21804434Y-22571314D01*
X21756859Y-22576000D01*
X20593141Y-22576000D01*
X20545566Y-22571314D01*
X20505716Y-22559226D01*
X20469001Y-22539601D01*
X20436814Y-22513186D01*
X20410399Y-22480999D01*
X20390774Y-22444284D01*
X20378686Y-22404434D01*
X20375396Y-22371032D01*
X20370615Y-22346999D01*
X20361238Y-22324360D01*
X20347624Y-22303986D01*
X20330297Y-22286659D01*
X20309922Y-22273045D01*
X20287283Y-22263668D01*
X20263250Y-22258888D01*
X20238746Y-22258888D01*
X20214713Y-22263669D01*
X20192074Y-22273046D01*
X20171700Y-22286660D01*
X20154373Y-22303987D01*
X20140759Y-22324362D01*
X20131382Y-22347001D01*
X20126000Y-22383285D01*
X20126000Y-22576000D01*
X18524000Y-22576000D01*
X18524000Y-21474000D01*
X20126000Y-21474000D01*
X20126000Y-21666715D01*
X20126000Y-21666715D01*
G37*
G36*
X-20374000Y-21666715D02*
G01*
X-20371598Y-21691101D01*
X-20364485Y-21714550D01*
X-20352934Y-21736161D01*
X-20337389Y-21755103D01*
X-20318447Y-21770648D01*
X-20296836Y-21782199D01*
X-20273387Y-21789312D01*
X-20249001Y-21791714D01*
X-20224615Y-21789312D01*
X-20201166Y-21782199D01*
X-20179555Y-21770648D01*
X-20160613Y-21755103D01*
X-20145068Y-21736161D01*
X-20133517Y-21714550D01*
X-20124604Y-21678968D01*
X-20121314Y-21645566D01*
X-20109226Y-21605716D01*
X-20089601Y-21569001D01*
X-20063186Y-21536814D01*
X-20030999Y-21510399D01*
X-19994284Y-21490774D01*
X-19954434Y-21478686D01*
X-19906859Y-21474000D01*
X-18743141Y-21474000D01*
X-18695566Y-21478686D01*
X-18655716Y-21490774D01*
X-18619001Y-21510399D01*
X-18586814Y-21536814D01*
X-18560399Y-21569001D01*
X-18540774Y-21605716D01*
X-18528686Y-21645566D01*
X-18524000Y-21693141D01*
X-18524000Y-22356859D01*
X-18528686Y-22404434D01*
X-18540774Y-22444284D01*
X-18560399Y-22480999D01*
X-18586814Y-22513186D01*
X-18619001Y-22539601D01*
X-18655716Y-22559226D01*
X-18695566Y-22571314D01*
X-18743141Y-22576000D01*
X-19906859Y-22576000D01*
X-19954434Y-22571314D01*
X-19994284Y-22559226D01*
X-20030999Y-22539601D01*
X-20063186Y-22513186D01*
X-20089601Y-22480999D01*
X-20109226Y-22444284D01*
X-20121314Y-22404434D01*
X-20124604Y-22371032D01*
X-20129385Y-22346999D01*
X-20138762Y-22324360D01*
X-20152376Y-22303986D01*
X-20169703Y-22286659D01*
X-20190078Y-22273045D01*
X-20212717Y-22263668D01*
X-20236750Y-22258888D01*
X-20261254Y-22258888D01*
X-20285287Y-22263669D01*
X-20307926Y-22273046D01*
X-20328300Y-22286660D01*
X-20345627Y-22303987D01*
X-20359241Y-22324362D01*
X-20368618Y-22347001D01*
X-20374000Y-22383285D01*
X-20374000Y-22576000D01*
X-21976000Y-22576000D01*
X-21976000Y-21474000D01*
X-20374000Y-21474000D01*
X-20374000Y-21666715D01*
X-20374000Y-21666715D01*
G37*
G36*
X-25445566Y-21478686D02*
G01*
X-25405716Y-21490774D01*
X-25369001Y-21510399D01*
X-25336814Y-21536814D01*
X-25310399Y-21569001D01*
X-25290774Y-21605716D01*
X-25278686Y-21645566D01*
X-25274000Y-21693141D01*
X-25274000Y-22356859D01*
X-25278686Y-22404434D01*
X-25290774Y-22444284D01*
X-25310399Y-22480999D01*
X-25336814Y-22513186D01*
X-25369001Y-22539601D01*
X-25405716Y-22559226D01*
X-25445566Y-22571314D01*
X-25493141Y-22576000D01*
X-26656859Y-22576000D01*
X-26704434Y-22571314D01*
X-26744284Y-22559226D01*
X-26780999Y-22539601D01*
X-26813186Y-22513186D01*
X-26839601Y-22480999D01*
X-26859226Y-22444284D01*
X-26871314Y-22404434D01*
X-26876000Y-22356859D01*
X-26876000Y-21693141D01*
X-26871314Y-21645566D01*
X-26859226Y-21605716D01*
X-26839601Y-21569001D01*
X-26813186Y-21536814D01*
X-26780999Y-21510399D01*
X-26744284Y-21490774D01*
X-26704434Y-21478686D01*
X-26656859Y-21474000D01*
X-25493141Y-21474000D01*
X-25445566Y-21478686D01*
X-25445566Y-21478686D01*
G37*
G36*
X28264591Y-21568085D02*
G01*
X28298569Y-21578393D01*
X28329890Y-21595134D01*
X28357339Y-21617661D01*
X28379866Y-21645110D01*
X28396607Y-21676431D01*
X28406915Y-21710409D01*
X28411000Y-21751890D01*
X28411000Y-22353110D01*
X28406915Y-22394591D01*
X28396607Y-22428569D01*
X28379866Y-22459890D01*
X28357339Y-22487339D01*
X28329890Y-22509866D01*
X28298569Y-22526607D01*
X28264591Y-22536915D01*
X28223110Y-22541000D01*
X27546890Y-22541000D01*
X27505409Y-22536915D01*
X27471431Y-22526607D01*
X27440110Y-22509866D01*
X27412661Y-22487339D01*
X27390134Y-22459890D01*
X27373393Y-22428569D01*
X27363085Y-22394591D01*
X27359000Y-22353110D01*
X27359000Y-21751890D01*
X27363085Y-21710409D01*
X27373393Y-21676431D01*
X27390134Y-21645110D01*
X27412661Y-21617661D01*
X27440110Y-21595134D01*
X27471431Y-21578393D01*
X27505409Y-21568085D01*
X27546890Y-21564000D01*
X28223110Y-21564000D01*
X28264591Y-21568085D01*
X28264591Y-21568085D01*
G37*
G36*
X-35446488Y-20693927D02*
G01*
X-35297188Y-20723624D01*
X-35133216Y-20791544D01*
X-34985646Y-20890147D01*
X-34860147Y-21015646D01*
X-34761544Y-21163216D01*
X-34693624Y-21327188D01*
X-34664422Y-21474000D01*
X-34661085Y-21490774D01*
X-34659000Y-21501259D01*
X-34659000Y-21678741D01*
X-34693624Y-21852812D01*
X-34761544Y-22016784D01*
X-34860147Y-22164354D01*
X-34985646Y-22289853D01*
X-35133216Y-22388456D01*
X-35297188Y-22456376D01*
X-35446488Y-22486073D01*
X-35471258Y-22491000D01*
X-35648742Y-22491000D01*
X-35673512Y-22486073D01*
X-35822812Y-22456376D01*
X-35986784Y-22388456D01*
X-36134354Y-22289853D01*
X-36259853Y-22164354D01*
X-36358456Y-22016784D01*
X-36426376Y-21852812D01*
X-36461000Y-21678741D01*
X-36461000Y-21501259D01*
X-36458914Y-21490774D01*
X-36455578Y-21474000D01*
X-36426376Y-21327188D01*
X-36358456Y-21163216D01*
X-36259853Y-21015646D01*
X-36134354Y-20890147D01*
X-35986784Y-20791544D01*
X-35822812Y-20723624D01*
X-35673512Y-20693927D01*
X-35648742Y-20689000D01*
X-35471258Y-20689000D01*
X-35446488Y-20693927D01*
X-35446488Y-20693927D01*
G37*
G36*
X35673512Y-20693927D02*
G01*
X35822812Y-20723624D01*
X35986784Y-20791544D01*
X36134354Y-20890147D01*
X36259853Y-21015646D01*
X36358456Y-21163216D01*
X36426376Y-21327188D01*
X36455578Y-21474000D01*
X36458915Y-21490774D01*
X36461000Y-21501259D01*
X36461000Y-21678741D01*
X36426376Y-21852812D01*
X36358456Y-22016784D01*
X36259853Y-22164354D01*
X36134354Y-22289853D01*
X35986784Y-22388456D01*
X35822812Y-22456376D01*
X35673512Y-22486073D01*
X35648742Y-22491000D01*
X35471258Y-22491000D01*
X35446488Y-22486073D01*
X35297188Y-22456376D01*
X35133216Y-22388456D01*
X34985646Y-22289853D01*
X34860147Y-22164354D01*
X34761544Y-22016784D01*
X34693624Y-21852812D01*
X34659000Y-21678741D01*
X34659000Y-21501259D01*
X34661086Y-21490774D01*
X34664422Y-21474000D01*
X34693624Y-21327188D01*
X34761544Y-21163216D01*
X34860147Y-21015646D01*
X34985646Y-20890147D01*
X35133216Y-20791544D01*
X35297188Y-20723624D01*
X35446488Y-20693927D01*
X35471258Y-20689000D01*
X35648742Y-20689000D01*
X35673512Y-20693927D01*
X35673512Y-20693927D01*
G37*
G36*
X-35446488Y-18153927D02*
G01*
X-35297188Y-18183624D01*
X-35133216Y-18251544D01*
X-34985646Y-18350147D01*
X-34860147Y-18475646D01*
X-34761544Y-18623216D01*
X-34693624Y-18787188D01*
X-34659000Y-18961259D01*
X-34659000Y-19138741D01*
X-34693624Y-19312812D01*
X-34761544Y-19476784D01*
X-34860147Y-19624354D01*
X-34985646Y-19749853D01*
X-35133216Y-19848456D01*
X-35297188Y-19916376D01*
X-35446488Y-19946073D01*
X-35471258Y-19951000D01*
X-35648742Y-19951000D01*
X-35673512Y-19946073D01*
X-35822812Y-19916376D01*
X-35986784Y-19848456D01*
X-36134354Y-19749853D01*
X-36259853Y-19624354D01*
X-36358456Y-19476784D01*
X-36426376Y-19312812D01*
X-36461000Y-19138741D01*
X-36461000Y-18961259D01*
X-36426376Y-18787188D01*
X-36358456Y-18623216D01*
X-36259853Y-18475646D01*
X-36134354Y-18350147D01*
X-35986784Y-18251544D01*
X-35822812Y-18183624D01*
X-35673512Y-18153927D01*
X-35648742Y-18149000D01*
X-35471258Y-18149000D01*
X-35446488Y-18153927D01*
X-35446488Y-18153927D01*
G37*
G36*
X35673512Y-18153927D02*
G01*
X35822812Y-18183624D01*
X35986784Y-18251544D01*
X36134354Y-18350147D01*
X36259853Y-18475646D01*
X36358456Y-18623216D01*
X36426376Y-18787188D01*
X36461000Y-18961259D01*
X36461000Y-19138741D01*
X36426376Y-19312812D01*
X36358456Y-19476784D01*
X36259853Y-19624354D01*
X36134354Y-19749853D01*
X35986784Y-19848456D01*
X35822812Y-19916376D01*
X35673512Y-19946073D01*
X35648742Y-19951000D01*
X35471258Y-19951000D01*
X35446488Y-19946073D01*
X35297188Y-19916376D01*
X35133216Y-19848456D01*
X34985646Y-19749853D01*
X34860147Y-19624354D01*
X34761544Y-19476784D01*
X34693624Y-19312812D01*
X34659000Y-19138741D01*
X34659000Y-18961259D01*
X34693624Y-18787188D01*
X34761544Y-18623216D01*
X34860147Y-18475646D01*
X34985646Y-18350147D01*
X35133216Y-18251544D01*
X35297188Y-18183624D01*
X35446488Y-18153927D01*
X35471258Y-18149000D01*
X35648742Y-18149000D01*
X35673512Y-18153927D01*
X35673512Y-18153927D01*
G37*
G36*
X-18524000Y-19026000D02*
G01*
X-21976000Y-19026000D01*
X-21976000Y-17924000D01*
X-18524000Y-17924000D01*
X-18524000Y-19026000D01*
X-18524000Y-19026000D01*
G37*
G36*
X-11774000Y-19026000D02*
G01*
X-15226000Y-19026000D01*
X-15226000Y-17924000D01*
X-11774000Y-17924000D01*
X-11774000Y-19026000D01*
X-11774000Y-19026000D01*
G37*
G36*
X-5024000Y-19026000D02*
G01*
X-8476000Y-19026000D01*
X-8476000Y-17924000D01*
X-5024000Y-17924000D01*
X-5024000Y-19026000D01*
X-5024000Y-19026000D01*
G37*
G36*
X1726000Y-19026000D02*
G01*
X-1726000Y-19026000D01*
X-1726000Y-17924000D01*
X1726000Y-17924000D01*
X1726000Y-19026000D01*
X1726000Y-19026000D01*
G37*
G36*
X8476000Y-19026000D02*
G01*
X5024000Y-19026000D01*
X5024000Y-17924000D01*
X8476000Y-17924000D01*
X8476000Y-19026000D01*
X8476000Y-19026000D01*
G37*
G36*
X15226000Y-19026000D02*
G01*
X11774000Y-19026000D01*
X11774000Y-17924000D01*
X15226000Y-17924000D01*
X15226000Y-19026000D01*
X15226000Y-19026000D01*
G37*
G36*
X21976000Y-19026000D02*
G01*
X18524000Y-19026000D01*
X18524000Y-17924000D01*
X21976000Y-17924000D01*
X21976000Y-19026000D01*
X21976000Y-19026000D01*
G37*
G36*
X26876000Y-19026000D02*
G01*
X25274000Y-19026000D01*
X25274000Y-17924000D01*
X26876000Y-17924000D01*
X26876000Y-19026000D01*
X26876000Y-19026000D01*
G37*
G36*
X-25274000Y-19026000D02*
G01*
X-26876000Y-19026000D01*
X-26876000Y-17924000D01*
X-25274000Y-17924000D01*
X-25274000Y-19026000D01*
X-25274000Y-19026000D01*
G37*
G36*
X1726000Y-17426000D02*
G01*
X-1726000Y-17426000D01*
X-1726000Y-16324000D01*
X1726000Y-16324000D01*
X1726000Y-17426000D01*
X1726000Y-17426000D01*
G37*
G36*
X26876000Y-17426000D02*
G01*
X25274000Y-17426000D01*
X25274000Y-16324000D01*
X26876000Y-16324000D01*
X26876000Y-17426000D01*
X26876000Y-17426000D01*
G37*
G36*
X21976000Y-17426000D02*
G01*
X18524000Y-17426000D01*
X18524000Y-16324000D01*
X21976000Y-16324000D01*
X21976000Y-17426000D01*
X21976000Y-17426000D01*
G37*
G36*
X-5024000Y-17426000D02*
G01*
X-8476000Y-17426000D01*
X-8476000Y-16324000D01*
X-5024000Y-16324000D01*
X-5024000Y-17426000D01*
X-5024000Y-17426000D01*
G37*
G36*
X15226000Y-17426000D02*
G01*
X11774000Y-17426000D01*
X11774000Y-16324000D01*
X15226000Y-16324000D01*
X15226000Y-17426000D01*
X15226000Y-17426000D01*
G37*
G36*
X8476000Y-17426000D02*
G01*
X5024000Y-17426000D01*
X5024000Y-16324000D01*
X8476000Y-16324000D01*
X8476000Y-17426000D01*
X8476000Y-17426000D01*
G37*
G36*
X-11774000Y-17426000D02*
G01*
X-15226000Y-17426000D01*
X-15226000Y-16324000D01*
X-11774000Y-16324000D01*
X-11774000Y-17426000D01*
X-11774000Y-17426000D01*
G37*
G36*
X-18524000Y-17426000D02*
G01*
X-21976000Y-17426000D01*
X-21976000Y-16324000D01*
X-18524000Y-16324000D01*
X-18524000Y-17426000D01*
X-18524000Y-17426000D01*
G37*
G36*
X-25274000Y-17426000D02*
G01*
X-26876000Y-17426000D01*
X-26876000Y-16324000D01*
X-25274000Y-16324000D01*
X-25274000Y-17426000D01*
X-25274000Y-17426000D01*
G37*
G36*
X35673512Y-15613927D02*
G01*
X35822812Y-15643624D01*
X35986784Y-15711544D01*
X36134354Y-15810147D01*
X36259853Y-15935646D01*
X36358456Y-16083216D01*
X36426376Y-16247188D01*
X36461000Y-16421259D01*
X36461000Y-16598741D01*
X36426376Y-16772812D01*
X36358456Y-16936784D01*
X36259853Y-17084354D01*
X36134354Y-17209853D01*
X35986784Y-17308456D01*
X35822812Y-17376376D01*
X35673512Y-17406073D01*
X35648742Y-17411000D01*
X35471258Y-17411000D01*
X35446488Y-17406073D01*
X35297188Y-17376376D01*
X35133216Y-17308456D01*
X34985646Y-17209853D01*
X34860147Y-17084354D01*
X34761544Y-16936784D01*
X34693624Y-16772812D01*
X34659000Y-16598741D01*
X34659000Y-16421259D01*
X34693624Y-16247188D01*
X34761544Y-16083216D01*
X34860147Y-15935646D01*
X34985646Y-15810147D01*
X35133216Y-15711544D01*
X35297188Y-15643624D01*
X35446488Y-15613927D01*
X35471258Y-15609000D01*
X35648742Y-15609000D01*
X35673512Y-15613927D01*
X35673512Y-15613927D01*
G37*
G36*
X-35446488Y-15613927D02*
G01*
X-35297188Y-15643624D01*
X-35133216Y-15711544D01*
X-34985646Y-15810147D01*
X-34860147Y-15935646D01*
X-34761544Y-16083216D01*
X-34693624Y-16247188D01*
X-34659000Y-16421259D01*
X-34659000Y-16598741D01*
X-34693624Y-16772812D01*
X-34761544Y-16936784D01*
X-34860147Y-17084354D01*
X-34985646Y-17209853D01*
X-35133216Y-17308456D01*
X-35297188Y-17376376D01*
X-35446488Y-17406073D01*
X-35471258Y-17411000D01*
X-35648742Y-17411000D01*
X-35673512Y-17406073D01*
X-35822812Y-17376376D01*
X-35986784Y-17308456D01*
X-36134354Y-17209853D01*
X-36259853Y-17084354D01*
X-36358456Y-16936784D01*
X-36426376Y-16772812D01*
X-36461000Y-16598741D01*
X-36461000Y-16421259D01*
X-36426376Y-16247188D01*
X-36358456Y-16083216D01*
X-36259853Y-15935646D01*
X-36134354Y-15810147D01*
X-35986784Y-15711544D01*
X-35822812Y-15643624D01*
X-35673512Y-15613927D01*
X-35648742Y-15609000D01*
X-35471258Y-15609000D01*
X-35446488Y-15613927D01*
X-35446488Y-15613927D01*
G37*
G36*
X28264591Y-16383085D02*
G01*
X28298569Y-16393393D01*
X28329890Y-16410134D01*
X28357339Y-16432661D01*
X28379866Y-16460110D01*
X28396607Y-16491431D01*
X28406915Y-16525409D01*
X28411000Y-16566890D01*
X28411000Y-17168110D01*
X28406915Y-17209591D01*
X28396607Y-17243569D01*
X28379866Y-17274890D01*
X28357339Y-17302339D01*
X28329890Y-17324866D01*
X28298569Y-17341607D01*
X28264591Y-17351915D01*
X28223110Y-17356000D01*
X27546890Y-17356000D01*
X27505409Y-17351915D01*
X27471431Y-17341607D01*
X27440110Y-17324866D01*
X27412661Y-17302339D01*
X27390134Y-17274890D01*
X27373393Y-17243569D01*
X27363085Y-17209591D01*
X27359000Y-17168110D01*
X27359000Y-16566890D01*
X27363085Y-16525409D01*
X27373393Y-16491431D01*
X27390134Y-16460110D01*
X27412661Y-16432661D01*
X27440110Y-16410134D01*
X27471431Y-16393393D01*
X27505409Y-16383085D01*
X27546890Y-16379000D01*
X28223110Y-16379000D01*
X28264591Y-16383085D01*
X28264591Y-16383085D01*
G37*
G36*
X6626000Y-14916715D02*
G01*
X6628402Y-14941101D01*
X6635515Y-14964550D01*
X6647066Y-14986161D01*
X6662611Y-15005103D01*
X6681553Y-15020648D01*
X6703164Y-15032199D01*
X6726613Y-15039312D01*
X6750999Y-15041714D01*
X6775385Y-15039312D01*
X6798834Y-15032199D01*
X6820445Y-15020648D01*
X6839387Y-15005103D01*
X6854932Y-14986161D01*
X6866483Y-14964550D01*
X6875396Y-14928968D01*
X6878686Y-14895566D01*
X6890774Y-14855716D01*
X6910399Y-14819001D01*
X6936814Y-14786814D01*
X6969001Y-14760399D01*
X7005716Y-14740774D01*
X7045566Y-14728686D01*
X7093141Y-14724000D01*
X8256859Y-14724000D01*
X8304434Y-14728686D01*
X8344284Y-14740774D01*
X8380999Y-14760399D01*
X8413186Y-14786814D01*
X8439601Y-14819001D01*
X8459226Y-14855716D01*
X8471314Y-14895566D01*
X8476000Y-14943141D01*
X8476000Y-15606859D01*
X8471314Y-15654434D01*
X8459226Y-15694284D01*
X8439601Y-15730999D01*
X8413186Y-15763186D01*
X8380999Y-15789601D01*
X8344284Y-15809226D01*
X8304434Y-15821314D01*
X8256859Y-15826000D01*
X7093141Y-15826000D01*
X7045566Y-15821314D01*
X7005716Y-15809226D01*
X6969001Y-15789601D01*
X6936814Y-15763186D01*
X6910399Y-15730999D01*
X6890774Y-15694284D01*
X6878686Y-15654434D01*
X6875396Y-15621032D01*
X6870615Y-15596999D01*
X6861238Y-15574360D01*
X6847624Y-15553986D01*
X6830297Y-15536659D01*
X6809922Y-15523045D01*
X6787283Y-15513668D01*
X6763250Y-15508888D01*
X6738746Y-15508888D01*
X6714713Y-15513669D01*
X6692074Y-15523046D01*
X6671700Y-15536660D01*
X6654373Y-15553987D01*
X6640759Y-15574362D01*
X6631382Y-15597001D01*
X6626000Y-15633285D01*
X6626000Y-15826000D01*
X5024000Y-15826000D01*
X5024000Y-14724000D01*
X6626000Y-14724000D01*
X6626000Y-14916715D01*
X6626000Y-14916715D01*
G37*
G36*
X26876000Y-15826000D02*
G01*
X25274000Y-15826000D01*
X25274000Y-14724000D01*
X26876000Y-14724000D01*
X26876000Y-15826000D01*
X26876000Y-15826000D01*
G37*
G36*
X-25445566Y-14728686D02*
G01*
X-25405716Y-14740774D01*
X-25369001Y-14760399D01*
X-25336814Y-14786814D01*
X-25310399Y-14819001D01*
X-25290774Y-14855716D01*
X-25278686Y-14895566D01*
X-25274000Y-14943141D01*
X-25274000Y-15606859D01*
X-25278686Y-15654434D01*
X-25290774Y-15694284D01*
X-25310399Y-15730999D01*
X-25336814Y-15763186D01*
X-25369001Y-15789601D01*
X-25405716Y-15809226D01*
X-25445566Y-15821314D01*
X-25493141Y-15826000D01*
X-26656859Y-15826000D01*
X-26704434Y-15821314D01*
X-26744284Y-15809226D01*
X-26780999Y-15789601D01*
X-26813186Y-15763186D01*
X-26839601Y-15730999D01*
X-26859226Y-15694284D01*
X-26871314Y-15654434D01*
X-26876000Y-15606859D01*
X-26876000Y-14943141D01*
X-26871314Y-14895566D01*
X-26859226Y-14855716D01*
X-26839601Y-14819001D01*
X-26813186Y-14786814D01*
X-26780999Y-14760399D01*
X-26744284Y-14740774D01*
X-26704434Y-14728686D01*
X-26656859Y-14724000D01*
X-25493141Y-14724000D01*
X-25445566Y-14728686D01*
X-25445566Y-14728686D01*
G37*
G36*
X13376000Y-14916715D02*
G01*
X13378402Y-14941101D01*
X13385515Y-14964550D01*
X13397066Y-14986161D01*
X13412611Y-15005103D01*
X13431553Y-15020648D01*
X13453164Y-15032199D01*
X13476613Y-15039312D01*
X13500999Y-15041714D01*
X13525385Y-15039312D01*
X13548834Y-15032199D01*
X13570445Y-15020648D01*
X13589387Y-15005103D01*
X13604932Y-14986161D01*
X13616483Y-14964550D01*
X13625396Y-14928968D01*
X13628686Y-14895566D01*
X13640774Y-14855716D01*
X13660399Y-14819001D01*
X13686814Y-14786814D01*
X13719001Y-14760399D01*
X13755716Y-14740774D01*
X13795566Y-14728686D01*
X13843141Y-14724000D01*
X15006859Y-14724000D01*
X15054434Y-14728686D01*
X15094284Y-14740774D01*
X15130999Y-14760399D01*
X15163186Y-14786814D01*
X15189601Y-14819001D01*
X15209226Y-14855716D01*
X15221314Y-14895566D01*
X15226000Y-14943141D01*
X15226000Y-15606859D01*
X15221314Y-15654434D01*
X15209226Y-15694284D01*
X15189601Y-15730999D01*
X15163186Y-15763186D01*
X15130999Y-15789601D01*
X15094284Y-15809226D01*
X15054434Y-15821314D01*
X15006859Y-15826000D01*
X13843141Y-15826000D01*
X13795566Y-15821314D01*
X13755716Y-15809226D01*
X13719001Y-15789601D01*
X13686814Y-15763186D01*
X13660399Y-15730999D01*
X13640774Y-15694284D01*
X13628686Y-15654434D01*
X13625396Y-15621032D01*
X13620615Y-15596999D01*
X13611238Y-15574360D01*
X13597624Y-15553986D01*
X13580297Y-15536659D01*
X13559922Y-15523045D01*
X13537283Y-15513668D01*
X13513250Y-15508888D01*
X13488746Y-15508888D01*
X13464713Y-15513669D01*
X13442074Y-15523046D01*
X13421700Y-15536660D01*
X13404373Y-15553987D01*
X13390759Y-15574362D01*
X13381382Y-15597001D01*
X13376000Y-15633285D01*
X13376000Y-15826000D01*
X11774000Y-15826000D01*
X11774000Y-14724000D01*
X13376000Y-14724000D01*
X13376000Y-14916715D01*
X13376000Y-14916715D01*
G37*
G36*
X-20374000Y-14916715D02*
G01*
X-20371598Y-14941101D01*
X-20364485Y-14964550D01*
X-20352934Y-14986161D01*
X-20337389Y-15005103D01*
X-20318447Y-15020648D01*
X-20296836Y-15032199D01*
X-20273387Y-15039312D01*
X-20249001Y-15041714D01*
X-20224615Y-15039312D01*
X-20201166Y-15032199D01*
X-20179555Y-15020648D01*
X-20160613Y-15005103D01*
X-20145068Y-14986161D01*
X-20133517Y-14964550D01*
X-20124604Y-14928968D01*
X-20121314Y-14895566D01*
X-20109226Y-14855716D01*
X-20089601Y-14819001D01*
X-20063186Y-14786814D01*
X-20030999Y-14760399D01*
X-19994284Y-14740774D01*
X-19954434Y-14728686D01*
X-19906859Y-14724000D01*
X-18743141Y-14724000D01*
X-18695566Y-14728686D01*
X-18655716Y-14740774D01*
X-18619001Y-14760399D01*
X-18586814Y-14786814D01*
X-18560399Y-14819001D01*
X-18540774Y-14855716D01*
X-18528686Y-14895566D01*
X-18524000Y-14943141D01*
X-18524000Y-15606859D01*
X-18528686Y-15654434D01*
X-18540774Y-15694284D01*
X-18560399Y-15730999D01*
X-18586814Y-15763186D01*
X-18619001Y-15789601D01*
X-18655716Y-15809226D01*
X-18695566Y-15821314D01*
X-18743141Y-15826000D01*
X-19906859Y-15826000D01*
X-19954434Y-15821314D01*
X-19994284Y-15809226D01*
X-20030999Y-15789601D01*
X-20063186Y-15763186D01*
X-20089601Y-15730999D01*
X-20109226Y-15694284D01*
X-20121314Y-15654434D01*
X-20124604Y-15621032D01*
X-20129385Y-15596999D01*
X-20138762Y-15574360D01*
X-20152376Y-15553986D01*
X-20169703Y-15536659D01*
X-20190078Y-15523045D01*
X-20212717Y-15513668D01*
X-20236750Y-15508888D01*
X-20261254Y-15508888D01*
X-20285287Y-15513669D01*
X-20307926Y-15523046D01*
X-20328300Y-15536660D01*
X-20345627Y-15553987D01*
X-20359241Y-15574362D01*
X-20368618Y-15597001D01*
X-20374000Y-15633285D01*
X-20374000Y-15826000D01*
X-21976000Y-15826000D01*
X-21976000Y-14724000D01*
X-20374000Y-14724000D01*
X-20374000Y-14916715D01*
X-20374000Y-14916715D01*
G37*
G36*
X-124000Y-14916715D02*
G01*
X-121598Y-14941101D01*
X-114485Y-14964550D01*
X-102934Y-14986161D01*
X-87389Y-15005103D01*
X-68447Y-15020648D01*
X-46836Y-15032199D01*
X-23387Y-15039312D01*
X999Y-15041714D01*
X25385Y-15039312D01*
X48834Y-15032199D01*
X70445Y-15020648D01*
X89387Y-15005103D01*
X104932Y-14986161D01*
X116483Y-14964550D01*
X125396Y-14928968D01*
X128686Y-14895566D01*
X140774Y-14855716D01*
X160399Y-14819001D01*
X186814Y-14786814D01*
X219001Y-14760399D01*
X255716Y-14740774D01*
X295566Y-14728686D01*
X343141Y-14724000D01*
X1506859Y-14724000D01*
X1554434Y-14728686D01*
X1594284Y-14740774D01*
X1630999Y-14760399D01*
X1663186Y-14786814D01*
X1689601Y-14819001D01*
X1709226Y-14855716D01*
X1721314Y-14895566D01*
X1726000Y-14943141D01*
X1726000Y-15606859D01*
X1721314Y-15654434D01*
X1709226Y-15694284D01*
X1689601Y-15730999D01*
X1663186Y-15763186D01*
X1630999Y-15789601D01*
X1594284Y-15809226D01*
X1554434Y-15821314D01*
X1506859Y-15826000D01*
X343141Y-15826000D01*
X295566Y-15821314D01*
X255716Y-15809226D01*
X219001Y-15789601D01*
X186814Y-15763186D01*
X160399Y-15730999D01*
X140774Y-15694284D01*
X128686Y-15654434D01*
X125396Y-15621032D01*
X120615Y-15596999D01*
X111238Y-15574360D01*
X97624Y-15553986D01*
X80297Y-15536659D01*
X59922Y-15523045D01*
X37283Y-15513668D01*
X13250Y-15508888D01*
X-11254Y-15508888D01*
X-35287Y-15513669D01*
X-57926Y-15523046D01*
X-78300Y-15536660D01*
X-95627Y-15553987D01*
X-109241Y-15574362D01*
X-118618Y-15597001D01*
X-124000Y-15633285D01*
X-124000Y-15826000D01*
X-1726000Y-15826000D01*
X-1726000Y-14724000D01*
X-124000Y-14724000D01*
X-124000Y-14916715D01*
X-124000Y-14916715D01*
G37*
G36*
X-13624000Y-14916715D02*
G01*
X-13621598Y-14941101D01*
X-13614485Y-14964550D01*
X-13602934Y-14986161D01*
X-13587389Y-15005103D01*
X-13568447Y-15020648D01*
X-13546836Y-15032199D01*
X-13523387Y-15039312D01*
X-13499001Y-15041714D01*
X-13474615Y-15039312D01*
X-13451166Y-15032199D01*
X-13429555Y-15020648D01*
X-13410613Y-15005103D01*
X-13395068Y-14986161D01*
X-13383517Y-14964550D01*
X-13374604Y-14928968D01*
X-13371314Y-14895566D01*
X-13359226Y-14855716D01*
X-13339601Y-14819001D01*
X-13313186Y-14786814D01*
X-13280999Y-14760399D01*
X-13244284Y-14740774D01*
X-13204434Y-14728686D01*
X-13156859Y-14724000D01*
X-11993141Y-14724000D01*
X-11945566Y-14728686D01*
X-11905716Y-14740774D01*
X-11869001Y-14760399D01*
X-11836814Y-14786814D01*
X-11810399Y-14819001D01*
X-11790774Y-14855716D01*
X-11778686Y-14895566D01*
X-11774000Y-14943141D01*
X-11774000Y-15606859D01*
X-11778686Y-15654434D01*
X-11790774Y-15694284D01*
X-11810399Y-15730999D01*
X-11836814Y-15763186D01*
X-11869001Y-15789601D01*
X-11905716Y-15809226D01*
X-11945566Y-15821314D01*
X-11993141Y-15826000D01*
X-13156859Y-15826000D01*
X-13204434Y-15821314D01*
X-13244284Y-15809226D01*
X-13280999Y-15789601D01*
X-13313186Y-15763186D01*
X-13339601Y-15730999D01*
X-13359226Y-15694284D01*
X-13371314Y-15654434D01*
X-13374604Y-15621032D01*
X-13379385Y-15596999D01*
X-13388762Y-15574360D01*
X-13402376Y-15553986D01*
X-13419703Y-15536659D01*
X-13440078Y-15523045D01*
X-13462717Y-15513668D01*
X-13486750Y-15508888D01*
X-13511254Y-15508888D01*
X-13535287Y-15513669D01*
X-13557926Y-15523046D01*
X-13578300Y-15536660D01*
X-13595627Y-15553987D01*
X-13609241Y-15574362D01*
X-13618618Y-15597001D01*
X-13624000Y-15633285D01*
X-13624000Y-15826000D01*
X-15226000Y-15826000D01*
X-15226000Y-14724000D01*
X-13624000Y-14724000D01*
X-13624000Y-14916715D01*
X-13624000Y-14916715D01*
G37*
G36*
X20126000Y-14916715D02*
G01*
X20128402Y-14941101D01*
X20135515Y-14964550D01*
X20147066Y-14986161D01*
X20162611Y-15005103D01*
X20181553Y-15020648D01*
X20203164Y-15032199D01*
X20226613Y-15039312D01*
X20250999Y-15041714D01*
X20275385Y-15039312D01*
X20298834Y-15032199D01*
X20320445Y-15020648D01*
X20339387Y-15005103D01*
X20354932Y-14986161D01*
X20366483Y-14964550D01*
X20375396Y-14928968D01*
X20378686Y-14895566D01*
X20390774Y-14855716D01*
X20410399Y-14819001D01*
X20436814Y-14786814D01*
X20469001Y-14760399D01*
X20505716Y-14740774D01*
X20545566Y-14728686D01*
X20593141Y-14724000D01*
X21756859Y-14724000D01*
X21804434Y-14728686D01*
X21844284Y-14740774D01*
X21880999Y-14760399D01*
X21913186Y-14786814D01*
X21939601Y-14819001D01*
X21959226Y-14855716D01*
X21971314Y-14895566D01*
X21976000Y-14943141D01*
X21976000Y-15606859D01*
X21971314Y-15654434D01*
X21959226Y-15694284D01*
X21939601Y-15730999D01*
X21913186Y-15763186D01*
X21880999Y-15789601D01*
X21844284Y-15809226D01*
X21804434Y-15821314D01*
X21756859Y-15826000D01*
X20593141Y-15826000D01*
X20545566Y-15821314D01*
X20505716Y-15809226D01*
X20469001Y-15789601D01*
X20436814Y-15763186D01*
X20410399Y-15730999D01*
X20390774Y-15694284D01*
X20378686Y-15654434D01*
X20375396Y-15621032D01*
X20370615Y-15596999D01*
X20361238Y-15574360D01*
X20347624Y-15553986D01*
X20330297Y-15536659D01*
X20309922Y-15523045D01*
X20287283Y-15513668D01*
X20263250Y-15508888D01*
X20238746Y-15508888D01*
X20214713Y-15513669D01*
X20192074Y-15523046D01*
X20171700Y-15536660D01*
X20154373Y-15553987D01*
X20140759Y-15574362D01*
X20131382Y-15597001D01*
X20126000Y-15633285D01*
X20126000Y-15826000D01*
X18524000Y-15826000D01*
X18524000Y-14724000D01*
X20126000Y-14724000D01*
X20126000Y-14916715D01*
X20126000Y-14916715D01*
G37*
G36*
X-6874000Y-14916715D02*
G01*
X-6871598Y-14941101D01*
X-6864485Y-14964550D01*
X-6852934Y-14986161D01*
X-6837389Y-15005103D01*
X-6818447Y-15020648D01*
X-6796836Y-15032199D01*
X-6773387Y-15039312D01*
X-6749001Y-15041714D01*
X-6724615Y-15039312D01*
X-6701166Y-15032199D01*
X-6679555Y-15020648D01*
X-6660613Y-15005103D01*
X-6645068Y-14986161D01*
X-6633517Y-14964550D01*
X-6624604Y-14928968D01*
X-6621314Y-14895566D01*
X-6609226Y-14855716D01*
X-6589601Y-14819001D01*
X-6563186Y-14786814D01*
X-6530999Y-14760399D01*
X-6494284Y-14740774D01*
X-6454434Y-14728686D01*
X-6406859Y-14724000D01*
X-5243141Y-14724000D01*
X-5195566Y-14728686D01*
X-5155716Y-14740774D01*
X-5119001Y-14760399D01*
X-5086814Y-14786814D01*
X-5060399Y-14819001D01*
X-5040774Y-14855716D01*
X-5028686Y-14895566D01*
X-5024000Y-14943141D01*
X-5024000Y-15606859D01*
X-5028686Y-15654434D01*
X-5040774Y-15694284D01*
X-5060399Y-15730999D01*
X-5086814Y-15763186D01*
X-5119001Y-15789601D01*
X-5155716Y-15809226D01*
X-5195566Y-15821314D01*
X-5243141Y-15826000D01*
X-6406859Y-15826000D01*
X-6454434Y-15821314D01*
X-6494284Y-15809226D01*
X-6530999Y-15789601D01*
X-6563186Y-15763186D01*
X-6589601Y-15730999D01*
X-6609226Y-15694284D01*
X-6621314Y-15654434D01*
X-6624604Y-15621032D01*
X-6629385Y-15596999D01*
X-6638762Y-15574360D01*
X-6652376Y-15553986D01*
X-6669703Y-15536659D01*
X-6690078Y-15523045D01*
X-6712717Y-15513668D01*
X-6736750Y-15508888D01*
X-6761254Y-15508888D01*
X-6785287Y-15513669D01*
X-6807926Y-15523046D01*
X-6828300Y-15536660D01*
X-6845627Y-15553987D01*
X-6859241Y-15574362D01*
X-6868618Y-15597001D01*
X-6874000Y-15633285D01*
X-6874000Y-15826000D01*
X-8476000Y-15826000D01*
X-8476000Y-14724000D01*
X-6874000Y-14724000D01*
X-6874000Y-14916715D01*
X-6874000Y-14916715D01*
G37*
G36*
X28264591Y-14808085D02*
G01*
X28298569Y-14818393D01*
X28329890Y-14835134D01*
X28357339Y-14857661D01*
X28379866Y-14885110D01*
X28396607Y-14916431D01*
X28406915Y-14950409D01*
X28411000Y-14991890D01*
X28411000Y-15593110D01*
X28406915Y-15634591D01*
X28396607Y-15668569D01*
X28379866Y-15699890D01*
X28357339Y-15727339D01*
X28329890Y-15749866D01*
X28298569Y-15766607D01*
X28264591Y-15776915D01*
X28223110Y-15781000D01*
X27546890Y-15781000D01*
X27505409Y-15776915D01*
X27471431Y-15766607D01*
X27440110Y-15749866D01*
X27412661Y-15727339D01*
X27390134Y-15699890D01*
X27373393Y-15668569D01*
X27363085Y-15634591D01*
X27359000Y-15593110D01*
X27359000Y-14991890D01*
X27363085Y-14950409D01*
X27373393Y-14916431D01*
X27390134Y-14885110D01*
X27412661Y-14857661D01*
X27440110Y-14835134D01*
X27471431Y-14818393D01*
X27505409Y-14808085D01*
X27546890Y-14804000D01*
X28223110Y-14804000D01*
X28264591Y-14808085D01*
X28264591Y-14808085D01*
G37*
G36*
X35673512Y-13073927D02*
G01*
X35822812Y-13103624D01*
X35986784Y-13171544D01*
X36134354Y-13270147D01*
X36259853Y-13395646D01*
X36358456Y-13543216D01*
X36426376Y-13707188D01*
X36461000Y-13881259D01*
X36461000Y-14058741D01*
X36426376Y-14232812D01*
X36358456Y-14396784D01*
X36259853Y-14544354D01*
X36134354Y-14669853D01*
X35986784Y-14768456D01*
X35822812Y-14836376D01*
X35673512Y-14866073D01*
X35648742Y-14871000D01*
X35471258Y-14871000D01*
X35446488Y-14866073D01*
X35297188Y-14836376D01*
X35133216Y-14768456D01*
X34985646Y-14669853D01*
X34860147Y-14544354D01*
X34761544Y-14396784D01*
X34693624Y-14232812D01*
X34659000Y-14058741D01*
X34659000Y-13881259D01*
X34693624Y-13707188D01*
X34761544Y-13543216D01*
X34860147Y-13395646D01*
X34985646Y-13270147D01*
X35133216Y-13171544D01*
X35297188Y-13103624D01*
X35446488Y-13073927D01*
X35471258Y-13069000D01*
X35648742Y-13069000D01*
X35673512Y-13073927D01*
X35673512Y-13073927D01*
G37*
G36*
X-35446488Y-13073927D02*
G01*
X-35297188Y-13103624D01*
X-35133216Y-13171544D01*
X-34985646Y-13270147D01*
X-34860147Y-13395646D01*
X-34761544Y-13543216D01*
X-34693624Y-13707188D01*
X-34659000Y-13881259D01*
X-34659000Y-14058741D01*
X-34693624Y-14232812D01*
X-34761544Y-14396784D01*
X-34860147Y-14544354D01*
X-34985646Y-14669853D01*
X-35133216Y-14768456D01*
X-35297188Y-14836376D01*
X-35446488Y-14866073D01*
X-35471258Y-14871000D01*
X-35648742Y-14871000D01*
X-35673512Y-14866073D01*
X-35822812Y-14836376D01*
X-35986784Y-14768456D01*
X-36134354Y-14669853D01*
X-36259853Y-14544354D01*
X-36358456Y-14396784D01*
X-36426376Y-14232812D01*
X-36461000Y-14058741D01*
X-36461000Y-13881259D01*
X-36426376Y-13707188D01*
X-36358456Y-13543216D01*
X-36259853Y-13395646D01*
X-36134354Y-13270147D01*
X-35986784Y-13171544D01*
X-35822812Y-13103624D01*
X-35673512Y-13073927D01*
X-35648742Y-13069000D01*
X-35471258Y-13069000D01*
X-35446488Y-13073927D01*
X-35446488Y-13073927D01*
G37*
G36*
X35673512Y-10533927D02*
G01*
X35822812Y-10563624D01*
X35986784Y-10631544D01*
X36134354Y-10730147D01*
X36259853Y-10855646D01*
X36358456Y-11003216D01*
X36426376Y-11167188D01*
X36461000Y-11341259D01*
X36461000Y-11518741D01*
X36426376Y-11692812D01*
X36358456Y-11856784D01*
X36259853Y-12004354D01*
X36134354Y-12129853D01*
X35986784Y-12228456D01*
X35822812Y-12296376D01*
X35673512Y-12326073D01*
X35648742Y-12331000D01*
X35471258Y-12331000D01*
X35446488Y-12326073D01*
X35297188Y-12296376D01*
X35133216Y-12228456D01*
X34985646Y-12129853D01*
X34860147Y-12004354D01*
X34761544Y-11856784D01*
X34693624Y-11692812D01*
X34659000Y-11518741D01*
X34659000Y-11341259D01*
X34693624Y-11167188D01*
X34761544Y-11003216D01*
X34860147Y-10855646D01*
X34985646Y-10730147D01*
X35133216Y-10631544D01*
X35297188Y-10563624D01*
X35446488Y-10533927D01*
X35471258Y-10529000D01*
X35648742Y-10529000D01*
X35673512Y-10533927D01*
X35673512Y-10533927D01*
G37*
G36*
X-35446488Y-10533927D02*
G01*
X-35297188Y-10563624D01*
X-35133216Y-10631544D01*
X-34985646Y-10730147D01*
X-34860147Y-10855646D01*
X-34761544Y-11003216D01*
X-34693624Y-11167188D01*
X-34659000Y-11341259D01*
X-34659000Y-11518741D01*
X-34693624Y-11692812D01*
X-34761544Y-11856784D01*
X-34860147Y-12004354D01*
X-34985646Y-12129853D01*
X-35133216Y-12228456D01*
X-35297188Y-12296376D01*
X-35446488Y-12326073D01*
X-35471258Y-12331000D01*
X-35648742Y-12331000D01*
X-35673512Y-12326073D01*
X-35822812Y-12296376D01*
X-35986784Y-12228456D01*
X-36134354Y-12129853D01*
X-36259853Y-12004354D01*
X-36358456Y-11856784D01*
X-36426376Y-11692812D01*
X-36461000Y-11518741D01*
X-36461000Y-11341259D01*
X-36426376Y-11167188D01*
X-36358456Y-11003216D01*
X-36259853Y-10855646D01*
X-36134354Y-10730147D01*
X-35986784Y-10631544D01*
X-35822812Y-10563624D01*
X-35673512Y-10533927D01*
X-35648742Y-10529000D01*
X-35471258Y-10529000D01*
X-35446488Y-10533927D01*
X-35446488Y-10533927D01*
G37*
G36*
X-18524000Y-12276000D02*
G01*
X-21976000Y-12276000D01*
X-21976000Y-11174000D01*
X-18524000Y-11174000D01*
X-18524000Y-12276000D01*
X-18524000Y-12276000D01*
G37*
G36*
X-11774000Y-12276000D02*
G01*
X-15226000Y-12276000D01*
X-15226000Y-11174000D01*
X-11774000Y-11174000D01*
X-11774000Y-12276000D01*
X-11774000Y-12276000D01*
G37*
G36*
X-5024000Y-12276000D02*
G01*
X-8476000Y-12276000D01*
X-8476000Y-11174000D01*
X-5024000Y-11174000D01*
X-5024000Y-12276000D01*
X-5024000Y-12276000D01*
G37*
G36*
X1726000Y-12276000D02*
G01*
X-1726000Y-12276000D01*
X-1726000Y-11174000D01*
X1726000Y-11174000D01*
X1726000Y-12276000D01*
X1726000Y-12276000D01*
G37*
G36*
X8476000Y-12276000D02*
G01*
X5024000Y-12276000D01*
X5024000Y-11174000D01*
X8476000Y-11174000D01*
X8476000Y-12276000D01*
X8476000Y-12276000D01*
G37*
G36*
X15226000Y-12276000D02*
G01*
X11774000Y-12276000D01*
X11774000Y-11174000D01*
X15226000Y-11174000D01*
X15226000Y-12276000D01*
X15226000Y-12276000D01*
G37*
G36*
X21976000Y-12276000D02*
G01*
X18524000Y-12276000D01*
X18524000Y-11174000D01*
X21976000Y-11174000D01*
X21976000Y-12276000D01*
X21976000Y-12276000D01*
G37*
G36*
X26876000Y-12276000D02*
G01*
X25274000Y-12276000D01*
X25274000Y-11174000D01*
X26876000Y-11174000D01*
X26876000Y-12276000D01*
X26876000Y-12276000D01*
G37*
G36*
X-25274000Y-12276000D02*
G01*
X-26876000Y-12276000D01*
X-26876000Y-11174000D01*
X-25274000Y-11174000D01*
X-25274000Y-12276000D01*
X-25274000Y-12276000D01*
G37*
G36*
X26876000Y-10676000D02*
G01*
X25274000Y-10676000D01*
X25274000Y-9574000D01*
X26876000Y-9574000D01*
X26876000Y-10676000D01*
X26876000Y-10676000D01*
G37*
G36*
X21976000Y-10676000D02*
G01*
X18524000Y-10676000D01*
X18524000Y-9574000D01*
X21976000Y-9574000D01*
X21976000Y-10676000D01*
X21976000Y-10676000D01*
G37*
G36*
X15226000Y-10676000D02*
G01*
X11774000Y-10676000D01*
X11774000Y-9574000D01*
X15226000Y-9574000D01*
X15226000Y-10676000D01*
X15226000Y-10676000D01*
G37*
G36*
X8476000Y-10676000D02*
G01*
X5024000Y-10676000D01*
X5024000Y-9574000D01*
X8476000Y-9574000D01*
X8476000Y-10676000D01*
X8476000Y-10676000D01*
G37*
G36*
X1726000Y-10676000D02*
G01*
X-1726000Y-10676000D01*
X-1726000Y-9574000D01*
X1726000Y-9574000D01*
X1726000Y-10676000D01*
X1726000Y-10676000D01*
G37*
G36*
X-11774000Y-10676000D02*
G01*
X-15226000Y-10676000D01*
X-15226000Y-9574000D01*
X-11774000Y-9574000D01*
X-11774000Y-10676000D01*
X-11774000Y-10676000D01*
G37*
G36*
X-18524000Y-10676000D02*
G01*
X-21976000Y-10676000D01*
X-21976000Y-9574000D01*
X-18524000Y-9574000D01*
X-18524000Y-10676000D01*
X-18524000Y-10676000D01*
G37*
G36*
X-5024000Y-10676000D02*
G01*
X-8476000Y-10676000D01*
X-8476000Y-9574000D01*
X-5024000Y-9574000D01*
X-5024000Y-10676000D01*
X-5024000Y-10676000D01*
G37*
G36*
X-25274000Y-10676000D02*
G01*
X-26876000Y-10676000D01*
X-26876000Y-9574000D01*
X-25274000Y-9574000D01*
X-25274000Y-10676000D01*
X-25274000Y-10676000D01*
G37*
G36*
X28274591Y-9643085D02*
G01*
X28308569Y-9653393D01*
X28339890Y-9670134D01*
X28367339Y-9692661D01*
X28389866Y-9720110D01*
X28406607Y-9751431D01*
X28416915Y-9785409D01*
X28421000Y-9826890D01*
X28421000Y-10428110D01*
X28416915Y-10469591D01*
X28406607Y-10503569D01*
X28389866Y-10534890D01*
X28367339Y-10562339D01*
X28339890Y-10584866D01*
X28308569Y-10601607D01*
X28274591Y-10611915D01*
X28233110Y-10616000D01*
X27556890Y-10616000D01*
X27515409Y-10611915D01*
X27481431Y-10601607D01*
X27450110Y-10584866D01*
X27422661Y-10562339D01*
X27400134Y-10534890D01*
X27383393Y-10503569D01*
X27373085Y-10469591D01*
X27369000Y-10428110D01*
X27369000Y-9826890D01*
X27373085Y-9785409D01*
X27383393Y-9751431D01*
X27400134Y-9720110D01*
X27422661Y-9692661D01*
X27450110Y-9670134D01*
X27481431Y-9653393D01*
X27515409Y-9643085D01*
X27556890Y-9639000D01*
X28233110Y-9639000D01*
X28274591Y-9643085D01*
X28274591Y-9643085D01*
G37*
G36*
X35657660Y-7990774D02*
G01*
X35822812Y-8023624D01*
X35986784Y-8091544D01*
X36134354Y-8190147D01*
X36259853Y-8315646D01*
X36358456Y-8463216D01*
X36426376Y-8627188D01*
X36461000Y-8801259D01*
X36461000Y-8978741D01*
X36426376Y-9152812D01*
X36358456Y-9316784D01*
X36259853Y-9464354D01*
X36134354Y-9589853D01*
X35986784Y-9688456D01*
X35822812Y-9756376D01*
X35673512Y-9786073D01*
X35648742Y-9791000D01*
X35471258Y-9791000D01*
X35446488Y-9786073D01*
X35297188Y-9756376D01*
X35133216Y-9688456D01*
X34985646Y-9589853D01*
X34860147Y-9464354D01*
X34761544Y-9316784D01*
X34693624Y-9152812D01*
X34659000Y-8978741D01*
X34659000Y-8801259D01*
X34693624Y-8627188D01*
X34761544Y-8463216D01*
X34860147Y-8315646D01*
X34985646Y-8190147D01*
X35133216Y-8091544D01*
X35297188Y-8023624D01*
X35462340Y-7990774D01*
X35471258Y-7989000D01*
X35648742Y-7989000D01*
X35657660Y-7990774D01*
X35657660Y-7990774D01*
G37*
G36*
X-35462340Y-7990774D02*
G01*
X-35297188Y-8023624D01*
X-35133216Y-8091544D01*
X-34985646Y-8190147D01*
X-34860147Y-8315646D01*
X-34761544Y-8463216D01*
X-34693624Y-8627188D01*
X-34659000Y-8801259D01*
X-34659000Y-8978741D01*
X-34693624Y-9152812D01*
X-34761544Y-9316784D01*
X-34860147Y-9464354D01*
X-34985646Y-9589853D01*
X-35133216Y-9688456D01*
X-35297188Y-9756376D01*
X-35446488Y-9786073D01*
X-35471258Y-9791000D01*
X-35648742Y-9791000D01*
X-35673512Y-9786073D01*
X-35822812Y-9756376D01*
X-35986784Y-9688456D01*
X-36134354Y-9589853D01*
X-36259853Y-9464354D01*
X-36358456Y-9316784D01*
X-36426376Y-9152812D01*
X-36461000Y-8978741D01*
X-36461000Y-8801259D01*
X-36426376Y-8627188D01*
X-36358456Y-8463216D01*
X-36259853Y-8315646D01*
X-36134354Y-8190147D01*
X-35986784Y-8091544D01*
X-35822812Y-8023624D01*
X-35657660Y-7990774D01*
X-35648742Y-7989000D01*
X-35471258Y-7989000D01*
X-35462340Y-7990774D01*
X-35462340Y-7990774D01*
G37*
G36*
X-13624000Y-8166715D02*
G01*
X-13621598Y-8191101D01*
X-13614485Y-8214550D01*
X-13602934Y-8236161D01*
X-13587389Y-8255103D01*
X-13568447Y-8270648D01*
X-13546836Y-8282199D01*
X-13523387Y-8289312D01*
X-13499001Y-8291714D01*
X-13474615Y-8289312D01*
X-13451166Y-8282199D01*
X-13429555Y-8270648D01*
X-13410613Y-8255103D01*
X-13395068Y-8236161D01*
X-13383517Y-8214550D01*
X-13374604Y-8178968D01*
X-13371314Y-8145566D01*
X-13359226Y-8105716D01*
X-13339601Y-8069001D01*
X-13313186Y-8036814D01*
X-13280999Y-8010399D01*
X-13244284Y-7990774D01*
X-13204434Y-7978686D01*
X-13156859Y-7974000D01*
X-11993141Y-7974000D01*
X-11945566Y-7978686D01*
X-11905716Y-7990774D01*
X-11869001Y-8010399D01*
X-11836814Y-8036814D01*
X-11810399Y-8069001D01*
X-11790774Y-8105716D01*
X-11778686Y-8145566D01*
X-11774000Y-8193141D01*
X-11774000Y-8856859D01*
X-11778686Y-8904434D01*
X-11790774Y-8944284D01*
X-11810399Y-8980999D01*
X-11836814Y-9013186D01*
X-11869001Y-9039601D01*
X-11905716Y-9059226D01*
X-11945566Y-9071314D01*
X-11993141Y-9076000D01*
X-13156859Y-9076000D01*
X-13204434Y-9071314D01*
X-13244284Y-9059226D01*
X-13280999Y-9039601D01*
X-13313186Y-9013186D01*
X-13339601Y-8980999D01*
X-13359226Y-8944284D01*
X-13371314Y-8904434D01*
X-13374604Y-8871032D01*
X-13379385Y-8846999D01*
X-13388762Y-8824360D01*
X-13402376Y-8803986D01*
X-13419703Y-8786659D01*
X-13440078Y-8773045D01*
X-13462717Y-8763668D01*
X-13486750Y-8758888D01*
X-13511254Y-8758888D01*
X-13535287Y-8763669D01*
X-13557926Y-8773046D01*
X-13578300Y-8786660D01*
X-13595627Y-8803987D01*
X-13609241Y-8824362D01*
X-13618618Y-8847001D01*
X-13624000Y-8883285D01*
X-13624000Y-9076000D01*
X-15226000Y-9076000D01*
X-15226000Y-7974000D01*
X-13624000Y-7974000D01*
X-13624000Y-8166715D01*
X-13624000Y-8166715D01*
G37*
G36*
X20126000Y-8166715D02*
G01*
X20128402Y-8191101D01*
X20135515Y-8214550D01*
X20147066Y-8236161D01*
X20162611Y-8255103D01*
X20181553Y-8270648D01*
X20203164Y-8282199D01*
X20226613Y-8289312D01*
X20250999Y-8291714D01*
X20275385Y-8289312D01*
X20298834Y-8282199D01*
X20320445Y-8270648D01*
X20339387Y-8255103D01*
X20354932Y-8236161D01*
X20366483Y-8214550D01*
X20375396Y-8178968D01*
X20378686Y-8145566D01*
X20390774Y-8105716D01*
X20410399Y-8069001D01*
X20436814Y-8036814D01*
X20469001Y-8010399D01*
X20505716Y-7990774D01*
X20545566Y-7978686D01*
X20593141Y-7974000D01*
X21756859Y-7974000D01*
X21804434Y-7978686D01*
X21844284Y-7990774D01*
X21880999Y-8010399D01*
X21913186Y-8036814D01*
X21939601Y-8069001D01*
X21959226Y-8105716D01*
X21971314Y-8145566D01*
X21976000Y-8193141D01*
X21976000Y-8856859D01*
X21971314Y-8904434D01*
X21959226Y-8944284D01*
X21939601Y-8980999D01*
X21913186Y-9013186D01*
X21880999Y-9039601D01*
X21844284Y-9059226D01*
X21804434Y-9071314D01*
X21756859Y-9076000D01*
X20593141Y-9076000D01*
X20545566Y-9071314D01*
X20505716Y-9059226D01*
X20469001Y-9039601D01*
X20436814Y-9013186D01*
X20410399Y-8980999D01*
X20390774Y-8944284D01*
X20378686Y-8904434D01*
X20375396Y-8871032D01*
X20370615Y-8846999D01*
X20361238Y-8824360D01*
X20347624Y-8803986D01*
X20330297Y-8786659D01*
X20309922Y-8773045D01*
X20287283Y-8763668D01*
X20263250Y-8758888D01*
X20238746Y-8758888D01*
X20214713Y-8763669D01*
X20192074Y-8773046D01*
X20171700Y-8786660D01*
X20154373Y-8803987D01*
X20140759Y-8824362D01*
X20131382Y-8847001D01*
X20126000Y-8883285D01*
X20126000Y-9076000D01*
X18524000Y-9076000D01*
X18524000Y-7974000D01*
X20126000Y-7974000D01*
X20126000Y-8166715D01*
X20126000Y-8166715D01*
G37*
G36*
X-6874000Y-8166715D02*
G01*
X-6871598Y-8191101D01*
X-6864485Y-8214550D01*
X-6852934Y-8236161D01*
X-6837389Y-8255103D01*
X-6818447Y-8270648D01*
X-6796836Y-8282199D01*
X-6773387Y-8289312D01*
X-6749001Y-8291714D01*
X-6724615Y-8289312D01*
X-6701166Y-8282199D01*
X-6679555Y-8270648D01*
X-6660613Y-8255103D01*
X-6645068Y-8236161D01*
X-6633517Y-8214550D01*
X-6624604Y-8178968D01*
X-6621314Y-8145566D01*
X-6609226Y-8105716D01*
X-6589601Y-8069001D01*
X-6563186Y-8036814D01*
X-6530999Y-8010399D01*
X-6494284Y-7990774D01*
X-6454434Y-7978686D01*
X-6406859Y-7974000D01*
X-5243141Y-7974000D01*
X-5195566Y-7978686D01*
X-5155716Y-7990774D01*
X-5119001Y-8010399D01*
X-5086814Y-8036814D01*
X-5060399Y-8069001D01*
X-5040774Y-8105716D01*
X-5028686Y-8145566D01*
X-5024000Y-8193141D01*
X-5024000Y-8856859D01*
X-5028686Y-8904434D01*
X-5040774Y-8944284D01*
X-5060399Y-8980999D01*
X-5086814Y-9013186D01*
X-5119001Y-9039601D01*
X-5155716Y-9059226D01*
X-5195566Y-9071314D01*
X-5243141Y-9076000D01*
X-6406859Y-9076000D01*
X-6454434Y-9071314D01*
X-6494284Y-9059226D01*
X-6530999Y-9039601D01*
X-6563186Y-9013186D01*
X-6589601Y-8980999D01*
X-6609226Y-8944284D01*
X-6621314Y-8904434D01*
X-6624604Y-8871032D01*
X-6629385Y-8846999D01*
X-6638762Y-8824360D01*
X-6652376Y-8803986D01*
X-6669703Y-8786659D01*
X-6690078Y-8773045D01*
X-6712717Y-8763668D01*
X-6736750Y-8758888D01*
X-6761254Y-8758888D01*
X-6785287Y-8763669D01*
X-6807926Y-8773046D01*
X-6828300Y-8786660D01*
X-6845627Y-8803987D01*
X-6859241Y-8824362D01*
X-6868618Y-8847001D01*
X-6874000Y-8883285D01*
X-6874000Y-9076000D01*
X-8476000Y-9076000D01*
X-8476000Y-7974000D01*
X-6874000Y-7974000D01*
X-6874000Y-8166715D01*
X-6874000Y-8166715D01*
G37*
G36*
X-20374000Y-8166715D02*
G01*
X-20371598Y-8191101D01*
X-20364485Y-8214550D01*
X-20352934Y-8236161D01*
X-20337389Y-8255103D01*
X-20318447Y-8270648D01*
X-20296836Y-8282199D01*
X-20273387Y-8289312D01*
X-20249001Y-8291714D01*
X-20224615Y-8289312D01*
X-20201166Y-8282199D01*
X-20179555Y-8270648D01*
X-20160613Y-8255103D01*
X-20145068Y-8236161D01*
X-20133517Y-8214550D01*
X-20124604Y-8178968D01*
X-20121314Y-8145566D01*
X-20109226Y-8105716D01*
X-20089601Y-8069001D01*
X-20063186Y-8036814D01*
X-20030999Y-8010399D01*
X-19994284Y-7990774D01*
X-19954434Y-7978686D01*
X-19906859Y-7974000D01*
X-18743141Y-7974000D01*
X-18695566Y-7978686D01*
X-18655716Y-7990774D01*
X-18619001Y-8010399D01*
X-18586814Y-8036814D01*
X-18560399Y-8069001D01*
X-18540774Y-8105716D01*
X-18528686Y-8145566D01*
X-18524000Y-8193141D01*
X-18524000Y-8856859D01*
X-18528686Y-8904434D01*
X-18540774Y-8944284D01*
X-18560399Y-8980999D01*
X-18586814Y-9013186D01*
X-18619001Y-9039601D01*
X-18655716Y-9059226D01*
X-18695566Y-9071314D01*
X-18743141Y-9076000D01*
X-19906859Y-9076000D01*
X-19954434Y-9071314D01*
X-19994284Y-9059226D01*
X-20030999Y-9039601D01*
X-20063186Y-9013186D01*
X-20089601Y-8980999D01*
X-20109226Y-8944284D01*
X-20121314Y-8904434D01*
X-20124604Y-8871032D01*
X-20129385Y-8846999D01*
X-20138762Y-8824360D01*
X-20152376Y-8803986D01*
X-20169703Y-8786659D01*
X-20190078Y-8773045D01*
X-20212717Y-8763668D01*
X-20236750Y-8758888D01*
X-20261254Y-8758888D01*
X-20285287Y-8763669D01*
X-20307926Y-8773046D01*
X-20328300Y-8786660D01*
X-20345627Y-8803987D01*
X-20359241Y-8824362D01*
X-20368618Y-8847001D01*
X-20374000Y-8883285D01*
X-20374000Y-9076000D01*
X-21976000Y-9076000D01*
X-21976000Y-7974000D01*
X-20374000Y-7974000D01*
X-20374000Y-8166715D01*
X-20374000Y-8166715D01*
G37*
G36*
X-25445566Y-7978686D02*
G01*
X-25405716Y-7990774D01*
X-25369001Y-8010399D01*
X-25336814Y-8036814D01*
X-25310399Y-8069001D01*
X-25290774Y-8105716D01*
X-25278686Y-8145566D01*
X-25274000Y-8193141D01*
X-25274000Y-8856859D01*
X-25278686Y-8904434D01*
X-25290774Y-8944284D01*
X-25310399Y-8980999D01*
X-25336814Y-9013186D01*
X-25369001Y-9039601D01*
X-25405716Y-9059226D01*
X-25445566Y-9071314D01*
X-25493141Y-9076000D01*
X-26656859Y-9076000D01*
X-26704434Y-9071314D01*
X-26744284Y-9059226D01*
X-26780999Y-9039601D01*
X-26813186Y-9013186D01*
X-26839601Y-8980999D01*
X-26859226Y-8944284D01*
X-26871314Y-8904434D01*
X-26876000Y-8856859D01*
X-26876000Y-8193141D01*
X-26871314Y-8145566D01*
X-26859226Y-8105716D01*
X-26839601Y-8069001D01*
X-26813186Y-8036814D01*
X-26780999Y-8010399D01*
X-26744284Y-7990774D01*
X-26704434Y-7978686D01*
X-26656859Y-7974000D01*
X-25493141Y-7974000D01*
X-25445566Y-7978686D01*
X-25445566Y-7978686D01*
G37*
G36*
X13376000Y-8166715D02*
G01*
X13378402Y-8191101D01*
X13385515Y-8214550D01*
X13397066Y-8236161D01*
X13412611Y-8255103D01*
X13431553Y-8270648D01*
X13453164Y-8282199D01*
X13476613Y-8289312D01*
X13500999Y-8291714D01*
X13525385Y-8289312D01*
X13548834Y-8282199D01*
X13570445Y-8270648D01*
X13589387Y-8255103D01*
X13604932Y-8236161D01*
X13616483Y-8214550D01*
X13625396Y-8178968D01*
X13628686Y-8145566D01*
X13640774Y-8105716D01*
X13660399Y-8069001D01*
X13686814Y-8036814D01*
X13719001Y-8010399D01*
X13755716Y-7990774D01*
X13795566Y-7978686D01*
X13843141Y-7974000D01*
X15006859Y-7974000D01*
X15054434Y-7978686D01*
X15094284Y-7990774D01*
X15130999Y-8010399D01*
X15163186Y-8036814D01*
X15189601Y-8069001D01*
X15209226Y-8105716D01*
X15221314Y-8145566D01*
X15226000Y-8193141D01*
X15226000Y-8856859D01*
X15221314Y-8904434D01*
X15209226Y-8944284D01*
X15189601Y-8980999D01*
X15163186Y-9013186D01*
X15130999Y-9039601D01*
X15094284Y-9059226D01*
X15054434Y-9071314D01*
X15006859Y-9076000D01*
X13843141Y-9076000D01*
X13795566Y-9071314D01*
X13755716Y-9059226D01*
X13719001Y-9039601D01*
X13686814Y-9013186D01*
X13660399Y-8980999D01*
X13640774Y-8944284D01*
X13628686Y-8904434D01*
X13625396Y-8871032D01*
X13620615Y-8846999D01*
X13611238Y-8824360D01*
X13597624Y-8803986D01*
X13580297Y-8786659D01*
X13559922Y-8773045D01*
X13537283Y-8763668D01*
X13513250Y-8758888D01*
X13488746Y-8758888D01*
X13464713Y-8763669D01*
X13442074Y-8773046D01*
X13421700Y-8786660D01*
X13404373Y-8803987D01*
X13390759Y-8824362D01*
X13381382Y-8847001D01*
X13376000Y-8883285D01*
X13376000Y-9076000D01*
X11774000Y-9076000D01*
X11774000Y-7974000D01*
X13376000Y-7974000D01*
X13376000Y-8166715D01*
X13376000Y-8166715D01*
G37*
G36*
X26876000Y-9076000D02*
G01*
X25274000Y-9076000D01*
X25274000Y-7974000D01*
X26876000Y-7974000D01*
X26876000Y-9076000D01*
X26876000Y-9076000D01*
G37*
G36*
X6626000Y-8166715D02*
G01*
X6628402Y-8191101D01*
X6635515Y-8214550D01*
X6647066Y-8236161D01*
X6662611Y-8255103D01*
X6681553Y-8270648D01*
X6703164Y-8282199D01*
X6726613Y-8289312D01*
X6750999Y-8291714D01*
X6775385Y-8289312D01*
X6798834Y-8282199D01*
X6820445Y-8270648D01*
X6839387Y-8255103D01*
X6854932Y-8236161D01*
X6866483Y-8214550D01*
X6875396Y-8178968D01*
X6878686Y-8145566D01*
X6890774Y-8105716D01*
X6910399Y-8069001D01*
X6936814Y-8036814D01*
X6969001Y-8010399D01*
X7005716Y-7990774D01*
X7045566Y-7978686D01*
X7093141Y-7974000D01*
X8256859Y-7974000D01*
X8304434Y-7978686D01*
X8344284Y-7990774D01*
X8380999Y-8010399D01*
X8413186Y-8036814D01*
X8439601Y-8069001D01*
X8459226Y-8105716D01*
X8471314Y-8145566D01*
X8476000Y-8193141D01*
X8476000Y-8856859D01*
X8471314Y-8904434D01*
X8459226Y-8944284D01*
X8439601Y-8980999D01*
X8413186Y-9013186D01*
X8380999Y-9039601D01*
X8344284Y-9059226D01*
X8304434Y-9071314D01*
X8256859Y-9076000D01*
X7093141Y-9076000D01*
X7045566Y-9071314D01*
X7005716Y-9059226D01*
X6969001Y-9039601D01*
X6936814Y-9013186D01*
X6910399Y-8980999D01*
X6890774Y-8944284D01*
X6878686Y-8904434D01*
X6875396Y-8871032D01*
X6870615Y-8846999D01*
X6861238Y-8824360D01*
X6847624Y-8803986D01*
X6830297Y-8786659D01*
X6809922Y-8773045D01*
X6787283Y-8763668D01*
X6763250Y-8758888D01*
X6738746Y-8758888D01*
X6714713Y-8763669D01*
X6692074Y-8773046D01*
X6671700Y-8786660D01*
X6654373Y-8803987D01*
X6640759Y-8824362D01*
X6631382Y-8847001D01*
X6626000Y-8883285D01*
X6626000Y-9076000D01*
X5024000Y-9076000D01*
X5024000Y-7974000D01*
X6626000Y-7974000D01*
X6626000Y-8166715D01*
X6626000Y-8166715D01*
G37*
G36*
X-124000Y-8166715D02*
G01*
X-121598Y-8191101D01*
X-114485Y-8214550D01*
X-102934Y-8236161D01*
X-87389Y-8255103D01*
X-68447Y-8270648D01*
X-46836Y-8282199D01*
X-23387Y-8289312D01*
X999Y-8291714D01*
X25385Y-8289312D01*
X48834Y-8282199D01*
X70445Y-8270648D01*
X89387Y-8255103D01*
X104932Y-8236161D01*
X116483Y-8214550D01*
X125396Y-8178968D01*
X128686Y-8145566D01*
X140774Y-8105716D01*
X160399Y-8069001D01*
X186814Y-8036814D01*
X219001Y-8010399D01*
X255716Y-7990774D01*
X295566Y-7978686D01*
X343141Y-7974000D01*
X1506859Y-7974000D01*
X1554434Y-7978686D01*
X1594284Y-7990774D01*
X1630999Y-8010399D01*
X1663186Y-8036814D01*
X1689601Y-8069001D01*
X1709226Y-8105716D01*
X1721314Y-8145566D01*
X1726000Y-8193141D01*
X1726000Y-8856859D01*
X1721314Y-8904434D01*
X1709226Y-8944284D01*
X1689601Y-8980999D01*
X1663186Y-9013186D01*
X1630999Y-9039601D01*
X1594284Y-9059226D01*
X1554434Y-9071314D01*
X1506859Y-9076000D01*
X343141Y-9076000D01*
X295566Y-9071314D01*
X255716Y-9059226D01*
X219001Y-9039601D01*
X186814Y-9013186D01*
X160399Y-8980999D01*
X140774Y-8944284D01*
X128686Y-8904434D01*
X125396Y-8871032D01*
X120615Y-8846999D01*
X111238Y-8824360D01*
X97624Y-8803986D01*
X80297Y-8786659D01*
X59922Y-8773045D01*
X37283Y-8763668D01*
X13250Y-8758888D01*
X-11254Y-8758888D01*
X-35287Y-8763669D01*
X-57926Y-8773046D01*
X-78300Y-8786660D01*
X-95627Y-8803987D01*
X-109241Y-8824362D01*
X-118618Y-8847001D01*
X-124000Y-8883285D01*
X-124000Y-9076000D01*
X-1726000Y-9076000D01*
X-1726000Y-7974000D01*
X-124000Y-7974000D01*
X-124000Y-8166715D01*
X-124000Y-8166715D01*
G37*
G36*
X28274591Y-8068085D02*
G01*
X28308569Y-8078393D01*
X28339890Y-8095134D01*
X28367339Y-8117661D01*
X28389866Y-8145110D01*
X28406607Y-8176431D01*
X28416915Y-8210409D01*
X28421000Y-8251890D01*
X28421000Y-8853110D01*
X28416915Y-8894591D01*
X28406607Y-8928569D01*
X28389866Y-8959890D01*
X28367339Y-8987339D01*
X28339890Y-9009866D01*
X28308569Y-9026607D01*
X28274591Y-9036915D01*
X28233110Y-9041000D01*
X27556890Y-9041000D01*
X27515409Y-9036915D01*
X27481431Y-9026607D01*
X27450110Y-9009866D01*
X27422661Y-8987339D01*
X27400134Y-8959890D01*
X27383393Y-8928569D01*
X27373085Y-8894591D01*
X27369000Y-8853110D01*
X27369000Y-8251890D01*
X27373085Y-8210409D01*
X27383393Y-8176431D01*
X27400134Y-8145110D01*
X27422661Y-8117661D01*
X27450110Y-8095134D01*
X27481431Y-8078393D01*
X27515409Y-8068085D01*
X27556890Y-8064000D01*
X28233110Y-8064000D01*
X28274591Y-8068085D01*
X28274591Y-8068085D01*
G37*
G36*
X35673512Y-5453927D02*
G01*
X35822812Y-5483624D01*
X35986784Y-5551544D01*
X36134354Y-5650147D01*
X36259853Y-5775646D01*
X36358456Y-5923216D01*
X36426376Y-6087188D01*
X36461000Y-6261259D01*
X36461000Y-6438741D01*
X36426376Y-6612812D01*
X36358456Y-6776784D01*
X36259853Y-6924354D01*
X36134354Y-7049853D01*
X35986784Y-7148456D01*
X35822812Y-7216376D01*
X35673512Y-7246073D01*
X35648742Y-7251000D01*
X35471258Y-7251000D01*
X35446488Y-7246073D01*
X35297188Y-7216376D01*
X35133216Y-7148456D01*
X34985646Y-7049853D01*
X34860147Y-6924354D01*
X34761544Y-6776784D01*
X34693624Y-6612812D01*
X34659000Y-6438741D01*
X34659000Y-6261259D01*
X34693624Y-6087188D01*
X34761544Y-5923216D01*
X34860147Y-5775646D01*
X34985646Y-5650147D01*
X35133216Y-5551544D01*
X35297188Y-5483624D01*
X35446488Y-5453927D01*
X35471258Y-5449000D01*
X35648742Y-5449000D01*
X35673512Y-5453927D01*
X35673512Y-5453927D01*
G37*
G36*
X-35446488Y-5453927D02*
G01*
X-35297188Y-5483624D01*
X-35133216Y-5551544D01*
X-34985646Y-5650147D01*
X-34860147Y-5775646D01*
X-34761544Y-5923216D01*
X-34693624Y-6087188D01*
X-34659000Y-6261259D01*
X-34659000Y-6438741D01*
X-34693624Y-6612812D01*
X-34761544Y-6776784D01*
X-34860147Y-6924354D01*
X-34985646Y-7049853D01*
X-35133216Y-7148456D01*
X-35297188Y-7216376D01*
X-35446488Y-7246073D01*
X-35471258Y-7251000D01*
X-35648742Y-7251000D01*
X-35673512Y-7246073D01*
X-35822812Y-7216376D01*
X-35986784Y-7148456D01*
X-36134354Y-7049853D01*
X-36259853Y-6924354D01*
X-36358456Y-6776784D01*
X-36426376Y-6612812D01*
X-36461000Y-6438741D01*
X-36461000Y-6261259D01*
X-36426376Y-6087188D01*
X-36358456Y-5923216D01*
X-36259853Y-5775646D01*
X-36134354Y-5650147D01*
X-35986784Y-5551544D01*
X-35822812Y-5483624D01*
X-35673512Y-5453927D01*
X-35648742Y-5449000D01*
X-35471258Y-5449000D01*
X-35446488Y-5453927D01*
X-35446488Y-5453927D01*
G37*
G36*
X26876000Y-5526000D02*
G01*
X25274000Y-5526000D01*
X25274000Y-4424000D01*
X26876000Y-4424000D01*
X26876000Y-5526000D01*
X26876000Y-5526000D01*
G37*
G36*
X8476000Y-5526000D02*
G01*
X5024000Y-5526000D01*
X5024000Y-4424000D01*
X8476000Y-4424000D01*
X8476000Y-5526000D01*
X8476000Y-5526000D01*
G37*
G36*
X1726000Y-5526000D02*
G01*
X-1726000Y-5526000D01*
X-1726000Y-4424000D01*
X1726000Y-4424000D01*
X1726000Y-5526000D01*
X1726000Y-5526000D01*
G37*
G36*
X-5024000Y-5526000D02*
G01*
X-8476000Y-5526000D01*
X-8476000Y-4424000D01*
X-5024000Y-4424000D01*
X-5024000Y-5526000D01*
X-5024000Y-5526000D01*
G37*
G36*
X15226000Y-5526000D02*
G01*
X11774000Y-5526000D01*
X11774000Y-4424000D01*
X15226000Y-4424000D01*
X15226000Y-5526000D01*
X15226000Y-5526000D01*
G37*
G36*
X-25274000Y-5526000D02*
G01*
X-26876000Y-5526000D01*
X-26876000Y-4424000D01*
X-25274000Y-4424000D01*
X-25274000Y-5526000D01*
X-25274000Y-5526000D01*
G37*
G36*
X-11774000Y-5526000D02*
G01*
X-15226000Y-5526000D01*
X-15226000Y-4424000D01*
X-11774000Y-4424000D01*
X-11774000Y-5526000D01*
X-11774000Y-5526000D01*
G37*
G36*
X21976000Y-5526000D02*
G01*
X18524000Y-5526000D01*
X18524000Y-4424000D01*
X21976000Y-4424000D01*
X21976000Y-5526000D01*
X21976000Y-5526000D01*
G37*
G36*
X-18524000Y-5526000D02*
G01*
X-21976000Y-5526000D01*
X-21976000Y-4424000D01*
X-18524000Y-4424000D01*
X-18524000Y-5526000D01*
X-18524000Y-5526000D01*
G37*
G36*
X-35446488Y-2913927D02*
G01*
X-35297188Y-2943624D01*
X-35133216Y-3011544D01*
X-34985646Y-3110147D01*
X-34860147Y-3235646D01*
X-34761544Y-3383216D01*
X-34693624Y-3547188D01*
X-34659000Y-3721259D01*
X-34659000Y-3898741D01*
X-34693624Y-4072812D01*
X-34761544Y-4236784D01*
X-34860147Y-4384354D01*
X-34985646Y-4509853D01*
X-35133216Y-4608456D01*
X-35297188Y-4676376D01*
X-35446488Y-4706073D01*
X-35471258Y-4711000D01*
X-35648742Y-4711000D01*
X-35673512Y-4706073D01*
X-35822812Y-4676376D01*
X-35986784Y-4608456D01*
X-36134354Y-4509853D01*
X-36259853Y-4384354D01*
X-36358456Y-4236784D01*
X-36426376Y-4072812D01*
X-36461000Y-3898741D01*
X-36461000Y-3721259D01*
X-36426376Y-3547188D01*
X-36358456Y-3383216D01*
X-36259853Y-3235646D01*
X-36134354Y-3110147D01*
X-35986784Y-3011544D01*
X-35822812Y-2943624D01*
X-35673512Y-2913927D01*
X-35648742Y-2909000D01*
X-35471258Y-2909000D01*
X-35446488Y-2913927D01*
X-35446488Y-2913927D01*
G37*
G36*
X35673512Y-2913927D02*
G01*
X35822812Y-2943624D01*
X35986784Y-3011544D01*
X36134354Y-3110147D01*
X36259853Y-3235646D01*
X36358456Y-3383216D01*
X36426376Y-3547188D01*
X36461000Y-3721259D01*
X36461000Y-3898741D01*
X36426376Y-4072812D01*
X36358456Y-4236784D01*
X36259853Y-4384354D01*
X36134354Y-4509853D01*
X35986784Y-4608456D01*
X35822812Y-4676376D01*
X35673512Y-4706073D01*
X35648742Y-4711000D01*
X35471258Y-4711000D01*
X35446488Y-4706073D01*
X35297188Y-4676376D01*
X35133216Y-4608456D01*
X34985646Y-4509853D01*
X34860147Y-4384354D01*
X34761544Y-4236784D01*
X34693624Y-4072812D01*
X34659000Y-3898741D01*
X34659000Y-3721259D01*
X34693624Y-3547188D01*
X34761544Y-3383216D01*
X34860147Y-3235646D01*
X34985646Y-3110147D01*
X35133216Y-3011544D01*
X35297188Y-2943624D01*
X35446488Y-2913927D01*
X35471258Y-2909000D01*
X35648742Y-2909000D01*
X35673512Y-2913927D01*
X35673512Y-2913927D01*
G37*
G36*
X-11774000Y-3926000D02*
G01*
X-15226000Y-3926000D01*
X-15226000Y-2824000D01*
X-11774000Y-2824000D01*
X-11774000Y-3926000D01*
X-11774000Y-3926000D01*
G37*
G36*
X8476000Y-3926000D02*
G01*
X5024000Y-3926000D01*
X5024000Y-2824000D01*
X8476000Y-2824000D01*
X8476000Y-3926000D01*
X8476000Y-3926000D01*
G37*
G36*
X1726000Y-3926000D02*
G01*
X-1726000Y-3926000D01*
X-1726000Y-2824000D01*
X1726000Y-2824000D01*
X1726000Y-3926000D01*
X1726000Y-3926000D01*
G37*
G36*
X-5024000Y-3926000D02*
G01*
X-8476000Y-3926000D01*
X-8476000Y-2824000D01*
X-5024000Y-2824000D01*
X-5024000Y-3926000D01*
X-5024000Y-3926000D01*
G37*
G36*
X15226000Y-3926000D02*
G01*
X11774000Y-3926000D01*
X11774000Y-2824000D01*
X15226000Y-2824000D01*
X15226000Y-3926000D01*
X15226000Y-3926000D01*
G37*
G36*
X21976000Y-3926000D02*
G01*
X18524000Y-3926000D01*
X18524000Y-2824000D01*
X21976000Y-2824000D01*
X21976000Y-3926000D01*
X21976000Y-3926000D01*
G37*
G36*
X-18524000Y-3926000D02*
G01*
X-21976000Y-3926000D01*
X-21976000Y-2824000D01*
X-18524000Y-2824000D01*
X-18524000Y-3926000D01*
X-18524000Y-3926000D01*
G37*
G36*
X-25274000Y-3926000D02*
G01*
X-26876000Y-3926000D01*
X-26876000Y-2824000D01*
X-25274000Y-2824000D01*
X-25274000Y-3926000D01*
X-25274000Y-3926000D01*
G37*
G36*
X26876000Y-3926000D02*
G01*
X25274000Y-3926000D01*
X25274000Y-2824000D01*
X26876000Y-2824000D01*
X26876000Y-3926000D01*
X26876000Y-3926000D01*
G37*
G36*
X28264591Y-2893085D02*
G01*
X28298569Y-2903393D01*
X28329890Y-2920134D01*
X28357339Y-2942661D01*
X28379866Y-2970110D01*
X28396607Y-3001431D01*
X28406915Y-3035409D01*
X28411000Y-3076890D01*
X28411000Y-3678110D01*
X28406915Y-3719591D01*
X28396607Y-3753569D01*
X28379866Y-3784890D01*
X28357339Y-3812339D01*
X28329890Y-3834866D01*
X28298569Y-3851607D01*
X28264591Y-3861915D01*
X28223110Y-3866000D01*
X27546890Y-3866000D01*
X27505409Y-3861915D01*
X27471431Y-3851607D01*
X27440110Y-3834866D01*
X27412661Y-3812339D01*
X27390134Y-3784890D01*
X27373393Y-3753569D01*
X27363085Y-3719591D01*
X27359000Y-3678110D01*
X27359000Y-3076890D01*
X27363085Y-3035409D01*
X27373393Y-3001431D01*
X27390134Y-2970110D01*
X27412661Y-2942661D01*
X27440110Y-2920134D01*
X27471431Y-2903393D01*
X27505409Y-2893085D01*
X27546890Y-2889000D01*
X28223110Y-2889000D01*
X28264591Y-2893085D01*
X28264591Y-2893085D01*
G37*
G36*
X20126000Y-1416715D02*
G01*
X20128402Y-1441101D01*
X20135515Y-1464550D01*
X20147066Y-1486161D01*
X20162611Y-1505103D01*
X20181553Y-1520648D01*
X20203164Y-1532199D01*
X20226613Y-1539312D01*
X20250999Y-1541714D01*
X20275385Y-1539312D01*
X20298834Y-1532199D01*
X20320445Y-1520648D01*
X20339387Y-1505103D01*
X20354932Y-1486161D01*
X20366483Y-1464550D01*
X20375396Y-1428968D01*
X20378686Y-1395566D01*
X20390774Y-1355716D01*
X20410399Y-1319001D01*
X20436814Y-1286814D01*
X20469001Y-1260399D01*
X20505716Y-1240774D01*
X20545566Y-1228686D01*
X20593141Y-1224000D01*
X21756859Y-1224000D01*
X21804434Y-1228686D01*
X21844284Y-1240774D01*
X21880999Y-1260399D01*
X21913186Y-1286814D01*
X21939601Y-1319001D01*
X21959226Y-1355716D01*
X21971314Y-1395566D01*
X21976000Y-1443141D01*
X21976000Y-2106859D01*
X21971314Y-2154434D01*
X21959226Y-2194284D01*
X21939601Y-2230999D01*
X21913186Y-2263186D01*
X21880999Y-2289601D01*
X21844284Y-2309226D01*
X21804434Y-2321314D01*
X21756859Y-2326000D01*
X20593141Y-2326000D01*
X20545566Y-2321314D01*
X20505716Y-2309226D01*
X20469001Y-2289601D01*
X20436814Y-2263186D01*
X20410399Y-2230999D01*
X20390774Y-2194284D01*
X20378686Y-2154434D01*
X20375396Y-2121032D01*
X20370615Y-2096999D01*
X20361238Y-2074360D01*
X20347624Y-2053986D01*
X20330297Y-2036659D01*
X20309922Y-2023045D01*
X20287283Y-2013668D01*
X20263250Y-2008888D01*
X20238746Y-2008888D01*
X20214713Y-2013669D01*
X20192074Y-2023046D01*
X20171700Y-2036660D01*
X20154373Y-2053987D01*
X20140759Y-2074362D01*
X20131382Y-2097001D01*
X20126000Y-2133285D01*
X20126000Y-2326000D01*
X18524000Y-2326000D01*
X18524000Y-1224000D01*
X20126000Y-1224000D01*
X20126000Y-1416715D01*
X20126000Y-1416715D01*
G37*
G36*
X-124000Y-1416715D02*
G01*
X-121598Y-1441101D01*
X-114485Y-1464550D01*
X-102934Y-1486161D01*
X-87389Y-1505103D01*
X-68447Y-1520648D01*
X-46836Y-1532199D01*
X-23387Y-1539312D01*
X999Y-1541714D01*
X25385Y-1539312D01*
X48834Y-1532199D01*
X70445Y-1520648D01*
X89387Y-1505103D01*
X104932Y-1486161D01*
X116483Y-1464550D01*
X125396Y-1428968D01*
X128686Y-1395566D01*
X140774Y-1355716D01*
X160399Y-1319001D01*
X186814Y-1286814D01*
X219001Y-1260399D01*
X255716Y-1240774D01*
X295566Y-1228686D01*
X343141Y-1224000D01*
X1506859Y-1224000D01*
X1554434Y-1228686D01*
X1594284Y-1240774D01*
X1630999Y-1260399D01*
X1663186Y-1286814D01*
X1689601Y-1319001D01*
X1709226Y-1355716D01*
X1721314Y-1395566D01*
X1726000Y-1443141D01*
X1726000Y-2106859D01*
X1721314Y-2154434D01*
X1709226Y-2194284D01*
X1689601Y-2230999D01*
X1663186Y-2263186D01*
X1630999Y-2289601D01*
X1594284Y-2309226D01*
X1554434Y-2321314D01*
X1506859Y-2326000D01*
X343141Y-2326000D01*
X295566Y-2321314D01*
X255716Y-2309226D01*
X219001Y-2289601D01*
X186814Y-2263186D01*
X160399Y-2230999D01*
X140774Y-2194284D01*
X128686Y-2154434D01*
X125396Y-2121032D01*
X120615Y-2096999D01*
X111238Y-2074360D01*
X97624Y-2053986D01*
X80297Y-2036659D01*
X59922Y-2023045D01*
X37283Y-2013668D01*
X13250Y-2008888D01*
X-11254Y-2008888D01*
X-35287Y-2013669D01*
X-57926Y-2023046D01*
X-78300Y-2036660D01*
X-95627Y-2053987D01*
X-109241Y-2074362D01*
X-118618Y-2097001D01*
X-124000Y-2133285D01*
X-124000Y-2326000D01*
X-1726000Y-2326000D01*
X-1726000Y-1224000D01*
X-124000Y-1224000D01*
X-124000Y-1416715D01*
X-124000Y-1416715D01*
G37*
G36*
X-20374000Y-1416715D02*
G01*
X-20371598Y-1441101D01*
X-20364485Y-1464550D01*
X-20352934Y-1486161D01*
X-20337389Y-1505103D01*
X-20318447Y-1520648D01*
X-20296836Y-1532199D01*
X-20273387Y-1539312D01*
X-20249001Y-1541714D01*
X-20224615Y-1539312D01*
X-20201166Y-1532199D01*
X-20179555Y-1520648D01*
X-20160613Y-1505103D01*
X-20145068Y-1486161D01*
X-20133517Y-1464550D01*
X-20124604Y-1428968D01*
X-20121314Y-1395566D01*
X-20109226Y-1355716D01*
X-20089601Y-1319001D01*
X-20063186Y-1286814D01*
X-20030999Y-1260399D01*
X-19994284Y-1240774D01*
X-19954434Y-1228686D01*
X-19906859Y-1224000D01*
X-18743141Y-1224000D01*
X-18695566Y-1228686D01*
X-18655716Y-1240774D01*
X-18619001Y-1260399D01*
X-18586814Y-1286814D01*
X-18560399Y-1319001D01*
X-18540774Y-1355716D01*
X-18528686Y-1395566D01*
X-18524000Y-1443141D01*
X-18524000Y-2106859D01*
X-18528686Y-2154434D01*
X-18540774Y-2194284D01*
X-18560399Y-2230999D01*
X-18586814Y-2263186D01*
X-18619001Y-2289601D01*
X-18655716Y-2309226D01*
X-18695566Y-2321314D01*
X-18743141Y-2326000D01*
X-19906859Y-2326000D01*
X-19954434Y-2321314D01*
X-19994284Y-2309226D01*
X-20030999Y-2289601D01*
X-20063186Y-2263186D01*
X-20089601Y-2230999D01*
X-20109226Y-2194284D01*
X-20121314Y-2154434D01*
X-20124604Y-2121032D01*
X-20129385Y-2096999D01*
X-20138762Y-2074360D01*
X-20152376Y-2053986D01*
X-20169703Y-2036659D01*
X-20190078Y-2023045D01*
X-20212717Y-2013668D01*
X-20236750Y-2008888D01*
X-20261254Y-2008888D01*
X-20285287Y-2013669D01*
X-20307926Y-2023046D01*
X-20328300Y-2036660D01*
X-20345627Y-2053987D01*
X-20359241Y-2074362D01*
X-20368618Y-2097001D01*
X-20374000Y-2133285D01*
X-20374000Y-2326000D01*
X-21976000Y-2326000D01*
X-21976000Y-1224000D01*
X-20374000Y-1224000D01*
X-20374000Y-1416715D01*
X-20374000Y-1416715D01*
G37*
G36*
X6626000Y-1416715D02*
G01*
X6628402Y-1441101D01*
X6635515Y-1464550D01*
X6647066Y-1486161D01*
X6662611Y-1505103D01*
X6681553Y-1520648D01*
X6703164Y-1532199D01*
X6726613Y-1539312D01*
X6750999Y-1541714D01*
X6775385Y-1539312D01*
X6798834Y-1532199D01*
X6820445Y-1520648D01*
X6839387Y-1505103D01*
X6854932Y-1486161D01*
X6866483Y-1464550D01*
X6875396Y-1428968D01*
X6878686Y-1395566D01*
X6890774Y-1355716D01*
X6910399Y-1319001D01*
X6936814Y-1286814D01*
X6969001Y-1260399D01*
X7005716Y-1240774D01*
X7045566Y-1228686D01*
X7093141Y-1224000D01*
X8256859Y-1224000D01*
X8304434Y-1228686D01*
X8344284Y-1240774D01*
X8380999Y-1260399D01*
X8413186Y-1286814D01*
X8439601Y-1319001D01*
X8459226Y-1355716D01*
X8471314Y-1395566D01*
X8476000Y-1443141D01*
X8476000Y-2106859D01*
X8471314Y-2154434D01*
X8459226Y-2194284D01*
X8439601Y-2230999D01*
X8413186Y-2263186D01*
X8380999Y-2289601D01*
X8344284Y-2309226D01*
X8304434Y-2321314D01*
X8256859Y-2326000D01*
X7093141Y-2326000D01*
X7045566Y-2321314D01*
X7005716Y-2309226D01*
X6969001Y-2289601D01*
X6936814Y-2263186D01*
X6910399Y-2230999D01*
X6890774Y-2194284D01*
X6878686Y-2154434D01*
X6875396Y-2121032D01*
X6870615Y-2096999D01*
X6861238Y-2074360D01*
X6847624Y-2053986D01*
X6830297Y-2036659D01*
X6809922Y-2023045D01*
X6787283Y-2013668D01*
X6763250Y-2008888D01*
X6738746Y-2008888D01*
X6714713Y-2013669D01*
X6692074Y-2023046D01*
X6671700Y-2036660D01*
X6654373Y-2053987D01*
X6640759Y-2074362D01*
X6631382Y-2097001D01*
X6626000Y-2133285D01*
X6626000Y-2326000D01*
X5024000Y-2326000D01*
X5024000Y-1224000D01*
X6626000Y-1224000D01*
X6626000Y-1416715D01*
X6626000Y-1416715D01*
G37*
G36*
X26876000Y-2326000D02*
G01*
X25274000Y-2326000D01*
X25274000Y-1224000D01*
X26876000Y-1224000D01*
X26876000Y-2326000D01*
X26876000Y-2326000D01*
G37*
G36*
X-13624000Y-1416715D02*
G01*
X-13621598Y-1441101D01*
X-13614485Y-1464550D01*
X-13602934Y-1486161D01*
X-13587389Y-1505103D01*
X-13568447Y-1520648D01*
X-13546836Y-1532199D01*
X-13523387Y-1539312D01*
X-13499001Y-1541714D01*
X-13474615Y-1539312D01*
X-13451166Y-1532199D01*
X-13429555Y-1520648D01*
X-13410613Y-1505103D01*
X-13395068Y-1486161D01*
X-13383517Y-1464550D01*
X-13374604Y-1428968D01*
X-13371314Y-1395566D01*
X-13359226Y-1355716D01*
X-13339601Y-1319001D01*
X-13313186Y-1286814D01*
X-13280999Y-1260399D01*
X-13244284Y-1240774D01*
X-13204434Y-1228686D01*
X-13156859Y-1224000D01*
X-11993141Y-1224000D01*
X-11945566Y-1228686D01*
X-11905716Y-1240774D01*
X-11869001Y-1260399D01*
X-11836814Y-1286814D01*
X-11810399Y-1319001D01*
X-11790774Y-1355716D01*
X-11778686Y-1395566D01*
X-11774000Y-1443141D01*
X-11774000Y-2106859D01*
X-11778686Y-2154434D01*
X-11790774Y-2194284D01*
X-11810399Y-2230999D01*
X-11836814Y-2263186D01*
X-11869001Y-2289601D01*
X-11905716Y-2309226D01*
X-11945566Y-2321314D01*
X-11993141Y-2326000D01*
X-13156859Y-2326000D01*
X-13204434Y-2321314D01*
X-13244284Y-2309226D01*
X-13280999Y-2289601D01*
X-13313186Y-2263186D01*
X-13339601Y-2230999D01*
X-13359226Y-2194284D01*
X-13371314Y-2154434D01*
X-13374604Y-2121032D01*
X-13379385Y-2096999D01*
X-13388762Y-2074360D01*
X-13402376Y-2053986D01*
X-13419703Y-2036659D01*
X-13440078Y-2023045D01*
X-13462717Y-2013668D01*
X-13486750Y-2008888D01*
X-13511254Y-2008888D01*
X-13535287Y-2013669D01*
X-13557926Y-2023046D01*
X-13578300Y-2036660D01*
X-13595627Y-2053987D01*
X-13609241Y-2074362D01*
X-13618618Y-2097001D01*
X-13624000Y-2133285D01*
X-13624000Y-2326000D01*
X-15226000Y-2326000D01*
X-15226000Y-1224000D01*
X-13624000Y-1224000D01*
X-13624000Y-1416715D01*
X-13624000Y-1416715D01*
G37*
G36*
X-6874000Y-1416715D02*
G01*
X-6871598Y-1441101D01*
X-6864485Y-1464550D01*
X-6852934Y-1486161D01*
X-6837389Y-1505103D01*
X-6818447Y-1520648D01*
X-6796836Y-1532199D01*
X-6773387Y-1539312D01*
X-6749001Y-1541714D01*
X-6724615Y-1539312D01*
X-6701166Y-1532199D01*
X-6679555Y-1520648D01*
X-6660613Y-1505103D01*
X-6645068Y-1486161D01*
X-6633517Y-1464550D01*
X-6624604Y-1428968D01*
X-6621314Y-1395566D01*
X-6609226Y-1355716D01*
X-6589601Y-1319001D01*
X-6563186Y-1286814D01*
X-6530999Y-1260399D01*
X-6494284Y-1240774D01*
X-6454434Y-1228686D01*
X-6406859Y-1224000D01*
X-5243141Y-1224000D01*
X-5195566Y-1228686D01*
X-5155716Y-1240774D01*
X-5119001Y-1260399D01*
X-5086814Y-1286814D01*
X-5060399Y-1319001D01*
X-5040774Y-1355716D01*
X-5028686Y-1395566D01*
X-5024000Y-1443141D01*
X-5024000Y-2106859D01*
X-5028686Y-2154434D01*
X-5040774Y-2194284D01*
X-5060399Y-2230999D01*
X-5086814Y-2263186D01*
X-5119001Y-2289601D01*
X-5155716Y-2309226D01*
X-5195566Y-2321314D01*
X-5243141Y-2326000D01*
X-6406859Y-2326000D01*
X-6454434Y-2321314D01*
X-6494284Y-2309226D01*
X-6530999Y-2289601D01*
X-6563186Y-2263186D01*
X-6589601Y-2230999D01*
X-6609226Y-2194284D01*
X-6621314Y-2154434D01*
X-6624604Y-2121032D01*
X-6629385Y-2096999D01*
X-6638762Y-2074360D01*
X-6652376Y-2053986D01*
X-6669703Y-2036659D01*
X-6690078Y-2023045D01*
X-6712717Y-2013668D01*
X-6736750Y-2008888D01*
X-6761254Y-2008888D01*
X-6785287Y-2013669D01*
X-6807926Y-2023046D01*
X-6828300Y-2036660D01*
X-6845627Y-2053987D01*
X-6859241Y-2074362D01*
X-6868618Y-2097001D01*
X-6874000Y-2133285D01*
X-6874000Y-2326000D01*
X-8476000Y-2326000D01*
X-8476000Y-1224000D01*
X-6874000Y-1224000D01*
X-6874000Y-1416715D01*
X-6874000Y-1416715D01*
G37*
G36*
X13376000Y-1416715D02*
G01*
X13378402Y-1441101D01*
X13385515Y-1464550D01*
X13397066Y-1486161D01*
X13412611Y-1505103D01*
X13431553Y-1520648D01*
X13453164Y-1532199D01*
X13476613Y-1539312D01*
X13500999Y-1541714D01*
X13525385Y-1539312D01*
X13548834Y-1532199D01*
X13570445Y-1520648D01*
X13589387Y-1505103D01*
X13604932Y-1486161D01*
X13616483Y-1464550D01*
X13625396Y-1428968D01*
X13628686Y-1395566D01*
X13640774Y-1355716D01*
X13660399Y-1319001D01*
X13686814Y-1286814D01*
X13719001Y-1260399D01*
X13755716Y-1240774D01*
X13795566Y-1228686D01*
X13843141Y-1224000D01*
X15006859Y-1224000D01*
X15054434Y-1228686D01*
X15094284Y-1240774D01*
X15130999Y-1260399D01*
X15163186Y-1286814D01*
X15189601Y-1319001D01*
X15209226Y-1355716D01*
X15221314Y-1395566D01*
X15226000Y-1443141D01*
X15226000Y-2106859D01*
X15221314Y-2154434D01*
X15209226Y-2194284D01*
X15189601Y-2230999D01*
X15163186Y-2263186D01*
X15130999Y-2289601D01*
X15094284Y-2309226D01*
X15054434Y-2321314D01*
X15006859Y-2326000D01*
X13843141Y-2326000D01*
X13795566Y-2321314D01*
X13755716Y-2309226D01*
X13719001Y-2289601D01*
X13686814Y-2263186D01*
X13660399Y-2230999D01*
X13640774Y-2194284D01*
X13628686Y-2154434D01*
X13625396Y-2121032D01*
X13620615Y-2096999D01*
X13611238Y-2074360D01*
X13597624Y-2053986D01*
X13580297Y-2036659D01*
X13559922Y-2023045D01*
X13537283Y-2013668D01*
X13513250Y-2008888D01*
X13488746Y-2008888D01*
X13464713Y-2013669D01*
X13442074Y-2023046D01*
X13421700Y-2036660D01*
X13404373Y-2053987D01*
X13390759Y-2074362D01*
X13381382Y-2097001D01*
X13376000Y-2133285D01*
X13376000Y-2326000D01*
X11774000Y-2326000D01*
X11774000Y-1224000D01*
X13376000Y-1224000D01*
X13376000Y-1416715D01*
X13376000Y-1416715D01*
G37*
G36*
X-25445566Y-1228686D02*
G01*
X-25405716Y-1240774D01*
X-25369001Y-1260399D01*
X-25336814Y-1286814D01*
X-25310399Y-1319001D01*
X-25290774Y-1355716D01*
X-25278686Y-1395566D01*
X-25274000Y-1443141D01*
X-25274000Y-2106859D01*
X-25278686Y-2154434D01*
X-25290774Y-2194284D01*
X-25310399Y-2230999D01*
X-25336814Y-2263186D01*
X-25369001Y-2289601D01*
X-25405716Y-2309226D01*
X-25445566Y-2321314D01*
X-25493141Y-2326000D01*
X-26656859Y-2326000D01*
X-26704434Y-2321314D01*
X-26744284Y-2309226D01*
X-26780999Y-2289601D01*
X-26813186Y-2263186D01*
X-26839601Y-2230999D01*
X-26859226Y-2194284D01*
X-26871314Y-2154434D01*
X-26876000Y-2106859D01*
X-26876000Y-1443141D01*
X-26871314Y-1395566D01*
X-26859226Y-1355716D01*
X-26839601Y-1319001D01*
X-26813186Y-1286814D01*
X-26780999Y-1260399D01*
X-26744284Y-1240774D01*
X-26704434Y-1228686D01*
X-26656859Y-1224000D01*
X-25493141Y-1224000D01*
X-25445566Y-1228686D01*
X-25445566Y-1228686D01*
G37*
G36*
X28264591Y-1318085D02*
G01*
X28298569Y-1328393D01*
X28329890Y-1345134D01*
X28357339Y-1367661D01*
X28379866Y-1395110D01*
X28396607Y-1426431D01*
X28406915Y-1460409D01*
X28411000Y-1501890D01*
X28411000Y-2103110D01*
X28406915Y-2144591D01*
X28396607Y-2178569D01*
X28379866Y-2209890D01*
X28357339Y-2237339D01*
X28329890Y-2259866D01*
X28298569Y-2276607D01*
X28264591Y-2286915D01*
X28223110Y-2291000D01*
X27546890Y-2291000D01*
X27505409Y-2286915D01*
X27471431Y-2276607D01*
X27440110Y-2259866D01*
X27412661Y-2237339D01*
X27390134Y-2209890D01*
X27373393Y-2178569D01*
X27363085Y-2144591D01*
X27359000Y-2103110D01*
X27359000Y-1501890D01*
X27363085Y-1460409D01*
X27373393Y-1426431D01*
X27390134Y-1395110D01*
X27412661Y-1367661D01*
X27440110Y-1345134D01*
X27471431Y-1328393D01*
X27505409Y-1318085D01*
X27546890Y-1314000D01*
X28223110Y-1314000D01*
X28264591Y-1318085D01*
X28264591Y-1318085D01*
G37*
G36*
X35673512Y-373927D02*
G01*
X35822812Y-403624D01*
X35986784Y-471544D01*
X36134354Y-570147D01*
X36259853Y-695646D01*
X36358456Y-843216D01*
X36426376Y-1007188D01*
X36461000Y-1181259D01*
X36461000Y-1358741D01*
X36426376Y-1532812D01*
X36358456Y-1696784D01*
X36259853Y-1844354D01*
X36134354Y-1969853D01*
X35986784Y-2068456D01*
X35822812Y-2136376D01*
X35673512Y-2166073D01*
X35648742Y-2171000D01*
X35471258Y-2171000D01*
X35446488Y-2166073D01*
X35297188Y-2136376D01*
X35133216Y-2068456D01*
X34985646Y-1969853D01*
X34860147Y-1844354D01*
X34761544Y-1696784D01*
X34693624Y-1532812D01*
X34659000Y-1358741D01*
X34659000Y-1181259D01*
X34693624Y-1007188D01*
X34761544Y-843216D01*
X34860147Y-695646D01*
X34985646Y-570147D01*
X35133216Y-471544D01*
X35297188Y-403624D01*
X35446488Y-373927D01*
X35471258Y-369000D01*
X35648742Y-369000D01*
X35673512Y-373927D01*
X35673512Y-373927D01*
G37*
G36*
X-35446488Y-373927D02*
G01*
X-35297188Y-403624D01*
X-35133216Y-471544D01*
X-34985646Y-570147D01*
X-34860147Y-695646D01*
X-34761544Y-843216D01*
X-34693624Y-1007188D01*
X-34659000Y-1181259D01*
X-34659000Y-1358741D01*
X-34693624Y-1532812D01*
X-34761544Y-1696784D01*
X-34860147Y-1844354D01*
X-34985646Y-1969853D01*
X-35133216Y-2068456D01*
X-35297188Y-2136376D01*
X-35446488Y-2166073D01*
X-35471258Y-2171000D01*
X-35648742Y-2171000D01*
X-35673512Y-2166073D01*
X-35822812Y-2136376D01*
X-35986784Y-2068456D01*
X-36134354Y-1969853D01*
X-36259853Y-1844354D01*
X-36358456Y-1696784D01*
X-36426376Y-1532812D01*
X-36461000Y-1358741D01*
X-36461000Y-1181259D01*
X-36426376Y-1007188D01*
X-36358456Y-843216D01*
X-36259853Y-695646D01*
X-36134354Y-570147D01*
X-35986784Y-471544D01*
X-35822812Y-403624D01*
X-35673512Y-373927D01*
X-35648742Y-369000D01*
X-35471258Y-369000D01*
X-35446488Y-373927D01*
X-35446488Y-373927D01*
G37*
G36*
X35673512Y2166073D02*
G01*
X35822812Y2136376D01*
X35986784Y2068456D01*
X36134354Y1969853D01*
X36259853Y1844354D01*
X36358456Y1696784D01*
X36426376Y1532812D01*
X36461000Y1358741D01*
X36461000Y1181259D01*
X36426376Y1007188D01*
X36358456Y843216D01*
X36259853Y695646D01*
X36134354Y570147D01*
X35986784Y471544D01*
X35822812Y403624D01*
X35673512Y373927D01*
X35648742Y369000D01*
X35471258Y369000D01*
X35446488Y373927D01*
X35297188Y403624D01*
X35133216Y471544D01*
X34985646Y570147D01*
X34860147Y695646D01*
X34761544Y843216D01*
X34693624Y1007188D01*
X34659000Y1181259D01*
X34659000Y1358741D01*
X34693624Y1532812D01*
X34761544Y1696784D01*
X34860147Y1844354D01*
X34985646Y1969853D01*
X35133216Y2068456D01*
X35297188Y2136376D01*
X35446488Y2166073D01*
X35471258Y2171000D01*
X35648742Y2171000D01*
X35673512Y2166073D01*
X35673512Y2166073D01*
G37*
G36*
X-35446488Y2166073D02*
G01*
X-35297188Y2136376D01*
X-35133216Y2068456D01*
X-34985646Y1969853D01*
X-34860147Y1844354D01*
X-34761544Y1696784D01*
X-34693624Y1532812D01*
X-34659000Y1358741D01*
X-34659000Y1181259D01*
X-34693624Y1007188D01*
X-34761544Y843216D01*
X-34860147Y695646D01*
X-34985646Y570147D01*
X-35133216Y471544D01*
X-35297188Y403624D01*
X-35446488Y373927D01*
X-35471258Y369000D01*
X-35648742Y369000D01*
X-35673512Y373927D01*
X-35822812Y403624D01*
X-35986784Y471544D01*
X-36134354Y570147D01*
X-36259853Y695646D01*
X-36358456Y843216D01*
X-36426376Y1007188D01*
X-36461000Y1181259D01*
X-36461000Y1358741D01*
X-36426376Y1532812D01*
X-36358456Y1696784D01*
X-36259853Y1844354D01*
X-36134354Y1969853D01*
X-35986784Y2068456D01*
X-35822812Y2136376D01*
X-35673512Y2166073D01*
X-35648742Y2171000D01*
X-35471258Y2171000D01*
X-35446488Y2166073D01*
X-35446488Y2166073D01*
G37*
G36*
X8476000Y1224000D02*
G01*
X5024000Y1224000D01*
X5024000Y2326000D01*
X8476000Y2326000D01*
X8476000Y1224000D01*
X8476000Y1224000D01*
G37*
G36*
X1726000Y1224000D02*
G01*
X-1726000Y1224000D01*
X-1726000Y2326000D01*
X1726000Y2326000D01*
X1726000Y1224000D01*
X1726000Y1224000D01*
G37*
G36*
X-5024000Y1224000D02*
G01*
X-8476000Y1224000D01*
X-8476000Y2326000D01*
X-5024000Y2326000D01*
X-5024000Y1224000D01*
X-5024000Y1224000D01*
G37*
G36*
X15226000Y1224000D02*
G01*
X11774000Y1224000D01*
X11774000Y2326000D01*
X15226000Y2326000D01*
X15226000Y1224000D01*
X15226000Y1224000D01*
G37*
G36*
X-11774000Y1224000D02*
G01*
X-15226000Y1224000D01*
X-15226000Y2326000D01*
X-11774000Y2326000D01*
X-11774000Y1224000D01*
X-11774000Y1224000D01*
G37*
G36*
X-18524000Y1224000D02*
G01*
X-21976000Y1224000D01*
X-21976000Y2326000D01*
X-18524000Y2326000D01*
X-18524000Y1224000D01*
X-18524000Y1224000D01*
G37*
G36*
X21976000Y1224000D02*
G01*
X18524000Y1224000D01*
X18524000Y2326000D01*
X21976000Y2326000D01*
X21976000Y1224000D01*
X21976000Y1224000D01*
G37*
G36*
X26876000Y1224000D02*
G01*
X25274000Y1224000D01*
X25274000Y2326000D01*
X26876000Y2326000D01*
X26876000Y1224000D01*
X26876000Y1224000D01*
G37*
G36*
X-25274000Y1224000D02*
G01*
X-26876000Y1224000D01*
X-26876000Y2326000D01*
X-25274000Y2326000D01*
X-25274000Y1224000D01*
X-25274000Y1224000D01*
G37*
G36*
X15226000Y2824000D02*
G01*
X11774000Y2824000D01*
X11774000Y3926000D01*
X15226000Y3926000D01*
X15226000Y2824000D01*
X15226000Y2824000D01*
G37*
G36*
X8476000Y2824000D02*
G01*
X5024000Y2824000D01*
X5024000Y3926000D01*
X8476000Y3926000D01*
X8476000Y2824000D01*
X8476000Y2824000D01*
G37*
G36*
X26876000Y2824000D02*
G01*
X25274000Y2824000D01*
X25274000Y3926000D01*
X26876000Y3926000D01*
X26876000Y2824000D01*
X26876000Y2824000D01*
G37*
G36*
X21976000Y2824000D02*
G01*
X18524000Y2824000D01*
X18524000Y3926000D01*
X21976000Y3926000D01*
X21976000Y2824000D01*
X21976000Y2824000D01*
G37*
G36*
X1726000Y2824000D02*
G01*
X-1726000Y2824000D01*
X-1726000Y3926000D01*
X1726000Y3926000D01*
X1726000Y2824000D01*
X1726000Y2824000D01*
G37*
G36*
X-5024000Y2824000D02*
G01*
X-8476000Y2824000D01*
X-8476000Y3926000D01*
X-5024000Y3926000D01*
X-5024000Y2824000D01*
X-5024000Y2824000D01*
G37*
G36*
X-11774000Y2824000D02*
G01*
X-15226000Y2824000D01*
X-15226000Y3926000D01*
X-11774000Y3926000D01*
X-11774000Y2824000D01*
X-11774000Y2824000D01*
G37*
G36*
X-18524000Y2824000D02*
G01*
X-21976000Y2824000D01*
X-21976000Y3926000D01*
X-18524000Y3926000D01*
X-18524000Y2824000D01*
X-18524000Y2824000D01*
G37*
G36*
X-25274000Y2824000D02*
G01*
X-26876000Y2824000D01*
X-26876000Y3926000D01*
X-25274000Y3926000D01*
X-25274000Y2824000D01*
X-25274000Y2824000D01*
G37*
G36*
X28264591Y3856915D02*
G01*
X28298569Y3846607D01*
X28329890Y3829866D01*
X28357339Y3807339D01*
X28379866Y3779890D01*
X28396607Y3748569D01*
X28406915Y3714591D01*
X28411000Y3673110D01*
X28411000Y3071890D01*
X28406915Y3030409D01*
X28396607Y2996431D01*
X28379866Y2965110D01*
X28357339Y2937661D01*
X28329890Y2915134D01*
X28298569Y2898393D01*
X28264591Y2888085D01*
X28223110Y2884000D01*
X27546890Y2884000D01*
X27505409Y2888085D01*
X27471431Y2898393D01*
X27440110Y2915134D01*
X27412661Y2937661D01*
X27390134Y2965110D01*
X27373393Y2996431D01*
X27363085Y3030409D01*
X27359000Y3071890D01*
X27359000Y3673110D01*
X27363085Y3714591D01*
X27373393Y3748569D01*
X27390134Y3779890D01*
X27412661Y3807339D01*
X27440110Y3829866D01*
X27471431Y3846607D01*
X27505409Y3856915D01*
X27546890Y3861000D01*
X28223110Y3861000D01*
X28264591Y3856915D01*
X28264591Y3856915D01*
G37*
G36*
X35673512Y4706073D02*
G01*
X35822812Y4676376D01*
X35986784Y4608456D01*
X36134354Y4509853D01*
X36259853Y4384354D01*
X36358456Y4236784D01*
X36426376Y4072812D01*
X36461000Y3898741D01*
X36461000Y3721259D01*
X36426376Y3547188D01*
X36358456Y3383216D01*
X36259853Y3235646D01*
X36134354Y3110147D01*
X35986784Y3011544D01*
X35822812Y2943624D01*
X35679579Y2915134D01*
X35648742Y2909000D01*
X35471258Y2909000D01*
X35440421Y2915134D01*
X35297188Y2943624D01*
X35133216Y3011544D01*
X34985646Y3110147D01*
X34860147Y3235646D01*
X34761544Y3383216D01*
X34693624Y3547188D01*
X34659000Y3721259D01*
X34659000Y3898741D01*
X34693624Y4072812D01*
X34761544Y4236784D01*
X34860147Y4384354D01*
X34985646Y4509853D01*
X35133216Y4608456D01*
X35297188Y4676376D01*
X35446488Y4706073D01*
X35471258Y4711000D01*
X35648742Y4711000D01*
X35673512Y4706073D01*
X35673512Y4706073D01*
G37*
G36*
X-35446488Y4706073D02*
G01*
X-35297188Y4676376D01*
X-35133216Y4608456D01*
X-34985646Y4509853D01*
X-34860147Y4384354D01*
X-34761544Y4236784D01*
X-34693624Y4072812D01*
X-34659000Y3898741D01*
X-34659000Y3721259D01*
X-34693624Y3547188D01*
X-34761544Y3383216D01*
X-34860147Y3235646D01*
X-34985646Y3110147D01*
X-35133216Y3011544D01*
X-35297188Y2943624D01*
X-35440421Y2915134D01*
X-35471258Y2909000D01*
X-35648742Y2909000D01*
X-35679579Y2915134D01*
X-35822812Y2943624D01*
X-35986784Y3011544D01*
X-36134354Y3110147D01*
X-36259853Y3235646D01*
X-36358456Y3383216D01*
X-36426376Y3547188D01*
X-36461000Y3721259D01*
X-36461000Y3898741D01*
X-36426376Y4072812D01*
X-36358456Y4236784D01*
X-36259853Y4384354D01*
X-36134354Y4509853D01*
X-35986784Y4608456D01*
X-35822812Y4676376D01*
X-35673512Y4706073D01*
X-35648742Y4711000D01*
X-35471258Y4711000D01*
X-35446488Y4706073D01*
X-35446488Y4706073D01*
G37*
G36*
X-25445566Y5521314D02*
G01*
X-25405716Y5509226D01*
X-25369001Y5489601D01*
X-25336814Y5463186D01*
X-25310399Y5430999D01*
X-25290774Y5394284D01*
X-25278686Y5354434D01*
X-25274000Y5306859D01*
X-25274000Y4643141D01*
X-25278686Y4595566D01*
X-25290774Y4555716D01*
X-25310399Y4519001D01*
X-25336814Y4486814D01*
X-25369001Y4460399D01*
X-25405716Y4440774D01*
X-25445566Y4428686D01*
X-25493141Y4424000D01*
X-26656859Y4424000D01*
X-26704434Y4428686D01*
X-26744284Y4440774D01*
X-26780999Y4460399D01*
X-26813186Y4486814D01*
X-26839601Y4519001D01*
X-26859226Y4555716D01*
X-26871314Y4595566D01*
X-26876000Y4643141D01*
X-26876000Y5306859D01*
X-26871314Y5354434D01*
X-26859226Y5394284D01*
X-26839601Y5430999D01*
X-26813186Y5463186D01*
X-26780999Y5489601D01*
X-26744284Y5509226D01*
X-26704434Y5521314D01*
X-26656859Y5526000D01*
X-25493141Y5526000D01*
X-25445566Y5521314D01*
X-25445566Y5521314D01*
G37*
G36*
X13376000Y5333285D02*
G01*
X13378402Y5308899D01*
X13385515Y5285450D01*
X13397066Y5263839D01*
X13412611Y5244897D01*
X13431553Y5229352D01*
X13453164Y5217801D01*
X13476613Y5210688D01*
X13500999Y5208286D01*
X13525385Y5210688D01*
X13548834Y5217801D01*
X13570445Y5229352D01*
X13589387Y5244897D01*
X13604932Y5263839D01*
X13616483Y5285450D01*
X13625396Y5321032D01*
X13628686Y5354434D01*
X13640774Y5394284D01*
X13660399Y5430999D01*
X13686814Y5463186D01*
X13719001Y5489601D01*
X13755716Y5509226D01*
X13795566Y5521314D01*
X13843141Y5526000D01*
X15006859Y5526000D01*
X15054434Y5521314D01*
X15094284Y5509226D01*
X15130999Y5489601D01*
X15163186Y5463186D01*
X15189601Y5430999D01*
X15209226Y5394284D01*
X15221314Y5354434D01*
X15226000Y5306859D01*
X15226000Y4643141D01*
X15221314Y4595566D01*
X15209226Y4555716D01*
X15189601Y4519001D01*
X15163186Y4486814D01*
X15130999Y4460399D01*
X15094284Y4440774D01*
X15054434Y4428686D01*
X15006859Y4424000D01*
X13843141Y4424000D01*
X13795566Y4428686D01*
X13755716Y4440774D01*
X13719001Y4460399D01*
X13686814Y4486814D01*
X13660399Y4519001D01*
X13640774Y4555716D01*
X13628686Y4595566D01*
X13625396Y4628968D01*
X13620615Y4653001D01*
X13611238Y4675640D01*
X13597624Y4696014D01*
X13580297Y4713341D01*
X13559922Y4726955D01*
X13537283Y4736332D01*
X13513250Y4741112D01*
X13488746Y4741112D01*
X13464713Y4736331D01*
X13442074Y4726954D01*
X13421700Y4713340D01*
X13404373Y4696013D01*
X13390759Y4675638D01*
X13381382Y4652999D01*
X13376000Y4616715D01*
X13376000Y4424000D01*
X11774000Y4424000D01*
X11774000Y5526000D01*
X13376000Y5526000D01*
X13376000Y5333285D01*
X13376000Y5333285D01*
G37*
G36*
X-13624000Y5333285D02*
G01*
X-13621598Y5308899D01*
X-13614485Y5285450D01*
X-13602934Y5263839D01*
X-13587389Y5244897D01*
X-13568447Y5229352D01*
X-13546836Y5217801D01*
X-13523387Y5210688D01*
X-13499001Y5208286D01*
X-13474615Y5210688D01*
X-13451166Y5217801D01*
X-13429555Y5229352D01*
X-13410613Y5244897D01*
X-13395068Y5263839D01*
X-13383517Y5285450D01*
X-13374604Y5321032D01*
X-13371314Y5354434D01*
X-13359226Y5394284D01*
X-13339601Y5430999D01*
X-13313186Y5463186D01*
X-13280999Y5489601D01*
X-13244284Y5509226D01*
X-13204434Y5521314D01*
X-13156859Y5526000D01*
X-11993141Y5526000D01*
X-11945566Y5521314D01*
X-11905716Y5509226D01*
X-11869001Y5489601D01*
X-11836814Y5463186D01*
X-11810399Y5430999D01*
X-11790774Y5394284D01*
X-11778686Y5354434D01*
X-11774000Y5306859D01*
X-11774000Y4643141D01*
X-11778686Y4595566D01*
X-11790774Y4555716D01*
X-11810399Y4519001D01*
X-11836814Y4486814D01*
X-11869001Y4460399D01*
X-11905716Y4440774D01*
X-11945566Y4428686D01*
X-11993141Y4424000D01*
X-13156859Y4424000D01*
X-13204434Y4428686D01*
X-13244284Y4440774D01*
X-13280999Y4460399D01*
X-13313186Y4486814D01*
X-13339601Y4519001D01*
X-13359226Y4555716D01*
X-13371314Y4595566D01*
X-13374604Y4628968D01*
X-13379385Y4653001D01*
X-13388762Y4675640D01*
X-13402376Y4696014D01*
X-13419703Y4713341D01*
X-13440078Y4726955D01*
X-13462717Y4736332D01*
X-13486750Y4741112D01*
X-13511254Y4741112D01*
X-13535287Y4736331D01*
X-13557926Y4726954D01*
X-13578300Y4713340D01*
X-13595627Y4696013D01*
X-13609241Y4675638D01*
X-13618618Y4652999D01*
X-13624000Y4616715D01*
X-13624000Y4424000D01*
X-15226000Y4424000D01*
X-15226000Y5526000D01*
X-13624000Y5526000D01*
X-13624000Y5333285D01*
X-13624000Y5333285D01*
G37*
G36*
X-124000Y5333285D02*
G01*
X-121598Y5308899D01*
X-114485Y5285450D01*
X-102934Y5263839D01*
X-87389Y5244897D01*
X-68447Y5229352D01*
X-46836Y5217801D01*
X-23387Y5210688D01*
X999Y5208286D01*
X25385Y5210688D01*
X48834Y5217801D01*
X70445Y5229352D01*
X89387Y5244897D01*
X104932Y5263839D01*
X116483Y5285450D01*
X125396Y5321032D01*
X128686Y5354434D01*
X140774Y5394284D01*
X160399Y5430999D01*
X186814Y5463186D01*
X219001Y5489601D01*
X255716Y5509226D01*
X295566Y5521314D01*
X343141Y5526000D01*
X1506859Y5526000D01*
X1554434Y5521314D01*
X1594284Y5509226D01*
X1630999Y5489601D01*
X1663186Y5463186D01*
X1689601Y5430999D01*
X1709226Y5394284D01*
X1721314Y5354434D01*
X1726000Y5306859D01*
X1726000Y4643141D01*
X1721314Y4595566D01*
X1709226Y4555716D01*
X1689601Y4519001D01*
X1663186Y4486814D01*
X1630999Y4460399D01*
X1594284Y4440774D01*
X1554434Y4428686D01*
X1506859Y4424000D01*
X343141Y4424000D01*
X295566Y4428686D01*
X255716Y4440774D01*
X219001Y4460399D01*
X186814Y4486814D01*
X160399Y4519001D01*
X140774Y4555716D01*
X128686Y4595566D01*
X125396Y4628968D01*
X120615Y4653001D01*
X111238Y4675640D01*
X97624Y4696014D01*
X80297Y4713341D01*
X59922Y4726955D01*
X37283Y4736332D01*
X13250Y4741112D01*
X-11254Y4741112D01*
X-35287Y4736331D01*
X-57926Y4726954D01*
X-78300Y4713340D01*
X-95627Y4696013D01*
X-109241Y4675638D01*
X-118618Y4652999D01*
X-124000Y4616715D01*
X-124000Y4424000D01*
X-1726000Y4424000D01*
X-1726000Y5526000D01*
X-124000Y5526000D01*
X-124000Y5333285D01*
X-124000Y5333285D01*
G37*
G36*
X6626000Y5333285D02*
G01*
X6628402Y5308899D01*
X6635515Y5285450D01*
X6647066Y5263839D01*
X6662611Y5244897D01*
X6681553Y5229352D01*
X6703164Y5217801D01*
X6726613Y5210688D01*
X6750999Y5208286D01*
X6775385Y5210688D01*
X6798834Y5217801D01*
X6820445Y5229352D01*
X6839387Y5244897D01*
X6854932Y5263839D01*
X6866483Y5285450D01*
X6875396Y5321032D01*
X6878686Y5354434D01*
X6890774Y5394284D01*
X6910399Y5430999D01*
X6936814Y5463186D01*
X6969001Y5489601D01*
X7005716Y5509226D01*
X7045566Y5521314D01*
X7093141Y5526000D01*
X8256859Y5526000D01*
X8304434Y5521314D01*
X8344284Y5509226D01*
X8380999Y5489601D01*
X8413186Y5463186D01*
X8439601Y5430999D01*
X8459226Y5394284D01*
X8471314Y5354434D01*
X8476000Y5306859D01*
X8476000Y4643141D01*
X8471314Y4595566D01*
X8459226Y4555716D01*
X8439601Y4519001D01*
X8413186Y4486814D01*
X8380999Y4460399D01*
X8344284Y4440774D01*
X8304434Y4428686D01*
X8256859Y4424000D01*
X7093141Y4424000D01*
X7045566Y4428686D01*
X7005716Y4440774D01*
X6969001Y4460399D01*
X6936814Y4486814D01*
X6910399Y4519001D01*
X6890774Y4555716D01*
X6878686Y4595566D01*
X6875396Y4628968D01*
X6870615Y4653001D01*
X6861238Y4675640D01*
X6847624Y4696014D01*
X6830297Y4713341D01*
X6809922Y4726955D01*
X6787283Y4736332D01*
X6763250Y4741112D01*
X6738746Y4741112D01*
X6714713Y4736331D01*
X6692074Y4726954D01*
X6671700Y4713340D01*
X6654373Y4696013D01*
X6640759Y4675638D01*
X6631382Y4652999D01*
X6626000Y4616715D01*
X6626000Y4424000D01*
X5024000Y4424000D01*
X5024000Y5526000D01*
X6626000Y5526000D01*
X6626000Y5333285D01*
X6626000Y5333285D01*
G37*
G36*
X20126000Y5333285D02*
G01*
X20128402Y5308899D01*
X20135515Y5285450D01*
X20147066Y5263839D01*
X20162611Y5244897D01*
X20181553Y5229352D01*
X20203164Y5217801D01*
X20226613Y5210688D01*
X20250999Y5208286D01*
X20275385Y5210688D01*
X20298834Y5217801D01*
X20320445Y5229352D01*
X20339387Y5244897D01*
X20354932Y5263839D01*
X20366483Y5285450D01*
X20375396Y5321032D01*
X20378686Y5354434D01*
X20390774Y5394284D01*
X20410399Y5430999D01*
X20436814Y5463186D01*
X20469001Y5489601D01*
X20505716Y5509226D01*
X20545566Y5521314D01*
X20593141Y5526000D01*
X21756859Y5526000D01*
X21804434Y5521314D01*
X21844284Y5509226D01*
X21880999Y5489601D01*
X21913186Y5463186D01*
X21939601Y5430999D01*
X21959226Y5394284D01*
X21971314Y5354434D01*
X21976000Y5306859D01*
X21976000Y4643141D01*
X21971314Y4595566D01*
X21959226Y4555716D01*
X21939601Y4519001D01*
X21913186Y4486814D01*
X21880999Y4460399D01*
X21844284Y4440774D01*
X21804434Y4428686D01*
X21756859Y4424000D01*
X20593141Y4424000D01*
X20545566Y4428686D01*
X20505716Y4440774D01*
X20469001Y4460399D01*
X20436814Y4486814D01*
X20410399Y4519001D01*
X20390774Y4555716D01*
X20378686Y4595566D01*
X20375396Y4628968D01*
X20370615Y4653001D01*
X20361238Y4675640D01*
X20347624Y4696014D01*
X20330297Y4713341D01*
X20309922Y4726955D01*
X20287283Y4736332D01*
X20263250Y4741112D01*
X20238746Y4741112D01*
X20214713Y4736331D01*
X20192074Y4726954D01*
X20171700Y4713340D01*
X20154373Y4696013D01*
X20140759Y4675638D01*
X20131382Y4652999D01*
X20126000Y4616715D01*
X20126000Y4424000D01*
X18524000Y4424000D01*
X18524000Y5526000D01*
X20126000Y5526000D01*
X20126000Y5333285D01*
X20126000Y5333285D01*
G37*
G36*
X-20374000Y5333285D02*
G01*
X-20371598Y5308899D01*
X-20364485Y5285450D01*
X-20352934Y5263839D01*
X-20337389Y5244897D01*
X-20318447Y5229352D01*
X-20296836Y5217801D01*
X-20273387Y5210688D01*
X-20249001Y5208286D01*
X-20224615Y5210688D01*
X-20201166Y5217801D01*
X-20179555Y5229352D01*
X-20160613Y5244897D01*
X-20145068Y5263839D01*
X-20133517Y5285450D01*
X-20124604Y5321032D01*
X-20121314Y5354434D01*
X-20109226Y5394284D01*
X-20089601Y5430999D01*
X-20063186Y5463186D01*
X-20030999Y5489601D01*
X-19994284Y5509226D01*
X-19954434Y5521314D01*
X-19906859Y5526000D01*
X-18743141Y5526000D01*
X-18695566Y5521314D01*
X-18655716Y5509226D01*
X-18619001Y5489601D01*
X-18586814Y5463186D01*
X-18560399Y5430999D01*
X-18540774Y5394284D01*
X-18528686Y5354434D01*
X-18524000Y5306859D01*
X-18524000Y4643141D01*
X-18528686Y4595566D01*
X-18540774Y4555716D01*
X-18560399Y4519001D01*
X-18586814Y4486814D01*
X-18619001Y4460399D01*
X-18655716Y4440774D01*
X-18695566Y4428686D01*
X-18743141Y4424000D01*
X-19906859Y4424000D01*
X-19954434Y4428686D01*
X-19994284Y4440774D01*
X-20030999Y4460399D01*
X-20063186Y4486814D01*
X-20089601Y4519001D01*
X-20109226Y4555716D01*
X-20121314Y4595566D01*
X-20124604Y4628968D01*
X-20129385Y4653001D01*
X-20138762Y4675640D01*
X-20152376Y4696014D01*
X-20169703Y4713341D01*
X-20190078Y4726955D01*
X-20212717Y4736332D01*
X-20236750Y4741112D01*
X-20261254Y4741112D01*
X-20285287Y4736331D01*
X-20307926Y4726954D01*
X-20328300Y4713340D01*
X-20345627Y4696013D01*
X-20359241Y4675638D01*
X-20368618Y4652999D01*
X-20374000Y4616715D01*
X-20374000Y4424000D01*
X-21976000Y4424000D01*
X-21976000Y5526000D01*
X-20374000Y5526000D01*
X-20374000Y5333285D01*
X-20374000Y5333285D01*
G37*
G36*
X-6874000Y5333285D02*
G01*
X-6871598Y5308899D01*
X-6864485Y5285450D01*
X-6852934Y5263839D01*
X-6837389Y5244897D01*
X-6818447Y5229352D01*
X-6796836Y5217801D01*
X-6773387Y5210688D01*
X-6749001Y5208286D01*
X-6724615Y5210688D01*
X-6701166Y5217801D01*
X-6679555Y5229352D01*
X-6660613Y5244897D01*
X-6645068Y5263839D01*
X-6633517Y5285450D01*
X-6624604Y5321032D01*
X-6621314Y5354434D01*
X-6609226Y5394284D01*
X-6589601Y5430999D01*
X-6563186Y5463186D01*
X-6530999Y5489601D01*
X-6494284Y5509226D01*
X-6454434Y5521314D01*
X-6406859Y5526000D01*
X-5243141Y5526000D01*
X-5195566Y5521314D01*
X-5155716Y5509226D01*
X-5119001Y5489601D01*
X-5086814Y5463186D01*
X-5060399Y5430999D01*
X-5040774Y5394284D01*
X-5028686Y5354434D01*
X-5024000Y5306859D01*
X-5024000Y4643141D01*
X-5028686Y4595566D01*
X-5040774Y4555716D01*
X-5060399Y4519001D01*
X-5086814Y4486814D01*
X-5119001Y4460399D01*
X-5155716Y4440774D01*
X-5195566Y4428686D01*
X-5243141Y4424000D01*
X-6406859Y4424000D01*
X-6454434Y4428686D01*
X-6494284Y4440774D01*
X-6530999Y4460399D01*
X-6563186Y4486814D01*
X-6589601Y4519001D01*
X-6609226Y4555716D01*
X-6621314Y4595566D01*
X-6624604Y4628968D01*
X-6629385Y4653001D01*
X-6638762Y4675640D01*
X-6652376Y4696014D01*
X-6669703Y4713341D01*
X-6690078Y4726955D01*
X-6712717Y4736332D01*
X-6736750Y4741112D01*
X-6761254Y4741112D01*
X-6785287Y4736331D01*
X-6807926Y4726954D01*
X-6828300Y4713340D01*
X-6845627Y4696013D01*
X-6859241Y4675638D01*
X-6868618Y4652999D01*
X-6874000Y4616715D01*
X-6874000Y4424000D01*
X-8476000Y4424000D01*
X-8476000Y5526000D01*
X-6874000Y5526000D01*
X-6874000Y5333285D01*
X-6874000Y5333285D01*
G37*
G36*
X26876000Y4424000D02*
G01*
X25274000Y4424000D01*
X25274000Y5526000D01*
X26876000Y5526000D01*
X26876000Y4424000D01*
X26876000Y4424000D01*
G37*
G36*
X28264591Y5431915D02*
G01*
X28298569Y5421607D01*
X28329890Y5404866D01*
X28357339Y5382339D01*
X28379866Y5354890D01*
X28396607Y5323569D01*
X28406915Y5289591D01*
X28411000Y5248110D01*
X28411000Y4646890D01*
X28406915Y4605409D01*
X28396607Y4571431D01*
X28379866Y4540110D01*
X28357339Y4512661D01*
X28329890Y4490134D01*
X28298569Y4473393D01*
X28264591Y4463085D01*
X28223110Y4459000D01*
X27546890Y4459000D01*
X27505409Y4463085D01*
X27471431Y4473393D01*
X27440110Y4490134D01*
X27412661Y4512661D01*
X27390134Y4540110D01*
X27373393Y4571431D01*
X27363085Y4605409D01*
X27359000Y4646890D01*
X27359000Y5248110D01*
X27363085Y5289591D01*
X27373393Y5323569D01*
X27390134Y5354890D01*
X27412661Y5382339D01*
X27440110Y5404866D01*
X27471431Y5421607D01*
X27505409Y5431915D01*
X27546890Y5436000D01*
X28223110Y5436000D01*
X28264591Y5431915D01*
X28264591Y5431915D01*
G37*
G36*
X35673512Y7246073D02*
G01*
X35822812Y7216376D01*
X35986784Y7148456D01*
X36134354Y7049853D01*
X36259853Y6924354D01*
X36358456Y6776784D01*
X36426376Y6612812D01*
X36461000Y6438741D01*
X36461000Y6261259D01*
X36426376Y6087188D01*
X36358456Y5923216D01*
X36259853Y5775646D01*
X36134354Y5650147D01*
X35986784Y5551544D01*
X35822812Y5483624D01*
X35673512Y5453927D01*
X35648742Y5449000D01*
X35471258Y5449000D01*
X35446488Y5453927D01*
X35297188Y5483624D01*
X35133216Y5551544D01*
X34985646Y5650147D01*
X34860147Y5775646D01*
X34761544Y5923216D01*
X34693624Y6087188D01*
X34659000Y6261259D01*
X34659000Y6438741D01*
X34693624Y6612812D01*
X34761544Y6776784D01*
X34860147Y6924354D01*
X34985646Y7049853D01*
X35133216Y7148456D01*
X35297188Y7216376D01*
X35446488Y7246073D01*
X35471258Y7251000D01*
X35648742Y7251000D01*
X35673512Y7246073D01*
X35673512Y7246073D01*
G37*
G36*
X-35446488Y7246073D02*
G01*
X-35297188Y7216376D01*
X-35133216Y7148456D01*
X-34985646Y7049853D01*
X-34860147Y6924354D01*
X-34761544Y6776784D01*
X-34693624Y6612812D01*
X-34659000Y6438741D01*
X-34659000Y6261259D01*
X-34693624Y6087188D01*
X-34761544Y5923216D01*
X-34860147Y5775646D01*
X-34985646Y5650147D01*
X-35133216Y5551544D01*
X-35297188Y5483624D01*
X-35446488Y5453927D01*
X-35471258Y5449000D01*
X-35648742Y5449000D01*
X-35673512Y5453927D01*
X-35822812Y5483624D01*
X-35986784Y5551544D01*
X-36134354Y5650147D01*
X-36259853Y5775646D01*
X-36358456Y5923216D01*
X-36426376Y6087188D01*
X-36461000Y6261259D01*
X-36461000Y6438741D01*
X-36426376Y6612812D01*
X-36358456Y6776784D01*
X-36259853Y6924354D01*
X-36134354Y7049853D01*
X-35986784Y7148456D01*
X-35822812Y7216376D01*
X-35673512Y7246073D01*
X-35648742Y7251000D01*
X-35471258Y7251000D01*
X-35446488Y7246073D01*
X-35446488Y7246073D01*
G37*
G36*
X-11774000Y7974000D02*
G01*
X-15226000Y7974000D01*
X-15226000Y9076000D01*
X-11774000Y9076000D01*
X-11774000Y7974000D01*
X-11774000Y7974000D01*
G37*
G36*
X8476000Y7974000D02*
G01*
X5024000Y7974000D01*
X5024000Y9076000D01*
X8476000Y9076000D01*
X8476000Y7974000D01*
X8476000Y7974000D01*
G37*
G36*
X-25274000Y7974000D02*
G01*
X-26876000Y7974000D01*
X-26876000Y9076000D01*
X-25274000Y9076000D01*
X-25274000Y7974000D01*
X-25274000Y7974000D01*
G37*
G36*
X-5024000Y7974000D02*
G01*
X-8476000Y7974000D01*
X-8476000Y9076000D01*
X-5024000Y9076000D01*
X-5024000Y7974000D01*
X-5024000Y7974000D01*
G37*
G36*
X-18524000Y7974000D02*
G01*
X-21976000Y7974000D01*
X-21976000Y9076000D01*
X-18524000Y9076000D01*
X-18524000Y7974000D01*
X-18524000Y7974000D01*
G37*
G36*
X21976000Y7974000D02*
G01*
X18524000Y7974000D01*
X18524000Y9076000D01*
X21976000Y9076000D01*
X21976000Y7974000D01*
X21976000Y7974000D01*
G37*
G36*
X1726000Y7974000D02*
G01*
X-1726000Y7974000D01*
X-1726000Y9076000D01*
X1726000Y9076000D01*
X1726000Y7974000D01*
X1726000Y7974000D01*
G37*
G36*
X15226000Y7974000D02*
G01*
X11774000Y7974000D01*
X11774000Y9076000D01*
X15226000Y9076000D01*
X15226000Y7974000D01*
X15226000Y7974000D01*
G37*
G36*
X26876000Y7974000D02*
G01*
X25274000Y7974000D01*
X25274000Y9076000D01*
X26876000Y9076000D01*
X26876000Y7974000D01*
X26876000Y7974000D01*
G37*
G36*
X-35446488Y9786073D02*
G01*
X-35297188Y9756376D01*
X-35133216Y9688456D01*
X-34985646Y9589853D01*
X-34860147Y9464354D01*
X-34761544Y9316784D01*
X-34693624Y9152812D01*
X-34659000Y8978741D01*
X-34659000Y8801259D01*
X-34693624Y8627188D01*
X-34761544Y8463216D01*
X-34860147Y8315646D01*
X-34985646Y8190147D01*
X-35133216Y8091544D01*
X-35297188Y8023624D01*
X-35446488Y7993927D01*
X-35471258Y7989000D01*
X-35648742Y7989000D01*
X-35673512Y7993927D01*
X-35822812Y8023624D01*
X-35986784Y8091544D01*
X-36134354Y8190147D01*
X-36259853Y8315646D01*
X-36358456Y8463216D01*
X-36426376Y8627188D01*
X-36461000Y8801259D01*
X-36461000Y8978741D01*
X-36426376Y9152812D01*
X-36358456Y9316784D01*
X-36259853Y9464354D01*
X-36134354Y9589853D01*
X-35986784Y9688456D01*
X-35822812Y9756376D01*
X-35673512Y9786073D01*
X-35648742Y9791000D01*
X-35471258Y9791000D01*
X-35446488Y9786073D01*
X-35446488Y9786073D01*
G37*
G36*
X35673512Y9786073D02*
G01*
X35822812Y9756376D01*
X35986784Y9688456D01*
X36134354Y9589853D01*
X36259853Y9464354D01*
X36358456Y9316784D01*
X36426376Y9152812D01*
X36461000Y8978741D01*
X36461000Y8801259D01*
X36426376Y8627188D01*
X36358456Y8463216D01*
X36259853Y8315646D01*
X36134354Y8190147D01*
X35986784Y8091544D01*
X35822812Y8023624D01*
X35673512Y7993927D01*
X35648742Y7989000D01*
X35471258Y7989000D01*
X35446488Y7993927D01*
X35297188Y8023624D01*
X35133216Y8091544D01*
X34985646Y8190147D01*
X34860147Y8315646D01*
X34761544Y8463216D01*
X34693624Y8627188D01*
X34659000Y8801259D01*
X34659000Y8978741D01*
X34693624Y9152812D01*
X34761544Y9316784D01*
X34860147Y9464354D01*
X34985646Y9589853D01*
X35133216Y9688456D01*
X35297188Y9756376D01*
X35446488Y9786073D01*
X35471258Y9791000D01*
X35648742Y9791000D01*
X35673512Y9786073D01*
X35673512Y9786073D01*
G37*
G36*
X21976000Y9574000D02*
G01*
X18524000Y9574000D01*
X18524000Y10676000D01*
X21976000Y10676000D01*
X21976000Y9574000D01*
X21976000Y9574000D01*
G37*
G36*
X15226000Y9574000D02*
G01*
X11774000Y9574000D01*
X11774000Y10676000D01*
X15226000Y10676000D01*
X15226000Y9574000D01*
X15226000Y9574000D01*
G37*
G36*
X8476000Y9574000D02*
G01*
X5024000Y9574000D01*
X5024000Y10676000D01*
X8476000Y10676000D01*
X8476000Y9574000D01*
X8476000Y9574000D01*
G37*
G36*
X1726000Y9574000D02*
G01*
X-1726000Y9574000D01*
X-1726000Y10676000D01*
X1726000Y10676000D01*
X1726000Y9574000D01*
X1726000Y9574000D01*
G37*
G36*
X-5024000Y9574000D02*
G01*
X-8476000Y9574000D01*
X-8476000Y10676000D01*
X-5024000Y10676000D01*
X-5024000Y9574000D01*
X-5024000Y9574000D01*
G37*
G36*
X-11774000Y9574000D02*
G01*
X-15226000Y9574000D01*
X-15226000Y10676000D01*
X-11774000Y10676000D01*
X-11774000Y9574000D01*
X-11774000Y9574000D01*
G37*
G36*
X-18524000Y9574000D02*
G01*
X-21976000Y9574000D01*
X-21976000Y10676000D01*
X-18524000Y10676000D01*
X-18524000Y9574000D01*
X-18524000Y9574000D01*
G37*
G36*
X-25274000Y9574000D02*
G01*
X-26876000Y9574000D01*
X-26876000Y10676000D01*
X-25274000Y10676000D01*
X-25274000Y9574000D01*
X-25274000Y9574000D01*
G37*
G36*
X26876000Y9574000D02*
G01*
X25274000Y9574000D01*
X25274000Y10676000D01*
X26876000Y10676000D01*
X26876000Y9574000D01*
X26876000Y9574000D01*
G37*
G36*
X28269591Y10621915D02*
G01*
X28303569Y10611607D01*
X28334890Y10594866D01*
X28362339Y10572339D01*
X28384866Y10544890D01*
X28401607Y10513569D01*
X28411915Y10479591D01*
X28416000Y10438110D01*
X28416000Y9836890D01*
X28411915Y9795409D01*
X28401607Y9761431D01*
X28384866Y9730110D01*
X28362339Y9702661D01*
X28334890Y9680134D01*
X28303569Y9663393D01*
X28269591Y9653085D01*
X28228110Y9649000D01*
X27551890Y9649000D01*
X27510409Y9653085D01*
X27476431Y9663393D01*
X27445110Y9680134D01*
X27417661Y9702661D01*
X27395134Y9730110D01*
X27378393Y9761431D01*
X27368085Y9795409D01*
X27364000Y9836890D01*
X27364000Y10438110D01*
X27368085Y10479591D01*
X27378393Y10513569D01*
X27395134Y10544890D01*
X27417661Y10572339D01*
X27445110Y10594866D01*
X27476431Y10611607D01*
X27510409Y10621915D01*
X27551890Y10626000D01*
X28228110Y10626000D01*
X28269591Y10621915D01*
X28269591Y10621915D01*
G37*
G36*
X-35446488Y12326073D02*
G01*
X-35297188Y12296376D01*
X-35133216Y12228456D01*
X-34985646Y12129853D01*
X-34860147Y12004354D01*
X-34761544Y11856784D01*
X-34693624Y11692812D01*
X-34659000Y11518741D01*
X-34659000Y11341259D01*
X-34693624Y11167188D01*
X-34761544Y11003216D01*
X-34860147Y10855646D01*
X-34985646Y10730147D01*
X-35133216Y10631544D01*
X-35297188Y10563624D01*
X-35446488Y10533927D01*
X-35471258Y10529000D01*
X-35648742Y10529000D01*
X-35673512Y10533927D01*
X-35822812Y10563624D01*
X-35986784Y10631544D01*
X-36134354Y10730147D01*
X-36259853Y10855646D01*
X-36358456Y11003216D01*
X-36426376Y11167188D01*
X-36461000Y11341259D01*
X-36461000Y11518741D01*
X-36426376Y11692812D01*
X-36358456Y11856784D01*
X-36259853Y12004354D01*
X-36134354Y12129853D01*
X-35986784Y12228456D01*
X-35822812Y12296376D01*
X-35673512Y12326073D01*
X-35648742Y12331000D01*
X-35471258Y12331000D01*
X-35446488Y12326073D01*
X-35446488Y12326073D01*
G37*
G36*
X35673512Y12326073D02*
G01*
X35822812Y12296376D01*
X35986784Y12228456D01*
X36134354Y12129853D01*
X36259853Y12004354D01*
X36358456Y11856784D01*
X36426376Y11692812D01*
X36461000Y11518741D01*
X36461000Y11341259D01*
X36426376Y11167188D01*
X36358456Y11003216D01*
X36259853Y10855646D01*
X36134354Y10730147D01*
X35986784Y10631544D01*
X35822812Y10563624D01*
X35673512Y10533927D01*
X35648742Y10529000D01*
X35471258Y10529000D01*
X35446488Y10533927D01*
X35297188Y10563624D01*
X35133216Y10631544D01*
X34985646Y10730147D01*
X34860147Y10855646D01*
X34761544Y11003216D01*
X34693624Y11167188D01*
X34659000Y11341259D01*
X34659000Y11518741D01*
X34693624Y11692812D01*
X34761544Y11856784D01*
X34860147Y12004354D01*
X34985646Y12129853D01*
X35133216Y12228456D01*
X35297188Y12296376D01*
X35446488Y12326073D01*
X35471258Y12331000D01*
X35648742Y12331000D01*
X35673512Y12326073D01*
X35673512Y12326073D01*
G37*
G36*
X20126000Y12083285D02*
G01*
X20128402Y12058899D01*
X20135515Y12035450D01*
X20147066Y12013839D01*
X20162611Y11994897D01*
X20181553Y11979352D01*
X20203164Y11967801D01*
X20226613Y11960688D01*
X20250999Y11958286D01*
X20275385Y11960688D01*
X20298834Y11967801D01*
X20320445Y11979352D01*
X20339387Y11994897D01*
X20354932Y12013839D01*
X20366483Y12035450D01*
X20375396Y12071032D01*
X20378686Y12104434D01*
X20390774Y12144284D01*
X20410399Y12180999D01*
X20436814Y12213186D01*
X20469001Y12239601D01*
X20505716Y12259226D01*
X20545566Y12271314D01*
X20593141Y12276000D01*
X21756859Y12276000D01*
X21804434Y12271314D01*
X21844284Y12259226D01*
X21880999Y12239601D01*
X21913186Y12213186D01*
X21939601Y12180999D01*
X21959226Y12144284D01*
X21971314Y12104434D01*
X21976000Y12056859D01*
X21976000Y11393141D01*
X21971314Y11345566D01*
X21959226Y11305716D01*
X21939601Y11269001D01*
X21913186Y11236814D01*
X21880999Y11210399D01*
X21844284Y11190774D01*
X21804434Y11178686D01*
X21756859Y11174000D01*
X20593141Y11174000D01*
X20545566Y11178686D01*
X20505716Y11190774D01*
X20469001Y11210399D01*
X20436814Y11236814D01*
X20410399Y11269001D01*
X20390774Y11305716D01*
X20378686Y11345566D01*
X20375396Y11378968D01*
X20370615Y11403001D01*
X20361238Y11425640D01*
X20347624Y11446014D01*
X20330297Y11463341D01*
X20309922Y11476955D01*
X20287283Y11486332D01*
X20263250Y11491112D01*
X20238746Y11491112D01*
X20214713Y11486331D01*
X20192074Y11476954D01*
X20171700Y11463340D01*
X20154373Y11446013D01*
X20140759Y11425638D01*
X20131382Y11402999D01*
X20126000Y11366715D01*
X20126000Y11174000D01*
X18524000Y11174000D01*
X18524000Y12276000D01*
X20126000Y12276000D01*
X20126000Y12083285D01*
X20126000Y12083285D01*
G37*
G36*
X13376000Y12083285D02*
G01*
X13378402Y12058899D01*
X13385515Y12035450D01*
X13397066Y12013839D01*
X13412611Y11994897D01*
X13431553Y11979352D01*
X13453164Y11967801D01*
X13476613Y11960688D01*
X13500999Y11958286D01*
X13525385Y11960688D01*
X13548834Y11967801D01*
X13570445Y11979352D01*
X13589387Y11994897D01*
X13604932Y12013839D01*
X13616483Y12035450D01*
X13625396Y12071032D01*
X13628686Y12104434D01*
X13640774Y12144284D01*
X13660399Y12180999D01*
X13686814Y12213186D01*
X13719001Y12239601D01*
X13755716Y12259226D01*
X13795566Y12271314D01*
X13843141Y12276000D01*
X15006859Y12276000D01*
X15054434Y12271314D01*
X15094284Y12259226D01*
X15130999Y12239601D01*
X15163186Y12213186D01*
X15189601Y12180999D01*
X15209226Y12144284D01*
X15221314Y12104434D01*
X15226000Y12056859D01*
X15226000Y11393141D01*
X15221314Y11345566D01*
X15209226Y11305716D01*
X15189601Y11269001D01*
X15163186Y11236814D01*
X15130999Y11210399D01*
X15094284Y11190774D01*
X15054434Y11178686D01*
X15006859Y11174000D01*
X13843141Y11174000D01*
X13795566Y11178686D01*
X13755716Y11190774D01*
X13719001Y11210399D01*
X13686814Y11236814D01*
X13660399Y11269001D01*
X13640774Y11305716D01*
X13628686Y11345566D01*
X13625396Y11378968D01*
X13620615Y11403001D01*
X13611238Y11425640D01*
X13597624Y11446014D01*
X13580297Y11463341D01*
X13559922Y11476955D01*
X13537283Y11486332D01*
X13513250Y11491112D01*
X13488746Y11491112D01*
X13464713Y11486331D01*
X13442074Y11476954D01*
X13421700Y11463340D01*
X13404373Y11446013D01*
X13390759Y11425638D01*
X13381382Y11402999D01*
X13376000Y11366715D01*
X13376000Y11174000D01*
X11774000Y11174000D01*
X11774000Y12276000D01*
X13376000Y12276000D01*
X13376000Y12083285D01*
X13376000Y12083285D01*
G37*
G36*
X6626000Y12083285D02*
G01*
X6628402Y12058899D01*
X6635515Y12035450D01*
X6647066Y12013839D01*
X6662611Y11994897D01*
X6681553Y11979352D01*
X6703164Y11967801D01*
X6726613Y11960688D01*
X6750999Y11958286D01*
X6775385Y11960688D01*
X6798834Y11967801D01*
X6820445Y11979352D01*
X6839387Y11994897D01*
X6854932Y12013839D01*
X6866483Y12035450D01*
X6875396Y12071032D01*
X6878686Y12104434D01*
X6890774Y12144284D01*
X6910399Y12180999D01*
X6936814Y12213186D01*
X6969001Y12239601D01*
X7005716Y12259226D01*
X7045566Y12271314D01*
X7093141Y12276000D01*
X8256859Y12276000D01*
X8304434Y12271314D01*
X8344284Y12259226D01*
X8380999Y12239601D01*
X8413186Y12213186D01*
X8439601Y12180999D01*
X8459226Y12144284D01*
X8471314Y12104434D01*
X8476000Y12056859D01*
X8476000Y11393141D01*
X8471314Y11345566D01*
X8459226Y11305716D01*
X8439601Y11269001D01*
X8413186Y11236814D01*
X8380999Y11210399D01*
X8344284Y11190774D01*
X8304434Y11178686D01*
X8256859Y11174000D01*
X7093141Y11174000D01*
X7045566Y11178686D01*
X7005716Y11190774D01*
X6969001Y11210399D01*
X6936814Y11236814D01*
X6910399Y11269001D01*
X6890774Y11305716D01*
X6878686Y11345566D01*
X6875396Y11378968D01*
X6870615Y11403001D01*
X6861238Y11425640D01*
X6847624Y11446014D01*
X6830297Y11463341D01*
X6809922Y11476955D01*
X6787283Y11486332D01*
X6763250Y11491112D01*
X6738746Y11491112D01*
X6714713Y11486331D01*
X6692074Y11476954D01*
X6671700Y11463340D01*
X6654373Y11446013D01*
X6640759Y11425638D01*
X6631382Y11402999D01*
X6626000Y11366715D01*
X6626000Y11174000D01*
X5024000Y11174000D01*
X5024000Y12276000D01*
X6626000Y12276000D01*
X6626000Y12083285D01*
X6626000Y12083285D01*
G37*
G36*
X-124000Y12083285D02*
G01*
X-121598Y12058899D01*
X-114485Y12035450D01*
X-102934Y12013839D01*
X-87389Y11994897D01*
X-68447Y11979352D01*
X-46836Y11967801D01*
X-23387Y11960688D01*
X999Y11958286D01*
X25385Y11960688D01*
X48834Y11967801D01*
X70445Y11979352D01*
X89387Y11994897D01*
X104932Y12013839D01*
X116483Y12035450D01*
X125396Y12071032D01*
X128686Y12104434D01*
X140774Y12144284D01*
X160399Y12180999D01*
X186814Y12213186D01*
X219001Y12239601D01*
X255716Y12259226D01*
X295566Y12271314D01*
X343141Y12276000D01*
X1506859Y12276000D01*
X1554434Y12271314D01*
X1594284Y12259226D01*
X1630999Y12239601D01*
X1663186Y12213186D01*
X1689601Y12180999D01*
X1709226Y12144284D01*
X1721314Y12104434D01*
X1726000Y12056859D01*
X1726000Y11393141D01*
X1721314Y11345566D01*
X1709226Y11305716D01*
X1689601Y11269001D01*
X1663186Y11236814D01*
X1630999Y11210399D01*
X1594284Y11190774D01*
X1554434Y11178686D01*
X1506859Y11174000D01*
X343141Y11174000D01*
X295566Y11178686D01*
X255716Y11190774D01*
X219001Y11210399D01*
X186814Y11236814D01*
X160399Y11269001D01*
X140774Y11305716D01*
X128686Y11345566D01*
X125396Y11378968D01*
X120615Y11403001D01*
X111238Y11425640D01*
X97624Y11446014D01*
X80297Y11463341D01*
X59922Y11476955D01*
X37283Y11486332D01*
X13250Y11491112D01*
X-11254Y11491112D01*
X-35287Y11486331D01*
X-57926Y11476954D01*
X-78300Y11463340D01*
X-95627Y11446013D01*
X-109241Y11425638D01*
X-118618Y11402999D01*
X-124000Y11366715D01*
X-124000Y11174000D01*
X-1726000Y11174000D01*
X-1726000Y12276000D01*
X-124000Y12276000D01*
X-124000Y12083285D01*
X-124000Y12083285D01*
G37*
G36*
X-6874000Y12083285D02*
G01*
X-6871598Y12058899D01*
X-6864485Y12035450D01*
X-6852934Y12013839D01*
X-6837389Y11994897D01*
X-6818447Y11979352D01*
X-6796836Y11967801D01*
X-6773387Y11960688D01*
X-6749001Y11958286D01*
X-6724615Y11960688D01*
X-6701166Y11967801D01*
X-6679555Y11979352D01*
X-6660613Y11994897D01*
X-6645068Y12013839D01*
X-6633517Y12035450D01*
X-6624604Y12071032D01*
X-6621314Y12104434D01*
X-6609226Y12144284D01*
X-6589601Y12180999D01*
X-6563186Y12213186D01*
X-6530999Y12239601D01*
X-6494284Y12259226D01*
X-6454434Y12271314D01*
X-6406859Y12276000D01*
X-5243141Y12276000D01*
X-5195566Y12271314D01*
X-5155716Y12259226D01*
X-5119001Y12239601D01*
X-5086814Y12213186D01*
X-5060399Y12180999D01*
X-5040774Y12144284D01*
X-5028686Y12104434D01*
X-5024000Y12056859D01*
X-5024000Y11393141D01*
X-5028686Y11345566D01*
X-5040774Y11305716D01*
X-5060399Y11269001D01*
X-5086814Y11236814D01*
X-5119001Y11210399D01*
X-5155716Y11190774D01*
X-5195566Y11178686D01*
X-5243141Y11174000D01*
X-6406859Y11174000D01*
X-6454434Y11178686D01*
X-6494284Y11190774D01*
X-6530999Y11210399D01*
X-6563186Y11236814D01*
X-6589601Y11269001D01*
X-6609226Y11305716D01*
X-6621314Y11345566D01*
X-6624604Y11378968D01*
X-6629385Y11403001D01*
X-6638762Y11425640D01*
X-6652376Y11446014D01*
X-6669703Y11463341D01*
X-6690078Y11476955D01*
X-6712717Y11486332D01*
X-6736750Y11491112D01*
X-6761254Y11491112D01*
X-6785287Y11486331D01*
X-6807926Y11476954D01*
X-6828300Y11463340D01*
X-6845627Y11446013D01*
X-6859241Y11425638D01*
X-6868618Y11402999D01*
X-6874000Y11366715D01*
X-6874000Y11174000D01*
X-8476000Y11174000D01*
X-8476000Y12276000D01*
X-6874000Y12276000D01*
X-6874000Y12083285D01*
X-6874000Y12083285D01*
G37*
G36*
X-13624000Y12083285D02*
G01*
X-13621598Y12058899D01*
X-13614485Y12035450D01*
X-13602934Y12013839D01*
X-13587389Y11994897D01*
X-13568447Y11979352D01*
X-13546836Y11967801D01*
X-13523387Y11960688D01*
X-13499001Y11958286D01*
X-13474615Y11960688D01*
X-13451166Y11967801D01*
X-13429555Y11979352D01*
X-13410613Y11994897D01*
X-13395068Y12013839D01*
X-13383517Y12035450D01*
X-13374604Y12071032D01*
X-13371314Y12104434D01*
X-13359226Y12144284D01*
X-13339601Y12180999D01*
X-13313186Y12213186D01*
X-13280999Y12239601D01*
X-13244284Y12259226D01*
X-13204434Y12271314D01*
X-13156859Y12276000D01*
X-11993141Y12276000D01*
X-11945566Y12271314D01*
X-11905716Y12259226D01*
X-11869001Y12239601D01*
X-11836814Y12213186D01*
X-11810399Y12180999D01*
X-11790774Y12144284D01*
X-11778686Y12104434D01*
X-11774000Y12056859D01*
X-11774000Y11393141D01*
X-11778686Y11345566D01*
X-11790774Y11305716D01*
X-11810399Y11269001D01*
X-11836814Y11236814D01*
X-11869001Y11210399D01*
X-11905716Y11190774D01*
X-11945566Y11178686D01*
X-11993141Y11174000D01*
X-13156859Y11174000D01*
X-13204434Y11178686D01*
X-13244284Y11190774D01*
X-13280999Y11210399D01*
X-13313186Y11236814D01*
X-13339601Y11269001D01*
X-13359226Y11305716D01*
X-13371314Y11345566D01*
X-13374604Y11378968D01*
X-13379385Y11403001D01*
X-13388762Y11425640D01*
X-13402376Y11446014D01*
X-13419703Y11463341D01*
X-13440078Y11476955D01*
X-13462717Y11486332D01*
X-13486750Y11491112D01*
X-13511254Y11491112D01*
X-13535287Y11486331D01*
X-13557926Y11476954D01*
X-13578300Y11463340D01*
X-13595627Y11446013D01*
X-13609241Y11425638D01*
X-13618618Y11402999D01*
X-13624000Y11366715D01*
X-13624000Y11174000D01*
X-15226000Y11174000D01*
X-15226000Y12276000D01*
X-13624000Y12276000D01*
X-13624000Y12083285D01*
X-13624000Y12083285D01*
G37*
G36*
X-20374000Y12083285D02*
G01*
X-20371598Y12058899D01*
X-20364485Y12035450D01*
X-20352934Y12013839D01*
X-20337389Y11994897D01*
X-20318447Y11979352D01*
X-20296836Y11967801D01*
X-20273387Y11960688D01*
X-20249001Y11958286D01*
X-20224615Y11960688D01*
X-20201166Y11967801D01*
X-20179555Y11979352D01*
X-20160613Y11994897D01*
X-20145068Y12013839D01*
X-20133517Y12035450D01*
X-20124604Y12071032D01*
X-20121314Y12104434D01*
X-20109226Y12144284D01*
X-20089601Y12180999D01*
X-20063186Y12213186D01*
X-20030999Y12239601D01*
X-19994284Y12259226D01*
X-19954434Y12271314D01*
X-19906859Y12276000D01*
X-18743141Y12276000D01*
X-18695566Y12271314D01*
X-18655716Y12259226D01*
X-18619001Y12239601D01*
X-18586814Y12213186D01*
X-18560399Y12180999D01*
X-18540774Y12144284D01*
X-18528686Y12104434D01*
X-18524000Y12056859D01*
X-18524000Y11393141D01*
X-18528686Y11345566D01*
X-18540774Y11305716D01*
X-18560399Y11269001D01*
X-18586814Y11236814D01*
X-18619001Y11210399D01*
X-18655716Y11190774D01*
X-18695566Y11178686D01*
X-18743141Y11174000D01*
X-19906859Y11174000D01*
X-19954434Y11178686D01*
X-19994284Y11190774D01*
X-20030999Y11210399D01*
X-20063186Y11236814D01*
X-20089601Y11269001D01*
X-20109226Y11305716D01*
X-20121314Y11345566D01*
X-20124604Y11378968D01*
X-20129385Y11403001D01*
X-20138762Y11425640D01*
X-20152376Y11446014D01*
X-20169703Y11463341D01*
X-20190078Y11476955D01*
X-20212717Y11486332D01*
X-20236750Y11491112D01*
X-20261254Y11491112D01*
X-20285287Y11486331D01*
X-20307926Y11476954D01*
X-20328300Y11463340D01*
X-20345627Y11446013D01*
X-20359241Y11425638D01*
X-20368618Y11402999D01*
X-20374000Y11366715D01*
X-20374000Y11174000D01*
X-21976000Y11174000D01*
X-21976000Y12276000D01*
X-20374000Y12276000D01*
X-20374000Y12083285D01*
X-20374000Y12083285D01*
G37*
G36*
X-25445566Y12271314D02*
G01*
X-25405716Y12259226D01*
X-25369001Y12239601D01*
X-25336814Y12213186D01*
X-25310399Y12180999D01*
X-25290774Y12144284D01*
X-25278686Y12104434D01*
X-25274000Y12056859D01*
X-25274000Y11393141D01*
X-25278686Y11345566D01*
X-25290774Y11305716D01*
X-25310399Y11269001D01*
X-25336814Y11236814D01*
X-25369001Y11210399D01*
X-25405716Y11190774D01*
X-25445566Y11178686D01*
X-25493141Y11174000D01*
X-26656859Y11174000D01*
X-26704434Y11178686D01*
X-26744284Y11190774D01*
X-26780999Y11210399D01*
X-26813186Y11236814D01*
X-26839601Y11269001D01*
X-26859226Y11305716D01*
X-26871314Y11345566D01*
X-26876000Y11393141D01*
X-26876000Y12056859D01*
X-26871314Y12104434D01*
X-26859226Y12144284D01*
X-26839601Y12180999D01*
X-26813186Y12213186D01*
X-26780999Y12239601D01*
X-26744284Y12259226D01*
X-26704434Y12271314D01*
X-26656859Y12276000D01*
X-25493141Y12276000D01*
X-25445566Y12271314D01*
X-25445566Y12271314D01*
G37*
G36*
X26876000Y11174000D02*
G01*
X25274000Y11174000D01*
X25274000Y12276000D01*
X26876000Y12276000D01*
X26876000Y11174000D01*
X26876000Y11174000D01*
G37*
G36*
X28269591Y12196915D02*
G01*
X28303569Y12186607D01*
X28334890Y12169866D01*
X28362339Y12147339D01*
X28384866Y12119890D01*
X28401607Y12088569D01*
X28411915Y12054591D01*
X28416000Y12013110D01*
X28416000Y11411890D01*
X28411915Y11370409D01*
X28401607Y11336431D01*
X28384866Y11305110D01*
X28362339Y11277661D01*
X28334890Y11255134D01*
X28303569Y11238393D01*
X28269591Y11228085D01*
X28228110Y11224000D01*
X27551890Y11224000D01*
X27510409Y11228085D01*
X27476431Y11238393D01*
X27445110Y11255134D01*
X27417661Y11277661D01*
X27395134Y11305110D01*
X27378393Y11336431D01*
X27368085Y11370409D01*
X27364000Y11411890D01*
X27364000Y12013110D01*
X27368085Y12054591D01*
X27378393Y12088569D01*
X27395134Y12119890D01*
X27417661Y12147339D01*
X27445110Y12169866D01*
X27476431Y12186607D01*
X27510409Y12196915D01*
X27551890Y12201000D01*
X28228110Y12201000D01*
X28269591Y12196915D01*
X28269591Y12196915D01*
G37*
G36*
X-35446488Y14866073D02*
G01*
X-35297188Y14836376D01*
X-35133216Y14768456D01*
X-34985646Y14669853D01*
X-34860147Y14544354D01*
X-34761544Y14396784D01*
X-34693624Y14232812D01*
X-34659000Y14058741D01*
X-34659000Y13881259D01*
X-34693624Y13707188D01*
X-34761544Y13543216D01*
X-34860147Y13395646D01*
X-34985646Y13270147D01*
X-35133216Y13171544D01*
X-35297188Y13103624D01*
X-35446488Y13073927D01*
X-35471258Y13069000D01*
X-35648742Y13069000D01*
X-35673512Y13073927D01*
X-35822812Y13103624D01*
X-35986784Y13171544D01*
X-36134354Y13270147D01*
X-36259853Y13395646D01*
X-36358456Y13543216D01*
X-36426376Y13707188D01*
X-36461000Y13881259D01*
X-36461000Y14058741D01*
X-36426376Y14232812D01*
X-36358456Y14396784D01*
X-36259853Y14544354D01*
X-36134354Y14669853D01*
X-35986784Y14768456D01*
X-35822812Y14836376D01*
X-35673512Y14866073D01*
X-35648742Y14871000D01*
X-35471258Y14871000D01*
X-35446488Y14866073D01*
X-35446488Y14866073D01*
G37*
G36*
X35673512Y14866073D02*
G01*
X35822812Y14836376D01*
X35986784Y14768456D01*
X36134354Y14669853D01*
X36259853Y14544354D01*
X36358456Y14396784D01*
X36426376Y14232812D01*
X36461000Y14058741D01*
X36461000Y13881259D01*
X36426376Y13707188D01*
X36358456Y13543216D01*
X36259853Y13395646D01*
X36134354Y13270147D01*
X35986784Y13171544D01*
X35822812Y13103624D01*
X35673512Y13073927D01*
X35648742Y13069000D01*
X35471258Y13069000D01*
X35446488Y13073927D01*
X35297188Y13103624D01*
X35133216Y13171544D01*
X34985646Y13270147D01*
X34860147Y13395646D01*
X34761544Y13543216D01*
X34693624Y13707188D01*
X34659000Y13881259D01*
X34659000Y14058741D01*
X34693624Y14232812D01*
X34761544Y14396784D01*
X34860147Y14544354D01*
X34985646Y14669853D01*
X35133216Y14768456D01*
X35297188Y14836376D01*
X35446488Y14866073D01*
X35471258Y14871000D01*
X35648742Y14871000D01*
X35673512Y14866073D01*
X35673512Y14866073D01*
G37*
G36*
X21976000Y14724000D02*
G01*
X18524000Y14724000D01*
X18524000Y15826000D01*
X21976000Y15826000D01*
X21976000Y14724000D01*
X21976000Y14724000D01*
G37*
G36*
X-18524000Y14724000D02*
G01*
X-21976000Y14724000D01*
X-21976000Y15826000D01*
X-18524000Y15826000D01*
X-18524000Y14724000D01*
X-18524000Y14724000D01*
G37*
G36*
X26876000Y14724000D02*
G01*
X25274000Y14724000D01*
X25274000Y15826000D01*
X26876000Y15826000D01*
X26876000Y14724000D01*
X26876000Y14724000D01*
G37*
G36*
X-11774000Y14724000D02*
G01*
X-15226000Y14724000D01*
X-15226000Y15826000D01*
X-11774000Y15826000D01*
X-11774000Y14724000D01*
X-11774000Y14724000D01*
G37*
G36*
X15226000Y14724000D02*
G01*
X11774000Y14724000D01*
X11774000Y15826000D01*
X15226000Y15826000D01*
X15226000Y14724000D01*
X15226000Y14724000D01*
G37*
G36*
X8476000Y14724000D02*
G01*
X5024000Y14724000D01*
X5024000Y15826000D01*
X8476000Y15826000D01*
X8476000Y14724000D01*
X8476000Y14724000D01*
G37*
G36*
X-5024000Y14724000D02*
G01*
X-8476000Y14724000D01*
X-8476000Y15826000D01*
X-5024000Y15826000D01*
X-5024000Y14724000D01*
X-5024000Y14724000D01*
G37*
G36*
X1726000Y14724000D02*
G01*
X-1726000Y14724000D01*
X-1726000Y15826000D01*
X1726000Y15826000D01*
X1726000Y14724000D01*
X1726000Y14724000D01*
G37*
G36*
X-25274000Y14724000D02*
G01*
X-26876000Y14724000D01*
X-26876000Y15826000D01*
X-25274000Y15826000D01*
X-25274000Y14724000D01*
X-25274000Y14724000D01*
G37*
G36*
X-35446488Y17406073D02*
G01*
X-35297188Y17376376D01*
X-35133216Y17308456D01*
X-34985646Y17209853D01*
X-34860147Y17084354D01*
X-34761544Y16936784D01*
X-34693624Y16772812D01*
X-34659000Y16598741D01*
X-34659000Y16421259D01*
X-34693624Y16247188D01*
X-34761544Y16083216D01*
X-34860147Y15935646D01*
X-34985646Y15810147D01*
X-35133216Y15711544D01*
X-35297188Y15643624D01*
X-35446488Y15613927D01*
X-35471258Y15609000D01*
X-35648742Y15609000D01*
X-35673512Y15613927D01*
X-35822812Y15643624D01*
X-35986784Y15711544D01*
X-36134354Y15810147D01*
X-36259853Y15935646D01*
X-36358456Y16083216D01*
X-36426376Y16247188D01*
X-36461000Y16421259D01*
X-36461000Y16598741D01*
X-36426376Y16772812D01*
X-36358456Y16936784D01*
X-36259853Y17084354D01*
X-36134354Y17209853D01*
X-35986784Y17308456D01*
X-35822812Y17376376D01*
X-35673512Y17406073D01*
X-35648742Y17411000D01*
X-35471258Y17411000D01*
X-35446488Y17406073D01*
X-35446488Y17406073D01*
G37*
G36*
X35673512Y17406073D02*
G01*
X35822812Y17376376D01*
X35986784Y17308456D01*
X36134354Y17209853D01*
X36259853Y17084354D01*
X36358456Y16936784D01*
X36426376Y16772812D01*
X36461000Y16598741D01*
X36461000Y16421259D01*
X36426376Y16247188D01*
X36358456Y16083216D01*
X36259853Y15935646D01*
X36134354Y15810147D01*
X35986784Y15711544D01*
X35822812Y15643624D01*
X35673512Y15613927D01*
X35648742Y15609000D01*
X35471258Y15609000D01*
X35446488Y15613927D01*
X35297188Y15643624D01*
X35133216Y15711544D01*
X34985646Y15810147D01*
X34860147Y15935646D01*
X34761544Y16083216D01*
X34693624Y16247188D01*
X34659000Y16421259D01*
X34659000Y16598741D01*
X34693624Y16772812D01*
X34761544Y16936784D01*
X34860147Y17084354D01*
X34985646Y17209853D01*
X35133216Y17308456D01*
X35297188Y17376376D01*
X35446488Y17406073D01*
X35471258Y17411000D01*
X35648742Y17411000D01*
X35673512Y17406073D01*
X35673512Y17406073D01*
G37*
G36*
X21976000Y16324000D02*
G01*
X18524000Y16324000D01*
X18524000Y17426000D01*
X21976000Y17426000D01*
X21976000Y16324000D01*
X21976000Y16324000D01*
G37*
G36*
X26876000Y16324000D02*
G01*
X25274000Y16324000D01*
X25274000Y17426000D01*
X26876000Y17426000D01*
X26876000Y16324000D01*
X26876000Y16324000D01*
G37*
G36*
X15226000Y16324000D02*
G01*
X11774000Y16324000D01*
X11774000Y17426000D01*
X15226000Y17426000D01*
X15226000Y16324000D01*
X15226000Y16324000D01*
G37*
G36*
X8476000Y16324000D02*
G01*
X5024000Y16324000D01*
X5024000Y17426000D01*
X8476000Y17426000D01*
X8476000Y16324000D01*
X8476000Y16324000D01*
G37*
G36*
X1726000Y16324000D02*
G01*
X-1726000Y16324000D01*
X-1726000Y17426000D01*
X1726000Y17426000D01*
X1726000Y16324000D01*
X1726000Y16324000D01*
G37*
G36*
X-5024000Y16324000D02*
G01*
X-8476000Y16324000D01*
X-8476000Y17426000D01*
X-5024000Y17426000D01*
X-5024000Y16324000D01*
X-5024000Y16324000D01*
G37*
G36*
X-11774000Y16324000D02*
G01*
X-15226000Y16324000D01*
X-15226000Y17426000D01*
X-11774000Y17426000D01*
X-11774000Y16324000D01*
X-11774000Y16324000D01*
G37*
G36*
X-18524000Y16324000D02*
G01*
X-21976000Y16324000D01*
X-21976000Y17426000D01*
X-18524000Y17426000D01*
X-18524000Y16324000D01*
X-18524000Y16324000D01*
G37*
G36*
X-25274000Y16324000D02*
G01*
X-26876000Y16324000D01*
X-26876000Y17426000D01*
X-25274000Y17426000D01*
X-25274000Y16324000D01*
X-25274000Y16324000D01*
G37*
G36*
X28269591Y17346915D02*
G01*
X28303569Y17336607D01*
X28334890Y17319866D01*
X28362339Y17297339D01*
X28384866Y17269890D01*
X28401607Y17238569D01*
X28411915Y17204591D01*
X28416000Y17163110D01*
X28416000Y16561890D01*
X28411915Y16520409D01*
X28401607Y16486431D01*
X28384866Y16455110D01*
X28362339Y16427661D01*
X28334890Y16405134D01*
X28303569Y16388393D01*
X28269591Y16378085D01*
X28228110Y16374000D01*
X27551890Y16374000D01*
X27510409Y16378085D01*
X27476431Y16388393D01*
X27445110Y16405134D01*
X27417661Y16427661D01*
X27395134Y16455110D01*
X27378393Y16486431D01*
X27368085Y16520409D01*
X27364000Y16561890D01*
X27364000Y17163110D01*
X27368085Y17204591D01*
X27378393Y17238569D01*
X27395134Y17269890D01*
X27417661Y17297339D01*
X27445110Y17319866D01*
X27476431Y17336607D01*
X27510409Y17346915D01*
X27551890Y17351000D01*
X28228110Y17351000D01*
X28269591Y17346915D01*
X28269591Y17346915D01*
G37*
G36*
X26876000Y17924000D02*
G01*
X25274000Y17924000D01*
X25274000Y19026000D01*
X26876000Y19026000D01*
X26876000Y17924000D01*
X26876000Y17924000D01*
G37*
G36*
X20126000Y18833285D02*
G01*
X20128402Y18808899D01*
X20135515Y18785450D01*
X20147066Y18763839D01*
X20162611Y18744897D01*
X20181553Y18729352D01*
X20203164Y18717801D01*
X20226613Y18710688D01*
X20250999Y18708286D01*
X20275385Y18710688D01*
X20298834Y18717801D01*
X20320445Y18729352D01*
X20339387Y18744897D01*
X20354932Y18763839D01*
X20366483Y18785450D01*
X20375396Y18821032D01*
X20378686Y18854434D01*
X20390774Y18894284D01*
X20410399Y18930999D01*
X20436814Y18963186D01*
X20469001Y18989601D01*
X20505716Y19009226D01*
X20545566Y19021314D01*
X20593141Y19026000D01*
X21756859Y19026000D01*
X21804434Y19021314D01*
X21844284Y19009226D01*
X21880999Y18989601D01*
X21913186Y18963186D01*
X21939601Y18930999D01*
X21959226Y18894284D01*
X21971314Y18854434D01*
X21976000Y18806859D01*
X21976000Y18143141D01*
X21971314Y18095566D01*
X21959226Y18055716D01*
X21939601Y18019001D01*
X21913186Y17986814D01*
X21880999Y17960399D01*
X21844284Y17940774D01*
X21804434Y17928686D01*
X21756859Y17924000D01*
X20593141Y17924000D01*
X20545566Y17928686D01*
X20505716Y17940774D01*
X20469001Y17960399D01*
X20436814Y17986814D01*
X20410399Y18019001D01*
X20390774Y18055716D01*
X20378686Y18095566D01*
X20375396Y18128968D01*
X20370615Y18153001D01*
X20361238Y18175640D01*
X20347624Y18196014D01*
X20330297Y18213341D01*
X20309922Y18226955D01*
X20287283Y18236332D01*
X20263250Y18241112D01*
X20238746Y18241112D01*
X20214713Y18236331D01*
X20192074Y18226954D01*
X20171700Y18213340D01*
X20154373Y18196013D01*
X20140759Y18175638D01*
X20131382Y18152999D01*
X20126000Y18116715D01*
X20126000Y17924000D01*
X18524000Y17924000D01*
X18524000Y19026000D01*
X20126000Y19026000D01*
X20126000Y18833285D01*
X20126000Y18833285D01*
G37*
G36*
X13376000Y18833285D02*
G01*
X13378402Y18808899D01*
X13385515Y18785450D01*
X13397066Y18763839D01*
X13412611Y18744897D01*
X13431553Y18729352D01*
X13453164Y18717801D01*
X13476613Y18710688D01*
X13500999Y18708286D01*
X13525385Y18710688D01*
X13548834Y18717801D01*
X13570445Y18729352D01*
X13589387Y18744897D01*
X13604932Y18763839D01*
X13616483Y18785450D01*
X13625396Y18821032D01*
X13628686Y18854434D01*
X13640774Y18894284D01*
X13660399Y18930999D01*
X13686814Y18963186D01*
X13719001Y18989601D01*
X13755716Y19009226D01*
X13795566Y19021314D01*
X13843141Y19026000D01*
X15006859Y19026000D01*
X15054434Y19021314D01*
X15094284Y19009226D01*
X15130999Y18989601D01*
X15163186Y18963186D01*
X15189601Y18930999D01*
X15209226Y18894284D01*
X15221314Y18854434D01*
X15226000Y18806859D01*
X15226000Y18143141D01*
X15221314Y18095566D01*
X15209226Y18055716D01*
X15189601Y18019001D01*
X15163186Y17986814D01*
X15130999Y17960399D01*
X15094284Y17940774D01*
X15054434Y17928686D01*
X15006859Y17924000D01*
X13843141Y17924000D01*
X13795566Y17928686D01*
X13755716Y17940774D01*
X13719001Y17960399D01*
X13686814Y17986814D01*
X13660399Y18019001D01*
X13640774Y18055716D01*
X13628686Y18095566D01*
X13625396Y18128968D01*
X13620615Y18153001D01*
X13611238Y18175640D01*
X13597624Y18196014D01*
X13580297Y18213341D01*
X13559922Y18226955D01*
X13537283Y18236332D01*
X13513250Y18241112D01*
X13488746Y18241112D01*
X13464713Y18236331D01*
X13442074Y18226954D01*
X13421700Y18213340D01*
X13404373Y18196013D01*
X13390759Y18175638D01*
X13381382Y18152999D01*
X13376000Y18116715D01*
X13376000Y17924000D01*
X11774000Y17924000D01*
X11774000Y19026000D01*
X13376000Y19026000D01*
X13376000Y18833285D01*
X13376000Y18833285D01*
G37*
G36*
X6626000Y18833285D02*
G01*
X6628402Y18808899D01*
X6635515Y18785450D01*
X6647066Y18763839D01*
X6662611Y18744897D01*
X6681553Y18729352D01*
X6703164Y18717801D01*
X6726613Y18710688D01*
X6750999Y18708286D01*
X6775385Y18710688D01*
X6798834Y18717801D01*
X6820445Y18729352D01*
X6839387Y18744897D01*
X6854932Y18763839D01*
X6866483Y18785450D01*
X6875396Y18821032D01*
X6878686Y18854434D01*
X6890774Y18894284D01*
X6910399Y18930999D01*
X6936814Y18963186D01*
X6969001Y18989601D01*
X7005716Y19009226D01*
X7045566Y19021314D01*
X7093141Y19026000D01*
X8256859Y19026000D01*
X8304434Y19021314D01*
X8344284Y19009226D01*
X8380999Y18989601D01*
X8413186Y18963186D01*
X8439601Y18930999D01*
X8459226Y18894284D01*
X8471314Y18854434D01*
X8476000Y18806859D01*
X8476000Y18143141D01*
X8471314Y18095566D01*
X8459226Y18055716D01*
X8439601Y18019001D01*
X8413186Y17986814D01*
X8380999Y17960399D01*
X8344284Y17940774D01*
X8304434Y17928686D01*
X8256859Y17924000D01*
X7093141Y17924000D01*
X7045566Y17928686D01*
X7005716Y17940774D01*
X6969001Y17960399D01*
X6936814Y17986814D01*
X6910399Y18019001D01*
X6890774Y18055716D01*
X6878686Y18095566D01*
X6875396Y18128968D01*
X6870615Y18153001D01*
X6861238Y18175640D01*
X6847624Y18196014D01*
X6830297Y18213341D01*
X6809922Y18226955D01*
X6787283Y18236332D01*
X6763250Y18241112D01*
X6738746Y18241112D01*
X6714713Y18236331D01*
X6692074Y18226954D01*
X6671700Y18213340D01*
X6654373Y18196013D01*
X6640759Y18175638D01*
X6631382Y18152999D01*
X6626000Y18116715D01*
X6626000Y17924000D01*
X5024000Y17924000D01*
X5024000Y19026000D01*
X6626000Y19026000D01*
X6626000Y18833285D01*
X6626000Y18833285D01*
G37*
G36*
X-124000Y18833285D02*
G01*
X-121598Y18808899D01*
X-114485Y18785450D01*
X-102934Y18763839D01*
X-87389Y18744897D01*
X-68447Y18729352D01*
X-46836Y18717801D01*
X-23387Y18710688D01*
X999Y18708286D01*
X25385Y18710688D01*
X48834Y18717801D01*
X70445Y18729352D01*
X89387Y18744897D01*
X104932Y18763839D01*
X116483Y18785450D01*
X125396Y18821032D01*
X128686Y18854434D01*
X140774Y18894284D01*
X160399Y18930999D01*
X186814Y18963186D01*
X219001Y18989601D01*
X255716Y19009226D01*
X295566Y19021314D01*
X343141Y19026000D01*
X1506859Y19026000D01*
X1554434Y19021314D01*
X1594284Y19009226D01*
X1630999Y18989601D01*
X1663186Y18963186D01*
X1689601Y18930999D01*
X1709226Y18894284D01*
X1721314Y18854434D01*
X1726000Y18806859D01*
X1726000Y18143141D01*
X1721314Y18095566D01*
X1709226Y18055716D01*
X1689601Y18019001D01*
X1663186Y17986814D01*
X1630999Y17960399D01*
X1594284Y17940774D01*
X1554434Y17928686D01*
X1506859Y17924000D01*
X343141Y17924000D01*
X295566Y17928686D01*
X255716Y17940774D01*
X219001Y17960399D01*
X186814Y17986814D01*
X160399Y18019001D01*
X140774Y18055716D01*
X128686Y18095566D01*
X125396Y18128968D01*
X120615Y18153001D01*
X111238Y18175640D01*
X97624Y18196014D01*
X80297Y18213341D01*
X59922Y18226955D01*
X37283Y18236332D01*
X13250Y18241112D01*
X-11254Y18241112D01*
X-35287Y18236331D01*
X-57926Y18226954D01*
X-78300Y18213340D01*
X-95627Y18196013D01*
X-109241Y18175638D01*
X-118618Y18152999D01*
X-124000Y18116715D01*
X-124000Y17924000D01*
X-1726000Y17924000D01*
X-1726000Y19026000D01*
X-124000Y19026000D01*
X-124000Y18833285D01*
X-124000Y18833285D01*
G37*
G36*
X-20374000Y18833285D02*
G01*
X-20371598Y18808899D01*
X-20364485Y18785450D01*
X-20352934Y18763839D01*
X-20337389Y18744897D01*
X-20318447Y18729352D01*
X-20296836Y18717801D01*
X-20273387Y18710688D01*
X-20249001Y18708286D01*
X-20224615Y18710688D01*
X-20201166Y18717801D01*
X-20179555Y18729352D01*
X-20160613Y18744897D01*
X-20145068Y18763839D01*
X-20133517Y18785450D01*
X-20124604Y18821032D01*
X-20121314Y18854434D01*
X-20109226Y18894284D01*
X-20089601Y18930999D01*
X-20063186Y18963186D01*
X-20030999Y18989601D01*
X-19994284Y19009226D01*
X-19954434Y19021314D01*
X-19906859Y19026000D01*
X-18743141Y19026000D01*
X-18695566Y19021314D01*
X-18655716Y19009226D01*
X-18619001Y18989601D01*
X-18586814Y18963186D01*
X-18560399Y18930999D01*
X-18540774Y18894284D01*
X-18528686Y18854434D01*
X-18524000Y18806859D01*
X-18524000Y18143141D01*
X-18528686Y18095566D01*
X-18540774Y18055716D01*
X-18560399Y18019001D01*
X-18586814Y17986814D01*
X-18619001Y17960399D01*
X-18655716Y17940774D01*
X-18695566Y17928686D01*
X-18743141Y17924000D01*
X-19906859Y17924000D01*
X-19954434Y17928686D01*
X-19994284Y17940774D01*
X-20030999Y17960399D01*
X-20063186Y17986814D01*
X-20089601Y18019001D01*
X-20109226Y18055716D01*
X-20121314Y18095566D01*
X-20124604Y18128968D01*
X-20129385Y18153001D01*
X-20138762Y18175640D01*
X-20152376Y18196014D01*
X-20169703Y18213341D01*
X-20190078Y18226955D01*
X-20212717Y18236332D01*
X-20236750Y18241112D01*
X-20261254Y18241112D01*
X-20285287Y18236331D01*
X-20307926Y18226954D01*
X-20328300Y18213340D01*
X-20345627Y18196013D01*
X-20359241Y18175638D01*
X-20368618Y18152999D01*
X-20374000Y18116715D01*
X-20374000Y17924000D01*
X-21976000Y17924000D01*
X-21976000Y19026000D01*
X-20374000Y19026000D01*
X-20374000Y18833285D01*
X-20374000Y18833285D01*
G37*
G36*
X-25445566Y19021314D02*
G01*
X-25405716Y19009226D01*
X-25369001Y18989601D01*
X-25336814Y18963186D01*
X-25310399Y18930999D01*
X-25290774Y18894284D01*
X-25278686Y18854434D01*
X-25274000Y18806859D01*
X-25274000Y18143141D01*
X-25278686Y18095566D01*
X-25290774Y18055716D01*
X-25310399Y18019001D01*
X-25336814Y17986814D01*
X-25369001Y17960399D01*
X-25405716Y17940774D01*
X-25445566Y17928686D01*
X-25493141Y17924000D01*
X-26656859Y17924000D01*
X-26704434Y17928686D01*
X-26744284Y17940774D01*
X-26780999Y17960399D01*
X-26813186Y17986814D01*
X-26839601Y18019001D01*
X-26859226Y18055716D01*
X-26871314Y18095566D01*
X-26876000Y18143141D01*
X-26876000Y18806859D01*
X-26871314Y18854434D01*
X-26859226Y18894284D01*
X-26839601Y18930999D01*
X-26813186Y18963186D01*
X-26780999Y18989601D01*
X-26744284Y19009226D01*
X-26704434Y19021314D01*
X-26656859Y19026000D01*
X-25493141Y19026000D01*
X-25445566Y19021314D01*
X-25445566Y19021314D01*
G37*
G36*
X-6874000Y18833285D02*
G01*
X-6871598Y18808899D01*
X-6864485Y18785450D01*
X-6852934Y18763839D01*
X-6837389Y18744897D01*
X-6818447Y18729352D01*
X-6796836Y18717801D01*
X-6773387Y18710688D01*
X-6749001Y18708286D01*
X-6724615Y18710688D01*
X-6701166Y18717801D01*
X-6679555Y18729352D01*
X-6660613Y18744897D01*
X-6645068Y18763839D01*
X-6633517Y18785450D01*
X-6624604Y18821032D01*
X-6621314Y18854434D01*
X-6609226Y18894284D01*
X-6589601Y18930999D01*
X-6563186Y18963186D01*
X-6530999Y18989601D01*
X-6494284Y19009226D01*
X-6454434Y19021314D01*
X-6406859Y19026000D01*
X-5243141Y19026000D01*
X-5195566Y19021314D01*
X-5155716Y19009226D01*
X-5119001Y18989601D01*
X-5086814Y18963186D01*
X-5060399Y18930999D01*
X-5040774Y18894284D01*
X-5028686Y18854434D01*
X-5024000Y18806859D01*
X-5024000Y18143141D01*
X-5028686Y18095566D01*
X-5040774Y18055716D01*
X-5060399Y18019001D01*
X-5086814Y17986814D01*
X-5119001Y17960399D01*
X-5155716Y17940774D01*
X-5195566Y17928686D01*
X-5243141Y17924000D01*
X-6406859Y17924000D01*
X-6454434Y17928686D01*
X-6494284Y17940774D01*
X-6530999Y17960399D01*
X-6563186Y17986814D01*
X-6589601Y18019001D01*
X-6609226Y18055716D01*
X-6621314Y18095566D01*
X-6624604Y18128968D01*
X-6629385Y18153001D01*
X-6638762Y18175640D01*
X-6652376Y18196014D01*
X-6669703Y18213341D01*
X-6690078Y18226955D01*
X-6712717Y18236332D01*
X-6736750Y18241112D01*
X-6761254Y18241112D01*
X-6785287Y18236331D01*
X-6807926Y18226954D01*
X-6828300Y18213340D01*
X-6845627Y18196013D01*
X-6859241Y18175638D01*
X-6868618Y18152999D01*
X-6874000Y18116715D01*
X-6874000Y17924000D01*
X-8476000Y17924000D01*
X-8476000Y19026000D01*
X-6874000Y19026000D01*
X-6874000Y18833285D01*
X-6874000Y18833285D01*
G37*
G36*
X-13624000Y18833285D02*
G01*
X-13621598Y18808899D01*
X-13614485Y18785450D01*
X-13602934Y18763839D01*
X-13587389Y18744897D01*
X-13568447Y18729352D01*
X-13546836Y18717801D01*
X-13523387Y18710688D01*
X-13499001Y18708286D01*
X-13474615Y18710688D01*
X-13451166Y18717801D01*
X-13429555Y18729352D01*
X-13410613Y18744897D01*
X-13395068Y18763839D01*
X-13383517Y18785450D01*
X-13374604Y18821032D01*
X-13371314Y18854434D01*
X-13359226Y18894284D01*
X-13339601Y18930999D01*
X-13313186Y18963186D01*
X-13280999Y18989601D01*
X-13244284Y19009226D01*
X-13204434Y19021314D01*
X-13156859Y19026000D01*
X-11993141Y19026000D01*
X-11945566Y19021314D01*
X-11905716Y19009226D01*
X-11869001Y18989601D01*
X-11836814Y18963186D01*
X-11810399Y18930999D01*
X-11790774Y18894284D01*
X-11778686Y18854434D01*
X-11774000Y18806859D01*
X-11774000Y18143141D01*
X-11778686Y18095566D01*
X-11790774Y18055716D01*
X-11810399Y18019001D01*
X-11836814Y17986814D01*
X-11869001Y17960399D01*
X-11905716Y17940774D01*
X-11945566Y17928686D01*
X-11993141Y17924000D01*
X-13156859Y17924000D01*
X-13204434Y17928686D01*
X-13244284Y17940774D01*
X-13280999Y17960399D01*
X-13313186Y17986814D01*
X-13339601Y18019001D01*
X-13359226Y18055716D01*
X-13371314Y18095566D01*
X-13374604Y18128968D01*
X-13379385Y18153001D01*
X-13388762Y18175640D01*
X-13402376Y18196014D01*
X-13419703Y18213341D01*
X-13440078Y18226955D01*
X-13462717Y18236332D01*
X-13486750Y18241112D01*
X-13511254Y18241112D01*
X-13535287Y18236331D01*
X-13557926Y18226954D01*
X-13578300Y18213340D01*
X-13595627Y18196013D01*
X-13609241Y18175638D01*
X-13618618Y18152999D01*
X-13624000Y18116715D01*
X-13624000Y17924000D01*
X-15226000Y17924000D01*
X-15226000Y19026000D01*
X-13624000Y19026000D01*
X-13624000Y18833285D01*
X-13624000Y18833285D01*
G37*
G36*
X28269591Y18921915D02*
G01*
X28303569Y18911607D01*
X28334890Y18894866D01*
X28362339Y18872339D01*
X28384866Y18844890D01*
X28401607Y18813569D01*
X28411915Y18779591D01*
X28416000Y18738110D01*
X28416000Y18136890D01*
X28411915Y18095409D01*
X28401607Y18061431D01*
X28384866Y18030110D01*
X28362339Y18002661D01*
X28334890Y17980134D01*
X28303569Y17963393D01*
X28269591Y17953085D01*
X28228110Y17949000D01*
X27551890Y17949000D01*
X27510409Y17953085D01*
X27476431Y17963393D01*
X27445110Y17980134D01*
X27417661Y18002661D01*
X27395134Y18030110D01*
X27378393Y18061431D01*
X27368085Y18095409D01*
X27364000Y18136890D01*
X27364000Y18738110D01*
X27368085Y18779591D01*
X27378393Y18813569D01*
X27395134Y18844890D01*
X27417661Y18872339D01*
X27445110Y18894866D01*
X27476431Y18911607D01*
X27510409Y18921915D01*
X27551890Y18926000D01*
X28228110Y18926000D01*
X28269591Y18921915D01*
X28269591Y18921915D01*
G37*
G36*
X35673512Y19946073D02*
G01*
X35822812Y19916376D01*
X35986784Y19848456D01*
X36134354Y19749853D01*
X36259853Y19624354D01*
X36358456Y19476784D01*
X36426376Y19312812D01*
X36461000Y19138741D01*
X36461000Y18961259D01*
X36426376Y18787188D01*
X36358456Y18623216D01*
X36259853Y18475646D01*
X36134354Y18350147D01*
X35986784Y18251544D01*
X35822812Y18183624D01*
X35673512Y18153927D01*
X35648742Y18149000D01*
X35471258Y18149000D01*
X35446488Y18153927D01*
X35297188Y18183624D01*
X35133216Y18251544D01*
X34985646Y18350147D01*
X34860147Y18475646D01*
X34761544Y18623216D01*
X34693624Y18787188D01*
X34659000Y18961259D01*
X34659000Y19138741D01*
X34693624Y19312812D01*
X34761544Y19476784D01*
X34860147Y19624354D01*
X34985646Y19749853D01*
X35133216Y19848456D01*
X35297188Y19916376D01*
X35446488Y19946073D01*
X35471258Y19951000D01*
X35648742Y19951000D01*
X35673512Y19946073D01*
X35673512Y19946073D01*
G37*
G36*
X-35446488Y19946073D02*
G01*
X-35297188Y19916376D01*
X-35133216Y19848456D01*
X-34985646Y19749853D01*
X-34860147Y19624354D01*
X-34761544Y19476784D01*
X-34693624Y19312812D01*
X-34659000Y19138741D01*
X-34659000Y18961259D01*
X-34693624Y18787188D01*
X-34761544Y18623216D01*
X-34860147Y18475646D01*
X-34985646Y18350147D01*
X-35133216Y18251544D01*
X-35297188Y18183624D01*
X-35446488Y18153927D01*
X-35471258Y18149000D01*
X-35648742Y18149000D01*
X-35673512Y18153927D01*
X-35822812Y18183624D01*
X-35986784Y18251544D01*
X-36134354Y18350147D01*
X-36259853Y18475646D01*
X-36358456Y18623216D01*
X-36426376Y18787188D01*
X-36461000Y18961259D01*
X-36461000Y19138741D01*
X-36426376Y19312812D01*
X-36358456Y19476784D01*
X-36259853Y19624354D01*
X-36134354Y19749853D01*
X-35986784Y19848456D01*
X-35822812Y19916376D01*
X-35673512Y19946073D01*
X-35648742Y19951000D01*
X-35471258Y19951000D01*
X-35446488Y19946073D01*
X-35446488Y19946073D01*
G37*
G36*
X-35446488Y22486073D02*
G01*
X-35297188Y22456376D01*
X-35133216Y22388456D01*
X-34985646Y22289853D01*
X-34860147Y22164354D01*
X-34761544Y22016784D01*
X-34693624Y21852812D01*
X-34659000Y21678741D01*
X-34659000Y21501259D01*
X-34693624Y21327188D01*
X-34761544Y21163216D01*
X-34860147Y21015646D01*
X-34985646Y20890147D01*
X-35133216Y20791544D01*
X-35297188Y20723624D01*
X-35446488Y20693927D01*
X-35471258Y20689000D01*
X-35648742Y20689000D01*
X-35673512Y20693927D01*
X-35822812Y20723624D01*
X-35986784Y20791544D01*
X-36134354Y20890147D01*
X-36259853Y21015646D01*
X-36358456Y21163216D01*
X-36426376Y21327188D01*
X-36461000Y21501259D01*
X-36461000Y21678741D01*
X-36426376Y21852812D01*
X-36358456Y22016784D01*
X-36259853Y22164354D01*
X-36134354Y22289853D01*
X-35986784Y22388456D01*
X-35822812Y22456376D01*
X-35673512Y22486073D01*
X-35648742Y22491000D01*
X-35471258Y22491000D01*
X-35446488Y22486073D01*
X-35446488Y22486073D01*
G37*
G36*
X35673512Y22486073D02*
G01*
X35822812Y22456376D01*
X35986784Y22388456D01*
X36134354Y22289853D01*
X36259853Y22164354D01*
X36358456Y22016784D01*
X36426376Y21852812D01*
X36461000Y21678741D01*
X36461000Y21501259D01*
X36426376Y21327188D01*
X36358456Y21163216D01*
X36259853Y21015646D01*
X36134354Y20890147D01*
X35986784Y20791544D01*
X35822812Y20723624D01*
X35673512Y20693927D01*
X35648742Y20689000D01*
X35471258Y20689000D01*
X35446488Y20693927D01*
X35297188Y20723624D01*
X35133216Y20791544D01*
X34985646Y20890147D01*
X34860147Y21015646D01*
X34761544Y21163216D01*
X34693624Y21327188D01*
X34659000Y21501259D01*
X34659000Y21678741D01*
X34693624Y21852812D01*
X34761544Y22016784D01*
X34860147Y22164354D01*
X34985646Y22289853D01*
X35133216Y22388456D01*
X35297188Y22456376D01*
X35446488Y22486073D01*
X35471258Y22491000D01*
X35648742Y22491000D01*
X35673512Y22486073D01*
X35673512Y22486073D01*
G37*
G36*
X-11774000Y21474000D02*
G01*
X-15226000Y21474000D01*
X-15226000Y22576000D01*
X-11774000Y22576000D01*
X-11774000Y21474000D01*
X-11774000Y21474000D01*
G37*
G36*
X1726000Y21474000D02*
G01*
X-1726000Y21474000D01*
X-1726000Y22576000D01*
X1726000Y22576000D01*
X1726000Y21474000D01*
X1726000Y21474000D01*
G37*
G36*
X15226000Y21474000D02*
G01*
X11774000Y21474000D01*
X11774000Y22576000D01*
X15226000Y22576000D01*
X15226000Y21474000D01*
X15226000Y21474000D01*
G37*
G36*
X-25274000Y21474000D02*
G01*
X-26876000Y21474000D01*
X-26876000Y22576000D01*
X-25274000Y22576000D01*
X-25274000Y21474000D01*
X-25274000Y21474000D01*
G37*
G36*
X21976000Y21474000D02*
G01*
X18524000Y21474000D01*
X18524000Y22576000D01*
X21976000Y22576000D01*
X21976000Y21474000D01*
X21976000Y21474000D01*
G37*
G36*
X8476000Y21474000D02*
G01*
X5024000Y21474000D01*
X5024000Y22576000D01*
X8476000Y22576000D01*
X8476000Y21474000D01*
X8476000Y21474000D01*
G37*
G36*
X-18524000Y21474000D02*
G01*
X-21976000Y21474000D01*
X-21976000Y22576000D01*
X-18524000Y22576000D01*
X-18524000Y21474000D01*
X-18524000Y21474000D01*
G37*
G36*
X26876000Y21474000D02*
G01*
X25274000Y21474000D01*
X25274000Y22576000D01*
X26876000Y22576000D01*
X26876000Y21474000D01*
X26876000Y21474000D01*
G37*
G36*
X-5024000Y21474000D02*
G01*
X-8476000Y21474000D01*
X-8476000Y22576000D01*
X-5024000Y22576000D01*
X-5024000Y21474000D01*
X-5024000Y21474000D01*
G37*
G36*
X1726000Y23074000D02*
G01*
X-1726000Y23074000D01*
X-1726000Y24176000D01*
X1726000Y24176000D01*
X1726000Y23074000D01*
X1726000Y23074000D01*
G37*
G36*
X-5024000Y23074000D02*
G01*
X-8476000Y23074000D01*
X-8476000Y24176000D01*
X-5024000Y24176000D01*
X-5024000Y23074000D01*
X-5024000Y23074000D01*
G37*
G36*
X-18524000Y23074000D02*
G01*
X-21976000Y23074000D01*
X-21976000Y24176000D01*
X-18524000Y24176000D01*
X-18524000Y23074000D01*
X-18524000Y23074000D01*
G37*
G36*
X-25274000Y23074000D02*
G01*
X-26876000Y23074000D01*
X-26876000Y24176000D01*
X-25274000Y24176000D01*
X-25274000Y23074000D01*
X-25274000Y23074000D01*
G37*
G36*
X-11774000Y23074000D02*
G01*
X-15226000Y23074000D01*
X-15226000Y24176000D01*
X-11774000Y24176000D01*
X-11774000Y23074000D01*
X-11774000Y23074000D01*
G37*
G36*
X8476000Y23074000D02*
G01*
X5024000Y23074000D01*
X5024000Y24176000D01*
X8476000Y24176000D01*
X8476000Y23074000D01*
X8476000Y23074000D01*
G37*
G36*
X15226000Y23074000D02*
G01*
X11774000Y23074000D01*
X11774000Y24176000D01*
X15226000Y24176000D01*
X15226000Y23074000D01*
X15226000Y23074000D01*
G37*
G36*
X21976000Y23074000D02*
G01*
X18524000Y23074000D01*
X18524000Y24176000D01*
X21976000Y24176000D01*
X21976000Y23074000D01*
X21976000Y23074000D01*
G37*
G36*
X26876000Y23074000D02*
G01*
X25274000Y23074000D01*
X25274000Y24176000D01*
X26876000Y24176000D01*
X26876000Y23074000D01*
X26876000Y23074000D01*
G37*
G36*
X28264591Y24106915D02*
G01*
X28298569Y24096607D01*
X28329890Y24079866D01*
X28357339Y24057339D01*
X28379866Y24029890D01*
X28396607Y23998569D01*
X28406915Y23964591D01*
X28411000Y23923110D01*
X28411000Y23321890D01*
X28406915Y23280409D01*
X28396607Y23246431D01*
X28379866Y23215110D01*
X28357339Y23187661D01*
X28329890Y23165134D01*
X28298569Y23148393D01*
X28264591Y23138085D01*
X28223110Y23134000D01*
X27546890Y23134000D01*
X27505409Y23138085D01*
X27471431Y23148393D01*
X27440110Y23165134D01*
X27412661Y23187661D01*
X27390134Y23215110D01*
X27373393Y23246431D01*
X27363085Y23280409D01*
X27359000Y23321890D01*
X27359000Y23923110D01*
X27363085Y23964591D01*
X27373393Y23998569D01*
X27390134Y24029890D01*
X27412661Y24057339D01*
X27440110Y24079866D01*
X27471431Y24096607D01*
X27505409Y24106915D01*
X27546890Y24111000D01*
X28223110Y24111000D01*
X28264591Y24106915D01*
X28264591Y24106915D01*
G37*
G36*
X35673512Y25026073D02*
G01*
X35822812Y24996376D01*
X35986784Y24928456D01*
X36134354Y24829853D01*
X36259853Y24704354D01*
X36358456Y24556784D01*
X36426376Y24392812D01*
X36450819Y24269926D01*
X36461000Y24218742D01*
X36461000Y24041258D01*
X36458739Y24029890D01*
X36426376Y23867188D01*
X36358456Y23703216D01*
X36259853Y23555646D01*
X36134354Y23430147D01*
X35986784Y23331544D01*
X35822812Y23263624D01*
X35673512Y23233927D01*
X35648742Y23229000D01*
X35471258Y23229000D01*
X35446488Y23233927D01*
X35297188Y23263624D01*
X35133216Y23331544D01*
X34985646Y23430147D01*
X34860147Y23555646D01*
X34761544Y23703216D01*
X34693624Y23867188D01*
X34661261Y24029890D01*
X34659000Y24041258D01*
X34659000Y24218742D01*
X34669181Y24269926D01*
X34693624Y24392812D01*
X34761544Y24556784D01*
X34860147Y24704354D01*
X34985646Y24829853D01*
X35133216Y24928456D01*
X35297188Y24996376D01*
X35446488Y25026073D01*
X35471258Y25031000D01*
X35648742Y25031000D01*
X35673512Y25026073D01*
X35673512Y25026073D01*
G37*
G36*
X-35446488Y25026073D02*
G01*
X-35297188Y24996376D01*
X-35133216Y24928456D01*
X-34985646Y24829853D01*
X-34860147Y24704354D01*
X-34761544Y24556784D01*
X-34693624Y24392812D01*
X-34669181Y24269926D01*
X-34659000Y24218742D01*
X-34659000Y24041258D01*
X-34661261Y24029890D01*
X-34693624Y23867188D01*
X-34761544Y23703216D01*
X-34860147Y23555646D01*
X-34985646Y23430147D01*
X-35133216Y23331544D01*
X-35297188Y23263624D01*
X-35446488Y23233927D01*
X-35471258Y23229000D01*
X-35648742Y23229000D01*
X-35673512Y23233927D01*
X-35822812Y23263624D01*
X-35986784Y23331544D01*
X-36134354Y23430147D01*
X-36259853Y23555646D01*
X-36358456Y23703216D01*
X-36426376Y23867188D01*
X-36458739Y24029890D01*
X-36461000Y24041258D01*
X-36461000Y24218742D01*
X-36450819Y24269926D01*
X-36426376Y24392812D01*
X-36358456Y24556784D01*
X-36259853Y24704354D01*
X-36134354Y24829853D01*
X-35986784Y24928456D01*
X-35822812Y24996376D01*
X-35673512Y25026073D01*
X-35648742Y25031000D01*
X-35471258Y25031000D01*
X-35446488Y25026073D01*
X-35446488Y25026073D01*
G37*
G36*
X-31147858Y25131758D02*
G01*
X-30999899Y25070471D01*
X-30866745Y24981501D01*
X-30753499Y24868255D01*
X-30664529Y24735101D01*
X-30603242Y24587142D01*
X-30572000Y24430075D01*
X-30572000Y24269925D01*
X-30603242Y24112858D01*
X-30664529Y23964899D01*
X-30753499Y23831745D01*
X-30866745Y23718499D01*
X-30999899Y23629529D01*
X-31147858Y23568242D01*
X-31304925Y23537000D01*
X-31465075Y23537000D01*
X-31622142Y23568242D01*
X-31770101Y23629529D01*
X-31903255Y23718499D01*
X-32016501Y23831745D01*
X-32105471Y23964899D01*
X-32166758Y24112858D01*
X-32198000Y24269925D01*
X-32198000Y24430075D01*
X-32166758Y24587142D01*
X-32105471Y24735101D01*
X-32016501Y24868255D01*
X-31903255Y24981501D01*
X-31770101Y25070471D01*
X-31622142Y25131758D01*
X-31465075Y25163000D01*
X-31304925Y25163000D01*
X-31147858Y25131758D01*
X-31147858Y25131758D01*
G37*
G36*
X26876000Y24674000D02*
G01*
X25274000Y24674000D01*
X25274000Y25776000D01*
X26876000Y25776000D01*
X26876000Y24674000D01*
X26876000Y24674000D01*
G37*
G36*
X-124000Y25583285D02*
G01*
X-121598Y25558899D01*
X-114485Y25535450D01*
X-102934Y25513839D01*
X-87389Y25494897D01*
X-68447Y25479352D01*
X-46836Y25467801D01*
X-23387Y25460688D01*
X999Y25458286D01*
X25385Y25460688D01*
X48834Y25467801D01*
X70445Y25479352D01*
X89387Y25494897D01*
X104932Y25513839D01*
X116483Y25535450D01*
X125396Y25571032D01*
X128686Y25604434D01*
X140774Y25644284D01*
X160399Y25680999D01*
X186814Y25713186D01*
X219001Y25739601D01*
X255716Y25759226D01*
X295566Y25771314D01*
X343141Y25776000D01*
X1506859Y25776000D01*
X1554434Y25771314D01*
X1594284Y25759226D01*
X1630999Y25739601D01*
X1663186Y25713186D01*
X1689601Y25680999D01*
X1709226Y25644284D01*
X1721314Y25604434D01*
X1726000Y25556859D01*
X1726000Y24893141D01*
X1721314Y24845566D01*
X1709226Y24805716D01*
X1689601Y24769001D01*
X1663186Y24736814D01*
X1630999Y24710399D01*
X1594284Y24690774D01*
X1554434Y24678686D01*
X1506859Y24674000D01*
X343141Y24674000D01*
X295566Y24678686D01*
X255716Y24690774D01*
X219001Y24710399D01*
X186814Y24736814D01*
X160399Y24769001D01*
X140774Y24805716D01*
X128686Y24845566D01*
X125396Y24878968D01*
X120615Y24903001D01*
X111238Y24925640D01*
X97624Y24946014D01*
X80297Y24963341D01*
X59922Y24976955D01*
X37283Y24986332D01*
X13250Y24991112D01*
X-11254Y24991112D01*
X-35287Y24986331D01*
X-57926Y24976954D01*
X-78300Y24963340D01*
X-95627Y24946013D01*
X-109241Y24925638D01*
X-118618Y24902999D01*
X-124000Y24866715D01*
X-124000Y24674000D01*
X-1726000Y24674000D01*
X-1726000Y25776000D01*
X-124000Y25776000D01*
X-124000Y25583285D01*
X-124000Y25583285D01*
G37*
G36*
X13376000Y25583285D02*
G01*
X13378402Y25558899D01*
X13385515Y25535450D01*
X13397066Y25513839D01*
X13412611Y25494897D01*
X13431553Y25479352D01*
X13453164Y25467801D01*
X13476613Y25460688D01*
X13500999Y25458286D01*
X13525385Y25460688D01*
X13548834Y25467801D01*
X13570445Y25479352D01*
X13589387Y25494897D01*
X13604932Y25513839D01*
X13616483Y25535450D01*
X13625396Y25571032D01*
X13628686Y25604434D01*
X13640774Y25644284D01*
X13660399Y25680999D01*
X13686814Y25713186D01*
X13719001Y25739601D01*
X13755716Y25759226D01*
X13795566Y25771314D01*
X13843141Y25776000D01*
X15006859Y25776000D01*
X15054434Y25771314D01*
X15094284Y25759226D01*
X15130999Y25739601D01*
X15163186Y25713186D01*
X15189601Y25680999D01*
X15209226Y25644284D01*
X15221314Y25604434D01*
X15226000Y25556859D01*
X15226000Y24893141D01*
X15221314Y24845566D01*
X15209226Y24805716D01*
X15189601Y24769001D01*
X15163186Y24736814D01*
X15130999Y24710399D01*
X15094284Y24690774D01*
X15054434Y24678686D01*
X15006859Y24674000D01*
X13843141Y24674000D01*
X13795566Y24678686D01*
X13755716Y24690774D01*
X13719001Y24710399D01*
X13686814Y24736814D01*
X13660399Y24769001D01*
X13640774Y24805716D01*
X13628686Y24845566D01*
X13625396Y24878968D01*
X13620615Y24903001D01*
X13611238Y24925640D01*
X13597624Y24946014D01*
X13580297Y24963341D01*
X13559922Y24976955D01*
X13537283Y24986332D01*
X13513250Y24991112D01*
X13488746Y24991112D01*
X13464713Y24986331D01*
X13442074Y24976954D01*
X13421700Y24963340D01*
X13404373Y24946013D01*
X13390759Y24925638D01*
X13381382Y24902999D01*
X13376000Y24866715D01*
X13376000Y24674000D01*
X11774000Y24674000D01*
X11774000Y25776000D01*
X13376000Y25776000D01*
X13376000Y25583285D01*
X13376000Y25583285D01*
G37*
G36*
X6626000Y25583285D02*
G01*
X6628402Y25558899D01*
X6635515Y25535450D01*
X6647066Y25513839D01*
X6662611Y25494897D01*
X6681553Y25479352D01*
X6703164Y25467801D01*
X6726613Y25460688D01*
X6750999Y25458286D01*
X6775385Y25460688D01*
X6798834Y25467801D01*
X6820445Y25479352D01*
X6839387Y25494897D01*
X6854932Y25513839D01*
X6866483Y25535450D01*
X6875396Y25571032D01*
X6878686Y25604434D01*
X6890774Y25644284D01*
X6910399Y25680999D01*
X6936814Y25713186D01*
X6969001Y25739601D01*
X7005716Y25759226D01*
X7045566Y25771314D01*
X7093141Y25776000D01*
X8256859Y25776000D01*
X8304434Y25771314D01*
X8344284Y25759226D01*
X8380999Y25739601D01*
X8413186Y25713186D01*
X8439601Y25680999D01*
X8459226Y25644284D01*
X8471314Y25604434D01*
X8476000Y25556859D01*
X8476000Y24893141D01*
X8471314Y24845566D01*
X8459226Y24805716D01*
X8439601Y24769001D01*
X8413186Y24736814D01*
X8380999Y24710399D01*
X8344284Y24690774D01*
X8304434Y24678686D01*
X8256859Y24674000D01*
X7093141Y24674000D01*
X7045566Y24678686D01*
X7005716Y24690774D01*
X6969001Y24710399D01*
X6936814Y24736814D01*
X6910399Y24769001D01*
X6890774Y24805716D01*
X6878686Y24845566D01*
X6875396Y24878968D01*
X6870615Y24903001D01*
X6861238Y24925640D01*
X6847624Y24946014D01*
X6830297Y24963341D01*
X6809922Y24976955D01*
X6787283Y24986332D01*
X6763250Y24991112D01*
X6738746Y24991112D01*
X6714713Y24986331D01*
X6692074Y24976954D01*
X6671700Y24963340D01*
X6654373Y24946013D01*
X6640759Y24925638D01*
X6631382Y24902999D01*
X6626000Y24866715D01*
X6626000Y24674000D01*
X5024000Y24674000D01*
X5024000Y25776000D01*
X6626000Y25776000D01*
X6626000Y25583285D01*
X6626000Y25583285D01*
G37*
G36*
X20126000Y25583285D02*
G01*
X20128402Y25558899D01*
X20135515Y25535450D01*
X20147066Y25513839D01*
X20162611Y25494897D01*
X20181553Y25479352D01*
X20203164Y25467801D01*
X20226613Y25460688D01*
X20250999Y25458286D01*
X20275385Y25460688D01*
X20298834Y25467801D01*
X20320445Y25479352D01*
X20339387Y25494897D01*
X20354932Y25513839D01*
X20366483Y25535450D01*
X20375396Y25571032D01*
X20378686Y25604434D01*
X20390774Y25644284D01*
X20410399Y25680999D01*
X20436814Y25713186D01*
X20469001Y25739601D01*
X20505716Y25759226D01*
X20545566Y25771314D01*
X20593141Y25776000D01*
X21756859Y25776000D01*
X21804434Y25771314D01*
X21844284Y25759226D01*
X21880999Y25739601D01*
X21913186Y25713186D01*
X21939601Y25680999D01*
X21959226Y25644284D01*
X21971314Y25604434D01*
X21976000Y25556859D01*
X21976000Y24893141D01*
X21971314Y24845566D01*
X21959226Y24805716D01*
X21939601Y24769001D01*
X21913186Y24736814D01*
X21880999Y24710399D01*
X21844284Y24690774D01*
X21804434Y24678686D01*
X21756859Y24674000D01*
X20593141Y24674000D01*
X20545566Y24678686D01*
X20505716Y24690774D01*
X20469001Y24710399D01*
X20436814Y24736814D01*
X20410399Y24769001D01*
X20390774Y24805716D01*
X20378686Y24845566D01*
X20375396Y24878968D01*
X20370615Y24903001D01*
X20361238Y24925640D01*
X20347624Y24946014D01*
X20330297Y24963341D01*
X20309922Y24976955D01*
X20287283Y24986332D01*
X20263250Y24991112D01*
X20238746Y24991112D01*
X20214713Y24986331D01*
X20192074Y24976954D01*
X20171700Y24963340D01*
X20154373Y24946013D01*
X20140759Y24925638D01*
X20131382Y24902999D01*
X20126000Y24866715D01*
X20126000Y24674000D01*
X18524000Y24674000D01*
X18524000Y25776000D01*
X20126000Y25776000D01*
X20126000Y25583285D01*
X20126000Y25583285D01*
G37*
G36*
X-20374000Y25583285D02*
G01*
X-20371598Y25558899D01*
X-20364485Y25535450D01*
X-20352934Y25513839D01*
X-20337389Y25494897D01*
X-20318447Y25479352D01*
X-20296836Y25467801D01*
X-20273387Y25460688D01*
X-20249001Y25458286D01*
X-20224615Y25460688D01*
X-20201166Y25467801D01*
X-20179555Y25479352D01*
X-20160613Y25494897D01*
X-20145068Y25513839D01*
X-20133517Y25535450D01*
X-20124604Y25571032D01*
X-20121314Y25604434D01*
X-20109226Y25644284D01*
X-20089601Y25680999D01*
X-20063186Y25713186D01*
X-20030999Y25739601D01*
X-19994284Y25759226D01*
X-19954434Y25771314D01*
X-19906859Y25776000D01*
X-18743141Y25776000D01*
X-18695566Y25771314D01*
X-18655716Y25759226D01*
X-18619001Y25739601D01*
X-18586814Y25713186D01*
X-18560399Y25680999D01*
X-18540774Y25644284D01*
X-18528686Y25604434D01*
X-18524000Y25556859D01*
X-18524000Y24893141D01*
X-18528686Y24845566D01*
X-18540774Y24805716D01*
X-18560399Y24769001D01*
X-18586814Y24736814D01*
X-18619001Y24710399D01*
X-18655716Y24690774D01*
X-18695566Y24678686D01*
X-18743141Y24674000D01*
X-19906859Y24674000D01*
X-19954434Y24678686D01*
X-19994284Y24690774D01*
X-20030999Y24710399D01*
X-20063186Y24736814D01*
X-20089601Y24769001D01*
X-20109226Y24805716D01*
X-20121314Y24845566D01*
X-20124604Y24878968D01*
X-20129385Y24903001D01*
X-20138762Y24925640D01*
X-20152376Y24946014D01*
X-20169703Y24963341D01*
X-20190078Y24976955D01*
X-20212717Y24986332D01*
X-20236750Y24991112D01*
X-20261254Y24991112D01*
X-20285287Y24986331D01*
X-20307926Y24976954D01*
X-20328300Y24963340D01*
X-20345627Y24946013D01*
X-20359241Y24925638D01*
X-20368618Y24902999D01*
X-20374000Y24866715D01*
X-20374000Y24674000D01*
X-21976000Y24674000D01*
X-21976000Y25776000D01*
X-20374000Y25776000D01*
X-20374000Y25583285D01*
X-20374000Y25583285D01*
G37*
G36*
X-6874000Y25583285D02*
G01*
X-6871598Y25558899D01*
X-6864485Y25535450D01*
X-6852934Y25513839D01*
X-6837389Y25494897D01*
X-6818447Y25479352D01*
X-6796836Y25467801D01*
X-6773387Y25460688D01*
X-6749001Y25458286D01*
X-6724615Y25460688D01*
X-6701166Y25467801D01*
X-6679555Y25479352D01*
X-6660613Y25494897D01*
X-6645068Y25513839D01*
X-6633517Y25535450D01*
X-6624604Y25571032D01*
X-6621314Y25604434D01*
X-6609226Y25644284D01*
X-6589601Y25680999D01*
X-6563186Y25713186D01*
X-6530999Y25739601D01*
X-6494284Y25759226D01*
X-6454434Y25771314D01*
X-6406859Y25776000D01*
X-5243141Y25776000D01*
X-5195566Y25771314D01*
X-5155716Y25759226D01*
X-5119001Y25739601D01*
X-5086814Y25713186D01*
X-5060399Y25680999D01*
X-5040774Y25644284D01*
X-5028686Y25604434D01*
X-5024000Y25556859D01*
X-5024000Y24893141D01*
X-5028686Y24845566D01*
X-5040774Y24805716D01*
X-5060399Y24769001D01*
X-5086814Y24736814D01*
X-5119001Y24710399D01*
X-5155716Y24690774D01*
X-5195566Y24678686D01*
X-5243141Y24674000D01*
X-6406859Y24674000D01*
X-6454434Y24678686D01*
X-6494284Y24690774D01*
X-6530999Y24710399D01*
X-6563186Y24736814D01*
X-6589601Y24769001D01*
X-6609226Y24805716D01*
X-6621314Y24845566D01*
X-6624604Y24878968D01*
X-6629385Y24903001D01*
X-6638762Y24925640D01*
X-6652376Y24946014D01*
X-6669703Y24963341D01*
X-6690078Y24976955D01*
X-6712717Y24986332D01*
X-6736750Y24991112D01*
X-6761254Y24991112D01*
X-6785287Y24986331D01*
X-6807926Y24976954D01*
X-6828300Y24963340D01*
X-6845627Y24946013D01*
X-6859241Y24925638D01*
X-6868618Y24902999D01*
X-6874000Y24866715D01*
X-6874000Y24674000D01*
X-8476000Y24674000D01*
X-8476000Y25776000D01*
X-6874000Y25776000D01*
X-6874000Y25583285D01*
X-6874000Y25583285D01*
G37*
G36*
X-25445566Y25771314D02*
G01*
X-25405716Y25759226D01*
X-25369001Y25739601D01*
X-25336814Y25713186D01*
X-25310399Y25680999D01*
X-25290774Y25644284D01*
X-25278686Y25604434D01*
X-25274000Y25556859D01*
X-25274000Y24893141D01*
X-25278686Y24845566D01*
X-25290774Y24805716D01*
X-25310399Y24769001D01*
X-25336814Y24736814D01*
X-25369001Y24710399D01*
X-25405716Y24690774D01*
X-25445566Y24678686D01*
X-25493141Y24674000D01*
X-26656859Y24674000D01*
X-26704434Y24678686D01*
X-26744284Y24690774D01*
X-26780999Y24710399D01*
X-26813186Y24736814D01*
X-26839601Y24769001D01*
X-26859226Y24805716D01*
X-26871314Y24845566D01*
X-26876000Y24893141D01*
X-26876000Y25556859D01*
X-26871314Y25604434D01*
X-26859226Y25644284D01*
X-26839601Y25680999D01*
X-26813186Y25713186D01*
X-26780999Y25739601D01*
X-26744284Y25759226D01*
X-26704434Y25771314D01*
X-26656859Y25776000D01*
X-25493141Y25776000D01*
X-25445566Y25771314D01*
X-25445566Y25771314D01*
G37*
G36*
X-13624000Y25583285D02*
G01*
X-13621598Y25558899D01*
X-13614485Y25535450D01*
X-13602934Y25513839D01*
X-13587389Y25494897D01*
X-13568447Y25479352D01*
X-13546836Y25467801D01*
X-13523387Y25460688D01*
X-13499001Y25458286D01*
X-13474615Y25460688D01*
X-13451166Y25467801D01*
X-13429555Y25479352D01*
X-13410613Y25494897D01*
X-13395068Y25513839D01*
X-13383517Y25535450D01*
X-13374604Y25571032D01*
X-13371314Y25604434D01*
X-13359226Y25644284D01*
X-13339601Y25680999D01*
X-13313186Y25713186D01*
X-13280999Y25739601D01*
X-13244284Y25759226D01*
X-13204434Y25771314D01*
X-13156859Y25776000D01*
X-11993141Y25776000D01*
X-11945566Y25771314D01*
X-11905716Y25759226D01*
X-11869001Y25739601D01*
X-11836814Y25713186D01*
X-11810399Y25680999D01*
X-11790774Y25644284D01*
X-11778686Y25604434D01*
X-11774000Y25556859D01*
X-11774000Y24893141D01*
X-11778686Y24845566D01*
X-11790774Y24805716D01*
X-11810399Y24769001D01*
X-11836814Y24736814D01*
X-11869001Y24710399D01*
X-11905716Y24690774D01*
X-11945566Y24678686D01*
X-11993141Y24674000D01*
X-13156859Y24674000D01*
X-13204434Y24678686D01*
X-13244284Y24690774D01*
X-13280999Y24710399D01*
X-13313186Y24736814D01*
X-13339601Y24769001D01*
X-13359226Y24805716D01*
X-13371314Y24845566D01*
X-13374604Y24878968D01*
X-13379385Y24903001D01*
X-13388762Y24925640D01*
X-13402376Y24946014D01*
X-13419703Y24963341D01*
X-13440078Y24976955D01*
X-13462717Y24986332D01*
X-13486750Y24991112D01*
X-13511254Y24991112D01*
X-13535287Y24986331D01*
X-13557926Y24976954D01*
X-13578300Y24963340D01*
X-13595627Y24946013D01*
X-13609241Y24925638D01*
X-13618618Y24902999D01*
X-13624000Y24866715D01*
X-13624000Y24674000D01*
X-15226000Y24674000D01*
X-15226000Y25776000D01*
X-13624000Y25776000D01*
X-13624000Y25583285D01*
X-13624000Y25583285D01*
G37*
G36*
X28264591Y25681915D02*
G01*
X28298569Y25671607D01*
X28329890Y25654866D01*
X28357339Y25632339D01*
X28379866Y25604890D01*
X28396607Y25573569D01*
X28406915Y25539591D01*
X28411000Y25498110D01*
X28411000Y24896890D01*
X28406915Y24855409D01*
X28396607Y24821431D01*
X28379866Y24790110D01*
X28357339Y24762661D01*
X28329890Y24740134D01*
X28298569Y24723393D01*
X28264591Y24713085D01*
X28223110Y24709000D01*
X27546890Y24709000D01*
X27505409Y24713085D01*
X27471431Y24723393D01*
X27440110Y24740134D01*
X27412661Y24762661D01*
X27390134Y24790110D01*
X27373393Y24821431D01*
X27363085Y24855409D01*
X27359000Y24896890D01*
X27359000Y25498110D01*
X27363085Y25539591D01*
X27373393Y25573569D01*
X27390134Y25604890D01*
X27412661Y25632339D01*
X27440110Y25654866D01*
X27471431Y25671607D01*
X27505409Y25681915D01*
X27546890Y25686000D01*
X28223110Y25686000D01*
X28264591Y25681915D01*
X28264591Y25681915D01*
G37*
G36*
X-31147858Y27671758D02*
G01*
X-30999899Y27610471D01*
X-30866745Y27521501D01*
X-30753499Y27408255D01*
X-30664529Y27275101D01*
X-30603242Y27127142D01*
X-30572000Y26970075D01*
X-30572000Y26809925D01*
X-30603242Y26652858D01*
X-30664529Y26504899D01*
X-30753499Y26371745D01*
X-30866745Y26258499D01*
X-30999899Y26169529D01*
X-31147858Y26108242D01*
X-31304925Y26077000D01*
X-31465075Y26077000D01*
X-31622142Y26108242D01*
X-31770101Y26169529D01*
X-31903255Y26258499D01*
X-32016501Y26371745D01*
X-32105471Y26504899D01*
X-32166758Y26652858D01*
X-32198000Y26809925D01*
X-32198000Y26970075D01*
X-32166758Y27127142D01*
X-32105471Y27275101D01*
X-32016501Y27408255D01*
X-31903255Y27521501D01*
X-31770101Y27610471D01*
X-31622142Y27671758D01*
X-31465075Y27703000D01*
X-31304925Y27703000D01*
X-31147858Y27671758D01*
X-31147858Y27671758D01*
G37*
G36*
X13601000Y28309000D02*
G01*
X11799000Y28309000D01*
X11799000Y30111000D01*
X13601000Y30111000D01*
X13601000Y28309000D01*
X13601000Y28309000D01*
G37*
G36*
X-11799000Y28309000D02*
G01*
X-13601000Y28309000D01*
X-13601000Y30111000D01*
X-11799000Y30111000D01*
X-11799000Y28309000D01*
X-11799000Y28309000D01*
G37*
G36*
X-31147858Y30211758D02*
G01*
X-30999899Y30150471D01*
X-30866745Y30061501D01*
X-30753499Y29948255D01*
X-30664529Y29815101D01*
X-30603242Y29667142D01*
X-30572000Y29510075D01*
X-30572000Y29349925D01*
X-30603242Y29192858D01*
X-30664529Y29044899D01*
X-30753499Y28911745D01*
X-30866745Y28798499D01*
X-30999899Y28709529D01*
X-31147858Y28648242D01*
X-31304925Y28617000D01*
X-31465075Y28617000D01*
X-31622142Y28648242D01*
X-31770101Y28709529D01*
X-31903255Y28798499D01*
X-32016501Y28911745D01*
X-32105471Y29044899D01*
X-32166758Y29192858D01*
X-32198000Y29349925D01*
X-32198000Y29510075D01*
X-32166758Y29667142D01*
X-32105471Y29815101D01*
X-32016501Y29948255D01*
X-31903255Y30061501D01*
X-31770101Y30150471D01*
X-31622142Y30211758D01*
X-31465075Y30243000D01*
X-31304925Y30243000D01*
X-31147858Y30211758D01*
X-31147858Y30211758D01*
G37*
G36*
X-31147858Y32751758D02*
G01*
X-30999899Y32690471D01*
X-30866745Y32601501D01*
X-30753499Y32488255D01*
X-30664529Y32355101D01*
X-30603242Y32207142D01*
X-30572000Y32050075D01*
X-30572000Y31889925D01*
X-30603242Y31732858D01*
X-30664529Y31584899D01*
X-30753499Y31451745D01*
X-30866745Y31338499D01*
X-30999899Y31249529D01*
X-31147858Y31188242D01*
X-31304925Y31157000D01*
X-31465075Y31157000D01*
X-31622142Y31188242D01*
X-31770101Y31249529D01*
X-31903255Y31338499D01*
X-32016501Y31451745D01*
X-32105471Y31584899D01*
X-32166758Y31732858D01*
X-32198000Y31889925D01*
X-32198000Y32050075D01*
X-32166758Y32207142D01*
X-32105471Y32355101D01*
X-32016501Y32488255D01*
X-31903255Y32601501D01*
X-31770101Y32690471D01*
X-31622142Y32751758D01*
X-31465075Y32783000D01*
X-31304925Y32783000D01*
X-31147858Y32751758D01*
X-31147858Y32751758D01*
G37*
G36*
X-31147858Y35291758D02*
G01*
X-30999899Y35230471D01*
X-30866745Y35141501D01*
X-30753499Y35028255D01*
X-30664529Y34895101D01*
X-30603242Y34747142D01*
X-30572000Y34590075D01*
X-30572000Y34429925D01*
X-30603242Y34272858D01*
X-30664529Y34124899D01*
X-30753499Y33991745D01*
X-30866745Y33878499D01*
X-30999899Y33789529D01*
X-31147858Y33728242D01*
X-31304925Y33697000D01*
X-31465075Y33697000D01*
X-31622142Y33728242D01*
X-31770101Y33789529D01*
X-31903255Y33878499D01*
X-32016501Y33991745D01*
X-32105471Y34124899D01*
X-32166758Y34272858D01*
X-32198000Y34429925D01*
X-32198000Y34590075D01*
X-32166758Y34747142D01*
X-32105471Y34895101D01*
X-32016501Y35028255D01*
X-31903255Y35141501D01*
X-31770101Y35230471D01*
X-31622142Y35291758D01*
X-31465075Y35323000D01*
X-31304925Y35323000D01*
X-31147858Y35291758D01*
X-31147858Y35291758D01*
G37*
G36*
X4701000Y39099000D02*
G01*
X2899000Y39099000D01*
X2899000Y40901000D01*
X4701000Y40901000D01*
X4701000Y39099000D01*
X4701000Y39099000D01*
G37*
G36*
X1370443Y40894481D02*
G01*
X1436627Y40887963D01*
X1606466Y40836443D01*
X1762991Y40752778D01*
X1798729Y40723448D01*
X1900186Y40640186D01*
X1983448Y40538729D01*
X2012778Y40502991D01*
X2096443Y40346466D01*
X2147963Y40176627D01*
X2165359Y40000000D01*
X2147963Y39823373D01*
X2096443Y39653534D01*
X2012778Y39497009D01*
X1983448Y39461271D01*
X1900186Y39359814D01*
X1798729Y39276552D01*
X1762991Y39247222D01*
X1606466Y39163557D01*
X1436627Y39112037D01*
X1370443Y39105519D01*
X1304260Y39099000D01*
X1215740Y39099000D01*
X1149557Y39105519D01*
X1083373Y39112037D01*
X913534Y39163557D01*
X757009Y39247222D01*
X721271Y39276552D01*
X619814Y39359814D01*
X536552Y39461271D01*
X507222Y39497009D01*
X423557Y39653534D01*
X372037Y39823373D01*
X354641Y40000000D01*
X372037Y40176627D01*
X423557Y40346466D01*
X507222Y40502991D01*
X536552Y40538729D01*
X619814Y40640186D01*
X721271Y40723448D01*
X757009Y40752778D01*
X913534Y40836443D01*
X1083373Y40887963D01*
X1149557Y40894481D01*
X1215740Y40901000D01*
X1304260Y40901000D01*
X1370443Y40894481D01*
X1370443Y40894481D01*
G37*
G36*
X-1169557Y40894481D02*
G01*
X-1103373Y40887963D01*
X-933534Y40836443D01*
X-777009Y40752778D01*
X-741271Y40723448D01*
X-639814Y40640186D01*
X-556552Y40538729D01*
X-527222Y40502991D01*
X-443557Y40346466D01*
X-392037Y40176627D01*
X-374641Y40000000D01*
X-392037Y39823373D01*
X-443557Y39653534D01*
X-527222Y39497009D01*
X-556552Y39461271D01*
X-639814Y39359814D01*
X-741271Y39276552D01*
X-777009Y39247222D01*
X-933534Y39163557D01*
X-1103373Y39112037D01*
X-1169557Y39105519D01*
X-1235740Y39099000D01*
X-1324260Y39099000D01*
X-1390443Y39105519D01*
X-1456627Y39112037D01*
X-1626466Y39163557D01*
X-1782991Y39247222D01*
X-1818729Y39276552D01*
X-1920186Y39359814D01*
X-2003448Y39461271D01*
X-2032778Y39497009D01*
X-2116443Y39653534D01*
X-2167963Y39823373D01*
X-2185359Y40000000D01*
X-2167963Y40176627D01*
X-2116443Y40346466D01*
X-2032778Y40502991D01*
X-2003448Y40538729D01*
X-1920186Y40640186D01*
X-1818729Y40723448D01*
X-1782991Y40752778D01*
X-1626466Y40836443D01*
X-1456627Y40887963D01*
X-1390443Y40894481D01*
X-1324260Y40901000D01*
X-1235740Y40901000D01*
X-1169557Y40894481D01*
X-1169557Y40894481D01*
G37*
G36*
X-3709557Y40894481D02*
G01*
X-3643373Y40887963D01*
X-3473534Y40836443D01*
X-3317009Y40752778D01*
X-3281271Y40723448D01*
X-3179814Y40640186D01*
X-3096552Y40538729D01*
X-3067222Y40502991D01*
X-2983557Y40346466D01*
X-2932037Y40176627D01*
X-2914641Y40000000D01*
X-2932037Y39823373D01*
X-2983557Y39653534D01*
X-3067222Y39497009D01*
X-3096552Y39461271D01*
X-3179814Y39359814D01*
X-3281271Y39276552D01*
X-3317009Y39247222D01*
X-3473534Y39163557D01*
X-3643373Y39112037D01*
X-3709557Y39105519D01*
X-3775740Y39099000D01*
X-3864260Y39099000D01*
X-3930443Y39105519D01*
X-3996627Y39112037D01*
X-4166466Y39163557D01*
X-4322991Y39247222D01*
X-4358729Y39276552D01*
X-4460186Y39359814D01*
X-4543448Y39461271D01*
X-4572778Y39497009D01*
X-4656443Y39653534D01*
X-4707963Y39823373D01*
X-4725359Y40000000D01*
X-4707963Y40176627D01*
X-4656443Y40346466D01*
X-4572778Y40502991D01*
X-4543448Y40538729D01*
X-4460186Y40640186D01*
X-4358729Y40723448D01*
X-4322991Y40752778D01*
X-4166466Y40836443D01*
X-3996627Y40887963D01*
X-3930443Y40894481D01*
X-3864260Y40901000D01*
X-3775740Y40901000D01*
X-3709557Y40894481D01*
X-3709557Y40894481D01*
G37*
M02*
