M48
; DRILL file {KiCad (5.1.2-1)-1} date Sunday, March 21, 2021 at 06:44:36 PM
; FORMAT={-:-/ absolute / inch / decimal}
; #@! TF.CreationDate,2021-03-21T18:44:36-05:00
; #@! TF.GenerationSoftware,Kicad,Pcbnew,(5.1.2-1)-1
; #@! TF.FileFunction,Plated,1,2,PTH
FMAT,2
INCH
T1C0.0138
T2C0.0300
T3C0.0394
%
G90
G05
T1
X-1.5906Y-0.0551
X-1.5821Y-1.2126
X-1.2835Y-0.2323
X-1.2352Y0.8986
X-1.0276Y0.7846
X-1.0276Y0.5189
X-1.0276Y0.2531
X-1.0276Y-0.0126
X-1.0276Y-0.2783
X-1.0276Y-0.5441
X-1.0276Y-0.8098
X-0.9301Y0.9301
X-0.9301Y0.8671
X-0.9301Y0.7276
X-0.9301Y0.6644
X-0.9301Y0.6014
X-0.9301Y0.4618
X-0.9301Y0.3986
X-0.9301Y0.3356
X-0.9301Y0.1961
X-0.9301Y0.1329
X-0.9301Y0.0699
X-0.9301Y-0.0697
X-0.9301Y-0.1329
X-0.9301Y-0.1959
X-0.9301Y-0.3354
X-0.9301Y-0.3986
X-0.9301Y-0.4616
X-0.9301Y-0.6012
X-0.9301Y-0.6644
X-0.9301Y-0.7274
X-0.9301Y-0.8669
X-0.9301Y-0.9301
X-0.9301Y-0.9931
X-0.8425Y-1.374
X-0.8406Y-1.5728
X-0.7756Y-1.2913
X-0.6644Y0.9933
X-0.6644Y0.9301
X-0.6644Y0.8671
X-0.6644Y0.7276
X-0.6644Y0.6644
X-0.6644Y0.6014
X-0.6644Y0.4618
X-0.6644Y0.3986
X-0.6644Y0.3356
X-0.6644Y0.1961
X-0.6644Y0.1329
X-0.6644Y0.0699
X-0.6644Y-0.0697
X-0.6644Y-0.1329
X-0.6644Y-0.1959
X-0.6644Y-0.3354
X-0.6644Y-0.3986
X-0.6644Y-0.4616
X-0.6644Y-0.6012
X-0.6644Y-0.6644
X-0.6644Y-0.7274
X-0.6644Y-0.8669
X-0.6644Y-0.9301
X-0.6644Y-0.9931
X-0.6643Y-1.4183
X-0.5152Y-1.5728
X-0.3986Y0.9933
X-0.3986Y0.9303
X-0.3986Y0.8671
X-0.3986Y0.7276
X-0.3986Y0.6646
X-0.3986Y0.6014
X-0.3986Y0.4618
X-0.3986Y0.3988
X-0.3986Y0.3356
X-0.3986Y0.1961
X-0.3986Y0.1331
X-0.3986Y0.0699
X-0.3986Y-0.0697
X-0.3986Y-0.1327
X-0.3986Y-0.1959
X-0.3986Y-0.3354
X-0.3986Y-0.3984
X-0.3986Y-0.4616
X-0.3986Y-0.6012
X-0.3986Y-0.6642
X-0.3986Y-0.7274
X-0.3986Y-0.8669
X-0.3986Y-0.9299
X-0.3986Y-0.9931
X-0.3734Y-1.4665
X-0.1339Y1.4173
X-0.1329Y0.9933
X-0.1329Y0.9303
X-0.1329Y0.8671
X-0.1329Y0.7276
X-0.1329Y0.6646
X-0.1329Y0.6014
X-0.1329Y0.4618
X-0.1329Y0.3988
X-0.1329Y0.3356
X-0.1329Y0.1961
X-0.1329Y0.1331
X-0.1329Y0.0699
X-0.1329Y-0.0697
X-0.1329Y-0.1327
X-0.1329Y-0.1959
X-0.1329Y-0.3354
X-0.1329Y-0.3984
X-0.1329Y-0.4616
X-0.1329Y-0.6012
X-0.1329Y-0.6642
X-0.1329Y-0.7274
X-0.1329Y-0.8669
X-0.1329Y-0.9299
X-0.1329Y-0.9931
X0.0945Y1.2835
X0.1329Y0.9933
X0.1329Y0.9303
X0.1329Y0.8671
X0.1329Y0.7276
X0.1329Y0.6646
X0.1329Y0.6014
X0.1329Y0.4618
X0.1329Y0.3988
X0.1329Y0.3356
X0.1329Y0.1961
X0.1329Y0.1331
X0.1329Y0.0699
X0.1329Y-0.0697
X0.1329Y-0.1327
X0.1329Y-0.1959
X0.1329Y-0.3354
X0.1329Y-0.3984
X0.1329Y-0.4616
X0.1329Y-0.6012
X0.1329Y-0.6642
X0.1329Y-0.7274
X0.1329Y-0.8669
X0.1329Y-0.9299
X0.1329Y-0.9931
X0.3986Y0.9933
X0.3986Y0.9303
X0.3986Y0.8671
X0.3986Y0.7276
X0.3986Y0.6646
X0.3986Y0.6014
X0.3986Y0.4618
X0.3986Y0.3988
X0.3986Y0.3356
X0.3986Y0.1961
X0.3986Y0.1331
X0.3986Y0.0699
X0.3986Y-0.0697
X0.3986Y-0.1327
X0.3986Y-0.1959
X0.3986Y-0.3354
X0.3986Y-0.3984
X0.3986Y-0.4616
X0.3986Y-0.6012
X0.3986Y-0.6642
X0.3986Y-0.7274
X0.3986Y-0.8669
X0.3986Y-0.9299
X0.3986Y-0.9931
X0.6644Y0.9933
X0.6644Y0.9303
X0.6644Y0.8671
X0.6644Y0.7276
X0.6644Y0.6646
X0.6644Y0.6014
X0.6644Y0.4618
X0.6644Y0.3988
X0.6644Y0.3356
X0.6644Y0.1961
X0.6644Y0.1331
X0.6644Y0.0699
X0.6644Y-0.0697
X0.6644Y-0.1327
X0.6644Y-0.1959
X0.6644Y-0.3354
X0.6644Y-0.3984
X0.6644Y-0.4616
X0.6644Y-0.6012
X0.6644Y-0.6642
X0.6644Y-0.7274
X0.6644Y-0.8669
X0.6644Y-0.9299
X0.6644Y-0.9931
X0.9301Y0.9933
X0.9301Y0.9303
X0.9301Y0.8671
X0.9301Y0.7276
X0.9301Y0.6646
X0.9301Y0.6014
X0.9301Y0.4618
X0.9301Y0.3988
X0.9301Y0.3356
X0.9301Y0.1961
X0.9301Y0.1331
X0.9301Y0.0699
X0.9301Y-0.0697
X0.9301Y-0.1327
X0.9301Y-0.1959
X0.9301Y-0.3354
X0.9301Y-0.3984
X0.9301Y-0.4616
X0.9301Y-0.6012
X0.9301Y-0.6642
X0.9301Y-0.7274
X0.9301Y-0.8669
X0.9301Y-0.9299
X1.1002Y0.8669
X1.1002Y0.6012
X1.1002Y0.3354
X1.1002Y0.0697
X1.1002Y-0.1961
X1.1002Y-0.4618
X1.1002Y-0.7276
X1.5793Y1.3577
T2
X-1.2356Y1.3587
X-1.2356Y1.2587
X-1.2356Y1.1587
X-1.2356Y1.0587
X-1.2356Y0.9587
T3
X-1.4Y0.95
X-1.4Y0.85
X-1.4Y0.75
X-1.4Y0.65
X-1.4Y0.55
X-1.4Y0.45
X-1.4Y0.35
X-1.4Y0.25
X-1.4Y0.15
X-1.4Y0.05
X-1.4Y-0.05
X-1.4Y-0.15
X-1.4Y-0.25
X-1.4Y-0.35
X-1.4Y-0.45
X-1.4Y-0.55
X-1.4Y-0.65
X-1.4Y-0.75
X-1.4Y-0.85
X-1.4Y-0.95
X0.5Y1.15
X-0.15Y-1.5748
X-0.05Y-1.5748
X0.05Y-1.5748
X0.15Y-1.5748
X-0.5Y1.15
X0.5Y-1.15
X1.4Y0.95
X1.4Y0.85
X1.4Y0.75
X1.4Y0.65
X1.4Y0.55
X1.4Y0.45
X1.4Y0.35
X1.4Y0.25
X1.4Y0.15
X1.4Y0.05
X1.4Y-0.05
X1.4Y-0.15
X1.4Y-0.25
X1.4Y-0.35
X1.4Y-0.45
X1.4Y-0.55
X1.4Y-0.65
X1.4Y-0.75
X1.4Y-0.85
X1.4Y-0.95
X-0.1504Y1.5748
X-0.0504Y1.5748
X0.0496Y1.5748
X0.1496Y1.5748
X-0.5Y-1.15
T0
M30
